<svg width="9" height="9" viewBox="0 0 9 9" fill="none" xmlns="http://www.w3.org/2000/svg">
<path d="M8.93955 3.29784C8.86529 3.06098 8.72864 2.85064 8.54517 2.69081C8.36171 2.53098 8.13883 2.42809 7.90196 2.3939L6.33706 2.16348L5.63966 0.674636C5.52201 0.468985 5.35514 0.298693 5.15536 0.180433C4.95559 0.0621737 4.72976 0 4.5 0C4.27024 0 4.04441 0.0621737 3.84464 0.180433C3.64486 0.298693 3.47799 0.468985 3.36034 0.674636L2.66294 2.16348L1.09804 2.3939C0.86117 2.42809 0.638288 2.53098 0.454826 2.69081C0.271364 2.85064 0.134707 3.06098 0.0604458 3.29784C-0.0114908 3.53428 -0.0193808 3.78683 0.0376453 4.02764C0.0946713 4.26846 0.214399 4.48819 0.383632 4.66262L1.52329 5.81471L1.25113 7.44535C1.21072 7.69017 1.23696 7.94188 1.32685 8.17195C1.41675 8.40203 1.56672 8.60125 1.75975 8.74703C1.95278 8.8928 2.18114 8.97931 2.41895 8.99673C2.65676 9.01415 2.8945 8.96178 3.1052 8.84558L4.5 8.0657L5.8948 8.84558C6.0813 8.93647 6.28427 8.98481 6.49015 8.98737C6.75811 8.98638 7.01933 8.89977 7.23857 8.73923C7.43063 8.59429 7.58013 8.39644 7.67026 8.16789C7.7604 7.93933 7.78762 7.68913 7.74887 7.44535L7.47671 5.81471L8.61637 4.66262C8.7856 4.48819 8.90533 4.26846 8.96236 4.02764C9.01938 3.78683 9.01149 3.53428 8.93955 3.29784Z" fill="white"/>
</svg>
