<svg width="55" height="55" viewBox="0 0 55 55" fill="none" xmlns="http://www.w3.org/2000/svg">
<path d="M33.2833 4H21.2771L19.8998 10.8908C18.7594 11.4018 17.675 12.0296 16.664 12.7641L10.001 10.5098L4 20.9067L9.28147 25.5474C9.15392 26.7901 9.15392 28.0427 9.28147 29.2855L4 33.9262L10.0031 44.3231L16.664 42.0709C17.6688 42.7989 18.7502 43.429 19.8998 43.942L21.2771 50.8329H33.2833L34.6606 43.942C35.801 43.431 36.8853 42.8032 37.8963 42.0687L44.5594 44.3231L50.5625 33.9262L45.2789 29.2855C45.4064 28.0427 45.4064 26.7901 45.2789 25.5474L50.5604 20.9067L44.5573 10.5098L37.8985 12.762C36.8874 12.0282 35.803 11.4012 34.6627 10.8908L33.2833 4ZM27.2802 35.9315C25.0219 35.9315 22.856 35.0344 21.2591 33.4375C19.6622 31.8406 18.7651 29.6748 18.7651 27.4164C18.7651 25.1581 19.6622 22.9923 21.2591 21.3954C22.856 19.7985 25.0219 18.9014 27.2802 18.9014C29.5385 18.9014 31.7044 19.7985 33.3012 21.3954C34.8981 22.9923 35.7952 25.1581 35.7952 27.4164C35.7952 29.6748 34.8981 31.8406 33.3012 33.4375C31.7044 35.0344 29.5385 35.9315 27.2802 35.9315Z" fill="#ED5C18"/>
</svg>
