<svg width="55" height="55" viewBox="0 0 55 55" fill="none" xmlns="http://www.w3.org/2000/svg">
<g clip-path="url(#clip0_72_5081)">
<path d="M43.1236 29.0767C43.1293 29.01 43.1193 28.9428 43.0944 28.8806C43.0695 28.8184 43.0304 28.7628 42.9803 28.7184L41.8336 27.5001C41.7587 27.4522 41.6716 27.4268 41.5828 27.4268C41.4939 27.4268 41.4068 27.4522 41.3319 27.5001C39.8008 28.1443 38.1555 28.4733 36.4944 28.4676C35.167 28.4727 33.8477 28.2609 32.5886 27.8405C32.4814 27.8045 32.3647 27.8104 32.2616 27.8569C32.1586 27.9034 32.077 27.9871 32.0332 28.0913C31.5661 29.1444 30.9638 30.1322 30.2415 31.0296C30.2149 31.0919 30.2012 31.159 30.2012 31.2267C30.2012 31.2945 30.2149 31.3615 30.2415 31.4238C30.3633 31.8629 30.5129 32.2937 30.6894 32.7138C30.7389 32.8216 30.8291 32.9054 30.9403 32.9467C35.3119 34.5592 40.9915 37.2288 40.9915 45.4884V48.1759C40.9987 48.3072 40.9987 48.4388 40.9915 48.5701C40.9825 48.634 40.9875 48.6991 41.0061 48.761C41.0246 48.8228 41.0563 48.8799 41.099 48.9284C41.1891 49.0193 41.3115 49.0709 41.4394 49.0717H48.1044C48.342 49.0717 48.5699 48.9773 48.7379 48.8093C48.9059 48.6413 49.0003 48.4135 49.0003 48.1759V46.653C49.0003 41.0988 45.1303 39.7192 41.7082 38.5009L40.8303 38.1784C40.7191 38.137 40.6289 38.0533 40.5794 37.9455C40.525 37.8308 40.483 37.7107 40.454 37.5871C40.2938 36.8552 40.2938 36.0974 40.454 35.3655C42.0707 33.6582 43.0184 31.4257 43.1236 29.0767Z" fill="#ED5C18"/>
<path d="M23.9167 15.8543C23.9167 14.6032 24.1039 13.3592 24.4721 12.1635C24.518 12.0484 24.518 11.9202 24.4721 11.8051C24.3995 11.6994 24.2914 11.6232 24.1675 11.5901C23.4967 11.4434 22.8117 11.3713 22.125 11.3751C17.8787 11.3751 13.6146 14.1701 13.6146 20.3335C13.6146 27.7868 16.6425 29.5785 17.0008 30.331C17.3601 31.4385 17.3974 32.6252 17.1083 33.7531C16.9829 34.2189 16.8038 34.416 16.6783 34.4697L15.3167 34.9535C10.945 36.566 6 38.2501 6 45.4168V48.1043C6 48.3419 6.09438 48.5698 6.26238 48.7378C6.43038 48.9058 6.65824 49.0001 6.89583 49.0001H37.3542C37.5918 49.0001 37.8196 48.9058 37.9876 48.7378C38.1556 48.5698 38.25 48.3419 38.25 48.1043V45.4168C38.25 38.3397 33.2871 36.5839 28.8975 35.0072L27.5 34.5414C27.3746 34.5414 27.1954 34.2906 27.07 33.8247C26.7574 32.7055 26.7574 31.5219 27.07 30.4026C28.0648 29.3544 28.871 28.1421 29.4529 26.8193C29.4894 26.7217 29.4935 26.6149 29.4644 26.5149C29.4354 26.4148 29.3748 26.3268 29.2917 26.2639C27.6161 25.0973 26.2507 23.5394 25.314 21.7253C24.3773 19.9112 23.8976 17.8959 23.9167 15.8543Z" fill="#ED5C18"/>
<path d="M41.8322 24.1681C41.9125 24.1085 42.0099 24.0763 42.1099 24.0763C42.2099 24.0763 42.3073 24.1085 42.3876 24.1681L45.9709 27.7514C46.1375 27.9193 46.3356 28.0526 46.554 28.1436C46.7723 28.2346 47.0065 28.2814 47.243 28.2814C47.4795 28.2814 47.7137 28.2346 47.932 28.1436C48.1504 28.0526 48.3485 27.9193 48.5151 27.7514C48.683 27.5849 48.8163 27.3867 48.9073 27.1684C48.9982 26.95 49.0451 26.7159 49.0451 26.4793C49.0451 26.2428 48.9982 26.0086 48.9073 25.7903C48.8163 25.572 48.683 25.3738 48.5151 25.2073L44.9318 21.6239C44.8721 21.5436 44.8399 21.4462 44.8399 21.3462C44.8399 21.2462 44.8721 21.1488 44.9318 21.0685C46.2208 19.0174 46.7092 16.5634 46.3036 14.175C45.898 11.7867 44.6269 9.63144 42.7329 8.12091C40.839 6.61038 38.455 5.85043 36.0363 5.9862C33.6176 6.12197 31.3336 7.14394 29.6206 8.85693C27.9076 10.5699 26.8856 12.8539 26.7499 15.2726C26.6141 17.6913 27.3741 20.0753 28.8846 21.9693C30.3951 23.8632 32.5504 25.1343 34.9387 25.5399C37.327 25.9455 39.7811 25.4572 41.8322 24.1681ZM30.1863 15.8547C30.1863 14.6145 30.5541 13.4021 31.2432 12.3709C31.9322 11.3396 32.9116 10.5359 34.0574 10.0613C35.2033 9.58663 36.4641 9.46245 37.6806 9.70441C38.897 9.94637 40.0143 10.5436 40.8913 11.4206C41.7683 12.2976 42.3656 13.4149 42.6075 14.6314C42.8495 15.8478 42.7253 17.1086 42.2507 18.2545C41.776 19.4003 40.9723 20.3797 39.9411 21.0688C38.9098 21.7578 37.6974 22.1256 36.4572 22.1256C34.794 22.1256 33.199 21.4649 32.023 20.2889C30.847 19.1129 30.1863 17.5179 30.1863 15.8547Z" fill="#ED5C18"/>
</g>
<defs>
<clipPath id="clip0_72_5081">
<rect width="43" height="43" fill="white" transform="translate(6 6)"/>
</clipPath>
</defs>
</svg>
