<svg width="55" height="55" viewBox="0 0 55 55" fill="none" xmlns="http://www.w3.org/2000/svg">
<path d="M36.6673 6.875V13.75M18.334 6.875V13.75" stroke="#ED5C18" stroke-width="2" stroke-linecap="round"/>
<path fill-rule="evenodd" clip-rule="evenodd" d="M32.0833 9.1665H22.9167V13.7498C22.9167 14.9654 22.4338 16.1312 21.5742 16.9907C20.7147 17.8503 19.5489 18.3332 18.3333 18.3332C17.1178 18.3332 15.952 17.8503 15.0924 16.9907C14.2329 16.1312 13.75 14.9654 13.75 13.7498V9.34067C11.5156 9.56067 10.0123 10.058 8.88937 11.1809C6.875 13.193 6.875 16.4357 6.875 22.9165V34.3748C6.875 40.8557 6.875 44.0984 8.88937 46.1105C10.9015 48.1248 14.1442 48.1248 20.625 48.1248H34.375C40.8558 48.1248 44.0985 48.1248 46.1106 46.1105C48.125 44.0984 48.125 40.8557 48.125 34.3748V22.9165C48.125 16.4357 48.125 13.193 46.1106 11.1809C44.9877 10.058 43.4844 9.56067 41.25 9.34067V13.7498C41.25 14.9654 40.7671 16.1312 39.9076 16.9907C39.048 17.8503 37.8822 18.3332 36.6667 18.3332C35.4511 18.3332 34.2853 17.8503 33.4258 16.9907C32.5662 16.1312 32.0833 14.9654 32.0833 13.7498V9.1665ZM16.0417 27.4998C16.0417 26.892 16.2831 26.3092 16.7129 25.8794C17.1427 25.4496 17.7255 25.2082 18.3333 25.2082H36.6667C37.2745 25.2082 37.8574 25.4496 38.2871 25.8794C38.7169 26.3092 38.9583 26.892 38.9583 27.4998C38.9583 28.1076 38.7169 28.6905 38.2871 29.1203C37.8574 29.5501 37.2745 29.7915 36.6667 29.7915H18.3333C17.7255 29.7915 17.1427 29.5501 16.7129 29.1203C16.2831 28.6905 16.0417 28.1076 16.0417 27.4998ZM18.3333 34.3748C17.7255 34.3748 17.1427 34.6163 16.7129 35.046C16.2831 35.4758 16.0417 36.0587 16.0417 36.6665C16.0417 37.2743 16.2831 37.8572 16.7129 38.287C17.1427 38.7167 17.7255 38.9582 18.3333 38.9582H36.6667C37.2745 38.9582 37.8574 38.7167 38.2871 38.287C38.7169 37.8572 38.9583 37.2743 38.9583 36.6665C38.9583 36.0587 38.7169 35.4758 38.2871 35.046C37.8574 34.6163 37.2745 34.3748 36.6667 34.3748H18.3333Z" fill="#ED5C18"/>
</svg>
