<svg width="55" height="55" viewBox="0 0 55 55" fill="none" xmlns="http://www.w3.org/2000/svg">
<path d="M25.135 5.3282C25.8216 4.82683 26.6498 4.55664 27.5 4.55664C28.3502 4.55664 29.1784 4.82683 29.865 5.3282L46.8715 17.7399C49.1104 19.3715 47.9577 22.9122 45.1894 22.919H9.80833C7.04 22.9122 5.88958 19.3715 8.12625 17.7399L25.135 5.3282ZM29.7917 14.323C29.7917 13.7152 29.5502 13.1323 29.1205 12.7025C28.6907 12.2728 28.1078 12.0313 27.5 12.0313C26.8922 12.0313 26.3093 12.2728 25.8795 12.7025C25.4498 13.1323 25.2083 13.7152 25.2083 14.323C25.2083 14.9308 25.4498 15.5137 25.8795 15.9434C26.3093 16.3732 26.8922 16.6147 27.5 16.6147C28.1078 16.6147 28.6907 16.3732 29.1205 15.9434C29.5502 15.5137 29.7917 14.9308 29.7917 14.323ZM25.7812 36.6667H21.1979V25.2084H25.7812V36.6667ZM33.8021 36.6667H29.2188V25.2084H33.8021V36.6667ZM42.3958 36.6667H37.2396V25.2084H42.3958V36.6667ZM42.9688 38.9584H12.0312C10.6637 38.9584 9.35222 39.5016 8.38523 40.4686C7.41825 41.4356 6.875 42.7471 6.875 44.1147V45.2605C6.875 46.2115 7.645 46.9792 8.59375 46.9792H46.4062C46.8621 46.9792 47.2993 46.7982 47.6216 46.4758C47.9439 46.1535 48.125 45.7163 48.125 45.2605V44.1147C48.125 42.7471 47.5818 41.4356 46.6148 40.4686C45.6478 39.5016 44.3363 38.9584 42.9688 38.9584ZM17.7604 36.6667H12.6042V25.2084H17.7604V36.6667Z" fill="#ED5C18"/>
</svg>
