<svg width="55" height="55" viewBox="0 0 55 55" fill="none" xmlns="http://www.w3.org/2000/svg">
<g clip-path="url(#clip0_112_584)">
<path fill-rule="evenodd" clip-rule="evenodd" d="M22 7C21.6022 7 21.2206 7.15804 20.9393 7.43934C20.658 7.72064 20.5 8.10218 20.5 8.5V20.5H8.5C8.10218 20.5 7.72064 20.658 7.43934 20.9393C7.15804 21.2206 7 21.6022 7 22V34C7 34.3978 7.15804 34.7794 7.43934 35.0607C7.72064 35.342 8.10218 35.5 8.5 35.5H20.5V47.5C20.5 47.8978 20.658 48.2794 20.9393 48.5607C21.2206 48.842 21.6022 49 22 49H34C34.3978 49 34.7794 48.842 35.0607 48.5607C35.342 48.2794 35.5 47.8978 35.5 47.5V35.5H47.5C47.8978 35.5 48.2794 35.342 48.5607 35.0607C48.842 34.7794 49 34.3978 49 34V22C49 21.6022 48.842 21.2206 48.5607 20.9393C48.2794 20.658 47.8978 20.5 47.5 20.5H35.5V8.5C35.5 8.10218 35.342 7.72064 35.0607 7.43934C34.7794 7.15804 34.3978 7 34 7H22Z" fill="#ED5C18"/>
</g>
<defs>
<clipPath id="clip0_112_584">
<rect width="42" height="42" fill="white" transform="translate(7 7)"/>
</clipPath>
</defs>
</svg>
