<svg width="55" height="55" viewBox="0 0 55 55" fill="none" xmlns="http://www.w3.org/2000/svg">
<path d="M27.5009 4.5835C23.2464 4.5835 19.1661 6.2736 16.1577 9.28199C13.1493 12.2904 11.4592 16.3706 11.4592 20.6252V28.7102C11.4595 29.0657 11.3772 29.4164 11.2186 29.7345L7.28378 37.6018C7.09157 37.9862 7.00081 38.4133 7.02012 38.8426C7.03944 39.2719 7.16818 39.6891 7.39412 40.0547C7.62006 40.4202 7.9357 40.722 8.31106 40.9312C8.68643 41.1404 9.10905 41.2502 9.53878 41.2502H45.463C45.8927 41.2502 46.3153 41.1404 46.6907 40.9312C47.066 40.722 47.3817 40.4202 47.6076 40.0547C47.8336 39.6891 47.9623 39.2719 47.9816 38.8426C48.0009 38.4133 47.9102 37.9862 47.718 37.6018L43.7855 29.7345C43.6261 29.4166 43.5429 29.0658 43.5425 28.7102V20.6252C43.5425 16.3706 41.8524 12.2904 38.844 9.28199C35.8356 6.2736 31.7554 4.5835 27.5009 4.5835ZM27.5009 48.1252C26.0785 48.1259 24.691 47.6855 23.5295 46.8646C22.3679 46.0437 21.4896 44.8828 21.0155 43.5418H33.9863C33.5122 44.8828 32.6338 46.0437 31.4723 46.8646C30.3107 47.6855 28.9232 48.1259 27.5009 48.1252Z" fill="#ED6D18"/>
</svg>
