<svg width="55" height="55" viewBox="0 0 55 55" fill="none" xmlns="http://www.w3.org/2000/svg">
<path d="M27.5006 22.9168C29.9318 22.9168 32.2634 21.9511 33.9825 20.232C35.7015 18.5129 36.6673 16.1813 36.6673 13.7502C36.6673 11.319 35.7015 8.98743 33.9825 7.26835C32.2634 5.54927 29.9318 4.5835 27.5006 4.5835C25.0695 4.5835 22.7379 5.54927 21.0188 7.26835C19.2998 8.98743 18.334 11.319 18.334 13.7502C18.334 16.1813 19.2998 18.5129 21.0188 20.232C22.7379 21.9511 25.0695 22.9168 27.5006 22.9168ZM12.6048 29.7918C14.1243 29.7918 15.5815 29.1882 16.6559 28.1138C17.7304 27.0394 18.334 25.5821 18.334 24.0627C18.334 22.5432 17.7304 21.086 16.6559 20.0115C15.5815 18.9371 14.1243 18.3335 12.6048 18.3335C11.0853 18.3335 9.62811 18.9371 8.55369 20.0115C7.47926 21.086 6.87565 22.5432 6.87565 24.0627C6.87565 25.5821 7.47926 27.0394 8.55369 28.1138C9.62811 29.1882 11.0853 29.7918 12.6048 29.7918ZM48.1256 24.0627C48.1256 25.5821 47.522 27.0394 46.4476 28.1138C45.3732 29.1882 43.916 29.7918 42.3965 29.7918C40.877 29.7918 39.4198 29.1882 38.3453 28.1138C37.2709 27.0394 36.6673 25.5821 36.6673 24.0627C36.6673 22.5432 37.2709 21.086 38.3453 20.0115C39.4198 18.9371 40.877 18.3335 42.3965 18.3335C43.916 18.3335 45.3732 18.9371 46.4476 20.0115C47.522 21.086 48.1256 22.5432 48.1256 24.0627ZM27.5006 25.2085C30.5396 25.2085 33.4541 26.4157 35.6029 28.5646C37.7518 30.7134 38.959 33.6279 38.959 36.6668V50.4168H16.0423V36.6668C16.0423 33.6279 17.2495 30.7134 19.3984 28.5646C21.5472 26.4157 24.4617 25.2085 27.5006 25.2085ZM11.459 36.6668C11.459 35.0787 11.6882 33.5456 12.119 32.0972L11.7294 32.1293C9.76516 32.345 7.94967 33.2782 6.63104 34.7499C5.31242 36.2216 4.58347 38.1283 4.58398 40.1043V50.4168H11.459V36.6668ZM50.4173 50.4168V40.1043C50.4176 38.061 49.638 36.0946 48.2376 34.6066C46.8373 33.1185 44.9219 32.221 42.8823 32.0972C43.3109 33.5456 43.5423 35.0787 43.5423 36.6668V50.4168H50.4173Z" fill="#ED5C18"/>
</svg>
