<svg width="55" height="55" viewBox="0 0 55 55" fill="none" xmlns="http://www.w3.org/2000/svg">
<path fill-rule="evenodd" clip-rule="evenodd" d="M47.925 13.4958C48.6973 14.6508 48.6973 16.2618 48.6973 19.4793V48.6981H49.8431C50.2989 48.6981 50.7361 48.8792 51.0584 49.2015C51.3808 49.5238 51.5618 49.961 51.5618 50.4168C51.5618 50.8727 51.3808 51.3098 51.0584 51.6322C50.7361 51.9545 50.2989 52.1356 49.8431 52.1356H4.00977C3.55392 52.1356 3.11675 51.9545 2.79443 51.6322C2.4721 51.3098 2.29102 50.8727 2.29102 50.4168C2.29102 49.961 2.4721 49.5238 2.79443 49.2015C3.11675 48.8792 3.55392 48.6981 4.00977 48.6981H5.1556V19.4793C5.1556 16.2618 5.1556 14.6508 5.92789 13.4958C6.26237 12.9951 6.69222 12.5653 7.19289 12.2308C8.20352 11.5547 9.56247 11.47 12.0398 11.4608C12.0321 12.13 12.0291 12.8251 12.0306 13.5462V16.6147H9.73893C9.28309 16.6147 8.84592 16.7958 8.52359 17.1182C8.20126 17.4405 8.02018 17.8777 8.02018 18.3335C8.02018 18.7893 8.20126 19.2265 8.52359 19.5488C8.84592 19.8712 9.28309 20.0522 9.73893 20.0522H12.0306V23.4897H9.73893C9.28309 23.4897 8.84592 23.6708 8.52359 23.9932C8.20126 24.3155 8.02018 24.7527 8.02018 25.2085C8.02018 25.6643 8.20126 26.1015 8.52359 26.4238C8.84592 26.7462 9.28309 26.9272 9.73893 26.9272H12.0306V30.3647H9.73893C9.28309 30.3647 8.84592 30.5458 8.52359 30.8682C8.20126 31.1905 8.02018 31.6277 8.02018 32.0835C8.02018 32.5393 8.20126 32.9765 8.52359 33.2988C8.84592 33.6212 9.28309 33.8022 9.73893 33.8022H12.0306V48.6981H15.4681V13.7502C15.4681 9.42808 15.4681 7.26933 16.811 5.92641C18.1539 4.5835 20.3127 4.5835 24.6348 4.5835H29.2181C33.5402 4.5835 35.6989 4.5835 37.0418 5.92641C38.3848 7.26933 38.3848 9.42808 38.3848 13.7502V48.6981H41.8223V33.8022H44.1139C44.5698 33.8022 45.0069 33.6212 45.3293 33.2988C45.6516 32.9765 45.8327 32.5393 45.8327 32.0835C45.8327 31.6277 45.6516 31.1905 45.3293 30.8682C45.0069 30.5458 44.5698 30.3647 44.1139 30.3647H41.8223V26.9272H44.1139C44.5698 26.9272 45.0069 26.7462 45.3293 26.4238C45.6516 26.1015 45.8327 25.6643 45.8327 25.2085C45.8327 24.7527 45.6516 24.3155 45.3293 23.9932C45.0069 23.6708 44.5698 23.4897 44.1139 23.4897H41.8223V20.0522H44.1139C44.5698 20.0522 45.0069 19.8712 45.3293 19.5488C45.6516 19.2265 45.8327 18.7893 45.8327 18.3335C45.8327 17.8777 45.6516 17.4405 45.3293 17.1182C45.0069 16.7958 44.5698 16.6147 44.1139 16.6147H41.8223V13.5439C41.8238 12.8259 41.8207 12.1307 41.8131 11.4585C44.2904 11.47 45.6493 11.5547 46.66 12.2308C47.1606 12.5653 47.5905 12.9951 47.925 13.4958ZM28.6452 43.5418C28.6452 43.086 28.4641 42.6488 28.1418 42.3265C27.8194 42.0042 27.3823 41.8231 26.9264 41.8231C26.4706 41.8231 26.0334 42.0042 25.7111 42.3265C25.3888 42.6488 25.2077 43.086 25.2077 43.5418V48.6981H28.6452V43.5418ZM20.6243 34.3752C20.6243 33.9193 20.8054 33.4821 21.1278 33.1598C21.4501 32.8375 21.8873 32.6564 22.3431 32.6564H31.5098C31.9656 32.6564 32.4028 32.8375 32.7251 33.1598C33.0474 33.4821 33.2285 33.9193 33.2285 34.3752C33.2285 34.831 33.0474 35.2682 32.7251 35.5905C32.4028 35.9128 31.9656 36.0939 31.5098 36.0939H22.3431C21.8873 36.0939 21.4501 35.9128 21.1278 35.5905C20.8054 35.2682 20.6243 34.831 20.6243 34.3752ZM22.3431 25.7814C21.8873 25.7814 21.4501 25.9625 21.1278 26.2848C20.8054 26.6072 20.6243 27.0443 20.6243 27.5002C20.6243 27.956 20.8054 28.3932 21.1278 28.7155C21.4501 29.0378 21.8873 29.2189 22.3431 29.2189H31.5098C31.9656 29.2189 32.4028 29.0378 32.7251 28.7155C33.0474 28.3932 33.2285 27.956 33.2285 27.5002C33.2285 27.0443 33.0474 26.6072 32.7251 26.2848C32.4028 25.9625 31.9656 25.7814 31.5098 25.7814H22.3431ZM21.1973 16.0418C21.1973 14.3704 21.8612 12.7675 23.0431 11.5856C24.225 10.4037 25.8279 9.73975 27.4993 9.73975C29.1708 9.73975 30.7737 10.4037 31.9556 11.5856C33.1375 12.7675 33.8014 14.3704 33.8014 16.0418C33.8014 17.7132 33.1375 19.3162 31.9556 20.4981C30.7737 21.6799 29.1708 22.3439 27.4993 22.3439C25.8279 22.3439 24.225 21.6799 23.0431 20.4981C21.8612 19.3162 21.1973 17.7132 21.1973 16.0418ZM24.6348 16.0418C24.6348 15.2821 24.9366 14.5535 25.4738 14.0163C26.011 13.479 26.7396 13.1772 27.4993 13.1772C28.2591 13.1772 28.9877 13.479 29.5249 14.0163C30.0621 14.5535 30.3639 15.2821 30.3639 16.0418C30.3639 16.8016 30.0621 17.5302 29.5249 18.0674C28.9877 18.6046 28.2591 18.9064 27.4993 18.9064C26.7396 18.9064 26.011 18.6046 25.4738 18.0674C24.9366 17.5302 24.6348 16.8016 24.6348 16.0418Z" fill="#ED5C18"/>
</svg>
