<svg width="55" height="55" viewBox="0 0 55 55" fill="none" xmlns="http://www.w3.org/2000/svg">
<path d="M4.58398 20.6249C4.58398 16.3028 4.58398 14.1441 5.9269 12.8012C7.26982 11.4583 9.42857 11.4583 13.7507 11.4583H41.2506C45.5727 11.4583 47.7315 11.4583 49.0744 12.8012C50.4173 14.1441 50.4173 16.3028 50.4173 20.6249C50.4173 21.7043 50.4173 22.2451 50.0827 22.582C49.7459 22.9166 49.2027 22.9166 48.1256 22.9166H6.87565C5.79628 22.9166 5.25544 22.9166 4.91857 22.582C4.58398 22.2451 4.58398 21.702 4.58398 20.6249ZM4.58398 41.2499C4.58398 45.572 4.58398 47.7307 5.9269 49.0737C7.26982 50.4166 9.42857 50.4166 13.7507 50.4166H41.2506C45.5727 50.4166 47.7315 50.4166 49.0744 49.0737C50.4173 47.7307 50.4173 45.572 50.4173 41.2499V29.7916C50.4173 28.7122 50.4173 28.1714 50.0827 27.8345C49.7459 27.4999 49.2027 27.4999 48.1256 27.4999H6.87565C5.79628 27.4999 5.25544 27.4999 4.91857 27.8345C4.58398 28.1714 4.58398 28.7145 4.58398 29.7916V41.2499Z" fill="#ED5C18"/>
<path d="M16.043 6.875V13.75M38.9596 6.875V13.75" stroke="#ED5C18" stroke-width="2" stroke-linecap="round"/>
</svg>
