<svg width="55" height="55" viewBox="0 0 55 55" fill="none" xmlns="http://www.w3.org/2000/svg">
<path d="M45.3171 51.8489L40.1035 46.6353C38.232 47.8576 36.2367 48.7933 34.1177 49.4426C31.9987 50.0919 29.7925 50.4166 27.4993 50.4166C24.3292 50.4166 21.35 49.8146 18.5619 48.6108C15.7737 47.4069 13.3483 45.7744 11.2858 43.7135C9.22331 41.6525 7.59088 39.2271 6.38852 36.4374C5.18615 33.6477 4.58421 30.6685 4.58268 27.4999C4.58268 25.2083 4.90734 23.0029 5.55664 20.8839C6.20595 18.7648 7.14171 16.7688 8.36393 14.8958L3.15039 9.68221L6.41602 6.41659L48.5827 48.5833L45.3171 51.8489ZM16.041 29.7916H23.2598L18.6764 25.2083H16.041V29.7916ZM46.6348 40.1041L36.3223 29.7916H38.9577V25.2083H31.7389L14.8952 8.3645C16.7667 7.14228 18.7628 6.20652 20.8833 5.55721C23.0039 4.9079 25.2092 4.58325 27.4993 4.58325C30.6695 4.58325 33.6487 5.1852 36.4368 6.38909C39.225 7.59297 41.6504 9.2254 43.7129 11.2864C45.7754 13.3474 47.4086 15.7727 48.6125 18.5624C49.8164 21.3521 50.4175 24.3313 50.416 27.4999C50.416 29.7916 50.0914 31.9977 49.4421 34.1183C48.7928 36.2388 47.857 38.2341 46.6348 40.1041Z" fill="#ED5C18"/>
</svg>
