<svg width="55" height="55" viewBox="0 0 55 55" fill="none" xmlns="http://www.w3.org/2000/svg">
<path d="M53.8548 38.9582L42.3965 50.4166L34.3756 42.3957L37.8131 38.9582L42.3965 43.5416L50.4173 35.5208L53.8548 38.9582ZM29.7923 43.5416C29.7923 40.1041 30.9381 37.1249 33.0006 34.6041L25.209 29.7916V16.0416H28.6465V27.9583L35.7507 32.3124C38.0423 30.7083 40.5631 29.7916 43.5423 29.7916C45.834 29.7916 48.1256 30.4791 49.959 31.3958C50.1881 30.0208 50.4173 28.8749 50.4173 27.4999C50.4173 14.8958 40.1048 4.58325 27.5006 4.58325C14.8965 4.58325 4.58398 14.8958 4.58398 27.4999C4.58398 40.1041 14.8965 50.4166 27.5006 50.4166C28.8756 50.4166 30.2506 50.1874 31.3965 49.9582C30.4798 48.1249 29.7923 45.8332 29.7923 43.5416Z" fill="#ED5C18"/>
</svg>
