<svg width="55" height="55" viewBox="0 0 55 55" fill="none" xmlns="http://www.w3.org/2000/svg">
<path d="M36.6667 38.9583V36.6667H29.7917V29.7917H36.6667V34.375H41.25V38.9583H38.9583V43.5417H34.375V48.125H29.7917V41.25H34.375V38.9583H36.6667ZM48.125 48.125H38.9583V43.5417H43.5417V38.9583H48.125V48.125ZM6.875 6.875H25.2083V25.2083H6.875V6.875ZM29.7917 6.875H48.125V25.2083H29.7917V6.875ZM6.875 29.7917H25.2083V48.125H6.875V29.7917ZM41.25 29.7917H48.125V34.375H41.25V29.7917ZM13.75 13.75V18.3333H18.3333V13.75H13.75ZM13.75 36.6667V41.25H18.3333V36.6667H13.75ZM36.6667 13.75V18.3333H41.25V13.75H36.6667Z" fill="#ED5C18"/>
</svg>
