<svg width="55" height="55" viewBox="0 0 55 55" fill="none" xmlns="http://www.w3.org/2000/svg">
<path d="M30.3716 4C31.0183 4 31.5969 4.43005 31.8147 5.07394L33.3679 9.67285C33.9237 9.82011 34.4033 9.97051 34.8066 10.124C35.2466 10.2917 35.8186 10.5502 36.5226 10.8995L40.1392 8.85505C40.4343 8.68722 40.7724 8.62649 41.1026 8.68202C41.4328 8.73756 41.7371 8.90635 41.9696 9.1629L45.1507 12.6761C45.573 13.1438 45.6918 13.8276 45.4542 14.4245L43.7581 18.6709C44.0382 19.2224 44.2641 19.6955 44.4357 20.0903C44.6205 20.518 44.8493 21.1133 45.1221 21.8763L49.0753 23.6858C49.6693 23.956 50.0367 24.5905 49.9971 25.2696L49.7067 30.1459C49.6869 30.4626 49.5804 30.7662 49.4005 31.019C49.2206 31.2717 48.9752 31.4625 48.6947 31.5676L44.9505 32.9893C44.8434 33.5408 44.7305 34.0155 44.6117 34.4134C44.4194 35.0301 44.2007 35.6371 43.9561 36.2323L45.837 40.6738C45.9708 40.9856 46.0072 41.3352 45.9406 41.6708C45.874 42.0064 45.7081 42.3102 45.4674 42.5373L41.8904 45.9495C41.6553 46.1741 41.3612 46.3162 41.048 46.3566C40.7348 46.3969 40.4176 46.3336 40.1392 46.1751L36.4522 44.0883C35.8759 44.4158 35.2807 44.7039 34.6702 44.9507L33.0599 45.5946L31.6299 49.8246C31.5229 50.1336 31.3315 50.4012 31.0805 50.5927C30.8294 50.7842 30.5304 50.8907 30.222 50.8985L26.0421 50.9996C25.7254 51.0074 25.4142 50.9108 25.1508 50.7228C24.8875 50.5348 24.6848 50.2646 24.5704 49.9491L22.8852 45.1857C22.3104 44.9754 21.7411 44.7481 21.1781 44.5042C20.7177 44.2913 20.2642 44.0617 19.8185 43.8157L15.6387 45.7239C15.3634 45.85 15.0596 45.8876 14.7646 45.8321C14.4696 45.7765 14.1961 45.6303 13.9777 45.4113L10.8846 42.3117C10.6535 42.0825 10.4961 41.7812 10.4348 41.4507C10.3736 41.1203 10.4117 40.7776 10.5437 40.4717L12.341 36.2887C12.1028 35.7928 11.8812 35.288 11.6766 34.7753C11.4383 34.1474 11.2182 33.5119 11.0166 32.8695L7.07877 31.5887C6.75868 31.4854 6.4795 31.272 6.28458 30.9818C6.08965 30.6916 5.9899 30.3407 6.00081 29.9837L6.1548 25.4694C6.16624 25.175 6.25257 24.8895 6.40451 24.6435C6.55645 24.3976 6.76826 24.2005 7.01717 24.0735L11.1486 21.9538C11.3393 21.205 11.508 20.619 11.6546 20.196C11.8622 19.6279 12.0927 19.0697 12.3454 18.5229L10.5547 14.4809C10.4177 14.1742 10.3759 13.8288 10.4352 13.495C10.4946 13.1611 10.652 12.8562 10.8846 12.6244L13.9733 9.50835C14.1896 9.28969 14.4605 9.14268 14.7533 9.08512C15.0462 9.02757 15.3483 9.06193 15.6233 9.18405L19.7987 11.0264C20.2592 10.699 20.6787 10.4295 21.0571 10.218C21.5073 9.96424 22.1116 9.69321 22.8698 9.40495L24.3218 5.07864C24.4302 4.76278 24.6267 4.49003 24.8847 4.29717C25.1428 4.1043 25.45 4.00058 25.7649 4H30.3716ZM28.0528 20.4945C24.3856 20.4945 21.4135 23.6317 21.4135 27.5045C21.4135 31.3772 24.3856 34.5168 28.0528 34.5168C31.7201 34.5168 34.69 31.3772 34.69 27.5045C34.69 23.6317 31.7201 20.4945 28.0528 20.4945Z" fill="#ED5C18"/>
</svg>
