<svg width="55" height="55" viewBox="0 0 55 55" fill="none" xmlns="http://www.w3.org/2000/svg">
<path d="M40.2836 10.1568L35.7002 7.75058C31.6761 5.63995 29.664 4.5835 27.5006 4.5835C25.3373 4.5835 23.3252 5.63766 19.3011 7.75058L18.5654 8.13787L39.014 19.8231L48.2173 15.2168C46.7369 13.5393 44.349 12.2858 40.2836 10.1522M49.8398 18.251L40.6777 22.8343V29.7918C40.6777 30.2477 40.4967 30.6848 40.1743 31.0072C39.852 31.3295 39.4148 31.5106 38.959 31.5106C38.5031 31.5106 38.066 31.3295 37.7436 31.0072C37.4213 30.6848 37.2402 30.2477 37.2402 29.7918V24.5531L29.2194 28.5635V50.1968C30.8648 49.7866 32.7371 48.8058 35.7002 47.2497L40.2836 44.8435C45.2129 42.2562 47.6788 40.9637 49.0492 38.6377C50.4173 36.3139 50.4173 33.4195 50.4173 27.6377V27.3695C50.4173 23.0314 50.4173 20.3181 49.8398 18.251ZM25.7819 50.1968V28.5635L5.16148 18.251C4.58398 20.3181 4.58398 23.0314 4.58398 27.365V27.6331C4.58398 33.4195 4.58398 36.3139 5.95211 38.6377C7.32253 40.9637 9.78836 42.2585 14.7177 44.8458L19.3011 47.2497C22.2642 48.8058 24.1365 49.7866 25.7819 50.1968ZM6.78398 15.2191L27.5006 25.5775L35.3175 21.6702L14.9538 10.0331L14.7177 10.1568C10.6546 12.2881 8.2644 13.5416 6.78398 15.2214" fill="#ED5C18"/>
</svg>
