<svg width="55" height="55" viewBox="0 0 55 55" fill="none" xmlns="http://www.w3.org/2000/svg">
<path fill-rule="evenodd" clip-rule="evenodd" d="M32.6569 5.72917C32.6569 5.57722 32.5965 5.4315 32.4891 5.32405C32.3817 5.21661 32.2359 5.15625 32.084 5.15625H16.0423C14.3709 5.15625 12.7679 5.82022 11.5861 7.00209C10.4042 8.18396 9.74023 9.78692 9.74023 11.4583V43.5417C9.74023 45.2131 10.4042 46.816 11.5861 47.9979C12.7679 49.1798 14.3709 49.8438 16.0423 49.8438H38.959C40.6304 49.8438 42.2334 49.1798 43.4152 47.9979C44.5971 46.816 45.2611 45.2131 45.2611 43.5417V20.9619C45.2611 20.8099 45.2007 20.6642 45.0933 20.5568C44.9858 20.4493 44.8401 20.389 44.6881 20.389H34.3756C33.9198 20.389 33.4826 20.2079 33.1603 19.8855C32.838 19.5632 32.6569 19.126 32.6569 18.6702V5.72917ZM34.3756 28.0729C34.8315 28.0729 35.2687 28.254 35.591 28.5763C35.9133 28.8987 36.0944 29.3358 36.0944 29.7917C36.0944 30.2475 35.9133 30.6847 35.591 31.007C35.2687 31.3293 34.8315 31.5104 34.3756 31.5104H20.6257C20.1698 31.5104 19.7326 31.3293 19.4103 31.007C19.088 30.6847 18.9069 30.2475 18.9069 29.7917C18.9069 29.3358 19.088 28.8987 19.4103 28.5763C19.7326 28.254 20.1698 28.0729 20.6257 28.0729H34.3756ZM34.3756 37.2396C34.8315 37.2396 35.2687 37.4207 35.591 37.743C35.9133 38.0653 36.0944 38.5025 36.0944 38.9583C36.0944 39.4142 35.9133 39.8513 35.591 40.1737C35.2687 40.496 34.8315 40.6771 34.3756 40.6771H20.6257C20.1698 40.6771 19.7326 40.496 19.4103 40.1737C19.088 39.8513 18.9069 39.4142 18.9069 38.9583C18.9069 38.5025 19.088 38.0653 19.4103 37.743C19.7326 37.4207 20.1698 37.2396 20.6257 37.2396H34.3756Z" fill="#ED5C18"/>
<path d="M36.0938 6.47183C36.0938 6.05017 36.536 5.78204 36.8638 6.04558C37.1418 6.27017 37.3885 6.53142 37.604 6.82933L44.5088 16.4475C44.6646 16.6675 44.495 16.9516 44.2246 16.9516H36.6667C36.5147 16.9516 36.369 16.8913 36.2616 16.7838C36.1541 16.6764 36.0938 16.5307 36.0938 16.3787V6.47183Z" fill="#ED5C18"/>
</svg>
