<svg width="55" height="55" viewBox="0 0 55 55" fill="none" xmlns="http://www.w3.org/2000/svg">
<g clip-path="url(#clip0_49_1324)">
<path fill-rule="evenodd" clip-rule="evenodd" d="M46.9821 18.1445C46.5715 18.2918 46.1274 18.3195 45.7017 18.2243C45.276 18.1292 44.886 17.9151 44.5771 17.607L42.8817 15.9085L29.9909 28.7992C29.777 29.0133 29.523 29.1831 29.2434 29.299C28.9638 29.4148 28.6642 29.4745 28.3615 29.4745C28.0589 29.4745 27.7592 29.4148 27.4797 29.299C27.2001 29.1831 26.9461 29.0133 26.7321 28.7992L21.8148 23.8819L10.1004 35.5963C9.88776 35.8162 9.63349 35.9916 9.35239 36.1122C9.07129 36.2328 8.76899 36.2962 8.46312 36.2987C8.15725 36.3012 7.85395 36.2428 7.5709 36.1268C7.28786 36.0109 7.03074 35.8397 6.81456 35.6233C6.59837 35.4069 6.42745 35.1496 6.31175 34.8665C6.19606 34.5833 6.13792 34.28 6.14072 33.9741C6.14352 33.6682 6.20721 33.366 6.32807 33.085C6.44893 32.804 6.62454 32.5499 6.84465 32.3375L20.1808 18.9922C20.3947 18.7781 20.6487 18.6083 20.9283 18.4924C21.2079 18.3766 21.5076 18.3169 21.8102 18.3169C22.1128 18.3169 22.4125 18.3766 22.6921 18.4924C22.9716 18.6083 23.2257 18.7781 23.4396 18.9922L28.36 23.9126L39.6229 12.6497L37.9275 10.9542C37.6188 10.6459 37.404 10.2562 37.3081 9.83049C37.2122 9.4048 37.2392 8.96063 37.386 8.54969C37.5327 8.13875 37.7931 7.77794 38.137 7.50926C38.4808 7.24058 38.8939 7.07508 39.3281 7.03203C42.1323 6.7556 43.7448 6.7556 46.4446 7.03203C46.9715 7.08651 47.4635 7.3209 47.8377 7.69573C48.212 8.07056 48.4457 8.56292 48.4994 9.08989C48.7789 11.7866 48.7758 13.4022 48.4994 16.2033C48.4562 16.6373 48.2906 17.0501 48.022 17.3938C47.7534 17.7374 47.3928 17.9977 46.9821 18.1445ZM41.9972 22.7762C42.3452 22.4387 42.7908 22.2196 43.2706 22.1501C43.7504 22.0807 44.2398 22.1643 44.6693 22.3892L47.6547 23.9556C48.041 24.1589 48.3616 24.4678 48.5791 24.8462C48.7966 25.2247 48.9021 25.6572 48.8833 26.0933L48.0356 46.3279C48.011 46.9222 47.7575 47.4839 47.3281 47.8955C46.8987 48.3072 46.3268 48.5368 45.732 48.5362H39.6751C39.4715 48.5362 39.2762 48.4553 39.1322 48.3113C38.9882 48.1673 38.9073 47.972 38.9073 47.7684V26.0964C38.9071 25.9933 38.9277 25.8912 38.9678 25.7962C39.0079 25.7012 39.0667 25.6153 39.1407 25.5435L41.9972 22.7762ZM35.068 47.7684C35.068 47.972 34.9871 48.1673 34.8431 48.3113C34.6991 48.4553 34.5038 48.5362 34.3001 48.5362H22.7823C22.5786 48.5362 22.3833 48.4553 22.2393 48.3113C22.0953 48.1673 22.0144 47.972 22.0144 47.7684V29.9111C22.0144 29.8497 22.0605 29.8005 22.1219 29.8067C22.6226 29.8312 23.114 30.0217 23.5194 30.3749L28.5719 34.81C28.7168 34.9375 28.9044 35.0058 29.0973 35.0013C29.2903 34.9967 29.4744 34.9197 29.6131 34.7855L33.7657 30.7557C33.8741 30.6507 34.0111 30.5799 34.1595 30.5522C34.308 30.5246 34.4612 30.5413 34.6002 30.6003C34.7392 30.6593 34.8577 30.7579 34.9409 30.8839C35.0241 31.0099 35.0683 31.1576 35.068 31.3086V47.7684ZM16.8575 34.0606L7.30536 43.8155C6.8826 44.2458 6.6455 44.8247 6.64501 45.428V46.2327C6.64501 47.5042 7.67701 48.5362 8.94858 48.5362H17.4073C17.6109 48.5362 17.8062 48.4553 17.9502 48.3113C18.0942 48.1673 18.1751 47.972 18.1751 47.7684V34.5981C18.1754 34.4453 18.1301 34.2958 18.045 34.1689C17.9599 34.042 17.8388 33.9434 17.6973 33.8857C17.5558 33.8279 17.4003 33.8138 17.2507 33.8449C17.1011 33.8761 16.9642 33.9512 16.8575 34.0606Z" fill="#ED5C18"/>
</g>
<defs>
<clipPath id="clip0_49_1324">
<rect width="43" height="43" fill="white" transform="translate(6 6)"/>
</clipPath>
</defs>
</svg>
