<svg width="55" height="55" viewBox="0 0 55 55" fill="none" xmlns="http://www.w3.org/2000/svg">
<path d="M47.8975 45.4733H40.7672C40.6951 45.4765 40.6235 45.4612 40.559 45.429C40.4945 45.3967 40.4394 45.3486 40.3987 45.289C40.368 45.2292 40.3519 45.1629 40.3519 45.0956C40.3519 45.0283 40.368 44.962 40.3987 44.9021L42.8307 35.6898C42.8961 35.4384 42.9001 35.1749 42.8424 34.9216C42.7847 34.6683 42.6669 34.4326 42.4991 34.2343C42.3239 34.0239 42.104 33.8552 41.8554 33.7405C41.6068 33.6257 41.3357 33.5678 41.062 33.571H14.7332C14.4595 33.5678 14.1884 33.6257 13.9398 33.7405C13.6912 33.8552 13.4713 34.0239 13.2961 34.2343C13.1283 34.4326 13.0105 34.6683 12.9528 34.9216C12.8951 35.1749 12.8991 35.4384 12.9645 35.6898L15.3965 44.9021C15.4272 44.962 15.4433 45.0283 15.4433 45.0956C15.4433 45.1629 15.4272 45.2292 15.3965 45.289C15.3513 45.3575 15.2872 45.4113 15.212 45.444C15.1368 45.4767 15.0537 45.4869 14.9728 45.4733H7.84246C7.35381 45.4733 6.88517 45.6674 6.53964 46.0129C6.19412 46.3585 6 46.8271 6 47.3157C6 47.8044 6.19412 48.273 6.53964 48.6186C6.88517 48.9641 7.35381 49.1582 7.84246 49.1582H47.8975C48.3861 49.1582 48.8548 48.9641 49.2003 48.6186C49.5458 48.273 49.7399 47.8044 49.7399 47.3157C49.7399 46.8271 49.5458 46.3585 49.2003 46.0129C48.8548 45.6674 48.3861 45.4733 47.8975 45.4733ZM27.87 38.1035C28.3226 38.0998 28.7661 38.2307 29.1442 38.4795C29.5224 38.7283 29.818 39.0838 29.9938 39.501C30.1695 39.9181 30.2174 40.378 30.1314 40.8224C30.0453 41.2668 29.8292 41.6756 29.5104 41.997C29.1916 42.3183 28.7846 42.5378 28.3409 42.6274C27.8972 42.7171 27.4369 42.6729 27.0184 42.5005C26.5999 42.3282 26.242 42.0354 25.9901 41.6593C25.7382 41.2832 25.6038 40.8407 25.6037 40.3881C25.6013 40.089 25.6581 39.7923 25.7709 39.5152C25.8837 39.2381 26.0503 38.9861 26.261 38.7737C26.4716 38.5613 26.7223 38.3927 26.9984 38.2777C27.2746 38.1627 27.5708 38.1035 27.87 38.1035ZM17.3311 29.9414C17.3406 30.1793 17.4419 30.4042 17.6136 30.5691C17.7854 30.734 18.0143 30.8259 18.2523 30.8258H37.4876C37.7288 30.8258 37.9603 30.7313 38.1326 30.5625C38.3048 30.3937 38.404 30.1641 38.4088 29.923C38.4084 27.9513 37.8559 26.0193 36.8139 24.3455C35.7719 22.6718 34.282 21.3233 32.513 20.4527C32.4438 20.4145 32.3862 20.3584 32.3461 20.2904C32.306 20.2223 32.2848 20.1448 32.2848 20.0658C32.2848 19.9868 32.306 19.9093 32.3461 19.8412C32.3862 19.7732 32.4438 19.7171 32.513 19.6789C33.9103 18.6847 34.9555 17.2721 35.4976 15.645C36.0397 14.018 36.0506 12.2608 35.5287 10.6271C35.0069 8.99351 33.9793 7.56803 32.5944 6.55656C31.2094 5.54509 29.5389 5 27.8239 5C26.1089 5 24.4384 5.54509 23.0534 6.55656C21.6685 7.56803 20.6409 8.99351 20.1191 10.6271C19.5972 12.2608 19.6081 14.018 20.1502 15.645C20.6923 17.2721 21.7375 18.6847 23.1349 19.6789C23.1998 19.7284 23.252 19.7927 23.2872 19.8664C23.3224 19.94 23.3397 20.021 23.3375 20.1027C23.328 20.1805 23.2995 20.2548 23.2545 20.3191C23.2095 20.3833 23.1495 20.4355 23.0796 20.4711C21.3394 21.3638 19.8809 22.7215 18.8661 24.3933C17.8513 26.0652 17.3199 27.9857 17.3311 29.9414ZM27.87 22.7558C28.2316 22.7558 28.5784 22.8994 28.834 23.1551C29.0897 23.4108 29.2334 23.7576 29.2334 24.1192V26.367C29.2334 26.7286 29.0897 27.0754 28.834 27.3311C28.5784 27.5868 28.2316 27.7304 27.87 27.7304C27.5084 27.7304 27.1616 27.5868 26.9059 27.3311C26.6502 27.0754 26.5065 26.7286 26.5065 26.367V24.1192C26.5065 23.7576 26.6502 23.4108 26.9059 23.1551C27.1616 22.8994 27.5084 22.7558 27.87 22.7558ZM23.5402 11.7011C23.5638 11.6349 23.6029 11.5753 23.6542 11.5272C23.7054 11.4792 23.7674 11.444 23.835 11.4247C23.8944 11.3924 23.9609 11.3755 24.0284 11.3755C24.096 11.3755 24.1625 11.3924 24.2219 11.4247C25.8674 12.4957 27.786 13.0713 29.7493 13.0829C30.4487 13.0752 31.1458 13.0012 31.8312 12.8618C31.8598 12.8472 31.8913 12.8397 31.9234 12.8397C31.9554 12.8397 31.987 12.8472 32.0155 12.8618C32.0427 12.8845 32.0649 12.9126 32.0807 12.9443C32.0966 12.976 32.1057 13.0107 32.1076 13.046C32.1105 13.6917 31.9725 14.3302 31.7034 14.917C31.4342 15.5039 31.0403 16.025 30.5491 16.444C30.0579 16.863 29.4812 17.1699 28.8593 17.3432C28.2373 17.5165 27.5851 17.5521 26.948 17.4475C26.3108 17.3429 25.7042 17.1007 25.1703 16.7376C24.6364 16.3745 24.1882 15.8994 23.8567 15.3453C23.5253 14.7912 23.3187 14.1715 23.2513 13.5294C23.1839 12.8873 23.2573 12.2382 23.4665 11.6274L23.5402 11.7011Z" fill="#ED5C18"/>
</svg>
