<svg width="55" height="55" viewBox="0 0 55 55" fill="none" xmlns="http://www.w3.org/2000/svg">
<path d="M27.5007 38.9584C28.15 38.9584 28.6946 38.7384 29.1346 38.2984C29.5746 37.8584 29.7938 37.3145 29.7923 36.6667C29.7908 36.0189 29.5708 35.475 29.1323 35.035C28.6938 34.595 28.15 34.375 27.5007 34.375C26.8513 34.375 26.3075 34.595 25.869 35.035C25.4305 35.475 25.2105 36.0189 25.209 36.6667C25.2075 37.3145 25.4275 37.8591 25.869 38.3007C26.3105 38.7422 26.8544 38.9614 27.5007 38.9584ZM27.5007 29.7917C28.15 29.7917 28.6946 29.5717 29.1346 29.1317C29.5746 28.6917 29.7938 28.1478 29.7923 27.5V18.3334C29.7923 17.6841 29.5723 17.1402 29.1323 16.7017C28.6923 16.2632 28.1484 16.0432 27.5007 16.0417C26.8529 16.0402 26.309 16.2602 25.869 16.7017C25.429 17.1432 25.209 17.6871 25.209 18.3334V27.5C25.209 28.1493 25.429 28.694 25.869 29.134C26.309 29.574 26.8529 29.7932 27.5007 29.7917ZM27.5007 50.4167C24.3305 50.4167 21.3513 49.8148 18.5632 48.6109C15.775 47.407 13.3496 45.7746 11.2871 43.7136C9.22461 41.6526 7.59218 39.2273 6.38982 36.4375C5.18746 33.6478 4.58552 30.6687 4.58399 27.5C4.58246 24.3314 5.1844 21.3523 6.38982 18.5625C7.59524 15.7728 9.22767 13.3475 11.2871 11.2865C13.3466 9.22553 15.7719 7.5931 18.5632 6.38921C21.3544 5.18532 24.3336 4.58337 27.5007 4.58337C30.6677 4.58337 33.6469 5.18532 36.4382 6.38921C39.2294 7.5931 41.6548 9.22553 43.7142 11.2865C45.7736 13.3475 47.4068 15.7728 48.6138 18.5625C49.8207 21.3523 50.4219 24.3314 50.4173 27.5C50.4127 30.6687 49.8108 33.6478 48.6115 36.4375C47.4122 39.2273 45.7798 41.6526 43.7142 43.7136C41.6486 45.7746 39.2233 47.4077 36.4382 48.6132C33.653 49.8186 30.6738 50.4198 27.5007 50.4167Z" fill="#DF6D27"/>
</svg>
