<svg width="55" height="55" viewBox="0 0 55 55" fill="none" xmlns="http://www.w3.org/2000/svg">
<path d="M26.3542 4.58337C23.0113 4.58337 19.8054 5.91131 17.4417 8.27505C15.0779 10.6388 13.75 13.8447 13.75 17.1875C13.75 20.5304 15.0779 23.7363 17.4417 26.1C19.8054 28.4638 23.0113 29.7917 26.3542 29.7917C29.697 29.7917 32.9029 28.4638 35.2667 26.1C37.6304 23.7363 38.9583 20.5304 38.9583 17.1875C38.9583 13.8447 37.6304 10.6388 35.2667 8.27505C32.9029 5.91131 29.697 4.58337 26.3542 4.58337ZM41.25 28.6459C39.5948 28.6459 37.9558 28.9719 36.4266 29.6053C34.8974 30.2387 33.5079 31.1671 32.3375 32.3375C31.1671 33.508 30.2387 34.8974 29.6053 36.4266C28.9718 37.9558 28.6458 39.5948 28.6458 41.25C28.6458 42.9052 28.9718 44.5442 29.6053 46.0734C30.2387 47.6027 31.1671 48.9921 32.3375 50.1625C33.5079 51.3329 34.8974 52.2614 36.4266 52.8948C37.9558 53.5282 39.5948 53.8542 41.25 53.8542C44.5928 53.8542 47.7988 52.5263 50.1625 50.1625C52.5262 47.7988 53.8542 44.5929 53.8542 41.25C53.8542 37.9072 52.5262 34.7013 50.1625 32.3375C47.7988 29.9738 44.5928 28.6459 41.25 28.6459ZM43.5417 46.7821L38.9583 42.1988V36.0984H43.5417V40.3013L46.7821 43.5417L43.5417 46.7821Z" fill="#DF6D27"/>
<path d="M28.085 32.0834C26.2084 34.7714 25.2043 37.9717 25.209 41.25C25.209 44.6577 26.2723 47.818 28.085 50.4167H4.58398V45.8334C4.58398 42.1866 6.03264 38.6893 8.61127 36.1107C11.1899 33.532 14.6873 32.0834 18.334 32.0834H28.085Z" fill="#DF6D27"/>
</svg>
