<svg width="55" height="55" viewBox="0 0 55 55" fill="none" xmlns="http://www.w3.org/2000/svg">
<path d="M27.4501 6C18.7161 6 11.6358 13.0803 11.6358 21.8143V31.2654L9.77206 33.1291C9.01825 33.8829 8.79275 35.0166 9.20071 36.0015C9.60867 36.9864 10.5697 37.6285 11.6358 37.6285H43.2643C44.3304 37.6285 45.2915 36.9864 45.6994 36.0015C46.1074 35.0166 45.8819 33.8829 45.1281 33.1291L43.2643 31.2654V21.8143C43.2643 13.0803 36.184 6 27.4501 6Z" fill="#ED5C18"/>
<path d="M27.45 48.1714C23.083 48.1714 19.5428 44.6312 19.5428 40.2643H35.3571C35.3571 44.6312 31.817 48.1714 27.45 48.1714Z" fill="#ED5C18"/>
</svg>
