<svg width="55" height="55" viewBox="0 0 55 55" fill="none" xmlns="http://www.w3.org/2000/svg">
<path d="M47.0695 13.1874C46.8888 12.9804 46.6672 12.8131 46.4186 12.696C46.1701 12.5789 45.8999 12.5146 45.6253 12.5071C41.3597 12.3956 35.9623 7.83451 32.3937 6.04465C30.1893 4.94248 28.734 4.21575 27.6411 4.02431C27.4193 3.99128 27.1937 3.99191 26.972 4.02617C25.8792 4.21761 24.4239 4.94434 22.2214 6.04651C18.6528 7.83451 13.2553 12.3956 8.98975 12.5071C8.71499 12.5155 8.44487 12.5801 8.19613 12.6972C7.94739 12.8142 7.72534 12.981 7.54373 13.1874C7.16783 13.6136 6.97369 14.17 7.00287 14.7375C7.91918 33.3666 14.601 44.8957 26.3252 51.5961C26.6301 51.7689 26.9683 51.8581 27.3047 51.8581C27.6411 51.8581 27.9794 51.7689 28.2861 51.5961C40.0104 44.8957 46.6903 33.3666 47.6085 14.7375C47.6402 14.1699 47.4464 13.6128 47.0695 13.1874ZM37.7465 20.5141L27.853 35.1137C27.498 35.6378 26.9404 35.9854 26.3884 35.9854C25.8364 35.9854 25.2193 35.6824 24.8309 35.294L17.8573 28.3185C17.6296 28.09 17.5018 27.7806 17.5018 27.458C17.5018 27.1354 17.6296 26.826 17.8573 26.5974L19.5803 24.8708C19.8097 24.6449 20.1188 24.5183 20.4408 24.5183C20.7628 24.5183 21.0719 24.6449 21.3013 24.8708L25.8364 29.4058L33.7152 17.7764C33.8975 17.5102 34.1776 17.327 34.4945 17.2668C34.8114 17.2066 35.1393 17.2741 35.4065 17.4548L37.4231 18.8228C37.6896 19.0048 37.8731 19.2848 37.9337 19.6017C37.9943 19.9186 37.927 20.2467 37.7465 20.5141Z" fill="#ED5C18"/>
</svg>
