<svg width="55" height="55" viewBox="0 0 55 55" fill="none" xmlns="http://www.w3.org/2000/svg">
<path d="M9.16667 48.125C8.51737 48.125 7.97348 47.905 7.53501 47.465C7.09654 47.025 6.87654 46.4811 6.87501 45.8333C6.87348 45.1856 7.09348 44.6417 7.53501 44.2017C7.97654 43.7617 8.52042 43.5417 9.16667 43.5417H11.4583V9.16667C11.4583 8.51736 11.6783 7.97347 12.1183 7.535C12.5583 7.09653 13.1022 6.87653 13.75 6.875H29.7917C30.441 6.875 30.9856 7.095 31.4256 7.535C31.8656 7.975 32.0849 8.51889 32.0833 9.16667H41.25C41.8993 9.16667 42.444 9.38667 42.884 9.82667C43.324 10.2667 43.5432 10.8106 43.5417 11.4583V43.5417H45.8333C46.4826 43.5417 47.0273 43.7617 47.4673 44.2017C47.9073 44.6417 48.1265 45.1856 48.125 45.8333C48.1235 46.4811 47.9035 47.0258 47.465 47.4673C47.0265 47.9088 46.4826 48.1281 45.8333 48.125H41.25C40.6007 48.125 40.0568 47.905 39.6183 47.465C39.1799 47.025 38.9599 46.4811 38.9583 45.8333V13.75H32.0833V45.8333C32.0833 46.4826 31.8633 47.0273 31.4233 47.4673C30.9833 47.9073 30.4395 48.1265 29.7917 48.125H9.16667ZM27.5 27.5C27.5 26.8507 27.28 26.3068 26.84 25.8683C26.4 25.4299 25.8561 25.2099 25.2083 25.2083C24.5606 25.2068 24.0167 25.4268 23.5767 25.8683C23.1367 26.3099 22.9167 26.8538 22.9167 27.5C22.9167 28.1463 23.1367 28.6909 23.5767 29.134C24.0167 29.577 24.5606 29.7963 25.2083 29.7917C25.8561 29.7871 26.4008 29.5671 26.8423 29.1317C27.2838 28.6963 27.5031 28.1524 27.5 27.5Z" fill="#DF6D27"/>
</svg>
