<svg width="55" height="55" viewBox="0 0 55 55" fill="none" xmlns="http://www.w3.org/2000/svg">
<path d="M34.1128 33.372C33.8161 33.275 31.9412 32.4299 33.1128 28.8684H33.096C36.15 25.723 38.4839 20.6617 38.4839 15.6786C38.4839 8.01663 33.3889 4 27.4675 4C21.5423 4 16.4754 8.01477 16.4754 15.6786C16.4754 20.6822 18.7962 25.7641 21.8688 28.902C23.0665 32.0437 20.9248 33.2097 20.4771 33.372C14.2758 35.6163 7 39.7038 7 43.7391V45.2521C7 50.75 17.66 52 27.5253 52C37.4055 52 47.9312 50.75 47.9312 45.2521V43.7391C47.9312 39.5826 40.62 35.5268 34.1128 33.372ZM23.8221 49.6195C23.8221 44.8641 26.85 38.4446 26.85 38.4446L24.7549 36.801C24.7549 35.2301 27.4656 33.5865 27.4656 33.5865C27.4656 33.5865 30.1689 35.2562 30.1689 36.801L28.0813 38.4446C28.0813 38.4446 31.1091 44.8398 31.1091 49.6717C31.1091 50.4292 23.8221 50.2538 23.8221 49.6195Z" fill="#ED5C18"/>
</svg>
