<svg width="55" height="55" viewBox="0 0 55 55" fill="none" xmlns="http://www.w3.org/2000/svg">
<path d="M8 49V46.375H13.25V7H34.25V9.625H42.125V46.375H47.375V49H39.5V12.25H34.25V49H8ZM26.375 30.0213C26.9175 30.0213 27.39 29.82 27.7925 29.4175C28.195 29.015 28.3963 28.5425 28.3963 28C28.3963 27.4575 28.195 26.985 27.7925 26.5825C27.39 26.18 26.9175 25.9787 26.375 25.9787C25.8325 25.9787 25.36 26.18 24.9575 26.5825C24.555 26.985 24.3537 27.4575 24.3537 28C24.3537 28.5425 24.555 29.015 24.9575 29.4175C25.36 29.82 25.8325 30.0213 26.375 30.0213Z" fill="#ED5C18"/>
</svg>
