<svg width="55" height="55" viewBox="0 0 55 55" fill="none" xmlns="http://www.w3.org/2000/svg">
<path d="M14.2414 3.92871C12.5482 3.92871 10.9244 4.6013 9.72723 5.79852C8.53001 6.99574 7.85742 8.61952 7.85742 10.3126V44.6876C7.85742 46.3808 8.53001 48.0045 9.72723 49.2018C10.9244 50.399 12.5482 51.0716 14.2414 51.0716H33.0356L28.7987 46.8346C28.3883 46.4242 28.0627 45.937 27.8406 45.4008C27.6185 44.8645 27.5042 44.2898 27.5042 43.7094C27.5042 43.129 27.6185 42.5543 27.8406 42.0181C28.0627 41.4819 28.3883 40.9947 28.7987 40.5842C29.2091 40.1738 29.6963 39.8483 30.2325 39.6262C30.7687 39.4041 31.3435 39.2898 31.9239 39.2898C32.5043 39.2898 33.079 39.4041 33.6152 39.6262C34.1514 39.8483 34.6386 40.1738 35.049 40.5842L37.8128 43.348L46.4733 34.6875C46.6828 34.4779 46.9061 34.2946 47.1431 34.1375V10.3126C47.1431 8.61952 46.4705 6.99574 45.2733 5.79852C44.0761 4.6013 42.4523 3.92871 40.7592 3.92871H14.2414ZM20.6253 17.1876C20.6253 17.8388 20.3666 18.4634 19.9061 18.9238C19.4457 19.3843 18.8211 19.643 18.1699 19.643C17.5187 19.643 16.8942 19.3843 16.4337 18.9238C15.9733 18.4634 15.7146 17.8388 15.7146 17.1876C15.7146 16.5364 15.9733 15.9119 16.4337 15.4514C16.8942 14.991 17.5187 14.7323 18.1699 14.7323C18.8211 14.7323 19.4457 14.991 19.9061 15.4514C20.3666 15.9119 20.6253 16.5364 20.6253 17.1876ZM18.1699 29.9555C17.5187 29.9555 16.8942 29.6968 16.4337 29.2363C15.9733 28.7759 15.7146 28.1513 15.7146 27.5001C15.7146 26.8489 15.9733 26.2244 16.4337 25.7639C16.8942 25.3035 17.5187 25.0448 18.1699 25.0448C18.8211 25.0448 19.4457 25.3035 19.9061 25.7639C20.3666 26.2244 20.6253 26.8489 20.6253 27.5001C20.6253 28.1513 20.3666 28.7759 19.9061 29.2363C19.4457 29.6968 18.8211 29.9555 18.1699 29.9555ZM18.1699 40.268C17.5187 40.268 16.8942 40.0093 16.4337 39.5488C15.9733 39.0884 15.7146 38.4638 15.7146 37.8126C15.7146 37.1614 15.9733 36.5369 16.4337 36.0764C16.8942 35.616 17.5187 35.3573 18.1699 35.3573C18.8211 35.3573 19.4457 35.616 19.9061 36.0764C20.3666 36.5369 20.6253 37.1614 20.6253 37.8126C20.6253 38.4638 20.3666 39.0884 19.9061 39.5488C19.4457 40.0093 18.8211 40.268 18.1699 40.268ZM25.0449 15.7144H37.8128C38.2035 15.7144 38.5782 15.8696 38.8545 16.1459C39.1308 16.4222 39.286 16.7969 39.286 17.1876C39.286 17.5784 39.1308 17.9531 38.8545 18.2294C38.5782 18.5056 38.2035 18.6609 37.8128 18.6609H25.0449C24.6542 18.6609 24.2795 18.5056 24.0032 18.2294C23.7269 17.9531 23.5717 17.5784 23.5717 17.1876C23.5717 16.7969 23.7269 16.4222 24.0032 16.1459C24.2795 15.8696 24.6542 15.7144 25.0449 15.7144ZM23.5717 27.5001C23.5717 27.1094 23.7269 26.7347 24.0032 26.4584C24.2795 26.1821 24.6542 26.0269 25.0449 26.0269H37.8128C38.2035 26.0269 38.5782 26.1821 38.8545 26.4584C39.1308 26.7347 39.286 27.1094 39.286 27.5001C39.286 27.8909 39.1308 28.2656 38.8545 28.5419C38.5782 28.8181 38.2035 28.9734 37.8128 28.9734H25.0449C24.6542 28.9734 24.2795 28.8181 24.0032 28.5419C23.7269 28.2656 23.5717 27.8909 23.5717 27.5001ZM25.0449 36.3394H37.8128C38.2035 36.3394 38.5782 36.4946 38.8545 36.7709C39.1308 37.0472 39.286 37.4219 39.286 37.8126C39.286 38.2034 39.1308 38.5781 38.8545 38.8544C38.5782 39.1306 38.2035 39.2859 37.8128 39.2859H25.0449C24.6542 39.2859 24.2795 39.1306 24.0032 38.8544C23.7269 38.5781 23.5717 38.2034 23.5717 37.8126C23.5717 37.4219 23.7269 37.0472 24.0032 36.7709C24.2795 36.4946 24.6542 36.3394 25.0449 36.3394ZM38.8539 50.6394L50.6396 38.8537C50.7843 38.7188 50.9004 38.5562 50.9809 38.3755C51.0614 38.1948 51.1047 37.9997 51.1082 37.8019C51.1117 37.6041 51.0753 37.4076 51.0012 37.2241C50.9271 37.0407 50.8169 36.8741 50.677 36.7342C50.5371 36.5943 50.3704 36.484 50.187 36.4099C50.0035 36.3358 49.8071 36.2994 49.6093 36.3029C49.4114 36.3064 49.2164 36.3497 49.0356 36.4302C48.8549 36.5107 48.6923 36.6268 48.5574 36.7716L37.8128 47.5162L32.9649 42.6684C32.6856 42.4081 32.3163 42.2665 31.9346 42.2732C31.5529 42.2799 31.1888 42.4345 30.9189 42.7045C30.649 42.9744 30.4943 43.3385 30.4876 43.7202C30.4809 44.1018 30.6226 44.4712 30.8828 44.7505L36.7717 50.6394C37.0479 50.9153 37.4224 51.0703 37.8128 51.0703C38.2032 51.0703 38.5776 50.9153 38.8539 50.6394Z" fill="#ED5C18"/>
</svg>
