<svg width="55" height="55" viewBox="0 0 55 55" fill="none" xmlns="http://www.w3.org/2000/svg">
<path fill-rule="evenodd" clip-rule="evenodd" d="M9.16602 9.16671L26.6547 5.88758C27.2129 5.78291 27.7858 5.78291 28.344 5.88758L45.8327 9.16671V30.4403C45.8327 37.1649 42.3685 43.4152 36.666 46.9792L28.7139 51.9493C27.9708 52.4137 27.0279 52.4137 26.2848 51.9493L18.3327 46.9792C12.6302 43.4152 9.16602 37.1649 9.16602 30.4403V9.16671Z" fill="#ED5C18"/>
<path fill-rule="evenodd" clip-rule="evenodd" d="M33.2285 25.2085C34.4942 25.2085 35.5202 26.2345 35.5202 27.5002V34.3752C35.5202 35.6408 34.4942 36.6668 33.2285 36.6668H21.7702C20.5045 36.6668 19.4785 35.6408 19.4785 34.3752V27.5002C19.4785 26.2345 20.5045 25.2085 21.7702 25.2085V24.0627C21.7702 20.8985 24.3352 18.3335 27.4993 18.3335C30.6635 18.3335 33.2285 20.8985 33.2285 24.0627V25.2085ZM27.4993 20.6252C25.6009 20.6252 24.0618 22.1642 24.0618 24.0627V25.2085H30.9368V24.0627C30.9368 22.1642 29.3978 20.6252 27.4993 20.6252Z" fill="white"/>
</svg>
