<svg width="714" height="502" viewBox="0 0 714 502" fill="none" xmlns="http://www.w3.org/2000/svg">
<path fill-rule="evenodd" clip-rule="evenodd" d="M309.262 20.8464C309.262 20.8464 311.321 62.6383 307.12 80.0886L294.728 79.6497L309.262 20.8464Z" fill="#2C1C28"/>
<path fill-rule="evenodd" clip-rule="evenodd" d="M356.838 94.7017L351.494 106.583C351.389 106.656 346.159 117.748 346.143 117.831C345.778 118.62 349.748 120.057 354.978 120.997C360.208 121.938 364.733 122.037 365.104 121.248C365.172 121.123 369.795 108.96 369.644 108.798L374.477 94.9577C376.039 93.5314 377.564 92.0476 379.053 90.5167C379.686 89.9995 380.266 89.5188 380.903 89.0068C383.123 87.1573 385.349 85.3078 387.528 83.453C391.896 79.6965 396.253 75.9818 400.584 72.173C401.253 71.708 401.399 70.6527 400.861 69.8846C400.297 69.0174 399.121 68.8084 398.254 69.3674C395.898 70.9661 393.505 72.5179 391.101 74.1061L393.944 66.0707C394.242 65.1772 393.839 64.1637 392.972 63.7352C392.016 63.2911 390.903 63.7248 390.469 64.6339L385.192 76.1908L383.432 68.7195C383.233 67.8314 382.361 67.1783 381.399 67.2723C380.344 67.3977 379.639 68.3068 379.727 69.3099L380.882 79.639L374.999 81.8177C375.01 81.7759 375.051 81.7811 375.057 81.7393C376.363 79.9943 377.439 78.2545 378.5 76.3736C378.897 75.6788 378.792 74.7592 378.181 74.1584C377.465 73.4008 376.248 73.406 375.49 74.1218L375.433 74.2002C374.069 75.5273 372.575 76.8334 371.112 77.9672C370.375 78.5523 369.613 79.0487 368.855 79.498C368.494 79.7488 368.108 79.9055 367.753 80.1093C367.366 80.266 367.126 80.3548 366.53 80.6526C364.362 81.7028 362.251 83.1657 360.443 85.2242C358.63 87.2827 357.262 90.1406 356.958 93.3224" fill="#CC7544"/>
<path fill-rule="evenodd" clip-rule="evenodd" d="M356.06 133.944C357.752 140.914 353.489 147.92 346.52 149.618C341.786 150.768 336.974 149.158 333.912 145.757L295.099 107.21C292.533 105.282 290.574 102.476 289.749 99.0802C287.868 91.3373 292.606 83.4847 300.396 81.5881C306.807 80.0312 313.223 82.9831 316.321 88.4219L351.196 126.515C353.51 128.317 355.307 130.846 356.06 133.944Z" fill="#A8B3BC"/>
<path fill-rule="evenodd" clip-rule="evenodd" d="M367.35 121.029L367.481 121.055L355.898 141.645C353.442 146.781 347.805 149.858 341.922 148.798C334.864 147.528 330.182 140.788 331.452 133.73C331.87 131.42 332.863 129.393 334.289 127.716L341.682 116.405C341.656 116.311 341.671 116.222 341.687 116.133C342.152 115.046 348.338 115.172 355.485 116.457C362.632 117.742 368.045 119.665 367.528 120.788C367.512 120.877 367.455 120.956 367.35 121.029Z" fill="#A8B3BC"/>
<path d="M334.121 127.91L341.692 116.363" stroke="#1C4192" stroke-width="1.00325" stroke-miterlimit="10" stroke-linecap="round" stroke-linejoin="round"/>
<path d="M360.955 90.5848C360.955 90.5848 361.791 85.6945 368.087 83.9495C372.585 82.6903 380.84 80.0833 380.84 80.0833" stroke="#2A1C28" stroke-width="1.00325" stroke-miterlimit="10" stroke-linecap="round" stroke-linejoin="round"/>
<path d="M385.093 76.4885C387.167 71.9587 390.505 64.686 390.505 64.686C390.949 63.7299 392.052 63.3433 393.008 63.7874C393.886 64.1688 394.33 65.1928 393.98 66.1228L388.327 82.0214C388.243 82.2304 388.118 82.4341 387.992 82.6379L387.872 82.7946C386.482 84.2523 384.236 86.0078 382.125 87.4707" stroke="#2A1C28" stroke-width="1.00325" stroke-miterlimit="10" stroke-linecap="round" stroke-linejoin="round"/>
<path d="M380.835 80.3969L379.712 69.399C379.581 68.3854 380.334 67.4398 381.384 67.3614C382.345 67.2674 383.228 67.8734 383.416 68.8086L386.253 80.7939C386.405 81.4522 386.243 82.0949 385.882 82.6173L385.694 82.8995C385.203 83.6205 384.743 84.1691 384.278 84.7594C383.813 85.3498 383.343 85.9402 382.836 86.5254C381.87 87.6539 380.856 88.7772 379.843 89.9005" stroke="#2A1C28" stroke-width="1.00325" stroke-miterlimit="10" stroke-linecap="round" stroke-linejoin="round"/>
<path fill-rule="evenodd" clip-rule="evenodd" d="M294.373 298.4C289.253 311.043 277.132 332.987 279.744 357.699C281.416 373.217 288.365 437.898 283.976 450.385C279.796 473.791 300.172 462.819 303.203 463.498C324.676 468.148 343.171 467.469 343.171 467.469C343.171 467.469 321.176 458.378 312.607 445.212C306.756 436.173 308.532 422.224 308.689 414.543C308.95 401.377 312.346 325.359 312.346 325.359L317.832 294.481C317.832 294.481 300.434 283.301 294.373 298.4Z" fill="#B15152"/>
<path fill-rule="evenodd" clip-rule="evenodd" d="M287.267 314.962C294.895 315.328 303.568 316.947 313.286 320.134L312.345 325.359C312.345 325.359 311.457 345.056 310.569 366.111C304.404 372.903 295.418 379.068 282.251 383.3C281.207 372.067 280.214 362.506 279.691 357.699C278.019 341.712 282.513 326.874 287.267 314.962Z" fill="black"/>
<path fill-rule="evenodd" clip-rule="evenodd" d="M290.611 458.483C290.611 458.483 285.699 458.065 294.634 460.834C325.825 470.447 332.721 464.804 332.721 464.804C332.721 464.804 338.625 468.827 347.664 469.716C357.956 470.761 355.292 475.828 355.292 475.828C355.292 475.828 342.909 477.605 331.572 477.814C313.494 478.18 305.501 474.47 294.634 474.888C286.379 475.201 281.781 473.112 281.781 473.112C279.43 463.916 290.611 458.483 290.611 458.483Z" fill="black"/>
<path fill-rule="evenodd" clip-rule="evenodd" d="M284.602 447.511C284.602 447.511 285.751 453.624 294.686 456.602C325.929 466.999 332.355 461.983 332.355 461.983C332.355 461.983 338.102 465.693 345.992 466.633C356.284 467.887 355.291 473.164 355.291 473.164C355.291 473.164 342.909 474.627 331.572 474.575C313.494 474.523 305.501 470.656 294.633 470.761C286.378 470.865 281.781 468.671 281.781 468.671C279.43 459.423 284.602 447.511 284.602 447.511Z" fill="#783140"/>
<path fill-rule="evenodd" clip-rule="evenodd" d="M236.797 442.391C236.431 440.562 243.693 465.431 249.388 473.686C250.799 475.672 248.448 478.075 248.448 478.075C248.448 478.075 237.476 473.895 224.728 466.006C213.913 459.371 222.011 444.272 220.548 426.926C219.921 419.559 221.854 415.85 221.854 415.85L226.974 413.342L236.797 442.391Z" fill="black"/>
<path fill-rule="evenodd" clip-rule="evenodd" d="M240.35 439.883C240.089 438.002 244.791 462.558 249.963 470.813C251.217 472.851 249.754 475.568 249.754 475.568C249.754 475.568 239.044 471.388 226.766 463.499C216.369 456.863 225.355 441.764 224.99 424.418C224.781 417.052 226.975 413.342 226.975 413.342L246.985 403.572L240.35 439.883Z" fill="#783140"/>
<path fill-rule="evenodd" clip-rule="evenodd" d="M300.485 317.47C259.523 344.899 253.985 379.748 246.828 393.593C241.342 404.199 238.886 407.856 238.886 407.804C238.886 407.804 230.945 419.089 230.683 433.196C230.318 450.855 232.773 451.952 240.245 456.706C244.163 459.214 245.417 459.841 245.417 459.841C245.417 459.841 244.842 458.431 244.947 449.183C252.209 426.822 266.368 399.549 282.669 381.106C309.628 350.594 339.095 315.798 339.095 315.798C339.095 315.798 316.994 306.341 300.485 317.47Z" fill="#B15152"/>
<path fill-rule="evenodd" clip-rule="evenodd" d="M285.908 328.755C290.192 324.889 294.999 321.075 300.485 317.418C312.345 309.424 327.078 312.089 334.445 314.178C335.438 315.485 336.117 317 336.483 318.828C334.706 320.918 332.094 324.001 328.855 327.815C316.943 331.054 294.633 335.756 285.908 328.755Z" fill="black"/>
<path fill-rule="evenodd" clip-rule="evenodd" d="M297.246 154.2C297.246 154.2 272.011 185.548 267.1 207.961C262.92 226.979 282.095 282.935 284.028 300.333C286.013 317.731 285.177 321.441 285.177 321.441C285.23 321.441 290.82 324.784 312.502 324.21C340.193 323.478 343.589 320.657 343.589 320.657L328.96 205.192L332.304 174.942L297.246 154.2Z" fill="#5A74C7"/>
<path d="M309.263 323.948C309.263 323.948 294.216 246.78 289.148 220.396C284.603 196.781 301.478 171.389 301.112 171.598" stroke="#1C4192" stroke-width="1.18378" stroke-miterlimit="10" stroke-linecap="round" stroke-linejoin="round"/>
<path fill-rule="evenodd" clip-rule="evenodd" d="M249.389 96.7288C249.389 88.5784 255.606 81.8909 263.547 81.0549C263.704 81.0027 263.756 80.9504 263.756 80.9504L298.448 81.2639C299.388 81.1072 300.329 81.0027 301.269 81.0027C309.994 81.0027 317.048 88.0559 317.048 96.7811C317.048 97.3035 316.995 97.8783 316.943 98.4007C322.22 104.357 327.445 110.47 330.371 114.284C332.722 120.762 326.713 130.376 326.713 130.376L332.304 174.942C331.154 174.106 320.444 174.628 307.225 174.628C293.38 174.628 282.147 175.36 281.886 176.248C281.834 176.248 281.834 176.248 281.834 176.248L282.774 166.008C282.774 166.008 268.668 134.346 256.494 109.947C252.262 107.126 249.441 102.267 249.389 96.7288Z" fill="#D3D8DC"/>
<path fill-rule="evenodd" clip-rule="evenodd" d="M312.397 100.7C310.569 94.0645 307.695 90.8252 307.695 90.8252L274.937 84.9214L314.487 114.859C314.487 114.859 314.957 110.156 312.397 100.7Z" fill="#5A74C7"/>
<path fill-rule="evenodd" clip-rule="evenodd" d="M293.421 169.868C294.557 170.803 296.759 173.225 292.787 178.175C288.816 183.124 280.925 189.27 278.975 187.876C277.753 186.999 280.131 182.116 284.102 177.167C288.116 172.188 292.285 168.932 293.421 169.868Z" fill="#2A1C28"/>
<path fill-rule="evenodd" clip-rule="evenodd" d="M281.244 186.66C281.244 186.66 298.099 194.635 302.942 197.795C307.291 200.596 313.735 202.298 317.988 201.128C321.085 200.299 331.139 194.837 331.139 194.837C331.139 194.837 341.948 194.601 338.51 186.52C320.763 184.695 313.8 183.343 313.8 183.343L294.456 170.934C289.477 174.484 281.244 186.66 281.244 186.66Z" fill="#CC7544"/>
<path fill-rule="evenodd" clip-rule="evenodd" d="M294.485 170.977C295.49 171.812 293.311 176.056 289.612 180.381C285.913 184.706 282.103 187.466 281.098 186.632C280.065 185.754 282.229 181.582 285.928 177.257C289.627 172.933 293.451 170.099 294.485 170.977Z" fill="#CC7544"/>
<path fill-rule="evenodd" clip-rule="evenodd" d="M312.93 185.884L335.42 185.958L336.16 186.215C336.451 186.271 336.697 186.357 336.974 186.485C337.496 186.7 338.019 186.914 338.528 187.201C339.56 187.702 340.52 188.378 341.35 189.141C342.224 189.875 342.997 190.74 343.611 191.65L343.845 191.996L344.02 192.256L344.371 192.775L345 193.801L354.142 206.225C354.83 207.337 354.664 208.772 353.581 209.503C352.485 210.306 350.773 210.012 349.868 208.858L339.86 197.018L339.071 196.037L338.677 195.547L338.502 195.287L338.342 195.143C337.934 194.725 337.555 194.351 337.118 194.078C336.682 193.805 336.246 193.532 335.752 193.361C335.476 193.232 335.259 193.19 335.012 193.104C334.867 193.076 334.794 193.062 334.649 193.034L334.214 192.95L321.217 195.734C311.977 189.049 302.258 187.162 312.93 185.884Z" fill="#CC7544"/>
<path d="M359.934 205.279C359.042 206.385 357.289 206.497 356.067 205.62L343.692 195.504L342.673 194.742L342.178 194.382L341.916 194.181L341.713 194.066C341.276 193.793 340.724 193.536 340.23 193.365C339.708 193.15 339.2 193.052 338.649 192.982C338.388 192.969 338.127 192.956 337.866 192.943C337.75 192.959 337.605 192.93 337.489 192.946L337.026 193.006L312.894 199.839C302.194 196.22 301.187 184.923 306.361 185.024L336.405 185.735L337.231 185.745C337.521 185.801 337.825 185.785 338.115 185.841C338.71 185.882 339.29 185.994 339.87 186.107C340.987 186.361 342.149 186.775 343.181 187.276C344.242 187.821 345.216 188.424 346.09 189.158L346.41 189.446L346.629 189.676L347.109 190.108L348.042 190.929L359.697 201.846C360.731 202.724 360.898 204.187 359.934 205.279Z" fill="#CC7544"/>
<path fill-rule="evenodd" clip-rule="evenodd" d="M316.105 186.199L334.272 185.472L334.941 185.903C335.174 186.061 335.407 186.219 335.64 186.377C336.091 186.766 336.513 187.111 336.965 187.5C337.795 188.263 338.525 189.157 339.168 190.11C339.811 191.063 340.295 192.06 340.692 193.116L340.81 193.477L340.899 193.795L341.091 194.359L341.401 195.473L344.94 206.133C345.368 207.42 344.81 208.742 343.595 209.184C342.294 209.684 340.739 208.968 340.138 207.609L335.601 197.246L335.102 196.133L334.837 195.555L334.705 195.265L334.632 195.063C334.353 194.557 334.061 194.124 333.726 193.721C333.39 193.317 332.968 192.971 332.575 192.669C332.371 192.555 332.138 192.397 331.935 192.282C331.833 192.224 331.731 192.167 331.63 192.11L331.252 191.923L317.961 191.376C310.722 182.521 305.403 184.725 316.105 186.199Z" fill="#CC7544"/>
<path d="M322.706 184.959C322.706 184.959 332.316 185.469 336.471 187.329C339.798 188.802 341.474 195.487 341.474 195.487L345.013 206.147C345.44 207.434 344.883 208.756 343.668 209.198C342.367 209.698 340.812 208.982 340.21 207.623L335.673 197.26C335.673 197.26 335.158 195.842 335.304 196.059C333.582 193.881 333.109 194.767 319.84 200.698C316.082 202.415 312.961 201.433 312.961 201.433" stroke="#2A1C28" stroke-width="1.18378" stroke-miterlimit="10" stroke-linecap="round" stroke-linejoin="round"/>
<path d="M323.155 184.971C326.65 185.385 335.351 186.509 335.931 186.622C336.192 186.635 339.574 187.63 340.666 188.595C343.011 190.668 344.971 193.758 344.971 193.758L354.113 206.182C354.801 207.294 354.635 208.729 353.552 209.46C352.456 210.263 350.744 209.969 349.839 208.815C349.839 208.815 346.717 205.123 343.959 201.878" stroke="#2A1C28" stroke-width="1.18378" stroke-miterlimit="10" stroke-linecap="round" stroke-linejoin="round"/>
<path fill-rule="evenodd" clip-rule="evenodd" d="M241.325 161.979C237.496 156.306 238.958 148.574 244.675 144.716C250.348 140.887 258.08 142.349 261.938 148.066C262.055 148.239 262.143 148.369 262.23 148.499L293.247 169.796C291.881 169.268 287.915 172.45 284.131 177.21C280.16 182.159 277.883 186.911 278.975 187.876L244.778 165.321C243.44 164.459 242.274 163.292 241.325 161.979Z" fill="#D3D8DC"/>
<path fill-rule="evenodd" clip-rule="evenodd" d="M239.67 151.013H239.618L249.806 93.2808H249.858C251.478 86.2798 257.748 81.0552 265.219 81.0552C273.944 81.0552 280.997 88.1084 280.997 96.8336C280.997 103.208 277.183 108.746 271.697 111.201L264.383 152.842C264.383 159.686 258.845 165.276 251.948 165.276C245.104 165.276 239.514 159.738 239.514 152.842C239.514 152.215 239.566 151.588 239.67 151.013Z" fill="#D3D8DC"/>
<path d="M264.331 153.259C264.331 153.259 269.033 126.405 271.332 113.343" stroke="#9D9797" stroke-width="1.18378" stroke-miterlimit="10" stroke-linecap="round" stroke-linejoin="round"/>
<path fill-rule="evenodd" clip-rule="evenodd" d="M273.265 81.9435C273.422 81.5778 273.736 81.2121 274.206 80.9509L289.253 50.5435L307.487 61.045L301.165 86.1232C305.867 88.4743 308.741 90.9822 308.218 92.654C307.434 95.2141 298.971 94.9529 289.357 91.9748C279.744 89.049 272.586 84.5559 273.265 81.9435Z" fill="#CC7544"/>
<path fill-rule="evenodd" clip-rule="evenodd" d="M307.12 62.5079L302.836 79.6447C290.297 72.9049 288.521 53.8872 288.521 53.8872C296.723 55.4024 302.888 58.6939 307.12 62.5079Z" fill="#995128"/>
<path fill-rule="evenodd" clip-rule="evenodd" d="M280.892 42.0273C284.027 34.5038 290.61 37.5341 293.066 38.6835C289.827 28.6522 302.235 9.50913 318.849 20.5331C322.141 26.6459 322.219 38.6835 322.69 43.0722C325.25 44.0126 327.496 43.9081 327.966 44.8486C328.593 46.1547 328.071 48.5581 324.257 49.812C323.996 49.9165 323.787 49.9687 323.525 50.021C323.578 51.4316 323.63 52.8945 323.578 54.3052C322.481 56.9697 321.801 58.5894 320.652 61.2539C318.405 75.9352 308.688 79.2789 289.409 58.3281C282.46 56.5518 278.698 47.3042 280.892 42.0273Z" fill="#CC7544"/>
<path fill-rule="evenodd" clip-rule="evenodd" d="M316.369 54.9319L323.056 55.6634C322.377 57.283 321.802 58.5892 321.123 60.2088C316.421 58.7459 316.316 54.8797 316.369 54.9319Z" fill="#F8F7F8"/>
<path d="M292.073 49.8116C288.521 48.8189 289.304 44.7437 291.76 44.2734" stroke="#2C1C28" stroke-width="1.18378" stroke-miterlimit="10" stroke-linecap="round" stroke-linejoin="round"/>
<path d="M294.477 47.3042C292.282 43.647 289.252 43.02 289.252 43.02" stroke="#2C1C28" stroke-width="1.18378" stroke-miterlimit="10" stroke-linecap="round" stroke-linejoin="round"/>
<path d="M311.613 35.1303C315.532 31.9955 319.607 32.4657 319.607 32.4657" stroke="#2C1C28" stroke-width="1.18378" stroke-miterlimit="10" stroke-linecap="round" stroke-linejoin="round"/>
<path d="M315.584 39.9375L318.51 37.8999" stroke="#2C1C28" stroke-width="1.18378" stroke-miterlimit="10" stroke-linecap="round" stroke-linejoin="round"/>
<path fill-rule="evenodd" clip-rule="evenodd" d="M317.518 41.4522C317.466 42.7583 316.787 43.8032 316.003 43.8032C315.219 43.751 314.644 42.6538 314.697 41.3477C314.749 40.0415 315.428 38.9966 316.212 38.9966C316.995 38.9966 317.57 40.0938 317.518 41.4522Z" fill="#2C1C28"/>
<path fill-rule="evenodd" clip-rule="evenodd" d="M318.849 20.5328C318.849 20.5328 314.529 7.43989 290.751 8.31763C290.751 8.31763 273.411 7.77949 269.659 26.0971C269.659 26.0971 257.896 63.7246 256.83 81.572C256.83 81.572 273.756 87.3089 293.667 85.334C293.667 85.334 294.482 62.8524 291.869 52.936C291.869 52.936 285.798 54.284 286.164 44.6654C286.227 43.0353 287.141 41.4993 288.625 40.8201C290.375 40.0207 293.087 40.2297 296.681 44.7647C296.681 44.7647 298.818 34.8065 298.818 30.538C298.813 30.538 305.568 29.6498 318.849 20.5328Z" fill="#2C1C28"/>
<path d="M389.026 182.059L374.702 216.876H414.364L389.026 182.059Z" fill="#2A1C28"/>
<path d="M458.871 216.794H399.009C397.385 216.749 395.829 216.131 394.616 215.051C393.403 213.971 392.611 212.496 392.379 210.889L381.2 120.407C381.086 119.667 381.136 118.911 381.346 118.192C381.555 117.474 381.919 116.809 382.413 116.247C382.907 115.684 383.518 115.236 384.203 114.935C384.888 114.633 385.631 114.485 386.379 114.502H446.241C447.865 114.547 449.421 115.164 450.634 116.244C451.847 117.325 452.639 118.799 452.871 120.407L464.05 210.889C464.163 211.628 464.114 212.384 463.904 213.103C463.695 213.821 463.33 214.485 462.837 215.048C462.343 215.611 461.732 216.059 461.047 216.36C460.362 216.662 459.619 216.81 458.871 216.794Z" fill="#573652"/>
<path d="M463.84 216.87H403.978C402.355 216.825 400.799 216.208 399.586 215.128C398.373 214.048 397.581 212.574 397.349 210.967L386.17 119.922C386.056 119.182 386.106 118.426 386.315 117.708C386.525 116.989 386.889 116.325 387.383 115.762C387.877 115.199 388.487 114.752 389.173 114.45C389.858 114.149 390.6 114.001 391.349 114.017H451.211C452.834 114.062 454.39 114.68 455.602 115.76C456.815 116.84 457.607 118.314 457.839 119.922L469.018 210.967C469.132 211.706 469.082 212.462 468.873 213.18C468.663 213.899 468.299 214.563 467.805 215.125C467.312 215.688 466.701 216.136 466.016 216.437C465.331 216.739 464.589 216.887 463.84 216.87Z" fill="#F2DAC0"/>
<path d="M461.04 210.296H405.165C403.674 210.254 402.245 209.687 401.131 208.695C400.018 207.703 399.29 206.35 399.077 204.873L388.968 122.539C388.863 121.86 388.909 121.166 389.102 120.506C389.294 119.846 389.629 119.236 390.082 118.72C390.536 118.203 391.097 117.792 391.726 117.515C392.355 117.238 393.037 117.103 393.725 117.118H449.6C451.091 117.159 452.52 117.726 453.633 118.718C454.747 119.71 455.475 121.063 455.688 122.539L465.797 204.873C465.902 205.553 465.856 206.247 465.664 206.907C465.471 207.567 465.137 208.177 464.683 208.694C464.23 209.21 463.669 209.622 463.039 209.899C462.41 210.175 461.728 210.311 461.04 210.296Z" fill="white"/>
<path d="M435.018 215.278C435.841 214.403 435.707 212.939 434.718 212.009C433.729 211.078 432.259 211.033 431.436 211.908C430.613 212.783 430.747 214.247 431.736 215.178C432.725 216.108 434.195 216.153 435.018 215.278Z" fill="white"/>
<path d="M420.691 168.066H413.874L414.954 174.878H421.765L420.691 168.066ZM420.497 173.783H415.884L415.153 169.166H419.77L420.497 173.783Z" fill="#2A1C28"/>
<path d="M418.946 170.067H416.131L416.578 172.882H419.393L418.946 170.067Z" fill="#2A1C28"/>
<path d="M422.964 168.067L423.323 170.339H425.596L425.236 168.067H422.964Z" fill="#2A1C28"/>
<path d="M417.945 179.429H415.673L416.032 181.701L416.392 183.974H418.664L418.305 181.701L417.945 179.429Z" fill="#2A1C28"/>
<path d="M422.851 181.705L422.491 179.432H420.219L420.578 181.705H422.851Z" fill="#2A1C28"/>
<path d="M419.858 177.156H417.586L417.945 179.428H420.218L419.858 177.156Z" fill="#2A1C28"/>
<path d="M440.67 179.428L440.311 177.155H435.766L436.126 179.428H438.398L438.757 181.7H441.03L441.389 183.973H436.845L436.485 181.7L436.126 179.428H433.85L433.49 177.155H435.763L435.403 174.883L435.043 172.61H432.771L432.412 170.338H434.684L434.324 168.066H427.513L427.872 170.338H430.145L430.504 172.61L430.864 174.883H428.591L428.951 177.155H431.223L431.583 179.428L431.942 181.7H429.67L430.03 183.973H432.302L432.662 186.245L433.021 188.517H430.749L431.108 190.79H433.381L433.74 193.062L434.1 195.335H431.827L432.187 197.607H438.999L438.639 195.335H436.367L436.007 193.062H438.28L437.92 190.79L437.56 188.517H435.288L434.928 186.245H439.473L439.833 188.517H442.113L441.753 186.245H444.026L444.385 188.517H446.658L446.298 186.245L445.939 183.973H443.666L443.307 181.7H445.575L445.215 179.428H440.67Z" fill="#2A1C28"/>
<path d="M436.595 168.067L437.673 174.878H444.492L443.412 168.067H436.595ZM443.218 173.784H438.605L437.873 169.167H442.492L443.218 173.784Z" fill="#2A1C28"/>
<path d="M441.672 170.067H438.855L439.302 172.882H442.118L441.672 170.067Z" fill="#2A1C28"/>
<path d="M418.553 197.607H425.37L424.29 190.795H417.479L418.553 197.607ZM418.747 191.89H423.366L424.097 196.508H419.478L418.747 191.89Z" fill="#2A1C28"/>
<path d="M420.175 195.606H422.99L422.544 192.791H419.728L420.175 195.606Z" fill="#2A1C28"/>
<path d="M431.107 190.794H428.835L428.475 188.521H430.748L430.388 186.249L430.029 183.977H427.755L427.395 181.704H429.668L429.308 179.432H427.036L426.676 177.159L426.317 174.887H428.592L428.233 172.614L427.873 170.342H425.601L425.961 172.614H423.679L424.039 174.887L424.398 177.159H422.126L422.485 179.432H424.758L425.117 181.704H422.845L423.205 183.977H425.477L425.837 186.249H423.567L423.208 183.977H418.663L419.023 186.249H421.295L421.655 188.521H426.199L426.559 190.794L426.919 193.066H429.191L429.551 195.339H431.831L431.471 193.066L431.107 190.794Z" fill="#2A1C28"/>
<path d="M427.643 197.607H429.915L429.556 195.335H427.283L427.643 197.607Z" fill="#2A1C28"/>
<path d="M417.117 188.517H419.39L419.03 186.245H416.758L417.117 188.517Z" fill="#2A1C28"/>
<path d="M441.277 197.607H448.094L447.015 190.795H440.196L441.277 197.607ZM441.471 191.89H446.09L446.821 196.508H442.203L441.471 191.89Z" fill="#2A1C28"/>
<path d="M442.9 195.606H445.716L445.269 192.791H442.453L442.9 195.606Z" fill="#2A1C28"/>
<path d="M433.666 127.537L433.799 128.373C433.819 128.449 433.823 128.529 433.811 128.608C433.798 128.686 433.77 128.761 433.728 128.828C433.688 128.878 433.637 128.918 433.579 128.944C433.521 128.971 433.457 128.983 433.393 128.98C433.251 128.981 433.115 128.926 433.014 128.826C432.895 128.703 432.82 128.543 432.803 128.373L432.361 125.588C432.287 125.141 432.414 124.918 432.742 124.918C432.814 124.913 432.886 124.925 432.952 124.953C433.019 124.98 433.078 125.022 433.126 125.075C433.23 125.211 433.297 125.372 433.321 125.541C433.387 125.368 433.488 125.21 433.616 125.075C433.749 124.962 433.92 124.906 434.095 124.918C434.316 124.921 434.534 124.974 434.731 125.075C434.822 125.109 434.902 125.165 434.966 125.238C435.029 125.311 435.073 125.398 435.094 125.493C435.105 125.546 435.104 125.601 435.091 125.653C435.077 125.706 435.052 125.755 435.016 125.795C434.985 125.832 434.946 125.862 434.902 125.882C434.858 125.903 434.811 125.914 434.762 125.914C434.668 125.901 434.575 125.878 434.485 125.846C434.362 125.805 434.233 125.782 434.103 125.778C433.98 125.769 433.857 125.809 433.763 125.889C433.674 125.983 433.617 126.104 433.601 126.232C433.573 126.411 433.566 126.592 433.581 126.773C433.59 126.982 433.618 127.237 433.666 127.537Z" fill="#ED4B46"/>
<path d="M410.955 124.141L412.742 127.742L413.387 124.115C413.421 123.924 413.447 123.792 413.468 123.718C413.49 123.64 413.534 123.57 413.594 123.517C413.674 123.452 413.776 123.42 413.88 123.427C413.974 123.428 414.066 123.451 414.149 123.497C414.234 123.541 414.308 123.605 414.365 123.682C414.419 123.749 414.455 123.829 414.47 123.914C414.479 123.972 414.481 124.03 414.476 124.088C414.471 124.15 414.462 124.211 414.449 124.271C414.437 124.332 414.425 124.393 414.412 124.457L413.667 127.967C413.642 128.101 413.616 128.229 413.589 128.348C413.565 128.459 413.528 128.566 413.478 128.667C413.43 128.759 413.358 128.836 413.27 128.89C413.161 128.953 413.037 128.984 412.911 128.978C412.778 128.981 412.646 128.952 412.526 128.892C412.418 128.838 412.323 128.762 412.245 128.669C412.164 128.569 412.092 128.462 412.032 128.348C411.967 128.229 411.9 128.102 411.832 127.968L410.003 124.487C409.97 124.423 409.938 124.361 409.904 124.299C409.87 124.235 409.84 124.169 409.814 124.102C409.79 124.044 409.773 123.983 409.761 123.922C409.751 123.862 409.755 123.8 409.772 123.741C409.788 123.682 409.817 123.628 409.857 123.581C409.9 123.53 409.954 123.489 410.016 123.463C410.077 123.436 410.143 123.424 410.21 123.427C410.289 123.422 410.367 123.434 410.44 123.464C410.513 123.493 410.579 123.539 410.631 123.597C410.76 123.765 410.869 123.948 410.955 124.141Z" fill="#EF7A39"/>
<path d="M422.027 126.06L420.519 128.108H422.48C422.615 128.101 422.748 128.14 422.857 128.22C422.947 128.29 423.006 128.393 423.023 128.507C423.034 128.555 423.032 128.605 423.019 128.653C423.006 128.701 422.982 128.745 422.948 128.781C422.901 128.822 422.846 128.853 422.787 128.872C422.728 128.891 422.666 128.898 422.604 128.893H419.893C419.734 128.902 419.577 128.858 419.446 128.768C419.339 128.685 419.269 128.562 419.252 128.427C419.24 128.337 419.26 128.246 419.31 128.169C419.362 128.082 419.474 127.923 419.645 127.691C419.826 127.447 419.99 127.227 420.139 127.029C420.287 126.832 420.424 126.646 420.551 126.471C420.677 126.299 420.782 126.153 420.864 126.033C420.946 125.914 421.012 125.81 421.059 125.725H419.571C419.412 125.731 419.252 125.712 419.098 125.67C419.039 125.647 418.989 125.608 418.953 125.556C418.917 125.505 418.897 125.444 418.895 125.381C418.883 125.333 418.884 125.282 418.897 125.234C418.91 125.186 418.935 125.142 418.969 125.106C419.059 125.031 419.175 124.994 419.292 125.004H421.589C421.762 124.996 421.934 125.027 422.093 125.096C422.155 125.129 422.208 125.177 422.247 125.236C422.286 125.294 422.31 125.361 422.316 125.431C422.324 125.487 422.322 125.543 422.309 125.598C422.299 125.647 422.282 125.694 422.258 125.738C422.237 125.775 422.208 125.82 422.17 125.872C422.132 125.925 422.083 125.986 422.027 126.06Z" fill="#F28046"/>
<path d="M423.467 124.448C423.33 124.449 423.197 124.404 423.09 124.319C423.033 124.276 422.986 124.221 422.95 124.159C422.915 124.096 422.892 124.028 422.884 123.957C422.871 123.895 422.872 123.83 422.889 123.769C422.906 123.708 422.937 123.652 422.98 123.606C423.023 123.56 423.075 123.525 423.133 123.501C423.19 123.477 423.253 123.466 423.315 123.469C423.447 123.469 423.575 123.513 423.679 123.594C423.737 123.637 423.784 123.691 423.82 123.754C423.856 123.816 423.879 123.885 423.887 123.957C423.902 124.019 423.902 124.085 423.886 124.148C423.871 124.211 423.84 124.269 423.798 124.317C423.755 124.361 423.703 124.395 423.646 124.418C423.589 124.44 423.528 124.451 423.467 124.448ZM424.125 125.481L424.582 128.372C424.602 128.448 424.607 128.528 424.594 128.606C424.582 128.685 424.554 128.759 424.512 128.826C424.473 128.877 424.422 128.917 424.363 128.944C424.305 128.971 424.241 128.983 424.177 128.98C424.106 128.981 424.036 128.967 423.97 128.94C423.905 128.913 423.845 128.873 423.795 128.823C423.679 128.701 423.606 128.544 423.586 128.376L423.133 125.515C423.114 125.44 423.11 125.362 423.121 125.285C423.133 125.209 423.16 125.135 423.2 125.069C423.239 125.018 423.29 124.978 423.349 124.952C423.407 124.926 423.471 124.914 423.535 124.918C423.678 124.917 423.817 124.971 423.921 125.069C424.035 125.178 424.107 125.324 424.126 125.481H424.125Z" fill="#EE7A4F"/>
<path d="M425.138 125.002H425.249L425.155 124.401C425.129 124.24 425.114 124.114 425.108 124.022C425.1 123.942 425.112 123.861 425.142 123.786C425.171 123.717 425.221 123.659 425.284 123.619C425.355 123.576 425.437 123.553 425.52 123.556C425.655 123.559 425.784 123.609 425.886 123.698C425.962 123.759 426.02 123.839 426.053 123.931C426.094 124.058 426.124 124.189 426.143 124.322L426.254 125.004H426.621C426.74 124.999 426.858 125.034 426.956 125.104C427.038 125.167 427.093 125.26 427.109 125.362C427.125 125.415 427.122 125.472 427.102 125.523C427.082 125.574 427.045 125.617 426.997 125.645C426.857 125.707 426.704 125.735 426.55 125.725H426.366L426.658 127.564C426.675 127.686 426.7 127.806 426.731 127.925C426.752 128.003 426.793 128.075 426.852 128.13C426.92 128.188 427.008 128.216 427.098 128.21C427.176 128.207 427.254 128.197 427.331 128.179C427.406 128.161 427.483 128.15 427.561 128.147C427.648 128.15 427.731 128.184 427.794 128.244C427.867 128.305 427.915 128.391 427.929 128.484C427.943 128.56 427.93 128.639 427.892 128.706C427.855 128.773 427.795 128.826 427.724 128.854C427.491 128.953 427.238 128.997 426.986 128.983C426.731 128.996 426.477 128.941 426.25 128.825C426.077 128.726 425.941 128.573 425.864 128.39C425.77 128.15 425.706 127.901 425.672 127.646L425.367 125.726H425.235C425.111 125.733 424.989 125.696 424.889 125.624C424.805 125.561 424.749 125.467 424.734 125.363C424.724 125.317 424.726 125.27 424.74 125.224C424.753 125.179 424.778 125.138 424.812 125.105C424.903 125.03 425.02 124.993 425.138 125.002Z" fill="#E9674C"/>
<path d="M431.792 126.947C431.839 127.22 431.836 127.499 431.783 127.771C431.737 128.008 431.634 128.231 431.482 128.42C431.332 128.603 431.138 128.746 430.919 128.836C430.664 128.937 430.392 128.987 430.118 128.981C429.831 128.984 429.547 128.935 429.278 128.835C429.023 128.739 428.788 128.597 428.584 128.416C428.377 128.234 428.206 128.016 428.078 127.772C427.944 127.514 427.854 127.236 427.811 126.949C427.762 126.674 427.765 126.392 427.819 126.117C427.864 125.881 427.966 125.66 428.116 125.472C428.267 125.289 428.461 125.147 428.681 125.06C428.933 124.959 429.203 124.909 429.475 124.914C429.764 124.912 430.051 124.961 430.322 125.061C430.579 125.156 430.817 125.297 431.022 125.478C431.228 125.661 431.399 125.88 431.526 126.124C431.659 126.382 431.749 126.66 431.792 126.947ZM430.787 126.947C430.747 126.594 430.601 126.262 430.367 125.994C430.268 125.885 430.148 125.798 430.013 125.74C429.878 125.681 429.732 125.652 429.585 125.654C429.409 125.648 429.235 125.702 429.093 125.807C428.953 125.92 428.856 126.077 428.819 126.253C428.769 126.481 428.766 126.716 428.808 126.946C428.841 127.186 428.917 127.418 429.031 127.631C429.129 127.812 429.27 127.966 429.442 128.078C429.606 128.181 429.796 128.235 429.99 128.233C430.122 128.242 430.254 128.215 430.372 128.154C430.49 128.094 430.589 128.003 430.659 127.89C430.814 127.601 430.86 127.266 430.787 126.947Z" fill="#EC5449"/>
<path d="M416.047 125.364C415.936 125.462 415.831 125.569 415.735 125.682C415.687 125.757 415.661 125.844 415.663 125.933C415.663 126.157 415.672 126.38 415.676 126.61C415.677 126.638 415.672 126.665 415.661 126.691C415.65 126.716 415.634 126.739 415.613 126.757C415.592 126.776 415.567 126.789 415.541 126.796C415.514 126.804 415.486 126.806 415.458 126.801C415.395 126.795 415.336 126.766 415.293 126.72C415.249 126.673 415.224 126.613 415.222 126.55C415.209 126.255 415.2 125.959 415.189 125.664C415.186 125.611 415.194 125.558 415.213 125.508C415.232 125.459 415.262 125.414 415.301 125.377C415.471 125.212 415.636 125.042 415.811 124.884C415.897 124.801 415.998 124.736 416.11 124.694C416.221 124.651 416.34 124.632 416.459 124.637C416.547 124.635 416.633 124.657 416.71 124.7C416.786 124.743 416.85 124.805 416.894 124.881C417.022 125.082 417.137 125.29 417.237 125.505C417.278 125.608 417.341 125.702 417.42 125.779C417.5 125.856 417.595 125.915 417.7 125.952C417.882 126.025 418.06 126.106 418.24 126.187C418.295 126.208 418.34 126.249 418.369 126.3C418.397 126.352 418.406 126.412 418.394 126.47C418.387 126.497 418.374 126.522 418.356 126.543C418.338 126.564 418.316 126.58 418.29 126.591C418.265 126.602 418.238 126.606 418.21 126.605C418.182 126.603 418.156 126.595 418.132 126.582C417.838 126.458 417.543 126.337 417.256 126.197C417.16 126.135 417.073 126.057 417.002 125.968C416.968 125.921 416.93 125.877 416.89 125.836C416.881 126.016 416.89 126.199 416.861 126.374C416.852 126.451 416.86 126.529 416.885 126.602C416.911 126.676 416.952 126.742 417.006 126.797C417.453 127.34 417.878 127.891 418.31 128.44C418.481 128.657 418.416 128.903 418.181 128.938C418.112 128.945 418.043 128.933 417.981 128.903C417.92 128.873 417.867 128.826 417.83 128.768C417.482 128.322 417.131 127.886 416.783 127.444C416.539 127.136 416.296 126.828 416.057 126.516C416.022 126.468 416.003 126.41 416.002 126.351C416.013 126.025 416.031 125.711 416.047 125.364Z" fill="#444444"/>
<path d="M418.145 128.999C418.073 128.996 418.003 128.975 417.939 128.94C417.876 128.904 417.823 128.854 417.783 128.794L417.239 128.108L416.734 127.47L416.723 127.456C416.486 127.157 416.243 126.848 416.008 126.54C415.962 126.479 415.937 126.404 415.937 126.327C415.943 126.091 415.955 125.857 415.967 125.608V125.542C415.903 125.598 415.845 125.66 415.793 125.727C415.751 125.792 415.729 125.868 415.73 125.945C415.73 126.086 415.73 126.232 415.737 126.373C415.737 126.454 415.742 126.537 415.743 126.618C415.745 126.655 415.738 126.691 415.724 126.724C415.709 126.757 415.688 126.787 415.66 126.811C415.633 126.835 415.601 126.852 415.566 126.862C415.531 126.872 415.494 126.874 415.459 126.867C415.377 126.858 415.301 126.821 415.244 126.761C415.188 126.701 415.155 126.623 415.151 126.54C415.144 126.368 415.137 126.196 415.132 126.025C415.128 125.902 415.123 125.778 415.118 125.655C415.114 125.593 415.123 125.531 415.146 125.473C415.168 125.415 415.203 125.363 415.248 125.32L415.384 125.187C415.506 125.067 415.631 124.943 415.759 124.825C415.85 124.737 415.959 124.668 416.077 124.623C416.196 124.578 416.322 124.557 416.449 124.563C416.551 124.561 416.651 124.587 416.739 124.637C416.828 124.688 416.901 124.76 416.952 124.848L416.986 124.907C417.103 125.091 417.208 125.284 417.299 125.483C417.336 125.575 417.393 125.658 417.465 125.726C417.537 125.795 417.622 125.847 417.716 125.88C417.867 125.941 418.019 126.009 418.162 126.075L418.255 126.116C418.326 126.145 418.385 126.199 418.422 126.267C418.458 126.335 418.47 126.413 418.456 126.489C418.447 126.522 418.431 126.553 418.409 126.579C418.386 126.606 418.358 126.626 418.326 126.64C418.29 126.653 418.252 126.659 418.214 126.658C418.175 126.656 418.138 126.647 418.103 126.631L417.991 126.585C417.737 126.473 417.474 126.368 417.22 126.243C417.134 126.194 417.059 126.129 416.996 126.052L416.944 125.998C416.943 126.125 416.935 126.252 416.919 126.378C416.912 126.445 416.919 126.513 416.942 126.576C416.964 126.64 417 126.697 417.048 126.745C417.413 127.191 417.776 127.656 418.129 128.102L418.352 128.387C418.398 128.44 418.432 128.503 418.449 128.572C418.466 128.64 418.467 128.712 418.451 128.78C418.433 128.837 418.399 128.887 418.353 128.924C418.307 128.962 418.25 128.985 418.191 128.99C418.176 128.994 418.161 128.997 418.145 128.999ZM416.128 125.18L416.118 125.378C416.118 125.466 416.114 125.552 416.105 125.637C416.093 125.884 416.082 126.118 416.075 126.354C416.077 126.394 416.09 126.433 416.113 126.465C416.348 126.771 416.591 127.081 416.827 127.379L416.838 127.393L417.343 128.031L417.886 128.718C417.915 128.764 417.956 128.802 418.005 128.826C418.054 128.851 418.109 128.861 418.163 128.855C418.201 128.852 418.237 128.838 418.267 128.815C418.297 128.791 418.319 128.759 418.331 128.723C418.341 128.677 418.34 128.63 418.328 128.584C418.315 128.539 418.292 128.497 418.26 128.462L418.037 128.176C417.687 127.729 417.322 127.268 416.958 126.821C416.898 126.757 416.852 126.681 416.824 126.598C416.796 126.515 416.786 126.426 416.795 126.339C416.81 126.218 416.818 126.095 416.819 125.973C416.819 125.918 416.819 125.861 416.819 125.808L416.824 125.688L416.927 125.771C416.961 125.799 416.99 125.832 417.014 125.868C417.024 125.883 417.035 125.896 417.047 125.909L417.102 125.968C417.151 126.029 417.21 126.081 417.277 126.122C417.526 126.243 417.787 126.353 418.039 126.456L418.151 126.502C418.168 126.511 418.187 126.516 418.206 126.517C418.225 126.518 418.245 126.515 418.263 126.509C418.279 126.502 418.293 126.492 418.304 126.478C418.315 126.465 418.323 126.449 418.327 126.432C418.335 126.392 418.328 126.35 418.308 126.315C418.287 126.279 418.254 126.252 418.216 126.239L418.122 126.196C417.977 126.132 417.826 126.065 417.675 126.005C417.561 125.964 417.457 125.899 417.369 125.815C417.281 125.731 417.212 125.63 417.166 125.517C417.078 125.325 416.977 125.138 416.863 124.959L416.828 124.901C416.79 124.837 416.737 124.785 416.672 124.749C416.607 124.713 416.534 124.696 416.46 124.698C416.349 124.694 416.238 124.712 416.134 124.752C416.03 124.792 415.935 124.852 415.855 124.93C415.728 125.042 415.603 125.17 415.482 125.288L415.346 125.422C415.313 125.453 415.287 125.491 415.271 125.533C415.254 125.576 415.247 125.621 415.25 125.666C415.254 125.789 415.259 125.913 415.263 126.037C415.269 126.209 415.275 126.379 415.282 126.551C415.284 126.595 415.301 126.637 415.331 126.67C415.362 126.702 415.403 126.722 415.446 126.726C415.465 126.729 415.485 126.728 415.503 126.722C415.522 126.717 415.539 126.708 415.553 126.695C415.568 126.682 415.579 126.666 415.587 126.649C415.594 126.631 415.598 126.612 415.597 126.593C415.597 126.511 415.597 126.43 415.591 126.348C415.591 126.205 415.58 126.058 415.584 125.913C415.583 125.811 415.613 125.712 415.669 125.628C415.732 125.547 415.803 125.472 415.88 125.405C415.914 125.372 415.949 125.34 415.986 125.303L416.128 125.18Z" fill="#444444"/>
<path d="M415.993 126.908C416.164 127.095 416.322 127.268 416.477 127.443C416.49 127.459 416.497 127.48 416.496 127.501C416.496 127.685 416.458 127.867 416.384 128.036C416.227 128.282 416.086 128.541 415.937 128.795C415.92 128.83 415.895 128.86 415.864 128.884C415.834 128.908 415.798 128.925 415.76 128.933C415.722 128.941 415.682 128.941 415.645 128.932C415.607 128.923 415.571 128.905 415.541 128.881C415.507 128.861 415.476 128.834 415.452 128.801C415.429 128.769 415.411 128.733 415.402 128.694C415.392 128.655 415.39 128.615 415.396 128.575C415.402 128.535 415.416 128.497 415.437 128.463C415.578 128.22 415.721 127.98 415.858 127.735C415.889 127.677 415.91 127.614 415.919 127.549C415.943 127.345 415.968 127.137 415.993 126.908Z" fill="#444444"/>
<path d="M415.721 129.006C415.636 129.002 415.554 128.972 415.485 128.921C415.416 128.87 415.365 128.8 415.336 128.719C415.321 128.67 415.316 128.618 415.322 128.566C415.328 128.515 415.345 128.465 415.372 128.421C415.422 128.334 415.472 128.247 415.524 128.16C415.613 128.007 415.704 127.849 415.793 127.693C415.82 127.641 415.838 127.585 415.845 127.527C415.866 127.381 415.883 127.235 415.901 127.08C415.909 127.017 415.915 126.954 415.923 126.889L415.94 126.754L416.148 126.977C416.278 127.122 416.403 127.259 416.526 127.396C416.541 127.412 416.551 127.431 416.558 127.452C416.565 127.472 416.567 127.494 416.565 127.515C416.558 127.561 416.554 127.608 416.549 127.657C416.546 127.803 416.507 127.945 416.437 128.073C416.332 128.237 416.234 128.408 416.138 128.579C416.09 128.663 416.042 128.746 415.993 128.83C415.968 128.881 415.929 128.924 415.881 128.956C415.833 128.987 415.778 129.004 415.721 129.006ZM416.046 127.06L416.039 127.116C416.022 127.272 416.004 127.419 415.983 127.562C415.973 127.635 415.951 127.705 415.917 127.769C415.828 127.926 415.736 128.085 415.646 128.238C415.596 128.325 415.545 128.411 415.495 128.498C415.477 128.527 415.465 128.559 415.461 128.593C415.456 128.627 415.458 128.661 415.468 128.694C415.485 128.746 415.521 128.791 415.568 128.82C415.592 128.839 415.619 128.852 415.649 128.859C415.678 128.866 415.709 128.866 415.738 128.859C415.767 128.851 415.795 128.838 415.818 128.818C415.841 128.799 415.86 128.775 415.872 128.747C415.921 128.665 415.969 128.581 416.017 128.497C416.114 128.328 416.214 128.153 416.32 127.987C416.378 127.875 416.41 127.75 416.41 127.624C416.41 127.576 416.419 127.527 416.427 127.478C416.306 127.342 416.182 127.206 416.052 127.062L416.046 127.06Z" fill="#444444"/>
<path d="M417.147 123.914C417.16 123.979 417.159 124.047 417.142 124.112C417.126 124.177 417.095 124.237 417.052 124.288C417.009 124.34 416.955 124.381 416.895 124.409C416.834 124.436 416.767 124.45 416.7 124.449C416.552 124.442 416.41 124.385 416.298 124.288C416.185 124.19 416.11 124.057 416.083 123.91C416.07 123.845 416.073 123.777 416.09 123.712C416.108 123.647 416.14 123.587 416.183 123.536C416.227 123.485 416.282 123.445 416.343 123.418C416.405 123.391 416.472 123.379 416.539 123.381C416.685 123.388 416.825 123.445 416.936 123.542C417.046 123.638 417.121 123.769 417.147 123.914Z" fill="#444444"/>
<path d="M416.71 124.518C416.542 124.511 416.381 124.447 416.255 124.337C416.128 124.227 416.042 124.076 416.012 123.911C415.998 123.836 416 123.759 416.02 123.686C416.039 123.612 416.075 123.544 416.124 123.487C416.174 123.429 416.236 123.383 416.306 123.353C416.375 123.323 416.451 123.309 416.527 123.312C416.693 123.32 416.851 123.383 416.976 123.492C417.101 123.602 417.186 123.75 417.216 123.913C417.23 123.988 417.227 124.065 417.207 124.139C417.188 124.213 417.153 124.282 417.104 124.341C417.056 124.398 416.995 124.443 416.927 124.474C416.859 124.504 416.785 124.52 416.71 124.518ZM416.543 123.451C416.485 123.449 416.427 123.461 416.374 123.484C416.321 123.508 416.273 123.543 416.236 123.588C416.198 123.632 416.171 123.684 416.156 123.741C416.142 123.797 416.14 123.856 416.151 123.913C416.172 124.041 416.239 124.158 416.338 124.241C416.435 124.329 416.559 124.378 416.689 124.381C416.747 124.382 416.804 124.371 416.857 124.347C416.909 124.323 416.956 124.289 416.994 124.245C417.032 124.199 417.059 124.145 417.074 124.087C417.088 124.029 417.09 123.968 417.079 123.91C417.056 123.784 416.991 123.67 416.894 123.585C416.798 123.501 416.676 123.452 416.548 123.446L416.543 123.451Z" fill="#444444"/>
<path d="M441.999 152.433H409.758C409.357 152.419 408.973 152.268 408.669 152.006C408.366 151.744 408.161 151.387 408.088 150.992L406.673 142.059C406.637 141.881 406.642 141.698 406.687 141.523C406.732 141.347 406.815 141.184 406.932 141.046C407.049 140.908 407.195 140.797 407.36 140.723C407.525 140.649 407.705 140.613 407.886 140.618H440.126C440.527 140.632 440.911 140.783 441.215 141.045C441.518 141.307 441.723 141.664 441.796 142.059L443.21 150.992C443.246 151.169 443.242 151.353 443.197 151.528C443.152 151.703 443.068 151.866 442.952 152.005C442.836 152.143 442.689 152.253 442.524 152.328C442.359 152.402 442.18 152.438 441.999 152.433Z" fill="#ED5C18"/>
<path d="M412.633 144.762C413.026 145.037 413.328 145.423 413.498 145.871H412.605C412.483 145.65 412.306 145.464 412.092 145.331C411.872 145.198 411.619 145.13 411.362 145.134C411.157 145.129 410.954 145.187 410.783 145.301C410.618 145.418 410.496 145.587 410.439 145.78C410.37 146.018 410.358 146.269 410.404 146.512C410.441 146.77 410.532 147.017 410.67 147.238C410.792 147.436 410.962 147.601 411.165 147.718C411.357 147.828 411.575 147.886 411.797 147.885C412.036 147.896 412.272 147.827 412.467 147.688C412.641 147.554 412.763 147.363 412.811 147.148H413.698C413.69 147.358 413.64 147.564 413.552 147.754C413.464 147.944 413.339 148.115 413.185 148.257C412.835 148.545 412.389 148.691 411.936 148.666C411.55 148.67 411.169 148.577 410.827 148.396C410.486 148.214 410.195 147.951 409.982 147.628C409.757 147.293 409.61 146.911 409.55 146.512C409.481 146.139 409.508 145.755 409.627 145.395C409.734 145.081 409.944 144.811 410.222 144.63C410.532 144.44 410.89 144.346 411.253 144.358C411.744 144.345 412.227 144.486 412.633 144.762Z" fill="white"/>
<path d="M417.407 144.396L418.077 148.63H417.225L416.933 146.788H415.123L415.415 148.63H414.569L413.899 144.396H414.745L415.017 146.112H416.827L416.556 144.396H417.407Z" fill="white"/>
<path d="M419.126 145.069L419.299 146.166H420.798L420.901 146.814H419.402L419.582 147.952H421.257L421.368 148.63H418.845L418.175 144.397H420.698L420.81 145.067L419.126 145.069Z" fill="white"/>
<path d="M424.606 144.762C424.999 145.037 425.3 145.423 425.471 145.871H424.583C424.461 145.649 424.284 145.464 424.069 145.331C423.849 145.198 423.596 145.13 423.339 145.134C423.134 145.128 422.931 145.187 422.76 145.301C422.594 145.417 422.473 145.586 422.416 145.78C422.348 146.018 422.336 146.269 422.381 146.512C422.419 146.769 422.509 147.016 422.646 147.238C422.769 147.436 422.939 147.601 423.142 147.718C423.334 147.828 423.553 147.886 423.775 147.885C424.014 147.896 424.25 147.826 424.445 147.688C424.619 147.554 424.74 147.363 424.788 147.148H425.681C425.672 147.358 425.622 147.564 425.534 147.754C425.446 147.944 425.321 148.115 425.166 148.257C424.816 148.545 424.37 148.691 423.918 148.666C423.531 148.669 423.15 148.576 422.809 148.395C422.468 148.214 422.177 147.95 421.964 147.628C421.739 147.293 421.592 146.911 421.533 146.512C421.464 146.139 421.49 145.755 421.61 145.395C421.717 145.081 421.926 144.811 422.205 144.63C422.514 144.441 422.873 144.346 423.236 144.358C423.723 144.347 424.202 144.488 424.606 144.762Z" fill="white"/>
<path d="M427.845 146.477L429.979 148.63H428.954L427.082 146.694L427.39 148.63H426.543L425.873 144.397H426.718L427.02 146.295L428.29 144.397H429.309L427.845 146.477Z" fill="white"/>
<path d="M432.205 146.141L432.316 146.842H429.768L429.656 146.141H432.205Z" fill="white"/>
<path d="M435.064 144.397L435.734 148.63H434.889L434.219 144.397H435.064Z" fill="white"/>
<path d="M440.087 148.63H439.239L436.889 145.751L437.344 148.63H436.499L435.829 144.397H436.674L439.028 147.3L438.568 144.397H439.414L440.087 148.63Z" fill="white"/>
<path d="M386.911 295.006C387.763 295.623 388.559 296.418 389.276 297.37" stroke="#AD4A4D" stroke-width="1.1822" stroke-linecap="round" stroke-linejoin="round"/>
<rect x="102" y="218.708" width="558" height="260.085" fill="#FEF9F4"/>
<path d="M102 218.163H660" stroke="#EDCBA6" stroke-width="3.54661" stroke-linecap="round" stroke-linejoin="round"/>
<path fill-rule="evenodd" clip-rule="evenodd" d="M688.425 444.776H661.324L665.955 469.351H693.056L688.425 444.776Z" fill="#D3D8DC"/>
<path fill-rule="evenodd" clip-rule="evenodd" d="M570.813 430.831L597.493 430.778L596.756 465.193L567.604 463.667L570.813 430.831Z" fill="#D3D8DC"/>
<path fill-rule="evenodd" clip-rule="evenodd" d="M602.493 487.242C602.493 487.242 595.862 488.348 589.758 488.716C584.548 489.032 584.654 495.399 575.918 498.714C569.446 501.135 559.29 501.187 546.818 499.451C535.031 497.82 530.716 495.452 529.926 494.504H529.821V494.347C529.768 494.241 529.768 494.136 529.821 494.083L529.663 488.4H533.557C534.767 487.769 536.399 487.4 538.609 487.453C548.344 486.506 565.394 467.141 567.92 455.353C570.498 453.511 575.918 456.616 580.865 459.089C586.18 466.667 591.968 462.089 591.968 462.089C591.968 462.089 594.178 459.247 596.967 456.827C602.651 464.615 603.914 484.98 602.493 487.242Z" fill="#2C1C28"/>
<path fill-rule="evenodd" clip-rule="evenodd" d="M713.947 492.61L713.842 497.504H713.737C713.737 497.557 713.737 497.609 713.737 497.609C709.843 499.188 706.159 500.609 691.425 501.187C679.216 501.714 671.376 499.872 666.955 497.03C662.061 493.926 666.061 487.243 661.114 486.401C658.115 485.874 657.431 483.822 657.431 483.822C658.115 473.929 659.167 462.089 663.009 457.511C663.009 460.826 665.587 463.562 665.587 463.562C665.587 463.562 666.85 464.773 671.376 457.037C677.217 454.511 683.689 454.09 689.794 457.142C694.424 474.613 701.844 483.98 708.001 490.347C709.527 490.347 710.685 491.294 711.579 492.557H713.947V492.61Z" fill="#2C1C28"/>
<path fill-rule="evenodd" clip-rule="evenodd" d="M602.335 481.928C602.335 481.928 595.704 483.033 589.6 483.401C584.39 483.717 584.495 490.084 575.76 493.399C569.288 495.82 559.131 495.873 546.66 494.136C531.557 492.031 528.716 488.769 529.873 488.716C529.873 488.716 529.768 481.928 538.503 482.138C548.239 481.191 565.446 462.405 567.972 450.617C570.55 448.776 579.338 451.354 580.759 453.775C586.074 461.352 591.073 459.247 591.073 459.247C591.073 459.247 596.441 457.984 597.02 451.565C602.755 459.353 603.755 479.665 602.335 481.928Z" fill="#814A2A"/>
<path fill-rule="evenodd" clip-rule="evenodd" d="M657.588 478.928C657.588 478.928 658.219 480.981 661.271 481.507C666.218 482.349 662.219 489.032 667.113 492.137C671.533 494.978 679.374 496.82 691.582 496.294C706.316 495.662 710 494.294 713.894 492.715C713.894 492.715 712.315 485.506 708.158 485.506C702.054 479.139 694.582 469.772 689.951 452.301C686.004 449.354 677.374 449.618 671.533 452.196C667.06 459.932 665.692 458.3 665.692 458.3C665.692 458.3 663.113 456.143 662.797 452.828C659.798 459.09 658.325 469.035 657.588 478.928Z" fill="#814A2A"/>
<path fill-rule="evenodd" clip-rule="evenodd" d="M689.477 447.617C689.477 447.723 689.477 447.67 689.477 447.775C689.372 449.144 680.689 450.249 670.218 450.249C660.272 450.249 652.221 449.249 651.589 447.986H651.537C651.537 447.986 636.907 429.2 634.908 392.522C630.487 310.904 598.019 227.813 598.019 227.813C598.019 227.813 594.862 206.764 649.432 219.499L689.477 447.46V447.617Z" fill="#5A74C7"/>
<path fill-rule="evenodd" clip-rule="evenodd" d="M604.387 208.554C579.286 208.554 559.027 212.974 559.185 218.447C559.342 223.919 579.812 228.34 604.913 228.34C630.014 228.34 650.274 223.919 650.116 218.447C650.011 212.974 629.541 208.554 604.387 208.554Z" fill="#5A74C7"/>
<path fill-rule="evenodd" clip-rule="evenodd" d="M648.801 186.504C648.801 186.504 635.855 178.243 615.227 177.927C573.971 177.348 556.343 186.294 556.343 186.294L557.237 218.341L649.485 210.448L648.801 186.504Z" fill="#7581F1"/>
<path fill-rule="evenodd" clip-rule="evenodd" d="M603.598 388.628C609.018 427.2 601.44 447.828 601.072 448.775C600.756 449.88 593.021 450.722 583.391 450.722C573.919 450.722 566.131 449.88 565.604 448.775H565.552L556.764 208.764C556.764 208.764 568.919 206.133 579.918 208.764C592.705 211.816 603.756 226.077 603.756 226.077C603.756 226.077 594.757 325.796 603.598 388.628Z" fill="#5A74C7"/>
<path d="M568.499 194.871C568.499 194.871 567.92 211.342 557.764 222.867" stroke="#555EC2" stroke-width="1.1923" stroke-miterlimit="10" stroke-linecap="round" stroke-linejoin="round"/>
<path d="M620.647 192.293C620.647 192.293 620.963 215.605 642.328 223.287" stroke="#3763C3" stroke-width="1.1923" stroke-miterlimit="10" stroke-linecap="round" stroke-linejoin="round"/>
<path d="M689.373 446.828L640.486 210.606C640.749 206.133 641.697 195.135 641.697 195.135" stroke="#3763C3" stroke-width="1.1923" stroke-miterlimit="10" stroke-linecap="round" stroke-linejoin="round"/>
<path d="M592.757 229.813C592.757 229.813 589.073 325.638 595.125 395.048C597.861 426.095 592.809 449.88 592.809 449.88" stroke="#3763C3" stroke-width="1.1923" stroke-miterlimit="10" stroke-linecap="round" stroke-linejoin="round"/>
<path fill-rule="evenodd" clip-rule="evenodd" d="M602.335 246.021L602.703 240.601L599.02 228.339L584.601 225.656C584.549 225.656 587.443 242.021 602.335 246.021Z" fill="#375BB7"/>
<path fill-rule="evenodd" clip-rule="evenodd" d="M545.207 136.047C549.695 177.164 540.548 197.671 554.548 207.809C555.145 215.05 556.076 226.224 556.076 226.224C556.076 226.224 556.169 227.061 556.82 227.676C557.582 228.332 558.192 228.582 558.192 228.582C558.192 228.582 557.487 225.59 557.795 225.502C561.008 224.402 570.915 222.077 602.509 219.077C626.397 216.779 640.408 217.543 649.782 217.555C650.428 219.548 650.603 220.164 650.603 220.164C650.603 220.164 654.542 218.93 654.582 217.39C654.582 217.39 653.266 203.717 652.77 199.748C662.208 192.287 660.756 174.552 644.515 127.758C651.997 122.686 656.53 113.496 655.431 103.664C653.895 89.91 642.086 79.9509 628.855 80.9526L628.227 81.0227C628.175 81.0286 628.122 81.0344 628.018 81.0461C627.966 81.0519 627.861 81.0636 627.809 81.0695L552.048 89.6925C540.142 92.6111 532.153 104.517 533.591 117.382C534.455 125.122 539.248 132 545.207 136.047Z" fill="#ED5C18"/>
<path d="M554.042 197.671C566.777 195.092 619.189 191.093 652.709 200.565" stroke="#CC2818" stroke-width="1.1923" stroke-miterlimit="10" stroke-linecap="round" stroke-linejoin="round"/>
<path d="M569.57 101.978L586.697 114.044L604.028 97.5991" stroke="#CC2818" stroke-width="1.1923" stroke-miterlimit="10" stroke-linecap="round" stroke-linejoin="round"/>
<path fill-rule="evenodd" clip-rule="evenodd" d="M577.865 125.038C571.236 138.222 553.073 162.384 537.047 173.917C533.977 179.608 528.296 183.738 521.392 184.509C510.253 185.753 500.195 177.717 498.956 166.63C498.074 158.733 501.864 151.426 508.086 147.395C508.231 147.273 508.33 147.209 508.475 147.087C525.583 136.704 532.617 113.414 533.818 108.991C535.66 98.9363 543.866 90.8713 554.535 89.6794C567.557 88.2245 579.353 97.6025 580.808 110.624C581.392 115.854 580.25 120.8 577.865 125.038Z" fill="#ED5C18"/>
<path d="M540.895 165.227L548.622 114.962" stroke="#ED5C18" stroke-width="1.1923" stroke-miterlimit="10" stroke-linecap="round" stroke-linejoin="round"/>
<path fill-rule="evenodd" clip-rule="evenodd" d="M706.412 150.495C707.779 162.732 698.947 173.727 686.761 175.088C679.597 175.888 672.837 173.202 668.162 168.323L631.198 131.787C618.657 131.865 607.779 122.172 606.306 108.994C604.741 94.9779 614.455 82.4024 628.052 80.8833C635.949 80.0011 643.331 83.0417 648.495 88.5011L648.588 88.3848L700.035 137.017L699.988 137.075C703.401 140.612 705.822 145.213 706.412 150.495Z" fill="#ED5C18"/>
<path d="M623.406 123.656L660.634 163.499" stroke="#CC2818" stroke-width="1.1923" stroke-miterlimit="10" stroke-linecap="round" stroke-linejoin="round"/>
<path fill-rule="evenodd" clip-rule="evenodd" d="M706.412 150.495C707.779 162.732 698.947 173.727 686.762 175.088C684.775 175.31 682.81 175.265 680.922 174.946L644.118 173.022L644.179 139.445C644.179 139.445 651.693 139.399 656.726 139.42C662.109 123.622 686.095 129.784 688.781 131.073C697.888 132.968 705.308 140.611 706.412 150.495Z" fill="#ED5C18"/>
<path fill-rule="evenodd" clip-rule="evenodd" d="M646.259 140.059C641.993 137.888 637.62 143.301 636.55 152.21C635.475 161.067 638.095 170.306 642.362 172.476C646.629 174.647 650.972 168.973 652.048 160.116C653.17 151.201 650.526 142.23 646.259 140.059Z" fill="#CC2818"/>
<path fill-rule="evenodd" clip-rule="evenodd" d="M645.638 141.611C641.819 139.655 637.917 144.539 636.951 152.483C635.986 160.428 638.339 168.69 642.158 170.646C645.977 172.602 649.856 167.509 650.821 159.565C651.833 151.562 649.504 143.509 645.638 141.611Z" fill="#D3D8DC"/>
<path fill-rule="evenodd" clip-rule="evenodd" d="M634.544 141.368L643.906 141.276L644.238 171.261L633.825 171.419L634.544 141.368Z" fill="#D3D8DC"/>
<path fill-rule="evenodd" clip-rule="evenodd" d="M635.846 141.646C632.027 139.69 628.125 144.574 627.16 152.518C626.194 160.463 628.547 168.725 632.366 170.681C636.185 172.637 640.064 167.544 641.029 159.6C641.989 151.603 639.66 143.55 635.846 141.646Z" fill="#A8B3BC"/>
<path fill-rule="evenodd" clip-rule="evenodd" d="M634.86 142.762C631.657 141.108 628.359 145.236 627.567 151.89C626.78 158.597 628.72 165.529 631.917 167.131C635.12 168.785 638.4 164.5 639.187 157.793C640.031 151.133 638.057 144.364 634.86 142.762Z" fill="#E99670"/>
<path fill-rule="evenodd" clip-rule="evenodd" d="M602.59 142.555L609.227 153.145L602.59 142.555Z" fill="#E99670"/>
<path fill-rule="evenodd" clip-rule="evenodd" d="M614.213 163.655C607.384 160.817 604.585 155.199 599.027 150.949L596.923 149.649C595.731 148.934 595.3 147.447 595.909 146.267C596.531 145.192 597.867 144.83 598.983 145.341C598.983 145.341 604.854 148.604 612.491 149.657C624.169 146.128 640.049 171.676 614.213 163.655Z" fill="#E99670"/>
<path d="M588.25 125.572L603.285 128.393L604.476 128.631L605.075 128.776L605.348 128.851L605.732 128.967C606.819 129.216 607.818 129.634 608.83 130.156C609.841 130.679 610.76 131.317 611.638 132.067C612.051 132.444 612.464 132.822 612.882 133.251C613.062 133.443 613.249 133.687 613.429 133.879L613.923 134.512L631.51 157.327C634.546 161.277 625.216 166.873 616.316 160.666L607.917 138.095L607.661 137.7C607.597 137.601 607.533 137.503 607.469 137.404C607.341 137.206 607.16 137.015 606.98 136.823C606.62 136.44 606.265 136.109 605.806 135.789C605.352 135.522 604.899 135.255 604.399 135.046L604.178 134.965L603.905 134.89L603.3 134.692L602.15 134.344L587.265 130.501C585.893 130.071 584.992 128.637 585.316 127.277C585.705 126.015 586.948 125.294 588.25 125.572Z" fill="#E99670"/>
<path fill-rule="evenodd" clip-rule="evenodd" d="M614.497 151.974L608.876 140.529L608.527 140.251C608.411 140.158 608.353 140.111 608.237 140.018C608.062 139.879 607.835 139.745 607.609 139.612C607.155 139.345 606.708 139.13 606.219 139.026C605.725 138.869 605.237 138.765 604.708 138.771L604.493 138.742L604.174 138.725L603.593 138.737L602.425 138.709L587.542 138.2C586.112 138.201 584.932 137.115 584.832 135.75C584.75 134.541 585.697 133.535 587.004 133.389L601.776 132.904L602.927 132.775L603.502 132.711L603.816 132.676L604.182 132.635C605.233 132.57 606.303 132.663 607.384 132.86C608.465 133.056 609.505 133.364 610.511 133.834C611.011 134.043 611.516 134.304 611.97 134.571C612.197 134.705 612.423 134.838 612.656 135.024L613.284 135.43L625.18 146.65C630.718 155.457 624.999 154.984 614.497 151.974Z" fill="#E99670"/>
<path d="M588.25 125.572L603.285 128.393L604.476 128.631L605.075 128.776L605.348 128.851L605.732 128.967C606.819 129.216 607.818 129.634 608.83 130.156C609.841 130.679 610.76 131.317 611.638 132.067C612.051 132.444 612.464 132.822 612.882 133.251C613.062 133.443 613.249 133.687 613.429 133.879L613.923 134.512L631.51 157.327C634.546 161.277 625.216 166.873 616.316 160.666L607.917 138.095L607.661 137.7C607.597 137.601 607.533 137.503 607.469 137.404C607.341 137.206 607.16 137.015 606.98 136.823C606.62 136.44 606.265 136.109 605.806 135.789C605.352 135.522 604.899 135.255 604.399 135.046L604.178 134.965L603.905 134.89L603.3 134.692L602.15 134.344L587.265 130.501C585.893 130.071 584.992 128.637 585.316 127.277C585.705 126.015 586.948 125.294 588.25 125.572Z" fill="#E99670"/>
<path fill-rule="evenodd" clip-rule="evenodd" d="M620.046 151.883L612.056 141.974L611.661 141.754C611.55 141.713 611.434 141.62 611.324 141.58C611.103 141.498 610.876 141.365 610.661 141.336C610.167 141.179 609.679 141.075 609.196 141.023C608.714 140.971 608.185 140.977 607.668 141.088L607.459 141.111L607.151 141.199L606.581 141.315L605.443 141.548L594.85 143.897C593.456 144.211 592.043 143.416 591.688 142.132C591.344 140.952 592.058 139.761 593.284 139.359L603.556 136.04L604.678 135.65L605.241 135.481L605.497 135.4L605.857 135.307C606.886 135.033 607.926 134.864 609.03 134.793C610.134 134.723 611.203 134.815 612.284 135.012C612.825 135.111 613.371 135.262 613.865 135.418C614.138 135.494 614.411 135.569 614.638 135.702L615.359 135.993L625.13 150.468C632.312 157.873 630.972 152.516 620.046 151.883Z" fill="#E99670"/>
<path fill-rule="evenodd" clip-rule="evenodd" d="M600.089 138.652L614.796 136.638L616.852 155.047L611.676 157.055L600.089 138.652Z" fill="#E99670"/>
<path fill-rule="evenodd" clip-rule="evenodd" d="M633.39 142.398L620.711 144.555L620.59 165.272L633.225 167.461C637.62 161.781 637.335 150.694 633.39 142.398Z" fill="#E99670"/>
<path d="M617.193 161.416C617.193 161.416 614.652 159.528 613.848 155.647C610.894 141.998 611.329 141.155 608.615 141.035C608.83 141.064 605.39 141.554 605.39 141.554L594.798 143.902C593.403 144.217 591.991 143.422 591.635 142.138C591.292 140.958 592.006 139.767 593.232 139.365L603.504 136.046C603.504 136.046 609.627 133.509 612.679 135.233C616.47 137.404 622.564 144.083 622.564 144.083" stroke="#2C1C28" stroke-width="1.1923" stroke-miterlimit="10" stroke-linecap="round" stroke-linejoin="round"/>
<path d="M596.364 138.486C592.273 138.36 587.647 138.189 587.647 138.189C586.218 138.19 585.037 137.104 584.938 135.738C584.856 134.529 585.802 133.524 587.11 133.378L601.881 132.892L603.032 132.764L603.607 132.699L603.921 132.664L604.287 132.623C605.339 132.559 606.408 132.651 607.489 132.848C608.57 133.045 609.611 133.352 610.616 133.822C611.116 134.031 611.622 134.293 612.075 134.56C612.302 134.693 612.529 134.827 612.761 135.012" stroke="#2C1C28" stroke-width="1.1923" stroke-miterlimit="10" stroke-linecap="round" stroke-linejoin="round"/>
<path d="M650.638 172.611C655.277 174.793 659.975 168.974 661.23 159.832C662.433 150.696 660.162 141.736 655.523 139.554" stroke="#CC2818" stroke-width="1.1923" stroke-miterlimit="10" stroke-linecap="round" stroke-linejoin="round"/>
<path d="M644.127 139.451C644.127 139.451 651.64 139.405 656.673 139.426C662.056 123.627 686.043 129.79 688.728 131.079" stroke="#CC2818" stroke-width="1.1923" stroke-miterlimit="10" stroke-linecap="round" stroke-linejoin="round"/>
<path fill-rule="evenodd" clip-rule="evenodd" d="M603.449 72.5128C607.716 75.1601 600.569 86.072 591.319 89.0646C581.401 92.2376 572.253 89.9768 572.227 85.0024C572.286 77.4769 591.729 65.2442 603.449 72.5128Z" fill="black"/>
<path fill-rule="evenodd" clip-rule="evenodd" d="M603.856 83.7451L599.891 51.5709L575.619 54.7062L574.153 89.9229C574.153 89.9229 574.101 90.4052 574.13 90.6667C574.241 92.1369 577.333 92.7975 581.808 92.5623L585.605 106.17L587.45 91.879C588.072 91.7566 588.746 91.6284 589.42 91.5001C597.641 89.7344 604.212 86.4587 604.013 84.2041C603.995 84.0472 603.978 83.8903 603.856 83.7451Z" fill="#E99670"/>
<path fill-rule="evenodd" clip-rule="evenodd" d="M602.338 71.5777C605.001 73.1335 607.149 80.0417 591.511 88.4076C589.343 88.9145 588.246 90.9432 587.377 95.0116L585.594 105.589L582.618 95.5433C582.618 95.5433 581.983 93.655 581.286 92.6211C580.337 91.2444 579.314 90.6174 579.314 90.6174C579.314 90.6174 573.717 88.3834 572.983 86.5592C571.598 83.1663 573.677 80.9219 574.862 79.6776C574.874 79.3057 574.885 78.9337 574.896 78.5618C573.56 79.3994 571.551 81.3184 570.49 85.0905C567.455 92.0483 569.117 102.188 569.117 102.188L574.781 98.8546L585.71 106.635L597.175 95.982C597.175 95.982 600.331 96.7413 604.807 97.9357C608.396 94.0401 611.797 87.9944 612.108 82.7176L603.902 72.3031L602.385 71.5195L602.338 71.5777Z" fill="#D3D8DC"/>
<path d="M602.576 71.8161C603.501 72.5071 604.077 73.3959 604.211 74.5987C604.696 78.9394 599.109 85.3351 591.557 88.3498C589.883 89.0133 588.6 90.3216 588.049 92.0246C587.051 94.9424 585.967 99.9349 585.716 106.211C584.102 99.8256 582.441 91.1156 577.954 89.8166C577.134 89.5905 576.309 89.312 575.617 88.8069C574.291 87.843 573.244 86.5303 573.093 85.1706" stroke="#2A1C28" stroke-width="1.1923" stroke-miterlimit="10" stroke-linecap="round" stroke-linejoin="round"/>
<path fill-rule="evenodd" clip-rule="evenodd" d="M569.064 102.194L583.165 97.1237C583.165 97.1237 581.518 92.3304 579.982 90.4369C578.453 88.5957 572.888 92.818 569.064 102.194Z" fill="#2A1C28"/>
<path fill-rule="evenodd" clip-rule="evenodd" d="M604.702 97.9474L586.762 97.5688C586.907 97.4467 586.7 90.8511 590.122 88.7745C592.155 87.5413 600.991 92.2198 604.702 97.9474Z" fill="#2A1C28"/>
<path fill-rule="evenodd" clip-rule="evenodd" d="M574.365 85.6639C595.436 75.685 592.939 59.02 592.939 59.02L575.184 65.0278L574.365 85.6639Z" fill="#C87149"/>
<path fill-rule="evenodd" clip-rule="evenodd" d="M574.783 73.7633C576.58 74.7437 578.607 75.1699 580.646 75.0468C582.686 74.9238 584.651 74.3301 586.362 73.206C591.166 70.0328 597.434 63.8389 598.515 52.4652C606.717 52.7253 609.066 39.8035 603.649 37.9608C600.292 36.8628 596.992 39.9507 595.598 42.6251C595.524 42.7544 595.391 43.0638 595.368 43.1793C593.72 36.9741 598.927 28.5065 594.414 25.9794C570.57 12.6583 561.398 30.344 559.345 33.7993C559.379 38.1007 560.193 42.4609 560.854 49.046C562.162 62.7654 568.982 70.7166 574.783 73.7633ZM595.547 42.639C595.584 42.5743 595.584 42.5743 595.547 42.639V42.639Z" fill="#E99670"/>
<path d="M574.541 60.3519C574.541 60.3519 579.991 59.73 582.402 55.1941" stroke="#2C1C28" stroke-width="1.1923" stroke-miterlimit="10" stroke-linecap="round" stroke-linejoin="round"/>
<path d="M567.272 38.2273C564.179 38.0935 560.564 40.2311 560.044 41.5196" stroke="#2C1C28" stroke-width="1.1923" stroke-miterlimit="10" stroke-linecap="round" stroke-linejoin="round"/>
<path d="M584.971 35.1182C582.652 34.2263 578.355 33.8773 574.376 36.2786" stroke="#2C1C28" stroke-width="1.1923" stroke-miterlimit="10" stroke-linecap="round" stroke-linejoin="round"/>
<path d="M570.638 43.1427C570.638 43.1427 571.413 45.7676 570.327 50.7584C569.332 55.2875 572.412 56.5706 576.581 54.0628" stroke="#2C1C28" stroke-width="1.1923" stroke-miterlimit="10" stroke-linecap="round" stroke-linejoin="round"/>
<path fill-rule="evenodd" clip-rule="evenodd" d="M580.589 40.0308C579.814 40.1889 579.396 41.4495 579.707 42.7828C580.019 44.1162 580.92 45.0148 581.695 44.8568C582.47 44.6987 582.888 43.4381 582.577 42.1047C582.266 40.7714 581.364 39.8727 580.589 40.0308Z" fill="#2C1C28"/>
<path fill-rule="evenodd" clip-rule="evenodd" d="M565.083 43.5755C564.307 43.7335 563.889 44.9942 564.2 46.3275C564.512 47.6609 565.413 48.5595 566.188 48.4014C566.963 48.2434 567.381 46.9828 567.07 45.6494C566.759 44.316 565.858 43.4174 565.083 43.5755Z" fill="#2C1C28"/>
<path fill-rule="evenodd" clip-rule="evenodd" d="M555.83 35.3095C560.424 48.6732 559.4 36.7857 559.4 36.7857C562.323 37.8936 571.398 32.1848 578.316 25.9761C585.184 19.7814 589.976 17.7573 592.041 28.2679C593.44 35.3596 600.208 11.8945 592.897 14.2823C591.204 -0.641125 575.725 12.5541 575.725 12.5541C575.725 12.5541 569.334 7.15905 562.354 8.96481C555.83 10.6453 552.19 17.2644 554.751 23.219C549.902 24.44 546.425 26.4852 555.83 35.3095Z" fill="#951800"/>
<path fill-rule="evenodd" clip-rule="evenodd" d="M560.761 36.5759C563.78 36.8391 569.655 33.5904 578.423 26.7651C585.762 21.0958 589.947 23.2218 592.367 33.635C592.92 36.048 594.101 41.9446 594.752 45.3128C595.214 42.6214 597.129 39.2585 601.599 37.6504C597.916 31.7852 603.82 10.7398 592.846 14.2961C592.621 12.2842 592.366 11.1538 591.731 9.63631C591.069 8.61731 586.17 3.68624 579.938 18.1645C575.513 28.491 566.921 35.759 560.761 36.5759ZM555.83 35.3094C557.469 42.2807 560.62 47.2005 560.62 47.2005L560 36.7847C557.641 36.3406 556.44 35.7423 555.83 35.3094Z" fill="#5F1001"/>
<path fill-rule="evenodd" clip-rule="evenodd" d="M517.888 98.7868C517.888 98.7868 517.116 101.867 517.073 104.206C516.81 111.39 518.234 117.32 518.385 118.217L521.385 106.921L517.888 98.7868Z" fill="#EC957E"/>
<path fill-rule="evenodd" clip-rule="evenodd" d="M551.578 157.792C550.401 172.69 536.841 183.49 532.193 186.395C524.784 191.84 514.281 191.846 506.904 185.769C502.77 182.375 500.372 177.721 499.773 172.815C498.64 167.208 496.413 150.001 508.107 139.307C514.001 133.929 518.952 134.188 518.952 134.188L546.479 143.951C546.424 143.906 552.108 150.73 551.578 157.792Z" fill="#ED5C18"/>
<path fill-rule="evenodd" clip-rule="evenodd" d="M533.965 132.764C542.141 135.098 547.48 141.555 545.88 147.214C544.274 152.823 536.356 155.534 528.13 153.206C519.953 150.872 514.614 144.415 516.214 138.756C517.82 133.147 525.738 130.436 533.965 132.764Z" fill="#CC2818"/>
<path fill-rule="evenodd" clip-rule="evenodd" d="M546.79 133.107L544.603 144.413C544.615 144.97 544.526 145.538 544.337 146.118C542.92 151.147 535.826 153.513 528.491 151.44C521.205 149.362 516.402 143.606 517.869 138.571C518.08 137.736 518.508 137.028 519.037 136.309L525.923 123.007L546.79 133.107Z" fill="#E99670"/>
<path fill-rule="evenodd" clip-rule="evenodd" d="M544.653 144.408C544.653 144.865 544.598 145.277 544.492 145.695C540.694 145.764 536.405 144.162 532.844 140.907C527.417 135.931 525.609 128.826 528.229 124.119L546.84 133.102L544.653 144.408Z" fill="#C87149"/>
<path fill-rule="evenodd" clip-rule="evenodd" d="M537.171 120.583C537.171 120.583 553.578 131.638 543.936 136.623C537.027 140.185 521.685 131.396 519.216 119.29C517.104 109.022 537.171 120.583 537.171 120.583Z" fill="#EC957E"/>
<path fill-rule="evenodd" clip-rule="evenodd" d="M546.973 132.021C543.928 133.833 538.699 134.722 530.109 130.506C518.082 124.593 534.723 125.931 544.492 127.072C545.79 128.703 546.794 130.418 546.973 132.021Z" fill="#C87149"/>
<path fill-rule="evenodd" clip-rule="evenodd" d="M530.398 82.6737L513.38 84.3213C512.528 84.4164 512.094 85.0738 512.434 85.8477L530.76 129.063C531.1 129.837 532.025 130.393 532.877 130.298L549.895 128.65C550.746 128.555 551.18 127.898 550.84 127.124L532.515 83.9088C532.175 83.1349 531.25 82.5785 530.398 82.6737Z" fill="#2C1C28"/>
<path fill-rule="evenodd" clip-rule="evenodd" d="M541.818 125.392C548.021 125.511 547.723 120.114 544.977 119.609C548.936 118.71 548.973 114.495 543.286 113.1C535.46 111.184 526.361 111.947 526.361 111.947L526.806 110.019C526.806 110.019 530.209 110.959 532.342 111.431C537.227 112.458 539.217 107.111 530.254 103.19C525.185 100.965 521.276 100.489 519.39 104.962C517.377 109.652 514.749 118.826 525.074 129.038C528.236 136.449 538.458 131.653 540.267 130.132C542.911 127.908 542.609 126.572 541.818 125.392Z" fill="#E99670"/>
<path d="M545.797 119.67C545.797 119.67 530.581 117.006 521.728 120.888" stroke="#2C1C28" stroke-width="1.1923" stroke-miterlimit="10" stroke-linecap="round" stroke-linejoin="round"/>
<path d="M541.79 125.598C537.591 125.712 529.879 126.168 525.503 128.788" stroke="#2C1C28" stroke-width="1.1923" stroke-miterlimit="10" stroke-linecap="round" stroke-linejoin="round"/>
<path d="M532.147 111.503C532.297 111.486 521.889 111.431 519.129 114.886" stroke="#2C1C28" stroke-width="1.1923" stroke-miterlimit="10" stroke-linecap="round" stroke-linejoin="round"/>
<path d="M531.779 111.392L523.046 109.07" stroke="#2C1C28" stroke-width="1.1923" stroke-miterlimit="10" stroke-linecap="round" stroke-linejoin="round"/>
<path d="M547.884 144.095C550.963 152.1 553.426 170.82 538.647 181.658" stroke="#CC2818" stroke-width="1.19463" stroke-linecap="round"/>
<path fill-rule="evenodd" clip-rule="evenodd" d="M179.545 146.257C190.769 148.227 198.267 158.916 196.298 170.14C194.328 181.364 183.639 188.862 172.415 186.892C161.191 184.923 153.693 174.234 155.662 163.01C157.632 151.786 168.321 144.288 179.545 146.257Z" fill="#7581F1"/>
<path fill-rule="evenodd" clip-rule="evenodd" d="M155.676 170.564C153.222 161.35 148.911 117.85 149.557 113.25C150.825 103.884 159.529 97.3236 168.998 98.6102C178.467 99.8968 185.15 108.515 183.882 117.88C182.963 124.95 196.897 151.766 196.621 165.858C196.222 186.142 157.013 175.459 155.676 170.564Z" fill="#54B4A6"/>
<path fill-rule="evenodd" clip-rule="evenodd" d="M179.545 146.257C190.769 148.227 198.267 158.916 196.298 170.14C194.328 181.364 183.639 188.862 172.415 186.892C161.191 184.923 153.693 174.234 155.662 163.01C157.632 151.786 168.321 144.288 179.545 146.257Z" fill="#7581F1"/>
<path fill-rule="evenodd" clip-rule="evenodd" d="M211.949 182.903C193.609 214.768 161.822 183.159 159.661 179.298C154.48 166.391 159.202 170.005 159.709 162.542C159.717 161.579 159.838 160.583 160.002 159.647C161.762 149.618 170.997 142.776 180.989 143.833C185.671 144.012 195.396 144.754 201.866 147.871C202.263 148.048 202.661 148.225 203.006 148.392C214.647 154.399 219.274 170.155 211.949 182.903Z" fill="#54B4A6"/>
<path fill-rule="evenodd" clip-rule="evenodd" d="M194.531 163.724C187.207 162.117 180.386 165.58 179.286 171.547C178.194 177.462 183.277 183.603 190.601 185.209C197.925 186.816 204.746 183.352 205.846 177.386C206.938 171.471 201.907 165.339 194.531 163.724Z" fill="#54B4A6"/>
<path d="M179.294 171.495C178.203 177.41 183.285 183.551 190.609 185.157C197.933 186.764 204.754 183.301 205.855 177.334" stroke="#39A08F" stroke-width="1.27201" stroke-miterlimit="10" stroke-linecap="round" stroke-linejoin="round"/>
<path fill-rule="evenodd" clip-rule="evenodd" d="M197.972 153.883C190.648 152.277 183.827 155.74 182.726 161.706C181.635 167.621 186.717 173.762 194.041 175.368C201.365 176.975 208.186 173.512 209.287 167.545C210.317 161.673 205.287 155.542 197.972 153.883Z" fill="#39A08F"/>
<path fill-rule="evenodd" clip-rule="evenodd" d="M207.936 167.308C206.945 172.651 200.83 175.756 194.224 174.329C187.627 172.85 183.078 167.338 184.06 162.047C184.142 161.579 184.266 161.173 184.391 160.766L187.271 136.418L205.992 131.99L207.884 164.246C208.093 165.193 208.118 166.269 207.936 167.308Z" fill="#DE7C62"/>
<path fill-rule="evenodd" clip-rule="evenodd" d="M199.562 145.431C195.195 148.95 189.894 150.162 185.828 148.913L187.332 136.376L205.836 131.963C206.457 136.357 204.182 141.689 199.562 145.431Z" fill="#C26147"/>
<path fill-rule="evenodd" clip-rule="evenodd" d="M196.618 125.578C196.618 125.578 180.143 135.221 189.16 140.606C195.607 144.469 210.91 136.924 214.062 125.372C216.626 115.645 196.618 125.578 196.618 125.578Z" fill="#DE7C62"/>
<path fill-rule="evenodd" clip-rule="evenodd" d="M202.795 135.554C194.299 139.098 189.305 137.953 186.485 136.013C186.758 134.454 187.787 132.867 189.17 131.395C198.628 130.912 214.755 130.582 202.795 135.554Z" fill="#C26147"/>
<path fill-rule="evenodd" clip-rule="evenodd" d="M205.428 89.4158L221.738 92.0099C222.569 92.1558 222.927 92.8614 222.54 93.5433L202.296 134.127C201.951 134.87 200.958 135.338 200.179 135.202L183.869 132.608C183.038 132.462 182.679 131.756 183.067 131.074L203.354 90.5517C203.646 89.7996 204.648 89.2791 205.428 89.4158Z" fill="#2C1C28"/>
<path fill-rule="evenodd" clip-rule="evenodd" d="M191.836 129.935C185.827 129.684 186.47 124.494 189.144 124.213C185.372 123.123 185.606 119.04 191.14 118.029C198.776 116.637 207.499 117.9 207.499 117.9L207.195 115.972C207.195 115.972 203.858 116.672 201.765 117.001C196.989 117.663 195.395 112.402 204.26 109.19C209.289 107.394 213.039 107.088 214.614 111.542C216.256 116.223 218.27 125.2 207.653 134.424C204.133 141.359 194.611 136.1 192.959 134.524C190.619 132.292 191.003 131.021 191.836 129.935Z" fill="#DE7C62"/>
<path fill-rule="evenodd" clip-rule="evenodd" d="M216.494 105.713C216.494 105.713 217.032 108.753 216.961 110.99C216.763 117.919 215.075 123.568 214.877 124.39L212.638 113.338L216.494 105.713Z" fill="#DE7C62"/>
<path d="M188.346 124.18C188.346 124.18 203.148 122.546 211.456 126.789" stroke="#2C1C28" stroke-width="1.27201" stroke-miterlimit="10" stroke-linecap="round" stroke-linejoin="round"/>
<path d="M191.852 130.152C195.917 130.491 203.307 131.412 207.368 134.214" stroke="#2C1C28" stroke-width="1.27201" stroke-miterlimit="10" stroke-linecap="round" stroke-linejoin="round"/>
<path d="M202.016 117.098C201.86 117.071 211.882 117.651 214.367 121.194" stroke="#2C1C28" stroke-width="1.27201" stroke-miterlimit="10" stroke-linecap="round" stroke-linejoin="round"/>
<path d="M202.346 117.049L210.895 115.335" stroke="#2C1C28" stroke-width="1.27201" stroke-miterlimit="10" stroke-linecap="round" stroke-linejoin="round"/>
<path fill-rule="evenodd" clip-rule="evenodd" d="M175.412 130.428C175.651 130.898 175.89 131.368 176.138 131.787C178.006 135.489 178.212 139.81 176.583 143.595C175.071 147.026 172.328 151.365 167.17 156.031C168.857 164.736 169.472 181.073 158.893 185.805C154.827 187.609 113.189 183.142 99.8527 177.642C91.9097 174.374 92.466 168.151 98.3226 159.805C101.457 155.373 98.1676 126.194 96.6246 113.925C92.4284 110.671 90.1677 105.239 91.1524 99.6275C92.5748 91.5212 100.271 86.1227 108.377 87.5451C109.001 87.6545 109.563 87.8068 110.126 87.959C137.77 92.8097 158.385 97.1232 169.006 98.5584C178.475 99.845 185.158 108.463 183.89 117.828C183.131 123.373 179.875 127.89 175.412 130.428Z" fill="#54B4A6"/>
<path d="M154.222 120.549C154.849 124.302 155.21 127.739 155.068 130.071C154.617 137.223 150.792 151.389 143.114 178.055" stroke="#39A08F" stroke-width="1.27201" stroke-miterlimit="10" stroke-linecap="round" stroke-linejoin="round"/>
<path d="M158.884 185.857C169.411 181.116 168.796 164.779 167.161 156.083C172.276 151.356 175.071 147.026 176.574 143.647C178.255 139.871 177.997 135.541 176.129 131.839C174.381 128.372 171.395 122.492 166.677 113.362" stroke="#39A08F" stroke-width="1.27201" stroke-miterlimit="10" stroke-linecap="round" stroke-linejoin="round"/>
<path fill-rule="evenodd" clip-rule="evenodd" d="M116.718 112.362C107.553 125.216 99.1106 133.644 94.6758 155.255C91.9961 168.39 98.5069 172.8 90.9071 186.196C82.3738 201.25 42.1389 193.976 47.9129 169.921C54.0918 144.17 86.5472 102.676 93.5251 94.0452C96.705 89.354 102.479 86.6712 108.402 87.7106C116.509 89.133 121.907 96.8292 120.485 104.935C119.931 107.784 118.574 110.331 116.718 112.362Z" fill="#54B4A6"/>
<path d="M110.791 120.804C99.5408 136.077 96.8576 142.516 94.519 154.318" stroke="#39A08F" stroke-width="1.27201" stroke-miterlimit="10" stroke-linecap="round" stroke-linejoin="round"/>
<path fill-rule="evenodd" clip-rule="evenodd" d="M49.0985 197.661C49.0985 197.661 49.0684 198.138 49.0228 198.398C48.6854 200.32 55.1151 203.055 63.3772 204.505C71.6394 205.955 78.6161 205.572 78.9535 203.65C78.9809 203.494 84.3572 188.422 84.3572 188.422L84.3052 188.413C84.3143 188.361 84.3143 188.361 84.3235 188.309C84.6608 186.386 78.2311 183.651 69.969 182.201C61.7069 180.752 54.7301 181.134 54.3927 183.057C54.3745 183.161 54.4082 183.274 54.39 183.378L49.0985 197.661Z" fill="#54B4A6"/>
<path d="M84.2959 188.464L84.244 188.455C84.2531 188.403 84.2531 188.403 84.2622 188.351C84.5996 186.429 78.1699 183.694 69.9077 182.244C61.6456 180.794 54.6688 181.177 54.3315 183.099C54.3133 183.203 54.347 183.316 54.3287 183.42" stroke="#39A08F" stroke-width="1.27201" stroke-miterlimit="10" stroke-linecap="round" stroke-linejoin="round"/>
<path fill-rule="evenodd" clip-rule="evenodd" d="M64.419 198.26C71.9017 199.573 77.778 202.104 77.468 203.871C77.158 205.638 70.823 206.026 63.2884 204.704C55.8057 203.391 49.9294 200.86 50.2394 199.093C50.5494 197.327 56.8844 196.938 64.419 198.26Z" fill="#39A08F"/>
<path fill-rule="evenodd" clip-rule="evenodd" d="M51.5797 244.268C47.7125 246.16 37.8558 248.608 31.6758 251.166L29.5498 252.293C28.3646 252.942 26.9279 252.583 26.3737 251.468C25.8532 250.466 26.2461 249.142 27.2754 248.466C27.2754 248.466 33.4181 245.205 38.2991 239.366L25.0668 236.937L24.6237 237.02C24.5107 237.054 24.3976 237.088 24.2326 237.112C24.0065 237.18 23.7194 237.29 23.4933 237.358C23.032 237.544 22.5525 237.835 22.1249 238.135C21.6973 238.435 21.3035 238.848 20.9616 239.27L20.8212 239.46L20.6197 239.692L20.2596 240.218L19.4966 241.209L10.7199 254.292C9.81641 255.472 8.1481 255.822 6.9402 255.075C5.83623 254.345 5.60563 252.912 6.29212 251.747L14.1453 238.128L14.7616 237.057L15.0698 236.522L15.2284 236.229L15.4481 235.892C16.0462 234.926 16.7819 234.091 17.6215 233.274C18.4521 232.509 19.3774 231.815 20.3975 231.19C20.929 230.909 21.4086 230.618 21.9829 230.397C22.2701 230.287 22.5053 230.167 22.7924 230.057L23.5318 229.812L50.7134 220.816C50.7745 220.773 50.7836 220.721 50.7836 220.721C50.3679 220.648 58.4651 219.069 58.6484 218.941C70.4454 235.044 51.5888 244.216 51.5797 244.268Z" fill="#DE7C62"/>
<path fill-rule="evenodd" clip-rule="evenodd" d="M74.6318 203.855L61.548 234.769L42.5815 231.441L52.2266 199.977L52.2357 199.925C52.491 198.471 57.68 198.203 63.8636 199.288C70.0992 200.382 74.8871 202.4 74.6318 203.855Z" fill="#DE7C62"/>
<path d="M2.07142 245.275L13.3623 234.348L14.2631 233.488L14.7089 233.084L14.9623 232.861L15.2768 232.595C16.1074 231.83 17.0755 231.196 18.0774 230.676C19.0793 230.155 20.1669 229.757 21.3402 229.481C21.8963 229.364 22.4524 229.247 23.0605 229.14C23.3385 229.082 23.6594 229.084 23.9284 229.078L24.7352 229.059L54.3142 227.768C59.3902 227.534 58.6095 238.699 48.1429 242.486L24.2317 236.201L23.755 236.171C23.651 236.153 23.486 236.178 23.3821 236.16C23.1132 236.166 22.8442 236.172 22.6273 236.188C22.1322 236.262 21.5761 236.378 21.0629 236.556C20.5496 236.734 20.0792 236.973 19.6425 237.325L19.4593 237.453L19.215 237.624L18.7172 238.019L17.7308 238.757L5.70875 248.967C4.52997 249.885 2.78783 249.74 1.90357 248.674C0.958233 247.651 1.10961 246.178 2.07142 245.275Z" fill="#DE7C62"/>
<path d="M39.8396 239.743C33.1455 238.515 24.9536 236.971 24.9536 236.971L24.5105 237.054C24.3975 237.087 24.2844 237.121 24.1194 237.146C23.8933 237.213 23.6062 237.323 23.3801 237.391C22.9188 237.578 22.4392 237.869 22.0117 238.168C21.5841 238.468 21.1903 238.881 20.8484 239.303L20.708 239.493L20.5065 239.725L20.1464 240.251L19.3833 241.242L10.6066 254.325C9.70318 255.506 8.03488 255.856 6.82698 255.108C5.72301 254.379 5.4924 252.946 6.17889 251.781L14.0321 238.161L14.6484 237.091L14.9566 236.556L15.1152 236.262L15.3349 235.926C15.933 234.959 16.6687 234.124 17.5083 233.307C18.3388 232.543 19.2642 231.848 20.2843 231.224C20.8158 230.942 21.2953 230.651 21.8697 230.43C22.1568 230.32 22.392 230.201 22.6792 230.09L23.4186 229.845" stroke="#2C1C28" stroke-width="1.27201" stroke-miterlimit="10" stroke-linecap="round" stroke-linejoin="round"/>
<path fill-rule="evenodd" clip-rule="evenodd" d="M143.339 85.806C152.69 88.6788 159.8 93.033 159.136 95.5947C158.524 98.1655 150.425 97.9228 141.013 95.0928C131.661 92.22 124.552 87.8658 125.215 85.3041C125.836 82.6814 133.987 82.9332 143.339 85.806Z" fill="black"/>
<path d="M137.914 51.6978C136.521 52.3104 135.866 53.9094 136.393 55.1802C136.92 56.451 138.537 57.0026 139.878 56.3809" stroke="black" stroke-width="1.27201" stroke-miterlimit="10" stroke-linecap="round" stroke-linejoin="round"/>
<path fill-rule="evenodd" clip-rule="evenodd" d="M169.7 62.2567C175.444 50.8915 157.397 56.6698 150.051 60.6836C142.705 64.6973 141.671 76.9962 147.743 88.1849C153.814 99.3736 174.956 111.975 178.335 104.319C187.333 83.5621 161.867 77.5939 169.7 62.2567Z" fill="#4F2827"/>
<path fill-rule="evenodd" clip-rule="evenodd" d="M162.329 75.2647L156.852 93.9613C156.877 94.1263 156.858 94.2303 156.831 94.3861C156.292 96.5412 149.538 96.2667 141.675 93.7622C133.864 91.2668 127.938 87.4952 128.477 85.3401C128.513 85.1322 128.653 84.9426 128.846 84.7621L142.081 58.4818L162.329 75.2647Z" fill="#DE7C62"/>
<path fill-rule="evenodd" clip-rule="evenodd" d="M158.982 87.3186C142.877 78.9757 145.3 62.4214 145.3 62.4214L162.384 74.9532L158.982 87.3186Z" fill="#C26147"/>
<path fill-rule="evenodd" clip-rule="evenodd" d="M140.747 60.2833C101.885 63.802 145.597 22.569 157.523 23.5903C157.523 23.5903 174.998 26.8709 177.866 38.3011C178.24 42.2767 177.64 44.4747 177.943 50.6875C178.487 60.1029 174.367 76.2524 163.07 77.7518C156.498 78.5803 145.388 75.3455 140.747 60.2833Z" fill="#DE7C62"/>
<path d="M156.828 60.2129C156.828 60.2129 160.325 67.1469 167.157 65.4533" stroke="#BD4040" stroke-width="1.27201" stroke-miterlimit="10" stroke-linecap="round" stroke-linejoin="round"/>
<path fill-rule="evenodd" clip-rule="evenodd" d="M158.285 62.2892C158.285 62.2892 160.025 60.6127 162.81 61.5299C164.531 62.0997 164.746 63.3159 164.746 63.3159C164.746 63.3159 167.835 62.1974 167.624 65.5349C165.487 67.0344 159.745 64.9558 158.285 62.2892Z" fill="#BD4040"/>
<path d="M169.467 43.7367C169.467 43.7367 173.075 41.7987 177.491 44.716" stroke="#2C1C28" stroke-width="1.27201" stroke-miterlimit="10" stroke-linecap="round" stroke-linejoin="round"/>
<path d="M172.125 48.4346L174.893 47.3134" stroke="#2C1C28" stroke-width="1.27201" stroke-miterlimit="10" stroke-linecap="round" stroke-linejoin="round"/>
<path d="M156.751 46.0046L159.785 45.1979" stroke="#2C1C28" stroke-width="1.27201" stroke-miterlimit="10" stroke-linecap="round" stroke-linejoin="round"/>
<path d="M152.789 42.6314C154.515 41.6487 159.354 39.7125 163.932 42.9262" stroke="#2C1C28" stroke-width="1.27201" stroke-miterlimit="10" stroke-linecap="round" stroke-linejoin="round"/>
<path d="M167.335 46.7373C167.335 46.7373 165.89 50.3938 168.766 53.8444C171.599 57.234 169.525 61.4229 165.01 59.9879" stroke="#2C1C28" stroke-width="1.27201" stroke-miterlimit="10" stroke-linecap="round" stroke-linejoin="round"/>
<path d="M141.218 53.938L135.875 49.8938" stroke="#2C1C28" stroke-width="1.27201" stroke-miterlimit="10" stroke-linecap="round" stroke-linejoin="round"/>
<path fill-rule="evenodd" clip-rule="evenodd" d="M156.57 45.8125C157.377 45.7934 157.931 46.9083 157.859 48.2347C157.735 49.552 157.005 50.656 156.208 50.6232C155.401 50.6423 154.847 49.5273 154.919 48.2009C155.043 46.8836 155.763 45.8316 156.57 45.8125Z" fill="#2C1C28"/>
<path fill-rule="evenodd" clip-rule="evenodd" d="M172.546 47.8657C173.353 47.8466 173.907 48.9615 173.835 50.288C173.711 51.6053 172.982 52.7092 172.184 52.6764C171.377 52.6955 170.823 51.5806 170.895 50.2541C170.958 48.9797 171.739 47.8848 172.546 47.8657Z" fill="#2C1C28"/>
<path fill-rule="evenodd" clip-rule="evenodd" d="M104.103 87.491C104.103 87.491 112.417 88.9498 119.068 90.1169C129.387 97.5516 126.643 114.103 118.933 117.142L147.097 122.084C153.718 114.569 154.998 107.884 153.581 102.225C159.11 109.784 158.359 116.508 148.466 122.217C190.321 117.51 157.089 92.6104 136.204 83.4287C133.519 81.9399 131.626 81.1258 131.626 81.1258C131.626 81.1258 145.839 73.3891 140.719 59.5284C137.707 60.821 134.397 58.3121 133.586 56.8307C131.673 53.3883 132.606 48.6779 135.731 47.3515C138.856 46.0252 141.848 48.2105 143.433 50.4705C143.39 50.4094 143.39 50.4094 143.433 50.4705C143.518 50.5926 143.69 50.837 143.724 50.95C143.099 40.7706 162.47 38.4383 161.461 28.6199C161.461 28.6199 172.516 29.1134 177.723 37.9009C178.376 34.4804 176.561 25.5919 163.195 20.5684C147.615 14.728 130.926 21.0124 128.745 37.7163C128.431 38.8932 128.54 40.412 127.136 42.3081C123.098 47.9201 76.2146 67.5463 104.103 87.491ZM148.292 122.294C148.353 122.251 148.353 122.251 148.414 122.208C148.353 122.251 148.301 122.242 148.24 122.285L148.292 122.294Z" fill="#4F2827"/>
<path fill-rule="evenodd" clip-rule="evenodd" d="M109.006 500.263C120.085 501.582 133.644 499.102 136.703 497.467C138.55 496.517 141.293 495.515 141.821 490.714C141.979 489.395 144.67 487.285 145.883 486.44C147.941 485.016 144.67 466.868 140.133 462.278C136.598 461.645 127.577 477.472 121.721 481.218C107.054 484.752 104.574 489.659 104.574 489.659C102.781 492.56 102.622 499.524 109.006 500.263Z" fill="#2C1A28"/>
<path fill-rule="evenodd" clip-rule="evenodd" d="M109.006 496.992C120.085 498.311 133.644 495.832 136.703 494.196C138.55 493.246 141.293 492.244 141.821 487.443C141.979 486.124 144.67 484.014 145.883 483.17C147.941 481.745 144.67 463.597 140.133 459.007C136.598 458.374 127.577 474.201 121.721 477.947C107.054 481.482 104.574 486.388 104.574 486.388C102.781 489.29 102.622 496.254 109.006 496.992Z" fill="#54B4A6"/>
<path fill-rule="evenodd" clip-rule="evenodd" d="M215.417 500.791C202.544 501.002 198.429 499.313 193.365 496.939C187.772 494.354 191.149 488.604 185.926 487.549C180.597 486.493 180.017 484.7 180.017 484.7C178.751 479.002 181.864 479.688 185.24 475.678C214.784 494.618 216.736 480.11 218.266 484.752C218.266 484.752 233.46 486.23 239.421 493.563C240.424 494.776 239.896 496.253 239.527 497.572C241.11 497.414 233.249 500.474 215.417 500.791Z" fill="#2C1A28"/>
<path fill-rule="evenodd" clip-rule="evenodd" d="M215.417 497.256C202.545 497.467 198.43 495.779 193.365 493.405C187.773 490.82 191.149 485.069 185.926 484.014C180.598 482.959 180.017 481.165 180.017 481.165C178.751 475.467 180.387 467.29 183.816 463.333C213.36 482.273 216.789 476.628 218.266 481.271C218.266 481.271 235.887 482.959 239.58 494.038C241.11 493.932 233.249 496.939 215.417 497.256Z" fill="#54B4A6"/>
<path fill-rule="evenodd" clip-rule="evenodd" d="M131.218 306.381C130.374 324.477 134.436 321.733 136.705 345.368C138.868 368.001 140.82 423.132 141.031 454.048C140.609 456.316 141.558 460.853 141.558 460.853C141.558 460.853 138.234 465.127 138.076 467.395C136.968 483.275 135.175 485.702 108.691 483.433C113.28 478.105 121.88 460.273 119.822 449.247C110.326 364.203 106.475 351.594 106.58 327.062C106.686 298.257 93.8131 265.864 89.276 241.068C84.2114 213.687 106.739 184.671 105.789 191.687C116.815 190.421 106 217.064 114.283 217.538C115.232 217.644 132.906 216.483 132.906 216.483C132.906 216.483 134.489 235.37 131.218 306.381Z" fill="#DE7C62"/>
<path fill-rule="evenodd" clip-rule="evenodd" d="M199.327 479.74C190.939 466.076 186.401 465.812 183.236 465.021C177.591 432.997 168.833 380.293 164.507 358.874C159.812 335.608 165.721 332.179 159.548 314.611C135.386 245.658 133.592 225.452 133.592 225.452C133.592 225.452 146.887 213.792 147.783 213.634C155.908 212.421 148.944 197.438 160.34 197.754C158.018 192.479 176.483 210.099 181.02 247.715C190.569 326.745 207.082 455.947 207.082 455.947C207.082 455.947 211.303 465.865 217.423 472.776C220.852 476.628 224.07 481.323 226.866 483.591C210.511 487.865 202.229 484.383 199.327 479.74Z" fill="#DE7C62"/>
<path fill-rule="evenodd" clip-rule="evenodd" d="M140.502 426.719C130.637 427.089 121.773 423.501 116.55 420.811C116.023 416.326 115.495 412.159 115.021 408.202C122.776 405.458 137.337 407.78 137.337 407.78C137.337 407.78 138.497 408.94 140.027 410.681C140.238 416.115 140.397 421.497 140.502 426.719C140.555 426.719 140.502 426.719 140.502 426.719Z" fill="#C26147"/>
<path fill-rule="evenodd" clip-rule="evenodd" d="M205.605 414.691C205.446 416.169 196.478 417.382 185.346 417.382C174.161 417.382 165.087 416.169 165.087 414.639H165.034L135.913 246.713L144.617 414.797H144.354C143.826 416.221 134.963 417.382 124.148 417.382C112.963 417.382 103.889 416.169 103.889 414.639C102.834 405.617 98.1386 357.239 96.7142 345.158C91.4912 301.528 84.7911 245.816 84.7911 245.816C84.7911 245.816 83.6304 233.735 85.3714 223.711C86.0573 219.807 86.9541 216.273 87.9565 213.054C89.381 205.668 94.7622 197.069 98.6134 191.952V176.758V176.705C98.6134 174.067 112.014 172.854 128.579 173.909C145.145 175.017 158.545 178.024 158.545 180.609C158.545 180.767 158.493 180.873 158.44 181.031L159.548 194.273C178.962 204.349 183.605 232.205 183.658 232.258L205.763 414.639L205.605 414.691Z" fill="#FCC670"/>
<path d="M143.193 239.432L174.795 411.262" stroke="#D8912B" stroke-width="1.27201" stroke-miterlimit="10" stroke-linecap="round" stroke-linejoin="round"/>
<path d="M155.327 193.323C155.327 193.323 161.922 211.683 179.068 218.805" stroke="#D8912B" stroke-width="1.27201" stroke-miterlimit="10" stroke-linecap="round" stroke-linejoin="round"/>
<path d="M134.963 175.175V189.05L136.335 237.269C136.335 237.269 150.157 231.255 145.831 210.522C142.138 192.954 143.087 190.421 143.087 190.421" stroke="#D8912B" stroke-width="1.27201" stroke-miterlimit="10" stroke-linecap="round" stroke-linejoin="round"/>
<path d="M117.29 188.364C117.29 188.364 117.29 212.949 93.3379 220.704" stroke="#D8912B" stroke-width="1.27201" stroke-miterlimit="10" stroke-linecap="round" stroke-linejoin="round"/>
<path d="M106.791 174.225V188.522C102.939 193.64 97.5053 202.239 96.1336 209.625C95.1313 212.79 94.2344 216.378 93.5485 220.282C91.8603 230.306 92.9682 242.387 92.9682 242.387C92.9682 242.387 99.6683 298.098 104.891 341.728C106.527 355.551 111.486 407.622 112.594 416.907" stroke="#D8912B" stroke-width="1.27201" stroke-miterlimit="10" stroke-linecap="round" stroke-linejoin="round"/>
<path d="M98.3496 191.635V191.582C98.3496 188.892 112.119 187.625 129.107 188.733C146.095 189.841 159.864 192.954 159.864 195.644" stroke="#D8912B" stroke-width="1.27201" stroke-miterlimit="10" stroke-linecap="round" stroke-linejoin="round"/>
<path fill-rule="evenodd" clip-rule="evenodd" d="M136.177 237.797L144.776 237.48C144.776 237.48 145.409 241.807 143.563 247.821C141.927 253.149 137.918 258.056 137.918 258.056L135.966 246.713L136.177 237.797Z" fill="#D8912B"/>
</svg>
