<svg width="41" height="41" viewBox="0 0 41 41" fill="none" xmlns="http://www.w3.org/2000/svg">
<path d="M30.8357 5.17621H30.5624V4.69788C30.5624 3.99746 29.9816 3.41663 29.2812 3.41663C28.5807 3.41663 27.9999 3.99746 27.9999 4.69788V5.17621H13.0007V4.69788C13.0007 3.99746 12.437 3.41663 11.7195 3.41663C11.0191 3.41663 10.4382 3.99746 10.4382 4.69788V5.17621H10.1649C6.44074 5.17621 3.41699 8.19995 3.41699 11.9241V30.8354C3.41699 34.5595 6.44074 37.5833 10.1649 37.5833H30.8357C34.5599 37.5833 37.5837 34.5595 37.5837 30.8354V11.9241C37.5837 8.19995 34.5599 5.17621 30.8357 5.17621ZM10.2503 32.407C9.31074 32.407 8.54199 31.6554 8.54199 30.6987C8.54199 29.7591 9.31074 28.9904 10.2503 28.9904C11.1899 28.9904 11.9587 29.7591 11.9587 30.6987C11.9587 31.6554 11.1899 32.407 10.2503 32.407ZM10.2503 26.4621C9.31074 26.4621 8.54199 25.6933 8.54199 24.7537C8.54199 23.7971 9.31074 23.0454 10.2503 23.0454C11.1899 23.0454 11.9587 23.7971 11.9587 24.7537C11.9587 25.6933 11.1899 26.4621 10.2503 26.4621ZM10.2503 20.5C9.31074 20.5 8.54199 19.7312 8.54199 18.7916C8.54199 17.852 9.31074 17.0833 10.2503 17.0833C11.1899 17.0833 11.9587 17.852 11.9587 18.7916C11.9587 19.7312 11.1899 20.5 10.2503 20.5ZM17.0837 32.407C16.1441 32.407 15.3753 31.6554 15.3753 30.6987C15.3753 29.7591 16.1441 28.9904 17.0837 28.9904C18.0232 28.9904 18.792 29.7591 18.792 30.6987C18.792 31.6554 18.0232 32.407 17.0837 32.407ZM17.0837 26.4621C16.1441 26.4621 15.3753 25.6933 15.3753 24.7537C15.3753 23.7971 16.1441 23.0454 17.0837 23.0454C18.0232 23.0454 18.792 23.7971 18.792 24.7537C18.792 25.6933 18.0232 26.4621 17.0837 26.4621ZM17.0837 20.5C16.1441 20.5 15.3753 19.7312 15.3753 18.7916C15.3753 17.852 16.1441 17.0833 17.0837 17.0833C18.0232 17.0833 18.792 17.852 18.792 18.7916C18.792 19.7312 18.0232 20.5 17.0837 20.5ZM23.917 32.407C22.9774 32.407 22.2087 31.6554 22.2087 30.6987C22.2087 29.7591 22.9774 28.9904 23.917 28.9904C24.8566 28.9904 25.6253 29.7591 25.6253 30.6987C25.6253 31.6554 24.8566 32.407 23.917 32.407ZM23.917 26.4621C22.9774 26.4621 22.2087 25.6933 22.2087 24.7537C22.2087 23.7971 22.9774 23.0454 23.917 23.0454C24.8566 23.0454 25.6253 23.7971 25.6253 24.7537C25.6253 25.6933 24.8566 26.4621 23.917 26.4621ZM23.917 20.5C22.9774 20.5 22.2087 19.7312 22.2087 18.7916C22.2087 17.852 22.9774 17.0833 23.917 17.0833C24.8566 17.0833 25.6253 17.852 25.6253 18.7916C25.6253 19.7312 24.8566 20.5 23.917 20.5ZM30.7503 26.4621C29.8107 26.4621 29.042 25.6933 29.042 24.7537C29.042 23.7971 29.8107 23.0454 30.7503 23.0454C31.6899 23.0454 32.4587 23.7971 32.4587 24.7537C32.4587 25.6933 31.6899 26.4621 30.7503 26.4621ZM30.7503 20.5C29.8107 20.5 29.042 19.7312 29.042 18.7916C29.042 17.852 29.8107 17.0833 30.7503 17.0833C31.6899 17.0833 32.4587 17.852 32.4587 18.7916C32.4587 19.7312 31.6899 20.5 30.7503 20.5ZM35.0212 12.2145H5.97949V11.9241C5.97949 9.61787 7.85866 7.73871 10.1649 7.73871H10.4382V8.21704C10.4382 8.93454 11.0191 9.49829 11.7195 9.49829C12.437 9.49829 13.0007 8.93454 13.0007 8.21704V7.73871H27.9999V8.21704C27.9999 8.93454 28.5807 9.49829 29.2812 9.49829C29.9816 9.49829 30.5624 8.93454 30.5624 8.21704V7.73871H30.8357C33.142 7.73871 35.0212 9.61787 35.0212 11.9241V12.2145Z" fill="#ED5C18"/>
</svg>
