<svg width="41" height="41" viewBox="0 0 41 41" fill="none" xmlns="http://www.w3.org/2000/svg">
<path d="M20.4983 3.4408C11.0632 3.4408 3.41504 11.089 3.41504 20.5242C3.41504 29.9593 11.0632 37.6075 20.4983 37.6075C29.9335 37.6075 37.5817 29.9593 37.5817 20.5242C37.5817 19.2361 37.4348 17.9702 37.1546 16.7334C36.9462 15.8143 36.0459 15.2437 35.1251 15.4521C34.206 15.6605 33.6354 16.5608 33.8438 17.4817C34.0693 18.4691 34.165 19.4907 34.165 20.5242C34.165 28.0716 28.0458 34.1909 20.4983 34.1909C12.951 34.1909 6.83171 28.0716 6.83171 20.5242C6.83171 12.9767 12.951 6.85746 20.4983 6.85746C21.5302 6.85746 22.5535 6.95311 23.5409 7.17861C24.4617 7.38703 25.362 6.81645 25.5704 5.89736C25.7788 4.97657 25.2082 4.0763 24.2891 3.86788C23.054 3.58771 21.7847 3.4408 20.4983 3.4408ZM30.7483 3.4408C29.8053 3.4408 29.04 4.20613 29.04 5.14913V9.52757L21.3559 17.21C21.3559 17.21 20.7665 17.1075 20.4983 17.1075C18.6106 17.1075 17.0817 18.6365 17.0817 20.5242C17.0817 22.4119 18.6106 23.9409 20.4983 23.9409C22.386 23.9409 23.915 22.4119 23.915 20.5242C23.915 20.256 23.8057 19.6717 23.8057 19.6717L31.4966 11.9825H35.8733C36.8163 11.9825 37.5817 11.2171 37.5817 10.2741C37.5817 9.33113 36.8163 8.5658 35.8733 8.5658H32.4567V5.14913C32.4567 4.20613 31.6913 3.4408 30.7483 3.4408ZM20.4983 10.2741C14.837 10.2741 10.2484 14.8627 10.2484 20.5242C10.2484 26.1856 14.837 30.7742 20.4983 30.7742C26.1598 30.7742 30.7483 26.1856 30.7483 20.5242C30.7483 19.5812 29.983 18.8159 29.04 18.8159C28.097 18.8159 27.3317 19.5812 27.3317 20.5242C27.3317 24.2979 24.272 27.3575 20.4983 27.3575C16.7247 27.3575 13.665 24.2979 13.665 20.5242C13.665 16.7504 16.7247 13.6908 20.4983 13.6908C21.4413 13.6908 22.2067 12.9255 22.2067 11.9825C22.2067 11.0395 21.4413 10.2741 20.4983 10.2741Z" fill="#ED5C18"/>
</svg>
