<svg width="41" height="41" viewBox="0 0 41 41" fill="none" xmlns="http://www.w3.org/2000/svg">
<path d="M18.7399 10.0964C13.9736 10.0964 10.0957 13.9743 10.0957 18.7406C10.0957 23.5068 13.9736 27.4018 18.7399 27.4018C23.5232 27.4018 27.4011 23.5068 27.4011 18.7406C27.4011 13.9743 23.5232 10.0964 18.7399 10.0964Z" fill="#ED5C18"/>
<path d="M37.2068 35.3968L30.4419 28.6317C32.6969 25.9497 34.0635 22.5159 34.0635 18.7405C34.0635 10.3013 27.196 3.41675 18.7398 3.41675C10.3006 3.41675 3.41602 10.3013 3.41602 18.7405C3.41602 27.1968 10.3006 34.0643 18.7398 34.0643C22.5152 34.0643 25.966 32.6976 28.631 30.4426L35.396 37.2076C35.6523 37.4638 35.9768 37.5834 36.3014 37.5834C36.626 37.5834 36.9506 37.4638 37.2068 37.2076C37.7023 36.7122 37.7023 35.8922 37.2068 35.3968ZM18.7398 29.9642C12.5556 29.9642 7.53311 24.9247 7.53311 18.7405C7.53311 12.5563 12.5556 7.53384 18.7398 7.53384C24.9239 7.53384 29.9635 12.5563 29.9635 18.7405C29.9635 24.9247 24.9239 29.9642 18.7398 29.9642Z" fill="#ED5C18"/>
</svg>
