<svg width="55" height="55" viewBox="0 0 55 55" fill="none" xmlns="http://www.w3.org/2000/svg">
<path d="M27.0009 19.001C25.7278 19.001 24.5068 19.5067 23.6066 20.4069C22.7064 21.3071 22.2007 22.5281 22.2007 23.8011C22.2007 25.0742 22.7064 26.2952 23.6066 27.1954C24.5068 28.0956 25.7278 28.6013 27.0009 28.6013C28.2739 28.6013 29.4949 28.0956 30.3951 27.1954C31.2953 26.2952 31.801 25.0742 31.801 23.8011C31.801 22.5281 31.2953 21.3071 30.3951 20.4069C29.4949 19.5067 28.2739 19.001 27.0009 19.001Z" fill="#ED5C18"/>
<path fill-rule="evenodd" clip-rule="evenodd" d="M31.801 9.40023H28.6009V3H25.4008V9.40023H22.2007C17.1083 9.40023 12.2246 11.4232 8.62375 15.024C5.02292 18.6248 3 23.5086 3 28.6009C3 33.6933 5.02292 38.577 8.62375 42.1778C12.2246 45.7787 17.1083 47.8016 22.2007 47.8016H31.801C32.217 47.8016 32.632 47.7877 33.0459 47.76L45.8143 50.9537C46.0822 51.0204 46.3628 51.0167 46.6288 50.9429C46.8948 50.8691 47.1372 50.7277 47.3324 50.5325C47.5276 50.3373 47.6689 50.0949 47.7428 49.8289C47.8166 49.5629 47.8203 49.2823 47.7536 49.0144L45.9071 41.6254C48.4388 38.8832 50.1164 35.4626 50.7347 31.782C51.353 28.1014 50.8853 24.3204 49.3887 20.9014C47.8921 17.4825 45.4315 14.5738 42.3079 12.5312C39.1844 10.4886 35.5332 9.40056 31.801 9.40023ZM19.0006 23.8007C19.0006 21.6789 19.8435 19.644 21.3438 18.1437C22.8441 16.6433 24.8791 15.8005 27.0009 15.8005C29.1227 15.8005 31.1576 16.6433 32.6579 18.1437C34.1583 19.644 35.0011 21.6789 35.0011 23.8007C35.0011 25.9226 34.1583 27.9575 32.6579 29.4578C31.1576 30.9581 29.1227 31.801 27.0009 31.801C24.8791 31.801 22.8441 30.9581 21.3438 29.4578C19.8435 27.9575 19.0006 25.9226 19.0006 23.8007ZM27.0009 41.4014C23.7276 41.407 20.551 40.2925 17.9989 38.2429L20.0022 35.7468C21.9191 37.2828 24.3512 38.2013 27.0009 38.2013C29.6506 38.2013 32.0826 37.2828 33.9995 35.7468L36.0028 38.2429C33.4507 40.2925 30.2741 41.407 27.0009 41.4014Z" fill="#ED5C18"/>
</svg>
