<svg width="55" height="55" viewBox="0 0 55 55" fill="none" xmlns="http://www.w3.org/2000/svg">
<path d="M42.1094 8.59375H24.9219C23.327 8.59546 21.7978 9.22979 20.6701 10.3576C19.5423 11.4853 18.908 13.0145 18.9062 14.6094V25.7812H35.3815L29.7226 20.1212C29.4138 19.7962 29.2443 19.3635 29.25 18.9154C29.2557 18.4672 29.4363 18.039 29.7533 17.722C30.0702 17.4051 30.4984 17.2245 30.9466 17.2188C31.3948 17.213 31.8275 17.3826 32.1524 17.6913L40.7462 26.2851C41.0683 26.6074 41.2492 27.0444 41.2492 27.5C41.2492 27.9556 41.0683 28.3926 40.7462 28.7149L32.1524 37.3087C31.8275 37.6174 31.3948 37.787 30.9466 37.7812C30.4984 37.7755 30.0702 37.5949 29.7533 37.278C29.4363 36.961 29.2557 36.5328 29.25 36.0846C29.2443 35.6365 29.4138 35.2038 29.7226 34.8788L35.3815 29.2188H18.9062V40.3906C18.9062 43.8335 22.536 46.4062 25.7812 46.4062H42.1094C43.7043 46.4045 45.2334 45.7702 46.3612 44.6424C47.489 43.5147 48.1233 41.9855 48.125 40.3906V14.6094C48.1233 13.0145 47.489 11.4853 46.3612 10.3576C45.2334 9.22979 43.7043 8.59546 42.1094 8.59375ZM8.59375 25.7812C8.13791 25.7812 7.70074 25.9623 7.37841 26.2847C7.05608 26.607 6.875 27.0442 6.875 27.5C6.875 27.9558 7.05608 28.393 7.37841 28.7153C7.70074 29.0377 8.13791 29.2188 8.59375 29.2188H18.9062V25.7812H8.59375Z" fill="#ED5C18"/>
</svg>
