<svg width="500" height="350" viewBox="0 0 500 350" fill="none" xmlns="http://www.w3.org/2000/svg">
<path d="M183.814 55.371C183.814 55.371 197.24 92.034 198.273 109.075C199.306 126.116 186.912 125.599 186.912 125.599C186.912 125.599 169.871 98.231 168.322 92.034C166.773 85.838 183.814 55.371 183.814 55.371Z" fill="#33475B"/>
<path d="M182.06 117.647L177.172 85.168L184.81 58.157L191.833 79.717L182.06 117.647Z" fill="#36414C"/>
<path d="M124.505 296.542C127.346 283.332 129.842 270.081 132.726 256.991C134.787 247.638 134.755 237.454 135.94 227.938C137.145 218.257 138.64 208.6 140.91 199.106C143.9 186.596 146.891 174.086 149.881 161.576H113.596L98.4869 296.543H124.505V296.542Z" fill="#81C0BE"/>
<path d="M140.183 185.177H155.109V167.311H140.183V185.177Z" fill="#81C0BE"/>
<path d="M148.866 176.663C148.283 178.842 147.857 181.636 147.646 185.176C145.947 213.7 153.077 241.748 153.709 270.181C153.859 276.931 153.528 283.155 154.178 289.948C154.388 292.146 154.599 294.344 154.809 296.541H178.491L181.023 141.627C180.928 137.31 177.505 133.861 173.316 133.861H123.341C119.392 133.861 116.082 136.937 115.673 140.985L112.814 169.313H148.367C148.426 170.183 148.604 172.824 148.866 176.663Z" fill="#81C0BE"/>
<path d="M149.812 164.829C166.831 164.829 180.628 161.052 180.628 156.392C180.628 151.732 166.831 147.955 149.812 147.955C132.793 147.955 118.996 151.732 118.996 156.392C118.996 161.052 132.793 164.829 149.812 164.829Z" fill="#36414C"/>
<path d="M154.337 251.038C154.341 251.051 154.345 251.063 154.349 251.076C154.346 251.063 154.342 251.05 154.337 251.038Z" fill="#36414C"/>
<path d="M128.312 147.662C128.215 147.328 128.109 146.958 127.994 146.562C128.097 146.916 128.203 147.283 128.312 147.662Z" fill="#9DA3B4"/>
<path d="M128.368 147.853C128.35 147.788 128.331 147.725 128.313 147.662C128.331 147.727 128.35 147.791 128.368 147.853Z" fill="#9DA3B4"/>
<path d="M127.944 146.389C127.807 145.916 127.661 145.41 127.51 144.889C127.647 145.36 127.791 145.861 127.944 146.389Z" fill="#9DA3B4"/>
<path d="M127.51 144.889C127.395 144.492 127.286 144.116 127.183 143.758C127.293 144.138 127.402 144.517 127.51 144.889Z" fill="#9DA3B4"/>
<path d="M127.994 146.562C127.977 146.504 127.96 146.446 127.944 146.389C127.961 146.447 127.978 146.505 127.994 146.562Z" fill="#9DA3B4"/>
<path d="M128.766 149.23C128.748 149.167 128.723 149.08 128.691 148.971C128.716 149.058 128.741 149.142 128.766 149.23Z" fill="#9DA3B4"/>
<path d="M128.552 148.491C128.526 148.401 128.498 148.306 128.473 148.217C128.501 148.313 128.527 148.405 128.552 148.491Z" fill="#9DA3B4"/>
<path d="M128.802 149.353C128.79 149.311 128.779 149.272 128.766 149.23C128.789 149.308 128.802 149.353 128.802 149.353Z" fill="#9DA3B4"/>
<path d="M128.574 148.565C128.567 148.541 128.56 148.517 128.553 148.491C128.559 148.515 128.567 148.54 128.574 148.565Z" fill="#9DA3B4"/>
<path d="M128.691 148.971C128.651 148.834 128.612 148.698 128.574 148.564C128.619 148.722 128.658 148.857 128.691 148.971Z" fill="#9DA3B4"/>
<path d="M128.473 148.217C128.44 148.103 128.405 147.982 128.368 147.854C128.403 147.975 128.437 148.092 128.473 148.217Z" fill="#9DA3B4"/>
<path d="M125.541 138.084C125.526 138.033 125.515 137.995 125.506 137.963C125.515 137.995 125.527 138.034 125.541 138.084Z" fill="#9DA3B4"/>
<path d="M125.755 138.824C125.661 138.499 125.588 138.246 125.541 138.084C125.585 138.236 125.656 138.48 125.755 138.824Z" fill="#9DA3B4"/>
<path d="M125.818 139.041C125.809 139.009 125.8 138.979 125.791 138.948C125.8 138.98 125.809 139.009 125.818 139.041Z" fill="#9DA3B4"/>
<path d="M127.18 143.748C127.012 143.169 126.859 142.639 126.719 142.156C126.87 142.676 127.025 143.213 127.18 143.748Z" fill="#9DA3B4"/>
<path d="M125.486 137.892C125.481 137.877 125.482 137.878 125.486 137.892V137.892Z" fill="#9DA3B4"/>
<path d="M125.506 137.963C125.497 137.93 125.489 137.906 125.485 137.893C125.489 137.904 125.496 137.928 125.506 137.963Z" fill="#9DA3B4"/>
<path d="M125.791 138.948C125.779 138.905 125.767 138.864 125.755 138.824C125.767 138.864 125.779 138.906 125.791 138.948Z" fill="#9DA3B4"/>
<path d="M126.716 142.146C126.662 141.96 126.611 141.783 126.561 141.611C126.613 141.787 126.664 141.964 126.716 142.146Z" fill="#9DA3B4"/>
<path d="M126.719 142.156C126.718 142.152 126.717 142.149 126.716 142.146C126.717 142.149 126.718 142.153 126.719 142.156Z" fill="#9DA3B4"/>
<path d="M125.846 139.139C125.837 139.107 125.827 139.072 125.818 139.041C125.828 139.074 125.837 139.106 125.846 139.139Z" fill="#9DA3B4"/>
<path d="M126.562 141.61C126.43 141.154 126.303 140.716 126.186 140.312C126.296 140.692 126.421 141.126 126.562 141.61Z" fill="#9DA3B4"/>
<path d="M126.186 140.312C126.122 140.091 126.063 139.886 126.008 139.697C126.064 139.892 126.123 140.097 126.186 140.312Z" fill="#9DA3B4"/>
<path d="M126.008 139.697C125.95 139.498 125.896 139.311 125.846 139.138C125.895 139.307 125.948 139.491 126.008 139.697Z" fill="#9DA3B4"/>
<path d="M131.354 135.927H126.25V142.66H131.354V135.927Z" fill="#B9BDCD"/>
<path d="M170.911 135.927H165.807V142.66H170.911V135.927Z" fill="#B9BDCD"/>
<path d="M156.061 142.66H144.928C144.479 142.66 144.114 142.296 144.114 141.846V134.541C144.114 134.091 144.478 133.727 144.928 133.727H156.061C156.511 133.727 156.875 134.092 156.875 134.541V141.846C156.875 142.296 156.51 142.66 156.061 142.66Z" fill="white"/>
<path d="M176.701 50.785H125.101C118.826 50.785 114.074 56.453 115.168 62.632L117.699 76.921C118.68 82.459 118.855 88.106 118.216 93.694C116.845 105.685 114.389 148.882 113.489 153.38C112.483 158.408 139.764 162.705 154.38 162.262C165.478 161.926 181.583 158.021 182.396 157.208C183.672 155.932 178.916 91.618 178.916 91.618L184.337 59.832C185.143 55.103 181.499 50.785 176.701 50.785Z" fill="#33475B"/>
<path d="M176.701 50.785H125.101C118.826 50.785 114.074 56.453 115.168 62.632L117.699 76.921C118.68 82.459 118.855 88.106 118.216 93.694C116.845 105.685 114.389 155.192 113.489 159.69C112.483 164.718 139.764 169.015 154.38 168.572C165.478 168.236 181.583 164.331 182.396 163.518C183.672 162.242 178.916 91.618 178.916 91.618L184.337 59.832C185.143 55.103 181.499 50.785 176.701 50.785Z" fill="#E5E8F1"/>
<path d="M179.581 162.217H127.18V171.128H179.581V162.217Z" fill="#B4C4DC"/>
<path d="M115.656 126.638C122.459 118.035 131.987 101.567 128.561 79.641C127.033 69.862 121.751 64.56 115.072 61.94C115.097 62.17 115.127 62.401 115.168 62.632L117.699 76.921C118.68 82.459 118.855 88.106 118.216 93.694C117.526 99.735 116.56 113.695 115.656 126.638Z" fill="#CDD6E4"/>
<path d="M159.027 50.959H143.02L144.766 30.584L159.027 34.196V50.959Z" fill="#FFAA7C"/>
<path d="M168.552 7.02701C168.552 7.02701 171.768 7.83101 171.291 10.46C171.19 11.019 171.131 11.614 171.102 12.204C170.954 15.229 169.504 18.077 167.121 20.17L168.552 7.02701Z" fill="#2C1C28"/>
<path d="M141.781 31.238C142.495 31.517 143.866 31.596 143.866 31.596C145.231 34.577 149.712 42.977 157.417 42.977C163.447 42.977 166.279 35.401 167.489 30.562C168.408 26.889 167.488 23.365 168.17 19.849L169.918 10.842L142.8 9.41101V24.672C142.8 24.672 141.194 23.461 140.253 24.872C139.312 26.283 140.017 30.55 141.781 31.238Z" fill="#FAB694"/>
<path d="M153.578 0C151.771 0.217 149.828 0.678998 147.76 1.448C143.769 2.932 142.364 5.67299 140.253 9.37099C138.113 13.119 141.172 24.39 141.294 24.382C143.202 24.259 144.847 25.706 144.97 27.614C144.985 27.848 144.975 28.078 144.945 28.302C145.584 27.09 146.221 25.5 146.13 24.072C145.952 21.309 145.775 18.546 145.775 18.546C145.775 18.546 150.779 15.45 149.905 9.95699C149.905 9.95699 163.036 14.883 167.435 12.377" fill="#2C1C28"/>
<path d="M142.506 25.973C142.506 25.973 143.866 28.239 142.959 29.599C142.052 30.959 141.599 28.692 142.052 28.239C142.505 27.786 142.505 28.239 141.599 27.786C140.693 27.333 142.506 25.973 142.506 25.973Z" fill="#FFAA7C"/>
<path d="M167.059 10.764C167.059 10.764 166.529 16.002 168.795 16.908L170.608 11.922L167.059 10.764Z" fill="#2C1C28"/>
<path d="M155.747 0.172008C157.862 0.313008 159.766 0.769004 161.764 1.387C163.699 1.986 165.795 1.99201 167.762 2.63401C169.629 3.24301 171.396 4.401 172.326 6.135C175.897 12.799 166.789 19.974 160.786 20.53C161.578 18.891 162.371 17.253 163.163 15.614C160.365 18.138 156.601 19.562 152.833 19.523C153.949 18.203 155.066 16.883 156.182 15.562C152.996 17.28 148.895 17.154 145.82 15.245C141.736 12.71 140.969 8.02101 144.128 4.30101C147.04 0.873005 151.396 -0.117992 155.747 0.172008Z" fill="#2C1C28"/>
<path d="M132.122 50.785C134.648 53.439 141.904 60.018 151.798 60.018C163.63 60.018 168.868 51.553 169.319 50.785H132.122Z" fill="white"/>
<path d="M142.605 50.785C143.779 53.142 147.151 58.986 151.749 58.986C157.248 58.986 159.682 51.467 159.892 50.785H142.605Z" fill="#FFAA7C"/>
<path d="M142.605 50.785C143.69 53.142 146.806 58.986 151.055 58.986C156.136 58.986 158.386 51.467 158.579 50.785H142.605Z" fill="#FFAA7C"/>
<path d="M113.911 172.247C114.352 171.665 129.574 164.872 129.574 164.872C129.574 164.872 133.103 175.332 128.853 178.525C124.602 181.718 116.576 180.22 116.576 180.22L113.911 172.247Z" fill="#81C0BE"/>
<path d="M118.99 163.727C118.99 163.727 120.666 164.538 122.201 164.326C123.736 164.114 126.646 166.319 126.788 167.342C126.929 168.365 129.099 172.757 128.076 172.898C127.053 173.039 125.236 171.205 125.024 169.67L122.931 167.873L118.166 170.077L118.99 163.727Z" fill="#FAB694"/>
<path d="M159.894 130.966L150.122 177.114C149.914 179.543 147.466 181.121 145.169 180.3C140.241 178.546 120.83 172.316 112.842 168.316C110.539 167.162 110.846 163.147 111.249 160.605L121.165 130.354L120.427 125.773L118.641 114.756L116.963 98.767L117.209 95.675L120.723 52.049L138.889 48.263L159.894 130.966Z" fill="#33475B"/>
<path d="M120.427 125.773L118.641 114.756L116.963 98.767L117.209 95.675C122.667 90.059 126.719 77.703 126.719 77.703C126.719 77.703 130.851 115.495 120.427 125.773Z" fill="#36414C"/>
<path d="M118.721 53.264C113.471 58.478 102.862 71.564 94.479 94.616C92.518 100.009 91.371 105.635 90.708 110.057C89.988 114.859 92.666 119.525 97.163 121.357C101.246 123.02 105.94 121.975 108.913 118.719C118.06 108.702 127.51 77.704 131.142 70.347C135.005 62.522 126.795 57.09 125.306 54.278C124.004 51.816 120.697 51.302 118.721 53.264Z" fill="#33475B"/>
<path d="M92.848 120.178L122.841 170.037L124.357 158.359C124.357 158.359 111.281 113.979 108.403 111.8C105.751 109.791 90.865 109.534 91.629 117.156C91.74 118.254 92.194 119.289 92.848 120.178Z" fill="#FAB694"/>
<path d="M124.357 156.392C124.357 156.392 135.315 157.226 137.387 159.74C139.459 162.254 143.548 167.856 142.346 168.319C141.144 168.782 136.223 162.81 135.076 162.7C133.929 162.59 134.82 171.355 136.171 172.353C137.521 173.351 146.362 177.675 145.364 179.026C144.366 180.376 135.469 176.626 135.469 176.626C135.469 176.626 145.049 179.285 144.051 180.636C143.053 181.986 133.676 180.214 131.919 177.441C131.919 177.441 141.13 180.933 139.558 182.228C137.987 183.523 129.035 180.346 124.224 173.228C119.413 166.11 118.8 163.025 118.8 163.025" fill="#FAB694"/>
<path d="M110.308 155.021L115.32 162.569L125.142 156.392L120.478 148.035L110.308 155.021Z" fill="#E5E8F1"/>
<path d="M110.921 158.795C110.921 158.795 121.775 155.162 123.33 150.795L111.249 110.597C111.249 110.597 94.319 107.299 90.592 112.526L91.63 117.156L110.921 158.795Z" fill="#33475B"/>
<path d="M163.342 50.154L156.875 134.542C156.875 134.542 156.327 160.33 162.21 176.244C163.069 178.567 167.468 181.465 169.778 180.571C174.751 178.648 181.861 174.365 183.279 170.542L181.386 112.095L186.126 61.941L182.764 54.593C181.688 52.24 179.43 50.648 176.852 50.423L163.342 50.154Z" fill="#33475B"/>
<path d="M139.572 50.785L141.686 47.778H143.29L151.749 58.986L145.661 63.73L139.572 50.785Z" fill="#CDD6E4"/>
<path d="M151.749 58.986L159.219 48.265L161.319 48.909L163.342 50.785L159.451 63.609L151.749 58.986Z" fill="#CDD6E4"/>
<path d="M211.093 73.831C212.379 69.502 216.038 66.148 219.159 63.081C220.99 61.281 227.304 55.94 224.262 52.833C223.693 52.252 222.634 52.147 222.086 52.748C223.781 50.882 223.507 48.979 220.713 49.848C218.963 50.392 217.421 51.876 216.218 53.11C215.396 53.953 210.642 57.783 211.168 58.979C210.846 58.247 210.963 57.527 211.143 56.759C211.323 55.993 211.512 55.163 211.194 54.443C210.25 52.3 209.067 54.547 208.755 55.534C208.255 57.117 207.854 58.72 207.457 60.332C206.506 64.187 205.618 68.076 204.219 71.799C202.99 75.069 200.441 78.275 198.732 81.32C193.483 90.677 188.118 100.23 184.371 110.312C179.124 124.432 189.112 131.651 194.901 127.505C203.02 121.692 210.52 75.76 211.093 73.831Z" fill="#FAB694"/>
<path d="M199.028 78.858L202.969 69.781L212.764 74.283L207.96 86.244L199.028 78.858Z" fill="#E5E8F1"/>
<path d="M182.871 124.539C182.871 124.539 179.671 113.327 181.691 109.594C183.712 105.861 199.665 72.756 199.665 72.756L211.775 81.269C211.775 81.269 203.973 124.696 198.259 128.241C192.546 131.785 185.413 128.011 184.141 126.276" fill="#33475B"/>
<path d="M168.223 26.917L148.955 26.194L148.916 26.386C146.492 25.55 144.069 24.714 141.645 23.878C141.071 23.68 140.825 24.589 141.395 24.785C143.839 25.628 146.284 26.471 148.728 27.314L146.835 36.656C154.56 44.794 158.327 44.853 163.341 40.771C168.356 36.691 168.223 26.917 168.223 26.917Z" fill="white"/>
<path d="M421.868 128.419H11.666V343.22H421.868V128.419Z" fill="#FFD696"/>
<path d="M91.601 128.419H11.666V343.22H91.601V128.419Z" fill="#FBD8A1"/>
<path d="M163.475 113.605H82.126L84.831 130.672H166.179L163.475 113.605Z" fill="#E16645"/>
<path d="M84.831 130.672H78.174L82.126 113.605L84.831 130.672Z" fill="white"/>
<path d="M100.936 125.298V118.874H103.68C104.573 118.874 105.268 119.082 105.763 119.498C106.259 119.908 106.507 120.477 106.507 121.205C106.507 121.682 106.393 122.095 106.167 122.444C105.941 122.787 105.619 123.05 105.203 123.233C104.787 123.417 104.292 123.509 103.717 123.509H101.762L102.423 122.857V125.298H100.936ZM105.02 125.298L103.414 122.967H105.001L106.626 125.298H105.02ZM102.423 123.022L101.762 122.325H103.634C104.093 122.325 104.435 122.227 104.662 122.031C104.888 121.829 105.001 121.554 105.001 121.205C105.001 120.85 104.888 120.575 104.662 120.379C104.435 120.183 104.093 120.085 103.634 120.085H101.762L102.423 119.379V123.022ZM107.685 125.298V118.874H112.539V120.067H109.162V124.105H112.659V125.298H107.685ZM109.052 122.618V121.462H112.145V122.618H109.052ZM116.916 125.408C116.421 125.408 115.959 125.329 115.53 125.17C115.108 125.005 114.741 124.772 114.429 124.472C114.117 124.173 113.872 123.821 113.695 123.417C113.524 123.013 113.438 122.57 113.438 122.086C113.438 121.603 113.524 121.159 113.695 120.755C113.872 120.352 114.117 120 114.429 119.7C114.747 119.4 115.117 119.171 115.54 119.012C115.962 118.846 116.424 118.764 116.925 118.764C117.482 118.764 117.984 118.862 118.431 119.058C118.883 119.247 119.263 119.529 119.569 119.902L118.614 120.783C118.394 120.532 118.149 120.345 117.88 120.223C117.611 120.095 117.317 120.03 116.999 120.03C116.699 120.03 116.424 120.079 116.173 120.177C115.922 120.275 115.705 120.416 115.521 120.599C115.338 120.783 115.194 121 115.09 121.251C114.992 121.502 114.943 121.78 114.943 122.086C114.943 122.392 114.992 122.67 115.09 122.921C115.194 123.172 115.338 123.389 115.521 123.573C115.705 123.757 115.922 123.897 116.173 123.995C116.424 124.093 116.699 124.142 116.999 124.142C117.317 124.142 117.611 124.081 117.88 123.958C118.149 123.83 118.394 123.637 118.614 123.38L119.569 124.261C119.263 124.634 118.883 124.919 118.431 125.115C117.984 125.311 117.479 125.408 116.916 125.408ZM120.483 125.298V118.874H125.338V120.067H121.961V124.105H125.457V125.298H120.483ZM121.85 122.618V121.462H124.943V122.618H121.85ZM126.64 125.298V118.874H129.421C129.996 118.874 130.492 118.969 130.908 119.159C131.324 119.342 131.645 119.608 131.871 119.957C132.098 120.306 132.211 120.722 132.211 121.205C132.211 121.682 132.098 122.095 131.871 122.444C131.645 122.793 131.324 123.062 130.908 123.252C130.492 123.435 129.996 123.527 129.421 123.527H127.466L128.127 122.857V125.298H126.64ZM128.127 123.022L127.466 122.316H129.338C129.797 122.316 130.14 122.218 130.366 122.022C130.593 121.826 130.706 121.554 130.706 121.205C130.706 120.85 130.593 120.575 130.366 120.379C130.14 120.183 129.797 120.085 129.338 120.085H127.466L128.127 119.379V123.022ZM134.334 125.298V120.085H132.279V118.874H137.877V120.085H135.821V125.298H134.334ZM138.677 125.298V118.874H140.164V125.298H138.677ZM144.809 125.408C144.301 125.408 143.83 125.326 143.395 125.161C142.967 124.995 142.594 124.763 142.276 124.463C141.964 124.163 141.719 123.812 141.541 123.408C141.37 123.004 141.284 122.563 141.284 122.086C141.284 121.609 141.37 121.168 141.541 120.765C141.719 120.361 141.967 120.009 142.285 119.709C142.603 119.409 142.976 119.177 143.404 119.012C143.833 118.846 144.298 118.764 144.799 118.764C145.307 118.764 145.772 118.846 146.194 119.012C146.623 119.177 146.993 119.409 147.305 119.709C147.623 120.009 147.871 120.361 148.048 120.765C148.226 121.162 148.314 121.603 148.314 122.086C148.314 122.563 148.226 123.007 148.048 123.417C147.871 123.821 147.623 124.173 147.305 124.472C146.993 124.766 146.623 124.995 146.194 125.161C145.772 125.326 145.31 125.408 144.809 125.408ZM144.799 124.142C145.087 124.142 145.35 124.093 145.589 123.995C145.833 123.897 146.048 123.757 146.231 123.573C146.415 123.389 146.555 123.172 146.653 122.921C146.757 122.67 146.809 122.392 146.809 122.086C146.809 121.78 146.757 121.502 146.653 121.251C146.555 121 146.415 120.783 146.231 120.599C146.054 120.416 145.843 120.275 145.598 120.177C145.353 120.079 145.087 120.03 144.799 120.03C144.512 120.03 144.246 120.079 144.001 120.177C143.762 120.275 143.551 120.416 143.368 120.599C143.184 120.783 143.04 121 142.936 121.251C142.838 121.502 142.79 121.78 142.79 122.086C142.79 122.386 142.838 122.664 142.936 122.921C143.04 123.172 143.181 123.389 143.359 123.573C143.542 123.757 143.756 123.897 144.001 123.995C144.246 124.093 144.512 124.142 144.799 124.142ZM149.432 125.298V118.874H150.662L154.452 123.5H153.855V118.874H155.324V125.298H154.103L150.304 120.673H150.9V125.298H149.432Z" fill="white"/>
<path d="M433.534 128.419H0V149.354H433.534V128.419Z" fill="#C77545"/>
<path d="M106.961 128.419H0V149.354H106.961V128.419Z" fill="#C77545"/>
<path d="M237.124 113.568H310.609C313.546 113.568 316.067 111.479 316.613 108.594L324.872 64.957C325.584 61.194 322.698 57.71 318.868 57.71H245.383C242.447 57.71 239.925 59.799 239.379 62.684L231.12 106.322C230.408 110.085 233.294 113.568 237.124 113.568Z" fill="#687888"/>
<path d="M294.495 128.419L287.967 85.639H268.381L258.781 128.419H294.495Z" fill="#45515E"/>
<path d="M317.423 29.451C317.423 29.451 315.323 36.452 315.323 37.852C315.323 38.842 318.123 38.552 318.123 38.552L317.423 29.451Z" fill="#FAB694"/>
<path d="M328.34 52.334H341.75L340.961 31.43L333.354 32.197L335.79 35.638C334.506 34.747 326.989 45.581 328.274 46.473L328.34 52.334Z" fill="#FAB694"/>
<path d="M341.782 17.871C336.235 15.86 331.176 18.097 325.796 19.552C324.27 19.965 323.098 20.81 322.008 21.962C321.262 22.75 320.23 25.612 319.511 26.002C317.401 27.148 314.59 26.38 312.977 24.602C309.946 21.26 311.396 16.443 313.91 13.216C315.808 10.779 318.467 9.00799 321.318 7.81799C327.064 5.41999 333.067 5.97398 339.069 6.70698C344.372 7.35398 348.892 13.351 350.537 18.04C350.656 18.379 350.761 18.77 350.584 19.081C350.312 19.558 349.619 19.506 349.083 19.389C346.704 18.875 344.035 18.716 341.782 17.871Z" fill="black"/>
<path d="M343.697 54.279L328.341 52.332L328.282 47.422C327.739 47.576 327.161 47.658 326.523 47.658C326.405 47.658 326.275 47.646 326.145 47.634C325.992 47.622 325.838 47.599 325.673 47.551C325.567 47.539 325.472 47.504 325.366 47.48C325.224 47.433 325.095 47.386 324.953 47.338C321.518 46.099 317.305 41.212 316.903 36.42C316.903 36.42 316.927 33.623 317.127 32.678C317.41 31.332 316.726 29.928 316.442 28.488L315.061 21.383L334.938 13.404L336.449 31.888L340.958 31.428L341.56 36.421L343.697 54.279Z" fill="#FAB694"/>
<path d="M316.188 32.679L326.4 31.43L328.274 46.473C328.274 46.473 324.958 48.254 321.595 46.473C318.232 44.692 315.323 37.852 315.323 37.852L316.188 32.679Z" fill="white"/>
<path d="M335.79 35.638C336.344 35.393 337.124 34.738 337.844 33.031C338.194 32.201 338.142 31.224 337.836 30.284L336.205 30.109L335.79 35.638Z" fill="#FAB694"/>
<path d="M343.697 54.279L328.341 52.332L328.282 47.422C327.739 47.576 327.161 47.658 326.523 47.658C326.405 47.658 326.275 47.646 326.145 47.634C325.992 47.622 325.838 47.599 325.673 47.551C325.567 47.539 325.472 47.504 325.366 47.48C325.224 47.433 325.095 47.386 324.953 47.338C324.398 47.137 323.832 46.83 323.265 46.465C327.349 46.642 329.367 42.877 331.563 39.631C333.605 36.633 335.788 34.083 339.896 35.582C340.486 35.795 341.041 36.078 341.56 36.42L343.697 54.279Z" fill="#FAB694"/>
<path d="M365.624 76.784C366.736 84.742 367.541 93.809 366.729 101.828C366.43 104.778 363.307 133.776 364.165 133.768C352.382 133.869 340.598 133.97 328.815 134.071C326.802 122.576 324.494 109.788 318.098 99.773C314.08 93.482 314.258 86.175 314.282 78.704C314.306 71.179 313.3 67.592 318.448 61.795C322.247 57.517 327.064 52.532 332.975 51.546C338.267 50.664 344.093 52.305 349.334 52.87C347.929 60.096 360.633 58.914 363.271 66.512C364.371 69.681 365.117 73.158 365.624 76.784Z" fill="#FCC670"/>
<path d="M290.121 330.111C288.872 333.181 287.265 335.988 284.99 338.195C281.984 341.113 278.268 343.305 274.245 344.48C272.837 344.892 270.994 345.846 271.477 347.231C271.822 348.22 273.119 348.404 274.166 348.42C278.733 348.489 283.3 348.558 287.868 348.627C289.999 348.659 292.287 348.646 294.038 347.431C295.683 346.289 296.644 344.21 298.517 343.501C299.762 343.029 301.151 343.273 302.454 343.551C303.756 343.829 305.118 344.134 306.399 343.771C309.939 342.001 308.497 335.996 307.458 333.011C306.841 331.239 305.891 313.439 307.692 313.439C303.439 313.554 299.185 313.67 294.932 313.785C293.342 318.879 292.251 324.877 290.121 330.111Z" fill="#B65622"/>
<path d="M301.76 341.282C302.029 343 302.299 344.718 302.568 346.436C302.667 347.07 302.779 347.734 303.166 348.246C304.034 349.394 305.77 349.252 307.186 348.994C307.466 346.682 307.745 344.37 308.025 342.058L301.76 341.282Z" fill="#B65622"/>
<path d="M346.001 330.111C344.752 333.181 343.145 335.988 340.87 338.195C337.864 341.113 334.148 343.305 330.125 344.48C328.717 344.892 326.874 345.846 327.357 347.231C327.702 348.22 328.999 348.404 330.046 348.42C334.613 348.489 339.18 348.558 343.748 348.627C345.879 348.659 348.167 348.646 349.918 347.431C351.563 346.289 352.524 344.21 354.397 343.501C355.642 343.029 357.031 343.273 358.334 343.551C359.636 343.829 360.998 344.134 362.279 343.771C365.819 342.001 364.377 335.996 363.338 333.011C362.721 331.239 361.771 313.439 363.572 313.439C359.319 313.554 355.065 313.67 350.812 313.785C349.222 318.879 348.131 324.877 346.001 330.111Z" fill="#B65622"/>
<path d="M357.64 341.282C357.909 343 358.179 344.718 358.448 346.436C358.547 347.07 358.659 347.734 359.046 348.246C359.914 349.394 361.65 349.252 363.066 348.994C363.346 346.682 363.625 344.37 363.905 342.058L357.64 341.282Z" fill="#B65622"/>
<path d="M364.071 132.256H328.837C310.973 177.91 304.954 229.286 298.91 277.638C297.784 286.644 293.281 314.789 293.281 314.789H306.791C306.791 314.789 320.3 272.009 322.552 258.499C324.803 244.989 327.055 235.983 329.307 228.103C331.558 220.222 346.851 182.917 346.851 182.917C345.252 186.817 347.345 196.272 347.464 200.833C347.645 207.781 347.764 214.731 347.841 221.681C347.994 235.58 347.973 249.481 347.93 263.381C347.878 280.151 349.813 296.863 350.697 313.663H364.207C364.207 279.897 368.511 246.533 371.926 212.952C373.003 202.358 375.575 192.234 375.364 181.407C375.192 172.6 373.755 163.926 372.135 155.288C368.757 137.276 364.071 132.256 364.071 132.256Z" fill="#87B4DF"/>
<path d="M288.411 66.15C289.205 67.208 289.938 68.313 290.612 69.457C292.215 72.178 292.129 75.156 293.433 77.966C294.706 80.709 295.949 83.465 297.161 86.236C300.258 93.316 303.22 100.488 305.603 107.843C306.874 111.766 310.432 120.139 307.75 124.142C303.003 131.227 292.692 126.93 291.615 115.258C290.893 107.43 289.367 99.645 287.955 91.919C287.229 87.947 286.478 83.981 285.71 80.017C285.418 78.512 285.099 77.011 284.827 75.503C284.352 72.875 283.051 72.371 280.827 70.878C279.545 70.017 278.24 69.134 277.295 67.913C275.502 65.596 274.69 62.683 273.94 59.913C273.842 59.55 273.742 59.175 273.793 58.802C273.843 58.429 274.082 58.055 274.448 57.966C274.999 57.831 275.47 58.356 275.794 58.821C278.212 62.286 281.077 65.827 285.287 66.966C284.652 65.568 283.831 64.223 283.094 62.869C282.822 62.37 282.594 61.649 283.056 61.32C283.484 61.014 284.061 61.379 284.447 61.736C285.902 63.088 287.224 64.567 288.411 66.15Z" fill="#FAB694"/>
<path d="M303.78 127.676C313.696 129.122 314.484 113.958 316.642 106.841C318.678 100.126 320.807 93.348 322.393 86.509C323.166 83.177 323.398 80.269 323.555 76.853C323.632 75.158 321.959 59.583 321.917 59.622C316.458 64.729 309.192 69.212 305.145 75.416C299.774 83.649 298.138 93.88 295.861 103.265C293.98 111.017 290.527 122.57 300.635 126.768C301.776 127.24 302.821 127.536 303.78 127.676Z" fill="#FCC670"/>
<path d="M353.872 25.283C353.437 23.85 352.917 22.448 352.219 21.112C349.74 16.37 345.668 14.476 340.995 12.531C336.768 10.771 331.949 10.382 327.526 11.614C324.733 12.392 321.944 13.937 320.684 16.549C318.215 21.67 323.755 25.614 327.199 28.212C326.956 27.285 327.757 26.297 328.705 26.158C329.653 26.019 330.607 26.586 331.136 27.385C331.665 28.184 331.828 29.174 331.832 30.132C331.836 31.064 331.685 32.035 331.143 32.793C330.595 33.559 329.683 33.933 328.76 33.777C329.839 42.07 325.209 50.496 327.221 58.954C329.886 70.157 339.585 79.355 350.913 81.425C356.35 82.418 362.198 81.817 366.969 79.027C371.74 76.236 375.251 71.088 375.372 65.563C375.493 60.017 372.368 54.916 368.759 50.704C365.15 46.492 360.918 42.75 358.056 37.998C355.721 34.12 355.172 29.565 353.872 25.283Z" fill="black"/>
<path d="M326.648 26.786L324.972 32.072C324.789 32.65 325.697 32.898 325.879 32.322C326.438 30.56 326.997 28.798 327.555 27.036C327.739 26.458 326.831 26.21 326.648 26.786Z" fill="white"/>
<path d="M430.939 348.635C435.271 348.635 438.783 344.696 438.783 339.836C438.783 334.976 435.271 331.037 430.939 331.037C426.607 331.037 423.095 334.976 423.095 339.836C423.095 344.696 426.607 348.635 430.939 348.635Z" fill="#3537A6"/>
<path d="M430.939 331.037H425.569V348.635H430.939V331.037Z" fill="#3537A6"/>
<path d="M425.569 348.635C429.901 348.635 433.413 344.696 433.413 339.836C433.413 334.976 429.901 331.037 425.569 331.037C421.237 331.037 417.725 334.976 417.725 339.836C417.725 344.696 421.237 348.635 425.569 348.635Z" fill="#5C5DC7"/>
<path d="M480.384 348.635C484.716 348.635 488.228 344.696 488.228 339.836C488.228 334.976 484.716 331.037 480.384 331.037C476.052 331.037 472.54 334.976 472.54 339.836C472.54 344.696 476.052 348.635 480.384 348.635Z" fill="#3537A6"/>
<path d="M480.384 331.037H475.014V348.635H480.384V331.037Z" fill="#3537A6"/>
<path d="M475.014 348.635C479.346 348.635 482.858 344.696 482.858 339.836C482.858 334.976 479.346 331.037 475.014 331.037C470.682 331.037 467.17 334.976 467.17 339.836C467.17 344.696 470.682 348.635 475.014 348.635Z" fill="#5C5DC7"/>
<path d="M467.129 250.053H436.061C430.224 250.053 425.491 245.321 425.491 239.483V216.422C425.491 210.585 430.223 205.852 436.061 205.852H467.129C472.966 205.852 477.699 210.584 477.699 216.422V239.483C477.699 245.321 472.967 250.053 467.129 250.053Z" stroke="#3537A6" stroke-width="3" stroke-miterlimit="10"/>
<path d="M499.593 236.689V322.485C499.593 329.447 493.938 335.092 486.976 335.092H416.215C409.253 335.092 403.598 329.447 403.598 322.485V236.689C403.598 229.727 409.253 224.082 416.215 224.082H486.976C493.938 224.082 499.593 229.727 499.593 236.689Z" fill="#81C0BE"/>
<path d="M432.811 236.689V322.485C432.811 329.447 427.166 335.092 420.204 335.092H416.215C409.253 335.092 403.598 329.447 403.598 322.485V236.689C403.598 229.727 409.253 224.082 416.215 224.082H420.204C427.166 224.082 432.811 229.727 432.811 236.689Z" fill="#92D9D6"/>
<path d="M463.246 210.418H439.945C437.424 210.418 435.381 208.375 435.381 205.854C435.381 203.333 437.424 201.29 439.945 201.29H463.246C465.767 201.29 467.81 203.333 467.81 205.854C467.81 208.374 465.766 210.418 463.246 210.418Z" fill="#81C0BE"/>
<path d="M484.265 261.424H448.713V268.47H484.265V261.424Z" fill="white"/>
<path d="M179.581 99.943V93.097H185.146L187.234 95.138" stroke="#B4C4DC" stroke-width="2" stroke-miterlimit="10"/>
<path d="M185.512 98.949H175.531V123.855H185.512V98.949Z" fill="#FFBC52"/>
<path d="M187.234 103.513H171.927V128.419H187.234V103.513Z" fill="#FCC670"/>
<path d="M187.234 107.999H177.219V123.484H187.234V107.999Z" fill="white"/>
</svg>
