<svg width="55" height="55" viewBox="0 0 55 55" fill="none" xmlns="http://www.w3.org/2000/svg">
<path fill-rule="evenodd" clip-rule="evenodd" d="M52.7084 16.0415C52.7084 17.8472 52.3527 19.6352 51.6617 21.3034C50.9707 22.9716 49.9579 24.4874 48.6811 25.7642C47.4043 27.041 45.8885 28.0538 44.2203 28.7449C42.552 29.4359 40.764 29.7915 38.9584 29.7915C37.1527 29.7915 35.3647 29.4359 33.6965 28.7449C32.0282 28.0538 30.5124 27.041 29.2356 25.7642C27.9588 24.4874 26.946 22.9716 26.255 21.3034C25.564 19.6352 25.2084 17.8472 25.2084 16.0415C25.2084 12.3948 26.657 8.89741 29.2356 6.31879C31.8143 3.74016 35.3116 2.2915 38.9584 2.2915C42.6051 2.2915 46.1025 3.74016 48.6811 6.31879C51.2597 8.89741 52.7084 12.3948 52.7084 16.0415ZM37.2396 16.0415V8.02067H40.6771V14.3228H45.8334V17.7603H37.2396V16.0415ZM14.009 31.4186C12.5733 31.1652 11.0996 31.2294 9.69136 31.6066C8.28315 31.9838 6.97465 32.6649 5.85784 33.6019C4.74102 34.539 3.84301 35.7093 3.22691 37.0305C2.61081 38.3518 2.29159 39.792 2.29169 41.2498V52.7082H24.3009L48.125 47.6894V45.8332C48.125 44.3137 47.5214 42.8565 46.447 41.782C45.3726 40.7076 43.9153 40.104 42.3959 40.104H40.6542C40.1241 40.104 39.6015 40.159 39.0867 40.269L26.3542 42.9961V42.9686H16.0417V39.5311H26.3542V33.598L14.009 31.4186Z" fill="#ED5C18"/>
</svg>
