<svg width="55" height="55" viewBox="0 0 55 55" fill="none" xmlns="http://www.w3.org/2000/svg">
<path fill-rule="evenodd" clip-rule="evenodd" d="M27.4998 8.59375C25.2762 8.59375 23.1275 8.90225 21.0927 9.47776C20.1793 9.73612 19.2294 9.20508 18.971 8.29166C18.7127 7.37827 19.2437 6.42838 20.1571 6.17004C22.4933 5.50928 24.9567 5.15625 27.4998 5.15625C30.0431 5.15625 32.5064 5.50928 34.8427 6.17004C35.756 6.42838 36.2872 7.37827 36.0287 8.29166C35.7704 9.20508 34.8205 9.73612 33.907 9.47776C31.8723 8.90225 29.7236 8.59375 27.4998 8.59375ZM27.5 50.4167C16.742 50.4167 8.02084 41.6955 8.02084 30.9375C8.02084 20.1795 16.742 11.4583 27.5 11.4583C38.258 11.4583 46.9792 20.1795 46.9792 30.9375C46.9792 32.9315 46.6796 34.8553 46.123 36.6667H41.25C36.1875 36.6667 32.0833 40.7708 32.0833 45.8333V49.8745C30.6135 50.229 29.0787 50.4167 27.5 50.4167ZM27.5 18.9062C28.4492 18.9062 29.2188 19.6758 29.2188 20.625V29.1058C30.2463 29.7 30.9375 30.811 30.9375 32.0833C30.9375 33.9818 29.3984 35.5208 27.5 35.5208C25.6016 35.5208 24.0625 33.9818 24.0625 32.0833C24.0625 30.811 24.7537 29.7 25.7813 29.1058V20.625C25.7813 19.6758 26.5508 18.9062 27.5 18.9062ZM47.19 42.3053C47.7728 41.5559 47.6378 40.4761 46.8887 39.8933C46.1393 39.3106 45.0594 39.4455 44.4767 40.1949L40.6411 45.1261C40.4369 45.3888 40.0528 45.4229 39.8056 45.2004L37.8164 43.4101C37.1108 42.7751 36.0241 42.8322 35.3891 43.5378C34.754 44.2434 34.8113 45.3301 35.5169 45.9651L37.5061 47.7554C39.2365 49.3128 41.9251 49.0744 43.3547 47.2368L47.19 42.3053Z" fill="#ED5C18"/>
</svg>
