<svg width="55" height="55" viewBox="0 0 55 55" fill="none" xmlns="http://www.w3.org/2000/svg">
<path d="M27.5 35.521C25.3727 35.521 23.3326 34.6759 21.8284 33.1718C20.3242 31.6676 19.4792 29.6274 19.4792 27.5002C19.4792 25.3729 20.3242 23.3328 21.8284 21.8286C23.3326 20.3244 25.3727 19.4793 27.5 19.4793C29.6273 19.4793 31.6674 20.3244 33.1716 21.8286C34.6758 23.3328 35.5208 25.3729 35.5208 27.5002C35.5208 29.6274 34.6758 31.6676 33.1716 33.1718C31.6674 34.6759 29.6273 35.521 27.5 35.521ZM44.5271 29.7231C44.6188 28.9897 44.6875 28.2564 44.6875 27.5002C44.6875 26.7439 44.6188 25.9877 44.5271 25.2085L49.3625 21.4731C49.7979 21.1293 49.9125 20.5106 49.6375 20.0064L45.0542 12.0772C44.7792 11.5731 44.1604 11.3668 43.6562 11.5731L37.95 13.8648C36.7583 12.971 35.5208 12.1918 34.0771 11.6189L33.2292 5.546C33.1826 5.27608 33.042 5.03135 32.8323 4.85518C32.6226 4.67901 32.3572 4.58276 32.0833 4.5835H22.9167C22.3437 4.5835 21.8625 4.996 21.7708 5.546L20.9229 11.6189C19.4792 12.1918 18.2417 12.971 17.05 13.8648L11.3437 11.5731C10.8396 11.3668 10.2208 11.5731 9.94583 12.0772L5.3625 20.0064C5.06458 20.5106 5.20208 21.1293 5.6375 21.4731L10.4729 25.2085C10.3812 25.9877 10.3125 26.7439 10.3125 27.5002C10.3125 28.2564 10.3812 28.9897 10.4729 29.7231L5.6375 33.5272C5.20208 33.871 5.06458 34.4897 5.3625 34.9939L9.94583 42.9231C10.2208 43.4272 10.8396 43.6106 11.3437 43.4272L17.05 41.1127C18.2417 42.0293 19.4792 42.8085 20.9229 43.3814L21.7708 49.4543C21.8625 50.0043 22.3437 50.4168 22.9167 50.4168H32.0833C32.6562 50.4168 33.1375 50.0043 33.2292 49.4543L34.0771 43.3814C35.5208 42.7856 36.7583 42.0293 37.95 41.1127L43.6562 43.4272C44.1604 43.6106 44.7792 43.4272 45.0542 42.9231L49.6375 34.9939C49.9125 34.4897 49.7979 33.871 49.3625 33.5272L44.5271 29.7231Z" fill="#ED5C18"/>
</svg>
