<svg width="55" height="55" viewBox="0 0 55 55" fill="none" xmlns="http://www.w3.org/2000/svg">
<path d="M16.0417 4.5835C14.2183 4.5835 12.4696 5.30782 11.1803 6.59714C9.89102 7.88645 9.16669 9.63513 9.16669 11.4585V43.5418C9.16669 45.3652 9.89102 47.1139 11.1803 48.4032C12.4696 49.6925 14.2183 50.4168 16.0417 50.4168H38.9584C40.7817 50.4168 42.5304 49.6925 43.8197 48.4032C45.109 47.1139 45.8334 45.3652 45.8334 43.5418V11.4585C45.8334 9.63513 45.109 7.88645 43.8197 6.59714C42.5304 5.30782 40.7817 4.5835 38.9584 4.5835H16.0417ZM25.2084 9.16683H29.7917C30.3995 9.16683 30.9824 9.40827 31.4121 9.83804C31.8419 10.2678 32.0834 10.8507 32.0834 11.4585C32.0834 12.0663 31.8419 12.6492 31.4121 13.0789C30.9824 13.5087 30.3995 13.7502 29.7917 13.7502H25.2084C24.6006 13.7502 24.0177 13.5087 23.5879 13.0789C23.1581 12.6492 22.9167 12.0663 22.9167 11.4585C22.9167 10.8507 23.1581 10.2678 23.5879 9.83804C24.0177 9.40827 24.6006 9.16683 25.2084 9.16683ZM32.0834 22.9168C32.0834 24.1324 31.6005 25.2982 30.7409 26.1577C29.8814 27.0173 28.7156 27.5002 27.5 27.5002C26.2844 27.5002 25.1187 27.0173 24.2591 26.1577C23.3996 25.2982 22.9167 24.1324 22.9167 22.9168C22.9167 21.7013 23.3996 20.5355 24.2591 19.6759C25.1187 18.8164 26.2844 18.3335 27.5 18.3335C28.7156 18.3335 29.8814 18.8164 30.7409 19.6759C31.6005 20.5355 32.0834 21.7013 32.0834 22.9168ZM18.3334 34.3752C18.3334 33.7674 18.5748 33.1845 19.0046 32.7547C19.4343 32.3249 20.0172 32.0835 20.625 32.0835H34.375C34.9828 32.0835 35.5657 32.3249 35.9955 32.7547C36.4252 33.1845 36.6667 33.7674 36.6667 34.3752C36.6667 38.9585 32.0834 41.2502 27.5 41.2502C22.9167 41.2502 18.3334 38.9585 18.3334 34.3752Z" fill="#ED5C18"/>
</svg>
