<svg width="55" height="55" viewBox="0 0 55 55" fill="none" xmlns="http://www.w3.org/2000/svg">
<path fill-rule="evenodd" clip-rule="evenodd" d="M37.6689 3.78413C38.0423 3.40962 38.5186 3.15455 39.0373 3.05132C39.556 2.94808 40.0936 3.00135 40.582 3.20436L48.1475 6.34152C48.7999 6.61092 49.319 7.12791 49.591 7.77926C49.863 8.43061 49.8657 9.16321 49.5987 9.81659L46.5077 17.3821C46.308 17.8706 45.9679 18.2889 45.5304 18.5841C45.0929 18.8793 44.5777 19.0381 44.05 19.0404C43.5222 19.0426 43.0056 18.8883 42.5656 18.5969C42.1255 18.3056 41.7818 17.8902 41.5779 17.4034L40.3579 14.4868L9.63358 27.6152C9.31128 27.753 8.965 27.826 8.61451 27.8299C8.26401 27.8339 7.91617 27.7688 7.59084 27.6383C7.26551 27.5079 6.96905 27.3146 6.71841 27.0696C6.46777 26.8245 6.26785 26.5325 6.13005 26.2102C5.99226 25.888 5.9193 25.5417 5.91533 25.1912C5.91136 24.8407 5.97647 24.4928 6.10693 24.1675C6.2374 23.8422 6.43066 23.5457 6.67569 23.2951C6.92072 23.0444 7.21272 22.8445 7.53502 22.7067L38.2949 9.56406L37.0998 6.70077C36.8947 6.21298 36.8393 5.67522 36.9406 5.15587C37.042 4.63651 37.2955 4.15902 37.6689 3.78413ZM47.461 22.4933C48.4043 22.4933 49.309 22.8681 49.9761 23.5351C50.6431 24.2021 51.0179 25.1068 51.0179 26.0502V50.9483C51.0179 51.42 50.8305 51.8724 50.497 52.2059C50.1634 52.5394 49.7111 52.7268 49.2394 52.7268H40.3472C39.8756 52.7268 39.4232 52.5394 39.0897 52.2059C38.7562 51.8724 38.5688 51.42 38.5688 50.9483V26.0502C38.5688 25.1068 38.9435 24.2021 39.6106 23.5351C40.2776 22.8681 41.1823 22.4933 42.1257 22.4933H47.461ZM32.1913 28.8672C31.5238 28.2014 30.6193 27.8279 29.6766 27.8286H24.3413C23.3979 27.8286 22.4932 28.2034 21.8262 28.8704C21.1591 29.5375 20.7844 30.4422 20.7844 31.3855V50.9483C20.7844 51.42 20.9718 51.8724 21.3053 52.2059C21.6388 52.5394 22.0912 52.7268 22.5628 52.7268H31.455C31.9267 52.7268 32.3791 52.5394 32.7126 52.2059C33.0461 51.8724 33.2335 51.42 33.2335 50.9483V31.3855C33.2338 30.9178 33.142 30.4547 32.9632 30.0226C32.7843 29.5905 32.522 29.1979 32.1913 28.8672ZM11.8922 33.1639C12.8355 33.1639 13.7402 33.5387 14.4073 34.2057C15.0743 34.8728 15.4491 35.7775 15.4491 36.7208V50.9483C15.4491 51.42 15.2617 51.8724 14.9282 52.2059C14.5947 52.5394 14.1423 52.7268 13.6706 52.7268H4.77844C4.30677 52.7268 3.85441 52.5394 3.52089 52.2059C3.18737 51.8724 3 51.42 3 50.9483V36.7208C3 35.7775 3.37474 34.8728 4.04179 34.2057C4.70883 33.5387 5.61354 33.1639 6.55688 33.1639H11.8922Z" fill="#ED5C18"/>
</svg>
