<svg width="33" height="33" viewBox="0 0 33 33" fill="none" xmlns="http://www.w3.org/2000/svg">
<circle cx="16.5" cy="16.5" r="16.5" fill="#D9D9D9"/>
<path d="M16.1094 25.2187C15.0365 25.2187 14.0781 25.0339 13.2344 24.6641C12.3958 24.2943 11.7318 23.7812 11.2422 23.125C10.7578 22.4635 10.4974 21.6979 10.4609 20.8281H12.9141C12.9453 21.3021 13.1042 21.7135 13.3906 22.0625C13.6823 22.4062 14.0625 22.6719 14.5313 22.8594C15 23.0469 15.5208 23.1406 16.0938 23.1406C16.724 23.1406 17.2813 23.0312 17.7656 22.8125C18.2552 22.5937 18.638 22.2891 18.9141 21.8984C19.1901 21.5026 19.3281 21.0469 19.3281 20.5312C19.3281 19.9948 19.1901 19.5234 18.9141 19.1172C18.6432 18.7057 18.2448 18.3828 17.7188 18.1484C17.1979 17.9141 16.5677 17.7969 15.8281 17.7969H14.4766V15.8281H15.8281C16.4219 15.8281 16.9427 15.7214 17.3906 15.5078C17.8438 15.2943 18.1979 14.9974 18.4531 14.6172C18.7083 14.2318 18.8359 13.7812 18.8359 13.2656C18.8359 12.7708 18.724 12.3411 18.5 11.9766C18.2813 11.6068 17.9688 11.3177 17.5625 11.1094C17.1615 10.901 16.6875 10.7969 16.1406 10.7969C15.6198 10.7969 15.1328 10.8932 14.6797 11.0859C14.2318 11.2734 13.8672 11.5443 13.5859 11.8984C13.3047 12.2474 13.1536 12.6667 13.1328 13.1562H10.7969C10.8229 12.2917 11.0781 11.5312 11.5625 10.875C12.0521 10.2187 12.6979 9.70573 13.5 9.33594C14.3021 8.96615 15.1927 8.78125 16.1719 8.78125C17.1979 8.78125 18.0833 8.98177 18.8281 9.38281C19.5781 9.77865 20.1563 10.3073 20.5625 10.9687C20.974 11.6302 21.1771 12.3542 21.1719 13.1406C21.1771 14.0365 20.9271 14.7969 20.4219 15.4219C19.9219 16.0469 19.2552 16.4661 18.4219 16.6797V16.8047C19.4844 16.9661 20.3073 17.388 20.8906 18.0703C21.4792 18.7526 21.7708 19.599 21.7656 20.6094C21.7708 21.4896 21.526 22.2786 21.0312 22.9766C20.5417 23.6745 19.8724 24.224 19.0234 24.625C18.1745 25.0208 17.2031 25.2187 16.1094 25.2187Z" fill="#33475B"/>
</svg>
