<svg width="33" height="33" viewBox="0 0 33 33" fill="none" xmlns="http://www.w3.org/2000/svg">
<circle cx="16.5" cy="16.5" r="16.5" fill="#D9D9D9"/>
<path d="M15.9688 24.2187C15.3125 24.2083 14.6563 24.0833 14 23.8437C13.3438 23.6042 12.7448 23.2005 12.2031 22.6328C11.6615 22.0599 11.2266 21.2865 10.8984 20.3125C10.5703 19.3333 10.4062 18.1042 10.4062 16.625C10.4062 15.2083 10.5391 13.9531 10.8047 12.8594C11.0703 11.7604 11.4557 10.8359 11.9609 10.0859C12.4661 9.33073 13.0755 8.75781 13.7891 8.36719C14.5078 7.97656 15.3177 7.78125 16.2188 7.78125C17.1146 7.78125 17.9115 7.96094 18.6094 8.32031C19.3125 8.67448 19.8854 9.16927 20.3281 9.80469C20.7708 10.4401 21.0573 11.1719 21.1875 12H19.2813C19.1042 11.2812 18.7604 10.6849 18.25 10.2109C17.7396 9.73698 17.0625 9.5 16.2188 9.5C14.9792 9.5 14.0026 10.0391 13.2891 11.1172C12.5807 12.1953 12.224 13.7083 12.2188 15.6562H12.3438C12.6354 15.2135 12.9818 14.8359 13.3828 14.5234C13.7891 14.2057 14.237 13.9609 14.7266 13.7891C15.2161 13.6172 15.7344 13.5312 16.2812 13.5312C17.1979 13.5312 18.0365 13.7604 18.7969 14.2187C19.5573 14.6719 20.1667 15.2995 20.625 16.1016C21.0833 16.8984 21.3125 17.8125 21.3125 18.8438C21.3125 19.8333 21.0911 20.7396 20.6484 21.5625C20.2057 22.3802 19.5833 23.0312 18.7813 23.5156C17.9844 23.9948 17.0469 24.2292 15.9688 24.2187ZM15.9688 22.5C16.625 22.5 17.2135 22.3359 17.7344 22.0078C18.2604 21.6797 18.6745 21.2396 18.9766 20.6875C19.2839 20.1354 19.4375 19.5208 19.4375 18.8438C19.4375 18.1823 19.2891 17.5807 18.9922 17.0391C18.7005 16.4922 18.2969 16.0573 17.7813 15.7344C17.2708 15.4115 16.6875 15.25 16.0313 15.25C15.5365 15.25 15.0755 15.349 14.6484 15.5469C14.2214 15.7396 13.8464 16.0052 13.5234 16.3437C13.2057 16.6823 12.9557 17.0703 12.7734 17.5078C12.5911 17.9401 12.5 18.3958 12.5 18.875C12.5 19.5104 12.6484 20.1042 12.9453 20.6562C13.2474 21.2083 13.6589 21.6536 14.1797 21.9922C14.7057 22.3307 15.3021 22.5 15.9688 22.5Z" fill="black"/>
</svg>
