<svg width="55" height="55" viewBox="0 0 55 55" fill="none" xmlns="http://www.w3.org/2000/svg">
<g clip-path="url(#clip0_41_2468)">
<path d="M26.92 41C19.66 41 13.74 35.09 13.74 27.82C13.74 20.69 19.42 14.9 26.48 14.64L25.63 13.65C25.01 12.94 25.08 11.84 25.79 11.22C26.5 10.6 27.6 10.67 28.22 11.38L32.02 15.73C32.07 15.78 32.09 15.82 32.13 15.87C32.22 16.01 32.31 16.17 32.36 16.33C32.38 16.42 32.41 16.51 32.43 16.61C32.48 16.82 32.45 17.05 32.41 17.25C32.36 17.43 32.3 17.62 32.2 17.8C32.18 17.85 32.13 17.89 32.11 17.94C32.02 18.08 31.88 18.19 31.74 18.28C31.74 18.28 31.72 18.28 31.72 18.3L27.27 21.55C26.49 22.1 25.44 21.94 24.86 21.18C24.31 20.42 24.47 19.35 25.23 18.77L26.17 18.08C21.13 18.45 17.14 22.66 17.14 27.8C17.14 33.16 21.52 37.54 26.88 37.54C32.24 37.54 36.62 33.16 36.62 27.8C36.62 25.88 36.05 24 34.99 22.39C34.46 21.61 34.67 20.53 35.47 20.01C36.27 19.49 37.33 19.69 37.85 20.49C39.29 22.67 40.07 25.19 40.07 27.8C40.09 35.08 34.18 41 26.92 41ZM36.52 3H17.32C8.97 3 4 7.97 4 16.31V35.5C4 43.86 8.97 48.84 17.31 48.84H36.5C44.84 48.84 49.81 43.87 49.81 35.53V16.33C49.83 7.97 44.86 3 36.52 3Z" fill="#ED5C18"/>
</g>
<defs>
<clipPath id="clip0_41_2468">
<rect width="45.81" height="45.83" fill="white" transform="translate(4 3)"/>
</clipPath>
</defs>
</svg>
