<svg width="55" height="55" viewBox="0 0 55 55" fill="none" xmlns="http://www.w3.org/2000/svg">
<path d="M41.6396 4.58325H13.3605C8.52504 4.58325 4.58337 8.52492 4.58337 13.3603V41.6166C4.58337 46.4749 8.52504 50.4166 13.3605 50.4166H41.6396C46.475 50.4166 50.4167 46.4749 50.4167 41.6166V13.3603C50.4167 8.52492 46.475 4.58325 41.6396 4.58325ZM15.2625 36.6666V27.4999C15.2625 26.5374 16.0417 25.7812 16.9813 25.7812C17.9209 25.7812 18.7 26.5374 18.7 27.4999V36.6666C18.7 37.6062 17.9209 38.3853 16.9813 38.3853C16.0417 38.3853 15.2625 37.6062 15.2625 36.6666ZM25.7813 36.6666V22.9166C25.7813 21.9541 26.5605 21.1978 27.5 21.1978C28.4396 21.1978 29.2188 21.9541 29.2188 22.9166V36.6666C29.2188 37.6062 28.4396 38.3853 27.5 38.3853C26.5605 38.3853 25.7813 37.6062 25.7813 36.6666ZM39.7375 36.6666C39.7375 37.6062 38.9584 38.3853 38.0188 38.3853C37.0792 38.3853 36.3 37.6062 36.3 36.6666V18.3333C36.3 17.3708 37.0792 16.6145 38.0188 16.6145C38.9584 16.6145 39.7375 17.3708 39.7375 18.3333V36.6666Z" fill="#ED5C18"/>
</svg>
