<svg width="55" height="55" viewBox="0 0 55 55" fill="none" xmlns="http://www.w3.org/2000/svg">
<g clip-path="url(#clip0_38_2372)">
<path fill-rule="evenodd" clip-rule="evenodd" d="M6 30.13C6 19.12 14.62 10.13 25.48 9.53997V23.26C25.48 27.69 29.07 31.28 33.5 31.28H47.22C46.63 42.14 37.63 50.76 26.63 50.76C15.23 50.75 6 41.52 6 30.13ZM30.92 5.00997C41.98 5.96997 50.8 14.78 51.75 25.84C51.85 26.94 50.94 27.84 49.84 27.84H30.92C29.82 27.84 28.92 26.94 28.92 25.84V6.91997C28.92 5.81997 29.82 4.90997 30.92 5.00997Z" fill="#ED5C18"/>
</g>
<defs>
<clipPath id="clip0_38_2372">
<rect width="45.75" height="45.75" fill="white" transform="translate(6 5)"/>
</clipPath>
</defs>
</svg>
