<svg width="55" height="55" viewBox="0 0 55 55" fill="none" xmlns="http://www.w3.org/2000/svg">
<g clip-path="url(#clip0_41_2484)">
<path d="M42.8444 45.6704L38.5959 41.4219L35.2388 44.779L39.4873 49.0275L42.8444 45.6704ZM41.4219 38.5959L45.6704 42.8444L49.0275 39.4873L44.779 35.2388L41.4219 38.5959ZM45.6704 42.8444C46.448 43.622 46.448 44.8928 45.6704 45.6704L49.0275 49.0275C51.6638 46.3911 51.6638 42.1237 49.0275 39.4968L45.6704 42.8444ZM45.6704 45.6704C44.8928 46.448 43.622 46.448 42.8444 45.6704L39.4873 49.0275C42.1237 51.6638 46.3911 51.6638 49.018 49.0275L45.6704 45.6704ZM23.1761 39.6201C14.1006 39.6201 6.74163 32.2611 6.74163 23.1761H2C2 34.869 11.4833 44.3522 23.1761 44.3522V39.6201ZM39.6201 23.1761C39.6201 32.2516 32.2611 39.6106 23.1856 39.6106V44.3522C34.8785 44.3522 44.3617 34.869 44.3617 23.1761H39.6201ZM23.1761 6.74163C32.2516 6.74163 39.6106 14.1006 39.6106 23.1761H44.3522C44.3617 11.4833 34.8785 2 23.1761 2V6.74163ZM6.74163 23.1761C6.74163 14.1006 14.1006 6.74163 23.1761 6.74163V2C11.4833 2 2 11.4833 2 23.1761H6.74163ZM38.5959 41.4219C37.6665 40.4925 36.1682 40.4925 35.2388 41.4219C34.3095 42.3513 34.3095 43.8496 35.2388 44.779L38.5959 41.4219ZM44.7695 35.2388C43.8401 34.3095 42.3418 34.3095 41.4124 35.2388C40.4831 36.1682 40.4831 37.6665 41.4124 38.5959L44.7695 35.2388Z" fill="#ED5C18"/>
</g>
<defs>
<clipPath id="clip0_41_2484">
<rect width="49" height="49" fill="white" transform="translate(2 2)"/>
</clipPath>
</defs>
</svg>
