<svg width="55" height="55" viewBox="0 0 55 55" fill="none" xmlns="http://www.w3.org/2000/svg">
<g clip-path="url(#clip0_41_2492)">
<path d="M41.37 20.51C41.37 21.45 40.59 22.23 39.65 22.23C38.71 22.23 37.93 21.45 37.93 20.51V18.29C32.09 24.29 24.78 28.53 16.59 30.57C16.45 30.62 16.31 30.62 16.18 30.62C15.4 30.62 14.71 30.09 14.51 29.31C14.28 28.39 14.83 27.45 15.77 27.22C23.49 25.29 30.37 21.24 35.82 15.51H32.96C32.02 15.51 31.24 14.73 31.24 13.79C31.24 12.85 32.02 12.07 32.96 12.07H39.67C39.76 12.07 39.83 12.12 39.92 12.12C40.03 12.14 40.15 12.14 40.26 12.19C40.37 12.24 40.47 12.3 40.58 12.37C40.65 12.42 40.72 12.44 40.79 12.48C40.81 12.5 40.81 12.53 40.84 12.53C40.93 12.62 41 12.71 41.07 12.8C41.14 12.89 41.21 12.96 41.23 13.05C41.28 13.14 41.28 13.23 41.3 13.35C41.32 13.46 41.37 13.58 41.37 13.72C41.37 13.74 41.39 13.77 41.39 13.79V20.5H41.37V20.51ZM41.37 42.01C41.37 42.95 40.59 43.73 39.65 43.73C38.71 43.73 37.93 42.95 37.93 42.01V27.76C37.93 26.82 38.71 26.04 39.65 26.04C40.59 26.04 41.37 26.82 41.37 27.76V42.01ZM29.64 42.01C29.64 42.95 28.86 43.73 27.92 43.73C26.98 43.73 26.2 42.95 26.2 42.01V32.5C26.2 31.56 26.98 30.78 27.92 30.78C28.86 30.78 29.64 31.56 29.64 32.5V42.01ZM17.9 42.01C17.9 42.95 17.12 43.73 16.18 43.73C15.24 43.73 14.46 42.95 14.46 42.01V37.27C14.46 36.33 15.24 35.55 16.18 35.55C17.12 35.55 17.9 36.33 17.9 37.27V42.01ZM37.52 5H18.32C9.97 5 5 9.97 5 18.31V37.5C5 45.86 9.97 50.84 18.31 50.84H37.5C45.84 50.84 50.81 45.87 50.81 37.53V18.33C50.83 9.97 45.86 5 37.52 5Z" fill="#ED5C18"/>
</g>
<defs>
<clipPath id="clip0_41_2492">
<rect width="45.81" height="45.83" fill="white" transform="translate(5 5)"/>
</clipPath>
</defs>
</svg>
