<svg width="55" height="55" viewBox="0 0 55 55" fill="none" xmlns="http://www.w3.org/2000/svg">
<g clip-path="url(#clip0_41_2476)">
<path d="M27.5051 13.4041C28.8076 13.4041 29.8536 14.4604 29.8536 15.7526V26.4693L36.2426 32.8584C37.1554 33.7814 37.1554 35.3197 36.2426 36.2426C35.3197 37.1554 33.7814 37.1554 32.8686 36.2426L25.8233 29.187C25.3823 28.746 25.1669 28.1204 25.1669 27.4949V15.7526C25.1464 14.4501 26.2027 13.4041 27.5051 13.4041ZM27.5051 4C14.5219 4 4 14.5219 4 27.5051C4 40.4883 14.5219 51.0103 27.5051 51.0103C40.4883 51.0103 51.0103 40.4883 51.0103 27.5051C51 14.5219 40.4781 4 27.5051 4Z" fill="#ED5C18"/>
</g>
<defs>
<clipPath id="clip0_41_2476">
<rect width="47" height="47" fill="white" transform="translate(4 4)"/>
</clipPath>
</defs>
</svg>
