<svg width="55" height="55" viewBox="0 0 55 55" fill="none" xmlns="http://www.w3.org/2000/svg">
<g clip-path="url(#clip0_41_2508)">
<path d="M25.62 37.4302V43.6202C25.62 48.7802 23.56 50.8402 18.4 50.8402H12.22C7.06 50.8302 5 48.7702 5 43.6102V37.4202C5 32.2602 7.06 30.2002 12.22 30.2002H18.41C23.56 30.2102 25.62 32.2702 25.62 37.4302Z" fill="#ED5C18"/>
<path d="M40.52 25.62C46.2141 25.62 50.83 21.0041 50.83 15.31C50.83 9.61594 46.2141 5 40.52 5C34.826 5 30.21 9.61594 30.21 15.31C30.21 21.0041 34.826 25.62 40.52 25.62Z" fill="#ED5C18"/>
<path d="M34.29 50.83C33.67 50.83 33.1 50.49 32.8 49.96C32.5 49.41 32.5 48.77 32.82 48.22L35.04 44.51C35.52 43.69 36.58 43.43 37.4 43.91C38.23 44.39 38.48 45.45 38 46.27L37.59 46.96C43.25 45.49 47.42 40.36 47.42 34.26C47.42 33.32 48.2 32.54 49.14 32.54C50.08 32.54 50.84 33.32 50.84 34.28C50.83 43.41 43.41 50.83 34.29 50.83Z" fill="#ED5C18"/>
<path d="M6.72 23.26C5.78 23.26 5 22.51 5 21.55C5 12.43 12.42 5 21.55 5C22.19 5 22.74 5.34 23.06 5.87C23.36 6.42 23.36 7.06 23.04 7.61L20.81 11.3C20.31 12.13 19.25 12.4 18.45 11.9C17.63 11.42 17.37 10.36 17.85 9.54L18.26 8.85C12.62 10.32 8.43 15.45 8.43 21.55C8.44 22.51 7.66 23.26 6.72 23.26Z" fill="#ED5C18"/>
</g>
<defs>
<clipPath id="clip0_41_2508">
<rect width="45.83" height="45.83" fill="white" transform="translate(5 5)"/>
</clipPath>
</defs>
</svg>
