<svg width="55" height="55" viewBox="0 0 55 55" fill="none" xmlns="http://www.w3.org/2000/svg">
<g clip-path="url(#clip0_41_2424)">
<path d="M19.67 5H33.33C41.5 5 45 9.7 45 16.76V40.24C45.0167 41.3887 44.906 42.5357 44.67 43.66C44.565 44.308 44.3976 44.9443 44.17 45.56C42.68 49.56 39.24 52 33.35 52H19.67C11.5 52 8 47.3 8 40.24V16.76C8 10.76 10.52 6.47 16.27 5.32C17.3913 5.11041 18.5293 5.0033 19.67 5Z" fill="#ED5C18"/>
<path d="M27.1237 35.9053C30.9398 35.2859 33.5311 31.6902 32.9117 27.8742C32.2923 24.0581 28.6966 21.4668 24.8806 22.0862C21.0645 22.7056 18.4732 26.3013 19.0926 30.1173C19.712 33.9334 23.3077 36.5247 27.1237 35.9053Z" fill="white"/>
<path d="M20 44C20 44.5304 20.2107 45.0391 20.5858 45.4142C20.9609 45.7893 21.4696 46 22 46H30C30.5304 46 31.0391 45.7893 31.4142 45.4142C31.7893 45.0391 32 44.5304 32 44C32 43.4696 31.7893 42.9609 31.4142 42.5858C31.0391 42.2107 30.5304 42 30 42H22C21.4696 42 20.9609 42.2107 20.5858 42.5858C20.2107 42.9609 20 43.4696 20 44Z" fill="white"/>
<path d="M20 13C20 13.5304 20.2107 14.0391 20.5858 14.4142C20.9609 14.7893 21.4696 15 22 15H30C30.5304 15 31.0391 14.7893 31.4142 14.4142C31.7893 14.0391 32 13.5304 32 13C32 12.4696 31.7893 11.9609 31.4142 11.5858C31.0391 11.2107 30.5304 11 30 11H22C21.4696 11 20.9609 11.2107 20.5858 11.5858C20.2107 11.9609 20 12.4696 20 13Z" fill="white"/>
</g>
<defs>
<clipPath id="clip0_41_2424">
<rect width="37" height="47" fill="white" transform="translate(8 5)"/>
</clipPath>
</defs>
</svg>
