<svg width="2499" height="558" viewBox="0 0 2499 558" fill="none" xmlns="http://www.w3.org/2000/svg">
<path d="M2207.73 0C2162.11 0 2129.73 10.637 2110.56 31.8889C2094.78 49.3104 2086.88 78.43 2086.88 119.237V129.404H2038.93V210.973H2086.88V447.483H2202.77V210.973H2314.38V346.848C2313.95 380.877 2322.54 406.636 2340.26 424.261C2357.97 441.901 2386.9 450.719 2427.03 450.719C2447.95 450.719 2471.87 448.426 2498.78 443.786V355.514C2484.58 358.812 2473.01 360.365 2464 360.365C2453.25 360.365 2445.76 357.969 2441.47 353.085C2437.18 348.227 2435 339.619 2435 327.319V210.973H2498.78V129.519H2435L2438 24.7236L2329.05 28.6538L2320.73 129.519H2284.45V129.404H2203.46C2203.04 127.304 2202.77 124.014 2202.77 119.351C2202.77 95.7443 2216.01 83.8798 2242.4 83.8798C2250.9 83.8798 2260.41 84.4972 2271.05 85.7284L2286.99 87.5771L2297.86 89.5403V8.31884C2266.31 2.75816 2236.27 0 2207.73 0ZM1565.1 20.7971V447.483H1688.15V20.7971H1565.1ZM319.351 55.9211C275.08 55.9211 248.719 80.5005 240.207 129.519C219.769 125.248 199.819 123.049 180.242 123.049C131.719 123.049 93.9105 131.944 66.8983 149.625C39.8639 167.301 26.343 191.947 26.343 223.455C26.343 241.372 30.2584 255.81 37.8969 266.898C45.5392 277.964 58.7014 287.991 77.4133 296.938C37.0318 314.397 16.756 337.797 16.756 367.186C16.756 385.506 26.4872 402.203 45.9865 417.099C15.3067 429.896 0 450.064 0 477.757C0 530.587 57.6773 557.019 173.076 557.019C204.584 557.019 231.878 555.477 254.878 552.512C288.948 548.241 315.421 537.405 334.369 519.931C353.318 502.44 362.794 480.5 362.794 454.076C362.794 425.089 353.255 401.737 334.14 384.057C315.025 366.362 288.682 356.923 255.111 355.632L153.784 351.24C135.941 350.408 127.093 345.72 127.093 337.028C127.093 327.086 137.523 322.009 158.405 322.009H185.211C232.04 322.009 268.011 313.761 293.126 297.167C318.246 280.596 330.909 257.082 330.909 226.457C330.909 197.567 319.085 173.224 295.437 153.666C300.521 146.023 311.927 142.226 329.751 142.226H359.673L362.794 58.4611L349.391 57.1893C340.444 56.3648 330.417 55.9211 319.351 55.9211ZM1381.28 112.419C1364.25 112.774 1346.31 115.543 1327.9 120.967C1232.14 149.214 1183.38 236.081 1210.86 329.515C1237.54 419.784 1324.41 462.003 1422.64 433.038C1506.26 408.381 1553.46 351.743 1549.39 279.831L1437.43 304.788C1438.66 333.423 1429.54 347.302 1404.04 354.815C1369.47 365.071 1353.25 354.641 1340.38 312.992L1541.65 253.721C1540.08 246.245 1538.02 238.954 1537.37 236.506C1513.51 155.684 1455.05 110.885 1381.28 112.419ZM521.199 123.049C429.903 123.049 375.128 156.427 356.786 223.104L469.9 233.386C474.152 209.945 490.139 198.147 517.85 198.147C542.987 198.147 555.632 209.945 555.632 233.386V241.01C502.783 243.587 459.854 250.393 427.038 261.459C402.31 269.579 382.974 282.341 368.92 299.818C354.852 317.299 347.776 337.309 347.776 359.906C347.776 388.043 358.05 410.821 378.507 428.076C398.946 445.332 425.936 453.957 459.618 453.957C503.519 453.957 537.697 437.127 561.988 403.467V409.823C561.988 420.486 563.511 433.012 566.495 447.491H684.692C678.507 429.149 675.449 408.481 675.449 385.447V258.694C675.449 230.114 674.603 211.646 672.905 203.12C669.057 183.913 659.917 168.126 645.405 155.751C619.388 134 577.956 123.049 521.199 123.049ZM907.101 123.049C868.339 123.049 838.961 139.579 818.944 172.614V129.404H707.101V447.483H826.915V249.336C826.915 223.758 837.256 210.977 857.879 210.977C877.212 210.977 886.881 223.758 886.881 249.336V447.487H1006.81V263.892C1006.81 230.195 1018.3 213.402 1041.24 213.402C1051.87 213.402 1059.02 216.6 1062.85 222.993C1065.39 228.132 1066.66 236.847 1066.66 249.221V447.487H1188.21V231.197C1188.21 210.297 1186.94 195.182 1184.4 185.791C1180.99 171.279 1173.32 158.672 1161.41 148.009C1143.1 131.364 1119.14 123.052 1089.77 123.052C1049.31 123.052 1017.82 139.583 995.259 172.618C976.528 139.579 947.135 123.049 907.101 123.049ZM1880.06 123.049C1828.92 123.049 1786.92 138.588 1754.13 169.727C1721.29 200.883 1704.91 240.792 1704.91 289.425C1704.91 337.213 1721.16 376.588 1753.55 407.509C1785.94 438.444 1827.06 453.954 1876.94 453.954C1928.93 453.954 1971.34 438.444 2004.15 407.509C2036.97 376.592 2053.37 336.654 2053.37 287.577C2053.37 239.368 2037.27 199.863 2005.08 169.15C1972.91 138.433 1931.22 123.049 1880.06 123.049ZM180.589 185.44C205.139 185.44 217.447 198.436 217.447 224.49C217.447 250.105 204.714 262.964 179.321 262.964C155.181 262.964 143.043 249.698 143.043 223.219C143.04 198.033 155.599 185.44 180.589 185.44ZM1365.22 187.636C1384.34 187.326 1397.13 200.562 1406.58 228.883L1322.24 253.725C1312.7 218.978 1321.21 198.713 1350.89 189.947C1356.01 188.438 1360.8 187.71 1365.22 187.636ZM1879.83 201.386C1894.3 201.386 1904.75 207.768 1911.14 220.568C1917.53 233.382 1920.74 254.96 1920.74 285.27V289.777C1920.74 322.668 1917.39 345.746 1910.8 358.986C1904.19 372.226 1893.21 378.859 1877.87 378.859C1863.38 378.859 1853.07 371.956 1846.9 358.294C1840.72 344.651 1837.55 321.647 1837.55 289.2C1837.54 230.709 1851.69 201.386 1879.83 201.386ZM555.632 299.249V314.5C555.632 357.37 539.578 378.855 507.682 378.855C486.837 378.855 476.485 369.297 476.485 350.201C476.485 321.769 502.891 304.773 555.632 299.249ZM135.531 443.095C141.461 443.095 145.949 443.287 148.933 443.672L224.727 446.792C243.823 447.639 253.381 454.408 253.381 467.242C253.381 479.228 244.807 486.926 227.847 490.349C221.477 491.621 208.392 492.313 188.449 492.313C131.586 492.313 103.065 482.463 103.065 462.849C103.061 449.646 113.872 443.095 135.531 443.095Z" fill="#555555"/>
</svg>
