<svg width="2066" height="533" viewBox="0 0 2066 533" fill="none" xmlns="http://www.w3.org/2000/svg">
<g filter="url(#filter0_d_4_11)">
<path d="M609.16 139.419C564.845 139.419 538.176 167.196 538.176 212.937C538.176 248.341 553.231 272.847 601.849 294.628L617.764 301.713C647.877 315.327 656.914 326.76 656.914 345.824C656.914 369.787 640.567 384.491 613.032 384.491C590.661 384.491 573.022 375.777 556.243 355.626C549.359 346.912 540.328 346.912 533.444 355.626L533.011 356.174C527.421 363.25 527.421 377.408 533.011 384.491C555.815 412.264 580.765 423.702 613.032 423.702C661.646 423.702 691.333 394.836 691.333 345.276C691.333 306.613 676.274 284.826 629.38 263.585L613.892 256.507C582.058 241.803 572.59 230.365 572.59 211.308C572.59 191.701 586.789 178.628 609.16 178.628C627.659 178.628 642.287 186.8 657.774 204.23C664.658 212.396 674.122 211.848 681.004 203.134L681.437 202.594C687.028 195.514 687.028 181.353 681.004 174.816C659.926 150.31 638.415 139.419 609.16 139.419ZM1072.5 306.067V312.604C1072.5 353.99 1049.27 384.485 1011.84 384.485C982.586 384.485 964.948 367.605 964.948 336.562C964.948 306.614 983.879 289.186 1016.57 289.186H1072.5V306.067ZM1022.17 139.419C995.493 139.419 970.539 148.673 946.448 179.717C940.857 187.342 940.857 202.046 946.448 209.124L947.308 210.22C953.764 218.386 963.228 218.386 969.679 209.672C987.318 185.706 1004.53 178.628 1022.17 178.628C1053.57 178.628 1072.5 200.958 1072.5 237.99V251.606H1016.57C962.368 251.606 930.535 282.649 930.535 336.562C930.535 387.21 961.075 423.702 1004.1 423.702C1034.64 423.702 1058.31 408.451 1072.94 383.945V395.924C1072.94 406.815 1080.25 416.077 1089.28 416.077H1090.14C1098.75 416.077 1106.06 406.815 1106.06 395.384V237.99C1106.06 176.452 1074.65 139.419 1022.17 139.419ZM1938.53 306.067V312.604C1938.53 353.99 1915.3 384.485 1877.86 384.485C1848.61 384.485 1830.97 367.605 1830.97 336.562C1830.97 306.614 1849.9 289.186 1882.6 289.186H1938.53V306.067ZM1888.19 139.419C1843.02 139.419 1807.74 173.187 1807.74 195.509C1807.74 200.958 1809.03 206.407 1812.05 210.22L1812.91 211.308C1815.92 215.121 1819.36 216.75 1823.66 216.75C1830.97 216.75 1836.13 209.672 1843.02 200.958C1851.62 190.067 1865.39 178.628 1888.19 178.628C1919.6 178.628 1938.53 200.958 1938.53 237.99V251.606H1882.6C1828.39 251.606 1796.56 282.649 1796.56 336.562C1796.56 387.21 1827.1 423.702 1870.12 423.702C1900.67 423.702 1924.33 408.451 1938.96 383.945V395.924C1938.96 406.815 1946.27 416.077 1955.31 416.077H1956.17C1964.77 416.077 1972.09 406.815 1972.09 395.384V237.99C1972.09 176.452 1940.68 139.419 1888.19 139.419ZM1514.33 304.976C1510.03 355.078 1490.24 384.491 1454.11 384.491C1413.24 384.491 1393.01 346.362 1393.01 281.559C1393.01 216.75 1413.23 178.628 1454.11 178.628C1490.67 178.628 1510.46 209.129 1514.33 260.318V304.976ZM1547.89 344.734V21.7852C1547.89 10.3523 1540.58 1.09033 1531.54 1.09033H1530.68C1521.65 1.09033 1514.33 10.3523 1514.33 21.7852V178.088C1499.27 153.034 1476.9 139.419 1447.22 139.419C1390 139.419 1358.6 191.703 1358.6 281.561C1358.6 371.418 1390 423.702 1447.22 423.702C1479.05 423.702 1502.72 407.91 1517.35 379.044C1523.37 401.915 1537.56 419.889 1551.33 419.889C1560.37 419.889 1568.11 411.723 1568.11 399.737C1568.11 377.955 1547.89 381.218 1547.89 344.734ZM1235.98 384.489C1195.12 384.489 1174.9 346.368 1174.9 283.741V279.38C1174.9 216.753 1195.12 178.632 1235.99 178.632C1275.99 178.632 1297.07 216.753 1297.07 281.557C1297.07 346.368 1275.99 384.489 1235.98 384.489ZM1242.87 139.415C1213.18 139.415 1190.38 153.578 1175.32 179.173V167.194C1175.32 156.303 1168.01 147.041 1159.4 147.041H1158.54C1149.51 147.041 1142.2 156.303 1142.2 167.194V503.753C1142.2 515.192 1149.51 524.454 1158.54 524.454H1159.4C1168.44 524.454 1175.76 515.192 1175.76 503.753V384.489C1190.81 410.083 1213.18 423.698 1242.87 423.698C1300.09 423.698 1331.49 371.422 1331.49 281.557C1331.49 191.7 1300.09 139.415 1242.87 139.415ZM1678.68 178.63C1716.97 178.63 1736.33 207.495 1738.48 258.143H1619.74C1624.04 208.035 1643.4 178.63 1678.68 178.63ZM1763 362.704C1756.12 354.538 1746.65 353.444 1738.91 361.07C1722.13 377.409 1707.07 384.487 1685.56 384.487C1644.26 384.487 1621.89 351.267 1619.31 295.718H1751.38C1763.86 295.718 1772.9 284.28 1772.9 268.488C1772.9 187.885 1742.35 139.421 1678.68 139.421C1616.73 139.421 1584.46 192.246 1584.46 281.563C1584.46 370.872 1619.31 423.704 1685.56 423.704C1716.97 423.704 1738.91 413.9 1762.14 389.934C1768.59 383.397 1769.02 370.33 1763.43 363.252L1763 362.704ZM755.863 395.382V260.864C755.863 209.67 776.082 178.627 813.941 178.627C850.511 178.627 866.43 204.769 866.43 257.051V395.38C866.43 406.818 873.742 416.075 882.778 416.075H883.638C892.673 416.075 899.985 406.818 899.985 395.38V255.963C899.985 176.996 875.894 139.417 821.689 139.417C792.001 139.417 769.632 153.578 755.43 179.174V167.196C755.43 156.303 748.121 147.043 739.517 147.043H738.657C729.621 147.043 722.305 156.303 722.305 167.194V395.38C722.305 406.818 729.621 416.075 738.657 416.075H739.517C748.548 416.075 755.863 406.82 755.863 395.382ZM2045.22 419.888C2054.26 419.888 2062 411.721 2062 399.735C2062 377.954 2041.78 381.218 2041.78 344.734V21.7852C2041.78 10.3523 2034.47 1.09033 2025.43 1.09033H2024.57C2015.53 1.09033 2008.22 10.3523 2008.22 21.7852V356.174C2008.22 388.306 2026.72 419.888 2045.22 419.888Z" fill="#555555"/>
<path d="M96.7818 510.837C101.514 521.187 106.679 525 116.141 525H292.529C301.996 525 307.155 521.727 313.18 511.925L446.549 294.082C449.557 289.18 446.117 281.014 441.386 281.014H227.567C218.104 281.014 212.94 277.201 208.209 266.859L100.654 31.5872C98.0734 26.14 91.1897 27.2339 89.4651 32.6755L6.43854 287.004C2.56666 298.442 3.42675 306.068 8.15872 316.411L96.7818 510.837Z" fill="#555555"/>
<path d="M318.772 229.822C323.505 240.173 328.669 243.984 338.133 243.984H441.383C446.547 243.984 450.418 235.812 447.84 229.822L349.32 14.1631C344.588 3.81286 339.423 0 329.96 0H132.917C127.758 0 123.886 8.1661 126.467 14.1631L177.664 126.35C182.396 136.692 187.555 140.505 197.023 140.505H278.33L318.772 229.822Z" fill="#555555"/>
</g>
<defs>
<filter id="filter0_d_4_11" x="0" y="0" width="2066" height="533" filterUnits="userSpaceOnUse" color-interpolation-filters="sRGB">
<feFlood flood-opacity="0" result="BackgroundImageFix"/>
<feColorMatrix in="SourceAlpha" type="matrix" values="0 0 0 0 0 0 0 0 0 0 0 0 0 0 0 0 0 0 127 0" result="hardAlpha"/>
<feOffset dy="4"/>
<feGaussianBlur stdDeviation="2"/>
<feComposite in2="hardAlpha" operator="out"/>
<feColorMatrix type="matrix" values="0 0 0 0 0 0 0 0 0 0 0 0 0 0 0 0 0 0 0.25 0"/>
<feBlend mode="normal" in2="BackgroundImageFix" result="effect1_dropShadow_4_11"/>
<feBlend mode="normal" in="SourceGraphic" in2="effect1_dropShadow_4_11" result="shape"/>
</filter>
</defs>
</svg>
