<svg width="21" height="22" viewBox="0 0 21 22" fill="none" xmlns="http://www.w3.org/2000/svg">
<path fill-rule="evenodd" clip-rule="evenodd" d="M21 21.554H16.8V14.2597C16.8 12.2588 15.9107 11.1424 14.3157 11.1424C12.5801 11.1424 11.55 12.3057 11.55 14.2597V21.554H7.35V8.00567H11.55V9.52925C11.55 9.52925 12.8677 7.23422 15.8371 7.23422C18.8076 7.23422 21 9.03337 21 12.756V21.554ZM2.5641 5.83889C1.14765 5.83889 0 4.69048 0 3.27416C0 1.85889 1.14765 0.710449 2.5641 0.710449C3.9795 0.710449 5.12715 1.85889 5.12715 3.27416C5.1282 4.69048 3.9795 5.83889 2.5641 5.83889ZM0 21.554H5.25V8.00567H0V21.554Z" fill="#7A8897"/>
</svg>
