<svg width="26" height="21" viewBox="0 0 26 21" fill="none" xmlns="http://www.w3.org/2000/svg">
<path fill-rule="evenodd" clip-rule="evenodd" d="M8.177 20.9575C17.9881 20.9575 23.3545 13.1556 23.3545 6.39055C23.3545 6.16846 23.3545 5.94804 23.3389 5.72844C24.3828 5.00477 25.2837 4.10625 26 3.07816C25.0276 3.49239 23.9941 3.76405 22.9372 3.88382C24.05 3.24375 24.8833 2.23817 25.2824 1.05161C24.2346 1.64801 23.0893 2.06892 21.8946 2.29476C19.8744 0.23356 16.4957 0.133694 14.3468 2.07262C12.9623 3.32281 12.3734 5.18683 12.8037 6.96479C8.515 6.75768 4.5188 4.8138 1.8096 1.61595C0.3939 3.95537 1.118 6.94704 3.4619 8.44927C2.613 8.42556 1.7823 8.20621 1.04 7.80944V7.87442C1.0413 10.3112 2.8314 12.4094 5.3196 12.8922C4.5344 13.0981 3.7102 13.1279 2.912 12.9795C3.6101 15.0656 5.6134 16.4945 7.8949 16.5357C6.006 17.9605 3.6725 18.7342 1.2701 18.7317C0.8463 18.7305 0.4225 18.7068 0 18.6581C2.4401 20.1603 5.278 20.9576 8.177 20.9538" fill="#7A8897"/>
</svg>
