<svg width="53" height="53" viewBox="0 0 53 53" fill="none" xmlns="http://www.w3.org/2000/svg">
<path d="M50.285 26.8369H2.38591C1.82964 26.8066 1.30613 26.5643 0.923066 26.1598C0.54 25.7553 0.326508 25.2194 0.326508 24.6623C0.326508 24.1052 0.54 23.5693 0.923066 23.1648C1.30613 22.7603 1.82964 22.5179 2.38591 22.4877H50.285C50.5806 22.4716 50.8763 22.5159 51.1541 22.6179C51.4319 22.7199 51.686 22.8775 51.9009 23.081C52.1158 23.2845 52.287 23.5297 52.404 23.8016C52.5209 24.0734 52.5813 24.3663 52.5813 24.6623C52.5813 24.9582 52.5209 25.2511 52.404 25.523C52.287 25.7948 52.1158 26.04 51.9009 26.2435C51.686 26.447 51.4319 26.6046 51.1541 26.7066C50.8763 26.8086 50.5806 26.853 50.285 26.8369Z" fill="#ED5C18"/>
<path d="M11.0986 0.714111H6.7494C5.018 0.715817 3.358 1.40436 2.13372 2.62865C0.909429 3.85293 0.220877 5.51294 0.219171 7.24435V11.5935C0.207906 11.8861 0.255812 12.178 0.360021 12.4517C0.46423 12.7253 0.622596 12.9751 0.825637 13.1862C1.02868 13.3972 1.27222 13.565 1.54167 13.6797C1.81112 13.7944 2.10094 13.8535 2.39377 13.8535C2.6866 13.8535 2.97642 13.7944 3.24587 13.6797C3.51532 13.565 3.75885 13.3972 3.9619 13.1862C4.16494 12.9751 4.3233 12.7253 4.42751 12.4517C4.53172 12.178 4.57963 11.8861 4.56836 11.5935V7.24435C4.56879 6.66688 4.79837 6.11319 5.2067 5.70486C5.61503 5.29653 6.16872 5.06695 6.74618 5.06652H11.0986C11.3912 5.07778 11.6831 5.02987 11.9567 4.92566C12.2304 4.82145 12.4802 4.6631 12.6912 4.46006C12.9022 4.25701 13.0701 4.01347 13.1848 3.74402C13.2994 3.47457 13.3585 3.18474 13.3585 2.89191C13.3585 2.59908 13.2994 2.30928 13.1848 2.03983C13.0701 1.77038 12.9022 1.52684 12.6912 1.32379C12.4802 1.12075 12.2304 0.962378 11.9567 0.858169C11.6831 0.753961 11.3912 0.706066 11.0986 0.717331V0.714111Z" fill="#3F4450"/>
<path d="M11.0985 48.6102H6.7493C6.17183 48.6098 5.61815 48.3802 5.20982 47.9718C4.80149 47.5635 4.57191 47.0098 4.57148 46.4324V42.0832C4.58274 41.7905 4.53484 41.4987 4.43063 41.225C4.32642 40.9513 4.16805 40.7015 3.96501 40.4905C3.76197 40.2795 3.51843 40.1117 3.24898 39.997C2.97953 39.8824 2.68971 39.8232 2.39688 39.8232C2.10405 39.8232 1.81423 39.8824 1.54478 39.997C1.27533 40.1117 1.03179 40.2795 0.828753 40.4905C0.625712 40.7015 0.467342 40.9513 0.363134 41.225C0.258925 41.4987 0.211019 41.7905 0.222284 42.0832V46.4324C0.223563 48.1641 0.911927 49.8244 2.13626 51.0491C3.36059 52.2737 5.02084 52.9625 6.75252 52.9642H11.0985C11.3911 52.9755 11.683 52.9276 11.9566 52.8233C12.2303 52.7191 12.4801 52.5608 12.6911 52.3577C12.9021 52.1547 13.07 51.9112 13.1847 51.6417C13.2993 51.3723 13.3584 51.0825 13.3584 50.7896C13.3584 50.4968 13.2993 50.207 13.1847 49.9375C13.07 49.6681 12.9021 49.4245 12.6911 49.2215C12.4801 49.0184 12.2303 48.8601 11.9566 48.7559C11.683 48.6516 11.3911 48.6038 11.0985 48.615V48.6102Z" fill="#3F4450"/>
<path d="M45.9295 0.713916H41.5803C41.2847 0.697823 40.989 0.742121 40.7112 0.844136C40.4334 0.94615 40.1792 1.10374 39.9644 1.30725C39.7495 1.51077 39.5783 1.75594 39.4613 2.02781C39.3444 2.29969 39.284 2.59253 39.284 2.8885C39.284 3.18446 39.3444 3.47733 39.4613 3.74921C39.5783 4.02108 39.7495 4.26626 39.9644 4.46977C40.1792 4.67328 40.4334 4.83085 40.7112 4.93286C40.989 5.03487 41.2847 5.0792 41.5803 5.0631H45.9295C46.5069 5.06353 47.0606 5.29312 47.4689 5.70145C47.8773 6.10977 48.1069 6.66347 48.1073 7.24093V11.5901C48.096 11.8827 48.1439 12.1746 48.2481 12.4483C48.3523 12.7219 48.5107 12.9717 48.7137 13.1827C48.9168 13.3938 49.1603 13.5616 49.4298 13.6763C49.6992 13.7909 49.989 13.85 50.2819 13.85C50.5747 13.85 50.8645 13.7909 51.134 13.6763C51.4034 13.5616 51.647 13.3938 51.85 13.1827C52.053 12.9717 52.2114 12.7219 52.3156 12.4483C52.4198 12.1746 52.4677 11.8827 52.4565 11.5901V7.24093C52.4548 5.50925 51.766 3.849 50.5414 2.62467C49.3167 1.40033 47.6563 0.711975 45.9246 0.710696L45.9295 0.713916Z" fill="#3F4450"/>
<path d="M50.2846 39.9003C49.707 39.9003 49.1531 40.1298 48.7447 40.5382C48.3362 40.9466 48.1068 41.5006 48.1068 42.0782V46.4273C48.1059 47.0047 47.8762 47.5581 47.468 47.9663C47.0597 48.3746 46.5063 48.6043 45.929 48.6051H41.5798C41.2872 48.5939 40.9953 48.6418 40.7216 48.746C40.448 48.8502 40.1981 49.0086 39.9871 49.2116C39.7761 49.4146 39.6083 49.6582 39.4936 49.9276C39.3789 50.1971 39.3199 50.4869 39.3199 50.7798C39.3199 51.0726 39.3789 51.3624 39.4936 51.6319C39.6083 51.9013 39.7761 52.1449 39.9871 52.3479C40.1981 52.5509 40.448 52.7093 40.7216 52.8135C40.9953 52.9177 41.2872 52.9656 41.5798 52.9544H45.929C47.6608 52.9527 49.3212 52.2639 50.5458 51.0394C51.7704 49.8148 52.4591 48.1543 52.4608 46.4225V42.0733C52.4606 41.7877 52.4041 41.505 52.2947 41.2413C52.1852 40.9775 52.0248 40.7379 51.8227 40.5361C51.6207 40.3343 51.3808 40.1743 51.1169 40.0653C50.853 39.9562 50.5702 39.9001 50.2846 39.9003Z" fill="#3F4450"/>
<path d="M43.6421 23.5714C43.6872 23.0978 43.7532 22.6307 43.7532 22.1507C43.7122 18.186 42.1084 14.3976 39.2903 11.6085C36.4723 8.81943 32.6675 7.25494 28.7026 7.25494C24.7377 7.25494 20.9329 8.81943 18.1148 11.6085C15.2967 14.3976 13.693 18.186 13.652 22.1507C13.6428 22.6344 13.5502 23.1128 13.3781 23.565L43.6421 23.5714Z" fill="#ED5C18"/>
<path d="M9.37645 30.1035L9.29429 30.234C9.06368 30.5998 8.93544 31.0207 8.92297 31.453C8.9105 31.8852 9.01425 32.3129 9.22339 32.6913C9.43253 33.0698 9.73941 33.3852 10.112 33.6046C10.4846 33.824 10.9092 33.9395 11.3416 33.9389H13.6532V37.7726C13.6583 38.8294 14.0821 39.8411 14.8318 40.586C15.5815 41.3309 16.596 41.7482 17.6528 41.7465C18.0479 41.7522 18.441 41.6912 18.8158 41.5661L21.5429 40.7462V44.7925C21.5433 45.2252 21.7154 45.6399 22.0213 45.9459C22.3272 46.2518 22.742 46.4238 23.1747 46.4243H37.3804C37.8133 46.4243 38.2285 46.2524 38.5348 45.9465C38.8411 45.6405 39.0134 45.2254 39.0138 44.7925V36.943C39.0118 34.7106 39.7098 32.5338 41.0096 30.7188C41.1497 30.5191 41.2512 30.3 41.3817 30.0987H9.37645V30.1035Z" fill="#ED5C18"/>
</svg>
