<svg width="52" height="52" viewBox="0 0 52 52" fill="none" xmlns="http://www.w3.org/2000/svg">
<g clip-path="url(#clip0_147_3092)">
<path d="M15.262 15.104C13.156 20.174 11.44 24.386 11.44 24.49C11.44 24.568 16.328 24.594 22.334 24.568C30.914 24.516 33.176 24.568 33.098 24.802C32.994 25.062 30.472 25.14 22.126 25.192L11.31 25.27V26.57V27.87L22.1 27.948L32.916 28L36.868 17.99C39.052 12.504 40.82 7.668 40.82 7.278L40.794 6.55L40.846 5.9C40.352 6.784 39.936 7.642 40.43 6.68L40.846 5.9H29.952H19.058L15.262 15.104ZM37.96 7.772C37.96 7.928 36.582 11.386 34.918 15.442L31.85 22.8H22.932C15.886 22.8 14.014 22.722 14.118 22.462C14.222 22.202 17.342 14.688 19.552 9.332L20.332 7.46H29.146C35.672 7.46 37.96 7.538 37.96 7.772Z" fill="#ED5C18"/>
<path d="M21.996 10.5279C21.892 10.6839 20.436 14.2979 18.694 18.6919L18.2 19.9399H24.258H30.316L32.058 15.5719C32.994 13.1799 33.852 11.0219 33.956 10.7619C34.112 10.3459 33.722 10.3199 28.132 10.3199C24.83 10.3199 22.074 10.3979 21.996 10.5279Z" fill="#ED5C18"/>
<path d="M22.88 29.092C22.88 29.43 23.348 32.602 23.92 36.19C24.492 39.752 24.96 42.768 24.96 42.872C24.96 42.95 23.92 43.886 22.62 44.9C21.346 45.914 20.28 46.824 20.28 46.876C20.28 46.928 22.412 46.98 25.038 46.98H29.77L31.928 45.082L34.06 43.21L33.956 41.91C33.904 41.182 33.41 37.88 32.89 34.552L31.902 28.52H27.404C22.88 28.52 22.88 28.52 22.88 29.092Z" fill="#ED5C18"/>
<path d="M31.85 45.55L29.77 47.474L24.908 47.5H20.02V48.93V50.36H24.804H29.588L31.954 47.734C33.774 45.706 34.32 44.926 34.32 44.354C34.32 43.938 34.242 43.6 34.138 43.6C34.008 43.626 32.994 44.484 31.85 45.55Z" fill="#ED5C18"/>
<path d="M11.0986 -0.285889H6.74937C5.01797 -0.284183 3.35797 0.40436 2.13368 1.62865C0.909398 2.85293 0.220846 4.51294 0.21914 6.24435V10.5935C0.207875 10.8861 0.255782 11.178 0.35999 11.4517C0.464199 11.7253 0.622566 11.9751 0.825607 12.1862C1.02865 12.3972 1.27219 12.565 1.54164 12.6797C1.81109 12.7944 2.10091 12.8535 2.39374 12.8535C2.68657 12.8535 2.97639 12.7944 3.24584 12.6797C3.51529 12.565 3.75882 12.3972 3.96187 12.1862C4.16491 11.9751 4.32327 11.7253 4.42748 11.4517C4.53169 11.178 4.5796 10.8861 4.56833 10.5935V6.24435C4.56876 5.66688 4.79834 5.11319 5.20667 4.70486C5.615 4.29653 6.16869 4.06695 6.74615 4.06652H11.0986C11.3912 4.07778 11.6831 4.02987 11.9567 3.92566C12.2304 3.82145 12.4802 3.6631 12.6912 3.46006C12.9022 3.25701 13.0701 3.01347 13.1847 2.74402C13.2994 2.47457 13.3585 2.18474 13.3585 1.89191C13.3585 1.59908 13.2994 1.30928 13.1847 1.03983C13.0701 0.770381 12.9022 0.526836 12.6912 0.323794C12.4802 0.120753 12.2304 -0.0376223 11.9567 -0.141831C11.6831 -0.246039 11.3912 -0.293934 11.0986 -0.282669V-0.285889Z" fill="#3F4450"/>
<path d="M11.0985 47.6101H6.74926C6.1718 47.6097 5.61811 47.38 5.20979 46.9717C4.80146 46.5634 4.57187 46.0097 4.57145 45.4323V41.083C4.58271 40.7904 4.53481 40.4985 4.4306 40.2249C4.32639 39.9512 4.16802 39.7014 3.96498 39.4904C3.76194 39.2794 3.5184 39.1116 3.24895 38.9969C2.9795 38.8822 2.68968 38.8231 2.39685 38.8231C2.10402 38.8231 1.8142 38.8822 1.54475 38.9969C1.2753 39.1116 1.03176 39.2794 0.828723 39.4904C0.625681 39.7014 0.467312 39.9512 0.363103 40.2249C0.258895 40.4985 0.210988 40.7904 0.222253 41.083V45.4323C0.223532 47.1639 0.911897 48.8243 2.13623 50.049C3.36056 51.2736 5.02081 51.9624 6.75249 51.9641H11.0985C11.3911 51.9754 11.683 51.9274 11.9566 51.8232C12.2303 51.719 12.4801 51.5606 12.6911 51.3576C12.9021 51.1546 13.07 50.9111 13.1846 50.6416C13.2993 50.3722 13.3584 50.0823 13.3584 49.7895C13.3584 49.4967 13.2993 49.2068 13.1846 48.9374C13.07 48.6679 12.9021 48.4244 12.6911 48.2214C12.4801 48.0183 12.2303 47.8599 11.9566 47.7557C11.683 47.6515 11.3911 47.6036 11.0985 47.6149V47.6101Z" fill="#3F4450"/>
<path d="M45.9294 -0.286084H41.5802C41.2847 -0.302177 40.989 -0.257879 40.7112 -0.155864C40.4333 -0.05385 40.1792 0.103743 39.9643 0.307254C39.7494 0.510765 39.5783 0.755941 39.4613 1.02781C39.3443 1.29969 39.284 1.59253 39.284 1.8885C39.284 2.18446 39.3443 2.47733 39.4613 2.74921C39.5783 3.02108 39.7494 3.26626 39.9643 3.46977C40.1792 3.67328 40.4333 3.83085 40.7112 3.93286C40.989 4.03487 41.2847 4.0792 41.5802 4.0631H45.9294C46.5069 4.06353 47.0606 4.29312 47.4689 4.70145C47.8772 5.10977 48.1068 5.66347 48.1072 6.24093V10.5901C48.096 10.8827 48.1439 11.1746 48.2481 11.4483C48.3523 11.7219 48.5107 11.9717 48.7137 12.1827C48.9168 12.3938 49.1603 12.5616 49.4297 12.6763C49.6992 12.7909 49.989 12.85 50.2818 12.85C50.5747 12.85 50.8645 12.7909 51.1339 12.6763C51.4034 12.5616 51.6469 12.3938 51.85 12.1827C52.053 11.9717 52.2114 11.7219 52.3156 11.4483C52.4198 11.1746 52.4677 10.8827 52.4564 10.5901V6.24093C52.4547 4.50925 51.766 2.849 50.5413 1.62467C49.3167 0.400334 47.6563 -0.288025 45.9246 -0.289304L45.9294 -0.286084Z" fill="#3F4450"/>
<path d="M50.2846 38.9003C49.707 38.9003 49.153 39.1297 48.7446 39.5381C48.3362 39.9466 48.1068 40.5005 48.1068 41.0781V45.4273C48.1059 46.0046 47.8762 46.558 47.468 46.9663C47.0597 47.3745 46.5063 47.6042 45.9289 47.6051H41.5797C41.2871 47.5938 40.9953 47.6418 40.7216 47.746C40.4479 47.8502 40.1981 48.0085 39.9871 48.2115C39.7761 48.4146 39.6082 48.6581 39.4936 48.9276C39.3789 49.197 39.3198 49.4869 39.3198 49.7797C39.3198 50.0725 39.3789 50.3623 39.4936 50.6318C39.6082 50.9012 39.7761 51.1448 39.9871 51.3478C40.1981 51.5509 40.4479 51.7093 40.7216 51.8135C40.9953 51.9177 41.2871 51.9656 41.5797 51.9543H45.9289C47.6608 51.9526 49.3212 51.2639 50.5458 50.0393C51.7704 48.8147 52.4591 47.1543 52.4608 45.4224V41.0733C52.4606 40.7877 52.4041 40.505 52.2946 40.2412C52.1852 39.9775 52.0248 39.7378 51.8227 39.5361C51.6206 39.3343 51.3808 39.1743 51.1169 39.0652C50.853 38.9561 50.5701 38.9001 50.2846 38.9003Z" fill="#3F4450"/>
</g>
<defs>
<clipPath id="clip0_147_3092">
<rect width="52" height="52" fill="white"/>
</clipPath>
</defs>
</svg>
