<svg width="52" height="52" viewBox="0 0 52 52" fill="none" xmlns="http://www.w3.org/2000/svg">
<path d="M24.2734 0.101578C19.2359 0.721107 14.889 3.73751 12.5531 8.21642C10.4304 12.3195 10.2984 17.3672 12.2281 21.4703C12.4617 21.9781 14.4523 25.6547 16.6359 29.6258C18.8297 33.607 20.6172 36.9078 20.6172 36.9485C20.6172 36.9992 19.9672 37.0906 19.175 37.1617C13.1828 37.6695 7.85075 39 4.95622 40.6961C1.76716 42.5649 1.29997 45.236 3.7781 47.3281C8.89685 51.6344 26.0914 53.3305 39.1523 50.8219C44.1492 49.857 48.0797 48.0797 49.2273 46.2414C49.6437 45.5813 49.8062 45.0633 49.7961 44.332C49.7758 41.7727 46.2515 39.5789 39.9445 38.1977C38.2687 37.832 34.8461 37.3344 32.8351 37.1617C32.0328 37.0906 31.3828 36.9992 31.3828 36.9485C31.3828 36.9078 33.1703 33.607 35.364 29.6258C37.5476 25.6547 39.5383 21.9781 39.7718 21.4703C41.7015 17.3672 41.5695 12.3195 39.4468 8.21642C37.9437 5.33205 35.5976 3.03673 32.5914 1.52345C31.7078 1.07658 29.7679 0.446888 28.6914 0.253922C27.564 0.0609512 25.2992 -0.020298 24.2734 0.101578ZM28.2851 2.39689C31.2812 2.88439 34.2976 4.6922 36.1968 7.15001C37.1617 8.38908 37.507 9.00861 38.1468 10.6133C39.3961 13.711 39.2031 17.7531 37.6593 20.8711C37.0601 22.0797 26.0609 42.0469 26 42.0469C25.9289 42.0469 14.8992 21.9985 14.2898 20.7695C12.7867 17.7227 12.614 13.6703 13.8531 10.6133C14.4929 9.00861 14.8383 8.38908 15.8031 7.15001C17.5804 4.8547 20.3125 3.12814 23.1664 2.4883C24.7914 2.13283 26.4672 2.10236 28.2851 2.39689ZM23.5218 42.1485C25.2179 45.236 25.4109 45.5 26 45.5C26.5992 45.5 26.8023 45.2258 28.4172 42.2703C29.2804 40.7063 30.032 39.3555 30.0929 39.2641C30.225 39.1016 31.3523 39.1524 34.2265 39.4672C41.7828 40.2899 47.6328 42.4735 47.6328 44.4641C47.6328 45.8555 43.9258 47.6328 38.9492 48.6383C34.8664 49.461 31.1289 49.786 26 49.786C20.8711 49.786 17.1336 49.461 13.0508 48.6383C8.07419 47.6328 4.36716 45.8555 4.36716 44.4641C4.36716 42.7883 8.50075 40.95 14.5437 39.9242C16.7679 39.5485 20.9117 39.0914 21.6734 39.1422C21.8156 39.1524 22.2828 39.9039 23.5218 42.1485Z" fill="#ED5C18"/>
<path d="M24.6492 6.60158C21.7851 7.11954 19.4593 8.86642 18.2304 11.4055C17.6312 12.6649 17.4687 13.3352 17.3976 14.7875C17.2859 17.2352 18.0375 19.2969 19.6828 21.0438C21.1859 22.6281 22.9632 23.5219 25.1164 23.7555C29.5039 24.243 33.607 21.2164 34.4906 16.8188C34.6937 15.8438 34.6328 13.8836 34.3789 12.9492C34.1148 11.9945 33.3734 10.5422 32.7132 9.7297C31.1187 7.74923 28.864 6.63205 26.3046 6.55079C25.6648 6.53048 24.9132 6.55079 24.6492 6.60158ZM27.4726 8.85626C27.757 8.9172 28.2648 9.08986 28.6101 9.2422C30.8851 10.268 32.307 12.3297 32.4695 14.8281C32.5812 16.6766 31.9109 18.393 30.5296 19.7539C29.2296 21.0438 27.8179 21.6328 26 21.6328C24.182 21.6328 22.7703 21.0438 21.4703 19.7539C20.089 18.393 19.4187 16.6766 19.5304 14.8281C19.7437 11.5578 22.0898 9.12033 25.4414 8.69376C25.8578 8.64298 26.8632 8.72423 27.4726 8.85626Z" fill="#3E4450"/>
</svg>
