<svg width="50" height="50" viewBox="0 0 50 50" fill="none" xmlns="http://www.w3.org/2000/svg">
<circle cx="25" cy="25" r="25" fill="#ED5C18"/>
<path d="M32.5 12.5H17.5C15.425 12.5 13.75 14.1625 13.75 16.2125V29.85C13.75 31.9 15.425 33.5625 17.5 33.5625H18.45C19.45 33.5625 20.4 33.95 21.1 34.65L23.2375 36.7625C24.2125 37.725 25.8 37.725 26.775 36.7625L28.9125 34.65C29.6125 33.95 30.575 33.5625 31.5625 33.5625H32.5C34.575 33.5625 36.25 31.9 36.25 29.85V16.2125C36.25 14.1625 34.575 12.5 32.5 12.5ZM25 17.1875C26.6125 17.1875 27.9125 18.4875 27.9125 20.1C27.9125 21.7125 26.6125 23.0125 25 23.0125C23.3875 23.0125 22.0875 21.7 22.0875 20.1C22.0875 18.4875 23.3875 17.1875 25 17.1875ZM28.35 28.825H21.65C20.6375 28.825 20.05 27.7 20.6125 26.8625C21.4625 25.6 23.1125 24.75 25 24.75C26.8875 24.75 28.5375 25.6 29.3875 26.8625C29.95 27.7 29.35 28.825 28.35 28.825Z" fill="white"/>
</svg>
