<svg width="420" height="495" viewBox="0 0 420 495" fill="none" xmlns="http://www.w3.org/2000/svg">
<rect x="177" y="5" width="231" height="457" rx="48" fill="white" stroke="#E2E2E2" stroke-width="9"/>
<rect x="239" y="3" width="108" height="17" rx="8.5" fill="#E2E2E2"/>
<path d="M327.406 65.8543V68.4108C327.445 68.9158 327.288 69.4166 326.968 69.8092C326.827 69.961 326.655 70.0811 326.463 70.1613C326.272 70.2415 326.066 70.2801 325.858 70.2745C325.654 70.2804 325.45 70.2413 325.262 70.1599C325.074 70.0785 324.907 69.9568 324.771 69.8034C324.46 69.4094 324.308 68.9132 324.345 68.4127V59.8863C324.345 58.5112 324.842 57.8234 325.836 57.823C326.045 57.8044 326.255 57.8388 326.447 57.9231C326.64 58.0073 326.807 58.1386 326.935 58.3048C327.19 58.7353 327.318 59.2287 327.305 59.7287C327.597 59.1934 327.978 58.7119 328.432 58.3048C328.872 57.9655 329.419 57.7946 329.974 57.823C330.628 57.8261 331.271 57.9917 331.846 58.3048C332.105 58.4074 332.328 58.5828 332.49 58.8098C332.651 59.0368 332.743 59.3056 332.754 59.5837C332.759 59.7566 332.727 59.9286 332.661 60.0882C332.594 60.2478 332.494 60.3913 332.367 60.5092C332.148 60.7358 331.848 60.8666 331.532 60.8734C331.254 60.8343 330.982 60.7648 330.719 60.6662C330.353 60.539 329.969 60.4691 329.581 60.459C329.184 60.442 328.794 60.5673 328.482 60.8124C328.168 61.0936 327.939 61.4565 327.82 61.8606C327.649 62.3971 327.54 62.9517 327.495 63.5132C327.435 64.1544 327.405 64.9347 327.406 65.8543Z" fill="#EF4B46"/>
<path d="M259.545 55.4596L263.267 66.4802L267.002 55.3795C267.196 54.7964 267.341 54.3909 267.439 54.1629C267.547 53.9211 267.712 53.7095 267.921 53.5463C268.186 53.35 268.511 53.2526 268.84 53.2711C269.118 53.2697 269.391 53.3433 269.631 53.484C269.867 53.6198 270.064 53.815 270.203 54.0504C270.335 54.2647 270.407 54.511 270.41 54.7629C270.409 54.9423 270.386 55.1208 270.343 55.295C270.298 55.485 270.242 55.6722 270.175 55.8556C270.108 56.0386 270.041 56.2274 269.973 56.4219L265.993 67.1641C265.85 67.5752 265.708 67.9657 265.566 68.3356C265.438 68.6781 265.273 69.0053 265.073 69.3113C264.882 69.5968 264.626 69.8336 264.327 70.0029C263.978 70.1918 263.585 70.2846 263.188 70.2718C262.792 70.2844 262.4 70.1937 262.05 70.0086C261.748 69.8401 261.49 69.6017 261.299 69.3132C261.097 69.0052 260.93 68.6764 260.8 68.3324C260.658 67.9663 260.516 67.5775 260.373 67.1661L256.461 56.5141C256.394 56.3196 256.324 56.1289 256.254 55.942C256.18 55.7448 256.12 55.5426 256.074 55.3369C256.03 55.156 256.005 54.9708 256 54.7845C256.003 54.5887 256.045 54.3955 256.124 54.2163C256.203 54.0371 256.318 53.8756 256.46 53.7415C256.609 53.5871 256.789 53.4655 256.988 53.3844C257.187 53.3033 257.4 53.2645 257.615 53.2705C257.844 53.247 258.075 53.2825 258.287 53.3738C258.498 53.465 258.683 53.6089 258.823 53.7917C259.136 54.3136 259.378 54.8744 259.545 55.4596Z" fill="#F17A39"/>
<path d="M292.499 61.3335L286.893 67.6015H292.892C293.288 67.5728 293.68 67.6952 293.989 67.9441C294.111 68.0556 294.207 68.1919 294.27 68.3439C294.334 68.4958 294.365 68.6598 294.359 68.8245C294.364 68.9828 294.334 69.1404 294.271 69.2857C294.208 69.4311 294.114 69.5608 293.995 69.6654C293.679 69.9057 293.286 70.0216 292.89 69.9909H284.594C284.127 70.027 283.662 69.8914 283.288 69.6095C283.036 69.3783 282.882 69.0593 282.859 68.7183C282.835 68.3772 282.943 68.04 283.161 67.7763C283.363 67.511 283.781 67.0237 284.417 66.3144C285.09 65.5673 285.701 64.8907 286.25 64.2848C286.8 63.6788 287.31 63.1125 287.781 62.5857C288.252 62.059 288.642 61.6124 288.953 61.2458C289.263 60.8793 289.511 60.5653 289.698 60.3038H285.146C284.665 60.323 284.185 60.2662 283.722 60.1354C283.4 60.0235 283.239 59.7281 283.24 59.2493C283.234 59.0907 283.263 58.9328 283.326 58.7872C283.389 58.6416 283.484 58.5121 283.604 58.4083C283.9 58.1813 284.267 58.0689 284.639 58.0918H291.67C292.185 58.0639 292.699 58.1621 293.167 58.3778C293.343 58.4813 293.485 58.6329 293.578 58.8149C293.67 58.9968 293.708 59.2014 293.688 59.4044C293.686 59.5786 293.651 59.751 293.587 59.9129C293.531 60.066 293.456 60.2111 293.363 60.3445C293.28 60.4564 293.168 60.5928 293.026 60.7538C292.883 60.9149 292.708 61.1081 292.499 61.3335Z" fill="#F48046"/>
<path d="M297.691 56.402C297.291 56.4113 296.901 56.2716 296.598 56.0098C296.454 55.867 296.339 55.6967 296.261 55.5091C296.184 55.3214 296.144 55.1201 296.145 54.9169C296.146 54.7138 296.188 54.5129 296.267 54.3261C296.347 54.1393 296.463 53.9702 296.609 53.8289C296.903 53.5557 297.289 53.4053 297.69 53.4088C298.076 53.405 298.45 53.5404 298.745 53.7902C298.901 53.9276 299.024 54.0991 299.104 54.2916C299.183 54.484 299.218 54.6921 299.204 54.9C299.215 55.1057 299.181 55.3113 299.103 55.5022C299.026 55.6931 298.907 55.8645 298.755 56.0041C298.464 56.2666 298.084 56.4088 297.691 56.402ZM299.205 59.5642V68.4123C299.242 68.9147 299.085 69.4122 298.767 69.803C298.627 69.9566 298.455 70.0781 298.264 70.1594C298.072 70.2407 297.866 70.2798 297.658 70.274C297.451 70.2806 297.245 70.2407 297.056 70.1573C296.867 70.0739 296.699 69.9492 296.564 69.7922C296.261 69.3992 296.111 68.9086 296.144 68.4129V59.6539C296.107 59.1613 296.257 58.6729 296.564 58.286C296.702 58.1347 296.872 58.0153 297.06 57.936C297.249 57.8566 297.453 57.8192 297.658 57.8264C297.865 57.8203 298.07 57.8581 298.262 57.9373C298.453 58.0165 298.625 58.1353 298.767 58.286C299.076 58.6379 299.233 59.0972 299.205 59.5642H299.205Z" fill="#F07A4F"/>
<path d="M302.535 58.0946H302.871V56.2563C302.871 55.763 302.885 55.3762 302.911 55.0956C302.929 54.8412 303.004 54.5941 303.129 54.3723C303.253 54.1598 303.431 53.9842 303.646 53.8638C303.874 53.7318 304.133 53.6639 304.397 53.6674C304.792 53.6698 305.17 53.8265 305.451 54.104C305.657 54.2926 305.796 54.5424 305.849 54.8166C305.914 55.2113 305.942 55.6111 305.933 56.0109V58.0965H307.055C307.412 58.0716 307.766 58.1816 308.047 58.4047C308.158 58.5035 308.247 58.6255 308.306 58.7621C308.365 58.8987 308.393 59.0467 308.389 59.1955C308.403 59.3716 308.364 59.548 308.277 59.7018C308.19 59.8557 308.059 59.98 307.901 60.0587C307.46 60.246 306.982 60.3305 306.503 60.3059H305.931V65.9351C305.925 66.3038 305.942 66.6725 305.982 67.0392C306.004 67.2714 306.098 67.4909 306.25 67.6672C306.345 67.7552 306.458 67.8221 306.581 67.8636C306.703 67.9051 306.833 67.9203 306.962 67.9081C307.208 67.8999 307.452 67.868 307.691 67.8128C307.927 67.7581 308.167 67.7261 308.409 67.7174C308.535 67.719 308.658 67.7461 308.773 67.7972C308.888 67.8482 308.991 67.9221 309.076 68.0143C309.173 68.1098 309.249 68.2243 309.301 68.3505C309.352 68.4768 309.376 68.6122 309.373 68.7484C309.369 68.9967 309.289 69.2378 309.145 69.44C309.001 69.6422 308.799 69.796 308.566 69.8811C307.83 70.1793 307.038 70.3131 306.245 70.2733C305.489 70.3214 304.735 70.1543 304.07 69.7915C303.588 69.4864 303.241 69.0089 303.1 68.4567C302.927 67.7107 302.85 66.9458 302.87 66.1804V60.304H302.467C302.103 60.3292 301.743 60.2171 301.458 59.99C301.345 59.8909 301.256 59.7682 301.196 59.6307C301.135 59.4932 301.106 59.3442 301.11 59.1942C301.107 59.0433 301.138 58.8936 301.201 58.7565C301.264 58.6195 301.358 58.4987 301.475 58.4035C301.78 58.178 302.156 58.0685 302.535 58.0946Z" fill="#EB674C"/>
<path d="M321.956 64.0492C321.965 64.9088 321.82 65.7632 321.529 66.572C321.263 67.3136 320.843 67.9902 320.296 68.5571C319.751 69.1139 319.094 69.5474 318.368 69.8284C317.562 70.1348 316.706 70.2858 315.845 70.2733C314.99 70.2866 314.141 70.1342 313.344 69.8246C312.617 69.5365 311.96 69.0972 311.415 68.5356C310.871 67.9741 310.453 67.3032 310.188 66.5676C309.899 65.7602 309.757 64.9078 309.767 64.0505C309.757 63.1844 309.902 62.3234 310.194 61.508C310.457 60.7723 310.874 60.1007 311.416 59.5375C311.96 58.983 312.618 58.5528 313.344 58.2764C314.966 57.6842 316.745 57.6863 318.366 58.2821C319.097 58.5633 319.759 58.9996 320.306 59.561C320.853 60.1223 321.272 60.7954 321.534 61.534C321.822 62.3409 321.965 63.1925 321.956 64.0492ZM318.884 64.0492C318.946 63.0119 318.655 61.9841 318.057 61.1336C317.798 60.7962 317.461 60.5256 317.076 60.3442C316.691 60.1628 316.268 60.0758 315.843 60.0905C315.28 60.0798 314.728 60.2425 314.261 60.5564C313.781 60.8984 313.414 61.3766 313.207 61.9294C312.716 63.2915 312.714 64.7821 313.202 66.1455C313.408 66.6954 313.771 67.1729 314.245 67.5191C314.714 67.8418 315.273 68.0084 315.843 67.9952C316.269 68.01 316.692 67.9226 317.077 67.7402C317.463 67.5578 317.799 67.2859 318.057 66.9471C318.652 66.1021 318.943 65.0808 318.884 64.0492Z" fill="#EE5449"/>
<path d="M274.542 59.2048C274.153 59.506 273.784 59.8303 273.434 60.1761C273.254 60.3974 273.134 60.6624 273.089 60.9446C272.965 61.6291 272.898 62.3245 272.802 63.0142C272.777 63.1916 272.683 63.3522 272.541 63.4615C272.4 63.5708 272.22 63.6202 272.042 63.599C271.951 63.5915 271.862 63.5652 271.782 63.5217C271.701 63.4783 271.63 63.4186 271.574 63.3465C271.517 63.2744 271.476 63.1914 271.454 63.1027C271.431 63.014 271.427 62.9215 271.441 62.8311C271.547 61.9273 271.664 61.0253 271.772 60.1214C271.812 59.7773 271.984 59.4623 272.253 59.2442C272.852 58.7357 273.443 58.2234 274.055 57.7333C274.638 57.2305 275.387 56.9609 276.157 56.9763C276.411 56.9631 276.663 57.0276 276.88 57.1612C277.097 57.2948 277.268 57.4913 277.37 57.7244C277.665 58.3421 277.914 58.9808 278.115 59.6352C278.189 59.9419 278.338 60.2257 278.547 60.4619C278.756 60.698 279.02 60.8793 279.316 60.9897C279.837 61.2115 280.346 61.4626 280.857 61.708C281.015 61.7802 281.138 61.9115 281.201 62.0737C281.263 62.2359 281.259 62.4161 281.19 62.5756C281.158 62.6552 281.11 62.7273 281.049 62.7873C280.987 62.8474 280.914 62.8942 280.834 62.9247C280.754 62.9553 280.668 62.9689 280.582 62.9649C280.497 62.9608 280.413 62.9391 280.336 62.901C279.5 62.5216 278.655 62.151 277.843 61.7232C277.58 61.5336 277.354 61.2965 277.178 61.024C277.097 60.8819 277.004 60.7471 276.899 60.621C276.786 61.1709 276.709 61.7328 276.55 62.2686C276.482 62.4881 276.469 62.7206 276.511 62.9463C276.553 63.172 276.649 63.3841 276.791 63.5646C277.878 65.2192 278.928 66.9062 279.985 68.5881C280.065 68.6947 280.122 68.8168 280.153 68.9467C280.183 69.0765 280.186 69.2113 280.161 69.3423C280.136 69.4734 280.085 69.5978 280.009 69.7078C279.934 69.8177 279.836 69.9107 279.723 69.9808C279.609 70.051 279.483 70.0967 279.35 70.1151C279.218 70.1336 279.084 70.1243 278.956 70.0878C278.827 70.0514 278.708 69.9886 278.605 69.9035C278.503 69.8185 278.419 69.7129 278.359 69.5936C277.506 68.241 276.646 66.8935 275.793 65.5415C275.198 64.5982 274.602 63.6549 274.024 62.7008C273.938 62.5461 273.906 62.367 273.935 62.1923C274.116 61.2262 274.322 60.2613 274.542 59.2048Z" fill="#444444"/>
<path d="M279.194 70.3314C278.984 70.3272 278.779 70.2668 278.6 70.1563C278.421 70.0459 278.275 69.8894 278.177 69.7034C277.736 69.0029 277.293 68.3037 276.848 67.6058C276.436 66.9553 276.023 66.3044 275.611 65.6531L275.584 65.6099C275.007 64.6958 274.41 63.75 273.84 62.8086C273.728 62.6104 273.687 62.3798 273.724 62.1552C273.86 61.4325 274.008 60.7142 274.169 59.9547L274.212 59.7513C273.99 59.9245 273.781 60.1142 273.588 60.3189C273.433 60.5108 273.331 60.7401 273.293 60.9837C273.215 61.4153 273.16 61.8609 273.106 62.2932C273.074 62.5442 273.042 62.7953 273.007 63.0464C272.973 63.278 272.85 63.4873 272.665 63.6298C272.479 63.7722 272.245 63.8366 272.012 63.8091C271.894 63.7981 271.779 63.763 271.674 63.7059C271.57 63.6488 271.478 63.571 271.404 63.4772C271.331 63.3835 271.277 63.2757 271.247 63.1605C271.217 63.0453 271.21 62.9252 271.228 62.8074C271.289 62.2815 271.353 61.7558 271.419 61.2304C271.466 60.8528 271.513 60.4746 271.558 60.097C271.604 59.6981 271.805 59.333 272.117 59.08L272.597 58.6726C273.027 58.3058 273.472 57.927 273.922 57.5666C274.544 57.0293 275.344 56.7427 276.166 56.7625C276.46 56.749 276.751 56.8254 277.001 56.9816C277.251 57.1377 277.447 57.3661 277.564 57.6365L277.642 57.8132C277.912 58.3832 278.138 58.9726 278.319 59.5765C278.385 59.8524 278.518 60.1078 278.707 60.32C278.895 60.5321 279.133 60.6944 279.4 60.7924C279.835 60.978 280.267 61.1859 280.684 61.3867L280.949 61.5139C281.157 61.61 281.319 61.7834 281.4 61.9972C281.482 62.211 281.476 62.4481 281.385 62.658C281.342 62.7631 281.277 62.8583 281.196 62.9376C281.114 63.0169 281.018 63.0788 280.911 63.1194C280.805 63.16 280.691 63.1784 280.578 63.1736C280.464 63.1688 280.353 63.1409 280.25 63.0915L279.939 62.9517C279.213 62.625 278.462 62.2874 277.745 61.9073C277.506 61.7575 277.302 61.5581 277.147 61.3225C277.103 61.2653 277.059 61.2081 277.015 61.1541L277.012 61.1484V61.1573C276.947 61.5505 276.86 61.9398 276.753 62.3237C276.695 62.5138 276.684 62.7153 276.721 62.9106C276.759 63.1059 276.844 63.2889 276.969 63.4436C277.868 64.8192 278.757 66.2328 279.616 67.5994L280.165 68.4721C280.283 68.6471 280.355 68.8488 280.375 69.0587C280.394 69.2687 280.361 69.4803 280.278 69.6741C280.195 69.8487 280.069 69.9993 279.912 70.1116C279.754 70.2239 279.571 70.2943 279.379 70.3161C279.318 70.3258 279.256 70.3309 279.194 70.3314ZM274.872 58.6433L274.748 59.2472C274.693 59.5167 274.638 59.7799 274.585 60.0386C274.428 60.7969 274.278 61.5126 274.145 62.2309C274.126 62.3539 274.149 62.4796 274.208 62.5887C274.776 63.5269 275.372 64.4708 275.948 65.3855L275.976 65.4287C276.384 66.0788 276.795 66.7284 277.209 67.3776C277.653 68.0772 278.096 68.7764 278.538 69.4752C278.607 69.6197 278.719 69.7386 278.86 69.8145C279 69.8904 279.161 69.9194 279.32 69.8972C279.442 69.8855 279.56 69.8423 279.661 69.7718C279.762 69.7013 279.843 69.6059 279.896 69.4949C279.95 69.365 279.971 69.2235 279.956 69.0835C279.94 68.9436 279.89 68.8098 279.809 68.6946L279.258 67.8225C278.4 66.4572 277.512 65.0448 276.615 63.6731C276.457 63.4664 276.351 63.2253 276.304 62.9695C276.258 62.7137 276.273 62.4506 276.347 62.2016C276.45 61.8324 276.533 61.4579 276.595 61.0797C276.626 60.91 276.659 60.7403 276.693 60.5712L276.768 60.2038L277.043 60.4581C277.131 60.5449 277.205 60.6453 277.261 60.7556C277.284 60.8001 277.31 60.8426 277.34 60.8827C277.388 60.9412 277.434 61.0015 277.481 61.0626C277.603 61.2474 277.759 61.4066 277.942 61.531C278.647 61.9048 279.391 62.2391 280.112 62.5633L280.423 62.7038C280.475 62.7303 280.531 62.7456 280.589 62.7489C280.647 62.7521 280.705 62.7432 280.76 62.7226C280.814 62.7021 280.863 62.6704 280.905 62.6296C280.946 62.5888 280.978 62.5398 281 62.4857C281.047 62.3763 281.05 62.2525 281.006 62.1413C280.963 62.0302 280.877 61.9408 280.768 61.8927L280.502 61.7656C280.089 61.5666 279.662 61.3607 279.236 61.1789C278.911 61.0565 278.62 60.8566 278.39 60.5965C278.16 60.3364 277.996 60.024 277.914 59.6864C277.738 59.1032 277.519 58.5338 277.258 57.9829L277.18 57.8056C277.093 57.6087 276.948 57.4432 276.764 57.3317C276.58 57.2203 276.366 57.1682 276.152 57.1827C275.432 57.1691 274.732 57.4224 274.188 57.8939C273.743 58.2505 273.298 58.6275 272.872 58.9923C272.712 59.1288 272.552 59.265 272.391 59.401C272.161 59.5844 272.013 59.8516 271.979 60.1441C271.934 60.5225 271.887 60.9009 271.839 61.2793C271.776 61.8037 271.712 62.3281 271.649 62.8531C271.638 62.9162 271.64 62.9809 271.655 63.043C271.671 63.1051 271.699 63.1632 271.739 63.2136C271.778 63.264 271.828 63.3056 271.884 63.3356C271.941 63.3656 272.003 63.3833 272.067 63.3877C272.19 63.4019 272.314 63.3674 272.412 63.2916C272.51 63.2158 272.574 63.1048 272.591 62.9822C272.627 62.7343 272.655 62.4851 272.689 62.2366C272.744 61.7993 272.8 61.3467 272.88 60.9017C272.931 60.5808 273.068 60.2796 273.276 60.0297C273.51 59.7855 273.762 59.5597 274.031 59.354C274.15 59.2561 274.275 59.1544 274.404 59.0438L274.872 58.6433Z" fill="#444444"/>
<path d="M273.626 63.9255C274.057 64.5021 274.452 65.0309 274.846 65.5642C274.864 65.5902 274.875 65.6193 274.881 65.6499C274.886 65.6805 274.885 65.7119 274.878 65.7422C274.78 66.3222 274.571 66.8779 274.262 67.3789C273.662 68.1347 273.107 68.9267 272.529 69.7003C272.469 69.8059 272.388 69.8976 272.29 69.9693C272.192 70.041 272.079 70.091 271.961 70.116C271.842 70.1411 271.719 70.1405 271.6 70.1144C271.482 70.0883 271.37 70.0373 271.273 69.9647C271.176 69.8917 271.096 69.7993 271.037 69.6934C270.978 69.5875 270.942 69.4704 270.931 69.3498C270.921 69.2291 270.935 69.1076 270.974 68.9929C271.013 68.8782 271.076 68.7729 271.158 68.6839C271.705 67.9402 272.262 67.2035 272.801 66.4541C272.923 66.2797 273.015 66.0864 273.074 65.882C273.262 65.2591 273.43 64.6266 273.626 63.9255Z" fill="#444444"/>
<path d="M271.776 70.3516C271.55 70.3478 271.33 70.2721 271.15 70.1355C271.039 70.0587 270.946 69.9604 270.874 69.8465C270.803 69.7325 270.755 69.6053 270.734 69.4725C270.714 69.311 270.726 69.1471 270.77 68.9903C270.813 68.8335 270.888 68.6869 270.988 68.5591C271.185 68.2926 271.382 68.0262 271.58 67.7601C271.927 67.2936 272.286 66.8105 272.63 66.3319C272.738 66.1766 272.82 66.0048 272.872 65.8233C273.007 65.3784 273.13 64.9296 273.261 64.4542L273.423 63.8694L273.539 63.4575L274.062 64.1567C274.393 64.5985 274.707 65.0167 275.016 65.4382C275.053 65.4907 275.077 65.5506 275.088 65.6138C275.099 65.677 275.096 65.7418 275.079 65.8036C275.035 65.9448 274.999 66.0871 274.962 66.2371C274.879 66.6951 274.697 67.1292 274.427 67.5084C274.027 68.0125 273.639 68.5426 273.264 69.0555C273.073 69.3098 272.888 69.5698 272.698 69.8247C272.597 69.9792 272.461 70.1075 272.3 70.1991C272.14 70.2907 271.96 70.343 271.776 70.3516ZM273.715 64.3951L273.668 64.5661C273.535 65.0434 273.413 65.4954 273.276 65.9448C273.21 66.1718 273.107 66.3865 272.972 66.5804C272.626 67.0622 272.267 67.5459 271.918 68.0144C271.721 68.2796 271.524 68.5456 271.328 68.8121C271.26 68.8953 271.21 68.9909 271.18 69.0936C271.15 69.1962 271.14 69.3038 271.151 69.4102C271.164 69.4879 271.192 69.5621 271.234 69.6285C271.276 69.6949 271.332 69.7521 271.396 69.7967C271.472 69.8524 271.559 69.8912 271.65 69.9104C271.742 69.9296 271.837 69.9288 271.929 69.9079C272.02 69.8871 272.106 69.8468 272.18 69.7898C272.255 69.7327 272.316 69.6603 272.36 69.5774C272.55 69.3231 272.738 69.0676 272.924 68.8108C273.301 68.2947 273.692 67.7608 274.097 67.2503C274.328 66.9171 274.484 66.5375 274.553 66.138C274.589 65.9918 274.627 65.8411 274.674 65.693V65.6829C274.37 65.271 274.057 64.8534 273.727 64.4116L273.715 64.3951Z" fill="#444444"/>
<path d="M278.607 54.765C278.607 55.0887 278.511 55.4051 278.331 55.674C278.151 55.943 277.895 56.1523 277.596 56.2753C277.296 56.3984 276.967 56.4296 276.65 56.365C276.333 56.3004 276.042 56.1429 275.815 55.9126C275.587 55.6823 275.434 55.3895 275.373 55.0716C275.313 54.7536 275.348 54.4249 275.475 54.1272C275.602 53.8295 275.815 53.5762 276.086 53.3997C276.357 53.2232 276.675 53.1314 276.998 53.1359C277.426 53.1437 277.834 53.3185 278.134 53.6229C278.435 53.9274 278.604 54.3373 278.607 54.765Z" fill="#444444"/>
<path d="M276.977 56.6141C276.487 56.6088 276.019 56.4106 275.675 56.0625C275.33 55.7144 275.137 55.2446 275.137 54.7549C275.159 54.281 275.364 53.8342 275.708 53.5073C276.052 53.1805 276.508 52.9988 276.983 53C277.457 53.0012 277.913 53.1853 278.255 53.5139C278.597 53.8426 278.799 54.2905 278.82 54.7644C278.82 55.254 278.626 55.7237 278.28 56.0705C277.935 56.4173 277.466 56.6128 276.976 56.6141H276.977ZM276.982 53.3463C276.606 53.3475 276.246 53.4962 275.98 53.7604C275.713 54.0246 275.56 54.3832 275.556 54.7587C275.557 55.1358 275.707 55.4972 275.973 55.7651C276.238 56.033 276.598 56.1861 276.975 56.1914C277.352 56.1891 277.713 56.0375 277.979 55.77C278.245 55.5024 278.394 55.1404 278.394 54.7631C278.393 54.3907 278.246 54.0336 277.985 53.7684C277.723 53.5032 277.368 53.3512 276.996 53.345L276.982 53.3463Z" fill="#444444"/>
<g filter="url(#filter0_d_273_990)">
<rect x="191" y="105" width="202.49" height="281.686" rx="5.2754" fill="white"/>
</g>
<rect x="204.499" y="353.044" width="176.71" height="20.1528" rx="1.47787" fill="#ED5C18"/>
<path d="M274.178 362.146C274.178 362.63 273.981 363.159 273.381 363.4C274.097 363.571 274.509 364.287 274.509 364.878C274.509 365.855 273.828 366.688 272.655 366.688H270.102V360.516H272.467C273.515 360.516 274.178 361.134 274.178 362.146ZM271.061 363.051H272.431C272.933 363.051 273.192 362.648 273.192 362.182C273.192 361.681 272.879 361.385 272.368 361.385H271.061V363.051ZM272.583 363.866H271.061V365.819H272.61C273.184 365.819 273.515 365.344 273.515 364.869C273.515 364.412 273.175 363.866 272.583 363.866ZM277.482 365.881C278.181 365.881 278.754 365.371 278.754 364.583C278.754 363.821 278.181 363.32 277.482 363.32C276.792 363.32 276.219 363.821 276.219 364.583C276.219 365.371 276.792 365.881 277.482 365.881ZM277.482 366.777C276.3 366.777 275.305 365.908 275.305 364.583C275.305 363.257 276.3 362.415 277.482 362.415C278.673 362.415 279.676 363.257 279.676 364.583C279.676 365.908 278.673 366.777 277.482 366.777ZM282.608 365.881C283.306 365.881 283.879 365.371 283.879 364.583C283.879 363.821 283.306 363.32 282.608 363.32C281.918 363.32 281.345 363.821 281.345 364.583C281.345 365.371 281.918 365.881 282.608 365.881ZM282.608 366.777C281.425 366.777 280.431 365.908 280.431 364.583C280.431 363.257 281.425 362.415 282.608 362.415C283.799 362.415 284.802 363.257 284.802 364.583C284.802 365.908 283.799 366.777 282.608 366.777ZM288.521 366.688L286.739 364.744V366.688H285.825V360.23H286.739V363.884L288.065 362.505H289.301L287.518 364.323L289.704 366.688H288.521ZM295.165 361.394H293.75V363.553H295.129C295.819 363.553 296.097 363.006 296.097 362.478C296.097 361.958 295.828 361.394 295.165 361.394ZM295.488 364.386L297.109 366.688H295.954L294.413 364.421H293.75V366.688H292.792V360.516H295.201C296.527 360.516 297.082 361.502 297.082 362.478C297.082 363.373 296.625 364.269 295.488 364.386ZM299.918 365.881C300.616 365.881 301.19 365.371 301.19 364.583C301.19 363.821 300.616 363.32 299.918 363.32C299.228 363.32 298.655 363.821 298.655 364.583C298.655 365.371 299.228 365.881 299.918 365.881ZM299.918 366.777C298.735 366.777 297.741 365.908 297.741 364.583C297.741 363.257 298.735 362.415 299.918 362.415C301.109 362.415 302.112 363.257 302.112 364.583C302.112 365.908 301.109 366.777 299.918 366.777ZM305.043 365.881C305.742 365.881 306.315 365.371 306.315 364.583C306.315 363.821 305.742 363.32 305.043 363.32C304.354 363.32 303.78 363.821 303.78 364.583C303.78 365.371 304.354 365.881 305.043 365.881ZM305.043 366.777C303.861 366.777 302.867 365.908 302.867 364.583C302.867 363.257 303.861 362.415 305.043 362.415C306.235 362.415 307.238 363.257 307.238 364.583C307.238 365.908 306.235 366.777 305.043 366.777ZM313.026 363.32C312.417 363.32 312.014 363.759 312.014 364.439V366.688H311.092V364.341C311.083 363.696 310.742 363.32 310.241 363.32C309.703 363.32 309.184 363.615 309.184 364.439V366.688H308.261V362.505H309.184V363.132C309.47 362.558 310.16 362.415 310.5 362.415C311.172 362.415 311.575 362.711 311.817 363.248C312.202 362.523 312.847 362.415 313.223 362.415C314.262 362.415 314.835 363.087 314.835 364.278V366.688H313.913V364.359C313.913 363.705 313.564 363.32 313.026 363.32Z" fill="white"/>
<g filter="url(#filter1_d_273_990)">
<rect x="204.499" y="296.926" width="176.391" height="42.8275" rx="1.43726" fill="white"/>
</g>
<path d="M231.025 308.575H228.819L228.412 309.7H227.715L229.544 304.669H230.307L232.129 309.7H231.432L231.025 308.575ZM230.837 308.037L229.922 305.482L229.007 308.037H230.837ZM233.267 305.076C233.141 305.076 233.035 305.032 232.948 304.945C232.861 304.858 232.817 304.752 232.817 304.626C232.817 304.5 232.861 304.393 232.948 304.306C233.035 304.219 233.141 304.176 233.267 304.176C233.388 304.176 233.49 304.219 233.572 304.306C233.659 304.393 233.703 304.5 233.703 304.626C233.703 304.752 233.659 304.858 233.572 304.945C233.49 305.032 233.388 305.076 233.267 305.076ZM233.586 305.722V309.7H232.926V305.722H233.586ZM235.373 306.368C235.489 306.14 235.654 305.964 235.866 305.838C236.084 305.712 236.348 305.649 236.658 305.649V306.332H236.483C235.743 306.332 235.373 306.733 235.373 307.537V309.7H234.712V305.722H235.373V306.368ZM239.109 307.166C239.109 306.673 239.22 306.23 239.443 305.838C239.665 305.441 239.968 305.131 240.35 304.909C240.737 304.686 241.165 304.575 241.635 304.575C242.186 304.575 242.668 304.708 243.079 304.974C243.491 305.24 243.791 305.618 243.979 306.107H243.188C243.048 305.802 242.845 305.567 242.578 305.402C242.317 305.238 242.003 305.156 241.635 305.156C241.281 305.156 240.964 305.238 240.684 305.402C240.403 305.567 240.183 305.802 240.023 306.107C239.864 306.407 239.784 306.76 239.784 307.166C239.784 307.568 239.864 307.921 240.023 308.226C240.183 308.526 240.403 308.758 240.684 308.923C240.964 309.088 241.281 309.17 241.635 309.17C242.003 309.17 242.317 309.09 242.578 308.93C242.845 308.766 243.048 308.531 243.188 308.226H243.979C243.791 308.71 243.491 309.085 243.079 309.351C242.668 309.613 242.186 309.743 241.635 309.743C241.165 309.743 240.737 309.634 240.35 309.417C239.968 309.194 239.665 308.887 239.443 308.495C239.22 308.103 239.109 307.66 239.109 307.166ZM246.698 309.765C246.325 309.765 245.986 309.68 245.681 309.511C245.381 309.342 245.144 309.102 244.97 308.792C244.801 308.478 244.716 308.115 244.716 307.704C244.716 307.297 244.803 306.939 244.977 306.629C245.156 306.315 245.398 306.075 245.703 305.911C246.008 305.741 246.349 305.656 246.727 305.656C247.104 305.656 247.445 305.741 247.75 305.911C248.055 306.075 248.294 306.312 248.469 306.622C248.648 306.932 248.737 307.292 248.737 307.704C248.737 308.115 248.645 308.478 248.461 308.792C248.282 309.102 248.038 309.342 247.728 309.511C247.419 309.68 247.075 309.765 246.698 309.765ZM246.698 309.184C246.935 309.184 247.157 309.129 247.365 309.017C247.573 308.906 247.74 308.739 247.866 308.517C247.997 308.294 248.062 308.023 248.062 307.704C248.062 307.384 247.999 307.113 247.873 306.891C247.748 306.668 247.583 306.503 247.38 306.397C247.177 306.286 246.956 306.23 246.719 306.23C246.477 306.23 246.255 306.286 246.051 306.397C245.853 306.503 245.693 306.668 245.572 306.891C245.451 307.113 245.391 307.384 245.391 307.704C245.391 308.028 245.449 308.301 245.565 308.524C245.686 308.746 245.846 308.913 246.044 309.025C246.243 309.131 246.46 309.184 246.698 309.184ZM251.544 305.649C252.028 305.649 252.42 305.797 252.72 306.092C253.02 306.382 253.17 306.803 253.17 307.355V309.7H252.517V307.449C252.517 307.053 252.417 306.75 252.219 306.542C252.021 306.329 251.75 306.223 251.406 306.223C251.058 306.223 250.779 306.332 250.571 306.549C250.368 306.767 250.266 307.084 250.266 307.5V309.7H249.606V305.722H250.266V306.288C250.397 306.085 250.574 305.927 250.796 305.816C251.024 305.705 251.273 305.649 251.544 305.649ZM254.002 307.696C254.002 307.29 254.084 306.934 254.249 306.629C254.413 306.319 254.638 306.08 254.924 305.911C255.214 305.741 255.539 305.656 255.897 305.656C256.206 305.656 256.494 305.729 256.761 305.874C257.027 306.015 257.23 306.201 257.37 306.433V304.328H258.038V309.7H257.37V308.952C257.24 309.189 257.046 309.385 256.79 309.54C256.533 309.69 256.233 309.765 255.889 309.765C255.536 309.765 255.214 309.678 254.924 309.504C254.638 309.33 254.413 309.085 254.249 308.771C254.084 308.456 254.002 308.098 254.002 307.696ZM257.37 307.704C257.37 307.403 257.31 307.142 257.189 306.92C257.068 306.697 256.903 306.528 256.695 306.411C256.492 306.29 256.267 306.23 256.02 306.23C255.773 306.23 255.548 306.288 255.345 306.404C255.142 306.52 254.98 306.69 254.859 306.912C254.738 307.135 254.677 307.396 254.677 307.696C254.677 308.001 254.738 308.267 254.859 308.495C254.98 308.717 255.142 308.889 255.345 309.01C255.548 309.126 255.773 309.184 256.02 309.184C256.267 309.184 256.492 309.126 256.695 309.01C256.903 308.889 257.068 308.717 257.189 308.495C257.31 308.267 257.37 308.004 257.37 307.704ZM259.496 305.076C259.37 305.076 259.263 305.032 259.176 304.945C259.089 304.858 259.045 304.752 259.045 304.626C259.045 304.5 259.089 304.393 259.176 304.306C259.263 304.219 259.37 304.176 259.496 304.176C259.617 304.176 259.718 304.219 259.8 304.306C259.888 304.393 259.931 304.5 259.931 304.626C259.931 304.752 259.888 304.858 259.8 304.945C259.718 305.032 259.617 305.076 259.496 305.076ZM259.815 305.722V309.7H259.154V305.722H259.815ZM261.746 306.266V308.611C261.746 308.804 261.788 308.942 261.87 309.025C261.952 309.102 262.095 309.141 262.298 309.141H262.785V309.7H262.189C261.821 309.7 261.546 309.615 261.362 309.446C261.178 309.276 261.086 308.998 261.086 308.611V306.266H260.571V305.722H261.086V304.72H261.746V305.722H262.785V306.266H261.746ZM263.926 305.076C263.8 305.076 263.694 305.032 263.607 304.945C263.52 304.858 263.476 304.752 263.476 304.626C263.476 304.5 263.52 304.393 263.607 304.306C263.694 304.219 263.8 304.176 263.926 304.176C264.047 304.176 264.149 304.219 264.231 304.306C264.318 304.393 264.362 304.5 264.362 304.626C264.362 304.752 264.318 304.858 264.231 304.945C264.149 305.032 264.047 305.076 263.926 305.076ZM264.245 305.722V309.7H263.585V305.722H264.245ZM267.106 309.765C266.733 309.765 266.395 309.68 266.09 309.511C265.79 309.342 265.553 309.102 265.378 308.792C265.209 308.478 265.124 308.115 265.124 307.704C265.124 307.297 265.212 306.939 265.386 306.629C265.565 306.315 265.807 306.075 266.112 305.911C266.417 305.741 266.758 305.656 267.135 305.656C267.513 305.656 267.854 305.741 268.159 305.911C268.464 306.075 268.703 306.312 268.877 306.622C269.056 306.932 269.146 307.292 269.146 307.704C269.146 308.115 269.054 308.478 268.87 308.792C268.691 309.102 268.447 309.342 268.137 309.511C267.827 309.68 267.484 309.765 267.106 309.765ZM267.106 309.184C267.343 309.184 267.566 309.129 267.774 309.017C267.982 308.906 268.149 308.739 268.275 308.517C268.405 308.294 268.471 308.023 268.471 307.704C268.471 307.384 268.408 307.113 268.282 306.891C268.156 306.668 267.992 306.503 267.788 306.397C267.585 306.286 267.365 306.23 267.128 306.23C266.886 306.23 266.663 306.286 266.46 306.397C266.262 306.503 266.102 306.668 265.981 306.891C265.86 307.113 265.8 307.384 265.8 307.704C265.8 308.028 265.858 308.301 265.974 308.524C266.095 308.746 266.254 308.913 266.453 309.025C266.651 309.131 266.869 309.184 267.106 309.184ZM271.953 305.649C272.436 305.649 272.828 305.797 273.128 306.092C273.428 306.382 273.578 306.803 273.578 307.355V309.7H272.925V307.449C272.925 307.053 272.826 306.75 272.628 306.542C272.429 306.329 272.158 306.223 271.815 306.223C271.466 306.223 271.188 306.332 270.98 306.549C270.777 306.767 270.675 307.084 270.675 307.5V309.7H270.014V305.722H270.675V306.288C270.806 306.085 270.982 305.927 271.205 305.816C271.432 305.705 271.682 305.649 271.953 305.649ZM274.999 305.076C274.873 305.076 274.766 305.032 274.679 304.945C274.592 304.858 274.549 304.752 274.549 304.626C274.549 304.5 274.592 304.393 274.679 304.306C274.766 304.219 274.873 304.176 274.999 304.176C275.12 304.176 275.221 304.219 275.304 304.306C275.391 304.393 275.434 304.5 275.434 304.626C275.434 304.752 275.391 304.858 275.304 304.945C275.221 305.032 275.12 305.076 274.999 305.076ZM275.318 305.722V309.7H274.658V305.722H275.318ZM278.382 305.649C278.866 305.649 279.258 305.797 279.558 306.092C279.858 306.382 280.008 306.803 280.008 307.355V309.7H279.355V307.449C279.355 307.053 279.256 306.75 279.057 306.542C278.859 306.329 278.588 306.223 278.244 306.223C277.896 306.223 277.617 306.332 277.409 306.549C277.206 306.767 277.104 307.084 277.104 307.5V309.7H276.444V305.722H277.104V306.288C277.235 306.085 277.412 305.927 277.634 305.816C277.862 305.705 278.111 305.649 278.382 305.649ZM282.728 305.656C283.071 305.656 283.371 305.732 283.628 305.882C283.889 306.032 284.083 306.22 284.208 306.448V305.722H284.876V309.787C284.876 310.15 284.799 310.472 284.644 310.752C284.489 311.038 284.266 311.26 283.976 311.42C283.691 311.58 283.357 311.66 282.974 311.66C282.452 311.66 282.016 311.536 281.668 311.289C281.319 311.043 281.114 310.706 281.051 310.28H281.704C281.777 310.522 281.927 310.716 282.154 310.861C282.382 311.011 282.655 311.086 282.974 311.086C283.337 311.086 283.632 310.972 283.86 310.745C284.092 310.518 284.208 310.198 284.208 309.787V308.952C284.078 309.184 283.884 309.378 283.628 309.533C283.371 309.688 283.071 309.765 282.728 309.765C282.374 309.765 282.052 309.678 281.762 309.504C281.477 309.33 281.252 309.085 281.087 308.771C280.923 308.456 280.84 308.098 280.84 307.696C280.84 307.29 280.923 306.934 281.087 306.629C281.252 306.319 281.477 306.08 281.762 305.911C282.052 305.741 282.374 305.656 282.728 305.656ZM284.208 307.704C284.208 307.403 284.148 307.142 284.027 306.92C283.906 306.697 283.741 306.528 283.533 306.411C283.33 306.29 283.105 306.23 282.858 306.23C282.611 306.23 282.386 306.288 282.183 306.404C281.98 306.52 281.818 306.69 281.697 306.912C281.576 307.135 281.515 307.396 281.515 307.696C281.515 308.001 281.576 308.267 281.697 308.495C281.818 308.717 281.98 308.889 282.183 309.01C282.386 309.126 282.611 309.184 282.858 309.184C283.105 309.184 283.33 309.126 283.533 309.01C283.741 308.889 283.906 308.717 284.027 308.495C284.148 308.267 284.208 308.004 284.208 307.704Z" fill="#687888"/>
<path d="M231.417 327.16C231.417 327.581 231.272 327.932 230.982 328.212C230.696 328.488 230.258 328.626 229.668 328.626H228.695V330.738H228.035V325.679H229.668C230.239 325.679 230.672 325.817 230.967 326.093C231.267 326.368 231.417 326.724 231.417 327.16ZM229.668 328.082C230.036 328.082 230.307 328.002 230.481 327.842C230.655 327.682 230.742 327.455 230.742 327.16C230.742 326.535 230.384 326.223 229.668 326.223H228.695V328.082H229.668ZM232.899 327.406C233.015 327.179 233.18 327.002 233.392 326.877C233.61 326.751 233.874 326.688 234.184 326.688V327.37H234.009C233.269 327.37 232.899 327.772 232.899 328.575V330.738H232.238V326.76H232.899V327.406ZM236.681 330.804C236.308 330.804 235.97 330.719 235.665 330.55C235.365 330.38 235.128 330.141 234.953 329.831C234.784 329.516 234.699 329.153 234.699 328.742C234.699 328.336 234.787 327.977 234.961 327.668C235.14 327.353 235.382 327.114 235.687 326.949C235.991 326.78 236.333 326.695 236.71 326.695C237.088 326.695 237.429 326.78 237.734 326.949C238.038 327.114 238.278 327.351 238.452 327.661C238.631 327.97 238.721 328.331 238.721 328.742C238.721 329.153 238.629 329.516 238.445 329.831C238.266 330.141 238.022 330.38 237.712 330.55C237.402 330.719 237.059 330.804 236.681 330.804ZM236.681 330.223C236.918 330.223 237.141 330.167 237.349 330.056C237.557 329.945 237.724 329.778 237.85 329.555C237.98 329.332 238.046 329.061 238.046 328.742C238.046 328.423 237.983 328.152 237.857 327.929C237.731 327.706 237.567 327.542 237.363 327.435C237.16 327.324 236.94 327.269 236.703 327.269C236.461 327.269 236.238 327.324 236.035 327.435C235.837 327.542 235.677 327.706 235.556 327.929C235.435 328.152 235.374 328.423 235.374 328.742C235.374 329.066 235.433 329.34 235.549 329.562C235.67 329.785 235.829 329.952 236.028 330.063C236.226 330.17 236.444 330.223 236.681 330.223ZM239.945 326.114C239.819 326.114 239.713 326.071 239.626 325.984C239.543 325.897 239.502 325.79 239.502 325.664C239.502 325.538 239.543 325.432 239.626 325.345C239.713 325.258 239.819 325.214 239.945 325.214C240.071 325.214 240.175 325.258 240.257 325.345C240.344 325.432 240.388 325.538 240.388 325.664C240.388 325.79 240.344 325.897 240.257 325.984C240.175 326.071 240.071 326.114 239.945 326.114ZM240.272 331.602C240.272 331.955 240.182 332.214 240.003 332.379C239.824 332.543 239.563 332.626 239.219 332.626H238.834V332.067H239.11C239.294 332.067 239.422 332.03 239.495 331.958C239.572 331.885 239.611 331.762 239.611 331.588V326.76H240.272V331.602ZM245.019 328.597C245.019 328.723 245.012 328.856 244.998 328.996H241.818C241.842 329.388 241.975 329.695 242.217 329.918C242.464 330.136 242.762 330.245 243.11 330.245C243.396 330.245 243.633 330.179 243.822 330.049C244.015 329.913 244.151 329.734 244.228 329.512H244.94C244.833 329.894 244.62 330.206 244.301 330.448C243.981 330.685 243.585 330.804 243.11 330.804C242.733 330.804 242.394 330.719 242.094 330.55C241.799 330.38 241.567 330.141 241.397 329.831C241.228 329.516 241.143 329.153 241.143 328.742C241.143 328.331 241.225 327.97 241.39 327.661C241.554 327.351 241.784 327.114 242.079 326.949C242.38 326.78 242.723 326.695 243.11 326.695C243.488 326.695 243.822 326.777 244.112 326.942C244.402 327.106 244.625 327.334 244.78 327.624C244.94 327.91 245.019 328.234 245.019 328.597ZM244.337 328.459C244.337 328.207 244.281 327.992 244.17 327.813C244.059 327.629 243.906 327.491 243.713 327.399C243.524 327.302 243.314 327.254 243.081 327.254C242.747 327.254 242.462 327.36 242.225 327.573C241.992 327.786 241.859 328.082 241.825 328.459H244.337ZM245.644 328.742C245.644 328.331 245.727 327.973 245.891 327.668C246.056 327.358 246.283 327.119 246.574 326.949C246.869 326.78 247.205 326.695 247.583 326.695C248.071 326.695 248.473 326.814 248.788 327.051C249.107 327.288 249.317 327.617 249.419 328.038H248.708C248.64 327.796 248.507 327.605 248.308 327.465C248.115 327.324 247.873 327.254 247.583 327.254C247.205 327.254 246.9 327.385 246.668 327.646C246.436 327.902 246.32 328.268 246.32 328.742C246.32 329.221 246.436 329.591 246.668 329.853C246.9 330.114 247.205 330.245 247.583 330.245C247.873 330.245 248.115 330.177 248.308 330.041C248.502 329.906 248.635 329.712 248.708 329.461H249.419C249.313 329.867 249.1 330.194 248.78 330.441C248.461 330.683 248.062 330.804 247.583 330.804C247.205 330.804 246.869 330.719 246.574 330.55C246.283 330.38 246.056 330.141 245.891 329.831C245.727 329.521 245.644 329.158 245.644 328.742ZM251.106 327.305V329.649C251.106 329.843 251.147 329.981 251.23 330.063C251.312 330.141 251.455 330.179 251.658 330.179H252.144V330.738H251.549C251.181 330.738 250.905 330.654 250.722 330.484C250.538 330.315 250.446 330.037 250.446 329.649V327.305H249.93V326.76H250.446V325.759H251.106V326.76H252.144V327.305H251.106ZM254.679 330.804C254.307 330.804 253.968 330.719 253.663 330.55C253.363 330.38 253.126 330.141 252.952 329.831C252.782 329.516 252.698 329.153 252.698 328.742C252.698 328.336 252.785 327.977 252.959 327.668C253.138 327.353 253.38 327.114 253.685 326.949C253.99 326.78 254.331 326.695 254.709 326.695C255.086 326.695 255.427 326.78 255.732 326.949C256.037 327.114 256.276 327.351 256.451 327.661C256.63 327.97 256.719 328.331 256.719 328.742C256.719 329.153 256.627 329.516 256.443 329.831C256.264 330.141 256.02 330.38 255.71 330.55C255.401 330.719 255.057 330.804 254.679 330.804ZM254.679 330.223C254.917 330.223 255.139 330.167 255.347 330.056C255.555 329.945 255.722 329.778 255.848 329.555C255.979 329.332 256.044 329.061 256.044 328.742C256.044 328.423 255.981 328.152 255.855 327.929C255.73 327.706 255.565 327.542 255.362 327.435C255.159 327.324 254.938 327.269 254.701 327.269C254.459 327.269 254.237 327.324 254.033 327.435C253.835 327.542 253.675 327.706 253.554 327.929C253.433 328.152 253.373 328.423 253.373 328.742C253.373 329.066 253.431 329.34 253.547 329.562C253.668 329.785 253.828 329.952 254.026 330.063C254.225 330.17 254.442 330.223 254.679 330.223ZM258.248 327.406C258.364 327.179 258.529 327.002 258.742 326.877C258.96 326.751 259.223 326.688 259.533 326.688V327.37H259.359C258.619 327.37 258.248 327.772 258.248 328.575V330.738H257.588V326.76H258.248V327.406Z" fill="#687888"/>
<path opacity="0.977974" d="M214.915 303.954C213.98 303.954 213.221 304.712 213.221 305.647V309.882C213.221 310.817 213.98 311.575 214.915 311.575H219.15C220.085 311.575 220.843 310.817 220.843 309.882V308.188C220.843 307.954 220.654 307.765 220.42 307.765C220.186 307.765 219.996 307.954 219.996 308.188V309.882C219.996 310.35 219.617 310.729 219.15 310.729H214.915C214.447 310.729 214.068 310.35 214.068 309.882V305.647C214.068 305.179 214.447 304.8 214.915 304.8H218.303C218.536 304.8 218.726 304.611 218.726 304.377C218.726 304.143 218.536 303.954 218.303 303.954H214.915ZM220.843 304.377C220.735 304.377 220.621 304.415 220.539 304.496L216.847 308.122C216.738 308.229 216.628 308.221 216.543 308.095L216.119 307.473C215.99 307.282 215.718 307.227 215.524 307.354C215.33 307.482 215.275 307.745 215.405 307.936L215.828 308.558C216.21 309.121 216.956 309.196 217.443 308.717L221.148 305.078C221.313 304.916 221.313 304.659 221.148 304.496C221.065 304.415 220.952 304.377 220.843 304.377Z" fill="#ED5C18"/>
<path opacity="0.977974" d="M214.915 324.734C213.98 324.734 213.221 325.492 213.221 326.428V330.662C213.221 331.597 213.98 332.356 214.915 332.356H219.149C220.085 332.356 220.843 331.597 220.843 330.662V328.968C220.843 328.735 220.653 328.545 220.42 328.545C220.186 328.545 219.996 328.735 219.996 328.968V330.662C219.996 331.13 219.617 331.509 219.149 331.509H214.915C214.447 331.509 214.068 331.13 214.068 330.662V326.428C214.068 325.96 214.447 325.581 214.915 325.581H218.303C218.536 325.581 218.726 325.391 218.726 325.157C218.726 324.924 218.536 324.734 218.303 324.734H214.915ZM220.843 325.157C220.735 325.157 220.621 325.195 220.539 325.276L216.847 328.902C216.738 329.009 216.628 329.002 216.543 328.876L216.119 328.253C215.99 328.063 215.718 328.007 215.524 328.134C215.33 328.262 215.275 328.526 215.405 328.717L215.828 329.339C216.21 329.901 216.956 329.976 217.443 329.498L221.148 325.859C221.313 325.696 221.313 325.439 221.148 325.276C221.065 325.195 220.952 325.157 220.843 325.157Z" fill="#CACACA"/>
<path d="M208.829 289.26H206.717L206.354 290.291H205.49L207.298 285.239H208.256L210.064 290.291H209.192L208.829 289.26ZM208.597 288.585L207.777 286.241L206.949 288.585H208.597ZM215.691 286.226C216.006 286.226 216.286 286.292 216.533 286.422C216.785 286.553 216.981 286.746 217.121 287.003C217.266 287.259 217.339 287.569 217.339 287.932V290.291H216.519V288.056C216.519 287.697 216.429 287.424 216.25 287.235C216.071 287.042 215.827 286.945 215.517 286.945C215.207 286.945 214.96 287.042 214.776 287.235C214.597 287.424 214.508 287.697 214.508 288.056V290.291H213.688V288.056C213.688 287.697 213.598 287.424 213.419 287.235C213.24 287.042 212.996 286.945 212.686 286.945C212.376 286.945 212.129 287.042 211.945 287.235C211.766 287.424 211.677 287.697 211.677 288.056V290.291H210.849V286.292H211.677V286.749C211.812 286.584 211.984 286.456 212.192 286.364C212.4 286.272 212.623 286.226 212.86 286.226C213.18 286.226 213.465 286.294 213.717 286.43C213.968 286.565 214.162 286.761 214.297 287.017C214.418 286.776 214.607 286.584 214.864 286.444C215.12 286.299 215.396 286.226 215.691 286.226ZM222.058 288.193C222.058 288.343 222.048 288.479 222.029 288.6H218.973C218.997 288.919 219.115 289.176 219.328 289.369C219.541 289.563 219.803 289.66 220.112 289.66C220.557 289.66 220.872 289.473 221.056 289.101H221.949C221.828 289.469 221.608 289.771 221.288 290.008C220.974 290.24 220.582 290.357 220.112 290.357C219.73 290.357 219.386 290.272 219.081 290.103C218.781 289.928 218.544 289.686 218.37 289.377C218.201 289.062 218.116 288.699 218.116 288.288C218.116 287.876 218.198 287.516 218.363 287.206C218.532 286.892 218.767 286.65 219.067 286.48C219.372 286.311 219.72 286.226 220.112 286.226C220.49 286.226 220.826 286.309 221.121 286.473C221.416 286.638 221.646 286.87 221.811 287.17C221.975 287.465 222.058 287.806 222.058 288.193ZM221.194 287.932C221.189 287.627 221.08 287.383 220.867 287.199C220.654 287.015 220.39 286.923 220.076 286.923C219.79 286.923 219.546 287.015 219.343 287.199C219.14 287.378 219.019 287.622 218.98 287.932H221.194ZM224.89 286.226C225.204 286.226 225.485 286.292 225.732 286.422C225.984 286.553 226.18 286.746 226.32 287.003C226.46 287.259 226.53 287.569 226.53 287.932V290.291H225.71V288.056C225.71 287.697 225.621 287.424 225.442 287.235C225.263 287.042 225.018 286.945 224.708 286.945C224.399 286.945 224.152 287.042 223.968 287.235C223.789 287.424 223.699 287.697 223.699 288.056V290.291H222.872V286.292H223.699V286.749C223.835 286.584 224.007 286.456 224.215 286.364C224.428 286.272 224.653 286.226 224.89 286.226ZM228.007 285.762C227.857 285.762 227.731 285.711 227.63 285.609C227.528 285.508 227.477 285.382 227.477 285.232C227.477 285.082 227.528 284.956 227.63 284.854C227.731 284.753 227.857 284.702 228.007 284.702C228.152 284.702 228.276 284.753 228.377 284.854C228.479 284.956 228.53 285.082 228.53 285.232C228.53 285.382 228.479 285.508 228.377 285.609C228.276 285.711 228.152 285.762 228.007 285.762ZM228.414 286.292V290.291H227.586V286.292H228.414ZM230.465 286.967V289.181C230.465 289.331 230.499 289.44 230.567 289.507C230.64 289.57 230.761 289.602 230.93 289.602H231.438V290.291H230.785C230.412 290.291 230.127 290.204 229.928 290.03C229.73 289.856 229.631 289.573 229.631 289.181V286.967H229.159V286.292H229.631V285.297H230.465V286.292H231.438V286.967H230.465ZM235.801 286.292L233.348 292.171H232.491L233.304 290.226L231.729 286.292H232.651L233.776 289.34L234.945 286.292H235.801Z" fill="#33475B"/>
<path d="M209.581 318.703L375.084 318.703" stroke="#ECECEC" stroke-width="0.720204"/>
<rect x="203.51" y="249.109" width="177.142" height="19.1109" rx="1.32985" fill="#FAFAFA" stroke="#EAEAEA" stroke-width="0.295523"/>
<path d="M210.355 258.888L212.333 256.492C212.55 256.231 212.691 255.97 212.691 255.693C212.691 255.216 212.303 254.925 211.826 254.925C211.378 254.925 211.012 255.208 210.945 255.693L210.296 255.537C210.415 254.745 211.072 254.253 211.826 254.253C212.677 254.253 213.356 254.835 213.356 255.693C213.356 256.171 213.147 256.597 212.826 256.955C212.191 257.686 212.184 257.716 211.505 258.515H213.363V259.187H210.355V258.888Z" fill="#687888"/>
<path d="M368.437 257.172L370.255 259.038L372.073 257.172" stroke="#33475B" stroke-width="0.443284" stroke-linecap="round"/>
<path d="M205.171 238.694V233.551H208.224V234.283H205.962V235.805H207.754V236.529H205.962V238.694H205.171ZM208.973 238.694V233.312H209.742V238.694H208.973ZM212.407 238.022C212.989 238.022 213.467 237.597 213.467 236.94C213.467 236.305 212.989 235.887 212.407 235.887C211.832 235.887 211.354 236.305 211.354 236.94C211.354 237.597 211.832 238.022 212.407 238.022ZM212.407 238.768C211.422 238.768 210.593 238.044 210.593 236.94C210.593 235.835 211.422 235.134 212.407 235.134C213.4 235.134 214.235 235.835 214.235 236.94C214.235 238.044 213.4 238.768 212.407 238.768ZM216.678 238.022C217.26 238.022 217.738 237.597 217.738 236.94C217.738 236.305 217.26 235.887 216.678 235.887C216.103 235.887 215.626 236.305 215.626 236.94C215.626 237.597 216.103 238.022 216.678 238.022ZM216.678 238.768C215.693 238.768 214.864 238.044 214.864 236.94C214.864 235.835 215.693 235.134 216.678 235.134C217.671 235.134 218.507 235.835 218.507 236.94C218.507 238.044 217.671 238.768 216.678 238.768ZM220.129 237.44V238.694H219.36V235.208H220.129V236.007C220.308 235.38 220.644 235.134 221.084 235.134C221.33 235.134 221.591 235.186 221.703 235.268L221.577 235.977C221.375 235.88 221.211 235.858 221.062 235.858C220.405 235.858 220.129 236.514 220.129 237.44ZM227.935 233.551V238.694H227.196L224.987 235.014V238.694H224.196V233.551H224.957L227.144 237.201V233.551H227.935ZM230.651 238.022C231.233 238.022 231.711 237.597 231.711 236.94C231.711 236.305 231.233 235.887 230.651 235.887C230.077 235.887 229.599 236.305 229.599 236.94C229.599 237.597 230.077 238.022 230.651 238.022ZM230.651 238.768C229.666 238.768 228.838 238.044 228.838 236.94C228.838 235.835 229.666 235.134 230.651 235.134C231.644 235.134 232.48 235.835 232.48 236.94C232.48 238.044 231.644 238.768 230.651 238.768ZM233.266 238.268C233.266 237.977 233.497 237.761 233.788 237.761C234.079 237.761 234.318 237.977 234.318 238.268C234.318 238.559 234.079 238.768 233.788 238.768C233.497 238.768 233.266 238.559 233.266 238.268Z" fill="#33475B"/>
<rect x="203.51" y="205.912" width="177.142" height="19.1109" rx="1.32985" fill="#FAFAFA" stroke="#EAEAEA" stroke-width="0.295523"/>
<path d="M213.58 211.996L212.983 212.249C212.781 211.854 212.46 211.69 212.154 211.69C211.49 211.69 211.012 212.399 211.109 213.391C211.266 212.996 211.661 212.839 212.109 212.839C213.005 212.839 213.639 213.645 213.617 214.511C213.58 215.384 212.856 216.093 211.982 216.056C211.124 216.019 210.512 215.399 210.43 214.384C210.385 213.772 210.415 213.16 210.512 212.54C210.654 211.652 211.296 211.033 212.184 211.055C212.729 211.077 213.244 211.257 213.58 211.996ZM211.102 214.406C211.102 214.951 211.505 215.354 212.012 215.377C212.527 215.399 212.93 215.004 212.953 214.481C212.975 213.951 212.602 213.533 212.087 213.511C211.572 213.488 211.124 213.884 211.102 214.406Z" fill="#687888"/>
<path d="M368.437 213.974L370.255 215.84L372.073 213.974" stroke="#33475B" stroke-width="0.443284" stroke-linecap="round"/>
<path d="M204.873 194.003H205.664C205.686 194.421 206.067 194.846 206.686 194.846C207.291 194.846 207.604 194.526 207.657 194.145C207.686 193.667 207.321 193.421 206.843 193.309L206.194 193.145C205.089 192.846 204.917 192.219 204.917 191.764C204.917 190.883 205.708 190.293 206.612 190.293C207.567 190.293 208.284 190.876 208.284 191.816H207.492C207.492 191.338 207.134 191.04 206.597 191.04C206.119 191.04 205.708 191.331 205.708 191.749C205.708 191.95 205.783 192.264 206.395 192.421L207.052 192.592C208.097 192.869 208.522 193.443 208.44 194.19C208.358 194.996 207.664 195.57 206.686 195.57C205.619 195.57 204.873 194.839 204.873 194.003ZM212.637 193.742C212.637 193.824 212.637 193.943 212.629 194.025H209.86C209.942 194.563 210.36 194.899 210.927 194.899C211.316 194.899 211.696 194.72 211.875 194.399L212.502 194.675C212.204 195.294 211.54 195.57 210.89 195.57C209.905 195.57 209.099 194.846 209.099 193.742C209.099 192.637 209.905 191.936 210.89 191.936C211.875 191.936 212.637 192.637 212.637 193.742ZM209.86 193.466H211.883C211.801 192.921 211.42 192.607 210.89 192.607C210.353 192.607 209.942 192.928 209.86 193.466ZM216.165 195.496V194.996C215.926 195.376 215.441 195.57 214.993 195.57C214.06 195.57 213.224 194.861 213.224 193.749C213.224 192.637 214.06 191.936 214.993 191.936C215.411 191.936 215.926 192.107 216.165 192.503V192.01H216.927V195.496H216.165ZM214.016 193.742C214.016 194.384 214.508 194.824 215.083 194.824C215.65 194.824 216.158 194.428 216.158 193.742C216.158 193.063 215.605 192.682 215.083 192.682C214.508 192.682 214.016 193.1 214.016 193.742ZM219.049 190.689V192.01H219.788V192.645H219.049V195.496H218.28V192.645H217.653V192.01H218.28V190.689H219.049Z" fill="#33475B"/>
<rect x="203.51" y="164.113" width="177.142" height="19.1109" rx="1.32985" fill="#FAFAFA" stroke="#EAEAEA" stroke-width="0.295523"/>
<path d="M211.012 174.19V170.167L210.221 170.444V169.802L211.684 169.272V174.19H211.012ZM212.893 171.765C212.893 170.376 213.259 169.257 214.662 169.257C216.065 169.257 216.423 170.376 216.423 171.765C216.423 173.138 216.065 174.258 214.662 174.258C213.259 174.258 212.893 173.138 212.893 171.765ZM213.565 171.765C213.565 172.772 213.789 173.593 214.662 173.593C215.535 173.593 215.759 172.772 215.759 171.765C215.759 170.75 215.535 169.928 214.662 169.928C213.789 169.928 213.565 170.75 213.565 171.765ZM217.367 173.892L219.345 171.496C219.562 171.235 219.704 170.973 219.704 170.697C219.704 170.22 219.315 169.928 218.838 169.928C218.39 169.928 218.024 170.212 217.957 170.697L217.308 170.541C217.427 169.749 218.084 169.257 218.838 169.257C219.689 169.257 220.368 169.839 220.368 170.697C220.368 171.175 220.159 171.6 219.838 171.959C219.203 172.69 219.196 172.72 218.517 173.519H220.375V174.19H217.367V173.892Z" fill="#687888"/>
<path d="M207.149 149.687H205.97V151.486H207.119C207.694 151.486 207.925 151.03 207.925 150.59C207.925 150.157 207.701 149.687 207.149 149.687ZM207.418 152.18L208.769 154.098H207.806L206.522 152.21H205.97V154.098H205.171V148.955H207.179C208.284 148.955 208.746 149.776 208.746 150.59C208.746 151.336 208.366 152.083 207.418 152.18ZM211.109 153.426C211.692 153.426 212.169 153.001 212.169 152.344C212.169 151.709 211.692 151.291 211.109 151.291C210.535 151.291 210.057 151.709 210.057 152.344C210.057 153.001 210.535 153.426 211.109 153.426ZM211.109 154.173C210.124 154.173 209.296 153.449 209.296 152.344C209.296 151.239 210.124 150.538 211.109 150.538C212.102 150.538 212.938 151.239 212.938 152.344C212.938 153.449 212.102 154.173 211.109 154.173ZM215.381 153.426C215.963 153.426 216.441 153.001 216.441 152.344C216.441 151.709 215.963 151.291 215.381 151.291C214.806 151.291 214.328 151.709 214.328 152.344C214.328 153.001 214.806 153.426 215.381 153.426ZM215.381 154.173C214.395 154.173 213.567 153.449 213.567 152.344C213.567 151.239 214.395 150.538 215.381 150.538C216.373 150.538 217.209 151.239 217.209 152.344C217.209 153.449 216.373 154.173 215.381 154.173ZM222.033 151.291C221.526 151.291 221.19 151.657 221.19 152.224V154.098H220.421V152.142C220.413 151.605 220.13 151.291 219.712 151.291C219.264 151.291 218.831 151.538 218.831 152.224V154.098H218.062V150.612H218.831V151.135C219.07 150.657 219.645 150.538 219.928 150.538C220.488 150.538 220.824 150.784 221.025 151.232C221.346 150.627 221.884 150.538 222.197 150.538C223.063 150.538 223.541 151.097 223.541 152.09V154.098H222.772V152.157C222.772 151.612 222.481 151.291 222.033 151.291ZM230.348 148.955V154.098H229.609L227.399 150.418V154.098H226.608V148.955H227.37L229.556 152.605V148.955H230.348ZM233.064 153.426C233.646 153.426 234.124 153.001 234.124 152.344C234.124 151.709 233.646 151.291 233.064 151.291C232.489 151.291 232.012 151.709 232.012 152.344C232.012 153.001 232.489 153.426 233.064 153.426ZM233.064 154.173C232.079 154.173 231.25 153.449 231.25 152.344C231.25 151.239 232.079 150.538 233.064 150.538C234.057 150.538 234.893 151.239 234.893 152.344C234.893 153.449 234.057 154.173 233.064 154.173ZM235.678 153.672C235.678 153.381 235.91 153.165 236.201 153.165C236.492 153.165 236.731 153.381 236.731 153.672C236.731 153.964 236.492 154.173 236.201 154.173C235.91 154.173 235.678 153.964 235.678 153.672Z" fill="#33475B"/>
<path d="M205.856 122.498V124.934H208.723V126.045H205.856V128.589H209.081V129.699H204.495V121.388H209.081V122.498H205.856ZM210.304 126.379C210.304 125.719 210.439 125.133 210.71 124.624C210.989 124.114 211.363 123.72 211.833 123.442C212.31 123.155 212.84 123.012 213.421 123.012C213.851 123.012 214.273 123.107 214.687 123.298C215.109 123.481 215.443 123.728 215.69 124.039V120.862H217.063V129.699H215.69V128.708C215.467 129.027 215.157 129.289 214.759 129.496C214.368 129.703 213.919 129.807 213.409 129.807C212.836 129.807 212.31 129.664 211.833 129.377C211.363 129.082 210.989 128.676 210.71 128.159C210.439 127.633 210.304 127.04 210.304 126.379ZM215.69 126.403C215.69 125.95 215.594 125.555 215.403 125.221C215.22 124.887 214.977 124.632 214.675 124.457C214.372 124.282 214.046 124.194 213.696 124.194C213.345 124.194 213.019 124.282 212.716 124.457C212.414 124.624 212.167 124.875 211.976 125.209C211.793 125.536 211.701 125.926 211.701 126.379C211.701 126.833 211.793 127.231 211.976 127.574C212.167 127.916 212.414 128.179 212.716 128.362C213.027 128.537 213.353 128.625 213.696 128.625C214.046 128.625 214.372 128.537 214.675 128.362C214.977 128.187 215.22 127.932 215.403 127.598C215.594 127.255 215.69 126.857 215.69 126.403ZM219.544 122.247C219.297 122.247 219.09 122.164 218.923 121.997C218.756 121.829 218.672 121.622 218.672 121.376C218.672 121.129 218.756 120.922 218.923 120.755C219.09 120.587 219.297 120.504 219.544 120.504C219.783 120.504 219.986 120.587 220.153 120.755C220.32 120.922 220.404 121.129 220.404 121.376C220.404 121.622 220.32 121.829 220.153 121.997C219.986 122.164 219.783 122.247 219.544 122.247ZM220.213 123.119V129.699H218.852V123.119H220.213ZM223.589 124.23V127.872C223.589 128.119 223.645 128.298 223.756 128.41C223.875 128.513 224.074 128.565 224.353 128.565H225.189V129.699H224.114C223.501 129.699 223.031 129.556 222.705 129.27C222.379 128.983 222.215 128.517 222.215 127.872V124.23H221.439V123.119H222.215V121.483H223.589V123.119H225.189V124.23H223.589ZM233.857 129.699L231.947 126.379H230.908V129.699H229.546V121.399H232.412C233.049 121.399 233.587 121.511 234.024 121.734C234.47 121.957 234.801 122.255 235.016 122.63C235.239 123.004 235.35 123.422 235.35 123.884C235.35 124.425 235.191 124.919 234.872 125.364C234.562 125.802 234.08 126.101 233.427 126.26L235.481 129.699H233.857ZM230.908 125.293H232.412C232.922 125.293 233.304 125.165 233.559 124.911C233.821 124.656 233.953 124.313 233.953 123.884C233.953 123.454 233.825 123.119 233.571 122.88C233.316 122.634 232.93 122.51 232.412 122.51H230.908V125.293ZM239.946 129.807C239.325 129.807 238.764 129.668 238.262 129.389C237.76 129.102 237.366 128.704 237.08 128.195C236.793 127.677 236.65 127.08 236.65 126.403C236.65 125.735 236.797 125.141 237.092 124.624C237.386 124.106 237.788 123.708 238.298 123.43C238.807 123.151 239.377 123.012 240.006 123.012C240.635 123.012 241.204 123.151 241.713 123.43C242.223 123.708 242.625 124.106 242.92 124.624C243.214 125.141 243.361 125.735 243.361 126.403C243.361 127.072 243.21 127.665 242.908 128.183C242.605 128.7 242.191 129.102 241.666 129.389C241.148 129.668 240.575 129.807 239.946 129.807ZM239.946 128.625C240.296 128.625 240.623 128.541 240.925 128.374C241.236 128.207 241.487 127.956 241.678 127.621C241.869 127.287 241.964 126.881 241.964 126.403C241.964 125.926 241.873 125.524 241.69 125.197C241.506 124.863 241.264 124.612 240.961 124.445C240.659 124.278 240.332 124.194 239.982 124.194C239.631 124.194 239.305 124.278 239.003 124.445C238.708 124.612 238.473 124.863 238.298 125.197C238.123 125.524 238.035 125.926 238.035 126.403C238.035 127.112 238.214 127.661 238.573 128.051C238.939 128.434 239.397 128.625 239.946 128.625ZM247.562 129.807C246.941 129.807 246.379 129.668 245.878 129.389C245.376 129.102 244.982 128.704 244.695 128.195C244.409 127.677 244.265 127.08 244.265 126.403C244.265 125.735 244.413 125.141 244.707 124.624C245.002 124.106 245.404 123.708 245.914 123.43C246.423 123.151 246.992 123.012 247.621 123.012C248.25 123.012 248.819 123.151 249.329 123.43C249.839 123.708 250.241 124.106 250.535 124.624C250.83 125.141 250.977 125.735 250.977 126.403C250.977 127.072 250.826 127.665 250.523 128.183C250.221 128.7 249.807 129.102 249.281 129.389C248.764 129.668 248.191 129.807 247.562 129.807ZM247.562 128.625C247.912 128.625 248.238 128.541 248.541 128.374C248.851 128.207 249.102 127.956 249.293 127.621C249.484 127.287 249.58 126.881 249.58 126.403C249.58 125.926 249.488 125.524 249.305 125.197C249.122 124.863 248.879 124.612 248.577 124.445C248.274 124.278 247.948 124.194 247.597 124.194C247.247 124.194 246.921 124.278 246.618 124.445C246.324 124.612 246.089 124.863 245.914 125.197C245.738 125.524 245.651 125.926 245.651 126.403C245.651 127.112 245.83 127.661 246.188 128.051C246.554 128.434 247.012 128.625 247.562 128.625ZM260.289 123.012C260.806 123.012 261.268 123.119 261.674 123.334C262.088 123.549 262.41 123.868 262.641 124.29C262.88 124.712 262.999 125.221 262.999 125.818V129.699H261.65V126.021C261.65 125.432 261.503 124.982 261.208 124.672C260.913 124.353 260.511 124.194 260.002 124.194C259.492 124.194 259.086 124.353 258.784 124.672C258.489 124.982 258.342 125.432 258.342 126.021V129.699H256.992V126.021C256.992 125.432 256.845 124.982 256.551 124.672C256.256 124.353 255.854 124.194 255.344 124.194C254.835 124.194 254.429 124.353 254.126 124.672C253.832 124.982 253.684 125.432 253.684 126.021V129.699H252.323V123.119H253.684V123.872C253.907 123.601 254.19 123.39 254.532 123.239C254.875 123.087 255.241 123.012 255.631 123.012C256.156 123.012 256.626 123.123 257.04 123.346C257.454 123.569 257.773 123.891 257.996 124.313C258.195 123.915 258.505 123.601 258.927 123.37C259.349 123.131 259.803 123.012 260.289 123.012ZM270.545 121.399C271.429 121.399 272.201 121.571 272.862 121.913C273.531 122.247 274.044 122.733 274.402 123.37C274.769 123.999 274.952 124.735 274.952 125.579C274.952 126.423 274.769 127.156 274.402 127.777C274.044 128.398 273.531 128.875 272.862 129.21C272.201 129.536 271.429 129.699 270.545 129.699H267.834V121.399H270.545ZM270.545 128.589C271.516 128.589 272.261 128.326 272.778 127.801C273.296 127.275 273.554 126.535 273.554 125.579C273.554 124.616 273.296 123.864 272.778 123.322C272.261 122.781 271.516 122.51 270.545 122.51H269.195V128.589H270.545ZM282.332 126.248C282.332 126.495 282.316 126.718 282.284 126.917H277.256C277.296 127.442 277.491 127.864 277.842 128.183C278.192 128.501 278.622 128.66 279.131 128.66C279.864 128.66 280.381 128.354 280.684 127.741H282.153C281.954 128.346 281.592 128.844 281.066 129.234C280.549 129.616 279.904 129.807 279.131 129.807C278.502 129.807 277.937 129.668 277.436 129.389C276.942 129.102 276.552 128.704 276.265 128.195C275.987 127.677 275.847 127.08 275.847 126.403C275.847 125.727 275.983 125.133 276.253 124.624C276.532 124.106 276.918 123.708 277.412 123.43C277.913 123.151 278.486 123.012 279.131 123.012C279.752 123.012 280.306 123.147 280.791 123.418C281.277 123.688 281.655 124.071 281.926 124.564C282.197 125.05 282.332 125.611 282.332 126.248ZM280.911 125.818C280.903 125.317 280.724 124.915 280.373 124.612C280.023 124.309 279.589 124.158 279.072 124.158C278.602 124.158 278.2 124.309 277.865 124.612C277.531 124.907 277.332 125.309 277.268 125.818H280.911ZM285.26 124.23V127.872C285.26 128.119 285.316 128.298 285.427 128.41C285.547 128.513 285.746 128.565 286.024 128.565H286.86V129.699H285.786C285.172 129.699 284.703 129.556 284.376 129.27C284.05 128.983 283.887 128.517 283.887 127.872V124.23H283.11V123.119H283.887V121.483H285.26V123.119H286.86V124.23H285.26ZM287.661 126.379C287.661 125.719 287.797 125.133 288.067 124.624C288.346 124.114 288.72 123.72 289.19 123.442C289.668 123.155 290.193 123.012 290.766 123.012C291.284 123.012 291.734 123.115 292.116 123.322C292.506 123.521 292.816 123.772 293.047 124.075V123.119H294.421V129.699H293.047V128.72C292.816 129.031 292.502 129.289 292.104 129.496C291.706 129.703 291.252 129.807 290.742 129.807C290.177 129.807 289.66 129.664 289.19 129.377C288.72 129.082 288.346 128.676 288.067 128.159C287.797 127.633 287.661 127.04 287.661 126.379ZM293.047 126.403C293.047 125.95 292.952 125.555 292.761 125.221C292.578 124.887 292.335 124.632 292.032 124.457C291.73 124.282 291.403 124.194 291.053 124.194C290.703 124.194 290.376 124.282 290.074 124.457C289.771 124.624 289.524 124.875 289.333 125.209C289.15 125.536 289.059 125.926 289.059 126.379C289.059 126.833 289.15 127.231 289.333 127.574C289.524 127.916 289.771 128.179 290.074 128.362C290.384 128.537 290.711 128.625 291.053 128.625C291.403 128.625 291.73 128.537 292.032 128.362C292.335 128.187 292.578 127.932 292.761 127.598C292.952 127.255 293.047 126.857 293.047 126.403ZM296.902 122.247C296.655 122.247 296.448 122.164 296.281 121.997C296.113 121.829 296.03 121.622 296.03 121.376C296.03 121.129 296.113 120.922 296.281 120.755C296.448 120.587 296.655 120.504 296.902 120.504C297.14 120.504 297.343 120.587 297.511 120.755C297.678 120.922 297.761 121.129 297.761 121.376C297.761 121.622 297.678 121.829 297.511 121.997C297.343 122.164 297.14 122.247 296.902 122.247ZM297.57 123.119V129.699H296.209V123.119H297.57ZM300.719 120.862V129.699H299.358V120.862H300.719ZM304.895 129.807C304.378 129.807 303.912 129.715 303.498 129.532C303.092 129.341 302.769 129.086 302.531 128.768C302.292 128.442 302.164 128.079 302.148 127.681H303.558C303.581 127.96 303.713 128.195 303.952 128.386C304.198 128.569 304.505 128.66 304.871 128.66C305.253 128.66 305.548 128.589 305.755 128.446C305.97 128.294 306.077 128.103 306.077 127.872C306.077 127.625 305.958 127.442 305.719 127.323C305.488 127.204 305.118 127.072 304.609 126.929C304.115 126.793 303.713 126.662 303.402 126.535C303.092 126.407 302.821 126.212 302.59 125.95C302.367 125.687 302.256 125.34 302.256 124.911C302.256 124.56 302.359 124.242 302.566 123.955C302.773 123.661 303.068 123.43 303.45 123.263C303.84 123.095 304.286 123.012 304.788 123.012C305.536 123.012 306.137 123.203 306.591 123.585C307.053 123.959 307.3 124.473 307.331 125.126H305.97C305.946 124.831 305.827 124.596 305.612 124.421C305.397 124.246 305.106 124.158 304.74 124.158C304.382 124.158 304.107 124.226 303.916 124.361C303.725 124.497 303.629 124.676 303.629 124.899C303.629 125.074 303.693 125.221 303.82 125.34C303.948 125.46 304.103 125.555 304.286 125.627C304.469 125.691 304.74 125.774 305.098 125.878C305.576 126.005 305.966 126.137 306.269 126.272C306.579 126.399 306.846 126.59 307.069 126.845C307.292 127.1 307.407 127.438 307.415 127.86C307.415 128.235 307.311 128.569 307.104 128.863C306.897 129.158 306.603 129.389 306.221 129.556C305.847 129.723 305.405 129.807 304.895 129.807Z" fill="#3F4450"/>
<path fill-rule="evenodd" clip-rule="evenodd" d="M52.4875 149.566C44.9676 146.288 38.3153 144.794 37.6404 146.24C36.9174 147.686 42.4127 151.542 49.9327 154.82C57.4526 158.098 64.0567 159.737 64.7798 158.291C65.5028 156.845 60.0075 152.844 52.4875 149.566Z" fill="#D8912B"/>
<path fill-rule="evenodd" clip-rule="evenodd" d="M62.3695 158.147C62.3213 158.243 62.2249 158.291 62.1285 158.388L51.6198 181.285C50.2219 186.346 45.4014 189.962 39.8579 189.576C34.3625 189.19 29.8795 184.756 29.3974 179.26C29.2046 177.284 29.5902 175.404 30.3133 173.717C30.6989 172.849 31.0846 171.933 31.4702 171.017L40.0989 148.554C40.0989 148.457 40.0989 148.361 40.1471 148.313C40.7256 147.108 46.1727 148.361 52.3429 151.06C58.4167 153.712 62.948 156.99 62.3695 158.147Z" fill="#DE7C62"/>
<path fill-rule="evenodd" clip-rule="evenodd" d="M66.0813 209.34L51.427 223.705L31.5184 184.9C30.1687 183.02 29.3492 180.706 29.3492 178.248C29.3492 171.981 34.4589 166.871 40.7255 166.871C45.6424 166.871 49.788 169.956 51.3788 174.343L51.4752 174.295L66.0813 209.34Z" fill="#DE7C62"/>
<path fill-rule="evenodd" clip-rule="evenodd" d="M76.9274 133.321L77.6023 133.755L64.8762 158.195C64.5387 156.507 59.3808 152.94 52.5357 149.903C45.7871 146.963 39.3758 145.42 37.6887 146.192L51.7163 116.931C54.1747 111.87 59.3808 108.351 65.3582 108.351C73.7459 108.351 80.4945 115.148 80.4945 123.487C80.4945 127.295 79.1448 130.67 76.9274 133.321Z" fill="#FCC670"/>
<path fill-rule="evenodd" clip-rule="evenodd" d="M80.6873 76.825L97.8483 77.2588L105.513 117.269L76.8792 114.81L80.6873 76.825Z" fill="#DE7C62"/>
<path fill-rule="evenodd" clip-rule="evenodd" d="M119.01 73.4021C119.01 73.2575 118.866 74.7518 118.769 75.6677C117.419 89.4543 114.286 92.6358 110.382 92.443C101.946 91.9609 89.4606 84.9712 86.0863 75.1857C82.3745 64.4842 82.712 56.9642 88.0627 62.0257C88.0627 62.0257 92.5457 39.7069 113.081 48.1427C113.081 48.1427 116.263 51.8063 117.371 55.3253C119.203 61.1098 118.48 65.4001 118.48 65.4001C118.48 65.4001 127.687 70.1241 119.01 73.4021Z" fill="#DE7C62"/>
<path d="M95.7755 66.7981C93.7991 66.5571 91.4852 71.8114 96.4985 72.6309" stroke="black" stroke-width="0.964097" stroke-miterlimit="10" stroke-linecap="round" stroke-linejoin="round"/>
<path d="M92.5457 65.304C92.5457 65.304 96.4985 66.2198 98.2821 69.6424" stroke="black" stroke-width="0.964097" stroke-miterlimit="10" stroke-linecap="round" stroke-linejoin="round"/>
<path d="M114.093 62.8456L116.745 61.3994" stroke="black" stroke-width="0.964097" stroke-miterlimit="10" stroke-linecap="round" stroke-linejoin="round"/>
<path d="M117.082 56.9162C117.082 56.9162 112.406 56.1449 109.707 61.7849" stroke="black" stroke-width="0.964097" stroke-miterlimit="10" stroke-linecap="round" stroke-linejoin="round"/>
<path fill-rule="evenodd" clip-rule="evenodd" d="M114.624 62.0258C113.9 61.8812 113.226 62.7971 113.081 64.0022C112.985 65.2073 113.467 66.316 114.19 66.4124C114.913 66.557 115.588 65.6411 115.732 64.436C115.877 63.2309 115.347 62.1704 114.624 62.0258Z" fill="black"/>
<path d="M114.624 76.4392C114.624 76.4392 116.07 78.5602 118.287 78.7048" stroke="black" stroke-width="0.964097" stroke-miterlimit="10" stroke-linecap="round" stroke-linejoin="round"/>
<path fill-rule="evenodd" clip-rule="evenodd" d="M117.516 55.8076L113.274 49.0107C113.515 50.3605 109.707 62.8455 98.9088 65.8824C98.8606 65.786 98.6678 65.5932 98.5714 65.4968C98.5232 65.4486 98.5232 65.4486 98.5714 65.4968C96.7878 63.7132 93.4134 61.7368 90.955 63.665C86.4237 67.2322 88.2073 73.8362 93.6545 75.0413C94.4258 75.1378 94.9078 75.1378 94.9078 75.1378C128.989 97.3602 91.4853 97.1674 89.7981 97.2156C93.1242 93.8894 95.6791 84.5377 91.196 76.1983C92.7386 83.3326 88.3519 92.3951 84.1099 96.3961C75.7223 98.4689 62.3695 95.5284 54.705 92.4915C44.1481 74.4629 62.6588 73.4506 64.2977 61.3994C62.9962 57.0609 63.2372 52.2405 66.6598 47.4682C63.4782 46.8897 60.2967 45.781 57.549 43.8528C50.2219 38.7431 55.6208 27.3186 65.9849 31.0303L62.2249 23.3658C72.2033 20.1842 71.8659 24.5709 70.0823 28.5237C72.8782 25.7278 75.3366 24.137 77.9397 24.7637C82.7602 25.9206 84.3509 31.2231 84.7366 36.3811C94.956 34.6457 104.693 38.7431 108.935 42.7441C116.504 42.5513 118.673 44.6723 119.251 46.2631C120.312 47.8538 120.071 50.7461 117.516 55.8076Z" fill="#4F2827"/>
<path fill-rule="evenodd" clip-rule="evenodd" d="M85.797 39.3214C81.6996 50.8424 68.2987 49.4444 68.2987 49.4444L63.43 46.6485C63.43 46.6485 79.2894 45.588 85.074 35.2722C85.1222 35.224 85.556 37.0076 85.797 39.3214Z" fill="#7581F0"/>
<path fill-rule="evenodd" clip-rule="evenodd" d="M142.197 126.428C142.197 130.091 140.895 133.417 138.774 136.02C140.124 141.034 139.594 145.565 139.594 145.565C139.594 145.565 135.255 163.835 131.206 180.128C129.567 186.684 124.072 187.551 124.072 187.551L70.1305 180.803C70.1305 180.803 63.9602 178.151 64.4905 171.74C65.5028 159.014 61.5018 141.226 60.7305 137.997C54.6085 136.02 50.2219 130.332 50.2219 123.583C50.2219 116.787 54.6567 111.098 60.7787 109.122C77.313 102.229 107.586 100.349 133.616 112.786C133.664 112.786 133.664 112.834 133.713 112.834C138.726 115.292 142.197 120.45 142.197 126.428Z" fill="#FCC670"/>
<path fill-rule="evenodd" clip-rule="evenodd" d="M114.334 105.218C107.489 104.398 94.6185 123.005 87.3878 140.214C78.7591 160.749 71.673 179.405 71.673 179.405L82.4709 180.851C82.4709 180.851 90.2801 162.196 98.9088 141.66C105.031 127.006 113.9 112.786 120.649 109.17C121.854 108.544 126.916 110.327 127.928 110.52C127.446 108.688 126 106.615 114.334 105.218Z" fill="#2C7A6E"/>
<path fill-rule="evenodd" clip-rule="evenodd" d="M62.4177 106.76C62.4177 106.76 52.5357 114.666 67.2381 137.226C80.8801 158.195 99.8728 181.429 99.8728 181.429L114.961 183.84C114.961 183.84 91.0995 155.495 77.4094 134.526C66.8525 118.329 68.9735 109.749 71.0463 106.182C73.3601 105.748 74.9027 105.41 74.9027 105.41C74.9027 105.41 74.3242 103.289 69.6484 104.543C65.5992 105.555 62.4177 106.76 62.4177 106.76Z" fill="#2C7A6E"/>
<path d="M70.1305 180.754C70.1305 180.754 63.9603 178.103 64.4905 171.692C65.2618 161.858 63.0444 148.987 61.6464 142.142" stroke="#D8912B" stroke-width="0.964097" stroke-miterlimit="10" stroke-linecap="round" stroke-linejoin="round"/>
<path fill-rule="evenodd" clip-rule="evenodd" d="M124.168 198.349C127.253 201.675 136.123 213.437 133.472 228.236C97.2697 262.413 53.3551 230.55 52.3911 214.257C53.4034 199.603 65.9366 192.131 68.6361 190.974L69.8412 179.935V179.887C70.1304 177.476 82.5673 177.043 97.6554 178.971C112.743 180.899 124.747 184.418 124.505 186.828C124.505 186.973 124.409 187.069 124.361 187.214L124.168 198.349Z" fill="#54B4A6"/>
<path fill-rule="evenodd" clip-rule="evenodd" d="M115.636 266.173C130.387 266.896 142.245 269.355 142.1 271.669C142.004 273.982 129.953 275.284 115.202 274.561C100.451 273.838 88.593 271.379 88.7376 269.066C88.8822 266.752 100.885 265.45 115.636 266.173Z" fill="#2C7A6E"/>
<path fill-rule="evenodd" clip-rule="evenodd" d="M165.817 478.853C164.853 480.058 165.865 480.733 161.238 483.047C153.766 488.542 135.448 493.748 120.456 491.145C113.997 490.037 109.225 493.122 99.198 493.989C93.0278 494.52 89.2196 492.158 88.3037 490.904C86.2309 481.745 92.9314 467.525 92.9314 467.525C92.9314 467.525 98.1857 465.597 103.922 471.574C108.984 473.936 113.37 472.008 113.274 467.429L142.39 476.539L165.383 474.949L165.817 478.853Z" fill="black"/>
<path fill-rule="evenodd" clip-rule="evenodd" d="M93.799 418.26C94.4257 399.46 94.9078 381.528 95.2934 370.151C96.1129 347.784 100.258 345.615 98.5713 327.972C91.9191 258.798 92.5457 237.058 92.5457 237.058C92.5457 237.058 110.623 234.021 111.442 234.069C118.866 235.274 115.877 219.8 125.855 223.271C124.939 217.872 135.544 245.879 135.544 245.879C135.544 245.879 125.759 352.123 120.987 418.501C112.695 424.671 107.875 429.25 93.799 418.26Z" fill="#DE7C62"/>
<path fill-rule="evenodd" clip-rule="evenodd" d="M132.652 277.598L131.11 294.47C127.494 293.072 120.36 290.613 110.671 288.348C105.224 287.094 98.9569 286.227 94.9077 285.793C94.6667 282.852 94.4739 280.105 94.3293 277.501L132.652 277.598Z" fill="#C2644C"/>
<path fill-rule="evenodd" clip-rule="evenodd" d="M117.227 470.707C117.227 470.707 116.455 471.912 115.154 473.503H93.9918C89.0268 467.525 93.8472 463.862 91.919 462.319C92.6903 449.063 93.317 433.348 93.799 418.212C95.3898 419.272 101.03 420.092 107.682 420.092C113.708 420.092 118.817 419.465 120.987 418.549L117.227 470.707Z" fill="#DFD7DA"/>
<path d="M93.558 426.021C94.8596 427.081 100.451 427.901 107.345 427.901C113.9 427.901 118.866 427.226 120.456 426.262" stroke="#54B4A6" stroke-width="0.964097" stroke-miterlimit="10" stroke-linecap="round" stroke-linejoin="round"/>
<path fill-rule="evenodd" clip-rule="evenodd" d="M165.673 474.756C164.708 475.961 165.721 476.636 161.093 478.95C153.621 484.445 135.303 489.651 120.312 487.048C113.852 485.939 109.08 489.024 99.0534 489.892C92.8832 490.422 89.075 488.06 88.1591 486.807C86.0863 477.648 91.8709 462.078 91.8709 462.078C91.8709 462.078 97.9929 461.499 103.778 467.477C108.839 469.839 116.889 466.223 117.902 461.114L142.245 472.442C142.245 472.442 146.632 473.117 155.791 471.96C163.166 470.948 165.673 474.756 165.673 474.756Z" fill="#54B4A6"/>
<path d="M128.024 465.838C129.085 466.898 129.567 468.055 129.663 469.79" stroke="black" stroke-width="0.964097" stroke-miterlimit="10" stroke-linecap="round" stroke-linejoin="round"/>
<path d="M119.878 462.512C119.878 462.512 123.879 463.669 124.216 469.839" stroke="black" stroke-width="0.964097" stroke-miterlimit="10" stroke-linecap="round" stroke-linejoin="round"/>
<path fill-rule="evenodd" clip-rule="evenodd" d="M91.3406 276.827L91.0514 278.466C91.0032 278.562 91.0514 278.707 90.955 278.707C100.692 278.948 112.888 283.431 131.351 280.105L138.292 278.803L134.002 221.584C134.002 221.584 115.106 215.221 104.452 220.427C94.8596 225.151 88.2555 236.865 88.2555 236.865L91.3406 276.827Z" fill="#54B4A6"/>
<path fill-rule="evenodd" clip-rule="evenodd" d="M86.2791 280.104H86.4719C86.3755 280.249 86.3273 280.394 86.3273 280.538C86.4719 282.756 99.3426 284.925 115.106 285.359C130.869 285.793 143.113 284.539 142.968 282.274C142.823 279.96 142.92 276.248 142.775 271.717C142.872 271.042 141.811 270.319 139.883 269.644C140.751 270.03 141.184 270.463 141.136 270.849C140.895 272.584 131.977 273.693 120.215 273.597C118.866 273.597 117.468 273.549 116.021 273.5C115.636 273.5 115.202 273.452 114.768 273.452C100.499 272.97 89.1231 270.945 89.4124 268.969C89.4606 268.535 89.557 268.005 90.6175 267.668V267.427C88.5929 267.909 88.2555 268.198 87.7734 269.355C87.0985 272.681 86.2791 280.104 86.2791 280.104Z" fill="#8ED3C9"/>
<path d="M119.589 183.599L119.444 195.409C122.047 198.205 128.699 209.051 129.133 220.62C129.181 220.62 129.181 220.62 129.181 220.62L132.893 284.781" stroke="#39A08F" stroke-width="0.964097" stroke-miterlimit="10" stroke-linecap="round" stroke-linejoin="round"/>
<path d="M139.883 269.981C140.751 270.367 141.184 270.801 141.136 271.187C140.895 272.922 131.977 274.031 120.215 273.934C118.866 273.934 117.468 273.886 116.021 273.838C115.636 273.838 115.202 273.79 114.768 273.79C100.499 273.308 89.1231 271.283 89.4124 269.307C89.4606 268.873 89.6052 268.439 90.5693 268.053" stroke="#4EB0A1" stroke-width="0.964097" stroke-miterlimit="10" stroke-linecap="round" stroke-linejoin="round"/>
<path fill-rule="evenodd" clip-rule="evenodd" d="M61.8392 260.485C76.6863 263.088 88.4 266.993 87.9662 269.307C87.5805 271.572 75.2401 271.331 60.393 268.777C45.5459 266.173 35.4229 262.703 35.8086 260.437C36.2424 258.075 46.9921 257.882 61.8392 260.485Z" fill="#2C7A6E"/>
<path fill-rule="evenodd" clip-rule="evenodd" d="M56.9224 477.504C56.1511 478.901 54.5604 482.083 49.7881 484.252C43.9553 486.952 38.8456 488.494 32.2415 486.952C25.6375 485.409 23.7575 491.338 14.3575 491.628C5.24682 491.917 1.1012 490.085 0.0406957 488.542C-0.00750918 487.048 -0.00750623 485.602 0.0889034 484.204C11.9473 476.829 56.9706 474.226 56.9706 474.226C56.9706 474.226 56.9224 475.624 56.9224 477.504Z" fill="black"/>
<path fill-rule="evenodd" clip-rule="evenodd" d="M16.5749 416.476C20.2867 396.616 23.8056 377.43 26.023 365.957C30.2651 344.072 36.3389 343.687 37.3512 326.044C41.3522 256.87 46.8957 238.793 46.8957 238.793C46.8957 238.793 61.9356 234.503 62.7551 234.744C69.8894 237.202 69.311 221.439 78.6627 226.501C78.5663 221.006 78.952 275.814 78.952 275.814C78.952 275.814 56.5849 365.331 42.6537 421.345C36.0978 431.612 20.8169 429.25 16.5749 416.476Z" fill="#DE7C62"/>
<path fill-rule="evenodd" clip-rule="evenodd" d="M78.3735 278.032L75.3848 290.083C71.9622 288.348 67.1417 286.13 60.3931 283.431C52.2947 280.249 42.1716 277.694 41.0629 277.453C41.1111 277.068 41.1593 276.682 41.2075 276.296L42.5091 269.74L79.3858 273.693C79.3376 275.477 78.3735 278.032 78.3735 278.032Z" fill="#C2644C"/>
<path fill-rule="evenodd" clip-rule="evenodd" d="M8.28367 458.655C10.8867 446.556 13.9718 429.877 16.6231 415.994C17.6836 417.247 23.0344 418.983 29.542 420.14C35.7604 421.248 41.1112 421.489 42.7501 420.863L31.181 467.284C31.181 467.284 28.4815 471.092 25.0107 473.743L11.9472 471.382C2.88474 461.837 7.22317 464.054 8.28367 458.655Z" fill="#DFD7DA"/>
<path d="M15.2251 423.321C16.2856 424.575 21.3471 426.262 27.8548 427.419C34.0732 428.527 39.2793 428.817 40.9665 428.19" stroke="#54B4A6" stroke-width="0.964097" stroke-miterlimit="10" stroke-linecap="round" stroke-linejoin="round"/>
<path fill-rule="evenodd" clip-rule="evenodd" d="M57.2598 474.129C56.4885 475.527 54.5603 478.708 49.7881 480.878C43.9553 483.577 38.8455 485.12 32.2415 483.577C25.6374 482.035 23.7574 487.964 14.3575 488.253C5.24679 488.542 1.10117 486.711 0.0406663 485.168C-0.682406 469.501 8.47651 457.788 8.47651 457.788C8.47651 457.788 14.7431 455.811 19.7082 464.151C24.1431 468.441 32.0005 463.958 33.8805 456.823L41.545 465.066C41.545 465.066 43.666 464.874 46.6065 464.97C53.9819 465.259 56.3439 471.767 57.2598 474.129Z" fill="#54B4A6"/>
<path fill-rule="evenodd" clip-rule="evenodd" d="M39.7133 268.246C39.6168 268.343 39.5686 268.439 39.5204 268.584C39.2794 270.367 49.065 274.079 61.3572 276.875C73.6977 279.671 83.8689 280.49 84.1099 278.755C84.1099 278.707 84.1099 278.61 84.1099 278.562L91.3406 240.962C91.3406 240.962 92.9314 225.199 89.1714 219.656C73.4084 196.518 53.2106 209.195 53.2106 209.195L38.3635 267.62L39.7133 268.246Z" fill="#54B4A6"/>
<path fill-rule="evenodd" clip-rule="evenodd" d="M32.0968 271.042L32.2896 271.091C32.1932 271.235 32.0968 271.38 32.0968 271.524C31.9522 273.742 44.4373 277.55 60.0074 279.96C75.5776 282.37 87.8698 282.708 88.0144 280.442C88.159 278.128 88.7375 274.417 89.1713 269.934C89.3642 269.259 88.4001 268.439 86.5683 267.523C87.3878 268.005 87.7734 268.487 87.6288 268.873C87.195 270.56 78.1806 270.512 66.5633 268.97C65.2135 268.777 63.8156 268.584 62.4177 268.343C62.032 268.295 61.5982 268.198 61.2125 268.15C47.1367 265.836 36.0978 262.414 36.6281 260.485C36.7245 260.052 37.3994 259.377 38.4599 259.184L38.5081 259.039C36.4353 259.232 35.6158 259.28 35.0373 260.341C33.9286 263.522 32.0968 271.042 32.0968 271.042Z" fill="#8ED3C9"/>
<path d="M84.1581 237.25L75.8668 281.551" stroke="#39A08F" stroke-width="0.964097" stroke-miterlimit="10" stroke-linecap="round" stroke-linejoin="round"/>
<path fill-rule="evenodd" clip-rule="evenodd" d="M74.2278 232.623L88.6411 235.033L89.316 249.928C89.316 249.928 76.4453 246.217 74.2278 232.623Z" fill="#2C7A6E"/>
<path d="M86.7129 267.668C87.5324 268.15 87.7253 268.487 87.6289 268.921C87.195 270.608 78.1807 270.56 66.5633 269.018C65.2136 268.825 63.8157 268.632 62.4177 268.391C62.0321 268.343 61.5982 268.246 61.2126 268.198C47.1368 265.884 36.0979 262.462 36.6281 260.533C36.7245 260.1 37.3994 259.425 38.4599 259.232" stroke="#4EB0A1" stroke-width="0.964097" stroke-miterlimit="10" stroke-linecap="round" stroke-linejoin="round"/>
<path d="M68.2986 191.601C68.5879 189.142 81.2657 188.708 96.6431 190.685C112.02 192.661 124.264 196.228 123.975 198.735" stroke="#39A08F" stroke-width="0.964097" stroke-miterlimit="10" stroke-linecap="round" stroke-linejoin="round"/>
<path d="M56.4403 203.652C58.6095 202.206 64.3941 201.531 72.2997 201.627C70.1304 210.931 67.7202 223.705 67.7202 223.705L55.4762 230.116L49.4988 224.862M121.179 208.762C114.382 206.737 105.368 204.857 95.438 203.507C94.4739 211.268 93.558 224.814 93.558 224.814L107.104 235.274L120.746 229.827C120.746 229.827 121.613 217.631 121.179 208.762Z" stroke="#39A08F" stroke-width="0.964097" stroke-miterlimit="10" stroke-linecap="round" stroke-linejoin="round"/>
<path d="M185.774 96.0585L171.312 132.357C170.493 134.43 172.373 134.478 170.204 133.996C167.07 133.321 168.324 130.67 169.047 128.645C169.095 128.5 167.119 122.089 167.167 121.993L182.448 94.5159C182.93 93.6 184.038 93.2626 184.954 93.7446C185.774 94.1785 186.111 95.1908 185.774 96.0585Z" fill="#DE7C62"/>
<path fill-rule="evenodd" clip-rule="evenodd" d="M193.39 123.873C192.908 124.982 192.33 125.753 191.751 126.476C191.173 127.199 190.594 127.826 189.871 128.501C189.437 128.934 188.859 129.079 188.281 128.983C188.088 129.802 187.943 130.573 187.798 131.345C187.798 131.393 187.75 131.489 187.75 131.538C187.943 132.502 188.088 133.514 188.039 134.526C187.557 144.505 181.821 146.336 177.145 145.035C169.914 143.01 170.107 141.564 166.829 139.732C166.444 136.985 166.203 130.14 165.672 123.825C165.383 120.547 167.311 117.173 167.697 115.341C167.89 114.473 168.034 114.714 168.034 113.846C168.034 113.413 168.034 112.979 168.034 112.497C168.034 112.063 167.986 111.581 167.938 111.243L167.89 110.954C167.793 109.894 168.565 108.929 169.625 108.833C170.493 108.737 171.312 109.267 171.602 110.038C171.891 110.713 172.035 111.195 172.18 111.725C172.325 112.256 172.469 112.834 172.566 113.364C172.807 114.473 172.903 115.63 172.951 116.787C173 117.944 172.951 119.101 172.759 120.306C172.71 120.547 172.71 120.788 172.662 120.981C173.192 119.679 173.771 118.474 174.446 117.221C174.88 116.401 175.362 115.582 175.892 114.762C176.47 113.943 177.097 113.123 178.109 112.207C178.64 111.774 179.266 111.292 180.327 111.05C180.809 110.906 181.435 110.858 182.014 110.954C182.592 111.051 183.123 111.243 183.508 111.484L183.797 111.677C183.942 111.774 184.039 111.87 184.135 111.966C184.376 112.159 184.617 112.4 184.762 112.689C185.099 113.172 185.292 113.702 185.388 114.184C185.581 114.184 185.774 114.184 185.918 114.232C186.497 114.328 187.027 114.521 187.413 114.762L187.702 114.955C187.847 115.051 187.943 115.148 188.039 115.244C188.281 115.437 188.522 115.678 188.666 115.967C189.052 116.498 189.245 117.173 189.293 117.703C189.293 117.847 189.293 117.992 189.293 118.137C189.582 118.137 189.871 118.137 190.112 118.185C190.691 118.281 191.221 118.474 191.607 118.715L191.896 118.908C192.04 119.004 192.137 119.101 192.233 119.197C192.474 119.39 192.715 119.631 192.86 119.92C193.246 120.45 193.438 121.125 193.487 121.656C193.872 122.62 193.631 123.295 193.39 123.873ZM188.907 122.282C188.907 122.33 188.907 122.427 188.955 122.475C188.955 122.427 188.955 122.427 188.955 122.379C189.004 122.186 188.907 122.041 188.907 122.282Z" fill="#DE7C62"/>
<path d="M189.919 123.776C189.437 125.03 188.232 128.79 187.798 132.743M183.749 122.764C184.183 122.041 185.051 120.691 185.485 120.161C191.414 112.738 198.307 122.62 188.666 128.934" stroke="black" stroke-width="0.964097" stroke-miterlimit="10" stroke-linecap="round" stroke-linejoin="round"/>
<path d="M179.266 119.968C179.555 119.486 180.52 118.088 180.761 117.703C184.569 112.352 188.907 114.377 189.196 118.281" stroke="black" stroke-width="0.964097" stroke-miterlimit="10" stroke-linecap="round" stroke-linejoin="round"/>
<path d="M176.759 105.218L168.42 119.775" stroke="black" stroke-width="0.964097" stroke-miterlimit="10" stroke-linecap="round" stroke-linejoin="round"/>
<path d="M174.928 117.172C175.41 116.401 176.47 114.81 176.808 114.376C180.23 109.749 184.087 111.098 184.906 114.28" stroke="black" stroke-width="0.964097" stroke-miterlimit="10" stroke-linecap="round" stroke-linejoin="round"/>
<path fill-rule="evenodd" clip-rule="evenodd" d="M167.938 183.309L167.89 183.261C166.251 187.503 162.153 190.54 157.285 190.54C151.018 190.54 145.908 185.43 145.908 179.164C145.908 176.802 146.631 174.632 147.837 172.849L169.722 132.501L185.485 137.418L167.938 183.309Z" fill="#DE7C62"/>
<path fill-rule="evenodd" clip-rule="evenodd" d="M168.613 179.212C168.613 185.478 163.503 190.588 157.237 190.588C152.464 190.588 148.415 187.648 146.728 183.502L120.649 136.454L139.786 118.04L165.865 171.885C167.601 173.813 168.613 176.368 168.613 179.212Z" fill="#DE7C62"/>
<path fill-rule="evenodd" clip-rule="evenodd" d="M129.663 152.603C132.604 145.276 148.656 139.25 148.656 139.25C148.656 139.25 149.331 139.395 150.343 139.684L155.742 150.867C148.608 156.989 137.714 158.725 133.279 159.159L129.663 152.603Z" fill="#C2644C"/>
<path fill-rule="evenodd" clip-rule="evenodd" d="M144.752 152.603C137.81 156.748 131.543 159.207 130.483 157.954V157.905L114.865 135.49C112.985 132.983 111.828 129.802 111.828 126.428C111.828 118.04 118.625 111.291 126.964 111.291C132.122 111.291 136.701 113.894 139.401 117.799L139.449 117.751L155.79 142.383L155.694 142.432C155.742 142.48 155.79 142.48 155.79 142.528C156.755 143.926 151.789 148.409 144.752 152.603Z" fill="#FCC670"/>
<path d="M130.435 158.002C130.435 158.002 126.048 151.591 121.902 145.613" stroke="#D8912B" stroke-width="0.964097" stroke-miterlimit="10" stroke-linecap="round" stroke-linejoin="round"/>
<path d="M154.055 148.795L163.985 168.655" stroke="black" stroke-width="0.964097" stroke-miterlimit="10" stroke-linecap="round" stroke-linejoin="round"/>
<defs>
<filter id="filter0_d_273_990" x="164.876" y="81.8616" width="254.738" height="333.934" filterUnits="userSpaceOnUse" color-interpolation-filters="sRGB">
<feFlood flood-opacity="0" result="BackgroundImageFix"/>
<feColorMatrix in="SourceAlpha" type="matrix" values="0 0 0 0 0 0 0 0 0 0 0 0 0 0 0 0 0 0 127 0" result="hardAlpha"/>
<feOffset dy="2.9856"/>
<feGaussianBlur stdDeviation="13.062"/>
<feComposite in2="hardAlpha" operator="out"/>
<feColorMatrix type="matrix" values="0 0 0 0 0.607843 0 0 0 0 0.6 0 0 0 0 0.6 0 0 0 0.35 0"/>
<feBlend mode="normal" in2="BackgroundImageFix" result="effect1_dropShadow_273_990"/>
<feBlend mode="normal" in="SourceGraphic" in2="effect1_dropShadow_273_990" result="shape"/>
</filter>
<filter id="filter1_d_273_990" x="201.165" y="294.371" width="183.059" height="49.4957" filterUnits="userSpaceOnUse" color-interpolation-filters="sRGB">
<feFlood flood-opacity="0" result="BackgroundImageFix"/>
<feColorMatrix in="SourceAlpha" type="matrix" values="0 0 0 0 0 0 0 0 0 0 0 0 0 0 0 0 0 0 127 0" result="hardAlpha"/>
<feMorphology radius="0.888633" operator="dilate" in="SourceAlpha" result="effect1_dropShadow_273_990"/>
<feOffset dy="0.778999"/>
<feGaussianBlur stdDeviation="1.22271"/>
<feComposite in2="hardAlpha" operator="out"/>
<feColorMatrix type="matrix" values="0 0 0 0 0 0 0 0 0 0 0 0 0 0 0 0 0 0 0.12 0"/>
<feBlend mode="normal" in2="BackgroundImageFix" result="effect1_dropShadow_273_990"/>
<feBlend mode="normal" in="SourceGraphic" in2="effect1_dropShadow_273_990" result="shape"/>
</filter>
</defs>
</svg>
