<svg width="50" height="50" viewBox="0 0 50 50" fill="none" xmlns="http://www.w3.org/2000/svg">
<g clip-path="url(#clip0_81_1406)">
<path d="M22.85 0.474998C20.85 1.375 19.525 3.85 19.875 5.95C20.05 7.075 21.275 9.175 21.875 9.4C22.45 9.625 22.325 9.9 21.45 10.275C20.325 10.725 18.55 12.4 17.975 13.575L17.475 14.55L18.425 15.425C18.95 15.925 20.1 16.675 21 17.1C22.45 17.8 22.875 17.875 25 17.875C27.125 17.875 27.55 17.8 29 17.1C29.9 16.675 31.05 15.925 31.575 15.425L32.525 14.525L32.125 13.7C31.525 12.525 30.05 11.05 28.875 10.45C27.55 9.775 27.575 9.825 28.35 9.225C29.75 8.125 30.5 5.7 30 3.9C29.375 1.625 27.275 -1.90735e-06 25 -1.90735e-06C24.375 -1.90735e-06 23.425 0.224998 22.85 0.474998Z" fill="#ED5C18"/>
<path d="M14.025 24.15C12.5 26.85 11.3 29.125 11.35 29.225C11.625 29.625 13.275 30.325 13.475 30.1C13.775 29.775 19.025 20.45 18.95 20.375C18.425 20.05 17.025 19.25 16.925 19.25C16.85 19.25 15.55 21.45 14.025 24.15Z" fill="#ED5C18"/>
<path d="M32.125 19.7751C31.725 20.0251 31.275 20.2751 31.175 20.3251C31 20.3751 35.975 29.5251 36.5 30.0751C36.75 30.3501 37.45 30.1251 38.2 29.5501L38.775 29.1001L35.975 24.1751C34.45 21.4751 33.125 19.2501 33.025 19.2751C32.95 19.2751 32.55 19.5001 32.125 19.7751Z" fill="#ED5C18"/>
<path d="M5.34999 32.2251C3.64999 33.0001 2.24999 35.1501 2.24999 37.0001C2.24999 38.1501 2.87499 39.6251 3.79999 40.5751C4.32499 41.1251 4.72499 41.6001 4.69999 41.6251C4.64999 41.6751 4.17499 41.9251 3.62499 42.2001C2.47499 42.7751 0.974994 44.2751 0.424994 45.4001C-0.0750058 46.3751 0.199994 46.8251 2.07499 48.0751C5.79999 50.5501 10.925 50.1751 14.075 47.1751L15.025 46.2751L14.625 45.4501C14.025 44.2751 12.55 42.8001 11.375 42.2001C10.05 41.5251 10.075 41.5751 10.85 40.9751C12.25 39.8751 13 37.4501 12.5 35.6501C11.875 33.3751 9.77499 31.7501 7.49999 31.7501C6.87499 31.7501 5.92499 31.9751 5.34999 32.2251Z" fill="#ED5C18"/>
<path d="M40.35 32.2251C38.35 33.1251 37.025 35.6001 37.375 37.7001C37.55 38.8251 38.775 40.9251 39.375 41.1501C39.95 41.3751 39.825 41.6501 38.95 42.0251C37.85 42.4751 36.05 44.1501 35.5 45.2751C34.925 46.4001 35.125 46.8001 37.075 48.0751C40.8 50.5501 45.925 50.1751 49.075 47.1751L50.025 46.2751L49.625 45.4501C49.025 44.2751 47.55 42.8001 46.375 42.2001C45.05 41.5251 45.075 41.5751 45.85 40.9751C47.25 39.8751 48 37.4501 47.5 35.6501C46.875 33.3751 44.775 31.7501 42.5 31.7501C41.875 31.7501 40.925 31.9751 40.35 32.2251Z" fill="#ED5C18"/>
<path d="M15 36V37.25H25H35V36V34.75H25H15V36Z" fill="#ED5C18"/>
</g>
<defs>
<clipPath id="clip0_81_1406">
<rect width="50" height="50" fill="white"/>
</clipPath>
</defs>
</svg>
