<svg width="50" height="50" viewBox="0 0 50 50" fill="none" xmlns="http://www.w3.org/2000/svg">
<circle cx="25" cy="25" r="25" fill="#ED5C18"/>
<path d="M15.7706 13.6969C12.549 13.6969 9.93732 16.3088 9.93732 19.5302V28.2802C9.93732 30.4911 11.0338 32.2848 12.9292 33.3508C13.2528 35.4479 15.0415 37.0302 17.229 37.0302C19.0779 37.0302 20.7278 35.8724 21.34 34.1121L26.2361 34.1106C26.8973 35.8519 28.5051 37.0302 30.354 37.0302C32.2546 37.0302 33.8551 35.8461 34.5083 34.0334C37.3175 33.6396 39.104 31.6592 39.104 28.2802C39.104 28.2802 39.104 28.2802 39.104 26.8219C39.104 23.1002 35.5344 19.5302 31.8123 19.5302C31.8123 16.3088 29.2006 13.6969 25.979 13.6969C24.7029 13.6969 17.0467 13.6969 15.7706 13.6969ZM15.7706 16.6136C17.0467 16.6136 24.7029 16.6136 25.979 16.6136C27.5899 16.6136 28.8958 17.9188 28.8956 19.5302C28.8956 19.5302 28.8956 20.6677 28.8956 20.9886C28.8956 22.7269 28.9032 27.1092 28.9032 28.5281C27.7641 28.9102 26.6695 29.8903 26.2241 31.1882C26.2241 31.1882 21.6856 31.1925 21.3495 31.2086C20.6214 29.1202 18.6767 28.2627 17.229 28.2802C15.7813 28.2977 14.4514 28.9832 13.5951 30.2315C13.1871 29.9194 12.854 29.1173 12.854 28.2802V19.5302C12.854 17.9188 14.1598 16.6136 15.7706 16.6136ZM31.8123 22.4469C33.9235 22.4469 36.1873 24.7102 36.1873 26.8219C36.1873 28.2802 36.1873 28.2802 36.1873 28.2802C36.1873 30.0259 35.6683 30.7842 34.4378 31.0758C34.065 29.9952 32.9463 28.8942 31.8215 28.5471L31.8123 22.4469ZM17.229 31.1969C18.0067 31.1852 18.6861 31.8444 18.6873 32.6552C18.6873 33.4602 18.0344 34.1136 17.229 34.1136C16.4235 34.1136 15.7706 33.4602 15.7706 32.6552C15.8913 31.8517 16.4724 31.2086 17.229 31.1969ZM30.354 31.1969C31.1594 31.1969 31.8123 31.8502 31.8123 32.6552C31.8123 33.4602 31.1594 34.1136 30.354 34.1136C29.5485 34.1136 28.8956 33.4602 28.8956 32.6552C28.8956 32.2527 29.0419 31.8707 29.3057 31.6067C29.5697 31.3427 29.9513 31.1969 30.354 31.1969Z" fill="white"/>
</svg>
