<svg width="50" height="50" viewBox="0 0 50 50" fill="none" xmlns="http://www.w3.org/2000/svg">
<circle cx="25" cy="25" r="25" fill="#ED5C18"/>
<g clip-path="url(#clip0_105_196)">
<path d="M38.5523 24.734L35.6621 24.7334C34.8642 24.734 34.2164 25.3806 34.2151 26.1785V38.4108C34.2151 39.21 34.8642 39.8572 35.6621 39.8572H38.5523C39.3515 39.8572 40 39.21 40 38.4108V26.1811C40 25.3819 39.3515 24.734 38.5523 24.734ZM37.4002 38.3464C36.9368 38.8104 36.1855 38.8104 35.7221 38.3464C35.2587 37.8823 35.2587 37.1323 35.7221 36.6689C36.1855 36.2043 36.9374 36.2043 37.4002 36.6689C37.863 37.1317 37.863 37.8823 37.4002 38.3464Z" fill="white"/>
<path d="M28.5604 16.1806C28.6862 14.3366 29.1789 13.4034 29.3506 11.5823C29.4489 10.5445 28.3619 10 26.3845 10C24.407 10 23.6411 11.77 23.4177 12.3732C22.9236 13.7085 23.4177 18.1083 23.4177 20.2843C23.4177 21.9987 20.3506 22.9396 16.8413 22.9453C12.0138 22.9549 10 21.8009 10 24.8296C10 25.8777 10.6466 26.7272 11.4457 26.7266C10.6466 26.7266 9.99936 27.5781 10 28.6249C10 29.6717 10.6466 30.5232 11.4457 30.5213C10.6466 30.5226 10.0006 31.3721 10 32.4177C10 33.4677 10.6479 34.3153 11.4457 34.3166C10.6479 34.3153 10 35.1655 10.0006 36.2155C10.0006 37.2643 10.6472 38.1126 11.4457 38.1126C11.4457 38.1126 13.5004 38.1145 21.294 38.1145C29.0877 38.1145 31.9351 38.1145 31.9351 38.1145C32.334 38.1145 32.657 37.7908 32.6577 37.3906V26.4094C32.6583 26.2926 32.6289 26.1783 32.5753 26.0749C32.5753 26.0749 28.2138 21.273 28.5604 16.1806Z" fill="white"/>
</g>
<defs>
<clipPath id="clip0_105_196">
<rect width="30" height="30" fill="white" transform="translate(10 10)"/>
</clipPath>
</defs>
</svg>
