<svg width="635" height="416" viewBox="0 0 635 416" fill="none" xmlns="http://www.w3.org/2000/svg">
<rect x="2" y="2" width="496" height="404" rx="8" fill="#F7FBFF" stroke="#CCCCCC" stroke-width="4"/>
<rect x="353" y="388" width="24" height="125" transform="rotate(-90 353 388)" fill="#B9C7D0"/>
<circle cx="364" cy="364" r="7" transform="rotate(-90 364 364)" fill="#02BF93" stroke="white" stroke-width="2"/>
<circle cx="390" cy="364" r="7" transform="rotate(-90 390 364)" fill="#02BF93" stroke="white" stroke-width="2"/>
<circle cx="416" cy="364" r="7" transform="rotate(-90 416 364)" fill="#02BF93" stroke="white" stroke-width="2"/>
<circle cx="442" cy="364" r="7" transform="rotate(-90 442 364)" fill="#B9C7D0" stroke="white" stroke-width="2"/>
<circle cx="468" cy="364" r="7" transform="rotate(-90 468 364)" fill="#B9C7D0" stroke="white" stroke-width="2"/>
<rect x="249" y="388" width="24" height="125" transform="rotate(-90 249 388)" fill="#B9C7D0"/>
<circle cx="260" cy="364" r="7" transform="rotate(-90 260 364)" fill="#02BF93" stroke="white" stroke-width="2"/>
<circle cx="286" cy="364" r="7" transform="rotate(-90 286 364)" fill="#02BF93" stroke="white" stroke-width="2"/>
<circle cx="312" cy="364" r="7" transform="rotate(-90 312 364)" fill="#02BF93" stroke="white" stroke-width="2"/>
<circle cx="338" cy="364" r="7" transform="rotate(-90 338 364)" fill="#B9C7D0" stroke="white" stroke-width="2"/>
<circle cx="364" cy="364" r="7" transform="rotate(-90 364 364)" fill="#B9C7D0" stroke="white" stroke-width="2"/>
<rect x="478" y="308" width="24" height="155" transform="rotate(90 478 308)" fill="#B9C7D0"/>
<circle cx="467" cy="332" r="7" transform="rotate(90 467 332)" fill="#02BF93" stroke="white" stroke-width="2"/>
<circle cx="441" cy="332" r="7" transform="rotate(90 441 332)" fill="#02BF93" stroke="white" stroke-width="2"/>
<circle cx="415" cy="332" r="7" transform="rotate(90 415 332)" fill="#02BF93" stroke="white" stroke-width="2"/>
<circle cx="389" cy="332" r="7" transform="rotate(90 389 332)" fill="#B9C7D0" stroke="white" stroke-width="2"/>
<circle cx="363" cy="332" r="7" transform="rotate(90 363 332)" fill="#B9C7D0" stroke="white" stroke-width="2"/>
<circle cx="337" cy="332" r="7" transform="rotate(90 337 332)" fill="#B9C7D0" stroke="white" stroke-width="2"/>
<rect x="186" y="248" width="5" height="140" fill="#D8E4EE"/>
<rect x="26" y="393" width="5" height="165" transform="rotate(-90 26 393)" fill="#D8E4EE"/>
<circle cx="124.5" cy="341.5" r="21.5" fill="#B9C7D0" stroke="white" stroke-width="2"/>
<circle cx="102" cy="342" r="7" fill="#02BF93" stroke="white" stroke-width="2"/>
<circle cx="147" cy="342" r="7" fill="#B9C7D0" stroke="white" stroke-width="2"/>
<circle cx="125" cy="319" r="7" fill="#02BF93" stroke="white" stroke-width="2"/>
<circle cx="125" cy="364" r="7" fill="#B9C7D0" stroke="white" stroke-width="2"/>
<circle cx="124.5" cy="278.5" r="21.5" fill="#B9C7D0" stroke="white" stroke-width="2"/>
<circle cx="102" cy="279" r="7" fill="#B9C7D0" stroke="white" stroke-width="2"/>
<circle cx="147" cy="279" r="7" fill="#02BF93" stroke="white" stroke-width="2"/>
<circle cx="125" cy="256" r="7" fill="#02BF93" stroke="white" stroke-width="2"/>
<circle cx="125" cy="301" r="7" fill="#B9C7D0" stroke="white" stroke-width="2"/>
<rect x="26" y="253" width="24" height="125" fill="#B9C7D0"/>
<circle cx="50" cy="264" r="7" fill="#02BF93" stroke="white" stroke-width="2"/>
<circle cx="50" cy="290" r="7" fill="#02BF93" stroke="white" stroke-width="2"/>
<circle cx="50" cy="316" r="7" fill="#02BF93" stroke="white" stroke-width="2"/>
<circle cx="50" cy="342" r="7" fill="#B9C7D0" stroke="white" stroke-width="2"/>
<circle cx="50" cy="368" r="7" fill="#B9C7D0" stroke="white" stroke-width="2"/>
<rect x="481" y="65" width="24" height="125" transform="rotate(90 481 65)" fill="#B9C7D0"/>
<circle cx="470" cy="89" r="7" transform="rotate(90 470 89)" fill="#02BF93" stroke="white" stroke-width="2"/>
<circle cx="444" cy="89" r="7" transform="rotate(90 444 89)" fill="#02BF93" stroke="white" stroke-width="2"/>
<circle cx="418" cy="89" r="7" transform="rotate(90 418 89)" fill="#02BF93" stroke="white" stroke-width="2"/>
<circle cx="392" cy="89" r="7" transform="rotate(90 392 89)" fill="#B9C7D0" stroke="white" stroke-width="2"/>
<circle cx="366" cy="89" r="7" transform="rotate(90 366 89)" fill="#B9C7D0" stroke="white" stroke-width="2"/>
<rect x="377" y="65" width="24" height="125" transform="rotate(90 377 65)" fill="#B9C7D0"/>
<circle cx="366" cy="89" r="7" transform="rotate(90 366 89)" fill="#02BF93" stroke="white" stroke-width="2"/>
<circle cx="340" cy="89" r="7" transform="rotate(90 340 89)" fill="#02BF93" stroke="white" stroke-width="2"/>
<circle cx="314" cy="89" r="7" transform="rotate(90 314 89)" fill="#02BF93" stroke="white" stroke-width="2"/>
<circle cx="288" cy="89" r="7" transform="rotate(90 288 89)" fill="#B9C7D0" stroke="white" stroke-width="2"/>
<circle cx="262" cy="89" r="7" transform="rotate(90 262 89)" fill="#B9C7D0" stroke="white" stroke-width="2"/>
<rect x="23" y="65" width="213" height="161" rx="30" fill="#D8E4EE"/>
<rect x="223" y="162" width="20" height="30" rx="3" transform="rotate(90 223 162)" fill="#B9C7D0"/>
<circle cx="208" cy="162" r="7" transform="rotate(90 208 162)" fill="#B9C7D0" stroke="white" stroke-width="2"/>
<rect x="193" y="203" width="20" height="30" rx="3" transform="rotate(-90 193 203)" fill="#B9C7D0"/>
<circle cx="208" cy="203" r="7" transform="rotate(-90 208 203)" fill="#B9C7D0" stroke="white" stroke-width="2"/>
<rect x="191" y="162" width="20" height="30" rx="3" transform="rotate(90 191 162)" fill="#B9C7D0"/>
<circle cx="176" cy="162" r="7" transform="rotate(90 176 162)" fill="#B9C7D0" stroke="white" stroke-width="2"/>
<rect x="161" y="203" width="20" height="30" rx="3" transform="rotate(-90 161 203)" fill="#B9C7D0"/>
<circle cx="176" cy="203" r="7" transform="rotate(-90 176 203)" fill="#02BF93" stroke="white" stroke-width="2"/>
<rect x="159" y="162" width="20" height="30" rx="3" transform="rotate(90 159 162)" fill="#B9C7D0"/>
<circle cx="144" cy="162" r="7" transform="rotate(90 144 162)" fill="#02BF93" stroke="white" stroke-width="2"/>
<rect x="129" y="203" width="20" height="30" rx="3" transform="rotate(-90 129 203)" fill="#B9C7D0"/>
<circle cx="144" cy="203" r="7" transform="rotate(-90 144 203)" fill="#02BF93" stroke="white" stroke-width="2"/>
<rect x="127" y="162" width="20" height="30" rx="3" transform="rotate(90 127 162)" fill="#B9C7D0"/>
<circle cx="112" cy="162" r="7" transform="rotate(90 112 162)" fill="#02BF93" stroke="white" stroke-width="2"/>
<rect x="97" y="203" width="20" height="30" rx="3" transform="rotate(-90 97 203)" fill="#B9C7D0"/>
<circle cx="112" cy="203" r="7" transform="rotate(-90 112 203)" fill="#B9C7D0" stroke="white" stroke-width="2"/>
<rect x="478" y="246" width="20" height="30" rx="3" transform="rotate(90 478 246)" fill="#B9C7D0"/>
<circle cx="463" cy="246" r="7" transform="rotate(90 463 246)" fill="#B9C7D0" stroke="white" stroke-width="2"/>
<rect x="448" y="287" width="20" height="30" rx="3" transform="rotate(-90 448 287)" fill="#B9C7D0"/>
<circle cx="463" cy="287" r="7" transform="rotate(-90 463 287)" fill="#B9C7D0" stroke="white" stroke-width="2"/>
<rect x="446" y="246" width="20" height="30" rx="3" transform="rotate(90 446 246)" fill="#B9C7D0"/>
<circle cx="431" cy="246" r="7" transform="rotate(90 431 246)" fill="#B9C7D0" stroke="white" stroke-width="2"/>
<rect x="416" y="287" width="20" height="30" rx="3" transform="rotate(-90 416 287)" fill="#B9C7D0"/>
<circle cx="431" cy="287" r="7" transform="rotate(-90 431 287)" fill="#02BF93" stroke="white" stroke-width="2"/>
<rect x="414" y="246" width="20" height="30" rx="3" transform="rotate(90 414 246)" fill="#B9C7D0"/>
<circle cx="399" cy="246" r="7" transform="rotate(90 399 246)" fill="#02BF93" stroke="white" stroke-width="2"/>
<rect x="384" y="287" width="20" height="30" rx="3" transform="rotate(-90 384 287)" fill="#B9C7D0"/>
<circle cx="399" cy="287" r="7" transform="rotate(-90 399 287)" fill="#02BF93" stroke="white" stroke-width="2"/>
<rect x="382" y="246" width="20" height="30" rx="3" transform="rotate(90 382 246)" fill="#B9C7D0"/>
<circle cx="367" cy="246" r="7" transform="rotate(90 367 246)" fill="#02BF93" stroke="white" stroke-width="2"/>
<rect x="352" y="287" width="20" height="30" rx="3" transform="rotate(-90 352 287)" fill="#B9C7D0"/>
<circle cx="367" cy="287" r="7" transform="rotate(-90 367 287)" fill="#B9C7D0" stroke="white" stroke-width="2"/>
<rect x="479" y="114" width="20" height="30" rx="3" transform="rotate(90 479 114)" fill="#B9C7D0"/>
<circle cx="464" cy="114" r="7" transform="rotate(90 464 114)" fill="#B9C7D0" stroke="white" stroke-width="2"/>
<rect x="449" y="155" width="20" height="30" rx="3" transform="rotate(-90 449 155)" fill="#B9C7D0"/>
<circle cx="464" cy="155" r="7" transform="rotate(-90 464 155)" fill="#B9C7D0" stroke="white" stroke-width="2"/>
<rect x="447" y="114" width="20" height="30" rx="3" transform="rotate(90 447 114)" fill="#B9C7D0"/>
<circle cx="432" cy="114" r="7" transform="rotate(90 432 114)" fill="#B9C7D0" stroke="white" stroke-width="2"/>
<rect x="417" y="155" width="20" height="30" rx="3" transform="rotate(-90 417 155)" fill="#B9C7D0"/>
<circle cx="432" cy="155" r="7" transform="rotate(-90 432 155)" fill="#02BF93" stroke="white" stroke-width="2"/>
<rect x="415" y="114" width="20" height="30" rx="3" transform="rotate(90 415 114)" fill="#B9C7D0"/>
<circle cx="400" cy="114" r="7" transform="rotate(90 400 114)" fill="#02BF93" stroke="white" stroke-width="2"/>
<rect x="385" y="155" width="20" height="30" rx="3" transform="rotate(-90 385 155)" fill="#B9C7D0"/>
<circle cx="400" cy="155" r="7" transform="rotate(-90 400 155)" fill="#02BF93" stroke="white" stroke-width="2"/>
<rect x="383" y="114" width="20" height="30" rx="3" transform="rotate(90 383 114)" fill="#B9C7D0"/>
<circle cx="368" cy="114" r="7" transform="rotate(90 368 114)" fill="#02BF93" stroke="white" stroke-width="2"/>
<rect x="353" y="155" width="20" height="30" rx="3" transform="rotate(-90 353 155)" fill="#B9C7D0"/>
<circle cx="368" cy="155" r="7" transform="rotate(-90 368 155)" fill="#B9C7D0" stroke="white" stroke-width="2"/>
<rect x="67" y="162" width="20" height="30" rx="3" transform="rotate(90 67 162)" fill="#B9C7D0"/>
<circle cx="52" cy="162" r="7" transform="rotate(90 52 162)" fill="#B9C7D0" stroke="white" stroke-width="2"/>
<rect x="37" y="203" width="20" height="30" rx="3" transform="rotate(-90 37 203)" fill="#B9C7D0"/>
<circle cx="52" cy="203" r="7" transform="rotate(-90 52 203)" fill="#02BF93" stroke="white" stroke-width="2"/>
<rect x="286" y="117" width="20" height="30" rx="3" transform="rotate(90 286 117)" fill="#B9C7D0"/>
<circle cx="271" cy="117" r="7" transform="rotate(90 271 117)" fill="#B9C7D0" stroke="white" stroke-width="2"/>
<rect x="256" y="158" width="20" height="30" rx="3" transform="rotate(-90 256 158)" fill="#B9C7D0"/>
<circle cx="271" cy="158" r="7" transform="rotate(-90 271 158)" fill="#02BF93" stroke="white" stroke-width="2"/>
<rect x="286" y="117" width="20" height="30" rx="3" transform="rotate(90 286 117)" fill="#B9C7D0"/>
<circle cx="271" cy="117" r="7" transform="rotate(90 271 117)" fill="#B9C7D0" stroke="white" stroke-width="2"/>
<rect x="256" y="158" width="20" height="30" rx="3" transform="rotate(-90 256 158)" fill="#B9C7D0"/>
<circle cx="271" cy="158" r="7" transform="rotate(-90 271 158)" fill="#02BF93" stroke="white" stroke-width="2"/>
<rect x="321" y="117" width="20" height="30" rx="3" transform="rotate(90 321 117)" fill="#B9C7D0"/>
<circle cx="306" cy="117" r="7" transform="rotate(90 306 117)" fill="#B9C7D0" stroke="white" stroke-width="2"/>
<rect x="291" y="158" width="20" height="30" rx="3" transform="rotate(-90 291 158)" fill="#B9C7D0"/>
<circle cx="306" cy="158" r="7" transform="rotate(-90 306 158)" fill="#02BF93" stroke="white" stroke-width="2"/>
<rect x="270" y="337" width="20" height="30" rx="3" transform="rotate(-180 270 337)" fill="#ED5C18"/>
<circle cx="270" cy="322" r="7" transform="rotate(-180 270 322)" fill="#ED5C18" stroke="white" stroke-width="2"/>
<rect x="229" y="307" width="20" height="30" rx="3" fill="#B9C7D0"/>
<circle cx="229" cy="322" r="7" fill="#B9C7D0" stroke="white" stroke-width="2"/>
<rect x="270" y="266" width="20" height="30" rx="3" transform="rotate(-180 270 266)" fill="#B9C7D0"/>
<circle cx="270" cy="251" r="7" transform="rotate(-180 270 251)" fill="#B9C7D0" stroke="white" stroke-width="2"/>
<rect x="229" y="236" width="20" height="30" rx="3" fill="#B9C7D0"/>
<circle cx="229" cy="251" r="7" fill="#B9C7D0" stroke="white" stroke-width="2"/>
<rect x="270" y="302" width="20" height="30" rx="3" transform="rotate(-180 270 302)" fill="#B9C7D0"/>
<circle cx="270" cy="287" r="7" transform="rotate(-180 270 287)" fill="#B9C7D0" stroke="white" stroke-width="2"/>
<rect x="229" y="272" width="20" height="30" rx="3" fill="#B9C7D0"/>
<circle cx="229" cy="287" r="7" fill="#B9C7D0" stroke="white" stroke-width="2"/>
<rect x="86" y="115" width="20" height="30" rx="3" transform="rotate(-180 86 115)" fill="#B9C7D0"/>
<circle cx="86" cy="100" r="7" transform="rotate(-180 86 100)" fill="#02BF93" stroke="white" stroke-width="2"/>
<rect x="45" y="85" width="20" height="30" rx="3" fill="#B9C7D0"/>
<circle cx="45" cy="100" r="7" fill="#B9C7D0" stroke="white" stroke-width="2"/>
<rect x="220" y="115" width="20" height="30" rx="3" transform="rotate(-180 220 115)" fill="#B9C7D0"/>
<circle cx="220" cy="100" r="7" transform="rotate(-180 220 100)" fill="#02BF93" stroke="white" stroke-width="2"/>
<rect x="179" y="85" width="20" height="30" rx="3" fill="#B9C7D0"/>
<circle cx="179" cy="100" r="7" fill="#B9C7D0" stroke="white" stroke-width="2"/>
<path d="M37 120C37 119.448 37.4477 119 38 119H159C159.552 119 160 119.448 160 120V141.377C160 141.929 159.552 142.377 159 142.377H57.9927C57.6821 142.377 57.3891 142.521 57.1998 142.768L52.4358 148.968C52.0355 149.489 51.2502 149.489 50.8499 148.968L46.0859 142.768C45.8967 142.521 45.6036 142.377 45.293 142.377H38C37.4477 142.377 37 141.929 37 141.377V120Z" fill="#164066"/>
<path d="M47.3322 124.994C46.5958 124.994 45.9989 125.59 45.9989 126.327V128.994C45.9989 129.73 46.5958 130.327 47.3322 130.327H49.9989C50.7353 130.327 51.3322 129.73 51.3322 128.994V126.327C51.3322 125.59 50.7353 124.994 49.9989 124.994H47.3322ZM53.9989 124.994C53.2625 124.994 52.6656 125.59 52.6656 126.327V128.994C52.6656 129.73 53.2625 130.327 53.9989 130.327H56.6656C57.402 130.327 57.9989 129.73 57.9989 128.994V126.327C57.9989 125.59 57.402 124.994 56.6656 124.994H53.9989ZM47.3322 131.66C46.5958 131.66 45.9989 132.257 45.9989 132.994V135.66C45.9989 136.397 46.5958 136.994 47.3322 136.994H49.9989C50.7353 136.994 51.3322 136.397 51.3322 135.66V132.994C51.3322 132.257 50.7353 131.66 49.9989 131.66H47.3322ZM53.9989 131.66C53.2625 131.66 52.6656 132.257 52.6656 132.994V135.66C52.6656 136.397 53.2625 136.994 53.9989 136.994H56.6656C57.402 136.994 57.9989 136.397 57.9989 135.66V132.994C57.9989 132.257 57.402 131.66 56.6656 131.66H53.9989Z" fill="white"/>
<path d="M69.45 129.93C69.45 130.47 69.23 131.06 68.56 131.33C69.36 131.52 69.82 132.32 69.82 132.98C69.82 134.07 69.06 135 67.75 135H64.9V128.11H67.54C68.71 128.11 69.45 128.8 69.45 129.93ZM65.97 130.94H67.5C68.06 130.94 68.35 130.49 68.35 129.97C68.35 129.41 68 129.08 67.43 129.08H65.97V130.94ZM67.67 131.85H65.97V134.03H67.7C68.34 134.03 68.71 133.5 68.71 132.97C68.71 132.46 68.33 131.85 67.67 131.85ZM73.1391 134.1C73.9191 134.1 74.5591 133.53 74.5591 132.65C74.5591 131.8 73.9191 131.24 73.1391 131.24C72.3691 131.24 71.7291 131.8 71.7291 132.65C71.7291 133.53 72.3691 134.1 73.1391 134.1ZM73.1391 135.1C71.8191 135.1 70.7091 134.13 70.7091 132.65C70.7091 131.17 71.8191 130.23 73.1391 130.23C74.4691 130.23 75.5891 131.17 75.5891 132.65C75.5891 134.13 74.4691 135.1 73.1391 135.1ZM78.8617 134.1C79.6417 134.1 80.2817 133.53 80.2817 132.65C80.2817 131.8 79.6417 131.24 78.8617 131.24C78.0917 131.24 77.4517 131.8 77.4517 132.65C77.4517 133.53 78.0917 134.1 78.8617 134.1ZM78.8617 135.1C77.5417 135.1 76.4317 134.13 76.4317 132.65C76.4317 131.17 77.5417 130.23 78.8617 130.23C80.1917 130.23 81.3117 131.17 81.3117 132.65C81.3117 134.13 80.1917 135.1 78.8617 135.1ZM85.4644 135L83.4744 132.83V135H82.4544V127.79H83.4744V131.87L84.9544 130.33H86.3344L84.3444 132.36L86.7844 135H85.4644ZM91.6698 132.65C91.6698 132.76 91.6698 132.92 91.6598 133.03H87.9498C88.0598 133.75 88.6198 134.2 89.3798 134.2C89.8998 134.2 90.4098 133.96 90.6498 133.53L91.4898 133.9C91.0898 134.73 90.1998 135.1 89.3298 135.1C88.0098 135.1 86.9298 134.13 86.9298 132.65C86.9298 131.17 88.0098 130.23 89.3298 130.23C90.6498 130.23 91.6698 131.17 91.6698 132.65ZM87.9498 132.28H90.6598C90.5498 131.55 90.0398 131.13 89.3298 131.13C88.6098 131.13 88.0598 131.56 87.9498 132.28ZM96.3771 135V134.32C96.0871 134.83 95.4371 135.1 94.7971 135.1C93.5371 135.1 92.4671 134.14 92.4671 132.67C92.4671 131.17 93.5371 130.23 94.7971 130.23C95.4671 130.23 96.0871 130.49 96.3771 131V127.79H97.3971V135H96.3771ZM96.3571 132.65C96.3571 131.74 95.6171 131.23 94.9271 131.23C94.1571 131.23 93.5271 131.79 93.5271 132.65C93.5271 133.51 94.1571 134.1 94.9271 134.1C95.6871 134.1 96.3571 133.56 96.3571 132.65ZM102.78 128.56V130.33H103.77V131.18H102.78V135H101.75V131.18H100.91V130.33H101.75V128.56H102.78ZM105.76 130.33V135H104.74V130.33H105.76ZM104.56 128.44C104.56 128.07 104.88 127.79 105.25 127.79C105.64 127.79 105.93 128.07 105.93 128.44C105.93 128.81 105.64 129.09 105.25 129.09C104.88 129.09 104.56 128.81 104.56 128.44ZM107.2 135V127.79H108.23V135H107.2ZM109.671 135V127.79H110.701V135H109.671ZM115.801 132.7H117.511V130.15L115.801 132.7ZM119.441 133.63H118.531V135H117.511V133.63H114.171L117.651 128.47H118.531V132.7H119.441V133.63ZM120.499 134.43C120.499 134.04 120.809 133.75 121.199 133.75C121.589 133.75 121.909 134.04 121.909 134.43C121.909 134.82 121.589 135.1 121.199 135.1C120.809 135.1 120.499 134.82 120.499 134.43ZM125.095 132H124.365V131.05H125.095C125.615 131.05 125.885 130.63 125.935 130.31C125.975 130.02 125.905 129.65 125.455 129.46C125.305 129.39 125.155 129.39 125.005 129.39C124.605 129.38 124.315 129.57 124.085 129.9L123.305 129.33C123.665 128.7 124.395 128.32 125.225 128.37C126.315 128.42 127.065 129.26 127.065 130.18C127.065 130.7 126.745 131.19 126.275 131.47C126.945 131.71 127.325 132.49 127.325 133.18C127.325 134.39 126.345 135.1 125.045 135.1C124.025 135.1 123.265 134.53 122.915 133.78L123.815 133.3C124.005 133.73 124.595 134.1 125.045 134.1H125.035C125.875 134.1 126.265 133.66 126.265 133.1C126.265 132.58 125.865 132 125.095 132ZM128.536 131.75C128.536 129.89 129.046 128.38 130.926 128.38C132.816 128.38 133.306 129.89 133.306 131.75C133.306 133.59 132.816 135.1 130.926 135.1C129.046 135.1 128.536 133.59 128.536 131.75ZM129.556 131.75C129.556 133.04 129.836 134.1 130.926 134.1C132.006 134.1 132.286 133.04 132.286 131.75C132.286 130.46 132.006 129.4 130.926 129.4C129.836 129.4 129.556 130.46 129.556 131.75ZM140.13 129.09H138.45V131.5H140.09C140.85 131.5 141.19 130.89 141.19 130.3C141.19 129.72 140.88 129.09 140.13 129.09ZM137.38 135V128.11H140.15C141.63 128.11 142.25 129.21 142.25 130.3C142.25 131.39 141.63 132.47 140.15 132.47H138.45V135H137.38ZM147.136 133.02L149.476 128.11H150.426L151.266 135H150.206L149.616 130.08L147.596 134.23H146.696L144.666 130.08L144.076 135H143.016L143.856 128.11H144.796L147.136 133.02Z" fill="white"/>
<path d="M252 370C252 370.552 252.448 371 253 371H347C347.552 371 348 370.552 348 370V348.623C348 348.071 347.552 347.623 347 347.623H268.566C268.215 347.623 267.889 347.439 267.709 347.137L264.286 341.43C263.898 340.782 262.959 340.782 262.571 341.43L259.148 347.137C258.968 347.439 258.642 347.623 258.291 347.623H253C252.448 347.623 252 348.071 252 348.623V370Z" fill="#164066"/>
<path d="M264.71 363H263.62V359.84L261 356.11H262.27L264.17 358.85L266.09 356.11H267.36L264.71 359.85V363ZM269.123 362.1C269.903 362.1 270.543 361.53 270.543 360.65C270.543 359.8 269.903 359.24 269.123 359.24C268.353 359.24 267.713 359.8 267.713 360.65C267.713 361.53 268.353 362.1 269.123 362.1ZM269.123 363.1C267.803 363.1 266.693 362.13 266.693 360.65C266.693 359.17 267.803 358.23 269.123 358.23C270.453 358.23 271.573 359.17 271.573 360.65C271.573 362.13 270.453 363.1 269.123 363.1ZM275.866 360.84V358.33H276.896V363H275.866V362.32C275.596 362.85 274.966 363.1 274.476 363.1C273.326 363.1 272.656 362.38 272.666 361.05V358.33H273.696V360.93C273.696 361.7 274.106 362.1 274.666 362.1C275.266 362.1 275.866 361.77 275.866 360.84ZM279.361 361.32V363H278.331V358.33H279.361V359.4C279.601 358.56 280.051 358.23 280.641 358.23C280.971 358.23 281.321 358.3 281.471 358.41L281.301 359.36C281.031 359.23 280.811 359.2 280.611 359.2C279.731 359.2 279.361 360.08 279.361 361.32ZM289.36 357.93C289.36 358.47 289.14 359.06 288.47 359.33C289.27 359.52 289.73 360.32 289.73 360.98C289.73 362.07 288.97 363 287.66 363H284.81V356.11H287.45C288.62 356.11 289.36 356.8 289.36 357.93ZM285.88 358.94H287.41C287.97 358.94 288.26 358.49 288.26 357.97C288.26 357.41 287.91 357.08 287.34 357.08H285.88V358.94ZM287.58 359.85H285.88V362.03H287.61C288.25 362.03 288.62 361.5 288.62 360.97C288.62 360.46 288.24 359.85 287.58 359.85ZM293.049 362.1C293.829 362.1 294.469 361.53 294.469 360.65C294.469 359.8 293.829 359.24 293.049 359.24C292.279 359.24 291.639 359.8 291.639 360.65C291.639 361.53 292.279 362.1 293.049 362.1ZM293.049 363.1C291.729 363.1 290.619 362.13 290.619 360.65C290.619 359.17 291.729 358.23 293.049 358.23C294.379 358.23 295.499 359.17 295.499 360.65C295.499 362.13 294.379 363.1 293.049 363.1ZM298.772 362.1C299.552 362.1 300.192 361.53 300.192 360.65C300.192 359.8 299.552 359.24 298.772 359.24C298.002 359.24 297.362 359.8 297.362 360.65C297.362 361.53 298.002 362.1 298.772 362.1ZM298.772 363.1C297.452 363.1 296.342 362.13 296.342 360.65C296.342 359.17 297.452 358.23 298.772 358.23C300.102 358.23 301.222 359.17 301.222 360.65C301.222 362.13 300.102 363.1 298.772 363.1ZM305.375 363L303.385 360.83V363H302.365V355.79H303.385V359.87L304.865 358.33H306.245L304.255 360.36L306.695 363H305.375ZM311.58 360.65C311.58 360.76 311.58 360.92 311.57 361.03H307.86C307.97 361.75 308.53 362.2 309.29 362.2C309.81 362.2 310.32 361.96 310.56 361.53L311.4 361.9C311 362.73 310.11 363.1 309.24 363.1C307.92 363.1 306.84 362.13 306.84 360.65C306.84 359.17 307.92 358.23 309.24 358.23C310.56 358.23 311.58 359.17 311.58 360.65ZM307.86 360.28H310.57C310.46 359.55 309.95 359.13 309.24 359.13C308.52 359.13 307.97 359.56 307.86 360.28ZM316.287 363V362.32C315.997 362.83 315.347 363.1 314.707 363.1C313.447 363.1 312.377 362.14 312.377 360.67C312.377 359.17 313.447 358.23 314.707 358.23C315.377 358.23 315.997 358.49 316.287 359V355.79H317.307V363H316.287ZM316.267 360.65C316.267 359.74 315.527 359.23 314.837 359.23C314.067 359.23 313.437 359.79 313.437 360.65C313.437 361.51 314.067 362.1 314.837 362.1C315.597 362.1 316.267 361.56 316.267 360.65ZM322.53 357.1V362.02H324.15C325.5 362.02 326.19 360.94 326.19 359.57C326.19 358.21 325.5 357.1 324.15 357.1H322.53ZM324.15 363H321.47V356.11H324.15C326.11 356.11 327.25 357.61 327.25 359.57C327.25 361.53 326.11 363 324.15 363ZM332.869 360.65C332.869 360.76 332.869 360.92 332.859 361.03H329.149C329.259 361.75 329.819 362.2 330.579 362.2C331.099 362.2 331.609 361.96 331.849 361.53L332.689 361.9C332.289 362.73 331.399 363.1 330.529 363.1C329.209 363.1 328.129 362.13 328.129 360.65C328.129 359.17 329.209 358.23 330.529 358.23C331.849 358.23 332.869 359.17 332.869 360.65ZM329.149 360.28H331.859C331.749 359.55 331.239 359.13 330.529 359.13C329.809 359.13 329.259 359.56 329.149 360.28ZM335.676 361.13L335.046 360.98C334.046 360.71 333.686 360.22 333.756 359.46C333.806 358.77 334.576 358.23 335.426 358.23C336.246 358.23 337.076 358.61 337.126 359.61H336.146C336.106 359.26 335.786 359.11 335.466 359.11C335.196 359.11 334.916 359.21 334.806 359.37C334.726 359.5 334.716 359.64 334.766 359.79C334.836 359.98 335.086 360.08 335.336 360.15L336.056 360.33C337.056 360.57 337.276 361.23 337.276 361.69C337.276 362.59 336.486 363.1 335.416 363.1C334.536 363.1 333.656 362.56 333.626 361.57H334.576C334.626 361.97 334.946 362.24 335.496 362.24C335.966 362.24 336.326 362.03 336.326 361.68C336.326 361.37 336.026 361.21 335.676 361.13ZM341.41 363L339.42 360.83V363H338.4V355.79H339.42V359.87L340.9 358.33H342.28L340.29 360.36L342.73 363H341.41Z" fill="white"/>
<rect x="473" y="176" width="4" height="44" fill="#ED5C18"/>
<path d="M469 222.1H462.11V217.95H463.09V221.04H465.13V218.34H466.1V221.04H468.03V217.85H469V222.1ZM462.11 211.416H469V212.406L464.07 215.366H469V216.426H462.11V215.406L467 212.476H462.11V211.416ZM463.1 210.24H462.11V205.1H463.1V207.13H469V208.21H463.1V210.24ZM463.09 201.266V202.846H465.5V201.306C465.5 200.536 464.89 200.226 464.3 200.226C463.72 200.226 463.09 200.526 463.09 201.266ZM466.43 200.906L469 199.096V200.386L466.47 202.106V202.846H469V203.916H462.11V201.226C462.11 199.746 463.21 199.126 464.3 199.126C465.3 199.126 466.3 199.636 466.43 200.906ZM469 193.306L467.28 193.966V196.746L469 197.406V198.536L462.11 195.936V194.786L469 192.186V193.306ZM463.44 195.356L466.33 196.386V194.326L463.44 195.356ZM462.11 186.211H469V187.201L464.07 190.161H469V191.221H462.11V190.201L467 187.271H462.11V186.211ZM467.18 179.504L467.83 178.684C468.62 179.284 469.1 180.234 469.1 181.364C469.1 183.314 467.53 184.844 465.57 184.844C463.62 184.844 462.03 183.314 462.03 181.364C462.03 180.254 462.51 179.314 463.27 178.704L463.91 179.524C463.4 179.974 463.05 180.604 463.05 181.364C463.05 182.734 464.18 183.784 465.57 183.784C466.97 183.784 468.08 182.734 468.08 181.364C468.08 180.604 467.74 179.934 467.18 179.504ZM469 177.579H462.11V173.429H463.09V176.519H465.13V173.819H466.1V176.519H468.03V173.329H469V177.579Z" fill="#ED5C18"/>
<path d="M459 198L322 198" stroke="#ED5C18" stroke-width="2"/>
<line x1="305" y1="307" x2="305" y2="218" stroke="#ED5C18" stroke-width="2"/>
<path d="M305 219C305 197.007 305 198.007 323 198.007" stroke="#ED5C18" stroke-width="2"/>
<path d="M305 302C305 323.993 305 322.993 285 322.993" stroke="#ED5C18" stroke-width="2"/>
<line x1="4" y1="45" x2="498" y2="45" stroke="#CCCCCC" stroke-width="4"/>
<path d="M214.62 29V16.598H221.982V18.362H216.528V22.034H220.848V23.78H216.528V29H214.62ZM223.788 29V16.022H225.642V29H223.788ZM232.069 27.38C233.473 27.38 234.625 26.354 234.625 24.77C234.625 23.24 233.473 22.232 232.069 22.232C230.683 22.232 229.531 23.24 229.531 24.77C229.531 26.354 230.683 27.38 232.069 27.38ZM232.069 29.18C229.693 29.18 227.695 27.434 227.695 24.77C227.695 22.106 229.693 20.414 232.069 20.414C234.463 20.414 236.479 22.106 236.479 24.77C236.479 27.434 234.463 29.18 232.069 29.18ZM242.37 27.38C243.774 27.38 244.926 26.354 244.926 24.77C244.926 23.24 243.774 22.232 242.37 22.232C240.984 22.232 239.832 23.24 239.832 24.77C239.832 26.354 240.984 27.38 242.37 27.38ZM242.37 29.18C239.994 29.18 237.996 27.434 237.996 24.77C237.996 22.106 239.994 20.414 242.37 20.414C244.764 20.414 246.78 22.106 246.78 24.77C246.78 27.434 244.764 29.18 242.37 29.18ZM250.691 25.976V29H248.837V20.594H250.691V22.52C251.123 21.008 251.933 20.414 252.995 20.414C253.589 20.414 254.219 20.54 254.489 20.738L254.183 22.448C253.697 22.214 253.301 22.16 252.941 22.16C251.357 22.16 250.691 23.744 250.691 25.976ZM267.213 25.436L271.425 16.598H273.135L274.647 29H272.739L271.677 20.144L268.041 27.614H266.421L262.767 20.144L261.705 29H259.797L261.309 16.598H263.001L267.213 25.436ZM283.286 29V27.794C282.71 28.712 281.54 29.18 280.46 29.18C278.21 29.18 276.194 27.47 276.194 24.788C276.194 22.106 278.21 20.414 280.46 20.414C281.468 20.414 282.71 20.828 283.286 21.782V20.594H285.122V29H283.286ZM278.102 24.77C278.102 26.318 279.29 27.38 280.676 27.38C282.044 27.38 283.268 26.426 283.268 24.77C283.268 23.132 281.936 22.214 280.676 22.214C279.29 22.214 278.102 23.222 278.102 24.77ZM289.574 20.594V21.836C290.096 20.918 291.23 20.414 292.382 20.414C294.65 20.414 296.558 22.16 296.558 24.806C296.558 27.488 294.65 29.18 292.382 29.18C291.23 29.18 290.096 28.73 289.574 27.794V33.086H287.72V20.594H289.574ZM289.592 24.842C289.592 26.516 290.852 27.398 292.148 27.398C293.534 27.398 294.668 26.39 294.668 24.842C294.668 23.276 293.534 22.214 292.148 22.214C290.78 22.214 289.592 23.204 289.592 24.842Z" fill="#33475B"/>
<path fill-rule="evenodd" clip-rule="evenodd" d="M531.28 102.37C524.66 112.531 507.63 130.605 493.49 138.561C490.46 142.928 485.45 145.782 479.74 145.782C470.53 145.782 463.05 138.301 463.05 129.135C463.05 122.606 466.81 116.985 472.26 114.26C472.39 114.174 472.47 114.131 472.6 114.044C487.52 107.126 495.39 88.7499 496.77 85.2469C499.2 77.2049 506.63 71.3679 515.45 71.3679C526.22 71.3679 535 80.1019 535 90.8679C535 95.1919 533.61 99.1269 531.28 102.37Z" fill="#FCC670"/>
<path d="M497.42 131.815L508.32 91.4729" stroke="#D8912B" stroke-width="1.09438" stroke-miterlimit="10" stroke-linecap="round" stroke-linejoin="round"/>
<path fill-rule="evenodd" clip-rule="evenodd" d="M613.52 368.981H591.25L595.06 389.173H617.32L613.52 368.981Z" fill="#D8D1D1"/>
<path fill-rule="evenodd" clip-rule="evenodd" d="M516.88 357.522L538.8 357.479L538.2 385.757L514.24 384.503L516.88 357.522Z" fill="#D8D1D1"/>
<path fill-rule="evenodd" clip-rule="evenodd" d="M542.91 403.874C542.91 403.874 537.46 404.782 532.45 405.085C528.17 405.344 528.25 410.576 521.07 413.3C515.76 415.289 507.41 415.332 497.16 413.906C487.48 412.565 483.93 410.619 483.28 409.841H483.2V409.711C483.15 409.625 483.15 409.538 483.2 409.495L483.07 404.825H486.27C487.26 404.306 488.6 404.004 490.42 404.047C498.42 403.269 512.43 387.357 514.5 377.671C516.62 376.158 521.07 378.709 525.14 380.741C529.51 386.968 534.26 383.206 534.26 383.206C534.26 383.206 536.08 380.871 538.37 378.882C543.04 385.281 544.08 402.015 542.91 403.874Z" fill="#2C1C28"/>
<path fill-rule="evenodd" clip-rule="evenodd" d="M634.49 408.285L634.4 412.306H634.32C634.32 412.349 634.32 412.393 634.32 412.393C631.12 413.69 628.09 414.857 615.98 415.333C605.95 415.765 599.51 414.252 595.88 411.917C591.86 409.366 595.14 403.875 591.08 403.183C588.61 402.75 588.05 401.064 588.05 401.064C588.61 392.935 589.48 383.206 592.63 379.445C592.63 382.169 594.75 384.417 594.75 384.417C594.75 384.417 595.79 385.412 599.51 379.055C604.31 376.98 609.63 376.634 614.64 379.142C618.45 393.497 624.55 401.194 629.6 406.426C630.86 406.426 631.81 407.204 632.54 408.242H634.49V408.285Z" fill="#2C1C28"/>
<path fill-rule="evenodd" clip-rule="evenodd" d="M542.78 399.507C542.78 399.507 537.33 400.415 532.32 400.718C528.04 400.977 528.12 406.209 520.94 408.933C515.63 410.922 507.28 410.965 497.03 409.539C484.62 407.809 482.29 405.128 483.24 405.085C483.24 405.085 483.15 399.507 490.33 399.68C498.33 398.902 512.47 383.466 514.55 373.78C516.66 372.267 523.89 374.385 525.05 376.374C529.42 382.601 533.53 380.871 533.53 380.871C533.53 380.871 537.94 379.833 538.41 374.558C543.13 380.958 543.95 397.648 542.78 399.507Z" fill="#814A2A"/>
<path fill-rule="evenodd" clip-rule="evenodd" d="M588.18 397.042C588.18 397.042 588.7 398.729 591.21 399.161C595.27 399.853 591.99 405.344 596.01 407.895C599.64 410.23 606.08 411.744 616.11 411.311C628.22 410.792 631.25 409.668 634.45 408.371C634.45 408.371 633.15 402.447 629.73 402.447C624.72 397.215 618.58 389.519 614.77 375.163C611.53 372.742 604.44 372.958 599.64 375.077C595.96 381.433 594.84 380.093 594.84 380.093C594.84 380.093 592.72 378.32 592.46 375.596C590 380.741 588.79 388.913 588.18 397.042Z" fill="#814A2A"/>
<path fill-rule="evenodd" clip-rule="evenodd" d="M614.38 371.315C614.38 371.402 614.38 371.359 614.38 371.445C614.3 372.569 607.16 373.477 598.56 373.477C590.39 373.477 583.77 372.656 583.25 371.618H583.21C583.21 371.618 571.19 356.182 569.55 326.044C565.91 258.981 539.23 190.707 539.23 190.707C539.23 190.707 536.64 173.411 581.48 183.875L614.38 371.186V371.315Z" fill="#5A74C7"/>
<path fill-rule="evenodd" clip-rule="evenodd" d="M544.47 174.881C523.84 174.881 507.19 178.514 507.32 183.01C507.45 187.507 524.27 191.139 544.9 191.139C565.52 191.139 582.17 187.507 582.04 183.01C581.95 178.514 565.13 174.881 544.47 174.881Z" fill="#5A74C7"/>
<path fill-rule="evenodd" clip-rule="evenodd" d="M580.96 156.764C580.96 156.764 570.32 149.976 553.37 149.716C519.47 149.241 504.99 156.591 504.99 156.591L505.72 182.924L581.52 176.438L580.96 156.764Z" fill="#7581F1"/>
<path fill-rule="evenodd" clip-rule="evenodd" d="M543.82 322.845C548.27 354.539 542.05 371.489 541.74 372.267C541.48 373.175 535.13 373.867 527.21 373.867C519.43 373.867 513.03 373.175 512.6 372.267H512.56L505.34 175.054C505.34 175.054 515.32 172.893 524.36 175.054C534.87 177.562 543.95 189.28 543.95 189.28C543.95 189.28 536.55 271.218 543.82 322.845Z" fill="#5A74C7"/>
<path d="M514.98 163.639C514.98 163.639 514.5 177.173 506.16 186.642" stroke="#375BB7" stroke-width="1.09438" stroke-miterlimit="10" stroke-linecap="round" stroke-linejoin="round"/>
<path d="M557.83 161.52C557.83 161.52 558.09 180.675 575.64 186.988" stroke="#555EC2" stroke-width="1.09438" stroke-miterlimit="10" stroke-linecap="round" stroke-linejoin="round"/>
<path d="M614.3 370.667L574.13 176.568C574.34 172.892 575.12 163.855 575.12 163.855" stroke="#375BB7" stroke-width="1.09438" stroke-miterlimit="10" stroke-linecap="round" stroke-linejoin="round"/>
<path d="M534.91 192.35C534.91 192.35 531.88 271.088 536.86 328.12C539.11 353.631 534.95 373.175 534.95 373.175" stroke="#375BB7" stroke-width="1.09438" stroke-miterlimit="10" stroke-linecap="round" stroke-linejoin="round"/>
<path fill-rule="evenodd" clip-rule="evenodd" d="M542.78 205.668L543.08 201.214L540.06 191.139L528.21 188.934C528.17 188.934 530.54 202.381 542.78 205.668Z" fill="#375BB7"/>
<path fill-rule="evenodd" clip-rule="evenodd" d="M503.61 108.38C503.52 142.365 494.18 158.277 504.69 167.833C504.51 173.8 504.25 183.01 504.25 183.01C504.25 183.01 504.25 183.702 504.73 184.264C505.29 184.869 505.77 185.129 505.77 185.129C505.77 185.129 505.47 182.621 505.72 182.578C508.45 181.972 516.75 180.978 542.82 181.41C562.54 181.713 573.91 183.615 581.57 184.48C581.91 186.166 582 186.685 582 186.685C582 186.685 585.33 186.037 585.5 184.783C585.5 184.783 585.67 173.497 585.63 170.211C594.02 164.979 594.45 150.365 585.46 110.671C592.03 107.212 596.57 100.121 596.57 91.9919C596.57 80.6199 587.84 71.4099 576.94 71.0212H576.42C576.38 71.0212 576.33 71.0212 576.25 71.0212C576.2 71.0212 576.12 71.0212 576.07 71.0212L513.42 71.1509C503.43 72.4479 495.82 81.4419 495.82 92.0789C495.82 98.4779 499.11 104.531 503.61 108.38Z" fill="#FCC670"/>
<path d="M504.51 167.747C514.98 165.628 558.04 162.342 585.59 170.125" stroke="#D8912B" stroke-width="1.09438" stroke-miterlimit="10" stroke-linecap="round" stroke-linejoin="round"/>
<path d="M526.61 82.7829L539.49 94.1979L555.15 82.3499" stroke="#D8912B" stroke-width="1.09438" stroke-miterlimit="10" stroke-linecap="round" stroke-linejoin="round"/>
<path fill-rule="evenodd" clip-rule="evenodd" d="M633.93 134.885C633.93 145.003 625.71 153.176 615.64 153.176C609.71 153.176 604.44 150.365 601.07 145.955L574.21 112.747C563.97 111.666 555.97 102.759 555.97 91.8628C555.97 80.2748 565.05 70.8918 576.29 70.8918C582.82 70.8918 588.57 74.0478 592.29 78.9778L592.38 78.8908L629.95 123.297L629.91 123.341C632.37 126.54 633.93 130.518 633.93 134.885Z" fill="#FCC670"/>
<path d="M568.59 105.396L595.36 141.328" stroke="#D8912B" stroke-width="1.09438" stroke-miterlimit="10" stroke-linecap="round" stroke-linejoin="round"/>
<path fill-rule="evenodd" clip-rule="evenodd" d="M633.93 134.886C633.93 145.004 625.71 153.176 615.64 153.176C613.99 153.176 612.4 152.959 610.88 152.527L581 147.598L584.12 120.184C584.12 120.184 590.26 120.833 594.36 121.309C600.2 108.899 619.23 116.12 621.3 117.417C628.57 119.795 633.93 126.713 633.93 134.886Z" fill="#FCC670"/>
<path fill-rule="evenodd" clip-rule="evenodd" d="M585.76 120.876C582.47 118.714 578.41 122.735 576.72 129.913C575.04 137.047 576.33 144.83 579.62 146.992C582.91 149.154 586.97 144.917 588.66 137.782C590.39 130.605 589.05 123.038 585.76 120.876Z" fill="#D8912B"/>
<path fill-rule="evenodd" clip-rule="evenodd" d="M585.11 122.086C582.17 120.141 578.54 123.773 577.03 130.172C575.51 136.571 576.68 143.533 579.62 145.479C582.56 147.424 586.19 143.619 587.71 137.22C589.26 130.777 588.09 123.989 585.11 122.086Z" fill="#D3D8DC"/>
<path fill-rule="evenodd" clip-rule="evenodd" d="M576.07 120.876L583.73 121.655L581.26 146.171L572.75 145.35L576.07 120.876Z" fill="#D3D8DC"/>
<path fill-rule="evenodd" clip-rule="evenodd" d="M577.11 121.222C574.17 119.276 570.54 122.908 569.03 129.307C567.51 135.707 568.68 142.668 571.62 144.614C574.56 146.56 578.19 142.755 579.71 136.355C581.22 129.913 580.05 123.124 577.11 121.222Z" fill="#A8B3BC"/>
<path fill-rule="evenodd" clip-rule="evenodd" d="M576.2 122.043C573.74 120.4 570.67 123.47 569.42 128.832C568.16 134.237 569.11 140.074 571.58 141.674C574.04 143.317 577.11 140.117 578.37 134.712C579.66 129.351 578.67 123.643 576.2 122.043Z" fill="#CC7544"/>
<path fill-rule="evenodd" clip-rule="evenodd" d="M557.44 137.22C552.12 134.28 550.35 129.437 546.2 125.459L544.6 124.205C543.69 123.513 543.47 122.259 544.08 121.351C544.68 120.53 545.81 120.357 546.67 120.876C546.67 120.876 551.17 124.076 557.31 125.632C567.17 123.816 577.8 146.127 557.44 137.22Z" fill="#CC7544"/>
<path d="M539.71 103.753L551.73 107.429L552.68 107.731L553.16 107.904L553.37 107.991L553.68 108.121C554.54 108.423 555.32 108.856 556.1 109.375C556.88 109.893 557.57 110.499 558.22 111.191C558.52 111.536 558.82 111.882 559.12 112.272C559.25 112.444 559.38 112.661 559.51 112.834L559.86 113.396L572.14 133.632C574.26 137.134 566.13 140.852 559.43 134.972L554.63 115.774L554.45 115.428C554.41 115.341 554.37 115.255 554.33 115.169C554.24 114.996 554.11 114.823 553.98 114.65C553.72 114.304 553.46 114.001 553.11 113.698C552.77 113.439 552.42 113.18 552.03 112.963L551.86 112.877L551.64 112.79L551.17 112.574L550.26 112.185L538.46 107.688C537.38 107.213 536.77 105.959 537.16 104.878C537.59 103.883 538.67 103.408 539.71 103.753Z" fill="#E99670"/>
<path fill-rule="evenodd" clip-rule="evenodd" d="M558.74 127.708L555.19 117.849L554.93 117.59C554.84 117.503 554.8 117.46 554.71 117.374C554.58 117.244 554.41 117.114 554.24 116.985C553.89 116.725 553.55 116.509 553.16 116.379C552.77 116.206 552.38 116.076 551.95 116.033L551.77 115.99L551.51 115.947L551.04 115.904L550.09 115.774L537.98 114.001C536.81 113.871 535.95 112.877 535.99 111.753C536.04 110.758 536.9 110.023 537.98 110.023L550.09 110.974H551.04H551.51H551.77H552.08C552.94 111.018 553.81 111.191 554.67 111.45C555.54 111.709 556.36 112.055 557.14 112.531C557.52 112.747 557.91 113.007 558.26 113.266C558.43 113.396 558.61 113.525 558.78 113.698L559.25 114.088L567.95 124.335C571.66 132.032 567.04 131.124 558.74 127.708Z" fill="#CC7544"/>
<path d="M539.71 103.753L551.73 107.429L552.68 107.731L553.16 107.904L553.37 107.991L553.68 108.121C554.54 108.423 555.32 108.856 556.1 109.375C556.88 109.893 557.57 110.499 558.22 111.191C558.52 111.536 558.82 111.882 559.12 112.272C559.25 112.444 559.38 112.661 559.51 112.834L559.86 113.396L572.14 133.632C574.26 137.134 566.13 140.852 559.43 134.972L554.63 115.774L554.45 115.428C554.41 115.341 554.37 115.255 554.33 115.169C554.24 114.996 554.11 114.823 553.98 114.65C553.72 114.304 553.46 114.001 553.11 113.698C552.77 113.439 552.42 113.18 552.03 112.963L551.86 112.877L551.64 112.79L551.17 112.574L550.26 112.185L538.46 107.688C537.38 107.213 536.77 105.959 537.16 104.878C537.59 103.883 538.67 103.408 539.71 103.753Z" fill="#CC7544"/>
<path fill-rule="evenodd" clip-rule="evenodd" d="M563.28 128.14L557.65 119.32L557.35 119.103C557.27 119.06 557.18 118.974 557.09 118.93C556.92 118.844 556.75 118.714 556.57 118.671C556.18 118.498 555.8 118.368 555.41 118.282C555.02 118.195 554.58 118.152 554.15 118.195H553.98L553.72 118.239L553.24 118.282L552.29 118.368L543.43 119.32C542.26 119.449 541.18 118.671 541.01 117.59C540.83 116.596 541.53 115.688 542.56 115.471L551.26 113.699L552.21 113.482L552.68 113.396L552.9 113.353L553.2 113.309C554.07 113.18 554.93 113.136 555.84 113.18C556.75 113.223 557.61 113.396 558.48 113.655C558.91 113.785 559.34 113.958 559.73 114.131C559.95 114.217 560.16 114.304 560.34 114.434L560.9 114.736L567.56 127.448C572.74 134.15 572.14 129.654 563.28 128.14Z" fill="#CC7544"/>
<path fill-rule="evenodd" clip-rule="evenodd" d="M548.19 115.514L560.38 115.212V130.432L555.97 131.599L548.19 115.514Z" fill="#CC7544"/>
<path fill-rule="evenodd" clip-rule="evenodd" d="M575.04 121.611L564.49 122.217L562.5 139.123L572.62 142.063C576.72 137.826 577.5 128.746 575.04 121.611Z" fill="#CC7544"/>
<path d="M560.08 135.664C560.08 135.664 558.17 133.891 557.87 130.648C556.7 119.233 557.14 118.584 554.93 118.238C555.1 118.282 552.25 118.368 552.25 118.368L543.39 119.319C542.22 119.449 541.14 118.671 540.96 117.59C540.79 116.595 541.48 115.687 542.52 115.471L551.21 113.698C551.21 113.698 556.44 112.185 558.78 113.871C561.68 115.99 566.04 122 566.04 122" stroke="#2C1C28" stroke-width="1.09438" stroke-miterlimit="10" stroke-linecap="round" stroke-linejoin="round"/>
<path d="M545.16 115.039C541.83 114.563 538.07 114.001 538.07 114.001C536.9 113.871 536.04 112.877 536.08 111.753C536.12 110.758 536.99 110.023 538.07 110.023L550.17 110.974H551.13H551.6H551.86H552.16C553.03 111.018 553.89 111.191 554.76 111.45C555.62 111.709 556.44 112.055 557.22 112.531C557.61 112.747 558 113.007 558.35 113.266C558.52 113.396 558.69 113.525 558.87 113.698" stroke="#2C1C28" stroke-width="1.09438" stroke-miterlimit="10" stroke-linecap="round" stroke-linejoin="round"/>
<path d="M586.37 147.857C589.95 150.062 594.32 145.738 596.18 138.388C598 131.037 596.96 123.514 593.37 121.308" stroke="#D8912B" stroke-width="1.09438" stroke-miterlimit="10" stroke-linecap="round" stroke-linejoin="round"/>
<path d="M584.07 120.184C584.07 120.184 590.21 120.833 594.32 121.309C600.16 108.899 619.18 116.12 621.26 117.417" stroke="#D8912B" stroke-width="1.09438" stroke-miterlimit="10" stroke-linecap="round" stroke-linejoin="round"/>
<path fill-rule="evenodd" clip-rule="evenodd" d="M556.96 61.8115C560.21 64.3626 553.37 72.6209 545.55 74.2209C537.16 75.9069 529.9 73.2269 530.33 69.1621C531.06 63.0222 548.06 54.8068 556.96 61.8115Z" fill="#2C1C28"/>
<path fill-rule="evenodd" clip-rule="evenodd" d="M556.27 71.0216L555.97 44.3865L535.86 44.7324L531.45 73.3569C531.45 73.3569 531.37 73.7459 531.37 73.9619C531.32 75.1729 533.79 75.9939 537.46 76.2099L539.32 87.6689L542.13 76.1669C542.65 76.1239 543.21 76.0809 543.77 76.0369C550.65 75.3459 556.31 73.2699 556.36 71.4109C556.36 71.2809 556.36 71.1509 556.27 71.0216Z" fill="#CC7544"/>
<path fill-rule="evenodd" clip-rule="evenodd" d="M556.14 60.9466C558.17 62.4599 559.3 68.2972 545.76 73.7019C543.95 73.9179 542.87 75.4749 541.79 78.7179L539.36 87.1929L537.85 78.7179C537.85 78.7179 537.51 77.1179 537.03 76.2099C536.38 74.9989 535.6 74.3939 535.6 74.3939C535.6 74.3939 531.24 72.0589 530.8 70.5024C529.98 67.6053 531.88 65.9623 532.97 65.0543C533.01 64.7516 533.05 64.4489 533.1 64.1462C531.93 64.7083 530.11 66.092 528.9 69.0755C525.79 74.4799 526.22 82.9119 526.22 82.9119L531.15 80.7069L539.36 88.0569L549.7 80.4039C549.7 80.4039 552.21 81.3119 555.75 82.6959C559.04 79.8419 562.37 75.2149 563.1 70.9347L557.35 61.6816L556.18 60.9033L556.14 60.9466Z" fill="#D3D8DC"/>
<path d="M556.31 61.1628C557.01 61.8114 557.4 62.5897 557.4 63.5842C557.4 67.1731 552.25 71.8859 545.81 73.6589C544.38 74.0479 543.21 74.9989 542.61 76.3399C541.53 78.6309 540.19 82.6089 539.41 87.7119C538.67 82.3499 538.11 75.0859 534.57 73.6159C533.92 73.3559 533.27 73.0539 532.75 72.5779C531.75 71.6699 531.02 70.5024 531.02 69.3782" stroke="#2C1C28" stroke-width="1.09438" stroke-miterlimit="10" stroke-linecap="round" stroke-linejoin="round"/>
<path fill-rule="evenodd" clip-rule="evenodd" d="M526.18 82.9119L538.15 80.0579C538.15 80.0579 537.25 75.9939 536.16 74.3079C535.08 72.6649 530.15 75.6049 526.18 82.9119Z" fill="#2C1C28"/>
<path fill-rule="evenodd" clip-rule="evenodd" d="M555.67 82.6959L541.05 80.7499C541.18 80.6639 541.61 75.2589 544.6 73.8749C546.37 73.0539 553.16 77.6799 555.67 82.6959Z" fill="#2C1C28"/>
<path fill-rule="evenodd" clip-rule="evenodd" d="M532.01 69.8973C550.13 63.6709 549.61 49.8345 549.61 49.8345L534.57 53.1206L532.01 69.8973Z" fill="#A95A2D"/>
<path fill-rule="evenodd" clip-rule="evenodd" d="M531.28 58.0499C532.49 59.2173 534 59.9956 535.65 60.3415C537.29 60.6874 538.98 60.6442 540.58 60.1253C545.07 58.6552 551.38 55.1096 554.71 46.3321C561.16 48.3211 565.83 38.5924 561.94 35.9548C559.51 34.355 556.23 36.0845 554.54 37.9006C554.45 37.987 554.28 38.2032 554.24 38.2897C554.28 33.0146 560.25 27.4368 557.22 24.4533C541.22 8.71431 530.11 20.7347 527.73 23.0264C526.83 26.4423 526.52 30.0743 525.61 35.4359C523.67 46.5916 527.34 54.3746 531.28 58.0499ZM554.5 37.9006C554.54 37.8573 554.54 37.8573 554.5 37.9006V37.9006Z" fill="#CC7544"/>
<path d="M534 47.3698C534 47.3698 538.46 48.0617 541.35 44.9917" stroke="#2C1C28" stroke-width="1.09438" stroke-miterlimit="10" stroke-linecap="round" stroke-linejoin="round"/>
<path d="M533.05 28.2583C530.63 27.48 527.3 28.388 526.61 29.296" stroke="#2C1C28" stroke-width="1.09438" stroke-miterlimit="10" stroke-linecap="round" stroke-linejoin="round"/>
<path d="M539.95 28.2583C542.37 27.48 545.7 28.388 546.39 29.296" stroke="#2C1C28" stroke-width="1.09438" stroke-miterlimit="10" stroke-linecap="round" stroke-linejoin="round"/>
<path d="M534.65 32.8848C534.65 32.8848 534.69 35.1332 532.75 38.8517C530.98 42.2244 533.14 43.9107 536.99 42.8297" stroke="#2C1C28" stroke-width="1.09438" stroke-miterlimit="10" stroke-linecap="round" stroke-linejoin="round"/>
<path fill-rule="evenodd" clip-rule="evenodd" d="M543.21 32.5823C542.56 32.5391 541.96 33.4471 541.92 34.5713C541.87 35.6955 542.39 36.6035 543.04 36.6468C543.69 36.69 544.29 35.782 544.34 34.6578C544.38 33.5336 543.86 32.6255 543.21 32.5823Z" fill="#2C1C28"/>
<path fill-rule="evenodd" clip-rule="evenodd" d="M530.15 32.0198C529.51 31.9766 528.9 32.8846 528.86 34.0088C528.81 35.133 529.33 36.041 529.98 36.0843C530.63 36.1275 531.24 35.2195 531.28 34.0953C531.32 32.9711 530.8 32.063 530.15 32.0198Z" fill="#2C1C28"/>
<path fill-rule="evenodd" clip-rule="evenodd" d="M524.62 23.4587C525.36 35.0467 527.13 25.4045 527.13 25.4045C529.2 26.9178 537.64 24.3667 544.47 20.9509C551.26 17.535 555.49 16.9729 554.84 25.7504C554.41 31.6741 564.88 14.5515 558.56 14.8542C560.47 2.66083 545.33 9.75203 545.33 9.75203C545.33 9.75203 541.44 4.08774 535.52 4.00124C529.98 3.91484 525.66 8.36844 526.39 13.6435C522.29 13.557 519.09 14.4218 524.62 23.4587Z" fill="#951800"/>
<path fill-rule="evenodd" clip-rule="evenodd" d="M528.25 25.5342C530.59 26.399 535.95 25.1018 544.38 21.5995C551.43 18.7025 554.28 21.2968 553.94 30.0743C553.85 32.1065 553.5 37.0358 553.29 39.8463C554.24 37.8141 556.49 35.5656 560.38 35.263C558.74 29.8149 567.99 14.4218 558.52 14.8542C558.78 13.2111 558.82 12.2599 558.65 10.9195C558.35 9.96819 555.54 4.99579 547.45 15.1136C541.7 22.3345 533.31 26.226 528.25 25.5342ZM524.62 23.4587C524.4 29.3392 525.83 33.9225 525.83 33.9225L527.6 25.5342C525.83 24.6694 525.01 23.9344 524.62 23.4587Z" fill="#5F1001"/>
<path fill-rule="evenodd" clip-rule="evenodd" d="M496.39 129.134C496.39 119.924 488.9 112.487 479.7 112.487C470.49 112.487 463 119.968 463 129.134C463 137.523 469.19 144.441 477.23 145.608L485.32 147.381L485.45 144.744C491.89 142.409 496.39 136.312 496.39 129.134Z" fill="#FCC670"/>
<path fill-rule="evenodd" clip-rule="evenodd" d="M488.52 120.314C496.08 120.314 502.27 126.454 502.27 134.064C502.27 141.674 496.13 147.814 488.52 147.814C480.95 147.814 474.77 141.674 474.77 134.064C474.77 126.454 480.95 120.314 488.52 120.314Z" fill="#FCC670"/>
<path fill-rule="evenodd" clip-rule="evenodd" d="M492.23 123.427C499.24 123.427 504.9 129.091 504.9 136.096C504.9 143.101 499.24 148.765 492.23 148.765C485.23 148.765 479.57 143.101 479.57 136.096C479.57 129.091 485.23 123.427 492.23 123.427Z" fill="#D8912B"/>
<path fill-rule="evenodd" clip-rule="evenodd" d="M480.65 136.139C480.65 142.452 485.75 147.554 492.06 147.554C498.03 147.554 502.87 143.014 503.43 137.22L504 131.945C504.08 131.426 504.17 130.907 504.17 130.388C504.17 125.978 500.58 122.389 496.17 122.389C494.66 122.389 493.23 122.821 492.06 123.556L486.83 125.935L486.92 125.978C483.2 127.88 480.65 131.685 480.65 136.139Z" fill="#CC7544"/>
<path fill-rule="evenodd" clip-rule="evenodd" d="M496.17 122.389C500.58 122.389 504.17 125.978 504.17 130.388C504.17 130.907 504.12 131.426 504 131.945L503.43 137.22C502.91 143.014 498.03 147.554 492.06 147.554C491.89 147.554 491.67 147.554 491.5 147.511C487.35 141.674 486.96 130.431 490.03 124.464L492.02 123.556C493.23 122.821 494.66 122.389 496.17 122.389Z" fill="#A95A2D"/>
<path fill-rule="evenodd" clip-rule="evenodd" d="M490.81 96.3589H526C527.56 96.3589 529.29 97.6129 529.9 99.1699L547.15 144.484C547.75 146.041 546.97 147.295 545.42 147.295H510.22C508.66 147.295 506.94 146.041 506.33 144.484L489.03 99.1269C488.47 97.6129 489.25 96.3589 490.81 96.3589Z" fill="#2C1C28"/>
<path fill-rule="evenodd" clip-rule="evenodd" d="M507.71 99.2999C508.45 99.2999 509.44 100.251 509.88 101.462C510.31 102.672 510.09 103.624 509.36 103.624C508.62 103.624 507.63 102.672 507.19 101.462C506.72 100.294 506.94 99.2999 507.71 99.2999Z" fill="#555EC2"/>
<path fill-rule="evenodd" clip-rule="evenodd" d="M493.66 135.793C496.39 143.014 501.66 142.366 504.17 140.074C502.96 136.831 500.75 132.68 504.73 130.389C499.11 133.329 496.26 117.979 491.33 118.238C487.87 118.455 489.29 124.292 493.66 135.793Z" fill="#CC7544"/>
<path d="M506.94 107.256L495.13 113.958L494.22 114.52L493.75 114.779L493.53 114.909L493.23 115.082C492.41 115.601 492.15 115.947 491.46 116.682C487.22 120.184 491.02 128.443 496.08 119.795L496.21 119.665L496.43 119.492L496.86 119.19L497.73 118.541L509.05 111.061C510.09 110.283 510.39 108.856 509.75 107.818C509.18 106.867 507.93 106.651 506.94 107.256Z" fill="#CC7544"/>
<path d="M511.78 113.569L499.07 118.195L498.07 118.584L497.55 118.757L497.29 118.844L496.99 118.974C496.08 119.363 495.22 119.406 494.44 120.011C490.94 122.606 496.56 125.027 496.56 125.027L500.71 122.865L513.33 117.676C514.5 117.071 515.02 115.687 514.55 114.606C514.03 113.569 512.86 113.136 511.78 113.569Z" fill="#CC7544"/>
<path d="M511.78 118.541L499.07 123.168L498.07 123.557C498.07 123.557 495.43 124.335 494.87 125.589C494.87 130.173 499.89 128.659 499.89 128.659L500.84 128.184L513.25 122.692C514.42 122.087 514.93 120.703 514.46 119.622C514.03 118.541 512.86 118.109 511.78 118.541Z" fill="#CC7544"/>
<path d="M509.79 124.292L497.29 129.264L497.9 134.41L498.85 133.934L511.26 128.443C512.43 127.837 512.95 126.454 512.47 125.373C512.08 124.335 510.87 123.903 509.79 124.292Z" fill="#CC7544"/>
<path d="M511.22 128.443C512.38 127.838 512.9 126.454 512.43 125.373C511.99 124.335 510.78 123.903 509.7 124.335L497.6 128.962L495.95 130.043" stroke="#2C1C28" stroke-width="1.09438" stroke-miterlimit="10" stroke-linecap="round" stroke-linejoin="round"/>
<path d="M513.25 117.676C514.42 117.071 514.93 115.687 514.46 114.606C514.03 113.569 512.82 113.136 511.74 113.569L499.02 118.195L496.9 119.449C496.9 119.449 494.27 120.227 493.7 121.481" stroke="#2C1C28" stroke-width="1.09438" stroke-miterlimit="10" stroke-linecap="round" stroke-linejoin="round"/>
<path d="M513.25 122.649C514.42 122.044 514.93 120.66 514.46 119.579C514.03 118.541 512.82 118.109 511.73 118.541L499.02 123.168L498.63 123.557C498.63 123.557 495.48 124.422 494.92 125.676" stroke="#2C1C28" stroke-width="1.09438" stroke-miterlimit="10" stroke-linecap="round" stroke-linejoin="round"/>
</svg>
