<svg width="50" height="50" viewBox="0 0 50 50" fill="none" xmlns="http://www.w3.org/2000/svg">
<path d="M21.8667 4.17778C21.7334 4.26667 21.5556 4.75555 21.4889 5.28889C21.3556 6.4 20.9556 7.2 19.2889 9.84444C17.6889 12.3333 17.1111 14.0222 17.1111 16.2C17.1111 18.2889 17.3556 19.2222 18.2889 20.6C18.8 21.3556 19.3556 21.8444 20.2223 22.2889C21.3556 22.8889 21.5778 22.9111 23.3778 22.8222C24.7334 22.7556 25.2667 22.8 25.2223 22.9778C25.1778 23.1111 24.8667 24.1333 24.5334 25.2667C23.8889 27.4667 23.9778 28 24.9334 28C25.4445 28 25.8 27.2222 26.5334 24.4L27.0667 22.3333L28.0889 22.4C31.1111 22.6222 33.5556 19.9556 33.5556 16.4222C33.5556 12.1333 30.0223 7.8 24.0667 4.8C22.3556 3.95555 22.2445 3.91111 21.8667 4.17778ZM25.9778 10.0444C26.9334 12.3333 27.4 14.7111 27.4223 17.4444C27.4445 20.7556 27.2445 22.1111 26.7111 22.1556C26.5111 22.1778 26.1111 22.2444 25.8223 22.3333C25.3111 22.5111 25.3111 22.4889 25.4889 21.0889C25.8445 18.2444 25.6445 14.9556 25 12.7778C24 9.48889 24 9.11111 25 9.11111C25.4667 9.11111 25.6445 9.28889 25.9778 10.0444Z" fill="#ED5C18"/>
<path d="M3.55559 12.4002C2.02225 13.1558 1.97781 13.4002 2.04447 21.778L2.11114 29.2225L2.6667 30.1558C2.97781 30.6669 5.00003 33.3336 7.17781 36.0891L11.1111 41.1114V44.4225C11.1111 47.2447 11.1556 47.7558 11.4667 47.8669C12 48.0669 20.2889 48.0225 20.6223 47.8002C20.8667 47.6669 20.9111 46.4891 20.8445 41.9558L20.7778 36.2891L19.8445 34.4002C19.0445 32.8002 18.4 31.9558 15.4445 28.8225C13.5556 26.8002 11.7778 24.978 11.5111 24.8002C9.91114 23.6669 7.6667 25.4002 8.22225 27.3113C8.33336 27.7558 9.4667 29.1558 11.1334 30.9114C13.4667 33.4002 13.8 33.8447 13.6889 34.3336C13.4 35.5114 12.6667 35.0669 9.84447 32.0225C6.95559 28.9114 6.44447 28.1114 6.44447 26.6225C6.44447 25.6225 7.0667 24.3113 7.6667 24.0891C7.95559 23.978 8.00003 23.2002 8.00003 19.1336C8.00003 15.0002 7.95559 14.2225 7.60003 13.5558C7.17781 12.6891 6.02225 12.0002 5.00003 12.0002C4.64447 12.0002 3.97781 12.178 3.55559 12.4002Z" fill="#ED5C18"/>
<path d="M43.5556 12.378C42.1334 13.1113 42 13.7113 42 19.1336C42 23.2002 42.0445 23.978 42.3334 24.0891C42.9334 24.3113 43.5556 25.6225 43.5556 26.6225C43.5556 28.1114 43.0445 28.9114 40.1556 32.0225C37.3334 35.0669 36.6 35.5114 36.3111 34.3336C36.2 33.8447 36.5334 33.4002 38.8667 30.9114C40.5334 29.1558 41.6667 27.7558 41.7778 27.3113C42.3111 25.5114 40.2889 23.8002 38.6667 24.6669C38.4445 24.8002 36.6445 26.6002 34.6667 28.7114C31.6 31.978 30.9778 32.778 30.1556 34.4002L29.2222 36.2891L29.1556 41.9558C29.0889 46.4447 29.1334 47.6669 29.3778 47.8002C29.7111 48.0225 38 48.0669 38.5334 47.8669C38.8445 47.7558 38.8889 47.2225 38.8889 44.4002V41.0891L41.6 37.6002C43.0889 35.6891 44.9334 33.3558 45.6889 32.4225C48.0222 29.5558 47.8889 30.2669 47.9556 21.8669C48.0222 13.8225 47.9778 13.3113 46.8 12.5558C45.9334 11.978 44.4667 11.9114 43.5556 12.378Z" fill="#ED5C18"/>
</svg>
