<svg width="50" height="50" viewBox="0 0 50 50" fill="none" xmlns="http://www.w3.org/2000/svg">
<circle cx="25" cy="25" r="25" fill="#ED5C18"/>
<path d="M20.0061 12.4414C17.9349 12.4414 16.2561 14.1203 16.2561 16.1914V33.6914C16.2561 35.7625 17.9349 37.4414 20.0061 37.4414H30.0061C32.0774 37.4414 33.7561 35.7625 33.7561 33.6914V16.1914C33.7561 14.1203 32.0774 12.4414 30.0061 12.4414H20.0061ZM25.0061 31.1914C25.6961 31.1914 26.2561 31.751 26.2561 32.4414C26.2561 33.1318 25.6961 33.6914 25.0061 33.6914C24.3161 33.6914 23.7561 33.1318 23.7561 32.4414C23.7561 31.751 24.3161 31.1914 25.0061 31.1914Z" fill="white"/>
</svg>
