<svg width="121" height="38" viewBox="0 0 121 38" fill="none" xmlns="http://www.w3.org/2000/svg">
<path d="M116.452 37.9563H4.47891C2.01554 37.9563 0 35.8213 0 33.2117V4.74455C0 2.13504 2.01549 0 4.47891 0H116.452C118.915 0 120.93 2.13504 120.93 4.74455V33.2117C120.93 35.8213 118.915 37.9563 116.452 37.9563Z" fill="black"/>
<path d="M116.452 0H4.47891C2.01554 0 0 2.13504 0 4.74455V33.2117C0 35.8213 2.01549 37.9563 4.47891 37.9563H116.452C118.915 37.9563 120.93 35.8213 120.93 33.2117V4.74455C120.93 2.13504 118.915 0 116.452 0ZM116.452 0.759101C118.526 0.759101 120.214 2.54725 120.214 4.74455V33.2117C120.214 35.4094 118.526 37.1976 116.452 37.1976H4.47891C2.40466 37.1976 0.716632 35.4094 0.716632 33.2117V4.74455C0.716632 2.54725 2.40462 0.759144 4.47891 0.759144H116.452" fill="#A6A6A6"/>
<path d="M24.6338 18.3192C24.644 17.5271 24.8543 16.7506 25.2453 16.0617C25.6363 15.3729 26.1951 14.7941 26.8699 14.3793C26.4412 13.7671 25.8757 13.2633 25.2183 12.9078C24.5609 12.5525 23.8297 12.3552 23.0827 12.3318C21.4892 12.1645 19.9444 13.2853 19.1324 13.2853C18.3047 13.2853 17.0546 12.3485 15.7084 12.3761C14.8376 12.4043 13.9889 12.6574 13.2451 13.111C12.5012 13.5647 11.8876 14.2033 11.464 14.9645C9.62873 18.142 10.9976 22.8115 12.7557 25.3798C13.6352 26.6375 14.6631 28.0422 16.0081 27.9925C17.3242 27.9379 17.8158 27.1532 19.4047 27.1532C20.9787 27.1532 21.4398 27.9925 22.8122 27.9608C24.2245 27.9379 25.1143 26.6976 25.963 25.428C26.5949 24.5319 27.0812 23.5415 27.4038 22.4936C26.5833 22.1465 25.8831 21.5656 25.3905 20.8233C24.8979 20.081 24.6347 19.21 24.6338 18.3192ZM22.0417 10.6427C22.8118 9.71829 23.1911 8.53007 23.0993 7.33044C21.9229 7.45401 20.8361 8.01628 20.0556 8.90523C19.674 9.33952 19.3817 9.84478 19.1956 10.3921C19.0093 10.9393 18.9328 11.518 18.9703 12.0949C19.5588 12.101 20.1409 11.9734 20.6729 11.7218C21.205 11.4703 21.673 11.1013 22.0417 10.6427ZM41.2713 24.8087H36.7797L35.7012 27.9936H33.7986L38.053 16.2101H40.0296L44.2839 27.9936H42.349L41.2713 24.8087ZM37.2449 23.3389H40.8052L39.0501 18.1701H39.001L37.2449 23.3389ZM53.4717 23.6985C53.4717 26.3682 52.0427 28.0835 49.8865 28.0835C49.3402 28.1121 48.7969 27.9862 48.3189 27.7204C47.8408 27.4545 47.4473 27.0595 47.1834 26.5804H47.1426V30.8356H45.3791V19.4025H47.0861V20.8314H47.1186C47.3946 20.3547 47.7948 19.9616 48.2765 19.6942C48.7582 19.4267 49.3033 19.2949 49.8541 19.3127C52.0344 19.3127 53.4717 21.0362 53.4717 23.6985V23.6985ZM51.6591 23.6985C51.6591 21.9593 50.7603 20.8157 49.3889 20.8157C48.0414 20.8157 47.1353 21.9833 47.1353 23.6985C47.1353 25.4295 48.0414 26.5889 49.3889 26.5889C50.7603 26.5889 51.6591 25.4536 51.6591 23.6985V23.6985ZM62.9273 23.6985C62.9273 26.3682 61.4985 28.0835 59.3422 28.0835C58.7959 28.1121 58.2526 27.9862 57.7746 27.7204C57.2966 27.4545 56.903 27.0594 56.6391 26.5804H56.5983V30.8356H54.8348V19.4025H56.5417V20.8314H56.5742C56.8503 20.3547 57.2504 19.9616 57.7321 19.6942C58.2138 19.4267 58.759 19.2949 59.3097 19.3127C61.4901 19.3127 62.9273 21.0362 62.9273 23.6985V23.6985ZM61.1149 23.6985C61.1149 21.9593 60.216 20.8157 58.8445 20.8157C57.497 20.8157 56.5909 21.9833 56.5909 23.6985C56.5909 25.4295 57.497 26.5889 58.8445 26.5889C60.216 26.5889 61.1149 25.4536 61.1149 23.6985V23.6985ZM69.1769 24.7105C69.3075 25.879 70.4427 26.6462 71.9939 26.6462C73.4803 26.6462 74.5496 25.879 74.5496 24.8253C74.5496 23.9107 73.9047 23.363 72.3776 22.9877L70.8503 22.6199C68.6866 22.0972 67.6821 21.0853 67.6821 19.4432C67.6821 17.4101 69.454 16.0136 71.9698 16.0136C74.4597 16.0136 76.1667 17.4101 76.224 19.4432H74.4439C74.3374 18.2674 73.3653 17.5575 71.9447 17.5575C70.5242 17.5575 69.5521 18.2757 69.5521 19.3209C69.5521 20.154 70.173 20.6442 71.6917 21.0195L72.99 21.3383C75.4076 21.91 76.4122 22.8812 76.4122 24.6046C76.4122 26.8093 74.6562 28.19 71.8632 28.19C69.2499 28.19 67.4856 26.8416 67.3717 24.7104L69.1769 24.7105ZM80.218 17.3695V19.4025H81.8517V20.799H80.218V25.5352C80.218 26.2709 80.5451 26.6138 81.2633 26.6138C81.4572 26.6104 81.6509 26.5968 81.8434 26.573V27.9612C81.5205 28.0215 81.1923 28.0488 80.864 28.0427C79.1246 28.0427 78.4463 27.3894 78.4463 25.7232V20.799H77.1971V19.4025H78.4463V17.3695H80.218ZM82.7979 23.6985C82.7979 20.9954 84.3898 19.2969 86.8725 19.2969C89.3632 19.2969 90.9476 20.9954 90.9476 23.6985C90.9476 26.409 89.372 28.1001 86.8724 28.1001C84.3741 28.1001 82.7979 26.409 82.7979 23.6985ZM89.1513 23.6985C89.1513 21.8443 88.3013 20.7499 86.8724 20.7499C85.4435 20.7499 84.5946 21.8525 84.5946 23.6985C84.5946 25.5603 85.4435 26.6462 86.8724 26.6462C88.3013 26.6462 89.1513 25.5603 89.1513 23.6985ZM92.4014 19.4025H94.0839V20.8647H94.1245C94.2383 20.4081 94.5058 20.0044 94.8818 19.7218C95.2588 19.4391 95.7204 19.2946 96.1909 19.3127C96.3939 19.312 96.5969 19.3339 96.7955 19.3784V21.0278C96.5387 20.9495 96.2712 20.9135 96.0029 20.9213C95.7469 20.9109 95.4909 20.9561 95.2543 21.0537C95.0169 21.1513 94.8042 21.2991 94.6294 21.4869C94.4546 21.6747 94.3231 21.898 94.2428 22.1415C94.1624 22.3851 94.136 22.6431 94.1651 22.8978V27.9936H92.4014V19.4025ZM104.925 25.4702C104.689 27.0299 103.17 28.1001 101.227 28.1001C98.7269 28.1001 97.176 26.4257 97.176 23.7392C97.176 21.0446 98.7357 19.2969 101.153 19.2969C103.53 19.2969 105.024 20.9297 105.024 23.5345V24.1387H98.9564V24.2452C98.9282 24.5614 98.9679 24.88 99.072 25.1796C99.1771 25.4793 99.3439 25.7534 99.5628 25.9835C99.7808 26.2137 100.047 26.3947 100.34 26.5145C100.634 26.6344 100.95 26.6904 101.267 26.6787C101.684 26.7177 102.102 26.6213 102.46 26.4035C102.817 26.1858 103.095 25.8584 103.252 25.4702H104.925ZM98.9643 22.9062H103.26C103.275 22.6219 103.232 22.3374 103.132 22.0706C103.034 21.8037 102.88 21.5603 102.682 21.3556C102.485 21.1508 102.246 20.9892 101.983 20.8808C101.72 20.7724 101.437 20.7196 101.153 20.7258C100.865 20.724 100.581 20.7792 100.315 20.8881C100.049 20.997 99.8073 21.1574 99.6043 21.3602C99.4004 21.5628 99.2398 21.8038 99.1294 22.0693C99.02 22.3346 98.9635 22.6191 98.9643 22.9062ZM37.0239 7.3406C37.3936 7.31406 37.7646 7.36991 38.1101 7.50412C38.4556 7.63833 38.767 7.84754 39.0219 8.11669C39.2768 8.38583 39.4687 8.70818 39.5839 9.06049C39.6991 9.41278 39.7347 9.78625 39.6881 10.154C39.6881 11.9628 38.7104 13.0026 37.0239 13.0026H34.9787V7.3405L37.0239 7.3406ZM35.8582 12.2019H36.9257C37.1898 12.2176 37.4542 12.1743 37.6995 12.075C37.9449 11.9757 38.165 11.823 38.3438 11.6279C38.5227 11.4328 38.6557 11.2004 38.7334 10.9474C38.8111 10.6945 38.8314 10.4273 38.7928 10.1655C38.8287 9.90471 38.8062 9.63919 38.7274 9.38807C38.6486 9.13694 38.5151 8.90637 38.3366 8.71286C38.1582 8.51935 37.9392 8.3677 37.6953 8.26879C37.4513 8.16987 37.1885 8.12614 36.9257 8.14071H35.8582V12.2019ZM40.6814 10.8643C40.6546 10.5834 40.6867 10.3002 40.7757 10.0325C40.8648 9.7648 41.0088 9.51871 41.1985 9.30995C41.3882 9.10128 41.6195 8.93444 41.8774 8.82033C42.1354 8.70619 42.4144 8.64724 42.6965 8.64724C42.9785 8.64724 43.2575 8.70619 43.5155 8.82033C43.7734 8.93444 44.0047 9.10128 44.1944 9.30995C44.3841 9.51871 44.5281 9.7648 44.6172 10.0325C44.7062 10.3002 44.7384 10.5834 44.7114 10.8643C44.7389 11.1454 44.7072 11.4291 44.6185 11.6973C44.5297 11.9655 44.3858 12.2121 44.196 12.4213C44.0062 12.6305 43.7748 12.7977 43.5165 12.9121C43.2582 13.0265 42.979 13.0856 42.6965 13.0856C42.414 13.0856 42.1346 13.0265 41.8764 12.9121C41.6181 12.7977 41.3866 12.6305 41.1969 12.4213C41.0071 12.2121 40.8632 11.9655 40.7744 11.6973C40.6857 11.4291 40.654 11.1454 40.6814 10.8643ZM43.8442 10.8643C43.8442 9.93799 43.4281 9.39636 42.6979 9.39636C41.9648 9.39636 41.5525 9.93799 41.5525 10.8643C41.5525 11.7978 41.9649 12.3353 42.6979 12.3353C43.4281 12.3353 43.8442 11.7941 43.8442 10.8643ZM50.0686 13.0026H49.1937L48.3107 9.85555H48.2439L47.3646 13.0026H46.4981L45.3203 8.7296H46.1756L46.9411 11.99H47.0041L47.8825 8.7296H48.6915L49.57 11.99H49.6367L50.3984 8.7296H51.2417L50.0686 13.0026ZM52.2322 8.72969H53.0441V9.40846H53.1071C53.214 9.16465 53.3942 8.96022 53.6229 8.82379C53.8514 8.68732 54.1169 8.62557 54.3822 8.64714C54.5901 8.63152 54.7989 8.66287 54.993 8.73887C55.1872 8.81488 55.3617 8.93356 55.5037 9.08618C55.6457 9.2388 55.7517 9.42143 55.8136 9.62057C55.8753 9.81962 55.8917 10.0301 55.8611 10.2363V13.0024H55.0179V10.4482C55.0179 9.76154 54.7194 9.42002 54.0958 9.42002C53.9547 9.41349 53.8138 9.4375 53.6828 9.49046C53.5518 9.54342 53.4338 9.6241 53.3369 9.72694C53.2399 9.82986 53.1664 9.95238 53.1213 10.0863C53.0762 10.2202 53.0606 10.3623 53.0756 10.5028V13.0026H52.2322V8.72969ZM57.2048 7.06162H58.048V13.0026H57.2048V7.06162ZM59.2203 10.8643C59.1934 10.5834 59.2256 10.3001 59.3146 10.0324C59.4036 9.76471 59.5476 9.51853 59.7374 9.30977C59.9271 9.10101 60.1585 8.93418 60.4164 8.82005C60.6744 8.7059 60.9534 8.64694 61.2356 8.64694C61.5177 8.64694 61.7967 8.7059 62.0547 8.82005C62.3127 8.93418 62.544 9.10101 62.7337 9.30977C62.9235 9.51853 63.0675 9.76471 63.1566 10.0324C63.2456 10.3001 63.2777 10.5834 63.2509 10.8643C63.2781 11.1454 63.2464 11.4291 63.1575 11.6971C63.0687 11.9651 62.9247 12.2117 62.7349 12.4208C62.5451 12.6299 62.3137 12.7971 62.0555 12.9114C61.7972 13.0258 61.5179 13.0848 61.2356 13.0848C60.9532 13.0848 60.6739 13.0258 60.4156 12.9114C60.1574 12.7971 59.926 12.6299 59.7362 12.4208C59.5464 12.2117 59.4024 11.9651 59.3136 11.6971C59.2248 11.4291 59.193 11.1454 59.2203 10.8643ZM62.383 10.8643C62.383 9.93799 61.9669 9.39636 61.2367 9.39636C60.5037 9.39636 60.0914 9.93799 60.0914 10.8643C60.0914 11.7978 60.5038 12.3353 61.2367 12.3353C61.9669 12.3353 62.383 11.7941 62.383 10.8643ZM64.1385 11.7941C64.1385 11.025 64.7112 10.5816 65.7278 10.5185L66.8851 10.4519V10.083C66.8851 9.63169 66.5868 9.37694 66.0105 9.37694C65.5397 9.37694 65.2135 9.54978 65.1199 9.85184H64.3035C64.3896 9.11787 65.0801 8.64724 66.0494 8.64724C67.1205 8.64724 67.7248 9.18054 67.7248 10.083V13.0026H66.9129V12.4021H66.8463C66.7108 12.6174 66.5207 12.793 66.2952 12.9109C66.0697 13.0288 65.817 13.0847 65.5628 13.0729C65.3835 13.0915 65.2022 13.0725 65.0307 13.0168C64.8591 12.9611 64.7012 12.8701 64.567 12.7496C64.4328 12.6291 64.3254 12.4818 64.2516 12.3172C64.1778 12.1527 64.1393 11.9746 64.1385 11.7941ZM66.8851 11.4291V11.0718L65.8418 11.1385C65.2534 11.1778 64.9864 11.3781 64.9864 11.7547C64.9864 12.1393 65.32 12.3631 65.7787 12.3631C65.9132 12.3767 66.0489 12.3632 66.178 12.3232C66.307 12.2833 66.4267 12.2178 66.53 12.1306C66.6332 12.0435 66.7179 11.9365 66.7789 11.8159C66.8398 11.6955 66.876 11.5638 66.8851 11.4291ZM68.8331 10.8643C68.8331 9.51403 69.5271 8.65881 70.6067 8.65881C70.8737 8.64651 71.1387 8.71046 71.3708 8.84317C71.6028 8.97593 71.7923 9.17198 71.917 9.40846H71.98V7.06152H72.8232V13.0024H72.0152V12.3273H71.9485C71.8141 12.5621 71.6181 12.7558 71.3816 12.8872C71.1451 13.0185 70.8772 13.0828 70.6068 13.0728C69.5196 13.0728 68.8331 12.2175 68.8331 10.8641V10.8643ZM69.7041 10.8643C69.7041 11.7705 70.1314 12.3159 70.8457 12.3159C71.5564 12.3159 71.9957 11.7627 71.9957 10.8678C71.9957 9.97745 71.5519 9.41631 70.8457 9.41631C70.136 9.41631 69.7041 9.96535 69.7041 10.8643ZM76.3121 10.8643C76.2853 10.5834 76.3174 10.3002 76.4064 10.0325C76.4955 9.7648 76.6394 9.51871 76.8292 9.30995C77.0189 9.10128 77.2502 8.93444 77.5081 8.82033C77.7661 8.70619 78.0451 8.64724 78.3272 8.64724C78.6092 8.64724 78.8882 8.70619 79.1461 8.82033C79.4041 8.93444 79.6353 9.10128 79.8251 9.30995C80.0148 9.51871 80.1588 9.7648 80.2478 10.0325C80.3369 10.3002 80.369 10.5834 80.3421 10.8643C80.3696 11.1454 80.3379 11.4291 80.2492 11.6973C80.1604 11.9655 80.0165 12.2121 79.8267 12.4213C79.6369 12.6305 79.4055 12.7977 79.1472 12.9121C78.8889 13.0265 78.6096 13.0856 78.3272 13.0856C78.0447 13.0856 77.7653 13.0265 77.507 12.9121C77.2488 12.7977 77.0173 12.6305 76.8275 12.4213C76.6378 12.2121 76.4939 11.9655 76.4051 11.6973C76.3164 11.4291 76.2847 11.1454 76.3121 10.8643ZM79.4749 10.8643C79.4749 9.93799 79.0588 9.39636 78.3286 9.39636C77.5955 9.39636 77.1832 9.93799 77.1832 10.8643C77.1832 11.7978 77.5956 12.3353 78.3286 12.3353C79.0588 12.3353 79.4749 11.7941 79.4749 10.8643ZM81.4736 8.72969H82.2854V9.40846H82.3484C82.4553 9.16465 82.6356 8.96022 82.8642 8.82379C83.0927 8.68732 83.3582 8.62557 83.6236 8.64714C83.8315 8.63152 84.0402 8.66287 84.2343 8.73887C84.4285 8.81488 84.603 8.93356 84.745 9.08618C84.8871 9.2388 84.993 9.42143 85.0549 9.62057C85.1168 9.81962 85.133 10.0301 85.1025 10.2363V13.0024H84.2592V10.4482C84.2592 9.76154 83.9608 9.42002 83.3371 9.42002C83.196 9.41349 83.0551 9.4375 82.9241 9.49046C82.7931 9.54342 82.6751 9.6241 82.5782 9.72694C82.4813 9.82986 82.4077 9.95238 82.3627 10.0863C82.3176 10.2202 82.302 10.3623 82.3169 10.5028V13.0026H81.4737L81.4736 8.72969ZM89.8672 7.66588V8.74915H90.7932V9.45939H89.8672V11.6565C89.8672 12.1041 90.0517 12.3001 90.4719 12.3001C90.5787 12.2998 90.6864 12.2932 90.7932 12.2806V12.9831C90.6413 13.0102 90.4886 13.0245 90.3342 13.0261C89.3967 13.0261 89.0233 12.6962 89.0233 11.8724V9.45939H88.3445V8.74905H89.0233V7.66597L89.8672 7.66588ZM91.9451 7.06162H92.781V9.41631H92.8472C92.9593 9.17021 93.1447 8.96472 93.3777 8.82773C93.6107 8.69074 93.8809 8.62898 94.1501 8.65084C94.3575 8.63959 94.5641 8.67412 94.7556 8.75197C94.948 8.82984 95.1202 8.9491 95.2605 9.10127C95.4017 9.25336 95.5068 9.43467 95.5695 9.63222C95.6313 9.82968 95.6498 10.0385 95.6216 10.2438V13.0026H94.7777V10.4519C94.7777 9.76931 94.4599 9.42373 93.8641 9.42373C93.7193 9.41181 93.5737 9.43176 93.4369 9.48216C93.3009 9.53248 93.1765 9.61201 93.0741 9.7152C92.9717 9.81838 92.8931 9.94267 92.8437 10.0795C92.7942 10.2162 92.7757 10.3621 92.7881 10.507V13.0026H91.9451V7.06162ZM100.539 11.8488C100.424 12.2393 100.176 12.5771 99.8373 12.8031C99.4993 13.029 99.0923 13.1289 98.6872 13.085C98.4056 13.0924 98.1258 13.0385 97.8671 12.927C97.6094 12.8154 97.3781 12.649 97.1901 12.4391C97.0021 12.2293 96.8626 11.9811 96.7797 11.7118C96.6976 11.4425 96.6755 11.1585 96.7135 10.8796C96.6764 10.5997 96.6993 10.3151 96.7814 10.045C96.8635 9.77478 97.0021 9.52541 97.1892 9.31374C97.3764 9.10207 97.6059 8.93303 97.8636 8.81801C98.1222 8.70299 98.4012 8.64472 98.6836 8.64714C99.8726 8.64714 100.59 9.45939 100.59 10.8012V11.0954H97.5723V11.1427C97.5591 11.2995 97.5794 11.4573 97.6306 11.606C97.6818 11.7548 97.7639 11.8911 97.8707 12.0064C97.9784 12.1216 98.1081 12.2132 98.2529 12.2753C98.3977 12.3374 98.553 12.3685 98.7101 12.3667C98.9123 12.3909 99.1171 12.3547 99.298 12.2624C99.479 12.1702 99.6281 12.0262 99.727 11.8488H100.539ZM97.5723 10.4718H99.7305C99.7411 10.3284 99.7217 10.1844 99.6732 10.0489C99.6255 9.91354 99.5487 9.7897 99.4498 9.68545C99.351 9.5812 99.2309 9.49884 99.0985 9.44359C98.9652 9.38842 98.8231 9.36158 98.6792 9.36485C98.5336 9.36308 98.3888 9.39045 98.2538 9.44544C98.1178 9.50043 97.9951 9.58191 97.8927 9.68501C97.7895 9.7882 97.7083 9.91098 97.6526 10.046C97.5979 10.1812 97.5706 10.3259 97.5723 10.4718Z" fill="white"/>
</svg>
