<svg width="21" height="21" viewBox="0 0 21 21" fill="none" xmlns="http://www.w3.org/2000/svg">
<path d="M14.8618 1.00146C14.0379 0.975911 13.1477 1.2865 12.4905 1.94451L11.3478 3.10322C9.15433 2.97857 7.30639 3.5487 5.855 4.57761C5.0506 5.14877 4.50992 5.71685 4.22577 6.14292C4.16138 6.23999 4.12663 6.34831 4.09801 6.46172L1 18.9782L8.15474 11.8259C8.15474 10.8042 8.15474 10.9646 8.15474 10.8042C8.15474 9.67513 9.0695 8.76066 10.1989 8.76066C11.3283 8.76066 12.2431 9.67513 12.2431 10.8042C12.2431 11.9332 11.3283 12.8477 10.1989 12.8477C10.0385 12.8477 9.17682 12.8477 9.17682 12.8477L2.0221 20L14.5429 16.9031C14.6563 16.8744 14.7647 16.8407 14.8618 16.7753C15.2859 16.4923 15.8573 15.9497 16.4276 15.1466C17.4589 13.6937 18.0507 11.878 17.8943 9.66185L19.0831 8.48784C20.3995 7.17181 20.2033 5.05577 19.0984 3.95023L17.0664 1.91183C16.5145 1.35906 15.6866 1.027 14.8618 1.00146ZM14.8301 3.04497C15.1336 3.05519 15.4372 3.18701 15.6191 3.36888L17.6194 5.3582C17.9833 5.72195 18.1325 6.52607 17.6848 6.97359L16.8426 7.83496C15.7285 6.72022 14.178 5.17229 13.1712 4.16688L14.0114 3.33209C14.2342 3.10934 14.5275 3.03578 14.8301 3.04497Z" fill="#ED5C18"/>
</svg>
