<svg width="21" height="21" viewBox="0 0 21 21" fill="none" xmlns="http://www.w3.org/2000/svg">
<path d="M6.00001 1C3.791 1 2 2.70145 2 4.8V16.2C2 18.2985 3.791 20 6.00001 20H15C17.209 20 19 18.2985 19 16.2V4.8C19 2.70145 17.209 1 15 1H6.00001ZM7.00001 4.8H13C13.552 4.8 14 5.2256 14 5.75C14 6.2744 13.552 6.7 13 6.7H7.00001C6.44801 6.7 6.00001 6.2744 6.00001 5.75C6.00001 5.2256 6.44801 4.8 7.00001 4.8ZM7.00001 8.6H13C13.552 8.6 14 9.0256 14 9.55C14 10.0744 13.552 10.5 13 10.5H7.00001C6.44801 10.5 6.00001 10.0744 6.00001 9.55C6.00001 9.0256 6.44801 8.6 7.00001 8.6ZM7.00001 12.4H9.99999C10.552 12.4 11 12.8256 11 13.35C11 13.8744 10.552 14.3 9.99999 14.3H7.00001C6.44801 14.3 6.00001 13.8744 6.00001 13.35C6.00001 12.8256 6.44801 12.4 7.00001 12.4Z" fill="#ED5C18"/>
</svg>
