<svg width="534" height="452" viewBox="0 0 534 452" fill="none" xmlns="http://www.w3.org/2000/svg">
<path d="M239.445 158.979L226.278 190.986H262.738L239.445 158.979Z" fill="#2A1C28"/>
<path d="M303.652 190.91H248.622C247.129 190.869 245.699 190.301 244.584 189.308C243.469 188.315 242.741 186.96 242.528 185.482L232.251 102.303C232.146 101.623 232.192 100.928 232.385 100.268C232.577 99.6068 232.912 98.9964 233.366 98.479C233.82 97.9616 234.381 97.5499 235.011 97.2728C235.641 96.9957 236.324 96.8599 237.012 96.8749H292.042C293.535 96.9162 294.965 97.4836 296.08 98.4768C297.195 99.47 297.924 100.825 298.137 102.303L308.413 185.482C308.518 186.162 308.472 186.857 308.279 187.517C308.087 188.178 307.752 188.788 307.298 189.306C306.844 189.823 306.283 190.235 305.653 190.512C305.023 190.789 304.34 190.925 303.652 190.91Z" fill="#573652"/>
<path d="M308.221 190.981H253.19C251.698 190.939 250.268 190.372 249.153 189.379C248.038 188.386 247.309 187.031 247.096 185.553L236.819 101.857C236.715 101.177 236.761 100.482 236.953 99.8219C237.146 99.1613 237.481 98.5509 237.935 98.0336C238.388 97.5162 238.95 97.1045 239.58 96.8273C240.209 96.5502 240.892 96.4142 241.58 96.4291H296.61C298.103 96.4709 299.533 97.0384 300.648 98.0315C301.762 99.0247 302.491 100.38 302.704 101.857L312.981 185.553C313.085 186.233 313.039 186.928 312.847 187.588C312.654 188.249 312.319 188.859 311.866 189.376C311.412 189.894 310.85 190.305 310.221 190.582C309.591 190.86 308.908 190.995 308.221 190.981Z" fill="#F2DAC0"/>
<path d="M305.647 184.937H254.282C252.911 184.899 251.598 184.377 250.574 183.465C249.55 182.553 248.881 181.309 248.685 179.952L239.392 104.264C239.296 103.639 239.338 103.001 239.515 102.395C239.692 101.788 240 101.227 240.417 100.752C240.833 100.277 241.349 99.8995 241.928 99.6452C242.506 99.3908 243.133 99.2662 243.765 99.2801H295.13C296.501 99.318 297.814 99.8389 298.838 100.751C299.862 101.663 300.531 102.907 300.727 104.264L310.02 179.952C310.116 180.577 310.074 181.215 309.897 181.822C309.721 182.428 309.413 182.989 308.996 183.464C308.579 183.939 308.063 184.317 307.485 184.572C306.906 184.826 306.279 184.951 305.647 184.937Z" fill="white"/>
<path d="M281.726 189.517C282.483 188.713 282.359 187.367 281.45 186.512C280.541 185.656 279.19 185.615 278.433 186.419C277.676 187.223 277.8 188.569 278.709 189.425C279.618 190.28 280.969 190.322 281.726 189.517Z" fill="white"/>
<path d="M268.554 146.116H262.287L263.28 152.378H269.542L268.554 146.116ZM268.375 151.372H264.135L263.462 147.127H267.707L268.375 151.372Z" fill="#2A1C28"/>
<path d="M266.95 147.955H264.362L264.772 150.543H267.36L266.95 147.955Z" fill="#2A1C28"/>
<path d="M270.644 146.116L270.974 148.205H273.063L272.733 146.116H270.644Z" fill="#2A1C28"/>
<path d="M266.03 156.561H263.941L264.271 158.65L264.602 160.739H266.691L266.361 158.65L266.03 156.561Z" fill="#2A1C28"/>
<path d="M270.54 158.653L270.209 156.564H268.12L268.451 158.653H270.54Z" fill="#2A1C28"/>
<path d="M267.789 154.472H265.7L266.03 156.561H268.119L267.789 154.472Z" fill="#2A1C28"/>
<path d="M286.921 156.56L286.591 154.471H282.413L282.743 156.56H284.832L285.163 158.649H287.252L287.582 160.738H283.404L283.074 158.649L282.743 156.56H280.651L280.321 154.471H282.41L282.079 152.382L281.749 150.293H279.66L279.329 148.204H281.418L281.087 146.115H274.826L275.156 148.204H277.245L277.576 150.293L277.906 152.382H275.817L276.148 154.471H278.237L278.567 156.56L278.898 158.649H276.809L277.14 160.738H279.228L279.559 162.827L279.89 164.916H277.801L278.131 167.005H280.22L280.551 169.094L280.881 171.183H278.792L279.123 173.272H285.385L285.054 171.183H282.965L282.634 169.094H284.724L284.393 167.005L284.062 164.916H281.973L281.643 162.827H285.821L286.151 164.916H288.248L287.917 162.827H290.006L290.337 164.916H292.426L292.095 162.827L291.764 160.738H289.675L289.345 158.649H291.43L291.099 156.56H286.921V156.56Z" fill="#2A1C28"/>
<path d="M283.174 146.116L284.166 152.378H290.434L289.441 146.116H283.174ZM289.263 151.372H285.022L284.35 147.127H288.595L289.263 151.372Z" fill="#2A1C28"/>
<path d="M287.841 147.955H285.252L285.663 150.543H288.251L287.841 147.955Z" fill="#2A1C28"/>
<path d="M266.589 173.272H272.856L271.863 167.01H265.601L266.589 173.272ZM266.767 168.016H271.013L271.685 172.262H267.44L266.767 168.016Z" fill="#2A1C28"/>
<path d="M268.08 171.433H270.668L270.257 168.845H267.668L268.08 171.433Z" fill="#2A1C28"/>
<path d="M278.13 167.009H276.041L275.711 164.92H277.8L277.469 162.831L277.138 160.742H275.048L274.718 158.653H276.807L276.476 156.564H274.387L274.057 154.475L273.726 152.386H275.818L275.488 150.297L275.157 148.208H273.068L273.399 150.297H271.302L271.632 152.386L271.963 154.475H269.874L270.204 156.564H272.293L272.624 158.653H270.535L270.865 160.742H272.954L273.285 162.831H271.199L270.868 160.742H266.69L267.021 162.831H269.11L269.441 164.92H273.618L273.949 167.009L274.28 169.098H276.369L276.699 171.187H278.795L278.465 169.098L278.13 167.009Z" fill="#2A1C28"/>
<path d="M274.944 173.272H277.033L276.703 171.183H274.614L274.944 173.272Z" fill="#2A1C28"/>
<path d="M265.269 164.916H267.358L267.027 162.827H264.938L265.269 164.916Z" fill="#2A1C28"/>
<path d="M287.478 173.272H293.745L292.752 167.01H286.484L287.478 173.272ZM287.657 168.016H291.902L292.575 172.262H288.329L287.657 168.016Z" fill="#2A1C28"/>
<path d="M288.97 171.433H291.559L291.148 168.845H288.559L288.97 171.433Z" fill="#2A1C28"/>
<path d="M280.482 108.858L280.604 109.626C280.622 109.697 280.626 109.77 280.615 109.842C280.604 109.914 280.578 109.983 280.539 110.045C280.502 110.091 280.455 110.127 280.402 110.152C280.348 110.176 280.29 110.187 280.231 110.185C280.101 110.185 279.975 110.135 279.882 110.043C279.773 109.93 279.704 109.783 279.688 109.626L279.283 107.066C279.214 106.655 279.331 106.45 279.633 106.45C279.699 106.446 279.765 106.457 279.826 106.482C279.887 106.507 279.942 106.546 279.986 106.595C280.081 106.72 280.142 106.867 280.164 107.023C280.226 106.864 280.318 106.718 280.435 106.595C280.558 106.491 280.716 106.439 280.876 106.45C281.079 106.453 281.28 106.502 281.461 106.595C281.544 106.626 281.618 106.677 281.677 106.744C281.735 106.811 281.775 106.892 281.795 106.979C281.805 107.028 281.804 107.078 281.792 107.126C281.779 107.175 281.756 107.219 281.723 107.257C281.694 107.291 281.658 107.318 281.618 107.337C281.578 107.356 281.534 107.366 281.49 107.366C281.403 107.354 281.318 107.333 281.235 107.303C281.122 107.265 281.003 107.244 280.884 107.241C280.77 107.232 280.658 107.269 280.571 107.343C280.489 107.43 280.437 107.54 280.422 107.658C280.396 107.823 280.39 107.989 280.404 108.155C280.412 108.348 280.438 108.582 280.482 108.858Z" fill="#ED4B46"/>
<path d="M259.604 105.736L261.246 109.047L261.84 105.712C261.87 105.537 261.895 105.416 261.914 105.347C261.934 105.276 261.974 105.212 262.03 105.162C262.104 105.102 262.198 105.073 262.292 105.08C262.379 105.08 262.464 105.102 262.54 105.144C262.618 105.185 262.686 105.243 262.739 105.314C262.788 105.376 262.821 105.45 262.835 105.528C262.843 105.581 262.845 105.634 262.841 105.688C262.836 105.744 262.828 105.801 262.816 105.856C262.805 105.912 262.793 105.968 262.782 106.026L262.097 109.253C262.074 109.376 262.05 109.494 262.025 109.604C262.004 109.705 261.969 109.804 261.923 109.897C261.879 109.981 261.813 110.052 261.732 110.102C261.632 110.16 261.518 110.188 261.402 110.183C261.28 110.186 261.158 110.158 261.048 110.104C260.949 110.054 260.861 109.984 260.79 109.899C260.715 109.807 260.649 109.708 260.593 109.604C260.534 109.494 260.472 109.377 260.41 109.254L258.728 106.054C258.698 105.996 258.669 105.938 258.638 105.882C258.606 105.823 258.579 105.762 258.555 105.7C258.533 105.647 258.517 105.591 258.507 105.535C258.497 105.479 258.501 105.423 258.516 105.368C258.531 105.314 258.558 105.264 258.595 105.222C258.634 105.174 258.684 105.137 258.74 105.112C258.797 105.088 258.858 105.077 258.919 105.08C258.991 105.075 259.064 105.086 259.131 105.113C259.198 105.14 259.258 105.182 259.306 105.236C259.424 105.391 259.524 105.558 259.604 105.736V105.736Z" fill="#EF7A39"/>
<path d="M269.782 107.5L268.396 109.383H270.199C270.323 109.376 270.445 109.412 270.545 109.486C270.628 109.551 270.683 109.645 270.698 109.749C270.708 109.794 270.707 109.84 270.695 109.884C270.683 109.928 270.66 109.969 270.629 110.002C270.586 110.039 270.536 110.068 270.481 110.085C270.427 110.103 270.37 110.109 270.313 110.105H267.82C267.675 110.113 267.53 110.073 267.41 109.99C267.311 109.913 267.247 109.8 267.231 109.677C267.22 109.594 267.239 109.509 267.285 109.439C267.333 109.359 267.435 109.213 267.593 109C267.759 108.776 267.91 108.573 268.046 108.391C268.182 108.21 268.309 108.039 268.425 107.878C268.541 107.72 268.638 107.586 268.714 107.476C268.789 107.366 268.849 107.27 268.892 107.192H267.525C267.378 107.198 267.231 107.181 267.09 107.142C267.036 107.121 266.99 107.084 266.956 107.037C266.923 106.99 266.905 106.934 266.903 106.876C266.892 106.832 266.893 106.785 266.905 106.741C266.917 106.697 266.94 106.657 266.972 106.624C267.054 106.554 267.161 106.52 267.268 106.529H269.38C269.539 106.522 269.697 106.551 269.843 106.614C269.9 106.645 269.948 106.689 269.984 106.742C270.02 106.796 270.042 106.858 270.048 106.922C270.056 106.973 270.054 107.025 270.042 107.075C270.033 107.121 270.017 107.164 269.995 107.205C269.975 107.239 269.948 107.28 269.914 107.328C269.879 107.376 269.834 107.433 269.782 107.5Z" fill="#F28046"/>
<path d="M271.106 106.018C270.981 106.019 270.858 105.977 270.759 105.9C270.707 105.86 270.664 105.81 270.631 105.752C270.599 105.695 270.578 105.632 270.57 105.567C270.558 105.51 270.559 105.451 270.575 105.395C270.59 105.338 270.619 105.287 270.659 105.244C270.698 105.202 270.746 105.17 270.799 105.148C270.852 105.126 270.909 105.116 270.967 105.118C271.088 105.119 271.205 105.159 271.301 105.233C271.354 105.273 271.398 105.323 271.431 105.38C271.464 105.437 271.485 105.501 271.492 105.567C271.506 105.624 271.506 105.685 271.492 105.742C271.478 105.8 271.449 105.854 271.41 105.898C271.371 105.938 271.323 105.97 271.271 105.991C271.219 106.011 271.162 106.021 271.106 106.018V106.018ZM271.711 106.968L272.132 109.625C272.15 109.696 272.154 109.769 272.143 109.841C272.132 109.913 272.106 109.982 272.067 110.043C272.031 110.09 271.984 110.127 271.93 110.151C271.877 110.176 271.818 110.187 271.759 110.185C271.694 110.185 271.629 110.173 271.569 110.148C271.509 110.123 271.454 110.087 271.408 110.04C271.301 109.928 271.234 109.784 271.216 109.63L270.799 107C270.782 106.93 270.778 106.859 270.788 106.788C270.799 106.718 270.824 106.65 270.861 106.589C270.897 106.543 270.944 106.506 270.998 106.481C271.051 106.457 271.11 106.447 271.169 106.45C271.301 106.449 271.428 106.499 271.524 106.589C271.628 106.69 271.695 106.824 271.712 106.968H271.711Z" fill="#EE7A4F"/>
<path d="M272.642 106.527H272.744L272.657 105.975C272.634 105.827 272.62 105.711 272.614 105.627C272.607 105.553 272.618 105.478 272.646 105.409C272.673 105.346 272.718 105.293 272.776 105.256C272.841 105.216 272.916 105.196 272.993 105.198C273.117 105.201 273.236 105.247 273.33 105.329C273.4 105.385 273.453 105.459 273.484 105.543C273.521 105.66 273.549 105.78 273.566 105.902L273.668 106.529H274.005C274.115 106.525 274.223 106.557 274.313 106.622C274.389 106.679 274.44 106.764 274.454 106.859C274.468 106.907 274.466 106.959 274.447 107.007C274.429 107.054 274.395 107.093 274.351 107.119C274.222 107.176 274.081 107.201 273.94 107.192H273.771L274.039 108.883C274.055 108.995 274.078 109.106 274.107 109.215C274.125 109.287 274.164 109.352 274.217 109.404C274.28 109.456 274.361 109.482 274.443 109.476C274.516 109.474 274.588 109.465 274.658 109.448C274.727 109.431 274.798 109.422 274.869 109.419C274.949 109.421 275.026 109.453 275.084 109.508C275.151 109.564 275.195 109.643 275.208 109.729C275.22 109.799 275.208 109.871 275.174 109.932C275.14 109.994 275.085 110.042 275.019 110.069C274.805 110.16 274.573 110.2 274.341 110.187C274.106 110.199 273.873 110.149 273.664 110.042C273.505 109.951 273.38 109.81 273.309 109.642C273.223 109.422 273.164 109.192 273.132 108.958L272.852 107.193H272.731C272.617 107.199 272.505 107.166 272.413 107.099C272.336 107.041 272.285 106.955 272.27 106.86C272.261 106.817 272.263 106.774 272.276 106.732C272.288 106.691 272.311 106.653 272.342 106.623C272.426 106.554 272.533 106.519 272.642 106.527V106.527Z" fill="#E9674C"/>
<path d="M278.759 108.315C278.803 108.566 278.8 108.823 278.751 109.073C278.709 109.291 278.614 109.496 278.475 109.669C278.336 109.838 278.158 109.97 277.956 110.052C277.722 110.145 277.472 110.191 277.22 110.186C276.957 110.188 276.695 110.143 276.448 110.051C276.214 109.963 275.998 109.833 275.81 109.666C275.62 109.499 275.463 109.298 275.345 109.074C275.222 108.837 275.139 108.581 275.1 108.317C275.055 108.064 275.057 107.805 275.107 107.553C275.149 107.336 275.242 107.132 275.38 106.959C275.519 106.792 275.697 106.661 275.899 106.581C276.131 106.488 276.379 106.443 276.629 106.447C276.895 106.445 277.159 106.49 277.408 106.582C277.645 106.669 277.863 106.799 278.052 106.965C278.241 107.133 278.398 107.334 278.515 107.559C278.637 107.796 278.72 108.052 278.759 108.315V108.315ZM277.835 108.315C277.799 107.991 277.664 107.686 277.449 107.44C277.359 107.339 277.248 107.26 277.124 107.206C277 107.152 276.866 107.125 276.731 107.127C276.568 107.121 276.409 107.171 276.278 107.267C276.15 107.371 276.061 107.516 276.027 107.678C275.981 107.887 275.977 108.104 276.016 108.314C276.047 108.535 276.116 108.748 276.222 108.945C276.311 109.111 276.441 109.252 276.599 109.355C276.75 109.45 276.924 109.5 277.102 109.498C277.224 109.506 277.345 109.481 277.454 109.425C277.562 109.37 277.654 109.286 277.718 109.183C277.861 108.917 277.902 108.609 277.835 108.315V108.315Z" fill="#EC5449"/>
<path d="M264.285 106.86C264.182 106.951 264.087 107.048 263.998 107.153C263.954 107.221 263.93 107.302 263.932 107.384C263.932 107.589 263.94 107.794 263.944 108.006C263.945 108.031 263.94 108.057 263.93 108.08C263.92 108.103 263.905 108.124 263.886 108.141C263.866 108.158 263.844 108.17 263.819 108.177C263.795 108.184 263.769 108.186 263.744 108.181C263.686 108.176 263.632 108.149 263.592 108.107C263.552 108.064 263.528 108.009 263.526 107.95C263.515 107.679 263.507 107.407 263.496 107.136C263.493 107.087 263.501 107.038 263.518 106.993C263.536 106.947 263.564 106.906 263.599 106.872C263.755 106.72 263.907 106.564 264.068 106.419C264.147 106.343 264.24 106.283 264.343 106.244C264.445 106.205 264.554 106.187 264.664 106.192C264.744 106.19 264.824 106.21 264.894 106.25C264.965 106.289 265.023 106.347 265.064 106.417C265.181 106.601 265.286 106.793 265.379 106.99C265.417 107.085 265.474 107.171 265.547 107.241C265.621 107.312 265.708 107.367 265.804 107.401C265.971 107.468 266.136 107.543 266.301 107.617C266.351 107.637 266.393 107.674 266.419 107.721C266.445 107.769 266.453 107.824 266.442 107.877C266.436 107.902 266.424 107.925 266.408 107.944C266.391 107.963 266.371 107.978 266.347 107.988C266.324 107.998 266.299 108.003 266.273 108.001C266.248 108 266.223 107.993 266.201 107.98C265.931 107.866 265.66 107.755 265.396 107.626C265.308 107.569 265.228 107.498 265.162 107.415C265.131 107.373 265.097 107.332 265.06 107.294C265.052 107.46 265.06 107.628 265.033 107.789C265.025 107.86 265.033 107.931 265.056 107.999C265.079 108.066 265.117 108.127 265.167 108.178C265.577 108.677 265.968 109.183 266.365 109.688C266.523 109.887 266.463 110.114 266.246 110.146C266.184 110.152 266.12 110.141 266.063 110.114C266.006 110.086 265.958 110.043 265.924 109.99C265.604 109.579 265.281 109.179 264.961 108.773C264.737 108.489 264.514 108.206 264.294 107.919C264.262 107.875 264.245 107.822 264.244 107.768C264.254 107.468 264.27 107.179 264.285 106.86Z" fill="#444444"/>
<path d="M266.214 110.202C266.147 110.199 266.083 110.18 266.025 110.147C265.967 110.115 265.917 110.069 265.88 110.013L265.38 109.383L264.916 108.797L264.906 108.783C264.689 108.508 264.465 108.225 264.249 107.942C264.207 107.885 264.184 107.816 264.184 107.746C264.19 107.529 264.2 107.313 264.211 107.084V107.024C264.153 107.076 264.099 107.133 264.051 107.194C264.013 107.254 263.993 107.324 263.994 107.394C263.994 107.524 263.994 107.658 264 107.788C264 107.863 264.005 107.938 264.006 108.013C264.007 108.047 264.001 108.08 263.988 108.111C263.975 108.141 263.955 108.168 263.93 108.19C263.905 108.212 263.875 108.228 263.843 108.237C263.811 108.246 263.777 108.248 263.744 108.242C263.669 108.234 263.599 108.199 263.547 108.144C263.495 108.089 263.465 108.017 263.461 107.942C263.455 107.784 263.449 107.625 263.443 107.468C263.44 107.355 263.436 107.241 263.431 107.128C263.427 107.071 263.436 107.014 263.456 106.96C263.477 106.907 263.509 106.859 263.55 106.82L263.675 106.697C263.787 106.588 263.902 106.474 264.02 106.365C264.104 106.284 264.204 106.22 264.313 106.179C264.422 106.137 264.538 106.119 264.655 106.124C264.748 106.122 264.84 106.146 264.921 106.192C265.003 106.239 265.07 106.305 265.117 106.386L265.148 106.44C265.256 106.61 265.352 106.787 265.436 106.969C265.47 107.054 265.522 107.13 265.588 107.193C265.654 107.256 265.733 107.304 265.819 107.335C265.958 107.39 266.098 107.453 266.229 107.514L266.315 107.552C266.38 107.579 266.434 107.628 266.468 107.69C266.502 107.752 266.513 107.825 266.499 107.894C266.492 107.925 266.477 107.954 266.456 107.978C266.435 108.002 266.409 108.021 266.38 108.033C266.347 108.045 266.312 108.051 266.277 108.05C266.242 108.048 266.207 108.04 266.175 108.025L266.072 107.983C265.838 107.88 265.597 107.783 265.363 107.669C265.284 107.623 265.215 107.564 265.158 107.493L265.109 107.443C265.108 107.56 265.101 107.677 265.087 107.793C265.08 107.854 265.087 107.916 265.107 107.975C265.128 108.033 265.161 108.086 265.205 108.129C265.541 108.54 265.874 108.967 266.199 109.378L266.404 109.639C266.447 109.688 266.477 109.746 266.493 109.809C266.509 109.872 266.51 109.938 266.495 110.001C266.479 110.053 266.447 110.099 266.405 110.133C266.362 110.168 266.311 110.189 266.256 110.194C266.242 110.197 266.228 110.2 266.214 110.202ZM264.359 106.691L264.35 106.873C264.35 106.954 264.346 107.033 264.339 107.111C264.327 107.338 264.317 107.554 264.311 107.77C264.312 107.807 264.324 107.843 264.346 107.873C264.561 108.154 264.785 108.438 265.002 108.712L265.012 108.726L265.476 109.312L265.976 109.943C266.002 109.986 266.04 110.021 266.085 110.043C266.13 110.065 266.18 110.075 266.23 110.07C266.265 110.067 266.298 110.054 266.326 110.032C266.353 110.011 266.374 109.982 266.384 109.948C266.394 109.906 266.393 109.862 266.381 109.82C266.37 109.779 266.349 109.74 266.32 109.708L266.114 109.445C265.792 109.035 265.457 108.611 265.123 108.199C265.067 108.141 265.025 108.071 264.999 107.995C264.973 107.918 264.964 107.837 264.973 107.757C264.986 107.645 264.994 107.533 264.994 107.42C264.994 107.37 264.994 107.317 264.994 107.268L265 107.158L265.094 107.234C265.125 107.26 265.152 107.29 265.174 107.324C265.183 107.337 265.193 107.35 265.204 107.362L265.255 107.416C265.3 107.472 265.354 107.519 265.415 107.557C265.644 107.669 265.885 107.769 266.117 107.865L266.219 107.907C266.235 107.914 266.252 107.919 266.27 107.92C266.287 107.921 266.305 107.919 266.322 107.913C266.337 107.907 266.35 107.897 266.36 107.885C266.37 107.872 266.378 107.858 266.381 107.842C266.388 107.805 266.382 107.767 266.363 107.734C266.344 107.702 266.314 107.677 266.279 107.664L266.192 107.625C266.059 107.566 265.92 107.504 265.782 107.45C265.677 107.412 265.581 107.352 265.5 107.275C265.42 107.198 265.356 107.105 265.314 107.001C265.232 106.824 265.139 106.653 265.036 106.488L265.003 106.435C264.968 106.376 264.919 106.328 264.859 106.295C264.8 106.262 264.733 106.246 264.665 106.248C264.563 106.244 264.461 106.261 264.365 106.298C264.269 106.334 264.182 106.39 264.109 106.461C263.992 106.564 263.877 106.682 263.766 106.791L263.64 106.914C263.61 106.943 263.587 106.977 263.571 107.016C263.556 107.055 263.55 107.096 263.552 107.138C263.556 107.251 263.56 107.365 263.565 107.479C263.57 107.637 263.575 107.794 263.582 107.952C263.583 107.992 263.599 108.031 263.627 108.06C263.655 108.09 263.693 108.108 263.733 108.112C263.75 108.115 263.768 108.114 263.785 108.109C263.802 108.104 263.818 108.096 263.831 108.084C263.845 108.072 263.855 108.058 263.862 108.041C263.869 108.025 263.872 108.008 263.871 107.99C263.871 107.915 263.871 107.84 263.865 107.765C263.865 107.634 263.856 107.498 263.859 107.365C263.858 107.272 263.886 107.18 263.937 107.103C263.995 107.029 264.06 106.96 264.131 106.898C264.163 106.868 264.195 106.838 264.229 106.804L264.359 106.691Z" fill="#444444"/>
<path d="M264.236 108.28C264.393 108.452 264.538 108.611 264.68 108.771C264.693 108.786 264.699 108.805 264.698 108.825C264.698 108.994 264.663 109.161 264.595 109.316C264.45 109.543 264.321 109.781 264.185 110.014C264.169 110.046 264.146 110.074 264.117 110.096C264.089 110.118 264.056 110.134 264.021 110.141C263.986 110.149 263.95 110.148 263.915 110.14C263.88 110.132 263.848 110.116 263.82 110.093C263.788 110.075 263.761 110.05 263.739 110.02C263.717 109.991 263.701 109.957 263.692 109.921C263.683 109.886 263.681 109.849 263.687 109.812C263.692 109.776 263.705 109.741 263.725 109.71C263.854 109.486 263.985 109.265 264.112 109.04C264.14 108.987 264.159 108.929 264.167 108.869C264.19 108.682 264.212 108.49 264.236 108.28Z" fill="#444444"/>
<path d="M263.986 110.209C263.907 110.205 263.832 110.177 263.768 110.131C263.705 110.084 263.658 110.019 263.631 109.945C263.617 109.899 263.613 109.852 263.619 109.804C263.624 109.757 263.64 109.712 263.664 109.671C263.71 109.591 263.757 109.511 263.804 109.431C263.886 109.29 263.97 109.145 264.051 109.001C264.077 108.954 264.093 108.902 264.1 108.849C264.119 108.715 264.134 108.581 264.151 108.438C264.158 108.38 264.164 108.322 264.171 108.262L264.187 108.138L264.378 108.344C264.498 108.477 264.613 108.602 264.726 108.728C264.739 108.743 264.749 108.761 264.755 108.78C264.761 108.799 264.763 108.818 264.762 108.838C264.754 108.88 264.751 108.923 264.746 108.969C264.744 109.102 264.708 109.233 264.644 109.351C264.547 109.501 264.457 109.658 264.369 109.816C264.325 109.893 264.28 109.97 264.235 110.047C264.212 110.094 264.177 110.134 264.133 110.162C264.089 110.191 264.038 110.207 263.986 110.209ZM264.284 108.419L264.278 108.471C264.262 108.614 264.245 108.75 264.226 108.881C264.217 108.948 264.197 109.012 264.165 109.071C264.084 109.216 263.999 109.362 263.917 109.502C263.871 109.583 263.823 109.662 263.777 109.742C263.761 109.768 263.75 109.798 263.746 109.829C263.742 109.86 263.744 109.891 263.753 109.921C263.769 109.97 263.801 110.011 263.845 110.037C263.867 110.055 263.892 110.067 263.919 110.073C263.946 110.08 263.974 110.079 264.001 110.073C264.028 110.066 264.053 110.054 264.075 110.036C264.096 110.018 264.113 109.996 264.124 109.971C264.169 109.895 264.213 109.818 264.258 109.741C264.347 109.586 264.438 109.424 264.536 109.271C264.59 109.169 264.618 109.054 264.619 108.938C264.619 108.894 264.627 108.849 264.634 108.803C264.524 108.679 264.41 108.554 264.289 108.422L264.284 108.419Z" fill="#444444"/>
<path d="M265.296 105.527C265.308 105.588 265.307 105.65 265.291 105.709C265.276 105.769 265.248 105.824 265.209 105.872C265.169 105.919 265.12 105.957 265.064 105.982C265.008 106.008 264.947 106.02 264.885 106.019C264.749 106.013 264.618 105.961 264.515 105.871C264.412 105.781 264.342 105.659 264.318 105.524C264.306 105.464 264.309 105.401 264.325 105.342C264.341 105.282 264.37 105.227 264.41 105.18C264.45 105.133 264.5 105.096 264.557 105.072C264.613 105.047 264.675 105.035 264.737 105.038C264.871 105.044 265 105.096 265.101 105.185C265.203 105.274 265.272 105.395 265.296 105.527V105.527Z" fill="#444444"/>
<path d="M264.895 106.083C264.74 106.077 264.593 106.018 264.476 105.916C264.359 105.815 264.281 105.677 264.253 105.525C264.24 105.456 264.242 105.385 264.26 105.318C264.278 105.25 264.311 105.188 264.356 105.135C264.402 105.082 264.459 105.04 264.523 105.012C264.587 104.984 264.657 104.971 264.726 104.974C264.879 104.981 265.024 105.04 265.139 105.14C265.254 105.24 265.332 105.377 265.36 105.527C265.372 105.596 265.37 105.667 265.352 105.734C265.334 105.802 265.302 105.866 265.257 105.92C265.213 105.972 265.157 106.014 265.094 106.042C265.032 106.07 264.964 106.084 264.895 106.083V106.083ZM264.741 105.102C264.687 105.1 264.634 105.111 264.585 105.133C264.537 105.154 264.493 105.187 264.459 105.228C264.424 105.268 264.399 105.316 264.386 105.368C264.372 105.42 264.37 105.474 264.38 105.527C264.4 105.644 264.461 105.751 264.553 105.828C264.641 105.909 264.756 105.954 264.875 105.957V105.957C264.928 105.958 264.981 105.947 265.03 105.926C265.078 105.904 265.121 105.872 265.156 105.831C265.19 105.789 265.216 105.739 265.229 105.686C265.242 105.633 265.244 105.577 265.234 105.523C265.212 105.408 265.153 105.303 265.064 105.225C264.975 105.148 264.863 105.103 264.746 105.097L264.741 105.102Z" fill="#444444"/>
<path d="M288.143 131.744H258.504C258.135 131.731 257.782 131.593 257.503 131.352C257.224 131.111 257.036 130.782 256.969 130.42L255.668 122.208C255.635 122.045 255.64 121.876 255.681 121.715C255.722 121.554 255.799 121.404 255.906 121.277C256.013 121.149 256.148 121.048 256.3 120.98C256.452 120.912 256.617 120.879 256.783 120.883H286.421C286.79 120.896 287.143 121.034 287.422 121.275C287.701 121.516 287.889 121.845 287.956 122.208L289.256 130.42C289.289 130.583 289.285 130.751 289.244 130.912C289.203 131.074 289.126 131.223 289.019 131.351C288.912 131.478 288.777 131.579 288.626 131.648C288.474 131.716 288.309 131.749 288.143 131.744Z" fill="#ED5C18"/>
<path d="M261.147 124.693C261.508 124.945 261.785 125.3 261.942 125.712H261.121C261.009 125.509 260.847 125.338 260.649 125.216C260.447 125.094 260.215 125.031 259.979 125.034C259.79 125.03 259.604 125.084 259.446 125.188C259.294 125.295 259.183 125.451 259.13 125.629C259.067 125.847 259.056 126.078 259.098 126.301C259.132 126.538 259.215 126.765 259.342 126.968C259.455 127.151 259.611 127.303 259.797 127.41C259.974 127.511 260.174 127.564 260.378 127.564C260.598 127.574 260.815 127.51 260.994 127.382C261.154 127.259 261.266 127.083 261.31 126.886H262.126C262.118 127.079 262.073 127.268 261.992 127.443C261.911 127.618 261.796 127.775 261.654 127.906C261.332 128.17 260.922 128.304 260.506 128.281C260.151 128.285 259.801 128.199 259.487 128.033C259.173 127.866 258.906 127.624 258.71 127.328C258.503 127.019 258.368 126.669 258.313 126.301C258.249 125.958 258.274 125.605 258.383 125.275C258.482 124.986 258.675 124.738 258.931 124.571C259.215 124.397 259.545 124.31 259.878 124.321C260.329 124.309 260.773 124.439 261.147 124.693V124.693Z" fill="white"/>
<path d="M265.535 124.357L266.151 128.248H265.368L265.1 126.556H263.436L263.704 128.248H262.927L262.311 124.357H263.088L263.339 125.934H265.003L264.753 124.357H265.535Z" fill="white"/>
<path d="M267.116 124.975L267.275 125.983H268.653L268.747 126.579H267.37L267.535 127.625H269.075L269.178 128.248H266.858L266.242 124.357H268.562L268.664 124.973L267.116 124.975Z" fill="white"/>
<path d="M272.153 124.693C272.515 124.945 272.792 125.3 272.949 125.712H272.133C272.021 125.509 271.858 125.338 271.66 125.216C271.458 125.094 271.225 125.031 270.989 125.034C270.8 125.029 270.614 125.083 270.457 125.188C270.304 125.295 270.193 125.45 270.14 125.629C270.078 125.847 270.067 126.078 270.109 126.301C270.143 126.538 270.226 126.765 270.352 126.968C270.465 127.151 270.622 127.303 270.808 127.41C270.985 127.511 271.186 127.564 271.39 127.564C271.61 127.574 271.826 127.51 272.006 127.382C272.166 127.259 272.277 127.083 272.321 126.886H273.142C273.134 127.079 273.088 127.268 273.007 127.443C272.926 127.618 272.811 127.775 272.669 127.906C272.347 128.17 271.937 128.304 271.521 128.281C271.166 128.285 270.815 128.199 270.502 128.033C270.188 127.866 269.921 127.624 269.725 127.328C269.518 127.019 269.383 126.668 269.328 126.301C269.265 125.958 269.289 125.605 269.399 125.275C269.498 124.986 269.69 124.738 269.946 124.571C270.231 124.397 270.56 124.31 270.894 124.321C271.342 124.311 271.782 124.441 272.153 124.693V124.693Z" fill="white"/>
<path d="M275.132 126.269L277.093 128.248H276.151L274.431 126.469L274.713 128.248H273.935L273.319 124.357H274.096L274.373 126.102L275.54 124.357H276.478L275.132 126.269Z" fill="white"/>
<path d="M279.139 125.96L279.242 126.605H276.899L276.796 125.96H279.139Z" fill="white"/>
<path d="M281.768 124.357L282.384 128.248H281.607L280.991 124.357H281.768Z" fill="white"/>
<path d="M286.385 128.248H285.606L283.445 125.602L283.864 128.248H283.087L282.471 124.357H283.248L285.412 127.026L284.989 124.357H285.766L286.385 128.248Z" fill="white"/>
<path d="M237.501 262.809C238.285 263.377 239.016 264.108 239.675 264.983" stroke="#AD4A4D" stroke-width="1.08678" stroke-linecap="round" stroke-linejoin="round"/>
<rect x="100.609" y="192.938" width="387.938" height="239.014" fill="#FEECDA"/>
<path d="M100.609 192.019H488.547" stroke="#EDCBA6" stroke-width="3.26034" stroke-linecap="round" stroke-linejoin="round"/>
<path fill-rule="evenodd" clip-rule="evenodd" d="M368.538 126.067C358.22 127.877 351.327 137.704 353.138 148.022C354.948 158.34 364.775 165.233 375.093 163.422C385.411 161.612 392.304 151.785 390.493 141.467C388.683 131.149 378.856 124.256 368.538 126.067Z" fill="#7581F1"/>
<path fill-rule="evenodd" clip-rule="evenodd" d="M390.482 148.412C392.737 139.941 396.701 99.9524 396.107 95.7236C394.941 87.1143 386.94 81.0831 378.235 82.2658C369.53 83.4485 363.387 91.3708 364.553 99.9801C365.398 106.479 352.588 131.131 352.842 144.085C353.209 162.732 389.252 152.912 390.482 148.412Z" fill="#54B4A6"/>
<path fill-rule="evenodd" clip-rule="evenodd" d="M368.538 126.067C358.22 127.877 351.327 137.704 353.138 148.022C354.948 158.34 364.775 165.233 375.093 163.422C385.411 161.612 392.304 151.785 390.493 141.467C388.683 131.149 378.856 124.256 368.538 126.067Z" fill="#7581F1"/>
<path fill-rule="evenodd" clip-rule="evenodd" d="M338.751 159.754C355.61 189.048 384.831 159.99 386.818 156.441C391.581 144.576 387.24 147.898 386.774 141.037C386.767 140.152 386.655 139.236 386.504 138.376C384.887 129.157 376.397 122.866 367.212 123.838C362.908 124.002 353.967 124.685 348.02 127.55C347.654 127.713 347.289 127.876 346.971 128.03C336.271 133.551 332.017 148.035 338.751 159.754Z" fill="#54B4A6"/>
<path fill-rule="evenodd" clip-rule="evenodd" d="M354.763 142.124C361.496 140.647 367.766 143.83 368.778 149.315C369.781 154.753 365.109 160.398 358.376 161.875C351.643 163.352 345.373 160.168 344.361 154.683C343.358 149.246 347.982 143.609 354.763 142.124Z" fill="#54B4A6"/>
<path d="M368.769 149.268C369.772 154.705 365.1 160.35 358.367 161.827C351.634 163.304 345.364 160.12 344.352 154.635" stroke="#39A08F" stroke-width="1.16933" stroke-miterlimit="10" stroke-linecap="round" stroke-linejoin="round"/>
<path fill-rule="evenodd" clip-rule="evenodd" d="M351.599 133.077C358.332 131.6 364.603 134.784 365.614 140.269C366.618 145.706 361.946 151.352 355.213 152.828C348.48 154.305 342.209 151.122 341.198 145.637C340.251 140.239 344.875 134.602 351.599 133.077Z" fill="#39A08F"/>
<path fill-rule="evenodd" clip-rule="evenodd" d="M342.44 145.419C343.351 150.33 348.973 153.185 355.045 151.873C361.109 150.513 365.292 145.446 364.389 140.582C364.314 140.152 364.199 139.779 364.084 139.405L361.437 117.022L344.227 112.951L342.488 142.604C342.296 143.474 342.272 144.463 342.44 145.419Z" fill="#DE7C62"/>
<path fill-rule="evenodd" clip-rule="evenodd" d="M350.138 125.307C354.152 128.542 359.025 129.657 362.763 128.509L361.381 116.983L344.371 112.926C343.799 116.966 345.89 121.867 350.138 125.307Z" fill="#C26147"/>
<path fill-rule="evenodd" clip-rule="evenodd" d="M352.844 107.057C352.844 107.057 367.99 115.922 359.7 120.872C353.774 124.423 339.705 117.487 336.808 106.867C334.451 97.9254 352.844 107.057 352.844 107.057Z" fill="#DE7C62"/>
<path fill-rule="evenodd" clip-rule="evenodd" d="M347.166 116.227C354.975 119.485 359.567 118.434 362.159 116.649C361.908 115.216 360.962 113.757 359.691 112.405C350.996 111.961 336.171 111.657 347.166 116.227Z" fill="#C26147"/>
<path fill-rule="evenodd" clip-rule="evenodd" d="M344.746 73.8135L329.752 76.1982C328.988 76.3323 328.659 76.9809 329.015 77.6078L347.625 114.916C347.942 115.599 348.854 116.029 349.571 115.904L364.564 113.519C365.329 113.385 365.658 112.736 365.302 112.109L346.652 74.8576C346.383 74.1663 345.462 73.6878 344.746 73.8135Z" fill="#2C1C28"/>
<path fill-rule="evenodd" clip-rule="evenodd" d="M357.239 111.062C362.763 110.832 362.172 106.061 359.714 105.803C363.182 104.8 362.966 101.046 357.879 100.117C350.86 98.8377 342.841 99.9987 342.841 99.9987L343.12 98.2262C343.12 98.2262 346.188 98.8697 348.112 99.1722C352.502 99.7805 353.968 94.944 345.818 91.9918C341.195 90.341 337.748 90.0595 336.3 94.1542C334.79 98.4569 332.939 106.709 342.699 115.189C345.935 121.564 354.689 116.729 356.207 115.281C358.358 113.229 358.005 112.06 357.239 111.062Z" fill="#DE7C62"/>
<path fill-rule="evenodd" clip-rule="evenodd" d="M334.572 88.7951C334.572 88.7951 334.078 91.59 334.143 93.6466C334.325 100.016 335.877 105.209 336.059 105.965L338.117 95.8053L334.572 88.7951Z" fill="#DE7C62"/>
<path d="M360.448 105.772C360.448 105.772 346.84 104.27 339.203 108.17" stroke="#2C1C28" stroke-width="1.16933" stroke-miterlimit="10" stroke-linecap="round" stroke-linejoin="round"/>
<path d="M357.225 111.262C353.489 111.573 346.695 112.42 342.961 114.996" stroke="#2C1C28" stroke-width="1.16933" stroke-miterlimit="10" stroke-linecap="round" stroke-linejoin="round"/>
<path d="M347.882 99.2618C348.025 99.2366 338.812 99.7699 336.528 103.027" stroke="#2C1C28" stroke-width="1.16933" stroke-miterlimit="10" stroke-linecap="round" stroke-linejoin="round"/>
<path d="M347.578 99.2162L339.719 97.6409" stroke="#2C1C28" stroke-width="1.16933" stroke-miterlimit="10" stroke-linecap="round" stroke-linejoin="round"/>
<path fill-rule="evenodd" clip-rule="evenodd" d="M372.338 111.515C372.118 111.948 371.899 112.38 371.671 112.765C369.954 116.168 369.765 120.141 371.261 123.62C372.652 126.774 375.174 130.763 379.915 135.052C378.364 143.054 377.799 158.073 387.524 162.423C391.262 164.082 429.539 159.975 441.799 154.919C449.101 151.914 448.589 146.194 443.205 138.521C440.324 134.448 443.348 107.623 444.766 96.3446C448.624 93.3535 450.702 88.3603 449.797 83.2013C448.489 75.7493 441.414 70.7866 433.962 72.0941C433.389 72.1947 432.872 72.3347 432.355 72.4747C406.942 76.9338 387.991 80.8992 378.227 82.2185C369.522 83.4013 363.379 91.3235 364.545 99.9328C365.242 105.03 368.236 109.182 372.338 111.515Z" fill="#54B4A6"/>
<path d="M391.818 102.434C391.242 105.884 390.91 109.044 391.04 111.188C391.455 117.762 394.971 130.785 402.03 155.298" stroke="#39A08F" stroke-width="1.16933" stroke-miterlimit="10" stroke-linecap="round" stroke-linejoin="round"/>
<path d="M387.532 162.471C377.855 158.113 378.42 143.094 379.923 135.1C375.221 130.754 372.651 126.774 371.269 123.668C369.725 120.197 369.962 116.216 371.679 112.813C373.286 109.625 376.031 104.22 380.368 95.8267" stroke="#39A08F" stroke-width="1.16933" stroke-miterlimit="10" stroke-linecap="round" stroke-linejoin="round"/>
<path fill-rule="evenodd" clip-rule="evenodd" d="M426.295 94.9071C434.721 106.723 442.481 114.471 446.558 134.338C449.022 146.412 443.036 150.466 450.023 162.781C457.867 176.62 494.854 169.933 489.546 147.82C483.866 124.148 454.031 86.0028 447.616 78.0683C444.693 73.7558 439.385 71.2895 433.94 72.2451C426.488 73.5526 421.525 80.6276 422.832 88.0796C423.341 90.6985 424.589 93.04 426.295 94.9071Z" fill="#54B4A6"/>
<path d="M431.744 102.667C442.086 116.707 444.552 122.626 446.702 133.476" stroke="#39A08F" stroke-width="1.16933" stroke-miterlimit="10" stroke-linecap="round" stroke-linejoin="round"/>
<path fill-rule="evenodd" clip-rule="evenodd" d="M488.457 173.321C488.457 173.321 488.484 173.759 488.526 173.998C488.836 175.765 482.926 178.28 475.33 179.612C467.735 180.945 461.322 180.593 461.011 178.826C460.986 178.683 456.044 164.827 456.044 164.827L456.092 164.819C456.083 164.771 456.083 164.771 456.075 164.723C455.765 162.956 461.675 160.441 469.271 159.109C476.866 157.776 483.28 158.128 483.59 159.895C483.606 159.991 483.575 160.095 483.592 160.19L488.457 173.321Z" fill="#54B4A6"/>
<path d="M456.1 164.866L456.148 164.858C456.14 164.81 456.14 164.81 456.131 164.762C455.821 162.995 461.732 160.481 469.327 159.148C476.922 157.815 483.336 158.167 483.646 159.934C483.663 160.03 483.632 160.134 483.649 160.229" stroke="#39A08F" stroke-width="1.16933" stroke-miterlimit="10" stroke-linecap="round" stroke-linejoin="round"/>
<path fill-rule="evenodd" clip-rule="evenodd" d="M474.372 173.872C467.494 175.079 462.092 177.405 462.377 179.03C462.662 180.654 468.485 181.011 475.412 179.795C482.29 178.588 487.692 176.262 487.407 174.637C487.122 173.013 481.299 172.656 474.372 173.872Z" fill="#39A08F"/>
<path fill-rule="evenodd" clip-rule="evenodd" d="M486.176 216.165C489.731 217.905 498.792 220.156 504.473 222.507L506.428 223.543C507.517 224.14 508.838 223.81 509.347 222.785C509.826 221.864 509.465 220.647 508.518 220.025C508.518 220.025 502.871 217.027 498.384 211.66L510.549 209.427L510.956 209.503C511.06 209.534 511.164 209.565 511.315 209.588C511.523 209.65 511.787 209.751 511.995 209.813C512.419 209.985 512.86 210.252 513.253 210.528C513.646 210.804 514.008 211.183 514.322 211.571L514.452 211.746L514.637 211.959L514.968 212.443L515.669 213.354L523.738 225.38C524.568 226.466 526.102 226.787 527.212 226.1C528.227 225.43 528.439 224.112 527.808 223.041L520.589 210.521L520.022 209.537L519.739 209.045L519.593 208.775L519.391 208.466C518.841 207.578 518.165 206.81 517.393 206.059C516.629 205.356 515.779 204.718 514.841 204.144C514.352 203.885 513.912 203.617 513.384 203.415C513.12 203.313 512.903 203.203 512.639 203.102L511.96 202.877L486.972 194.607C486.916 194.567 486.908 194.519 486.908 194.519C487.29 194.452 479.846 193.001 479.678 192.883C468.833 207.686 486.167 216.118 486.176 216.165Z" fill="#DE7C62"/>
<path fill-rule="evenodd" clip-rule="evenodd" d="M464.984 179.015L477.011 207.433L494.447 204.374L485.58 175.45L485.572 175.402C485.337 174.065 480.567 173.819 474.883 174.816C469.15 175.822 464.749 177.678 464.984 179.015Z" fill="#DE7C62"/>
<path d="M531.688 217.092L521.309 207.046L520.481 206.256L520.071 205.885L519.838 205.679L519.549 205.435C518.785 204.732 517.895 204.149 516.974 203.671C516.053 203.192 515.053 202.826 513.975 202.572C513.464 202.465 512.952 202.358 512.393 202.259C512.138 202.205 511.843 202.208 511.596 202.202L510.854 202.184L483.662 200.997C478.996 200.782 479.714 211.046 489.336 214.528L511.317 208.75L511.755 208.723C511.851 208.706 512.002 208.728 512.098 208.712C512.345 208.718 512.592 208.723 512.792 208.738C513.247 208.806 513.758 208.913 514.23 209.076C514.702 209.24 515.134 209.459 515.536 209.783L515.704 209.901L515.929 210.058L516.386 210.421L517.293 211.099L528.345 220.485C529.428 221.329 531.03 221.196 531.843 220.216C532.712 219.276 532.573 217.921 531.688 217.092Z" fill="#DE7C62"/>
<path d="M496.968 212.006C503.122 210.877 510.653 209.458 510.653 209.458L511.06 209.534C511.164 209.565 511.268 209.596 511.42 209.618C511.627 209.68 511.891 209.782 512.099 209.844C512.523 210.016 512.964 210.283 513.357 210.559C513.75 210.834 514.112 211.214 514.427 211.602L514.556 211.776L514.741 211.99L515.072 212.474L515.773 213.384L523.842 225.411C524.672 226.496 526.206 226.818 527.316 226.131C528.331 225.46 528.543 224.143 527.912 223.072L520.693 210.552L520.126 209.568L519.843 209.076L519.697 208.806L519.495 208.497C518.945 207.609 518.269 206.841 517.497 206.09C516.734 205.387 515.883 204.748 514.945 204.174C514.457 203.915 514.016 203.648 513.488 203.445C513.224 203.344 513.008 203.234 512.744 203.133L512.064 202.907" stroke="#2C1C28" stroke-width="1.16933" stroke-miterlimit="10" stroke-linecap="round" stroke-linejoin="round"/>
<path fill-rule="evenodd" clip-rule="evenodd" d="M401.824 70.4953C393.227 73.1363 386.691 77.139 387.301 79.4939C387.864 81.8572 395.309 81.6341 403.962 79.0325C412.559 76.3916 419.094 72.3889 418.484 70.0339C417.913 67.6229 410.42 67.8544 401.824 70.4953Z" fill="black"/>
<path d="M406.809 39.1402C408.09 39.7033 408.693 41.1733 408.208 42.3415C407.724 43.5098 406.237 44.0169 405.004 43.4453" stroke="black" stroke-width="1.16933" stroke-miterlimit="10" stroke-linecap="round" stroke-linejoin="round"/>
<path fill-rule="evenodd" clip-rule="evenodd" d="M377.59 48.8469C372.31 38.3991 388.9 43.711 395.653 47.4008C402.407 51.0905 403.356 62.3967 397.775 72.6823C392.194 82.9679 372.758 94.552 369.652 87.5141C361.38 68.4327 384.791 62.9461 377.59 48.8469Z" fill="#4F2827"/>
<path fill-rule="evenodd" clip-rule="evenodd" d="M384.366 60.8049L389.401 77.9924C389.378 78.1441 389.395 78.2397 389.42 78.383C389.915 80.3641 396.124 80.1117 403.352 77.8094C410.533 75.5154 415.981 72.0482 415.486 70.0671C415.452 69.876 415.323 69.7017 415.146 69.5358L402.979 45.3767L384.366 60.8049Z" fill="#DE7C62"/>
<path fill-rule="evenodd" clip-rule="evenodd" d="M387.443 71.8859C402.248 64.2164 400.021 48.9983 400.021 48.9983L384.316 60.5186L387.443 71.8859Z" fill="#C26147"/>
<path fill-rule="evenodd" clip-rule="evenodd" d="M404.206 47.0327C439.931 50.2674 399.747 12.3625 388.784 13.3015C388.784 13.3015 372.719 16.3172 370.082 26.8248C369.739 30.4796 370.29 32.5001 370.012 38.2114C369.512 46.8669 373.299 61.7129 383.684 63.0912C389.726 63.8528 399.939 60.8791 404.206 47.0327Z" fill="#DE7C62"/>
<path d="M389.423 46.968C389.423 46.968 386.208 53.3423 379.928 51.7854" stroke="#BD4040" stroke-width="1.16933" stroke-miterlimit="10" stroke-linecap="round" stroke-linejoin="round"/>
<path fill-rule="evenodd" clip-rule="evenodd" d="M388.084 48.8767C388.084 48.8767 386.484 47.3355 383.924 48.1787C382.341 48.7025 382.144 49.8205 382.144 49.8205C382.144 49.8205 379.304 48.7923 379.498 51.8604C381.463 53.2389 386.741 51.328 388.084 48.8767Z" fill="#BD4040"/>
<path d="M377.803 31.8217C377.803 31.8217 374.487 30.0401 370.427 32.722" stroke="#2C1C28" stroke-width="1.16933" stroke-miterlimit="10" stroke-linecap="round" stroke-linejoin="round"/>
<path d="M375.361 36.1403L372.816 35.1096" stroke="#2C1C28" stroke-width="1.16933" stroke-miterlimit="10" stroke-linecap="round" stroke-linejoin="round"/>
<path d="M389.494 33.9066L386.705 33.165" stroke="#2C1C28" stroke-width="1.16933" stroke-miterlimit="10" stroke-linecap="round" stroke-linejoin="round"/>
<path d="M393.136 30.8057C391.549 29.9023 387.101 28.1224 382.892 31.0766" stroke="#2C1C28" stroke-width="1.16933" stroke-miterlimit="10" stroke-linecap="round" stroke-linejoin="round"/>
<path d="M379.765 34.5802C379.765 34.5802 381.093 37.9416 378.449 41.1137C375.845 44.2296 377.752 48.0804 381.902 46.7612" stroke="#2C1C28" stroke-width="1.16933" stroke-miterlimit="10" stroke-linecap="round" stroke-linejoin="round"/>
<path d="M403.773 41.1997L408.685 37.4819" stroke="#2C1C28" stroke-width="1.16933" stroke-miterlimit="10" stroke-linecap="round" stroke-linejoin="round"/>
<path fill-rule="evenodd" clip-rule="evenodd" d="M389.66 33.7298C388.919 33.7123 388.409 34.7372 388.475 35.9566C388.589 37.1676 389.26 38.1824 389.993 38.1522C390.735 38.1698 391.244 37.1449 391.178 35.9255C391.064 34.7145 390.402 33.7474 389.66 33.7298Z" fill="#2C1C28"/>
<path fill-rule="evenodd" clip-rule="evenodd" d="M374.974 35.6174C374.232 35.5998 373.722 36.6247 373.789 37.8441C373.903 39.0551 374.573 40.07 375.306 40.0398C376.048 40.0573 376.558 39.0324 376.491 37.813C376.433 36.6414 375.715 35.6349 374.974 35.6174Z" fill="#2C1C28"/>
<path fill-rule="evenodd" clip-rule="evenodd" d="M437.892 72.0443C437.892 72.0443 430.249 73.3854 424.135 74.4583C414.649 81.2928 417.171 96.5085 424.26 99.3023L398.369 103.845C392.282 96.9366 391.105 90.7912 392.408 85.5893C387.325 92.5378 388.015 98.7192 397.11 103.968C358.633 99.6402 389.183 76.7505 408.383 68.3099C410.851 66.9413 412.59 66.1929 412.59 66.1929C412.59 66.1929 399.525 59.0807 404.232 46.3388C407.001 47.5271 410.043 45.2206 410.789 43.8588C412.548 40.6943 411.689 36.3641 408.817 35.1448C405.944 33.9255 403.194 35.9344 401.737 38.012C401.776 37.9558 401.776 37.9558 401.737 38.012C401.658 38.1243 401.5 38.3489 401.469 38.4528C402.043 29.0951 384.236 26.951 385.164 17.9251C385.164 17.9251 375.002 18.3788 370.215 26.4569C369.614 23.3125 371.282 15.1415 383.57 10.5235C397.892 5.1545 413.234 10.9316 415.239 26.2872C415.528 27.3691 415.428 28.7653 416.718 30.5084C420.43 35.6674 463.529 53.7095 437.892 72.0443ZM397.27 104.038C397.214 103.999 397.214 103.999 397.158 103.959C397.214 103.999 397.262 103.99 397.318 104.03L397.27 104.038Z" fill="#4F2827"/>
<path fill-rule="evenodd" clip-rule="evenodd" d="M433.384 451.499C423.199 452.711 410.735 450.432 407.922 448.928C406.225 448.055 403.703 447.134 403.218 442.72C403.072 441.508 400.599 439.568 399.483 438.792C397.592 437.483 400.599 420.799 404.77 416.58C408.019 415.998 416.312 430.547 421.696 433.991C435.178 437.24 437.458 441.751 437.458 441.751C439.107 444.418 439.252 450.82 433.384 451.499Z" fill="#2C1A28"/>
<path fill-rule="evenodd" clip-rule="evenodd" d="M433.384 448.492C423.199 449.705 410.735 447.425 407.922 445.922C406.225 445.049 403.703 444.127 403.218 439.714C403.072 438.501 400.599 436.561 399.483 435.785C397.592 434.476 400.599 417.793 404.77 413.573C408.019 412.991 416.312 427.541 421.696 430.984C435.178 434.234 437.458 438.744 437.458 438.744C439.107 441.411 439.252 447.813 433.384 448.492Z" fill="#54B4A6"/>
<path fill-rule="evenodd" clip-rule="evenodd" d="M335.562 451.984C347.396 452.178 351.178 450.626 355.834 448.443C360.975 446.067 357.871 440.781 362.673 439.811C367.571 438.841 368.104 437.192 368.104 437.192C369.268 431.954 366.407 432.584 363.303 428.898C336.144 446.309 334.349 432.972 332.943 437.24C332.943 437.24 318.975 438.598 313.495 445.339C312.574 446.455 313.059 447.813 313.398 449.025C311.943 448.88 319.169 451.693 335.562 451.984Z" fill="#2C1A28"/>
<path fill-rule="evenodd" clip-rule="evenodd" d="M335.562 448.735C347.396 448.929 351.179 447.377 355.835 445.194C360.976 442.818 357.872 437.532 362.673 436.562C367.571 435.592 368.105 433.943 368.105 433.943C369.269 428.705 367.765 421.187 364.613 417.55C337.454 434.961 334.301 429.772 332.943 434.04C332.943 434.04 316.745 435.592 313.35 445.776C311.943 445.679 319.17 448.444 335.562 448.735Z" fill="#54B4A6"/>
<path fill-rule="evenodd" clip-rule="evenodd" d="M412.966 273.266C413.742 289.901 410.007 287.38 407.922 309.107C405.934 329.913 404.139 380.594 403.945 409.014C404.333 411.099 403.46 415.27 403.46 415.27C403.46 415.27 406.516 419.199 406.661 421.284C407.679 435.882 409.328 438.113 433.675 436.028C429.455 431.129 421.55 414.737 423.442 404.601C432.171 326.421 435.712 314.83 435.615 292.278C435.518 265.798 447.351 236.02 451.522 213.225C456.178 188.054 435.469 161.38 436.342 167.83C426.206 166.667 436.148 191.158 428.534 191.595C427.661 191.692 411.414 190.625 411.414 190.625C411.414 190.625 409.959 207.987 412.966 273.266Z" fill="#DE7C62"/>
<path fill-rule="evenodd" clip-rule="evenodd" d="M350.354 432.633C358.066 420.071 362.237 419.829 365.147 419.102C370.336 389.663 378.387 341.213 382.364 321.522C386.68 300.134 381.248 296.982 386.922 280.832C409.135 217.444 410.784 198.869 410.784 198.869C410.784 198.869 398.562 188.151 397.738 188.006C390.269 186.89 396.671 173.117 386.195 173.408C388.329 168.558 371.354 184.756 367.183 219.336C358.405 291.987 343.225 410.76 343.225 410.76C343.225 410.76 339.345 419.878 333.719 426.231C330.567 429.771 327.609 434.088 325.038 436.173C340.073 440.101 347.687 436.901 350.354 432.633Z" fill="#DE7C62"/>
<path fill-rule="evenodd" clip-rule="evenodd" d="M404.43 383.892C413.499 384.231 421.647 380.933 426.449 378.46C426.934 374.337 427.418 370.506 427.855 366.869C420.726 364.347 407.34 366.481 407.34 366.481C407.34 366.481 406.273 367.548 404.867 369.148C404.673 374.143 404.527 379.09 404.43 383.892C404.43 383.892 404.382 383.892 404.43 383.892Z" fill="#C26147"/>
<path fill-rule="evenodd" clip-rule="evenodd" d="M344.583 372.834C344.728 374.192 352.973 375.308 363.206 375.308C373.488 375.308 381.83 374.192 381.83 372.786H381.878L408.65 218.415L400.647 372.931H400.89C401.375 374.241 409.523 375.308 419.465 375.308C429.747 375.308 438.088 374.192 438.088 372.786C439.058 364.493 443.375 320.019 444.684 308.913C449.485 268.805 455.645 217.59 455.645 217.59C455.645 217.59 456.712 206.484 455.111 197.269C454.481 193.681 453.656 190.431 452.735 187.473C451.425 180.683 446.479 172.778 442.938 168.073V154.106V154.057C442.938 151.632 430.619 150.517 415.391 151.487C400.162 152.505 387.844 155.27 387.844 157.646C387.844 157.792 387.892 157.889 387.941 158.034L386.922 170.207C369.075 179.47 364.807 205.078 364.758 205.126L344.437 372.786L344.583 372.834Z" fill="#FCC670"/>
<path d="M401.957 211.721L372.906 369.681" stroke="#D8912B" stroke-width="1.16933" stroke-miterlimit="10" stroke-linecap="round" stroke-linejoin="round"/>
<path d="M390.802 169.334C390.802 169.334 384.74 186.212 368.978 192.759" stroke="#D8912B" stroke-width="1.16933" stroke-miterlimit="10" stroke-linecap="round" stroke-linejoin="round"/>
<path d="M409.522 152.65V165.406L408.261 209.733C408.261 209.733 395.555 204.204 399.532 185.144C402.927 168.994 402.054 166.666 402.054 166.666" stroke="#D8912B" stroke-width="1.16933" stroke-miterlimit="10" stroke-linecap="round" stroke-linejoin="round"/>
<path d="M425.769 164.775C425.769 164.775 425.769 187.375 447.788 194.505" stroke="#D8912B" stroke-width="1.16933" stroke-miterlimit="10" stroke-linecap="round" stroke-linejoin="round"/>
<path d="M435.42 151.778V164.921C438.961 169.625 443.956 177.53 445.217 184.32C446.139 187.23 446.963 190.528 447.594 194.117C449.145 203.332 448.127 214.438 448.127 214.438C448.127 214.438 441.968 265.652 437.166 305.761C435.663 318.467 431.104 366.335 430.086 374.871" stroke="#D8912B" stroke-width="1.16933" stroke-miterlimit="10" stroke-linecap="round" stroke-linejoin="round"/>
<path d="M443.181 167.782V167.734C443.181 165.26 430.523 164.096 414.906 165.115C399.289 166.133 386.631 168.995 386.631 171.468" stroke="#D8912B" stroke-width="1.16933" stroke-miterlimit="10" stroke-linecap="round" stroke-linejoin="round"/>
<path fill-rule="evenodd" clip-rule="evenodd" d="M408.407 210.218L400.502 209.927C400.502 209.927 399.92 213.904 401.617 219.433C403.121 224.331 406.807 228.842 406.807 228.842L408.601 218.414L408.407 210.218Z" fill="#D8912B"/>
<path fill-rule="evenodd" clip-rule="evenodd" d="M150.054 139.757C150.054 149.32 142.299 157.076 132.735 157.076C131.641 157.076 130.594 156.981 129.595 156.79C119.984 155.458 111.562 145.371 111.087 136.997C110.611 128.433 111.134 93.5095 110.944 89.3701C110.611 80.901 117.272 73.7164 125.884 73.3834C134.496 73.0503 141.728 79.6639 142.061 88.133C142.061 88.2758 142.061 88.4661 142.061 88.6088C142.061 88.6088 137.208 112.208 147.818 130.812C149.007 132.858 149.578 134.713 149.674 136.284C149.911 137.473 150.054 138.615 150.054 139.757Z" fill="#ED5C18"/>
<path fill-rule="evenodd" clip-rule="evenodd" d="M165.041 152.318C161.092 164.927 148.721 172.254 137.445 168.685C136.208 168.305 135.066 167.829 133.972 167.21C133.639 167.115 133.353 166.972 133.068 166.735C132.83 166.544 132.592 166.402 132.402 166.211C131.688 165.735 131.022 165.212 130.403 164.641C120.65 156.79 116.367 149.035 115.654 142.326C115.511 141.47 115.463 140.613 115.463 139.709C115.463 130.574 122.553 123.057 131.545 122.438C135.685 121.867 144.439 121.011 150.672 122.771C151.053 122.866 151.386 122.961 151.767 123.057C162.995 126.673 168.99 139.757 165.041 152.318Z" fill="#ED5C18"/>
<path fill-rule="evenodd" clip-rule="evenodd" d="M150.815 131.145C156.715 131.002 161.568 137.044 161.663 144.657C161.711 152.27 157.001 158.503 151.053 158.646C145.153 158.788 140.3 152.746 140.205 145.133C140.157 137.568 144.915 131.287 150.815 131.145Z" fill="#CC2818"/>
<path fill-rule="evenodd" clip-rule="evenodd" d="M183.883 109.068C181.266 99.4094 187.547 89.8935 187.547 89.8935C187.975 88.9895 187.689 87.8951 186.833 87.3242C185.929 86.7532 184.692 86.9911 184.121 87.9427L183.027 89.5604C179.601 93.8426 173.368 99.3142 171.322 102.169C168.372 114.635 185.691 115.682 183.883 109.068Z" fill="#EB967C"/>
<path d="M223.612 115.777C223.612 115.777 181.551 111.685 179.363 110.543C176.889 110.352 176.984 109.115 177.269 106.546C177.555 103.929 179.839 102.026 182.456 102.312C182.646 102.312 182.884 102.359 183.026 102.407L224.326 111.209C225.61 111.494 226.371 112.779 226.086 114.016C225.896 115.158 224.801 115.919 223.612 115.777Z" fill="#EB967C"/>
<path d="M220.424 104.595L212.668 111.97L211.86 112.732L211.479 113.112L211.289 113.303L211.003 113.54C210.242 114.207 209.433 114.73 208.529 115.158C207.625 115.586 206.673 115.919 205.722 116.11C205.246 116.205 204.723 116.252 204.247 116.3C204.009 116.3 203.724 116.348 203.486 116.348H202.819L177.269 115.824C174.795 115.729 175.414 111.066 178.031 109.544C180.124 108.354 183.217 107.26 185.596 107.308C185.738 107.308 185.929 107.308 186.071 107.355L203.295 109.686L203.676 109.734C203.771 109.734 203.914 109.782 204.009 109.782C204.247 109.782 204.437 109.782 204.675 109.782C205.103 109.734 205.579 109.639 206.007 109.496C206.436 109.353 206.864 109.163 207.244 108.878L207.387 108.782L207.625 108.64L208.053 108.307L208.91 107.641L217.284 101.027C218.33 100.266 219.805 100.456 220.567 101.503C221.423 102.454 221.28 103.787 220.424 104.595Z" fill="#EB967C"/>
<path fill-rule="evenodd" clip-rule="evenodd" d="M159.998 151.271C158.143 154.316 155.193 156.362 151.815 156.41C146.153 156.553 141.537 151.129 141.49 144.42C141.442 140.518 142.965 137.045 145.296 134.761L145.201 134.666L176.984 101.741L191.068 111.162L159.998 151.271Z" fill="#EB967C"/>
<path d="M187.785 107.403C187.927 107.403 188.07 107.403 188.26 107.45L204.39 109.639L204.771 109.686C204.866 109.686 204.961 109.686 205.104 109.734C205.294 109.734 205.532 109.734 205.722 109.734C206.15 109.686 206.579 109.639 206.959 109.496C207.387 109.353 207.768 109.163 208.149 108.925L208.291 108.83L208.482 108.687L208.91 108.402L209.719 107.783L217.522 101.027C218.521 100.313 219.901 100.504 220.615 101.455C221.281 102.359 221.186 103.644 220.377 104.405L213.192 111.875L212.431 112.589L212.05 112.922L211.86 113.112L211.622 113.35C210.908 113.969 210.147 114.444 209.338 114.873C208.529 115.301 207.625 115.586 206.721 115.777" stroke="#2C1A28" stroke-width="0.951591" stroke-miterlimit="10" stroke-linecap="round" stroke-linejoin="round"/>
<path fill-rule="evenodd" clip-rule="evenodd" d="M136.494 100.552C136.779 100.932 137.065 101.313 137.35 101.646C139.586 104.596 140.443 108.45 139.539 112.018C138.73 115.301 136.969 119.536 133.163 124.532C136.018 131.954 139.063 146.371 130.451 152.175C127.12 154.412 89.5801 156.933 76.924 154.126C69.4064 152.461 68.883 146.894 72.8321 138.568C74.9256 134.143 67.5032 108.83 64.2202 98.2201C59.9856 95.9839 57.1309 91.559 57.1309 86.4204C57.1309 79.0455 63.1259 73.0505 70.5007 73.0505C71.0717 73.0505 71.595 73.0981 72.1184 73.1457C97.3356 73.1457 116.272 73.7642 125.883 73.3836C134.495 73.0505 141.727 79.6641 142.06 88.1332C142.251 93.0815 140.062 97.6016 136.494 100.552Z" fill="#ED5C18"/>
<path d="M130.451 152.175C139.063 146.37 135.97 131.954 133.163 124.531C136.969 119.583 138.73 115.301 139.539 112.018C140.443 108.402 139.539 104.595 137.35 101.646C135.256 98.8384 131.688 94.128 126.121 86.7532" stroke="#CC2818" stroke-width="0.951591" stroke-miterlimit="10" stroke-linecap="round" stroke-linejoin="round"/>
<path fill-rule="evenodd" clip-rule="evenodd" d="M82.4437 443.362C92.3879 443.838 104.568 441.412 107.375 439.746C109.041 438.747 112.133 435.987 111.325 432.467C110.706 429.659 113.561 429.564 114.655 428.708C116.511 427.28 115.892 417.812 111.8 414.006C108.612 413.673 99.0966 421.666 93.8153 425.472C80.6357 429.612 78.3995 434.179 78.3995 434.179C76.8293 436.891 76.7342 443.124 82.4437 443.362Z" fill="#2C1A28"/>
<path fill-rule="evenodd" clip-rule="evenodd" d="M82.4437 440.508C92.3879 440.984 104.568 437.843 107.328 436.178C108.993 435.179 112.086 433.133 111.277 429.564C110.658 426.757 113.513 426.662 114.608 425.806C116.463 424.378 114.465 408.106 110.373 404.3C107.185 403.967 99.0966 418.764 93.8153 422.57C80.6357 426.71 78.3995 431.277 78.3995 431.277C76.8293 433.989 76.7342 440.222 82.4437 440.508Z" fill="#573652"/>
<path fill-rule="evenodd" clip-rule="evenodd" d="M103.331 269.174C102.569 285.446 106.233 282.972 108.279 304.24C110.23 324.556 111.943 374.134 112.18 401.921C111.8 403.967 112.038 406.203 112.038 406.203C112.038 406.203 109.183 411.389 108.422 413.292C102.712 427.138 102.046 428.994 82.3005 428.09C84.061 422.761 93.4341 403.443 92.0068 395.307C83.49 318.847 81.1586 309.854 81.2538 287.777C81.3489 261.894 69.7871 232.775 65.6953 210.461C61.1752 185.814 81.3965 159.788 80.5401 166.069C90.4842 164.927 80.7304 188.859 88.2004 189.335C89.0568 189.43 104.948 188.384 104.948 188.384C104.948 188.384 106.281 205.322 103.331 269.174Z" fill="#CC7544"/>
<path fill-rule="evenodd" clip-rule="evenodd" d="M111.086 356.482C102.236 356.53 92.4351 353.151 86.8683 350.868C86.2973 346.205 85.8215 342.018 85.3457 338.164C87.9626 335.88 92.4826 334.12 100.191 333.929C103.949 333.834 107.28 334.31 110.23 335.119C110.563 341.97 110.848 349.202 111.086 356.482Z" fill="#995128"/>
<path fill-rule="evenodd" clip-rule="evenodd" d="M182.884 444.171C171.275 443.362 167.611 441.554 163.044 439.032C158.048 436.273 161.045 431.325 156.382 429.992C151.577 428.612 151.054 426.995 151.054 426.995C149.959 421.809 152.719 422.617 155.764 419.334C182.313 438.652 184.074 425.758 185.454 430.04C185.454 430.04 199.109 432.514 204.485 439.603C205.389 440.793 204.914 442.03 204.581 443.172C206.008 443.172 198.919 445.265 182.884 444.171Z" fill="#2C1A28"/>
<path fill-rule="evenodd" clip-rule="evenodd" d="M182.884 441.031C171.275 440.222 167.611 438.414 163.044 435.893C158.048 433.133 161.045 428.185 156.382 426.853C151.577 425.473 151.053 423.855 151.053 423.855C149.959 418.669 151.387 411.437 154.432 408.106C180.981 427.423 184.074 422.618 185.406 426.9C185.406 426.9 201.25 429.802 204.533 440.032C206.008 439.984 198.919 442.126 182.884 441.031Z" fill="#573652"/>
<path fill-rule="evenodd" clip-rule="evenodd" d="M168.468 423.997C160.95 411.056 157.382 409.961 154.479 408.629C149.483 380.176 141.062 332.264 137.16 312.661C132.973 291.393 138.255 288.776 132.735 272.504C110.992 208.652 109.421 190.334 109.421 190.334C109.421 190.334 121.364 180.913 122.173 180.77C129.5 180.295 123.219 166.306 133.449 167.448C131.356 162.548 147.961 179.771 152.053 213.981C160.617 285.731 175.462 403.157 175.462 403.157C175.462 403.157 179.268 412.435 184.74 419.096C187.832 422.855 190.735 427.28 193.209 429.564C178.507 432.181 171.037 428.422 168.468 423.997Z" fill="#CC7544"/>
<path fill-rule="evenodd" clip-rule="evenodd" d="M168.99 352.485C156.429 354.198 148.008 351.962 144.201 350.487C143.297 345.443 142.393 340.59 141.584 336.023C148.198 331.312 164.708 334.357 164.708 334.357C164.708 334.357 165.755 335.166 167.135 336.451C167.848 342.018 168.515 347.347 169.133 352.485C169.085 352.485 169.038 352.485 168.99 352.485Z" fill="#995128"/>
<path fill-rule="evenodd" clip-rule="evenodd" d="M155.193 347.204C146.438 348.346 138.968 347.727 138.064 345.777L110.23 211.222L112.562 343.778H112.514C112.134 346.062 105.282 348.298 96.7654 348.917C87.9156 349.535 80.5883 347.775 80.4456 345.396C80.4456 345.491 80.4456 345.301 80.4456 345.396C80.1125 342.589 77.7811 323.081 74.974 299.72C70.2636 260.467 64.2686 210.413 64.2686 210.413C64.2686 210.413 63.2218 199.517 64.7919 190.525C68.0273 171.493 77.3053 161.977 77.3053 161.977L111.182 155.839C111.182 155.839 113.276 156.077 129.738 163.262C148.58 171.493 153.1 198.185 153.1 198.232L171.227 340.924C171.227 340.971 171.227 340.971 171.275 341.019C171.56 343.255 164.328 345.967 155.193 347.204Z" fill="#573652"/>
<path fill-rule="evenodd" clip-rule="evenodd" d="M131.451 164.451C134.21 166.021 143.441 171.445 148.008 184.672C136.113 198.708 74.7359 190.572 66.8853 182.055C67.7893 175.204 72.9754 166.877 76.6391 162.024V148.369V148.321C76.6391 145.942 88.6767 144.848 103.569 145.8C118.461 146.799 130.499 149.463 130.499 151.842C130.499 151.985 130.452 152.08 130.404 152.223L131.451 164.451Z" fill="#573652"/>
<path d="M109.136 146.847C109.136 146.847 109.04 154.602 109.088 159.122C114.179 191.381 140.11 346.681 140.11 346.681" stroke="#2C1A28" stroke-width="0.951591" stroke-miterlimit="10" stroke-linecap="round" stroke-linejoin="round"/>
<path d="M103.521 145.943C103.521 149.511 103.474 154.697 103.331 158.979C101.142 175.014 101.951 204.561 101.951 204.561L109.945 345.396" stroke="#2C1A28" stroke-width="0.951591" stroke-miterlimit="10" stroke-linecap="round" stroke-linejoin="round"/>
<path d="M148.341 347.252L125.408 196.71C125.408 196.662 121.744 173.348 114.893 160.121C114.893 153.08 114.94 147.18 114.94 147.18M96.8123 145.895C96.8123 150.082 96.7647 158.932 96.7647 158.932C96.7647 158.932 90.8648 171.493 90.056 187.765C89.6278 196.758 90.389 207.653 90.389 207.653L103.902 347.585" stroke="#2C1A28" stroke-width="0.951591" stroke-miterlimit="10" stroke-linecap="round" stroke-linejoin="round"/>
<path d="M157.953 346.3L137.969 197.234C137.922 197.186 136.256 176.251 123.124 162.738C122.363 161.977 121.697 161.311 121.031 160.645C121.031 151.795 121.126 148.322 121.126 148.322M90.1041 145.752C90.1041 152.556 90.1041 158.694 90.1041 158.694C90.1041 158.694 80.2551 171.112 78.2568 187.337C77.1624 196.282 77.9237 207.225 77.9237 207.225L93.3871 348.679" stroke="#2C1A28" stroke-width="0.951591" stroke-miterlimit="10" stroke-linecap="round" stroke-linejoin="round"/>
<path d="M165.565 344.397L145.201 197.471C145.153 197.424 143.155 176.108 127.311 162.5C127.168 162.357 127.216 150.082 127.216 149.892M83.4426 146.18C83.4426 146.18 83.3475 151.652 83.3475 160.026C80.5403 163.119 71.5953 173.396 69.5018 187.051C68.1696 195.996 69.0736 206.94 69.0736 206.94C69.0736 206.94 74.2122 257.184 78.2565 296.579C80.8257 321.939 83.8708 347.49 83.8708 347.49" stroke="#2C1A28" stroke-width="0.951591" stroke-miterlimit="10" stroke-linecap="round" stroke-linejoin="round"/>
<path fill-rule="evenodd" clip-rule="evenodd" d="M110.42 202.61L118.128 202.943C118.128 202.943 118.318 206.464 116.7 211.888C115.225 216.693 112.561 221.213 112.561 221.213L110.468 210.698L110.42 202.61Z" fill="#2C1A28"/>
<path fill-rule="evenodd" clip-rule="evenodd" d="M81.7298 93.6518C75.592 106.451 69.4067 115.253 68.8357 135.046C68.5027 147.131 74.9259 149.986 70.3107 163.023C65.1245 177.677 28.3455 177.487 29.7253 155.315C31.2003 131.573 53.5151 89.7503 58.3207 81.0432C60.4142 76.3804 65.077 73.145 70.501 73.145C77.8759 73.145 83.8709 79.14 83.8709 86.5149C83.8709 89.0842 83.062 91.6059 81.7298 93.6518Z" fill="#ED5C18"/>
<path fill-rule="evenodd" clip-rule="evenodd" d="M51.1358 162.785C58.6534 162.785 64.7911 164.213 64.7911 165.973C64.7911 167.733 58.701 169.161 51.1358 169.161C43.6182 169.161 37.4805 167.733 37.4805 165.973C37.528 164.213 43.6182 162.785 51.1358 162.785Z" fill="#CC2818"/>
<path fill-rule="evenodd" clip-rule="evenodd" d="M44.5222 220.594C41.3819 222.878 33.0555 226.542 27.9645 229.825L26.2516 231.157C25.3 231.918 23.9678 231.823 23.3017 230.919C22.6832 230.11 22.8259 228.873 23.6348 228.112C23.6348 228.112 28.583 224.305 31.9612 218.358L19.8284 218.263L19.4478 218.406C19.3526 218.453 19.2574 218.501 19.1147 218.548C18.9244 218.643 18.6865 218.786 18.4962 218.881C18.1155 219.119 17.7349 219.452 17.4018 219.785C17.0688 220.118 16.7833 220.547 16.5454 220.975L16.4502 221.165L16.3075 221.403L16.0696 221.926L15.5462 222.926L9.78911 235.867C9.17057 237.057 7.74318 237.628 6.60127 237.152C5.50694 236.676 5.07873 235.439 5.50695 234.297L10.3601 221.022L10.7407 219.976L10.931 219.452L11.0262 219.214L11.1689 218.881C11.5495 217.93 12.0729 217.073 12.6915 216.217C13.31 215.408 14.0237 214.647 14.8325 213.981C15.2132 213.648 15.6414 213.315 16.1172 213.029C16.3551 212.886 16.5454 212.744 16.7833 212.601L17.4018 212.268L40.0973 200.087C40.1449 200.04 40.1449 199.992 40.1449 199.992C39.7642 199.992 46.6633 197.375 46.8536 197.185C59.8428 209.461 44.5698 220.547 44.5222 220.594ZM46.8536 197.185C46.9012 197.185 46.9012 197.185 46.8536 197.185C46.9012 197.185 46.8536 197.185 46.8536 197.185Z" fill="#CC7544"/>
<path fill-rule="evenodd" clip-rule="evenodd" d="M62.1745 165.688C62.1745 165.735 62.2221 165.783 62.2221 165.831C62.2221 165.926 62.1745 166.021 62.0794 166.068L51.9449 210.603H34.626L40.2404 165.783H40.621C41.0968 164.831 45.4741 164.118 50.803 164.118C56.1795 164.165 61.6512 164.784 62.1745 165.688Z" fill="#CC7544"/>
<path d="M0.892127 229.159L9.17097 217.692L9.83709 216.788L10.1701 216.36L10.3605 216.122L10.5984 215.837C11.2169 215.028 11.9782 214.314 12.787 213.696C13.5959 213.077 14.4999 212.554 15.4515 212.125C15.9273 211.935 16.4031 211.745 16.9264 211.554C17.1643 211.459 17.4498 211.412 17.6877 211.364L18.4014 211.221L44.3798 205.512C48.8523 204.513 49.8991 214.504 41.192 219.5L19.0675 217.645L18.6393 217.692C18.5442 217.692 18.4014 217.74 18.3062 217.74C18.0683 217.787 17.8305 217.835 17.6401 217.883C17.2119 218.025 16.7361 218.216 16.3555 218.453C15.9273 218.691 15.5466 218.977 15.2136 219.358L15.0708 219.5L14.8805 219.691L14.4999 220.119L13.7386 220.928L4.69849 231.823C3.79448 232.823 2.22436 232.965 1.27277 232.156C0.273602 231.443 0.130855 230.11 0.892127 229.159Z" fill="#CC7544"/>
<path d="M33.4361 218.406C27.2984 218.358 19.8284 218.263 19.8284 218.263L19.4478 218.406C19.3526 218.453 19.2574 218.501 19.1147 218.549C18.9244 218.644 18.6865 218.786 18.4962 218.882C18.1155 219.12 17.7349 219.453 17.4018 219.786C17.0688 220.119 16.7833 220.547 16.5454 220.975L16.4502 221.165L16.3075 221.403L16.0696 221.927L15.5462 222.926L9.78911 235.868C9.17057 237.057 7.74318 237.628 6.60127 237.152C5.50694 236.676 5.07873 235.439 5.50695 234.297L10.3601 221.023L10.7407 219.976L10.931 219.453L11.0262 219.215L11.1689 218.882C11.5495 217.93 12.0729 217.074 12.6915 216.217C13.31 215.408 14.0237 214.647 14.8325 213.981C15.2132 213.648 15.6414 213.315 16.1172 213.029C16.3551 212.887 16.5454 212.744 16.7833 212.601L17.4018 212.268" stroke="#2C1A28" stroke-width="0.951591" stroke-miterlimit="10" stroke-linecap="round" stroke-linejoin="round"/>
<path d="M77.8281 102.074C70.2154 117.347 68.788 127.148 68.8356 136.093" stroke="#CC2818" stroke-width="0.951591" stroke-miterlimit="10" stroke-linecap="round" stroke-linejoin="round"/>
<path fill-rule="evenodd" clip-rule="evenodd" d="M125.455 81.2344C126.787 83.2328 126.55 84.8505 124.932 85.4214C121.934 86.5158 112.228 79.2837 111.229 78.7603C111.229 78.7603 104.758 89.7988 89.1996 84.8505C70.929 79.0458 82.7287 68.6734 83.9658 67.6267C85.869 65.3904 92.768 64.1058 100.952 64.6768C109.611 65.2477 116.748 67.6743 118.08 70.2911L125.455 81.2344Z" fill="#EBE6E9"/>
<path fill-rule="evenodd" clip-rule="evenodd" d="M101.142 66.0088C109.896 67.1032 116.843 69.8628 116.653 72.2418C116.51 74.6207 109.278 75.6675 100.571 74.6207C91.8163 73.5264 84.8697 70.7668 85.06 68.3878C85.2027 65.9613 92.4348 64.9145 101.142 66.0088Z" fill="#2C1A28"/>
<path d="M111.086 79.0454C111.086 79.0454 120.602 90.2266 115.749 106.832" stroke="#CC2818" stroke-width="0.951591" stroke-miterlimit="10" stroke-linecap="round" stroke-linejoin="round"/>
<path d="M112.8 91.4634C113.466 99.3616 111.42 103.596 107.661 109.306C100.143 120.725 103.236 126.244 103.236 126.244" stroke="#CC2818" stroke-width="0.951591" stroke-miterlimit="10" stroke-linecap="round" stroke-linejoin="round"/>
<path fill-rule="evenodd" clip-rule="evenodd" d="M111.087 79.0454C111.087 79.0454 113.371 91.1306 112.657 94.3184C111.991 97.5063 108.85 99.5046 105.663 98.8385C102.475 98.1724 100.476 95.0322 101.143 91.8443C101.856 88.6565 111.087 79.0454 111.087 79.0454Z" stroke="#CC2818" stroke-width="0.951591" stroke-miterlimit="10" stroke-linecap="round" stroke-linejoin="round"/>
<path fill-rule="evenodd" clip-rule="evenodd" d="M111.086 79.0454C111.086 79.0454 112.847 87.6573 114.036 89.6557C115.226 91.654 117.843 92.3201 119.841 91.1306C121.839 89.9411 122.506 87.3243 121.316 85.3259C120.127 83.3276 111.086 79.0454 111.086 79.0454Z" stroke="#CC2818" stroke-width="0.951591" stroke-miterlimit="10" stroke-linecap="round" stroke-linejoin="round"/>
<path fill-rule="evenodd" clip-rule="evenodd" d="M116.32 53.7331L114.369 71.1472C114.417 71.29 114.417 71.3851 114.417 71.5279C114.274 73.5262 108.231 74.3351 100.904 73.2883C93.5769 72.2891 87.7722 69.8626 87.8674 67.8642C87.8674 67.6739 87.9625 67.4836 88.1053 67.2933L95.7656 41.981L116.32 53.7331Z" fill="#EB967C"/>
<path fill-rule="evenodd" clip-rule="evenodd" d="M114.703 64.7236C99.1441 59.8229 99.2393 45.0256 99.2393 45.0256L116.32 53.4472L114.703 64.7236Z" fill="#C77157"/>
<path fill-rule="evenodd" clip-rule="evenodd" d="M124.17 19.0476C142.869 60.6322 132.116 76.7616 116.272 68.3876C127.882 56.9685 124.789 28.849 123.552 19.0952C117.557 19.6662 108.326 20.2847 107.089 19.0001C107.089 19.0001 96.0033 41.0294 97.2879 64.0579C70.7386 59.4427 67.8838 38.9835 67.8838 38.9835C67.8838 38.9835 75.2586 34.7489 75.5917 23.2822C74.0215 6.39148 88.7712 -1.45915 103.664 4.77377C110.182 4.53588 129.785 1.82384 128.786 18.4767C128.786 18.5243 126.882 18.7622 124.17 19.0476Z" fill="#4F2827"/>
<path fill-rule="evenodd" clip-rule="evenodd" d="M96.8598 63.9631C94.8615 63.5825 93.0535 63.1542 91.3406 62.6309C79.7788 55.6367 88.2003 36.7952 88.2003 36.7952C91.6737 31.8469 96.051 38.6032 98.3348 46.6441C99.1912 51.6876 99.9049 62.8688 96.8598 63.9631ZM121.696 59.3955C126.597 46.1683 124.551 27.1365 123.552 19.2859C123.885 19.4286 124.218 19.6665 124.551 19.9044C128.12 27.9454 130.546 34.9871 132.069 41.0773C132.021 48.5949 129.261 55.9697 121.696 59.3955Z" fill="#381413"/>
<path fill-rule="evenodd" clip-rule="evenodd" d="M94.7191 43.1706C92.1022 44.2649 88.2959 42.4093 87.3443 41.1722C85.7266 38.936 86.012 34.9869 88.391 33.2264C90.3894 31.7039 93.9102 33.0361 95.6707 34.749C95.7658 34.8441 95.9562 35.0345 96.0037 35.1296C101.713 29.6104 99.6198 23.5202 100.048 24.0912C109.611 20.2848 108.232 12.6245 108.232 12.5769L110.135 19.809C116.035 19.5711 121.173 18.8574 124.314 18.6195C125.218 22.0928 125.075 24.1387 126.312 29.5628C128.215 37.7941 127.121 52.7816 117.319 55.8267C111.705 57.5872 101.19 55.7316 94.7191 43.1706ZM95.7658 34.749C95.7658 34.749 95.7658 34.7014 95.7658 34.749C95.7183 34.6538 95.6707 34.6538 95.7658 34.749Z" fill="#EB967C"/>
<path d="M109.611 41.2195C109.611 41.2195 113.798 46.8339 119.603 44.2646" stroke="#BD4040" stroke-width="0.951591" stroke-miterlimit="10" stroke-linecap="round" stroke-linejoin="round"/>
<path fill-rule="evenodd" clip-rule="evenodd" d="M111.229 42.8849C111.229 42.8849 112.514 41.1244 115.131 41.5051C116.748 41.743 117.129 42.7897 117.129 42.7897C117.129 42.7897 119.698 41.3147 120.031 44.3123C118.366 45.9775 112.942 45.0259 111.229 42.8849Z" fill="#BD4040"/>
<path d="M117.748 24.7095C117.748 24.7095 120.65 22.4257 125.027 24.3289" stroke="#2C1A28" stroke-width="0.951591" stroke-miterlimit="10" stroke-linecap="round" stroke-linejoin="round"/>
<path d="M120.84 28.4684L123.077 27.041" stroke="#2C1A28" stroke-width="0.951591" stroke-miterlimit="10" stroke-linecap="round" stroke-linejoin="round"/>
<path d="M106.852 28.7063L109.373 27.5168" stroke="#2C1A28" stroke-width="0.951591" stroke-miterlimit="10" stroke-linecap="round" stroke-linejoin="round"/>
<path d="M102.808 26.3274C104.187 25.1854 108.184 22.854 112.704 24.9951" stroke="#2C1A28" stroke-width="0.951591" stroke-miterlimit="10" stroke-linecap="round" stroke-linejoin="round"/>
<path d="M91.1029 36.6521C89.961 37.4134 89.628 38.8883 90.2941 39.9827C90.9602 41.0294 92.4352 41.2673 93.5771 40.506" stroke="#2C1A28" stroke-width="0.951591" stroke-miterlimit="10" stroke-linecap="round" stroke-linejoin="round"/>
<path d="M116.32 27.7068C116.32 27.7068 115.607 31.1801 118.699 33.797C121.697 36.3187 120.507 40.4105 116.32 39.792" stroke="#2C1A28" stroke-width="0.951591" stroke-miterlimit="10" stroke-linecap="round" stroke-linejoin="round"/>
<path d="M94.3387 38.1747L89.0098 35.4626" stroke="#2C1A28" stroke-width="0.951591" stroke-miterlimit="10" stroke-linecap="round" stroke-linejoin="round"/>
<path fill-rule="evenodd" clip-rule="evenodd" d="M106.709 28.5634C107.423 28.4207 108.089 29.3247 108.232 30.5142C108.327 31.7037 107.851 32.7504 107.137 32.8932C106.424 33.0359 105.758 32.1319 105.615 30.9424C105.472 29.7529 105.996 28.6586 106.709 28.5634Z" fill="#2C1A28"/>
<path fill-rule="evenodd" clip-rule="evenodd" d="M121.125 27.8974C121.839 27.7547 122.505 28.6587 122.648 29.8482C122.743 31.0377 122.267 32.0844 121.553 32.2272C120.84 32.3699 120.174 31.4659 120.031 30.2764C119.888 29.0869 120.412 28.0402 121.125 27.8974Z" fill="#2C1A28"/>
<path fill-rule="evenodd" clip-rule="evenodd" d="M102.047 17.0969C82.1584 60.1088 91.6743 78.0463 109.184 69.1014C96.0516 57.0637 101.143 24.1387 102.047 17.0969Z" fill="#4F2827"/>
</svg>
