<svg width="17" height="17" viewBox="0 0 17 17" fill="none" xmlns="http://www.w3.org/2000/svg">
<path d="M8.50001 2C4.37629 2 1.00002 4.88903 1.00002 8.49873C1.00002 9.67067 1.3631 10.8057 2.03127 11.7928C2.13807 11.9509 2.23062 12.3084 2.17189 12.6507C2.11114 13.0045 1.91944 13.3504 1.53912 13.5533C1.4207 13.6168 1.00347 13.793 1.00002 14.2754C0.996496 14.7577 1.42797 14.9953 1.75002 14.9974C2.51142 15.0032 7.18992 14.9974 8.50001 14.9974C12.6237 14.9974 16 12.1084 16 8.49873C16 4.88903 12.6237 2 8.50001 2ZM5.50001 6.33247H11.5C11.9142 6.33247 12.25 6.65596 12.25 7.05454C12.25 7.45317 11.9142 7.77666 11.5 7.77666H5.50001C5.08579 7.77666 4.75001 7.45317 4.75001 7.05454C4.75001 6.65596 5.08579 6.33247 5.50001 6.33247ZM5.50001 9.22081H9.25001C9.66424 9.22081 10 9.5443 10 9.94289C10 10.3415 9.66424 10.665 9.25001 10.665H5.50001C5.08579 10.665 4.75001 10.3415 4.75001 9.94289C4.75001 9.5443 5.08579 9.22081 5.50001 9.22081Z" fill="#ED5C18"/>
</svg>
