<svg width="31" height="34" viewBox="0 0 31 34" fill="none" xmlns="http://www.w3.org/2000/svg">
<path d="M20.3333 25.3333H28.6667L26.3251 22.9918C25.6901 22.3568 25.3333 21.4955 25.3333 20.5974V15.3333C25.3333 10.9793 22.5506 7.27515 18.6667 5.90236V5.33333C18.6667 3.49238 17.1743 2 15.3333 2C13.4924 2 12 3.49238 12 5.33333V5.90236C8.11603 7.27515 5.33333 10.9793 5.33333 15.3333V20.5974C5.33333 21.4955 4.97658 22.3568 4.34155 22.9918L2 25.3333H10.3333M20.3333 25.3333V27C20.3333 29.7614 18.0948 32 15.3333 32C12.5719 32 10.3333 29.7614 10.3333 27V25.3333M20.3333 25.3333H10.3333" stroke="#ED5C18" stroke-width="2.78" stroke-linecap="round" stroke-linejoin="round"/>
</svg>
