<svg width="102" height="102" viewBox="0 0 102 102" fill="none" xmlns="http://www.w3.org/2000/svg">
<rect width="102" height="102" rx="16" fill="#FEF9F4"/>
<path fill-rule="evenodd" clip-rule="evenodd" d="M47.9012 26.2708C48.4429 25.9097 48.9845 25.9097 49.5261 26.2708L66.4964 34.5754C67.038 34.9365 67.3991 35.4781 67.3991 36.0197V75.0154C67.3991 75.9181 66.677 76.6403 65.7743 76.6403H35.6248C34.7221 76.6403 34 75.9181 34 75.0154V45.2271C34 44.5049 34.3611 43.9633 34.9027 43.7828L40.4993 41.0747V36.9224C40.4993 36.0197 41.2214 35.2976 42.1241 35.2976C43.0268 35.2976 43.7489 36.0197 43.7489 36.9224V39.2694L46.818 37.8251V27.7151C46.9986 27.1735 47.3596 26.6319 47.9012 26.2708ZM63.9689 53.1706L58.0112 50.2821C57.1086 49.921 56.2059 50.2821 55.8448 51.0042C55.4838 51.9069 55.8448 52.8096 56.567 53.1706L63.9689 56.7813V73.2101H50.2482V30.4231L63.9689 37.1029V53.1706ZM43.9295 58.2256C43.9295 57.3229 43.2073 56.6008 42.3046 56.6008C41.402 56.6008 40.6798 57.3229 40.6798 58.2256V60.3921C40.6798 61.2947 41.402 62.0169 42.3046 62.0169C43.2073 62.0169 43.9295 61.2947 43.9295 60.3921V58.2256Z" fill="#ED5C18"/>
</svg>
