<svg width="15" height="12" viewBox="0 0 15 12" fill="none" xmlns="http://www.w3.org/2000/svg">
<g clip-path="url(#clip0_1994_119)">
<path fill-rule="evenodd" clip-rule="evenodd" d="M7.86612 0.351472C8.35427 -0.117157 9.14573 -0.117157 9.63388 0.351472L14.6339 5.15147C15.122 5.6201 15.122 6.3799 14.6339 6.84853L9.63388 11.6485C9.14573 12.1172 8.35427 12.1172 7.86612 11.6485C7.37796 11.1799 7.37796 10.4201 7.86612 9.95147L10.7322 7.2H1.25C0.559645 7.2 -3.01764e-08 6.66274 0 6C3.01764e-08 5.33726 0.559645 4.8 1.25 4.8H10.7322L7.86612 2.04853C7.37796 1.5799 7.37796 0.820101 7.86612 0.351472Z" fill="white"/>
</g>
<defs>
<clipPath id="clip0_1994_119">
<rect width="15" height="12" fill="white"/>
</clipPath>
</defs>
</svg>
