<svg width="18" height="18" viewBox="0 0 18 18" fill="none" xmlns="http://www.w3.org/2000/svg">
<path d="M9.37022 1.61071C11.6533 1.61071 11.9228 1.61876 12.824 1.66099C13.6567 1.6992 14.1093 1.83796 14.411 1.95459C14.8093 2.10944 15.0949 2.29444 15.3947 2.59408C15.6944 2.89371 15.8794 3.17726 16.0343 3.57744C16.151 3.87909 16.2898 4.33156 16.328 5.1641C16.3682 6.06502 16.3783 6.3365 16.3783 8.61694C16.3783 10.8994 16.3702 11.1689 16.328 12.0698C16.2898 12.9023 16.151 13.3548 16.0343 13.6564C15.8794 14.0546 15.6944 14.3402 15.3947 14.6398C15.0949 14.9394 14.8113 15.1244 14.411 15.2793C14.1093 15.3959 13.6567 15.5347 12.824 15.5729C11.9228 15.6131 11.6533 15.6232 9.37022 15.6232C7.08717 15.6232 6.81762 15.6151 5.91647 15.5729C5.08371 15.5347 4.63112 15.3959 4.3294 15.2793C3.93112 15.1244 3.64549 14.9394 3.34578 14.6398C3.04606 14.3402 2.86101 14.0566 2.70612 13.6564C2.58946 13.3548 2.45066 12.9023 2.41244 12.0698C2.37221 11.1689 2.36215 10.8974 2.36215 8.61694C2.36215 6.33449 2.3702 6.06502 2.41244 5.1641C2.45066 4.33156 2.58946 3.87909 2.70612 3.57744C2.86101 3.17927 3.04606 2.89371 3.34578 2.59408C3.64549 2.29444 3.92911 2.10944 4.3294 1.95459C4.63112 1.83796 5.08371 1.6992 5.91647 1.66099C6.81762 1.62077 7.08717 1.61071 9.37022 1.61071ZM9.37022 0.0703125C7.04895 0.0703125 6.75728 0.0803663 5.84607 0.122597C4.93687 0.164827 4.31532 0.307605 3.7702 0.520768C3.20899 0.739964 2.73227 1.03156 2.25554 1.50615C1.78083 1.98074 1.48715 2.45734 1.26991 3.02041C1.0587 3.56337 0.913872 4.18476 0.871631 5.09573C0.829389 6.0067 0.819336 6.29829 0.819336 8.61895C0.819336 10.9396 0.829389 11.2312 0.871631 12.1422C0.913872 13.0511 1.05669 13.6725 1.26991 14.2175C1.48916 14.7786 1.78083 15.2552 2.25554 15.7318C2.73026 16.2063 3.20698 16.5 3.7702 16.7171C4.3133 16.9283 4.93486 17.0731 5.84607 17.1153C6.75728 17.1575 7.04895 17.1676 9.37022 17.1676C11.6915 17.1676 11.9831 17.1575 12.8944 17.1153C13.8035 17.0731 14.4251 16.9303 14.9702 16.7171C15.5314 16.4979 16.0082 16.2063 16.4849 15.7318C16.9596 15.2572 17.2533 14.7806 17.4705 14.2175C17.6817 13.6745 17.8266 13.0531 17.8688 12.1422C17.911 11.2312 17.9211 10.9396 17.9211 8.61895C17.9211 6.29829 17.911 6.0067 17.8688 5.09573C17.8266 4.18677 17.6837 3.56538 17.4705 3.02041C17.2513 2.45935 16.9596 1.98275 16.4849 1.50615C16.0102 1.03156 15.5334 0.737953 14.9702 0.520768C14.4271 0.309616 13.8056 0.164827 12.8944 0.122597C11.9831 0.0803663 11.6915 0.0703125 9.37022 0.0703125Z" fill="white"/>
<path d="M9.3702 4.229C6.94634 4.229 4.98111 6.19372 4.98111 8.61695C4.98111 11.0402 6.94634 13.0049 9.3702 13.0049C11.7941 13.0049 13.7593 11.0402 13.7593 8.61695C13.7593 6.19372 11.7941 4.229 9.3702 4.229ZM9.3702 11.4665C7.79721 11.4665 6.5199 10.1915 6.5199 8.61695C6.5199 7.04235 7.7952 5.7674 9.3702 5.7674C10.9432 5.7674 12.2205 7.04235 12.2205 8.61695C12.2205 10.1915 10.9432 11.4665 9.3702 11.4665Z" fill="white"/>
<path d="M13.9343 5.08195C14.5008 5.08195 14.9601 4.62278 14.9601 4.05636C14.9601 3.48993 14.5008 3.03076 13.9343 3.03076C13.3677 3.03076 12.9084 3.48993 12.9084 4.05636C12.9084 4.62278 13.3677 5.08195 13.9343 5.08195Z" fill="white"/>
</svg>
