<svg width="17" height="17" viewBox="0 0 17 17" fill="none" xmlns="http://www.w3.org/2000/svg">
<path d="M8.88889 6.78674C9.11216 6.53537 9.29522 6.28198 9.52453 6.06681C10.2286 5.40319 11.0613 5.06937 12.0349 5.07741C12.5699 5.08143 13.097 5.11964 13.6119 5.26845C14.7906 5.60831 15.4745 6.42074 15.8024 7.57102C16.0478 8.43372 16.0921 9.32056 16.0941 10.2094C16.0981 12.0836 16.0881 13.9599 16.0921 15.8341C16.0921 16.0091 16.0438 16.0553 15.8708 16.0553C14.9053 16.0473 13.9378 16.0473 12.9722 16.0553C12.8013 16.0573 12.765 16.005 12.765 15.8442C12.7711 14.0604 12.7711 12.2767 12.765 10.4909C12.763 10.0445 12.7349 9.59607 12.6102 9.1617C12.3788 8.36133 11.8056 7.9531 10.9668 7.99734C9.82022 8.05767 9.22481 8.62476 9.07998 9.78912C9.04579 10.0666 9.02768 10.3462 9.0297 10.6257C9.03171 12.3612 9.02769 14.0966 9.03372 15.8321C9.03372 16.005 8.99148 16.0553 8.81446 16.0553C7.8409 16.0473 6.86734 16.0473 5.89378 16.0553C5.73688 16.0573 5.69263 16.0151 5.69263 15.8562C5.69665 12.4215 5.69665 8.98473 5.69263 5.54999C5.69263 5.37906 5.74894 5.34085 5.90986 5.34085C6.83314 5.34688 7.75843 5.34889 8.68171 5.34085C8.85269 5.33884 8.89493 5.39515 8.89292 5.55602C8.88286 5.96626 8.88889 6.3765 8.88889 6.78674Z" fill="#ED5C18"/>
<path d="M3.59465 10.7143C3.59465 12.4136 3.59263 14.1128 3.59866 15.8121C3.59866 16.0011 3.5524 16.0574 3.35728 16.0554C2.39176 16.0454 1.42625 16.0474 0.458718 16.0534C0.303833 16.0554 0.257568 16.0152 0.257568 15.8563C0.261591 12.4156 0.261591 8.9748 0.257568 5.53202C0.257568 5.38924 0.29176 5.33896 0.442623 5.33896C1.42222 5.34499 2.40183 5.34701 3.38143 5.33695C3.57051 5.33494 3.59465 5.40733 3.59465 5.57022C3.59264 7.28759 3.59465 9.00094 3.59465 10.7143Z" fill="#ED5C18"/>
<path d="M3.86007 1.93219C3.86208 3.00002 2.99513 3.86876 1.92903 3.86876C0.87702 3.86876 0.00403685 3.00002 1.38489e-05 1.94829C-0.00400915 0.886492 0.868978 0.0117188 1.93306 0.0117188C2.9891 0.0137297 3.86007 0.880456 3.86007 1.93219Z" fill="#ED5C18"/>
</svg>
