<svg width="102" height="102" viewBox="0 0 102 102" fill="none" xmlns="http://www.w3.org/2000/svg">
<rect width="102" height="102" rx="16" fill="#FEF9F4"/>
<path fill-rule="evenodd" clip-rule="evenodd" d="M76.385 26.3724C76.7573 26.7447 77.1297 27.3032 77.1297 27.8618V74.7785C77.1297 75.8956 76.1988 76.6403 75.2679 76.6403H26.8618C25.7447 76.6403 25 75.7094 25 74.7785V47.4104C25 46.4795 25.5585 45.7348 26.4894 45.5486L49.2031 41.0804V34.9365C49.2031 34.1918 49.7616 33.4471 50.5063 33.0747L74.7094 26C75.2679 26 75.8264 26 76.385 26.3724ZM73.4061 72.9167H52.9266V42.5698V36.4259L73.4061 30.4683V72.9167ZM35.7983 55.9746C34.6812 55.9746 33.9365 56.9055 33.9365 57.8363V64.1664C33.9365 65.2834 34.8674 66.0282 35.7983 66.0282H42.1283C43.2454 66.0282 43.9901 65.0973 43.9901 64.1664V57.8363C43.9901 56.7193 43.0592 55.9746 42.1283 55.9746H35.7983Z" fill="#ED5C18"/>
</svg>
