<svg width="128" height="38" viewBox="0 0 128 38" fill="none" xmlns="http://www.w3.org/2000/svg">
<path d="M122.752 37.9563H5.05761C2.46838 37.9563 0.349854 35.8213 0.349854 33.2117V4.74455C0.349854 2.13504 2.46833 0 5.05761 0H122.752C125.341 0 127.459 2.13504 127.459 4.74455V33.2117C127.459 35.8213 125.341 37.9563 122.752 37.9563Z" fill="black"/>
<path d="M122.752 0H5.05761C2.46838 0 0.349854 2.13504 0.349854 4.74455V33.2117C0.349854 35.8213 2.46833 37.9563 5.05761 37.9563H122.752C125.341 37.9563 127.459 35.8213 127.459 33.2117V4.74455C127.459 2.13504 125.341 0 122.752 0ZM122.752 0.759101C124.932 0.759101 126.706 2.54725 126.706 4.74455V33.2117C126.706 35.4094 124.932 37.1976 122.752 37.1976H5.05761C2.87738 37.1976 1.1031 35.4094 1.1031 33.2117V4.74455C1.1031 2.54725 2.87733 0.759144 5.05761 0.759144H122.752" fill="#A6A6A6"/>
<path d="M45.0301 9.66739C45.0301 10.4581 44.7963 11.0878 44.3281 11.5575C43.7963 12.116 43.1032 12.3955 42.251 12.3955C41.435 12.3955 40.7412 12.1124 40.1707 11.5453C39.5992 10.9787 39.3139 10.276 39.3139 9.43771C39.3139 8.59896 39.5992 7.89673 40.1707 7.32963C40.7412 6.76303 41.435 6.47949 42.251 6.47949C42.6559 6.47949 43.0436 6.5588 43.4116 6.71697C43.7797 6.87553 44.0749 7.08599 44.2957 7.34956L43.7988 7.84761C43.4246 7.3997 42.9092 7.17591 42.251 7.17591C41.656 7.17591 41.1414 7.38537 40.7071 7.80452C40.2727 8.22409 40.0556 8.7682 40.0556 9.43771C40.0556 10.1072 40.2727 10.6513 40.7071 11.0709C41.1414 11.4901 41.6559 11.6995 42.251 11.6995C42.8824 11.6995 43.4087 11.4889 43.8301 11.0672C44.1036 10.7925 44.2618 10.4106 44.3042 9.92029H42.251V9.24008H44.9907C45.0171 9.38802 45.03 9.52987 45.03 9.66739" fill="white"/>
<path d="M45.0302 9.66755H44.9359C44.9351 10.4403 44.7098 11.0404 44.2615 11.491L44.2605 11.4917L44.2601 11.4925C43.7451 12.0317 43.0833 12.3001 42.2511 12.3013C41.4569 12.3001 40.7921 12.0288 40.237 11.4788C39.6831 10.9276 39.4093 10.2547 39.4082 9.43787C39.4093 8.62053 39.6831 7.94807 40.237 7.3973C40.7921 6.84687 41.4569 6.57515 42.2511 6.57401C42.6439 6.57401 43.0178 6.65078 43.3745 6.80374C43.7314 6.95787 44.0135 7.15985 44.2236 7.41062L44.2958 7.34971L44.2292 7.28299L43.7322 7.78137L43.7988 7.84775L43.8713 7.78736C43.4797 7.31726 42.9299 7.08029 42.2511 7.08168C41.6339 7.08092 41.091 7.30182 40.6419 7.73688C40.1884 8.17334 39.9606 8.74808 39.9614 9.43787C39.9606 10.1276 40.1884 10.7023 40.6419 11.1388C41.091 11.5739 41.6339 11.7948 42.2511 11.794C42.9033 11.7951 43.4591 11.5735 43.8968 11.1341C44.189 10.8406 44.3547 10.434 44.3981 9.92848L44.4069 9.826H42.3453V9.3346H44.9907V9.24024L44.8979 9.25683C44.9237 9.39992 44.9359 9.53594 44.9359 9.66755H45.1243C45.1243 9.52411 45.111 9.3767 45.0834 9.22338L45.0694 9.14588H42.1569V10.0148H44.3042V9.92045L44.2104 9.91233C44.1688 10.3872 44.0179 10.7448 43.7635 11.0007C43.3587 11.4047 42.8618 11.6041 42.2511 11.6053C41.6781 11.6045 41.1918 11.4068 40.7726 11.0032C40.3575 10.6009 40.1509 10.0875 40.1499 9.43787C40.1509 8.78824 40.3575 8.27472 40.7726 7.87249C41.1918 7.46881 41.678 7.2712 42.2511 7.27043C42.8883 7.27196 43.3694 7.48281 43.7268 7.90863L43.7931 7.98751L44.3624 7.41647L44.4235 7.35531L44.3679 7.28922C44.1364 7.0128 43.8279 6.79338 43.4488 6.63051C43.069 6.46712 42.6681 6.38526 42.2511 6.38526C41.4135 6.38454 40.6905 6.67945 40.1041 7.2631C39.5156 7.84559 39.219 8.57778 39.2199 9.43787C39.219 10.2975 39.5156 11.0301 40.1046 11.6129C40.6905 12.1962 41.4135 12.4908 42.2511 12.49C43.1234 12.4908 43.8472 12.2006 44.3963 11.6229L44.3281 11.5577L44.3948 11.6244C44.8828 11.1359 45.125 10.476 45.1243 9.66755H45.0301H45.0302ZM49.3732 7.30216H46.7987V9.09759H49.1204V9.77807H46.7987V11.5735H49.3732V12.2691H46.0728V6.6065H49.3732V7.30216Z" fill="white"/>
<path d="M49.3733 7.30224V7.20787H46.7045V9.19206H49.0263V9.68355L46.7045 9.68373V11.668H49.2791V12.1749H46.1672V6.70096H49.2791V7.30224H49.3733V7.20787V7.30224H49.4676V6.51221H45.9787V12.3636H49.4676V11.4792H46.8929V9.87254H49.2148V9.00334H46.8929V7.39662H49.4676V7.30224H49.3733ZM52.4368 12.2693H51.7098V7.3022H50.1308V6.60654H54.0158V7.3022H52.4368V12.2693" fill="white"/>
<path d="M52.4366 12.2693V12.1749H51.8038V7.20787H50.2248V6.701H53.9214V7.20787H52.3423V12.2693H52.4366V12.1749V12.2693H52.5307V7.39662H54.1098V6.51221H50.0363V7.39658H51.6154V12.3636H52.5307V12.2693H52.4366V12.2693ZM56.8265 12.2693V6.60654H57.5527V12.2693H56.8265" fill="white"/>
<path d="M56.827 12.2693H56.9212V6.70096H57.4589V12.1749H56.827V12.2693H56.9212H56.827V12.3636H57.6474V6.51221H56.7328V12.3636H56.827V12.2693V12.2693ZM60.7756 12.2693H60.0487V7.3022H58.4697V6.60654H62.3546V7.3022H60.7756V12.2693" fill="white"/>
<path d="M60.7752 12.2691V12.1746H60.1425V7.20764H58.5636V6.70077H62.26V7.20764H60.681V12.2691H60.7752V12.1746V12.2691H60.8695V7.39639H62.4484V6.51198H58.3751V7.39635H59.954V12.3633H60.8695V12.269H60.7752V12.2691ZM66.0997 11.0632C66.5182 11.4874 67.0302 11.6995 67.6357 11.6995C68.2412 11.6995 68.7535 11.4874 69.1713 11.0632C69.5901 10.6389 69.8 10.0965 69.8 9.43771C69.8 8.77898 69.5901 8.23657 69.1713 7.81223C68.7535 7.38791 68.2412 7.17591 67.6357 7.17591C67.0302 7.17591 66.5182 7.38791 66.0997 7.81223C65.682 8.23657 65.4722 8.77894 65.4722 9.43771C65.4722 10.0965 65.682 10.6389 66.0997 11.0632ZM69.7087 11.5372C69.1528 12.1097 68.4617 12.3955 67.6357 12.3955C66.809 12.3955 66.1181 12.1097 65.5635 11.5372C65.0073 10.9654 64.7305 10.2654 64.7305 9.43771C64.7305 8.60999 65.0073 7.90988 65.5635 7.33815C66.1181 6.76554 66.809 6.47949 67.6357 6.47949C68.4573 6.47949 69.1466 6.76707 69.7051 7.34184C70.2626 7.91658 70.5416 8.61517 70.5416 9.43771C70.5416 10.2654 70.2633 10.9654 69.7087 11.5372Z" fill="white"/>
<path d="M66.0998 11.0634L66.0328 11.1297C66.4667 11.571 67.0082 11.7951 67.6358 11.794C68.2629 11.7951 68.8051 11.571 69.2383 11.1297C69.6752 10.688 69.8949 10.1165 69.8942 9.43787C69.8949 8.75918 69.6752 8.18771 69.2383 7.746C68.8051 7.3047 68.2629 7.08057 67.6358 7.08167C67.0082 7.08057 66.4667 7.3047 66.0328 7.746C65.597 8.18771 65.3768 8.75918 65.378 9.43787C65.3768 10.1165 65.597 10.688 66.0328 11.1297L66.0998 11.0634L66.1668 10.997C65.7671 10.5895 65.5672 10.0771 65.5665 9.43787C65.5672 8.79863 65.7671 8.28616 66.1668 7.87871C66.5702 7.4714 67.052 7.27157 67.6358 7.27047C68.2191 7.27157 68.702 7.4714 69.1043 7.87871C69.5048 8.28616 69.7047 8.79863 69.7054 9.43787C69.7047 10.077 69.5048 10.5895 69.1043 10.997C68.702 11.4044 68.2192 11.6041 67.6358 11.6052C67.052 11.6041 66.5702 11.4044 66.1668 10.997L66.0998 11.0634ZM69.7087 11.5374L69.6414 11.4718C69.1011 12.0262 68.4404 12.3002 67.6358 12.3013C66.8308 12.3001 66.1701 12.0262 65.6308 11.4718L65.6282 11.4688L65.6308 11.4718C65.0917 10.9154 64.8256 10.2445 64.8248 9.43787C64.8256 8.63117 65.0917 7.96024 65.6308 7.40391C66.1701 6.84941 66.8308 6.57515 67.6358 6.57405C68.4352 6.57515 69.0944 6.85056 69.6377 7.40794C70.1787 7.96685 70.4463 8.63672 70.4475 9.43787C70.4463 10.2445 70.1795 10.9154 69.6414 11.4718L69.7087 11.5374L69.7765 11.603C70.3476 11.0153 70.6365 10.2865 70.6359 9.43787C70.6366 8.59401 70.3466 7.86663 69.7727 7.27641C69.1985 6.68386 68.4794 6.38423 67.6358 6.38526C66.7878 6.38423 66.0663 6.68246 65.4957 7.27272V7.27229C64.9235 7.86031 64.6356 8.58918 64.6364 9.43787C64.6356 10.2865 64.9235 11.0153 65.4957 11.6033L65.4983 11.606L65.4957 11.603C66.0663 12.1932 66.7878 12.4908 67.6358 12.49C68.4833 12.4908 69.2048 12.1932 69.7765 11.603L69.7087 11.5374ZM71.5612 12.2692V6.60645H72.4453L75.193 11.0116H75.2242L75.193 9.92035V6.60645H75.9199V12.2691H75.1616L72.287 7.65047H72.2558L72.287 8.74213V12.2691H71.5612" fill="white"/>
<path d="M71.5615 12.2693H71.6557V6.70096H72.3933L75.1409 11.1061H75.3213L75.2874 9.91906V6.701H75.826V12.1749H75.2143L72.3396 7.55623H72.1593L72.1931 8.74379V12.1749H71.5615V12.2693H71.6557H71.5615V12.3636H72.3816V8.74078L72.3502 7.64806L72.2561 7.6506V7.74498H72.2873V7.6506L72.2074 7.70079L75.1097 12.3636H76.0144V6.51221H75.0991V9.92161L75.1303 11.0143L75.2245 11.0118V10.9174H75.1933V11.0118L75.2731 10.9617L72.4978 6.51221H71.4673V12.3636H71.5615V12.2693L71.5615 12.2693ZM101.111 28.3135H102.87V16.5151H101.111V28.3135ZM116.948 20.7653L114.933 25.8805H114.872L112.78 20.7652H110.886L114.023 27.9146L112.234 31.8915H114.069L118.903 20.7652L116.948 20.7653ZM106.977 26.9735C106.401 26.9735 105.597 26.6851 105.597 25.9715C105.597 25.0608 106.598 24.7118 107.462 24.7118C108.235 24.7118 108.598 24.8787 109.068 25.1066C108.931 26.1993 107.992 26.9735 106.977 26.9735ZM107.189 20.5071C105.916 20.5071 104.598 21.0689 104.052 22.3136L105.612 22.9661C105.946 22.3136 106.567 22.1008 107.219 22.1008C108.128 22.1008 109.053 22.6476 109.068 23.6191V23.7403C108.749 23.5581 108.068 23.285 107.234 23.285C105.552 23.285 103.839 24.2106 103.839 25.9412C103.839 27.5199 105.219 28.537 106.764 28.537C107.946 28.537 108.598 28.0057 109.007 27.3834H109.068V28.294H110.765V23.7704C110.765 21.6761 109.204 20.5071 107.189 20.5071ZM96.3227 22.2014H93.822V18.1572H96.3227C97.6371 18.1572 98.3838 19.2474 98.3838 20.1793C98.3838 21.0936 97.6371 22.2014 96.3227 22.2014ZM96.2777 16.5151H92.0645V28.3135H93.822V23.8435H96.2777C98.2258 23.8435 100.141 22.4304 100.141 20.1793C100.141 17.9283 98.2258 16.5151 96.2777 16.5151ZM73.3043 26.9757C72.0897 26.9757 71.0727 25.9571 71.0727 24.558C71.0727 23.1443 72.0897 22.1101 73.3043 22.1101C74.5035 22.1101 75.4446 23.1442 75.4446 24.558C75.4446 25.9571 74.5035 26.9757 73.3044 26.9757H73.3043ZM75.3232 21.4259H75.2625C74.8679 20.9546 74.1085 20.5289 73.1524 20.5289C71.1485 20.5289 69.3119 22.2925 69.3119 24.558C69.3119 26.8084 71.1484 28.5569 73.1524 28.5569C74.1085 28.5569 74.8679 28.1311 75.2625 27.6448H75.3232V28.2225C75.3232 29.7584 74.5035 30.5794 73.1829 30.5794C72.1051 30.5794 71.4371 29.8037 71.1635 29.1501L69.6306 29.7886C70.0708 30.8529 71.2398 32.1606 73.1829 32.1606C75.2474 32.1606 76.9931 30.944 76.9931 27.9792V20.7722H75.3232V21.4259ZM78.2073 28.3135H79.9682V16.5148H78.2073V28.3135ZM82.5641 24.4213C82.5185 22.8702 83.7633 22.0798 84.6589 22.0798C85.3577 22.0798 85.9494 22.4293 86.1463 22.9315L82.5641 24.4213ZM88.029 23.0833C87.6954 22.186 86.6778 20.5289 84.5981 20.5289C82.5336 20.5289 80.8185 22.1557 80.8185 24.5429C80.8185 26.7933 82.5185 28.5569 84.7954 28.5569C86.6326 28.5569 87.6954 27.4317 88.1355 26.778L86.7691 25.8655C86.314 26.5347 85.6912 26.9757 84.7954 26.9757C83.8999 26.9757 83.2625 26.565 82.8524 25.7594L88.2108 23.5393L88.029 23.0833ZM45.3369 21.7605V23.4633H49.4052C49.2837 24.4213 48.9649 25.1205 48.4791 25.6072C47.8873 26.2003 46.9612 26.854 45.3369 26.854C42.8321 26.854 40.8741 24.8319 40.8741 22.3231C40.8741 19.8143 42.8321 17.7919 45.3369 17.7919C46.6881 17.7919 47.6745 18.3242 48.4033 19.0084L49.6024 17.8073C48.5855 16.8341 47.2343 16.0891 45.3369 16.0891C41.9061 16.0891 39.0219 18.8868 39.0219 22.3231C39.0219 25.7594 41.9061 28.5569 45.3369 28.5569C47.189 28.5569 48.5855 27.949 49.6783 26.8084C50.8017 25.6832 51.151 24.102 51.151 22.8249C51.151 22.4293 51.1208 22.0647 51.0597 21.7605H45.3369ZM55.7762 26.9757C54.5615 26.9757 53.514 25.9721 53.514 24.5429C53.514 23.0984 54.5615 22.1101 55.7762 22.1101C56.9903 22.1101 58.0378 23.0984 58.0378 24.5429C58.0378 25.9722 56.9903 26.9757 55.7762 26.9757ZM55.7762 20.5289C53.5596 20.5289 51.7531 22.2165 51.7531 24.5429C51.7531 26.854 53.5596 28.5569 55.7762 28.5569C57.9923 28.5569 59.7987 26.854 59.7987 24.5429C59.7987 22.2165 57.9923 20.5289 55.7762 20.5289ZM64.5516 26.9757C63.3374 26.9757 62.2897 25.9721 62.2897 24.5429C62.2897 23.0984 63.3374 22.1101 64.5516 22.1101C65.7659 22.1101 66.8134 23.0984 66.8134 24.5429C66.8134 25.9722 65.7659 26.9757 64.5516 26.9757ZM64.5516 20.5289C62.3351 20.5289 60.529 22.2165 60.529 24.5429C60.529 26.854 62.3351 28.5569 64.5516 28.5569C66.7678 28.5569 68.5743 26.854 68.5743 24.5429C68.5743 22.2165 66.7678 20.5289 64.5516 20.5289Z" fill="white"/>
<path d="M10.2515 7.18332C9.93527 7.46908 9.74646 7.9457 9.74646 8.57838V8.43536V29.3128V29.1753C9.74646 29.7596 9.90835 30.2108 10.1825 30.5014L10.2525 30.5685V30.5688C10.4744 30.7694 10.759 30.8759 11.0852 30.8756C11.4038 30.8756 11.7624 30.7738 12.1408 30.559L25.8178 22.7753L30.5158 20.1014C31.1125 19.7619 31.4475 19.3239 31.5034 18.8778V18.8759C31.4475 18.4287 31.1125 17.9911 30.5159 17.6516L25.8175 14.978L12.1408 7.19436C11.7616 6.97909 11.4029 6.87695 11.0833 6.87695C10.7575 6.87695 10.4734 6.98312 10.2515 7.18332H10.2515Z" fill="#00C1FF"/>
<path d="M10.2526 30.5685L10.1825 30.5014C9.90835 30.2109 9.74646 29.7596 9.74646 29.1754V29.3129V8.44056V8.57841C9.74646 7.94573 9.93527 7.46911 10.2515 7.18335L21.9258 18.8763L10.2526 30.5685Z" fill="url(#paint0_linear_225_75)"/>
<path d="M25.8181 22.7755L21.9261 18.8766L25.8178 14.9783L30.5161 17.6518C31.1127 17.9914 31.4476 18.429 31.5037 18.8762V18.878C31.4476 19.3241 31.1127 19.7621 30.5161 20.1016L25.8181 22.7755" fill="url(#paint1_linear_225_75)"/>
<path d="M11.0854 30.8758C10.7593 30.8761 10.4747 30.7695 10.2528 30.569V30.5687L21.9261 18.8765L25.8181 22.7755L12.141 30.5591C11.7626 30.774 11.404 30.8758 11.0854 30.8758Z" fill="url(#paint2_linear_225_75)"/>
<path d="M21.9261 18.8766L10.2517 7.18357C10.4736 6.98337 10.7578 6.8772 11.0835 6.8772C11.403 6.8772 11.7618 6.9793 12.141 7.1946L25.8177 14.9782L21.9261 18.8766Z" fill="url(#paint3_linear_225_75)"/>
<path d="M11.0855 31.0139C10.7595 31.0139 10.4745 30.9074 10.2525 30.7068L10.2522 30.7072C10.2513 30.7063 10.2503 30.7054 10.2493 30.7046L10.1885 30.6452C10.1867 30.6434 10.1849 30.6413 10.1826 30.639L10.2526 30.569C10.4745 30.7695 10.759 30.8761 11.0853 30.8757C11.4038 30.8757 11.7624 30.7739 12.1408 30.5591L25.8179 22.7754L25.9055 22.8632L25.8167 22.9136L12.1407 30.6969C11.7959 30.8926 11.4679 30.9948 11.1716 31.0118C11.1429 31.0131 11.1142 31.0138 11.0855 31.0139Z" fill="url(#paint4_linear_225_75)"/>
<path d="M10.1825 30.6391C9.90835 30.3486 9.74646 29.8977 9.74646 29.313V29.1755C9.74646 29.7598 9.90835 30.211 10.1825 30.5016L10.2525 30.5687L10.1825 30.6391Z" fill="url(#paint5_linear_225_75)"/>
<path d="M25.906 22.8632L25.8183 22.7755L30.5162 20.1015C31.1129 19.7621 31.4479 19.324 31.5039 18.8779C31.5039 19.0417 31.4674 19.2053 31.395 19.3647C31.2488 19.6858 30.9559 19.9892 30.5163 20.2395L25.906 22.8633" fill="url(#paint6_linear_225_75)"/>
<path d="M31.5036 18.8759C31.4477 18.4287 31.1128 17.9911 30.5161 17.6515L25.8177 14.978L25.9053 14.8901H25.9057L30.5161 17.514C31.1738 17.8886 31.5033 18.3822 31.5036 18.8759Z" fill="url(#paint7_linear_225_75)"/>
<path d="M9.74646 8.57863V8.43441C9.74646 8.38241 9.74787 8.33155 9.75052 8.28218V8.27993C9.75052 8.27925 9.75052 8.27854 9.75079 8.27777V8.27221C9.77921 7.76895 9.93527 7.37639 10.1825 7.11426L10.2515 7.18352C9.93527 7.46932 9.74646 7.94595 9.74646 8.57863Z" fill="url(#paint8_linear_225_75)"/>
<path d="M25.8175 14.9782L12.1408 7.19451C11.7616 6.97925 11.4029 6.87715 11.0833 6.87715C10.7576 6.87715 10.4734 6.98332 10.2515 7.18352L10.1826 7.11421C10.2042 7.0914 10.2265 7.06941 10.2496 7.04826C10.2503 7.0475 10.2515 7.04673 10.2523 7.04601C10.4723 6.84734 10.7536 6.74116 11.0764 6.73926H11.0833C11.4029 6.73926 11.7616 6.8414 12.1408 7.05674L25.9055 14.8901L25.9051 14.8904L25.8175 14.9782Z" fill="url(#paint9_linear_225_75)"/>
<defs>
<linearGradient id="paint0_linear_225_75" x1="17.2072" y1="8.21995" x2="7.14641" y2="18.2968" gradientUnits="userSpaceOnUse">
<stop stop-color="#00A0FF"/>
<stop offset="0.00657" stop-color="#00A1FF"/>
<stop offset="0.2601" stop-color="#00BEFF"/>
<stop offset="0.5122" stop-color="#00D2FF"/>
<stop offset="0.7604" stop-color="#00DFFF"/>
<stop offset="1" stop-color="#00E3FF"/>
</linearGradient>
<linearGradient id="paint1_linear_225_75" x1="32.2306" y1="18.8092" x2="9.4308" y2="18.8092" gradientUnits="userSpaceOnUse">
<stop stop-color="#FFE000"/>
<stop offset="0.4087" stop-color="#FFBD00"/>
<stop offset="0.7754" stop-color="#FFA500"/>
<stop offset="1" stop-color="#FF9C00"/>
</linearGradient>
<linearGradient id="paint2_linear_225_75" x1="23.7518" y1="22.5835" x2="6.70314" y2="39.5348" gradientUnits="userSpaceOnUse">
<stop stop-color="#FF3A44"/>
<stop offset="1" stop-color="#C31162"/>
</linearGradient>
<linearGradient id="paint3_linear_225_75" x1="7.24284" y1="5.45003" x2="14.8411" y2="13.0165" gradientUnits="userSpaceOnUse">
<stop stop-color="#32A071"/>
<stop offset="0.0685" stop-color="#2DA771"/>
<stop offset="0.4762" stop-color="#15CF74"/>
<stop offset="0.8009" stop-color="#06E775"/>
<stop offset="1" stop-color="#00F076"/>
</linearGradient>
<linearGradient id="paint4_linear_225_75" x1="23.7431" y1="25.2879" x2="10.0897" y2="38.9634" gradientUnits="userSpaceOnUse">
<stop stop-color="#CC2E36"/>
<stop offset="1" stop-color="#9C0E4E"/>
</linearGradient>
<linearGradient id="paint5_linear_225_75" x1="11.3017" y1="8.22005" x2="2.43833" y2="17.0978" gradientUnits="userSpaceOnUse">
<stop stop-color="#008DE0"/>
<stop offset="0.00657" stop-color="#008DE0"/>
<stop offset="0.2601" stop-color="#00A7E0"/>
<stop offset="0.5122" stop-color="#00B8E0"/>
<stop offset="0.7604" stop-color="#00C4E0"/>
<stop offset="1" stop-color="#00C7E0"/>
</linearGradient>
<linearGradient id="paint6_linear_225_75" x1="32.2309" y1="18.8771" x2="9.431" y2="18.8771" gradientUnits="userSpaceOnUse">
<stop stop-color="#E0C500"/>
<stop offset="0.4087" stop-color="#E0A600"/>
<stop offset="0.7754" stop-color="#E09100"/>
<stop offset="1" stop-color="#E08900"/>
</linearGradient>
<linearGradient id="paint7_linear_225_75" x1="32.2306" y1="18.8768" x2="9.43083" y2="18.8768" gradientUnits="userSpaceOnUse">
<stop stop-color="#FFE840"/>
<stop offset="0.4087" stop-color="#FFCE40"/>
<stop offset="0.7754" stop-color="#FFBC40"/>
<stop offset="1" stop-color="#FFB540"/>
</linearGradient>
<linearGradient id="paint8_linear_225_75" x1="11.2921" y1="8.2362" x2="2.7551" y2="16.4165" gradientUnits="userSpaceOnUse">
<stop stop-color="#40B8FF"/>
<stop offset="0.00657" stop-color="#40B9FF"/>
<stop offset="0.2601" stop-color="#40CEFF"/>
<stop offset="0.5122" stop-color="#40DDFF"/>
<stop offset="0.7604" stop-color="#40E7FF"/>
<stop offset="1" stop-color="#40EAFF"/>
</linearGradient>
<linearGradient id="paint9_linear_225_75" x1="7.22562" y1="7.92282" x2="13.3225" y2="14.0296" gradientUnits="userSpaceOnUse">
<stop stop-color="#65B895"/>
<stop offset="0.0685" stop-color="#62BD95"/>
<stop offset="0.4762" stop-color="#50DB97"/>
<stop offset="0.8009" stop-color="#44ED98"/>
<stop offset="1" stop-color="#40F498"/>
</linearGradient>
</defs>
</svg>
