<svg width="136" height="46" viewBox="0 0 136 46" fill="none" xmlns="http://www.w3.org/2000/svg">
<g filter="url(#filter0_d_413_67)">
<path d="M126.752 37.9563H9.05761C6.46838 37.9563 4.34985 35.8213 4.34985 33.2117V4.74455C4.34985 2.13504 6.46833 0 9.05761 0H126.752C129.341 0 131.459 2.13504 131.459 4.74455V33.2117C131.459 35.8213 129.341 37.9563 126.752 37.9563Z" fill="#33475B"/>
</g>
<path d="M126.752 0H9.05761C6.46838 0 4.34985 2.13504 4.34985 4.74455V33.2117C4.34985 35.8213 6.46833 37.9563 9.05761 37.9563H126.752C129.341 37.9563 131.459 35.8213 131.459 33.2117V4.74455C131.459 2.13504 129.341 0 126.752 0ZM126.752 0.759101C128.932 0.759101 130.706 2.54725 130.706 4.74455V33.2117C130.706 35.4094 128.932 37.1976 126.752 37.1976H9.05761C6.87738 37.1976 5.1031 35.4094 5.1031 33.2117V4.74455C5.1031 2.54725 6.87733 0.759144 9.05761 0.759144H126.752" fill="#A6A6A6"/>
<path d="M49.0301 9.66739C49.0301 10.4581 48.7963 11.0878 48.3281 11.5575C47.7963 12.116 47.1032 12.3955 46.251 12.3955C45.435 12.3955 44.7412 12.1124 44.1707 11.5453C43.5992 10.9787 43.3139 10.276 43.3139 9.43771C43.3139 8.59896 43.5992 7.89673 44.1707 7.32963C44.7412 6.76303 45.435 6.47949 46.251 6.47949C46.6559 6.47949 47.0436 6.5588 47.4116 6.71697C47.7797 6.87553 48.0749 7.08599 48.2957 7.34956L47.7988 7.84761C47.4246 7.3997 46.9092 7.17591 46.251 7.17591C45.656 7.17591 45.1414 7.38537 44.7071 7.80452C44.2727 8.22409 44.0556 8.7682 44.0556 9.43771C44.0556 10.1072 44.2727 10.6513 44.7071 11.0709C45.1414 11.4901 45.6559 11.6995 46.251 11.6995C46.8824 11.6995 47.4087 11.4889 47.8301 11.0672C48.1036 10.7925 48.2618 10.4106 48.3042 9.92029H46.251V9.24008H48.9907C49.0171 9.38802 49.03 9.52987 49.03 9.66739" fill="white"/>
<path d="M49.0302 9.66755H48.9359C48.9351 10.4403 48.7098 11.0404 48.2615 11.491L48.2605 11.4917L48.2601 11.4925C47.7451 12.0317 47.0833 12.3001 46.2511 12.3013C45.4569 12.3001 44.7921 12.0288 44.237 11.4788C43.6831 10.9276 43.4093 10.2547 43.4082 9.43787C43.4093 8.62053 43.6831 7.94807 44.237 7.3973C44.7921 6.84687 45.4569 6.57515 46.2511 6.57401C46.6439 6.57401 47.0178 6.65078 47.3745 6.80374C47.7314 6.95787 48.0135 7.15985 48.2236 7.41062L48.2958 7.34971L48.2292 7.28299L47.7322 7.78137L47.7988 7.84775L47.8713 7.78736C47.4797 7.31726 46.9299 7.08029 46.2511 7.08168C45.6339 7.08092 45.091 7.30182 44.6419 7.73688C44.1884 8.17334 43.9606 8.74808 43.9614 9.43787C43.9606 10.1276 44.1884 10.7023 44.6419 11.1388C45.091 11.5739 45.6339 11.7948 46.2511 11.794C46.9033 11.7951 47.4591 11.5735 47.8968 11.1341C48.189 10.8406 48.3547 10.434 48.3981 9.92848L48.4069 9.826H46.3453V9.3346H48.9907V9.24024L48.8979 9.25683C48.9237 9.39992 48.9359 9.53594 48.9359 9.66755H49.1243C49.1243 9.52411 49.111 9.3767 49.0834 9.22338L49.0694 9.14588H46.1569V10.0148H48.3042V9.92045L48.2104 9.91233C48.1688 10.3872 48.0179 10.7448 47.7635 11.0007C47.3587 11.4047 46.8618 11.6041 46.2511 11.6053C45.6781 11.6045 45.1918 11.4068 44.7726 11.0032C44.3575 10.6009 44.1509 10.0875 44.1499 9.43787C44.1509 8.78824 44.3575 8.27472 44.7726 7.87249C45.1918 7.46881 45.678 7.2712 46.2511 7.27043C46.8883 7.27196 47.3694 7.48281 47.7268 7.90863L47.7931 7.98751L48.3624 7.41647L48.4235 7.35531L48.3679 7.28922C48.1364 7.0128 47.8279 6.79338 47.4488 6.63051C47.069 6.46712 46.6681 6.38526 46.2511 6.38526C45.4135 6.38454 44.6905 6.67945 44.1041 7.2631C43.5156 7.84559 43.219 8.57778 43.2199 9.43787C43.219 10.2975 43.5156 11.0301 44.1046 11.6129C44.6905 12.1962 45.4135 12.4908 46.2511 12.49C47.1234 12.4908 47.8472 12.2006 48.3963 11.6229L48.3281 11.5577L48.3948 11.6244C48.8828 11.1359 49.125 10.476 49.1243 9.66755H49.0301H49.0302ZM53.3732 7.30216H50.7987V9.09759H53.1204V9.77807H50.7987V11.5735H53.3732V12.2691H50.0728V6.6065H53.3732V7.30216Z" fill="white"/>
<path d="M53.3733 7.30224V7.20787H50.7045V9.19206H53.0263V9.68355L50.7045 9.68373V11.668H53.2791V12.1749H50.1672V6.70096H53.2791V7.30224H53.3733V7.20787V7.30224H53.4676V6.51221H49.9787V12.3636H53.4676V11.4792H50.8929V9.87254H53.2148V9.00334H50.8929V7.39662H53.4676V7.30224H53.3733ZM56.4368 12.2693H55.7098V7.3022H54.1308V6.60654H58.0158V7.3022H56.4368V12.2693" fill="white"/>
<path d="M56.4366 12.2693V12.1749H55.8038V7.20787H54.2248V6.701H57.9214V7.20787H56.3423V12.2693H56.4366V12.1749V12.2693H56.5307V7.39662H58.1098V6.51221H54.0363V7.39658H55.6154V12.3636H56.5307V12.2693H56.4366V12.2693ZM60.8265 12.2693V6.60654H61.5527V12.2693H60.8265" fill="white"/>
<path d="M60.8269 12.2693H60.9212V6.70096H61.4589V12.1749H60.8269V12.2693H60.9212H60.8269V12.3636H61.6473V6.51221H60.7328V12.3636H60.8269V12.2693V12.2693ZM64.7755 12.2693H64.0486V7.3022H62.4697V6.60654H66.3546V7.3022H64.7755V12.2693" fill="white"/>
<path d="M64.7752 12.2691V12.1746H64.1425V7.20764H62.5636V6.70077H66.26V7.20764H64.681V12.2691H64.7752V12.1746V12.2691H64.8695V7.39639H66.4484V6.51198H62.3751V7.39635H63.954V12.3633H64.8695V12.269H64.7752V12.2691ZM70.0997 11.0632C70.5182 11.4874 71.0302 11.6995 71.6357 11.6995C72.2412 11.6995 72.7535 11.4874 73.1713 11.0632C73.5901 10.6389 73.8 10.0965 73.8 9.43771C73.8 8.77898 73.5901 8.23657 73.1713 7.81223C72.7535 7.38791 72.2412 7.17591 71.6357 7.17591C71.0302 7.17591 70.5182 7.38791 70.0997 7.81223C69.682 8.23657 69.4722 8.77894 69.4722 9.43771C69.4722 10.0965 69.682 10.6389 70.0997 11.0632ZM73.7087 11.5372C73.1528 12.1097 72.4617 12.3955 71.6357 12.3955C70.809 12.3955 70.1181 12.1097 69.5635 11.5372C69.0073 10.9654 68.7305 10.2654 68.7305 9.43771C68.7305 8.60999 69.0073 7.90988 69.5635 7.33815C70.1181 6.76554 70.809 6.47949 71.6357 6.47949C72.4573 6.47949 73.1466 6.76707 73.7051 7.34184C74.2626 7.91658 74.5416 8.61517 74.5416 9.43771C74.5416 10.2654 74.2633 10.9654 73.7087 11.5372Z" fill="white"/>
<path d="M70.0998 11.0634L70.0328 11.1297C70.4668 11.571 71.0082 11.7951 71.6358 11.794C72.263 11.7951 72.8051 11.571 73.2384 11.1297C73.6752 10.688 73.8949 10.1165 73.8942 9.43787C73.8949 8.75918 73.6752 8.18771 73.2384 7.746C72.8051 7.3047 72.263 7.08057 71.6358 7.08167C71.0082 7.08057 70.4668 7.3047 70.0328 7.746C69.597 8.18771 69.3769 8.75918 69.378 9.43787C69.3769 10.1165 69.597 10.688 70.0328 11.1297L70.0998 11.0634L70.1668 10.997C69.7671 10.5895 69.5673 10.0771 69.5665 9.43787C69.5673 8.79863 69.7671 8.28616 70.1668 7.87871C70.5702 7.4714 71.052 7.27157 71.6358 7.27047C72.2191 7.27157 72.702 7.4714 73.1044 7.87871C73.5048 8.28616 73.7047 8.79863 73.7054 9.43787C73.7047 10.077 73.5048 10.5895 73.1044 10.997C72.702 11.4044 72.2192 11.6041 71.6358 11.6052C71.052 11.6041 70.5702 11.4044 70.1668 10.997L70.0998 11.0634ZM73.7088 11.5374L73.6414 11.4718C73.1011 12.0262 72.4404 12.3002 71.6358 12.3013C70.8308 12.3001 70.1701 12.0262 69.6308 11.4718L69.6283 11.4688L69.6308 11.4718C69.0917 10.9154 68.8256 10.2445 68.8248 9.43787C68.8256 8.63117 69.0917 7.96024 69.6308 7.40391C70.1701 6.84941 70.8308 6.57515 71.6358 6.57405C72.4352 6.57515 73.0944 6.85056 73.6377 7.40794C74.1787 7.96685 74.4463 8.63672 74.4475 9.43787C74.4463 10.2445 74.1795 10.9154 73.6414 11.4718L73.7088 11.5374L73.7765 11.603C74.3477 11.0153 74.6366 10.2865 74.6359 9.43787C74.6367 8.59401 74.3466 7.86663 73.7728 7.27641C73.1986 6.68386 72.4794 6.38423 71.6358 6.38526C70.7878 6.38423 70.0664 6.68246 69.4958 7.27272V7.27229C68.9235 7.86031 68.6356 8.58918 68.6364 9.43787C68.6356 10.2865 68.9235 11.0153 69.4958 11.6033L69.4983 11.606L69.4958 11.603C70.0664 12.1932 70.7878 12.4908 71.6358 12.49C72.4834 12.4908 73.2048 12.1932 73.7765 11.603L73.7088 11.5374ZM75.5612 12.2692V6.60645H76.4453L79.193 11.0116H79.2242L79.193 9.92035V6.60645H79.9199V12.2691H79.1617L76.287 7.65047H76.2558L76.287 8.74213V12.2691H75.5612" fill="white"/>
<path d="M75.5615 12.2693H75.6557V6.70096H76.3933L79.1409 11.1061H79.3213L79.2874 9.91906V6.701H79.826V12.1749H79.2143L76.3396 7.55623H76.1593L76.1931 8.74379V12.1749H75.5615V12.2693H75.6557H75.5615V12.3636H76.3816V8.74078L76.3502 7.64806L76.2561 7.6506V7.74498H76.2873V7.6506L76.2074 7.70079L79.1097 12.3636H80.0144V6.51221H79.0991V9.92161L79.1303 11.0143L79.2245 11.0118V10.9174H79.1933V11.0118L79.2731 10.9617L76.4978 6.51221H75.4673V12.3636H75.5615V12.2693L75.5615 12.2693ZM105.111 28.3135H106.87V16.5151H105.111V28.3135ZM120.948 20.7653L118.933 25.8805H118.872L116.78 20.7652H114.886L118.023 27.9146L116.234 31.8915H118.069L122.903 20.7652L120.948 20.7653ZM110.977 26.9735C110.401 26.9735 109.597 26.6851 109.597 25.9715C109.597 25.0608 110.598 24.7118 111.462 24.7118C112.235 24.7118 112.598 24.8787 113.068 25.1066C112.931 26.1993 111.992 26.9735 110.977 26.9735ZM111.189 20.5071C109.916 20.5071 108.598 21.0689 108.052 22.3136L109.612 22.9661C109.946 22.3136 110.567 22.1008 111.219 22.1008C112.128 22.1008 113.053 22.6476 113.068 23.6191V23.7403C112.749 23.5581 112.068 23.285 111.234 23.285C109.552 23.285 107.839 24.2106 107.839 25.9412C107.839 27.5199 109.219 28.537 110.764 28.537C111.946 28.537 112.598 28.0057 113.007 27.3834H113.068V28.294H114.765V23.7704C114.765 21.6761 113.204 20.5071 111.189 20.5071ZM100.323 22.2014H97.822V18.1572H100.323C101.637 18.1572 102.384 19.2474 102.384 20.1793C102.384 21.0936 101.637 22.2014 100.323 22.2014ZM100.278 16.5151H96.0645V28.3135H97.822V23.8435H100.278C102.226 23.8435 104.141 22.4304 104.141 20.1793C104.141 17.9283 102.226 16.5151 100.278 16.5151ZM77.3043 26.9757C76.0897 26.9757 75.0727 25.9571 75.0727 24.558C75.0727 23.1443 76.0897 22.1101 77.3043 22.1101C78.5035 22.1101 79.4446 23.1442 79.4446 24.558C79.4446 25.9571 78.5035 26.9757 77.3044 26.9757H77.3043ZM79.3232 21.4259H79.2625C78.8679 20.9546 78.1085 20.5289 77.1524 20.5289C75.1485 20.5289 73.3119 22.2925 73.3119 24.558C73.3119 26.8084 75.1484 28.5569 77.1524 28.5569C78.1085 28.5569 78.8679 28.1311 79.2625 27.6448H79.3232V28.2225C79.3232 29.7584 78.5035 30.5794 77.1829 30.5794C76.1051 30.5794 75.4371 29.8037 75.1635 29.1501L73.6306 29.7886C74.0708 30.8529 75.2398 32.1606 77.1829 32.1606C79.2474 32.1606 80.9931 30.944 80.9931 27.9792V20.7722H79.3232V21.4259ZM82.2073 28.3135H83.9682V16.5148H82.2073V28.3135ZM86.5641 24.4213C86.5185 22.8702 87.7633 22.0798 88.6589 22.0798C89.3577 22.0798 89.9494 22.4293 90.1463 22.9315L86.5641 24.4213ZM92.029 23.0833C91.6954 22.186 90.6778 20.5289 88.5981 20.5289C86.5336 20.5289 84.8185 22.1557 84.8185 24.5429C84.8185 26.7933 86.5185 28.5569 88.7954 28.5569C90.6326 28.5569 91.6954 27.4317 92.1355 26.778L90.7691 25.8655C90.314 26.5347 89.6912 26.9757 88.7954 26.9757C87.8999 26.9757 87.2625 26.565 86.8524 25.7594L92.2108 23.5393L92.029 23.0833ZM49.3369 21.7605V23.4633H53.4052C53.2837 24.4213 52.9649 25.1205 52.4791 25.6072C51.8873 26.2003 50.9612 26.854 49.3369 26.854C46.8321 26.854 44.8741 24.8319 44.8741 22.3231C44.8741 19.8143 46.8321 17.7919 49.3369 17.7919C50.6881 17.7919 51.6745 18.3242 52.4033 19.0084L53.6024 17.8073C52.5855 16.8341 51.2343 16.0891 49.3369 16.0891C45.9061 16.0891 43.0219 18.8868 43.0219 22.3231C43.0219 25.7594 45.9061 28.5569 49.3369 28.5569C51.189 28.5569 52.5855 27.949 53.6783 26.8084C54.8017 25.6832 55.151 24.102 55.151 22.8249C55.151 22.4293 55.1208 22.0647 55.0597 21.7605H49.3369ZM59.7762 26.9757C58.5615 26.9757 57.514 25.9721 57.514 24.5429C57.514 23.0984 58.5615 22.1101 59.7762 22.1101C60.9903 22.1101 62.0378 23.0984 62.0378 24.5429C62.0378 25.9722 60.9903 26.9757 59.7762 26.9757ZM59.7762 20.5289C57.5596 20.5289 55.7531 22.2165 55.7531 24.5429C55.7531 26.854 57.5596 28.5569 59.7762 28.5569C61.9923 28.5569 63.7987 26.854 63.7987 24.5429C63.7987 22.2165 61.9923 20.5289 59.7762 20.5289ZM68.5516 26.9757C67.3374 26.9757 66.2897 25.9721 66.2897 24.5429C66.2897 23.0984 67.3374 22.1101 68.5516 22.1101C69.7659 22.1101 70.8134 23.0984 70.8134 24.5429C70.8134 25.9722 69.7659 26.9757 68.5516 26.9757ZM68.5516 20.5289C66.3351 20.5289 64.529 22.2165 64.529 24.5429C64.529 26.854 66.3351 28.5569 68.5516 28.5569C70.7678 28.5569 72.5743 26.854 72.5743 24.5429C72.5743 22.2165 70.7678 20.5289 68.5516 20.5289Z" fill="white"/>
<path d="M14.2515 7.18332C13.9353 7.46908 13.7465 7.9457 13.7465 8.57838V8.43536V29.3128V29.1753C13.7465 29.7596 13.9083 30.2108 14.1825 30.5014L14.2525 30.5685V30.5688C14.4744 30.7694 14.759 30.8759 15.0852 30.8756C15.4038 30.8756 15.7624 30.7738 16.1408 30.559L29.8178 22.7753L34.5158 20.1014C35.1125 19.7619 35.4475 19.3239 35.5034 18.8778V18.8759C35.4475 18.4287 35.1125 17.9911 34.5159 17.6516L29.8175 14.978L16.1408 7.19436C15.7616 6.97909 15.4029 6.87695 15.0833 6.87695C14.7575 6.87695 14.4734 6.98312 14.2515 7.18332H14.2515Z" fill="#00C1FF"/>
<path d="M14.2526 30.5688L14.1825 30.5017C13.9083 30.2111 13.7465 29.7599 13.7465 29.1756V29.3131V8.4408V8.57865C13.7465 7.94598 13.9353 7.46935 14.2515 7.18359L25.9258 18.8766L14.2526 30.5688Z" fill="url(#paint0_linear_413_67)"/>
<path d="M29.8181 22.7753L25.9261 18.8763L29.8178 14.978L34.5161 17.6516C35.1127 17.9911 35.4476 18.4288 35.5037 18.876V18.8777C35.4476 19.3238 35.1127 19.7618 34.5161 20.1013L29.8181 22.7752" fill="url(#paint1_linear_413_67)"/>
<path d="M15.0854 30.8758C14.7593 30.8761 14.4747 30.7695 14.2528 30.569V30.5687L25.9261 18.8765L29.8181 22.7755L16.141 30.5591C15.7626 30.774 15.404 30.8758 15.0854 30.8758Z" fill="url(#paint2_linear_413_67)"/>
<path d="M25.9261 18.8763L14.2517 7.18333C14.4736 6.98312 14.7578 6.87695 15.0835 6.87695C15.403 6.87695 15.7618 6.97906 16.141 7.19436L29.8177 14.978L25.9261 18.8763Z" fill="url(#paint3_linear_413_67)"/>
<path d="M15.0856 31.0139C14.7595 31.0139 14.4746 30.9074 14.2526 30.7068L14.2522 30.7072C14.2513 30.7063 14.2504 30.7054 14.2493 30.7046L14.1886 30.6452C14.1867 30.6434 14.1849 30.6413 14.1826 30.639L14.2526 30.569C14.4746 30.7695 14.7591 30.8761 15.0853 30.8757C15.4039 30.8757 15.7624 30.7739 16.1408 30.5591L29.8179 22.7754L29.9055 22.8632L29.8167 22.9136L16.1407 30.6969C15.796 30.8926 15.468 30.9948 15.1716 31.0118C15.1429 31.0131 15.1143 31.0138 15.0856 31.0139Z" fill="url(#paint4_linear_413_67)"/>
<path d="M14.1825 30.6393C13.9083 30.3488 13.7465 29.8979 13.7465 29.3132V29.1758C13.7465 29.76 13.9083 30.2113 14.1825 30.5019L14.2525 30.569L14.1825 30.6393Z" fill="url(#paint5_linear_413_67)"/>
<path d="M29.906 22.8632L29.8183 22.7755L34.5162 20.1015C35.1129 19.7621 35.4479 19.324 35.5039 18.8779C35.5039 19.0417 35.4674 19.2053 35.395 19.3647C35.2488 19.6858 34.9559 19.9892 34.5163 20.2395L29.906 22.8633" fill="url(#paint6_linear_413_67)"/>
<path d="M35.5036 18.8759C35.4476 18.4287 35.1127 17.9911 34.516 17.6515L29.8177 14.978L29.9053 14.8901H29.9057L34.516 17.514C35.1738 17.8886 35.5032 18.3822 35.5036 18.8759Z" fill="url(#paint7_linear_413_67)"/>
<path d="M13.7465 8.57863V8.43441C13.7465 8.38241 13.7479 8.33155 13.7505 8.28218V8.27993C13.7505 8.27925 13.7505 8.27854 13.7508 8.27777V8.27221C13.7792 7.76895 13.9353 7.37639 14.1825 7.11426L14.2515 7.18352C13.9353 7.46932 13.7465 7.94595 13.7465 8.57863Z" fill="url(#paint8_linear_413_67)"/>
<path d="M29.8175 14.9782L16.1408 7.19451C15.7616 6.97925 15.4029 6.87715 15.0834 6.87715C14.7576 6.87715 14.4734 6.98332 14.2515 7.18352L14.1826 7.11421C14.2042 7.0914 14.2265 7.06941 14.2496 7.04826C14.2504 7.0475 14.2515 7.04673 14.2523 7.04601C14.4724 6.84734 14.7536 6.74116 15.0764 6.73926H15.0834C15.4029 6.73926 15.7616 6.8414 16.1408 7.05674L29.9055 14.8901L29.9051 14.8904L29.8175 14.9782Z" fill="url(#paint9_linear_413_67)"/>
<defs>
<filter id="filter0_d_413_67" x="0.349854" y="0" width="135.109" height="45.9561" filterUnits="userSpaceOnUse" color-interpolation-filters="sRGB">
<feFlood flood-opacity="0" result="BackgroundImageFix"/>
<feColorMatrix in="SourceAlpha" type="matrix" values="0 0 0 0 0 0 0 0 0 0 0 0 0 0 0 0 0 0 127 0" result="hardAlpha"/>
<feOffset dy="4"/>
<feGaussianBlur stdDeviation="2"/>
<feComposite in2="hardAlpha" operator="out"/>
<feColorMatrix type="matrix" values="0 0 0 0 0 0 0 0 0 0 0 0 0 0 0 0 0 0 0.25 0"/>
<feBlend mode="normal" in2="BackgroundImageFix" result="effect1_dropShadow_413_67"/>
<feBlend mode="normal" in="SourceGraphic" in2="effect1_dropShadow_413_67" result="shape"/>
</filter>
<linearGradient id="paint0_linear_413_67" x1="21.2072" y1="8.2202" x2="11.1464" y2="18.2971" gradientUnits="userSpaceOnUse">
<stop stop-color="#00A0FF"/>
<stop offset="0.00657" stop-color="#00A1FF"/>
<stop offset="0.2601" stop-color="#00BEFF"/>
<stop offset="0.5122" stop-color="#00D2FF"/>
<stop offset="0.7604" stop-color="#00DFFF"/>
<stop offset="1" stop-color="#00E3FF"/>
</linearGradient>
<linearGradient id="paint1_linear_413_67" x1="36.2306" y1="18.809" x2="13.4308" y2="18.809" gradientUnits="userSpaceOnUse">
<stop stop-color="#FFE000"/>
<stop offset="0.4087" stop-color="#FFBD00"/>
<stop offset="0.7754" stop-color="#FFA500"/>
<stop offset="1" stop-color="#FF9C00"/>
</linearGradient>
<linearGradient id="paint2_linear_413_67" x1="27.7518" y1="22.5835" x2="10.7031" y2="39.5348" gradientUnits="userSpaceOnUse">
<stop stop-color="#FF3A44"/>
<stop offset="1" stop-color="#C31162"/>
</linearGradient>
<linearGradient id="paint3_linear_413_67" x1="11.2428" y1="5.44979" x2="18.8411" y2="13.0162" gradientUnits="userSpaceOnUse">
<stop stop-color="#32A071"/>
<stop offset="0.0685" stop-color="#2DA771"/>
<stop offset="0.4762" stop-color="#15CF74"/>
<stop offset="0.8009" stop-color="#06E775"/>
<stop offset="1" stop-color="#00F076"/>
</linearGradient>
<linearGradient id="paint4_linear_413_67" x1="27.7431" y1="25.2879" x2="14.0897" y2="38.9634" gradientUnits="userSpaceOnUse">
<stop stop-color="#CC2E36"/>
<stop offset="1" stop-color="#9C0E4E"/>
</linearGradient>
<linearGradient id="paint5_linear_413_67" x1="15.3017" y1="8.2203" x2="6.43833" y2="17.0981" gradientUnits="userSpaceOnUse">
<stop stop-color="#008DE0"/>
<stop offset="0.00657" stop-color="#008DE0"/>
<stop offset="0.2601" stop-color="#00A7E0"/>
<stop offset="0.5122" stop-color="#00B8E0"/>
<stop offset="0.7604" stop-color="#00C4E0"/>
<stop offset="1" stop-color="#00C7E0"/>
</linearGradient>
<linearGradient id="paint6_linear_413_67" x1="36.2309" y1="18.8771" x2="13.431" y2="18.8771" gradientUnits="userSpaceOnUse">
<stop stop-color="#E0C500"/>
<stop offset="0.4087" stop-color="#E0A600"/>
<stop offset="0.7754" stop-color="#E09100"/>
<stop offset="1" stop-color="#E08900"/>
</linearGradient>
<linearGradient id="paint7_linear_413_67" x1="36.2306" y1="18.8768" x2="13.4308" y2="18.8768" gradientUnits="userSpaceOnUse">
<stop stop-color="#FFE840"/>
<stop offset="0.4087" stop-color="#FFCE40"/>
<stop offset="0.7754" stop-color="#FFBC40"/>
<stop offset="1" stop-color="#FFB540"/>
</linearGradient>
<linearGradient id="paint8_linear_413_67" x1="15.2921" y1="8.2362" x2="6.7551" y2="16.4165" gradientUnits="userSpaceOnUse">
<stop stop-color="#40B8FF"/>
<stop offset="0.00657" stop-color="#40B9FF"/>
<stop offset="0.2601" stop-color="#40CEFF"/>
<stop offset="0.5122" stop-color="#40DDFF"/>
<stop offset="0.7604" stop-color="#40E7FF"/>
<stop offset="1" stop-color="#40EAFF"/>
</linearGradient>
<linearGradient id="paint9_linear_413_67" x1="11.2257" y1="7.92282" x2="17.3225" y2="14.0296" gradientUnits="userSpaceOnUse">
<stop stop-color="#65B895"/>
<stop offset="0.0685" stop-color="#62BD95"/>
<stop offset="0.4762" stop-color="#50DB97"/>
<stop offset="0.8009" stop-color="#44ED98"/>
<stop offset="1" stop-color="#40F498"/>
</linearGradient>
</defs>
</svg>
