<svg width="34" height="34" viewBox="0 0 34 34" fill="none" xmlns="http://www.w3.org/2000/svg">
<g clip-path="url(#clip0_3_2)">
<path d="M4 22L4 31" stroke="#3E4450" stroke-width="2.5" stroke-linecap="round"/>
<path d="M30 22L30 31" stroke="#3E4450" stroke-width="2.5" stroke-linecap="round"/>
<circle cx="12.2908" cy="6.0015" r="3.0015" fill="#ED5C18"/>
<circle cx="22.0015" cy="11.0015" r="3.0015" fill="#ED5C18"/>
<path d="M8 13C8 10.7909 9.79086 9 12 9C14.2091 9 16 10.7909 16 13V32H8V13Z" fill="#3E4450"/>
<path d="M18 18C18 15.7909 19.7909 14 22 14C24.2091 14 26 15.7909 26 18V32H18V18Z" fill="#3E4450"/>
<path d="M5 31L3 31" stroke="#ED5C18" stroke-width="2.5" stroke-linecap="round"/>
<path d="M31 31L29 31" stroke="#ED5C18" stroke-width="2.5" stroke-linecap="round"/>
</g>
<defs>
<clipPath id="clip0_3_2">
<rect width="34" height="34" fill="white"/>
</clipPath>
</defs>
</svg>
