<svg width="60" height="60" viewBox="0 0 60 60" fill="none" xmlns="http://www.w3.org/2000/svg">
<path fill-rule="evenodd" clip-rule="evenodd" d="M10 10L29.0786 6.4228C29.6875 6.30861 30.3125 6.30861 30.9214 6.4228L50 10V33.2076C50 40.5435 46.2209 47.362 40 51.25L31.325 56.6719C30.5143 57.1786 29.4857 57.1786 28.675 56.6719L20 51.25C13.7791 47.362 10 40.5435 10 33.2076V10Z" fill="#ED5C18"/>
<path fill-rule="evenodd" clip-rule="evenodd" d="M36.25 27.5C37.6307 27.5 38.75 28.6193 38.75 30V37.5C38.75 38.8807 37.6307 40 36.25 40H23.75C22.3693 40 21.25 38.8807 21.25 37.5V30C21.25 28.6193 22.3693 27.5 23.75 27.5V26.25C23.75 22.7982 26.5482 20 30 20C33.4518 20 36.25 22.7982 36.25 26.25V27.5ZM30 22.5C27.9289 22.5 26.25 24.1789 26.25 26.25V27.5H33.75V26.25C33.75 24.1789 32.0711 22.5 30 22.5Z" fill="white"/>
</svg>
