<svg width="30" height="29" viewBox="0 0 30 29" fill="none" xmlns="http://www.w3.org/2000/svg">
<path d="M2 24.6871V11.6977C2 10.7249 2.48615 9.81655 3.29551 9.27698L13.478 2.48862C14.4553 1.83713 15.7284 1.83713 16.7056 2.48862L26.8882 9.27698C27.6975 9.81655 28.1837 10.7249 28.1837 11.6977V24.6871M2 24.6871C2 26.2939 3.30254 27.5964 4.9093 27.5964H25.2744C26.8811 27.5964 28.1837 26.2939 28.1837 24.6871M2 24.6871L11.8189 18.1412M28.1837 24.6871L18.3648 18.1412M2 11.5953L11.8189 18.1412M28.1837 11.5953L18.3648 18.1412M18.3648 18.1412L16.7056 19.2473C15.7284 19.8988 14.4553 19.8988 13.478 19.2473L11.8189 18.1412" stroke="#ED5C18" stroke-width="2.78" stroke-linecap="round" stroke-linejoin="round"/>
</svg>
