<svg width="30" height="30" viewBox="0 0 30 30" fill="none" xmlns="http://www.w3.org/2000/svg">
<path d="M16.2907 2C16.2907 1.28716 15.7128 0.709286 15 0.709286C14.2872 0.709286 13.7093 1.28716 13.7093 2H16.2907ZM13.7093 3.625C13.7093 4.33784 14.2872 4.91571 15 4.91571C15.7128 4.91571 16.2907 4.33784 16.2907 3.625H13.7093ZM24.75 20.2093C24.0372 20.2093 23.4593 20.7872 23.4593 21.5C23.4593 22.2128 24.0372 22.7907 24.75 22.7907V20.2093ZM28 22.7907C28.7128 22.7907 29.2907 22.2128 29.2907 21.5C29.2907 20.7872 28.7128 20.2093 28 20.2093V22.7907ZM15 21.5V20.2093C14.2872 20.2093 13.7093 20.7872 13.7093 21.5H15ZM18.25 22.7907C18.9628 22.7907 19.5407 22.2128 19.5407 21.5C19.5407 20.7872 18.9628 20.2093 18.25 20.2093V22.7907ZM13.7093 28C13.7093 28.7128 14.2872 29.2907 15 29.2907C15.7128 29.2907 16.2907 28.7128 16.2907 28H13.7093ZM16.2907 10.125C16.2907 9.41216 15.7128 8.83429 15 8.83429C14.2872 8.83429 13.7093 9.41216 13.7093 10.125H16.2907ZM15 15H13.7093C13.7093 15.7128 14.2872 16.2907 15 16.2907V15ZM21.5 26.7093C20.7872 26.7093 20.2093 27.2872 20.2093 28C20.2093 28.7128 20.7872 29.2907 21.5 29.2907V26.7093ZM28 29.2907C28.7128 29.2907 29.2907 28.7128 29.2907 28C29.2907 27.2872 28.7128 26.7093 28 26.7093V29.2907ZM2 13.7093C1.28716 13.7093 0.709286 14.2872 0.709286 15C0.709286 15.7128 1.28716 16.2907 2 16.2907V13.7093ZM8.5 16.2907C9.21284 16.2907 9.79071 15.7128 9.79071 15C9.79071 14.2872 9.21284 13.7093 8.5 13.7093V16.2907ZM15.0163 16.2907C15.7291 16.2907 16.307 15.7128 16.307 15C16.307 14.2872 15.7291 13.7093 15.0163 13.7093V16.2907ZM21.5163 16.2907C22.2291 16.2907 22.807 15.7128 22.807 15C22.807 14.2872 22.2291 13.7093 21.5163 13.7093V16.2907ZM28 13.7093C27.2872 13.7093 26.7093 14.2872 26.7093 15C26.7093 15.7128 27.2872 16.2907 28 16.2907V13.7093ZM28.0163 16.2907C28.7291 16.2907 29.307 15.7128 29.307 15C29.307 14.2872 28.7291 13.7093 28.0163 13.7093V16.2907ZM3.625 3.29071H6.875V0.709286H3.625V3.29071ZM7.20929 3.625V6.875H9.79071V3.625H7.20929ZM6.875 7.20929H3.625V9.79071H6.875V7.20929ZM3.29071 6.875V3.625H0.709286V6.875H3.29071ZM3.625 7.20929C3.44038 7.20929 3.29071 7.05962 3.29071 6.875H0.709286C0.709286 8.4853 2.0147 9.79071 3.625 9.79071V7.20929ZM7.20929 6.875C7.20929 7.05962 7.05962 7.20929 6.875 7.20929V9.79071C8.4853 9.79071 9.79071 8.4853 9.79071 6.875H7.20929ZM6.875 3.29071C7.05962 3.29071 7.20929 3.44038 7.20929 3.625H9.79071C9.79071 2.0147 8.4853 0.709286 6.875 0.709286V3.29071ZM3.625 0.709286C2.0147 0.709286 0.709286 2.0147 0.709286 3.625H3.29071C3.29071 3.44038 3.44038 3.29071 3.625 3.29071V0.709286ZM23.125 3.29071H26.375V0.709286H23.125V3.29071ZM26.7093 3.625V6.875H29.2907V3.625H26.7093ZM26.375 7.20929H23.125V9.79071H26.375V7.20929ZM22.7907 6.875V3.625H20.2093V6.875H22.7907ZM23.125 7.20929C22.9404 7.20929 22.7907 7.05962 22.7907 6.875H20.2093C20.2093 8.4853 21.5147 9.79071 23.125 9.79071V7.20929ZM26.7093 6.875C26.7093 7.05962 26.5596 7.20929 26.375 7.20929V9.79071C27.9853 9.79071 29.2907 8.4853 29.2907 6.875H26.7093ZM26.375 3.29071C26.5596 3.29071 26.7093 3.44038 26.7093 3.625H29.2907C29.2907 2.0147 27.9853 0.709286 26.375 0.709286V3.29071ZM23.125 0.709286C21.5147 0.709286 20.2093 2.0147 20.2093 3.625H22.7907C22.7907 3.44038 22.9404 3.29071 23.125 3.29071V0.709286ZM3.625 22.7907H6.875V20.2093H3.625V22.7907ZM7.20929 23.125V26.375H9.79071V23.125H7.20929ZM6.875 26.7093H3.625V29.2907H6.875V26.7093ZM3.29071 26.375V23.125H0.709286V26.375H3.29071ZM3.625 26.7093C3.44038 26.7093 3.29071 26.5596 3.29071 26.375H0.709286C0.709286 27.9853 2.0147 29.2907 3.625 29.2907V26.7093ZM7.20929 26.375C7.20929 26.5596 7.05962 26.7093 6.875 26.7093V29.2907C8.4853 29.2907 9.79071 27.9853 9.79071 26.375H7.20929ZM6.875 22.7907C7.05962 22.7907 7.20929 22.9404 7.20929 23.125H9.79071C9.79071 21.5147 8.4853 20.2093 6.875 20.2093V22.7907ZM3.625 20.2093C2.0147 20.2093 0.709286 21.5147 0.709286 23.125H3.29071C3.29071 22.9404 3.44038 22.7907 3.625 22.7907V20.2093ZM13.7093 2V3.625H16.2907V2H13.7093ZM24.75 22.7907H28V20.2093H24.75V22.7907ZM15 22.7907H18.25V20.2093H15V22.7907ZM13.7093 21.5V28H16.2907V21.5H13.7093ZM13.7093 10.125V15H16.2907V10.125H13.7093ZM21.5 29.2907H28V26.7093H21.5V29.2907ZM2 16.2907H8.5V13.7093H2V16.2907ZM15 16.2907H15.0163V13.7093H15V16.2907ZM28 16.2907H28.0163V13.7093H28V16.2907ZM15 16.2907H21.5163V13.7093H15V16.2907Z" fill="#ED5C18"/>
</svg>
