<svg width="18" height="30" viewBox="0 0 18 30" fill="none" xmlns="http://www.w3.org/2000/svg">
<path d="M6.4008 10.8166C5.7495 11.3343 5.1294 11.892 4.5437 12.4865C4.2407 12.8673 4.0409 13.3234 3.9646 13.8087C3.7568 14.9875 3.6477 16.1839 3.4859 17.3706C3.4442 17.6761 3.2874 17.9527 3.0492 18.141C2.811 18.3292 2.5104 18.4141 2.2118 18.3775C2.0588 18.3644 1.91008 18.3191 1.77495 18.2443C1.63982 18.1695 1.52121 18.0669 1.42656 17.9428C1.33192 17.8188 1.26328 17.676 1.22495 17.5234C1.18662 17.3708 1.17943 17.2118 1.20383 17.0562C1.38092 15.5003 1.57716 13.9482 1.75904 12.3932C1.82598 11.7986 2.1187 11.255 2.5737 10.8804C3.5769 10.0101 4.5686 9.124 5.5938 8.2802C6.5723 7.41488 7.8279 6.951 9.1194 6.97767C9.5459 6.9553 9.9689 7.06648 10.3323 7.29647C10.6958 7.52647 10.9825 7.86442 11.1545 8.2655C11.6476 9.3285 12.0635 10.4275 12.399 11.5533C12.523 12.0808 12.7711 12.569 13.1216 12.9754C13.472 13.3817 13.9141 13.6938 14.4092 13.8843C15.2832 14.2665 16.1323 14.6987 16.9938 15.1201C17.2589 15.2444 17.466 15.4703 17.5707 15.7494C17.6753 16.0285 17.6693 16.3386 17.5538 16.6132C17.4997 16.7504 17.4186 16.8746 17.3156 16.9782C17.2125 17.0817 17.0898 17.1623 16.955 17.2148C16.8202 17.2674 16.6762 17.2908 16.5322 17.2837C16.3882 17.2765 16.2471 17.2389 16.1179 17.1731C14.7117 16.5228 13.2969 15.8853 11.9356 15.1456C11.4935 14.8185 11.115 14.4094 10.8195 13.9394C10.6836 13.6947 10.5273 13.4627 10.3523 13.2458C10.1609 14.1928 10.0345 15.1584 9.7665 16.0808C9.6537 16.4584 9.6316 16.8585 9.7021 17.2468C9.7726 17.6351 9.9336 18.0001 10.1714 18.3107C11.9902 21.1692 13.7544 24.068 15.5321 26.955C15.6654 27.1386 15.7601 27.3486 15.8101 27.5717C15.8601 27.7948 15.8643 28.0261 15.8226 28.251C15.7808 28.4759 15.6939 28.6894 15.5675 28.878C15.441 29.0666 15.2777 29.2261 15.0879 29.3465C14.8982 29.4668 14.6861 29.5454 14.4652 29.5772C14.2442 29.6089 14.0193 29.5932 13.8046 29.531C13.5899 29.4688 13.3902 29.3614 13.218 29.2158C13.0459 29.0701 12.9052 28.8893 12.8048 28.6849C11.3747 26.3578 9.9331 24.0385 8.4972 21.7105C7.4988 20.0867 6.4994 18.4639 5.5297 16.8224C5.3868 16.5575 5.3346 16.2511 5.3813 15.9521C5.6895 14.2949 6.0361 12.6397 6.4008 10.8166Z" fill="#ED5C18"/>
<path d="M14.2062 29.9646C13.8547 29.9565 13.5117 29.852 13.2127 29.6621C12.9138 29.4721 12.6698 29.2034 12.5061 28.8841C11.7652 27.6791 11.0221 26.4748 10.2767 25.2711C9.58489 24.1513 8.89379 23.0315 8.20329 21.9116L8.15829 21.837C7.19049 20.2652 6.18919 18.6366 5.23389 17.0167C5.04669 16.6753 4.97919 16.2783 5.04239 15.892C5.26929 14.6484 5.52099 13.4126 5.78429 12.1051L5.85509 11.7545C5.48319 12.0527 5.13369 12.3795 4.80979 12.7319C4.55009 13.0622 4.37969 13.4569 4.31579 13.8763C4.18469 14.6189 4.09189 15.3861 4.00189 16.1287C3.94919 16.5609 3.89559 16.9932 3.83629 17.4244C3.78009 17.8235 3.57419 18.1844 3.26259 18.4301C2.95089 18.6758 2.55809 18.7869 2.16779 18.7397C1.96892 18.7206 1.77596 18.6601 1.60069 18.5618C1.42543 18.4636 1.27153 18.3297 1.14842 18.1683C1.02531 18.0069 0.935557 17.8215 0.884677 17.6233C0.833787 17.4252 0.822837 17.2184 0.852477 17.0157C0.955867 16.1107 1.0634 15.206 1.17508 14.3016C1.25357 13.6523 1.33302 13.001 1.40864 12.3517C1.48675 11.6665 1.82271 11.0397 2.34489 10.6051C2.61349 10.372 2.88159 10.1382 3.14899 9.9038C3.87169 9.2731 4.61739 8.6209 5.37269 8C6.41369 7.07696 7.75159 6.58338 9.12699 6.61498C9.62069 6.59153 10.1096 6.72287 10.5287 6.99152C10.9478 7.26017 11.2773 7.6534 11.4733 8.1189L11.6044 8.4234C12.0562 9.4044 12.4357 10.4187 12.7397 11.4578C12.8505 11.9326 13.0737 12.372 13.3897 12.737C13.7056 13.102 14.1045 13.3813 14.5509 13.5501C15.2812 13.8694 16.0059 14.2269 16.7047 14.5727L17.1498 14.7928C17.4967 14.9584 17.767 15.2562 17.9034 15.623C18.0398 15.9898 18.0315 16.3968 17.8802 16.7574C17.8073 16.9383 17.6991 17.1021 17.5623 17.2386C17.4256 17.3751 17.2631 17.4815 17.0848 17.5513C16.9066 17.6211 16.7163 17.6529 16.5257 17.6445C16.335 17.6362 16.1481 17.5881 15.9762 17.503L15.4535 17.2623C14.2359 16.6994 12.9762 16.1189 11.7738 15.4647C11.3733 15.2071 11.0315 14.864 10.7716 14.4588C10.6979 14.3605 10.6242 14.2623 10.5505 14.1641L10.5447 14.1572V14.1729C10.4357 14.8495 10.291 15.5194 10.1111 16.1798C10.0134 16.507 9.99529 16.8538 10.0586 17.1898C10.1218 17.5258 10.2644 17.8408 10.4739 18.1071C11.9825 20.4735 13.472 22.9067 14.9137 25.2584L15.8336 26.7593C16.0313 27.0603 16.1523 27.4074 16.1858 27.7687C16.2192 28.1301 16.164 28.4943 16.025 28.8281C15.8858 29.1287 15.6742 29.3878 15.4102 29.5812C15.1462 29.7745 14.8386 29.8957 14.5164 29.9332C14.4139 29.9517 14.3103 29.9622 14.2062 29.9646ZM6.95409 9.8507L6.74629 10.89C6.65059 11.3537 6.56159 11.8065 6.47159 12.2525C6.20829 13.557 5.95849 14.7888 5.73359 16.0256C5.70179 16.2369 5.73809 16.4532 5.83689 16.6415C6.78939 18.2554 7.78879 19.8831 8.75469 21.4548L8.80059 21.5295C9.48979 22.6506 10.181 23.7702 10.874 24.888C11.6188 26.0917 12.3622 27.2963 13.1044 28.502C13.2188 28.7506 13.4077 28.9552 13.6435 29.0858C13.8793 29.2164 14.1496 29.2662 14.4149 29.2279C14.6199 29.208 14.8164 29.1343 14.9856 29.0138C15.1547 28.8934 15.2908 28.7303 15.3808 28.5403C15.4713 28.317 15.5053 28.0738 15.4797 27.8334C15.4541 27.5929 15.3697 27.363 15.2343 27.165L14.3135 25.6631C12.8776 23.3134 11.3862 20.8831 9.88139 18.5226C9.61709 18.167 9.43869 17.7522 9.36069 17.3122C9.28259 16.8722 9.30719 16.4196 9.43239 15.9912C9.60469 15.3559 9.74339 14.7116 9.84779 14.0609C9.89949 13.7662 9.95309 13.4774 10.0106 13.1877L10.1369 12.556L10.5974 12.9951C10.7455 13.1448 10.8693 13.3179 10.964 13.5079C11.0021 13.5836 11.0463 13.6558 11.0961 13.724C11.1765 13.8222 11.2541 13.9283 11.3326 14.0334C11.5357 14.3516 11.7978 14.6257 12.1041 14.8399C13.2873 15.4833 14.5355 16.059 15.7417 16.6159L16.2643 16.8576C16.351 16.903 16.4459 16.9294 16.543 16.9349C16.6402 16.9404 16.7374 16.925 16.8283 16.8897C16.9193 16.8543 17.0021 16.7998 17.0713 16.7297C17.1405 16.6595 17.1947 16.5753 17.2302 16.4823C17.3099 16.2939 17.3137 16.0808 17.2407 15.8895C17.1677 15.6983 17.0238 15.5444 16.8406 15.4617L16.3955 15.2417C15.7024 14.8989 14.9874 14.5452 14.2723 14.2319C13.7253 14.0204 13.2371 13.6746 12.8504 13.2248C12.4638 12.7749 12.1904 12.2347 12.0543 11.6513C11.7587 10.6477 11.3911 9.668 10.9544 8.7201L10.8233 8.4146C10.678 8.076 10.4348 7.79156 10.1265 7.59982C9.81819 7.40808 9.45989 7.31837 9.10019 7.34287C7.89319 7.31959 6.72059 7.75559 5.80819 8.5668C5.06159 9.1798 4.31969 9.8291 3.60649 10.4568C3.33789 10.6919 3.06889 10.9264 2.79959 11.1602C2.41359 11.4752 2.16509 11.9344 2.10839 12.4372C2.03179 13.0888 1.95364 13.74 1.87387 14.391C1.76474 15.2937 1.65562 16.1965 1.55319 17.0992C1.5347 17.2076 1.53859 17.3188 1.56462 17.4255C1.59065 17.5323 1.63824 17.6322 1.70429 17.7189C1.77034 17.8055 1.85339 17.877 1.94807 17.9287C2.04279 17.9803 2.14699 18.011 2.25389 18.0187C2.46039 18.0431 2.66789 17.9837 2.83229 17.8532C2.99659 17.7227 3.10479 17.5314 3.13359 17.3203C3.19299 16.8939 3.24559 16.4656 3.29729 16.0374C3.39309 15.2849 3.48299 14.5069 3.61799 13.7456C3.70439 13.1935 3.93389 12.6755 4.28229 12.2456C4.67349 11.8228 5.09559 11.4313 5.54499 11.0747C5.74599 10.9057 5.95469 10.7309 6.17099 10.5413L6.95409 9.8507Z" fill="#ED5C18"/>
<path d="M4.86921 18.9421C5.59191 19.9333 6.25811 20.8439 6.91581 21.7614C6.94441 21.8061 6.96392 21.8564 6.97292 21.9091C6.98202 21.9618 6.98051 22.0158 6.96841 22.0679C6.80351 23.0663 6.45281 24.0228 5.93551 24.8852C4.92851 26.1857 3.99811 27.5482 3.02931 28.8802C2.92901 29.0619 2.79211 29.2196 2.62781 29.3429C2.46361 29.4662 2.27561 29.5523 2.07651 29.5954C1.87734 29.6385 1.67155 29.6376 1.47274 29.5929C1.27394 29.5482 1.08667 29.4607 0.923355 29.336C0.761445 29.2103 0.626955 29.0512 0.528545 28.869C0.430135 28.6868 0.369974 28.4854 0.351944 28.2779C0.333904 28.0704 0.358405 27.8613 0.423845 27.664C0.489285 27.4668 0.594214 27.2858 0.731904 27.1327C1.64896 25.8557 2.58322 24.5855 3.48692 23.2958C3.69052 22.9962 3.84471 22.6643 3.94351 22.3134C4.25941 21.2368 4.53991 20.1494 4.86921 18.9421Z" fill="#ED5C18"/>
<path d="M1.76573 29.9999C1.38518 29.9942 1.01632 29.8642 0.71275 29.6286C0.52768 29.4965 0.370539 29.3274 0.250779 29.1314C0.131029 28.9354 0.0511193 28.7166 0.0158693 28.4882C-0.0179407 28.2102 0.00239947 27.9282 0.0756895 27.6583C0.148979 27.3885 0.273759 27.1364 0.442799 26.9164C0.771459 26.458 1.10203 25.9996 1.43452 25.5412C2.0156 24.7377 2.6177 23.9076 3.1949 23.0854C3.3755 22.8181 3.5126 22.5225 3.6008 22.2102C3.8267 21.4449 4.0335 20.6728 4.2527 19.8526L4.5293 18.8408L4.7208 18.1316L5.5996 19.3369C6.1538 20.0972 6.6803 20.8172 7.2001 21.5422C7.2617 21.6327 7.3031 21.7361 7.3213 21.845C7.3395 21.9538 7.3341 22.0654 7.3054 22.1719C7.2317 22.4145 7.1714 22.663 7.1082 22.9184C6.9701 23.7069 6.6638 24.4543 6.2112 25.107C5.5412 25.9734 4.8893 26.887 4.2603 27.7691C3.9454 28.2111 3.6305 28.6532 3.3117 29.0933C3.1423 29.3591 2.9138 29.5799 2.645 29.7375C2.3763 29.8951 2.0749 29.9851 1.76573 29.9999ZM5.0204 19.7505L4.9419 20.0451C4.7208 20.8673 4.5121 21.6444 4.2852 22.4174C4.1743 22.8065 4.0023 23.1745 3.776 23.5068C3.1949 24.3359 2.5918 25.1689 2.0089 25.9744C1.6783 26.4328 1.34837 26.8912 1.01907 27.3497C0.906019 27.4928 0.82162 27.6574 0.7707 27.834C0.71978 28.0107 0.703339 28.1959 0.722319 28.3791C0.743689 28.5127 0.79116 28.6405 0.8619 28.7548C0.93264 28.8691 1.02518 28.9675 1.13394 29.0441C1.26046 29.1401 1.40567 29.2069 1.55966 29.24C1.71364 29.2731 1.87277 29.2717 2.0262 29.2358C2.1796 29.2 2.3236 29.1307 2.4485 29.0325C2.5734 28.9343 2.6762 28.8096 2.7498 28.6669C3.0689 28.2295 3.3841 27.7897 3.6956 27.3477C4.3283 26.4636 4.9831 25.5412 5.6637 24.662C6.0516 24.0886 6.3129 23.4352 6.4295 22.7475C6.4908 22.496 6.5539 22.2367 6.6324 21.9803V21.9636C6.1232 21.2554 5.5986 20.5363 5.0453 19.778L5.0204 19.7505Z" fill="#ED5C18"/>
<path d="M13.2202 3.18076C13.2207 3.73762 13.0598 4.28204 12.7579 4.74477C12.456 5.20749 12.0268 5.5676 11.5249 5.77926C11.0229 5.99093 10.471 6.04459 9.9393 5.93341C9.4076 5.82223 8.9201 5.55124 8.5389 5.15492C8.1577 4.7586 7.89999 4.25488 7.79859 3.70783C7.69719 3.16078 7.75669 2.59514 7.96949 2.08289C8.18229 1.57063 8.5388 1.13492 8.9936 0.831189C9.4484 0.527449 9.98099 0.369429 10.5236 0.377229C11.2408 0.390809 11.9243 0.691679 12.4282 1.21554C12.9321 1.7394 13.2163 2.44471 13.2202 3.18076Z" fill="#3F4450"/>
<path d="M10.4873 6.36051C9.6662 6.3512 8.8819 6.01008 8.3043 5.41114C7.7267 4.81219 7.4025 4.00373 7.4021 3.16111C7.4041 2.32065 7.7314 1.51544 8.312 0.92262C8.8926 0.3298 9.6788 -0.00207028 10.4979 9.71863e-06C11.3169 0.00208972 12.1015 0.33796 12.6792 0.93373C13.2569 1.5295 13.5803 2.33636 13.5783 3.17682C13.5788 4.01846 13.2544 4.82602 12.6759 5.42272C12.0975 6.01941 11.3123 6.35661 10.4921 6.36051H10.4873ZM10.4959 0.73675C9.8657 0.73825 9.2613 0.99424 8.8134 1.44938C8.3656 1.90451 8.1103 2.52222 8.1028 3.16896C8.1057 3.81789 8.3567 4.43972 8.8017 4.90078C9.2467 5.36184 9.8502 5.62532 10.4825 5.63458C11.1149 5.63094 11.7202 5.37061 12.1661 4.91045C12.612 4.45029 12.8623 3.82773 12.8623 3.17879C12.8606 2.53776 12.6139 1.923 12.1751 1.4667C11.7364 1.0104 11.1406 0.74901 10.516 0.73871L10.4959 0.73675Z" fill="#3F4450"/>
</svg>
