<svg width="28" height="44" viewBox="0 0 28 44" fill="none" xmlns="http://www.w3.org/2000/svg">
<path d="M9.62755 15.8543C8.64798 16.6132 7.71518 17.4306 6.83426 18.302C6.37849 18.8602 6.07802 19.5287 5.96317 20.24C5.65072 21.9678 5.48658 23.7216 5.24325 25.4609C5.1805 25.9088 4.94466 26.3142 4.58636 26.5901C4.22806 26.866 3.77585 26.9905 3.32682 26.9367C3.09667 26.9176 2.87296 26.8512 2.66971 26.7416C2.46646 26.6319 2.28805 26.4815 2.14569 26.2997C2.00333 26.1178 1.90009 25.9085 1.84244 25.6849C1.78478 25.4613 1.77397 25.2281 1.81067 25.0001C2.07704 22.7194 2.37221 20.4445 2.64578 18.1652C2.74647 17.2937 3.18673 16.4969 3.87108 15.9479C5.38003 14.6722 6.8717 13.3734 8.41377 12.1366C9.88559 10.8682 11.7741 10.1883 13.7167 10.2274C14.3581 10.1946 14.9944 10.3576 15.5411 10.6947C16.0878 11.0318 16.5191 11.5272 16.7778 12.115C17.5194 13.6732 18.145 15.2839 18.6496 16.9342C18.8362 17.7073 19.2094 18.423 19.7365 19.0186C20.2636 19.6142 20.9285 20.0716 21.6732 20.3509C22.9878 20.911 24.265 21.5445 25.5608 22.1622C25.9595 22.3444 26.271 22.6755 26.4285 23.0847C26.5859 23.4938 26.5768 23.9483 26.4031 24.3508C26.3218 24.5519 26.1998 24.734 26.0448 24.8857C25.8898 25.0375 25.7052 25.1556 25.5024 25.2326C25.2996 25.3096 25.0831 25.344 24.8665 25.3335C24.6498 25.323 24.4377 25.2678 24.2434 25.1715C22.1282 24.2183 20.0001 23.2839 17.9527 22.1997C17.2877 21.7202 16.7183 21.1205 16.2738 20.4315C16.0695 20.073 15.8344 19.7329 15.5712 19.415C15.2832 20.803 15.0932 22.2184 14.69 23.5704C14.5203 24.1239 14.4871 24.7103 14.5931 25.2794C14.6992 25.8485 14.9414 26.3836 15.2991 26.8388C18.0348 31.0288 20.6884 35.2777 23.3622 39.5094C23.5627 39.7785 23.7051 40.0862 23.7803 40.4133C23.8555 40.7403 23.862 41.0794 23.7991 41.409C23.7363 41.7386 23.6056 42.0515 23.4154 42.328C23.2252 42.6044 22.9796 42.8382 22.6941 43.0147C22.4087 43.1911 22.0897 43.3062 21.7574 43.3528C21.4251 43.3994 21.0868 43.3763 20.7638 43.2851C20.4409 43.1939 20.1405 43.0366 19.8816 42.8231C19.6227 42.6096 19.4111 42.3446 19.2601 42.045C17.109 38.634 14.9406 35.2345 12.7808 31.8221C11.2791 29.442 9.77586 27.0634 8.31731 24.6575C8.10243 24.2691 8.02384 23.82 8.09412 23.3818C8.55775 20.9528 9.07897 18.5266 9.62755 15.8543Z" fill="#ED5C18"/>
<path d="M21.368 43.9209C20.8392 43.909 20.3233 43.7559 19.8737 43.4774C19.424 43.1989 19.0571 42.8052 18.8109 42.3371C17.6964 40.5709 16.5786 38.8056 15.4575 37.0414C14.4169 35.3999 13.3774 33.7585 12.3388 32.1171L12.2711 32.0077C10.8154 29.7039 9.30936 27.3167 7.8724 24.9424C7.59094 24.4419 7.48932 23.8601 7.58444 23.2938C7.92568 21.4709 8.30436 19.6596 8.70031 17.7432L8.80686 17.2292C8.24738 17.6664 7.72178 18.1453 7.23455 18.6618C6.84394 19.146 6.5877 19.7246 6.4916 20.3392C6.29434 21.4277 6.15468 22.5523 6.01933 23.6408C5.94014 24.2743 5.85951 24.9078 5.77024 25.5399C5.68572 26.125 5.37609 26.6539 4.90731 27.014C4.43854 27.3742 3.84768 27.537 3.2606 27.4679C2.96152 27.4399 2.67129 27.3511 2.40767 27.2071C2.14404 27.0631 1.91257 26.8669 1.72739 26.6303C1.54221 26.3938 1.40722 26.122 1.33069 25.8315C1.25415 25.541 1.23768 25.238 1.28226 24.9409C1.43777 23.6144 1.59951 22.2883 1.76749 20.9627C1.88555 20.0109 2.00505 19.0563 2.1188 18.1046C2.23628 17.1002 2.74161 16.1815 3.52697 15.5446C3.93108 15.2028 4.33423 14.8602 4.73643 14.5165C5.82351 13.5921 6.94515 12.6361 8.08118 11.7261C9.64698 10.3731 11.6594 9.64961 13.7282 9.69593C14.4707 9.66157 15.2061 9.85408 15.8365 10.2479C16.4669 10.6416 16.9624 11.218 17.2573 11.9003L17.4545 12.3467C18.134 13.7845 18.7049 15.2712 19.1622 16.7943C19.3287 17.4903 19.6645 18.1343 20.1398 18.6693C20.615 19.2043 21.2149 19.6137 21.8864 19.8612C22.985 20.3291 24.0749 20.8532 25.126 21.3601L25.7955 21.6826C26.3173 21.9253 26.7239 22.3619 26.9291 22.8995C27.1342 23.4372 27.1216 24.0337 26.8941 24.5623C26.7844 24.8275 26.6217 25.0675 26.416 25.2676C26.2103 25.4677 25.9659 25.6237 25.6978 25.726C25.4296 25.8283 25.1434 25.8748 24.8567 25.8626C24.57 25.8504 24.2887 25.7798 24.0303 25.6551L23.2441 25.3023C21.4126 24.4773 19.5178 23.6264 17.7094 22.6674C17.1069 22.2899 16.5927 21.787 16.2019 21.1931C16.091 21.0491 15.9801 20.9051 15.8693 20.7611L15.8606 20.751V20.7741C15.6967 21.7657 15.479 22.7477 15.2084 23.7156C15.0614 24.1952 15.0343 24.7036 15.1294 25.1961C15.2245 25.6886 15.439 26.1503 15.7541 26.5406C18.0233 30.0092 20.2637 33.5757 22.4321 37.0226L23.8157 39.2227C24.1131 39.6639 24.2952 40.1726 24.3455 40.7022C24.3958 41.2319 24.3127 41.7657 24.1037 42.255C23.8942 42.6955 23.576 43.0754 23.1789 43.3588C22.7819 43.6423 22.3192 43.8198 21.8345 43.8748C21.6804 43.902 21.5245 43.9174 21.368 43.9209ZM10.4598 14.4388L10.1473 15.9621C10.0034 16.6417 9.86946 17.3055 9.73411 17.9592C9.33816 19.8713 8.96236 21.6768 8.624 23.4896C8.57617 23.7994 8.63077 24.1164 8.77951 24.3924C10.2121 26.758 11.7153 29.1438 13.1681 31.4476L13.2372 31.557C14.2739 33.2003 15.3135 34.8413 16.3559 36.4798C17.4761 38.2441 18.5944 40.0098 19.7108 41.777C19.8828 42.1414 20.167 42.4412 20.5216 42.6327C20.8762 42.8241 21.2828 42.8971 21.6819 42.841C21.9902 42.8118 22.2858 42.7038 22.5402 42.5273C22.7947 42.3507 22.9994 42.1117 23.1347 41.8331C23.2708 41.5058 23.322 41.1494 23.2835 40.7969C23.2449 40.4445 23.118 40.1076 22.9144 39.8174L21.5293 37.6159C19.3695 34.1718 17.1263 30.6096 14.8628 27.1497C14.4654 26.6284 14.197 26.0204 14.0796 25.3755C13.9623 24.7306 13.9992 24.0671 14.1875 23.4392C14.4467 22.5081 14.6553 21.5636 14.8124 20.6099C14.8902 20.178 14.9708 19.7546 15.0572 19.3299L15.2473 18.4041L15.9398 19.0477C16.1627 19.2671 16.3489 19.5209 16.4913 19.7993C16.5486 19.9102 16.6151 20.0162 16.69 20.116C16.8109 20.26 16.9276 20.4155 17.0456 20.5696C17.3511 21.036 17.7455 21.4376 18.2061 21.7517C19.9858 22.6948 21.8633 23.5385 23.6775 24.3549L24.4637 24.7091C24.594 24.7757 24.7367 24.8143 24.8828 24.8224C25.029 24.8305 25.1751 24.808 25.312 24.7561C25.4488 24.7043 25.5733 24.6244 25.6774 24.5216C25.7815 24.4188 25.863 24.2953 25.9165 24.1591C26.0364 23.8829 26.042 23.5705 25.9322 23.2902C25.8224 23.0098 25.606 22.7844 25.3304 22.6631L24.6609 22.3406C23.6185 21.8381 22.5429 21.3198 21.4674 20.8604C20.6446 20.5505 19.9103 20.0437 19.3287 19.3843C18.7471 18.7249 18.336 17.933 18.1313 17.078C17.6866 15.6069 17.1337 14.1709 16.4769 12.7815L16.2796 12.3337C16.0612 11.8375 15.6952 11.4205 15.2315 11.1395C14.7679 10.8584 14.2289 10.7269 13.6879 10.7629C11.8724 10.7287 10.1086 11.3678 8.7363 12.5569C7.61323 13.4553 6.49736 14.4071 5.42468 15.3271C5.02056 15.6717 4.61597 16.0154 4.21089 16.3581C3.63037 16.8199 3.25655 17.493 3.17133 18.2299C3.05614 19.185 2.93855 20.1396 2.81856 21.0937C2.65442 22.4169 2.49028 23.7401 2.33622 25.0633C2.3084 25.2222 2.31426 25.3851 2.35341 25.5416C2.39256 25.698 2.46413 25.8445 2.56349 25.9716C2.66284 26.0986 2.78776 26.2034 2.93017 26.2791C3.07258 26.3548 3.2293 26.3997 3.39018 26.411C3.7007 26.4467 4.01288 26.3597 4.26009 26.1684C4.50731 25.9771 4.66998 25.6968 4.71339 25.3873C4.80266 24.7624 4.88186 24.1346 4.95961 23.5069C5.1036 22.4039 5.23894 21.2636 5.44196 20.1477C5.57193 19.3385 5.91706 18.5791 6.44121 17.9491C7.02951 17.3293 7.66442 16.7556 8.34035 16.2328C8.64272 15.9851 8.9566 15.7289 9.28201 15.451L10.4598 14.4388Z" fill="#ED5C18"/>
<path d="M7.32384 27.7644C8.41092 29.2172 9.41305 30.5519 10.4022 31.8967C10.4453 31.9623 10.4746 32.0359 10.4882 32.1132C10.5018 32.1904 10.4995 32.2696 10.4814 32.346C10.2333 33.8094 9.70585 35.2114 8.92782 36.4754C7.41311 38.3818 6.01359 40.3788 4.55648 42.3313C4.40552 42.5976 4.19967 42.8288 3.95258 43.0095C3.70549 43.1902 3.42282 43.3163 3.12328 43.3795C2.82375 43.4427 2.5142 43.4414 2.21518 43.3759C1.91615 43.3104 1.63448 43.182 1.38882 42.9993C1.14528 42.8151 0.942994 42.5819 0.79497 42.3148C0.646946 42.0477 0.556462 41.7525 0.529339 41.4484C0.502217 41.1442 0.539059 40.8377 0.637488 40.5486C0.735917 40.2595 0.893757 39.9942 1.10086 39.7698C2.48023 37.898 3.88551 36.0363 5.24471 34.1458C5.55097 33.7067 5.78299 33.2203 5.93151 32.7059C6.40666 31.1279 6.82854 29.534 7.32384 27.7644Z" fill="#ED5C18"/>
<path d="M2.65588 43.9727C2.08349 43.9644 1.52868 43.7737 1.07206 43.4285C0.793695 43.2349 0.557342 42.987 0.377211 42.6997C0.19708 42.4124 0.076894 42.0917 0.0238642 41.7568C-0.0269792 41.3494 0.0036052 40.936 0.113843 40.5405C0.224081 40.1451 0.411775 39.7754 0.666031 39.4531C1.16038 38.7812 1.65759 38.1092 2.1577 37.4373C3.03168 36.2595 3.93735 35.0429 4.80557 33.8377C5.07717 33.4459 5.28335 33.0127 5.41605 32.5548C5.75586 31.4332 6.06686 30.3015 6.39658 29.0992L6.8127 27.6162L7.10067 26.5766L8.42245 28.3433C9.25611 29.4577 10.048 30.5131 10.8299 31.5757C10.9225 31.7084 10.9848 31.86 11.0122 32.0195C11.0395 32.179 11.0314 32.3426 10.9882 32.4987C10.8774 32.8543 10.7867 33.2186 10.6916 33.5929C10.484 34.7487 10.0233 35.8441 9.3425 36.8009C8.33462 38.0708 7.35408 39.4099 6.40811 40.7029C5.9344 41.3508 5.4607 41.9987 4.98123 42.6438C4.72639 43.0334 4.38273 43.3571 3.97849 43.5881C3.57425 43.8191 3.12097 43.9509 2.65588 43.9727ZM7.55134 28.9495L7.43327 29.3814C7.10067 30.5865 6.78679 31.7255 6.44555 32.8586C6.27862 33.4289 6.0199 33.9683 5.67955 34.4554C4.80557 35.6706 3.89847 36.8916 3.02161 38.0723C2.52439 38.7442 2.02812 39.4161 1.53281 40.088C1.36278 40.2978 1.23582 40.5391 1.15923 40.798C1.08263 41.057 1.05791 41.3285 1.08646 41.597C1.1186 41.7928 1.19001 41.9801 1.29641 42.1477C1.40281 42.3152 1.542 42.4594 1.7056 42.5718C1.8959 42.7124 2.11432 42.8103 2.34593 42.8588C2.57754 42.9073 2.81688 42.9052 3.04762 42.8528C3.27836 42.8003 3.49506 42.6986 3.6829 42.5547C3.87074 42.4108 4.0253 42.228 4.13604 42.0189C4.61598 41.3777 5.09017 40.7331 5.5586 40.0852C6.51033 38.7893 7.49519 37.4373 8.51892 36.1487C9.10238 35.3081 9.49546 34.3505 9.67078 33.3424C9.76293 32.9738 9.85796 32.5937 9.97602 32.2179V32.1934C9.21003 31.1553 8.421 30.1013 7.58878 28.9898L7.55134 28.9495Z" fill="#ED5C18"/>
<path d="M19.885 4.66232C19.8858 5.47853 19.6437 6.27653 19.1897 6.95477C18.7356 7.63302 18.09 8.16084 17.335 8.47109C16.5801 8.78134 15.7499 8.85999 14.9501 8.69703C14.1503 8.53407 13.4171 8.13687 12.8437 7.55596C12.2703 6.97506 11.8828 6.23671 11.7302 5.43487C11.5777 4.63303 11.6672 3.80394 11.9873 3.0531C12.3074 2.30226 12.8436 1.66361 13.5277 1.21841C14.2118 0.773211 15.0129 0.541588 15.829 0.553016C16.9077 0.572924 17.9359 1.01392 18.6938 1.78178C19.4517 2.54963 19.8792 3.58344 19.885 4.66232Z" fill="#3F4450"/>
<path d="M15.7743 9.32298C14.5393 9.30933 13.3594 8.80933 12.4907 7.93142C11.622 7.05351 11.1344 5.8685 11.1337 4.63342C11.1367 3.40151 11.629 2.22127 12.5023 1.35234C13.3755 0.483404 14.5582 -0.00304065 15.7901 1.43027e-05C17.022 0.00306926 18.2023 0.495374 19.0712 1.36863C19.9401 2.24188 20.4266 3.42455 20.4235 4.65646C20.4243 5.8901 19.9363 7.07379 19.0662 7.94839C18.1962 8.823 17.0151 9.31726 15.7815 9.32298H15.7743ZM15.7872 1.07989C14.8392 1.0821 13.9301 1.45732 13.2566 2.12444C12.583 2.79156 12.199 3.69697 12.1876 4.64494C12.1921 5.5961 12.5695 6.50756 13.2389 7.18336C13.9082 7.85917 14.816 8.24536 15.7671 8.25893C16.7183 8.2536 17.6287 7.87201 18.2994 7.19753C18.9701 6.52306 19.3465 5.61052 19.3465 4.65933C19.344 3.71974 18.9729 2.81866 18.3129 2.14983C17.653 1.48101 16.757 1.09786 15.8175 1.08278L15.7872 1.07989Z" fill="#3F4450"/>
</svg>
