<svg width="34" height="34" viewBox="0 0 34 34" fill="none" xmlns="http://www.w3.org/2000/svg">
<path d="M14.4008 12.8166C13.7495 13.3343 13.1294 13.892 12.5437 14.4865C12.2407 14.8673 12.0409 15.3234 11.9646 15.8087C11.7568 16.9875 11.6477 18.1839 11.4859 19.3706C11.4442 19.6761 11.2874 19.9527 11.0492 20.141C10.811 20.3292 10.5104 20.4141 10.2118 20.3775C10.0588 20.3644 9.91008 20.3191 9.77495 20.2443C9.63982 20.1695 9.52121 20.0669 9.42656 19.9428C9.33192 19.8188 9.26328 19.676 9.22495 19.5234C9.18662 19.3708 9.17943 19.2118 9.20383 19.0562C9.38092 17.5003 9.57716 15.9482 9.75904 14.3932C9.82598 13.7986 10.1187 13.255 10.5737 12.8804C11.5769 12.0101 12.5686 11.124 13.5938 10.2802C14.5723 9.41488 15.8279 8.951 17.1194 8.97767C17.5459 8.9553 17.9689 9.06648 18.3323 9.29647C18.6958 9.52647 18.9825 9.86442 19.1545 10.2655C19.6476 11.3285 20.0635 12.4275 20.399 13.5533C20.523 14.0808 20.7711 14.569 21.1216 14.9754C21.472 15.3817 21.9141 15.6938 22.4092 15.8843C23.2832 16.2665 24.1323 16.6987 24.9938 17.1201C25.2589 17.2444 25.466 17.4703 25.5707 17.7494C25.6753 18.0285 25.6693 18.3386 25.5538 18.6132C25.4997 18.7504 25.4186 18.8746 25.3156 18.9782C25.2125 19.0817 25.0898 19.1623 24.955 19.2148C24.8202 19.2674 24.6762 19.2908 24.5322 19.2837C24.3882 19.2765 24.2471 19.2389 24.1179 19.1731C22.7117 18.5228 21.2969 17.8853 19.9356 17.1456C19.4935 16.8185 19.115 16.4094 18.8195 15.9394C18.6836 15.6947 18.5273 15.4627 18.3523 15.2458C18.1609 16.1928 18.0345 17.1584 17.7665 18.0808C17.6537 18.4584 17.6316 18.8585 17.7021 19.2468C17.7726 19.6351 17.9336 20.0001 18.1714 20.3107C19.9902 23.1692 21.7544 26.068 23.5321 28.955C23.6654 29.1386 23.7601 29.3486 23.8101 29.5717C23.8601 29.7948 23.8643 30.0261 23.8226 30.251C23.7808 30.4759 23.6939 30.6894 23.5675 30.878C23.441 31.0666 23.2777 31.2261 23.0879 31.3465C22.8982 31.4668 22.6861 31.5454 22.4652 31.5772C22.2442 31.6089 22.0193 31.5932 21.8046 31.531C21.5899 31.4688 21.3902 31.3614 21.218 31.2158C21.0459 31.0701 20.9052 30.8893 20.8048 30.6849C19.3747 28.3578 17.9331 26.0385 16.4972 23.7105C15.4988 22.0867 14.4994 20.4639 13.5297 18.8224C13.3868 18.5575 13.3346 18.2511 13.3813 17.9521C13.6895 16.2949 14.0361 14.6397 14.4008 12.8166Z" fill="#ED5C18"/>
<path d="M22.2062 31.9646C21.8547 31.9565 21.5117 31.852 21.2127 31.6621C20.9138 31.4721 20.6698 31.2034 20.5061 30.8841C19.7652 29.6791 19.0221 28.4748 18.2767 27.2711C17.5849 26.1513 16.8938 25.0315 16.2033 23.9116L16.1583 23.837C15.1905 22.2652 14.1892 20.6366 13.2339 19.0167C13.0467 18.6753 12.9792 18.2783 13.0424 17.892C13.2693 16.6484 13.521 15.4126 13.7843 14.1051L13.8551 13.7545C13.4832 14.0527 13.1337 14.3795 12.8098 14.7319C12.5501 15.0622 12.3797 15.4569 12.3158 15.8763C12.1847 16.6189 12.0919 17.3861 12.0019 18.1287C11.9492 18.5609 11.8956 18.9932 11.8363 19.4244C11.7801 19.8235 11.5742 20.1844 11.2626 20.4301C10.9509 20.6758 10.5581 20.7869 10.1678 20.7397C9.96893 20.7206 9.77597 20.6601 9.6007 20.5618C9.42544 20.4636 9.27154 20.3297 9.14843 20.1683C9.02532 20.0069 8.93557 19.8215 8.88469 19.6233C8.8338 19.4252 8.82285 19.2184 8.85249 19.0157C8.95588 18.1107 9.06341 17.206 9.17509 16.3016C9.25358 15.6523 9.33303 15.001 9.40865 14.3517C9.48676 13.6665 9.82272 13.0397 10.3449 12.6051C10.6135 12.372 10.8816 12.1382 11.149 11.9038C11.8717 11.2731 12.6174 10.6209 13.3727 10C14.4137 9.07696 15.7516 8.58338 17.127 8.61498C17.6207 8.59153 18.1096 8.72287 18.5287 8.99152C18.9478 9.26017 19.2773 9.6534 19.4733 10.1189L19.6044 10.4234C20.0562 11.4044 20.4357 12.4187 20.7397 13.4578C20.8505 13.9326 21.0737 14.372 21.3897 14.737C21.7056 15.102 22.1045 15.3813 22.5509 15.5501C23.2812 15.8694 24.0059 16.2269 24.7047 16.5727L25.1498 16.7928C25.4967 16.9584 25.767 17.2562 25.9034 17.623C26.0398 17.9898 26.0315 18.3968 25.8802 18.7574C25.8073 18.9383 25.6991 19.1021 25.5623 19.2386C25.4256 19.3751 25.2631 19.4815 25.0848 19.5513C24.9066 19.6211 24.7163 19.6529 24.5257 19.6445C24.335 19.6362 24.1481 19.5881 23.9762 19.503L23.4535 19.2623C22.2359 18.6994 20.9762 18.1189 19.7738 17.4647C19.3733 17.2071 19.0315 16.864 18.7716 16.4588C18.6979 16.3605 18.6242 16.2623 18.5505 16.1641L18.5447 16.1572V16.1729C18.4357 16.8495 18.291 17.5194 18.1111 18.1798C18.0134 18.507 17.9953 18.8538 18.0586 19.1898C18.1218 19.5258 18.2644 19.8408 18.4739 20.1071C19.9825 22.4735 21.472 24.9067 22.9137 27.2584L23.8336 28.7593C24.0313 29.0603 24.1523 29.4074 24.1858 29.7687C24.2192 30.1301 24.164 30.4943 24.025 30.8281C23.8858 31.1287 23.6742 31.3878 23.4102 31.5812C23.1462 31.7745 22.8386 31.8957 22.5164 31.9332C22.4139 31.9517 22.3103 31.9622 22.2062 31.9646ZM14.9541 11.8507L14.7463 12.89C14.6506 13.3537 14.5616 13.8065 14.4716 14.2525C14.2083 15.557 13.9585 16.7888 13.7336 18.0256C13.7018 18.2369 13.7381 18.4532 13.8369 18.6415C14.7894 20.2554 15.7888 21.8831 16.7547 23.4548L16.8006 23.5295C17.4898 24.6506 18.181 25.7702 18.874 26.888C19.6188 28.0917 20.3622 29.2963 21.1044 30.502C21.2188 30.7506 21.4077 30.9552 21.6435 31.0858C21.8793 31.2164 22.1496 31.2662 22.4149 31.2279C22.6199 31.208 22.8164 31.1343 22.9856 31.0138C23.1547 30.8934 23.2908 30.7303 23.3808 30.5403C23.4713 30.317 23.5053 30.0738 23.4797 29.8334C23.4541 29.5929 23.3697 29.363 23.2343 29.165L22.3135 27.6631C20.8776 25.3134 19.3862 22.8831 17.8814 20.5226C17.6171 20.167 17.4387 19.7522 17.3607 19.3122C17.2826 18.8722 17.3072 18.4196 17.4324 17.9912C17.6047 17.3559 17.7434 16.7116 17.8478 16.0609C17.8995 15.7662 17.9531 15.4774 18.0106 15.1877L18.1369 14.556L18.5974 14.9951C18.7455 15.1448 18.8693 15.3179 18.964 15.5079C19.0021 15.5836 19.0463 15.6558 19.0961 15.724C19.1765 15.8222 19.2541 15.9283 19.3326 16.0334C19.5357 16.3516 19.7978 16.6257 20.1041 16.8399C21.2873 17.4833 22.5355 18.059 23.7417 18.6159L24.2643 18.8576C24.351 18.903 24.4459 18.9294 24.543 18.9349C24.6402 18.9404 24.7374 18.925 24.8283 18.8897C24.9193 18.8543 25.0021 18.7998 25.0713 18.7297C25.1405 18.6595 25.1947 18.5753 25.2302 18.4823C25.3099 18.2939 25.3137 18.0808 25.2407 17.8895C25.1677 17.6983 25.0238 17.5444 24.8406 17.4617L24.3955 17.2417C23.7024 16.8989 22.9874 16.5452 22.2723 16.2319C21.7253 16.0204 21.2371 15.6746 20.8504 15.2248C20.4638 14.7749 20.1904 14.2347 20.0543 13.6513C19.7587 12.6477 19.3911 11.668 18.9544 10.7201L18.8233 10.4146C18.678 10.076 18.4348 9.79156 18.1265 9.59982C17.8182 9.40808 17.4599 9.31837 17.1002 9.34287C15.8932 9.31959 14.7206 9.75559 13.8082 10.5668C13.0616 11.1798 12.3197 11.8291 11.6065 12.4568C11.3379 12.6919 11.0689 12.9264 10.7996 13.1602C10.4136 13.4752 10.1651 13.9344 10.1084 14.4372C10.0318 15.0888 9.95365 15.74 9.87388 16.391C9.76475 17.2937 9.65563 18.1965 9.5532 19.0992C9.53471 19.2076 9.5386 19.3188 9.56463 19.4255C9.59066 19.5323 9.63825 19.6322 9.7043 19.7189C9.77035 19.8055 9.8534 19.877 9.94808 19.9287C10.0428 19.9803 10.147 20.011 10.2539 20.0187C10.4604 20.0431 10.6679 19.9837 10.8323 19.8532C10.9966 19.7227 11.1048 19.5314 11.1336 19.3203C11.193 18.8939 11.2456 18.4656 11.2973 18.0374C11.3931 17.2849 11.483 16.5069 11.618 15.7456C11.7044 15.1935 11.9339 14.6755 12.2823 14.2456C12.6735 13.8228 13.0956 13.4313 13.545 13.0747C13.746 12.9057 13.9547 12.7309 14.171 12.5413L14.9541 11.8507Z" fill="#ED5C18"/>
<path d="M12.8692 20.9421C13.5919 21.9333 14.2581 22.8439 14.9158 23.7614C14.9444 23.8061 14.9639 23.8564 14.9729 23.9091C14.982 23.9618 14.9805 24.0158 14.9684 24.0679C14.8035 25.0663 14.4528 26.0228 13.9355 26.8852C12.9285 28.1857 11.9981 29.5482 11.0293 30.8802C10.929 31.0619 10.7921 31.2196 10.6278 31.3429C10.4636 31.4662 10.2756 31.5523 10.0765 31.5954C9.87733 31.6385 9.67154 31.6376 9.47273 31.5929C9.27393 31.5482 9.08666 31.4607 8.92334 31.336C8.76143 31.2103 8.62694 31.0512 8.52853 30.869C8.43012 30.6868 8.36996 30.4854 8.35193 30.2779C8.33389 30.0704 8.35839 29.8613 8.42383 29.664C8.48927 29.4668 8.5942 29.2858 8.73189 29.1327C9.64895 27.8557 10.5832 26.5855 11.4869 25.2958C11.6905 24.9962 11.8447 24.6643 11.9435 24.3134C12.2594 23.2368 12.5399 22.1494 12.8692 20.9421Z" fill="#ED5C18"/>
<path d="M9.76573 31.9999C9.38518 31.9942 9.01632 31.8642 8.71275 31.6286C8.52768 31.4965 8.37054 31.3274 8.25078 31.1314C8.13103 30.9354 8.05112 30.7166 8.01587 30.4882C7.98206 30.2102 8.0024 29.9282 8.07569 29.6583C8.14898 29.3885 8.27376 29.1364 8.4428 28.9164C8.77146 28.458 9.10203 27.9996 9.43452 27.5412C10.0156 26.7377 10.6177 25.9076 11.1949 25.0854C11.3755 24.8181 11.5126 24.5225 11.6008 24.2102C11.8267 23.4449 12.0335 22.6728 12.2527 21.8526L12.5293 20.8408L12.7208 20.1316L13.5996 21.3369C14.1538 22.0972 14.6803 22.8172 15.2001 23.5422C15.2617 23.6327 15.3031 23.7361 15.3213 23.845C15.3395 23.9538 15.3341 24.0654 15.3054 24.1719C15.2317 24.4145 15.1714 24.663 15.1082 24.9184C14.9701 25.7069 14.6638 26.4543 14.2112 27.107C13.5412 27.9734 12.8893 28.887 12.2603 29.7691C11.9454 30.2111 11.6305 30.6532 11.3117 31.0933C11.1423 31.3591 10.9138 31.5799 10.645 31.7375C10.3763 31.8951 10.0749 31.9851 9.76573 31.9999ZM13.0204 21.7505L12.9419 22.0451C12.7208 22.8673 12.5121 23.6444 12.2852 24.4174C12.1743 24.8065 12.0023 25.1745 11.776 25.5068C11.1949 26.3359 10.5918 27.1689 10.0089 27.9744C9.6783 28.4328 9.34837 28.8912 9.01907 29.3497C8.90602 29.4928 8.82162 29.6574 8.7707 29.834C8.71978 30.0107 8.70334 30.1959 8.72232 30.3791C8.74369 30.5127 8.79116 30.6405 8.8619 30.7548C8.93264 30.8691 9.02518 30.9675 9.13394 31.0441C9.26046 31.1401 9.40567 31.2069 9.55966 31.24C9.71364 31.2731 9.87277 31.2717 10.0262 31.2358C10.1796 31.2 10.3236 31.1307 10.4485 31.0325C10.5734 30.9343 10.6762 30.8096 10.7498 30.6669C11.0689 30.2295 11.3841 29.7897 11.6956 29.3477C12.3283 28.4636 12.9831 27.5412 13.6637 26.662C14.0516 26.0886 14.3129 25.4352 14.4295 24.7475C14.4908 24.496 14.5539 24.2367 14.6324 23.9803V23.9636C14.1232 23.2554 13.5986 22.5363 13.0453 21.778L13.0204 21.7505Z" fill="#ED5C18"/>
<path d="M21.2202 5.18076C21.2207 5.73762 21.0598 6.28204 20.7579 6.74477C20.456 7.20749 20.0268 7.5676 19.5249 7.77926C19.0229 7.99093 18.471 8.04459 17.9393 7.93341C17.4076 7.82223 16.9201 7.55124 16.5389 7.15492C16.1577 6.7586 15.9 6.25488 15.7986 5.70783C15.6972 5.16078 15.7567 4.59514 15.9695 4.08289C16.1823 3.57063 16.5388 3.13492 16.9936 2.83119C17.4484 2.52745 17.981 2.36943 18.5236 2.37723C19.2408 2.39081 19.9243 2.69168 20.4282 3.21554C20.9321 3.7394 21.2163 4.44471 21.2202 5.18076Z" fill="#3F4450"/>
<path d="M18.4873 8.36051C17.6662 8.3512 16.8819 8.01008 16.3043 7.41114C15.7267 6.81219 15.4025 6.00373 15.4021 5.16111C15.4041 4.32065 15.7314 3.51544 16.312 2.92262C16.8926 2.3298 17.6788 1.99793 18.4979 2.00001C19.3169 2.00209 20.1015 2.33796 20.6792 2.93373C21.2569 3.5295 21.5803 4.33636 21.5783 5.17682C21.5788 6.01846 21.2544 6.82602 20.6759 7.42272C20.0975 8.01941 19.3123 8.35661 18.4921 8.36051H18.4873ZM18.4959 2.73675C17.8657 2.73825 17.2613 2.99424 16.8134 3.44938C16.3656 3.90451 16.1103 4.52222 16.1028 5.16896C16.1057 5.81789 16.3567 6.43972 16.8017 6.90078C17.2467 7.36184 17.8502 7.62532 18.4825 7.63458C19.1149 7.63094 19.7202 7.37061 20.1661 6.91045C20.612 6.45029 20.8623 5.82773 20.8623 5.17879C20.8606 4.53776 20.6139 3.923 20.1751 3.4667C19.7364 3.0104 19.1406 2.74901 18.516 2.73871L18.4959 2.73675Z" fill="#3F4450"/>
</svg>
