<svg width="22" height="21" viewBox="0 0 22 21" fill="none" xmlns="http://www.w3.org/2000/svg">
<path d="M11 0C16.615 0 21.1667 4.5517 21.1667 10.1667C21.1667 15.7816 16.615 20.3333 11 20.3333C9.20051 20.3333 7.51157 19.864 6.04503 19.0439L0.932469 20.1876L2.23338 15.314C1.34507 13.8038 0.833344 12.0454 0.833344 10.1667C0.833344 4.5517 5.38505 0 11 0ZM15.2018 13.2404C15.3802 12.7452 15.3802 12.3212 15.3247 12.2314C15.2704 12.1454 15.1298 12.0924 14.9146 11.9861C14.6994 11.8798 13.6455 11.3659 13.4476 11.296C13.2528 11.2261 13.1083 11.1897 12.9677 11.4023C12.8232 11.615 12.414 12.0928 12.2865 12.2318C12.1628 12.3745 12.0387 12.3911 11.8235 12.2847C11.6083 12.1784 10.917 11.956 10.0981 11.2329C9.46103 10.6725 9.03149 9.97901 8.90737 9.76678C8.78326 9.55455 8.89382 9.43848 9.00099 9.33216C9.09842 9.23938 9.21619 9.08688 9.32336 8.96404C9.42714 8.8378 9.464 8.75138 9.53474 8.60863C9.60887 8.46968 9.5716 8.34345 9.51822 8.23712C9.46485 8.13079 9.04844 7.08278 8.85696 6.66468C8.69642 6.31308 8.52782 6.30291 8.37362 6.29952C8.24866 6.29317 8.10421 6.29317 7.96357 6.29317C7.81912 6.29317 7.5874 6.3457 7.39 6.55835C7.19598 6.771 6.6419 7.2823 6.6419 8.32735C6.6419 9.36859 7.40737 10.3776 7.51496 10.5166C7.62256 10.6593 8.99803 12.8685 11.1796 13.7178C12.9884 14.4214 13.3578 14.2821 13.7539 14.2456C14.1479 14.2122 15.0235 13.7343 15.2018 13.2404Z" fill="#ED5C18"/>
</svg>
