<svg width="55" height="55" viewBox="0 0 55 55" fill="none" xmlns="http://www.w3.org/2000/svg">
<g clip-path="url(#clip0_49_1303)">
<mask id="mask0_49_1303" style="mask-type:luminance" maskUnits="userSpaceOnUse" x="4" y="4" width="47" height="47">
<path d="M4 4H51V51H4V4Z" fill="white"/>
<path fill-rule="evenodd" clip-rule="evenodd" d="M44.4743 26.8074C44.9045 26.5962 45.2332 26.2227 45.3881 25.7691C45.543 25.3156 45.5115 24.819 45.3004 24.3887L40.5335 14.6471C40.4291 14.4339 40.2837 14.2434 40.1056 14.0864C39.9275 13.9294 39.7203 13.8091 39.4957 13.7322C39.2711 13.6553 39.0335 13.6234 38.7966 13.6383C38.5597 13.6533 38.328 13.7147 38.1148 13.8192L34.8682 15.4099C34.4382 15.6209 34.1094 15.9939 33.9542 16.4471C33.799 16.9002 33.8299 17.3965 34.0403 17.8268L38.809 27.5685C38.9135 27.7816 39.0589 27.9722 39.2369 28.1291C39.415 28.2861 39.6223 28.4065 39.8469 28.4834C40.0715 28.5602 40.309 28.5921 40.5459 28.5772C40.7829 28.5623 41.0145 28.5008 41.2277 28.3964L44.4743 26.8074ZM37.484 16.6428C37.1611 16.801 36.9142 17.081 36.7978 17.4212C36.6814 17.7614 36.7048 18.1339 36.863 18.4568C37.0212 18.7797 37.3012 19.0265 37.6414 19.143C37.9816 19.2594 38.3541 19.2359 38.677 19.0777C38.9999 18.9195 39.2468 18.6395 39.3632 18.2993C39.4797 17.9591 39.4562 17.5866 39.298 17.2637C39.1398 16.9408 38.8598 16.694 38.5196 16.5775C38.1794 16.4611 37.8069 16.4846 37.484 16.6428ZM16.7009 14.2458C16.267 14.0421 15.77 14.0191 15.3192 14.1818C14.8683 14.3445 14.5005 14.6796 14.2967 15.1135L9.68889 24.9328C9.48522 25.3667 9.46221 25.8638 9.62493 26.3146C9.78764 26.7655 10.1228 27.1333 10.5566 27.3371L13.8303 28.8736C14.2642 29.0773 14.7612 29.1003 15.2121 28.9376C15.6629 28.7749 16.0307 28.4397 16.2345 28.0059L20.8442 18.1865C20.9449 17.9716 21.0024 17.7389 21.0133 17.5017C21.0241 17.2646 20.9881 17.0276 20.9074 16.8043C20.8266 16.5811 20.7027 16.3759 20.5427 16.2005C20.3826 16.0252 20.1896 15.8831 19.9747 15.7823L16.7009 14.2458ZM13.1542 26.0608C13.3156 26.1376 13.4905 26.1817 13.6689 26.1906C13.8474 26.1996 14.0258 26.1731 14.194 26.1129C14.3622 26.0526 14.5168 25.9597 14.649 25.8395C14.7812 25.7192 14.8883 25.5741 14.9641 25.4123C15.04 25.2506 15.0832 25.0754 15.0911 24.8969C15.0991 24.7184 15.0717 24.5401 15.0105 24.3723C14.9493 24.2044 14.8555 24.0503 14.7346 23.9188C14.6136 23.7873 14.4679 23.681 14.3057 23.606C13.9805 23.4556 13.609 23.4401 13.2724 23.5628C12.9358 23.6855 12.6614 23.9364 12.5092 24.2608C12.3571 24.5852 12.3395 24.9566 12.4604 25.2939C12.5812 25.6312 12.8307 25.9069 13.1542 26.0608Z" fill="black"/>
<path d="M34.9343 19.3545L34.9596 19.3508H34.9651C35.229 19.3162 35.482 19.2237 35.7061 19.08C35.9301 18.9362 36.1197 18.7448 36.2612 18.5193L36.5233 17.3226C36.4923 17.0871 36.4152 16.8599 36.2964 16.6542C36.1776 16.4485 36.0194 16.2682 35.8309 16.1236C35.6424 15.9791 35.4272 15.8731 35.1977 15.8118C34.9681 15.7504 34.7288 15.7349 34.4933 15.7662H34.4824L34.4463 15.7716L34.3251 15.7897L33.8804 15.853C33.5026 15.9108 32.9766 15.9976 32.371 16.106C31.1761 16.3266 29.6034 16.661 28.2639 17.1075C27.4957 17.3642 26.7328 17.836 26.0622 18.3277C25.3698 18.8338 24.6666 19.4394 24.005 20.054C22.8358 21.159 21.7181 22.3171 20.6554 23.5248C19.6485 24.6637 19.3629 26.5599 20.6246 27.9283C21.2501 28.608 22.2877 29.5336 23.6814 29.953C25.1782 30.4049 26.8738 30.206 28.5297 28.9858L29.833 28.1435C29.9764 28.2519 30.1391 28.3833 30.3211 28.5375C30.773 28.9172 31.2701 29.3673 31.7383 29.8083C32.2698 30.3094 32.7923 30.8198 33.3056 31.3395L33.4032 31.4389L33.4267 31.4642L33.4339 31.4714L33.6473 31.692L33.922 31.8275C34.9705 32.3518 36.0605 32.1348 36.7655 31.8998C37.5193 31.645 38.237 31.2292 38.8154 30.846C39.5413 30.3585 40.2285 29.8158 40.8708 29.2227L40.9069 29.1883L40.9196 29.1775L40.9232 29.1738C41.0956 29.0105 41.2359 28.8149 41.3326 28.598C41.4293 28.3812 41.4824 28.1474 41.4888 27.91C41.4951 27.6727 41.4547 27.4364 41.3698 27.2147C41.2848 26.9929 41.157 26.7901 40.9937 26.6178C40.8304 26.4454 40.6347 26.3069 40.4179 26.2102C40.201 26.1135 39.9673 26.0604 39.7299 26.054C39.4925 26.0477 39.2563 26.0881 39.0345 26.173C38.8128 26.258 38.61 26.3858 38.4376 26.5491L38.4358 26.5509L38.4159 26.569L38.3256 26.6521C37.848 27.0793 37.3425 27.4742 36.8125 27.8343C36.4397 28.0975 36.0352 28.3125 35.6086 28.4743L35.567 28.4869L35.4893 28.411C35.1124 28.0352 34.731 27.6639 34.345 27.2975L34.2185 27.1763C33.7068 26.6918 33.1818 26.2216 32.644 25.7663C32.1433 25.347 31.572 24.9023 31.0604 24.6221C29.9162 23.9948 28.837 24.4847 28.3507 24.7974L26.4653 26.0158L26.4147 26.0538C25.6356 26.6377 25.1077 26.6069 24.7245 26.4912C24.3159 26.3683 23.9038 26.0845 23.5314 25.732C24.4641 24.6781 25.4436 23.6665 26.4671 22.7005C27.0673 22.1419 27.6584 21.6394 28.1953 21.2453C28.7556 20.8368 29.1642 20.618 29.4064 20.5385C30.5055 20.1715 31.8811 19.8733 33.0218 19.6636C33.6224 19.5536 34.2251 19.4554 34.8295 19.3689L34.9343 19.3545Z" fill="black"/>
<path fill-rule="evenodd" clip-rule="evenodd" d="M19.5978 16.784C19.1688 16.9728 18.8299 17.3209 18.6526 17.7548C18.4753 18.1886 18.4735 18.6744 18.6474 19.1096C18.8214 19.5448 19.1577 19.8955 19.5852 20.0875C20.0127 20.2796 20.4982 20.2981 20.9391 20.1391L20.9861 20.121L21.1271 20.0668C21.8346 19.7877 22.5457 19.5177 23.2602 19.257C23.8694 19.0346 24.4858 18.8213 24.9956 18.664C25.2384 18.5892 25.4838 18.5228 25.7313 18.4652L25.8307 18.4797C25.9404 18.4965 26.079 18.523 26.2465 18.5592C26.5773 18.6333 26.9641 18.7363 27.3419 18.8448C27.7732 18.9679 28.2023 19.0987 28.629 19.2371L28.7104 19.2642L28.7284 19.2714H28.7339C29.1867 19.4159 29.6781 19.3762 30.1019 19.161C30.5256 18.9457 30.8476 18.5723 30.998 18.1214C31.1485 17.6706 31.1153 17.1786 30.9057 16.7521C30.6961 16.3255 30.3269 15.9986 29.8781 15.8422L29.3196 17.5198L29.8799 15.8422L29.8673 15.8386L29.842 15.8314L29.748 15.8007C29.2796 15.6469 28.8083 15.5022 28.3344 15.3668C27.9026 15.2423 27.4674 15.1302 27.0292 15.0306C26.5909 14.9229 26.1426 14.8611 25.6915 14.8462C25.3535 14.8462 25.01 14.9185 24.7859 14.9727C24.5201 15.0342 24.2255 15.1173 23.9308 15.2077C23.2902 15.4099 22.6543 15.6268 22.0237 15.8585C21.2789 16.1301 20.5377 16.4116 19.8002 16.7027L19.652 16.7605L19.5978 16.784ZM16.9839 27.0843L17.0399 27.1367L17.2044 27.2885C18.0253 28.0506 18.8533 28.8051 19.6882 29.5518C20.4004 30.1881 21.1361 30.8316 21.758 31.345C22.0713 31.6053 22.3376 31.8174 22.557 31.9813C22.7016 32.0874 22.798 32.1554 22.8462 32.1856L27.9728 34.1072C28.2717 34.2192 28.5948 34.2501 28.9095 34.1967C29.2241 34.1434 29.519 34.0077 29.7642 33.8035L33.5731 30.631C33.7545 30.4723 33.9658 30.3514 34.1946 30.2756C34.4234 30.1998 34.6651 30.1705 34.9054 30.1894C35.1456 30.2083 35.3797 30.2751 35.5938 30.3859C35.8079 30.4966 35.9977 30.6491 36.152 30.8342C36.3063 31.0194 36.422 31.2336 36.4924 31.4641C36.5627 31.6947 36.5862 31.937 36.5615 32.1767C36.5368 32.4165 36.4644 32.6489 36.3485 32.8603C36.2327 33.0717 36.0757 33.2578 35.8869 33.4076L32.0799 36.5819C31.3441 37.1949 30.459 37.6022 29.5147 37.7622C28.5704 37.9223 27.6006 37.8294 26.7038 37.493L21.3531 35.4864L21.2681 35.443C20.7601 35.19 20.0533 34.6296 19.4532 34.1307C18.7176 33.5171 17.9932 32.8904 17.2803 32.2507C16.4273 31.4878 15.5819 30.7164 14.7441 29.9368L14.5742 29.7795L14.5146 29.7253C14.1643 29.3979 13.9585 28.9447 13.9424 28.4655C13.9263 27.9863 14.1012 27.5204 14.4287 27.1701C14.7561 26.8199 15.2093 26.6141 15.6885 26.598C16.1677 26.5819 16.6336 26.7568 16.9839 27.0843ZM15.6317 36.2836C15.784 36.1014 15.9706 35.9509 16.181 35.8408C16.3915 35.7307 16.6215 35.6632 16.858 35.642C17.0946 35.6209 17.333 35.6465 17.5596 35.7175C17.7862 35.7885 17.9966 35.9035 18.1787 36.0558L19.9105 37.502C20.1694 37.7184 20.4838 37.8581 20.818 37.9051L23.0541 38.2178C23.2892 38.2508 23.5156 38.3298 23.7202 38.4503C23.9248 38.5708 24.1037 38.7304 24.2466 38.9199C24.3895 39.1095 24.4937 39.3254 24.5532 39.5553C24.6127 39.7852 24.6263 40.0245 24.5933 40.2596C24.5603 40.4948 24.4814 40.7211 24.3609 40.9257C24.2404 41.1303 24.0808 41.3092 23.8912 41.4521C23.7016 41.5951 23.4857 41.6992 23.2559 41.7587C23.026 41.8182 22.7867 41.8319 22.5516 41.7989L20.3172 41.4862C19.3141 41.3454 18.3703 40.9264 17.5931 40.2768L15.8613 38.8307C15.6786 38.6785 15.5278 38.4918 15.4174 38.2813C15.307 38.0708 15.2391 37.8406 15.2178 37.6038C15.1965 37.3671 15.2221 37.1285 15.2931 36.9016C15.3641 36.6748 15.4792 36.4659 15.6317 36.2836Z" fill="black"/>
</mask>
<g mask="url(#mask0_49_1303)">
<path d="M27.5 51C40.4787 51 51 40.4787 51 27.5C51 14.5213 40.4787 4 27.5 4C14.5213 4 4 14.5213 4 27.5C4 40.4787 14.5213 51 27.5 51Z" fill="#DF6D27"/>
</g>
</g>
<defs>
<clipPath id="clip0_49_1303">
<rect width="47" height="47" fill="white" transform="translate(4 4)"/>
</clipPath>
</defs>
</svg>
