<svg width="55" height="55" viewBox="0 0 55 55" fill="none" xmlns="http://www.w3.org/2000/svg">
<path d="M4.58398 43.5418C4.58398 47.4377 7.56315 50.4168 11.459 50.4168H43.5423C47.4381 50.4168 50.4173 47.4377 50.4173 43.5418V25.2085H4.58398V43.5418ZM43.5423 9.16683H38.959V6.87516C38.959 5.50016 38.0423 4.5835 36.6673 4.5835C35.2923 4.5835 34.3756 5.50016 34.3756 6.87516V9.16683H20.6257V6.87516C20.6257 5.50016 19.709 4.5835 18.334 4.5835C16.959 4.5835 16.0423 5.50016 16.0423 6.87516V9.16683H11.459C7.56315 9.16683 4.58398 12.146 4.58398 16.0418V20.6252H50.4173V16.0418C50.4173 12.146 47.4381 9.16683 43.5423 9.16683Z" fill="#ED5C18"/>
</svg>
