<svg width="55" height="55" viewBox="0 0 55 55" fill="none" xmlns="http://www.w3.org/2000/svg">
<g clip-path="url(#clip0_49_86)">
<path d="M40.2836 10.1567L35.7002 7.75046C31.6761 5.63983 29.664 4.58337 27.5006 4.58337C25.3373 4.58337 23.3252 5.63754 19.3011 7.75046L18.5654 8.13775L39.014 19.823L48.2173 15.2167C46.7369 13.5392 44.349 12.2857 40.2836 10.1521M49.8398 18.2509L40.6777 22.8342V29.7917C40.6777 30.2475 40.4967 30.6847 40.1743 31.007C39.852 31.3294 39.4148 31.5105 38.959 31.5105C38.5031 31.5105 38.066 31.3294 37.7436 31.007C37.4213 30.6847 37.2402 30.2475 37.2402 29.7917V24.553L29.2194 28.5634V50.1967C30.8648 49.7865 32.7371 48.8057 35.7002 47.2496L40.2836 44.8434C45.2129 42.2561 47.6788 40.9636 49.0492 38.6375C50.4173 36.3138 50.4173 33.4194 50.4173 27.6375V27.3694C50.4173 23.0313 50.4173 20.318 49.8398 18.2509ZM25.7819 50.1967V28.5634L5.16148 18.2509C4.58398 20.318 4.58398 23.0313 4.58398 27.3648V27.633C4.58398 33.4194 4.58398 36.3138 5.95211 38.6375C7.32253 40.9636 9.78836 42.2584 14.7177 44.8457L19.3011 47.2496C22.2642 48.8057 24.1365 49.7865 25.7819 50.1967ZM6.78398 15.219L27.5006 25.5773L35.3175 21.67L14.9538 10.033L14.7177 10.1567C10.6546 12.288 8.2644 13.5415 6.78398 15.2213" fill="#DF6D27"/>
</g>
<defs>
<clipPath id="clip0_49_86">
<rect width="55" height="55" fill="white"/>
</clipPath>
</defs>
</svg>
