<svg width="55" height="55" viewBox="0 0 55 55" fill="none" xmlns="http://www.w3.org/2000/svg">
<path d="M26.2922 24.3671C28.5952 24.3671 30.8038 23.4522 32.4323 21.8238C34.0607 20.1954 34.9755 17.9867 34.9755 15.6838C34.9755 13.3808 34.0607 11.1722 32.4323 9.54377C30.8038 7.91533 28.5952 7.00049 26.2922 7.00049C23.9893 7.00049 21.7807 7.91533 20.1522 9.54377C18.5238 11.1722 17.6089 13.3808 17.6089 15.6838C17.6089 17.9867 18.5238 20.1954 20.1522 21.8238C21.7807 23.4522 23.9893 24.3671 26.2922 24.3671ZM12.1819 30.8796C13.6212 30.8796 15.0016 30.3078 16.0194 29.29C17.0372 28.2722 17.6089 26.8918 17.6089 25.4525C17.6089 24.0132 17.0372 22.6328 16.0194 21.615C15.0016 20.5972 13.6212 20.0254 12.1819 20.0254C10.7425 20.0254 9.36213 20.5972 8.34436 21.615C7.32659 22.6328 6.75481 24.0132 6.75481 25.4525C6.75481 26.8918 7.32659 28.2722 8.34436 29.29C9.36213 30.3078 10.7425 30.8796 12.1819 30.8796ZM45.8297 25.4525C45.8297 26.8918 45.2579 28.2722 44.2401 29.29C43.2223 30.3078 41.8419 30.8796 40.4026 30.8796C38.9633 30.8796 37.5829 30.3078 36.5651 29.29C35.5473 28.2722 34.9755 26.8918 34.9755 25.4525C34.9755 24.0132 35.5473 22.6328 36.5651 21.615C37.5829 20.5972 38.9633 20.0254 40.4026 20.0254C41.8419 20.0254 43.2223 20.5972 44.2401 21.615C45.2579 22.6328 45.8297 24.0132 45.8297 25.4525ZM26.2922 26.5379C29.1709 26.5379 31.9317 27.6815 33.9673 29.717C36.0028 31.7526 37.1464 34.5133 37.1464 37.392V50.417H15.4381V37.392C15.4381 34.5133 16.5817 31.7526 18.6172 29.717C20.6528 27.6815 23.4135 26.5379 26.2922 26.5379ZM11.0965 37.392C11.0965 35.8877 11.3135 34.4354 11.7217 33.0634L11.3526 33.0938C9.49196 33.2981 7.7722 34.1821 6.5231 35.5762C5.27401 36.9703 4.5835 38.7764 4.58398 40.6483V50.417H11.0965V37.392ZM48.0005 50.417V40.6483C48.0007 38.7127 47.2622 36.85 45.9358 35.4404C44.6093 34.0308 42.7948 33.1807 40.8628 33.0634C41.2688 34.4354 41.488 35.8877 41.488 37.392V50.417H48.0005Z" fill="#ED5C18"/>
</svg>
