<svg width="55" height="55" viewBox="0 0 55 55" fill="none" xmlns="http://www.w3.org/2000/svg">
<path d="M28.6452 16.0417C28.6452 13.498 30.6848 11.4584 33.2285 11.4584H41.2493C43.7702 11.4584 45.8327 13.5209 45.8327 16.0417V20.9917C43.1743 21.9313 41.2493 24.4521 41.2493 27.4313V32.0834H28.6452V16.0417ZM13.7493 27.4084V32.0834H26.3535V16.0417C26.3535 13.498 24.3139 11.4584 21.7702 11.4584H13.7493C11.2285 11.4584 9.16602 13.5209 9.16602 16.0417V20.9688C11.8243 21.9084 13.7493 24.4521 13.7493 27.4084ZM47.3452 22.9855C45.0993 23.3521 43.541 25.4834 43.541 27.775V34.375H11.4577V27.5C11.4577 26.2845 10.9748 25.1187 10.1153 24.2591C9.25571 23.3996 8.08992 22.9167 6.87435 22.9167C5.65877 22.9167 4.49298 23.3996 3.63344 24.2591C2.7739 25.1187 2.29102 26.2845 2.29102 27.5V38.9584C2.29102 41.4792 4.35352 43.5417 6.87435 43.5417V48.125H11.4577V43.5417H43.541V48.125H48.1243V43.5417C50.6452 43.5417 52.7077 41.4792 52.7077 38.9584V27.5C52.7077 24.7271 50.2098 22.5042 47.3452 22.9855Z" fill="#DF6D27"/>
</svg>
