<svg width="55" height="55" viewBox="0 0 55 55" fill="none" xmlns="http://www.w3.org/2000/svg">
<path d="M27.4219 4.00236C24.908 3.96284 22.4111 4.4194 20.0739 5.34593C17.7367 6.27245 15.6051 7.65076 13.8012 9.40197C11.9972 11.1532 10.5563 13.2429 9.5609 15.5516C8.56546 17.8603 8.03504 20.3426 8 22.8565C8 29.8783 10.988 33.5535 15.0815 38.6629C18.4579 43.1449 22.7606 47.4177 26.3163 51.332C26.4561 51.4812 26.625 51.6002 26.8126 51.6816C27.0002 51.7629 27.2025 51.8049 27.4069 51.8049C27.6114 51.8049 27.8137 51.7629 28.0013 51.6816C28.1889 51.6002 28.3578 51.4812 28.4975 51.332C32.0532 47.4177 36.3858 43.1449 39.7324 38.6629C43.7363 33.5535 46.8438 29.8783 46.8438 22.8565C46.5473 17.8555 44.3893 13.1467 40.7948 9.65724C37.2002 6.16773 32.4294 4.15037 27.4219 4.00236ZM27.4219 30.8942C25.9445 30.8942 24.5002 30.4561 23.2718 29.6353C22.0434 28.8145 21.0859 27.6478 20.5205 26.2829C19.9552 24.9179 19.8072 23.416 20.0955 21.9669C20.3837 20.5179 21.0951 19.1869 22.1398 18.1422C23.1845 17.0975 24.5155 16.386 25.9646 16.0978C27.4136 15.8096 28.9155 15.9575 30.2805 16.5229C31.6455 17.0883 32.8121 18.0457 33.6329 19.2742C34.4537 20.5026 34.8918 21.9468 34.8918 23.4242C34.8918 25.4054 34.1048 27.3054 32.7039 28.7063C31.303 30.1072 29.403 30.8942 27.4219 30.8942Z" fill="#ED5C18"/>
</svg>
