<svg width="55" height="55" viewBox="0 0 55 55" fill="none" xmlns="http://www.w3.org/2000/svg">
<path d="M28 3C41.8075 3 53 14.1925 53 28C53 41.8075 41.8075 53 28 53C14.1925 53 3 41.8075 3 28C3 14.1925 14.1925 3 28 3ZM28 13C27.337 13 26.7011 13.2634 26.2322 13.7322C25.7634 14.2011 25.5 14.837 25.5 15.5V28C25.5001 28.663 25.7636 29.2988 26.2325 29.7675L33.7325 37.2675C34.204 37.7229 34.8355 37.9749 35.491 37.9692C36.1465 37.9635 36.7735 37.7006 37.237 37.237C37.7006 36.7735 37.9635 36.1465 37.9692 35.491C37.9749 34.8355 37.7229 34.204 37.2675 33.7325L30.5 26.965V15.5C30.5 14.837 30.2366 14.2011 29.7678 13.7322C29.2989 13.2634 28.663 13 28 13Z" fill="#ED5C18"/>
</svg>
