<svg width="55" height="55" viewBox="0 0 55 55" fill="none" xmlns="http://www.w3.org/2000/svg">
<path fill-rule="evenodd" clip-rule="evenodd" d="M6.41602 10.1983C6.41602 8.50202 7.77035 7.12695 9.44102 7.12695H18.516C20.1867 7.12695 21.541 8.50202 21.541 10.1983V19.4122C21.541 21.1084 20.1867 22.4835 18.516 22.4835H9.44102C7.77035 22.4835 6.41602 21.1084 6.41602 19.4122V10.1983ZM12.466 16.3409V13.2696H15.491V16.3409H12.466Z" fill="#ED5C18"/>
<path fill-rule="evenodd" clip-rule="evenodd" d="M6.41602 37.84C6.41602 36.1437 7.77035 34.7687 9.44102 34.7687H18.516C20.1867 34.7687 21.541 36.1437 21.541 37.84V47.0539C21.541 48.7501 20.1867 50.1252 18.516 50.1252H9.44102C7.77035 50.1252 6.41602 48.7501 6.41602 47.0539V37.84ZM12.466 43.9826V40.9113H15.491V43.9826H12.466Z" fill="#ED5C18"/>
<path fill-rule="evenodd" clip-rule="evenodd" d="M36.666 7.12695C34.9954 7.12695 33.641 8.50202 33.641 10.1983V19.4122C33.641 21.1084 34.9954 22.4835 36.666 22.4835H45.741C47.4117 22.4835 48.766 21.1084 48.766 19.4122V10.1983C48.766 8.50202 47.4117 7.12695 45.741 7.12695H36.666ZM39.691 13.2696V16.3409H42.716V13.2696H39.691Z" fill="#ED5C18"/>
<path d="M30.616 10.1983C30.616 8.50202 29.2617 7.12695 27.591 7.12695C25.9204 7.12695 24.566 8.50202 24.566 10.1983V13.2696C24.566 14.9658 25.9204 16.3409 27.591 16.3409C29.2617 16.3409 30.616 14.9658 30.616 13.2696V10.1983Z" fill="#ED5C18"/>
<path d="M27.591 19.4122C29.2617 19.4122 30.616 20.7872 30.616 22.4835V25.5548H36.666C38.3367 25.5548 39.691 26.9298 39.691 28.6261C39.691 30.3223 38.3367 31.6974 36.666 31.6974H27.591C25.9204 31.6974 24.566 30.3223 24.566 28.6261V22.4835C24.566 20.7872 25.9204 19.4122 27.591 19.4122Z" fill="#ED5C18"/>
<path d="M45.741 25.5548C44.0704 25.5548 42.716 26.9298 42.716 28.6261C42.716 30.3223 44.0704 31.6974 45.741 31.6974C47.4117 31.6974 48.766 30.3223 48.766 28.6261C48.766 26.9298 47.4117 25.5548 45.741 25.5548Z" fill="#ED5C18"/>
<path d="M24.566 37.84C24.566 36.1437 25.9204 34.7687 27.591 34.7687H30.616C32.2867 34.7687 33.641 36.1437 33.641 37.84C33.641 39.5362 32.2867 40.9113 30.616 40.9113V47.0539C30.616 48.7501 29.2617 50.1252 27.591 50.1252C25.9204 50.1252 24.566 48.7501 24.566 47.0539V37.84Z" fill="#ED5C18"/>
<path d="M18.516 31.6974C20.1867 31.6974 21.541 30.3223 21.541 28.6261C21.541 26.9298 20.1867 25.5548 18.516 25.5548H9.44102C7.77035 25.5548 6.41602 26.9298 6.41602 28.6261C6.41602 30.3223 7.77035 31.6974 9.44102 31.6974H18.516Z" fill="#ED5C18"/>
<path d="M48.766 37.84C48.766 39.5362 47.4117 40.9113 45.741 40.9113H39.691C38.0204 40.9113 36.666 39.5362 36.666 37.84C36.666 36.1437 38.0204 34.7687 39.691 34.7687H45.741C47.4117 34.7687 48.766 36.1437 48.766 37.84Z" fill="#ED5C18"/>
<path d="M45.741 50.1252C47.4117 50.1252 48.766 48.7501 48.766 47.0539C48.766 45.3576 47.4117 43.9826 45.741 43.9826H36.666C34.9954 43.9826 33.641 45.3576 33.641 47.0539C33.641 48.7501 34.9954 50.1252 36.666 50.1252H45.741Z" fill="#ED5C18"/>
</svg>
