<svg width="55" height="55" viewBox="0 0 55 55" fill="none" xmlns="http://www.w3.org/2000/svg">
<path d="M23.6011 21.3698C22.6242 22.1643 21.6939 23.0201 20.8155 23.9324C20.3604 24.5163 20.0604 25.2157 19.9455 25.9601C19.6337 27.7663 19.4658 29.6011 19.2243 31.4208C19.1614 31.8889 18.9262 32.3126 18.569 32.601C18.2118 32.8895 17.761 33.0197 17.3134 32.9637C17.0838 32.9439 16.8605 32.8745 16.6577 32.7599C16.4548 32.6452 16.2768 32.4878 16.1347 32.2976C15.9926 32.1073 15.8896 31.8883 15.8321 31.6543C15.7747 31.4203 15.7639 31.1763 15.8006 30.9378C16.0661 28.5529 16.3619 26.1731 16.6338 23.7882C16.7325 22.8802 17.1672 22.0491 17.8443 21.4738C19.3491 20.1321 20.8378 18.7803 22.3762 17.4873C23.8439 16.1606 25.7272 15.4492 27.6645 15.4898C28.3042 15.4549 28.9389 15.6251 29.4842 15.9777C30.0295 16.3303 30.4596 16.8486 30.7172 17.4638C31.4593 19.0936 32.0858 20.7787 32.5913 22.5052C32.7779 23.3145 33.1509 24.0635 33.6775 24.6865C34.2041 25.3096 34.8684 25.7877 35.612 26.0791C36.9233 26.6645 38.2026 27.3269 39.4883 27.9743C39.886 28.1648 40.1966 28.5113 40.3535 28.9392C40.5105 29.3672 40.5013 29.8426 40.3278 30.2636C40.2468 30.4735 40.1253 30.6637 39.971 30.8222C39.8166 30.9807 39.6328 31.1041 39.4309 31.1847C39.2291 31.2653 39.0135 31.3013 38.7978 31.2906C38.582 31.2798 38.3707 31.2225 38.177 31.1222C36.0742 30.121 33.949 29.1432 31.9069 28.0145C31.2441 27.5143 30.6763 26.8886 30.2326 26.1697C30.0289 25.7947 29.7946 25.4389 29.5322 25.1064C29.2476 26.5571 29.0525 28.0397 28.6527 29.4535C28.4834 30.0326 28.4502 30.6461 28.556 31.2416C28.6618 31.8371 28.9035 32.3969 29.2604 32.8731C31.9949 37.2387 34.635 41.6898 37.2959 46.1274C37.4974 46.4087 37.6408 46.731 37.7169 47.0736C37.7931 47.4163 37.8003 47.7718 37.7382 48.1176C37.676 48.4633 37.5459 48.7917 37.356 49.0818C37.1661 49.3718 36.9207 49.6172 36.6354 49.8022C36.3501 49.9873 36.0311 50.108 35.6988 50.1566C35.3666 50.2052 35.0283 50.1807 34.7056 50.0845C34.3829 49.9884 34.0828 49.8228 33.8245 49.5983C33.5662 49.3738 33.3554 49.0953 33.2054 48.7806C31.0594 45.2117 28.8958 41.6562 26.7498 38.089C25.2514 35.6001 23.753 33.1113 22.2978 30.5939C22.0815 30.1858 22.0026 29.7132 22.074 29.2523C22.5297 26.703 23.0494 24.1572 23.6011 21.3698Z" fill="#ED5C18"/>
<path d="M35.3064 50.7263C34.7776 50.7154 34.2613 50.5559 33.8113 50.2644C33.3613 49.973 32.994 49.5603 32.7478 49.0693C31.637 47.2211 30.5224 45.3763 29.4041 43.5348C28.3657 41.8186 27.3285 40.1012 26.2922 38.3827L26.2235 38.2687C24.7715 35.857 23.2699 33.3614 21.8355 30.8776C21.5536 30.3547 21.4509 29.7462 21.5445 29.1536C21.8851 27.2467 22.2593 25.3515 22.6638 23.3474L22.771 22.8107C22.2128 23.2677 21.6884 23.7684 21.2023 24.3084C20.8124 24.8147 20.5565 25.4197 20.4603 26.0626C20.2636 27.2014 20.1245 28.3771 19.9885 29.5175C19.9086 30.18 19.8286 30.8424 19.7407 31.5049C19.6556 32.1161 19.3465 32.6684 18.8791 33.0442C18.4117 33.4201 17.823 33.5899 17.2381 33.5174C16.9397 33.4883 16.6502 33.3956 16.3872 33.245C16.1241 33.0944 15.8932 32.8891 15.7085 32.6417C15.5237 32.3943 15.3891 32.1099 15.3128 31.806C15.2365 31.5021 15.2202 31.185 15.2648 30.8743C15.4193 29.4867 15.5793 28.0998 15.7445 26.7134C15.8628 25.7172 15.9812 24.7193 16.0947 23.7231C16.2109 22.6703 16.7155 21.7071 17.5003 21.0397L18.7076 19.9646C19.7918 18.9969 20.9112 17.9974 22.0434 17.0465C23.6081 15.629 25.6197 14.8727 27.6867 14.9249C28.4269 14.8894 29.16 15.091 29.7884 15.5029C30.4167 15.9148 30.9108 16.5175 31.2047 17.2309L31.4014 17.6972C32.0791 19.2012 32.6484 20.7563 33.1044 22.3495C33.2706 23.0777 33.6058 23.7516 34.08 24.3113C34.5542 24.871 35.153 25.2992 35.8229 25.5578C36.9183 26.0475 38.0057 26.596 39.0547 27.1259L39.7216 27.4614C40.2439 27.7149 40.651 28.1725 40.856 28.7366C41.0609 29.3006 41.0475 29.9263 40.8186 30.4802C40.7092 30.7575 40.5469 31.0086 40.3418 31.2179C40.1367 31.4272 39.8929 31.5904 39.6256 31.6975C39.3582 31.8046 39.0728 31.8533 38.7868 31.8406C38.5009 31.828 38.2204 31.7543 37.9625 31.624L37.179 31.255C35.3528 30.393 33.4626 29.5024 31.6588 28.4995C31.058 28.1043 30.5453 27.5781 30.1557 26.9565C30.0454 26.8056 29.935 26.6547 29.8231 26.5121L29.8151 26.497V26.5205C29.6515 27.5579 29.4342 28.5853 29.1642 29.598C29.0174 30.0996 28.9902 30.6314 29.085 31.1466C29.1798 31.6618 29.3937 32.1448 29.7079 32.5531C31.9707 36.1824 34.2062 39.9123 36.3682 43.5181L37.7483 45.8208C38.0444 46.2824 38.2256 46.8145 38.2753 47.3685C38.325 47.9225 38.2417 48.4807 38.0329 48.9922C37.8239 49.4528 37.5065 49.85 37.1106 50.1464C36.7148 50.4427 36.2534 50.6285 35.7702 50.6861C35.6168 50.7117 35.4618 50.7252 35.3064 50.7263ZM24.4325 19.8875L24.1206 21.4808C23.9815 22.1918 23.844 22.8862 23.7097 23.5688C23.3147 25.5696 22.9389 27.458 22.6031 29.3531C22.5564 29.6778 22.6126 30.0095 22.763 30.2974C24.191 32.7728 25.691 35.2633 27.1398 37.6767L27.2085 37.7907C28.2352 39.5058 29.2692 41.2199 30.3108 42.9328C31.428 44.7787 32.5432 46.6235 33.6561 48.4673C33.8276 48.8485 34.1108 49.1622 34.4644 49.3625C34.818 49.5629 35.2234 49.6394 35.6215 49.5808C35.9299 49.5499 36.2255 49.4359 36.4796 49.2499C36.7337 49.0639 36.9377 48.8122 37.0718 48.5192C37.2082 48.1765 37.2596 47.8031 37.2213 47.4339C37.183 47.0647 37.0562 46.7117 36.8528 46.4077L35.4663 44.1067C33.3075 40.5043 31.0736 36.7777 28.8172 33.1585C28.4207 32.6131 28.153 31.9769 28.036 31.3021C27.9189 30.6272 27.956 29.9329 28.144 29.276C28.4026 28.3018 28.6108 27.3137 28.7677 26.3159C28.846 25.8681 28.9276 25.4203 29.0123 24.9742L29.2026 24.0048L29.8934 24.6757C30.1156 24.9048 30.3013 25.1698 30.4435 25.4606C30.5005 25.578 30.5669 25.6902 30.6418 25.796C30.7618 25.9503 30.8785 26.1096 30.9968 26.2706C31.3017 26.7583 31.6951 27.1783 32.1546 27.5066C33.9296 28.4928 35.8021 29.3749 37.6139 30.2303L38.3975 30.6009C38.5275 30.6708 38.67 30.7113 38.8159 30.7199C38.9618 30.7285 39.1077 30.7049 39.2444 30.6507C39.381 30.5965 39.5053 30.5129 39.6093 30.4052C39.7132 30.2976 39.7945 30.1683 39.8479 30.0257C39.9677 29.7369 39.9735 29.4102 39.8641 29.1169C39.7547 28.8237 39.539 28.5878 39.2642 28.4609L38.5958 28.1255C37.5564 27.6005 36.4834 27.0572 35.4104 26.5775C34.5924 26.2547 33.8619 25.7272 33.2825 25.0409C32.7031 24.3546 32.2923 23.5303 32.0858 22.6396C31.6423 21.1007 31.0907 19.5984 30.4355 18.145L30.2388 17.6771C30.0209 17.1575 29.6555 16.7209 29.1926 16.4268C28.7296 16.1327 28.1915 15.9954 27.6515 16.0335C25.8404 15.9976 24.0808 16.6661 22.7118 17.9102C21.5924 18.851 20.4731 19.8456 19.4017 20.8082C18.9987 21.1682 18.5952 21.5277 18.1911 21.8866C17.6119 22.3705 17.2392 23.0755 17.1549 23.8472C17.0398 24.8456 16.9225 25.844 16.8031 26.8425C16.6432 28.2261 16.4833 29.6097 16.3234 30.995C16.2954 31.1614 16.3011 31.332 16.3401 31.4959C16.3791 31.6597 16.4506 31.8131 16.5498 31.9462C16.649 32.0792 16.7738 32.1888 16.9161 32.2679C17.0584 32.3471 17.2149 32.3939 17.3756 32.4055C17.6851 32.4428 17.9963 32.3518 18.2427 32.1519C18.4892 31.952 18.6514 31.6591 18.6949 31.3355C18.7844 30.6814 18.8548 30.024 18.9411 29.3682C19.0786 28.2144 19.2194 27.0203 19.4208 25.8463C19.5502 24.9995 19.8943 24.2047 20.4171 23.5453C21.0056 22.9012 21.6401 22.3052 22.3152 21.7625C22.6159 21.5042 22.9309 21.2359 23.2539 20.9441L24.4325 19.8875Z" fill="#ED5C18"/>
<path d="M21.2955 33.8262C22.3797 35.3473 23.3744 36.7427 24.3658 38.1498C24.4088 38.2183 24.438 38.2952 24.4517 38.376C24.4655 38.4567 24.4635 38.5395 24.4458 38.6194C24.1982 40.1498 23.6721 41.616 22.8962 42.9379C21.3851 44.932 19.989 47.0217 18.5355 49.0628C18.385 49.3416 18.1797 49.5836 17.9332 49.7727C17.6867 49.9619 17.4046 50.0938 17.1057 50.1598C16.8068 50.2258 16.498 50.2243 16.1997 50.1555C15.9014 50.0866 15.6205 49.952 15.3756 49.7605C15.1324 49.5679 14.9303 49.3241 14.7823 49.0447C14.6344 48.7652 14.5438 48.4564 14.5166 48.1381C14.4893 47.8197 14.5259 47.4989 14.624 47.1963C14.7221 46.8937 14.8795 46.616 15.0862 46.3811C16.463 44.4188 17.8638 42.4751 19.2199 40.4977C19.526 40.0375 19.7578 39.5276 19.9059 38.9883C20.3808 37.3448 20.8014 35.676 21.2955 33.8262Z" fill="#ED5C18"/>
<path d="M16.6448 50.7828C16.0754 50.7728 15.5238 50.5731 15.0697 50.2126C14.792 50.01 14.5561 49.7506 14.3764 49.45C14.1967 49.1494 14.0768 48.8138 14.0239 48.4633C13.9731 48.0372 14.0035 47.6048 14.1133 47.191C14.2231 46.7773 14.4101 46.3906 14.6636 46.0533C15.1571 45.35 15.6534 44.6473 16.1523 43.9452C17.0238 42.7142 17.9273 41.4396 18.7941 40.1767C19.0651 39.767 19.2708 39.3139 19.4033 38.835C19.7423 37.661 20.0526 36.477 20.382 35.2225L20.7897 33.6795L21.0792 32.5928L22.3969 34.4376C23.2284 35.6032 24.0184 36.7067 24.7955 37.8187C24.8881 37.9572 24.9505 38.1154 24.9781 38.2821C25.0058 38.4488 24.998 38.6198 24.9554 38.783C24.8451 39.1553 24.7539 39.531 24.6596 39.9268C24.4525 41.1352 23.9933 42.2806 23.3147 43.281C22.3073 44.611 21.3318 46.0097 20.3884 47.3631C19.9086 48.034 19.4433 48.7199 18.9652 49.3925C18.7109 49.8002 18.3679 50.1388 17.9646 50.3805C17.5612 50.6222 17.1089 50.7601 16.6448 50.7828ZM21.5221 35.0665L21.4038 35.5177C21.0712 36.7772 20.7642 37.9696 20.4188 39.1553C20.2529 39.7543 19.9947 40.3209 19.6544 40.8324C18.7829 42.1037 17.8794 43.38 17.003 44.616C16.5073 45.3159 16.0121 46.0175 15.5175 46.7208C15.348 46.9403 15.2216 47.1926 15.1453 47.4634C15.069 47.7342 15.0444 48.0182 15.0729 48.299C15.105 48.5038 15.1762 48.6997 15.2822 48.8749C15.3883 49.0502 15.5271 49.2011 15.6902 49.3187C15.88 49.4657 16.0979 49.568 16.3289 49.6187C16.5599 49.6693 16.7986 49.6671 17.0288 49.6122C17.2589 49.5573 17.475 49.4509 17.6624 49.3004C17.8497 49.1499 18.0039 48.9588 18.1144 48.7401C18.592 48.0692 19.0648 47.395 19.5328 46.7175C20.4827 45.3556 21.4646 43.9469 22.4848 42.6001C23.0659 41.7208 23.4571 40.7193 23.6314 39.6652C23.7225 39.2794 23.8185 38.882 23.9352 38.4912V38.4644C23.1708 37.3776 22.3841 36.2757 21.5541 35.1101L21.5221 35.0665Z" fill="#ED5C18"/>
<path d="M33.8277 9.65727C33.8286 10.5112 33.5872 11.3461 33.1343 12.0557C32.6814 12.7653 32.0375 13.3176 31.2844 13.6422C30.5314 13.9669 29.7032 14.0492 28.9054 13.8788C28.1076 13.7083 27.3762 13.2928 26.8042 12.6851C26.2322 12.0774 25.8455 11.305 25.6934 10.4661C25.5412 9.62723 25.6305 8.75985 25.9497 7.97433C26.269 7.1888 26.8039 6.52065 27.4863 6.0549C28.1687 5.58914 28.9679 5.34684 29.782 5.35882C30.858 5.37939 31.8836 5.84059 32.6396 6.64383C33.3956 7.44707 33.8221 8.52862 33.8277 9.65727Z" fill="#ED5C18"/>
<path d="M29.7271 14.5358C28.4952 14.5217 27.3182 13.9987 26.4516 13.0804C25.5849 12.162 25.0984 10.9224 25.0977 9.63025C25.1549 8.38001 25.6696 7.20105 26.5346 6.33864C27.3996 5.47623 28.5483 4.99678 29.7417 5.00002C30.9352 5.00326 32.0815 5.48894 32.9423 6.35603C33.803 7.22313 34.3118 8.40487 34.3629 9.65541C34.3638 10.9471 33.876 12.1865 33.0066 13.1014C32.1371 14.0164 30.9571 14.5323 29.7255 14.5358H29.7271ZM29.7399 5.91376C28.7951 5.91676 27.8894 6.30918 27.218 7.00635C26.5467 7.70353 26.1636 8.64956 26.1515 9.64032C26.156 10.6354 26.5326 11.5888 27.2003 12.2957C27.8681 13.0026 28.7736 13.4065 29.7223 13.4205C30.6714 13.4143 31.5796 13.0146 32.2486 12.3085C32.9176 11.6025 33.2931 10.6475 33.2931 9.65206C33.2907 8.66944 32.9209 7.72703 32.263 7.02737C31.6052 6.32771 30.7118 5.92665 29.7751 5.9104L29.7399 5.91376Z" fill="#ED5C18"/>
</svg>
