<svg width="55" height="55" viewBox="0 0 55 55" fill="none" xmlns="http://www.w3.org/2000/svg">
<g clip-path="url(#clip0_41_2440)">
<path d="M34.94 29.64H28.64V35.94C28.64 36.88 27.86 37.66 26.92 37.66C25.98 37.66 25.2 36.88 25.2 35.94V29.64H18.9C17.96 29.64 17.18 28.86 17.18 27.92C17.18 26.98 17.96 26.2 18.9 26.2H25.2V19.9C25.2 18.96 25.98 18.18 26.92 18.18C27.86 18.18 28.64 18.96 28.64 19.9V26.2H34.94C35.88 26.2 36.66 26.98 36.66 27.92C36.66 28.86 35.88 29.64 34.94 29.64ZM36.08 5H17.75C8.58 5 4 9.58 4 18.75V48.54C4 49.8 5.03 50.83 6.29 50.83H36.08C45.25 50.83 49.83 46.25 49.83 37.08V18.75C49.83 9.58 45.25 5 36.08 5Z" fill="#ED5C18"/>
</g>
<defs>
<clipPath id="clip0_41_2440">
<rect width="45.83" height="45.83" fill="white" transform="translate(4 5)"/>
</clipPath>
</defs>
</svg>
