<svg width="55" height="55" viewBox="0 0 55 55" fill="none" xmlns="http://www.w3.org/2000/svg">
<g clip-path="url(#clip0_41_2425)">
<path d="M18.41 30.21H12.22C8.2325 30.21 5 33.4425 5 37.43V43.62C5 47.6075 8.2325 50.84 12.22 50.84H18.41C22.3975 50.84 25.63 47.6075 25.63 43.62V37.43C25.63 33.4425 22.3975 30.21 18.41 30.21Z" fill="#ED5C18"/>
<path d="M40.52 25.62C46.214 25.62 50.83 21.0041 50.83 15.31C50.83 9.61594 46.214 5 40.52 5C34.8259 5 30.21 9.61594 30.21 15.31C30.21 21.0041 34.8259 25.62 40.52 25.62Z" fill="#ED5C18"/>
<path d="M34.2901 50.8401C33.9873 50.8382 33.6903 50.7568 33.4289 50.6041C33.1674 50.4514 32.9506 50.2328 32.8001 49.9701C32.6474 49.7037 32.5671 49.4021 32.5671 49.0951C32.5671 48.7881 32.6474 48.4865 32.8001 48.2201L35.0201 44.5101C35.1363 44.3131 35.2902 44.141 35.4729 44.0034C35.6557 43.8659 35.8637 43.7658 36.0852 43.7086C36.3067 43.6515 36.5372 43.6386 36.7637 43.6706C36.9901 43.7026 37.2081 43.7789 37.4051 43.8951C37.602 44.0113 37.7742 44.1652 37.9117 44.348C38.0492 44.5307 38.1494 44.7388 38.2065 44.9602C38.2636 45.1817 38.2765 45.4122 38.2446 45.6387C38.2126 45.8652 38.1363 46.0831 38.0201 46.2801L37.6101 46.9601C40.4223 46.2316 42.9132 44.5904 44.6922 42.2938C46.4712 39.9972 47.4377 37.1751 47.4401 34.2701C47.4554 33.8269 47.6403 33.4065 47.9567 33.0957C48.273 32.7849 48.6966 32.6075 49.1401 32.6001C49.3655 32.6027 49.5882 32.6498 49.7953 32.7388C50.0024 32.8278 50.1899 32.9569 50.347 33.1186C50.504 33.2803 50.6276 33.4715 50.7105 33.6811C50.7934 33.8907 50.834 34.1147 50.8301 34.3401C50.8116 38.7174 49.0618 42.9096 45.9628 46.0011C42.8638 49.0926 38.6674 50.8322 34.2901 50.8401Z" fill="#ED5C18"/>
<path d="M6.72003 23.27C6.27239 23.2702 5.84231 23.0959 5.52115 22.7841C5.19998 22.4722 5.01304 22.0475 5.00003 21.6C4.99608 19.424 5.42078 17.2686 6.24986 15.2567C7.07893 13.2448 8.29616 11.4159 9.83205 9.87449C11.3679 8.33304 13.1924 7.10919 15.2012 6.27283C17.2101 5.43647 19.364 5.00398 21.54 5.00004C21.8449 4.99788 22.145 5.07682 22.4093 5.22877C22.6737 5.38072 22.8929 5.60022 23.0445 5.86479C23.1961 6.12935 23.2747 6.42946 23.2722 6.73438C23.2696 7.0393 23.186 7.33805 23.03 7.60004L20.81 11.29C20.6957 11.4858 20.5435 11.6567 20.3622 11.7927C20.1808 11.9287 19.9742 12.0271 19.7543 12.0821C19.5344 12.137 19.3057 12.1475 19.0818 12.1128C18.8578 12.0781 18.643 11.999 18.45 11.88C18.2555 11.7647 18.0856 11.612 17.9501 11.4309C17.8147 11.2498 17.7162 11.0437 17.6605 10.8245C17.6048 10.6053 17.5928 10.3772 17.6253 10.1534C17.6579 9.92956 17.7342 9.71433 17.85 9.52004L18.27 8.83004C15.4471 9.5666 12.9493 11.221 11.1697 13.5328C9.39009 15.8446 8.42983 18.6826 8.44003 21.6C8.42701 22.0475 8.24007 22.4722 7.91891 22.7841C7.59775 23.0959 7.16767 23.2702 6.72003 23.27Z" fill="#ED5C18"/>
</g>
<defs>
<clipPath id="clip0_41_2425">
<rect width="45.83" height="45.83" fill="white" transform="translate(5 5)"/>
</clipPath>
</defs>
</svg>
