<svg width="55" height="55" viewBox="0 0 55 55" fill="none" xmlns="http://www.w3.org/2000/svg">
<path d="M27.5 4.58325C14.8729 4.58325 4.58331 14.8728 4.58331 27.4999C4.58331 40.127 14.8729 50.4166 27.5 50.4166C40.1271 50.4166 50.4166 40.127 50.4166 27.4999C50.4166 14.8728 40.1271 4.58325 27.5 4.58325ZM27.0416 15.5145C31.1208 15.5145 34.4208 18.8145 34.4208 22.8937C34.4208 26.9499 31.1208 30.2728 27.0416 30.2728C22.9854 30.2728 19.6854 26.9499 19.6854 22.8937C19.6854 18.8145 22.9854 15.5145 27.0416 15.5145ZM41.0896 41.4333C40.0583 42.4645 38.8896 43.3582 37.6521 44.1145C34.6958 45.9478 31.2125 46.9791 27.5 46.9791C23.7875 46.9791 20.3042 45.9478 17.3479 44.1145C16.1104 43.3582 14.9417 42.4645 13.9104 41.4333V40.9978C13.9104 36.2999 17.7375 32.4728 22.4125 32.4728H32.5875C37.2625 32.4728 41.0896 36.2999 41.0896 40.9978V41.4333Z" fill="#ED5C18"/>
</svg>
