<svg width="55" height="56" viewBox="0 0 55 56" fill="none" xmlns="http://www.w3.org/2000/svg">
<path d="M20.9706 6.10231C17.721 7.13127 14.9183 8.81566 12.4479 11.1142C11.6848 11.8269 11.4511 12.9888 11.9461 13.9077C13.7817 17.3017 11.8612 20.9317 7.72248 21.1402C6.70727 21.193 5.81125 21.9423 5.57292 22.93C5.16271 24.6372 5 26.0672 5 27.9441C5 29.5185 5.16958 31.2991 5.50187 32.8849C5.70812 33.8749 6.56979 34.5877 7.57812 34.677C11.7444 35.0368 13.8069 38.2131 11.9461 42.267C11.5336 43.1677 11.7215 44.2447 12.4479 44.9162C14.8817 47.1689 17.6775 48.7547 20.9706 49.786C21.9102 50.0816 22.9712 49.7264 23.5487 48.9266C26.0971 45.402 29.7935 45.3883 32.2135 48.9266C32.7842 49.7608 33.8292 50.1618 34.7917 49.857C37.9702 48.8579 40.931 47.1552 43.3854 44.9162C44.1417 44.2287 44.341 43.1127 43.8873 42.196C41.9806 38.3483 44.1737 34.8145 48.1108 34.7481C49.1558 34.7297 50.0862 34.0422 50.3315 33.0293C50.7279 31.3862 50.8333 29.9539 50.8333 27.9441C50.8333 26.2162 50.6294 24.5135 50.2604 22.859C50.0267 21.814 49.1123 21.0715 48.0398 21.0692C44.1646 21.0623 41.9921 17.2536 43.8873 13.9077C44.4144 12.975 44.2494 11.8338 43.4565 11.1142C40.9585 8.84546 37.9129 7.07397 34.7206 6.10231C33.7398 5.80439 32.6971 6.17108 32.1425 7.03275C29.9287 10.4702 25.7946 10.5321 23.6198 7.10379C23.0629 6.22608 21.9606 5.78606 20.9706 6.10231ZM27.9167 18.7775C32.979 18.7775 37.0833 22.8819 37.0833 27.9441C37.0833 33.0064 32.979 37.1108 27.9167 37.1108C22.8544 37.1108 18.75 33.0064 18.75 27.9441C18.75 22.8819 22.8544 18.7775 27.9167 18.7775Z" fill="#ED5C18"/>
</svg>
