<svg width="55" height="55" viewBox="0 0 55 55" fill="none" xmlns="http://www.w3.org/2000/svg">
<g clip-path="url(#clip0_41_2462)">
<path d="M42.25 17.5C45.9779 17.5 49 14.4779 49 10.75C49 7.02208 45.9779 4 42.25 4C38.5221 4 35.5 7.02208 35.5 10.75C35.5 14.4779 38.5221 17.5 42.25 17.5Z" fill="#ED5C18"/>
<path d="M34.94 40H14.69C13.76 40 13 39.24 13 38.31C13 37.39 13.76 36.62 14.69 36.62H34.94C35.86 36.62 36.63 37.39 36.63 38.31C36.62 39.24 35.86 40 34.94 40ZM14.69 27.62H25.94C26.86 27.62 27.63 28.39 27.63 29.31C27.63 30.23 26.86 31 25.94 31H14.69C13.76 31 13 30.24 13 29.31C13 28.39 13.76 27.62 14.69 27.62ZM44.05 20.7C44 20.7 43.96 20.72 43.91 20.72C43.68 20.76 43.46 20.79 43.21 20.83C42.26 20.92 41.25 20.87 40.22 20.67C39.95 20.6 39.73 20.56 39.48 20.47C38.74 20.29 38.04 20 37.39 19.62C37.12 19.48 36.85 19.3 36.6 19.15C35.52 18.41 34.6 17.49 33.86 16.41C33.7 16.16 33.52 15.89 33.39 15.62C33.01 14.97 32.72 14.27 32.54 13.53C32.45 13.28 32.4 13.06 32.34 12.79C32.14 11.76 32.09 10.74 32.18 9.80001C32.22 9.55001 32.25 9.33001 32.29 9.10001C32.29 9.06001 32.31 9.01001 32.31 8.96001C32.58 7.57001 31.54 6.26001 30.1 6.26001H16.42C16.1 6.26001 15.79 6.28001 15.5 6.31001C15.23 6.33001 14.98 6.35001 14.71 6.40001C14.44 6.42001 14.17 6.47001 13.92 6.51001C8.5 7.29001 5.03 10.73 4.25 16.17C4.2 16.42 4.16 16.69 4.14 16.96C4.1 17.23 4.07 17.48 4.05 17.75C4.02 18.04 4 18.36 4 18.67V36.58C4 36.9 4.02 37.21 4.04 37.5C4.06 37.77 4.08 38.02 4.13 38.29C4.15 38.56 4.2 38.83 4.24 39.08C5.03 44.53 8.49 47.97 13.91 48.75C14.16 48.8 14.43 48.84 14.7 48.86C14.97 48.9 15.22 48.93 15.49 48.95C15.79 48.98 16.1 49 16.42 49H34.33C34.65 49 34.96 48.98 35.25 48.96C35.52 48.94 35.77 48.92 36.04 48.87C36.31 48.85 36.58 48.8 36.83 48.76C42.25 47.97 45.72 44.53 46.5 39.09C46.55 38.84 46.59 38.57 46.61 38.3C46.65 38.03 46.68 37.78 46.7 37.51C46.72 37.22 46.75 36.9 46.75 36.59V22.9C46.75 21.46 45.44 20.43 44.05 20.7Z" fill="#ED5C18"/>
</g>
<defs>
<clipPath id="clip0_41_2462">
<rect width="45" height="45" fill="white" transform="translate(4 4)"/>
</clipPath>
</defs>
</svg>
