<svg width="55" height="55" viewBox="0 0 55 55" fill="none" xmlns="http://www.w3.org/2000/svg">
<g clip-path="url(#clip0_41_2452)">
<path d="M27.43 4C21.31 4 16.34 8.97 16.34 15.08C16.34 21.08 21.03 25.93 27.14 26.14C27.33 26.12 27.51 26.12 27.65 26.14C27.7 26.14 27.72 26.14 27.77 26.14C27.79 26.14 27.79 26.14 27.82 26.14C33.79 25.93 38.48 21.08 38.51 15.08C38.51 8.97 33.54 4 27.43 4Z" fill="#ED5C18"/>
<path d="M32.86 37.97L26.98 43.85C26.7 44.13 26.33 44.27 25.95 44.27C25.58 44.27 25.2 44.11 24.92 43.85L21.98 40.91C21.42 40.35 21.42 39.42 21.98 38.86C22.54 38.3 23.47 38.3 24.03 38.86L25.94 40.77L30.79 35.92C31.35 35.36 32.28 35.36 32.84 35.92C33.45 36.48 33.45 37.41 32.86 37.97ZM39.28 32.37C32.77 28.03 22.15 28.03 15.6 32.37C12.63 34.33 11 37.02 11 39.89C11 42.76 12.63 45.42 15.57 47.38C18.84 49.57 23.13 50.67 27.42 50.67C31.71 50.67 36.01 49.57 39.27 47.38C42.21 45.4 43.84 42.74 43.84 39.84C43.83 36.99 42.22 34.31 39.28 32.37Z" fill="#ED5C18"/>
</g>
<defs>
<clipPath id="clip0_41_2452">
<rect width="32.85" height="46.67" fill="white" transform="translate(11 4)"/>
</clipPath>
</defs>
</svg>
