<svg width="34" height="34" viewBox="0 0 34 34" fill="none" xmlns="http://www.w3.org/2000/svg">
<path d="M30.7441 16.999H3.24476C2.9254 16.9816 2.62485 16.8425 2.40493 16.6103C2.18501 16.3781 2.06244 16.0704 2.06244 15.7506C2.06244 15.4307 2.18501 15.123 2.40493 14.8908C2.62485 14.6586 2.9254 14.5195 3.24476 14.5021H30.7441C30.9138 14.4929 31.0836 14.5183 31.2431 14.5769C31.4026 14.6354 31.5485 14.7259 31.6719 14.8427C31.7952 14.9596 31.8935 15.1003 31.9606 15.2564C32.0278 15.4125 32.0624 15.5806 32.0624 15.7506C32.0624 15.9205 32.0278 16.0886 31.9606 16.2447C31.8935 16.4008 31.7952 16.5415 31.6719 16.6584C31.5485 16.7752 31.4026 16.8657 31.2431 16.9242C31.0836 16.9828 30.9138 17.0083 30.7441 16.999Z" fill="#ED5C18"/>
<path d="M8.24692 2.00171H5.75C4.75598 2.00269 3.80296 2.39799 3.10008 3.10086C2.39721 3.80374 2.0019 4.75677 2.00092 5.75078V8.2477C1.99446 8.41569 2.02196 8.58326 2.08179 8.74037C2.14162 8.89748 2.23254 9.0409 2.3491 9.16204C2.46567 9.28318 2.60549 9.37956 2.76018 9.44539C2.91488 9.51122 3.08127 9.54514 3.24938 9.54514C3.4175 9.54514 3.58389 9.51122 3.73858 9.44539C3.89328 9.37956 4.03309 9.28318 4.14966 9.16204C4.26623 9.0409 4.35715 8.89748 4.41698 8.74037C4.4768 8.58326 4.50431 8.41569 4.49784 8.2477V5.75078C4.49809 5.41926 4.62989 5.10138 4.86432 4.86695C5.09874 4.63253 5.41662 4.50072 5.74815 4.50047H8.24692C8.41491 4.50694 8.58248 4.47943 8.73959 4.4196C8.8967 4.35977 9.04012 4.26886 9.16127 4.15229C9.28241 4.03573 9.37878 3.8959 9.4446 3.74121C9.51043 3.58652 9.54436 3.42012 9.54436 3.25201C9.54436 3.08389 9.51043 2.91751 9.4446 2.76282C9.37878 2.60812 9.28241 2.4683 9.16127 2.35173C9.04012 2.23517 8.8967 2.14424 8.73959 2.08441C8.58248 2.02459 8.41491 1.99709 8.24692 2.00356V2.00171Z" fill="#3F4450"/>
<path d="M8.2469 29.4993H5.74998C5.41845 29.499 5.10058 29.3672 4.86615 29.1328C4.63173 28.8984 4.49992 28.5805 4.49967 28.249V25.752C4.50614 25.584 4.47864 25.4165 4.41881 25.2594C4.35898 25.1022 4.26806 24.9588 4.15149 24.8377C4.03493 24.7165 3.89511 24.6202 3.74041 24.5544C3.58572 24.4885 3.41933 24.4546 3.25121 24.4546C3.0831 24.4546 2.91671 24.4885 2.76202 24.5544C2.60732 24.6202 2.4675 24.7165 2.35094 24.8377C2.23437 24.9588 2.14345 25.1022 2.08362 25.2594C2.02379 25.4165 1.99629 25.584 2.00276 25.752V28.249C2.00349 29.2431 2.39869 30.1964 3.10159 30.8995C3.80449 31.6025 4.75765 31.998 5.75183 31.999H8.2469C8.41489 32.0054 8.58246 31.9779 8.73957 31.9181C8.89668 31.8583 9.04011 31.7673 9.16125 31.6508C9.28239 31.5342 9.37876 31.3944 9.44459 31.2397C9.51041 31.085 9.54434 30.9186 9.54434 30.7505C9.54434 30.5824 9.51041 30.416 9.44459 30.2613C9.37876 30.1066 9.28239 29.9668 9.16125 29.8502C9.04011 29.7336 8.89668 29.6427 8.73957 29.5829C8.58246 29.5231 8.41489 29.4956 8.2469 29.502V29.4993Z" fill="#3F4450"/>
<path d="M28.2435 2.00185H25.7466C25.5769 1.99261 25.4071 2.01804 25.2476 2.07661C25.0881 2.13518 24.9422 2.22565 24.8189 2.34249C24.6955 2.45933 24.5972 2.60009 24.5301 2.75617C24.4629 2.91226 24.4283 3.08038 24.4283 3.2503C24.4283 3.42022 24.4629 3.58836 24.5301 3.74444C24.5972 3.90053 24.6955 4.04128 24.8189 4.15812C24.9422 4.27496 25.0881 4.36542 25.2476 4.42399C25.4071 4.48256 25.5769 4.508 25.7466 4.49876H28.2435C28.575 4.49901 28.8929 4.63082 29.1273 4.86524C29.3617 5.09967 29.4936 5.41755 29.4938 5.74908V8.24599C29.4873 8.41398 29.5148 8.58155 29.5747 8.73866C29.6345 8.89578 29.7254 9.03919 29.842 9.16033C29.9585 9.28147 30.0984 9.37784 30.2531 9.44367C30.4078 9.5095 30.5741 9.54343 30.7423 9.54343C30.9104 9.54343 31.0768 9.5095 31.2315 9.44367C31.3862 9.37784 31.526 9.28147 31.6425 9.16033C31.7591 9.03919 31.85 8.89578 31.9099 8.73866C31.9697 8.58155 31.9972 8.41398 31.9907 8.24599V5.74908C31.9897 4.7549 31.5943 3.80173 30.8912 3.09883C30.1882 2.39593 29.2349 2.00074 28.2407 2L28.2435 2.00185Z" fill="#3F4450"/>
<path d="M30.7441 24.4988C30.4125 24.4988 30.0945 24.6305 29.86 24.865C29.6256 25.0995 29.4938 25.4175 29.4938 25.7491V28.246C29.4933 28.5775 29.3615 28.8952 29.1271 29.1296C28.8927 29.3639 28.575 29.4958 28.2435 29.4963H25.7466C25.5786 29.4898 25.411 29.5174 25.2539 29.5772C25.0968 29.637 24.9534 29.7279 24.8323 29.8445C24.7111 29.961 24.6147 30.1009 24.5489 30.2556C24.4831 30.4103 24.4492 30.5767 24.4492 30.7448C24.4492 30.9129 24.4831 31.0793 24.5489 31.234C24.6147 31.3887 24.7111 31.5285 24.8323 31.6451C24.9534 31.7616 25.0968 31.8525 25.2539 31.9124C25.411 31.9722 25.5786 31.9997 25.7466 31.9932H28.2435C29.2378 31.9923 30.191 31.5969 30.8941 30.8938C31.5971 30.1908 31.9925 29.2375 31.9935 28.2432V25.7463C31.9934 25.5824 31.961 25.42 31.8981 25.2686C31.8353 25.1172 31.7432 24.9796 31.6272 24.8638C31.5112 24.7479 31.3735 24.6561 31.222 24.5935C31.0705 24.5308 30.9081 24.4987 30.7441 24.4988Z" fill="#3F4450"/>
<path d="M26.9303 15.1245C26.9562 14.8527 26.9941 14.5845 26.9941 14.3089C26.9706 12.0327 26.0499 9.85775 24.432 8.25651C22.8141 6.65527 20.6297 5.75708 18.3534 5.75708C16.0771 5.75708 13.8928 6.65527 12.2749 8.25651C10.657 9.85775 9.73624 12.0327 9.7127 14.3089C9.70745 14.5866 9.65426 14.8613 9.55548 15.1208L26.9303 15.1245Z" fill="#ED5C18"/>
<path d="M7.25836 18.8746L7.21119 18.9495C7.07879 19.1595 7.00517 19.4012 6.99801 19.6493C6.99085 19.8975 7.05042 20.143 7.17049 20.3603C7.29056 20.5776 7.46674 20.7586 7.68064 20.8846C7.89455 21.0106 8.13834 21.0769 8.38659 21.0765H9.71366V23.2775C9.7166 23.8842 9.95993 24.4651 10.3903 24.8927C10.8208 25.3203 11.4032 25.5599 12.0099 25.5589C12.2367 25.5622 12.4624 25.5272 12.6776 25.4554L14.2433 24.9846V27.3077C14.2435 27.5561 14.3423 27.7942 14.5179 27.9698C14.6935 28.1455 14.9317 28.2443 15.1801 28.2445H23.3357C23.5843 28.2445 23.8226 28.1458 23.9985 27.9702C24.1743 27.7945 24.2732 27.5562 24.2735 27.3077V22.8012C24.2723 21.5196 24.673 20.2698 25.4193 19.2279C25.4997 19.1132 25.558 18.9874 25.6329 18.8718H7.25836V18.8746Z" fill="#ED5C18"/>
</svg>
