<svg width="44" height="44" viewBox="0 0 44 44" fill="none" xmlns="http://www.w3.org/2000/svg">
<path d="M41.5853 21.6997H1.80085C1.33882 21.6746 0.903996 21.4733 0.585826 21.1373C0.267656 20.8014 0.090332 20.3562 0.090332 19.8935C0.090332 19.4308 0.267656 18.9857 0.585826 18.6497C0.903996 18.3138 1.33882 18.1125 1.80085 18.0873H41.5853C41.8308 18.074 42.0764 18.1108 42.3071 18.1955C42.5379 18.2802 42.749 18.4111 42.9274 18.5802C43.1059 18.7492 43.2481 18.9528 43.3453 19.1786C43.4424 19.4045 43.4925 19.6477 43.4925 19.8935C43.4925 20.1394 43.4424 20.3826 43.3453 20.6084C43.2481 20.8342 43.1059 21.0379 42.9274 21.2069C42.749 21.376 42.5379 21.5068 42.3071 21.5916C42.0764 21.6763 41.8308 21.7131 41.5853 21.6997Z" fill="#ED5C18"/>
<path d="M9.03766 0.00238037H5.42527C3.98719 0.0037972 2.60841 0.575693 1.59154 1.59257C0.574658 2.60945 0.00275482 3.98823 0.00133799 5.42632V9.0387C-0.00801843 9.28174 0.0317721 9.52417 0.118327 9.75147C0.204881 9.97877 0.336418 10.1863 0.505062 10.3615C0.673705 10.5368 0.875986 10.6762 1.09979 10.7715C1.32359 10.8667 1.56431 10.9158 1.80753 10.9158C2.05075 10.9158 2.29148 10.8667 2.51528 10.7715C2.73908 10.6762 2.94136 10.5368 3.11 10.3615C3.27865 10.1863 3.41018 9.97877 3.49674 9.75147C3.58329 9.52417 3.62308 9.28174 3.61373 9.0387V5.42632C3.61408 4.94668 3.80477 4.48679 4.14392 4.14764C4.48307 3.80849 4.94296 3.61779 5.4226 3.61744H9.03766C9.2807 3.6268 9.52313 3.587 9.75043 3.50044C9.97773 3.41389 10.1852 3.28236 10.3605 3.11372C10.5357 2.94507 10.6752 2.74279 10.7704 2.51899C10.8656 2.29518 10.9147 2.05446 10.9147 1.81124C10.9147 1.56801 10.8656 1.32731 10.7704 1.10351C10.6752 0.879706 10.5357 0.67742 10.3605 0.508776C10.1852 0.340133 9.97773 0.208587 9.75043 0.122033C9.52313 0.0354786 9.2807 -0.00430168 9.03766 0.00505474V0.00238037Z" fill="#3F4450"/>
<path d="M9.03767 39.7844H5.42528C4.94565 39.7841 4.48576 39.5934 4.14661 39.2542C3.80746 38.9151 3.61677 38.4552 3.61641 37.9756V34.3631C3.62577 34.1201 3.58598 33.8777 3.49942 33.6504C3.41287 33.4231 3.28133 33.2156 3.11269 33.0403C2.94405 32.8651 2.74176 32.7257 2.51796 32.6304C2.29416 32.5352 2.05344 32.4861 1.81022 32.4861C1.567 32.4861 1.32628 32.5352 1.10247 32.6304C0.878672 32.7257 0.676393 32.8651 0.50775 33.0403C0.339106 33.2156 0.207566 33.4231 0.121012 33.6504C0.0344577 33.8777 -0.00533288 34.1201 0.00402354 34.3631V37.9756C0.00508616 39.4139 0.576833 40.793 1.59375 41.8101C2.61067 42.8273 3.98965 43.3994 5.42796 43.4008H9.03767C9.28071 43.4102 9.52314 43.3704 9.75044 43.2838C9.97774 43.1973 10.1852 43.0657 10.3605 42.8971C10.5358 42.7284 10.6752 42.5262 10.7704 42.3024C10.8657 42.0786 10.9147 41.8379 10.9147 41.5946C10.9147 41.3514 10.8657 41.1107 10.7704 40.8869C10.6752 40.6631 10.5358 40.4608 10.3605 40.2922C10.1852 40.1235 9.97774 39.992 9.75044 39.9054C9.52314 39.8189 9.28071 39.7791 9.03767 39.7884V39.7844Z" fill="#3F4450"/>
<path d="M37.9675 0.0026766H34.3552C34.1097 -0.0106897 33.8641 0.0261037 33.6333 0.110836C33.4026 0.195568 33.1915 0.326462 33.013 0.495496C32.8345 0.66453 32.6924 0.86817 32.5952 1.09398C32.498 1.3198 32.4479 1.56303 32.4479 1.80886C32.4479 2.05469 32.498 2.29794 32.5952 2.52375C32.6924 2.74957 32.8345 2.95321 33.013 3.12224C33.1915 3.29128 33.4026 3.42215 33.6333 3.50688C33.8641 3.59161 34.1097 3.62843 34.3552 3.61506H37.9675C38.4472 3.61542 38.9071 3.80611 39.2462 4.14526C39.5854 4.48441 39.7761 4.9443 39.7764 5.42394V9.03632C39.7671 9.27936 39.8069 9.52179 39.8934 9.74909C39.98 9.97639 40.1115 10.1839 40.2801 10.3591C40.4488 10.5344 40.6511 10.6738 40.8749 10.7691C41.0987 10.8643 41.3394 10.9134 41.5826 10.9134C41.8258 10.9134 42.0666 10.8643 42.2904 10.7691C42.5142 10.6738 42.7164 10.5344 42.8851 10.3591C43.0537 10.1839 43.1853 9.97639 43.2718 9.74909C43.3584 9.52179 43.3982 9.27936 43.3888 9.03632V5.42394C43.3874 3.98562 42.8153 2.60664 41.7981 1.58972C40.781 0.572807 39.4019 0.00106485 37.9635 2.22994e-06L37.9675 0.0026766Z" fill="#3F4450"/>
<path d="M41.5853 32.5502C41.1055 32.5502 40.6454 32.7408 40.3062 33.08C39.967 33.4193 39.7764 33.8794 39.7764 34.3591V37.9715C39.7757 38.451 39.5849 38.9107 39.2458 39.2498C38.9068 39.5888 38.4471 39.7796 37.9675 39.7804H34.3552C34.1121 39.771 33.8697 39.8108 33.6424 39.8974C33.4151 39.9839 33.2076 40.1154 33.0323 40.2841C32.8571 40.4527 32.7176 40.655 32.6224 40.8788C32.5272 41.1026 32.4781 41.3433 32.4781 41.5866C32.4781 41.8298 32.5272 42.0705 32.6224 42.2943C32.7176 42.5181 32.8571 42.7204 33.0323 42.889C33.2076 43.0577 33.4151 43.1892 33.6424 43.2758C33.8697 43.3623 34.1121 43.4021 34.3552 43.3928H37.9675C39.406 43.3913 40.7851 42.8193 41.8022 41.8022C42.8194 40.785 43.3914 39.4059 43.3928 37.9675V34.3551C43.3926 34.1179 43.3457 33.8831 43.2548 33.664C43.1639 33.4449 43.0307 33.2459 42.8628 33.0783C42.695 32.9107 42.4958 32.7778 42.2766 32.6872C42.0574 32.5966 41.8225 32.5501 41.5853 32.5502Z" fill="#3F4450"/>
<path d="M36.0677 18.9878C36.1051 18.5944 36.16 18.2064 36.16 17.8077C36.1259 14.5147 34.7939 11.3681 32.4532 9.0515C30.1125 6.73493 26.9523 5.43549 23.6591 5.43549C20.3659 5.43549 17.2057 6.73493 14.865 9.0515C12.5244 11.3681 11.1923 14.5147 11.1582 17.8077C11.1506 18.2095 11.0737 18.6069 10.9308 18.9824L36.0677 18.9878Z" fill="#ED5C18"/>
<path d="M7.60747 24.4131L7.53923 24.5214C7.34768 24.8253 7.24117 25.1749 7.23082 25.5339C7.22046 25.8929 7.30663 26.2481 7.48034 26.5625C7.65405 26.8768 7.90894 27.1388 8.2184 27.321C8.52787 27.5033 8.88058 27.5992 9.23973 27.5987H11.1596V30.7829C11.1639 31.6607 11.5159 32.501 12.1386 33.1197C12.7613 33.7384 13.6039 34.085 14.4817 34.0836C14.8098 34.0883 15.1364 34.0376 15.4477 33.9337L17.7128 33.2527V36.6136C17.7131 36.9729 17.856 37.3174 18.1101 37.5715C18.3642 37.8256 18.7088 37.9685 19.0681 37.9689H30.8672C31.2268 37.9689 31.5717 37.8262 31.8261 37.572C32.0804 37.3179 32.2235 36.9731 32.2239 36.6136V30.0939C32.2222 28.2397 32.802 26.4316 33.8816 24.9242C33.998 24.7582 34.0823 24.5763 34.1906 24.4091H7.60747V24.4131Z" fill="#ED5C18"/>
</svg>
