<svg width="102" height="102" viewBox="0 0 102 102" fill="none" xmlns="http://www.w3.org/2000/svg">
<rect width="102" height="102" rx="16" fill="#FEF9F4"/>
<path fill-rule="evenodd" clip-rule="evenodd" d="M25 30.5215C25 27.9894 26.9894 26 29.5215 26H47.6073C49.9584 26 52.1287 27.9894 52.1287 30.5215V41.0112H60.2673V39.0218C60.2673 37.9366 60.9908 37.2132 62.0759 37.2132C63.1611 37.2132 63.8845 37.9366 63.8845 39.0218V41.0112H71.1188C73.6508 41.0112 75.6403 43.0007 75.6403 45.5327V74.8317C75.6403 75.9168 74.9168 76.6403 73.8317 76.6403H26.8086C25.7234 76.6403 25 75.9168 25 74.8317V30.5215ZM57.1927 59.2779C57.1927 58.1927 57.9162 57.4693 59.0013 57.4693H64.9696C66.0548 57.4693 66.7782 58.1927 66.7782 59.2779C66.7782 60.363 66.0548 61.0865 64.9696 61.0865H59.0013C57.9162 61.0865 57.1927 60.1822 57.1927 59.2779ZM36.2132 39.9261C36.2132 38.8409 35.4898 38.1175 34.4046 38.1175C33.3195 38.1175 32.596 38.8409 32.596 39.9261V67.0548C32.596 68.1399 33.3195 68.8634 34.4046 68.8634C35.4898 68.8634 36.2132 68.1399 36.2132 67.0548V39.9261ZM44.3518 54.9373V48.6073V46.6178V39.9261C44.3518 38.8409 43.6284 38.1175 42.5432 38.1175C41.4581 38.1175 40.7347 38.8409 40.7347 39.9261V67.0548C40.7347 68.1399 41.4581 68.8634 42.5432 68.8634C43.6284 68.8634 44.3518 68.1399 44.3518 67.0548V65.4271V63.4376V57.1076V54.9373Z" fill="#ED5C18"/>
</svg>
