<svg width="60" height="60" viewBox="0 0 60 60" fill="none" xmlns="http://www.w3.org/2000/svg">
<path d="M12.9545 10C8.81203 10 5.45453 13.3578 5.45453 17.5V42.5001C5.45453 47.5001 7.95453 50.0001 12.9545 50.0001H47.9546C52.9546 50.0001 55.4546 47.5001 55.4546 42.5001V22.5C55.4546 21.1193 54.3346 20 52.9546 20H50.4546V12.5C50.4546 11.1193 49.3346 10 47.9546 10H12.9545ZM12.9545 15H45.4546V20H12.9545C11.5745 20 10.4545 18.8808 10.4545 17.5C10.4545 16.1193 11.5745 15 12.9545 15ZM42.9546 30.0001C44.3346 30.0001 45.4546 31.1193 45.4546 32.5001C45.4546 33.8808 44.3346 35.0001 42.9546 35.0001C41.5746 35.0001 40.4546 33.8808 40.4546 32.5001C40.4546 31.1193 41.5746 30.0001 42.9546 30.0001Z" fill="#ED5C18"/>
</svg>
