<svg width="27" height="34" viewBox="0 0 27 34" fill="none" xmlns="http://www.w3.org/2000/svg">
<path d="M13.6667 15.61C12.899 15.61 12.2767 16.2323 12.2767 17C12.2767 17.7677 12.899 18.39 13.6667 18.39V15.61ZM18.6667 18.39C19.4343 18.39 20.0567 17.7677 20.0567 17C20.0567 16.2323 19.4343 15.61 18.6667 15.61V18.39ZM13.6667 22.2767C12.899 22.2767 12.2767 22.899 12.2767 23.6667C12.2767 24.4343 12.899 25.0567 13.6667 25.0567V22.2767ZM18.6667 25.0567C19.4343 25.0567 20.0567 24.4343 20.0567 23.6667C20.0567 22.899 19.4343 22.2767 18.6667 22.2767V25.0567ZM8.66667 15.61C7.89899 15.61 7.27667 16.2323 7.27667 17C7.27667 17.7677 7.89899 18.39 8.66667 18.39V15.61ZM8.68333 18.39C9.45101 18.39 10.0733 17.7677 10.0733 17C10.0733 16.2323 9.45101 15.61 8.68333 15.61V18.39ZM8.66667 22.2767C7.89899 22.2767 7.27667 22.899 7.27667 23.6667C7.27667 24.4343 7.89899 25.0567 8.66667 25.0567V22.2767ZM8.68333 25.0567C9.45101 25.0567 10.0733 24.4343 10.0733 23.6667C10.0733 22.899 9.45101 22.2767 8.68333 22.2767V25.0567ZM23.9433 8.66667V28.6667H26.7233V8.66667H23.9433ZM22 30.61H5.33333V33.39H22V30.61ZM3.39 28.6667V8.66667H0.61V28.6667H3.39ZM5.33333 6.72333H8.66667V3.94333H5.33333V6.72333ZM18.6667 6.72333H22V3.94333H18.6667V6.72333ZM5.33333 30.61C4.26006 30.61 3.39 29.7399 3.39 28.6667H0.61C0.61 31.2753 2.72471 33.39 5.33333 33.39V30.61ZM23.9433 28.6667C23.9433 29.7399 23.0733 30.61 22 30.61V33.39C24.6086 33.39 26.7233 31.2753 26.7233 28.6667H23.9433ZM26.7233 8.66667C26.7233 6.05804 24.6086 3.94333 22 3.94333V6.72333C23.0733 6.72333 23.9433 7.59339 23.9433 8.66667H26.7233ZM3.39 8.66667C3.39 7.59339 4.26006 6.72333 5.33333 6.72333V3.94333C2.72471 3.94333 0.61 6.05804 0.61 8.66667H3.39ZM13.6667 18.39H18.6667V15.61H13.6667V18.39ZM13.6667 25.0567H18.6667V22.2767H13.6667V25.0567ZM12 3.39H15.3333V0.61H12V3.39ZM15.3333 7.27667H12V10.0567H15.3333V7.27667ZM12 7.27667C10.9267 7.27667 10.0567 6.40661 10.0567 5.33333H7.27667C7.27667 7.94196 9.39138 10.0567 12 10.0567V7.27667ZM17.2767 5.33333C17.2767 6.40661 16.4066 7.27667 15.3333 7.27667V10.0567C17.942 10.0567 20.0567 7.94196 20.0567 5.33333H17.2767ZM15.3333 3.39C16.4066 3.39 17.2767 4.26006 17.2767 5.33333H20.0567C20.0567 2.72471 17.942 0.61 15.3333 0.61V3.39ZM12 0.61C9.39138 0.61 7.27667 2.72471 7.27667 5.33333H10.0567C10.0567 4.26006 10.9267 3.39 12 3.39V0.61ZM8.66667 18.39H8.68333V15.61H8.66667V18.39ZM8.66667 25.0567H8.68333V22.2767H8.66667V25.0567Z" fill="#ED5C18"/>
</svg>
