<svg width="34" height="34" viewBox="0 0 34 34" fill="none" xmlns="http://www.w3.org/2000/svg">
<path d="M21.3905 4.8263L8.72825 11.372C8.66865 11.4023 8.6028 11.418 8.53609 11.418C8.46937 11.418 8.40353 11.4023 8.34393 11.372L3.90239 9.16727C3.83069 9.13156 3.77044 9.07635 3.72823 9.00782C3.68601 8.93929 3.66345 8.86018 3.66345 8.77949C3.66345 8.6988 3.68601 8.61969 3.72823 8.55116C3.77044 8.48263 3.83069 8.42742 3.90239 8.39171L16.497 2.11477C16.6484 2.0393 16.8149 2 16.9837 2C17.1526 2 17.3193 2.0393 17.4707 2.11477L21.3835 4.05365C21.4548 4.08901 21.5149 4.14369 21.5572 4.21152C21.5995 4.27936 21.6222 4.35779 21.6229 4.43792C21.6237 4.51805 21.6023 4.59669 21.5613 4.66528C21.5202 4.73387 21.4611 4.78966 21.3905 4.8263Z" fill="#3E4450"/>
<path d="M30.0838 9.17041L17.1975 15.617C17.1385 15.6464 17.0738 15.6616 17.008 15.6616C16.9422 15.6616 16.8772 15.6464 16.8182 15.617L11.8197 13.1326C11.7495 13.0963 11.6907 13.0411 11.6496 12.9732C11.6085 12.9053 11.5867 12.8274 11.5867 12.7478C11.5867 12.6682 11.6085 12.5902 11.6496 12.5223C11.6907 12.4544 11.7495 12.3992 11.8197 12.3629L24.5064 5.81723C24.5671 5.78557 24.6345 5.76904 24.7028 5.76904C24.7712 5.76904 24.8388 5.78557 24.8996 5.81723L25.4547 6.10186L30.0879 8.40273C30.1574 8.43957 30.2154 8.495 30.2558 8.5629C30.2962 8.63079 30.3174 8.70864 30.317 8.78784C30.3166 8.86704 30.2945 8.94458 30.2534 9.01205C30.2123 9.07953 30.1537 9.1343 30.0838 9.17041Z" fill="#3E4450"/>
<path d="M15.8975 17.9732L15.8828 31.5685C15.8827 31.6427 15.8636 31.7156 15.8274 31.7803C15.7913 31.8449 15.7392 31.8989 15.6763 31.9374C15.6134 31.9759 15.5418 31.9973 15.4683 31.9998C15.3948 32.0022 15.3219 31.9855 15.2567 31.9513L2.61319 25.2916C2.42858 25.1922 2.27421 25.044 2.16625 24.8631C2.05829 24.6822 2.00075 24.4753 2 24.2641V11.4701C2.00007 11.3967 2.01864 11.3246 2.05398 11.2604C2.08931 11.1963 2.14027 11.1422 2.202 11.1034C2.26372 11.0646 2.33425 11.0423 2.40687 11.0386C2.47949 11.0349 2.55198 11.05 2.61727 11.0823L7.38291 13.4516C7.45466 13.4872 7.5151 13.5425 7.55731 13.6111C7.59952 13.6796 7.62197 13.7588 7.62185 13.8395V18.484C7.61832 18.6331 7.64387 18.7814 7.69718 18.9206C7.75048 19.0597 7.8305 19.187 7.93252 19.2949C8.03454 19.4028 8.15646 19.4894 8.29165 19.5497C8.42684 19.61 8.57259 19.6429 8.72036 19.6464C9.0187 19.6533 9.30761 19.5403 9.52354 19.3324C9.73948 19.1245 9.86467 18.8386 9.87188 18.5375C9.87188 18.5196 9.87188 18.5018 9.87188 18.484V15.3996C9.87195 15.3264 9.89046 15.2543 9.92562 15.1903C9.96078 15.1262 10.0114 15.0723 10.0729 15.0335C10.1344 14.9946 10.2047 14.9722 10.2771 14.9682C10.3495 14.9642 10.4217 14.9788 10.487 15.0107L10.6218 15.0772L15.6588 17.5834C15.7308 17.6191 15.7914 17.6747 15.8337 17.7437C15.8759 17.8126 15.898 17.8922 15.8975 17.9732Z" fill="#ED5C18"/>
<path d="M31.3691 11.1001L18.3866 17.5695C18.3151 17.6051 18.2548 17.6602 18.2127 17.7285C18.1705 17.7969 18.1478 17.8757 18.1476 17.9563L18.132 31.5506C18.132 31.6249 18.1509 31.698 18.187 31.7627C18.2231 31.8274 18.2752 31.8816 18.3381 31.9202C18.401 31.9588 18.4726 31.9803 18.5461 31.9828C18.6197 31.9853 18.6926 31.9686 18.758 31.9344L31.77 25.0773C31.8394 25.0406 31.8976 24.9855 31.9381 24.9178C31.9787 24.8502 32.0001 24.7725 32 24.6934L31.9861 11.486C31.9857 11.4128 31.9669 11.3408 31.9314 11.2769C31.8959 11.213 31.8451 11.1593 31.7834 11.1207C31.7217 11.0822 31.6515 11.06 31.579 11.0564C31.5065 11.0528 31.4342 11.0679 31.3691 11.1001Z" fill="#ED5C18"/>
</svg>
