<svg width="45" height="45" viewBox="0 0 45 45" fill="none" xmlns="http://www.w3.org/2000/svg">
<path d="M28.8662 4.16867L10.0162 13.8233C9.92751 13.8679 9.82949 13.8912 9.73017 13.8912C9.63085 13.8912 9.53283 13.8679 9.44411 13.8233L2.83209 10.5714C2.72535 10.5187 2.63565 10.4373 2.57281 10.3362C2.50996 10.2352 2.47638 10.1185 2.47638 9.99946C2.47638 9.88043 2.50996 9.76375 2.57281 9.66268C2.63565 9.5616 2.72535 9.48016 2.83209 9.4275L21.5814 0.169283C21.8068 0.057961 22.0546 0 22.306 0C22.5574 0 22.8056 0.057961 23.031 0.169283L28.8559 3.02905C28.9619 3.0812 29.0515 3.16185 29.1144 3.2619C29.1774 3.36196 29.2112 3.47764 29.2123 3.59583C29.2134 3.71401 29.1816 3.83001 29.1205 3.93118C29.0594 4.03234 28.9714 4.11462 28.8662 4.16867Z" fill="#3E4450"/>
<path d="M41.8078 10.5759L22.6242 20.0843C22.5364 20.1276 22.44 20.1502 22.3421 20.1502C22.2442 20.1502 22.1474 20.1276 22.0596 20.0843L14.6183 16.4199C14.5139 16.3664 14.4263 16.285 14.3651 16.1849C14.3039 16.0848 14.2715 15.9698 14.2715 15.8524C14.2715 15.735 14.3039 15.6199 14.3651 15.5197C14.4263 15.4196 14.5139 15.3383 14.6183 15.2847L33.5048 5.63009C33.5952 5.5834 33.6955 5.55902 33.7972 5.55902C33.899 5.55902 33.9996 5.5834 34.0901 5.63009L34.9165 6.0499L41.8139 9.44359C41.9173 9.49793 42.0037 9.57969 42.0639 9.67984C42.124 9.77998 42.1556 9.89479 42.1549 10.0116C42.1543 10.1284 42.1215 10.2428 42.0603 10.3423C41.9991 10.4418 41.9118 10.5226 41.8078 10.5759Z" fill="#3E4450"/>
<path d="M20.6889 23.5598L20.6671 43.6123C20.6669 43.7217 20.6384 43.8293 20.5846 43.9246C20.5308 44.0199 20.4532 44.0997 20.3596 44.1564C20.266 44.2131 20.1594 44.2448 20.05 44.2484C19.9406 44.252 19.8321 44.2274 19.735 44.1769L0.91284 34.3541C0.638015 34.2074 0.408213 33.989 0.247495 33.7221C0.0867778 33.4553 0.00111071 33.1501 0 32.8386V13.968C0.000111346 13.8598 0.0277504 13.7534 0.0803556 13.6588C0.132961 13.5641 0.208816 13.4844 0.300709 13.4272C0.392601 13.3699 0.497593 13.3371 0.605703 13.3316C0.713813 13.3262 0.821724 13.3484 0.918911 13.3961L8.01342 16.8907C8.12024 16.9432 8.21022 17.0247 8.27306 17.1258C8.3359 17.2269 8.36931 17.3437 8.36913 17.4628V24.3132C8.36388 24.5332 8.40191 24.7519 8.48127 24.9571C8.56063 25.1623 8.67974 25.35 8.83162 25.5092C8.9835 25.6685 9.165 25.7962 9.36625 25.8851C9.56751 25.9741 9.78448 26.0225 10.0045 26.0276C10.4486 26.0378 10.8787 25.8713 11.2001 25.5646C11.5216 25.258 11.708 24.8363 11.7187 24.3921C11.7187 24.3658 11.7187 24.3395 11.7187 24.3132V19.7638C11.7188 19.6558 11.7464 19.5495 11.7987 19.4551C11.8511 19.3606 11.9265 19.2811 12.018 19.2238C12.1095 19.1665 12.2141 19.1334 12.3219 19.1276C12.4297 19.1217 12.5372 19.1432 12.6344 19.1903L12.8351 19.2883L20.3335 22.9848C20.4408 23.0376 20.531 23.1196 20.5939 23.2213C20.6568 23.3229 20.6896 23.4403 20.6889 23.5598Z" fill="#ED5C18"/>
<path d="M43.7211 13.4225L24.3944 22.9644C24.2879 23.017 24.1982 23.0983 24.1354 23.1991C24.0726 23.2999 24.0389 23.4162 24.0387 23.535L24.0154 43.586C24.0154 43.6956 24.0435 43.8034 24.0972 43.8989C24.1509 43.9944 24.2286 44.0743 24.3222 44.1312C24.4159 44.1881 24.5224 44.2198 24.6319 44.2235C24.7414 44.2272 24.85 44.2026 24.9472 44.1521L44.3179 34.0382C44.4213 33.9841 44.5079 33.9028 44.5683 33.803C44.6286 33.7032 44.6606 33.5886 44.6604 33.4719L44.6397 13.9916C44.6391 13.8836 44.6111 13.7774 44.5583 13.6832C44.5055 13.589 44.4297 13.5097 44.3379 13.4528C44.2461 13.396 44.1415 13.3633 44.0336 13.358C43.9258 13.3527 43.8181 13.3749 43.7211 13.4225Z" fill="#ED5C18"/>
</svg>
