<svg width="102" height="102" viewBox="0 0 102 102" fill="none" xmlns="http://www.w3.org/2000/svg">
<rect width="102" height="102" rx="16" fill="#FEF9F4"/>
<path d="M57.8437 26C59.6456 26 61.0663 27.5222 61.0663 29.3541C61.0663 29.4681 61.0524 29.5789 61.0264 29.6849L67.2842 29.6829C70.009 29.6829 72.3049 31.6828 72.5371 34.32L75.7792 71.1493C75.7917 71.2913 75.798 71.4337 75.798 71.5762C75.798 74.3905 73.4214 76.6403 70.5263 76.6403H32.064C29.2672 76.6403 27 74.373 27 71.5762C27 71.4272 27.0066 71.2782 27.0197 71.1297L30.2798 34.3004C30.5111 31.6869 32.7004 29.6829 35.3241 29.6829H39.8884L39.8894 29.3541C39.8894 27.6138 41.1716 26.153 42.8447 26.0113L43.112 26C44.9139 26 46.3345 27.5222 46.3345 29.3541C46.3345 29.4681 46.3207 29.5789 46.2947 29.6849L54.6201 29.6848L54.6211 29.3541C54.6211 27.7104 55.7648 26.3162 57.3013 26.0469L57.5764 26.0113L57.8437 26ZM70.965 47.9576L68.8344 72.0228C68.7754 72.6892 68.5891 73.316 68.3008 73.8801L70.5263 73.8781C71.9287 73.8781 73.0358 72.8301 73.0358 71.5762L73.0277 71.3915L70.965 47.9576ZM43.112 28.7622C42.913 28.7622 42.7169 28.9418 42.6649 29.2119L42.6516 29.3541L42.6506 29.6829L43.6122 29.6849L43.5849 29.5415L43.5723 29.3541C43.5723 29.0067 43.3441 28.7622 43.112 28.7622ZM57.8437 28.7622C57.6447 28.7622 57.4486 28.9418 57.3966 29.2119L57.3833 29.3541L57.3823 29.6829L58.3439 29.6849L58.3167 29.5415L58.3041 29.3541C58.3041 29.0067 58.0758 28.7622 57.8437 28.7622Z" fill="#ED5C18"/>
<path d="M50.1788 44.9778C50.3285 44.5172 50.9802 44.5172 51.1299 44.9778L51.6959 46.7198C52.1644 48.1619 53.5083 49.1383 55.0246 49.1383H56.8563C57.3406 49.1383 57.542 49.7581 57.1502 50.0428L55.6683 51.1194C54.4416 52.0107 53.9283 53.5905 54.3969 55.0326L54.9629 56.7746C55.1125 57.2352 54.5853 57.6183 54.1935 57.3336L52.7116 56.257C51.4849 55.3657 49.8238 55.3657 48.5971 56.257L47.1152 57.3336C46.7234 57.6183 46.1961 57.2352 46.3458 56.7746L46.9118 55.0326C47.3804 53.5905 46.8671 52.0107 45.6404 51.1194L44.1585 50.0428C43.7667 49.7581 43.968 49.1383 44.4524 49.1383H46.2841C47.8004 49.1383 49.1442 48.1619 49.6128 46.7198L50.1788 44.9778Z" fill="#ED5C18" stroke="#FEF9F4" stroke-width="3" stroke-linejoin="round"/>
</svg>
