<svg width="129" height="46" viewBox="0 0 129 46" fill="none" xmlns="http://www.w3.org/2000/svg">
<g filter="url(#filter0_d_413_63)">
<path d="M120.452 37.9563H8.47891C6.01554 37.9563 4 35.8213 4 33.2117V4.74455C4 2.13504 6.01549 0 8.47891 0H120.452C122.915 0 124.93 2.13504 124.93 4.74455V33.2117C124.93 35.8213 122.915 37.9563 120.452 37.9563Z" fill="#33475B"/>
</g>
<path d="M120.452 0H8.47891C6.01554 0 4 2.13504 4 4.74455V33.2117C4 35.8213 6.01549 37.9563 8.47891 37.9563H120.452C122.915 37.9563 124.93 35.8213 124.93 33.2117V4.74455C124.93 2.13504 122.915 0 120.452 0ZM120.452 0.759101C122.526 0.759101 124.214 2.54725 124.214 4.74455V33.2117C124.214 35.4094 122.526 37.1976 120.452 37.1976H8.47891C6.40466 37.1976 4.71663 35.4094 4.71663 33.2117V4.74455C4.71663 2.54725 6.40462 0.759144 8.47891 0.759144H120.452" fill="#A6A6A6"/>
<path d="M28.6338 18.3192C28.6439 17.5271 28.8543 16.7506 29.2453 16.0617C29.6363 15.3729 30.1951 14.7941 30.8698 14.3793C30.4412 13.7671 29.8757 13.2633 29.2183 12.9078C28.5609 12.5525 27.8296 12.3552 27.0827 12.3318C25.4891 12.1645 23.9444 13.2853 23.1323 13.2853C22.3047 13.2853 21.0545 12.3485 19.7083 12.3761C18.8375 12.4043 17.9889 12.6574 17.245 13.111C16.5012 13.5647 15.8875 14.2033 15.4639 14.9645C13.6287 18.142 14.9976 22.8115 16.7557 25.3798C17.6352 26.6375 18.663 28.0422 20.0081 27.9925C21.3242 27.9379 21.8158 27.1532 23.4046 27.1532C24.9787 27.1532 25.4398 27.9925 26.8121 27.9608C28.2245 27.9379 29.1142 26.6976 29.963 25.428C30.5949 24.5319 31.0812 23.5415 31.4038 22.4936C30.5832 22.1465 29.8831 21.5656 29.3904 20.8233C28.8979 20.081 28.6347 19.21 28.6338 18.3192ZM26.0417 10.6427C26.8118 9.71829 27.1911 8.53007 27.0993 7.33044C25.9228 7.45401 24.836 8.01628 24.0555 8.90523C23.674 9.33952 23.3817 9.84478 23.1955 10.3921C23.0093 10.9393 22.9327 11.518 22.9703 12.0949C23.5588 12.101 24.1409 11.9734 24.6729 11.7218C25.205 11.4703 25.6729 11.1013 26.0417 10.6427ZM45.2712 24.8087H40.7797L39.7011 27.9936H37.7985L42.053 16.2101H44.0295L48.2838 27.9936H46.3489L45.2712 24.8087ZM41.2449 23.3389H44.8052L43.0501 18.1701H43.0009L41.2449 23.3389ZM57.4717 23.6985C57.4717 26.3682 56.0427 28.0835 53.8864 28.0835C53.3402 28.1121 52.7969 27.9862 52.3188 27.7204C51.8408 27.4545 51.4473 27.0595 51.1833 26.5804H51.1425V30.8356H49.3791V19.4025H51.0861V20.8314H51.1185C51.3946 20.3547 51.7948 19.9616 52.2765 19.6942C52.7582 19.4267 53.3033 19.2949 53.854 19.3127C56.0344 19.3127 57.4717 21.0362 57.4717 23.6985V23.6985ZM55.6591 23.6985C55.6591 21.9593 54.7603 20.8157 53.3889 20.8157C52.0414 20.8157 51.1352 21.9833 51.1352 23.6985C51.1352 25.4295 52.0414 26.5889 53.3889 26.5889C54.7603 26.5889 55.6591 25.4536 55.6591 23.6985V23.6985ZM66.9273 23.6985C66.9273 26.3682 65.4985 28.0835 63.3421 28.0835C62.7958 28.1121 62.2526 27.9862 61.7745 27.7204C61.2965 27.4545 60.903 27.0594 60.639 26.5804H60.5982V30.8356H58.8348V19.4025H60.5417V20.8314H60.5742C60.8503 20.3547 61.2504 19.9616 61.7321 19.6942C62.2138 19.4267 62.7589 19.2949 63.3096 19.3127C65.4901 19.3127 66.9273 21.0362 66.9273 23.6985V23.6985ZM65.1149 23.6985C65.1149 21.9593 64.2159 20.8157 62.8445 20.8157C61.497 20.8157 60.5908 21.9833 60.5908 23.6985C60.5908 25.4295 61.497 26.5889 62.8445 26.5889C64.2159 26.5889 65.1149 25.4536 65.1149 23.6985V23.6985ZM73.1769 24.7105C73.3075 25.879 74.4427 26.6462 75.9938 26.6462C77.4802 26.6462 78.5496 25.879 78.5496 24.8253C78.5496 23.9107 77.9046 23.363 76.3775 22.9877L74.8503 22.6199C72.6866 22.0972 71.6821 21.0853 71.6821 19.4432C71.6821 17.4101 73.4539 16.0136 75.9697 16.0136C78.4597 16.0136 80.1666 17.4101 80.224 19.4432H78.4439C78.3373 18.2674 77.3653 17.5575 75.9447 17.5575C74.5241 17.5575 73.5521 18.2757 73.5521 19.3209C73.5521 20.154 74.173 20.6442 75.6917 21.0195L76.99 21.3383C79.4076 21.91 80.4122 22.8812 80.4122 24.6046C80.4122 26.8093 78.6562 28.19 75.8632 28.19C73.2499 28.19 71.4856 26.8416 71.3716 24.7104L73.1769 24.7105ZM84.218 17.3695V19.4025H85.8517V20.799H84.218V25.5352C84.218 26.2709 84.5451 26.6138 85.2633 26.6138C85.4572 26.6104 85.6509 26.5968 85.8434 26.573V27.9612C85.5205 28.0215 85.1923 28.0488 84.8639 28.0427C83.1246 28.0427 82.4462 27.3894 82.4462 25.7232V20.799H81.197V19.4025H82.4462V17.3695H84.218ZM86.7979 23.6985C86.7979 20.9954 88.3898 19.2969 90.8724 19.2969C93.3631 19.2969 94.9476 20.9954 94.9476 23.6985C94.9476 26.409 93.372 28.1001 90.8723 28.1001C88.3741 28.1001 86.7979 26.409 86.7979 23.6985ZM93.1513 23.6985C93.1513 21.8443 92.3013 20.7499 90.8723 20.7499C89.4435 20.7499 88.5946 21.8525 88.5946 23.6985C88.5946 25.5603 89.4435 26.6462 90.8723 26.6462C92.3013 26.6462 93.1513 25.5603 93.1513 23.6985ZM96.4014 19.4025H98.0838V20.8647H98.1245C98.2383 20.4081 98.5058 20.0044 98.8818 19.7218C99.2587 19.4391 99.7204 19.2946 100.191 19.3127C100.394 19.312 100.597 19.3339 100.796 19.3784V21.0278C100.539 20.9495 100.271 20.9135 100.003 20.9213C99.7469 20.9109 99.4909 20.9561 99.2543 21.0537C99.0169 21.1513 98.8041 21.2991 98.6294 21.4869C98.4546 21.6747 98.3231 21.898 98.2427 22.1415C98.1624 22.3851 98.1359 22.6431 98.1651 22.8978V27.9936H96.4014V19.4025ZM108.925 25.4702C108.689 27.0299 107.17 28.1001 105.227 28.1001C102.727 28.1001 101.176 26.4257 101.176 23.7392C101.176 21.0446 102.736 19.2969 105.153 19.2969C107.53 19.2969 109.024 20.9297 109.024 23.5345V24.1387H102.956V24.2452C102.928 24.5614 102.968 24.88 103.072 25.1796C103.177 25.4793 103.344 25.7534 103.563 25.9835C103.781 26.2137 104.047 26.3947 104.34 26.5145C104.634 26.6344 104.95 26.6904 105.267 26.6787C105.684 26.7177 106.102 26.6213 106.46 26.4035C106.817 26.1858 107.094 25.8584 107.252 25.4702H108.925ZM102.964 22.9062H107.26C107.275 22.6219 107.232 22.3374 107.132 22.0706C107.034 21.8037 106.88 21.5603 106.682 21.3556C106.485 21.1508 106.246 20.9892 105.983 20.8808C105.72 20.7724 105.437 20.7196 105.153 20.7258C104.865 20.724 104.581 20.7792 104.315 20.8881C104.049 20.997 103.807 21.1574 103.604 21.3602C103.4 21.5628 103.24 21.8038 103.129 22.0693C103.02 22.3346 102.963 22.6191 102.964 22.9062ZM41.0238 7.3406C41.3936 7.31406 41.7645 7.36991 42.1101 7.50412C42.4556 7.63833 42.767 7.84754 43.0218 8.11669C43.2768 8.38583 43.4687 8.70818 43.5839 9.06049C43.6991 9.41278 43.7346 9.78625 43.688 10.154C43.688 11.9628 42.7103 13.0026 41.0238 13.0026H38.9787V7.3405L41.0238 7.3406ZM39.8582 12.2019H40.9257C41.1898 12.2176 41.4542 12.1743 41.6995 12.075C41.9449 11.9757 42.1649 11.823 42.3438 11.6279C42.5227 11.4328 42.6557 11.2004 42.7334 10.9474C42.8111 10.6945 42.8314 10.4273 42.7928 10.1655C42.8286 9.90471 42.8062 9.63919 42.7274 9.38807C42.6486 9.13694 42.5151 8.90637 42.3366 8.71286C42.1582 8.51935 41.9391 8.3677 41.6952 8.26879C41.4513 8.16987 41.1885 8.12614 40.9257 8.14071H39.8582V12.2019ZM44.6814 10.8643C44.6546 10.5834 44.6866 10.3002 44.7757 10.0325C44.8648 9.7648 45.0087 9.51871 45.1985 9.30995C45.3882 9.10128 45.6195 8.93444 45.8774 8.82033C46.1354 8.70619 46.4143 8.64724 46.6965 8.64724C46.9785 8.64724 47.2575 8.70619 47.5154 8.82033C47.7734 8.93444 48.0046 9.10128 48.1944 9.30995C48.3841 9.51871 48.5281 9.7648 48.6171 10.0325C48.7062 10.3002 48.7383 10.5834 48.7114 10.8643C48.7389 11.1454 48.7072 11.4291 48.6185 11.6973C48.5297 11.9655 48.3858 12.2121 48.196 12.4213C48.0062 12.6305 47.7748 12.7977 47.5165 12.9121C47.2582 13.0265 46.9789 13.0856 46.6965 13.0856C46.414 13.0856 46.1346 13.0265 45.8763 12.9121C45.6181 12.7977 45.3866 12.6305 45.1968 12.4213C45.007 12.2121 44.8632 11.9655 44.7744 11.6973C44.6857 11.4291 44.654 11.1454 44.6814 10.8643ZM47.8441 10.8643C47.8441 9.93799 47.428 9.39636 46.6979 9.39636C45.9648 9.39636 45.5525 9.93799 45.5525 10.8643C45.5525 11.7978 45.9649 12.3353 46.6979 12.3353C47.428 12.3353 47.8441 11.7941 47.8441 10.8643ZM54.0685 13.0026H53.1937L52.3106 9.85555H52.2439L51.3645 13.0026H50.4981L49.3203 8.7296H50.1755L50.941 11.99H51.004L51.8825 8.7296H52.6915L53.57 11.99H53.6367L54.3984 8.7296H55.2416L54.0685 13.0026ZM56.2322 8.72969H57.044V9.40846H57.1071C57.214 9.16465 57.3942 8.96022 57.6228 8.82379C57.8514 8.68732 58.1169 8.62557 58.3821 8.64714C58.5901 8.63152 58.7989 8.66287 58.993 8.73887C59.1872 8.81488 59.3617 8.93356 59.5037 9.08618C59.6457 9.2388 59.7516 9.42143 59.8135 9.62057C59.8753 9.81962 59.8916 10.0301 59.8611 10.2363V13.0024H59.0178V10.4482C59.0178 9.76154 58.7194 9.42002 58.0958 9.42002C57.9546 9.41349 57.8138 9.4375 57.6828 9.49046C57.5518 9.54342 57.4338 9.6241 57.3368 9.72694C57.2399 9.82986 57.1664 9.95238 57.1213 10.0863C57.0762 10.2202 57.0605 10.3623 57.0756 10.5028V13.0026H56.2322V8.72969ZM61.2047 7.06162H62.048V13.0026H61.2047V7.06162ZM63.2202 10.8643C63.1934 10.5834 63.2255 10.3001 63.3146 10.0324C63.4036 9.76471 63.5476 9.51853 63.7374 9.30977C63.9271 9.10101 64.1585 8.93418 64.4164 8.82005C64.6744 8.7059 64.9534 8.64694 65.2355 8.64694C65.5176 8.64694 65.7967 8.7059 66.0547 8.82005C66.3127 8.93418 66.544 9.10101 66.7337 9.30977C66.9234 9.51853 67.0675 9.76471 67.1566 10.0324C67.2455 10.3001 67.2777 10.5834 67.2508 10.8643C67.2781 11.1454 67.2463 11.4291 67.1574 11.6971C67.0686 11.9651 66.9247 12.2117 66.7349 12.4208C66.5451 12.6299 66.3137 12.7971 66.0555 12.9114C65.7972 13.0258 65.5179 13.0848 65.2355 13.0848C64.9532 13.0848 64.6739 13.0258 64.4156 12.9114C64.1574 12.7971 63.9259 12.6299 63.7362 12.4208C63.5464 12.2117 63.4024 11.9651 63.3136 11.6971C63.2247 11.4291 63.193 11.1454 63.2202 10.8643ZM66.383 10.8643C66.383 9.93799 65.9668 9.39636 65.2367 9.39636C64.5037 9.39636 64.0914 9.93799 64.0914 10.8643C64.0914 11.7978 64.5038 12.3353 65.2367 12.3353C65.9668 12.3353 66.383 11.7941 66.383 10.8643ZM68.1385 11.7941C68.1385 11.025 68.7112 10.5816 69.7278 10.5185L70.8851 10.4519V10.083C70.8851 9.63169 70.5867 9.37694 70.0104 9.37694C69.5397 9.37694 69.2134 9.54978 69.1199 9.85184H68.3034C68.3896 9.11787 69.0801 8.64724 70.0494 8.64724C71.1205 8.64724 71.7247 9.18054 71.7247 10.083V13.0026H70.9129V12.4021H70.8463C70.7108 12.6174 70.5206 12.793 70.2952 12.9109C70.0697 13.0288 69.8169 13.0847 69.5628 13.0729C69.3834 13.0915 69.2021 13.0725 69.0306 13.0168C68.8591 12.9611 68.7012 12.8701 68.5669 12.7496C68.4328 12.6291 68.3253 12.4818 68.2515 12.3172C68.1778 12.1527 68.1393 11.9746 68.1385 11.7941ZM70.8851 11.4291V11.0718L69.8417 11.1385C69.2533 11.1778 68.9864 11.3781 68.9864 11.7547C68.9864 12.1393 69.32 12.3631 69.7787 12.3631C69.9132 12.3767 70.0489 12.3632 70.178 12.3232C70.307 12.2833 70.4267 12.2178 70.53 12.1306C70.6332 12.0435 70.7178 11.9365 70.7788 11.8159C70.8398 11.6955 70.876 11.5638 70.8851 11.4291ZM72.833 10.8643C72.833 9.51403 73.527 8.65881 74.6067 8.65881C74.8737 8.64651 75.1387 8.71046 75.3707 8.84317C75.6028 8.97593 75.7922 9.17198 75.917 9.40846H75.98V7.06152H76.8231V13.0024H76.0152V12.3273H75.9485C75.8141 12.5621 75.6181 12.7558 75.3816 12.8872C75.145 13.0185 74.8771 13.0828 74.6068 13.0728C73.5196 13.0728 72.833 12.2175 72.833 10.8641V10.8643ZM73.7041 10.8643C73.7041 11.7705 74.1313 12.3159 74.8457 12.3159C75.5564 12.3159 75.9957 11.7627 75.9957 10.8678C75.9957 9.97745 75.5519 9.41631 74.8457 9.41631C74.1359 9.41631 73.7041 9.96535 73.7041 10.8643ZM80.3121 10.8643C80.2853 10.5834 80.3173 10.3002 80.4064 10.0325C80.4954 9.7648 80.6394 9.51871 80.8292 9.30995C81.0189 9.10128 81.2502 8.93444 81.5081 8.82033C81.7661 8.70619 82.045 8.64724 82.3271 8.64724C82.6092 8.64724 82.8882 8.70619 83.1461 8.82033C83.404 8.93444 83.6353 9.10128 83.8251 9.30995C84.0148 9.51871 84.1588 9.7648 84.2478 10.0325C84.3369 10.3002 84.3689 10.5834 84.3421 10.8643C84.3695 11.1454 84.3379 11.4291 84.2491 11.6973C84.1603 11.9655 84.0165 12.2121 83.8267 12.4213C83.6369 12.6305 83.4055 12.7977 83.1472 12.9121C82.8889 13.0265 82.6096 13.0856 82.3271 13.0856C82.0447 13.0856 81.7653 13.0265 81.507 12.9121C81.2487 12.7977 81.0173 12.6305 80.8275 12.4213C80.6377 12.2121 80.4939 11.9655 80.4051 11.6973C80.3163 11.4291 80.2847 11.1454 80.3121 10.8643ZM83.4748 10.8643C83.4748 9.93799 83.0587 9.39636 82.3286 9.39636C81.5955 9.39636 81.1832 9.93799 81.1832 10.8643C81.1832 11.7978 81.5956 12.3353 82.3286 12.3353C83.0587 12.3353 83.4748 11.7941 83.4748 10.8643ZM85.4735 8.72969H86.2854V9.40846H86.3484C86.4553 9.16465 86.6355 8.96022 86.8642 8.82379C87.0927 8.68732 87.3582 8.62557 87.6235 8.64714C87.8314 8.63152 88.0402 8.66287 88.2343 8.73887C88.4285 8.81488 88.603 8.93356 88.745 9.08618C88.887 9.2388 88.993 9.42143 89.0548 9.62057C89.1167 9.81962 89.133 10.0301 89.1024 10.2363V13.0024H88.2592V10.4482C88.2592 9.76154 87.9607 9.42002 87.3371 9.42002C87.196 9.41349 87.0551 9.4375 86.9241 9.49046C86.7931 9.54342 86.6751 9.6241 86.5782 9.72694C86.4812 9.82986 86.4077 9.95238 86.3627 10.0863C86.3176 10.2202 86.302 10.3623 86.3169 10.5028V13.0026H85.4736L85.4735 8.72969ZM93.8672 7.66588V8.74915H94.7931V9.45939H93.8672V11.6565C93.8672 12.1041 94.0517 12.3001 94.4718 12.3001C94.5786 12.2998 94.6863 12.2932 94.7931 12.2806V12.9831C94.6413 13.0102 94.4886 13.0245 94.3341 13.0261C93.3967 13.0261 93.0233 12.6962 93.0233 11.8724V9.45939H92.3445V8.74905H93.0233V7.66597L93.8672 7.66588ZM95.9451 7.06162H96.781V9.41631H96.8472C96.9593 9.17021 97.1447 8.96472 97.3777 8.82773C97.6107 8.69074 97.8808 8.62898 98.1501 8.65084C98.3575 8.63959 98.564 8.67412 98.7556 8.75197C98.948 8.82984 99.1201 8.9491 99.2605 9.10127C99.4017 9.25336 99.5068 9.43467 99.5694 9.63222C99.6312 9.82968 99.6498 10.0385 99.6215 10.2438V13.0026H98.7777V10.4519C98.7777 9.76931 98.4599 9.42373 97.8641 9.42373C97.7193 9.41181 97.5736 9.43176 97.4368 9.48216C97.3009 9.53248 97.1764 9.61201 97.074 9.7152C96.9716 9.81838 96.8931 9.94267 96.8437 10.0795C96.7942 10.2162 96.7757 10.3621 96.788 10.507V13.0026H95.9451V7.06162ZM104.539 11.8488C104.424 12.2393 104.176 12.5771 103.837 12.8031C103.499 13.029 103.092 13.1289 102.687 13.085C102.406 13.0924 102.126 13.0385 101.867 12.927C101.609 12.8154 101.378 12.649 101.19 12.4391C101.002 12.2293 100.863 11.9811 100.78 11.7118C100.698 11.4425 100.675 11.1585 100.713 10.8796C100.676 10.5997 100.699 10.3151 100.781 10.045C100.863 9.77478 101.002 9.52541 101.189 9.31374C101.376 9.10207 101.606 8.93303 101.864 8.81801C102.122 8.70299 102.401 8.64472 102.684 8.64714C103.873 8.64714 104.59 9.45939 104.59 10.8012V11.0954H101.572V11.1427C101.559 11.2995 101.579 11.4573 101.631 11.606C101.682 11.7548 101.764 11.8911 101.871 12.0064C101.978 12.1216 102.108 12.2132 102.253 12.2753C102.398 12.3374 102.553 12.3685 102.71 12.3667C102.912 12.3909 103.117 12.3547 103.298 12.2624C103.479 12.1702 103.628 12.0262 103.727 11.8488H104.539ZM101.572 10.4718H103.731C103.741 10.3284 103.722 10.1844 103.673 10.0489C103.625 9.91354 103.549 9.7897 103.45 9.68545C103.351 9.5812 103.231 9.49884 103.098 9.44359C102.965 9.38842 102.823 9.36158 102.679 9.36485C102.534 9.36308 102.389 9.39045 102.254 9.44544C102.118 9.50043 101.995 9.58191 101.893 9.68501C101.789 9.7882 101.708 9.91098 101.653 10.046C101.598 10.1812 101.571 10.3259 101.572 10.4718Z" fill="white"/>
<defs>
<filter id="filter0_d_413_63" x="0" y="0" width="128.93" height="45.9561" filterUnits="userSpaceOnUse" color-interpolation-filters="sRGB">
<feFlood flood-opacity="0" result="BackgroundImageFix"/>
<feColorMatrix in="SourceAlpha" type="matrix" values="0 0 0 0 0 0 0 0 0 0 0 0 0 0 0 0 0 0 127 0" result="hardAlpha"/>
<feOffset dy="4"/>
<feGaussianBlur stdDeviation="2"/>
<feComposite in2="hardAlpha" operator="out"/>
<feColorMatrix type="matrix" values="0 0 0 0 0 0 0 0 0 0 0 0 0 0 0 0 0 0 0.25 0"/>
<feBlend mode="normal" in2="BackgroundImageFix" result="effect1_dropShadow_413_63"/>
<feBlend mode="normal" in="SourceGraphic" in2="effect1_dropShadow_413_63" result="shape"/>
</filter>
</defs>
</svg>
