<svg width="125" height="134" viewBox="0 0 125 134" fill="none" xmlns="http://www.w3.org/2000/svg">
<path d="M3.38036 11.2945C1.61297 11.2948 0.140403 12.6605 0.0336372 14.4542C-0.0731185 16.3015 1.34646 17.8807 3.19422 17.9874C4.15826 18.0408 5.12231 18.0942 6.08635 18.1207C9.80863 18.2806 13.3435 18.4674 16.798 19.136L23.7607 20.2055L35.0887 23.0946C35.8385 23.3354 36.7491 23.6833 37.6864 24.0311L46.0687 27.0815C46.3366 27.1885 46.7383 27.4026 47.14 27.5899L56.4331 32.059L64.4944 36.9566C74.8323 43.7814 84.1262 52.1591 92.0546 61.8221C99.5276 70.9498 105.742 81.8179 110.511 94.1052L112.976 100.798C113.057 101.065 113.164 101.494 113.271 101.949L115.844 111.961L116.326 115.093C117.158 120.34 117.962 125.319 118.017 130.379C118.044 132.227 119.517 133.699 121.365 133.698L121.391 133.698C123.239 133.671 124.738 132.172 124.711 130.324C124.657 124.756 123.799 119.321 122.941 114.048L122.431 110.808C122.404 110.701 122.404 110.594 122.378 110.487L119.778 100.368C119.644 99.8057 119.51 99.2703 119.323 98.7349L116.777 91.8016C111.74 78.7915 105.177 67.3078 97.2489 57.6447C88.8919 47.4731 79.0892 38.6404 68.0817 31.3874L59.7793 26.3292C59.6989 26.2757 59.5918 26.2221 59.4847 26.1686L50.0577 21.646C49.5489 21.4052 49.04 21.1376 48.5044 20.9235L39.9882 17.8197C38.9705 17.445 37.9528 17.0705 36.9352 16.7494L25.2323 13.7532C25.1252 13.7265 25.0181 13.6997 24.9109 13.6998L17.9215 12.6302C14.1188 11.8814 10.1822 11.6947 6.37964 11.5349C5.44237 11.4815 4.5051 11.4549 3.56784 11.4015C3.51426 11.2945 3.43392 11.2945 3.38036 11.2945Z" fill="#495D9C"/>
<path d="M25.9526 0.019214C25.5241 0.0192973 25.1224 0.0996901 24.694 0.260403C20.6507 1.89426 16.6075 3.63521 12.7249 5.42966C9.13694 7.22406 5.84354 9.23257 2.65724 11.1608L1.613 11.8035C0.675853 12.3659 0.0601438 13.3833 0.00679982 14.4809C-0.0465442 15.5786 0.435676 16.6494 1.3195 17.3185L2.41759 18.1482C5.25656 20.2894 7.93483 22.2967 10.3989 24.5183C13.0505 27.0611 15.7289 29.7645 18.2734 32.4679C19.5323 33.8063 21.6478 33.8862 23.0133 32.6009C24.3519 31.3424 24.4319 29.2274 23.1462 27.8623C20.5214 25.0785 17.7626 22.2948 14.9503 19.5914C13.1023 17.9319 11.2275 16.4331 9.29911 14.9343C11.3608 13.7024 13.4761 12.4972 15.6182 11.4259C19.3133 9.71184 23.2227 8.02446 27.1856 6.44416C28.8993 5.74777 29.7291 3.79328 29.0325 2.08003C28.5503 0.795087 27.2915 0.0189536 25.9526 0.019214Z" fill="#495D9C"/>
</svg>
