<svg width="130" height="139" viewBox="0 0 130 139" fill="none" xmlns="http://www.w3.org/2000/svg">
<path d="M126.166 122.463C127.932 122.392 129.348 120.968 129.382 119.171C129.415 117.321 127.932 115.8 126.082 115.768C125.116 115.754 124.151 115.739 123.187 115.751C119.461 115.742 115.922 115.698 112.443 115.169L105.443 114.381L94.0075 111.95C93.2486 111.74 92.3248 111.429 91.3742 111.119L82.8757 108.409C82.6038 108.313 82.1938 108.115 81.7849 107.944L72.3193 103.853L64.0671 99.2845C53.4626 92.8818 43.8387 84.8854 35.5274 75.5497C27.6926 66.7306 21.0449 56.1217 15.7847 44.0366L13.052 37.449C12.9609 37.1847 12.8366 36.7611 12.7111 36.3106L9.73705 26.4103L9.1286 23.3001C8.08668 18.0908 7.08234 13.1479 6.82395 8.09438C6.7224 6.24973 5.19116 4.83814 3.34494 4.91295L3.3182 4.91403C1.47307 5.0156 0.0353762 6.5743 0.136928 8.41895C0.41591 13.9807 1.49219 19.3762 2.56195 24.6112L3.20147 27.8273C3.23257 27.9332 3.23691 28.0402 3.26801 28.1461L6.27316 38.1524C6.42971 38.7087 6.58517 39.2383 6.79415 39.7657L9.61678 46.5908C15.1739 59.3873 22.1943 70.5973 30.5056 79.933C39.2657 89.7596 49.4164 98.1902 60.7072 104.994L69.2066 109.713C69.2891 109.764 69.3983 109.813 69.5075 109.862L79.109 114.001C79.6272 114.221 80.1464 114.468 80.6902 114.66L89.3246 117.418C90.3565 117.752 91.3885 118.085 92.4182 118.365L104.232 120.887C104.34 120.909 104.449 120.932 104.556 120.927L111.582 121.714C115.412 122.309 119.353 122.337 123.159 122.344C124.098 122.359 125.035 122.348 125.974 122.364C126.032 122.469 126.112 122.465 126.166 122.463Z" fill="#495D9C"/>
<path d="M104.066 134.639C104.494 134.622 104.892 134.525 105.314 134.347C109.288 132.552 113.258 130.649 117.065 128.7C120.578 126.762 123.787 124.623 126.893 122.568L127.911 121.883C128.825 121.284 129.399 120.242 129.408 119.143C129.417 118.044 128.892 116.994 127.982 116.361L126.851 115.576C123.928 113.551 121.171 111.653 118.62 109.533C115.868 107.099 113.083 104.506 110.431 101.907C109.12 100.621 107.003 100.626 105.69 101.965C104.403 103.277 104.408 105.393 105.748 106.705C108.483 109.381 111.352 112.051 114.271 114.639C116.184 116.223 118.118 117.645 120.105 119.065C118.095 120.379 116.03 121.668 113.932 122.825C110.309 124.687 106.471 126.53 102.575 128.269C100.891 129.034 100.14 131.02 100.905 132.704C101.439 133.968 102.728 134.693 104.066 134.639Z" fill="#495D9C"/>
</svg>
