<svg width="183" height="183" viewBox="0 0 183 183" fill="none" xmlns="http://www.w3.org/2000/svg">
<path d="M10.2919 89.9435C9.02751 88.7086 8.92787 86.7027 10.1045 85.3447C11.3186 83.9483 13.4376 83.81 14.8343 85.0245C15.5614 85.6598 16.2884 86.2951 16.9968 86.9495C19.7719 89.4354 22.4316 91.7712 25.3706 93.7061L31.0997 97.8048L41.2235 103.651C41.9282 104.003 42.8227 104.39 43.7364 104.796L51.8651 108.469C52.1315 108.579 52.5685 108.707 52.9868 108.853L62.7583 112.148L71.9479 114.275C84.1126 116.613 96.6152 117.112 109.039 115.736C120.762 114.425 132.801 110.991 144.797 105.53L151.236 102.464C151.481 102.328 151.857 102.097 152.251 101.846L161.087 96.4792L163.62 94.5752C167.88 91.4014 171.934 88.4005 175.508 84.8181C176.818 83.5153 178.9 83.4911 180.222 84.7821L180.241 84.8008C181.545 86.111 181.57 88.2314 180.26 89.5342C176.331 93.4804 171.92 96.7695 167.622 99.9438L164.995 101.906C164.901 101.964 164.826 102.04 164.732 102.098L155.803 107.523C155.314 107.831 154.844 108.121 154.336 108.373L147.671 111.556C134.979 117.346 122.26 120.978 109.837 122.354C96.7516 123.794 83.5671 123.266 70.6241 120.766L61.1499 118.585C61.055 118.567 60.941 118.531 60.8269 118.494L50.9223 115.145C50.3899 114.962 49.8389 114.798 49.3061 114.577L41.0442 110.848C40.0543 110.405 39.0644 109.962 38.112 109.481L27.6452 103.45C27.5499 103.394 27.4545 103.338 27.3779 103.263L21.6296 99.1459C18.3855 97.0252 15.4384 94.4088 12.6059 91.8668C11.898 91.2502 11.2087 90.6144 10.5008 89.9979C10.3877 90.0371 10.3302 89.9809 10.2919 89.9435Z" fill="#495D9C"/>
<path d="M18.5663 113.78C18.2598 113.481 18.0286 113.142 17.8343 112.728C16.0826 108.734 14.4057 104.664 12.8812 100.668C11.5675 96.8775 10.6141 93.1396 9.68118 89.534L9.38298 88.3447C9.1053 87.2876 9.37552 86.1295 10.1041 85.3068C10.8328 84.4841 11.9258 84.0548 13.0257 84.1935L14.391 84.3669C17.9182 84.8181 21.2369 85.2528 24.5519 85.3846C28.2256 85.4175 32.0306 85.3542 35.7398 85.1974C37.5755 85.1192 39.1451 86.5399 39.2242 88.4134C39.3029 90.2491 37.8826 91.8183 36.009 91.8969C32.1862 92.0551 28.2676 92.1197 24.3667 92.0894C21.8851 91.9858 19.4966 91.7486 17.0697 91.4739C17.6844 93.7956 18.356 96.1357 19.1404 98.3986C20.5869 102.206 22.2054 106.145 23.937 110.044C24.6767 111.74 23.905 113.718 22.2098 114.457C20.9671 115.039 19.5242 114.715 18.5663 113.78Z" fill="#495D9C"/>
</svg>
