<svg width="102" height="102" viewBox="0 0 102 102" fill="none" xmlns="http://www.w3.org/2000/svg">
<rect width="102" height="102" rx="16" fill="#FEF9F4"/>
<path d="M64.5228 37.7558V50.235H74.6508C75.736 50.235 76.4594 50.9584 76.4594 52.0436V74.8317C76.4594 75.9168 75.736 76.6403 74.6508 76.6403H55.6607V57.6502C55.6607 56.565 54.9373 55.8416 53.8521 55.8416H36.6706C35.5855 55.8416 34.862 56.565 34.862 57.6502V76.6403H27.8086C26.7234 76.6403 26 75.9168 26 74.8317V37.7558H64.5228ZM69.5868 64.7036H67.7782C66.6931 64.7036 65.9696 65.4271 65.9696 66.5122C65.9696 67.5974 66.6931 68.3208 67.7782 68.3208H69.5868C70.672 68.3208 71.3954 67.5974 71.3954 66.5122C71.3954 65.6079 70.672 64.7036 69.5868 64.7036ZM69.5868 57.6502H67.7782C66.6931 57.6502 65.9696 58.3736 65.9696 59.4588C65.9696 60.5439 66.6931 61.2673 67.7782 61.2673H69.5868C70.672 61.2673 71.3954 60.5439 71.3954 59.4588C71.3954 58.3736 70.672 57.6502 69.5868 57.6502ZM45.3518 42.4581C44.2667 42.4581 43.5432 43.1815 43.5432 44.2667V45.3518H42.2772C41.1921 45.3518 40.4686 46.0753 40.4686 47.1604C40.4686 48.2455 41.1921 48.969 42.2772 48.969H43.3624V50.0541C43.3624 51.1393 44.0858 51.8627 45.171 51.8627C46.2561 51.8627 46.9795 51.1393 46.9795 50.0541V48.969H48.0647C49.1498 48.969 49.8733 48.2455 49.8733 47.1604C49.8733 46.0753 49.1498 45.3518 48.0647 45.3518H46.9795V44.2667C47.1604 43.1815 46.2561 42.4581 45.3518 42.4581ZM59.4588 26C62.1716 26 64.5228 28.1703 64.5228 31.064V34.3195H26V31.064C26 28.1703 28.1703 26 31.064 26H59.4588Z" fill="#ED5C18"/>
</svg>
