<svg width="564" height="417" viewBox="0 0 564 417" fill="none" xmlns="http://www.w3.org/2000/svg">
<g filter="url(#filter0_d_866_5775)">
<rect x="16" y="22" width="351" height="115" rx="10" fill="white"/>
</g>
<path d="M33.5781 67V51H36.4766V57.7734H43.8906V51H46.7969V67H43.8906V60.2031H36.4766V67H33.5781ZM55.1367 67.2344C53.9336 67.2344 52.8945 66.9844 52.0195 66.4844C51.1497 65.9792 50.4805 65.2656 50.0117 64.3437C49.543 63.4167 49.3086 62.3255 49.3086 61.0703C49.3086 59.8359 49.543 58.7526 50.0117 57.8203C50.4857 56.8828 51.1471 56.1536 51.9961 55.6328C52.8451 55.1068 53.8424 54.8438 54.9883 54.8438C55.7279 54.8438 56.4258 54.9635 57.082 55.2031C57.7435 55.4375 58.3268 55.8021 58.832 56.2969C59.3424 56.7917 59.7435 57.4219 60.0352 58.1875C60.3268 58.9479 60.4727 59.8542 60.4727 60.9062V61.7734H50.6367V59.8672H57.7617C57.7565 59.3255 57.6393 58.8437 57.4102 58.4219C57.181 57.9948 56.8607 57.6589 56.4492 57.4141C56.043 57.1693 55.569 57.0469 55.0273 57.0469C54.4492 57.0469 53.9414 57.1875 53.5039 57.4687C53.0664 57.7448 52.7253 58.1094 52.4805 58.5625C52.2409 59.0104 52.1185 59.5026 52.1133 60.0391V61.7031C52.1133 62.401 52.2409 63 52.4961 63.5C52.7513 63.9948 53.1081 64.375 53.5664 64.6406C54.0247 64.901 54.5612 65.0312 55.1758 65.0312C55.5872 65.0312 55.9596 64.974 56.293 64.8594C56.6263 64.7396 56.9154 64.5651 57.1602 64.3359C57.4049 64.1068 57.5898 63.8229 57.7148 63.4844L60.3555 63.7812C60.1888 64.4792 59.8711 65.0885 59.4023 65.6094C58.9388 66.125 58.3451 66.526 57.6211 66.8125C56.8971 67.0937 56.069 67.2344 55.1367 67.2344ZM65.6934 51V67H62.8652V51H65.6934ZM71.4297 51V67H68.6016V51H71.4297ZM79.5723 67.2344C78.4004 67.2344 77.3848 66.9766 76.5254 66.4609C75.666 65.9453 74.9993 65.224 74.5254 64.2969C74.0566 63.3698 73.8223 62.2865 73.8223 61.0469C73.8223 59.8073 74.0566 58.7214 74.5254 57.7891C74.9993 56.8568 75.666 56.1328 76.5254 55.6172C77.3848 55.1016 78.4004 54.8438 79.5723 54.8438C80.7441 54.8438 81.7598 55.1016 82.6191 55.6172C83.4785 56.1328 84.1426 56.8568 84.6113 57.7891C85.0853 58.7214 85.3223 59.8073 85.3223 61.0469C85.3223 62.2865 85.0853 63.3698 84.6113 64.2969C84.1426 65.224 83.4785 65.9453 82.6191 66.4609C81.7598 66.9766 80.7441 67.2344 79.5723 67.2344ZM79.5879 64.9687C80.2233 64.9687 80.7546 64.7943 81.1816 64.4453C81.6087 64.0911 81.9264 63.6172 82.1348 63.0234C82.3483 62.4297 82.4551 61.7682 82.4551 61.0391C82.4551 60.3047 82.3483 59.6406 82.1348 59.0469C81.9264 58.4479 81.6087 57.9714 81.1816 57.6172C80.7546 57.263 80.2233 57.0859 79.5879 57.0859C78.9368 57.0859 78.3952 57.263 77.9629 57.6172C77.5358 57.9714 77.2155 58.4479 77.002 59.0469C76.7936 59.6406 76.6895 60.3047 76.6895 61.0391C76.6895 61.7682 76.7936 62.4297 77.002 63.0234C77.2155 63.6172 77.5358 64.0911 77.9629 64.4453C78.3952 64.7943 78.9368 64.9687 79.5879 64.9687ZM96.6406 51L96.3828 62.2969H93.8672L93.6172 51H96.6406ZM95.125 67.1719C94.651 67.1719 94.2448 67.0052 93.9063 66.6719C93.5729 66.3385 93.4063 65.9323 93.4063 65.4531C93.4063 64.9844 93.5729 64.5833 93.9063 64.25C94.2448 63.9167 94.651 63.75 95.125 63.75C95.5885 63.75 95.9896 63.9167 96.3281 64.25C96.6719 64.5833 96.8438 64.9844 96.8438 65.4531C96.8438 65.7708 96.763 66.0599 96.6016 66.3203C96.4453 66.5807 96.237 66.7891 95.9766 66.9453C95.7214 67.0964 95.4375 67.1719 95.125 67.1719Z" fill="#33475B"/>
<path d="M32.3807 85.3636H34.375L37.4148 90.6534H37.5398L40.5795 85.3636H42.5739L38.3523 92.4318V97H36.6023V92.4318L32.3807 85.3636ZM46.3338 97.1761C45.5156 97.1761 44.8016 96.9886 44.1918 96.6136C43.5819 96.2386 43.1084 95.714 42.7713 95.0398C42.4342 94.3655 42.2656 93.5777 42.2656 92.6761C42.2656 91.7708 42.4342 90.9792 42.7713 90.3011C43.1084 89.6231 43.5819 89.0966 44.1918 88.7216C44.8016 88.3466 45.5156 88.1591 46.3338 88.1591C47.152 88.1591 47.866 88.3466 48.4759 88.7216C49.0857 89.0966 49.5592 89.6231 49.8963 90.3011C50.2334 90.9792 50.402 91.7708 50.402 92.6761C50.402 93.5777 50.2334 94.3655 49.8963 95.0398C49.5592 95.714 49.0857 96.2386 48.4759 96.6136C47.866 96.9886 47.152 97.1761 46.3338 97.1761ZM46.3395 95.75C46.8698 95.75 47.3092 95.6098 47.6577 95.3295C48.0062 95.0492 48.2637 94.6761 48.4304 94.2102C48.6009 93.7443 48.6861 93.2311 48.6861 92.6705C48.6861 92.1136 48.6009 91.6023 48.4304 91.1364C48.2637 90.6667 48.0062 90.2898 47.6577 90.0057C47.3092 89.7216 46.8698 89.5795 46.3395 89.5795C45.8054 89.5795 45.3622 89.7216 45.0099 90.0057C44.6615 90.2898 44.402 90.6667 44.2315 91.1364C44.0649 91.6023 43.9815 92.1136 43.9815 92.6705C43.9815 93.2311 44.0649 93.7443 44.2315 94.2102C44.402 94.6761 44.6615 95.0492 45.0099 95.3295C45.3622 95.6098 45.8054 95.75 46.3395 95.75ZM57.8267 93.3807V88.2727H59.5312V97H57.8608V95.4886H57.7699C57.5691 95.9545 57.2472 96.3428 56.804 96.6534C56.3646 96.9602 55.8172 97.1136 55.1619 97.1136C54.6013 97.1136 54.1051 96.9905 53.6733 96.7443C53.2453 96.4943 52.9081 96.125 52.6619 95.6364C52.4195 95.1477 52.2983 94.5436 52.2983 93.8239V88.2727H53.9972V93.6193C53.9972 94.214 54.1619 94.6875 54.4915 95.0398C54.821 95.392 55.2491 95.5682 55.7756 95.5682C56.0938 95.5682 56.41 95.4886 56.7244 95.3295C57.0426 95.1705 57.3059 94.9299 57.5142 94.608C57.7263 94.286 57.8305 93.8769 57.8267 93.3807ZM61.8139 97V88.2727H63.456V89.6591H63.5469C63.706 89.1894 63.9863 88.8201 64.3878 88.5511C64.7931 88.2784 65.2514 88.142 65.7628 88.142C65.8688 88.142 65.9938 88.1458 66.1378 88.1534C66.2855 88.161 66.401 88.1705 66.4844 88.1818V89.8068C66.4162 89.7879 66.295 89.767 66.1207 89.7443C65.9465 89.7178 65.7723 89.7045 65.598 89.7045C65.1965 89.7045 64.8385 89.7898 64.5241 89.9602C64.2135 90.1269 63.9673 90.3598 63.7855 90.6591C63.6037 90.9545 63.5128 91.2917 63.5128 91.6705V97H61.8139ZM79.6548 88.2727L76.4901 97H74.6719L71.5014 88.2727H73.3253L75.5355 94.9886H75.6264L77.831 88.2727H79.6548ZM81.2514 97V88.2727H82.9503V97H81.2514ZM82.1094 86.9261C81.8139 86.9261 81.5601 86.8277 81.348 86.6307C81.1397 86.4299 81.0355 86.1913 81.0355 85.9148C81.0355 85.6345 81.1397 85.3958 81.348 85.1989C81.5601 84.9981 81.8139 84.8977 82.1094 84.8977C82.4048 84.8977 82.6567 84.9981 82.8651 85.1989C83.0772 85.3958 83.1832 85.6345 83.1832 85.9148C83.1832 86.1913 83.0772 86.4299 82.8651 86.6307C82.6567 86.8277 82.4048 86.9261 82.1094 86.9261ZM91.7756 90.4034L90.2358 90.6761C90.1714 90.4792 90.0691 90.2917 89.929 90.1136C89.7926 89.9356 89.607 89.7898 89.3722 89.6761C89.1373 89.5625 88.8438 89.5057 88.4915 89.5057C88.0104 89.5057 87.6089 89.6136 87.2869 89.8295C86.965 90.0417 86.804 90.3163 86.804 90.6534C86.804 90.9451 86.9119 91.1799 87.1278 91.358C87.3438 91.536 87.6922 91.6818 88.1733 91.7955L89.5597 92.1136C90.3627 92.2992 90.9612 92.5852 91.3551 92.9716C91.7491 93.358 91.946 93.8598 91.946 94.4773C91.946 95 91.7945 95.4659 91.4915 95.875C91.1922 96.2803 90.7737 96.5985 90.2358 96.8295C89.7017 97.0606 89.0824 97.1761 88.3778 97.1761C87.4006 97.1761 86.6032 96.9678 85.9858 96.5511C85.3684 96.1307 84.9896 95.5341 84.8494 94.7614L86.4915 94.5114C86.5938 94.9394 86.804 95.2633 87.1222 95.483C87.4403 95.6989 87.8551 95.8068 88.3665 95.8068C88.9233 95.8068 89.3684 95.6913 89.7017 95.4602C90.035 95.2254 90.2017 94.9394 90.2017 94.6023C90.2017 94.3295 90.0994 94.1004 89.8949 93.9148C89.6941 93.7292 89.3854 93.589 88.9688 93.4943L87.4915 93.1705C86.6771 92.9848 86.0748 92.6894 85.6847 92.2841C85.2983 91.8788 85.1051 91.3655 85.1051 90.7443C85.1051 90.2292 85.2491 89.7784 85.5369 89.392C85.8248 89.0057 86.2225 88.7045 86.7301 88.4886C87.2377 88.2689 87.8191 88.1591 88.4744 88.1591C89.4176 88.1591 90.16 88.3636 90.7017 88.7727C91.2434 89.178 91.6013 89.7216 91.7756 90.4034ZM93.8139 97V88.2727H95.5128V97H93.8139ZM94.6719 86.9261C94.3764 86.9261 94.1226 86.8277 93.9105 86.6307C93.7022 86.4299 93.598 86.1913 93.598 85.9148C93.598 85.6345 93.7022 85.3958 93.9105 85.1989C94.1226 84.9981 94.3764 84.8977 94.6719 84.8977C94.9673 84.8977 95.2192 84.9981 95.4276 85.1989C95.6397 85.3958 95.7457 85.6345 95.7457 85.9148C95.7457 86.1913 95.6397 86.4299 95.4276 86.6307C95.2192 86.8277 94.9673 86.9261 94.6719 86.9261ZM101.872 88.2727V89.6364H97.1051V88.2727H101.872ZM98.3835 86.1818H100.082V94.4375C100.082 94.767 100.132 95.0152 100.23 95.1818C100.329 95.3447 100.455 95.4564 100.611 95.517C100.77 95.5739 100.942 95.6023 101.128 95.6023C101.264 95.6023 101.384 95.5928 101.486 95.5739C101.588 95.5549 101.668 95.5398 101.724 95.5284L102.031 96.9318C101.933 96.9697 101.793 97.0076 101.611 97.0455C101.429 97.0871 101.202 97.1098 100.929 97.1136C100.482 97.1212 100.065 97.0417 99.679 96.875C99.2926 96.7083 98.9801 96.4508 98.7415 96.1023C98.5028 95.7538 98.3835 95.3163 98.3835 94.7898V86.1818ZM107.334 97.1761C106.516 97.1761 105.802 96.9886 105.192 96.6136C104.582 96.2386 104.108 95.714 103.771 95.0398C103.434 94.3655 103.266 93.5777 103.266 92.6761C103.266 91.7708 103.434 90.9792 103.771 90.3011C104.108 89.6231 104.582 89.0966 105.192 88.7216C105.802 88.3466 106.516 88.1591 107.334 88.1591C108.152 88.1591 108.866 88.3466 109.476 88.7216C110.086 89.0966 110.559 89.6231 110.896 90.3011C111.233 90.9792 111.402 91.7708 111.402 92.6761C111.402 93.5777 111.233 94.3655 110.896 95.0398C110.559 95.714 110.086 96.2386 109.476 96.6136C108.866 96.9886 108.152 97.1761 107.334 97.1761ZM107.339 95.75C107.87 95.75 108.309 95.6098 108.658 95.3295C109.006 95.0492 109.264 94.6761 109.43 94.2102C109.601 93.7443 109.686 93.2311 109.686 92.6705C109.686 92.1136 109.601 91.6023 109.43 91.1364C109.264 90.6667 109.006 90.2898 108.658 90.0057C108.309 89.7216 107.87 89.5795 107.339 89.5795C106.805 89.5795 106.362 89.7216 106.01 90.0057C105.661 90.2898 105.402 90.6667 105.232 91.1364C105.065 91.6023 104.982 92.1136 104.982 92.6705C104.982 93.2311 105.065 93.7443 105.232 94.2102C105.402 94.6761 105.661 95.0492 106.01 95.3295C106.362 95.6098 106.805 95.75 107.339 95.75ZM113.298 97V88.2727H114.94V89.6591H115.031C115.19 89.1894 115.471 88.8201 115.872 88.5511C116.277 88.2784 116.736 88.142 117.247 88.142C117.353 88.142 117.478 88.1458 117.622 88.1534C117.77 88.161 117.885 88.1705 117.969 88.1818V89.8068C117.901 89.7879 117.779 89.767 117.605 89.7443C117.431 89.7178 117.257 89.7045 117.082 89.7045C116.681 89.7045 116.323 89.7898 116.009 89.9602C115.698 90.1269 115.452 90.3598 115.27 90.6591C115.088 90.9545 114.997 91.2917 114.997 91.6705V97H113.298ZM124.793 97H122.929L127.116 85.3636H129.145L133.332 97H131.469L128.179 87.4773H128.088L124.793 97ZM125.105 92.4432H131.151V93.9205H125.105V92.4432ZM134.876 97V88.2727H136.507V89.6932H136.615C136.797 89.2121 137.094 88.8371 137.507 88.5682C137.92 88.2955 138.414 88.1591 138.99 88.1591C139.573 88.1591 140.062 88.2955 140.456 88.5682C140.854 88.8409 141.147 89.2159 141.337 89.6932H141.428C141.636 89.2273 141.967 88.8561 142.422 88.5795C142.876 88.2992 143.418 88.1591 144.047 88.1591C144.839 88.1591 145.484 88.4072 145.984 88.9034C146.488 89.3996 146.74 90.1477 146.74 91.1477V97H145.041V91.3068C145.041 90.7159 144.88 90.2879 144.558 90.0227C144.236 89.7576 143.852 89.625 143.405 89.625C142.852 89.625 142.422 89.7955 142.115 90.1364C141.808 90.4735 141.655 90.9072 141.655 91.4375V97H139.962V91.1989C139.962 90.7254 139.814 90.3447 139.518 90.0568C139.223 89.7689 138.839 89.625 138.365 89.625C138.043 89.625 137.746 89.7102 137.473 89.8807C137.204 90.0473 136.986 90.2803 136.82 90.5795C136.657 90.8788 136.575 91.2254 136.575 91.6193V97H134.876ZM151.557 97.1932C151.004 97.1932 150.504 97.0909 150.057 96.8864C149.61 96.678 149.256 96.3769 148.994 95.983C148.737 95.589 148.608 95.1061 148.608 94.5341C148.608 94.0417 148.703 93.6364 148.892 93.3182C149.081 93 149.337 92.7481 149.659 92.5625C149.981 92.3769 150.341 92.2367 150.739 92.142C151.136 92.0473 151.542 91.9754 151.955 91.9261C152.477 91.8655 152.902 91.8163 153.227 91.7784C153.553 91.7367 153.79 91.6705 153.938 91.5795C154.085 91.4886 154.159 91.3409 154.159 91.1364V91.0966C154.159 90.6004 154.019 90.2159 153.739 89.9432C153.462 89.6705 153.049 89.5341 152.5 89.5341C151.928 89.5341 151.477 89.661 151.148 89.9148C150.822 90.1648 150.597 90.4432 150.472 90.75L148.875 90.3864C149.064 89.8561 149.341 89.428 149.705 89.1023C150.072 88.7727 150.494 88.5341 150.972 88.3864C151.449 88.2348 151.951 88.1591 152.477 88.1591C152.826 88.1591 153.195 88.2008 153.585 88.2841C153.979 88.3636 154.347 88.5114 154.688 88.7273C155.032 88.9432 155.314 89.2519 155.534 89.6534C155.754 90.0511 155.864 90.5682 155.864 91.2045V97H154.205V95.8068H154.136C154.027 96.0265 153.862 96.2424 153.642 96.4545C153.422 96.6667 153.14 96.8428 152.795 96.983C152.451 97.1231 152.038 97.1932 151.557 97.1932ZM151.926 95.8295C152.396 95.8295 152.797 95.7367 153.131 95.5511C153.468 95.3655 153.723 95.1231 153.898 94.8239C154.076 94.5208 154.165 94.197 154.165 93.8523V92.7273C154.104 92.7879 153.987 92.8447 153.812 92.8977C153.642 92.947 153.447 92.9905 153.227 93.0284C153.008 93.0625 152.794 93.0947 152.585 93.125C152.377 93.1515 152.203 93.1742 152.062 93.1932C151.733 93.2348 151.432 93.3049 151.159 93.4034C150.89 93.5019 150.674 93.6439 150.511 93.8295C150.352 94.0114 150.273 94.2538 150.273 94.5568C150.273 94.9773 150.428 95.2955 150.739 95.5114C151.049 95.7235 151.445 95.8295 151.926 95.8295ZM158.126 97V88.2727H159.768V89.6591H159.859C160.018 89.1894 160.299 88.8201 160.7 88.5511C161.106 88.2784 161.564 88.142 162.075 88.142C162.181 88.142 162.306 88.1458 162.45 88.1534C162.598 88.161 162.714 88.1705 162.797 88.1818V89.8068C162.729 89.7879 162.607 89.767 162.433 89.7443C162.259 89.7178 162.085 89.7045 161.911 89.7045C161.509 89.7045 161.151 89.7898 160.837 89.9602C160.526 90.1269 160.28 90.3598 160.098 90.6591C159.916 90.9545 159.825 91.2917 159.825 91.6705V97H158.126ZM170.2 91.8182V97H168.501V85.3636H170.178V89.6932H170.286C170.49 89.2235 170.803 88.8504 171.223 88.5739C171.643 88.2973 172.193 88.1591 172.871 88.1591C173.469 88.1591 173.992 88.2822 174.439 88.5284C174.89 88.7746 175.238 89.142 175.484 89.6307C175.734 90.1155 175.859 90.7216 175.859 91.4489V97H174.161V91.6534C174.161 91.0133 173.996 90.517 173.666 90.1648C173.337 89.8087 172.878 89.6307 172.291 89.6307C171.89 89.6307 171.53 89.7159 171.212 89.8864C170.897 90.0568 170.649 90.3068 170.467 90.6364C170.289 90.9621 170.2 91.3561 170.2 91.8182ZM180.666 97.1932C180.113 97.1932 179.613 97.0909 179.166 96.8864C178.719 96.678 178.365 96.3769 178.104 95.983C177.846 95.589 177.717 95.1061 177.717 94.5341C177.717 94.0417 177.812 93.6364 178.001 93.3182C178.191 93 178.446 92.7481 178.768 92.5625C179.09 92.3769 179.45 92.2367 179.848 92.142C180.246 92.0473 180.651 91.9754 181.064 91.9261C181.587 91.8655 182.011 91.8163 182.337 91.7784C182.662 91.7367 182.899 91.6705 183.047 91.5795C183.195 91.4886 183.268 91.3409 183.268 91.1364V91.0966C183.268 90.6004 183.128 90.2159 182.848 89.9432C182.571 89.6705 182.159 89.5341 181.609 89.5341C181.037 89.5341 180.587 89.661 180.257 89.9148C179.931 90.1648 179.706 90.4432 179.581 90.75L177.984 90.3864C178.174 89.8561 178.45 89.428 178.814 89.1023C179.181 88.7727 179.604 88.5341 180.081 88.3864C180.558 88.2348 181.06 88.1591 181.587 88.1591C181.935 88.1591 182.304 88.2008 182.695 88.2841C183.089 88.3636 183.456 88.5114 183.797 88.7273C184.142 88.9432 184.424 89.2519 184.643 89.6534C184.863 90.0511 184.973 90.5682 184.973 91.2045V97H183.314V95.8068H183.246C183.136 96.0265 182.971 96.2424 182.751 96.4545C182.532 96.6667 182.25 96.8428 181.905 96.983C181.56 97.1231 181.147 97.1932 180.666 97.1932ZM181.036 95.8295C181.505 95.8295 181.907 95.7367 182.24 95.5511C182.577 95.3655 182.833 95.1231 183.007 94.8239C183.185 94.5208 183.274 94.197 183.274 93.8523V92.7273C183.214 92.7879 183.096 92.8447 182.922 92.8977C182.751 92.947 182.556 92.9905 182.337 93.0284C182.117 93.0625 181.903 93.0947 181.695 93.125C181.486 93.1515 181.312 93.1742 181.172 93.1932C180.842 93.2348 180.541 93.3049 180.268 93.4034C180 93.5019 179.784 93.6439 179.621 93.8295C179.462 94.0114 179.382 94.2538 179.382 94.5568C179.382 94.9773 179.537 95.2955 179.848 95.5114C180.159 95.7235 180.554 95.8295 181.036 95.8295ZM193.776 90.4034L192.236 90.6761C192.171 90.4792 192.069 90.2917 191.929 90.1136C191.793 89.9356 191.607 89.7898 191.372 89.6761C191.137 89.5625 190.844 89.5057 190.491 89.5057C190.01 89.5057 189.609 89.6136 189.287 89.8295C188.965 90.0417 188.804 90.3163 188.804 90.6534C188.804 90.9451 188.912 91.1799 189.128 91.358C189.344 91.536 189.692 91.6818 190.173 91.7955L191.56 92.1136C192.363 92.2992 192.961 92.5852 193.355 92.9716C193.749 93.358 193.946 93.8598 193.946 94.4773C193.946 95 193.795 95.4659 193.491 95.875C193.192 96.2803 192.774 96.5985 192.236 96.8295C191.702 97.0606 191.082 97.1761 190.378 97.1761C189.401 97.1761 188.603 96.9678 187.986 96.5511C187.368 96.1307 186.99 95.5341 186.849 94.7614L188.491 94.5114C188.594 94.9394 188.804 95.2633 189.122 95.483C189.44 95.6989 189.855 95.8068 190.366 95.8068C190.923 95.8068 191.368 95.6913 191.702 95.4602C192.035 95.2254 192.202 94.9394 192.202 94.6023C192.202 94.3295 192.099 94.1004 191.895 93.9148C191.694 93.7292 191.385 93.589 190.969 93.4943L189.491 93.1705C188.677 92.9848 188.075 92.6894 187.685 92.2841C187.298 91.8788 187.105 91.3655 187.105 90.7443C187.105 90.2292 187.249 89.7784 187.537 89.392C187.825 89.0057 188.223 88.7045 188.73 88.4886C189.238 88.2689 189.819 88.1591 190.474 88.1591C191.418 88.1591 192.16 88.3636 192.702 88.7727C193.243 89.178 193.601 89.7216 193.776 90.4034ZM203.724 97.1761C202.88 97.1761 202.152 96.9848 201.543 96.6023C200.937 96.2159 200.471 95.6837 200.145 95.0057C199.819 94.3277 199.656 93.5511 199.656 92.6761C199.656 91.7898 199.823 91.0076 200.156 90.3295C200.49 89.6477 200.959 89.1155 201.565 88.733C202.171 88.3504 202.885 88.1591 203.707 88.1591C204.37 88.1591 204.961 88.2822 205.48 88.5284C205.999 88.7708 206.418 89.1117 206.736 89.5511C207.058 89.9905 207.249 90.5038 207.31 91.0909H205.656C205.565 90.6818 205.357 90.3295 205.031 90.0341C204.709 89.7386 204.277 89.5909 203.736 89.5909C203.262 89.5909 202.848 89.7159 202.491 89.9659C202.139 90.2121 201.865 90.5644 201.668 91.0227C201.471 91.4773 201.372 92.0152 201.372 92.6364C201.372 93.2727 201.469 93.822 201.662 94.2841C201.855 94.7462 202.128 95.1042 202.48 95.358C202.836 95.6117 203.255 95.7386 203.736 95.7386C204.058 95.7386 204.349 95.6799 204.611 95.5625C204.876 95.4413 205.098 95.2689 205.276 95.0455C205.457 94.822 205.584 94.553 205.656 94.2386H207.31C207.249 94.803 207.065 95.3068 206.759 95.75C206.452 96.1932 206.041 96.5417 205.526 96.7955C205.014 97.0492 204.414 97.1761 203.724 97.1761ZM210.825 91.8182V97H209.126V85.3636H210.803V89.6932H210.911C211.115 89.2235 211.428 88.8504 211.848 88.5739C212.268 88.2973 212.818 88.1591 213.496 88.1591C214.094 88.1591 214.617 88.2822 215.064 88.5284C215.515 88.7746 215.863 89.142 216.109 89.6307C216.359 90.1155 216.484 90.7216 216.484 91.4489V97H214.786V91.6534C214.786 91.0133 214.621 90.517 214.291 90.1648C213.962 89.8087 213.503 89.6307 212.916 89.6307C212.515 89.6307 212.155 89.7159 211.837 89.8864C211.522 90.0568 211.274 90.3068 211.092 90.6364C210.914 90.9621 210.825 91.3561 210.825 91.8182ZM222.513 97.1761C221.653 97.1761 220.912 96.9924 220.291 96.625C219.674 96.2538 219.196 95.733 218.859 95.0625C218.526 94.3883 218.359 93.5985 218.359 92.6932C218.359 91.7992 218.526 91.0114 218.859 90.3295C219.196 89.6477 219.666 89.1155 220.268 88.733C220.875 88.3504 221.583 88.1591 222.393 88.1591C222.886 88.1591 223.363 88.2405 223.825 88.4034C224.287 88.5663 224.702 88.822 225.07 89.1705C225.437 89.5189 225.727 89.9716 225.939 90.5284C226.151 91.0814 226.257 91.7538 226.257 92.5455V93.1477H219.32V91.875H224.592C224.592 91.428 224.501 91.0322 224.32 90.6875C224.138 90.339 223.882 90.0644 223.553 89.8636C223.227 89.6629 222.844 89.5625 222.405 89.5625C221.928 89.5625 221.511 89.6799 221.155 89.9148C220.803 90.1458 220.53 90.4489 220.337 90.8239C220.147 91.1951 220.053 91.5985 220.053 92.0341V93.0284C220.053 93.6117 220.155 94.108 220.359 94.517C220.568 94.9261 220.857 95.2386 221.229 95.4545C221.6 95.6667 222.034 95.7727 222.53 95.7727C222.852 95.7727 223.145 95.7273 223.411 95.6364C223.676 95.5417 223.905 95.4015 224.098 95.2159C224.291 95.0303 224.439 94.8011 224.541 94.5284L226.149 94.8182C226.02 95.2917 225.789 95.7064 225.456 96.0625C225.126 96.4148 224.712 96.6894 224.212 96.8864C223.715 97.0795 223.149 97.1761 222.513 97.1761ZM231.818 97.1761C230.973 97.1761 230.246 96.9848 229.636 96.6023C229.03 96.2159 228.564 95.6837 228.239 95.0057C227.913 94.3277 227.75 93.5511 227.75 92.6761C227.75 91.7898 227.917 91.0076 228.25 90.3295C228.583 89.6477 229.053 89.1155 229.659 88.733C230.265 88.3504 230.979 88.1591 231.801 88.1591C232.464 88.1591 233.055 88.2822 233.574 88.5284C234.093 88.7708 234.511 89.1117 234.83 89.5511C235.152 89.9905 235.343 90.5038 235.403 91.0909H233.75C233.659 90.6818 233.451 90.3295 233.125 90.0341C232.803 89.7386 232.371 89.5909 231.83 89.5909C231.356 89.5909 230.941 89.7159 230.585 89.9659C230.233 90.2121 229.958 90.5644 229.761 91.0227C229.564 91.4773 229.466 92.0152 229.466 92.6364C229.466 93.2727 229.563 93.822 229.756 94.2841C229.949 94.7462 230.222 95.1042 230.574 95.358C230.93 95.6117 231.348 95.7386 231.83 95.7386C232.152 95.7386 232.443 95.6799 232.705 95.5625C232.97 95.4413 233.191 95.2689 233.369 95.0455C233.551 94.822 233.678 94.553 233.75 94.2386H235.403C235.343 94.803 235.159 95.3068 234.852 95.75C234.545 96.1932 234.134 96.5417 233.619 96.7955C233.108 97.0492 232.508 97.1761 231.818 97.1761ZM238.783 94.0398L238.771 91.9659H239.067L242.544 88.2727H244.578L240.612 92.4773H240.345L238.783 94.0398ZM237.22 97V85.3636H238.919V97H237.22ZM242.732 97L239.607 92.8523L240.777 91.6648L244.817 97H242.732ZM249.528 97.1761C248.669 97.1761 247.928 96.9924 247.307 96.625C246.689 96.2538 246.212 95.733 245.875 95.0625C245.542 94.3883 245.375 93.5985 245.375 92.6932C245.375 91.7992 245.542 91.0114 245.875 90.3295C246.212 89.6477 246.682 89.1155 247.284 88.733C247.89 88.3504 248.598 88.1591 249.409 88.1591C249.902 88.1591 250.379 88.2405 250.841 88.4034C251.303 88.5663 251.718 88.822 252.085 89.1705C252.453 89.5189 252.742 89.9716 252.955 90.5284C253.167 91.0814 253.273 91.7538 253.273 92.5455V93.1477H246.335V91.875H251.608C251.608 91.428 251.517 91.0322 251.335 90.6875C251.153 90.339 250.898 90.0644 250.568 89.8636C250.242 89.6629 249.86 89.5625 249.42 89.5625C248.943 89.5625 248.527 89.6799 248.17 89.9148C247.818 90.1458 247.545 90.4489 247.352 90.8239C247.163 91.1951 247.068 91.5985 247.068 92.0341V93.0284C247.068 93.6117 247.17 94.108 247.375 94.517C247.583 94.9261 247.873 95.2386 248.244 95.4545C248.616 95.6667 249.049 95.7727 249.545 95.7727C249.867 95.7727 250.161 95.7273 250.426 95.6364C250.691 95.5417 250.92 95.4015 251.114 95.2159C251.307 95.0303 251.455 94.8011 251.557 94.5284L253.165 94.8182C253.036 95.2917 252.805 95.7064 252.472 96.0625C252.142 96.4148 251.727 96.6894 251.227 96.8864C250.731 97.0795 250.165 97.1761 249.528 97.1761ZM258.425 97.1705C257.72 97.1705 257.091 96.9905 256.538 96.6307C255.989 96.267 255.557 95.75 255.243 95.0795C254.932 94.4053 254.777 93.5966 254.777 92.6534C254.777 91.7102 254.934 90.9034 255.249 90.233C255.567 89.5625 256.002 89.0492 256.555 88.6932C257.108 88.3371 257.735 88.1591 258.436 88.1591C258.978 88.1591 259.413 88.25 259.743 88.4318C260.076 88.6098 260.334 88.8182 260.516 89.0568C260.701 89.2955 260.845 89.5057 260.947 89.6875H261.05V85.3636H262.749V97H261.089V95.642H260.947C260.845 95.8277 260.697 96.0398 260.504 96.2784C260.315 96.517 260.054 96.7254 259.72 96.9034C259.387 97.0814 258.955 97.1705 258.425 97.1705ZM258.8 95.7216C259.288 95.7216 259.701 95.5928 260.038 95.3352C260.379 95.0739 260.637 94.7121 260.811 94.25C260.989 93.7879 261.078 93.25 261.078 92.6364C261.078 92.0303 260.991 91.5 260.817 91.0455C260.643 90.5909 260.387 90.2367 260.05 89.983C259.713 89.7292 259.296 89.6023 258.8 89.6023C258.288 89.6023 257.862 89.7348 257.521 90C257.18 90.2652 256.923 90.6269 256.749 91.0852C256.578 91.5436 256.493 92.0606 256.493 92.6364C256.493 93.2197 256.58 93.7443 256.754 94.2102C256.929 94.6761 257.186 95.0455 257.527 95.3182C257.872 95.5871 258.296 95.7216 258.8 95.7216ZM269.408 97V88.2727H271.107V97H269.408ZM270.266 86.9261C269.97 86.9261 269.716 86.8277 269.504 86.6307C269.296 86.4299 269.192 86.1913 269.192 85.9148C269.192 85.6345 269.296 85.3958 269.504 85.1989C269.716 84.9981 269.97 84.8977 270.266 84.8977C270.561 84.8977 270.813 84.9981 271.021 85.1989C271.233 85.3958 271.339 85.6345 271.339 85.9148C271.339 86.1913 271.233 86.4299 271.021 86.6307C270.813 86.8277 270.561 86.9261 270.266 86.9261ZM275.091 91.8182V97H273.392V88.2727H275.023V89.6932H275.131C275.331 89.2311 275.646 88.8598 276.074 88.5795C276.506 88.2992 277.049 88.1591 277.705 88.1591C278.299 88.1591 278.82 88.2841 279.267 88.5341C279.714 88.7803 280.061 89.1477 280.307 89.6364C280.553 90.125 280.676 90.7292 280.676 91.4489V97H278.977V91.6534C278.977 91.0208 278.813 90.5265 278.483 90.1705C278.153 89.8106 277.701 89.6307 277.125 89.6307C276.731 89.6307 276.381 89.7159 276.074 89.8864C275.771 90.0568 275.53 90.3068 275.352 90.6364C275.178 90.9621 275.091 91.3561 275.091 91.8182ZM291.342 88.2727V89.6364H286.411V88.2727H291.342ZM287.763 97V87.2614C287.763 86.7159 287.882 86.2633 288.121 85.9034C288.359 85.5398 288.676 85.2689 289.07 85.0909C289.464 84.9091 289.892 84.8182 290.354 84.8182C290.695 84.8182 290.986 84.8466 291.229 84.9034C291.471 84.9564 291.651 85.0057 291.768 85.0511L291.371 86.4261C291.291 86.4034 291.189 86.3769 291.064 86.3466C290.939 86.3125 290.787 86.2955 290.609 86.2955C290.196 86.2955 289.901 86.3977 289.723 86.6023C289.549 86.8068 289.462 87.1023 289.462 87.4886V97H287.763ZM293.095 97V88.2727H294.737V89.6591H294.828C294.987 89.1894 295.268 88.8201 295.669 88.5511C296.074 88.2784 296.533 88.142 297.044 88.142C297.15 88.142 297.275 88.1458 297.419 88.1534C297.567 88.161 297.682 88.1705 297.766 88.1818V89.8068C297.697 89.7879 297.576 89.767 297.402 89.7443C297.228 89.7178 297.054 89.7045 296.879 89.7045C296.478 89.7045 296.12 89.7898 295.805 89.9602C295.495 90.1269 295.249 90.3598 295.067 90.6591C294.885 90.9545 294.794 91.2917 294.794 91.6705V97H293.095ZM302.599 97.1761C301.781 97.1761 301.067 96.9886 300.457 96.6136C299.848 96.2386 299.374 95.714 299.037 95.0398C298.7 94.3655 298.531 93.5777 298.531 92.6761C298.531 91.7708 298.7 90.9792 299.037 90.3011C299.374 89.6231 299.848 89.0966 300.457 88.7216C301.067 88.3466 301.781 88.1591 302.599 88.1591C303.418 88.1591 304.132 88.3466 304.741 88.7216C305.351 89.0966 305.825 89.6231 306.162 90.3011C306.499 90.9792 306.668 91.7708 306.668 92.6761C306.668 93.5777 306.499 94.3655 306.162 95.0398C305.825 95.714 305.351 96.2386 304.741 96.6136C304.132 96.9886 303.418 97.1761 302.599 97.1761ZM302.605 95.75C303.135 95.75 303.575 95.6098 303.923 95.3295C304.272 95.0492 304.529 94.6761 304.696 94.2102C304.866 93.7443 304.952 93.2311 304.952 92.6705C304.952 92.1136 304.866 91.6023 304.696 91.1364C304.529 90.6667 304.272 90.2898 303.923 90.0057C303.575 89.7216 303.135 89.5795 302.605 89.5795C302.071 89.5795 301.628 89.7216 301.276 90.0057C300.927 90.2898 300.668 90.6667 300.497 91.1364C300.33 91.6023 300.247 92.1136 300.247 92.6705C300.247 93.2311 300.33 93.7443 300.497 94.2102C300.668 94.6761 300.927 95.0492 301.276 95.3295C301.628 95.6098 302.071 95.75 302.605 95.75ZM308.564 97V88.2727H310.195V89.6932H310.303C310.484 89.2121 310.782 88.8371 311.195 88.5682C311.607 88.2955 312.102 88.1591 312.678 88.1591C313.261 88.1591 313.75 88.2955 314.143 88.5682C314.541 88.8409 314.835 89.2159 315.024 89.6932H315.115C315.323 89.2273 315.655 88.8561 316.109 88.5795C316.564 88.2992 317.106 88.1591 317.734 88.1591C318.526 88.1591 319.172 88.4072 319.672 88.9034C320.176 89.3996 320.428 90.1477 320.428 91.1477V97H318.729V91.3068C318.729 90.7159 318.568 90.2879 318.246 90.0227C317.924 89.7576 317.539 89.625 317.092 89.625C316.539 89.625 316.109 89.7955 315.803 90.1364C315.496 90.4735 315.342 90.9072 315.342 91.4375V97H313.649V91.1989C313.649 90.7254 313.501 90.3447 313.206 90.0568C312.911 89.7689 312.526 89.625 312.053 89.625C311.731 89.625 311.433 89.7102 311.161 89.8807C310.892 90.0473 310.674 90.2803 310.507 90.5795C310.344 90.8788 310.263 91.2254 310.263 91.6193V97H308.564ZM331.013 88.2727V89.6364H326.246V88.2727H331.013ZM327.524 86.1818H329.223V94.4375C329.223 94.767 329.272 95.0152 329.371 95.1818C329.469 95.3447 329.596 95.4564 329.751 95.517C329.911 95.5739 330.083 95.6023 330.268 95.6023C330.405 95.6023 330.524 95.5928 330.626 95.5739C330.729 95.5549 330.808 95.5398 330.865 95.5284L331.172 96.9318C331.073 96.9697 330.933 97.0076 330.751 97.0455C330.57 97.0871 330.342 97.1098 330.07 97.1136C329.623 97.1212 329.206 97.0417 328.82 96.875C328.433 96.7083 328.121 96.4508 327.882 96.1023C327.643 95.7538 327.524 95.3163 327.524 94.7898V86.1818ZM334.778 91.8182V97H333.08V85.3636H334.756V89.6932H334.864C335.068 89.2235 335.381 88.8504 335.801 88.5739C336.222 88.2973 336.771 88.1591 337.449 88.1591C338.047 88.1591 338.57 88.2822 339.017 88.5284C339.468 88.7746 339.816 89.142 340.062 89.6307C340.312 90.1155 340.438 90.7216 340.438 91.4489V97H338.739V91.6534C338.739 91.0133 338.574 90.517 338.244 90.1648C337.915 89.8087 337.456 89.6307 336.869 89.6307C336.468 89.6307 336.108 89.7159 335.79 89.8864C335.475 90.0568 335.227 90.3068 335.045 90.6364C334.867 90.9621 334.778 91.3561 334.778 91.8182ZM346.466 97.1761C345.606 97.1761 344.866 96.9924 344.244 96.625C343.627 96.2538 343.15 95.733 342.812 95.0625C342.479 94.3883 342.312 93.5985 342.312 92.6932C342.312 91.7992 342.479 91.0114 342.812 90.3295C343.15 89.6477 343.619 89.1155 344.222 88.733C344.828 88.3504 345.536 88.1591 346.347 88.1591C346.839 88.1591 347.316 88.2405 347.778 88.4034C348.241 88.5663 348.655 88.822 349.023 89.1705C349.39 89.5189 349.68 89.9716 349.892 90.5284C350.104 91.0814 350.21 91.7538 350.21 92.5455V93.1477H343.273V91.875H348.545C348.545 91.428 348.455 91.0322 348.273 90.6875C348.091 90.339 347.835 90.0644 347.506 89.8636C347.18 89.6629 346.797 89.5625 346.358 89.5625C345.881 89.5625 345.464 89.6799 345.108 89.9148C344.756 90.1458 344.483 90.4489 344.29 90.8239C344.1 91.1951 344.006 91.5985 344.006 92.0341V93.0284C344.006 93.6117 344.108 94.108 344.312 94.517C344.521 94.9261 344.811 95.2386 345.182 95.4545C345.553 95.6667 345.987 95.7727 346.483 95.7727C346.805 95.7727 347.098 95.7273 347.364 95.6364C347.629 95.5417 347.858 95.4015 348.051 95.2159C348.244 95.0303 348.392 94.8011 348.494 94.5284L350.102 94.8182C349.973 95.2917 349.742 95.7064 349.409 96.0625C349.08 96.4148 348.665 96.6894 348.165 96.8864C347.669 97.0795 347.102 97.1761 346.466 97.1761ZM33.142 122.273V110.273H34.8011V111.688H34.9432C35.0417 111.506 35.1837 111.295 35.3693 111.057C35.5549 110.818 35.8125 110.61 36.142 110.432C36.4716 110.25 36.9072 110.159 37.4489 110.159C38.1534 110.159 38.7822 110.337 39.3352 110.693C39.8883 111.049 40.322 111.562 40.6364 112.233C40.9545 112.903 41.1136 113.71 41.1136 114.653C41.1136 115.597 40.9564 116.405 40.642 117.08C40.3277 117.75 39.8958 118.267 39.3466 118.631C38.7973 118.991 38.1705 119.17 37.4659 119.17C36.9356 119.17 36.5019 119.081 36.1648 118.903C35.8314 118.725 35.5701 118.517 35.3807 118.278C35.1913 118.04 35.0455 117.828 34.9432 117.642H34.8409V122.273H33.142ZM34.8068 114.636C34.8068 115.25 34.8958 115.788 35.0739 116.25C35.2519 116.712 35.5095 117.074 35.8466 117.335C36.1837 117.593 36.5966 117.722 37.0852 117.722C37.5928 117.722 38.017 117.587 38.358 117.318C38.6989 117.045 38.9564 116.676 39.1307 116.21C39.3087 115.744 39.3977 115.22 39.3977 114.636C39.3977 114.061 39.3106 113.544 39.1364 113.085C38.9659 112.627 38.7083 112.265 38.3636 112C38.0227 111.735 37.5966 111.602 37.0852 111.602C36.5928 111.602 36.1761 111.729 35.8352 111.983C35.4981 112.237 35.2424 112.591 35.0682 113.045C34.8939 113.5 34.8068 114.03 34.8068 114.636ZM43.017 119V110.273H44.6591V111.659H44.75C44.9091 111.189 45.1894 110.82 45.5909 110.551C45.9962 110.278 46.4545 110.142 46.9659 110.142C47.072 110.142 47.197 110.146 47.3409 110.153C47.4886 110.161 47.6042 110.17 47.6875 110.182V111.807C47.6193 111.788 47.4981 111.767 47.3239 111.744C47.1496 111.718 46.9754 111.705 46.8011 111.705C46.3996 111.705 46.0417 111.79 45.7273 111.96C45.4167 112.127 45.1705 112.36 44.9886 112.659C44.8068 112.955 44.7159 113.292 44.7159 113.67V119H43.017ZM52.6065 119.176C51.7467 119.176 51.0062 118.992 50.3849 118.625C49.7675 118.254 49.2902 117.733 48.9531 117.062C48.6198 116.388 48.4531 115.598 48.4531 114.693C48.4531 113.799 48.6198 113.011 48.9531 112.33C49.2902 111.648 49.7599 111.116 50.3622 110.733C50.9683 110.35 51.6766 110.159 52.4872 110.159C52.9796 110.159 53.4569 110.241 53.919 110.403C54.3812 110.566 54.7959 110.822 55.1634 111.17C55.5308 111.519 55.8205 111.972 56.0327 112.528C56.2448 113.081 56.3509 113.754 56.3509 114.545V115.148H49.4134V113.875H54.6861C54.6861 113.428 54.5952 113.032 54.4134 112.688C54.2315 112.339 53.9759 112.064 53.6463 111.864C53.3205 111.663 52.938 111.562 52.4986 111.562C52.0213 111.562 51.6046 111.68 51.2486 111.915C50.8963 112.146 50.6236 112.449 50.4304 112.824C50.241 113.195 50.1463 113.598 50.1463 114.034V115.028C50.1463 115.612 50.2486 116.108 50.4531 116.517C50.6615 116.926 50.9512 117.239 51.3224 117.455C51.6937 117.667 52.1274 117.773 52.6236 117.773C52.9455 117.773 53.2391 117.727 53.5043 117.636C53.7694 117.542 53.9986 117.402 54.1918 117.216C54.3849 117.03 54.5327 116.801 54.6349 116.528L56.2429 116.818C56.1141 117.292 55.883 117.706 55.5497 118.062C55.2202 118.415 54.8054 118.689 54.3054 118.886C53.8092 119.08 53.2429 119.176 52.6065 119.176ZM58.2358 119V110.273H59.8665V111.693H59.9744C60.1563 111.212 60.4536 110.837 60.8665 110.568C61.2794 110.295 61.7737 110.159 62.3494 110.159C62.9328 110.159 63.4214 110.295 63.8153 110.568C64.2131 110.841 64.5066 111.216 64.696 111.693H64.7869C64.9953 111.227 65.3267 110.856 65.7812 110.58C66.2358 110.299 66.7775 110.159 67.4062 110.159C68.1979 110.159 68.8438 110.407 69.3438 110.903C69.8475 111.4 70.0994 112.148 70.0994 113.148V119H68.4006V113.307C68.4006 112.716 68.2396 112.288 67.9176 112.023C67.5956 111.758 67.2112 111.625 66.7642 111.625C66.2112 111.625 65.7812 111.795 65.4744 112.136C65.1676 112.473 65.0142 112.907 65.0142 113.438V119H63.321V113.199C63.321 112.725 63.1733 112.345 62.8778 112.057C62.5824 111.769 62.1979 111.625 61.7244 111.625C61.4025 111.625 61.1051 111.71 60.8324 111.881C60.5634 112.047 60.3456 112.28 60.179 112.58C60.0161 112.879 59.9347 113.225 59.9347 113.619V119H58.2358ZM72.3764 119V110.273H74.0753V119H72.3764ZM73.2344 108.926C72.9389 108.926 72.6851 108.828 72.473 108.631C72.2647 108.43 72.1605 108.191 72.1605 107.915C72.1605 107.634 72.2647 107.396 72.473 107.199C72.6851 106.998 72.9389 106.898 73.2344 106.898C73.5298 106.898 73.7817 106.998 73.9901 107.199C74.2022 107.396 74.3082 107.634 74.3082 107.915C74.3082 108.191 74.2022 108.43 73.9901 108.631C73.7817 108.828 73.5298 108.926 73.2344 108.926ZM82.9006 112.403L81.3608 112.676C81.2964 112.479 81.1941 112.292 81.054 112.114C80.9176 111.936 80.732 111.79 80.4972 111.676C80.2623 111.562 79.9688 111.506 79.6165 111.506C79.1354 111.506 78.7339 111.614 78.4119 111.83C78.09 112.042 77.929 112.316 77.929 112.653C77.929 112.945 78.0369 113.18 78.2528 113.358C78.4688 113.536 78.8172 113.682 79.2983 113.795L80.6847 114.114C81.4877 114.299 82.0862 114.585 82.4801 114.972C82.8741 115.358 83.071 115.86 83.071 116.477C83.071 117 82.9195 117.466 82.6165 117.875C82.3172 118.28 81.8987 118.598 81.3608 118.83C80.8267 119.061 80.2074 119.176 79.5028 119.176C78.5256 119.176 77.7282 118.968 77.1108 118.551C76.4934 118.131 76.1146 117.534 75.9744 116.761L77.6165 116.511C77.7188 116.939 77.929 117.263 78.2472 117.483C78.5653 117.699 78.9801 117.807 79.4915 117.807C80.0483 117.807 80.4934 117.691 80.8267 117.46C81.16 117.225 81.3267 116.939 81.3267 116.602C81.3267 116.33 81.2244 116.1 81.0199 115.915C80.8191 115.729 80.5104 115.589 80.0938 115.494L78.6165 115.17C77.8021 114.985 77.1998 114.689 76.8097 114.284C76.4233 113.879 76.2301 113.366 76.2301 112.744C76.2301 112.229 76.3741 111.778 76.6619 111.392C76.9498 111.006 77.3475 110.705 77.8551 110.489C78.3627 110.269 78.9441 110.159 79.5994 110.159C80.5426 110.159 81.285 110.364 81.8267 110.773C82.3684 111.178 82.7263 111.722 82.9006 112.403ZM88.7003 119.176C87.8404 119.176 87.0999 118.992 86.4787 118.625C85.8613 118.254 85.384 117.733 85.0469 117.062C84.7135 116.388 84.5469 115.598 84.5469 114.693C84.5469 113.799 84.7135 113.011 85.0469 112.33C85.384 111.648 85.8537 111.116 86.456 110.733C87.062 110.35 87.7704 110.159 88.581 110.159C89.0734 110.159 89.5507 110.241 90.0128 110.403C90.4749 110.566 90.8897 110.822 91.2571 111.17C91.6245 111.519 91.9143 111.972 92.1264 112.528C92.3385 113.081 92.4446 113.754 92.4446 114.545V115.148H85.5071V113.875H90.7798C90.7798 113.428 90.6889 113.032 90.5071 112.688C90.3253 112.339 90.0696 112.064 89.7401 111.864C89.4143 111.663 89.0317 111.562 88.5923 111.562C88.1151 111.562 87.6984 111.68 87.3423 111.915C86.9901 112.146 86.7173 112.449 86.5241 112.824C86.3348 113.195 86.2401 113.598 86.2401 114.034V115.028C86.2401 115.612 86.3423 116.108 86.5469 116.517C86.7552 116.926 87.045 117.239 87.4162 117.455C87.7874 117.667 88.2211 117.773 88.7173 117.773C89.0393 117.773 89.3329 117.727 89.598 117.636C89.8632 117.542 90.0923 117.402 90.2855 117.216C90.4787 117.03 90.6264 116.801 90.7287 116.528L92.3366 116.818C92.2079 117.292 91.9768 117.706 91.6435 118.062C91.3139 118.415 90.8991 118.689 90.3991 118.886C89.9029 119.08 89.3366 119.176 88.7003 119.176ZM101.104 119.193C100.551 119.193 100.051 119.091 99.6037 118.886C99.1567 118.678 98.8026 118.377 98.5412 117.983C98.2836 117.589 98.1548 117.106 98.1548 116.534C98.1548 116.042 98.2495 115.636 98.4389 115.318C98.6283 115 98.884 114.748 99.206 114.562C99.5279 114.377 99.8878 114.237 100.286 114.142C100.683 114.047 101.089 113.975 101.501 113.926C102.024 113.866 102.448 113.816 102.774 113.778C103.1 113.737 103.337 113.67 103.484 113.58C103.632 113.489 103.706 113.341 103.706 113.136V113.097C103.706 112.6 103.566 112.216 103.286 111.943C103.009 111.67 102.596 111.534 102.047 111.534C101.475 111.534 101.024 111.661 100.695 111.915C100.369 112.165 100.143 112.443 100.018 112.75L98.4219 112.386C98.6113 111.856 98.8878 111.428 99.2514 111.102C99.6188 110.773 100.041 110.534 100.518 110.386C100.996 110.235 101.498 110.159 102.024 110.159C102.373 110.159 102.742 110.201 103.132 110.284C103.526 110.364 103.893 110.511 104.234 110.727C104.579 110.943 104.861 111.252 105.081 111.653C105.301 112.051 105.411 112.568 105.411 113.205V119H103.751V117.807H103.683C103.573 118.027 103.409 118.242 103.189 118.455C102.969 118.667 102.687 118.843 102.342 118.983C101.998 119.123 101.585 119.193 101.104 119.193ZM101.473 117.83C101.943 117.83 102.344 117.737 102.678 117.551C103.015 117.366 103.27 117.123 103.445 116.824C103.623 116.521 103.712 116.197 103.712 115.852V114.727C103.651 114.788 103.534 114.845 103.359 114.898C103.189 114.947 102.994 114.991 102.774 115.028C102.554 115.062 102.34 115.095 102.132 115.125C101.924 115.152 101.75 115.174 101.609 115.193C101.28 115.235 100.979 115.305 100.706 115.403C100.437 115.502 100.221 115.644 100.058 115.83C99.8991 116.011 99.8196 116.254 99.8196 116.557C99.8196 116.977 99.9749 117.295 100.286 117.511C100.596 117.723 100.992 117.83 101.473 117.83ZM111.747 110.273V111.636H106.98V110.273H111.747ZM108.259 108.182H109.957V116.438C109.957 116.767 110.007 117.015 110.105 117.182C110.204 117.345 110.33 117.456 110.486 117.517C110.645 117.574 110.817 117.602 111.003 117.602C111.139 117.602 111.259 117.593 111.361 117.574C111.463 117.555 111.543 117.54 111.599 117.528L111.906 118.932C111.808 118.97 111.668 119.008 111.486 119.045C111.304 119.087 111.077 119.11 110.804 119.114C110.357 119.121 109.94 119.042 109.554 118.875C109.168 118.708 108.855 118.451 108.616 118.102C108.378 117.754 108.259 117.316 108.259 116.79V108.182ZM117.838 119V117.727L121.776 113.648C122.196 113.205 122.543 112.816 122.815 112.483C123.092 112.146 123.298 111.826 123.435 111.523C123.571 111.22 123.639 110.898 123.639 110.557C123.639 110.17 123.548 109.837 123.366 109.557C123.185 109.273 122.937 109.055 122.622 108.903C122.308 108.748 121.954 108.67 121.56 108.67C121.143 108.67 120.779 108.756 120.469 108.926C120.158 109.097 119.92 109.337 119.753 109.648C119.586 109.958 119.503 110.322 119.503 110.739H117.827C117.827 110.03 117.99 109.411 118.315 108.881C118.641 108.35 119.088 107.939 119.656 107.648C120.224 107.352 120.87 107.205 121.594 107.205C122.325 107.205 122.969 107.35 123.526 107.642C124.086 107.93 124.524 108.324 124.838 108.824C125.152 109.32 125.31 109.881 125.31 110.506C125.31 110.938 125.228 111.36 125.065 111.773C124.906 112.186 124.628 112.646 124.23 113.153C123.832 113.657 123.279 114.269 122.571 114.989L120.259 117.409V117.494H125.497V119H117.838ZM131.582 119.159C130.768 119.159 130.048 119.019 129.423 118.739C128.802 118.458 128.315 118.072 127.963 117.58C127.611 117.087 127.437 116.527 127.44 115.898C127.437 115.405 127.537 114.953 127.741 114.54C127.95 114.123 128.232 113.777 128.588 113.5C128.944 113.22 129.342 113.042 129.781 112.966V112.898C129.202 112.758 128.738 112.447 128.389 111.966C128.041 111.485 127.868 110.932 127.872 110.307C127.868 109.712 128.026 109.182 128.344 108.716C128.666 108.246 129.107 107.877 129.668 107.608C130.228 107.339 130.866 107.205 131.582 107.205C132.291 107.205 132.923 107.341 133.48 107.614C134.041 107.883 134.482 108.252 134.804 108.722C135.126 109.187 135.289 109.716 135.293 110.307C135.289 110.932 135.111 111.485 134.759 111.966C134.406 112.447 133.948 112.758 133.384 112.898V112.966C133.819 113.042 134.211 113.22 134.56 113.5C134.912 113.777 135.192 114.123 135.401 114.54C135.613 114.953 135.721 115.405 135.724 115.898C135.721 116.527 135.543 117.087 135.19 117.58C134.838 118.072 134.349 118.458 133.724 118.739C133.103 119.019 132.389 119.159 131.582 119.159ZM131.582 117.722C132.063 117.722 132.48 117.642 132.832 117.483C133.185 117.32 133.457 117.095 133.651 116.807C133.844 116.515 133.942 116.174 133.946 115.784C133.942 115.379 133.836 115.021 133.628 114.71C133.423 114.4 133.145 114.155 132.793 113.977C132.44 113.799 132.037 113.71 131.582 113.71C131.124 113.71 130.717 113.799 130.361 113.977C130.005 114.155 129.724 114.4 129.52 114.71C129.315 115.021 129.215 115.379 129.219 115.784C129.215 116.174 129.308 116.515 129.497 116.807C129.69 117.095 129.965 117.32 130.321 117.483C130.677 117.642 131.098 117.722 131.582 117.722ZM131.582 112.307C131.969 112.307 132.312 112.229 132.611 112.074C132.91 111.919 133.145 111.703 133.315 111.426C133.49 111.15 133.579 110.826 133.582 110.455C133.579 110.091 133.491 109.773 133.321 109.5C133.154 109.227 132.921 109.017 132.622 108.869C132.323 108.718 131.976 108.642 131.582 108.642C131.181 108.642 130.829 108.718 130.526 108.869C130.226 109.017 129.993 109.227 129.827 109.5C129.66 109.773 129.579 110.091 129.582 110.455C129.579 110.826 129.662 111.15 129.832 111.426C130.003 111.703 130.238 111.919 130.537 112.074C130.84 112.229 131.188 112.307 131.582 112.307ZM148.5 110.42C148.439 109.883 148.189 109.466 147.75 109.17C147.311 108.871 146.758 108.722 146.091 108.722C145.614 108.722 145.201 108.797 144.852 108.949C144.504 109.097 144.233 109.301 144.04 109.562C143.85 109.82 143.756 110.114 143.756 110.443C143.756 110.72 143.82 110.958 143.949 111.159C144.081 111.36 144.254 111.528 144.466 111.665C144.682 111.797 144.913 111.909 145.159 112C145.405 112.087 145.642 112.159 145.869 112.216L147.006 112.511C147.377 112.602 147.758 112.725 148.148 112.881C148.538 113.036 148.9 113.241 149.233 113.494C149.566 113.748 149.835 114.062 150.04 114.438C150.248 114.812 150.352 115.261 150.352 115.784C150.352 116.443 150.182 117.028 149.841 117.54C149.504 118.051 149.013 118.455 148.369 118.75C147.729 119.045 146.955 119.193 146.045 119.193C145.174 119.193 144.42 119.055 143.784 118.778C143.148 118.502 142.65 118.11 142.29 117.602C141.93 117.091 141.731 116.485 141.693 115.784H143.455C143.489 116.205 143.625 116.555 143.864 116.835C144.106 117.112 144.415 117.318 144.79 117.455C145.169 117.587 145.583 117.653 146.034 117.653C146.53 117.653 146.972 117.576 147.358 117.42C147.748 117.261 148.055 117.042 148.278 116.761C148.502 116.477 148.614 116.146 148.614 115.767C148.614 115.422 148.515 115.14 148.318 114.92C148.125 114.701 147.862 114.519 147.528 114.375C147.199 114.231 146.826 114.104 146.409 113.994L145.034 113.619C144.102 113.366 143.364 112.992 142.818 112.5C142.277 112.008 142.006 111.356 142.006 110.545C142.006 109.875 142.188 109.29 142.551 108.79C142.915 108.29 143.407 107.902 144.028 107.625C144.65 107.345 145.35 107.205 146.131 107.205C146.919 107.205 147.614 107.343 148.216 107.619C148.822 107.896 149.299 108.277 149.648 108.761C149.996 109.242 150.178 109.795 150.193 110.42H148.5ZM156.075 119.176C155.215 119.176 154.475 118.992 153.854 118.625C153.236 118.254 152.759 117.733 152.422 117.062C152.089 116.388 151.922 115.598 151.922 114.693C151.922 113.799 152.089 113.011 152.422 112.33C152.759 111.648 153.229 111.116 153.831 110.733C154.437 110.35 155.145 110.159 155.956 110.159C156.448 110.159 156.926 110.241 157.388 110.403C157.85 110.566 158.265 110.822 158.632 111.17C159 111.519 159.289 111.972 159.501 112.528C159.714 113.081 159.82 113.754 159.82 114.545V115.148H152.882V113.875H158.155C158.155 113.428 158.064 113.032 157.882 112.688C157.7 112.339 157.445 112.064 157.115 111.864C156.789 111.663 156.407 111.562 155.967 111.562C155.49 111.562 155.073 111.68 154.717 111.915C154.365 112.146 154.092 112.449 153.899 112.824C153.71 113.195 153.615 113.598 153.615 114.034V115.028C153.615 115.612 153.717 116.108 153.922 116.517C154.13 116.926 154.42 117.239 154.791 117.455C155.162 117.667 155.596 117.773 156.092 117.773C156.414 117.773 156.708 117.727 156.973 117.636C157.238 117.542 157.467 117.402 157.661 117.216C157.854 117.03 158.001 116.801 158.104 116.528L159.712 116.818C159.583 117.292 159.352 117.706 159.018 118.062C158.689 118.415 158.274 118.689 157.774 118.886C157.278 119.08 156.712 119.176 156.075 119.176ZM161.705 122.273V110.273H163.364V111.688H163.506C163.604 111.506 163.746 111.295 163.932 111.057C164.117 110.818 164.375 110.61 164.705 110.432C165.034 110.25 165.47 110.159 166.011 110.159C166.716 110.159 167.345 110.337 167.898 110.693C168.451 111.049 168.884 111.562 169.199 112.233C169.517 112.903 169.676 113.71 169.676 114.653C169.676 115.597 169.519 116.405 169.205 117.08C168.89 117.75 168.458 118.267 167.909 118.631C167.36 118.991 166.733 119.17 166.028 119.17C165.498 119.17 165.064 119.081 164.727 118.903C164.394 118.725 164.133 118.517 163.943 118.278C163.754 118.04 163.608 117.828 163.506 117.642H163.403V122.273H161.705ZM163.369 114.636C163.369 115.25 163.458 115.788 163.636 116.25C163.814 116.712 164.072 117.074 164.409 117.335C164.746 117.593 165.159 117.722 165.648 117.722C166.155 117.722 166.58 117.587 166.92 117.318C167.261 117.045 167.519 116.676 167.693 116.21C167.871 115.744 167.96 115.22 167.96 114.636C167.96 114.061 167.873 113.544 167.699 113.085C167.528 112.627 167.271 112.265 166.926 112C166.585 111.735 166.159 111.602 165.648 111.602C165.155 111.602 164.739 111.729 164.398 111.983C164.061 112.237 163.805 112.591 163.631 113.045C163.456 113.5 163.369 114.03 163.369 114.636ZM175.653 110.273V111.636H170.886V110.273H175.653ZM172.165 108.182H173.864V116.438C173.864 116.767 173.913 117.015 174.011 117.182C174.11 117.345 174.237 117.456 174.392 117.517C174.551 117.574 174.723 117.602 174.909 117.602C175.045 117.602 175.165 117.593 175.267 117.574C175.369 117.555 175.449 117.54 175.506 117.528L175.812 118.932C175.714 118.97 175.574 119.008 175.392 119.045C175.21 119.087 174.983 119.11 174.71 119.114C174.263 119.121 173.847 119.042 173.46 118.875C173.074 118.708 172.761 118.451 172.523 118.102C172.284 117.754 172.165 117.316 172.165 116.79V108.182ZM181.2 119.176C180.34 119.176 179.6 118.992 178.979 118.625C178.361 118.254 177.884 117.733 177.547 117.062C177.214 116.388 177.047 115.598 177.047 114.693C177.047 113.799 177.214 113.011 177.547 112.33C177.884 111.648 178.354 111.116 178.956 110.733C179.562 110.35 180.27 110.159 181.081 110.159C181.573 110.159 182.051 110.241 182.513 110.403C182.975 110.566 183.39 110.822 183.757 111.17C184.125 111.519 184.414 111.972 184.626 112.528C184.839 113.081 184.945 113.754 184.945 114.545V115.148H178.007V113.875H183.28C183.28 113.428 183.189 113.032 183.007 112.688C182.825 112.339 182.57 112.064 182.24 111.864C181.914 111.663 181.532 111.562 181.092 111.562C180.615 111.562 180.198 111.68 179.842 111.915C179.49 112.146 179.217 112.449 179.024 112.824C178.835 113.195 178.74 113.598 178.74 114.034V115.028C178.74 115.612 178.842 116.108 179.047 116.517C179.255 116.926 179.545 117.239 179.916 117.455C180.287 117.667 180.721 117.773 181.217 117.773C181.539 117.773 181.833 117.727 182.098 117.636C182.363 117.542 182.592 117.402 182.786 117.216C182.979 117.03 183.126 116.801 183.229 116.528L184.837 116.818C184.708 117.292 184.477 117.706 184.143 118.062C183.814 118.415 183.399 118.689 182.899 118.886C182.403 119.08 181.837 119.176 181.2 119.176ZM186.83 119V110.273H188.46V111.693H188.568C188.75 111.212 189.047 110.837 189.46 110.568C189.873 110.295 190.367 110.159 190.943 110.159C191.527 110.159 192.015 110.295 192.409 110.568C192.807 110.841 193.1 111.216 193.29 111.693H193.381C193.589 111.227 193.92 110.856 194.375 110.58C194.83 110.299 195.371 110.159 196 110.159C196.792 110.159 197.438 110.407 197.938 110.903C198.441 111.4 198.693 112.148 198.693 113.148V119H196.994V113.307C196.994 112.716 196.833 112.288 196.511 112.023C196.189 111.758 195.805 111.625 195.358 111.625C194.805 111.625 194.375 111.795 194.068 112.136C193.761 112.473 193.608 112.907 193.608 113.438V119H191.915V113.199C191.915 112.725 191.767 112.345 191.472 112.057C191.176 111.769 190.792 111.625 190.318 111.625C189.996 111.625 189.699 111.71 189.426 111.881C189.157 112.047 188.939 112.28 188.773 112.58C188.61 112.879 188.528 113.225 188.528 113.619V119H186.83ZM201.107 119V107.364H202.805V111.688H202.908C203.006 111.506 203.148 111.295 203.334 111.057C203.519 110.818 203.777 110.61 204.107 110.432C204.436 110.25 204.872 110.159 205.413 110.159C206.118 110.159 206.747 110.337 207.3 110.693C207.853 111.049 208.286 111.562 208.601 112.233C208.919 112.903 209.078 113.71 209.078 114.653C209.078 115.597 208.921 116.405 208.607 117.08C208.292 117.75 207.86 118.267 207.311 118.631C206.762 118.991 206.135 119.17 205.43 119.17C204.9 119.17 204.466 119.081 204.129 118.903C203.796 118.725 203.535 118.517 203.345 118.278C203.156 118.04 203.01 117.828 202.908 117.642H202.766V119H201.107ZM202.771 114.636C202.771 115.25 202.86 115.788 203.038 116.25C203.216 116.712 203.474 117.074 203.811 117.335C204.148 117.593 204.561 117.722 205.05 117.722C205.557 117.722 205.982 117.587 206.322 117.318C206.663 117.045 206.921 116.676 207.095 116.21C207.273 115.744 207.362 115.22 207.362 114.636C207.362 114.061 207.275 113.544 207.101 113.085C206.93 112.627 206.673 112.265 206.328 112C205.987 111.735 205.561 111.602 205.05 111.602C204.557 111.602 204.141 111.729 203.8 111.983C203.463 112.237 203.207 112.591 203.033 113.045C202.858 113.5 202.771 114.03 202.771 114.636ZM214.747 119.176C213.887 119.176 213.147 118.992 212.526 118.625C211.908 118.254 211.431 117.733 211.094 117.062C210.76 116.388 210.594 115.598 210.594 114.693C210.594 113.799 210.76 113.011 211.094 112.33C211.431 111.648 211.901 111.116 212.503 110.733C213.109 110.35 213.817 110.159 214.628 110.159C215.12 110.159 215.598 110.241 216.06 110.403C216.522 110.566 216.937 110.822 217.304 111.17C217.671 111.519 217.961 111.972 218.173 112.528C218.385 113.081 218.491 113.754 218.491 114.545V115.148H211.554V113.875H216.827C216.827 113.428 216.736 113.032 216.554 112.688C216.372 112.339 216.116 112.064 215.787 111.864C215.461 111.663 215.079 111.562 214.639 111.562C214.162 111.562 213.745 111.68 213.389 111.915C213.037 112.146 212.764 112.449 212.571 112.824C212.382 113.195 212.287 113.598 212.287 114.034V115.028C212.287 115.612 212.389 116.108 212.594 116.517C212.802 116.926 213.092 117.239 213.463 117.455C213.834 117.667 214.268 117.773 214.764 117.773C215.086 117.773 215.38 117.727 215.645 117.636C215.91 117.542 216.139 117.402 216.332 117.216C216.526 117.03 216.673 116.801 216.776 116.528L218.384 116.818C218.255 117.292 218.024 117.706 217.69 118.062C217.361 118.415 216.946 118.689 216.446 118.886C215.95 119.08 215.384 119.176 214.747 119.176ZM220.376 119V110.273H222.018V111.659H222.109C222.268 111.189 222.549 110.82 222.95 110.551C223.356 110.278 223.814 110.142 224.325 110.142C224.431 110.142 224.556 110.146 224.7 110.153C224.848 110.161 224.964 110.17 225.047 110.182V111.807C224.979 111.788 224.857 111.767 224.683 111.744C224.509 111.718 224.335 111.705 224.161 111.705C223.759 111.705 223.401 111.79 223.087 111.96C222.776 112.127 222.53 112.36 222.348 112.659C222.166 112.955 222.075 113.292 222.075 113.67V119H220.376ZM230.729 119V117.727L234.666 113.648C235.087 113.205 235.433 112.816 235.706 112.483C235.982 112.146 236.189 111.826 236.325 111.523C236.462 111.22 236.53 110.898 236.53 110.557C236.53 110.17 236.439 109.837 236.257 109.557C236.075 109.273 235.827 109.055 235.513 108.903C235.198 108.748 234.844 108.67 234.45 108.67C234.034 108.67 233.67 108.756 233.359 108.926C233.049 109.097 232.81 109.337 232.643 109.648C232.477 109.958 232.393 110.322 232.393 110.739H230.717C230.717 110.03 230.88 109.411 231.206 108.881C231.532 108.35 231.979 107.939 232.547 107.648C233.115 107.352 233.761 107.205 234.484 107.205C235.215 107.205 235.859 107.35 236.416 107.642C236.977 107.93 237.414 108.324 237.729 108.824C238.043 109.32 238.2 109.881 238.2 110.506C238.2 110.938 238.119 111.36 237.956 111.773C237.797 112.186 237.518 112.646 237.121 113.153C236.723 113.657 236.17 114.269 235.462 114.989L233.149 117.409V117.494H238.388V119H230.729ZM244.592 119.193C243.695 119.189 242.928 118.953 242.291 118.483C241.655 118.013 241.168 117.33 240.831 116.432C240.494 115.534 240.325 114.453 240.325 113.188C240.325 111.926 240.494 110.848 240.831 109.955C241.172 109.061 241.661 108.379 242.297 107.909C242.937 107.439 243.702 107.205 244.592 107.205C245.482 107.205 246.246 107.441 246.882 107.915C247.518 108.384 248.005 109.066 248.342 109.96C248.683 110.85 248.854 111.926 248.854 113.188C248.854 114.456 248.685 115.54 248.348 116.438C248.011 117.331 247.524 118.015 246.888 118.489C246.251 118.958 245.486 119.193 244.592 119.193ZM244.592 117.676C245.38 117.676 245.996 117.292 246.439 116.523C246.886 115.754 247.109 114.642 247.109 113.188C247.109 112.222 247.007 111.405 246.803 110.739C246.602 110.068 246.312 109.561 245.933 109.216C245.558 108.867 245.111 108.693 244.592 108.693C243.808 108.693 243.193 109.08 242.746 109.852C242.299 110.625 242.073 111.737 242.07 113.188C242.07 114.157 242.17 114.977 242.371 115.648C242.575 116.314 242.865 116.82 243.24 117.165C243.615 117.506 244.066 117.676 244.592 117.676ZM250.869 119V117.727L254.807 113.648C255.227 113.205 255.574 112.816 255.847 112.483C256.123 112.146 256.33 111.826 256.466 111.523C256.602 111.22 256.67 110.898 256.67 110.557C256.67 110.17 256.58 109.837 256.398 109.557C256.216 109.273 255.968 109.055 255.653 108.903C255.339 108.748 254.985 108.67 254.591 108.67C254.174 108.67 253.811 108.756 253.5 108.926C253.189 109.097 252.951 109.337 252.784 109.648C252.617 109.958 252.534 110.322 252.534 110.739H250.858C250.858 110.03 251.021 109.411 251.347 108.881C251.672 108.35 252.119 107.939 252.688 107.648C253.256 107.352 253.902 107.205 254.625 107.205C255.356 107.205 256 107.35 256.557 107.642C257.117 107.93 257.555 108.324 257.869 108.824C258.184 109.32 258.341 109.881 258.341 110.506C258.341 110.938 258.259 111.36 258.097 111.773C257.938 112.186 257.659 112.646 257.261 113.153C256.864 113.657 256.311 114.269 255.602 114.989L253.29 117.409V117.494H258.528V119H250.869ZM260.682 119V117.727L264.619 113.648C265.04 113.205 265.386 112.816 265.659 112.483C265.936 112.146 266.142 111.826 266.278 111.523C266.415 111.22 266.483 110.898 266.483 110.557C266.483 110.17 266.392 109.837 266.21 109.557C266.028 109.273 265.78 109.055 265.466 108.903C265.152 108.748 264.797 108.67 264.403 108.67C263.987 108.67 263.623 108.756 263.312 108.926C263.002 109.097 262.763 109.337 262.597 109.648C262.43 109.958 262.347 110.322 262.347 110.739H260.67C260.67 110.03 260.833 109.411 261.159 108.881C261.485 108.35 261.932 107.939 262.5 107.648C263.068 107.352 263.714 107.205 264.438 107.205C265.169 107.205 265.813 107.35 266.369 107.642C266.93 107.93 267.367 108.324 267.682 108.824C267.996 109.32 268.153 109.881 268.153 110.506C268.153 110.938 268.072 111.36 267.909 111.773C267.75 112.186 267.472 112.646 267.074 113.153C266.676 113.657 266.123 114.269 265.415 114.989L263.102 117.409V117.494H268.341V119H260.682ZM272.727 117.409L272.642 118.028C272.585 118.483 272.489 118.956 272.352 119.449C272.22 119.945 272.081 120.405 271.938 120.83C271.797 121.254 271.682 121.591 271.591 121.841H270.386C270.436 121.606 270.504 121.288 270.591 120.886C270.678 120.489 270.763 120.044 270.847 119.551C270.93 119.059 270.992 118.557 271.034 118.045L271.091 117.409H272.727ZM283.213 119.159C282.694 119.152 282.183 119.057 281.679 118.875C281.179 118.693 280.724 118.39 280.315 117.966C279.906 117.542 279.579 116.972 279.332 116.256C279.09 115.54 278.969 114.646 278.969 113.574C278.969 112.559 279.069 111.657 279.27 110.869C279.474 110.081 279.768 109.417 280.151 108.875C280.533 108.33 280.995 107.915 281.537 107.631C282.079 107.347 282.687 107.205 283.361 107.205C284.054 107.205 284.67 107.341 285.207 107.614C285.745 107.886 286.181 108.263 286.514 108.744C286.851 109.225 287.065 109.773 287.156 110.386H285.423C285.306 109.902 285.073 109.506 284.724 109.199C284.376 108.892 283.921 108.739 283.361 108.739C282.509 108.739 281.844 109.11 281.366 109.852C280.893 110.595 280.654 111.627 280.651 112.949H280.736C280.937 112.619 281.183 112.339 281.474 112.108C281.77 111.873 282.099 111.693 282.463 111.568C282.83 111.439 283.217 111.375 283.622 111.375C284.296 111.375 284.906 111.54 285.452 111.869C286.001 112.195 286.438 112.646 286.764 113.222C287.09 113.797 287.253 114.456 287.253 115.199C287.253 115.941 287.084 116.614 286.747 117.216C286.414 117.818 285.944 118.295 285.338 118.648C284.732 118.996 284.024 119.167 283.213 119.159ZM283.207 117.682C283.654 117.682 284.054 117.572 284.406 117.352C284.759 117.133 285.037 116.837 285.241 116.466C285.446 116.095 285.548 115.68 285.548 115.222C285.548 114.775 285.448 114.367 285.247 114C285.05 113.633 284.777 113.341 284.429 113.125C284.084 112.909 283.69 112.801 283.247 112.801C282.91 112.801 282.598 112.866 282.31 112.994C282.026 113.123 281.776 113.301 281.56 113.528C281.344 113.756 281.173 114.017 281.048 114.312C280.927 114.604 280.866 114.913 280.866 115.239C280.866 115.674 280.967 116.078 281.168 116.449C281.372 116.82 281.651 117.119 282.003 117.347C282.359 117.57 282.76 117.682 283.207 117.682ZM290.464 117.557C290.154 117.557 289.887 117.447 289.663 117.227C289.44 117.004 289.328 116.735 289.328 116.42C289.328 116.11 289.44 115.845 289.663 115.625C289.887 115.402 290.154 115.29 290.464 115.29C290.775 115.29 291.042 115.402 291.266 115.625C291.489 115.845 291.601 116.11 291.601 116.42C291.601 116.629 291.548 116.82 291.442 116.994C291.339 117.165 291.203 117.301 291.033 117.403C290.862 117.506 290.673 117.557 290.464 117.557ZM290.464 111.727C290.154 111.727 289.887 111.617 289.663 111.398C289.44 111.174 289.328 110.905 289.328 110.591C289.328 110.28 289.44 110.015 289.663 109.795C289.887 109.572 290.154 109.46 290.464 109.46C290.775 109.46 291.042 109.572 291.266 109.795C291.489 110.015 291.601 110.28 291.601 110.591C291.601 110.799 291.548 110.991 291.442 111.165C291.339 111.335 291.203 111.472 291.033 111.574C290.862 111.676 290.673 111.727 290.464 111.727ZM298.268 107.364V119H296.507V109.125H296.439L293.655 110.943V109.261L296.558 107.364H298.268ZM301.808 119L306.888 108.955V108.869H301.013V107.364H308.706V108.92L303.643 119H301.808ZM310.705 122.273V110.273H312.364V111.688H312.506C312.604 111.506 312.746 111.295 312.932 111.057C313.117 110.818 313.375 110.61 313.705 110.432C314.034 110.25 314.47 110.159 315.011 110.159C315.716 110.159 316.345 110.337 316.898 110.693C317.451 111.049 317.884 111.562 318.199 112.233C318.517 112.903 318.676 113.71 318.676 114.653C318.676 115.597 318.519 116.405 318.205 117.08C317.89 117.75 317.458 118.267 316.909 118.631C316.36 118.991 315.733 119.17 315.028 119.17C314.498 119.17 314.064 119.081 313.727 118.903C313.394 118.725 313.133 118.517 312.943 118.278C312.754 118.04 312.608 117.828 312.506 117.642H312.403V122.273H310.705ZM312.369 114.636C312.369 115.25 312.458 115.788 312.636 116.25C312.814 116.712 313.072 117.074 313.409 117.335C313.746 117.593 314.159 117.722 314.648 117.722C315.155 117.722 315.58 117.587 315.92 117.318C316.261 117.045 316.519 116.676 316.693 116.21C316.871 115.744 316.96 115.22 316.96 114.636C316.96 114.061 316.873 113.544 316.699 113.085C316.528 112.627 316.271 112.265 315.926 112C315.585 111.735 315.159 111.602 314.648 111.602C314.155 111.602 313.739 111.729 313.398 111.983C313.061 112.237 312.805 112.591 312.631 113.045C312.456 113.5 312.369 114.03 312.369 114.636ZM320.58 119V110.273H322.21V111.693H322.318C322.5 111.212 322.797 110.837 323.21 110.568C323.623 110.295 324.117 110.159 324.693 110.159C325.277 110.159 325.765 110.295 326.159 110.568C326.557 110.841 326.85 111.216 327.04 111.693H327.131C327.339 111.227 327.67 110.856 328.125 110.58C328.58 110.299 329.121 110.159 329.75 110.159C330.542 110.159 331.188 110.407 331.688 110.903C332.191 111.4 332.443 112.148 332.443 113.148V119H330.744V113.307C330.744 112.716 330.583 112.288 330.261 112.023C329.939 111.758 329.555 111.625 329.108 111.625C328.555 111.625 328.125 111.795 327.818 112.136C327.511 112.473 327.358 112.907 327.358 113.438V119H325.665V113.199C325.665 112.725 325.517 112.345 325.222 112.057C324.926 111.769 324.542 111.625 324.068 111.625C323.746 111.625 323.449 111.71 323.176 111.881C322.907 112.047 322.689 112.28 322.523 112.58C322.36 112.879 322.278 113.225 322.278 113.619V119H320.58Z" fill="#687888"/>
<path d="M41.94 37.4185H52.0783C51.07 39.1785 49.1817 40.3335 47.0184 40.3335C44.8184 40.3335 42.9483 39.1785 41.94 37.4185Z" fill="#ED5C18"/>
<path d="M64.0867 31.5148C64.0867 32.4315 63.7934 33.2748 63.3351 33.9715C62.5467 35.1265 61.2451 35.8965 59.7417 35.8965H34.2767C33.8184 35.8965 33.3784 35.8232 32.9751 35.6948C32.0034 35.4015 31.1967 34.7965 30.6467 33.9715C30.1884 33.2748 29.8951 32.4315 29.8951 31.5148C29.8951 29.5532 31.1967 27.9032 32.9567 27.3348C33.2317 27.2615 33.5067 27.2065 33.8 27.1699V18.7915C33.8 12.0082 38.97 6.43484 45.5517 5.70151V5.0965C45.5517 4.30817 46.1934 3.6665 46.9817 3.6665C47.77 3.6665 48.4117 4.30817 48.4117 5.0965V5.70151C51.3817 6.03151 54.1501 7.33316 56.2951 9.49649C58.7884 11.9532 60.1634 15.2715 60.1634 18.7915V27.1699C62.3634 27.4082 64.0867 29.2598 64.0867 31.5148Z" fill="#ED5C18"/>
<path fill-rule="evenodd" clip-rule="evenodd" d="M516.4 297.104H529.612L563.731 409.292H555.769L516.4 297.104Z" fill="#2A1C28"/>
<path fill-rule="evenodd" clip-rule="evenodd" d="M482.014 297.104H468.802L434.683 409.292H442.646L482.014 297.104Z" fill="#2A1C28"/>
<path fill-rule="evenodd" clip-rule="evenodd" d="M410.083 196.303L423.117 179.354L452.922 202.263L439.888 219.212L410.083 196.303Z" fill="#CC7544"/>
<path fill-rule="evenodd" clip-rule="evenodd" d="M389.576 149.417L392.468 195.013C392.468 195.057 392.468 195.102 392.468 195.146C392.468 196.303 397.583 197.192 403.9 197.192C410.217 197.192 415.333 196.258 415.333 195.146C415.333 195.102 415.333 195.013 415.288 194.968L418.179 149.417H389.576Z" fill="#54B4A6"/>
<path fill-rule="evenodd" clip-rule="evenodd" d="M414.665 164.897C415.11 169.168 416.4 171.926 416.4 171.926L415.911 180.733C415.911 180.733 420.715 176.152 422.672 170.725C423.117 169.523 421.516 163.474 419.158 160.093C417.29 157.424 414.22 160.404 414.665 164.897Z" fill="#CC7544"/>
<path d="M416.845 158.936C415.466 159.47 414.354 162.05 414.665 164.941C415.244 170.635 418.18 173.972 417.913 173.749" stroke="#2A1C28" stroke-width="2" stroke-miterlimit="10" stroke-linecap="round" stroke-linejoin="round"/>
<path fill-rule="evenodd" clip-rule="evenodd" d="M399.585 171.703C399.051 172.281 397.45 171.925 395.493 171.08C396.115 171.837 396.694 172.593 397.139 173.216C399.14 176.24 399.541 178.687 397.939 179.844C397.539 180.111 396.827 180.022 395.937 179.621C396.071 179.799 396.16 179.933 396.249 180.111C397.939 182.735 397.717 184.87 396.071 185.671C395.804 185.804 395.493 185.804 395.137 185.76C396.827 188.029 396.827 190.075 395.27 190.876C393.446 191.81 388.153 188.74 385.751 184.47C384.505 182.246 385.662 180.778 387.085 179.888C385.795 178.465 384.772 176.952 384.194 175.618C383.126 173.082 384.772 171.748 386.418 171.036C385.84 170.235 385.35 169.434 385.083 168.723C384.327 166.943 384.683 165.297 385.306 164.007C385.039 163.696 384.816 163.429 384.639 163.118C381.881 159.07 390.11 156.667 390.11 156.667L390.333 160.226C390.333 160.226 394.825 162.717 397.45 165.342C400.03 167.966 400.92 170.28 399.585 171.703Z" fill="#CC7544"/>
<path d="M384.327 163.029C392.468 170.057 398.251 173.082 399.585 171.658C400.92 170.235 399.986 167.744 397.361 165.119" stroke="#2A1C28" stroke-width="2" stroke-miterlimit="10" stroke-linecap="round" stroke-linejoin="round"/>
<path d="M385.439 164.586C383.126 167.032 387.041 171.926 387.352 172.281C390.733 176.463 396.427 180.911 397.939 179.844C399.541 178.687 399.407 175.885 395.849 171.347" stroke="#2A1C28" stroke-width="2" stroke-miterlimit="10" stroke-linecap="round" stroke-linejoin="round"/>
<path d="M386.418 171.08C384.728 171.748 383.126 173.038 384.194 175.662C386.062 180.155 393.713 186.783 396.071 185.716C397.761 184.915 397.806 182.379 396.115 179.755" stroke="#2A1C28" stroke-width="2" stroke-miterlimit="10" stroke-linecap="round" stroke-linejoin="round"/>
<path d="M387.085 179.888C385.484 180.733 384.372 182.023 385.751 184.47C388.153 188.74 393.446 191.81 395.27 190.876C396.916 190.031 397.094 188.207 395.137 185.76" stroke="#2A1C28" stroke-width="2" stroke-miterlimit="10" stroke-linecap="round" stroke-linejoin="round"/>
<path fill-rule="evenodd" clip-rule="evenodd" d="M387.886 150.084C387.886 150.128 387.93 150.173 387.93 150.217C386.774 150.974 386.285 151.641 386.285 151.997C386.285 153.064 394.114 153.91 403.811 153.91C413.509 153.91 421.338 153.064 421.338 151.997C421.338 151.596 420.938 150.84 419.781 150.039C419.781 149.995 419.737 149.95 419.737 149.95V146.614C419.781 146.57 419.781 146.525 419.781 146.481C419.781 145.547 412.619 144.746 403.811 144.746C395.003 144.746 387.841 145.502 387.841 146.481C387.841 146.525 387.842 146.525 387.886 146.57V149.995C387.886 149.995 387.886 150.039 387.886 150.084Z" fill="#2A1C28"/>
<path fill-rule="evenodd" clip-rule="evenodd" d="M420.182 125.529L430.591 122.593L432.993 131.134L422.584 134.07L420.182 125.529Z" fill="white"/>
<path fill-rule="evenodd" clip-rule="evenodd" d="M435.439 130.689L455.101 122.504L468.802 149.105L442.913 159.025L435.439 130.689Z" fill="#CC7544"/>
<path fill-rule="evenodd" clip-rule="evenodd" d="M441.445 153.598L435.439 130.689L447.673 125.573C452.076 129.176 452.922 137.184 449.318 144.612C447.406 148.66 444.559 151.774 441.445 153.598Z" fill="#A95A2D"/>
<path fill-rule="evenodd" clip-rule="evenodd" d="M427.61 96.7031L422.851 111.427L416.445 111.961C416.445 111.961 414.665 115.564 420.004 118.5C419.47 121.036 418.936 125.662 418.936 125.662C418.936 125.662 419.069 126.374 423.651 125.796C426.365 125.44 427.966 125.084 427.966 125.084C427.966 125.084 427.788 127.708 425.698 129.221C422.851 131.267 421.649 131.134 421.649 131.134C421.649 131.134 422.628 141.499 427.922 143.233C436.24 145.991 446.472 138.385 450.475 132.29C456.836 122.682 455.635 105.911 450.253 110.849C450.208 110.894 447.228 89.2298 427.61 96.7031Z" fill="#CC7544"/>
<path fill-rule="evenodd" clip-rule="evenodd" d="M466 105.911C466 105.911 478.5 91.098 457.859 91.098C448.562 91.098 442.201 90.9646 429.835 91.0091C421.116 91.0536 426.632 99.6835 426.632 99.6835C426.632 99.6835 439.176 99.0607 440.377 100.573C442.246 102.886 442.068 108.358 442.068 108.358L466 105.911Z" fill="#5F3319"/>
<path fill-rule="evenodd" clip-rule="evenodd" d="M466.267 116.053C463.865 123.349 458.215 127.486 458.215 127.486L449.808 126.062C449.808 126.062 455.324 121.436 451.988 117.566C447.851 112.806 441.979 119.924 441.979 119.924C441.979 119.924 442.246 111.383 442.023 105.911L466.178 105.466C466.178 105.511 468.224 110.093 466.267 116.053Z" fill="#814A2A"/>
<path d="M448.429 119.434C449.63 120.413 449.808 122.192 448.829 123.393C448.251 124.061 447.45 124.417 446.605 124.417" stroke="#2A1C28" stroke-width="2" stroke-miterlimit="10" stroke-linecap="round" stroke-linejoin="round"/>
<path d="M449.897 117.744L444.425 121.881" stroke="#2A1C28" stroke-width="2" stroke-miterlimit="10" stroke-linecap="round" stroke-linejoin="round"/>
<path d="M425.92 106C425.92 106 430.769 103.687 433.883 107.824" stroke="#2A1C28" stroke-width="2" stroke-miterlimit="10" stroke-linecap="round" stroke-linejoin="round"/>
<path fill-rule="evenodd" clip-rule="evenodd" d="M427.299 110.004C426.676 110.048 426.231 110.893 426.32 111.917C426.409 112.895 427.032 113.651 427.655 113.562C428.278 113.518 428.722 112.673 428.633 111.65C428.545 110.671 427.966 109.915 427.299 110.004Z" fill="#2A1C28"/>
<path fill-rule="evenodd" clip-rule="evenodd" d="M528.189 247.014H528.544V259.559C525.253 256 507.948 253.02 487.085 252.708C464.977 252.353 446.783 255.111 444.959 258.936V247.37C442.735 246.258 440.689 244.657 438.865 242.299C432.103 233.669 439.443 224.461 439.621 209.826C439.71 200.44 438.598 190.475 437.13 181.534C431.391 178.198 427.521 171.97 427.521 164.808C427.521 159.426 429.701 154.577 433.26 151.063C437.708 146.525 449.052 138.963 470.537 148.349C479.256 152.175 487.886 165.253 503.767 191.143C517.201 213.207 546.649 237.406 528.189 247.014Z" fill="#FCC670"/>
<path d="M444.781 247.059C444.826 242.922 463.776 239.897 487.041 240.253C510.351 240.609 529.167 244.256 529.078 248.349" stroke="#FCC670" stroke-width="2" stroke-miterlimit="10" stroke-linecap="round"/>
<path fill-rule="evenodd" clip-rule="evenodd" d="M427.521 163.518C427.521 163.296 427.566 163.029 427.566 162.806C427.566 162.717 427.61 162.628 427.61 162.539C427.655 162.317 427.655 162.095 427.699 161.828C427.699 161.739 427.744 161.65 427.744 161.561C427.788 161.338 427.833 161.071 427.877 160.849C427.877 160.76 427.922 160.716 427.922 160.627C427.966 160.404 428.011 160.137 428.1 159.915C428.1 159.87 428.144 159.781 428.144 159.737C428.233 159.47 428.278 159.248 428.367 158.981C428.367 158.936 428.411 158.892 428.411 158.847C428.5 158.58 428.589 158.313 428.678 158.091C428.678 158.046 428.722 158.046 428.722 158.002C428.811 157.735 428.945 157.468 429.034 157.201C429.034 157.201 429.034 157.157 429.078 157.157C429.212 156.89 429.301 156.623 429.434 156.356C429.434 156.356 429.434 156.356 429.434 156.312C429.568 156.045 429.701 155.778 429.834 155.511C430.724 153.865 431.881 152.353 433.215 151.063C436.73 147.593 441.534 145.458 446.827 145.458C448.963 145.458 451.053 145.813 452.966 146.481C453.1 146.525 453.233 146.57 453.367 146.614C453.411 146.614 453.411 146.659 453.456 146.659C462.085 149.684 468.402 159.514 468.402 171.169C468.402 185.226 459.238 196.659 447.939 196.659C444.648 196.659 441.534 195.68 438.731 193.945C438.286 189.675 437.708 185.493 437.041 181.534C432.059 178.643 428.5 173.527 427.61 167.566C427.566 167.166 427.521 166.765 427.477 166.365C427.477 166.321 427.477 166.232 427.477 166.187C427.432 165.742 427.432 165.253 427.432 164.808C427.432 164.452 427.432 164.141 427.477 163.829C427.521 163.696 427.521 163.607 427.521 163.518Z" fill="#FCC670"/>
<path fill-rule="evenodd" clip-rule="evenodd" d="M439.399 213.34C439.488 212.183 439.577 211.027 439.577 209.781C439.665 200.395 438.553 190.431 437.085 181.489C434.906 180.199 432.948 178.509 431.436 176.463C438.42 164.23 449.408 154.443 463.02 156.578C463.02 156.578 463.687 197.548 439.399 213.34Z" fill="#FCC670"/>
<path fill-rule="evenodd" clip-rule="evenodd" d="M520.404 264.808L520.537 289.986C520.537 289.986 491.044 297.904 460.751 298.927C439.576 299.639 421.516 298.794 421.516 298.794L456.169 348.616L428.1 371.08L372.584 298.304C367.334 291.053 366.178 281.845 369.603 274.239C373.028 266.676 380.591 261.783 389.265 261.516L444.781 259.737C444.737 259.603 444.737 259.47 444.737 259.336C444.781 255.199 463.109 252.13 486.374 252.486C509.683 252.842 528.5 256.489 528.411 260.582C528.411 262.183 525.431 263.651 520.404 264.808Z" fill="#5A74C7"/>
<path fill-rule="evenodd" clip-rule="evenodd" d="M435.395 351.418C443.135 345.102 452.388 343.678 456.08 348.215C459.772 352.753 456.525 361.516 448.785 367.833C441.044 374.15 431.792 375.573 428.1 371.036C424.407 366.498 427.655 357.735 435.395 351.418Z" fill="#CDC9CB"/>
<path fill-rule="evenodd" clip-rule="evenodd" d="M463.865 366.543L443.091 391.276L430.635 365.164L430.813 365.03C429.434 361.16 432.459 355.333 438.197 351.285C444.47 346.881 451.543 346.258 454.212 349.861L454.301 349.817L463.865 366.543Z" fill="#EDE6EA"/>
<path fill-rule="evenodd" clip-rule="evenodd" d="M446.872 375.573C452.121 367.788 459.327 363.874 466.178 367.21C468.002 368.1 478.455 374.016 478.945 376.596C479.657 380.466 469.203 381.801 463.064 387.094C456.881 392.433 453.233 402.175 446.738 406.979C443.002 409.737 439.621 415.075 435.084 415.164C427.788 415.297 410.973 414.408 413.242 414.319C414.977 414.274 409.906 407.779 425.253 407.779C433.482 401.908 443.536 380.555 446.872 375.573Z" fill="#814A2A"/>
<path fill-rule="evenodd" clip-rule="evenodd" d="M476.898 374.461C471.961 372.059 464.354 375.217 459.149 383.046C455.235 388.918 445.226 410.805 435.573 412.272H411.285V416.098H436.774C436.863 416.098 436.907 416.098 436.996 416.098C442.779 416.098 454.701 413.296 459.283 407.913C464.487 401.774 463.909 396.792 470.27 391.632C479.923 383.758 481.391 376.641 476.898 374.461Z" fill="#2C1C28"/>
<path fill-rule="evenodd" clip-rule="evenodd" d="M404.923 287.628C415.955 287.628 426.854 285.493 427.299 298.972C423.651 298.883 421.56 298.794 421.56 298.794L422.85 300.662C414.977 303.954 407.637 317.077 406.347 342.521L384.461 313.874C384.461 313.829 384.461 313.829 384.461 313.785C384.505 299.372 393.624 287.628 404.923 287.628Z" fill="#375BB7"/>
<path fill-rule="evenodd" clip-rule="evenodd" d="M385.529 368.811L384.15 387.584C384.15 387.584 376.943 392.877 370.626 391.988C363.909 391.009 358.037 383.803 358.037 383.803L359.861 368.722H360.039C360.662 367.566 366 366.632 372.584 366.543C379.657 366.454 385.44 367.432 385.529 368.678C385.529 368.767 385.529 368.767 385.529 368.811Z" fill="#EDE6EA"/>
<path fill-rule="evenodd" clip-rule="evenodd" d="M385.528 368.723C385.528 368.767 385.528 368.812 385.528 368.812L385.039 375.573C374.185 376.107 364.176 372.771 359.594 370.902L359.861 368.767H360.039C360.662 367.611 366 366.676 372.584 366.587C379.612 366.498 385.439 367.433 385.528 368.723Z" fill="#CDC9CB"/>
<path fill-rule="evenodd" clip-rule="evenodd" d="M388.42 409.514C388.42 409.514 382.148 410.004 377.299 410.315C373.162 410.582 368.536 412.006 361.151 413.34C353.945 414.675 339.843 415.075 324.986 414.897C319.959 414.853 316.133 414.586 316.133 414.586C316.133 414.586 314.265 406.801 324.541 406.979C334.861 407.157 338.865 403.732 338.865 403.732C338.865 403.732 350.386 394.345 357.637 384.292C360.973 379.621 362.219 388.562 366.979 391.498C370.893 393.901 374.23 391.409 374.23 391.409C374.23 391.409 392.735 398.171 388.42 409.514Z" fill="#2C1C28"/>
<path fill-rule="evenodd" clip-rule="evenodd" d="M388.509 403.553C388.509 403.553 382.148 403.865 377.299 404.443C373.162 404.932 369.692 406.356 362.441 408.58C359.728 409.425 353.722 410.004 349.052 410.404L316.178 411.427C316.178 411.427 314.265 404.176 324.541 403.82C334.861 403.465 338.865 399.861 338.865 399.861C338.865 399.861 348.918 389.452 355.858 379.488C359.194 374.683 362.174 383.536 366.979 386.205C370.893 388.384 386.107 384.559 386.107 384.559C386.107 384.559 389.621 394.078 388.509 403.553Z" fill="#814A2A"/>
<path fill-rule="evenodd" clip-rule="evenodd" d="M390.021 366.587C390.021 366.632 390.021 366.632 390.021 366.676C390.021 368.1 382.103 369.212 372.317 369.212C362.708 369.212 354.879 368.1 354.657 366.721H354.612L368.002 279.532L408.26 280.199L390.021 366.587Z" fill="#5A74C7"/>
<path d="M372.584 298.304C367.335 291.054 366.178 281.845 369.603 274.239C373.029 266.676 380.591 261.783 389.265 261.516L520.359 257.157L520.537 289.986C520.537 289.986 491.045 297.904 460.751 298.927C439.577 299.639 397.094 298.794 397.094 298.794L372.584 298.304Z" fill="#5A74C7"/>
<path d="M459.639 253.776C459.639 253.776 446.605 274.505 467.868 275.217" stroke="#375BB7" stroke-width="2" stroke-miterlimit="10" stroke-linecap="round" stroke-linejoin="round"/>
<path d="M375.164 369.479L392.557 280.733L457.37 279.488C462.797 279.399 467.69 276.285 470.137 271.436L479.568 252.441" stroke="#375BB7" stroke-width="2" stroke-miterlimit="10" stroke-linecap="round" stroke-linejoin="round"/>
<path fill-rule="evenodd" clip-rule="evenodd" d="M266 160.715H353.278L383.794 219.657H296.56L266 160.715Z" fill="black"/>
<path d="M283.171 174.061C283.171 174.061 301.943 174.061 305.591 174.061" stroke="white" stroke-width="2" stroke-miterlimit="10" stroke-linecap="round" stroke-linejoin="round"/>
<path d="M293.847 168.812C299.719 168.812 310.929 168.812 317.112 168.812" stroke="white" stroke-width="2" stroke-miterlimit="10" stroke-linecap="round" stroke-linejoin="round"/>
<path d="M280.457 168.812C282.904 168.812 286.952 168.812 290.155 168.812M320.359 168.812C323.651 168.812 335.929 168.812 338.731 168.812" stroke="#5A74C7" stroke-width="2" stroke-miterlimit="10" stroke-linecap="round" stroke-linejoin="round"/>
<path fill-rule="evenodd" clip-rule="evenodd" d="M339.843 198.304L343.18 203.731L335.084 205.911C335.395 206.089 341.4 216.143 356.703 216.365C363.019 216.454 369.114 215.475 369.114 215.475C369.114 215.475 379.568 218.144 389.576 219.212C393.18 214.141 392.201 201.774 391.445 198.304C366.4 198.304 339.843 198.304 339.843 198.304Z" fill="#CC7544"/>
<path d="M347.139 199.95C338.509 196.837 336.818 195.947 334.105 196.614C330.769 197.459 328.678 202.175 321.471 213.073C320.092 215.431 323.295 217.611 325.875 214.853C326.898 215.831 328.9 215.92 329.612 215.164C330.769 213.74 337.486 207.735 338.687 206.312C339.71 205.111 340.733 204.31 342.601 204.71C344.069 205.022 341.979 206.89 343.535 207.513H343.58C345.537 208.269 347.672 207.379 348.429 205.511C349.14 203.643 350.742 203.42 348.785 202.664C348.562 202.53 348.473 203.02 347.139 199.95Z" fill="#CC7544"/>
<path d="M319.915 194.078L328.011 192.566L328.856 192.433L329.256 192.344L329.479 192.299L329.746 192.255C330.502 192.166 331.258 192.121 332.014 192.21C332.77 192.299 333.527 192.477 334.238 192.744C334.594 192.877 334.95 193.055 335.306 193.233C335.484 193.322 335.662 193.411 335.795 193.545L336.24 193.856L352.566 204.844C354.078 205.867 349.274 204.443 348.251 205.956C347.228 207.468 345.137 207.868 343.625 206.845C343.536 206.756 343.402 206.712 343.313 206.623L333.126 197.949L332.904 197.726C332.859 197.682 332.77 197.637 332.681 197.548C332.548 197.459 332.415 197.37 332.237 197.281C331.925 197.103 331.614 196.97 331.258 196.881C330.902 196.792 330.546 196.747 330.19 196.747H330.057H329.834L329.434 196.792L328.589 196.836L320.404 197.637C319.381 197.726 318.536 196.97 318.447 195.947C318.358 195.057 319.025 194.212 319.915 194.078Z" fill="#CC7544"/>
<path d="M339.176 199.283C336.774 199.595 335.617 200.351 335.084 200.974C332.726 203.509 326.632 212.006 326.365 212.362C325.653 213.251 325.786 214.541 326.721 215.253C327.566 215.92 328.722 215.876 329.479 215.208C330.68 214.141 335.706 209.203 337.797 207.201C338.064 206.934 339.443 205.422 341.756 205.066" stroke="#2A1C28" stroke-width="2" stroke-miterlimit="10" stroke-linecap="round" stroke-linejoin="round"/>
<path fill-rule="evenodd" clip-rule="evenodd" d="M460.484 178.465C451.009 188.874 428.589 211.338 421.471 216.32C421.427 216.365 421.382 216.365 421.338 216.409C418.847 218.322 415.689 219.479 412.308 219.479C404.034 219.479 397.361 212.806 397.361 204.532C397.361 199.683 399.674 195.368 403.277 192.655C405.635 189.986 421.827 171.436 428.767 157.691C428.856 157.513 428.989 157.335 429.078 157.157C432.059 150.306 438.865 145.502 446.827 145.502C457.503 145.502 466.178 154.176 466.178 164.852C466.178 170.146 463.998 174.995 460.484 178.465Z" fill="#5A74C7"/>
<path fill-rule="evenodd" clip-rule="evenodd" d="M412.708 219.434L412.664 219.523H384.461C384.283 219.612 384.105 219.657 383.927 219.657C382.103 219.657 380.635 214.363 380.635 207.779C380.635 201.329 382.059 196.125 383.838 195.947H400.03C402.744 192.077 407.237 189.541 412.308 189.541C420.582 189.541 427.254 196.214 427.254 204.488C427.254 212.628 420.76 219.212 412.708 219.434Z" fill="#5A74C7"/>
<path d="M394.603 219.701C392.779 219.701 391.311 214.408 391.311 207.824C391.311 201.285 392.779 195.947 394.603 195.947" stroke="#375BB7" stroke-width="2" stroke-miterlimit="10" stroke-linecap="round" stroke-linejoin="round"/>
<path fill-rule="evenodd" clip-rule="evenodd" d="M344.826 229.176H331.614L283.438 415.831H291.4L344.826 229.176Z" fill="#2A1C28"/>
<path fill-rule="evenodd" clip-rule="evenodd" d="M283.438 219.479H440.377V229.265H283.438V219.479Z" fill="#573652"/>
<path fill-rule="evenodd" clip-rule="evenodd" d="M489.443 302.353H502.655L536.774 416.321H528.811L489.443 302.353Z" fill="#2A1C28"/>
<path fill-rule="evenodd" clip-rule="evenodd" d="M452.432 302.353H439.221L405.101 416.321H413.064L452.432 302.353Z" fill="#2A1C28"/>
<path fill-rule="evenodd" clip-rule="evenodd" d="M538.553 244.167C540.021 260.182 557.237 289.141 534.327 301.908C533.26 302.486 531.169 302.931 530.279 302.931C522.762 303.242 503.678 303.509 481.258 303.509C452.299 303.509 428.856 303.109 428.856 302.664C428.811 298.927 430.279 290.208 446.516 293.233C456.525 295.102 472.673 303.287 480.457 292.388C488.242 281.489 494.425 219.212 528.1 208.402C544.158 203.242 556.036 204.087 556.036 204.087C556.036 204.087 536.774 224.906 538.553 244.167Z" fill="#EDE6EA"/>
<path d="M326.5 151L316.541 133.75L336.459 133.75L326.5 151Z" fill="white"/>
<defs>
<filter id="filter0_d_866_5775" x="0" y="10" width="383" height="147" filterUnits="userSpaceOnUse" color-interpolation-filters="sRGB">
<feFlood flood-opacity="0" result="BackgroundImageFix"/>
<feColorMatrix in="SourceAlpha" type="matrix" values="0 0 0 0 0 0 0 0 0 0 0 0 0 0 0 0 0 0 127 0" result="hardAlpha"/>
<feOffset dy="4"/>
<feGaussianBlur stdDeviation="8"/>
<feComposite in2="hardAlpha" operator="out"/>
<feColorMatrix type="matrix" values="0 0 0 0 0 0 0 0 0 0 0 0 0 0 0 0 0 0 0.1 0"/>
<feBlend mode="normal" in2="BackgroundImageFix" result="effect1_dropShadow_866_5775"/>
<feBlend mode="normal" in="SourceGraphic" in2="effect1_dropShadow_866_5775" result="shape"/>
</filter>
</defs>
</svg>
