<svg width="60" height="60" viewBox="0 0 60 60" fill="none" xmlns="http://www.w3.org/2000/svg">
<path d="M20 4.54541C14.4775 4.54541 10 9.02293 10 14.5454V44.5456C10 50.0681 14.4775 54.5456 20 54.5456H39.9999C45.5224 54.5456 49.9999 50.0681 49.9999 44.5456V14.5454C49.9999 9.02293 45.5224 4.54541 39.9999 4.54541H20ZM22.5 14.5454C23.88 14.5454 25 15.6654 25 17.0455C25 18.4255 23.88 19.5455 22.5 19.5455C21.12 19.5455 20 18.4255 20 17.0455C20 15.6654 21.12 14.5454 22.5 14.5454ZM35 22.0455C37.475 22.0455 39.0874 23.9705 40.7024 27.2006C41.1524 28.0981 41.5074 28.9906 41.8749 29.9356C42.0949 30.5056 42.2524 30.9931 42.3449 31.2656C42.8824 32.8831 41.7074 34.5456 39.9999 34.5456H20C18.1425 34.5456 16.9025 32.6131 17.735 30.9506C18.1075 30.2056 18.7225 29.1406 19.53 28.0606C21.145 25.9106 22.945 24.5681 25 24.5455C27.0525 24.523 28.1225 25.5881 29.4525 27.0456C31.03 23.9505 32.585 22.0455 35 22.0455ZM20 39.5456H39.9999C41.3799 39.5456 42.4999 40.6656 42.4999 42.0456C42.4999 43.4256 41.3799 44.5456 39.9999 44.5456H20C18.62 44.5456 17.5 43.4256 17.5 42.0456C17.5 40.6656 18.62 39.5456 20 39.5456Z" fill="#ED5C18"/>
</svg>
