<svg width="18" height="18" viewBox="0 0 18 18" fill="none" xmlns="http://www.w3.org/2000/svg">
<path d="M8.55088 1.5404C10.8339 1.5404 11.1035 1.54845 12.0046 1.59068C12.8374 1.62888 13.29 1.76764 13.5917 1.88428C13.99 2.03912 14.2756 2.22413 14.5753 2.52377C14.875 2.8234 15.0601 3.10695 15.215 3.50713C15.3316 3.80878 15.4704 4.26125 15.5086 5.09379C15.5489 5.9947 15.5589 6.26619 15.5589 8.54663C15.5589 10.8291 15.5509 11.0986 15.5086 11.9995C15.4704 12.832 15.3316 13.2845 15.215 13.5861C15.0601 13.9843 14.875 14.2699 14.5753 14.5695C14.2756 14.8691 13.992 15.0541 13.5917 15.209C13.29 15.3256 12.8374 15.4644 12.0046 15.5026C11.1035 15.5428 10.8339 15.5529 8.55088 15.5529C6.26783 15.5529 5.99829 15.5448 5.09714 15.5026C4.26438 15.4644 3.81179 15.3256 3.51006 15.209C3.11178 15.0541 2.82615 14.8691 2.52644 14.5695C2.22673 14.2699 2.04167 13.9863 1.88679 13.5861C1.77012 13.2845 1.63132 12.832 1.5931 11.9995C1.55287 11.0986 1.54282 10.8271 1.54282 8.54663C1.54282 6.26418 1.55086 5.9947 1.5931 5.09379C1.63132 4.26125 1.77012 3.80878 1.88679 3.50713C2.04167 3.10896 2.22673 2.8234 2.52644 2.52377C2.82615 2.22413 3.10977 2.03912 3.51006 1.88428C3.81179 1.76764 4.26438 1.62888 5.09714 1.59068C5.99829 1.55046 6.26783 1.5404 8.55088 1.5404ZM8.55088 0C6.22961 0 5.93794 0.0100538 5.02673 0.0522842C4.11753 0.0945146 3.49598 0.237293 2.95086 0.450456C2.38966 0.669652 1.91293 0.961244 1.43621 1.43583C0.961493 1.91042 0.667815 2.38702 0.450574 2.95009C0.239366 3.49306 0.0945362 4.11445 0.0522948 5.02542C0.0100533 5.93639 0 6.22798 0 8.54864C0 10.8693 0.0100533 11.1609 0.0522948 12.0719C0.0945362 12.9808 0.237355 13.6022 0.450574 14.1472C0.669827 14.7082 0.961493 15.1848 1.43621 15.6614C1.91092 16.136 2.38764 16.4296 2.95086 16.6468C3.49397 16.858 4.11552 17.0028 5.02673 17.045C5.93794 17.0872 6.22961 17.0973 8.55088 17.0973C10.8721 17.0973 11.1638 17.0872 12.075 17.045C12.9842 17.0028 13.6058 16.86 14.1509 16.6468C14.7121 16.4276 15.1888 16.136 15.6655 15.6614C16.1403 15.1869 16.4339 14.7103 16.6512 14.1472C16.8624 13.6042 17.0072 12.9828 17.0495 12.0719C17.0917 11.1609 17.1018 10.8693 17.1018 8.54864C17.1018 6.22798 17.0917 5.93639 17.0495 5.02542C17.0072 4.11646 16.8644 3.49507 16.6512 2.95009C16.4319 2.38903 16.1403 1.91243 15.6655 1.43583C15.1908 0.961244 14.7141 0.667641 14.1509 0.450456C13.6078 0.239304 12.9862 0.0945146 12.075 0.0522842C11.1638 0.0100538 10.8721 0 8.55088 0Z" fill="#ED5C18"/>
<path d="M8.55096 4.15845C6.1271 4.15845 4.16187 6.12317 4.16187 8.54639C4.16187 10.9696 6.1271 12.9343 8.55096 12.9343C10.9748 12.9343 12.94 10.9696 12.94 8.54639C12.94 6.12317 10.9748 4.15845 8.55096 4.15845ZM8.55096 11.3959C6.97796 11.3959 5.70066 10.121 5.70066 8.54639C5.70066 6.9718 6.97595 5.69684 8.55096 5.69684C10.1239 5.69684 11.4012 6.9718 11.4012 8.54639C11.4012 10.121 10.1239 11.3959 8.55096 11.3959Z" fill="#ED5C18"/>
<path d="M13.115 5.0114C13.6816 5.0114 14.1408 4.55222 14.1408 3.9858C14.1408 3.41938 13.6816 2.96021 13.115 2.96021C12.5484 2.96021 12.0891 3.41938 12.0891 3.9858C12.0891 4.55222 12.5484 5.0114 13.115 5.0114Z" fill="#ED5C18"/>
</svg>
