<svg width="17" height="17" viewBox="0 0 17 17" fill="none" xmlns="http://www.w3.org/2000/svg">
<path d="M8.88882 6.78662C9.1121 6.53524 9.29515 6.28186 9.52446 6.06669C10.2285 5.40306 11.0612 5.06925 12.0348 5.07729C12.5699 5.08131 13.0969 5.11952 13.6118 5.26833C14.7906 5.60818 15.4745 6.42062 15.8024 7.57089C16.0478 8.4336 16.092 9.32044 16.094 10.2093C16.098 12.0835 16.088 13.9598 16.092 15.834C16.092 16.0089 16.0437 16.0552 15.8707 16.0552C14.9052 16.0471 13.9377 16.0471 12.9722 16.0552C12.8012 16.0572 12.765 16.0049 12.765 15.844C12.771 14.0603 12.771 12.2766 12.765 10.4908C12.763 10.0444 12.7348 9.59594 12.6101 9.16157C12.3788 8.36121 11.8055 7.95298 10.9667 7.99722C9.82015 8.05755 9.22474 8.62464 9.07991 9.789C9.04572 10.0665 9.02762 10.346 9.02963 10.6256C9.03164 12.361 9.02762 14.0965 9.03365 15.832C9.03365 16.0049 8.99141 16.0552 8.8144 16.0552C7.84083 16.0471 6.86727 16.0471 5.89371 16.0552C5.73681 16.0572 5.69256 16.015 5.69256 15.8561C5.69658 12.4214 5.69658 8.98461 5.69256 5.54987C5.69256 5.37894 5.74887 5.34073 5.90979 5.34073C6.83307 5.34676 7.75836 5.34877 8.68164 5.34073C8.85262 5.33872 8.89486 5.39502 8.89285 5.5559C8.88279 5.96614 8.88882 6.37638 8.88882 6.78662Z" fill="#FEFEFE"/>
<path d="M3.59456 10.7143C3.59456 12.4136 3.59254 14.1128 3.59857 15.8121C3.59857 16.0011 3.55231 16.0574 3.35719 16.0554C2.39167 16.0454 1.42616 16.0474 0.458627 16.0534C0.303741 16.0554 0.257477 16.0152 0.257477 15.8563C0.2615 12.4156 0.2615 8.9748 0.257477 5.53202C0.257477 5.38924 0.291669 5.33896 0.442531 5.33896C1.42213 5.34499 2.40174 5.34701 3.38134 5.33695C3.57042 5.33494 3.59456 5.40733 3.59456 5.57022C3.59255 7.28759 3.59456 9.00094 3.59456 10.7143Z" fill="#FEFEFE"/>
<path d="M3.86007 1.93219C3.86208 3.00002 2.99513 3.86876 1.92903 3.86876C0.87702 3.86876 0.00403685 3.00002 1.38489e-05 1.94829C-0.00400915 0.886492 0.868978 0.0117188 1.93306 0.0117188C2.9891 0.0137297 3.86007 0.880456 3.86007 1.93219Z" fill="#FEFEFE"/>
</svg>
