<svg width="34" height="34" viewBox="0 0 34 34" fill="none" xmlns="http://www.w3.org/2000/svg">
<g clip-path="url(#clip0_82_336)">
<g filter="url(#filter0_d_82_336)">
<path d="M-12 15.949C-12 13.7329 -10.2034 11.9363 -7.98726 11.9363H-7.41401C-5.19784 11.9363 -3.40127 13.7329 -3.40127 15.949V21.6815H-5.3121V31.9044H-10.1847V21.6815H-12V15.949Z" fill="white"/>
<path d="M-10.1847 21.4904H-11.8089V15.949C-11.8089 13.8384 -10.0979 12.1274 -7.98726 12.1274H-7.41401C-5.30337 12.1274 -3.59236 13.8384 -3.59236 15.949V21.4904H-5.3121C-5.41763 21.4904 -5.50318 21.576 -5.50318 21.6815V31.7134H-9.99363V21.6815C-9.99363 21.576 -10.0792 21.4904 -10.1847 21.4904Z" stroke="white" stroke-width="0.382166" stroke-linejoin="round"/>
</g>
<path d="M17.0606 19.3556L17.0606 31" stroke="#3E4450" stroke-width="2.5" stroke-linecap="round"/>
<path d="M13.4243 21.5818L13.4243 25.9758" stroke="#3E4450" stroke-width="2.5" stroke-linecap="round"/>
<path d="M20.697 21.5818L20.697 25.9758" stroke="#3E4450" stroke-width="2.5" stroke-linecap="round"/>
<path d="M9.67352 10.429C5.84673 6.39394 2.96334 9.29674 2 11.2525V17.3258C2 19.3022 3.99312 20.3452 4.98969 20.6197C7.70033 20.208 8.77662 22.0952 8.77662 22.9873V29.3693C9.81304 31.181 11.1351 30.1242 11.6666 29.3693V19.0757H10.6701L8.77662 18.4581L6.88315 15.5759V13.2083L9.67352 11.8702V10.429Z" fill="#3E4450"/>
<path d="M24.8557 10.0318C28.4186 5.99116 31.1031 8.89797 32 10.8565V16.9381C32 18.9172 30.1443 19.9617 29.2165 20.2366C26.6928 19.8243 25.6907 21.7141 25.6907 22.6074V28.9983C24.7258 30.8125 23.4948 29.7542 23 28.9983V18.6904H23.9278L25.6907 18.072L27.4536 15.1858V12.815L24 11L24.8557 10.0318Z" fill="#3E4450"/>
<path d="M12.5455 9.04598C12.5455 7.79798 13.6808 6.85783 14.9069 7.09043L16.1518 7.32658C16.4471 7.38261 16.7505 7.38119 17.0453 7.3224L18.0873 7.11458C19.3123 6.87029 20.4546 7.80732 20.4546 9.05637V9.05637C20.4546 10.1499 19.5681 11.0364 18.4746 11.0364H14.536C13.4367 11.0364 12.5455 10.1453 12.5455 9.04598V9.04598Z" fill="#3E4450"/>
<path d="M27.9923 15.7303C27.9923 16.9243 27.0995 18.2727 25.0656 19.3949C23.0759 20.4926 20.2421 21.2106 17.0437 21.2106C13.8453 21.2106 11.0115 20.4926 9.02178 19.3949C6.98787 18.2727 6.09503 16.9243 6.09503 15.7303C6.09503 14.5363 6.98787 13.1879 9.02178 12.0657C11.0115 10.9679 13.8453 10.25 17.0437 10.25C20.2421 10.25 23.0759 10.9679 25.0656 12.0657C27.0995 13.1879 27.9923 14.5363 27.9923 15.7303Z" stroke="white" stroke-width="2.5"/>
<path d="M26.3098 15.7303C26.3098 16.3687 25.7288 17.3135 23.9388 18.1727C22.2389 18.9886 19.8026 19.528 17.0437 19.528C14.2849 19.528 11.8486 18.9886 10.1487 18.1727C8.35865 17.3135 7.77765 16.3687 7.77765 15.7303C7.77765 15.0919 8.35865 14.1471 10.1487 13.2879C11.8486 12.4719 14.2849 11.9326 17.0437 11.9326C19.8026 11.9326 22.2389 12.4719 23.9388 13.2879C25.7288 14.1471 26.3098 15.0919 26.3098 15.7303Z" fill="#ED5C18" stroke="#ED5C18" stroke-width="2.5"/>
<circle cx="16.6515" cy="4.29399" r="2.34848" fill="#3E4450"/>
<circle cx="27.3485" cy="5.29399" r="2.34848" fill="#3E4450"/>
<circle cx="6.34848" cy="5.29399" r="2.34848" fill="#3E4450"/>
<path d="M28 23L28 27.3939" stroke="#3E4450" stroke-width="2.5" stroke-linecap="round"/>
<path d="M6 23L6 27.3939" stroke="#3E4450" stroke-width="2.5" stroke-linecap="round"/>
</g>
<defs>
<filter id="filter0_d_82_336" x="-16" y="11.9363" width="16.5988" height="27.9682" filterUnits="userSpaceOnUse" color-interpolation-filters="sRGB">
<feFlood flood-opacity="0" result="BackgroundImageFix"/>
<feColorMatrix in="SourceAlpha" type="matrix" values="0 0 0 0 0 0 0 0 0 0 0 0 0 0 0 0 0 0 127 0" result="hardAlpha"/>
<feOffset dy="4"/>
<feGaussianBlur stdDeviation="2"/>
<feComposite in2="hardAlpha" operator="out"/>
<feColorMatrix type="matrix" values="0 0 0 0 0 0 0 0 0 0 0 0 0 0 0 0 0 0 0.25 0"/>
<feBlend mode="normal" in2="BackgroundImageFix" result="effect1_dropShadow_82_336"/>
<feBlend mode="normal" in="SourceGraphic" in2="effect1_dropShadow_82_336" result="shape"/>
</filter>
<clipPath id="clip0_82_336">
<rect width="34" height="34" fill="white"/>
</clipPath>
</defs>
</svg>
