<svg width="60" height="60" viewBox="0 0 60 60" fill="none" xmlns="http://www.w3.org/2000/svg">
<path d="M30.9453 42.4062V48.9123C30.9453 49.5532 30.8621 50.1719 30.7039 50.7657H44.5901C48.0637 50.7657 50.8825 47.9496 50.8825 44.4732V42.4062H30.9453Z" fill="#ED5C18"/>
<path d="M22.4915 56.3456H15.3833C11.907 56.3456 9.09088 53.5295 9.09088 50.0531V29.2031C9.09088 25.7295 11.907 22.9106 15.3833 22.9106H22.4915C25.9651 22.9106 28.784 25.7267 28.784 29.2031V50.0559C28.784 53.5295 25.9679 56.3456 22.4915 56.3456Z" fill="#ED5C18"/>
<path d="M18.9374 52.6498C19.8246 52.6498 20.5438 51.9306 20.5438 51.0434C20.5438 50.1562 19.8246 49.437 18.9374 49.437C18.0502 49.437 17.331 50.1562 17.331 51.0434C17.331 51.9306 18.0502 52.6498 18.9374 52.6498Z" fill="white"/>
<path d="M44.5899 3.63647H24.8719C21.3983 3.63647 18.5794 6.45255 18.5794 9.92894V20.7992H23.6816C27.6852 20.7992 30.9451 24.0565 30.9451 28.0628V39.9041H50.8824V9.92894C50.8824 6.45255 48.0635 3.63647 44.5899 3.63647Z" fill="#ED5C18"/>
</svg>
