<svg width="102" height="102" viewBox="0 0 102 102" fill="none" xmlns="http://www.w3.org/2000/svg">
<rect width="102" height="102" rx="16" fill="#FEF9F4"/>
<path d="M51.8376 32.7456C53.5752 35.1431 56.0608 40.7236 59.3933 49.6328L62.8739 50.5658C64.1551 48.2184 66.9167 46.9602 69.6142 47.683C72.7784 48.5308 74.6561 51.7832 73.8083 54.9473C72.9604 58.1114 69.7081 59.9891 66.544 59.1413C63.973 58.4524 62.2514 56.1761 62.151 53.6494L51.2762 50.7357L54.1923 61.6112C56.7178 61.7127 58.9927 63.434 59.6813 66.004C60.5291 69.1682 58.6514 72.4205 55.4872 73.2683C52.3231 74.1161 49.0708 72.2384 48.2229 69.0743C47.5001 66.3764 48.7586 63.6144 51.1066 62.3334L50.1748 58.8508L47.9913 58.0271L45.9142 57.2239L43.9833 56.4574L42.73 55.9474C38.0596 54.0254 34.9272 52.4856 33.2861 51.2962C30.4648 49.2514 29.5921 46.4794 30.866 43.4125C31.1704 42.6796 31.9705 42.2855 32.737 42.4909L46.7993 46.2587L43.0323 32.1965C42.8269 31.4299 43.221 30.6298 43.9539 30.3254C47.0208 29.0516 49.7929 29.9242 51.8376 32.7456ZM53.2362 64.8672C51.7605 65.2626 50.8847 66.7794 51.2801 68.2551C51.6755 69.7308 53.1924 70.6066 54.6681 70.2111C56.1438 69.8157 57.0195 68.2989 56.6241 66.8232C56.2287 65.3475 54.7119 64.4717 53.2362 64.8672ZM57.1515 54.0568C57.857 54.7623 57.857 55.9061 57.1515 56.6115C56.446 57.317 55.3022 57.317 54.5968 56.6115C53.8913 55.9061 53.8913 54.7623 54.5968 54.0568C55.3022 53.3513 56.446 53.3513 57.1515 54.0568ZM65.4071 52.6962C65.0117 54.1719 65.8874 55.6887 67.3631 56.0842C68.8388 56.4796 70.3557 55.6038 70.7511 54.1281C71.1465 52.6524 70.2708 51.1356 68.7951 50.7402C67.3194 50.3448 65.8025 51.2205 65.4071 52.6962Z" fill="#ED5C18"/>
</svg>
