<svg width="102" height="102" viewBox="0 0 102 102" fill="none" xmlns="http://www.w3.org/2000/svg">
<rect width="102" height="102" rx="16" fill="#FEF9F4"/>
<path d="M64.0698 28C65.0616 28 65.8655 28.804 65.8655 29.7957V45.9574H74.8443C75.836 45.9574 76.64 46.7614 76.64 47.7532V72.8936C76.64 73.8854 75.836 74.6894 74.8443 74.6894H27.7957C26.804 74.6894 26 73.8854 26 72.8936V47.7532C26 46.7614 26.804 45.9574 27.7957 45.9574H36.4153V29.7957C36.4153 28.804 37.2193 28 38.2111 28H64.0698ZM47.5489 56.7319H43.9574V60.3234H47.5489V56.7319ZM52.9362 56.7319H49.3447V60.3234H52.9362V56.7319ZM58.3234 56.7319H54.7319V60.3234H58.3234V56.7319ZM36.4153 49.5489H29.5915V53.1404H36.4153V49.5489ZM73.0485 49.5489H65.8655V53.1404H73.0467L73.0485 49.5489ZM47.5489 49.5489H43.9574V53.1404H47.5489V49.5489ZM52.9362 49.5489H49.3447V53.1404H52.9362V49.5489ZM58.3234 49.5489H54.7319V53.1404H58.3234V49.5489ZM47.5489 42.366H43.9574V45.9574H47.5489V42.366ZM52.9362 42.366H49.3447V45.9574H52.9362V42.366ZM58.3234 42.366H54.7319V45.9574H58.3234V42.366ZM47.5489 35.183H43.9574V38.7745H47.5489V35.183ZM52.9362 35.183H49.3447V38.7745H52.9362V35.183ZM58.3234 35.183H54.7319V38.7745H58.3234V35.183Z" fill="#ED5C18"/>
</svg>
