<svg width="102" height="102" viewBox="0 0 102 102" fill="none" xmlns="http://www.w3.org/2000/svg">
<rect width="102" height="102" rx="16" fill="#FEF9F4"/>
<path fill-rule="evenodd" clip-rule="evenodd" d="M50.4122 26C50.7805 26 50.9646 26 51.3329 26L75.272 32.0768C76.0086 32.261 76.7451 32.9976 76.7451 33.9183V74.7988C76.7451 75.9037 75.8244 76.6403 74.9037 76.6403H59.4354V66.6964C59.4354 61.9086 55.5683 58.2256 50.9646 58.2256C46.1768 58.2256 42.4939 62.0927 42.4939 66.6964V76.6403H26.8415C25.7366 76.6403 25 75.7195 25 74.7988V33.9183C25 32.9976 25.5524 32.261 26.4732 32.0768L50.4122 26ZM35.4963 40.9159C35.4963 42.0207 34.5756 42.7573 33.6549 42.7573C32.7341 42.7573 31.8134 42.0207 31.8134 40.9159C31.8134 39.811 32.7341 39.0744 33.6549 39.0744C34.5756 39.0744 35.4963 39.811 35.4963 40.9159ZM45.072 42.7573C46.1768 42.7573 46.9134 42.0207 46.9134 40.9159C46.9134 39.811 46.1768 39.0744 45.072 39.0744C43.9671 39.0744 43.2305 39.811 43.2305 40.9159C43.2305 42.0207 43.9671 42.7573 45.072 42.7573ZM58.3305 40.9159C58.3305 42.0207 57.5939 42.7573 56.489 42.7573C55.3842 42.7573 54.6476 42.0207 54.6476 40.9159C54.6476 39.811 55.3842 39.0744 56.489 39.0744C57.5939 39.0744 58.3305 39.811 58.3305 40.9159ZM67.9061 42.7573C69.011 42.7573 69.7476 42.0207 69.7476 40.9159C69.7476 39.811 69.011 39.0744 67.9061 39.0744C66.8012 39.0744 66.0647 39.811 66.0647 40.9159C66.0647 42.0207 66.9854 42.7573 67.9061 42.7573ZM35.4963 51.2281C35.4963 52.3329 34.5756 53.0695 33.6549 53.0695C32.7341 53.0695 31.8134 52.3329 31.8134 51.2281C31.8134 50.1232 32.7341 49.3866 33.6549 49.3866C34.5756 49.3866 35.4963 50.1232 35.4963 51.2281ZM45.072 53.0695C46.1768 53.0695 46.9134 52.3329 46.9134 51.2281C46.9134 50.1232 46.1768 49.3866 45.072 49.3866C43.9671 49.3866 43.2305 50.1232 43.2305 51.2281C43.2305 52.1488 43.9671 53.0695 45.072 53.0695ZM58.3305 51.2281C58.3305 52.3329 57.5939 53.0695 56.489 53.0695C55.3842 53.0695 54.6476 52.3329 54.6476 51.2281C54.6476 50.1232 55.3842 49.3866 56.489 49.3866C57.5939 49.3866 58.3305 50.1232 58.3305 51.2281ZM67.9061 53.0695C69.011 53.0695 69.7476 52.3329 69.7476 51.2281C69.7476 50.1232 69.011 49.3866 67.9061 49.3866C66.8012 49.3866 66.0647 50.1232 66.0647 51.2281C66.0647 52.1488 66.9854 53.0695 67.9061 53.0695ZM35.4963 61.5403C35.4963 62.6451 34.5756 63.3817 33.6549 63.3817C32.7341 63.3817 31.8134 62.6451 31.8134 61.5403C31.8134 60.4354 32.7341 59.6988 33.6549 59.6988C34.5756 59.6988 35.4963 60.4354 35.4963 61.5403ZM67.9061 63.3817C69.011 63.3817 69.7476 62.6451 69.7476 61.5403C69.7476 60.4354 69.011 59.6988 67.9061 59.6988C66.8012 59.6988 66.0647 60.4354 66.0647 61.5403C66.0647 62.461 66.9854 63.3817 67.9061 63.3817Z" fill="#ED5C18"/>
</svg>
