<svg width="19" height="15" viewBox="0 0 19 15" fill="none" xmlns="http://www.w3.org/2000/svg">
<path d="M6.28682 14.3482C12.9187 14.3482 16.5455 8.85625 16.5455 4.09226C16.5455 3.9354 16.5414 3.78056 16.5354 3.62571C17.2394 3.11694 17.8509 2.48147 18.3337 1.75953C17.688 2.0471 16.992 2.24015 16.2638 2.32662C17.0081 1.88019 17.5794 1.17434 17.8489 0.333749C17.1529 0.745998 16.3805 1.04765 15.5598 1.20852C14.9021 0.508705 13.9647 0.0703125 12.9288 0.0703125C10.9374 0.0703125 9.32217 1.68512 9.32217 3.67397C9.32217 3.95752 9.35436 4.23101 9.41671 4.49646C6.41958 4.34564 3.76239 2.91181 1.98624 0.729911C1.67647 1.26282 1.49745 1.8822 1.49745 2.5418C1.49745 3.79262 2.13308 4.89665 3.10262 5.54217C2.51124 5.52407 1.95606 5.36118 1.46928 5.09171C1.46928 5.10579 1.46928 5.12187 1.46928 5.13796C1.46928 6.88348 2.71239 8.34144 4.36182 8.67124C4.05808 8.75369 3.74026 8.79793 3.41238 8.79793C3.18106 8.79793 2.95376 8.77581 2.73451 8.73358C3.19313 10.1654 4.52474 11.2071 6.10176 11.2372C4.8667 12.2045 3.31383 12.7797 1.62417 12.7797C1.3325 12.7797 1.04687 12.7636 0.763245 12.7294C2.35635 13.751 4.25119 14.3482 6.28682 14.3482Z" fill="white"/>
</svg>
