<svg width="19" height="15" viewBox="0 0 19 15" fill="none" xmlns="http://www.w3.org/2000/svg">
<path d="M6.28676 14.3482C12.9187 14.3482 16.5454 8.85625 16.5454 4.09226C16.5454 3.9354 16.5414 3.78056 16.5353 3.62571C17.2394 3.11694 17.8509 2.48147 18.3336 1.75953C17.6879 2.0471 16.9919 2.24015 16.2638 2.32662C17.008 1.88019 17.5793 1.17434 17.8488 0.333749C17.1529 0.745998 16.3805 1.04765 15.5598 1.20852C14.902 0.508705 13.9646 0.0703125 12.9287 0.0703125C10.9373 0.0703125 9.32211 1.68512 9.32211 3.67397C9.32211 3.95752 9.3543 4.23101 9.41665 4.49646C6.41952 4.34564 3.76233 2.91181 1.98618 0.729911C1.67641 1.26282 1.49739 1.8822 1.49739 2.5418C1.49739 3.79262 2.13301 4.89665 3.10256 5.54217C2.51118 5.52407 1.956 5.36118 1.46922 5.09171C1.46922 5.10579 1.46922 5.12187 1.46922 5.13796C1.46922 6.88348 2.71233 8.34144 4.36176 8.67124C4.05802 8.75369 3.7402 8.79793 3.41232 8.79793C3.181 8.79793 2.9537 8.77581 2.73445 8.73358C3.19307 10.1654 4.52468 11.2071 6.1017 11.2372C4.86664 12.2045 3.31377 12.7797 1.62411 12.7797C1.33244 12.7797 1.0468 12.7636 0.763184 12.7294C2.35629 13.751 4.25113 14.3482 6.28676 14.3482Z" fill="#ED5C18"/>
</svg>
