<svg width="541" height="593" viewBox="0 0 541 593" fill="none" xmlns="http://www.w3.org/2000/svg">
<path fill-rule="evenodd" clip-rule="evenodd" d="M192.653 359.517H176.363L117 582.571H126.839L192.653 359.517Z" fill="#4C230B"/>
<path fill-rule="evenodd" clip-rule="evenodd" d="M432.347 359.517H448.637L508 582.571H498.161L432.347 359.517Z" fill="#4C230B"/>
<path fill-rule="evenodd" clip-rule="evenodd" d="M137.006 347.571H491.765V359.626H137.006V347.571Z" fill="#371704"/>
<path fill-rule="evenodd" clip-rule="evenodd" d="M514.463 534.32H486.285L491.1 559.843H519.278L514.463 534.32Z" fill="#D8D1D1"/>
<path fill-rule="evenodd" clip-rule="evenodd" d="M392.175 519.837L419.915 519.783L419.149 555.525L388.837 553.94L392.175 519.837Z" fill="#D8D1D1"/>
<path fill-rule="evenodd" clip-rule="evenodd" d="M425.113 578.424C425.113 578.424 418.219 579.572 411.872 579.955C406.456 580.283 406.565 586.895 397.482 590.339C390.752 592.853 380.192 592.907 367.225 591.104C354.969 589.409 350.482 586.95 349.661 585.966H349.552V585.802C349.497 585.693 349.497 585.584 349.552 585.529L349.388 579.627H353.437C354.695 578.971 356.391 578.588 358.689 578.643C368.812 577.659 386.539 557.547 389.166 545.305C391.847 543.392 397.482 546.617 402.625 549.185C408.152 557.055 414.17 552.301 414.17 552.301C414.17 552.301 416.468 549.349 419.368 546.835C425.278 554.924 426.591 576.074 425.113 578.424Z" fill="#2C1C28"/>
<path fill-rule="evenodd" clip-rule="evenodd" d="M541 583.998L540.891 589.081H540.781C540.781 589.136 540.781 589.19 540.781 589.19C536.732 590.83 532.902 592.306 517.582 592.907C504.888 593.453 496.735 591.54 492.139 588.589C487.051 585.365 491.209 578.424 486.066 577.549C482.947 577.003 482.236 574.872 482.236 574.872C482.947 564.597 484.042 552.3 488.036 547.545C488.036 550.989 490.717 553.83 490.717 553.83C490.717 553.83 492.03 555.087 496.735 547.054C502.809 544.43 509.539 543.993 515.886 547.163C520.701 565.307 528.415 575.036 534.817 581.648C536.404 581.648 537.608 582.632 538.538 583.944H541V583.998Z" fill="#2C1C28"/>
<path fill-rule="evenodd" clip-rule="evenodd" d="M424.949 572.905C424.949 572.905 418.055 574.052 411.708 574.435C406.291 574.763 406.401 581.376 397.318 584.819C390.588 587.333 380.028 587.387 367.061 585.584C351.357 583.398 348.403 580.009 349.607 579.955C349.607 579.955 349.497 572.905 358.58 573.123C368.702 572.139 386.594 552.629 389.22 540.387C391.901 538.474 401.039 541.152 402.516 543.666C408.042 551.536 413.24 549.349 413.24 549.349C413.24 549.349 418.821 548.038 419.423 541.37C425.387 549.459 426.427 570.555 424.949 572.905Z" fill="#814A2A"/>
<path fill-rule="evenodd" clip-rule="evenodd" d="M482.4 569.789C482.4 569.789 483.057 571.921 486.23 572.467C491.373 573.342 487.215 580.282 492.304 583.507C496.9 586.458 505.052 588.371 517.746 587.824C533.066 587.169 536.896 585.748 540.945 584.108C540.945 584.108 539.304 576.621 534.981 576.621C528.634 570.008 520.865 560.28 516.05 542.135C511.946 539.075 502.973 539.348 496.9 542.026C492.249 550.06 490.826 548.366 490.826 548.366C490.826 548.366 488.145 546.125 487.817 542.682C484.698 549.185 483.166 559.515 482.4 569.789Z" fill="#814A2A"/>
<path fill-rule="evenodd" clip-rule="evenodd" d="M515.557 537.271C515.557 537.381 515.557 537.326 515.557 537.435C515.448 538.856 506.42 540.004 495.532 540.004C485.191 540.004 476.819 538.965 476.163 537.654H476.108C476.108 537.654 460.897 518.143 458.818 480.05C454.222 395.285 420.463 308.989 420.463 308.989C420.463 308.989 417.18 287.128 473.919 300.354L515.557 537.107V537.271Z" fill="#5A74C7"/>
<path fill-rule="evenodd" clip-rule="evenodd" d="M427.083 288.987C400.984 288.987 379.919 293.577 380.083 299.261C380.247 304.945 401.531 309.535 427.63 309.535C453.729 309.535 474.795 304.945 474.631 299.261C474.521 293.577 453.237 288.987 427.083 288.987Z" fill="#5A74C7"/>
<path fill-rule="evenodd" clip-rule="evenodd" d="M473.263 266.088C473.263 266.088 459.803 257.507 438.355 257.179C395.458 256.578 377.128 265.869 377.128 265.869L378.059 299.152L473.974 290.954L473.263 266.088Z" fill="#7581F1"/>
<path fill-rule="evenodd" clip-rule="evenodd" d="M426.262 476.006C431.898 516.066 424.019 537.49 423.636 538.474C423.308 539.621 415.265 540.496 405.252 540.496C395.403 540.496 387.305 539.621 386.758 538.474H386.703L377.566 289.205C377.566 289.205 390.205 286.473 401.641 289.205C414.936 292.375 426.427 307.186 426.427 307.186C426.427 307.186 417.07 410.752 426.262 476.006Z" fill="#5A74C7"/>
<path d="M389.767 274.777C389.767 274.777 389.165 291.883 378.605 303.852" stroke="#555EC2" stroke-width="1.09299" stroke-miterlimit="10" stroke-linecap="round" stroke-linejoin="round"/>
<path d="M443.99 272.099C443.99 272.099 444.318 296.31 466.533 304.289" stroke="#555EC2" stroke-width="1.09299" stroke-miterlimit="10" stroke-linecap="round" stroke-linejoin="round"/>
<path d="M515.448 536.452L464.618 291.119C464.891 286.473 465.876 275.051 465.876 275.051" stroke="#555EC2" stroke-width="1.09299" stroke-miterlimit="10" stroke-linecap="round" stroke-linejoin="round"/>
<path d="M414.991 311.066C414.991 311.066 411.161 410.588 417.453 482.674C420.298 514.919 415.046 539.622 415.046 539.622" stroke="#555EC2" stroke-width="1.09299" stroke-miterlimit="10" stroke-linecap="round" stroke-linejoin="round"/>
<path fill-rule="evenodd" clip-rule="evenodd" d="M424.949 327.897L425.332 322.269L421.502 309.535L406.51 306.748C406.456 306.748 409.465 323.744 424.949 327.897Z" fill="#555EC2"/>
<path fill-rule="evenodd" clip-rule="evenodd" d="M375.377 204.932C375.268 247.889 363.45 268.001 376.745 280.079C376.526 287.621 376.198 299.262 376.198 299.262C376.198 299.262 376.198 300.136 376.8 300.847C377.511 301.612 378.113 301.94 378.113 301.94C378.113 301.94 377.73 298.77 378.058 298.715C381.506 297.95 392.011 296.693 425.004 297.24C449.954 297.622 464.344 300.027 474.029 301.12C474.466 303.251 474.576 303.907 474.576 303.907C474.576 303.907 478.789 303.088 479.008 301.503C479.008 301.503 479.227 287.238 479.172 283.085C489.787 276.472 490.334 258 478.953 207.829C487.27 203.457 493.015 194.494 493.015 184.219C493.015 169.846 481.962 158.205 468.174 157.713H467.518C467.463 157.713 467.408 157.713 467.299 157.713C467.244 157.713 467.135 157.713 467.08 157.713L387.798 157.877C375.159 159.516 365.529 170.884 365.529 184.328C365.529 192.417 369.687 200.068 375.377 204.932Z" fill="#ED5C18"/>
<path d="M376.526 279.969C389.768 277.292 444.264 273.138 479.117 282.975" stroke="#CC2818" stroke-width="1.09299" stroke-miterlimit="10" stroke-linecap="round" stroke-linejoin="round"/>
<path d="M404.486 172.578L420.791 187.005L440.598 172.031" stroke="#571F2B" stroke-width="1.09299" stroke-miterlimit="10" stroke-linecap="round" stroke-linejoin="round"/>
<path fill-rule="evenodd" clip-rule="evenodd" d="M410.395 197.335C402.024 210.178 380.466 233.023 362.574 243.079C358.744 248.599 352.397 252.206 345.175 252.206C333.52 252.206 324.055 242.751 324.055 231.165C324.055 222.912 328.815 215.807 335.709 212.364C335.873 212.255 335.983 212.2 336.147 212.091C355.023 203.347 364.982 180.12 366.732 175.693C369.797 165.527 379.207 158.149 390.369 158.149C403.993 158.149 415.101 169.189 415.101 182.798C415.101 188.263 413.35 193.236 410.395 197.335Z" fill="#ED5C18"/>
<path d="M367.553 234.553L381.342 183.562" stroke="#CC2818" stroke-width="1.09299" stroke-miterlimit="10" stroke-linecap="round" stroke-linejoin="round"/>
<path fill-rule="evenodd" clip-rule="evenodd" d="M540.289 238.433C540.289 251.222 529.893 261.551 517.144 261.551C509.648 261.551 502.973 257.999 498.705 252.424L464.727 210.452C451.76 209.085 441.637 197.827 441.637 184.055C441.637 169.408 453.127 157.548 467.353 157.548C475.615 157.548 482.893 161.538 487.598 167.768L487.707 167.659L535.255 223.787L535.2 223.841C538.319 227.886 540.289 232.914 540.289 238.433Z" fill="#ED5C18"/>
<path d="M457.614 201.161L491.483 246.577" stroke="#CC2818" stroke-width="1.09299" stroke-miterlimit="10" stroke-linecap="round" stroke-linejoin="round"/>
<path fill-rule="evenodd" clip-rule="evenodd" d="M540.289 238.434C540.289 251.222 529.893 261.551 517.144 261.551C515.065 261.551 513.04 261.278 511.125 260.732L473.317 254.501L477.257 219.852C477.257 219.852 485.026 220.672 490.224 221.273C497.611 205.588 521.685 214.715 524.312 216.354C533.504 219.36 540.289 228.104 540.289 238.434Z" fill="#ED5C18"/>
<path fill-rule="evenodd" clip-rule="evenodd" d="M479.336 220.726C475.178 217.994 470.034 223.076 467.901 232.149C465.767 241.166 467.408 251.004 471.566 253.736C475.725 256.469 480.868 251.113 483.002 242.095C485.19 233.023 483.494 223.459 479.336 220.726Z" fill="#2A1C28"/>
<path fill-rule="evenodd" clip-rule="evenodd" d="M478.515 222.256C474.795 219.797 470.199 224.388 468.284 232.476C466.368 240.565 467.846 249.364 471.566 251.823C475.287 254.283 479.883 249.473 481.798 241.385C483.768 233.241 482.291 224.661 478.515 222.256Z" fill="#D3D8DC"/>
<path fill-rule="evenodd" clip-rule="evenodd" d="M467.08 220.727L476.764 221.71L473.646 252.698L462.867 251.66L467.08 220.727Z" fill="#D3D8DC"/>
<path fill-rule="evenodd" clip-rule="evenodd" d="M468.393 221.164C464.672 218.704 460.076 223.295 458.161 231.384C456.246 239.472 457.723 248.271 461.444 250.73C465.165 253.19 469.761 248.38 471.676 240.292C473.591 232.149 472.114 223.568 468.393 221.164Z" fill="#2A1C28"/>
<path fill-rule="evenodd" clip-rule="evenodd" d="M467.244 222.202C464.125 220.125 460.24 224.006 458.654 230.782C457.067 237.614 458.271 244.992 461.389 247.014C464.508 249.091 468.393 245.047 469.98 238.215C471.621 231.438 470.363 224.224 467.244 222.202Z" fill="#E99670"/>
<path fill-rule="evenodd" clip-rule="evenodd" d="M433.922 218.267L439.558 229.962L433.922 218.267Z" fill="#E99670"/>
<path fill-rule="evenodd" clip-rule="evenodd" d="M443.498 241.385C436.768 237.668 434.524 231.547 429.272 226.519L427.247 224.935C426.098 224.06 425.825 222.475 426.591 221.328C427.357 220.289 428.779 220.071 429.874 220.726C429.874 220.726 435.564 224.771 443.333 226.738C455.808 224.443 469.268 252.643 443.498 241.385Z" fill="#E99670"/>
<path d="M421.064 199.084L436.275 203.729L437.479 204.112L438.081 204.33L438.354 204.44L438.737 204.604C439.832 204.986 440.817 205.533 441.801 206.189C442.786 206.844 443.662 207.609 444.482 208.484C444.865 208.921 445.248 209.358 445.631 209.85C445.796 210.069 445.96 210.342 446.124 210.561L446.562 211.271L462.101 236.848C464.782 241.275 454.495 245.975 446.015 238.543L439.941 214.277L439.722 213.84C439.668 213.731 439.613 213.621 439.558 213.512C439.449 213.293 439.285 213.075 439.12 212.856C438.792 212.419 438.464 212.036 438.026 211.654C437.588 211.326 437.151 210.998 436.658 210.725L436.439 210.615L436.166 210.506L435.564 210.233L434.415 209.741L419.478 204.057C418.11 203.456 417.344 201.871 417.836 200.505C418.383 199.248 419.751 198.647 421.064 199.084Z" fill="#E99670"/>
<path fill-rule="evenodd" clip-rule="evenodd" d="M445.139 229.361L440.653 216.9L440.324 216.572C440.215 216.463 440.16 216.408 440.051 216.299C439.887 216.135 439.668 215.971 439.449 215.807C439.011 215.479 438.573 215.206 438.081 215.042C437.589 214.824 437.096 214.66 436.549 214.605L436.33 214.55L436.002 214.496L435.4 214.441L434.196 214.277L418.876 212.036C417.399 211.872 416.304 210.615 416.359 209.194C416.414 207.937 417.508 207.008 418.876 207.008L434.196 208.211H435.4H436.002H436.33H436.713C437.807 208.265 438.902 208.484 439.996 208.812C441.09 209.14 442.13 209.577 443.115 210.178C443.607 210.451 444.1 210.779 444.537 211.107C444.756 211.271 444.975 211.435 445.194 211.654L445.796 212.146L456.793 225.098C461.499 234.826 455.644 233.679 445.139 229.361Z" fill="#E99670"/>
<path d="M421.064 199.084L436.275 203.729L437.479 204.112L438.081 204.33L438.354 204.44L438.737 204.604C439.832 204.986 440.817 205.533 441.801 206.189C442.786 206.844 443.662 207.609 444.482 208.484C444.865 208.921 445.248 209.358 445.631 209.85C445.796 210.069 445.96 210.342 446.124 210.561L446.562 211.271L462.101 236.848C464.782 241.275 454.495 245.975 446.015 238.543L439.941 214.277L439.722 213.84C439.668 213.731 439.613 213.621 439.558 213.512C439.449 213.293 439.285 213.075 439.12 212.856C438.792 212.419 438.464 212.036 438.026 211.654C437.588 211.326 437.151 210.998 436.658 210.725L436.439 210.615L436.166 210.506L435.564 210.233L434.415 209.741L419.478 204.057C418.11 203.456 417.344 201.871 417.836 200.505C418.383 199.248 419.751 198.647 421.064 199.084Z" fill="#E99670"/>
<path fill-rule="evenodd" clip-rule="evenodd" d="M450.884 229.908L443.771 218.759L443.388 218.486C443.279 218.431 443.169 218.322 443.06 218.267C442.841 218.158 442.622 217.994 442.403 217.939C441.911 217.721 441.418 217.557 440.926 217.447C440.433 217.338 439.886 217.284 439.339 217.338H439.12L438.792 217.393L438.19 217.447L436.986 217.557L425.77 218.759C424.293 218.923 422.925 217.939 422.706 216.573C422.487 215.316 423.362 214.168 424.676 213.895L435.673 211.654L436.877 211.381L437.479 211.272L437.752 211.217L438.135 211.162C439.23 210.999 440.324 210.944 441.473 210.999C442.622 211.053 443.716 211.272 444.811 211.6C445.358 211.764 445.905 211.982 446.397 212.201C446.671 212.31 446.945 212.419 447.163 212.583L447.875 212.966L456.301 229.034C462.867 237.505 462.101 231.821 450.884 229.908Z" fill="#E99670"/>
<path fill-rule="evenodd" clip-rule="evenodd" d="M431.789 213.949L447.218 213.567V232.804L441.637 234.279L431.789 213.949Z" fill="#E99670"/>
<path fill-rule="evenodd" clip-rule="evenodd" d="M465.767 221.655L452.416 222.42L449.899 243.789L462.703 247.506C467.901 242.15 468.885 230.673 465.767 221.655Z" fill="#E99670"/>
<path d="M446.835 239.417C446.835 239.417 444.428 237.177 444.045 233.078C442.567 218.65 443.115 217.83 440.324 217.393C440.543 217.447 436.932 217.557 436.932 217.557L425.715 218.759C424.238 218.923 422.87 217.939 422.651 216.573C422.432 215.316 423.308 214.168 424.621 213.895L435.619 211.654C435.619 211.654 442.239 209.741 445.194 211.873C448.86 214.551 454.386 222.147 454.386 222.147" stroke="#2A1C28" stroke-width="1.09299" stroke-miterlimit="10" stroke-linecap="round" stroke-linejoin="round"/>
<path d="M427.959 213.348C423.746 212.747 418.985 212.036 418.985 212.036C417.508 211.872 416.414 210.615 416.468 209.194C416.523 207.937 417.617 207.008 418.985 207.008L434.306 208.211H435.509H436.111H436.439H436.822C437.917 208.265 439.011 208.484 440.105 208.812C441.2 209.14 442.239 209.577 443.224 210.178C443.716 210.451 444.209 210.779 444.647 211.107C444.866 211.271 445.084 211.435 445.303 211.654" stroke="#2A1C28" stroke-width="1.09299" stroke-miterlimit="10" stroke-linecap="round" stroke-linejoin="round"/>
<path d="M480.102 254.829C484.643 257.617 490.17 252.151 492.522 242.861C494.82 233.57 493.507 224.06 488.966 221.273" stroke="#CC2818" stroke-width="1.09299" stroke-miterlimit="10" stroke-linecap="round" stroke-linejoin="round"/>
<path d="M477.202 219.851C477.202 219.851 484.972 220.671 490.169 221.272C497.556 205.588 521.631 214.714 524.257 216.354" stroke="#CC2818" stroke-width="1.09299" stroke-miterlimit="10" stroke-linecap="round" stroke-linejoin="round"/>
<path fill-rule="evenodd" clip-rule="evenodd" d="M442.896 146.071C447 149.295 438.355 159.733 428.451 161.755C417.836 163.887 408.644 160.498 409.191 155.361C410.122 147.601 431.625 137.218 442.896 146.071Z" fill="#2A1C28"/>
<path fill-rule="evenodd" clip-rule="evenodd" d="M442.02 157.712L441.637 124.046L416.195 124.484L410.614 160.663C410.614 160.663 410.504 161.155 410.504 161.428C410.45 162.959 413.569 163.997 418.219 164.27L420.572 178.753L424.129 164.216C424.785 164.161 425.496 164.106 426.208 164.052C434.907 163.177 442.075 160.554 442.13 158.204C442.13 158.04 442.13 157.876 442.02 157.712Z" fill="#E99670"/>
<path fill-rule="evenodd" clip-rule="evenodd" d="M441.856 144.979C444.428 146.892 445.851 154.27 428.725 161.101C426.427 161.375 425.059 163.342 423.691 167.441L420.627 178.153L418.712 167.441C418.712 167.441 418.274 165.419 417.672 164.271C416.852 162.741 415.867 161.976 415.867 161.976C415.867 161.976 410.34 159.025 409.793 157.057C408.754 153.395 411.161 151.319 412.529 150.171C412.584 149.788 412.639 149.406 412.693 149.023C411.216 149.734 408.918 151.483 407.386 155.254C403.446 162.085 403.994 172.742 403.994 172.742L410.231 169.955L420.627 179.246L433.704 169.572C433.704 169.572 436.877 170.72 441.364 172.469C445.522 168.862 449.735 163.014 450.666 157.604L443.388 145.908L441.911 144.924L441.856 144.979Z" fill="#D3D8DC"/>
<path d="M442.075 145.251C442.951 146.071 443.443 147.055 443.443 148.312C443.443 152.848 436.932 158.805 428.779 161.046C426.974 161.538 425.497 162.74 424.731 164.434C423.363 167.331 421.667 172.359 420.682 178.808C419.751 172.031 419.04 162.849 414.554 160.991C413.733 160.663 412.912 160.281 412.255 159.68C410.997 158.532 410.067 157.056 410.067 155.635" stroke="#2A1C28" stroke-width="1.09299" stroke-miterlimit="10" stroke-linecap="round" stroke-linejoin="round"/>
<path fill-rule="evenodd" clip-rule="evenodd" d="M403.939 172.741L419.095 169.134C419.095 169.134 417.946 163.997 416.578 161.866C415.21 159.789 408.973 163.505 403.939 172.741Z" fill="#2A1C28"/>
<path fill-rule="evenodd" clip-rule="evenodd" d="M441.254 172.468L422.761 170.009C422.925 169.9 423.472 163.068 427.247 161.32C429.491 160.281 438.081 166.129 441.254 172.468Z" fill="#2A1C28"/>
<path fill-rule="evenodd" clip-rule="evenodd" d="M411.325 156.291C434.251 148.421 433.594 130.933 433.594 130.933L414.554 135.086L411.325 156.291Z" fill="#2A1C28"/>
<path fill-rule="evenodd" clip-rule="evenodd" d="M410.395 141.316C411.927 142.792 413.842 143.776 415.921 144.213C418 144.65 420.134 144.595 422.159 143.94C427.849 142.081 435.838 137.6 440.051 126.506C448.203 129.02 454.112 116.723 449.188 113.389C446.124 111.367 441.966 113.553 439.832 115.848C439.722 115.958 439.504 116.231 439.449 116.34C439.504 109.673 447.054 102.623 443.224 98.8516C422.98 78.9582 408.918 94.1515 405.908 97.0481C404.759 101.366 404.376 105.956 403.227 112.733C400.765 126.833 405.416 136.671 410.395 141.316ZM439.777 115.848C439.832 115.794 439.832 115.794 439.777 115.848V115.848Z" fill="#E99670"/>
<path d="M413.842 127.817C413.842 127.817 419.478 128.692 423.144 124.812" stroke="black" stroke-width="1.09299" stroke-miterlimit="10" stroke-linecap="round" stroke-linejoin="round"/>
<path d="M412.639 103.661C409.575 102.678 405.362 103.825 404.486 104.973" stroke="black" stroke-width="1.09299" stroke-miterlimit="10" stroke-linecap="round" stroke-linejoin="round"/>
<path d="M431.242 105.41C429.163 103.88 424.949 102.349 420.299 103.661" stroke="black" stroke-width="1.09299" stroke-miterlimit="10" stroke-linecap="round" stroke-linejoin="round"/>
<path d="M414.663 109.509C414.663 109.509 414.718 112.351 412.255 117.05C410.012 121.313 412.748 123.444 417.618 122.078" stroke="black" stroke-width="1.09299" stroke-miterlimit="10" stroke-linecap="round" stroke-linejoin="round"/>
<path fill-rule="evenodd" clip-rule="evenodd" d="M425.497 109.126C424.676 109.072 423.91 110.219 423.855 111.64C423.8 113.061 424.457 114.209 425.278 114.263C426.098 114.318 426.864 113.17 426.919 111.75C426.974 110.329 426.317 109.181 425.497 109.126Z" fill="black"/>
<path fill-rule="evenodd" clip-rule="evenodd" d="M408.973 108.416C408.152 108.361 407.386 109.509 407.331 110.93C407.276 112.351 407.933 113.498 408.754 113.553C409.574 113.608 410.34 112.46 410.395 111.039C410.45 109.618 409.793 108.471 408.973 108.416Z" fill="black"/>
<path fill-rule="evenodd" clip-rule="evenodd" d="M401.969 97.595C402.899 112.242 405.142 100.054 405.142 100.054C407.769 101.967 418.438 98.7427 427.083 94.4252C435.673 90.1077 441.036 89.3972 440.215 100.492C439.668 107.979 452.909 86.3367 444.92 86.7193C447.328 71.3074 428.177 80.2703 428.177 80.2703C428.177 80.2703 423.253 73.1109 415.757 73.0016C408.754 72.8923 403.282 78.5214 404.212 85.189C399.014 85.0797 394.965 86.1727 401.969 97.595Z" fill="#951800"/>
<path fill-rule="evenodd" clip-rule="evenodd" d="M406.565 100.218C409.52 101.311 416.304 99.6718 426.974 95.245C435.892 91.5833 439.504 94.8624 439.066 105.957C438.956 108.525 438.519 114.756 438.245 118.308C439.449 115.74 442.294 112.898 447.218 112.515C445.139 105.629 456.848 86.1727 444.866 86.7192C445.194 84.6425 445.249 83.4401 445.03 81.7459C444.647 80.5435 441.09 74.2585 430.859 87.0471C423.581 96.174 412.967 101.093 406.565 100.218ZM401.969 97.595C401.695 105.028 403.501 110.821 403.501 110.821L405.744 100.218C403.501 99.1253 402.461 98.1962 401.969 97.595Z" fill="#5F1001"/>
<path fill-rule="evenodd" clip-rule="evenodd" d="M366.24 231.165C366.24 219.524 356.774 210.124 345.12 210.124C333.466 210.124 324 219.578 324 231.165C324 241.767 331.824 250.511 342.001 251.987L352.233 254.228L352.397 250.894C360.55 247.943 366.24 240.237 366.24 231.165Z" fill="#ED5C18"/>
<path fill-rule="evenodd" clip-rule="evenodd" d="M356.282 220.016C365.857 220.016 373.681 227.777 373.681 237.395C373.681 247.014 365.912 254.775 356.282 254.775C346.707 254.775 338.882 247.014 338.882 237.395C338.882 227.777 346.707 220.016 356.282 220.016Z" fill="#ED5C18"/>
<path fill-rule="evenodd" clip-rule="evenodd" d="M360.987 223.951C369.851 223.951 377.019 231.111 377.019 239.964C377.019 248.818 369.851 255.977 360.987 255.977C352.123 255.977 344.956 248.818 344.956 239.964C344.956 231.111 352.123 223.951 360.987 223.951Z" fill="#2A1C28"/>
<path fill-rule="evenodd" clip-rule="evenodd" d="M346.324 240.019C346.324 247.998 352.78 254.447 360.769 254.447C368.319 254.447 374.447 248.709 375.159 241.385L375.87 234.718C375.979 234.062 376.089 233.406 376.089 232.75C376.089 227.176 371.547 222.64 365.966 222.64C364.051 222.64 362.246 223.186 360.769 224.115L354.148 227.121L354.257 227.176C349.552 229.58 346.324 234.39 346.324 240.019Z" fill="#D3D8DC"/>
<path fill-rule="evenodd" clip-rule="evenodd" d="M365.966 222.64C371.547 222.64 376.089 227.176 376.089 232.75C376.089 233.406 376.034 234.062 375.87 234.718L375.159 241.385C374.502 248.709 368.319 254.447 360.768 254.447C360.55 254.447 360.276 254.447 360.057 254.393C354.804 247.014 354.312 232.805 358.197 225.263L360.714 224.115C362.246 223.186 364.051 222.64 365.966 222.64Z" fill="#2A1C28"/>
<path fill-rule="evenodd" clip-rule="evenodd" d="M359.182 189.739H403.72C405.69 189.739 407.878 191.324 408.644 193.291L430.476 250.567C431.242 252.534 430.257 254.119 428.287 254.119H383.749C381.779 254.119 379.591 252.534 378.825 250.567L356.939 193.237C356.227 191.324 357.212 189.739 359.182 189.739Z" fill="#2A1C28"/>
<path fill-rule="evenodd" clip-rule="evenodd" d="M380.575 193.455C381.506 193.455 382.764 194.657 383.311 196.187C383.858 197.717 383.585 198.92 382.655 198.92C381.724 198.92 380.466 197.717 379.919 196.187C379.317 194.712 379.59 193.455 380.575 193.455Z" fill="#555EC2"/>
<path fill-rule="evenodd" clip-rule="evenodd" d="M362.793 239.581C366.24 248.708 372.915 247.888 376.089 244.992C374.557 240.893 371.766 235.646 376.8 232.75C369.687 236.466 366.076 217.064 359.838 217.392C355.461 217.666 357.267 225.044 362.793 239.581Z" fill="#E99670"/>
<path d="M379.59 203.511L364.653 211.982L363.504 212.692L362.902 213.02L362.629 213.184L362.246 213.403C361.206 214.058 360.878 214.496 360.002 215.425C354.64 219.851 359.455 230.289 365.857 219.359L366.021 219.195L366.295 218.977L366.842 218.594L367.936 217.775L382.272 208.32C383.585 207.336 383.968 205.533 383.147 204.221C382.436 203.019 380.849 202.746 379.59 203.511Z" fill="#E99670"/>
<path d="M385.719 211.49L369.632 217.338L368.374 217.83L367.717 218.048L367.389 218.157L367.006 218.321C365.857 218.813 364.763 218.868 363.778 219.633C359.346 222.912 366.459 225.972 366.459 225.972L371.712 223.24L387.688 216.682C389.166 215.917 389.822 214.168 389.22 212.802C388.564 211.49 387.087 210.944 385.719 211.49Z" fill="#E99670"/>
<path d="M385.719 217.775L369.632 223.623L368.374 224.115C368.374 224.115 365.036 225.098 364.325 226.683C364.325 232.476 370.672 230.563 370.672 230.563L371.876 229.962L387.579 223.022C389.056 222.257 389.713 220.508 389.111 219.142C388.564 217.775 387.087 217.229 385.719 217.775Z" fill="#E99670"/>
<path d="M383.202 225.044L367.389 231.328L368.155 237.832L369.359 237.231L385.062 230.29C386.539 229.525 387.196 227.776 386.594 226.41C386.101 225.098 384.569 224.552 383.202 225.044Z" fill="#E99670"/>
<path d="M385.007 230.29C386.485 229.525 387.141 227.776 386.539 226.41C385.992 225.098 384.46 224.552 383.092 225.098L367.772 230.946L365.693 232.312" stroke="#2A1C28" stroke-width="1.09299" stroke-miterlimit="10" stroke-linecap="round" stroke-linejoin="round"/>
<path d="M387.579 216.682C389.056 215.917 389.713 214.168 389.111 212.802C388.564 211.49 387.032 210.944 385.664 211.49L369.578 217.338L366.897 218.923C366.897 218.923 363.559 219.906 362.848 221.491" stroke="#2A1C28" stroke-width="1.09299" stroke-miterlimit="10" stroke-linecap="round" stroke-linejoin="round"/>
<path d="M387.579 222.967C389.056 222.201 389.713 220.453 389.111 219.086C388.564 217.775 387.032 217.228 385.664 217.775L369.577 223.622L369.085 224.114C369.085 224.114 365.091 225.207 364.38 226.792" stroke="#2A1C28" stroke-width="1.09299" stroke-miterlimit="10" stroke-linecap="round" stroke-linejoin="round"/>
<path fill-rule="evenodd" clip-rule="evenodd" d="M289.203 347.76L247.86 348.198L234.986 291.089L291.857 290.3L292.457 344.492C292.478 346.274 291.014 347.739 289.203 347.76Z" fill="#AF8762"/>
<g opacity="0.4">
<path d="M269.09 290.645L270.75 290.592L272.158 348.37L270.499 348.424L269.09 290.645Z" fill="#CE986F"/>
</g>
<path fill-rule="evenodd" clip-rule="evenodd" d="M247.86 348.198L221.513 347.791C219.749 347.767 218.341 346.362 218.333 344.63L218.069 294.651C218.06 292.856 219.548 291.389 221.376 291.398L247.672 291.523L247.86 348.198Z" fill="#EDCBA6"/>
<path fill-rule="evenodd" clip-rule="evenodd" d="M295.278 290.862L242.927 291.591L255.928 234.048L294.963 233.41C296.768 233.381 298.242 234.798 298.25 236.569L298.52 287.606C298.534 289.38 297.078 290.839 295.278 290.862Z" fill="#AF8762"/>
<path fill-rule="evenodd" clip-rule="evenodd" d="M256.819 291.371L224.277 291.826L224.014 237.867C224.005 236.107 225.438 234.658 227.229 234.618L256.182 233.947L256.819 291.371Z" fill="#EDCBA6"/>
<path fill-rule="evenodd" clip-rule="evenodd" d="M239.135 304.475L226.748 302.651L227.57 297.613L239.824 299.394L239.135 304.475Z" fill="#F9E7D7"/>
<path d="M231.93 246.97L247.594 246.926L248.299 279.39L233.424 279.429L231.93 246.97Z" fill="#F9E7D7"/>
<path d="M267.629 247.512L282.626 247.413L282.621 279L267.624 281.61L267.629 247.512Z" fill="#F9E7D7"/>
<g filter="url(#filter0_d_1422_655)">
<rect x="16" y="22" width="351" height="115" rx="10" fill="white"/>
</g>
<path d="M33.5781 67V51H36.4766V57.7734H43.8906V51H46.7969V67H43.8906V60.2031H36.4766V67H33.5781ZM55.1367 67.2344C53.9336 67.2344 52.8945 66.9844 52.0195 66.4844C51.1497 65.9792 50.4805 65.2656 50.0117 64.3437C49.543 63.4167 49.3086 62.3255 49.3086 61.0703C49.3086 59.8359 49.543 58.7526 50.0117 57.8203C50.4857 56.8828 51.1471 56.1536 51.9961 55.6328C52.8451 55.1068 53.8424 54.8438 54.9883 54.8438C55.7279 54.8438 56.4258 54.9635 57.082 55.2031C57.7435 55.4375 58.3268 55.8021 58.832 56.2969C59.3424 56.7917 59.7435 57.4219 60.0352 58.1875C60.3268 58.9479 60.4727 59.8542 60.4727 60.9062V61.7734H50.6367V59.8672H57.7617C57.7565 59.3255 57.6393 58.8437 57.4102 58.4219C57.181 57.9948 56.8607 57.6589 56.4492 57.4141C56.043 57.1693 55.569 57.0469 55.0273 57.0469C54.4492 57.0469 53.9414 57.1875 53.5039 57.4687C53.0664 57.7448 52.7253 58.1094 52.4805 58.5625C52.2409 59.0104 52.1185 59.5026 52.1133 60.0391V61.7031C52.1133 62.401 52.2409 63 52.4961 63.5C52.7513 63.9948 53.1081 64.375 53.5664 64.6406C54.0247 64.901 54.5612 65.0312 55.1758 65.0312C55.5872 65.0312 55.9596 64.974 56.293 64.8594C56.6263 64.7396 56.9154 64.5651 57.1602 64.3359C57.4049 64.1068 57.5898 63.8229 57.7148 63.4844L60.3555 63.7812C60.1888 64.4792 59.8711 65.0885 59.4023 65.6094C58.9388 66.125 58.3451 66.526 57.6211 66.8125C56.8971 67.0937 56.069 67.2344 55.1367 67.2344ZM65.6934 51V67H62.8652V51H65.6934ZM71.4297 51V67H68.6016V51H71.4297ZM79.5723 67.2344C78.4004 67.2344 77.3848 66.9766 76.5254 66.4609C75.666 65.9453 74.9993 65.224 74.5254 64.2969C74.0566 63.3698 73.8223 62.2865 73.8223 61.0469C73.8223 59.8073 74.0566 58.7214 74.5254 57.7891C74.9993 56.8568 75.666 56.1328 76.5254 55.6172C77.3848 55.1016 78.4004 54.8438 79.5723 54.8438C80.7441 54.8438 81.7598 55.1016 82.6191 55.6172C83.4785 56.1328 84.1426 56.8568 84.6113 57.7891C85.0853 58.7214 85.3223 59.8073 85.3223 61.0469C85.3223 62.2865 85.0853 63.3698 84.6113 64.2969C84.1426 65.224 83.4785 65.9453 82.6191 66.4609C81.7598 66.9766 80.7441 67.2344 79.5723 67.2344ZM79.5879 64.9687C80.2233 64.9687 80.7546 64.7943 81.1816 64.4453C81.6087 64.0911 81.9264 63.6172 82.1348 63.0234C82.3483 62.4297 82.4551 61.7682 82.4551 61.0391C82.4551 60.3047 82.3483 59.6406 82.1348 59.0469C81.9264 58.4479 81.6087 57.9714 81.1816 57.6172C80.7546 57.263 80.2233 57.0859 79.5879 57.0859C78.9368 57.0859 78.3952 57.263 77.9629 57.6172C77.5358 57.9714 77.2155 58.4479 77.002 59.0469C76.7936 59.6406 76.6895 60.3047 76.6895 61.0391C76.6895 61.7682 76.7936 62.4297 77.002 63.0234C77.2155 63.6172 77.5358 64.0911 77.9629 64.4453C78.3952 64.7943 78.9368 64.9687 79.5879 64.9687ZM96.6406 51L96.3828 62.2969H93.8672L93.6172 51H96.6406ZM95.125 67.1719C94.651 67.1719 94.2448 67.0052 93.9063 66.6719C93.5729 66.3385 93.4063 65.9323 93.4063 65.4531C93.4063 64.9844 93.5729 64.5833 93.9063 64.25C94.2448 63.9167 94.651 63.75 95.125 63.75C95.5885 63.75 95.9896 63.9167 96.3281 64.25C96.6719 64.5833 96.8438 64.9844 96.8438 65.4531C96.8438 65.7708 96.763 66.0599 96.6016 66.3203C96.4453 66.5807 96.237 66.7891 95.9766 66.9453C95.7214 67.0964 95.4375 67.1719 95.125 67.1719Z" fill="#33475B"/>
<path d="M32.3807 85.3636H34.375L37.4148 90.6534H37.5398L40.5795 85.3636H42.5739L38.3523 92.4318V97H36.6023V92.4318L32.3807 85.3636ZM46.3338 97.1761C45.5156 97.1761 44.8016 96.9886 44.1918 96.6136C43.5819 96.2386 43.1084 95.714 42.7713 95.0398C42.4342 94.3655 42.2656 93.5777 42.2656 92.6761C42.2656 91.7708 42.4342 90.9792 42.7713 90.3011C43.1084 89.6231 43.5819 89.0966 44.1918 88.7216C44.8016 88.3466 45.5156 88.1591 46.3338 88.1591C47.152 88.1591 47.866 88.3466 48.4759 88.7216C49.0857 89.0966 49.5592 89.6231 49.8963 90.3011C50.2334 90.9792 50.402 91.7708 50.402 92.6761C50.402 93.5777 50.2334 94.3655 49.8963 95.0398C49.5592 95.714 49.0857 96.2386 48.4759 96.6136C47.866 96.9886 47.152 97.1761 46.3338 97.1761ZM46.3395 95.75C46.8698 95.75 47.3092 95.6098 47.6577 95.3295C48.0062 95.0492 48.2637 94.6761 48.4304 94.2102C48.6009 93.7443 48.6861 93.2311 48.6861 92.6705C48.6861 92.1136 48.6009 91.6023 48.4304 91.1364C48.2637 90.6667 48.0062 90.2898 47.6577 90.0057C47.3092 89.7216 46.8698 89.5795 46.3395 89.5795C45.8054 89.5795 45.3622 89.7216 45.0099 90.0057C44.6615 90.2898 44.402 90.6667 44.2315 91.1364C44.0649 91.6023 43.9815 92.1136 43.9815 92.6705C43.9815 93.2311 44.0649 93.7443 44.2315 94.2102C44.402 94.6761 44.6615 95.0492 45.0099 95.3295C45.3622 95.6098 45.8054 95.75 46.3395 95.75ZM57.8267 93.3807V88.2727H59.5312V97H57.8608V95.4886H57.7699C57.5691 95.9545 57.2472 96.3428 56.804 96.6534C56.3646 96.9602 55.8172 97.1136 55.1619 97.1136C54.6013 97.1136 54.1051 96.9905 53.6733 96.7443C53.2453 96.4943 52.9081 96.125 52.6619 95.6364C52.4195 95.1477 52.2983 94.5436 52.2983 93.8239V88.2727H53.9972V93.6193C53.9972 94.214 54.1619 94.6875 54.4915 95.0398C54.821 95.392 55.2491 95.5682 55.7756 95.5682C56.0938 95.5682 56.41 95.4886 56.7244 95.3295C57.0426 95.1705 57.3059 94.9299 57.5142 94.608C57.7263 94.286 57.8305 93.8769 57.8267 93.3807ZM61.8139 97V88.2727H63.456V89.6591H63.5469C63.706 89.1894 63.9863 88.8201 64.3878 88.5511C64.7931 88.2784 65.2514 88.142 65.7628 88.142C65.8688 88.142 65.9938 88.1458 66.1378 88.1534C66.2855 88.161 66.401 88.1705 66.4844 88.1818V89.8068C66.4162 89.7879 66.295 89.767 66.1207 89.7443C65.9465 89.7178 65.7723 89.7045 65.598 89.7045C65.1965 89.7045 64.8385 89.7898 64.5241 89.9602C64.2135 90.1269 63.9673 90.3598 63.7855 90.6591C63.6037 90.9545 63.5128 91.2917 63.5128 91.6705V97H61.8139ZM72.1889 100.273V88.2727H73.848V89.6875H73.9901C74.0885 89.5057 74.2306 89.2955 74.4162 89.0568C74.6018 88.8182 74.8594 88.6098 75.1889 88.4318C75.5185 88.25 75.9541 88.1591 76.4957 88.1591C77.2003 88.1591 77.8291 88.3371 78.3821 88.6932C78.9351 89.0492 79.3688 89.5625 79.6832 90.233C80.0014 90.9034 80.1605 91.7102 80.1605 92.6534C80.1605 93.5966 80.0033 94.4053 79.6889 95.0795C79.3745 95.75 78.9427 96.267 78.3935 96.6307C77.8442 96.9905 77.2173 97.1705 76.5128 97.1705C75.9825 97.1705 75.5488 97.0814 75.2116 96.9034C74.8783 96.7254 74.617 96.517 74.4276 96.2784C74.2382 96.0398 74.0923 95.8277 73.9901 95.642H73.8878V100.273H72.1889ZM73.8537 92.6364C73.8537 93.25 73.9427 93.7879 74.1207 94.25C74.2988 94.7121 74.5563 95.0739 74.8935 95.3352C75.2306 95.5928 75.6435 95.7216 76.1321 95.7216C76.6397 95.7216 77.0639 95.5871 77.4048 95.3182C77.7457 95.0455 78.0033 94.6761 78.1776 94.2102C78.3556 93.7443 78.4446 93.2197 78.4446 92.6364C78.4446 92.0606 78.3575 91.5436 78.1832 91.0852C78.0128 90.6269 77.7552 90.2652 77.4105 90C77.0696 89.7348 76.6435 89.6023 76.1321 89.6023C75.6397 89.6023 75.223 89.7292 74.8821 89.983C74.545 90.2367 74.2893 90.5909 74.1151 91.0455C73.9408 91.5 73.8537 92.0303 73.8537 92.6364ZM84.6037 97.1932C84.0507 97.1932 83.5507 97.0909 83.1037 96.8864C82.6567 96.678 82.3026 96.3769 82.0412 95.983C81.7836 95.589 81.6548 95.1061 81.6548 94.5341C81.6548 94.0417 81.7495 93.6364 81.9389 93.3182C82.1283 93 82.384 92.7481 82.706 92.5625C83.0279 92.3769 83.3878 92.2367 83.7855 92.142C84.1832 92.0473 84.5885 91.9754 85.0014 91.9261C85.5241 91.8655 85.9484 91.8163 86.2741 91.7784C86.5999 91.7367 86.8366 91.6705 86.9844 91.5795C87.1321 91.4886 87.206 91.3409 87.206 91.1364V91.0966C87.206 90.6004 87.0658 90.2159 86.7855 89.9432C86.509 89.6705 86.0961 89.5341 85.5469 89.5341C84.9749 89.5341 84.5241 89.661 84.1946 89.9148C83.8688 90.1648 83.6435 90.4432 83.5185 90.75L81.9219 90.3864C82.1113 89.8561 82.3878 89.428 82.7514 89.1023C83.1188 88.7727 83.5412 88.5341 84.0185 88.3864C84.4957 88.2348 84.9976 88.1591 85.5241 88.1591C85.8726 88.1591 86.242 88.2008 86.6321 88.2841C87.026 88.3636 87.3935 88.5114 87.7344 88.7273C88.0791 88.9432 88.3613 89.2519 88.581 89.6534C88.8007 90.0511 88.9105 90.5682 88.9105 91.2045V97H87.2514V95.8068H87.1832C87.0734 96.0265 86.9086 96.2424 86.6889 96.4545C86.4692 96.6667 86.187 96.8428 85.8423 96.983C85.4976 97.1231 85.0848 97.1932 84.6037 97.1932ZM84.973 95.8295C85.4427 95.8295 85.8442 95.7367 86.1776 95.5511C86.5147 95.3655 86.7704 95.1231 86.9446 94.8239C87.1226 94.5208 87.2116 94.197 87.2116 93.8523V92.7273C87.151 92.7879 87.0336 92.8447 86.8594 92.8977C86.6889 92.947 86.4938 92.9905 86.2741 93.0284C86.0545 93.0625 85.8404 93.0947 85.6321 93.125C85.4238 93.1515 85.2495 93.1742 85.1094 93.1932C84.7798 93.2348 84.4787 93.3049 84.206 93.4034C83.937 93.5019 83.7211 93.6439 83.5582 93.8295C83.3991 94.0114 83.3196 94.2538 83.3196 94.5568C83.3196 94.9773 83.4749 95.2955 83.7855 95.5114C84.0961 95.7235 84.492 95.8295 84.973 95.8295ZM94.8494 97.1761C94.0047 97.1761 93.2775 96.9848 92.6676 96.6023C92.0616 96.2159 91.5956 95.6837 91.2699 95.0057C90.9441 94.3277 90.7812 93.5511 90.7812 92.6761C90.7812 91.7898 90.9479 91.0076 91.2812 90.3295C91.6146 89.6477 92.0843 89.1155 92.6903 88.733C93.2964 88.3504 94.0104 88.1591 94.8324 88.1591C95.4953 88.1591 96.0862 88.2822 96.6051 88.5284C97.1241 88.7708 97.5426 89.1117 97.8608 89.5511C98.1828 89.9905 98.3741 90.5038 98.4347 91.0909H96.7812C96.6903 90.6818 96.482 90.3295 96.1562 90.0341C95.8343 89.7386 95.4025 89.5909 94.8608 89.5909C94.3873 89.5909 93.9725 89.7159 93.6165 89.9659C93.2642 90.2121 92.9896 90.5644 92.7926 91.0227C92.5956 91.4773 92.4972 92.0152 92.4972 92.6364C92.4972 93.2727 92.5938 93.822 92.7869 94.2841C92.9801 94.7462 93.2528 95.1042 93.6051 95.358C93.9612 95.6117 94.3797 95.7386 94.8608 95.7386C95.1828 95.7386 95.4744 95.6799 95.7358 95.5625C96.0009 95.4413 96.2225 95.2689 96.4006 95.0455C96.5824 94.822 96.7093 94.553 96.7812 94.2386H98.4347C98.3741 94.803 98.1903 95.3068 97.8835 95.75C97.5767 96.1932 97.1657 96.5417 96.6506 96.7955C96.1392 97.0492 95.5388 97.1761 94.8494 97.1761ZM101.814 94.0398L101.803 91.9659H102.098L105.575 88.2727H107.609L103.643 92.4773H103.376L101.814 94.0398ZM100.251 97V85.3636H101.95V97H100.251ZM105.763 97L102.638 92.8523L103.808 91.6648L107.848 97H105.763ZM111.697 97.1932C111.144 97.1932 110.644 97.0909 110.197 96.8864C109.75 96.678 109.396 96.3769 109.135 95.983C108.877 95.589 108.749 95.1061 108.749 94.5341C108.749 94.0417 108.843 93.6364 109.033 93.3182C109.222 93 109.478 92.7481 109.8 92.5625C110.122 92.3769 110.482 92.2367 110.879 92.142C111.277 92.0473 111.682 91.9754 112.095 91.9261C112.618 91.8655 113.042 91.8163 113.368 91.7784C113.694 91.7367 113.93 91.6705 114.078 91.5795C114.226 91.4886 114.3 91.3409 114.3 91.1364V91.0966C114.3 90.6004 114.16 90.2159 113.879 89.9432C113.603 89.6705 113.19 89.5341 112.641 89.5341C112.069 89.5341 111.618 89.661 111.288 89.9148C110.963 90.1648 110.737 90.4432 110.612 90.75L109.016 90.3864C109.205 89.8561 109.482 89.428 109.845 89.1023C110.213 88.7727 110.635 88.5341 111.112 88.3864C111.589 88.2348 112.091 88.1591 112.618 88.1591C112.966 88.1591 113.336 88.2008 113.726 88.2841C114.12 88.3636 114.487 88.5114 114.828 88.7273C115.173 88.9432 115.455 89.2519 115.675 89.6534C115.894 90.0511 116.004 90.5682 116.004 91.2045V97H114.345V95.8068H114.277C114.167 96.0265 114.002 96.2424 113.783 96.4545C113.563 96.6667 113.281 96.8428 112.936 96.983C112.591 97.1231 112.179 97.1932 111.697 97.1932ZM112.067 95.8295C112.536 95.8295 112.938 95.7367 113.271 95.5511C113.608 95.3655 113.864 95.1231 114.038 94.8239C114.216 94.5208 114.305 94.197 114.305 93.8523V92.7273C114.245 92.7879 114.127 92.8447 113.953 92.8977C113.783 92.947 113.588 92.9905 113.368 93.0284C113.148 93.0625 112.934 93.0947 112.726 93.125C112.518 93.1515 112.343 93.1742 112.203 93.1932C111.874 93.2348 111.572 93.3049 111.3 93.4034C111.031 93.5019 110.815 93.6439 110.652 93.8295C110.493 94.0114 110.413 94.2538 110.413 94.5568C110.413 94.9773 110.569 95.2955 110.879 95.5114C111.19 95.7235 111.586 95.8295 112.067 95.8295ZM121.926 100.455C121.233 100.455 120.636 100.364 120.136 100.182C119.64 100 119.235 99.7595 118.92 99.4602C118.606 99.161 118.371 98.8333 118.216 98.4773L119.676 97.875C119.778 98.0417 119.915 98.2178 120.085 98.4034C120.259 98.5928 120.494 98.7538 120.79 98.8864C121.089 99.0189 121.473 99.0852 121.943 99.0852C122.587 99.0852 123.119 98.928 123.54 98.6136C123.96 98.303 124.17 97.8068 124.17 97.125V95.4091H124.062C123.96 95.5947 123.813 95.8011 123.619 96.0284C123.43 96.2557 123.169 96.4527 122.835 96.6193C122.502 96.786 122.068 96.8693 121.534 96.8693C120.845 96.8693 120.223 96.7083 119.67 96.3864C119.121 96.0606 118.686 95.5814 118.364 94.9489C118.045 94.3125 117.886 93.5303 117.886 92.6023C117.886 91.6742 118.044 90.8788 118.358 90.2159C118.676 89.553 119.112 89.0455 119.665 88.6932C120.218 88.3371 120.845 88.1591 121.545 88.1591C122.087 88.1591 122.525 88.25 122.858 88.4318C123.191 88.6098 123.451 88.8182 123.636 89.0568C123.826 89.2955 123.972 89.5057 124.074 89.6875H124.199V88.2727H125.864V97.1932C125.864 97.9432 125.689 98.5587 125.341 99.0398C124.992 99.5208 124.521 99.8769 123.926 100.108C123.335 100.339 122.669 100.455 121.926 100.455ZM121.909 95.4602C122.398 95.4602 122.811 95.3466 123.148 95.1193C123.489 94.8883 123.746 94.5587 123.92 94.1307C124.098 93.6989 124.188 93.1818 124.188 92.5795C124.188 91.9924 124.1 91.4754 123.926 91.0284C123.752 90.5814 123.496 90.233 123.159 89.983C122.822 89.7292 122.405 89.6023 121.909 89.6023C121.398 89.6023 120.972 89.7348 120.631 90C120.29 90.2614 120.032 90.6174 119.858 91.0682C119.688 91.5189 119.602 92.0227 119.602 92.5795C119.602 93.1515 119.689 93.6534 119.864 94.0852C120.038 94.517 120.295 94.8542 120.636 95.0966C120.981 95.339 121.405 95.4602 121.909 95.4602ZM131.903 97.1761C131.044 97.1761 130.303 96.9924 129.682 96.625C129.064 96.2538 128.587 95.733 128.25 95.0625C127.917 94.3883 127.75 93.5985 127.75 92.6932C127.75 91.7992 127.917 91.0114 128.25 90.3295C128.587 89.6477 129.057 89.1155 129.659 88.733C130.265 88.3504 130.973 88.1591 131.784 88.1591C132.277 88.1591 132.754 88.2405 133.216 88.4034C133.678 88.5663 134.093 88.822 134.46 89.1705C134.828 89.5189 135.117 89.9716 135.33 90.5284C135.542 91.0814 135.648 91.7538 135.648 92.5455V93.1477H128.71V91.875H133.983C133.983 91.428 133.892 91.0322 133.71 90.6875C133.528 90.339 133.273 90.0644 132.943 89.8636C132.617 89.6629 132.235 89.5625 131.795 89.5625C131.318 89.5625 130.902 89.6799 130.545 89.9148C130.193 90.1458 129.92 90.4489 129.727 90.8239C129.538 91.1951 129.443 91.5985 129.443 92.0341V93.0284C129.443 93.6117 129.545 94.108 129.75 94.517C129.958 94.9261 130.248 95.2386 130.619 95.4545C130.991 95.6667 131.424 95.7727 131.92 95.7727C132.242 95.7727 132.536 95.7273 132.801 95.6364C133.066 95.5417 133.295 95.4015 133.489 95.2159C133.682 95.0303 133.83 94.8011 133.932 94.5284L135.54 94.8182C135.411 95.2917 135.18 95.7064 134.847 96.0625C134.517 96.4148 134.102 96.6894 133.602 96.8864C133.106 97.0795 132.54 97.1761 131.903 97.1761ZM143.466 91.8182V97H141.767V85.3636H143.443V89.6932H143.551C143.756 89.2235 144.068 88.8504 144.489 88.5739C144.909 88.2973 145.458 88.1591 146.136 88.1591C146.735 88.1591 147.258 88.2822 147.705 88.5284C148.155 88.7746 148.504 89.142 148.75 89.6307C149 90.1155 149.125 90.7216 149.125 91.4489V97H147.426V91.6534C147.426 91.0133 147.261 90.517 146.932 90.1648C146.602 89.8087 146.144 89.6307 145.557 89.6307C145.155 89.6307 144.795 89.7159 144.477 89.8864C144.163 90.0568 143.915 90.3068 143.733 90.6364C143.555 90.9621 143.466 91.3561 143.466 91.8182ZM153.932 97.1932C153.379 97.1932 152.879 97.0909 152.432 96.8864C151.985 96.678 151.631 96.3769 151.369 95.983C151.112 95.589 150.983 95.1061 150.983 94.5341C150.983 94.0417 151.078 93.6364 151.267 93.3182C151.456 93 151.712 92.7481 152.034 92.5625C152.356 92.3769 152.716 92.2367 153.114 92.142C153.511 92.0473 153.917 91.9754 154.33 91.9261C154.852 91.8655 155.277 91.8163 155.602 91.7784C155.928 91.7367 156.165 91.6705 156.312 91.5795C156.46 91.4886 156.534 91.3409 156.534 91.1364V91.0966C156.534 90.6004 156.394 90.2159 156.114 89.9432C155.837 89.6705 155.424 89.5341 154.875 89.5341C154.303 89.5341 153.852 89.661 153.523 89.9148C153.197 90.1648 152.972 90.4432 152.847 90.75L151.25 90.3864C151.439 89.8561 151.716 89.428 152.08 89.1023C152.447 88.7727 152.869 88.5341 153.347 88.3864C153.824 88.2348 154.326 88.1591 154.852 88.1591C155.201 88.1591 155.57 88.2008 155.96 88.2841C156.354 88.3636 156.722 88.5114 157.062 88.7273C157.407 88.9432 157.689 89.2519 157.909 89.6534C158.129 90.0511 158.239 90.5682 158.239 91.2045V97H156.58V95.8068H156.511C156.402 96.0265 156.237 96.2424 156.017 96.4545C155.797 96.6667 155.515 96.8428 155.17 96.983C154.826 97.1231 154.413 97.1932 153.932 97.1932ZM154.301 95.8295C154.771 95.8295 155.172 95.7367 155.506 95.5511C155.843 95.3655 156.098 95.1231 156.273 94.8239C156.451 94.5208 156.54 94.197 156.54 93.8523V92.7273C156.479 92.7879 156.362 92.8447 156.188 92.8977C156.017 92.947 155.822 92.9905 155.602 93.0284C155.383 93.0625 155.169 93.0947 154.96 93.125C154.752 93.1515 154.578 93.1742 154.438 93.1932C154.108 93.2348 153.807 93.3049 153.534 93.4034C153.265 93.5019 153.049 93.6439 152.886 93.8295C152.727 94.0114 152.648 94.2538 152.648 94.5568C152.648 94.9773 152.803 95.2955 153.114 95.5114C153.424 95.7235 153.82 95.8295 154.301 95.8295ZM167.655 88.2727L164.49 97H162.672L159.501 88.2727H161.325L163.536 94.9886H163.626L165.831 88.2727H167.655ZM172.716 97.1761C171.856 97.1761 171.116 96.9924 170.494 96.625C169.877 96.2538 169.4 95.733 169.062 95.0625C168.729 94.3883 168.562 93.5985 168.562 92.6932C168.562 91.7992 168.729 91.0114 169.062 90.3295C169.4 89.6477 169.869 89.1155 170.472 88.733C171.078 88.3504 171.786 88.1591 172.597 88.1591C173.089 88.1591 173.566 88.2405 174.028 88.4034C174.491 88.5663 174.905 88.822 175.273 89.1705C175.64 89.5189 175.93 89.9716 176.142 90.5284C176.354 91.0814 176.46 91.7538 176.46 92.5455V93.1477H169.523V91.875H174.795C174.795 91.428 174.705 91.0322 174.523 90.6875C174.341 90.339 174.085 90.0644 173.756 89.8636C173.43 89.6629 173.047 89.5625 172.608 89.5625C172.131 89.5625 171.714 89.6799 171.358 89.9148C171.006 90.1458 170.733 90.4489 170.54 90.8239C170.35 91.1951 170.256 91.5985 170.256 92.0341V93.0284C170.256 93.6117 170.358 94.108 170.562 94.517C170.771 94.9261 171.061 95.2386 171.432 95.4545C171.803 95.6667 172.237 95.7727 172.733 95.7727C173.055 95.7727 173.348 95.7273 173.614 95.6364C173.879 95.5417 174.108 95.4015 174.301 95.2159C174.494 95.0303 174.642 94.8011 174.744 94.5284L176.352 94.8182C176.223 95.2917 175.992 95.7064 175.659 96.0625C175.33 96.4148 174.915 96.6894 174.415 96.8864C173.919 97.0795 173.352 97.1761 172.716 97.1761ZM182.716 97V85.3636H184.415V89.6875H184.517C184.616 89.5057 184.758 89.2955 184.943 89.0568C185.129 88.8182 185.386 88.6098 185.716 88.4318C186.045 88.25 186.481 88.1591 187.023 88.1591C187.727 88.1591 188.356 88.3371 188.909 88.6932C189.462 89.0492 189.896 89.5625 190.21 90.233C190.528 90.9034 190.688 91.7102 190.688 92.6534C190.688 93.5966 190.53 94.4053 190.216 95.0795C189.902 95.75 189.47 96.267 188.92 96.6307C188.371 96.9905 187.744 97.1705 187.04 97.1705C186.509 97.1705 186.076 97.0814 185.739 96.9034C185.405 96.7254 185.144 96.517 184.955 96.2784C184.765 96.0398 184.619 95.8277 184.517 95.642H184.375V97H182.716ZM184.381 92.6364C184.381 93.25 184.47 93.7879 184.648 94.25C184.826 94.7121 185.083 95.0739 185.42 95.3352C185.758 95.5928 186.17 95.7216 186.659 95.7216C187.167 95.7216 187.591 95.5871 187.932 95.3182C188.273 95.0455 188.53 94.6761 188.705 94.2102C188.883 93.7443 188.972 93.2197 188.972 92.6364C188.972 92.0606 188.884 91.5436 188.71 91.0852C188.54 90.6269 188.282 90.2652 187.938 90C187.597 89.7348 187.17 89.6023 186.659 89.6023C186.167 89.6023 185.75 89.7292 185.409 89.983C185.072 90.2367 184.816 90.5909 184.642 91.0455C184.468 91.5 184.381 92.0303 184.381 92.6364ZM196.357 97.1761C195.497 97.1761 194.756 96.9924 194.135 96.625C193.518 96.2538 193.04 95.733 192.703 95.0625C192.37 94.3883 192.203 93.5985 192.203 92.6932C192.203 91.7992 192.37 91.0114 192.703 90.3295C193.04 89.6477 193.51 89.1155 194.112 88.733C194.718 88.3504 195.427 88.1591 196.237 88.1591C196.73 88.1591 197.207 88.2405 197.669 88.4034C198.131 88.5663 198.546 88.822 198.913 89.1705C199.281 89.5189 199.571 89.9716 199.783 90.5284C199.995 91.0814 200.101 91.7538 200.101 92.5455V93.1477H193.163V91.875H198.436C198.436 91.428 198.345 91.0322 198.163 90.6875C197.982 90.339 197.726 90.0644 197.396 89.8636C197.071 89.6629 196.688 89.5625 196.249 89.5625C195.771 89.5625 195.355 89.6799 194.999 89.9148C194.646 90.1458 194.374 90.4489 194.18 90.8239C193.991 91.1951 193.896 91.5985 193.896 92.0341V93.0284C193.896 93.6117 193.999 94.108 194.203 94.517C194.411 94.9261 194.701 95.2386 195.072 95.4545C195.444 95.6667 195.877 95.7727 196.374 95.7727C196.696 95.7727 196.989 95.7273 197.254 95.6364C197.519 95.5417 197.749 95.4015 197.942 95.2159C198.135 95.0303 198.283 94.8011 198.385 94.5284L199.993 94.8182C199.864 95.2917 199.633 95.7064 199.3 96.0625C198.97 96.4148 198.555 96.6894 198.055 96.8864C197.559 97.0795 196.993 97.1761 196.357 97.1761ZM205.747 97.1761C204.887 97.1761 204.147 96.9924 203.526 96.625C202.908 96.2538 202.431 95.733 202.094 95.0625C201.76 94.3883 201.594 93.5985 201.594 92.6932C201.594 91.7992 201.76 91.0114 202.094 90.3295C202.431 89.6477 202.901 89.1155 203.503 88.733C204.109 88.3504 204.817 88.1591 205.628 88.1591C206.12 88.1591 206.598 88.2405 207.06 88.4034C207.522 88.5663 207.937 88.822 208.304 89.1705C208.671 89.5189 208.961 89.9716 209.173 90.5284C209.385 91.0814 209.491 91.7538 209.491 92.5455V93.1477H202.554V91.875H207.827C207.827 91.428 207.736 91.0322 207.554 90.6875C207.372 90.339 207.116 90.0644 206.787 89.8636C206.461 89.6629 206.079 89.5625 205.639 89.5625C205.162 89.5625 204.745 89.6799 204.389 89.9148C204.037 90.1458 203.764 90.4489 203.571 90.8239C203.382 91.1951 203.287 91.5985 203.287 92.0341V93.0284C203.287 93.6117 203.389 94.108 203.594 94.517C203.802 94.9261 204.092 95.2386 204.463 95.4545C204.834 95.6667 205.268 95.7727 205.764 95.7727C206.086 95.7727 206.38 95.7273 206.645 95.6364C206.91 95.5417 207.139 95.4015 207.332 95.2159C207.526 95.0303 207.673 94.8011 207.776 94.5284L209.384 94.8182C209.255 95.2917 209.024 95.7064 208.69 96.0625C208.361 96.4148 207.946 96.6894 207.446 96.8864C206.95 97.0795 206.384 97.1761 205.747 97.1761ZM213.075 91.8182V97H211.376V88.2727H213.007V89.6932H213.115C213.316 89.2311 213.63 88.8598 214.058 88.5795C214.49 88.2992 215.034 88.1591 215.689 88.1591C216.284 88.1591 216.804 88.2841 217.251 88.5341C217.698 88.7803 218.045 89.1477 218.291 89.6364C218.537 90.125 218.661 90.7292 218.661 91.4489V97H216.962V91.6534C216.962 91.0208 216.797 90.5265 216.467 90.1705C216.138 89.8106 215.685 89.6307 215.109 89.6307C214.715 89.6307 214.365 89.7159 214.058 89.8864C213.755 90.0568 213.515 90.3068 213.337 90.6364C213.162 90.9621 213.075 91.3561 213.075 91.8182ZM228.44 97.1705C227.736 97.1705 227.107 96.9905 226.554 96.6307C226.005 96.267 225.573 95.75 225.259 95.0795C224.948 94.4053 224.793 93.5966 224.793 92.6534C224.793 91.7102 224.95 90.9034 225.264 90.233C225.582 89.5625 226.018 89.0492 226.571 88.6932C227.124 88.3371 227.751 88.1591 228.452 88.1591C228.993 88.1591 229.429 88.25 229.759 88.4318C230.092 88.6098 230.349 88.8182 230.531 89.0568C230.717 89.2955 230.861 89.5057 230.963 89.6875H231.065V85.3636H232.764V97H231.105V95.642H230.963C230.861 95.8277 230.713 96.0398 230.52 96.2784C230.33 96.517 230.069 96.7254 229.736 96.9034C229.402 97.0814 228.971 97.1705 228.44 97.1705ZM228.815 95.7216C229.304 95.7216 229.717 95.5928 230.054 95.3352C230.395 95.0739 230.652 94.7121 230.827 94.25C231.005 93.7879 231.094 93.25 231.094 92.6364C231.094 92.0303 231.007 91.5 230.832 91.0455C230.658 90.5909 230.402 90.2367 230.065 89.983C229.728 89.7292 229.312 89.6023 228.815 89.6023C228.304 89.6023 227.878 89.7348 227.537 90C227.196 90.2652 226.938 90.6269 226.764 91.0852C226.594 91.5436 226.509 92.0606 226.509 92.6364C226.509 93.2197 226.596 93.7443 226.77 94.2102C226.944 94.6761 227.202 95.0455 227.543 95.3182C227.887 95.5871 228.312 95.7216 228.815 95.7216ZM238.95 97.1761C238.09 97.1761 237.35 96.9924 236.729 96.625C236.111 96.2538 235.634 95.733 235.297 95.0625C234.964 94.3883 234.797 93.5985 234.797 92.6932C234.797 91.7992 234.964 91.0114 235.297 90.3295C235.634 89.6477 236.104 89.1155 236.706 88.733C237.312 88.3504 238.02 88.1591 238.831 88.1591C239.323 88.1591 239.801 88.2405 240.263 88.4034C240.725 88.5663 241.14 88.822 241.507 89.1705C241.875 89.5189 242.164 89.9716 242.376 90.5284C242.589 91.0814 242.695 91.7538 242.695 92.5455V93.1477H235.757V91.875H241.03C241.03 91.428 240.939 91.0322 240.757 90.6875C240.575 90.339 240.32 90.0644 239.99 89.8636C239.664 89.6629 239.282 89.5625 238.842 89.5625C238.365 89.5625 237.948 89.6799 237.592 89.9148C237.24 90.1458 236.967 90.4489 236.774 90.8239C236.585 91.1951 236.49 91.5985 236.49 92.0341V93.0284C236.49 93.6117 236.592 94.108 236.797 94.517C237.005 94.9261 237.295 95.2386 237.666 95.4545C238.037 95.6667 238.471 95.7727 238.967 95.7727C239.289 95.7727 239.583 95.7273 239.848 95.6364C240.113 95.5417 240.342 95.4015 240.536 95.2159C240.729 95.0303 240.876 94.8011 240.979 94.5284L242.587 94.8182C242.458 95.2917 242.227 95.7064 241.893 96.0625C241.564 96.4148 241.149 96.6894 240.649 96.8864C240.153 97.0795 239.587 97.1761 238.95 97.1761ZM246.278 85.3636V97H244.58V85.3636H246.278ZM248.564 97V88.2727H250.263V97H248.564ZM249.422 86.9261C249.126 86.9261 248.873 86.8277 248.661 86.6307C248.452 86.4299 248.348 86.1913 248.348 85.9148C248.348 85.6345 248.452 85.3958 248.661 85.1989C248.873 84.9981 249.126 84.8977 249.422 84.8977C249.717 84.8977 249.969 84.9981 250.178 85.1989C250.39 85.3958 250.496 85.6345 250.496 85.9148C250.496 86.1913 250.39 86.4299 250.178 86.6307C249.969 86.8277 249.717 86.9261 249.422 86.9261ZM260.014 88.2727L256.849 97H255.031L251.861 88.2727H253.685L255.895 94.9886H255.986L258.19 88.2727H260.014ZM265.075 97.1761C264.215 97.1761 263.475 96.9924 262.854 96.625C262.236 96.2538 261.759 95.733 261.422 95.0625C261.089 94.3883 260.922 93.5985 260.922 92.6932C260.922 91.7992 261.089 91.0114 261.422 90.3295C261.759 89.6477 262.229 89.1155 262.831 88.733C263.437 88.3504 264.145 88.1591 264.956 88.1591C265.448 88.1591 265.926 88.2405 266.388 88.4034C266.85 88.5663 267.265 88.822 267.632 89.1705C268 89.5189 268.289 89.9716 268.501 90.5284C268.714 91.0814 268.82 91.7538 268.82 92.5455V93.1477H261.882V91.875H267.155C267.155 91.428 267.064 91.0322 266.882 90.6875C266.7 90.339 266.445 90.0644 266.115 89.8636C265.789 89.6629 265.407 89.5625 264.967 89.5625C264.49 89.5625 264.073 89.6799 263.717 89.9148C263.365 90.1458 263.092 90.4489 262.899 90.8239C262.71 91.1951 262.615 91.5985 262.615 92.0341V93.0284C262.615 93.6117 262.717 94.108 262.922 94.517C263.13 94.9261 263.42 95.2386 263.791 95.4545C264.162 95.6667 264.596 95.7727 265.092 95.7727C265.414 95.7727 265.708 95.7273 265.973 95.6364C266.238 95.5417 266.467 95.4015 266.661 95.2159C266.854 95.0303 267.001 94.8011 267.104 94.5284L268.712 94.8182C268.583 95.2917 268.352 95.7064 268.018 96.0625C267.689 96.4148 267.274 96.6894 266.774 96.8864C266.278 97.0795 265.712 97.1761 265.075 97.1761ZM270.705 97V88.2727H272.347V89.6591H272.438C272.597 89.1894 272.877 88.8201 273.278 88.5511C273.684 88.2784 274.142 88.142 274.653 88.142C274.759 88.142 274.884 88.1458 275.028 88.1534C275.176 88.161 275.292 88.1705 275.375 88.1818V89.8068C275.307 89.7879 275.186 89.767 275.011 89.7443C274.837 89.7178 274.663 89.7045 274.489 89.7045C274.087 89.7045 273.729 89.7898 273.415 89.9602C273.104 90.1269 272.858 90.3598 272.676 90.6591C272.494 90.9545 272.403 91.2917 272.403 91.6705V97H270.705ZM280.294 97.1761C279.434 97.1761 278.694 96.9924 278.072 96.625C277.455 96.2538 276.978 95.733 276.641 95.0625C276.307 94.3883 276.141 93.5985 276.141 92.6932C276.141 91.7992 276.307 91.0114 276.641 90.3295C276.978 89.6477 277.447 89.1155 278.05 88.733C278.656 88.3504 279.364 88.1591 280.175 88.1591C280.667 88.1591 281.144 88.2405 281.607 88.4034C282.069 88.5663 282.483 88.822 282.851 89.1705C283.218 89.5189 283.508 89.9716 283.72 90.5284C283.932 91.0814 284.038 91.7538 284.038 92.5455V93.1477H277.101V91.875H282.374C282.374 91.428 282.283 91.0322 282.101 90.6875C281.919 90.339 281.663 90.0644 281.334 89.8636C281.008 89.6629 280.625 89.5625 280.186 89.5625C279.709 89.5625 279.292 89.6799 278.936 89.9148C278.584 90.1458 278.311 90.4489 278.118 90.8239C277.929 91.1951 277.834 91.5985 277.834 92.0341V93.0284C277.834 93.6117 277.936 94.108 278.141 94.517C278.349 94.9261 278.639 95.2386 279.01 95.4545C279.381 95.6667 279.815 95.7727 280.311 95.7727C280.633 95.7727 280.927 95.7273 281.192 95.6364C281.457 95.5417 281.686 95.4015 281.879 95.2159C282.072 95.0303 282.22 94.8011 282.322 94.5284L283.93 94.8182C283.802 95.2917 283.571 95.7064 283.237 96.0625C282.908 96.4148 282.493 96.6894 281.993 96.8864C281.497 97.0795 280.93 97.1761 280.294 97.1761ZM289.19 97.1705C288.486 97.1705 287.857 96.9905 287.304 96.6307C286.755 96.267 286.323 95.75 286.009 95.0795C285.698 94.4053 285.543 93.5966 285.543 92.6534C285.543 91.7102 285.7 90.9034 286.014 90.233C286.332 89.5625 286.768 89.0492 287.321 88.6932C287.874 88.3371 288.501 88.1591 289.202 88.1591C289.743 88.1591 290.179 88.25 290.509 88.4318C290.842 88.6098 291.099 88.8182 291.281 89.0568C291.467 89.2955 291.611 89.5057 291.713 89.6875H291.815V85.3636H293.514V97H291.855V95.642H291.713C291.611 95.8277 291.463 96.0398 291.27 96.2784C291.08 96.517 290.819 96.7254 290.486 96.9034C290.152 97.0814 289.721 97.1705 289.19 97.1705ZM289.565 95.7216C290.054 95.7216 290.467 95.5928 290.804 95.3352C291.145 95.0739 291.402 94.7121 291.577 94.25C291.755 93.7879 291.844 93.25 291.844 92.6364C291.844 92.0303 291.757 91.5 291.582 91.0455C291.408 90.5909 291.152 90.2367 290.815 89.983C290.478 89.7292 290.062 89.6023 289.565 89.6023C289.054 89.6023 288.628 89.7348 288.287 90C287.946 90.2652 287.688 90.6269 287.514 91.0852C287.344 91.5436 287.259 92.0606 287.259 92.6364C287.259 93.2197 287.346 93.7443 287.52 94.2102C287.694 94.6761 287.952 95.0455 288.293 95.3182C288.637 95.5871 289.062 95.7216 289.565 95.7216ZM297.058 97.108C296.748 97.108 296.481 96.9981 296.257 96.7784C296.034 96.5549 295.922 96.286 295.922 95.9716C295.922 95.661 296.034 95.3958 296.257 95.1761C296.481 94.9527 296.748 94.8409 297.058 94.8409C297.369 94.8409 297.636 94.9527 297.859 95.1761C298.083 95.3958 298.195 95.661 298.195 95.9716C298.195 96.1799 298.142 96.3712 298.036 96.5455C297.933 96.7159 297.797 96.8523 297.626 96.9545C297.456 97.0568 297.267 97.108 297.058 97.108Z" fill="#687888"/>
<path d="M41.94 37.4185H52.0783C51.07 39.1785 49.1817 40.3335 47.0184 40.3335C44.8184 40.3335 42.9483 39.1785 41.94 37.4185Z" fill="#ED5C18"/>
<path d="M64.0867 31.5148C64.0867 32.4315 63.7934 33.2748 63.3351 33.9715C62.5467 35.1265 61.2451 35.8965 59.7417 35.8965H34.2767C33.8184 35.8965 33.3784 35.8232 32.9751 35.6948C32.0034 35.4015 31.1967 34.7965 30.6467 33.9715C30.1884 33.2748 29.8951 32.4315 29.8951 31.5148C29.8951 29.5532 31.1967 27.9032 32.9567 27.3348C33.2317 27.2615 33.5067 27.2065 33.8 27.1699V18.7915C33.8 12.0082 38.97 6.43484 45.5517 5.70151V5.0965C45.5517 4.30817 46.1934 3.6665 46.9817 3.6665C47.77 3.6665 48.4117 4.30817 48.4117 5.0965V5.70151C51.3817 6.03151 54.1501 7.33316 56.2951 9.49649C58.7884 11.9532 60.1634 15.2715 60.1634 18.7915V27.1699C62.3634 27.4082 64.0867 29.2598 64.0867 31.5148Z" fill="#ED5C18"/>
<path d="M326.5 151L316.541 133.75L336.459 133.75L326.5 151Z" fill="white"/>
<defs>
<filter id="filter0_d_1422_655" x="0" y="10" width="383" height="147" filterUnits="userSpaceOnUse" color-interpolation-filters="sRGB">
<feFlood flood-opacity="0" result="BackgroundImageFix"/>
<feColorMatrix in="SourceAlpha" type="matrix" values="0 0 0 0 0 0 0 0 0 0 0 0 0 0 0 0 0 0 127 0" result="hardAlpha"/>
<feOffset dy="4"/>
<feGaussianBlur stdDeviation="8"/>
<feComposite in2="hardAlpha" operator="out"/>
<feColorMatrix type="matrix" values="0 0 0 0 0 0 0 0 0 0 0 0 0 0 0 0 0 0 0.1 0"/>
<feBlend mode="normal" in2="BackgroundImageFix" result="effect1_dropShadow_1422_655"/>
<feBlend mode="normal" in="SourceGraphic" in2="effect1_dropShadow_1422_655" result="shape"/>
</filter>
</defs>
</svg>
