<svg width="20" height="16" viewBox="0 0 20 16" fill="none" xmlns="http://www.w3.org/2000/svg">
<path d="M8.33299 10.4993L12.6569 7.99985L8.33299 5.50047V10.4993ZM17.9639 3.97585C18.0723 4.36743 18.1473 4.8923 18.1973 5.55879C18.2555 6.22529 18.2805 6.80015 18.2805 7.30003L18.3305 7.99985C18.3305 9.8244 18.1973 11.1657 17.9639 12.0239C17.7556 12.7737 17.2725 13.2569 16.5227 13.4652C16.131 13.5735 15.4146 13.6485 14.3148 13.6985C13.2317 13.7567 12.2404 13.7817 11.3239 13.7817L9.99924 13.8317C6.50844 13.8317 4.33397 13.6985 3.47585 13.4652C2.72603 13.2569 2.24283 12.7737 2.03454 12.0239C1.92623 11.6323 1.85125 11.1074 1.80126 10.4409C1.74295 9.77442 1.71796 9.19956 1.71796 8.69968L1.66797 7.99985C1.66797 6.17531 1.80126 4.83397 2.03454 3.97585C2.24283 3.22603 2.72603 2.74283 3.47585 2.53454C3.86743 2.42623 4.58391 2.35125 5.68364 2.30126C6.76671 2.24295 7.75813 2.21796 8.67456 2.21796L9.99924 2.16797C13.49 2.16797 15.6645 2.30126 16.5227 2.53454C17.2725 2.74283 17.7556 3.22603 17.9639 3.97585Z" fill="white"/>
</svg>
