<svg width="20" height="14" viewBox="0 0 20 14" fill="none" xmlns="http://www.w3.org/2000/svg">
<path d="M8.00002 10.0001L13.19 7.00002L8.00002 4V10.0001ZM19.56 2.17C19.6901 2.64001 19.7801 3.27001 19.8401 4.07001C19.91 4.87001 19.94 5.56001 19.94 6.16001L20 7.00002C20 9.19002 19.8401 10.8 19.56 11.8301C19.31 12.7301 18.7301 13.31 17.8301 13.56C17.36 13.6901 16.5 13.7801 15.18 13.8401C13.88 13.91 12.69 13.94 11.59 13.94L10 14C5.81001 14 3.20001 13.8401 2.17 13.56C1.26999 13.31 0.690002 12.7301 0.439997 11.8301C0.309991 11.36 0.219991 10.73 0.159991 9.93004C0.0900003 9.13002 0.0600003 8.44002 0.0600003 7.84002L0 7.00002C0 4.81001 0.159991 3.20001 0.439997 2.17C0.690002 1.26999 1.26999 0.690003 2.17 0.439997C2.64001 0.309991 3.50001 0.219991 4.82001 0.159991C6.12002 0.0900005 7.31002 0.0600005 8.41002 0.0600005L10 0C14.19 0 16.8 0.159991 17.8301 0.439997C18.7301 0.690003 19.31 1.26999 19.56 2.17Z" fill="#ED5C18"/>
</svg>
