<svg width="50" height="50" viewBox="0 0 50 50" fill="none" xmlns="http://www.w3.org/2000/svg">
<circle cx="25" cy="25" r="25" fill="#ED5C18"/>
<path d="M20.2358 12.5202C23.5117 12.7077 24.5973 15.1702 24.9934 16.2865C25.588 17.9627 24.9862 21.2789 24.9862 21.2789L32.0185 21.2814C33.2677 21.2814 34.9737 22.4064 34.9969 24.0414C35.0154 25.3514 34.3875 26.1877 33.78 26.8589C34.823 27.7877 34.9969 28.7539 34.9969 29.7589C34.9969 30.7802 34.4473 31.8339 33.7022 32.5339C33.7398 34.8039 32.5747 36.2939 30.5353 36.9739C29.185 37.4252 27.9527 37.5214 24.992 37.5214C19.3055 37.5214 15.0819 33.2814 14.9987 27.5214C14.9608 24.8952 15.6744 22.5352 17.095 19.9302C19.0153 16.4102 18.7528 14.6127 18.7635 13.7477C18.7714 13.1065 19.373 12.4715 20.2358 12.5202Z" fill="white"/>
</svg>
