<svg width="50" height="50" viewBox="0 0 50 50" fill="none" xmlns="http://www.w3.org/2000/svg">
<path d="M16.8959 24.6876C11.0209 25.1042 11.0417 33.6459 16.8959 34.0626H30.7917C32.4792 34.0834 34.1042 33.4376 35.3542 32.3126C39.4792 28.7084 37.2709 21.4792 31.8542 20.7917C29.9167 9.04174 12.9375 13.5001 16.9584 24.6876" fill="#ED5C18"/>
<path d="M18.75 47.3958C9.85413 47.3958 2.60413 40.1458 2.60413 31.25C2.60413 30.3958 3.31246 29.6875 4.16663 29.6875C5.02079 29.6875 5.72913 30.3958 5.72913 31.25C5.72913 37.4167 10.0208 42.5833 15.7916 43.9375L15.2291 43C14.7916 42.25 15.0208 41.2917 15.7708 40.8542C16.5 40.4167 17.4791 40.6458 17.9166 41.3958L20.1041 45.0417C20.3958 45.5208 20.3958 46.125 20.125 46.6042C19.8333 47.0833 19.3125 47.3958 18.75 47.3958Z" fill="#ED5C18"/>
<path d="M45.8334 20.3126C44.9792 20.3126 44.2709 19.6042 44.2709 18.7501C44.2709 12.5834 39.9792 7.41675 34.2084 6.06258L34.7709 7.00008C35.2084 7.75008 34.9792 8.70842 34.2292 9.14592C33.5 9.58342 32.5209 9.35425 32.0834 8.60425L29.8959 4.95842C29.6042 4.47925 29.6042 3.87508 29.875 3.39591C30.1667 2.91675 30.6875 2.60425 31.25 2.60425C40.1459 2.60425 47.3959 9.85425 47.3959 18.7501C47.3959 19.6042 46.6875 20.3126 45.8334 20.3126Z" fill="#ED5C18"/>
</svg>
