<svg width="50" height="50" viewBox="0 0 50 50" fill="none" xmlns="http://www.w3.org/2000/svg">
<circle cx="25" cy="25" r="25" fill="#ED5C18"/>
<path d="M25.9583 10.3881C25.164 10.3881 24.3691 10.687 23.7694 11.2867L23.7338 11.3237H23.7324C22.5064 12.5508 22.5033 14.5708 23.7267 15.7941L23.852 15.9195C24.3456 16.4131 24.6954 17.0316 24.8646 17.7082L25.9911 22.2128C26.0172 22.3269 26.0614 22.436 26.1221 22.5361C26.2675 23.1629 26.5618 23.7334 27.0079 24.1796C27.5552 24.7268 28.3305 24.9075 29.0174 24.8632C29.7044 24.8188 30.3719 24.5946 31.0525 24.2707C32.4138 23.6229 33.8342 22.5458 35.1171 21.2629C36.4 19.98 37.3218 18.7204 37.7945 17.4818C38.2671 16.2431 38.234 14.8124 37.3046 13.8829C36.816 13.3944 36.1848 13.226 35.5671 13.2036L30.2692 12.3691C29.4645 12.2418 28.722 11.8629 28.1458 11.2867C27.5461 10.687 26.7527 10.3881 25.9583 10.3881ZM25.9569 12.5599C26.1867 12.5599 26.4172 12.6514 26.5992 12.8333C27.5018 13.7359 28.6671 14.3301 29.9274 14.5295L31.1337 14.7203C30.1923 15.2984 29.2715 15.9943 28.4663 16.7996C27.9902 17.2757 27.5881 17.7547 27.2515 18.2323L26.988 17.1784C26.7226 16.1167 26.1723 15.1465 25.3986 14.3728L25.2733 14.2475C24.8852 13.8594 24.8818 13.2693 25.2804 12.8704L25.316 12.8333C25.498 12.6514 25.7271 12.5599 25.9569 12.5599ZM35.3136 15.3826C35.6806 15.3618 35.777 15.4486 35.7579 15.4296C35.9675 15.6391 36.0516 15.9145 35.7508 16.7028C35.45 17.491 34.7076 18.5791 33.5704 19.7163C32.4332 20.8535 31.1428 21.8052 30.1126 22.2954C29.5975 22.5405 29.1486 22.6623 28.8764 22.6799C28.6043 22.6975 28.5768 22.6552 28.5546 22.6329C28.2625 22.3409 28.1003 21.9198 28.2484 21.186C28.3693 20.5865 28.7579 19.7995 29.4874 18.9344C29.8208 19.2312 30.2515 19.3954 30.6979 19.3958C31.023 19.3955 31.342 19.3083 31.622 19.1432C31.902 18.9781 32.1327 18.7411 32.2903 18.4568C32.4479 18.1725 32.5267 17.8513 32.5184 17.5264C32.5101 17.2014 32.415 16.8846 32.2431 16.6088C32.7687 16.2822 33.2939 15.9931 33.7826 15.7913C34.3925 15.5395 34.9466 15.4033 35.3136 15.3826ZM22.66 17.1927C22.4688 17.1958 22.2819 17.2491 22.1177 17.347C21.9535 17.445 21.8179 17.5842 21.7243 17.7509L15.599 26.0381C15.4875 26.1894 15.4168 26.3669 15.3939 26.5535C15.3709 26.7401 15.3965 26.9295 15.468 27.1033L17.9375 33.1005V36.1667H13.9271C13.7821 36.1646 13.6382 36.1914 13.5037 36.2454C13.3693 36.2995 13.2468 36.3797 13.1436 36.4815C13.0404 36.5833 12.9584 36.7045 12.9025 36.8382C12.8466 36.972 12.8177 37.1155 12.8177 37.2604C12.8177 37.4054 12.8466 37.5489 12.9025 37.6826C12.9584 37.8163 13.0404 37.9376 13.1436 38.0393C13.2468 38.1411 13.3693 38.2213 13.5037 38.2754C13.6382 38.3294 13.7821 38.3562 13.9271 38.3542H18.8518C18.9692 38.3735 19.089 38.3735 19.2064 38.3542H24.8646C25.0095 38.3562 25.1534 38.3294 25.2879 38.2754C25.4224 38.2213 25.5448 38.1411 25.648 38.0393C25.7513 37.9376 25.8332 37.8163 25.8892 37.6826C25.9451 37.5489 25.9739 37.4054 25.9739 37.2604C25.9739 37.1155 25.9451 36.972 25.8892 36.8382C25.8332 36.7045 25.7513 36.5833 25.648 36.4815C25.5448 36.3797 25.4224 36.2995 25.2879 36.2454C25.1534 36.1914 25.0095 36.1646 24.8646 36.1667H20.125V33.4109L23.3607 30.8232C23.5826 30.6456 23.7266 30.3885 23.7623 30.1064C23.7979 29.8243 23.7223 29.5395 23.5515 29.3122L21.9337 27.1546L23.4504 25.6379C23.6555 25.4328 23.7708 25.1546 23.7708 24.8646V18.426C23.8008 18.187 23.751 17.9448 23.6292 17.737C23.5073 17.5292 23.3204 17.3674 23.0972 17.2767C23.0887 17.2733 23.0802 17.2699 23.0716 17.2667C23.05 17.2584 23.0281 17.2508 23.0061 17.2439C22.9821 17.2365 22.9579 17.2298 22.9334 17.224C22.9311 17.2235 22.9287 17.223 22.9263 17.2226C22.9249 17.2221 22.9235 17.2216 22.922 17.2211C22.8933 17.2148 22.8643 17.2095 22.8352 17.2055C22.8257 17.2039 22.8162 17.2025 22.8067 17.2012C22.758 17.1951 22.709 17.1922 22.66 17.1927ZM21.5833 21.6218V24.4117L20.0367 25.9583H18.3776L21.5833 21.6218ZM18.2622 28.1458H19.9427L21.1661 29.7765L19.487 31.1195L18.2622 28.1458Z" fill="white"/>
</svg>
