<svg width="488" height="444" viewBox="0 0 488 444" fill="none" xmlns="http://www.w3.org/2000/svg">
<path fill-rule="evenodd" clip-rule="evenodd" d="M334.827 386.297L340.64 425.366H340.731C341.767 426.898 353.573 428.385 367.993 428.791C383.134 429.196 395.391 428.25 395.436 426.628C395.436 426.538 395.391 426.447 395.301 426.357H395.527L400.979 388.415C401.114 388.279 401.204 388.144 401.25 388.009C401.295 386.071 386.424 384.089 368.083 383.593C349.743 383.097 334.827 384.269 334.827 386.207C334.827 386.252 334.827 386.252 334.827 386.297Z" fill="#78313D"/>
<path fill-rule="evenodd" clip-rule="evenodd" d="M368.624 378.816C352.086 378.365 336.81 384.584 336.765 386.341C336.72 388.099 350.104 389.856 366.641 390.307C383.179 390.758 396.563 389.721 396.608 387.964C396.653 386.206 385.162 379.222 368.624 378.816Z" fill="#045F2F"/>
<path fill-rule="evenodd" clip-rule="evenodd" d="M381.422 372.778C381.287 372.282 381.017 371.471 380.746 370.299C379.575 372.282 380.611 373.003 381.197 373.229C381.287 373.093 381.377 372.958 381.422 372.778ZM409 312.8C409 312.8 400.168 311.538 406.207 303.201C428.287 272.739 420.581 259.13 415.444 261.699C414.318 262.24 412.02 264.763 412.02 264.763C381.918 300.633 377.952 358.673 380.746 370.39C381.377 369.263 388.497 377.374 390.93 375.346C459.065 328.301 409 312.8 409 312.8Z" fill="#045F2F"/>
<path fill-rule="evenodd" clip-rule="evenodd" d="M448.745 339.927C448.745 339.927 470.691 365.387 425.268 361.918C388.587 359.079 393.634 336.908 448.745 339.927Z" fill="#045F2F"/>
<path d="M452.441 252.507C452.441 252.507 464.472 324.471 381.107 359.17" stroke="#00A850" stroke-width="0.90125" stroke-miterlimit="10" stroke-linecap="round" stroke-linejoin="round"/>
<path fill-rule="evenodd" clip-rule="evenodd" d="M375.429 379.899C389.984 371.292 384.892 326.139 380.611 314.243C374.888 298.426 362.316 309.466 362.316 309.466C362.316 309.466 345.868 272.334 334.512 284.456C326.896 292.568 343.75 327.851 343.75 327.851C334.377 322.264 297.155 336.053 375.429 379.899Z" fill="#00A850"/>
<path fill-rule="evenodd" clip-rule="evenodd" d="M369.075 376.789C369.075 376.789 381.783 352.816 427.791 336.729C454.739 327.311 468.663 326.68 477.901 327.04C492.591 327.581 491.284 338.126 463.751 346.327C444.465 352.095 430.991 346.192 430.991 346.192C430.991 346.192 446.763 375.257 426.169 385.802C400.799 398.87 369.075 376.789 369.075 376.789Z" fill="#00A850"/>
<path fill-rule="evenodd" clip-rule="evenodd" d="M401.971 302.48C401.971 302.48 421.212 294.143 419.5 314.151C418.283 328.166 392.417 354.527 392.417 354.527C392.417 354.527 412.38 351.508 400.393 367.46C387.776 384.313 375.023 375.707 374.572 378.816C374.572 378.816 359.747 345.109 389.713 290.538C394.896 281.075 408.55 263.997 415.579 261.563C398.861 274.767 401.971 302.48 401.971 302.48Z" fill="#00A850"/>
<path fill-rule="evenodd" clip-rule="evenodd" d="M299.003 311.853C274.038 307.932 260.88 350.066 315.766 357.726C295.172 371.02 305.176 402.113 343.164 387.558C370.021 377.283 383.54 379.942 387.911 381.024C358.891 329.202 322.165 296.126 287.106 280.579C269.397 272.738 260.655 290.673 299.003 311.853Z" fill="#00A850"/>
<path fill-rule="evenodd" clip-rule="evenodd" d="M438.246 248.496C433.334 248.901 430.405 257.148 436.173 261.519C440.274 264.628 451.72 268.819 451.81 277.336C453.522 270.802 452.035 262.6 449.241 256.472C446.447 250.298 442.211 248.18 438.246 248.496Z" fill="#00A850"/>
<path fill-rule="evenodd" clip-rule="evenodd" d="M438.832 248C440.814 251.65 453.252 269.54 451.855 277.336C456.316 263.997 453.252 249.577 451.584 245.296C446.447 232.364 433.649 238.357 438.832 248Z" fill="#00A850"/>
<path fill-rule="evenodd" clip-rule="evenodd" d="M227.804 250.299H241.233L290.261 440.102H282.149L227.804 250.299Z" fill="#CABEC3"/>
<path fill-rule="evenodd" clip-rule="evenodd" d="M107.442 242.458H289.585V252.417H107.442V242.458Z" fill="#77313E"/>
<path fill-rule="evenodd" clip-rule="evenodd" d="M144.934 208.119C144.619 208.119 144.348 208.074 144.078 208.074L84.7756 213.256L84.5954 174.142L145.114 179.459C145.25 179.459 145.385 179.459 145.52 179.459C153.451 179.594 159.76 186.174 159.579 194.059C159.399 201.99 152.865 208.254 144.934 208.119Z" fill="#ED5C18"/>
<path d="M192.295 108.08L184.274 114.569L181.164 117.183L180.804 117.453L180.624 117.588L180.398 117.769C179.767 118.309 179.227 118.94 178.776 119.616C178.325 120.292 177.92 121.058 177.649 121.824C177.514 122.23 177.379 122.635 177.334 123.041C177.289 123.266 177.244 123.447 177.244 123.672L177.154 124.258L174.63 145.482C174.63 145.482 180.578 155.801 181.254 155.666C193.602 153.323 191.529 143.995 191.529 143.95L185.986 124.032L187.428 118.129L194.908 111.054C195.674 110.288 195.674 109.027 194.908 108.26C194.187 107.494 193.061 107.449 192.295 108.08Z" fill="#E5926F"/>
<path fill-rule="evenodd" clip-rule="evenodd" d="M197.883 162.02H242.314C243.125 162.02 243.666 161.479 243.711 160.758C243.576 160.533 243.441 160.307 243.351 160.082L239.971 150.349C238.889 147.284 236.096 144.4 232.851 143.319C231.274 142.778 229.607 142.688 228.165 143.589C227.128 144.581 225.596 145.121 223.613 144.941C220.143 144.626 216.403 141.877 214.871 138.497C212.888 134.126 215.006 130.431 219.287 130.431C220.864 130.431 222.442 130.927 223.929 131.783C226.002 132.729 227.624 132.639 228.886 132.098C231.409 131.017 232.22 128.133 231.139 125.069L227.083 113.397C226.993 113.172 226.948 112.947 226.993 112.721C226.452 112 225.551 111.46 224.74 111.46H180.308C179.227 111.46 178.686 112.316 179.046 113.397L195.314 160.127C195.674 161.119 196.846 162.02 197.883 162.02Z" fill="#C9BFC4"/>
<path fill-rule="evenodd" clip-rule="evenodd" d="M157.371 201.45C154.758 205.55 150.161 208.209 144.934 208.119C137.003 207.984 130.694 201.405 130.875 193.519C130.92 190.364 132.001 187.48 133.759 185.182L133.668 185.137L152.369 162.561L173.143 176.125L157.371 201.45Z" fill="#ED5C18"/>
<path d="M167.375 184.236C166.699 185.272 161.427 183.109 155.614 179.369C149.801 175.629 145.61 171.754 146.286 170.717" stroke="#CC2818" stroke-width="0.90125" stroke-miterlimit="10" stroke-linecap="round" stroke-linejoin="round"/>
<path fill-rule="evenodd" clip-rule="evenodd" d="M163.95 167.427C169.764 171.167 173.954 175.043 173.278 176.079C172.602 177.116 167.33 174.953 161.517 171.212C155.704 167.472 151.513 163.597 152.189 162.56C152.865 161.524 158.137 163.687 163.95 167.427Z" fill="black"/>
<path fill-rule="evenodd" clip-rule="evenodd" d="M164.131 166.886C169.358 170.221 173.098 173.691 172.467 174.637C171.881 175.583 167.15 173.646 161.923 170.266C156.695 166.931 152.955 163.461 153.586 162.515C154.217 161.614 158.903 163.552 164.131 166.886Z" fill="#DFD6DB"/>
<path fill-rule="evenodd" clip-rule="evenodd" d="M159.94 154.043L177.965 165.489L172.422 174.637L153.631 162.47L159.94 154.043Z" fill="#DFD6DB"/>
<path fill-rule="evenodd" clip-rule="evenodd" d="M169.944 158.144C174.946 161.343 178.506 164.678 177.92 165.579C177.334 166.481 172.828 164.633 167.826 161.434C162.824 158.234 159.264 154.899 159.85 153.998C160.481 153.097 164.987 154.945 169.944 158.144Z" fill="#010000"/>
<path fill-rule="evenodd" clip-rule="evenodd" d="M191.078 126.466C189.952 130.116 186.437 134.937 186.797 138.002C187.068 140.3 187.969 143.725 186.121 146.834C186.121 146.834 185.896 152.827 181.57 155.982L177.019 164.498C176.523 165.264 172.693 163.687 168.502 160.983C164.266 158.28 161.247 155.441 161.742 154.675C161.742 154.63 161.788 154.63 161.788 154.63L176.162 136.74L184.724 128.584C186.166 126.466 187.383 124.753 187.744 124.303C188.96 122.816 191.979 123.492 191.078 126.466Z" fill="#E5926F"/>
<path d="M178.506 137.822C178.506 137.822 186.752 125.565 187.834 124.258C189.095 122.771 192.024 123.492 191.078 126.466C189.952 130.116 186.437 134.938 186.797 138.002C187.158 141.066 188.645 146.158 183.237 149.763" stroke="black" stroke-width="0.90125" stroke-miterlimit="10" stroke-linecap="round" stroke-linejoin="round"/>
<path fill-rule="evenodd" clip-rule="evenodd" d="M112.444 152.197L92.4813 143.861L78.557 170.898L104.873 180.992L112.444 152.197Z" fill="#E5926F"/>
<path fill-rule="evenodd" clip-rule="evenodd" d="M108.118 168.15L112.444 152.153L100.457 146.16C97.7536 164.861 110.416 169.502 108.118 168.15Z" fill="#010000"/>
<path fill-rule="evenodd" clip-rule="evenodd" d="M120.42 117.591L125.647 133.227L130.92 133.272C130.92 133.272 133.939 138.274 128.171 140.708C128.621 147.467 128.261 159.048 120.375 161.527C111.588 164.275 100.052 152.199 99.0604 148.774C90.0028 143.141 92.7517 127.64 97.4832 132.011C97.4382 132.011 100.457 110.02 120.42 117.591Z" fill="#E5926F"/>
<path fill-rule="evenodd" clip-rule="evenodd" d="M81.2607 135.84C83.8744 142.013 89.8677 148.908 89.8677 148.908L97.8888 147.421C97.8888 147.421 92.3011 142.689 95.6807 138.814C99.9166 133.992 105.865 141.202 105.865 141.202C105.865 141.202 105.594 134.172 105.865 128.224C105.865 128.224 102.891 134.668 95.4103 130.838C83.7392 124.844 81.2157 126.557 81.2157 126.557C81.2157 126.557 79.0076 130.657 81.2607 135.84Z" fill="#5F1001"/>
<path fill-rule="evenodd" clip-rule="evenodd" d="M128.486 111.101C128.486 111.101 126.323 118.446 122.087 123.403C129.928 122.998 136.282 118.536 128.486 111.101Z" fill="#951800"/>
<path fill-rule="evenodd" clip-rule="evenodd" d="M81.3509 126.963C81.3509 126.963 72.9692 111.236 89.6423 111.912C99.2406 112.317 105.549 111.776 118.167 111.822C127.044 111.867 121.141 120.564 121.141 120.564C121.141 120.564 108.659 120.023 107.397 121.555C105.504 123.898 105.685 129.486 105.685 129.486C105.685 129.486 103.702 135.615 99.3308 135.164C92.2109 134.443 81.3509 126.963 81.3509 126.963Z" fill="#951800"/>
<path fill-rule="evenodd" clip-rule="evenodd" d="M114.156 104.387C123.034 103.486 126.864 108.803 126.819 114.842C126.774 118.266 124.881 121.421 122.358 123.764C121.321 121.06 120.285 116.734 117.446 116.779C111.182 116.914 92.2109 118.401 93.8332 112.183C105.009 112.003 105.955 105.243 114.156 104.387Z" fill="#951800"/>
<path d="M99.2406 140.707C98.024 141.699 97.8437 143.546 98.8351 144.763C99.4209 145.439 100.232 145.799 101.088 145.799" stroke="black" stroke-width="0.90125" stroke-miterlimit="10" stroke-linecap="round" stroke-linejoin="round"/>
<path d="M97.7986 138.994L103.341 143.185" stroke="black" stroke-width="0.90125" stroke-miterlimit="10" stroke-linecap="round" stroke-linejoin="round"/>
<path d="M121.592 143.77C121.592 143.77 123.214 146.834 127.54 146.248" stroke="black" stroke-width="0.90125" stroke-miterlimit="10" stroke-linecap="round" stroke-linejoin="round"/>
<path d="M122.132 127.053C122.132 127.053 117.581 124.484 114.066 128.9" stroke="black" stroke-width="0.90125" stroke-miterlimit="10" stroke-linecap="round" stroke-linejoin="round"/>
<path fill-rule="evenodd" clip-rule="evenodd" d="M120.735 131.108C121.366 131.153 121.817 132.055 121.727 133.046C121.637 134.037 121.006 134.803 120.375 134.758C119.744 134.713 119.293 133.812 119.384 132.821C119.474 131.784 120.06 131.063 120.735 131.108Z" fill="#010000"/>
<path fill-rule="evenodd" clip-rule="evenodd" d="M48.1398 327.446H34.7112L0.0130615 441.544H8.12431L48.1398 327.446Z" fill="#78313D"/>
<path fill-rule="evenodd" clip-rule="evenodd" d="M83.1534 327.446H96.582L131.28 441.544H123.169L83.1534 327.446Z" fill="#78313D"/>
<path fill-rule="evenodd" clip-rule="evenodd" d="M44.0842 288.512L43.949 314.107C43.949 314.107 73.9155 322.173 104.738 323.21C126.233 323.931 144.619 323.074 144.619 323.074C144.619 323.074 115.688 345.38 118.933 362.82C114.246 370.075 108.974 377.735 108.974 377.735L132.992 395.986C132.992 395.986 137.589 389.001 142.906 380.754C155.389 382.512 158.002 366.605 167.06 352.5C177.649 335.917 191.664 320.776 191.664 320.776C197.026 313.386 200.857 305.816 197.387 298.11C193.872 290.404 186.211 285.447 177.379 285.177L113.616 282.834C111.903 275.759 106.045 273.506 73.4649 274.001C49.8071 274.362 34.1254 279.95 34.1704 284.14C34.2155 285.808 38.9921 287.34 44.0842 288.512Z" fill="#5A74C7"/>
<path fill-rule="evenodd" clip-rule="evenodd" d="M126.954 379.403C120.465 374.085 112.669 372.869 109.56 376.699C106.451 380.529 109.199 387.92 115.688 393.192C122.177 398.509 129.973 399.726 133.083 395.896C136.237 392.065 133.488 384.675 126.954 379.403Z" fill="black"/>
<path fill-rule="evenodd" clip-rule="evenodd" d="M101.133 394.588L120.826 418.066L132.632 393.327L132.452 393.191C133.759 389.541 130.875 383.999 125.467 380.168C119.519 375.978 112.804 375.437 110.281 378.862L110.191 378.817L101.133 394.588Z" fill="#DFD6DA"/>
<path fill-rule="evenodd" clip-rule="evenodd" d="M161.157 364.127C159.219 341.46 150.792 328.167 143.312 325.012L144.619 323.075C144.619 323.075 176.883 306.942 180.353 331.141L161.157 364.127Z" fill="black"/>
<path fill-rule="evenodd" clip-rule="evenodd" d="M118.888 401.168C113.571 393.237 106.225 389.271 99.2406 392.651C97.3931 393.552 86.7583 399.545 86.2626 402.204C85.4966 406.124 96.1764 407.521 102.395 412.839C108.704 418.246 112.399 428.205 118.978 433.072C122.808 435.866 126.233 441.318 130.829 441.408C138.22 441.544 155.343 440.642 153.045 440.552C151.243 440.507 156.425 433.928 140.833 433.928C132.497 427.935 122.268 406.215 118.888 401.168Z" fill="#814A2A"/>
<path fill-rule="evenodd" clip-rule="evenodd" d="M106.406 408.738C101.088 400.807 93.3825 397.562 88.3355 400.041C83.7391 402.249 85.2713 409.504 95.0949 417.48C101.539 422.707 100.953 427.799 106.27 434.063C110.912 439.515 123.079 442.354 128.937 442.354C131.325 442.354 133.668 438.569 131.415 438.569C121.276 438.569 110.551 414.911 106.406 408.738Z" fill="black"/>
<path fill-rule="evenodd" clip-rule="evenodd" d="M155.073 438.479H120.781L128.937 442.354H155.073V438.479Z" fill="black"/>
<path fill-rule="evenodd" clip-rule="evenodd" d="M181.254 394.317L182.651 413.424C182.651 413.424 189.997 418.831 196.441 417.885C203.29 416.894 209.238 409.594 209.238 409.594L207.346 394.272H207.165C206.535 393.101 201.127 392.109 194.413 392.064C187.248 391.974 181.345 392.966 181.209 394.272C181.254 394.227 181.254 394.272 181.254 394.317Z" fill="#DFD6DA"/>
<path fill-rule="evenodd" clip-rule="evenodd" d="M181.254 394.182C181.254 394.227 181.254 394.272 181.254 394.272L181.75 401.122C192.791 401.663 202.975 398.238 207.616 396.39L207.346 394.182H207.165C206.535 393.011 201.127 392.019 194.413 391.974C187.248 391.929 181.345 392.92 181.254 394.182Z" fill="black"/>
<path fill-rule="evenodd" clip-rule="evenodd" d="M206.174 374.67L209.238 394.543H209.193C209.013 395.714 202.479 396.616 194.458 396.616C186.301 396.616 179.677 395.669 179.677 394.498C179.677 394.453 179.677 394.453 179.677 394.408L175.847 376.293C170.575 374.625 172.062 369.758 168.997 355.248C164.581 334.429 158.182 304.193 158.182 304.193L199.099 303.517C199.099 303.517 203.29 327.445 209.869 347.453C214.285 360.881 215.277 370.434 206.174 374.67Z" fill="#5A74C7"/>
<path d="M194.413 322.578C199.775 315.187 200.902 305.814 197.432 298.109C193.917 290.403 186.256 285.446 177.424 285.176L44.1293 280.76L43.949 314.106C43.949 314.106 73.9156 322.172 104.738 323.208C126.233 323.929 169.493 323.073 169.493 323.073L194.413 322.578Z" fill="#5A74C7"/>
<path d="M191.754 394.949L174.044 304.689L108.163 303.427C102.666 303.337 97.6635 300.137 95.1851 295.225L84.6405 274.001" stroke="#3763C3" stroke-width="0.90125" stroke-miterlimit="10" stroke-linecap="round" stroke-linejoin="round"/>
<path d="M103.477 273.866C103.477 273.866 115.418 294.865 95.2752 295.947" stroke="#5A74C7" stroke-width="0.90125" stroke-miterlimit="10" stroke-linecap="round" stroke-linejoin="round"/>
<path fill-rule="evenodd" clip-rule="evenodd" d="M207.571 384.404C207.571 384.404 191.394 386.522 176.343 376.473C179.137 377.194 183.553 377.149 190.988 377.149C197.747 377.149 202.659 376.293 206.129 374.671L207.571 384.404Z" fill="black"/>
<path fill-rule="evenodd" clip-rule="evenodd" d="M178.28 436.407C178.28 436.407 184.679 436.902 189.591 437.263C193.782 437.533 198.513 438.975 205.994 440.327C213.339 441.679 227.669 442.084 242.765 441.949C247.857 441.904 251.777 441.634 251.777 441.634C251.777 441.634 253.715 433.748 243.26 433.928C232.761 434.108 228.705 430.639 228.705 430.639C228.705 430.639 216.989 421.085 209.644 410.856C206.219 406.125 205.002 415.227 200.136 418.201C196.17 420.635 186.301 418.697 186.301 418.697C186.301 418.697 176.478 425.051 178.28 436.407Z" fill="black"/>
<path fill-rule="evenodd" clip-rule="evenodd" d="M178.19 430.368C178.19 430.368 184.634 430.684 189.591 431.269C193.782 431.765 197.342 433.252 204.687 435.505C207.436 436.361 213.564 436.992 218.296 437.353L251.732 438.389C251.732 438.389 253.67 430.999 243.215 430.684C232.716 430.323 228.66 426.673 228.66 426.673C228.66 426.673 218.431 416.083 211.356 405.944C207.931 401.032 204.912 410.045 200.045 412.794C196.08 415.047 180.578 411.126 180.578 411.126C180.578 411.126 177.109 420.725 178.19 430.368Z" fill="#814A2A"/>
<path fill-rule="evenodd" clip-rule="evenodd" d="M77.5657 169.725L85.9473 152.916C85.9473 152.916 104.243 158.594 109.515 168.057C114.742 177.52 77.5657 169.725 77.5657 169.725Z" fill="#DFD6DB"/>
<path fill-rule="evenodd" clip-rule="evenodd" d="M114.292 203.837C113.616 212.894 113.435 223.078 114.382 232.587C115.914 247.457 124.25 256.83 118.167 265.617C116.5 268.006 114.607 269.628 112.444 270.8L113.526 282.561C111.317 278.686 92.5715 275.892 70.1303 276.252C48.9059 276.568 37.0094 280.308 33.9902 283.958L33.1791 271.205C21.5079 262.148 31.9624 238.355 46.112 212.263C57.7832 190.814 65.534 178.782 72.6538 173.014L79.4583 159.54C79.4583 159.54 98.3395 162.154 108.298 168.147C111.408 169.589 113.751 171.392 115.328 172.834C119.248 176.394 121.952 181.351 122.448 186.803C123.169 194.058 119.834 200.412 114.292 203.837Z" fill="#ED5C18"/>
<path d="M112.444 270.71C111.948 266.835 93.7882 264.266 71.8427 264.942C49.8973 265.618 32.5032 269.358 32.9989 273.234" stroke="#E85E19" stroke-width="0.90125" stroke-miterlimit="10" stroke-linecap="round" stroke-linejoin="round"/>
<path fill-rule="evenodd" clip-rule="evenodd" d="M115.553 239.706C81.8015 222.266 94.6894 184.008 94.6894 184.008C108.524 181.845 115.148 189.776 116.5 198.699C111.453 215.237 114.021 229.296 115.553 239.706Z" fill="#010000"/>
<path fill-rule="evenodd" clip-rule="evenodd" d="M75.5379 326.724H62.1092L27.4111 442.58H35.5224L75.5379 326.724Z" fill="#78313D"/>
<path fill-rule="evenodd" clip-rule="evenodd" d="M113.21 326.724H126.684L161.382 442.58H153.271L113.21 326.724Z" fill="#78313D"/>
<path fill-rule="evenodd" clip-rule="evenodd" d="M25.6537 267.556C24.1666 283.824 6.68234 313.295 29.9346 326.273C31.0161 326.859 32.413 327.49 34.0803 327.76C41.6959 328.075 61.1629 327.895 83.9195 327.895C113.345 327.895 137.228 327.49 137.228 327.039C137.273 323.209 135.786 314.376 119.294 317.441C109.109 319.333 92.6616 327.67 84.7757 316.584C76.8447 305.499 70.5359 242.186 36.3335 231.191C19.9758 225.964 7.94409 226.82 7.94409 226.82C7.94409 226.82 27.4562 247.954 25.6537 267.556Z" fill="#DFD7DB"/>
<path fill-rule="evenodd" clip-rule="evenodd" d="M273.452 182.706H184.724L153.676 242.639H242.404L273.452 182.706Z" fill="#010000"/>
<path d="M207.931 196.271C207.931 196.271 188.825 196.271 185.13 196.271" stroke="white" stroke-width="0.90125" stroke-miterlimit="10" stroke-linecap="round" stroke-linejoin="round"/>
<path d="M233.437 190.909C227.443 190.909 216.088 190.909 209.779 190.909" stroke="white" stroke-width="0.90125" stroke-miterlimit="10" stroke-linecap="round" stroke-linejoin="round"/>
<path d="M247.046 190.909C244.567 190.909 240.421 190.909 237.177 190.909M206.489 190.909C203.155 190.909 190.627 190.909 187.788 190.909" stroke="#565EC1" stroke-width="0.90125" stroke-miterlimit="10" stroke-linecap="round" stroke-linejoin="round"/>
<path fill-rule="evenodd" clip-rule="evenodd" d="M204.101 220.917L200.721 226.415L208.968 228.623C208.652 228.803 202.524 238.987 186.977 239.257C180.533 239.348 174.36 238.356 174.36 238.356C174.36 238.356 163.725 239.573 151.603 241.375C147.953 236.238 147.863 225.558 151.603 220.917C177.154 220.917 204.101 220.917 204.101 220.917Z" fill="#E5926F"/>
<path d="M196.711 222.585C205.498 219.431 207.165 218.484 209.959 219.205C213.339 220.061 215.502 224.838 222.802 235.923C224.199 238.357 220.954 240.565 218.341 237.726C217.259 238.717 215.231 238.807 214.556 238.041C213.384 236.599 206.534 230.471 205.318 229.074C207.571 231.642 192.835 231.733 196.711 222.585Z" fill="#E5926F"/>
<path d="M224.424 216.592L216.178 215.015L215.322 214.88L214.916 214.79L214.691 214.745L214.42 214.7C213.654 214.61 212.888 214.564 212.122 214.655C211.356 214.745 210.59 214.925 209.869 215.24C209.509 215.376 209.148 215.556 208.788 215.736C208.607 215.826 208.427 215.916 208.292 216.052L207.841 216.367L191.258 227.542C190.718 227.903 199.82 229.976 200.361 229.615C200.451 229.525 200.586 229.48 200.676 229.39L211.041 220.558L211.266 220.332C211.311 220.287 211.401 220.242 211.491 220.152C211.627 220.062 211.762 219.972 211.942 219.882C212.257 219.702 212.573 219.566 212.933 219.476C213.294 219.386 213.654 219.341 214.015 219.341H214.15H214.375L214.781 219.386L215.637 219.431L223.974 220.242C225.01 220.332 225.866 219.521 225.956 218.53C226.001 217.584 225.326 216.773 224.424 216.592Z" fill="#E5926F"/>
<path d="M204.822 221.909C207.255 222.225 208.427 222.991 209.013 223.622C211.446 226.235 217.62 234.842 217.89 235.203C218.611 236.104 218.476 237.411 217.53 238.132C216.673 238.808 215.502 238.763 214.736 238.087C213.519 236.96 208.427 231.958 206.264 229.975C205.994 229.705 204.597 228.173 202.253 227.812" stroke="black" stroke-width="0.90125" stroke-miterlimit="10" stroke-linecap="round" stroke-linejoin="round"/>
<path fill-rule="evenodd" clip-rule="evenodd" d="M151.243 241.06C151.243 241.06 171.701 241.195 176.478 241.06C178.055 241.06 179.362 236.419 179.362 230.651C179.362 225.018 178.1 220.421 176.568 220.241C176.568 220.241 150.792 220.376 147.863 220.376C140.608 220.376 138.445 220.467 138.445 227.722C138.49 234.887 144.168 240.88 151.243 241.06Z" fill="#DFD6DB"/>
<path fill-rule="evenodd" clip-rule="evenodd" d="M135.606 242.637C135.606 242.637 160.841 242.683 164.852 242.683C166.699 242.683 168.186 237.275 168.186 230.606C168.186 224.072 166.744 218.754 164.942 218.574H148.494C145.745 214.654 141.194 212.04 136.012 212.04C127.63 212.04 120.826 218.844 120.826 227.226C120.78 235.473 127.405 242.412 135.606 242.637Z" fill="#ED5C18"/>
<path d="M154.037 242.368C155.839 242.368 157.281 237.095 157.281 230.652C157.281 224.163 155.839 218.935 154.037 218.935" stroke="#CC2818" stroke-width="0.90125" stroke-miterlimit="10" stroke-linecap="round" stroke-linejoin="round"/>
<path fill-rule="evenodd" clip-rule="evenodd" d="M86.9837 200.729C96.627 211.318 119.429 234.165 126.639 239.212C126.684 239.257 126.729 239.257 126.774 239.302C129.342 241.24 132.497 242.411 135.967 242.411C144.348 242.411 151.153 235.607 151.153 227.225C151.153 222.269 148.809 217.897 145.159 215.149C142.771 212.445 126.323 193.564 119.203 179.594C119.113 179.414 118.978 179.234 118.888 179.054C115.869 172.069 108.929 167.202 100.863 167.202C90.0029 167.202 81.2157 175.989 81.2157 186.849C81.2157 192.257 83.4237 197.169 86.9837 200.729Z" fill="#ED5C18"/>
<path d="M145.204 215.104C142.816 212.401 126.368 193.52 119.248 179.55C119.158 179.37 119.023 179.19 118.933 179.009C115.914 172.025 108.974 167.158 100.908 167.158C97.0776 167.158 93.4726 168.239 90.4534 170.177" stroke="#CC2818" stroke-width="0.90125" stroke-miterlimit="10" stroke-linecap="round" stroke-linejoin="round"/>
<path fill-rule="evenodd" clip-rule="evenodd" d="M270.884 203.567L268.09 242.682L246.099 242.637L243.396 203.567H270.884Z" fill="#F38C1E"/>
<path fill-rule="evenodd" clip-rule="evenodd" d="M251.822 229.345C253.399 229.48 255.202 229.615 257.095 229.615C263.674 229.751 269.171 229.075 269.171 228.128C269.577 222.09 269.937 217.043 269.937 217.043C268.811 217.764 263.448 218.215 257.14 218.079C255.247 218.034 253.444 217.944 251.867 217.809V229.345H251.822Z" fill="#E0D6DA"/>
<path fill-rule="evenodd" clip-rule="evenodd" d="M272.506 204.109C272.506 204.155 272.461 204.2 272.461 204.2C273.587 204.83 274.038 205.371 274.038 205.642C274.038 206.498 266.468 207.174 257.14 207.174C247.812 207.174 240.241 206.498 240.241 205.642C240.241 205.326 240.602 204.695 241.773 204.064C241.773 204.019 241.818 204.019 241.818 203.974V201.225C241.773 201.18 241.773 201.135 241.773 201.09C241.773 200.324 248.668 199.693 257.14 199.693C265.611 199.693 272.506 200.324 272.506 201.09C272.506 201.135 272.506 201.135 272.461 201.18V203.974C272.506 204.064 272.506 204.064 272.506 204.109Z" fill="#E0D6DA"/>
<path fill-rule="evenodd" clip-rule="evenodd" d="M303.644 109.388L291.883 143.501C290.486 149.764 285.214 154.721 278.454 155.307C270.163 156.073 262.818 149.899 262.051 141.608C261.736 138.318 262.547 135.164 264.124 132.505L277.553 98.0776C279.13 92.5349 283.997 88.299 290.08 87.7583C297.966 87.0373 304.951 92.8954 305.627 100.781C305.897 103.891 305.131 106.865 303.644 109.388Z" fill="#D3D8DC"/>
<path fill-rule="evenodd" clip-rule="evenodd" d="M278.454 155.308C276.517 155.488 274.624 155.262 272.821 154.767C263.809 152.784 253.309 136.697 249.749 127.955C248.172 124.079 248.938 120.745 251.056 117.951L247.136 109.975L269.847 99.1597L274.038 107.451C274.128 107.496 274.173 107.541 274.218 107.631C274.264 107.767 274.264 107.947 274.128 108.127C284.583 108.983 284.312 126.242 284.312 126.242C284.312 126.242 284.358 126.513 284.358 127.008C288.593 129.352 291.658 133.723 292.153 138.905C292.874 147.196 286.746 154.541 278.454 155.308Z" fill="#D3D8DC"/>
<path d="M273.948 108.127C274.444 109.118 269.938 111.867 263.629 114.886C257.32 117.905 251.777 119.573 251.327 118.536" stroke="#A8B3BC" stroke-width="0.90125" stroke-miterlimit="10" stroke-linecap="round" stroke-linejoin="round"/>
<path d="M269.892 99.3848C269.892 99.3848 272.686 105.739 274.083 108.397C278.905 109.163 282.375 112.543 283.501 118.852" stroke="#A8B3BC" stroke-width="0.90125" stroke-miterlimit="10" stroke-linecap="round" stroke-linejoin="round"/>
<path fill-rule="evenodd" clip-rule="evenodd" d="M257.59 102.673C263.899 99.6537 269.442 97.9864 269.892 99.0229C270.388 100.014 265.657 103.304 259.303 106.323C252.994 109.342 247.451 111.009 247.001 109.973C246.55 108.982 251.282 105.737 257.59 102.673Z" fill="#A8B3BC"/>
<path fill-rule="evenodd" clip-rule="evenodd" d="M267.775 99.2949C268.135 100.151 264.17 102.855 258.942 105.378C253.67 107.902 249.029 109.299 248.623 108.443C248.308 107.361 245.694 99.0246 245.288 98.3486C241.458 96.6813 234.969 81.3601 234.969 81.3601C234.969 81.3601 235.014 81.3601 235.014 81.315C234.969 81.2249 234.924 81.1348 234.879 81.0446C233.302 77.71 232.671 72.0321 237.267 72.4828C236.726 71.221 238.033 69.4636 238.98 69.013C240.467 68.292 242.044 68.1568 243.531 68.4271C244.973 67.9314 246.415 67.5259 248.037 67.2555C249.209 67.0753 250.425 66.9851 251.867 67.1654C252.588 67.2555 253.355 67.4358 254.211 67.7963C255.067 68.1568 255.472 68.5173 256.869 69.6438C257.906 71.5365 264.575 84.4694 263.088 89.6516C264.44 92.4455 267.279 98.3937 267.775 99.2949Z" fill="#EB967C"/>
<path d="M244.838 45.8052L258.627 77.6644C259.573 79.8724 258.492 82.4861 256.193 83.5225C253.895 84.5139 251.236 83.5676 250.29 81.3144C250.2 81.1342 250.155 80.9539 250.11 80.7737L240.602 47.3373C240.286 46.1657 240.962 44.949 242.179 44.5885C243.26 44.3181 244.387 44.8138 244.838 45.8052Z" fill="#EB967C"/>
<path d="M235.915 49.2756L251.597 75.7724C252.679 77.5749 252.003 79.9632 250.11 81.0898C248.217 82.2163 245.784 81.6305 244.703 79.783C244.612 79.6478 244.567 79.5576 244.522 79.4224L231.905 51.3485C231.409 50.267 231.95 48.9602 233.076 48.4195C234.158 47.9688 235.375 48.3293 235.915 49.2756Z" fill="#EB967C"/>
<path d="M237.042 72.3469C237.087 71.1302 237.447 70.0487 238.484 69.4629C244.117 66.1733 249.209 78.8359 246.64 80.368C245.243 81.2242 244.162 80.7736 243.306 79.8723" stroke="black" stroke-width="0.90125" stroke-miterlimit="10" stroke-linecap="round" stroke-linejoin="round"/>
<path d="M236.501 83.882C236.501 83.882 231.364 75.0948 235.104 72.9318C240.467 69.8225 245.288 81.8542 242.855 83.2962C239.43 85.3691 237.808 79.1054 237.808 79.1054" stroke="black" stroke-width="0.90125" stroke-miterlimit="10" stroke-linecap="round" stroke-linejoin="round"/>
<path d="M254.076 90.3714C251.282 90.6418 248.983 88.2535 247.857 85.5497C245.604 80.0521 250.065 75.0952 250.065 75.0952C250.065 75.0952 248.713 73.7433 243.035 73.2477H242.9C241.819 73.3828 240.782 72.5267 240.602 71.355C240.422 70.3637 240.872 69.4624 241.638 69.147C243.711 68.2457 245.694 67.5698 248.037 67.2093C249.524 66.984 253.85 66.3982 256.869 69.5976" fill="#EB967C"/>
<path d="M254.076 90.3714C251.282 90.6418 248.983 88.2535 247.857 85.5497C245.604 80.0521 250.065 75.0952 250.065 75.0952C250.065 75.0952 248.713 73.7433 243.035 73.2477H242.9C241.819 73.3828 240.782 72.5267 240.602 71.355C240.422 70.3637 240.872 69.4624 241.638 69.147C243.711 68.2457 245.694 67.5698 248.037 67.2093C249.524 66.984 253.85 66.3982 256.869 69.5976" stroke="black" stroke-width="0.90125" stroke-miterlimit="10" stroke-linecap="round" stroke-linejoin="round"/>
<path fill-rule="evenodd" clip-rule="evenodd" d="M350.284 111.371C348.752 116.057 346.318 121.014 347.355 132.91C348.121 141.472 349.473 150.8 339.874 150.305C337.351 148.322 327.122 145.798 314.865 145.483C290.171 144.807 288.233 147.466 287.377 147.736C278.68 146.384 286.746 133.586 286.746 133.586L283.231 120.293C282.78 118.22 282.87 116.057 283.456 114.074C279.986 111.776 277.508 108.081 276.922 103.665C275.886 95.5537 281.699 88.1634 289.9 87.0819C302.112 86.406 333.295 84.1078 344.02 82.7559C352.222 81.7195 359.702 87.2171 360.738 95.3284C361.73 102.629 357.133 109.343 350.284 111.371Z" fill="#D3D8DC"/>
<path d="M293.46 98.9783L285.349 110.334C283.276 113.218 282.555 116.823 283.276 120.293L286.791 133.586" stroke="#A8B3BC" stroke-width="0.90125" stroke-miterlimit="10" stroke-linecap="round" stroke-linejoin="round"/>
<path fill-rule="evenodd" clip-rule="evenodd" d="M352.267 267.468C352.267 267.468 313.152 284.276 294.902 274.452C289.675 271.613 284.628 252.958 352.267 267.468Z" fill="#010000"/>
<path fill-rule="evenodd" clip-rule="evenodd" d="M316.307 280.219C315.586 295.901 319.101 293.468 321.038 313.971C322.931 333.528 324.688 380.619 324.914 407.386C324.148 411.532 322.615 413.199 321.173 416.624C315.676 429.962 315.27 432.486 296.299 431.584C297.966 426.447 306.708 409.414 305.312 401.573C297.11 327.986 294.902 319.379 294.992 298.109C295.082 273.19 283.546 237.095 280.212 211.319C277.147 187.436 289.675 170.312 288.864 176.35C298.417 175.269 294.451 202.937 301.616 203.343C302.427 203.478 317.704 202.442 317.704 202.442C317.704 202.442 319.191 218.799 316.307 280.219Z" fill="#EB967C"/>
<path fill-rule="evenodd" clip-rule="evenodd" d="M321.219 416.624C315.721 429.962 315.315 432.486 296.344 431.585C298.011 426.447 306.753 409.414 305.357 401.573C303.329 383.413 301.661 369.218 300.31 357.772C301.301 358.989 306.078 359.935 311.846 359.935C317.659 359.935 322.525 358.989 323.427 357.772H323.562C324.283 375.392 324.778 393.957 324.869 407.386C324.193 411.487 322.615 413.154 321.219 416.624Z" fill="#F38C1E"/>
<path d="M301.256 365.612C302.247 366.828 306.573 367.549 312.341 367.549C321.174 367.549 323.832 365.431 323.832 365.431" stroke="white" stroke-width="0.90125" stroke-miterlimit="10" stroke-linecap="round" stroke-linejoin="round"/>
<path fill-rule="evenodd" clip-rule="evenodd" d="M316.757 270.575C308.105 266.249 294.136 267.376 291.748 268.773C291.117 265.438 290.441 262.059 289.72 258.634C289.9 258.544 290.126 258.499 290.351 258.454C294.046 258.093 311.801 258.994 317.208 259.265C317.028 263.41 316.938 265.934 316.757 270.575Z" fill="#010000"/>
<path fill-rule="evenodd" clip-rule="evenodd" d="M311.53 436.587C299.228 443.166 282.69 444.158 273.317 439.246C266.603 435.956 262.277 429.422 261.916 425.096C269.487 422.257 279.896 425.502 279.896 425.502C279.896 425.502 304.05 415.588 315.09 410.901C314.459 411.127 335.594 418.562 333.431 431.36C330.952 433.478 317.478 433.388 311.53 436.587Z" fill="#E0D6DB"/>
<path fill-rule="evenodd" clip-rule="evenodd" d="M301.301 398.733L279.491 420.679C279.491 420.679 269.442 422.166 261.871 425.005C264.169 427.168 272.01 438.569 284.718 438.388C297.245 438.208 305.492 432.891 310.854 428.925C318.244 423.428 328.474 421.31 329.645 420.679C332.304 412.477 324.598 400.987 324.598 400.987C324.598 400.987 317.839 401.662 314.639 404.727C312.521 392.605 313.333 392.785 305.627 391.614C299.228 390.622 300.985 394.137 301.301 398.733Z" fill="#7581F1"/>
<path fill-rule="evenodd" clip-rule="evenodd" d="M300.58 415.181C300.58 415.181 287.196 414.099 280.122 420.138C287.151 420.318 294.091 422.346 294.091 422.346C294.136 414.775 286.656 413.333 286.656 413.333C288.729 411.531 294.181 408.737 306.799 409.007C306.799 409.007 305.041 407.565 299.318 406.574C295.172 405.853 292.514 407.295 292.514 407.295C295.893 408.286 299.904 410.765 300.58 415.181Z" stroke="white" stroke-width="0.90125" stroke-miterlimit="10" stroke-linecap="round" stroke-linejoin="round"/>
<path fill-rule="evenodd" clip-rule="evenodd" d="M402.061 429.196C391.786 413.063 388.812 407.791 385.883 406.484C377.772 379.131 365.019 340.918 359.026 322.037C352.492 301.579 357.314 299.055 350.104 283.374C321.759 221.953 318.109 204.289 318.109 204.289C318.109 204.289 328.519 195.231 329.285 195.096C336.269 194.645 328.609 181.172 338.613 182.298C336.044 177.567 354.024 194.15 361.91 227.09C378.493 296.126 406.432 409.143 406.432 409.143C406.432 409.143 411.163 418.065 417.202 424.464C420.626 428.069 423.916 430.998 426.575 433.206C412.65 435.73 404.855 433.567 402.061 429.196Z" fill="#EB967C"/>
<path fill-rule="evenodd" clip-rule="evenodd" d="M402.061 429.196C391.786 413.064 388.812 407.791 385.883 406.484C381.557 391.929 375.969 374.31 370.742 358.177C372.184 359.214 376.916 359.98 382.413 359.98C388.226 359.98 392.958 359.124 393.814 357.952C401.159 387.738 406.432 409.098 406.432 409.098C406.432 409.098 411.163 418.02 417.202 424.419C420.626 428.024 423.916 430.953 426.575 433.161C412.65 435.73 404.855 433.567 402.061 429.196Z" fill="#F38C1E"/>
<path d="M373.266 365.701C373.266 365.701 376.15 367.414 384.171 367.234C389.984 367.098 394.715 366.377 395.572 365.206" stroke="white" stroke-width="0.90125" stroke-miterlimit="10" stroke-linecap="round" stroke-linejoin="round"/>
<path fill-rule="evenodd" clip-rule="evenodd" d="M346.453 275.488C344.741 271.747 343.119 268.142 341.632 264.763L367.453 260.302C367.453 260.302 368.579 260.752 370.201 261.518C371.328 266.07 372.455 270.711 373.581 275.397C362.361 278.056 352.762 276.975 346.453 275.488Z" fill="#010000"/>
<path fill-rule="evenodd" clip-rule="evenodd" d="M423.105 442.759L408.325 443.616C401.926 443.976 395.301 441.002 392.868 437.352C391.696 435.64 387.641 433.927 386.469 433.432C381.918 431.494 380.746 430.953 380.836 427.754C380.972 420.408 386.74 412.658 386.74 412.658L424.232 427.844C424.232 427.844 431.036 428.565 432.703 433.927C433.244 436.045 432.072 442.219 423.105 442.759Z" fill="#E0D6DB"/>
<path fill-rule="evenodd" clip-rule="evenodd" d="M432.568 433.928C432.117 431.135 427.656 427.71 423.736 428.521C418.418 429.647 413.867 438.299 411.028 440.192C404.584 441.183 399.087 439.291 394.761 435.686C393.093 431.315 390.84 424.33 388.632 422.347C386.83 420.725 383.81 420.59 383.135 418.517C381.963 407.161 383.901 401.438 383.901 401.438C383.901 401.438 388.767 404.503 391.291 403.691C391.741 399.546 388.272 395.941 399.537 395.13C407.288 394.589 407.063 396.572 408.144 402.565L422.384 425.231C422.384 425.276 431.937 428.476 432.568 433.928Z" fill="#7581F1"/>
<path fill-rule="evenodd" clip-rule="evenodd" d="M400.348 416.984C400.348 416.984 413.777 415.632 418.644 421.761C411.704 422.076 404.269 424.239 404.269 424.239C406.792 416.443 414.588 414.866 414.588 414.866C413.191 413.019 408.82 410.225 396.428 410.721C396.428 410.721 398.636 409.188 404.539 408.107C408.82 407.296 410.938 408.738 410.938 408.738C407.243 409.819 402.511 412.433 400.348 416.984Z" stroke="white" stroke-width="0.90125" stroke-miterlimit="10" stroke-linecap="round" stroke-linejoin="round"/>
<path fill-rule="evenodd" clip-rule="evenodd" d="M358.395 272.063C339.784 272.829 321.94 262.285 301.571 263.411C290.982 263.997 291.883 269.855 291.883 269.855C269.667 189.509 280.212 167.428 285.935 161.705C286.16 161.345 286.43 160.984 286.701 160.624C286.701 160.624 287.016 144.131 287.016 147.556C287.016 145.303 300.715 144.266 314.865 145.167C329.014 146.114 340.46 148.682 340.46 150.89C340.46 151.025 340.415 151.116 340.37 151.251L341.271 161.886C350.194 166.166 357.043 174.458 359.567 186.805C364.749 212.13 371.643 267.512 371.643 267.512C371.643 267.512 368.399 271.613 358.395 272.063Z" fill="#ED5C18"/>
<path d="M292.874 160.217C292.874 160.217 289.449 173.826 279.085 181.352" stroke="#CC2818" stroke-width="0.90125" stroke-miterlimit="10" stroke-linecap="round" stroke-linejoin="round"/>
<path d="M309.863 145.528L310.178 158.01L310.088 199.152C310.088 199.152 298.101 193.024 301.346 175.63C304.095 160.894 303.239 158.641 303.239 158.641" stroke="#CC2818" stroke-width="0.90125" stroke-miterlimit="10" stroke-linecap="round" stroke-linejoin="round"/>
<path d="M327.212 159.001C327.212 159.001 328.203 178.242 352.086 186.083" stroke="#CC2818" stroke-width="0.90125" stroke-miterlimit="10" stroke-linecap="round" stroke-linejoin="round"/>
<path d="M333.971 147.285L334.332 159.542C344.156 166.571 356.458 175.178 369.39 269.224" stroke="#CC2818" stroke-width="0.90125" stroke-miterlimit="10" stroke-linecap="round" stroke-linejoin="round"/>
<path d="M341.587 162.876V162.831C341.542 160.442 329.194 158.279 314.008 158.054C298.822 157.829 286.61 159.586 286.656 161.975" stroke="#CC2818" stroke-width="0.90125" stroke-miterlimit="10" stroke-linecap="round" stroke-linejoin="round"/>
<path fill-rule="evenodd" clip-rule="evenodd" d="M223.568 144.944C225.506 145.124 227.083 144.583 228.119 143.592C229.561 142.69 231.229 142.78 232.806 143.321C236.05 144.403 238.844 147.287 239.926 150.351L243.306 160.084C243.666 161.166 244.838 162.022 245.919 162.022H290.351C291.432 162.022 291.973 161.166 291.613 160.084L275.39 113.355C275.03 112.273 273.858 111.417 272.776 111.417H228.345C227.263 111.417 226.723 112.273 227.083 113.355L231.139 125.026C232.22 128.135 231.409 131.019 228.886 132.056C227.669 132.596 226.047 132.641 223.929 131.74C222.442 130.884 220.819 130.388 219.287 130.388C215.006 130.388 212.888 134.083 214.871 138.454C216.403 141.879 220.098 144.583 223.568 144.944Z" fill="#9E9E9E"/>
<path fill-rule="evenodd" clip-rule="evenodd" d="M374.618 150.936C373.176 157.11 367.903 161.931 361.279 162.517C352.988 163.283 345.642 157.11 344.876 148.818C344.741 147.421 344.831 146.069 345.057 144.763C344.967 141.428 344.291 124.304 340.28 110.245C335.864 108.127 332.664 103.801 332.214 98.6186C331.493 90.7326 337.351 83.748 345.237 83.072C351.906 82.4862 357.899 86.5418 360.017 92.5351C362.361 98.3933 378.042 137.327 374.618 150.936Z" fill="#D3D8DC"/>
<path d="M344.606 145.348C344.606 145.348 345.868 136.066 342.488 119.438" stroke="#A8B3BC" stroke-width="0.90125" stroke-miterlimit="10" stroke-linecap="round" stroke-linejoin="round"/>
<path fill-rule="evenodd" clip-rule="evenodd" d="M362.947 162.247V162.292C362.947 162.292 324.733 168.331 322.706 157.335L315.451 157.155L317.163 134.894L324.373 135.255C324.553 135.255 324.688 135.21 324.869 135.21C325.274 135.21 325.68 135.345 326.04 135.525C330.456 129.982 337.847 130.073 344.02 131.199C348.256 131.965 351.816 132.641 354.88 133.182C356.052 132.776 357.269 132.506 358.53 132.416C362.586 132.055 366.416 133.317 369.345 135.705H369.39C372.455 138.184 374.573 141.879 374.933 146.115C375.654 153.866 370.382 160.76 362.947 162.247Z" fill="#D3D8DC"/>
<path fill-rule="evenodd" clip-rule="evenodd" d="M310.809 145.484C311.17 139.266 313.693 134.309 316.487 134.444C319.281 134.579 321.264 139.716 320.903 145.98C320.543 152.199 318.019 157.156 315.225 157.02C312.477 156.84 310.494 151.703 310.809 145.484Z" fill="#A8B3BC"/>
<path fill-rule="evenodd" clip-rule="evenodd" d="M314.82 155.307L308.06 152.783C303.013 156.343 297.831 152.513 297.831 152.513C294.496 151.116 291.342 148.818 288.999 147.241L275.03 149.764C273.678 149.99 272.371 149.133 272.145 147.782C272.055 147.196 272.146 146.655 272.416 146.159L269.532 147.151C268.225 147.601 266.828 146.925 266.377 145.619C266.062 144.672 266.332 143.681 267.008 143.005L266.738 143.095C265.431 143.546 264.034 142.87 263.584 141.563C263.178 140.346 263.719 139.039 264.89 138.499L273.633 134.443L278.004 132.415L278.815 132.055H275.255L265.657 132.01C264.305 132.01 263.178 130.883 263.178 129.531C263.178 128.224 264.169 127.188 265.431 127.053L275.03 126.197C275.03 126.197 283.952 125.746 286.565 125.971C286.565 125.971 290.486 126.197 303.464 134.037C303.464 134.037 313.468 135.389 316.397 135.57C322.165 137.057 317.478 156.524 314.82 155.307Z" fill="#EB967C"/>
<path fill-rule="evenodd" clip-rule="evenodd" d="M311.62 145.258C311.891 139.805 313.964 135.479 316.262 135.614C318.515 135.75 320.137 140.256 319.867 145.708C319.596 151.161 317.524 155.487 315.225 155.352C312.972 155.217 311.35 150.71 311.62 145.258Z" fill="#EB967C"/>
<path d="M272.461 146.16C270.839 146.746 269.532 147.197 269.532 147.197C268.225 147.647 266.828 146.971 266.378 145.664C265.972 144.448 266.513 143.141 267.684 142.6L276.426 138.545L280.798 136.517L281.924 136.021C282.465 135.796 285.169 135.03 285.754 134.895" stroke="black" stroke-width="0.90125" stroke-miterlimit="10" stroke-linecap="round" stroke-linejoin="round"/>
<path d="M283.952 148.187L275.03 149.81C273.678 150.035 272.371 149.179 272.146 147.827C271.92 146.565 272.686 145.348 273.903 144.988C273.903 144.988 286.971 139.671 288.683 140.482" stroke="black" stroke-width="0.90125" stroke-miterlimit="10" stroke-linecap="round" stroke-linejoin="round"/>
<path d="M266.738 143.141C265.431 143.591 264.034 142.915 263.584 141.608C263.178 140.392 263.719 139.085 264.891 138.544L273.633 134.489L278.004 132.461L279.13 131.965C279.671 131.74 283.637 130.478 284.222 130.343" stroke="black" stroke-width="0.90125" stroke-miterlimit="10" stroke-linecap="round" stroke-linejoin="round"/>
<path d="M325.409 135.299C328.113 135.434 330.006 140.391 329.645 146.384C329.33 152.378 326.851 157.109 324.193 156.974" stroke="#A8B3BC" stroke-width="0.90125" stroke-miterlimit="10" stroke-linecap="round" stroke-linejoin="round"/>
<path d="M317.704 134.894C317.704 134.894 321.354 135.209 325.95 135.344C330.006 131.243 334.061 130.568 339.604 130.883C347.85 131.424 351.365 132.46 355.781 133.497" stroke="#A8B3BC" stroke-width="0.90125" stroke-miterlimit="10" stroke-linecap="round" stroke-linejoin="round"/>
<path fill-rule="evenodd" clip-rule="evenodd" d="M309.998 119.346C309.998 119.346 292.559 94.0654 306.483 85.5937C319.641 82.0338 331.177 83.2955 332.619 86.8104C337.621 98.6168 309.998 119.346 309.998 119.346Z" fill="#ED5C18"/>
<path fill-rule="evenodd" clip-rule="evenodd" d="M332.98 87.4421C333.115 90.1458 328.609 92.7144 322.39 93.7508C320.678 94.2015 318.785 94.3817 316.802 94.2015C309.637 94.2465 303.96 92.0835 303.779 89.1094C303.689 87.5773 305.041 86.1353 307.384 84.9186L308.511 63.2886L326.941 66.9386C326.941 66.9386 327.708 77.1678 328.474 83.5216C331.132 84.4679 332.89 85.8198 332.98 87.4421Z" fill="#EB967C"/>
<path fill-rule="evenodd" clip-rule="evenodd" d="M319.506 81.9444C314.414 80.0068 310.358 76.6721 307.97 72.8869L308.466 63.2886L326.896 66.9386C326.896 66.9386 327.662 77.1678 328.429 83.5216C328.564 83.5667 328.654 83.6118 328.789 83.6568C325.815 83.7019 322.661 83.1611 319.506 81.9444Z" fill="#010000"/>
<path fill-rule="evenodd" clip-rule="evenodd" d="M328.924 25.2559C328.924 25.2559 333.34 11.3766 322.796 7.09571C316.262 4.48209 310.494 8.53771 310.494 8.53771C305.942 -0.11429 287.692 -4.35017 277.688 7.50127C264.35 23.3182 275.255 46.8408 288.864 53.9607C288.864 53.9607 283.591 65.1813 292.604 70.5437C300.67 75.3203 314.639 69.3721 322.751 51.978C325.139 46.7958 328.924 25.2559 328.924 25.2559Z" fill="#351015"/>
<path fill-rule="evenodd" clip-rule="evenodd" d="M331.583 12.0972C331.583 12.0972 328.654 20.3887 326.671 24.94C336.855 23.543 340.956 15.3417 331.583 12.0972Z" fill="#351015"/>
<path fill-rule="evenodd" clip-rule="evenodd" d="M335.368 48.5988C335.368 48.5988 331.222 57.431 318.199 57.5662C308.06 57.6563 299.724 49.2297 299.634 38.685C299.544 28.1404 307.655 19.5335 317.794 19.4433C327.933 19.3532 336.27 27.7799 336.36 38.3245C335.999 42.1098 335.368 48.5988 335.368 48.5988Z" fill="#351015"/>
<path fill-rule="evenodd" clip-rule="evenodd" d="M338.703 54.9978C337.621 58.4225 335.774 60.901 333.656 60.6306C333.521 60.6306 333.385 60.5405 333.25 60.4503C331.313 67.9758 326.581 72.2116 322.841 74.4197C321.309 75.321 319.596 75.7716 317.839 75.8166C316.081 75.8166 314.324 75.4111 312.792 74.5549C308.962 72.3919 304.005 68.2011 301.977 60.4954C301.932 60.5404 301.842 60.5404 301.797 60.5404C299.363 60.9009 297.786 58.783 296.569 55.3583C295.353 51.9786 295.984 48.8242 297.426 48.1933C299.138 47.4723 301.436 48.5989 302.608 51.9786C302.698 52.1588 302.743 52.3841 302.788 52.5644H302.923C302.923 52.5644 303.148 46.8865 303.148 38.8654C303.148 35.3956 305.807 33.1875 307.88 31.9258C310.584 30.664 313.828 29.8979 317.343 29.8979C322.255 29.8979 326.671 31.34 329.69 33.6381C331.042 34.8999 332.124 36.6123 332.124 38.8654C332.124 46.8865 332.349 52.0236 332.349 52.0236C333.431 48.5989 335.819 47.4273 337.531 48.1032C338.973 48.689 339.784 51.528 338.703 54.9978Z" fill="#EB967C"/>
<path d="M313.378 42.2895C313.378 42.2895 308.015 39.9913 304.32 43.4611" stroke="black" stroke-width="0.90125" stroke-miterlimit="10" stroke-linecap="round" stroke-linejoin="round"/>
<path d="M320.317 42.2895C320.317 42.2895 325.68 39.9913 329.375 43.4611" stroke="black" stroke-width="0.90125" stroke-miterlimit="10" stroke-linecap="round" stroke-linejoin="round"/>
<path d="M315.045 44.9038C315.541 46.3909 315.856 48.9144 314.459 52.1589C312.657 56.3497 316.442 58.3775 319.326 55.5386" stroke="black" stroke-width="0.90125" stroke-miterlimit="10" stroke-linecap="round" stroke-linejoin="round"/>
<path d="M299.498 52.5649C298.642 53.2409 297.516 56.6656 300.625 57.5669" stroke="black" stroke-width="0.90125" stroke-miterlimit="10" stroke-linecap="round" stroke-linejoin="round"/>
<path d="M298.507 50.0396L301.301 55.7625" stroke="black" stroke-width="0.90125" stroke-miterlimit="10" stroke-linecap="round" stroke-linejoin="round"/>
<path d="M335.368 52.5649C336.224 53.2409 337.351 56.6656 334.242 57.5669" stroke="black" stroke-width="0.90125" stroke-miterlimit="10" stroke-linecap="round" stroke-linejoin="round"/>
<path d="M336.36 50.0396L333.566 55.7625" stroke="black" stroke-width="0.90125" stroke-miterlimit="10" stroke-linecap="round" stroke-linejoin="round"/>
<path fill-rule="evenodd" clip-rule="evenodd" d="M309.592 46.5255C310.268 46.4804 310.899 47.4267 310.944 48.5983C310.989 49.77 310.494 50.7613 309.773 50.7613C309.097 50.8064 308.466 49.8601 308.421 48.6885C308.376 47.5168 308.871 46.5705 309.592 46.5255Z" fill="#010000"/>
<path fill-rule="evenodd" clip-rule="evenodd" d="M324.283 46.5255C324.959 46.4804 325.59 47.4267 325.635 48.5983C325.68 49.77 325.184 50.7613 324.463 50.7613C323.787 50.8064 323.156 49.8601 323.111 48.6885C323.111 47.5168 323.607 46.5705 324.283 46.5255Z" fill="#010000"/>
<path d="M307.069 46.9321H309.863" stroke="black" stroke-width="0.90125" stroke-miterlimit="10" stroke-linecap="round" stroke-linejoin="round"/>
<path d="M324.508 46.9321H327.077" stroke="black" stroke-width="0.90125" stroke-miterlimit="10" stroke-linecap="round" stroke-linejoin="round"/>
<path fill-rule="evenodd" clip-rule="evenodd" d="M317.568 59.773C320.272 59.773 322.886 59.6378 325.184 59.4575C324.012 63.7835 321.038 66.8928 317.568 66.8928C314.099 66.8928 311.125 63.8286 309.953 59.4575C312.251 59.6378 314.82 59.773 317.568 59.773Z" fill="#010000"/>
<path fill-rule="evenodd" clip-rule="evenodd" d="M310.494 59.5032C312.657 59.6834 315.045 59.7735 317.523 59.7735C320.002 59.7735 322.39 59.6834 324.553 59.5032C323.382 61.6211 320.678 63.0631 317.523 63.0631C314.369 63.0631 311.665 61.6211 310.494 59.5032Z" fill="#E0D6DB"/>
</svg>
