<svg width="50" height="50" viewBox="0 0 50 50" fill="none" xmlns="http://www.w3.org/2000/svg">
<circle cx="25" cy="25" r="25" fill="#ED5C18"/>
<path d="M24.625 41.1771H19.0834C12.6813 41.1771 9.82294 38.3187 9.82294 31.9166V26.375C9.82294 19.9729 12.6813 17.1146 19.0834 17.1146H23.4584C24.0563 17.1146 24.5521 17.6104 24.5521 18.2083C24.5521 18.8062 24.0563 19.3021 23.4584 19.3021H19.0834C13.8625 19.3021 12.0104 21.1541 12.0104 26.375V31.9166C12.0104 37.1375 13.8625 38.9896 19.0834 38.9896H24.625C29.8459 38.9896 31.6979 37.1375 31.6979 31.9166V27.5416C31.6979 26.9437 32.1938 26.4479 32.7917 26.4479C33.3896 26.4479 33.8854 26.9437 33.8854 27.5416V31.9166C33.8854 38.3187 31.0271 41.1771 24.625 41.1771Z" fill="white"/>
<path d="M32.7916 28.6354H28.125C24.0271 28.6354 22.3646 26.9729 22.3646 22.875V18.2083C22.3646 17.7708 22.6271 17.3625 23.0354 17.202C23.4437 17.027 23.9104 17.1291 24.2312 17.4354L33.5646 26.7687C33.8708 27.075 33.9729 27.5562 33.7979 27.9645C33.6375 28.3729 33.2291 28.6354 32.7916 28.6354ZM24.5521 20.8479V22.875C24.5521 25.777 25.2229 26.4479 28.125 26.4479H30.1521L24.5521 20.8479Z" fill="white"/>
<path d="M30.75 12.0104H24.9166C24.3187 12.0104 23.8229 11.5146 23.8229 10.9167C23.8229 10.3188 24.3187 9.82294 24.9166 9.82294H30.75C31.3479 9.82294 31.8437 10.3188 31.8437 10.9167C31.8437 11.5146 31.3479 12.0104 30.75 12.0104Z" fill="white"/>
<path d="M18.2083 16.3854C17.6104 16.3854 17.1146 15.8896 17.1146 15.2917C17.1146 12.2729 19.5646 9.82294 22.5833 9.82294H26.4041C27.0021 9.82294 27.4979 10.3188 27.4979 10.9167C27.4979 11.5146 27.0021 12.0104 26.4041 12.0104H22.5833C20.775 12.0104 19.3021 13.4834 19.3021 15.2917C19.3021 15.8896 18.8062 16.3854 18.2083 16.3854Z" fill="white"/>
<path d="M35.9854 33.8854C35.3875 33.8854 34.8917 33.3896 34.8917 32.7917C34.8917 32.1938 35.3875 31.6979 35.9854 31.6979C37.6479 31.6979 38.9896 30.3417 38.9896 28.6938V19.6667C38.9896 19.0688 39.4854 18.5729 40.0833 18.5729C40.6812 18.5729 41.1771 19.0688 41.1771 19.6667V28.6938C41.1771 31.5521 38.8437 33.8854 35.9854 33.8854Z" fill="white"/>
<path d="M40.0833 20.7604H35.7083C31.8291 20.7604 30.2396 19.1708 30.2396 15.2917V10.9167C30.2396 10.4792 30.5021 10.0708 30.9104 9.91042C31.3187 9.73542 31.7854 9.8375 32.1062 10.1438L40.8562 18.8938C41.1625 19.2 41.2646 19.6813 41.0896 20.0896C40.9291 20.4979 40.5208 20.7604 40.0833 20.7604ZM32.4271 13.5563V15.2917C32.4271 17.9604 33.0396 18.5729 35.7083 18.5729H37.4437L32.4271 13.5563Z" fill="white"/>
</svg>
