<svg width="50" height="50" viewBox="0 0 50 50" fill="none" xmlns="http://www.w3.org/2000/svg">
<circle cx="25" cy="25" r="25" fill="#ED5C18"/>
<path d="M24.3037 8.04101C22.2119 8.25976 20.6191 8.7041 18.9033 9.53808C14.4873 11.6777 11.3633 15.9297 10.6318 20.7832C9.95505 25.2812 11.3769 29.9092 14.4463 33.1973C15.0342 33.833 24.5361 42.6309 24.8437 42.8291C25.0009 42.9316 25.1718 42.9658 25.5 42.9658C25.8281 42.9658 25.999 42.9316 26.1562 42.8291C26.4638 42.6377 35.8222 33.9697 36.4853 33.2656C39.4043 30.1895 40.8808 25.8691 40.4638 21.6309C39.958 16.3945 36.7998 11.8281 32.0967 9.53125C30.709 8.85449 29.2666 8.40332 27.7558 8.17089C27.0654 8.06836 24.8642 7.98632 24.3037 8.04101ZM26.7851 10.8096C30.415 11.2061 33.6894 13.1816 35.706 16.1895C36.2187 16.9482 36.9228 18.377 37.1826 19.1768C38.5498 23.4082 37.5927 27.9541 34.6465 31.2285C34.0927 31.8506 25.6093 39.7187 25.5 39.7187C25.3906 39.7187 16.914 31.8506 16.3535 31.2285C12.2451 26.6758 12.1494 19.8262 16.1142 15.1025C18.6982 12.0195 22.7998 10.3721 26.7851 10.8096Z" fill="white"/>
<path d="M22.3008 16.2783C21.9863 16.374 21.5557 16.8252 21.4668 17.1533C21.419 17.3379 21.3984 19.6484 21.4121 24.5566L21.4326 31.6865L21.5967 31.9463C21.6856 32.0898 21.8838 32.2881 22.0342 32.3906C22.2666 32.5479 22.3897 32.5752 22.7656 32.5752C23.1416 32.5752 23.2647 32.5479 23.4971 32.3906C23.6475 32.2881 23.8457 32.0898 23.9346 31.9463C24.0986 31.6865 24.0986 31.6729 24.1191 29.417L24.1397 27.1543L25.9649 27.127C27.8721 27.0928 28.0156 27.0723 28.9316 26.7305C30.1416 26.2793 31.4746 24.9463 31.9258 23.7363C32.2334 22.9229 32.3018 22.5537 32.3018 21.6719C32.3018 20.4824 32.0557 19.6348 31.4541 18.7188C30.6748 17.5293 29.6426 16.791 28.166 16.3535C27.8516 16.2646 27.3457 16.2441 25.1582 16.2305C23.5859 16.2168 22.4375 16.2373 22.3008 16.2783ZM28.043 19.2246C28.665 19.5322 29.0479 19.9287 29.3486 20.5645C29.5469 20.9814 29.5674 21.084 29.5674 21.6787C29.5674 22.2939 29.5537 22.3555 29.3145 22.8477C29.0068 23.4697 28.6104 23.8525 27.9746 24.1533L27.5166 24.3721L25.8281 24.3926L24.1328 24.4199V21.6719V18.9238L25.8281 18.9512L27.5234 18.9717L28.043 19.2246Z" fill="white"/>
</svg>
