<svg width="465" height="474" viewBox="0 0 465 474" fill="none" xmlns="http://www.w3.org/2000/svg">
<path d="M269.216 20.9727H448.153C458.131 20.9727 465.362 29.0711 464.253 39.0013L416.82 459.299C415.904 467.253 408.625 473.761 400.623 473.761H221.638C211.66 473.761 204.429 465.662 205.538 455.732L252.971 35.4341C253.887 27.4803 261.214 20.9727 269.216 20.9727Z" fill="black"/>
<path fill-rule="evenodd" clip-rule="evenodd" d="M441.934 27.1433L257.888 27.8182C257.599 27.8182 250.127 32.3976 250.127 32.6869L200.862 464.217C200.814 464.506 200.476 468.41 200.766 468.41L397.971 468.218C398.261 468.218 405.395 464.554 405.443 464.265L451.768 33.2171C449.165 28.6377 442.224 27.1433 441.934 27.1433Z" fill="#646782"/>
<path fill-rule="evenodd" clip-rule="evenodd" d="M215.805 329.628H419.471L405.106 463.445C405.058 463.734 397.923 467.398 397.634 467.398L200.428 467.591C200.139 467.591 200.476 463.686 200.525 463.397L215.805 329.628Z" fill="#ECE6E8"/>
<path d="M260.588 31.4813C257.936 31.4813 255.141 33.988 254.851 36.6392L207.418 456.937C207.225 458.721 207.659 460.312 208.719 461.468C209.78 462.625 211.274 463.252 213.058 463.252H391.994C394.645 463.252 397.441 460.745 397.73 458.094L445.164 37.7961C445.357 36.0126 444.923 34.4218 443.862 33.2649C442.802 32.108 441.308 31.4813 439.524 31.4813H260.588ZM260.588 20.9727H439.524C449.502 20.9727 456.733 29.0711 455.624 39.0013L408.191 459.299C407.275 467.253 399.996 473.761 391.994 473.761H213.058C203.079 473.761 195.849 465.662 196.957 455.732L244.391 35.4341C245.307 27.4803 252.586 20.9727 260.588 20.9727Z" fill="black"/>
<path fill-rule="evenodd" clip-rule="evenodd" d="M407.757 22.6599H292.789L292.403 34.5183C292.258 39.387 296.163 43.4362 301.032 43.4362H390.741C393.826 43.4362 396.67 41.7972 398.213 39.0978L407.757 22.6599Z" fill="black"/>
<path fill-rule="evenodd" clip-rule="evenodd" d="M281.46 137.773C281.46 147.51 289.318 155.368 299.055 155.368C300.164 155.368 301.224 155.271 302.237 155.079C311.974 153.729 320.555 143.509 321.037 134.977C321.519 126.3 320.988 90.8215 321.181 86.5795C321.519 77.9508 314.722 70.6719 305.997 70.3345C297.272 69.997 289.896 76.6975 289.559 85.3262C289.559 85.519 289.559 85.6636 289.559 85.8082C289.559 85.8082 294.476 109.766 283.726 128.662C282.521 130.735 281.942 132.615 281.846 134.254C281.557 135.411 281.46 136.616 281.46 137.773Z" fill="#ECE6E8"/>
<path fill-rule="evenodd" clip-rule="evenodd" d="M266.228 150.547C270.229 163.322 282.81 170.793 294.283 167.178C295.536 166.792 296.693 166.31 297.802 165.684C298.139 165.587 298.429 165.443 298.718 165.202C298.959 165.009 299.2 164.864 299.393 164.671C300.116 164.189 300.791 163.659 301.417 163.081C311.347 155.127 315.686 147.221 316.409 140.424C316.554 139.557 316.602 138.641 316.602 137.773C316.602 128.47 309.371 120.853 300.26 120.227C296.018 119.648 287.149 118.78 280.834 120.564C280.448 120.66 280.063 120.757 279.725 120.853C268.301 124.469 262.227 137.773 266.228 150.547Z" fill="#ECE6E8"/>
<path fill-rule="evenodd" clip-rule="evenodd" d="M275.579 125.047C269.843 124.902 265.119 130.783 265.071 138.159C265.023 145.534 269.602 151.608 275.387 151.752C281.123 151.897 285.847 146.016 285.895 138.641C285.944 131.265 281.316 125.191 275.579 125.047Z" fill="#ECE6E8"/>
<path fill-rule="evenodd" clip-rule="evenodd" d="M277.411 122.155L283.003 129.289L268.011 147.655L264.155 142.449L277.411 122.155Z" fill="#ECE6E8"/>
<path d="M268.252 147.992C270.084 150.258 272.591 151.704 275.339 151.752C281.075 151.897 285.799 146.016 285.847 138.641C285.895 131.265 280.352 125.191 276.929 121.962" stroke="#C1B6BA" stroke-width="0.964097" stroke-miterlimit="10" stroke-linecap="round" stroke-linejoin="round"/>
<path fill-rule="evenodd" clip-rule="evenodd" d="M271.241 119.262C265.505 119.118 260.781 124.999 260.732 132.374C260.684 139.749 265.264 145.823 271.048 145.968C276.785 146.112 281.509 140.231 281.557 132.856C281.605 125.481 276.977 119.407 271.241 119.262Z" fill="black"/>
<path fill-rule="evenodd" clip-rule="evenodd" d="M241.547 100.414L220.433 106.006L241.547 114.056L248.392 107.067L241.547 100.414Z" fill="#DD7C62"/>
<path fill-rule="evenodd" clip-rule="evenodd" d="M280.111 132.519C280.111 139.123 275.869 144.329 270.711 144.232C268.204 144.184 265.987 142.883 264.348 140.81L238.703 109.043L254.177 101.523L275.869 122.347C276.062 122.54 280.111 126.011 280.111 132.519Z" fill="#DD7C62"/>
<path fill-rule="evenodd" clip-rule="evenodd" d="M225.88 100.414C227.905 101.378 229.881 102.198 232.051 102.873C233.111 103.21 234.22 103.547 235.425 103.788C236.003 103.933 236.63 104.03 237.257 104.078C237.883 104.126 238.703 104.174 238.992 104.222C240.679 104.415 242.27 104.945 243.379 105.668C244.198 106.199 244.777 106.825 245.114 107.452L239.57 113.092C239.57 113.092 243.041 115.888 250.32 112.08C258.419 107.838 254.466 101.716 254.466 101.716C252.297 99.209 249.356 97.6183 246.608 96.9434C243.813 96.2685 241.113 96.3167 238.655 96.7506C237.932 96.847 237.69 96.9434 237.257 97.0398C236.823 97.088 236.389 97.1844 235.955 97.1844C235.039 97.2808 234.075 97.2808 233.111 97.2326C231.135 97.1844 229.11 96.9434 227.134 96.6542H227.037C225.977 96.4613 224.964 97.2326 224.772 98.2931C224.627 99.209 225.109 100.028 225.88 100.414Z" fill="#DD7C62"/>
<path d="M204.622 110.2C210.599 110.827 216.577 111.357 222.554 111.887C225.543 112.128 228.532 112.417 231.568 112.61C233.063 112.707 234.605 112.803 236.1 112.899C237.642 112.996 239.185 113.044 240.872 113.044C243.234 113.044 245.162 111.068 245.162 108.706C245.162 106.344 243.234 104.415 240.872 104.464C240.679 104.464 240.535 104.464 240.342 104.512H240.245C238.992 104.705 237.546 104.849 236.051 104.946C234.605 105.042 233.111 105.138 231.617 105.235C228.676 105.428 225.687 105.524 222.699 105.669C216.721 105.91 210.744 106.102 204.767 106.295C203.706 106.344 202.838 107.211 202.838 108.32C202.887 109.284 203.61 110.103 204.622 110.2Z" fill="#DD7C62"/>
<path d="M206.405 100.897L220.819 110.971C221.012 111.116 221.253 111.212 221.494 111.261L221.686 111.309C223.759 111.694 225.687 111.936 227.712 112.177C229.737 112.418 231.713 112.562 233.738 112.61C235.762 112.659 237.835 112.707 239.908 112.514C241.981 112.321 244.102 112.032 246.223 111.261C247.235 110.875 247.765 109.766 247.428 108.754C247.09 107.79 246.03 107.26 245.066 107.549H245.018C243.427 108.031 241.595 108.176 239.763 108.224C237.931 108.272 236.051 108.127 234.171 107.935C232.292 107.742 230.412 107.452 228.532 107.115C226.652 106.778 224.772 106.392 222.988 105.958L223.856 106.296L208.527 97.6187C207.611 97.0884 206.406 97.4259 205.827 98.3418C205.345 99.2094 205.586 100.318 206.405 100.897Z" fill="#DD7C62"/>
<path d="M217.011 96.799L221.831 108.706C222.072 109.381 222.602 109.814 223.229 110.055L223.566 110.152C224.434 110.441 225.109 110.682 225.928 110.875C226.7 111.116 227.471 111.309 228.194 111.502C229.737 111.887 231.231 112.225 232.774 112.562C235.859 113.189 238.944 113.623 242.077 113.96H242.125C244.584 114.201 246.849 112.417 247.139 109.959C247.428 107.452 245.644 105.235 243.138 104.994C242.848 104.946 242.559 104.946 242.27 104.994C239.378 105.235 236.485 105.38 233.593 105.38C232.147 105.38 230.701 105.331 229.255 105.283C228.532 105.235 226.989 105.09 226.121 105.042C225.929 104.753 225.784 104.56 225.061 103.355C223.181 100.029 220.481 95.1601 220.481 95.1601C219.951 94.196 218.746 93.9068 217.83 94.437C217.011 94.8226 216.625 95.8832 217.011 96.799Z" fill="#DD7C62"/>
<path d="M249.308 101.812C249.308 101.812 245.644 98.1485 239.233 100.511C234.654 102.15 226.073 104.945 226.073 104.945" stroke="black" stroke-width="0.964097" stroke-miterlimit="10" stroke-linecap="round" stroke-linejoin="round"/>
<path d="M217.878 94.3403C217.011 94.8224 216.625 95.8829 217.011 96.7988L221.831 108.705C222.072 109.38 222.602 109.814 223.229 110.055L223.566 110.152C224.434 110.441 225.109 110.682 225.928 110.875C226.7 111.116 227.471 111.308 228.194 111.501C229.737 111.887 231.231 112.224 232.774 112.562" stroke="black" stroke-width="0.964097" stroke-miterlimit="10" stroke-linecap="round" stroke-linejoin="round"/>
<path fill-rule="evenodd" clip-rule="evenodd" d="M311.106 37.507C307.732 26.3717 323.013 34.4219 329.039 39.1942C335.016 43.9664 334.004 55.1982 326.773 64.3089C319.542 73.4196 298.525 81.4216 296.741 73.998C291.873 53.8966 315.686 52.5469 311.106 37.507Z" fill="#4F2827"/>
<path fill-rule="evenodd" clip-rule="evenodd" d="M295.199 97.9559C294.91 98.3415 294.62 98.7272 294.331 99.0646C292.066 102.102 291.198 105.958 292.066 109.621C292.885 112.948 294.669 117.286 298.573 122.299C295.681 129.868 292.548 144.474 301.321 150.403C304.695 152.668 342.825 155.223 355.696 152.379C363.361 150.692 363.843 145.004 359.89 136.568C357.769 132.085 365.337 106.344 368.615 95.5939C372.905 93.3282 375.797 88.797 375.797 83.6391C375.797 76.1673 369.724 70.0935 362.252 70.0935C361.673 70.0935 361.143 70.1417 360.613 70.1899C334.968 70.1899 315.734 70.8166 305.997 70.4309C297.272 70.0935 289.896 76.794 289.559 85.4226C289.366 90.3877 291.583 94.919 295.199 97.9559Z" fill="#ECE6E8"/>
<path d="M315.83 92.4124C314.674 95.6903 313.806 98.7272 313.565 100.848C312.842 107.308 314.047 120.66 316.746 145.92" stroke="#C1B6BA" stroke-width="0.964097" stroke-miterlimit="10" stroke-linecap="round" stroke-linejoin="round"/>
<path d="M301.321 150.403C292.596 144.474 295.729 129.868 298.573 122.3C294.717 117.238 292.885 112.9 292.065 109.622C291.15 105.958 292.066 102.102 294.331 99.0648C296.452 96.2207 300.068 91.4002 305.756 83.9285" stroke="#C1B6BA" stroke-width="0.964097" stroke-miterlimit="10" stroke-linecap="round" stroke-linejoin="round"/>
<path fill-rule="evenodd" clip-rule="evenodd" d="M327.544 4.77606C332.461 1.1607 337.33 -0.622874 341.186 0.196608C344.994 1.01609 347.115 4.34222 347.501 9.0663L327.544 4.77606Z" fill="black"/>
<path fill-rule="evenodd" clip-rule="evenodd" d="M306.431 78.3365C305.081 80.3611 305.322 82 306.961 82.5785C309.998 83.6872 319.831 76.3119 320.892 75.7816C320.892 75.7816 327.448 87.0134 343.259 82.0001C361.818 76.1191 349.815 65.5622 348.562 64.5017C346.633 62.2361 339.644 60.9345 331.304 61.513C322.531 62.0915 315.252 64.5499 313.902 67.2494L306.431 78.3365Z" fill="#ECE6E8"/>
<path fill-rule="evenodd" clip-rule="evenodd" d="M331.111 62.8627C322.242 63.9714 315.156 66.7673 315.348 69.1775C315.493 71.5878 322.82 72.6483 331.69 71.5878C340.559 70.4791 347.646 67.6832 347.453 65.273C347.26 62.8627 339.981 61.754 331.111 62.8627Z" fill="black"/>
<path fill-rule="evenodd" clip-rule="evenodd" d="M315.686 50.378L317.759 69.3707C317.807 70.383 317.807 69.7563 317.807 69.901C317.952 71.9256 323.881 71.2025 331.304 70.1902C338.728 69.1779 344.657 66.7194 344.512 64.6948C344.512 64.502 344.416 64.3092 344.271 64.1164L336.51 38.375L315.686 50.378Z" fill="#DD7C62"/>
<path fill-rule="evenodd" clip-rule="evenodd" d="M316.987 61.8023C332.75 56.8372 333.04 41.6045 333.04 41.6045L315.686 50.1367L316.987 61.8023Z" fill="black"/>
<path fill-rule="evenodd" clip-rule="evenodd" d="M337.426 40.3029C371.796 49.6065 339.017 5.59544 328.123 4.63135C328.123 4.63135 311.878 4.82417 307.491 14.6097C306.527 18.1287 306.72 20.2015 305.467 25.7451C303.49 34.1327 304.647 49.3172 314.577 52.4505C320.41 54.2823 330.87 53.1254 337.426 40.3029Z" fill="#DD7C62"/>
<path fill-rule="evenodd" clip-rule="evenodd" d="M320.892 39.3871C320.892 39.3871 319.59 37.6035 316.939 37.9892C315.3 38.2302 314.915 39.2907 314.915 39.2907C314.915 39.2907 312.311 37.7963 311.974 40.8333C313.613 42.5204 319.157 41.5563 320.892 39.3871Z" fill="#BD4041"/>
<path d="M322.483 37.7C322.483 37.7 318.241 43.3881 312.36 40.7851" stroke="#BD4041" stroke-width="0.964097" stroke-miterlimit="10" stroke-linecap="round" stroke-linejoin="round"/>
<path d="M314.24 20.8765C314.24 20.8765 311.299 18.5627 306.864 20.4909" stroke="black" stroke-width="0.964097" stroke-miterlimit="10" stroke-linecap="round" stroke-linejoin="round"/>
<path d="M311.106 24.733L308.793 23.2869" stroke="black" stroke-width="0.964097" stroke-miterlimit="10" stroke-linecap="round" stroke-linejoin="round"/>
<path d="M325.279 24.9739L322.676 23.7688" stroke="black" stroke-width="0.964097" stroke-miterlimit="10" stroke-linecap="round" stroke-linejoin="round"/>
<path d="M329.424 22.5637C328.026 21.4068 323.977 18.9002 319.349 21.0694" stroke="black" stroke-width="0.964097" stroke-miterlimit="10" stroke-linecap="round" stroke-linejoin="round"/>
<path d="M315.686 23.9133C315.686 23.9133 316.409 27.4323 313.276 30.0835C310.239 32.6384 311.396 36.784 315.686 36.2056" stroke="black" stroke-width="0.964097" stroke-miterlimit="10" stroke-linecap="round" stroke-linejoin="round"/>
<path fill-rule="evenodd" clip-rule="evenodd" d="M325.471 24.829C324.748 24.6844 324.073 25.6003 323.929 26.8054C323.832 28.0105 324.315 29.1192 325.038 29.2157C325.761 29.3603 326.436 28.4444 326.58 27.2393C326.725 26.0341 326.194 24.9254 325.471 24.829Z" fill="black"/>
<path fill-rule="evenodd" clip-rule="evenodd" d="M310.817 24.1542C310.094 24.0096 309.419 24.9255 309.275 26.1306C309.178 27.3357 309.66 28.4444 310.383 28.5408C311.106 28.6855 311.781 27.7696 311.926 26.5644C312.071 25.3593 311.54 24.2988 310.817 24.1542Z" fill="black"/>
<path fill-rule="evenodd" clip-rule="evenodd" d="M363.65 70.0935C363.65 70.0935 358.588 69.9971 352.466 69.9971C342.006 75.0586 341.668 90.918 348.128 94.8708H322.001C317.228 87.0616 317.132 80.8432 319.301 75.9745C313.179 81.9037 312.794 88.0739 320.747 94.7744C283.822 83.9283 317.662 66.7674 337.86 61.8505C340.511 60.9346 342.343 60.5008 342.343 60.5008C342.343 60.5008 330.822 51.2936 337.571 39.6281C340.078 41.267 343.452 39.5317 344.416 38.3265C346.682 35.5307 346.585 31.144 343.982 29.4569C341.379 27.7697 338.342 29.264 336.559 31.0476C336.607 30.9994 336.607 30.9994 336.559 31.0476C336.462 31.144 336.269 31.3368 336.221 31.4333C338.39 22.3707 321.326 17.2128 323.784 8.53596C323.784 8.53596 313.758 7.23443 307.732 14.3205C307.684 11.139 310.721 3.42625 323.543 1.01601C338.487 -1.77987 352.514 6.46315 351.791 21.8887C351.888 22.9974 351.55 24.3471 352.514 26.2753C355.262 32.0117 391.85 56.548 363.65 70.0935ZM320.892 94.919C320.844 94.8708 320.844 94.8708 320.796 94.8226C320.844 94.8708 320.892 94.8708 320.94 94.919H320.892Z" fill="#4F2827"/>
<path d="M310.431 49.2692C310.431 49.2692 335.546 53.6077 342.488 35.4827" stroke="black" stroke-width="0.964097" stroke-miterlimit="10" stroke-linecap="round" stroke-linejoin="round"/>
<path fill-rule="evenodd" clip-rule="evenodd" d="M308.166 47.5339H311.829C312.89 47.5339 313.758 48.4016 313.758 49.4621C313.758 49.9924 313.565 50.4262 313.227 50.7637C313.179 50.8119 312.312 51.6795 312.263 51.7278C311.926 52.017 312.263 51.3903 311.829 51.3903H308.166C307.105 51.3903 306.238 50.5226 306.238 49.4621C306.238 49.1247 305.659 49.4139 305.804 49.1247C305.9 48.9319 306.768 48.1124 306.961 47.9678C307.25 47.7268 307.684 47.5339 308.166 47.5339Z" fill="black"/>
<path fill-rule="evenodd" clip-rule="evenodd" d="M307.298 48.4014H310.962C312.022 48.4014 312.89 49.2691 312.89 50.3296C312.89 51.3901 312.022 52.2578 310.962 52.2578H307.298C306.238 52.2578 305.37 51.3901 305.37 50.3296C305.37 49.2691 306.238 48.4014 307.298 48.4014Z" fill="black"/>
<path fill-rule="evenodd" clip-rule="evenodd" d="M346.151 33.2169L340.029 31.9154C340.367 31.2887 340.752 30.7102 341.09 30.0836C347.549 18.2252 348.706 7.23449 344.705 2.414C343.837 1.3535 342.825 0.823242 342.825 0.823242L348.031 3.3299V3.3781C354.346 6.80064 353.864 19.2375 346.489 32.783C346.344 32.8313 346.248 33.0241 346.151 33.2169Z" fill="#22283E"/>
<path fill-rule="evenodd" clip-rule="evenodd" d="M346.392 25.1187C349.767 27.5289 350.297 32.5904 347.549 36.3504C344.802 40.1586 339.885 41.2191 336.51 38.8088C333.136 36.3986 332.606 31.3371 335.353 27.5771C338.053 23.8171 343.018 22.7084 346.392 25.1187Z" fill="black"/>
<path fill-rule="evenodd" clip-rule="evenodd" d="M346.44 35.3379C345.573 36.4948 344.416 37.3143 343.211 37.6517C343.114 37.9409 342.922 38.2301 342.632 38.6158C338.728 44.2558 334.775 46.907 334.775 46.907L333.281 45.4609L333.04 44.4968C333.04 44.4968 332.847 44.6896 334.775 42.2793C337.137 39.3389 337.812 36.9768 337.956 35.6271C336.896 33.8917 336.992 31.4333 338.39 29.5051C340.174 26.9984 343.452 26.2753 345.669 27.8661C347.887 29.5051 348.272 32.8312 346.44 35.3379Z" fill="#22283E"/>
<path fill-rule="evenodd" clip-rule="evenodd" d="M357.721 300.32C356.371 311.407 355.166 321.578 354.202 329.628H319.832L321.953 210.418L297.368 329.628H261.552L278.375 197.258C278.424 197.21 282.955 170.119 302.14 161.731C318.867 154.452 320.988 154.211 320.988 154.211L355.407 160.429C355.407 160.429 364.855 170.119 368.133 189.449C369.675 198.608 368.663 209.647 368.663 209.647C368.663 209.647 362.493 260.454 357.721 300.32Z" fill="#ED5C18"/>
<path fill-rule="evenodd" clip-rule="evenodd" d="M300.309 162.84C297.513 164.431 288.113 169.926 283.485 183.375C295.585 197.644 357.913 189.401 365.867 180.724C364.951 173.782 359.649 165.298 355.937 160.381V146.498V146.45C355.937 144.04 343.693 142.931 328.557 143.895C313.42 144.908 301.176 147.655 301.176 150.017C301.176 150.162 301.224 150.258 301.273 150.403L300.309 162.84Z" fill="#ED5C18"/>
<path d="M315.3 203.718L293.849 320.084" stroke="#CC2818" stroke-width="0.964097" stroke-miterlimit="10" stroke-linecap="round" stroke-linejoin="round"/>
<path d="M304.213 161.635C304.213 161.635 298.188 178.362 282.521 184.917" stroke="#CC2818" stroke-width="0.964097" stroke-miterlimit="10" stroke-linecap="round" stroke-linejoin="round"/>
<path d="M322.772 145.052V157.73L321.519 201.789C321.519 201.789 308.889 196.294 312.842 177.349C316.216 161.345 315.348 158.983 315.348 158.983" stroke="#CC2818" stroke-width="0.964097" stroke-miterlimit="10" stroke-linecap="round" stroke-linejoin="round"/>
<path d="M338.969 157.103C338.969 157.103 338.969 179.567 360.806 186.653" stroke="#CC2818" stroke-width="0.964097" stroke-miterlimit="10" stroke-linecap="round" stroke-linejoin="round"/>
<path d="M348.513 144.184V157.248C352.032 161.924 356.949 169.781 358.251 176.53C359.167 179.422 359.986 182.7 360.613 186.267C362.155 195.426 361.143 206.465 361.143 206.465C361.143 206.465 355.021 257.321 350.249 297.186C348.754 309.816 347.405 320.71 346.392 329.146" stroke="#CC2818" stroke-width="0.964097" stroke-miterlimit="10" stroke-linecap="round" stroke-linejoin="round"/>
<path d="M356.226 160.092V160.044C356.226 157.585 343.645 156.429 328.123 157.441C312.601 158.453 300.019 161.297 300.019 163.756" stroke="#CC2818" stroke-width="0.964097" stroke-miterlimit="10" stroke-linecap="round" stroke-linejoin="round"/>
<path fill-rule="evenodd" clip-rule="evenodd" d="M321.712 201.645L313.902 201.982C313.902 201.982 313.324 205.935 315.011 211.43C316.505 216.299 319.928 220.493 319.928 220.493L321.663 209.888L321.712 201.645Z" fill="#CC2818"/>
<path fill-rule="evenodd" clip-rule="evenodd" d="M398.213 178.362C398.213 178.362 398.261 178.844 398.261 179.085C398.261 180.868 391.994 182.266 384.33 182.266C376.665 182.266 370.495 180.82 370.495 179.037C370.398 179.181 370.495 178.892 370.495 179.037L368.036 164.479H368.085C368.085 164.431 368.085 164.431 368.085 164.382C368.085 162.599 374.303 161.153 381.919 161.153C389.536 161.153 395.754 162.599 395.754 164.382C395.754 164.479 395.706 164.575 395.706 164.672L398.213 178.362Z" fill="#ECE6E8"/>
<path fill-rule="evenodd" clip-rule="evenodd" d="M350.827 90.9663C357.046 103.982 363.312 112.9 363.891 133.001C364.228 145.245 356.853 149.632 361.143 160.429C366.687 174.264 405.009 176.096 403.611 153.584C402.117 129.434 379.461 87.0135 374.592 78.0956C372.471 73.3715 367.747 70.0454 362.204 70.0454C354.732 70.0454 348.658 76.1192 348.658 83.591C348.658 86.3386 349.477 88.8453 350.827 90.9663Z" fill="#ECE6E8"/>
<path d="M367.988 164.527H368.036C368.036 164.479 368.036 164.479 368.036 164.43C368.036 162.647 374.255 161.201 381.871 161.201C389.487 161.201 395.706 162.647 395.706 164.43C395.706 164.527 395.658 164.623 395.658 164.72" stroke="#C1B6BA" stroke-width="0.964097" stroke-miterlimit="10" stroke-linecap="round" stroke-linejoin="round"/>
<path fill-rule="evenodd" clip-rule="evenodd" d="M384.33 176.482C391.271 176.482 396.911 177.832 396.911 179.471C396.911 181.11 391.271 182.459 384.33 182.459C377.388 182.459 371.748 181.11 371.748 179.471C371.7 177.832 377.34 176.482 384.33 176.482Z" fill="black"/>
<path fill-rule="evenodd" clip-rule="evenodd" d="M388.62 219.914C391.801 222.228 400.285 225.988 405.443 229.266L407.179 230.616C408.143 231.387 409.492 231.291 410.167 230.375C410.794 229.555 410.649 228.302 409.83 227.531C409.83 227.531 404.817 223.674 401.394 217.6L413.686 217.504L414.072 217.649C414.168 217.697 414.265 217.745 414.409 217.793C414.602 217.89 414.843 218.034 415.036 218.131C415.422 218.372 415.807 218.709 416.145 219.047C416.482 219.384 416.771 219.818 417.012 220.252L417.109 220.445L417.253 220.686L417.494 221.216L418.025 222.228L423.857 235.388C424.484 236.593 425.93 237.172 427.135 236.69C428.244 236.208 428.678 234.954 428.244 233.797L423.327 220.3L422.942 219.239L422.749 218.709L422.652 218.468L422.508 218.131C422.122 217.167 421.592 216.299 420.965 215.431C420.339 214.612 419.615 213.84 418.796 213.117C418.41 212.78 417.977 212.443 417.494 212.153C417.253 212.009 417.061 211.864 416.82 211.719L416.193 211.382L393.151 199.042C393.103 198.993 393.103 198.945 393.103 198.945C393.488 198.945 386.451 196.246 386.306 196.101C373.098 208.586 388.572 219.866 388.62 219.914Z" fill="#DE7C62"/>
<path d="M432.968 228.591L424.581 216.974L423.906 216.058L423.568 215.624L423.375 215.383L423.134 215.094C422.508 214.274 421.737 213.551 420.917 212.925C420.098 212.298 419.182 211.768 418.169 211.334C417.687 211.141 417.205 210.948 416.675 210.755C416.434 210.659 416.145 210.611 415.904 210.563L415.181 210.418L388.813 204.585C384.281 203.573 383.221 213.744 392.042 218.806L414.506 216.926L414.94 216.974C415.036 216.974 415.181 217.022 415.277 217.022C415.518 217.07 415.759 217.118 415.952 217.167C416.386 217.311 416.868 217.504 417.302 217.745C417.736 217.986 418.121 218.275 418.459 218.661L418.603 218.806L418.796 218.998L419.182 219.432L419.953 220.252L429.16 231.339C430.076 232.351 431.667 232.496 432.631 231.676C433.595 230.905 433.691 229.604 432.968 228.591Z" fill="#DE7D62"/>
<path d="M399.9 217.648C406.118 217.6 413.735 217.504 413.735 217.504L414.12 217.648C414.217 217.697 414.313 217.745 414.458 217.793C414.65 217.889 414.891 218.034 415.084 218.131C415.47 218.372 415.856 218.709 416.193 219.046C416.53 219.384 416.82 219.818 417.061 220.252L417.157 220.444L417.302 220.685L417.543 221.216L418.073 222.228L423.906 235.388C424.532 236.593 425.979 237.171 427.184 236.689C428.292 236.207 428.726 234.954 428.292 233.797L423.376 220.3L422.99 219.239L422.797 218.709L422.701 218.468L422.556 218.131C422.17 217.166 421.64 216.299 421.014 215.431C420.387 214.612 419.664 213.84 418.844 213.117C418.459 212.78 418.025 212.442 417.543 212.153C417.302 212.008 417.109 211.864 416.868 211.719L416.241 211.382" stroke="black" stroke-width="0.964097" stroke-miterlimit="10" stroke-linecap="round" stroke-linejoin="round"/>
<path fill-rule="evenodd" clip-rule="evenodd" d="M381.341 209.743H398.646L394.935 179.904V179.856C394.935 178.506 390.307 177.446 384.571 177.446C378.834 177.446 374.207 178.506 374.207 179.856L374.255 180.049V180.097L381.341 209.743Z" fill="#DD7C62"/>
<path d="M354.973 99.3057C362.204 113.478 363.409 122.299 363.891 132.23" stroke="#C1B6BA" stroke-width="0.964097" stroke-miterlimit="10" stroke-linecap="round" stroke-linejoin="round"/>
<path fill-rule="evenodd" clip-rule="evenodd" d="M317.421 295.017C335.161 295.017 347.549 310.491 345.091 329.58C342.632 348.669 326.243 364.143 308.455 364.143C290.716 364.143 278.327 348.669 280.786 329.58C283.292 310.539 299.682 295.017 317.421 295.017Z" fill="#ECE6E8"/>
<path fill-rule="evenodd" clip-rule="evenodd" d="M254.273 375.327C265.553 375.327 273.41 385.16 271.819 397.26C270.229 409.359 259.865 419.193 248.585 419.193C237.305 419.193 229.447 409.359 231.038 397.26C232.629 385.16 243.041 375.327 254.273 375.327Z" fill="#3C4FFF"/>
<path fill-rule="evenodd" clip-rule="evenodd" d="M311.637 375.327C322.917 375.327 330.774 385.16 329.183 397.26C327.592 409.359 317.228 419.193 305.948 419.193C294.668 419.193 286.811 409.359 288.402 397.26C289.944 385.16 300.357 375.327 311.637 375.327Z" fill="#34A200"/>
<path fill-rule="evenodd" clip-rule="evenodd" d="M369.145 375.327C380.425 375.327 388.282 385.16 386.692 397.26C385.101 409.359 374.737 419.193 363.457 419.193C352.177 419.193 344.32 409.359 345.91 397.26C347.501 385.16 357.913 375.327 369.145 375.327Z" fill="#3B4FFF"/>
<path fill-rule="evenodd" clip-rule="evenodd" d="M261.889 401.695L257.454 400.2L258.177 394.175L262.95 392.68L261.889 401.695ZM256.346 400.441C256.201 401.791 254.996 402.851 253.646 402.851H242.993C241.643 402.851 240.727 401.791 240.872 400.441L241.643 393.982C241.788 392.632 242.993 391.572 244.343 391.572H254.996C256.346 391.572 257.262 392.632 257.117 393.982L256.346 400.441Z" fill="#FEFFFF"/>
<path d="M314.336 392.488L313.95 396.248C313.661 398.947 311.299 401.116 308.6 401.116H307.828C305.177 401.116 303.201 398.947 303.49 396.248L303.876 392.488" stroke="white" stroke-width="1.44615" stroke-miterlimit="10" stroke-linecap="round" stroke-linejoin="round"/>
<path fill-rule="evenodd" clip-rule="evenodd" d="M311.492 396.296C311.347 397.646 310.142 398.706 308.841 398.706H308.118C306.768 398.706 305.804 397.646 305.949 396.296L306.672 389.161C306.816 387.812 308.021 386.751 309.323 386.751H310.046C311.396 386.751 312.36 387.812 312.215 389.161L311.492 396.296ZM306.431 400.923H310.287L309.95 404.057H310.721C311.733 404.057 312.456 404.876 312.36 405.889L312.215 407.142H303.008L303.153 405.889C303.249 404.876 304.165 404.057 305.177 404.057H306.141L306.431 400.923Z" fill="#FEFFFF"/>
<path fill-rule="evenodd" clip-rule="evenodd" d="M376.087 393.259L375.171 401.02C375.074 401.984 374.496 402.852 373.676 403.334L365.433 407.961L366.012 403.864H359.167C357.576 403.864 356.419 402.562 356.612 400.972L357.528 393.211C357.721 391.62 359.167 390.318 360.757 390.318H373.532C375.123 390.367 376.231 391.668 376.087 393.259Z" fill="#FEFFFF"/>
<path d="M360.275 398.465H366.928" stroke="#7581F1" stroke-width="1.44615" stroke-miterlimit="10" stroke-linecap="round" stroke-linejoin="round"/>
<path d="M360.613 394.946H372.423" stroke="#7581F1" stroke-width="1.44615" stroke-miterlimit="10" stroke-linecap="round" stroke-linejoin="round"/>
<path fill-rule="evenodd" clip-rule="evenodd" d="M316.505 302.248C330.533 302.248 340.367 314.492 338.39 329.628C336.414 344.716 323.447 357.009 309.419 357.009C295.392 357.009 285.558 344.765 287.534 329.628C289.462 314.492 302.429 302.248 316.505 302.248Z" fill="#EF113B"/>
<path fill-rule="evenodd" clip-rule="evenodd" d="M322.434 334.063L318.385 330.159C317.951 329.725 317.807 329.098 318 328.472L318.482 326.833C316.843 326.399 315.107 326.158 313.324 326.158C311.54 326.158 309.757 326.399 308.021 326.833L308.118 328.472C308.166 329.098 307.877 329.773 307.298 330.159L302.333 334.063C301.658 334.594 300.742 334.545 300.212 333.967L296.789 330.014C296.115 329.243 296.356 327.99 297.271 327.315C301.996 323.796 307.78 321.723 313.806 321.723C319.831 321.723 325.086 323.844 329.038 327.315C329.81 327.99 329.762 329.243 328.894 330.014L324.604 333.967C323.929 334.594 322.965 334.594 322.434 334.063Z" fill="#FEFFFF"/>
<path fill-rule="evenodd" clip-rule="evenodd" d="M52.4875 128.566C44.9676 125.288 38.3153 123.794 37.6404 125.24C36.9174 126.686 42.4127 130.542 49.9327 133.82C57.4526 137.098 64.0567 138.737 64.7798 137.291C65.5028 135.845 60.0075 131.844 52.4875 128.566Z" fill="#D8912B"/>
<path fill-rule="evenodd" clip-rule="evenodd" d="M62.3695 137.147C62.3213 137.243 62.2249 137.291 62.1285 137.388L51.6198 160.285C50.2219 165.346 45.4014 168.962 39.8579 168.576C34.3625 168.19 29.8795 163.756 29.3974 158.26C29.2046 156.284 29.5902 154.404 30.3133 152.717C30.6989 151.849 31.0846 150.933 31.4702 150.017L40.0989 127.554C40.0989 127.457 40.0989 127.361 40.1471 127.313C40.7256 126.108 46.1727 127.361 52.3429 130.06C58.4167 132.712 62.948 135.99 62.3695 137.147Z" fill="#DE7C62"/>
<path fill-rule="evenodd" clip-rule="evenodd" d="M66.0813 188.34L51.427 202.705L31.5184 163.9C30.1687 162.02 29.3492 159.706 29.3492 157.248C29.3492 150.981 34.4589 145.871 40.7255 145.871C45.6424 145.871 49.788 148.956 51.3788 153.343L51.4752 153.295L66.0813 188.34Z" fill="#DE7C62"/>
<path fill-rule="evenodd" clip-rule="evenodd" d="M76.9274 112.321L77.6023 112.755L64.8762 137.195C64.5387 135.507 59.3808 131.94 52.5357 128.903C45.7871 125.963 39.3758 124.42 37.6887 125.192L51.7163 95.9313C54.1747 90.8698 59.3808 87.3508 65.3582 87.3508C73.7459 87.3508 80.4945 94.1477 80.4945 102.487C80.4945 106.295 79.1448 109.67 76.9274 112.321Z" fill="#FCC670"/>
<path fill-rule="evenodd" clip-rule="evenodd" d="M80.6873 55.825L97.8483 56.2588L105.513 96.2688L76.8792 93.8104L80.6873 55.825Z" fill="#DE7C62"/>
<path fill-rule="evenodd" clip-rule="evenodd" d="M119.01 52.4021C119.01 52.2575 118.866 53.7518 118.769 54.6677C117.419 68.4543 114.286 71.6358 110.382 71.443C101.946 70.9609 89.4606 63.9712 86.0863 54.1857C82.3745 43.4842 82.712 35.9642 88.0627 41.0257C88.0627 41.0257 92.5457 18.7069 113.081 27.1427C113.081 27.1427 116.263 30.8063 117.371 34.3253C119.203 40.1098 118.48 44.4001 118.48 44.4001C118.48 44.4001 127.687 49.1241 119.01 52.4021Z" fill="#DE7C62"/>
<path d="M95.7755 45.7981C93.7991 45.5571 91.4852 50.8114 96.4985 51.6309" stroke="black" stroke-width="0.964097" stroke-miterlimit="10" stroke-linecap="round" stroke-linejoin="round"/>
<path d="M92.5457 44.304C92.5457 44.304 96.4985 45.2198 98.2821 48.6424" stroke="black" stroke-width="0.964097" stroke-miterlimit="10" stroke-linecap="round" stroke-linejoin="round"/>
<path d="M114.093 41.8456L116.745 40.3994" stroke="black" stroke-width="0.964097" stroke-miterlimit="10" stroke-linecap="round" stroke-linejoin="round"/>
<path d="M117.082 35.9162C117.082 35.9162 112.406 35.1449 109.707 40.7849" stroke="black" stroke-width="0.964097" stroke-miterlimit="10" stroke-linecap="round" stroke-linejoin="round"/>
<path fill-rule="evenodd" clip-rule="evenodd" d="M114.624 41.0258C113.9 40.8812 113.226 41.7971 113.081 43.0022C112.985 44.2073 113.467 45.316 114.19 45.4124C114.913 45.557 115.588 44.6411 115.732 43.436C115.877 42.2309 115.347 41.1704 114.624 41.0258Z" fill="black"/>
<path d="M114.624 55.4392C114.624 55.4392 116.07 57.5602 118.287 57.7048" stroke="black" stroke-width="0.964097" stroke-miterlimit="10" stroke-linecap="round" stroke-linejoin="round"/>
<path fill-rule="evenodd" clip-rule="evenodd" d="M117.516 34.8076L113.274 28.0107C113.515 29.3605 109.707 41.8455 98.9088 44.8824C98.8606 44.786 98.6678 44.5932 98.5714 44.4968C98.5232 44.4486 98.5232 44.4486 98.5714 44.4968C96.7878 42.7132 93.4134 40.7368 90.955 42.665C86.4237 46.2322 88.2073 52.8362 93.6545 54.0413C94.4258 54.1378 94.9078 54.1378 94.9078 54.1378C128.989 76.3602 91.4853 76.1674 89.7981 76.2156C93.1242 72.8894 95.6791 63.5377 91.196 55.1983C92.7386 62.3326 88.3519 71.3951 84.1099 75.3961C75.7223 77.4689 62.3695 74.5284 54.705 71.4915C44.1481 53.4629 62.6588 52.4506 64.2977 40.3994C62.9962 36.0609 63.2372 31.2405 66.6598 26.4682C63.4782 25.8897 60.2967 24.781 57.549 22.8528C50.2219 17.7431 55.6208 6.31856 65.9849 10.0303L62.2249 2.36576C72.2033 -0.815754 71.8659 3.57089 70.0823 7.52368C72.8782 4.7278 75.3366 3.13704 77.9397 3.76371C82.7602 4.92062 84.3509 10.2231 84.7366 15.3811C94.956 13.6457 104.693 17.7431 108.935 21.7441C116.504 21.5513 118.673 23.6723 119.251 25.2631C120.312 26.8538 120.071 29.7461 117.516 34.8076Z" fill="#4F2827"/>
<path fill-rule="evenodd" clip-rule="evenodd" d="M85.797 18.3214C81.6996 29.8424 68.2987 28.4444 68.2987 28.4444L63.43 25.6485C63.43 25.6485 79.2894 24.588 85.074 14.2722C85.1222 14.224 85.556 16.0076 85.797 18.3214Z" fill="#7581F0"/>
<path fill-rule="evenodd" clip-rule="evenodd" d="M142.197 105.428C142.197 109.091 140.895 112.417 138.774 115.02C140.124 120.034 139.594 124.565 139.594 124.565C139.594 124.565 135.255 142.835 131.206 159.128C129.567 165.684 124.072 166.551 124.072 166.551L70.1305 159.803C70.1305 159.803 63.9602 157.151 64.4905 150.74C65.5028 138.014 61.5018 120.226 60.7305 116.997C54.6085 115.02 50.2219 109.332 50.2219 102.583C50.2219 95.7866 54.6567 90.0984 60.7787 88.122C77.313 81.2287 107.586 79.3487 133.616 91.7856C133.664 91.7856 133.664 91.8338 133.713 91.8338C138.726 94.2922 142.197 99.4502 142.197 105.428Z" fill="#FCC670"/>
<path fill-rule="evenodd" clip-rule="evenodd" d="M114.334 84.2175C107.489 83.398 94.6185 102.005 87.3878 119.214C78.7591 139.749 71.673 158.405 71.673 158.405L82.4709 159.851C82.4709 159.851 90.2801 141.196 98.9088 120.66C105.031 106.006 113.9 91.7857 120.649 88.1703C121.854 87.5437 126.916 89.3272 127.928 89.5201C127.446 87.6883 126 85.6155 114.334 84.2175Z" fill="#2C7A6E"/>
<path fill-rule="evenodd" clip-rule="evenodd" d="M62.4177 85.7601C62.4177 85.7601 52.5357 93.6657 67.2381 116.226C80.8801 137.195 99.8728 160.429 99.8728 160.429L114.961 162.84C114.961 162.84 91.0995 134.495 77.4094 113.526C66.8525 97.3292 68.9735 88.7488 71.0463 85.1816C73.3601 84.7478 74.9027 84.4104 74.9027 84.4104C74.9027 84.4104 74.3242 82.2893 69.6484 83.5427C65.5992 84.555 62.4177 85.7601 62.4177 85.7601Z" fill="#2C7A6E"/>
<path d="M70.1305 159.754C70.1305 159.754 63.9603 157.103 64.4905 150.692C65.2618 140.858 63.0444 127.987 61.6464 121.142" stroke="#D8912B" stroke-width="0.964097" stroke-miterlimit="10" stroke-linecap="round" stroke-linejoin="round"/>
<path fill-rule="evenodd" clip-rule="evenodd" d="M124.168 177.349C127.253 180.675 136.123 192.437 133.472 207.236C97.2697 241.413 53.3551 209.55 52.3911 193.257C53.4034 178.603 65.9366 171.131 68.6361 169.974L69.8412 158.935V158.887C70.1304 156.476 82.5673 156.043 97.6554 157.971C112.743 159.899 124.747 163.418 124.505 165.828C124.505 165.973 124.409 166.069 124.361 166.214L124.168 177.349Z" fill="#54B4A6"/>
<path fill-rule="evenodd" clip-rule="evenodd" d="M115.636 245.173C130.387 245.896 142.245 248.355 142.1 250.669C142.004 252.982 129.953 254.284 115.202 253.561C100.451 252.838 88.593 250.379 88.7376 248.066C88.8822 245.752 100.885 244.45 115.636 245.173Z" fill="#2C7A6E"/>
<path fill-rule="evenodd" clip-rule="evenodd" d="M165.817 457.853C164.853 459.058 165.865 459.733 161.238 462.047C153.766 467.542 135.448 472.748 120.456 470.145C113.997 469.037 109.225 472.122 99.198 472.989C93.0278 473.52 89.2196 471.158 88.3037 469.904C86.2309 460.745 92.9314 446.525 92.9314 446.525C92.9314 446.525 98.1857 444.597 103.922 450.574C108.984 452.936 113.37 451.008 113.274 446.429L142.39 455.539L165.383 453.949L165.817 457.853Z" fill="black"/>
<path fill-rule="evenodd" clip-rule="evenodd" d="M93.799 397.26C94.4257 378.46 94.9078 360.528 95.2934 349.151C96.1129 326.784 100.258 324.615 98.5713 306.972C91.9191 237.798 92.5457 216.058 92.5457 216.058C92.5457 216.058 110.623 213.021 111.442 213.069C118.866 214.274 115.877 198.8 125.855 202.271C124.939 196.872 135.544 224.879 135.544 224.879C135.544 224.879 125.759 331.123 120.987 397.501C112.695 403.671 107.875 408.25 93.799 397.26Z" fill="#DE7C62"/>
<path fill-rule="evenodd" clip-rule="evenodd" d="M132.652 256.598L131.11 273.47C127.494 272.072 120.36 269.613 110.671 267.348C105.224 266.094 98.9569 265.227 94.9077 264.793C94.6667 261.852 94.4739 259.105 94.3293 256.501L132.652 256.598Z" fill="#C2644C"/>
<path fill-rule="evenodd" clip-rule="evenodd" d="M117.227 449.707C117.227 449.707 116.455 450.912 115.154 452.503H93.9918C89.0268 446.525 93.8472 442.862 91.919 441.319C92.6903 428.063 93.317 412.348 93.799 397.212C95.3898 398.272 101.03 399.092 107.682 399.092C113.708 399.092 118.817 398.465 120.987 397.549L117.227 449.707Z" fill="#DFD7DA"/>
<path d="M93.558 405.021C94.8596 406.081 100.451 406.901 107.345 406.901C113.9 406.901 118.866 406.226 120.456 405.262" stroke="#54B4A6" stroke-width="0.964097" stroke-miterlimit="10" stroke-linecap="round" stroke-linejoin="round"/>
<path fill-rule="evenodd" clip-rule="evenodd" d="M165.673 453.756C164.708 454.961 165.721 455.636 161.093 457.95C153.621 463.445 135.303 468.651 120.312 466.048C113.852 464.939 109.08 468.024 99.0534 468.892C92.8832 469.422 89.075 467.06 88.1591 465.807C86.0863 456.648 91.8709 441.078 91.8709 441.078C91.8709 441.078 97.9929 440.499 103.778 446.477C108.839 448.839 116.889 445.223 117.902 440.114L142.245 451.442C142.245 451.442 146.632 452.117 155.791 450.96C163.166 449.948 165.673 453.756 165.673 453.756Z" fill="#54B4A6"/>
<path d="M128.024 444.838C129.085 445.898 129.567 447.055 129.663 448.79" stroke="black" stroke-width="0.964097" stroke-miterlimit="10" stroke-linecap="round" stroke-linejoin="round"/>
<path d="M119.878 441.512C119.878 441.512 123.879 442.669 124.216 448.839" stroke="black" stroke-width="0.964097" stroke-miterlimit="10" stroke-linecap="round" stroke-linejoin="round"/>
<path fill-rule="evenodd" clip-rule="evenodd" d="M91.3406 255.827L91.0514 257.466C91.0032 257.562 91.0514 257.707 90.955 257.707C100.692 257.948 112.888 262.431 131.351 259.105L138.292 257.803L134.002 200.584C134.002 200.584 115.106 194.221 104.452 199.427C94.8596 204.151 88.2555 215.865 88.2555 215.865L91.3406 255.827Z" fill="#54B4A6"/>
<path fill-rule="evenodd" clip-rule="evenodd" d="M86.2791 259.104H86.4719C86.3755 259.249 86.3273 259.394 86.3273 259.538C86.4719 261.756 99.3426 263.925 115.106 264.359C130.869 264.793 143.113 263.539 142.968 261.274C142.823 258.96 142.92 255.248 142.775 250.717C142.872 250.042 141.811 249.319 139.883 248.644C140.751 249.03 141.184 249.463 141.136 249.849C140.895 251.584 131.977 252.693 120.215 252.597C118.866 252.597 117.468 252.549 116.021 252.5C115.636 252.5 115.202 252.452 114.768 252.452C100.499 251.97 89.1231 249.945 89.4124 247.969C89.4606 247.535 89.557 247.005 90.6175 246.668V246.427C88.5929 246.909 88.2555 247.198 87.7734 248.355C87.0985 251.681 86.2791 259.104 86.2791 259.104Z" fill="#8ED3C9"/>
<path d="M119.589 162.599L119.444 174.409C122.047 177.205 128.699 188.051 129.133 199.62C129.181 199.62 129.181 199.62 129.181 199.62L132.893 263.781" stroke="#39A08F" stroke-width="0.964097" stroke-miterlimit="10" stroke-linecap="round" stroke-linejoin="round"/>
<path d="M139.883 248.981C140.751 249.367 141.184 249.801 141.136 250.187C140.895 251.922 131.977 253.031 120.215 252.934C118.866 252.934 117.468 252.886 116.021 252.838C115.636 252.838 115.202 252.79 114.768 252.79C100.499 252.308 89.1231 250.283 89.4124 248.307C89.4606 247.873 89.6052 247.439 90.5693 247.053" stroke="#4EB0A1" stroke-width="0.964097" stroke-miterlimit="10" stroke-linecap="round" stroke-linejoin="round"/>
<path fill-rule="evenodd" clip-rule="evenodd" d="M61.8392 239.485C76.6863 242.088 88.4 245.993 87.9662 248.307C87.5805 250.572 75.2401 250.331 60.393 247.777C45.5459 245.173 35.4229 241.703 35.8086 239.437C36.2424 237.075 46.9921 236.882 61.8392 239.485Z" fill="#2C7A6E"/>
<path fill-rule="evenodd" clip-rule="evenodd" d="M56.9224 456.504C56.1511 457.901 54.5604 461.083 49.7881 463.252C43.9553 465.952 38.8456 467.494 32.2415 465.952C25.6375 464.409 23.7575 470.338 14.3575 470.628C5.24682 470.917 1.1012 469.085 0.0406957 467.542C-0.00750918 466.048 -0.00750623 464.602 0.0889034 463.204C11.9473 455.829 56.9706 453.226 56.9706 453.226C56.9706 453.226 56.9224 454.624 56.9224 456.504Z" fill="black"/>
<path fill-rule="evenodd" clip-rule="evenodd" d="M16.5749 395.476C20.2867 375.616 23.8056 356.43 26.023 344.957C30.2651 323.072 36.3389 322.687 37.3512 305.044C41.3522 235.87 46.8957 217.793 46.8957 217.793C46.8957 217.793 61.9356 213.503 62.7551 213.744C69.8894 216.202 69.311 200.439 78.6627 205.501C78.5663 200.006 78.952 254.814 78.952 254.814C78.952 254.814 56.5849 344.331 42.6537 400.345C36.0978 410.612 20.8169 408.25 16.5749 395.476Z" fill="#DE7C62"/>
<path fill-rule="evenodd" clip-rule="evenodd" d="M78.3735 257.032L75.3848 269.083C71.9622 267.348 67.1417 265.13 60.3931 262.431C52.2947 259.249 42.1716 256.694 41.0629 256.453C41.1111 256.068 41.1593 255.682 41.2075 255.296L42.5091 248.74L79.3858 252.693C79.3376 254.477 78.3735 257.032 78.3735 257.032Z" fill="#C2644C"/>
<path fill-rule="evenodd" clip-rule="evenodd" d="M8.28367 437.655C10.8867 425.556 13.9718 408.877 16.6231 394.994C17.6836 396.247 23.0344 397.983 29.542 399.14C35.7604 400.248 41.1112 400.489 42.7501 399.863L31.181 446.284C31.181 446.284 28.4815 450.092 25.0107 452.743L11.9472 450.382C2.88474 440.837 7.22317 443.054 8.28367 437.655Z" fill="#DFD7DA"/>
<path d="M15.2251 402.321C16.2856 403.575 21.3471 405.262 27.8548 406.419C34.0732 407.527 39.2793 407.817 40.9665 407.19" stroke="#54B4A6" stroke-width="0.964097" stroke-miterlimit="10" stroke-linecap="round" stroke-linejoin="round"/>
<path fill-rule="evenodd" clip-rule="evenodd" d="M57.2598 453.129C56.4885 454.527 54.5603 457.708 49.7881 459.878C43.9553 462.577 38.8455 464.12 32.2415 462.577C25.6374 461.035 23.7574 466.964 14.3575 467.253C5.24679 467.542 1.10117 465.711 0.0406663 464.168C-0.682406 448.501 8.47651 436.788 8.47651 436.788C8.47651 436.788 14.7431 434.811 19.7082 443.151C24.1431 447.441 32.0005 442.958 33.8805 435.823L41.545 444.066C41.545 444.066 43.666 443.874 46.6065 443.97C53.9819 444.259 56.3439 450.767 57.2598 453.129Z" fill="#54B4A6"/>
<path fill-rule="evenodd" clip-rule="evenodd" d="M39.7133 247.246C39.6168 247.343 39.5686 247.439 39.5204 247.584C39.2794 249.367 49.065 253.079 61.3572 255.875C73.6977 258.671 83.8689 259.49 84.1099 257.755C84.1099 257.707 84.1099 257.61 84.1099 257.562L91.3406 219.962C91.3406 219.962 92.9314 204.199 89.1714 198.656C73.4084 175.518 53.2106 188.195 53.2106 188.195L38.3635 246.62L39.7133 247.246Z" fill="#54B4A6"/>
<path fill-rule="evenodd" clip-rule="evenodd" d="M32.0968 250.042L32.2896 250.091C32.1932 250.235 32.0968 250.38 32.0968 250.524C31.9522 252.742 44.4373 256.55 60.0074 258.96C75.5776 261.37 87.8698 261.708 88.0144 259.442C88.159 257.128 88.7375 253.417 89.1713 248.934C89.3642 248.259 88.4001 247.439 86.5683 246.523C87.3878 247.005 87.7734 247.487 87.6288 247.873C87.195 249.56 78.1806 249.512 66.5633 247.97C65.2135 247.777 63.8156 247.584 62.4177 247.343C62.032 247.295 61.5982 247.198 61.2125 247.15C47.1367 244.836 36.0978 241.414 36.6281 239.485C36.7245 239.052 37.3994 238.377 38.4599 238.184L38.5081 238.039C36.4353 238.232 35.6158 238.28 35.0373 239.341C33.9286 242.522 32.0968 250.042 32.0968 250.042Z" fill="#8ED3C9"/>
<path d="M84.1581 216.25L75.8668 260.551" stroke="#39A08F" stroke-width="0.964097" stroke-miterlimit="10" stroke-linecap="round" stroke-linejoin="round"/>
<path fill-rule="evenodd" clip-rule="evenodd" d="M74.2278 211.623L88.6411 214.033L89.316 228.928C89.316 228.928 76.4453 225.217 74.2278 211.623Z" fill="#2C7A6E"/>
<path d="M86.7129 246.668C87.5324 247.15 87.7253 247.487 87.6289 247.921C87.195 249.608 78.1807 249.56 66.5633 248.018C65.2136 247.825 63.8157 247.632 62.4177 247.391C62.0321 247.343 61.5982 247.246 61.2126 247.198C47.1368 244.884 36.0979 241.462 36.6281 239.533C36.7245 239.1 37.3994 238.425 38.4599 238.232" stroke="#4EB0A1" stroke-width="0.964097" stroke-miterlimit="10" stroke-linecap="round" stroke-linejoin="round"/>
<path d="M68.2986 170.601C68.5879 168.142 81.2657 167.708 96.6431 169.685C112.02 171.661 124.264 175.228 123.975 177.735" stroke="#39A08F" stroke-width="0.964097" stroke-miterlimit="10" stroke-linecap="round" stroke-linejoin="round"/>
<path d="M56.4403 182.652C58.6095 181.206 64.3941 180.531 72.2997 180.627C70.1304 189.931 67.7202 202.705 67.7202 202.705L55.4762 209.116L49.4988 203.862M121.179 187.762C114.382 185.737 105.368 183.857 95.438 182.507C94.4739 190.268 93.558 203.814 93.558 203.814L107.104 214.274L120.746 208.827C120.746 208.827 121.613 196.631 121.179 187.762Z" stroke="#39A08F" stroke-width="0.964097" stroke-miterlimit="10" stroke-linecap="round" stroke-linejoin="round"/>
<path d="M185.774 75.0585L171.312 111.357C170.493 113.43 172.373 113.478 170.204 112.996C167.07 112.321 168.324 109.67 169.047 107.645C169.095 107.5 167.119 101.089 167.167 100.993L182.448 73.5159C182.93 72.6 184.038 72.2626 184.954 72.7446C185.774 73.1785 186.111 74.1908 185.774 75.0585Z" fill="#DE7C62"/>
<path fill-rule="evenodd" clip-rule="evenodd" d="M193.39 102.873C192.908 103.982 192.33 104.753 191.751 105.476C191.173 106.199 190.594 106.826 189.871 107.501C189.437 107.934 188.859 108.079 188.281 107.983C188.088 108.802 187.943 109.573 187.798 110.345C187.798 110.393 187.75 110.489 187.75 110.538C187.943 111.502 188.088 112.514 188.039 113.526C187.557 123.505 181.821 125.336 177.145 124.035C169.914 122.01 170.107 120.564 166.829 118.732C166.444 115.985 166.203 109.14 165.672 102.825C165.383 99.5468 167.311 96.1725 167.697 94.3407C167.89 93.473 168.034 93.7141 168.034 92.8464C168.034 92.4125 168.034 91.9787 168.034 91.4966C168.034 91.0628 167.986 90.5808 167.938 90.2433L167.89 89.9541C167.793 88.8936 168.565 87.9295 169.625 87.8331C170.493 87.7367 171.312 88.2669 171.602 89.0382C171.891 89.7131 172.035 90.1951 172.18 90.7254C172.325 91.2556 172.469 91.8341 172.566 92.3643C172.807 93.473 172.903 94.63 172.951 95.7869C173 96.9438 172.951 98.1007 172.759 99.3058C172.71 99.5469 172.71 99.7879 172.662 99.9807C173.192 98.6792 173.771 97.474 174.446 96.2207C174.88 95.4012 175.362 94.5818 175.892 93.7623C176.47 92.9428 177.097 92.1233 178.109 91.2074C178.64 90.7736 179.266 90.2915 180.327 90.0505C180.809 89.9059 181.435 89.8577 182.014 89.9541C182.592 90.0505 183.123 90.2433 183.508 90.4843L183.797 90.6772C183.942 90.7736 184.039 90.87 184.135 90.9664C184.376 91.1592 184.617 91.4002 184.762 91.6895C185.099 92.1715 185.292 92.7018 185.388 93.1838C185.581 93.1838 185.774 93.1838 185.918 93.232C186.497 93.3284 187.027 93.5212 187.413 93.7623L187.702 93.9551C187.847 94.0515 187.943 94.1479 188.039 94.2443C188.281 94.4371 188.522 94.6782 188.666 94.9674C189.052 95.4976 189.245 96.1725 189.293 96.7028C189.293 96.8474 189.293 96.992 189.293 97.1366C189.582 97.1366 189.871 97.1366 190.112 97.1848C190.691 97.2812 191.221 97.474 191.607 97.7151L191.896 97.9079C192.04 98.0043 192.137 98.1007 192.233 98.1971C192.474 98.3899 192.715 98.631 192.86 98.9202C193.246 99.4504 193.438 100.125 193.487 100.656C193.872 101.62 193.631 102.295 193.39 102.873ZM188.907 101.282C188.907 101.33 188.907 101.427 188.955 101.475C188.955 101.427 188.955 101.427 188.955 101.379C189.004 101.186 188.907 101.041 188.907 101.282Z" fill="#DE7C62"/>
<path d="M189.919 102.776C189.437 104.03 188.232 107.79 187.798 111.743M183.749 101.764C184.183 101.041 185.051 99.6913 185.485 99.1611C191.414 91.7375 198.307 101.62 188.666 107.934" stroke="black" stroke-width="0.964097" stroke-miterlimit="10" stroke-linecap="round" stroke-linejoin="round"/>
<path d="M179.266 98.9683C179.555 98.4863 180.52 97.0883 180.761 96.7027C184.569 91.352 188.907 93.3766 189.196 97.2812" stroke="black" stroke-width="0.964097" stroke-miterlimit="10" stroke-linecap="round" stroke-linejoin="round"/>
<path d="M176.759 84.2175L168.42 98.7754" stroke="black" stroke-width="0.964097" stroke-miterlimit="10" stroke-linecap="round" stroke-linejoin="round"/>
<path d="M174.928 96.1722C175.41 95.4009 176.47 93.8102 176.808 93.3764C180.23 88.7487 184.087 90.0984 184.906 93.2799" stroke="black" stroke-width="0.964097" stroke-miterlimit="10" stroke-linecap="round" stroke-linejoin="round"/>
<path fill-rule="evenodd" clip-rule="evenodd" d="M167.938 162.309L167.89 162.261C166.251 166.503 162.153 169.54 157.285 169.54C151.018 169.54 145.908 164.43 145.908 158.164C145.908 155.802 146.631 153.632 147.837 151.849L169.722 111.501L185.485 116.418L167.938 162.309Z" fill="#DE7C62"/>
<path fill-rule="evenodd" clip-rule="evenodd" d="M168.613 158.212C168.613 164.478 163.503 169.588 157.237 169.588C152.464 169.588 148.415 166.648 146.728 162.502L120.649 115.454L139.786 97.0398L165.865 150.885C167.601 152.813 168.613 155.368 168.613 158.212Z" fill="#DE7C62"/>
<path fill-rule="evenodd" clip-rule="evenodd" d="M129.663 131.603C132.604 124.276 148.656 118.25 148.656 118.25C148.656 118.25 149.331 118.395 150.343 118.684L155.742 129.867C148.608 135.989 137.714 137.725 133.279 138.159L129.663 131.603Z" fill="#C2644C"/>
<path fill-rule="evenodd" clip-rule="evenodd" d="M144.752 131.603C137.81 135.748 131.543 138.207 130.483 136.954V136.905L114.865 114.49C112.985 111.983 111.828 108.802 111.828 105.428C111.828 97.0399 118.625 90.2913 126.964 90.2913C132.122 90.2913 136.701 92.8943 139.401 96.7989L139.449 96.7507L155.79 121.383L155.694 121.432C155.742 121.48 155.79 121.48 155.79 121.528C156.755 122.926 151.789 127.409 144.752 131.603Z" fill="#FCC670"/>
<path d="M130.435 137.002C130.435 137.002 126.048 130.591 121.902 124.613" stroke="#D8912B" stroke-width="0.964097" stroke-miterlimit="10" stroke-linecap="round" stroke-linejoin="round"/>
<path d="M154.055 127.795L163.985 147.655" stroke="black" stroke-width="0.964097" stroke-miterlimit="10" stroke-linecap="round" stroke-linejoin="round"/>
</svg>
