<svg width="50" height="50" viewBox="0 0 50 50" fill="none" xmlns="http://www.w3.org/2000/svg">
<path d="M33.3333 4.1665H16.6667C9.375 4.1665 6.25 8.33317 6.25 14.5832V23.8957C6.25 24.6248 6.95833 25.1248 7.625 24.8748C9.91667 23.979 12.5208 23.6873 15.2083 24.229C20.625 25.3123 24.9375 29.7707 25.8333 35.2082C26.375 38.5207 25.7083 41.6665 24.1875 44.2707C23.7708 44.9582 24.2708 45.8332 25.0833 45.8332H33.3333C40.625 45.8332 43.75 41.6665 43.75 35.4165V14.5832C43.75 8.33317 40.625 4.1665 33.3333 4.1665ZM38.5417 19.2707H34.375C31.2083 19.2707 28.6458 16.7082 28.6458 13.5415V9.37484C28.6458 8.52067 29.3542 7.81234 30.2083 7.81234C31.0625 7.81234 31.7708 8.52067 31.7708 9.37484V13.5415C31.7708 14.979 32.9375 16.1457 34.375 16.1457H38.5417C39.3958 16.1457 40.1042 16.854 40.1042 17.7082C40.1042 18.5623 39.3958 19.2707 38.5417 19.2707Z" fill="#ED5C18"/>
<path d="M12.5 27.0835C6.75001 27.0835 2.08334 31.7502 2.08334 37.5002C2.08334 43.2502 6.75001 47.9168 12.5 47.9168C18.25 47.9168 22.9167 43.2502 22.9167 37.5002C22.9167 31.7502 18.25 27.0835 12.5 27.0835ZM10.75 40.146C11.2708 40.6668 11.2708 41.521 10.75 42.0627C10.4792 42.3335 10.1458 42.4585 9.79168 42.4585C9.43751 42.4585 9.10418 42.3335 8.83334 42.0627L5.22918 38.4585C4.70834 37.9377 4.70834 37.0835 5.22918 36.5418L8.83334 32.9377C9.35418 32.4168 10.2083 32.4168 10.75 32.9377C11.2708 33.4585 11.2708 34.3127 10.75 34.8543L8.10418 37.5002L10.75 40.146ZM19.75 38.4585L16.1458 42.0627C15.875 42.3335 15.5417 42.4585 15.1875 42.4585C14.8333 42.4585 14.5 42.3335 14.2292 42.0627C13.7083 41.5418 13.7083 40.6877 14.2292 40.146L16.8958 37.5002L14.25 34.8543C13.7292 34.3335 13.7292 33.4793 14.25 32.9377C14.7708 32.4168 15.625 32.4168 16.1667 32.9377L19.7708 36.5418C20.2708 37.0835 20.2708 37.9168 19.75 38.4585Z" fill="#ED5C18"/>
</svg>
