<svg width="50" height="50" viewBox="0 0 50 50" fill="none" xmlns="http://www.w3.org/2000/svg">
<g clip-path="url(#clip0_1333_2883)">
<path d="M4.16669 20.3123C3.31252 20.3123 2.60419 19.604 2.60419 18.7498V13.5415C2.60419 7.49984 7.52085 2.604 13.5417 2.604H18.75C19.6042 2.604 20.3125 3.31234 20.3125 4.1665C20.3125 5.02067 19.6042 5.729 18.75 5.729H13.5417C9.22919 5.729 5.72919 9.229 5.72919 13.5415V18.7498C5.72919 19.604 5.02085 20.3123 4.16669 20.3123Z" fill="#ED5C18"/>
<path d="M45.8333 20.3123C44.9792 20.3123 44.2708 19.604 44.2708 18.7498V13.5415C44.2708 9.229 40.7708 5.729 36.4583 5.729H31.25C30.3958 5.729 29.6875 5.02067 29.6875 4.1665C29.6875 3.31234 30.3958 2.604 31.25 2.604H36.4583C42.4792 2.604 47.3958 7.49984 47.3958 13.5415V18.7498C47.3958 19.604 46.6875 20.3123 45.8333 20.3123Z" fill="#ED5C18"/>
<path d="M36.4583 47.396H33.3333C32.4791 47.396 31.7708 46.6877 31.7708 45.8335C31.7708 44.9793 32.4791 44.271 33.3333 44.271H36.4583C40.7708 44.271 44.2708 40.771 44.2708 36.4585V33.3335C44.2708 32.4793 44.9791 31.771 45.8333 31.771C46.6875 31.771 47.3958 32.4793 47.3958 33.3335V36.4585C47.3958 42.5002 42.4791 47.396 36.4583 47.396Z" fill="#ED5C18"/>
<path d="M18.75 47.3958H13.5417C7.52085 47.3958 2.60419 42.5 2.60419 36.4583V31.25C2.60419 30.3958 3.31252 29.6875 4.16669 29.6875C5.02085 29.6875 5.72919 30.3958 5.72919 31.25V36.4583C5.72919 40.7708 9.22919 44.2708 13.5417 44.2708H18.75C19.6042 44.2708 20.3125 44.9792 20.3125 45.8333C20.3125 46.6875 19.6042 47.3958 18.75 47.3958Z" fill="#ED5C18"/>
<path d="M18.75 10.9375H14.5833C12.2083 10.9375 10.9375 12.1875 10.9375 14.5833V18.75C10.9375 21.1458 12.2083 22.3958 14.5833 22.3958H18.75C21.125 22.3958 22.3958 21.1458 22.3958 18.75V14.5833C22.3958 12.1875 21.125 10.9375 18.75 10.9375Z" fill="#ED5C18"/>
<path d="M35.4167 10.9375H31.25C28.875 10.9375 27.6042 12.1875 27.6042 14.5833V18.75C27.6042 21.1458 28.875 22.3958 31.25 22.3958H35.4167C37.7917 22.3958 39.0625 21.1458 39.0625 18.75V14.5833C39.0625 12.1875 37.7917 10.9375 35.4167 10.9375Z" fill="#ED5C18"/>
<path d="M18.75 27.604H14.5833C12.2083 27.604 10.9375 28.854 10.9375 31.2498V35.4165C10.9375 37.8123 12.2083 39.0623 14.5833 39.0623H18.75C21.125 39.0623 22.3958 37.8123 22.3958 35.4165V31.2498C22.3958 28.854 21.125 27.604 18.75 27.604Z" fill="#ED5C18"/>
<path d="M35.4167 27.604H31.25C28.875 27.604 27.6042 28.854 27.6042 31.2498V35.4165C27.6042 37.8123 28.875 39.0623 31.25 39.0623H35.4167C37.7917 39.0623 39.0625 37.8123 39.0625 35.4165V31.2498C39.0625 28.854 37.7917 27.604 35.4167 27.604Z" fill="#ED5C18"/>
</g>
<defs>
<clipPath id="clip0_1333_2883">
<rect width="50" height="50" fill="white"/>
</clipPath>
</defs>
</svg>
