<svg width="48" height="48" viewBox="0 0 48 48" fill="none" xmlns="http://www.w3.org/2000/svg">
<path fill-rule="evenodd" clip-rule="evenodd" d="M12.0002 7.19995C9.34923 7.19995 7.2002 9.34898 7.2002 12V36C7.2002 38.6509 9.34923 40.7999 12.0002 40.7999H36.0002C38.6512 40.7999 40.8002 38.6509 40.8002 36V12C40.8002 9.34898 38.6512 7.19995 36.0002 7.19995H12.0002ZM33.6002 16.8C33.6002 15.4745 32.5257 14.4 31.2002 14.4C29.8747 14.4 28.8002 15.4745 28.8002 16.8V31.1999C28.8002 32.5254 29.8747 33.5999 31.2002 33.5999C32.5257 33.5999 33.6002 32.5254 33.6002 31.1999V16.8ZM26.4002 21.6C26.4002 20.2745 25.3257 19.2 24.0002 19.2C22.6747 19.2 21.6002 20.2745 21.6002 21.6V31.1999C21.6002 32.5254 22.6747 33.5999 24.0002 33.5999C25.3257 33.5999 26.4002 32.5254 26.4002 31.1999V21.6ZM19.2002 28.7999C19.2002 27.4745 18.1257 26.4 16.8002 26.4C15.4747 26.4 14.4002 27.4745 14.4002 28.7999V31.1999C14.4002 32.5254 15.4747 33.5999 16.8002 33.5999C18.1257 33.5999 19.2002 32.5254 19.2002 31.1999V28.7999Z" fill="#ED5C18"/>
</svg>
