<svg width="50" height="50" viewBox="0 0 50 50" fill="none" xmlns="http://www.w3.org/2000/svg">
<path d="M37.5209 4.1665V7.2915C38.8959 7.2915 40.2084 7.854 41.1667 8.7915C42.1667 9.81234 42.7084 11.1248 42.7084 12.4998V17.5415C42.7084 19.0832 42.0209 19.7915 40.4584 19.7915H36.4584V8.354C36.4584 7.77067 36.9375 7.2915 37.5209 7.2915V4.1665ZM37.5209 4.1665C35.2084 4.1665 33.3334 6.0415 33.3334 8.354V22.9165H40.4584C43.75 22.9165 45.8334 20.8332 45.8334 17.5415V12.4998C45.8334 10.2082 44.8959 8.12484 43.3959 6.604C41.875 5.104 39.8125 4.18734 37.5209 4.1665C37.5417 4.1665 37.5209 4.1665 37.5209 4.1665Z" fill="#ED5C18"/>
<path d="M14.5833 4.1665H12.5C6.24996 4.1665 4.16663 7.89567 4.16663 12.4998V14.5832V43.7498C4.16663 45.479 6.12496 46.4582 7.49996 45.4165L11.0625 42.7498C11.8958 42.1248 13.0625 42.2082 13.8125 42.9582L17.2708 46.4373C18.0833 47.2498 19.4166 47.2498 20.2291 46.4373L23.7291 42.9373C24.4583 42.2082 25.625 42.1248 26.4375 42.7498L30 45.4165C31.375 46.4373 33.3333 45.4582 33.3333 43.7498V8.33317C33.3333 6.0415 35.2083 4.1665 37.5 4.1665H14.5833ZM24.4791 22.3957H20.3125V26.5623C20.3125 27.4165 19.6041 28.1248 18.75 28.1248C17.8958 28.1248 17.1875 27.4165 17.1875 26.5623V22.3957H13.0208C12.1666 22.3957 11.4583 21.6873 11.4583 20.8332C11.4583 19.979 12.1666 19.2707 13.0208 19.2707H17.1875V15.104C17.1875 14.2498 17.8958 13.5415 18.75 13.5415C19.6041 13.5415 20.3125 14.2498 20.3125 15.104V19.2707H24.4791C25.3333 19.2707 26.0416 19.979 26.0416 20.8332C26.0416 21.6873 25.3333 22.3957 24.4791 22.3957Z" fill="#ED5C18"/>
</svg>
