<svg width="393" height="467" viewBox="0 0 393 467" fill="none" xmlns="http://www.w3.org/2000/svg">
<rect x="5" y="5" width="231" height="457" rx="48" fill="white" stroke="#E2E2E2" stroke-width="9"/>
<rect x="67" y="3" width="108" height="17" rx="8.5" fill="#E2E2E2"/>
<rect x="30.6523" y="126.652" width="178.695" height="239.695" rx="12.3937" fill="white" stroke="#00A850" stroke-width="1.3046"/>
<path d="M30 137.124C30 131.859 33.8065 127.366 39 126.5V366.367L38.7547 366.303C33.5959 364.946 30 360.282 30 354.948V137.124Z" fill="#00A850"/>
<rect x="53" y="332" width="125" height="7" rx="3.5" fill="#E2E2E2"/>
<rect x="53" y="317" width="105" height="7.13793" rx="3.56897" fill="#E2E2E2"/>
<rect x="52.7587" y="302" width="80" height="7.13793" rx="3.56897" fill="#E2E2E2"/>
<rect x="52.7587" y="287" width="100" height="7.13793" rx="3.56897" fill="#E2E2E2"/>
<rect x="52.7587" y="272.414" width="112.41" height="7.13793" rx="3.56897" fill="#E2E2E2"/>
<path d="M56.1534 213H53.799V205.727H56.228C56.9406 205.727 57.5526 205.873 58.0639 206.164C58.5753 206.453 58.9671 206.868 59.2393 207.411C59.514 207.95 59.6513 208.598 59.6513 209.353C59.6513 210.111 59.5128 210.762 59.2358 211.306C58.9612 211.851 58.5634 212.27 58.0426 212.563C57.5218 212.854 56.892 213 56.1534 213ZM54.8963 212.041H56.093C56.647 212.041 57.1075 211.937 57.4744 211.729C57.8414 211.518 58.116 211.214 58.2983 210.816C58.4806 210.416 58.5717 209.928 58.5717 209.353C58.5717 208.782 58.4806 208.298 58.2983 207.901C58.1184 207.503 57.8497 207.201 57.4922 206.995C57.1347 206.789 56.6908 206.686 56.1605 206.686H54.8963V212.041ZM63.2814 213.11C62.744 213.11 62.2812 212.995 61.8929 212.766C61.507 212.534 61.2087 212.208 60.998 211.789C60.7897 211.368 60.6855 210.874 60.6855 210.308C60.6855 209.75 60.7897 209.257 60.998 208.831C61.2087 208.405 61.5023 208.072 61.8787 207.833C62.2575 207.594 62.7002 207.474 63.2069 207.474C63.5146 207.474 63.8129 207.525 64.1017 207.627C64.3906 207.729 64.6498 207.889 64.8794 208.107C65.1091 208.324 65.2902 208.607 65.4228 208.955C65.5553 209.301 65.6216 209.721 65.6216 210.216V210.592H61.2857V209.797H64.5811C64.5811 209.518 64.5243 209.27 64.4107 209.055C64.2971 208.837 64.1373 208.665 63.9313 208.54C63.7277 208.414 63.4886 208.352 63.214 208.352C62.9157 208.352 62.6552 208.425 62.4327 208.572C62.2125 208.716 62.0421 208.906 61.9213 209.14C61.803 209.372 61.7438 209.624 61.7438 209.896V210.518C61.7438 210.882 61.8077 211.192 61.9355 211.448C62.0658 211.704 62.2469 211.899 62.4789 212.034C62.7109 212.167 62.9819 212.233 63.2921 212.233C63.4933 212.233 63.6768 212.205 63.8425 212.148C64.0082 212.089 64.1515 212.001 64.2722 211.885C64.3929 211.769 64.4853 211.626 64.5492 211.455L65.5542 211.636C65.4737 211.932 65.3292 212.192 65.1209 212.414C64.915 212.634 64.6557 212.806 64.3432 212.929C64.0331 213.05 63.6792 213.11 63.2814 213.11ZM68.3871 213.121C68.0414 213.121 67.7289 213.057 67.4496 212.929C67.1702 212.799 66.9489 212.611 66.7855 212.364C66.6245 212.118 66.544 211.816 66.544 211.459C66.544 211.151 66.6032 210.898 66.7216 210.699C66.84 210.5 66.9998 210.343 67.201 210.227C67.4022 210.111 67.6271 210.023 67.8757 209.964C68.1243 209.905 68.3776 209.86 68.6357 209.829C68.9624 209.791 69.2275 209.76 69.4311 209.737C69.6347 209.71 69.7827 209.669 69.875 209.612C69.9673 209.555 70.0135 209.463 70.0135 209.335V209.31C70.0135 209 69.9259 208.76 69.7507 208.589C69.5779 208.419 69.3198 208.334 68.9766 208.334C68.6191 208.334 68.3374 208.413 68.1314 208.572C67.9278 208.728 67.7869 208.902 67.7088 209.094L66.7109 208.866C66.8293 208.535 67.0021 208.268 67.2294 208.064C67.459 207.858 67.723 207.709 68.0213 207.616C68.3196 207.522 68.6333 207.474 68.9624 207.474C69.1802 207.474 69.411 207.5 69.6548 207.553C69.901 207.602 70.1307 207.695 70.3438 207.83C70.5592 207.964 70.7356 208.157 70.8729 208.408C71.0102 208.657 71.0788 208.98 71.0788 209.378V213H70.0419V212.254H69.9993C69.9306 212.392 69.8277 212.527 69.6903 212.659C69.553 212.792 69.3767 212.902 69.1612 212.989C68.9458 213.077 68.6877 213.121 68.3871 213.121ZM68.6179 212.268C68.9115 212.268 69.1624 212.21 69.3707 212.094C69.5814 211.978 69.7412 211.827 69.8501 211.64C69.9614 211.451 70.017 211.248 70.017 211.033V210.33C69.9792 210.367 69.9058 210.403 69.7969 210.436C69.6903 210.467 69.5684 210.494 69.4311 210.518C69.2938 210.539 69.16 210.559 69.0298 210.578C68.8996 210.595 68.7907 210.609 68.7031 210.621C68.4972 210.647 68.3089 210.691 68.1385 210.752C67.9704 210.814 67.8355 210.902 67.7337 211.018C67.6342 211.132 67.5845 211.284 67.5845 211.473C67.5845 211.736 67.6816 211.935 67.8757 212.07C68.0698 212.202 68.3172 212.268 68.6179 212.268ZM72.4931 213V207.545H73.5194V208.412H73.5762C73.6756 208.118 73.8508 207.888 74.1017 207.719C74.3551 207.549 74.6415 207.464 74.9611 207.464C75.0274 207.464 75.1055 207.466 75.1955 207.471C75.2878 207.476 75.36 207.482 75.4121 207.489V208.504C75.3695 208.492 75.2937 208.479 75.1848 208.465C75.0759 208.449 74.967 208.44 74.8581 208.44C74.6072 208.44 74.3835 208.494 74.187 208.6C73.9928 208.704 73.839 208.85 73.7253 209.037C73.6117 209.222 73.5549 209.432 73.5549 209.669V213H72.4931ZM79.0627 213V205.727H81.655C82.2185 205.727 82.686 205.824 83.0577 206.018C83.4318 206.213 83.7111 206.481 83.8958 206.825C84.0804 207.165 84.1728 207.56 84.1728 208.007C84.1728 208.452 84.0792 208.844 83.8922 209.183C83.7076 209.519 83.4282 209.78 83.0542 209.967C82.6825 210.154 82.2149 210.248 81.6515 210.248H79.6877V209.303H81.552C81.9071 209.303 82.196 209.252 82.4185 209.151C82.6434 209.049 82.8079 208.901 82.9121 208.707C83.0163 208.513 83.0684 208.279 83.0684 208.007C83.0684 207.732 83.0151 207.495 82.9086 207.293C82.8044 207.092 82.6399 206.938 82.415 206.832C82.1924 206.723 81.9 206.668 81.5378 206.668H80.16V213H79.0627ZM82.6529 209.719L84.4498 213H83.1998L81.4384 209.719H82.6529ZM87.7053 213.11C87.1679 213.11 86.705 212.995 86.3168 212.766C85.9309 212.534 85.6326 212.208 85.4219 211.789C85.2135 211.368 85.1094 210.874 85.1094 210.308C85.1094 209.75 85.2135 209.257 85.4219 208.831C85.6326 208.405 85.9261 208.072 86.3026 207.833C86.6813 207.594 87.1241 207.474 87.6307 207.474C87.9384 207.474 88.2367 207.525 88.5256 207.627C88.8144 207.729 89.0736 207.889 89.3033 208.107C89.5329 208.324 89.714 208.607 89.8466 208.955C89.9792 209.301 90.0455 209.721 90.0455 210.216V210.592H85.7095V209.797H89.005C89.005 209.518 88.9482 209.27 88.8345 209.055C88.7209 208.837 88.5611 208.665 88.3551 208.54C88.1515 208.414 87.9124 208.352 87.6378 208.352C87.3395 208.352 87.0791 208.425 86.8565 208.572C86.6364 208.716 86.4659 208.906 86.3452 209.14C86.2268 209.372 86.1676 209.624 86.1676 209.896V210.518C86.1676 210.882 86.2315 211.192 86.3594 211.448C86.4896 211.704 86.6707 211.899 86.9027 212.034C87.1347 212.167 87.4058 212.233 87.7159 212.233C87.9171 212.233 88.1006 212.205 88.2663 212.148C88.4321 212.089 88.5753 212.001 88.696 211.885C88.8168 211.769 88.9091 211.626 88.973 211.455L89.978 211.636C89.8975 211.932 89.7531 212.192 89.5447 212.414C89.3388 212.634 89.0795 212.806 88.767 212.929C88.4569 213.05 88.103 213.11 87.7053 213.11ZM93.5211 213.11C92.9932 213.11 92.5386 212.991 92.1575 212.751C91.7787 212.51 91.4875 212.177 91.2839 211.754C91.0803 211.33 90.9785 210.844 90.9785 210.298C90.9785 209.744 91.0827 209.255 91.291 208.831C91.4993 208.405 91.7929 208.072 92.1717 207.833C92.5505 207.594 92.9967 207.474 93.5105 207.474C93.9248 207.474 94.2941 207.551 94.6184 207.705C94.9428 207.857 95.2044 208.07 95.4032 208.344C95.6045 208.619 95.724 208.94 95.7619 209.307H94.7285C94.6717 209.051 94.5415 208.831 94.3379 208.646C94.1367 208.462 93.8668 208.369 93.5282 208.369C93.2323 208.369 92.9731 208.447 92.7505 208.604C92.5304 208.758 92.3587 208.978 92.2356 209.264C92.1125 209.548 92.051 209.884 92.051 210.273C92.051 210.67 92.1113 211.014 92.2321 211.303C92.3528 211.591 92.5233 211.815 92.7434 211.974C92.966 212.132 93.2276 212.212 93.5282 212.212C93.7295 212.212 93.9118 212.175 94.0751 212.102C94.2408 212.026 94.3793 211.918 94.4906 211.778C94.6042 211.639 94.6835 211.471 94.7285 211.274H95.7619C95.724 211.627 95.6092 211.942 95.4174 212.219C95.2257 212.496 94.9688 212.714 94.6468 212.872C94.3272 213.031 93.952 213.11 93.5211 213.11ZM96.8974 213V207.545H97.9592V213H96.8974ZM97.4336 206.704C97.2489 206.704 97.0903 206.642 96.9577 206.519C96.8275 206.394 96.7624 206.245 96.7624 206.072C96.7624 205.897 96.8275 205.747 96.9577 205.624C97.0903 205.499 97.2489 205.436 97.4336 205.436C97.6183 205.436 97.7757 205.499 97.9059 205.624C98.0385 205.747 98.1048 205.897 98.1048 206.072C98.1048 206.245 98.0385 206.394 97.9059 206.519C97.7757 206.642 97.6183 206.704 97.4336 206.704ZM99.3876 215.045V207.545H100.425V208.43H100.513C100.575 208.316 100.664 208.185 100.78 208.036C100.896 207.886 101.057 207.756 101.263 207.645C101.469 207.531 101.741 207.474 102.079 207.474C102.52 207.474 102.913 207.586 103.258 207.808C103.604 208.031 103.875 208.352 104.072 208.771C104.27 209.19 104.37 209.694 104.37 210.283C104.37 210.873 104.272 211.378 104.075 211.8C103.879 212.219 103.609 212.542 103.265 212.769C102.922 212.994 102.53 213.107 102.09 213.107C101.759 213.107 101.488 213.051 101.277 212.94C101.068 212.828 100.905 212.698 100.787 212.549C100.668 212.4 100.577 212.267 100.513 212.151H100.449V215.045H99.3876ZM100.428 210.273C100.428 210.656 100.484 210.992 100.595 211.281C100.706 211.57 100.867 211.796 101.078 211.96C101.289 212.121 101.547 212.201 101.852 212.201C102.169 212.201 102.434 212.117 102.648 211.949C102.861 211.778 103.022 211.548 103.131 211.256C103.242 210.965 103.297 210.637 103.297 210.273C103.297 209.913 103.243 209.59 103.134 209.303C103.028 209.017 102.867 208.791 102.651 208.625C102.438 208.459 102.172 208.376 101.852 208.376C101.544 208.376 101.284 208.456 101.071 208.614C100.86 208.773 100.7 208.994 100.591 209.278C100.483 209.562 100.428 209.894 100.428 210.273ZM105.559 213V207.545H106.621V213H105.559ZM106.096 206.704C105.911 206.704 105.752 206.642 105.62 206.519C105.49 206.394 105.425 206.245 105.425 206.072C105.425 205.897 105.49 205.747 105.62 205.624C105.752 205.499 105.911 205.436 106.096 205.436C106.28 205.436 106.438 205.499 106.568 205.624C106.701 205.747 106.767 205.897 106.767 206.072C106.767 206.245 106.701 206.394 106.568 206.519C106.438 206.642 106.28 206.704 106.096 206.704ZM110.401 213.11C109.863 213.11 109.4 212.995 109.012 212.766C108.626 212.534 108.328 212.208 108.117 211.789C107.909 211.368 107.805 210.874 107.805 210.308C107.805 209.75 107.909 209.257 108.117 208.831C108.328 208.405 108.621 208.072 108.998 207.833C109.377 207.594 109.819 207.474 110.326 207.474C110.634 207.474 110.932 207.525 111.221 207.627C111.51 207.729 111.769 207.889 111.999 208.107C112.228 208.324 112.409 208.607 112.542 208.955C112.674 209.301 112.741 209.721 112.741 210.216V210.592H108.405V209.797H111.7C111.7 209.518 111.643 209.27 111.53 209.055C111.416 208.837 111.256 208.665 111.05 208.54C110.847 208.414 110.608 208.352 110.333 208.352C110.035 208.352 109.774 208.425 109.552 208.572C109.332 208.716 109.161 208.906 109.04 209.14C108.922 209.372 108.863 209.624 108.863 209.896V210.518C108.863 210.882 108.927 211.192 109.055 211.448C109.185 211.704 109.366 211.899 109.598 212.034C109.83 212.167 110.101 212.233 110.411 212.233C110.612 212.233 110.796 212.205 110.962 212.148C111.127 212.089 111.271 212.001 111.391 211.885C111.512 211.769 111.604 211.626 111.668 211.455L112.673 211.636C112.593 211.932 112.448 212.192 112.24 212.414C112.034 212.634 111.775 212.806 111.462 212.929C111.152 213.05 110.798 213.11 110.401 213.11ZM114.981 209.761V213H113.919V207.545H114.938V208.433H115.006C115.131 208.144 115.327 207.912 115.595 207.737C115.865 207.562 116.205 207.474 116.614 207.474C116.986 207.474 117.311 207.553 117.591 207.709C117.87 207.863 118.087 208.092 118.241 208.398C118.394 208.703 118.471 209.081 118.471 209.531V213H117.41V209.658C117.41 209.263 117.307 208.954 117.101 208.732C116.895 208.507 116.612 208.394 116.252 208.394C116.006 208.394 115.787 208.447 115.595 208.554C115.406 208.661 115.255 208.817 115.144 209.023C115.035 209.226 114.981 209.473 114.981 209.761ZM122.442 207.545V208.398H119.462V207.545H122.442ZM120.261 206.239H121.323V211.398C121.323 211.604 121.354 211.759 121.415 211.864C121.477 211.965 121.556 212.035 121.653 212.073C121.753 212.109 121.86 212.126 121.976 212.126C122.062 212.126 122.136 212.121 122.2 212.109C122.264 212.097 122.314 212.087 122.349 212.08L122.541 212.957C122.479 212.981 122.392 213.005 122.278 213.028C122.165 213.054 122.023 213.069 121.852 213.071C121.573 213.076 121.312 213.026 121.071 212.922C120.829 212.818 120.634 212.657 120.485 212.439C120.336 212.221 120.261 211.948 120.261 211.619V206.239ZM53.2379 233.727H54.4844L56.3842 237.033H56.4624L58.3622 233.727H59.6087L56.9702 238.145V241H55.8764V238.145L53.2379 233.727ZM61.9586 241.11C61.4473 241.11 61.001 240.993 60.6199 240.759C60.2387 240.524 59.9428 240.196 59.7321 239.775C59.5214 239.353 59.416 238.861 59.416 238.298C59.416 237.732 59.5214 237.237 59.7321 236.813C59.9428 236.389 60.2387 236.06 60.6199 235.826C61.001 235.592 61.4473 235.474 61.9586 235.474C62.47 235.474 62.9163 235.592 63.2974 235.826C63.6786 236.06 63.9745 236.389 64.1852 236.813C64.3959 237.237 64.5012 237.732 64.5012 238.298C64.5012 238.861 64.3959 239.353 64.1852 239.775C63.9745 240.196 63.6786 240.524 63.2974 240.759C62.9163 240.993 62.47 241.11 61.9586 241.11ZM61.9622 240.219C62.2936 240.219 62.5682 240.131 62.786 239.956C63.0038 239.781 63.1648 239.548 63.269 239.256C63.3755 238.965 63.4288 238.644 63.4288 238.294C63.4288 237.946 63.3755 237.626 63.269 237.335C63.1648 237.042 63.0038 236.806 62.786 236.629C62.5682 236.451 62.2936 236.362 61.9622 236.362C61.6284 236.362 61.3514 236.451 61.1312 236.629C60.9134 236.806 60.7512 237.042 60.6447 237.335C60.5405 237.626 60.4885 237.946 60.4885 238.294C60.4885 238.644 60.5405 238.965 60.6447 239.256C60.7512 239.548 60.9134 239.781 61.1312 239.956C61.3514 240.131 61.6284 240.219 61.9622 240.219ZM69.1417 238.738V235.545H70.207V241H69.163V240.055H69.1062C68.9807 240.347 68.7795 240.589 68.5025 240.783C68.2279 240.975 67.8858 241.071 67.4762 241.071C67.1258 241.071 66.8157 240.994 66.5458 240.84C66.2783 240.684 66.0676 240.453 65.9137 240.148C65.7622 239.842 65.6864 239.465 65.6864 239.015V235.545H66.7482V238.887C66.7482 239.259 66.8512 239.555 67.0572 239.775C67.2631 239.995 67.5307 240.105 67.8597 240.105C68.0586 240.105 68.2563 240.055 68.4528 239.956C68.6516 239.857 68.8162 239.706 68.9464 239.505C69.079 239.304 69.1441 239.048 69.1417 238.738ZM75.342 237.761V241H74.2802V233.727H75.3278V236.433H75.3952C75.5231 236.14 75.7184 235.906 75.9812 235.734C76.244 235.561 76.5872 235.474 77.011 235.474C77.3851 235.474 77.7118 235.551 77.9911 235.705C78.2728 235.859 78.4906 236.089 78.6445 236.394C78.8008 236.697 78.8789 237.076 78.8789 237.531V241H77.8171V237.658C77.8171 237.258 77.7141 236.948 77.5082 236.728C77.3022 236.505 77.0157 236.394 76.6488 236.394C76.3978 236.394 76.1729 236.447 75.9741 236.554C75.7776 236.661 75.6225 236.817 75.5089 237.023C75.3976 237.226 75.342 237.473 75.342 237.761ZM81.8832 241.121C81.5375 241.121 81.225 241.057 80.9457 240.929C80.6663 240.799 80.445 240.611 80.2816 240.364C80.1206 240.118 80.0401 239.816 80.0401 239.459C80.0401 239.151 80.0993 238.898 80.2177 238.699C80.3361 238.5 80.4959 238.343 80.6971 238.227C80.8983 238.111 81.1232 238.023 81.3718 237.964C81.6204 237.905 81.8737 237.86 82.1317 237.829C82.4585 237.791 82.7236 237.76 82.9272 237.737C83.1308 237.71 83.2788 237.669 83.3711 237.612C83.4634 237.555 83.5096 237.463 83.5096 237.335V237.31C83.5096 237 83.422 236.76 83.2468 236.589C83.074 236.419 82.8159 236.334 82.4727 236.334C82.1152 236.334 81.8335 236.413 81.6275 236.572C81.4239 236.728 81.283 236.902 81.2049 237.094L80.207 236.866C80.3254 236.535 80.4982 236.268 80.7255 236.064C80.9551 235.858 81.2191 235.709 81.5174 235.616C81.8157 235.522 82.1294 235.474 82.4585 235.474C82.6763 235.474 82.9071 235.5 83.1509 235.553C83.3971 235.602 83.6268 235.695 83.8398 235.83C84.0553 235.964 84.2317 236.157 84.369 236.408C84.5063 236.657 84.5749 236.98 84.5749 237.378V241H83.538V240.254H83.4954C83.4267 240.392 83.3237 240.527 83.1864 240.659C83.0491 240.792 82.8728 240.902 82.6573 240.989C82.4419 241.077 82.1838 241.121 81.8832 241.121ZM82.114 240.268C82.4076 240.268 82.6585 240.21 82.8668 240.094C83.0775 239.978 83.2373 239.827 83.3462 239.64C83.4575 239.451 83.5131 239.248 83.5131 239.033V238.33C83.4753 238.367 83.4019 238.403 83.293 238.436C83.1864 238.467 83.0645 238.494 82.9272 238.518C82.7899 238.539 82.6561 238.559 82.5259 238.578C82.3957 238.595 82.2868 238.609 82.1992 238.621C81.9933 238.647 81.805 238.691 81.6346 238.752C81.4665 238.814 81.3316 238.902 81.2298 239.018C81.1303 239.132 81.0806 239.284 81.0806 239.473C81.0806 239.736 81.1777 239.935 81.3718 240.07C81.5659 240.202 81.8133 240.268 82.114 240.268ZM90.46 235.545L88.4821 241H87.3457L85.3642 235.545H86.5041L87.8855 239.743H87.9423L89.3201 235.545H90.46ZM93.6232 241.11C93.0858 241.11 92.623 240.995 92.2347 240.766C91.8488 240.534 91.5505 240.208 91.3398 239.789C91.1315 239.368 91.0273 238.874 91.0273 238.308C91.0273 237.75 91.1315 237.257 91.3398 236.831C91.5505 236.405 91.8441 236.072 92.2205 235.833C92.5993 235.594 93.042 235.474 93.5487 235.474C93.8564 235.474 94.1547 235.525 94.4435 235.627C94.7324 235.729 94.9916 235.889 95.2212 236.107C95.4509 236.324 95.632 236.607 95.7646 236.955C95.8971 237.301 95.9634 237.721 95.9634 238.216V238.592H91.6275V237.797H94.9229C94.9229 237.518 94.8661 237.27 94.7525 237.055C94.6388 236.837 94.479 236.665 94.2731 236.54C94.0695 236.414 93.8304 236.352 93.5558 236.352C93.2575 236.352 92.997 236.425 92.7745 236.572C92.5543 236.716 92.3839 236.906 92.2631 237.14C92.1448 237.372 92.0856 237.624 92.0856 237.896V238.518C92.0856 238.882 92.1495 239.192 92.2773 239.448C92.4076 239.704 92.5887 239.899 92.8207 240.034C93.0527 240.167 93.3237 240.233 93.6339 240.233C93.8351 240.233 94.0186 240.205 94.1843 240.148C94.35 240.089 94.4933 240.001 94.614 239.885C94.7347 239.769 94.8271 239.626 94.891 239.455L95.896 239.636C95.8155 239.932 95.671 240.192 95.4627 240.414C95.2567 240.634 94.9975 240.806 94.685 240.929C94.3749 241.05 94.021 241.11 93.6232 241.11ZM101.375 241.121C101.03 241.121 100.717 241.057 100.438 240.929C100.158 240.799 99.9371 240.611 99.7738 240.364C99.6128 240.118 99.5323 239.816 99.5323 239.459C99.5323 239.151 99.5915 238.898 99.7099 238.699C99.8282 238.5 99.988 238.343 100.189 238.227C100.391 238.111 100.615 238.023 100.864 237.964C101.113 237.905 101.366 237.86 101.624 237.829C101.951 237.791 102.216 237.76 102.419 237.737C102.623 237.71 102.771 237.669 102.863 237.612C102.956 237.555 103.002 237.463 103.002 237.335V237.31C103.002 237 102.914 236.76 102.739 236.589C102.566 236.419 102.308 236.334 101.965 236.334C101.607 236.334 101.326 236.413 101.12 236.572C100.916 236.728 100.775 236.902 100.697 237.094L99.6992 236.866C99.8176 236.535 99.9904 236.268 100.218 236.064C100.447 235.858 100.711 235.709 101.01 235.616C101.308 235.522 101.622 235.474 101.951 235.474C102.168 235.474 102.399 235.5 102.643 235.553C102.889 235.602 103.119 235.695 103.332 235.83C103.547 235.964 103.724 236.157 103.861 236.408C103.998 236.657 104.067 236.98 104.067 237.378V241H103.03V240.254H102.988C102.919 240.392 102.816 240.527 102.679 240.659C102.541 240.792 102.365 240.902 102.15 240.989C101.934 241.077 101.676 241.121 101.375 241.121ZM101.606 240.268C101.9 240.268 102.151 240.21 102.359 240.094C102.57 239.978 102.73 239.827 102.838 239.64C102.95 239.451 103.005 239.248 103.005 239.033V238.33C102.967 238.367 102.894 238.403 102.785 238.436C102.679 238.467 102.557 238.494 102.419 238.518C102.282 238.539 102.148 238.559 102.018 238.578C101.888 238.595 101.779 238.609 101.691 238.621C101.485 238.647 101.297 238.691 101.127 238.752C100.959 238.814 100.824 238.902 100.722 239.018C100.623 239.132 100.573 239.284 100.573 239.473C100.573 239.736 100.67 239.935 100.864 240.07C101.058 240.202 101.306 240.268 101.606 240.268ZM110.567 241H108.213V233.727H110.642C111.355 233.727 111.967 233.873 112.478 234.164C112.989 234.453 113.381 234.868 113.653 235.411C113.928 235.95 114.065 236.598 114.065 237.353C114.065 238.111 113.927 238.762 113.65 239.306C113.375 239.851 112.978 240.27 112.457 240.563C111.936 240.854 111.306 241 110.567 241ZM109.31 240.041H110.507C111.061 240.041 111.522 239.937 111.888 239.729C112.255 239.518 112.53 239.214 112.712 238.816C112.895 238.416 112.986 237.928 112.986 237.353C112.986 236.782 112.895 236.298 112.712 235.901C112.532 235.503 112.264 235.201 111.906 234.995C111.549 234.789 111.105 234.686 110.575 234.686H109.31V240.041ZM117.695 241.11C117.158 241.11 116.695 240.995 116.307 240.766C115.921 240.534 115.623 240.208 115.412 239.789C115.204 239.368 115.1 238.874 115.1 238.308C115.1 237.75 115.204 237.257 115.412 236.831C115.623 236.405 115.916 236.072 116.293 235.833C116.672 235.594 117.114 235.474 117.621 235.474C117.929 235.474 118.227 235.525 118.516 235.627C118.805 235.729 119.064 235.889 119.294 236.107C119.523 236.324 119.704 236.607 119.837 236.955C119.969 237.301 120.036 237.721 120.036 238.216V238.592H115.7V237.797H118.995C118.995 237.518 118.938 237.27 118.825 237.055C118.711 236.837 118.551 236.665 118.345 236.54C118.142 236.414 117.903 236.352 117.628 236.352C117.33 236.352 117.069 236.425 116.847 236.572C116.627 236.716 116.456 236.906 116.335 237.14C116.217 237.372 116.158 237.624 116.158 237.896V238.518C116.158 238.882 116.222 239.192 116.35 239.448C116.48 239.704 116.661 239.899 116.893 240.034C117.125 240.167 117.396 240.233 117.706 240.233C117.907 240.233 118.091 240.205 118.257 240.148C118.422 240.089 118.566 240.001 118.686 239.885C118.807 239.769 118.899 239.626 118.963 239.455L119.968 239.636C119.888 239.932 119.743 240.192 119.535 240.414C119.329 240.634 119.07 240.806 118.757 240.929C118.447 241.05 118.093 241.11 117.695 241.11ZM122.276 233.727V241H121.214V233.727H122.276ZM123.704 241V235.545H124.766V241H123.704ZM124.24 234.704C124.056 234.704 123.897 234.642 123.764 234.519C123.634 234.394 123.569 234.245 123.569 234.072C123.569 233.897 123.634 233.747 123.764 233.624C123.897 233.499 124.056 233.436 124.24 233.436C124.425 233.436 124.582 233.499 124.713 233.624C124.845 233.747 124.911 233.897 124.911 234.072C124.911 234.245 124.845 234.394 124.713 234.519C124.582 234.642 124.425 234.704 124.24 234.704ZM130.86 235.545L128.882 241H127.746L125.765 235.545H126.904L128.286 239.743H128.343L129.721 235.545H130.86ZM134.024 241.11C133.486 241.11 133.023 240.995 132.635 240.766C132.249 240.534 131.951 240.208 131.74 239.789C131.532 239.368 131.428 238.874 131.428 238.308C131.428 237.75 131.532 237.257 131.74 236.831C131.951 236.405 132.244 236.072 132.621 235.833C133 235.594 133.442 235.474 133.949 235.474C134.257 235.474 134.555 235.525 134.844 235.627C135.133 235.729 135.392 235.889 135.622 236.107C135.851 236.324 136.032 236.607 136.165 236.955C136.298 237.301 136.364 237.721 136.364 238.216V238.592H132.028V237.797H135.323C135.323 237.518 135.267 237.27 135.153 237.055C135.039 236.837 134.879 236.665 134.673 236.54C134.47 236.414 134.231 236.352 133.956 236.352C133.658 236.352 133.397 236.425 133.175 236.572C132.955 236.716 132.784 236.906 132.664 237.14C132.545 237.372 132.486 237.624 132.486 237.896V238.518C132.486 238.882 132.55 239.192 132.678 239.448C132.808 239.704 132.989 239.899 133.221 240.034C133.453 240.167 133.724 240.233 134.034 240.233C134.235 240.233 134.419 240.205 134.585 240.148C134.75 240.089 134.894 240.001 135.014 239.885C135.135 239.769 135.227 239.626 135.291 239.455L136.296 239.636C136.216 239.932 136.071 240.192 135.863 240.414C135.657 240.634 135.398 240.806 135.085 240.929C134.775 241.05 134.421 241.11 134.024 241.11ZM137.542 241V235.545H138.568V236.412H138.625C138.724 236.118 138.9 235.888 139.151 235.719C139.404 235.549 139.69 235.464 140.01 235.464C140.076 235.464 140.154 235.466 140.244 235.471C140.337 235.476 140.409 235.482 140.461 235.489V236.504C140.418 236.492 140.343 236.479 140.234 236.465C140.125 236.449 140.016 236.44 139.907 236.44C139.656 236.44 139.432 236.494 139.236 236.6C139.042 236.704 138.888 236.85 138.774 237.037C138.661 237.222 138.604 237.432 138.604 237.669V241H137.542ZM142.217 243.045C142.058 243.045 141.914 243.032 141.784 243.006C141.654 242.983 141.556 242.957 141.493 242.928L141.748 242.058C141.942 242.11 142.115 242.133 142.267 242.126C142.418 242.119 142.552 242.062 142.668 241.955C142.786 241.849 142.891 241.675 142.98 241.433L143.112 241.071L141.116 235.545H142.252L143.634 239.778H143.691L145.072 235.545H146.212L143.964 241.728C143.86 242.012 143.727 242.252 143.566 242.449C143.405 242.648 143.214 242.797 142.991 242.896C142.769 242.996 142.511 243.045 142.217 243.045ZM151.444 241.121C151.098 241.121 150.786 241.057 150.506 240.929C150.227 240.799 150.006 240.611 149.842 240.364C149.681 240.118 149.601 239.816 149.601 239.459C149.601 239.151 149.66 238.898 149.778 238.699C149.897 238.5 150.056 238.343 150.258 238.227C150.459 238.111 150.684 238.023 150.932 237.964C151.181 237.905 151.434 237.86 151.692 237.829C152.019 237.791 152.284 237.76 152.488 237.737C152.691 237.71 152.839 237.669 152.932 237.612C153.024 237.555 153.07 237.463 153.07 237.335V237.31C153.07 237 152.983 236.76 152.807 236.589C152.635 236.419 152.376 236.334 152.033 236.334C151.676 236.334 151.394 236.413 151.188 236.572C150.984 236.728 150.844 236.902 150.765 237.094L149.768 236.866C149.886 236.535 150.059 236.268 150.286 236.064C150.516 235.858 150.78 235.709 151.078 235.616C151.376 235.522 151.69 235.474 152.019 235.474C152.237 235.474 152.468 235.5 152.711 235.553C152.958 235.602 153.187 235.695 153.4 235.83C153.616 235.964 153.792 236.157 153.93 236.408C154.067 236.657 154.135 236.98 154.135 237.378V241H153.099V240.254H153.056C152.987 240.392 152.884 240.527 152.747 240.659C152.61 240.792 152.433 240.902 152.218 240.989C152.002 241.077 151.744 241.121 151.444 241.121ZM151.675 240.268C151.968 240.268 152.219 240.21 152.427 240.094C152.638 239.978 152.798 239.827 152.907 239.64C153.018 239.451 153.074 239.248 153.074 239.033V238.33C153.036 238.367 152.962 238.403 152.854 238.436C152.747 238.467 152.625 238.494 152.488 238.518C152.35 238.539 152.217 238.559 152.086 238.578C151.956 238.595 151.847 238.609 151.76 238.621C151.554 238.647 151.366 238.691 151.195 238.752C151.027 238.814 150.892 238.902 150.79 239.018C150.691 239.132 150.641 239.284 150.641 239.473C150.641 239.736 150.738 239.935 150.932 240.07C151.126 240.202 151.374 240.268 151.675 240.268ZM158.096 235.545V236.398H155.116V235.545H158.096ZM155.915 234.239H156.977V239.398C156.977 239.604 157.008 239.759 157.07 239.864C157.131 239.965 157.21 240.035 157.308 240.073C157.407 240.109 157.515 240.126 157.631 240.126C157.716 240.126 157.79 240.121 157.854 240.109C157.918 240.097 157.968 240.087 158.004 240.08L158.195 240.957C158.134 240.981 158.046 241.005 157.933 241.028C157.819 241.054 157.677 241.069 157.506 241.071C157.227 241.076 156.967 241.026 156.725 240.922C156.484 240.818 156.288 240.657 156.139 240.439C155.99 240.221 155.915 239.948 155.915 239.619V234.239ZM164.463 235.545V236.398H161.484V235.545H164.463ZM162.283 234.239H163.344V239.398C163.344 239.604 163.375 239.759 163.437 239.864C163.498 239.965 163.578 240.035 163.675 240.073C163.774 240.109 163.882 240.126 163.998 240.126C164.083 240.126 164.158 240.121 164.222 240.109C164.286 240.097 164.335 240.087 164.371 240.08L164.562 240.957C164.501 240.981 164.413 241.005 164.3 241.028C164.186 241.054 164.044 241.069 163.874 241.071C163.594 241.076 163.334 241.026 163.092 240.922C162.851 240.818 162.656 240.657 162.506 240.439C162.357 240.221 162.283 239.948 162.283 239.619V234.239ZM166.817 237.761V241H165.755V233.727H166.802V236.433H166.87C166.998 236.14 167.193 235.906 167.456 235.734C167.719 235.561 168.062 235.474 168.486 235.474C168.86 235.474 169.186 235.551 169.466 235.705C169.747 235.859 169.965 236.089 170.119 236.394C170.275 236.697 170.354 237.076 170.354 237.531V241H169.292V237.658C169.292 237.258 169.189 236.948 168.983 236.728C168.777 236.505 168.49 236.394 168.123 236.394C167.872 236.394 167.648 236.447 167.449 236.554C167.252 236.661 167.097 236.817 166.983 237.023C166.872 237.226 166.817 237.473 166.817 237.761ZM174.121 241.11C173.584 241.11 173.121 240.995 172.733 240.766C172.347 240.534 172.049 240.208 171.838 239.789C171.63 239.368 171.525 238.874 171.525 238.308C171.525 237.75 171.63 237.257 171.838 236.831C172.049 236.405 172.342 236.072 172.719 235.833C173.097 235.594 173.54 235.474 174.047 235.474C174.354 235.474 174.653 235.525 174.942 235.627C175.23 235.729 175.49 235.889 175.719 236.107C175.949 236.324 176.13 236.607 176.263 236.955C176.395 237.301 176.461 237.721 176.461 238.216V238.592H172.126V237.797H175.421C175.421 237.518 175.364 237.27 175.251 237.055C175.137 236.837 174.977 236.665 174.771 236.54C174.568 236.414 174.328 236.352 174.054 236.352C173.756 236.352 173.495 236.425 173.273 236.572C173.052 236.716 172.882 236.906 172.761 237.14C172.643 237.372 172.584 237.624 172.584 237.896V238.518C172.584 238.882 172.648 239.192 172.775 239.448C172.906 239.704 173.087 239.899 173.319 240.034C173.551 240.167 173.822 240.233 174.132 240.233C174.333 240.233 174.517 240.205 174.682 240.148C174.848 240.089 174.991 240.001 175.112 239.885C175.233 239.769 175.325 239.626 175.389 239.455L176.394 239.636C176.314 239.932 176.169 240.192 175.961 240.414C175.755 240.634 175.496 240.806 175.183 240.929C174.873 241.05 174.519 241.11 174.121 241.11ZM53.799 255V247.727H56.3913C56.9548 247.727 57.4223 247.824 57.794 248.018C58.1681 248.213 58.4474 248.481 58.6321 248.825C58.8168 249.165 58.9091 249.56 58.9091 250.007C58.9091 250.452 58.8156 250.844 58.6286 251.183C58.4439 251.519 58.1645 251.78 57.7905 251.967C57.4188 252.154 56.9512 252.248 56.3878 252.248H54.424V251.303H56.2884C56.6435 251.303 56.9323 251.252 57.1548 251.151C57.3797 251.049 57.5443 250.901 57.6484 250.707C57.7526 250.513 57.8047 250.279 57.8047 250.007C57.8047 249.732 57.7514 249.495 57.6449 249.293C57.5407 249.092 57.3762 248.938 57.1513 248.832C56.9287 248.723 56.6364 248.668 56.2741 248.668H54.8963V255H53.799ZM57.3892 251.719L59.1861 255H57.9361L56.1747 251.719H57.3892ZM62.4416 255.11C61.9042 255.11 61.4413 254.995 61.0531 254.766C60.6672 254.534 60.3689 254.208 60.1582 253.789C59.9499 253.368 59.8457 252.874 59.8457 252.308C59.8457 251.75 59.9499 251.257 60.1582 250.831C60.3689 250.405 60.6625 250.072 61.0389 249.833C61.4177 249.594 61.8604 249.474 62.367 249.474C62.6748 249.474 62.9731 249.525 63.2619 249.627C63.5507 249.729 63.81 249.889 64.0396 250.107C64.2692 250.324 64.4503 250.607 64.5829 250.955C64.7155 251.301 64.7818 251.721 64.7818 252.216V252.592H60.4458V251.797H63.7413C63.7413 251.518 63.6845 251.27 63.5708 251.055C63.4572 250.837 63.2974 250.665 63.0914 250.54C62.8878 250.414 62.6487 250.352 62.3741 250.352C62.0758 250.352 61.8154 250.425 61.5929 250.572C61.3727 250.716 61.2022 250.906 61.0815 251.14C60.9631 251.372 60.9039 251.624 60.9039 251.896V252.518C60.9039 252.882 60.9679 253.192 61.0957 253.448C61.2259 253.704 61.407 253.899 61.639 254.034C61.871 254.167 62.1421 254.233 62.4522 254.233C62.6535 254.233 62.8369 254.205 63.0027 254.148C63.1684 254.089 63.3116 254.001 63.4324 253.885C63.5531 253.769 63.6454 253.626 63.7093 253.455L64.7143 253.636C64.6338 253.932 64.4894 254.192 64.2811 254.414C64.0751 254.634 63.8159 254.806 63.5034 254.929C63.1932 255.05 62.8393 255.11 62.4416 255.11ZM68.2575 255.11C67.7295 255.11 67.275 254.991 66.8938 254.751C66.515 254.51 66.2238 254.177 66.0202 253.754C65.8166 253.33 65.7148 252.844 65.7148 252.298C65.7148 251.744 65.819 251.255 66.0273 250.831C66.2357 250.405 66.5292 250.072 66.908 249.833C67.2868 249.594 67.7331 249.474 68.2468 249.474C68.6611 249.474 69.0304 249.551 69.3548 249.705C69.6791 249.857 69.9407 250.07 70.1396 250.344C70.3408 250.619 70.4603 250.94 70.4982 251.307H69.4648C69.408 251.051 69.2778 250.831 69.0742 250.646C68.873 250.462 68.6031 250.369 68.2646 250.369C67.9686 250.369 67.7094 250.447 67.4869 250.604C67.2667 250.758 67.0951 250.978 66.9719 251.264C66.8488 251.548 66.7873 251.884 66.7873 252.273C66.7873 252.67 66.8477 253.014 66.9684 253.303C67.0891 253.591 67.2596 253.815 67.4798 253.974C67.7023 254.132 67.9639 254.212 68.2646 254.212C68.4658 254.212 68.6481 254.175 68.8114 254.102C68.9772 254.026 69.1156 253.918 69.2269 253.778C69.3406 253.639 69.4199 253.471 69.4648 253.274H70.4982C70.4603 253.627 70.3455 253.942 70.1538 254.219C69.962 254.496 69.7051 254.714 69.3832 254.872C69.0636 255.031 68.6883 255.11 68.2575 255.11ZM73.9846 255.11C73.4471 255.11 72.9843 254.995 72.5961 254.766C72.2102 254.534 71.9119 254.208 71.7012 253.789C71.4928 253.368 71.3887 252.874 71.3887 252.308C71.3887 251.75 71.4928 251.257 71.7012 250.831C71.9119 250.405 72.2054 250.072 72.5819 249.833C72.9606 249.594 73.4033 249.474 73.91 249.474C74.2177 249.474 74.516 249.525 74.8049 249.627C75.0937 249.729 75.3529 249.889 75.5826 250.107C75.8122 250.324 75.9933 250.607 76.1259 250.955C76.2585 251.301 76.3248 251.721 76.3248 252.216V252.592H71.9888V251.797H75.2843C75.2843 251.518 75.2275 251.27 75.1138 251.055C75.0002 250.837 74.8404 250.665 74.6344 250.54C74.4308 250.414 74.1917 250.352 73.9171 250.352C73.6188 250.352 73.3584 250.425 73.1358 250.572C72.9157 250.716 72.7452 250.906 72.6245 251.14C72.5061 251.372 72.4469 251.624 72.4469 251.896V252.518C72.4469 252.882 72.5108 253.192 72.6387 253.448C72.7689 253.704 72.95 253.899 73.182 254.034C73.414 254.167 73.6851 254.233 73.9952 254.233C74.1964 254.233 74.3799 254.205 74.5456 254.148C74.7114 254.089 74.8546 254.001 74.9753 253.885C75.0961 253.769 75.1884 253.626 75.2523 253.455L76.2573 253.636C76.1768 253.932 76.0324 254.192 75.824 254.414C75.6181 254.634 75.3588 254.806 75.0463 254.929C74.7362 255.05 74.3823 255.11 73.9846 255.11ZM77.5028 257.045V249.545H78.5398V250.43H78.6286C78.6901 250.316 78.7789 250.185 78.8949 250.036C79.0109 249.886 79.1719 249.756 79.3778 249.645C79.5838 249.531 79.8561 249.474 80.1946 249.474C80.6349 249.474 81.0279 249.586 81.3736 249.808C81.7192 250.031 81.9903 250.352 82.1868 250.771C82.3857 251.19 82.4851 251.694 82.4851 252.283C82.4851 252.873 82.3868 253.378 82.1903 253.8C81.9938 254.219 81.724 254.542 81.3807 254.769C81.0374 254.994 80.6456 255.107 80.2053 255.107C79.8738 255.107 79.6027 255.051 79.392 254.94C79.1837 254.828 79.0204 254.698 78.902 254.549C78.7836 254.4 78.6925 254.267 78.6286 254.151H78.5646V257.045H77.5028ZM78.5433 252.273C78.5433 252.656 78.599 252.992 78.7102 253.281C78.8215 253.57 78.9825 253.796 79.1932 253.96C79.4039 254.121 79.6619 254.201 79.9673 254.201C80.2846 254.201 80.5497 254.117 80.7628 253.949C80.9759 253.778 81.1368 253.548 81.2457 253.256C81.357 252.965 81.4126 252.637 81.4126 252.273C81.4126 251.913 81.3582 251.59 81.2493 251.303C81.1428 251.017 80.9818 250.791 80.7663 250.625C80.5533 250.459 80.2869 250.376 79.9673 250.376C79.6596 250.376 79.3991 250.456 79.1861 250.614C78.9754 250.773 78.8156 250.994 78.7067 251.278C78.5978 251.562 78.5433 251.894 78.5433 252.273ZM86.2209 249.545V250.398H83.2415V249.545H86.2209ZM84.0405 248.239H85.1023V253.398C85.1023 253.604 85.133 253.759 85.1946 253.864C85.2562 253.965 85.3355 254.035 85.4325 254.073C85.532 254.109 85.6397 254.126 85.7557 254.126C85.8409 254.126 85.9155 254.121 85.9794 254.109C86.0433 254.097 86.093 254.087 86.1286 254.08L86.3203 254.957C86.2588 254.981 86.1712 255.005 86.0575 255.028C85.9439 255.054 85.8018 255.069 85.6314 255.071C85.352 255.076 85.0916 255.026 84.8501 254.922C84.6087 254.818 84.4134 254.657 84.2642 254.439C84.1151 254.221 84.0405 253.948 84.0405 253.619V248.239ZM87.3954 255V249.545H88.4572V255H87.3954ZM87.9316 248.704C87.747 248.704 87.5884 248.642 87.4558 248.519C87.3256 248.394 87.2605 248.245 87.2605 248.072C87.2605 247.897 87.3256 247.747 87.4558 247.624C87.5884 247.499 87.747 247.436 87.9316 247.436C88.1163 247.436 88.2737 247.499 88.4039 247.624C88.5365 247.747 88.6028 247.897 88.6028 248.072C88.6028 248.245 88.5365 248.394 88.4039 248.519C88.2737 248.642 88.1163 248.704 87.9316 248.704ZM92.1832 255.11C91.6719 255.11 91.2256 254.993 90.8445 254.759C90.4633 254.524 90.1674 254.196 89.9567 253.775C89.746 253.353 89.6406 252.861 89.6406 252.298C89.6406 251.732 89.746 251.237 89.9567 250.813C90.1674 250.389 90.4633 250.06 90.8445 249.826C91.2256 249.592 91.6719 249.474 92.1832 249.474C92.6946 249.474 93.1409 249.592 93.522 249.826C93.9032 250.06 94.1991 250.389 94.4098 250.813C94.6205 251.237 94.7259 251.732 94.7259 252.298C94.7259 252.861 94.6205 253.353 94.4098 253.775C94.1991 254.196 93.9032 254.524 93.522 254.759C93.1409 254.993 92.6946 255.11 92.1832 255.11ZM92.1868 254.219C92.5182 254.219 92.7929 254.131 93.0107 253.956C93.2285 253.781 93.3894 253.548 93.4936 253.256C93.6001 252.965 93.6534 252.644 93.6534 252.294C93.6534 251.946 93.6001 251.626 93.4936 251.335C93.3894 251.042 93.2285 250.806 93.0107 250.629C92.7929 250.451 92.5182 250.362 92.1868 250.362C91.853 250.362 91.576 250.451 91.3558 250.629C91.138 250.806 90.9759 251.042 90.8693 251.335C90.7652 251.626 90.7131 251.946 90.7131 252.294C90.7131 252.644 90.7652 252.965 90.8693 253.256C90.9759 253.548 91.138 253.781 91.3558 253.956C91.576 254.131 91.853 254.219 92.1868 254.219ZM96.9728 251.761V255H95.911V249.545H96.9302V250.433H96.9977C97.1232 250.144 97.3197 249.912 97.5872 249.737C97.8571 249.562 98.1968 249.474 98.6064 249.474C98.978 249.474 99.3036 249.553 99.5829 249.709C99.8623 249.863 100.079 250.092 100.233 250.398C100.387 250.703 100.464 251.081 100.464 251.531V255H99.4018V251.658C99.4018 251.263 99.2988 250.954 99.0929 250.732C98.8869 250.507 98.604 250.394 98.2441 250.394C97.9979 250.394 97.7789 250.447 97.5872 250.554C97.3978 250.661 97.2475 250.817 97.1362 251.023C97.0273 251.226 96.9728 251.473 96.9728 251.761ZM103.226 247.727L103.134 252.908H102.15L102.058 247.727H103.226ZM102.644 255.067C102.448 255.067 102.279 254.999 102.14 254.862C102 254.722 101.931 254.554 101.934 254.357C101.931 254.163 102 253.997 102.14 253.86C102.279 253.72 102.448 253.651 102.644 253.651C102.836 253.651 103.001 253.72 103.141 253.86C103.281 253.997 103.352 254.163 103.354 254.357C103.352 254.487 103.318 254.607 103.251 254.716C103.187 254.822 103.102 254.908 102.996 254.972C102.889 255.036 102.772 255.067 102.644 255.067Z" fill="#3F4450"/>
<path d="M92.3352 167.273L94.4446 173.903H94.5256L96.6392 167.273H98.6847L95.6761 176H93.2983L90.2855 167.273H92.3352ZM99.701 176V169.455H101.516V176H99.701ZM100.613 168.611C100.343 168.611 100.112 168.521 99.9183 168.342C99.728 168.161 99.6328 167.943 99.6328 167.69C99.6328 167.44 99.728 167.226 99.9183 167.047C100.112 166.865 100.343 166.774 100.613 166.774C100.883 166.774 101.113 166.865 101.303 167.047C101.496 167.226 101.593 167.44 101.593 167.69C101.593 167.943 101.496 168.161 101.303 168.342C101.113 168.521 100.883 168.611 100.613 168.611ZM102.936 176V174.918L106.141 170.95V170.903H103.047V169.455H108.327V170.635L105.319 174.504V174.551H108.438V176H102.936ZM109.826 176V169.455H111.641V176H109.826ZM110.738 168.611C110.468 168.611 110.237 168.521 110.043 168.342C109.853 168.161 109.758 167.943 109.758 167.69C109.758 167.44 109.853 167.226 110.043 167.047C110.237 166.865 110.468 166.774 110.738 166.774C111.008 166.774 111.238 166.865 111.428 167.047C111.621 167.226 111.718 167.44 111.718 167.69C111.718 167.943 111.621 168.161 111.428 168.342C111.238 168.521 111.008 168.611 110.738 168.611ZM116.577 169.455V170.818H112.635V169.455H116.577ZM113.53 167.886H115.346V173.989C115.346 174.156 115.371 174.287 115.422 174.381C115.473 174.472 115.544 174.536 115.635 174.572C115.729 174.609 115.837 174.628 115.959 174.628C116.044 174.628 116.13 174.621 116.215 174.607C116.3 174.589 116.365 174.577 116.411 174.568L116.696 175.919C116.605 175.947 116.478 175.98 116.313 176.017C116.148 176.057 115.948 176.081 115.712 176.089C115.275 176.107 114.891 176.048 114.561 175.915C114.235 175.781 113.98 175.574 113.799 175.293C113.617 175.011 113.527 174.656 113.53 174.227V167.886ZM120.647 176.128C119.985 176.128 119.412 175.987 118.929 175.706C118.449 175.422 118.078 175.027 117.817 174.521C117.556 174.013 117.425 173.423 117.425 172.753C117.425 172.077 117.556 171.486 117.817 170.98C118.078 170.472 118.449 170.077 118.929 169.795C119.412 169.511 119.985 169.369 120.647 169.369C121.309 169.369 121.88 169.511 122.36 169.795C122.843 170.077 123.215 170.472 123.476 170.98C123.738 171.486 123.868 172.077 123.868 172.753C123.868 173.423 123.738 174.013 123.476 174.521C123.215 175.027 122.843 175.422 122.36 175.706C121.88 175.987 121.309 176.128 120.647 176.128ZM120.655 174.722C120.956 174.722 121.208 174.636 121.409 174.466C121.611 174.293 121.763 174.057 121.865 173.759C121.971 173.46 122.023 173.121 122.023 172.74C122.023 172.359 121.971 172.02 121.865 171.722C121.763 171.423 121.611 171.187 121.409 171.014C121.208 170.841 120.956 170.754 120.655 170.754C120.351 170.754 120.096 170.841 119.888 171.014C119.684 171.187 119.529 171.423 119.424 171.722C119.321 172.02 119.27 172.359 119.27 172.74C119.27 173.121 119.321 173.46 119.424 173.759C119.529 174.057 119.684 174.293 119.888 174.466C120.096 174.636 120.351 174.722 120.655 174.722ZM125.049 176V169.455H126.809V170.597H126.877C126.996 170.19 127.196 169.884 127.478 169.676C127.759 169.466 128.083 169.361 128.449 169.361C128.54 169.361 128.638 169.366 128.743 169.378C128.848 169.389 128.941 169.405 129.02 169.425V171.036C128.935 171.01 128.817 170.987 128.667 170.967C128.516 170.947 128.378 170.938 128.253 170.938C127.986 170.938 127.748 170.996 127.537 171.112C127.33 171.226 127.165 171.385 127.043 171.589C126.924 171.794 126.864 172.03 126.864 172.297V176H125.049ZM135.864 176H132.77V167.273H135.89C136.767 167.273 137.523 167.447 138.157 167.797C138.79 168.143 139.277 168.642 139.618 169.293C139.962 169.943 140.134 170.722 140.134 171.628C140.134 172.537 139.962 173.318 139.618 173.972C139.277 174.625 138.787 175.126 138.148 175.476C137.512 175.825 136.75 176 135.864 176ZM134.615 174.419H135.787C136.333 174.419 136.792 174.322 137.164 174.129C137.539 173.933 137.82 173.631 138.007 173.222C138.198 172.81 138.293 172.278 138.293 171.628C138.293 170.983 138.198 170.456 138.007 170.047C137.82 169.638 137.54 169.337 137.168 169.143C136.796 168.95 136.337 168.854 135.792 168.854H134.615V174.419ZM144.45 176.128C143.776 176.128 143.197 175.991 142.711 175.719C142.228 175.443 141.856 175.054 141.594 174.551C141.333 174.045 141.202 173.447 141.202 172.757C141.202 172.084 141.333 171.493 141.594 170.984C141.856 170.476 142.224 170.08 142.698 169.795C143.175 169.511 143.735 169.369 144.377 169.369C144.809 169.369 145.211 169.439 145.583 169.578C145.958 169.714 146.285 169.92 146.563 170.196C146.844 170.472 147.063 170.818 147.219 171.236C147.376 171.651 147.454 172.136 147.454 172.693V173.192H141.927V172.067H145.745C145.745 171.805 145.688 171.574 145.575 171.372C145.461 171.17 145.303 171.013 145.102 170.899C144.903 170.783 144.671 170.724 144.407 170.724C144.131 170.724 143.887 170.788 143.674 170.916C143.464 171.041 143.299 171.21 143.18 171.423C143.06 171.634 142.999 171.868 142.996 172.126V173.196C142.996 173.52 143.056 173.8 143.175 174.036C143.298 174.271 143.469 174.453 143.691 174.581C143.913 174.709 144.175 174.773 144.479 174.773C144.681 174.773 144.866 174.744 145.033 174.688C145.201 174.631 145.344 174.545 145.464 174.432C145.583 174.318 145.674 174.179 145.737 174.014L147.415 174.125C147.33 174.528 147.156 174.881 146.891 175.182C146.63 175.48 146.292 175.713 145.877 175.881C145.465 176.045 144.989 176.128 144.45 176.128ZM150.454 167.273V176H148.638V167.273H150.454ZM151.908 176V169.455H153.723V176H151.908ZM152.82 168.611C152.55 168.611 152.319 168.521 152.125 168.342C151.935 168.161 151.84 167.943 151.84 167.69C151.84 167.44 151.935 167.226 152.125 167.047C152.319 166.865 152.55 166.774 152.82 166.774C153.09 166.774 153.32 166.865 153.51 167.047C153.703 167.226 153.8 167.44 153.8 167.69C153.8 167.943 153.703 168.161 153.51 168.342C153.32 168.521 153.09 168.611 152.82 168.611ZM161.28 169.455L158.991 176H156.946L154.658 169.455H156.575L157.935 174.138H158.003L159.358 169.455H161.28ZM164.981 176.128C164.308 176.128 163.728 175.991 163.242 175.719C162.759 175.443 162.387 175.054 162.126 174.551C161.864 174.045 161.734 173.447 161.734 172.757C161.734 172.084 161.864 171.493 162.126 170.984C162.387 170.476 162.755 170.08 163.229 169.795C163.707 169.511 164.266 169.369 164.908 169.369C165.34 169.369 165.742 169.439 166.114 169.578C166.489 169.714 166.816 169.92 167.094 170.196C167.376 170.472 167.594 170.818 167.751 171.236C167.907 171.651 167.985 172.136 167.985 172.693V173.192H162.458V172.067H166.276C166.276 171.805 166.219 171.574 166.106 171.372C165.992 171.17 165.835 171.013 165.633 170.899C165.434 170.783 165.202 170.724 164.938 170.724C164.663 170.724 164.418 170.788 164.205 170.916C163.995 171.041 163.83 171.21 163.711 171.423C163.592 171.634 163.531 171.868 163.528 172.126V173.196C163.528 173.52 163.587 173.8 163.707 174.036C163.829 174.271 164.001 174.453 164.222 174.581C164.444 174.709 164.707 174.773 165.011 174.773C165.212 174.773 165.397 174.744 165.565 174.688C165.732 174.631 165.876 174.545 165.995 174.432C166.114 174.318 166.205 174.179 166.268 174.014L167.947 174.125C167.862 174.528 167.687 174.881 167.423 175.182C167.161 175.48 166.823 175.713 166.408 175.881C165.996 176.045 165.521 176.128 164.981 176.128ZM169.17 176V169.455H170.93V170.597H170.998C171.117 170.19 171.317 169.884 171.599 169.676C171.88 169.466 172.204 169.361 172.57 169.361C172.661 169.361 172.759 169.366 172.864 169.378C172.969 169.389 173.062 169.405 173.141 169.425V171.036C173.056 171.01 172.938 170.987 172.788 170.967C172.637 170.947 172.499 170.938 172.374 170.938C172.107 170.938 171.869 170.996 171.658 171.112C171.451 171.226 171.286 171.385 171.164 171.589C171.045 171.794 170.985 172.03 170.985 172.297V176H169.17ZM175.4 178.455C175.17 178.455 174.954 178.436 174.752 178.399C174.553 178.365 174.388 178.321 174.258 178.267L174.667 176.912C174.88 176.977 175.072 177.013 175.242 177.018C175.415 177.024 175.565 176.984 175.69 176.899C175.817 176.814 175.921 176.669 176.001 176.464L176.107 176.188L173.759 169.455H175.668L177.023 174.261H177.092L178.46 169.455H180.381L177.837 176.707C177.715 177.06 177.549 177.366 177.339 177.628C177.131 177.892 176.869 178.095 176.55 178.237C176.232 178.382 175.849 178.455 175.4 178.455Z" fill="#3F4450"/>
<g clip-path="url(#clip0_1373_2282)">
<path d="M66.8325 159.7L62.2005 161.261L62.1624 165.525L62.137 169.802H61.5025H60.868V174.675V179.548L63.5584 180.944C65.0431 181.706 66.6548 182.454 67.137 182.607C68.3299 182.975 70.1574 182.975 71.3502 182.607C72.3528 182.302 77.1624 179.878 79.269 178.622C81.3756 177.378 84.3325 175.386 84.8147 174.916C85.8173 173.901 85.5888 172.226 84.3452 171.553C84.0025 171.376 83.7107 171.325 83.0761 171.363C82.6193 171.376 82.1497 171.452 82.0355 171.502C81.8198 171.604 81.8071 171.325 81.8071 166.617C81.8071 163.863 81.7563 161.553 81.7056 161.477C81.566 161.261 72.3274 158.127 71.8579 158.14C71.6421 158.14 69.3832 158.85 66.8325 159.7ZM75.8299 160.805C77.8985 161.515 79.637 162.137 79.6878 162.188C79.7386 162.239 78.3173 162.924 76.5152 163.711C74.7132 164.497 72.9492 165.272 72.6066 165.437L71.9721 165.716L68.1269 163.977C66.0076 163.013 64.269 162.188 64.2563 162.124C64.231 162.023 71.4898 159.561 71.8959 159.535C71.9975 159.523 73.7741 160.107 75.8299 160.805ZM67.5939 165.398L71.2107 166.947L71.2487 169.65C71.2868 172.759 71.3376 172.645 70.0812 171.883C67.7969 170.513 66.2233 169.929 64.5228 169.84L63.2792 169.764V166.68V163.596L63.6345 163.723C63.8249 163.799 65.6015 164.548 67.5939 165.398ZM80.665 167.898V172.213L78.9137 173.089C77.1751 173.952 77.1497 173.977 76.8959 174.586C76.566 175.373 76.0837 175.944 75.3858 176.35C74.764 176.718 73.698 177.035 73.0888 177.035C72.67 177.035 72.67 177.035 72.67 176.414V175.792L73.2792 175.703C75.6396 175.36 76.7563 173.469 75.0812 172.619C74.6497 172.404 74.3071 172.34 73.5964 172.34H72.67L72.6954 169.65L72.7335 166.947L76.5406 165.272C78.6345 164.358 80.4239 163.596 80.5127 163.596C80.6269 163.584 80.665 164.523 80.665 167.898ZM71.1599 175.766C71.2233 175.766 71.2741 176.084 71.2741 176.464V177.162H70.8553C70.0685 177.162 69.6244 176.528 70.0431 175.995C70.2081 175.766 70.6015 175.64 70.868 175.716C70.9695 175.741 71.0964 175.766 71.1599 175.766Z" fill="#00A850"/>
<path d="M53 174.751V180.589H56.2995H59.599V174.751V168.914H56.2995H53V174.751Z" fill="#00A850"/>
</g>
<path d="M85.5101 42.4097L89.1957 53.2071L92.8933 42.3313C93.0855 41.76 93.2298 41.3627 93.3263 41.1393C93.4332 40.9025 93.597 40.6951 93.8034 40.5352C94.0658 40.3428 94.388 40.2474 94.7141 40.2656C94.9891 40.2642 95.2594 40.3363 95.4964 40.4742C95.7308 40.6072 95.9261 40.7985 96.0629 41.0291C96.194 41.2391 96.2651 41.4804 96.2687 41.7272C96.2668 41.9029 96.2444 42.0778 96.202 42.2484C96.1578 42.4347 96.1023 42.6181 96.0358 42.7977C95.9691 42.9771 95.9024 43.162 95.8357 43.3526L91.8945 53.8772C91.7535 54.28 91.6127 54.6625 91.4722 55.025C91.3456 55.3605 91.1818 55.6811 90.9838 55.9809C90.7942 56.2606 90.5411 56.4926 90.2449 56.6585C89.8994 56.8436 89.5104 56.9345 89.1177 56.9219C88.7257 56.9342 88.3372 56.8454 87.9904 56.6641C87.691 56.499 87.4359 56.2654 87.2465 55.9828C87.0473 55.681 86.8817 55.3589 86.7524 55.0219C86.6119 54.6632 86.4711 54.2822 86.3301 53.8791L82.4563 43.4429C82.3902 43.2523 82.321 43.0655 82.2511 42.8824C82.1779 42.6892 82.1186 42.4911 82.0736 42.2895C82.0294 42.1123 82.0047 41.9309 82 41.7484C82.0029 41.5565 82.0447 41.3672 82.123 41.1916C82.2013 41.0161 82.3144 40.8579 82.4557 40.7264C82.6035 40.5752 82.7815 40.456 82.9784 40.3766C83.1753 40.2971 83.3867 40.2591 83.5993 40.2649C83.8261 40.2419 84.055 40.2768 84.2644 40.3662C84.4737 40.4556 84.6564 40.5965 84.7951 40.7756C85.1048 41.2869 85.3452 41.8364 85.5101 42.4097Z" fill="#F17A39"/>
<path d="M118.14 48.165L112.589 54.306H118.529C118.921 54.2779 119.309 54.3978 119.616 54.6417C119.736 54.7509 119.831 54.8845 119.894 55.0333C119.957 55.1822 119.987 55.3428 119.982 55.5042C119.987 55.6594 119.957 55.8137 119.895 55.9561C119.832 56.0986 119.739 56.2256 119.621 56.3281C119.308 56.5636 118.919 56.6771 118.527 56.647H110.313C109.85 56.6824 109.39 56.5495 109.019 56.2733C108.77 56.0469 108.618 55.7343 108.594 55.4002C108.571 55.066 108.678 54.7357 108.893 54.4773C109.094 54.2174 109.508 53.7399 110.137 53.0449C110.803 52.313 111.409 51.6502 111.953 51.0565C112.497 50.4628 113.002 49.9079 113.468 49.3918C113.935 48.8758 114.321 48.4382 114.628 48.0791C114.935 47.7199 115.182 47.4123 115.367 47.1561H110.859C110.383 47.175 109.907 47.1193 109.449 46.9911C109.13 46.8815 108.971 46.5921 108.972 46.123C108.966 45.9676 108.995 45.8129 109.057 45.6702C109.12 45.5276 109.214 45.4007 109.333 45.2991C109.625 45.0767 109.989 44.9665 110.357 44.9889H117.319C117.829 44.9616 118.337 45.0578 118.801 45.2692C118.975 45.3705 119.116 45.5191 119.208 45.6973C119.299 45.8756 119.337 46.076 119.317 46.2749C119.315 46.4456 119.281 46.6145 119.217 46.7731C119.162 46.9231 119.087 47.0653 118.995 47.196C118.914 47.3056 118.802 47.4393 118.661 47.597C118.52 47.7548 118.347 47.9441 118.14 48.165Z" fill="#F48046"/>
<path d="M123.281 43.333C122.885 43.3422 122.499 43.2053 122.198 42.9488C122.055 42.8089 121.942 42.6421 121.865 42.4582C121.788 42.2744 121.749 42.0771 121.75 41.8781C121.751 41.6791 121.792 41.4823 121.871 41.2992C121.95 41.1162 122.065 40.9506 122.21 40.8121C122.5 40.5444 122.883 40.3971 123.28 40.4005C123.662 40.3967 124.033 40.5294 124.324 40.7741C124.479 40.9088 124.6 41.0768 124.679 41.2654C124.758 41.4539 124.792 41.6578 124.779 41.8615C124.79 42.063 124.756 42.2645 124.679 42.4515C124.602 42.6385 124.485 42.8064 124.335 42.9432C124.046 43.2004 123.669 43.3397 123.281 43.333ZM124.78 46.4313V55.1001C124.816 55.5923 124.661 56.0798 124.347 56.4627C124.208 56.6131 124.038 56.7322 123.848 56.8119C123.658 56.8915 123.454 56.9298 123.248 56.9242C123.043 56.9306 122.84 56.8915 122.652 56.8098C122.465 56.7281 122.298 56.6059 122.165 56.4521C121.864 56.067 121.716 55.5863 121.749 55.1007V46.5191C121.713 46.0365 121.861 45.558 122.165 45.1789C122.302 45.0307 122.469 44.9137 122.656 44.836C122.843 44.7582 123.045 44.7216 123.248 44.7286C123.453 44.7226 123.656 44.7597 123.846 44.8373C124.035 44.9149 124.206 45.0313 124.347 45.1789C124.652 45.5237 124.808 45.9736 124.78 46.4313H124.78Z" fill="#F07A4F"/>
<path d="M128.077 44.9915H128.411V43.1904C128.411 42.7072 128.424 42.3281 128.45 42.0533C128.467 41.804 128.541 41.5619 128.666 41.3446C128.788 41.1364 128.965 40.9644 129.177 40.8464C129.403 40.717 129.66 40.6505 129.921 40.6539C130.312 40.6563 130.686 40.8098 130.965 41.0818C131.168 41.2665 131.307 41.5113 131.359 41.7799C131.423 42.1666 131.451 42.5583 131.442 42.95V44.9933H132.552C132.907 44.969 133.257 45.0768 133.535 45.2954C133.645 45.3921 133.733 45.5116 133.791 45.6455C133.85 45.7794 133.878 45.9243 133.874 46.0701C133.888 46.2426 133.849 46.4154 133.763 46.5662C133.677 46.7169 133.547 46.8387 133.391 46.9158C132.954 47.0993 132.48 47.1821 132.006 47.158H131.44V52.6732C131.434 53.0345 131.451 53.3957 131.49 53.7549C131.512 53.9824 131.605 54.1975 131.756 54.3702C131.85 54.4564 131.962 54.522 132.083 54.5627C132.205 54.6033 132.334 54.6182 132.461 54.6062C132.704 54.5983 132.946 54.567 133.183 54.5128C133.416 54.4593 133.654 54.428 133.894 54.4194C134.018 54.421 134.141 54.4476 134.254 54.4976C134.368 54.5476 134.47 54.6199 134.554 54.7102C134.65 54.8039 134.726 54.916 134.776 55.0397C134.827 55.1634 134.852 55.2961 134.848 55.4295C134.844 55.6728 134.765 55.909 134.623 56.1071C134.48 56.3052 134.28 56.4559 134.049 56.5393C133.32 56.8314 132.536 56.9626 131.751 56.9235C131.002 56.9706 130.255 56.807 129.597 56.4515C129.12 56.1525 128.777 55.6848 128.636 55.1437C128.466 54.4128 128.389 53.6635 128.409 52.9136V47.1562H128.01C127.649 47.1808 127.293 47.0711 127.011 46.8485C126.899 46.7514 126.811 46.6312 126.751 46.4965C126.692 46.3618 126.663 46.2158 126.666 46.0688C126.663 45.921 126.694 45.7743 126.756 45.64C126.819 45.5057 126.912 45.3874 127.028 45.2941C127.33 45.0732 127.702 44.9659 128.077 44.9915Z" fill="#EB674C"/>
<path d="M147.307 50.8254C147.316 51.6676 147.173 52.5047 146.885 53.2972C146.621 54.0237 146.205 54.6866 145.664 55.242C145.125 55.7875 144.473 56.2123 143.754 56.4876C142.957 56.7878 142.109 56.9357 141.256 56.9235C140.41 56.9365 139.569 56.7872 138.78 56.4838C138.06 56.2016 137.409 55.7711 136.871 55.221C136.332 54.6708 135.917 54.0136 135.655 53.2928C135.369 52.5018 135.228 51.6667 135.239 50.8267C135.229 49.9781 135.372 49.1346 135.661 48.3356C135.922 47.6148 136.334 46.9569 136.871 46.4051C137.41 45.8618 138.061 45.4403 138.78 45.1695C140.386 44.5894 142.148 44.5913 143.752 45.1751C144.477 45.4507 145.132 45.8781 145.673 46.4281C146.215 46.9781 146.63 47.6375 146.889 48.3612C147.174 49.1518 147.316 49.986 147.307 50.8254ZM144.265 50.8254C144.327 49.8091 144.038 48.8021 143.447 47.9688C143.19 47.6383 142.857 47.3732 142.476 47.1954C142.094 47.0177 141.676 46.9325 141.254 46.9469C140.697 46.9364 140.151 47.0958 139.688 47.4034C139.212 47.7384 138.849 48.207 138.645 48.7485C138.158 50.083 138.156 51.5435 138.639 52.8793C138.843 53.418 139.202 53.8858 139.672 54.2251C140.137 54.5412 140.69 54.7044 141.254 54.6915C141.676 54.706 142.095 54.6203 142.477 54.4417C142.858 54.263 143.191 53.9965 143.447 53.6646C144.036 52.8367 144.324 51.8361 144.265 50.8254Z" fill="#EE5449"/>
<path d="M100.359 46.0786C99.9746 46.3736 99.6085 46.6914 99.2627 47.0302C99.0836 47.247 98.9655 47.5067 98.9203 47.7831C98.7976 48.4538 98.7315 49.1351 98.6365 49.8108C98.6117 49.9847 98.5191 50.142 98.3785 50.2491C98.238 50.3562 98.0606 50.4045 97.8844 50.3838C97.794 50.3764 97.7061 50.3506 97.6263 50.3081C97.5465 50.2655 97.4764 50.2071 97.4205 50.1364C97.3646 50.0658 97.324 49.9844 97.3014 49.8975C97.2788 49.8106 97.2745 49.72 97.289 49.6315C97.3935 48.7459 97.5099 47.8622 97.6169 46.9766C97.6557 46.6394 97.8268 46.3308 98.0933 46.1172C98.6856 45.619 99.2715 45.1171 99.877 44.6369C100.455 44.1443 101.196 43.8801 101.958 43.8952C102.21 43.8823 102.46 43.9454 102.675 44.0764C102.889 44.2073 103.058 44.3998 103.16 44.6282C103.452 45.2334 103.698 45.8591 103.897 46.5002C103.971 46.8007 104.118 47.0788 104.325 47.3102C104.532 47.5416 104.794 47.7191 105.086 47.8273C105.602 48.0447 106.106 48.2907 106.612 48.531C106.769 48.6018 106.891 48.7304 106.953 48.8894C107.014 49.0483 107.011 49.2248 106.942 49.3811C106.911 49.4591 106.863 49.5297 106.802 49.5886C106.741 49.6474 106.669 49.6932 106.589 49.7232C106.51 49.7531 106.425 49.7665 106.34 49.7625C106.255 49.7585 106.172 49.7372 106.096 49.7C105.268 49.3282 104.432 48.9651 103.628 48.546C103.367 48.3602 103.144 48.1279 102.969 47.861C102.889 47.7217 102.797 47.5896 102.693 47.4661C102.581 48.0048 102.505 48.5553 102.347 49.0803C102.281 49.2954 102.268 49.5232 102.309 49.7443C102.351 49.9654 102.446 50.1733 102.586 50.3501C103.663 51.9712 104.702 53.624 105.749 55.2718C105.828 55.3763 105.885 55.4959 105.915 55.6232C105.945 55.7504 105.948 55.8824 105.923 56.0108C105.899 56.1392 105.847 56.2611 105.773 56.3688C105.698 56.4765 105.601 56.5676 105.489 56.6364C105.377 56.7051 105.251 56.7499 105.121 56.7679C104.99 56.786 104.857 56.7769 104.73 56.7412C104.603 56.7055 104.485 56.644 104.383 56.5606C104.281 56.4773 104.198 56.3739 104.139 56.257C103.295 54.9318 102.443 53.6115 101.598 52.2869C101.009 51.3627 100.419 50.4386 99.8462 49.5038C99.761 49.3523 99.73 49.1767 99.758 49.0056C99.9374 48.059 100.142 47.1136 100.359 46.0786Z" fill="#444444"/>
<path d="M104.966 56.9796C104.758 56.9756 104.555 56.9163 104.378 56.8081C104.201 56.6999 104.056 56.5466 103.959 56.3643C103.522 55.6781 103.083 54.993 102.643 54.3092C102.234 53.6719 101.826 53.0342 101.418 52.3961L101.391 52.3538C100.82 51.4582 100.229 50.5316 99.6642 49.6093C99.5532 49.4151 99.5128 49.1891 99.5496 48.9691C99.6837 48.261 99.831 47.5573 99.9902 46.8131L100.032 46.6138C99.8127 46.7835 99.6063 46.9694 99.415 47.1699C99.2615 47.3579 99.1608 47.5826 99.1229 47.8213C99.0455 48.2442 98.9908 48.6807 98.9373 49.1042C98.9058 49.3502 98.8743 49.5962 98.8397 49.8422C98.8062 50.0691 98.6846 50.2742 98.5006 50.4138C98.3167 50.5533 98.0849 50.6164 97.8547 50.5895C97.7373 50.5787 97.6233 50.5442 97.5198 50.4883C97.4163 50.4324 97.3254 50.3562 97.2527 50.2643C97.18 50.1724 97.127 50.0668 97.097 49.954C97.067 49.8411 97.0605 49.7234 97.0781 49.608C97.1389 49.0928 97.2019 48.5778 97.2669 48.0629C97.3135 47.693 97.36 47.3225 97.4047 46.9526C97.4505 46.5617 97.649 46.204 97.9579 45.9562L98.4331 45.557C98.8598 45.1976 99.3004 44.8265 99.746 44.4734C100.362 43.947 101.154 43.6662 101.967 43.6856C102.258 43.6724 102.547 43.7472 102.794 43.9002C103.042 44.0531 103.236 44.2769 103.352 44.5419L103.429 44.715C103.696 45.2735 103.92 45.8509 104.099 46.4425C104.165 46.7129 104.297 46.9632 104.483 47.171C104.67 47.3788 104.906 47.5378 105.169 47.6339C105.601 47.8157 106.028 48.0194 106.441 48.2161L106.704 48.3407C106.909 48.4348 107.07 48.6048 107.15 48.8142C107.231 49.0237 107.226 49.256 107.136 49.4617C107.093 49.5647 107.029 49.6579 106.948 49.7356C106.867 49.8133 106.771 49.8739 106.666 49.9137C106.561 49.9535 106.448 49.9715 106.336 49.9668C106.223 49.9622 106.113 49.9348 106.011 49.8864L105.703 49.7494C104.984 49.4293 104.24 49.0986 103.53 48.7262C103.294 48.5794 103.092 48.384 102.939 48.1532C102.895 48.0972 102.852 48.0412 102.808 47.9882L102.805 47.9826V47.9913C102.74 48.3766 102.655 48.7581 102.549 49.1341C102.491 49.3204 102.48 49.5178 102.517 49.7091C102.555 49.9004 102.639 50.0798 102.763 50.2314C103.653 51.579 104.533 52.9641 105.384 54.303L105.927 55.1581C106.044 55.3295 106.115 55.5271 106.135 55.7328C106.154 55.9385 106.121 56.1457 106.039 56.3357C105.957 56.5067 105.832 56.6542 105.676 56.7643C105.52 56.8743 105.339 56.9433 105.149 56.9647C105.088 56.9742 105.027 56.9792 104.966 56.9796ZM100.686 45.5283L100.564 46.1199C100.509 46.384 100.455 46.6418 100.402 46.8953C100.246 47.6382 100.098 48.3395 99.9663 49.0432C99.9479 49.1637 99.97 49.2869 100.029 49.3938C100.591 50.313 101.182 51.2378 101.752 52.1339L101.779 52.1763C102.183 52.8132 102.59 53.4496 103 54.0857C103.44 54.7711 103.879 55.4561 104.317 56.1408C104.384 56.2823 104.496 56.3988 104.635 56.4732C104.774 56.5476 104.933 56.576 105.09 56.5543C105.211 56.5428 105.328 56.5005 105.428 56.4314C105.528 56.3623 105.608 56.2689 105.661 56.1601C105.715 56.0328 105.735 55.8942 105.72 55.7571C105.705 55.62 105.655 55.4889 105.575 55.376L105.029 54.5216C104.179 53.1839 103.3 51.8001 102.412 50.4562C102.256 50.2537 102.151 50.0174 102.105 49.7669C102.059 49.5163 102.073 49.2585 102.147 49.0145C102.249 48.6528 102.331 48.2859 102.393 47.9154C102.423 47.7491 102.455 47.5828 102.489 47.4171L102.564 47.0572L102.836 47.3063C102.923 47.3914 102.996 47.4898 103.052 47.5977C103.075 47.6414 103.101 47.683 103.13 47.7223C103.177 47.7796 103.223 47.8388 103.27 47.8985C103.39 48.0796 103.545 48.2356 103.726 48.3575C104.424 48.7237 105.161 49.0513 105.874 49.3689L106.183 49.5065C106.234 49.5325 106.29 49.5475 106.347 49.5507C106.405 49.5539 106.462 49.5451 106.516 49.525C106.57 49.5049 106.619 49.4738 106.66 49.4338C106.701 49.3939 106.733 49.3459 106.754 49.2929C106.801 49.1857 106.803 49.0643 106.76 48.9555C106.717 48.8466 106.632 48.759 106.524 48.7119L106.261 48.5873C105.852 48.3924 105.429 48.1906 105.007 48.0125C104.685 47.8926 104.398 47.6968 104.17 47.4419C103.941 47.1871 103.78 46.881 103.699 46.5503C103.524 45.9788 103.307 45.421 103.049 44.8813L102.972 44.7075C102.886 44.5146 102.742 44.3525 102.56 44.2433C102.378 44.1341 102.166 44.0831 101.953 44.0972C101.24 44.0839 100.548 44.3321 100.009 44.7941C99.5685 45.1434 99.128 45.5127 98.7063 45.8702C98.5477 46.0039 98.3889 46.1374 98.2298 46.2706C98.0018 46.4503 97.8552 46.7121 97.822 46.9987C97.7767 47.3694 97.7305 47.7401 97.6835 48.1109C97.6206 48.6247 97.5577 49.1385 97.4947 49.6529C97.4837 49.7146 97.486 49.778 97.5013 49.8388C97.5167 49.8997 97.5448 49.9566 97.5838 50.006C97.6229 50.0554 97.672 50.0961 97.728 50.1255C97.784 50.1549 97.8456 50.1723 97.9089 50.1766C98.0307 50.1904 98.1531 50.1567 98.2501 50.0824C98.3471 50.0082 98.411 49.8994 98.4281 49.7793C98.4633 49.5364 98.491 49.2923 98.525 49.0488C98.5791 48.6203 98.6345 48.1769 98.7138 47.741C98.7647 47.4265 98.9002 47.1314 99.1059 46.8866C99.3375 46.6474 99.5873 46.4261 99.853 46.2246C99.9713 46.1287 100.095 46.029 100.222 45.9207L100.686 45.5283Z" fill="#444444"/>
<path d="M99.4528 50.7041C99.8795 51.2689 100.271 51.7871 100.661 52.3096C100.678 52.335 100.69 52.3636 100.695 52.3936C100.7 52.4235 100.7 52.4543 100.693 52.484C100.595 53.0522 100.388 53.5967 100.083 54.0876C99.488 54.828 98.9386 55.604 98.3665 56.3619C98.3073 56.4654 98.2265 56.5553 98.1294 56.6255C98.0324 56.6957 97.9214 56.7447 97.8038 56.7692C97.6861 56.7937 97.5646 56.7932 97.4472 56.7676C97.3298 56.742 97.2192 56.6921 97.1228 56.6209C97.0271 56.5494 96.9475 56.4589 96.8893 56.3551C96.8311 56.2514 96.7955 56.1367 96.7847 56.0185C96.774 55.9003 96.7884 55.7812 96.827 55.6688C96.8656 55.5564 96.9276 55.4533 97.0089 55.3661C97.5508 54.6375 98.1021 53.9157 98.6359 53.1814C98.7563 53.0105 98.8476 52.8212 98.9059 52.621C99.0928 52.0107 99.2583 51.391 99.4528 50.7041Z" fill="#444444"/>
<path d="M97.6206 56.9996C97.3965 56.9959 97.1794 56.9217 97.0007 56.7878C96.8914 56.7126 96.7985 56.6163 96.7278 56.5047C96.6571 56.3931 96.6099 56.2684 96.5891 56.1383C96.5691 55.9801 96.581 55.8195 96.6242 55.6659C96.6674 55.5122 96.7411 55.3686 96.8408 55.2434C97.0351 54.9822 97.2304 54.7213 97.4268 54.4606C97.7698 54.0035 98.1254 53.5302 98.4665 53.0612C98.5732 52.9091 98.6541 52.7408 98.7063 52.563C98.8397 52.1271 98.9618 51.6874 99.0915 51.2216L99.252 50.6487L99.3659 50.2451L99.8845 50.9302C100.212 51.363 100.523 51.7727 100.829 52.1856C100.865 52.2371 100.89 52.2958 100.9 52.3577C100.911 52.4196 100.908 52.4831 100.892 52.5437C100.848 52.682 100.812 52.8215 100.775 52.9684C100.694 53.4171 100.513 53.8425 100.246 54.214C99.8492 54.7078 99.4653 55.2272 99.094 55.7298C98.9052 55.9789 98.722 56.2336 98.5338 56.4833C98.4338 56.6347 98.2988 56.7605 98.14 56.8502C97.9813 56.94 97.8033 56.9911 97.6206 56.9996ZM99.5402 51.1637L99.4936 51.3312C99.3627 51.7989 99.2419 52.2417 99.106 52.682C99.0407 52.9044 98.939 53.1148 98.8051 53.3047C98.4621 53.7768 98.1065 54.2507 97.7616 54.7097C97.5665 54.9696 97.3716 55.2301 97.1769 55.4912C97.1102 55.5727 97.0604 55.6664 97.0304 55.767C97.0004 55.8676 96.9907 55.973 97.0019 56.0773C97.0145 56.1533 97.0426 56.2261 97.0843 56.2911C97.1261 56.3562 97.1807 56.4123 97.2449 56.4559C97.3196 56.5105 97.4053 56.5485 97.4963 56.5673C97.5872 56.5861 97.6811 56.5853 97.7717 56.5649C97.8623 56.5445 97.9474 56.505 98.0211 56.4491C98.0948 56.3932 98.1555 56.3223 98.199 56.241C98.387 55.9919 98.5731 55.7416 98.7573 55.49C99.1311 54.9843 99.5176 54.4612 99.9191 53.9611C100.148 53.6346 100.302 53.2627 100.37 52.8713C100.406 52.7281 100.444 52.5805 100.49 52.4354V52.4254C100.189 52.0219 99.8795 51.6127 99.5528 51.1799L99.5402 51.1637Z" fill="#444444"/>
<path d="M104.384 41.7291C104.384 42.0462 104.289 42.3562 104.111 42.6197C103.933 42.8832 103.679 43.0883 103.383 43.2088C103.087 43.3294 102.761 43.36 102.447 43.2967C102.133 43.2334 101.845 43.0791 101.62 42.8534C101.394 42.6278 101.242 42.3409 101.182 42.0294C101.122 41.7179 101.158 41.3959 101.283 41.1042C101.409 40.8125 101.619 40.5644 101.888 40.3914C102.157 40.2185 102.471 40.1285 102.792 40.133C103.215 40.1406 103.619 40.3119 103.916 40.6101C104.214 40.9084 104.382 41.31 104.384 41.7291Z" fill="#444444"/>
<path d="M102.77 43.5409C102.285 43.5357 101.822 43.3415 101.481 43.0005C101.14 42.6595 100.948 42.1991 100.948 41.7193C100.971 41.2551 101.173 40.8173 101.514 40.4971C101.854 40.1768 102.306 39.9988 102.776 40C103.246 40.0012 103.697 40.1816 104.036 40.5035C104.374 40.8255 104.575 41.2643 104.595 41.7287C104.595 42.2083 104.403 42.6685 104.061 43.0083C103.719 43.348 103.254 43.5396 102.77 43.5409H102.77ZM102.775 40.3393C102.403 40.3404 102.047 40.4861 101.783 40.745C101.518 41.0039 101.368 41.3552 101.363 41.7231C101.365 42.0926 101.513 42.4466 101.776 42.7091C102.039 42.9716 102.395 43.1216 102.768 43.1268C103.142 43.1245 103.499 42.976 103.763 42.7139C104.026 42.4517 104.174 42.0971 104.174 41.7274C104.173 41.3626 104.027 41.0126 103.768 40.7528C103.509 40.493 103.158 40.3441 102.789 40.3381L102.775 40.3393Z" fill="#444444"/>
<path d="M152.703 52.5941V55.0988C152.742 55.5936 152.587 56.0843 152.27 56.4689C152.13 56.6177 151.96 56.7353 151.77 56.8139C151.581 56.8925 151.377 56.9303 151.171 56.9248C150.969 56.9306 150.767 56.8922 150.581 56.8125C150.395 56.7327 150.229 56.6135 150.094 56.4633C149.787 56.0772 149.636 55.5911 149.673 55.1007V46.747C149.673 45.3998 150.165 44.7259 151.149 44.7255C151.356 44.7073 151.564 44.741 151.755 44.8235C151.945 44.906 152.111 45.0347 152.238 45.1976C152.489 45.6193 152.616 46.1028 152.604 46.5925C152.893 46.0682 153.27 45.5964 153.72 45.1976C154.155 44.8651 154.697 44.6977 155.246 44.7255C155.894 44.7285 156.531 44.8907 157.1 45.1976C157.356 45.2981 157.578 45.4699 157.737 45.6923C157.897 45.9147 157.988 46.178 157.999 46.4506C158.004 46.62 157.973 46.7885 157.907 46.9448C157.841 47.1012 157.742 47.2418 157.616 47.3573C157.399 47.5793 157.102 47.7075 156.789 47.7141C156.514 47.6758 156.244 47.6077 155.984 47.5111C155.621 47.3865 155.241 47.318 154.857 47.3081C154.464 47.2914 154.078 47.4142 153.769 47.6544C153.458 47.9298 153.231 48.2854 153.114 48.6813C152.944 49.207 152.836 49.7503 152.792 50.3005C152.732 50.9286 152.703 51.6932 152.703 52.5941Z" fill="#EF4B46"/>
<path fill-rule="evenodd" clip-rule="evenodd" d="M371.347 406.097H348.354L352.283 426.933H375.275L371.347 406.097Z" fill="#D3D8DC"/>
<path fill-rule="evenodd" clip-rule="evenodd" d="M271.563 394.273L294.199 394.229L293.574 423.407L268.84 422.113L271.563 394.273Z" fill="#D3D8DC"/>
<path fill-rule="evenodd" clip-rule="evenodd" d="M298.44 442.101C298.44 442.101 292.815 443.038 287.636 443.35C283.216 443.618 283.305 449.016 275.894 451.827C270.402 453.879 261.786 453.924 251.205 452.451C241.204 451.068 237.543 449.061 236.873 448.258H236.784V448.124C236.74 448.034 236.74 447.945 236.784 447.901L236.65 443.082H239.954C240.981 442.547 242.365 442.235 244.24 442.279C252.5 441.476 266.965 425.058 269.108 415.064C271.295 413.502 275.894 416.135 280.091 418.231C284.6 424.656 289.511 420.775 289.511 420.775C289.511 420.775 291.386 418.365 293.752 416.313C298.574 422.916 299.645 440.182 298.44 442.101Z" fill="#2C1C28"/>
<path fill-rule="evenodd" clip-rule="evenodd" d="M393 446.652L392.91 450.801H392.821C392.821 450.845 392.821 450.89 392.821 450.89C389.517 452.229 386.392 453.433 373.891 453.924C363.534 454.37 356.881 452.809 353.131 450.399C348.979 447.767 352.372 442.101 348.175 441.387C345.631 440.941 345.05 439.201 345.05 439.201C345.631 430.813 346.523 420.775 349.783 416.893C349.783 419.704 351.97 422.024 351.97 422.024C351.97 422.024 353.042 423.05 356.881 416.492C361.837 414.35 367.328 413.993 372.507 416.581C376.436 431.393 382.731 439.335 387.955 444.733C389.249 444.733 390.232 445.536 390.991 446.607H393V446.652Z" fill="#2C1C28"/>
<path fill-rule="evenodd" clip-rule="evenodd" d="M298.306 437.594C298.306 437.594 292.681 438.531 287.502 438.843C283.082 439.111 283.171 444.509 275.76 447.32C270.269 449.372 261.652 449.417 251.071 447.945C238.258 446.16 235.847 443.394 236.829 443.349C236.829 443.349 236.74 437.594 244.151 437.773C252.41 436.969 267.01 421.042 269.153 411.048C271.34 409.486 278.796 411.673 280.001 413.725C284.511 420.15 288.752 418.365 288.752 418.365C288.752 418.365 293.306 417.294 293.797 411.851C298.663 418.454 299.512 435.676 298.306 437.594Z" fill="#814A2A"/>
<path fill-rule="evenodd" clip-rule="evenodd" d="M345.184 435.052C345.184 435.052 345.72 436.792 348.309 437.238C352.506 437.952 349.113 443.618 353.265 446.25C357.015 448.66 363.668 450.221 374.025 449.775C386.526 449.239 389.651 448.08 392.955 446.741C392.955 446.741 391.616 440.629 388.089 440.629C382.91 435.23 376.57 427.289 372.641 412.476C369.293 409.978 361.971 410.201 357.015 412.387C353.22 418.946 352.06 417.563 352.06 417.563C352.06 417.563 349.872 415.733 349.604 412.923C347.059 418.232 345.809 426.664 345.184 435.052Z" fill="#814A2A"/>
<path fill-rule="evenodd" clip-rule="evenodd" d="M372.24 408.506C372.24 408.595 372.24 408.55 372.24 408.64C372.15 409.8 364.784 410.736 355.899 410.736C347.461 410.736 340.63 409.889 340.095 408.818H340.05C340.05 408.818 327.638 392.89 325.942 361.794C322.192 292.595 294.645 222.148 294.645 222.148C294.645 222.148 291.967 204.302 338.264 215.099L372.24 408.372V408.506Z" fill="#5A74C7"/>
<path fill-rule="evenodd" clip-rule="evenodd" d="M300.047 205.819C278.751 205.819 261.563 209.567 261.697 214.207C261.831 218.847 279.198 222.595 300.494 222.595C321.79 222.595 338.978 218.847 338.845 214.207C338.755 209.567 321.388 205.819 300.047 205.819Z" fill="#5A74C7"/>
<path fill-rule="evenodd" clip-rule="evenodd" d="M337.729 187.124C337.729 187.124 326.746 180.12 309.245 179.852C274.242 179.361 259.286 186.946 259.286 186.946L260.045 214.117L338.309 207.424L337.729 187.124Z" fill="#7581F1"/>
<path fill-rule="evenodd" clip-rule="evenodd" d="M299.378 358.492C303.976 391.195 297.547 408.684 297.235 409.487C296.967 410.424 290.404 411.138 282.234 411.138C274.198 411.138 267.59 410.424 267.144 409.487H267.099L259.643 205.997C259.643 205.997 269.956 203.766 279.287 205.997C290.136 208.584 299.512 220.675 299.512 220.675C299.512 220.675 291.877 305.221 299.378 358.492Z" fill="#5A74C7"/>
<path d="M269.599 194.218C269.599 194.218 269.108 208.183 260.491 217.953" stroke="#555EC2" stroke-width="1.00854" stroke-miterlimit="10" stroke-linecap="round" stroke-linejoin="round"/>
<path d="M313.843 192.033C313.843 192.033 314.111 211.798 332.237 218.312" stroke="#3763C3" stroke-width="1.00854" stroke-miterlimit="10" stroke-linecap="round" stroke-linejoin="round"/>
<path d="M372.15 407.835L330.674 207.558C330.898 203.765 331.701 194.441 331.701 194.441" stroke="#3763C3" stroke-width="1.00854" stroke-miterlimit="10" stroke-linecap="round" stroke-linejoin="round"/>
<path d="M290.181 223.844C290.181 223.844 287.055 305.088 292.19 363.935C294.511 390.258 290.225 410.425 290.225 410.425" stroke="#3763C3" stroke-width="1.00854" stroke-miterlimit="10" stroke-linecap="round" stroke-linejoin="round"/>
<path fill-rule="evenodd" clip-rule="evenodd" d="M298.306 237.585L298.619 232.99L295.493 222.594L283.26 220.318C283.216 220.318 285.671 234.194 298.306 237.585Z" fill="#375BB7"/>
<path fill-rule="evenodd" clip-rule="evenodd" d="M249.839 144.345C253.646 179.205 245.886 196.592 257.764 205.187C258.27 211.326 259.06 220.8 259.06 220.8C259.06 220.8 259.139 221.509 259.692 222.031C260.338 222.588 260.856 222.799 260.856 222.799C260.856 222.799 260.258 220.262 260.519 220.188C263.245 219.255 271.65 217.285 298.454 214.741C318.722 212.792 330.609 213.44 338.562 213.45C339.11 215.14 339.258 215.662 339.258 215.662C339.258 215.662 342.6 214.616 342.634 213.31C342.634 213.31 341.518 201.718 341.097 198.353C349.104 192.027 347.873 176.99 334.093 137.317C340.441 133.017 344.287 125.225 343.355 116.89C342.051 105.228 332.033 96.7846 320.807 97.6339L320.274 97.6934C320.23 97.6983 320.186 97.7033 320.097 97.7132C320.052 97.7181 319.964 97.728 319.919 97.733L255.642 105.044C245.542 107.518 238.764 117.613 239.983 128.52C240.717 135.083 244.783 140.914 249.839 144.345Z" fill="#ED5C18"/>
<path d="M257.334 196.592C268.139 194.406 312.606 191.015 341.045 199.046" stroke="#CC2818" stroke-width="1.00854" stroke-miterlimit="10" stroke-linecap="round" stroke-linejoin="round"/>
<path d="M270.509 115.46L285.04 125.69L299.743 111.747" stroke="#CC2818" stroke-width="1.00854" stroke-miterlimit="10" stroke-linecap="round" stroke-linejoin="round"/>
<path fill-rule="evenodd" clip-rule="evenodd" d="M277.546 135.011C271.922 146.188 256.513 166.674 242.916 176.452C240.311 181.277 235.491 184.778 229.634 185.432C220.184 186.487 211.65 179.674 210.599 170.274C209.851 163.578 213.066 157.383 218.345 153.966C218.468 153.862 218.552 153.808 218.675 153.704C233.189 144.901 239.158 125.155 240.176 121.405C241.739 112.881 248.701 106.043 257.753 105.032C268.801 103.799 278.809 111.75 280.043 122.79C280.539 127.224 279.57 131.418 277.546 135.011Z" fill="#ED5C18"/>
<path d="M246.18 169.086L252.737 126.469" stroke="#ED5C18" stroke-width="1.00854" stroke-miterlimit="10" stroke-linecap="round" stroke-linejoin="round"/>
<path fill-rule="evenodd" clip-rule="evenodd" d="M386.607 156.592C387.767 166.968 380.274 176.289 369.936 177.443C363.857 178.122 358.122 175.844 354.155 171.708L322.795 140.732C312.155 140.797 302.926 132.58 301.677 121.406C300.348 109.523 308.59 98.8613 320.126 97.5734C326.826 96.8254 333.089 99.4033 337.47 104.032L337.549 103.933L381.197 145.165L381.157 145.215C384.053 148.213 386.107 152.114 386.607 156.592Z" fill="#ED5C18"/>
<path d="M316.184 133.84L347.768 167.62" stroke="#CC2818" stroke-width="1.00854" stroke-miterlimit="10" stroke-linecap="round" stroke-linejoin="round"/>
<path fill-rule="evenodd" clip-rule="evenodd" d="M386.608 156.592C387.767 166.968 380.274 176.289 369.936 177.443C368.25 177.631 366.583 177.593 364.981 177.323L333.756 175.691L333.808 147.223C333.808 147.223 340.183 147.185 344.453 147.202C349.02 133.808 369.37 139.033 371.649 140.125C379.376 141.732 385.671 148.212 386.608 156.592Z" fill="#ED5C18"/>
<path fill-rule="evenodd" clip-rule="evenodd" d="M335.573 147.745C331.953 145.905 328.244 150.494 327.336 158.047C326.424 165.556 328.647 173.389 332.267 175.229C335.887 177.07 339.572 172.259 340.484 164.75C341.436 157.191 339.193 149.586 335.573 147.745Z" fill="#CC2818"/>
<path fill-rule="evenodd" clip-rule="evenodd" d="M335.047 149.062C331.806 147.403 328.496 151.544 327.677 158.28C326.857 165.015 328.853 172.02 332.094 173.679C335.334 175.337 338.625 171.019 339.444 164.283C340.303 157.498 338.326 150.671 335.047 149.062Z" fill="#D3D8DC"/>
<path fill-rule="evenodd" clip-rule="evenodd" d="M325.635 148.856L333.577 148.777L333.859 174.2L325.024 174.333L325.635 148.856Z" fill="#D3D8DC"/>
<path fill-rule="evenodd" clip-rule="evenodd" d="M326.739 149.093C323.499 147.434 320.188 151.575 319.369 158.31C318.55 165.046 320.546 172.051 323.786 173.709C327.026 175.368 330.317 171.05 331.136 164.314C331.951 157.534 329.974 150.707 326.739 149.093Z" fill="#A8B3BC"/>
<path fill-rule="evenodd" clip-rule="evenodd" d="M325.902 150.038C323.184 148.635 320.386 152.135 319.714 157.777C319.047 163.463 320.692 169.341 323.405 170.699C326.122 172.102 328.906 168.469 329.573 162.782C330.289 157.135 328.614 151.396 325.902 150.038Z" fill="#E99670"/>
<path fill-rule="evenodd" clip-rule="evenodd" d="M298.524 149.862L304.155 158.84L298.524 149.862Z" fill="#E99670"/>
<path fill-rule="evenodd" clip-rule="evenodd" d="M308.385 167.753C302.591 165.347 300.216 160.584 295.501 156.98L293.715 155.877C292.704 155.272 292.339 154.011 292.856 153.01C293.383 152.098 294.516 151.792 295.463 152.225C295.463 152.225 300.445 154.991 306.924 155.884C316.832 152.892 330.305 174.554 308.385 167.753Z" fill="#E99670"/>
<path d="M286.357 135.464L299.113 137.856L300.124 138.057L300.632 138.18L300.863 138.244L301.189 138.342C302.111 138.553 302.959 138.908 303.817 139.35C304.675 139.793 305.455 140.335 306.2 140.97C306.55 141.29 306.9 141.61 307.255 141.974C307.408 142.137 307.566 142.344 307.719 142.506L308.139 143.043L323.059 162.387C325.635 165.736 317.72 170.48 310.168 165.218L303.042 146.081L302.825 145.746C302.771 145.663 302.717 145.579 302.662 145.495C302.554 145.328 302.401 145.165 302.248 145.003C301.942 144.678 301.641 144.397 301.252 144.126C300.867 143.9 300.482 143.673 300.058 143.496L299.871 143.427L299.639 143.364L299.126 143.196L298.15 142.901L285.521 139.642C284.357 139.278 283.592 138.062 283.868 136.909C284.198 135.84 285.252 135.228 286.357 135.464Z" fill="#E99670"/>
<path fill-rule="evenodd" clip-rule="evenodd" d="M308.626 157.849L303.857 148.146L303.561 147.909C303.463 147.83 303.413 147.791 303.315 147.712C303.167 147.594 302.974 147.481 302.782 147.368C302.397 147.141 302.018 146.959 301.603 146.871C301.184 146.738 300.77 146.65 300.321 146.655L300.139 146.63L299.868 146.616L299.375 146.626L298.384 146.602L285.757 146.171C284.544 146.171 283.543 145.251 283.458 144.093C283.388 143.068 284.192 142.215 285.301 142.091L297.833 141.68L298.81 141.571L299.298 141.516L299.564 141.487L299.874 141.452C300.767 141.397 301.674 141.475 302.591 141.642C303.508 141.809 304.391 142.07 305.244 142.469C305.668 142.646 306.097 142.867 306.482 143.094C306.674 143.207 306.867 143.32 307.064 143.478L307.597 143.822L317.69 153.335C322.388 160.802 317.536 160.401 308.626 157.849Z" fill="#E99670"/>
<path d="M286.357 135.464L299.113 137.856L300.124 138.057L300.632 138.18L300.863 138.244L301.189 138.342C302.111 138.553 302.959 138.908 303.817 139.35C304.675 139.793 305.455 140.335 306.2 140.97C306.55 141.29 306.9 141.61 307.255 141.974C307.408 142.137 307.566 142.344 307.719 142.506L308.139 143.043L323.059 162.387C325.635 165.736 317.72 170.48 310.168 165.218L303.042 146.081L302.825 145.746C302.771 145.663 302.717 145.579 302.662 145.495C302.554 145.328 302.401 145.165 302.248 145.003C301.942 144.678 301.641 144.397 301.252 144.126C300.867 143.9 300.482 143.673 300.058 143.496L299.871 143.427L299.639 143.364L299.126 143.196L298.15 142.901L285.521 139.642C284.357 139.278 283.592 138.062 283.868 136.909C284.198 135.84 285.252 135.228 286.357 135.464Z" fill="#E99670"/>
<path fill-rule="evenodd" clip-rule="evenodd" d="M313.334 157.772L306.555 149.371L306.219 149.184C306.126 149.149 306.027 149.07 305.933 149.036C305.746 148.967 305.554 148.854 305.371 148.829C304.952 148.697 304.538 148.608 304.129 148.564C303.719 148.52 303.271 148.525 302.832 148.619L302.654 148.639L302.393 148.713L301.91 148.812L300.944 149.009L291.957 151C290.774 151.267 289.575 150.593 289.274 149.504C288.983 148.504 289.588 147.494 290.629 147.153L299.344 144.339L300.295 144.009L300.773 143.866L300.99 143.796L301.296 143.717C302.168 143.485 303.051 143.342 303.987 143.282C304.924 143.223 305.831 143.301 306.748 143.468C307.207 143.551 307.67 143.679 308.09 143.812C308.321 143.876 308.553 143.94 308.745 144.053L309.357 144.299L317.647 156.572C323.74 162.851 322.603 158.309 313.334 157.772Z" fill="#E99670"/>
<path fill-rule="evenodd" clip-rule="evenodd" d="M296.401 146.553L308.879 144.845L310.624 160.454L306.232 162.156L296.401 146.553Z" fill="#E99670"/>
<path fill-rule="evenodd" clip-rule="evenodd" d="M324.654 149.727L313.897 151.556L313.795 169.122L324.514 170.978C328.244 166.162 328.001 156.761 324.654 149.727Z" fill="#E99670"/>
<path d="M310.913 165.852C310.913 165.852 308.758 164.252 308.075 160.962C305.569 149.39 305.938 148.675 303.635 148.573C303.818 148.597 300.899 149.013 300.899 149.013L291.913 151.004C290.73 151.271 289.531 150.597 289.23 149.508C288.938 148.508 289.544 147.498 290.584 147.157L299.299 144.343C299.299 144.343 304.494 142.192 307.084 143.654C310.299 145.495 315.47 151.157 315.47 151.157" stroke="#2C1C28" stroke-width="1.00854" stroke-miterlimit="10" stroke-linecap="round" stroke-linejoin="round"/>
<path d="M293.241 146.412C289.77 146.305 285.846 146.16 285.846 146.16C284.633 146.161 283.631 145.24 283.547 144.082C283.477 143.057 284.28 142.204 285.39 142.081L297.922 141.669L298.898 141.56L299.386 141.506L299.653 141.476L299.963 141.441C300.855 141.386 301.763 141.465 302.68 141.632C303.597 141.799 304.48 142.059 305.333 142.458C305.757 142.635 306.186 142.856 306.571 143.083C306.763 143.196 306.955 143.309 307.153 143.467" stroke="#2C1C28" stroke-width="1.00854" stroke-miterlimit="10" stroke-linecap="round" stroke-linejoin="round"/>
<path d="M339.288 175.344C343.223 177.194 347.209 172.26 348.274 164.509C349.295 156.764 347.368 149.168 343.432 147.317" stroke="#CC2818" stroke-width="1.00854" stroke-miterlimit="10" stroke-linecap="round" stroke-linejoin="round"/>
<path d="M333.764 147.231C333.764 147.231 340.139 147.192 344.408 147.21C348.976 133.815 369.326 139.04 371.605 140.133" stroke="#CC2818" stroke-width="1.00854" stroke-miterlimit="10" stroke-linecap="round" stroke-linejoin="round"/>
<path fill-rule="evenodd" clip-rule="evenodd" d="M299.252 90.4792C302.872 92.7239 296.809 101.976 288.961 104.513C280.547 107.203 272.785 105.286 272.763 101.069C272.813 94.6881 289.309 84.3164 299.252 90.4792Z" fill="black"/>
<path fill-rule="evenodd" clip-rule="evenodd" d="M299.598 100.002L296.234 72.7235L275.641 75.3817L274.397 105.24C274.397 105.24 274.353 105.649 274.378 105.87C274.472 107.117 277.096 107.677 280.892 107.478L284.113 119.014L285.679 106.898C286.206 106.794 286.778 106.686 287.35 106.577C294.325 105.08 299.9 102.303 299.731 100.391C299.716 100.258 299.701 100.125 299.598 100.002Z" fill="#E99670"/>
<path fill-rule="evenodd" clip-rule="evenodd" d="M298.31 89.6861C300.569 91.0051 302.392 96.8622 289.123 103.955C287.285 104.385 286.354 106.105 285.616 109.554L284.103 118.522L281.579 110.005C281.579 110.005 281.04 108.404 280.448 107.527C279.644 106.36 278.776 105.829 278.776 105.829C278.776 105.829 274.027 103.935 273.405 102.388C272.23 99.5113 273.993 97.6085 274.999 96.5535C275.008 96.2382 275.018 95.9228 275.028 95.6075C273.894 96.3177 272.189 97.9446 271.289 101.143C268.714 107.042 270.124 115.638 270.124 115.638L274.93 112.812L284.202 119.409L293.929 110.377C293.929 110.377 296.607 111.021 300.404 112.033C303.449 108.731 306.335 103.605 306.598 99.1309L299.636 90.3011L298.349 89.6368L298.31 89.6861Z" fill="#D3D8DC"/>
<path d="M298.512 89.887C299.296 90.4728 299.785 91.2264 299.899 92.2462C300.31 95.9264 295.571 101.349 289.163 103.905C287.743 104.467 286.654 105.577 286.187 107.02C285.34 109.494 284.421 113.727 284.207 119.048C282.838 113.634 281.429 106.25 277.622 105.148C276.927 104.957 276.226 104.721 275.639 104.292C274.515 103.475 273.627 102.362 273.498 101.209" stroke="#2A1C28" stroke-width="1.00854" stroke-miterlimit="10" stroke-linecap="round" stroke-linejoin="round"/>
<path fill-rule="evenodd" clip-rule="evenodd" d="M270.08 115.644L282.043 111.346C282.043 111.346 280.645 107.282 279.343 105.676C278.045 104.115 273.324 107.695 270.08 115.644Z" fill="#2A1C28"/>
<path fill-rule="evenodd" clip-rule="evenodd" d="M300.315 112.043L285.095 111.722C285.218 111.619 285.042 106.026 287.945 104.266C289.67 103.22 297.167 107.187 300.315 112.043Z" fill="#2A1C28"/>
<path fill-rule="evenodd" clip-rule="evenodd" d="M274.578 101.63C292.455 93.1696 290.336 79.0398 290.336 79.0398L275.272 84.1336L274.578 101.63Z" fill="#C87149"/>
<path fill-rule="evenodd" clip-rule="evenodd" d="M274.931 91.5388C276.456 92.37 278.175 92.7313 279.906 92.627C281.637 92.5227 283.304 92.0193 284.755 91.0663C288.831 88.3759 294.149 83.1245 295.066 73.4815C302.025 73.702 304.017 62.7465 299.422 61.1842C296.574 60.2532 293.774 62.8713 292.591 65.1387C292.529 65.2483 292.415 65.5107 292.396 65.6085C290.998 60.3476 295.416 53.1685 291.587 51.0259C271.357 39.7318 263.576 54.7263 261.834 57.6558C261.863 61.3027 262.553 64.9995 263.114 70.5826C264.224 82.2143 270.009 88.9557 274.931 91.5388ZM292.548 65.1505C292.579 65.0957 292.579 65.0957 292.548 65.1505V65.1505Z" fill="#E99670"/>
<path d="M274.727 80.168C274.727 80.168 279.35 79.6407 281.396 75.795" stroke="#2C1C28" stroke-width="1.00854" stroke-miterlimit="10" stroke-linecap="round" stroke-linejoin="round"/>
<path d="M268.559 61.41C265.935 61.2965 262.868 63.1089 262.427 64.2013" stroke="#2C1C28" stroke-width="1.00854" stroke-miterlimit="10" stroke-linecap="round" stroke-linejoin="round"/>
<path d="M283.575 58.7737C281.609 58.0174 277.963 57.7215 274.586 59.7575" stroke="#2C1C28" stroke-width="1.00854" stroke-miterlimit="10" stroke-linecap="round" stroke-linejoin="round"/>
<path d="M271.416 65.5781C271.416 65.5781 272.073 67.8038 271.151 72.0353C270.307 75.8754 272.921 76.9633 276.457 74.8371" stroke="#2C1C28" stroke-width="1.00854" stroke-miterlimit="10" stroke-linecap="round" stroke-linejoin="round"/>
<path fill-rule="evenodd" clip-rule="evenodd" d="M279.858 62.9389C279.2 63.0729 278.845 64.1418 279.109 65.2723C279.374 66.4028 280.138 67.1647 280.796 67.0307C281.454 66.8967 281.808 65.8279 281.544 64.6974C281.28 63.5668 280.515 62.8049 279.858 62.9389Z" fill="#2C1C28"/>
<path fill-rule="evenodd" clip-rule="evenodd" d="M266.702 65.9448C266.044 66.0788 265.689 67.1476 265.953 68.2782C266.217 69.4087 266.982 70.1706 267.64 70.0366C268.297 69.9026 268.652 68.8337 268.388 67.7032C268.124 66.5727 267.359 65.8108 266.702 65.9448Z" fill="#2C1C28"/>
<path fill-rule="evenodd" clip-rule="evenodd" d="M258.852 58.9364C262.749 70.2666 261.881 60.188 261.881 60.188C264.361 61.1273 272.059 56.2872 277.929 51.0233C283.756 45.7711 287.821 44.0551 289.573 52.9663C290.761 58.9789 296.503 39.0844 290.3 41.1088C288.863 28.4562 275.731 39.6436 275.731 39.6436C275.731 39.6436 270.309 35.0695 264.387 36.6005C258.852 38.0252 255.763 43.6372 257.936 48.6857C253.822 49.7209 250.872 51.4549 258.852 58.9364Z" fill="#951800"/>
<path fill-rule="evenodd" clip-rule="evenodd" d="M263.035 60.0096C265.597 60.2328 270.581 57.4784 278.02 51.6917C284.247 46.885 287.797 48.6876 289.85 57.5162C290.319 59.562 291.321 64.5614 291.874 67.4171C292.266 65.1352 293.891 62.2841 297.683 60.9206C294.559 55.9479 299.568 38.1049 290.257 41.12C290.066 39.4142 289.849 38.4559 289.311 37.1693C288.75 36.3053 284.593 32.1246 279.305 44.3998C275.552 53.1549 268.262 59.3171 263.035 60.0096ZM258.852 58.9358C260.243 64.8464 262.916 69.0176 262.916 69.0176L262.39 60.1867C260.388 59.8101 259.369 59.3029 258.852 58.9358Z" fill="#5F1001"/>
<path fill-rule="evenodd" clip-rule="evenodd" d="M226.662 112.735C226.662 112.735 226.006 115.347 225.97 117.33C225.747 123.421 226.955 128.449 227.083 129.209L229.628 119.632L226.662 112.735Z" fill="#EC957E"/>
<path fill-rule="evenodd" clip-rule="evenodd" d="M255.243 162.763C254.245 175.394 242.741 184.551 238.797 187.014C232.511 191.63 223.6 191.636 217.341 186.484C213.834 183.606 211.8 179.66 211.292 175.5C210.33 170.746 208.441 156.158 218.362 147.091C223.363 142.532 227.563 142.751 227.563 142.751L250.918 151.028C250.871 150.991 255.693 156.776 255.243 162.763Z" fill="#ED5C18"/>
<path fill-rule="evenodd" clip-rule="evenodd" d="M240.3 141.543C247.238 143.522 251.767 148.996 250.409 153.794C249.047 158.55 242.33 160.849 235.35 158.875C228.413 156.896 223.883 151.421 225.241 146.623C226.604 141.867 233.321 139.569 240.3 141.543Z" fill="#CC2818"/>
<path fill-rule="evenodd" clip-rule="evenodd" d="M251.182 141.834L249.326 151.42C249.336 151.892 249.26 152.374 249.1 152.865C247.898 157.129 241.88 159.135 235.656 157.377C229.475 155.615 225.399 150.736 226.644 146.467C226.823 145.758 227.187 145.158 227.635 144.549L233.477 133.271L251.182 141.834Z" fill="#D3D8DC"/>
<path fill-rule="evenodd" clip-rule="evenodd" d="M249.368 151.416C249.369 151.803 249.322 152.152 249.232 152.507C246.01 152.565 242.371 151.208 239.35 148.447C234.746 144.229 233.211 138.205 235.434 134.213L251.224 141.83L249.368 151.416Z" fill="#D3D8DC"/>
<path fill-rule="evenodd" clip-rule="evenodd" d="M243.02 131.215C243.02 131.215 256.941 140.588 248.76 144.815C242.898 147.835 229.882 140.383 227.787 130.119C225.996 121.413 243.02 131.215 243.02 131.215Z" fill="#A8B3BC"/>
<path fill-rule="evenodd" clip-rule="evenodd" d="M251.337 140.914C248.754 142.45 244.317 143.203 237.03 139.628C226.826 134.615 240.944 135.749 249.232 136.717C250.334 138.1 251.185 139.554 251.337 140.914Z" fill="#C87149"/>
<path fill-rule="evenodd" clip-rule="evenodd" d="M237.275 99.0746L222.837 100.471C222.114 100.552 221.746 101.11 222.034 101.766L237.582 138.405C237.87 139.061 238.655 139.533 239.378 139.452L253.816 138.055C254.539 137.974 254.907 137.417 254.618 136.761L239.071 100.122C238.782 99.4656 237.997 98.9939 237.275 99.0746Z" fill="#2C1C28"/>
<path fill-rule="evenodd" clip-rule="evenodd" d="M246.963 135.292C252.227 135.393 251.974 130.818 249.644 130.39C253.003 129.628 253.034 126.053 248.209 124.871C241.57 123.246 233.85 123.893 233.85 123.893L234.227 122.259C234.227 122.259 237.114 123.055 238.924 123.456C243.068 124.327 244.757 119.793 237.153 116.469C232.852 114.583 229.535 114.179 227.936 117.971C226.228 121.948 223.998 129.725 232.758 138.384C235.441 144.667 244.113 140.601 245.648 139.311C247.891 137.426 247.635 136.293 246.963 135.292Z" fill="#E99670"/>
<path d="M250.339 130.442C250.339 130.442 237.429 128.183 229.919 131.474" stroke="#2C1C28" stroke-width="1.00854" stroke-miterlimit="10" stroke-linecap="round" stroke-linejoin="round"/>
<path d="M247.94 135.467C244.377 135.563 237.834 135.95 234.122 138.171" stroke="#2C1C28" stroke-miterlimit="10" stroke-linecap="round" stroke-linejoin="round"/>
<path d="M238.758 123.518C238.886 123.504 230.055 123.457 227.714 126.386" stroke="#2C1C28" stroke-width="1.00854" stroke-miterlimit="10" stroke-linecap="round" stroke-linejoin="round"/>
<path d="M238.447 123.424L231.037 121.455" stroke="#2C1C28" stroke-width="1.00854" stroke-miterlimit="10" stroke-linecap="round" stroke-linejoin="round"/>
<path d="M252.11 151.168C254.722 157.956 256.812 173.827 244.273 183.016" stroke="#CC2818" stroke-width="1.01051" stroke-linecap="round"/>
<defs>
<clipPath id="clip0_1373_2282">
<rect width="32.4873" height="25" fill="white" transform="translate(53 158)"/>
</clipPath>
</defs>
</svg>
