<svg width="50" height="50" viewBox="0 0 50 50" fill="none" xmlns="http://www.w3.org/2000/svg">
<g clip-path="url(#clip0_1333_2885)">
<path d="M42.7083 33.3333V38.5417C42.7083 42.5625 39.4375 45.8333 35.4166 45.8333H14.5833C10.5625 45.8333 7.29163 42.5625 7.29163 38.5417V37.1875C7.29163 33.9167 9.95829 31.25 13.2291 31.25H40.625C41.7708 31.25 42.7083 32.1875 42.7083 33.3333Z" fill="#ED5C18"/>
<path d="M32.2916 4.1665H17.7083C9.37496 4.1665 7.29163 6.24984 7.29163 14.5832V30.3748C8.87496 28.979 10.9583 28.1248 13.2291 28.1248H40.625C41.7708 28.1248 42.7083 27.1873 42.7083 26.0415V14.5832C42.7083 6.24984 40.625 4.1665 32.2916 4.1665ZM27.0833 22.3957H16.6666C15.8125 22.3957 15.1041 21.6873 15.1041 20.8332C15.1041 19.979 15.8125 19.2707 16.6666 19.2707H27.0833C27.9375 19.2707 28.6458 19.979 28.6458 20.8332C28.6458 21.6873 27.9375 22.3957 27.0833 22.3957ZM33.3333 15.104H16.6666C15.8125 15.104 15.1041 14.3957 15.1041 13.5415C15.1041 12.6873 15.8125 11.979 16.6666 11.979H33.3333C34.1875 11.979 34.8958 12.6873 34.8958 13.5415C34.8958 14.3957 34.1875 15.104 33.3333 15.104Z" fill="#ED5C18"/>
</g>
<defs>
<clipPath id="clip0_1333_2885">
<rect width="50" height="50" fill="white"/>
</clipPath>
</defs>
</svg>
