<svg width="33" height="33" viewBox="0 0 33 33" fill="none" xmlns="http://www.w3.org/2000/svg">
<circle cx="16.5" cy="16.5" r="16.5" fill="#D9D9D9"/>
<path d="M11.5391 25V23.25L16.9531 17.6406C17.5313 17.0312 18.0078 16.4974 18.3828 16.0391C18.763 15.5755 19.0469 15.1354 19.2344 14.7187C19.4219 14.3021 19.5156 13.8594 19.5156 13.3906C19.5156 12.8594 19.3906 12.401 19.1406 12.0156C18.8906 11.625 18.5495 11.3255 18.1172 11.1172C17.6849 10.9036 17.1979 10.7969 16.6562 10.7969C16.0833 10.7969 15.5833 10.9141 15.1562 11.1484C14.7292 11.3828 14.401 11.7135 14.1719 12.1406C13.9427 12.5677 13.8281 13.0677 13.8281 13.6406H11.5234C11.5234 12.6667 11.7474 11.8151 12.1953 11.0859C12.6432 10.3568 13.2578 9.79167 14.0391 9.39062C14.8203 8.98437 15.7083 8.78125 16.7031 8.78125C17.7083 8.78125 18.5938 8.98177 19.3594 9.38281C20.1302 9.77865 20.7318 10.3203 21.1641 11.0078C21.5964 11.6901 21.8125 12.4609 21.8125 13.3203C21.8125 13.9141 21.7005 14.4948 21.4766 15.0625C21.2578 15.6302 20.875 16.263 20.3281 16.9609C19.7813 17.6536 19.0208 18.4948 18.0469 19.4844L14.8672 22.8125V22.9297H22.0703V25H11.5391Z" fill="#33475B"/>
</svg>
