<svg width="33" height="33" viewBox="0 0 33 33" fill="none" xmlns="http://www.w3.org/2000/svg">
<circle cx="16.5" cy="16.5" r="16.5" fill="#D9D9D9"/>
<path d="M16.8203 25.2187C15.8411 25.2187 14.9609 25.0312 14.1797 24.6562C13.4036 24.276 12.7839 23.7552 12.3203 23.0938C11.8568 22.4323 11.6094 21.6771 11.5781 20.8281H13.9219C13.9792 21.5156 14.2839 22.0807 14.8359 22.5234C15.388 22.9661 16.0495 23.1875 16.8203 23.1875C17.4349 23.1875 17.9792 23.0469 18.4531 22.7656C18.9323 22.4792 19.3073 22.0859 19.5781 21.5859C19.8542 21.0859 19.9922 20.5156 19.9922 19.875C19.9922 19.224 19.8516 18.6432 19.5703 18.1328C19.2891 17.6224 18.901 17.2214 18.4063 16.9297C17.9167 16.638 17.3542 16.4896 16.7188 16.4844C16.2344 16.4844 15.7474 16.5677 15.2578 16.7344C14.7682 16.901 14.3724 17.1198 14.0703 17.3906L11.8594 17.0625L12.7578 9H21.5547V11.0703H14.7656L14.2578 15.5469H14.3516C14.6641 15.2448 15.0781 14.9922 15.5938 14.7891C16.1146 14.5859 16.6719 14.4844 17.2656 14.4844C18.2396 14.4844 19.1068 14.7161 19.8672 15.1797C20.6328 15.6432 21.2344 16.276 21.6719 17.0781C22.1146 17.875 22.3333 18.7917 22.3281 19.8281C22.3333 20.8646 22.099 21.7891 21.625 22.6016C21.1563 23.4141 20.5052 24.0547 19.6719 24.5234C18.8438 24.987 17.8932 25.2187 16.8203 25.2187Z" fill="#33475B"/>
</svg>
