<svg width="321" height="619" viewBox="0 0 321 619" fill="none" xmlns="http://www.w3.org/2000/svg">
<rect x="8" y="8" width="305" height="603" rx="48" fill="#FCFCFC" stroke="#E2E2E2" stroke-width="15"/>
<rect x="90" y="5" width="142" height="23" rx="10" fill="#E2E2E2"/>
<rect x="47.6523" y="100.652" width="225.695" height="421.695" rx="12.3937" fill="white" stroke="#E2E2E2" stroke-width="1.3046"/>
<path d="M131.784 355.459H112.459V374.784H131.784V355.459Z" fill="#D0CFCF"/>
<path d="M131.784 430.549H112.459V449.874H131.784V430.549Z" fill="#D0CFCF"/>
<path d="M97 406.531V415.089V420.611V465.333H147.244V438.279H158.838V450.702V451.53V464.781H172.918V453.186H183.96V464.781H198.039V451.53H208.254V464.781H222.333V450.702H209.082V437.451H195.003V450.702H185.754V423.371H172.918V411.777H186.169V425.028H200.248V416.194H208.254V421.991V429.445V436.07H222.333V429.445V421.991V415.366H213.499V402.943H222.333V390.244V388.864V340H172.089V340.093H158.838V355.459H147.244V340H97V384.446V390.244V398.525H105.834V406.531H97ZM138.409 456.499H105.834V423.924H138.409V456.499ZM159.666 425.028H171.676V437.451H159.666V425.028ZM159.666 398.525H170.846V410.948H159.666V398.525ZM208.254 402.114H200.661V397.698H172.917V390.244H208.253V402.114H208.254ZM180.923 348.834H213.499V381.409H180.923V348.834ZM172.089 384.446H159.666V356.933H172.089V384.446ZM158.838 397.698H147.279V385.275H158.838V397.698ZM105.834 348.834H138.409V381.409H105.834V348.834ZM133.2 390.244V398.525H145.587V411.776H158.838V424.199H147.244V415.089H111.079V411.776H119.085H119.914H133.164V397.697H119.913H119.085H111.079V390.243H133.2V390.244Z" fill="#D0CFCF"/>
<path d="M206.874 355.459H187.549V374.784H206.874V355.459Z" fill="#D0CFCF"/>
<path d="M64.0114 132V120.364H66.4716V125.165H71.4659V120.364H73.9205V132H71.4659V127.193H66.4716V132H64.0114ZM75.9034 132V123.273H78.3239V132H75.9034ZM77.1193 122.148C76.7595 122.148 76.4508 122.028 76.1932 121.79C75.9394 121.547 75.8125 121.258 75.8125 120.92C75.8125 120.587 75.9394 120.301 76.1932 120.062C76.4508 119.82 76.7595 119.699 77.1193 119.699C77.4792 119.699 77.786 119.82 78.0398 120.062C78.2973 120.301 78.4261 120.587 78.4261 120.92C78.4261 121.258 78.2973 121.547 78.0398 121.79C77.786 122.028 77.4792 122.148 77.1193 122.148ZM90.3239 123.71C90.2784 123.252 90.0833 122.896 89.7386 122.642C89.3939 122.388 88.9261 122.261 88.3352 122.261C87.9337 122.261 87.5947 122.318 87.3182 122.432C87.0417 122.542 86.8295 122.695 86.6818 122.892C86.5379 123.089 86.4659 123.312 86.4659 123.562C86.4583 123.771 86.5019 123.953 86.5966 124.108C86.6951 124.263 86.8295 124.398 87 124.511C87.1705 124.621 87.3674 124.718 87.5909 124.801C87.8144 124.881 88.053 124.949 88.3068 125.006L89.3523 125.256C89.8598 125.369 90.3258 125.521 90.75 125.71C91.1742 125.9 91.5417 126.133 91.8523 126.409C92.1629 126.686 92.4034 127.011 92.5739 127.386C92.7481 127.761 92.8371 128.191 92.8409 128.676C92.8371 129.388 92.6553 130.006 92.2955 130.528C91.9394 131.047 91.4242 131.451 90.75 131.739C90.0795 132.023 89.2708 132.165 88.3239 132.165C87.3845 132.165 86.5663 132.021 85.8693 131.733C85.1761 131.445 84.6345 131.019 84.2443 130.455C83.858 129.886 83.6553 129.184 83.6364 128.347H86.017C86.0436 128.737 86.1553 129.062 86.3523 129.324C86.553 129.581 86.8201 129.777 87.1534 129.909C87.4905 130.038 87.8712 130.102 88.2955 130.102C88.7121 130.102 89.0739 130.042 89.3807 129.92C89.6913 129.799 89.9318 129.631 90.1023 129.415C90.2727 129.199 90.358 128.951 90.358 128.67C90.358 128.409 90.2803 128.189 90.125 128.011C89.9735 127.833 89.75 127.682 89.4545 127.557C89.1629 127.432 88.8049 127.318 88.3807 127.216L87.1136 126.898C86.1326 126.659 85.358 126.286 84.7898 125.778C84.2216 125.271 83.9394 124.587 83.9432 123.727C83.9394 123.023 84.1269 122.407 84.5057 121.881C84.8883 121.354 85.4129 120.943 86.0795 120.648C86.7462 120.352 87.5038 120.205 88.3523 120.205C89.2159 120.205 89.9697 120.352 90.6136 120.648C91.2614 120.943 91.7652 121.354 92.125 121.881C92.4848 122.407 92.6705 123.017 92.6818 123.71H90.3239ZM100.047 128.284V123.273H102.467V132H100.143V130.415H100.053C99.8556 130.926 99.5279 131.337 99.0696 131.648C98.6151 131.958 98.0601 132.114 97.4048 132.114C96.8215 132.114 96.3082 131.981 95.8651 131.716C95.4219 131.451 95.0753 131.074 94.8253 130.585C94.5791 130.097 94.4541 129.511 94.4503 128.83V123.273H96.8707V128.398C96.8745 128.913 97.0128 129.32 97.2855 129.619C97.5582 129.919 97.9238 130.068 98.3821 130.068C98.6738 130.068 98.9465 130.002 99.2003 129.869C99.4541 129.733 99.6586 129.532 99.8139 129.267C99.973 129.002 100.051 128.674 100.047 128.284ZM104.403 132V123.273H106.71V124.812H106.812C106.994 124.301 107.297 123.898 107.722 123.602C108.146 123.307 108.653 123.159 109.244 123.159C109.843 123.159 110.352 123.309 110.773 123.608C111.193 123.903 111.473 124.305 111.614 124.812H111.705C111.883 124.312 112.205 123.913 112.67 123.614C113.14 123.311 113.695 123.159 114.335 123.159C115.15 123.159 115.811 123.419 116.318 123.938C116.83 124.453 117.085 125.184 117.085 126.131V132H114.67V126.608C114.67 126.123 114.542 125.759 114.284 125.517C114.027 125.275 113.705 125.153 113.318 125.153C112.879 125.153 112.536 125.294 112.29 125.574C112.044 125.85 111.92 126.216 111.92 126.67V132H109.574V126.557C109.574 126.129 109.451 125.788 109.205 125.534C108.962 125.28 108.642 125.153 108.244 125.153C107.975 125.153 107.733 125.222 107.517 125.358C107.305 125.491 107.136 125.678 107.011 125.92C106.886 126.159 106.824 126.439 106.824 126.761V132H104.403ZM118.997 132V123.273H121.418V132H118.997ZM120.213 122.148C119.853 122.148 119.545 122.028 119.287 121.79C119.033 121.547 118.906 121.258 118.906 120.92C118.906 120.587 119.033 120.301 119.287 120.062C119.545 119.82 119.853 119.699 120.213 119.699C120.573 119.699 120.88 119.82 121.134 120.062C121.391 120.301 121.52 120.587 121.52 120.92C121.52 121.258 121.391 121.547 121.134 121.79C120.88 122.028 120.573 122.148 120.213 122.148ZM127.999 123.273V125.091H122.743V123.273H127.999ZM123.936 121.182H126.357V129.318C126.357 129.542 126.391 129.716 126.459 129.841C126.527 129.962 126.622 130.047 126.743 130.097C126.868 130.146 127.012 130.17 127.175 130.17C127.288 130.17 127.402 130.161 127.516 130.142C127.629 130.119 127.716 130.102 127.777 130.091L128.158 131.892C128.036 131.93 127.866 131.973 127.646 132.023C127.427 132.076 127.16 132.108 126.845 132.119C126.262 132.142 125.75 132.064 125.311 131.886C124.875 131.708 124.536 131.432 124.294 131.057C124.052 130.682 123.932 130.208 123.936 129.636V121.182ZM132.881 122.392V120.364H142.438V122.392H138.875V132H136.443V122.392H132.881ZM146.386 126.955V132H143.966V120.364H146.318V124.812H146.42C146.617 124.297 146.936 123.894 147.375 123.602C147.814 123.307 148.366 123.159 149.028 123.159C149.634 123.159 150.163 123.292 150.614 123.557C151.068 123.818 151.42 124.195 151.67 124.688C151.924 125.176 152.049 125.761 152.045 126.443V132H149.625V126.875C149.629 126.337 149.492 125.919 149.216 125.619C148.943 125.32 148.561 125.17 148.068 125.17C147.739 125.17 147.447 125.241 147.193 125.381C146.943 125.521 146.746 125.725 146.602 125.994C146.462 126.259 146.39 126.58 146.386 126.955ZM153.95 135.273V123.273H156.337V124.739H156.445C156.551 124.504 156.704 124.265 156.905 124.023C157.109 123.777 157.375 123.572 157.7 123.409C158.03 123.242 158.439 123.159 158.928 123.159C159.564 123.159 160.151 123.326 160.689 123.659C161.227 123.989 161.657 124.487 161.979 125.153C162.301 125.816 162.462 126.648 162.462 127.648C162.462 128.621 162.304 129.443 161.99 130.114C161.679 130.78 161.255 131.286 160.717 131.631C160.183 131.972 159.585 132.142 158.922 132.142C158.452 132.142 158.053 132.064 157.723 131.909C157.397 131.754 157.13 131.559 156.922 131.324C156.714 131.085 156.554 130.845 156.445 130.602H156.371V135.273H153.95ZM156.32 127.636C156.32 128.155 156.392 128.608 156.536 128.994C156.679 129.381 156.888 129.682 157.161 129.898C157.433 130.11 157.765 130.216 158.155 130.216C158.549 130.216 158.882 130.108 159.155 129.892C159.428 129.672 159.634 129.369 159.774 128.983C159.918 128.593 159.99 128.144 159.99 127.636C159.99 127.133 159.92 126.689 159.78 126.307C159.64 125.924 159.433 125.625 159.161 125.409C158.888 125.193 158.553 125.085 158.155 125.085C157.761 125.085 157.428 125.189 157.155 125.398C156.886 125.606 156.679 125.902 156.536 126.284C156.392 126.667 156.32 127.117 156.32 127.636ZM166.564 132.165C166.007 132.165 165.511 132.068 165.075 131.875C164.64 131.678 164.295 131.388 164.041 131.006C163.791 130.619 163.666 130.138 163.666 129.562C163.666 129.078 163.755 128.67 163.933 128.341C164.111 128.011 164.354 127.746 164.661 127.545C164.967 127.345 165.316 127.193 165.706 127.091C166.1 126.989 166.513 126.917 166.945 126.875C167.452 126.822 167.861 126.773 168.172 126.727C168.482 126.678 168.708 126.606 168.848 126.511C168.988 126.417 169.058 126.277 169.058 126.091V126.057C169.058 125.697 168.945 125.419 168.717 125.222C168.494 125.025 168.176 124.926 167.763 124.926C167.327 124.926 166.981 125.023 166.723 125.216C166.465 125.405 166.295 125.644 166.212 125.932L163.973 125.75C164.087 125.22 164.31 124.761 164.643 124.375C164.977 123.985 165.407 123.686 165.933 123.477C166.464 123.265 167.077 123.159 167.774 123.159C168.259 123.159 168.723 123.216 169.166 123.33C169.613 123.443 170.009 123.619 170.354 123.858C170.702 124.097 170.977 124.403 171.178 124.778C171.378 125.15 171.479 125.595 171.479 126.114V132H169.183V130.79H169.115C168.975 131.062 168.787 131.303 168.553 131.511C168.318 131.716 168.036 131.877 167.706 131.994C167.376 132.108 166.996 132.165 166.564 132.165ZM167.257 130.494C167.613 130.494 167.928 130.424 168.2 130.284C168.473 130.14 168.687 129.947 168.842 129.705C168.998 129.462 169.075 129.187 169.075 128.881V127.955C169 128.004 168.895 128.049 168.763 128.091C168.634 128.129 168.488 128.165 168.325 128.199C168.162 128.229 168 128.258 167.837 128.284C167.674 128.307 167.526 128.328 167.393 128.347C167.109 128.388 166.861 128.455 166.649 128.545C166.437 128.636 166.272 128.759 166.155 128.915C166.037 129.066 165.979 129.256 165.979 129.483C165.979 129.812 166.098 130.064 166.337 130.239C166.579 130.409 166.886 130.494 167.257 130.494ZM173.357 132V123.273H175.703V124.795H175.794C175.953 124.254 176.22 123.845 176.595 123.568C176.97 123.288 177.402 123.148 177.891 123.148C178.012 123.148 178.143 123.155 178.283 123.17C178.423 123.186 178.546 123.206 178.652 123.233V125.381C178.538 125.347 178.381 125.316 178.18 125.29C177.98 125.263 177.796 125.25 177.629 125.25C177.273 125.25 176.955 125.328 176.675 125.483C176.398 125.634 176.179 125.847 176.016 126.119C175.857 126.392 175.777 126.706 175.777 127.062V132H173.357ZM181.534 130.409L181.472 131.034C181.422 131.534 181.328 132.032 181.188 132.528C181.051 133.028 180.907 133.481 180.756 133.886C180.608 134.292 180.489 134.61 180.398 134.841H178.83C178.886 134.617 178.964 134.305 179.062 133.903C179.161 133.506 179.254 133.059 179.341 132.562C179.428 132.066 179.483 131.561 179.506 131.045L179.534 130.409H181.534Z" fill="#3F4450"/>
<path d="M63.2855 150.273H64.7812L67.0611 154.24H67.1548L69.4347 150.273H70.9304L67.7642 155.574V159H66.4517V155.574L63.2855 150.273ZM73.7504 159.132C73.1367 159.132 72.6012 158.991 72.1438 158.71C71.6864 158.429 71.3313 158.036 71.0785 157.53C70.8256 157.024 70.6992 156.433 70.6992 155.757C70.6992 155.078 70.8256 154.484 71.0785 153.976C71.3313 153.467 71.6864 153.072 72.1438 152.791C72.6012 152.51 73.1367 152.369 73.7504 152.369C74.364 152.369 74.8995 152.51 75.3569 152.791C75.8143 153.072 76.1694 153.467 76.4222 153.976C76.6751 154.484 76.8015 155.078 76.8015 155.757C76.8015 156.433 76.6751 157.024 76.4222 157.53C76.1694 158.036 75.8143 158.429 75.3569 158.71C74.8995 158.991 74.364 159.132 73.7504 159.132ZM73.7546 158.062C74.1523 158.062 74.4819 157.957 74.7433 157.747C75.0046 157.537 75.1978 157.257 75.3228 156.908C75.4506 156.558 75.5146 156.173 75.5146 155.753C75.5146 155.335 75.4506 154.952 75.3228 154.602C75.1978 154.25 75.0046 153.967 74.7433 153.754C74.4819 153.541 74.1523 153.435 73.7546 153.435C73.354 153.435 73.0217 153.541 72.7575 153.754C72.4961 153.967 72.3015 154.25 72.1737 154.602C72.0487 154.952 71.9862 155.335 71.9862 155.753C71.9862 156.173 72.0487 156.558 72.1737 156.908C72.3015 157.257 72.4961 157.537 72.7575 157.747C73.0217 157.957 73.354 158.062 73.7546 158.062ZM82.37 156.286V152.455H83.6484V159H82.3956V157.866H82.3274C82.1768 158.216 81.9354 158.507 81.603 158.74C81.2734 158.97 80.8629 159.085 80.3714 159.085C79.951 159.085 79.5788 158.993 79.255 158.808C78.9339 158.621 78.6811 158.344 78.4964 157.977C78.3146 157.611 78.2237 157.158 78.2237 156.618V152.455H79.4979V156.464C79.4979 156.911 79.6214 157.266 79.8686 157.53C80.1158 157.794 80.4368 157.926 80.8317 157.926C81.0703 157.926 81.3075 157.866 81.5433 157.747C81.782 157.628 81.9794 157.447 82.1357 157.206C82.2947 156.964 82.3729 156.658 82.37 156.286ZM89.8104 155.114V159H88.5362V150.273H89.7933V153.52H89.8743C90.0277 153.168 90.2621 152.888 90.5774 152.68C90.8928 152.473 91.3047 152.369 91.8132 152.369C92.2621 152.369 92.6541 152.462 92.9893 152.646C93.3274 152.831 93.5888 153.107 93.7734 153.473C93.9609 153.837 94.0547 154.291 94.0547 154.837V159H92.7805V154.99C92.7805 154.51 92.657 154.138 92.4098 153.874C92.1626 153.607 91.8189 153.473 91.3786 153.473C91.0774 153.473 90.8075 153.537 90.5689 153.665C90.3331 153.793 90.147 153.98 90.0107 154.227C89.8771 154.472 89.8104 154.767 89.8104 155.114ZM97.6598 159.145C97.245 159.145 96.87 159.068 96.5348 158.915C96.1996 158.759 95.9339 158.533 95.7379 158.237C95.5447 157.942 95.4482 157.58 95.4482 157.151C95.4482 156.781 95.5192 156.477 95.6612 156.239C95.8033 156 95.995 155.811 96.2365 155.672C96.478 155.533 96.7479 155.428 97.0462 155.357C97.3445 155.286 97.6484 155.232 97.9581 155.195C98.3501 155.149 98.6683 155.112 98.9126 155.084C99.157 155.053 99.3345 155.003 99.4453 154.935C99.5561 154.866 99.6115 154.756 99.6115 154.602V154.572C99.6115 154.2 99.5064 153.912 99.2962 153.707C99.0888 153.503 98.7791 153.401 98.3672 153.401C97.9382 153.401 97.6001 153.496 97.353 153.686C97.1087 153.874 96.9396 154.082 96.8459 154.312L95.6484 154.04C95.7905 153.642 95.9979 153.321 96.2706 153.077C96.5462 152.83 96.8629 152.651 97.2209 152.54C97.5788 152.426 97.9553 152.369 98.3501 152.369C98.6115 152.369 98.8885 152.401 99.1811 152.463C99.4766 152.523 99.7521 152.634 100.008 152.795C100.266 152.957 100.478 153.189 100.643 153.49C100.808 153.788 100.89 154.176 100.89 154.653V159H99.6456V158.105H99.5945C99.5121 158.27 99.3885 158.432 99.2237 158.591C99.0589 158.75 98.8473 158.882 98.5888 158.987C98.3303 159.092 98.0206 159.145 97.6598 159.145ZM97.9368 158.122C98.2891 158.122 98.5902 158.053 98.8402 157.913C99.093 157.774 99.2848 157.592 99.4155 157.368C99.549 157.141 99.6158 156.898 99.6158 156.639V155.795C99.5703 155.841 99.4822 155.884 99.3516 155.923C99.2237 155.96 99.0774 155.993 98.9126 156.021C98.7479 156.047 98.5874 156.071 98.4311 156.094C98.2749 156.114 98.1442 156.131 98.0391 156.145C97.7919 156.176 97.5661 156.229 97.3615 156.303C97.1598 156.376 96.9979 156.483 96.8757 156.622C96.7564 156.759 96.6967 156.94 96.6967 157.168C96.6967 157.483 96.8132 157.722 97.0462 157.884C97.2791 158.043 97.576 158.122 97.9368 158.122ZM107.952 152.455L105.578 159H104.215L101.837 152.455H103.205L104.863 157.491H104.931L106.584 152.455H107.952ZM111.748 159.132C111.103 159.132 110.548 158.994 110.082 158.719C109.619 158.44 109.261 158.05 109.008 157.547C108.758 157.041 108.633 156.449 108.633 155.77C108.633 155.099 108.758 154.509 109.008 153.997C109.261 153.486 109.613 153.087 110.065 152.8C110.519 152.513 111.05 152.369 111.658 152.369C112.028 152.369 112.386 152.43 112.732 152.553C113.079 152.675 113.39 152.866 113.665 153.128C113.941 153.389 114.158 153.729 114.317 154.146C114.477 154.561 114.556 155.065 114.556 155.659V156.111H109.353V155.156H113.308C113.308 154.821 113.239 154.524 113.103 154.266C112.967 154.004 112.775 153.798 112.528 153.648C112.283 153.497 111.996 153.422 111.667 153.422C111.309 153.422 110.996 153.51 110.729 153.686C110.465 153.859 110.261 154.087 110.116 154.368C109.974 154.646 109.903 154.949 109.903 155.276V156.021C109.903 156.459 109.979 156.831 110.133 157.138C110.289 157.445 110.506 157.679 110.785 157.841C111.063 158 111.388 158.08 111.761 158.08C112.002 158.08 112.222 158.045 112.421 157.977C112.62 157.906 112.792 157.801 112.937 157.662C113.082 157.523 113.192 157.351 113.269 157.146L114.475 157.364C114.379 157.719 114.205 158.03 113.955 158.297C113.708 158.561 113.397 158.767 113.022 158.915C112.65 159.06 112.225 159.132 111.748 159.132ZM119.248 159V150.273H120.522V153.516H120.599C120.673 153.379 120.779 153.222 120.918 153.043C121.058 152.864 121.251 152.707 121.498 152.574C121.745 152.438 122.072 152.369 122.478 152.369C123.006 152.369 123.478 152.503 123.893 152.77C124.308 153.037 124.633 153.422 124.869 153.925C125.107 154.428 125.227 155.033 125.227 155.74C125.227 156.447 125.109 157.054 124.873 157.56C124.637 158.062 124.313 158.45 123.901 158.723C123.489 158.993 123.019 159.128 122.491 159.128C122.093 159.128 121.768 159.061 121.515 158.928C121.265 158.794 121.069 158.638 120.927 158.459C120.785 158.28 120.675 158.121 120.599 157.982H120.492V159H119.248ZM120.496 155.727C120.496 156.187 120.563 156.591 120.697 156.938C120.83 157.284 121.023 157.555 121.276 157.751C121.529 157.945 121.839 158.041 122.205 158.041C122.586 158.041 122.904 157.94 123.16 157.739C123.415 157.534 123.609 157.257 123.739 156.908C123.873 156.558 123.94 156.165 123.94 155.727C123.94 155.295 123.874 154.908 123.744 154.564C123.616 154.22 123.423 153.949 123.164 153.75C122.908 153.551 122.589 153.452 122.205 153.452C121.836 153.452 121.523 153.547 121.268 153.737C121.015 153.928 120.823 154.193 120.692 154.534C120.562 154.875 120.496 155.273 120.496 155.727ZM129.478 159.132C128.833 159.132 128.278 158.994 127.812 158.719C127.349 158.44 126.991 158.05 126.738 157.547C126.488 157.041 126.363 156.449 126.363 155.77C126.363 155.099 126.488 154.509 126.738 153.997C126.991 153.486 127.343 153.087 127.795 152.8C128.25 152.513 128.781 152.369 129.389 152.369C129.758 152.369 130.116 152.43 130.463 152.553C130.809 152.675 131.12 152.866 131.396 153.128C131.672 153.389 131.889 153.729 132.048 154.146C132.207 154.561 132.287 155.065 132.287 155.659V156.111H127.083V155.156H131.038C131.038 154.821 130.97 154.524 130.833 154.266C130.697 154.004 130.505 153.798 130.258 153.648C130.014 153.497 129.727 153.422 129.397 153.422C129.039 153.422 128.727 153.51 128.46 153.686C128.196 153.859 127.991 154.087 127.846 154.368C127.704 154.646 127.633 154.949 127.633 155.276V156.021C127.633 156.459 127.71 156.831 127.863 157.138C128.02 157.445 128.237 157.679 128.515 157.841C128.794 158 129.119 158.08 129.491 158.08C129.733 158.08 129.953 158.045 130.152 157.977C130.35 157.906 130.522 157.801 130.667 157.662C130.812 157.523 130.923 157.351 131 157.146L132.206 157.364C132.109 157.719 131.936 158.03 131.686 158.297C131.439 158.561 131.127 158.767 130.752 158.915C130.38 159.06 129.956 159.132 129.478 159.132ZM136.521 159.132C135.876 159.132 135.321 158.994 134.855 158.719C134.392 158.44 134.034 158.05 133.781 157.547C133.531 157.041 133.406 156.449 133.406 155.77C133.406 155.099 133.531 154.509 133.781 153.997C134.034 153.486 134.386 153.087 134.838 152.8C135.293 152.513 135.824 152.369 136.432 152.369C136.801 152.369 137.159 152.43 137.506 152.553C137.852 152.675 138.163 152.866 138.439 153.128C138.714 153.389 138.932 153.729 139.091 154.146C139.25 154.561 139.33 155.065 139.33 155.659V156.111H134.126V155.156H138.081C138.081 154.821 138.013 154.524 137.876 154.266C137.74 154.004 137.548 153.798 137.301 153.648C137.057 153.497 136.77 153.422 136.44 153.422C136.082 153.422 135.77 153.51 135.503 153.686C135.239 153.859 135.034 154.087 134.889 154.368C134.747 154.646 134.676 154.949 134.676 155.276V156.021C134.676 156.459 134.753 156.831 134.906 157.138C135.062 157.445 135.28 157.679 135.558 157.841C135.837 158 136.162 158.08 136.534 158.08C136.776 158.08 136.996 158.045 137.195 157.977C137.393 157.906 137.565 157.801 137.71 157.662C137.855 157.523 137.966 157.351 138.043 157.146L139.249 157.364C139.152 157.719 138.979 158.03 138.729 158.297C138.482 158.561 138.17 158.767 137.795 158.915C137.423 159.06 136.999 159.132 136.521 159.132ZM142.017 155.114V159H140.743V152.455H141.966V153.52H142.047C142.198 153.173 142.434 152.895 142.755 152.685C143.078 152.474 143.486 152.369 143.978 152.369C144.424 152.369 144.814 152.463 145.15 152.651C145.485 152.835 145.745 153.111 145.929 153.477C146.114 153.844 146.206 154.297 146.206 154.837V159H144.932V154.99C144.932 154.516 144.809 154.145 144.561 153.878C144.314 153.608 143.975 153.473 143.543 153.473C143.248 153.473 142.985 153.537 142.755 153.665C142.527 153.793 142.347 153.98 142.213 154.227C142.083 154.472 142.017 154.767 142.017 155.114ZM152.51 150.273V159H151.193V150.273H152.51ZM155.599 155.114V159H154.325V152.455H155.548V153.52H155.629C155.78 153.173 156.016 152.895 156.337 152.685C156.661 152.474 157.068 152.369 157.56 152.369C158.006 152.369 158.396 152.463 158.732 152.651C159.067 152.835 159.327 153.111 159.511 153.477C159.696 153.844 159.788 154.297 159.788 154.837V159H158.514V154.99C158.514 154.516 158.391 154.145 158.143 153.878C157.896 153.608 157.557 153.473 157.125 153.473C156.83 153.473 156.567 153.537 156.337 153.665C156.109 153.793 155.929 153.98 155.795 154.227C155.665 154.472 155.599 154.767 155.599 155.114ZM166.862 152.455L164.489 159H163.125L160.747 152.455H162.115L163.773 157.491H163.841L165.494 152.455H166.862ZM168.06 159V152.455H169.334V159H168.06ZM168.703 151.445C168.482 151.445 168.291 151.371 168.132 151.223C167.976 151.072 167.898 150.893 167.898 150.686C167.898 150.476 167.976 150.297 168.132 150.149C168.291 149.999 168.482 149.923 168.703 149.923C168.925 149.923 169.114 149.999 169.27 150.149C169.429 150.297 169.509 150.476 169.509 150.686C169.509 150.893 169.429 151.072 169.27 151.223C169.114 151.371 168.925 151.445 168.703 151.445ZM174.103 152.455V153.477H170.528V152.455H174.103ZM171.487 150.886H172.761V157.078C172.761 157.325 172.798 157.511 172.872 157.636C172.946 157.759 173.041 157.842 173.157 157.888C173.277 157.93 173.406 157.952 173.545 157.952C173.647 157.952 173.737 157.945 173.814 157.93C173.89 157.916 173.95 157.905 173.993 157.896L174.223 158.949C174.149 158.977 174.044 159.006 173.907 159.034C173.771 159.065 173.6 159.082 173.396 159.085C173.061 159.091 172.748 159.031 172.458 158.906C172.169 158.781 171.934 158.588 171.755 158.327C171.576 158.065 171.487 157.737 171.487 157.342V150.886ZM178.263 159.132C177.619 159.132 177.063 158.994 176.597 158.719C176.134 158.44 175.776 158.05 175.523 157.547C175.273 157.041 175.148 156.449 175.148 155.77C175.148 155.099 175.273 154.509 175.523 153.997C175.776 153.486 176.129 153.087 176.58 152.8C177.035 152.513 177.566 152.369 178.174 152.369C178.543 152.369 178.901 152.43 179.248 152.553C179.594 152.675 179.906 152.866 180.181 153.128C180.457 153.389 180.674 153.729 180.833 154.146C180.992 154.561 181.072 155.065 181.072 155.659V156.111H175.869V155.156H179.823C179.823 154.821 179.755 154.524 179.619 154.266C179.482 154.004 179.29 153.798 179.043 153.648C178.799 153.497 178.512 153.422 178.183 153.422C177.825 153.422 177.512 153.51 177.245 153.686C176.981 153.859 176.776 154.087 176.631 154.368C176.489 154.646 176.418 154.949 176.418 155.276V156.021C176.418 156.459 176.495 156.831 176.648 157.138C176.805 157.445 177.022 157.679 177.3 157.841C177.579 158 177.904 158.08 178.276 158.08C178.518 158.08 178.738 158.045 178.937 157.977C179.136 157.906 179.308 157.801 179.452 157.662C179.597 157.523 179.708 157.351 179.785 157.146L180.991 157.364C180.894 157.719 180.721 158.03 180.471 158.297C180.224 158.561 179.913 158.767 179.538 158.915C179.165 159.06 178.741 159.132 178.263 159.132ZM188.717 152.455V153.477H185.141V152.455H188.717ZM186.1 150.886H187.374V157.078C187.374 157.325 187.411 157.511 187.485 157.636C187.559 157.759 187.654 157.842 187.771 157.888C187.89 157.93 188.019 157.952 188.158 157.952C188.261 157.952 188.35 157.945 188.427 157.93C188.504 157.916 188.563 157.905 188.606 157.896L188.836 158.949C188.762 158.977 188.657 159.006 188.521 159.034C188.384 159.065 188.214 159.082 188.009 159.085C187.674 159.091 187.362 159.031 187.072 158.906C186.782 158.781 186.548 158.588 186.369 158.327C186.19 158.065 186.1 157.737 186.1 157.342V150.886ZM192.813 159.132C192.199 159.132 191.664 158.991 191.206 158.71C190.749 158.429 190.394 158.036 190.141 157.53C189.888 157.024 189.762 156.433 189.762 155.757C189.762 155.078 189.888 154.484 190.141 153.976C190.394 153.467 190.749 153.072 191.206 152.791C191.664 152.51 192.199 152.369 192.813 152.369C193.426 152.369 193.962 152.51 194.419 152.791C194.877 153.072 195.232 153.467 195.485 153.976C195.738 154.484 195.864 155.078 195.864 155.757C195.864 156.433 195.738 157.024 195.485 157.53C195.232 158.036 194.877 158.429 194.419 158.71C193.962 158.991 193.426 159.132 192.813 159.132ZM192.817 158.062C193.215 158.062 193.544 157.957 193.806 157.747C194.067 157.537 194.26 157.257 194.385 156.908C194.513 156.558 194.577 156.173 194.577 155.753C194.577 155.335 194.513 154.952 194.385 154.602C194.26 154.25 194.067 153.967 193.806 153.754C193.544 153.541 193.215 153.435 192.817 153.435C192.417 153.435 192.084 153.541 191.82 153.754C191.559 153.967 191.364 154.25 191.236 154.602C191.111 154.952 191.049 155.335 191.049 155.753C191.049 156.173 191.111 156.558 191.236 156.908C191.364 157.257 191.559 157.537 191.82 157.747C192.084 157.957 192.417 158.062 192.817 158.062ZM200.564 159V150.273H201.881V157.866H205.836V159H200.564ZM209.14 159.145C208.725 159.145 208.35 159.068 208.015 158.915C207.68 158.759 207.414 158.533 207.218 158.237C207.025 157.942 206.929 157.58 206.929 157.151C206.929 156.781 207 156.477 207.142 156.239C207.284 156 207.475 155.811 207.717 155.672C207.958 155.533 208.228 155.428 208.527 155.357C208.825 155.286 209.129 155.232 209.439 155.195C209.831 155.149 210.149 155.112 210.393 155.084C210.637 155.053 210.815 155.003 210.926 154.935C211.037 154.866 211.092 154.756 211.092 154.602V154.572C211.092 154.2 210.987 153.912 210.777 153.707C210.569 153.503 210.26 153.401 209.848 153.401C209.419 153.401 209.081 153.496 208.833 153.686C208.589 153.874 208.42 154.082 208.326 154.312L207.129 154.04C207.271 153.642 207.478 153.321 207.751 153.077C208.027 152.83 208.343 152.651 208.701 152.54C209.059 152.426 209.436 152.369 209.831 152.369C210.092 152.369 210.369 152.401 210.662 152.463C210.957 152.523 211.233 152.634 211.488 152.795C211.747 152.957 211.958 153.189 212.123 153.49C212.288 153.788 212.37 154.176 212.37 154.653V159H211.126V158.105H211.075C210.993 158.27 210.869 158.432 210.704 158.591C210.539 158.75 210.328 158.882 210.069 158.987C209.811 159.092 209.501 159.145 209.14 159.145ZM209.417 158.122C209.77 158.122 210.071 158.053 210.321 157.913C210.574 157.774 210.765 157.592 210.896 157.368C211.029 157.141 211.096 156.898 211.096 156.639V155.795C211.051 155.841 210.963 155.884 210.832 155.923C210.704 155.96 210.558 155.993 210.393 156.021C210.228 156.047 210.068 156.071 209.912 156.094C209.755 156.114 209.625 156.131 209.52 156.145C209.272 156.176 209.047 156.229 208.842 156.303C208.64 156.376 208.478 156.483 208.356 156.622C208.237 156.759 208.177 156.94 208.177 157.168C208.177 157.483 208.294 157.722 208.527 157.884C208.76 158.043 209.056 158.122 209.417 158.122ZM218.214 156.286V152.455H219.492V159H218.239V157.866H218.171C218.021 158.216 217.779 158.507 217.447 158.74C217.117 158.97 216.707 159.085 216.215 159.085C215.795 159.085 215.423 158.993 215.099 158.808C214.778 158.621 214.525 158.344 214.34 157.977C214.158 157.611 214.067 157.158 214.067 156.618V152.455H215.342V156.464C215.342 156.911 215.465 157.266 215.712 157.53C215.96 157.794 216.281 157.926 216.675 157.926C216.914 157.926 217.151 157.866 217.387 157.747C217.626 157.628 217.823 157.447 217.979 157.206C218.138 156.964 218.217 156.658 218.214 156.286ZM222.478 155.114V159H221.204V152.455H222.427V153.52H222.508C222.659 153.173 222.895 152.895 223.216 152.685C223.539 152.474 223.947 152.369 224.439 152.369C224.885 152.369 225.275 152.463 225.61 152.651C225.946 152.835 226.206 153.111 226.39 153.477C226.575 153.844 226.667 154.297 226.667 154.837V159H225.393V154.99C225.393 154.516 225.27 154.145 225.022 153.878C224.775 153.608 224.436 153.473 224.004 153.473C223.708 153.473 223.446 153.537 223.216 153.665C222.988 153.793 222.808 153.98 222.674 154.227C222.544 154.472 222.478 154.767 222.478 155.114ZM231.133 159.132C230.5 159.132 229.954 158.989 229.497 158.702C229.042 158.412 228.693 158.013 228.449 157.504C228.204 156.996 228.082 156.413 228.082 155.757C228.082 155.092 228.207 154.506 228.457 153.997C228.707 153.486 229.059 153.087 229.514 152.8C229.968 152.513 230.504 152.369 231.12 152.369C231.618 152.369 232.061 152.462 232.45 152.646C232.839 152.828 233.153 153.084 233.392 153.413C233.633 153.743 233.777 154.128 233.822 154.568H232.582C232.514 154.261 232.358 153.997 232.113 153.776C231.872 153.554 231.548 153.443 231.142 153.443C230.787 153.443 230.475 153.537 230.208 153.724C229.944 153.909 229.738 154.173 229.591 154.517C229.443 154.858 229.369 155.261 229.369 155.727C229.369 156.205 229.441 156.616 229.586 156.963C229.731 157.31 229.936 157.578 230.2 157.768C230.467 157.959 230.781 158.054 231.142 158.054C231.383 158.054 231.602 158.01 231.798 157.922C231.997 157.831 232.163 157.702 232.297 157.534C232.433 157.366 232.528 157.165 232.582 156.929H233.822C233.777 157.352 233.639 157.73 233.409 158.062C233.179 158.395 232.87 158.656 232.484 158.847C232.1 159.037 231.65 159.132 231.133 159.132ZM236.459 155.114V159H235.185V150.273H236.442V153.52H236.523C236.676 153.168 236.911 152.888 237.226 152.68C237.541 152.473 237.953 152.369 238.462 152.369C238.911 152.369 239.303 152.462 239.638 152.646C239.976 152.831 240.237 153.107 240.422 153.473C240.609 153.837 240.703 154.291 240.703 154.837V159H239.429V154.99C239.429 154.51 239.305 154.138 239.058 153.874C238.811 153.607 238.467 153.473 238.027 153.473C237.726 153.473 237.456 153.537 237.217 153.665C236.982 153.793 236.795 153.98 236.659 154.227C236.526 154.472 236.459 154.767 236.459 155.114ZM63.9588 174V165.273H67.0696C67.7486 165.273 68.3111 165.396 68.7571 165.643C69.2031 165.891 69.5369 166.229 69.7585 166.658C69.9801 167.084 70.0909 167.564 70.0909 168.098C70.0909 168.635 69.9787 169.118 69.7543 169.547C69.5327 169.973 69.1974 170.311 68.7486 170.561C68.3026 170.808 67.7415 170.932 67.0653 170.932H64.9261V169.815H66.946C67.375 169.815 67.723 169.741 67.9901 169.594C68.2571 169.443 68.4531 169.239 68.5781 168.98C68.7031 168.722 68.7656 168.428 68.7656 168.098C68.7656 167.768 68.7031 167.476 68.5781 167.22C68.4531 166.964 68.2557 166.764 67.9858 166.619C67.7188 166.474 67.3665 166.402 66.929 166.402H65.2756V174H63.9588ZM72.8065 170.114V174H71.5323V165.273H72.7894V168.52H72.8704C73.0238 168.168 73.2582 167.888 73.5735 167.68C73.8888 167.473 74.3008 167.369 74.8093 167.369C75.2582 167.369 75.6502 167.462 75.9854 167.646C76.3235 167.831 76.5849 168.107 76.7695 168.473C76.957 168.837 77.0508 169.291 77.0508 169.837V174H75.7766V169.99C75.7766 169.51 75.6531 169.138 75.4059 168.874C75.1587 168.607 74.815 168.473 74.3746 168.473C74.0735 168.473 73.8036 168.537 73.565 168.665C73.3292 168.793 73.1431 168.98 73.0067 169.227C72.8732 169.472 72.8065 169.767 72.8065 170.114ZM80.6559 174.145C80.2411 174.145 79.8661 174.068 79.5309 173.915C79.1957 173.759 78.93 173.533 78.734 173.237C78.5408 172.942 78.4442 172.58 78.4442 172.151C78.4442 171.781 78.5153 171.477 78.6573 171.239C78.7994 171 78.9911 170.811 79.2326 170.672C79.4741 170.533 79.744 170.428 80.0423 170.357C80.3406 170.286 80.6445 170.232 80.9542 170.195C81.3462 170.149 81.6644 170.112 81.9087 170.084C82.1531 170.053 82.3306 170.003 82.4414 169.935C82.5522 169.866 82.6076 169.756 82.6076 169.602V169.572C82.6076 169.2 82.5025 168.912 82.2923 168.707C82.0849 168.503 81.7752 168.401 81.3633 168.401C80.9343 168.401 80.5962 168.496 80.3491 168.686C80.1048 168.874 79.9357 169.082 79.842 169.312L78.6445 169.04C78.7866 168.642 78.994 168.321 79.2667 168.077C79.5423 167.83 79.859 167.651 80.217 167.54C80.5749 167.426 80.9513 167.369 81.3462 167.369C81.6076 167.369 81.8846 167.401 82.1772 167.463C82.4727 167.523 82.7482 167.634 83.0039 167.795C83.2624 167.957 83.4741 168.189 83.6388 168.49C83.8036 168.788 83.886 169.176 83.886 169.653V174H82.6417V173.105H82.5906C82.5082 173.27 82.3846 173.432 82.2198 173.591C82.055 173.75 81.8434 173.882 81.5849 173.987C81.3263 174.092 81.0167 174.145 80.6559 174.145ZM80.9329 173.122C81.2852 173.122 81.5863 173.053 81.8363 172.913C82.0891 172.774 82.2809 172.592 82.4116 172.368C82.5451 172.141 82.6119 171.898 82.6119 171.639V170.795C82.5664 170.841 82.4783 170.884 82.3477 170.923C82.2198 170.96 82.0735 170.993 81.9087 171.021C81.744 171.047 81.5835 171.071 81.4272 171.094C81.271 171.114 81.1403 171.131 81.0352 171.145C80.788 171.176 80.5621 171.229 80.3576 171.303C80.1559 171.376 79.994 171.483 79.8718 171.622C79.7525 171.759 79.6928 171.94 79.6928 172.168C79.6928 172.483 79.8093 172.722 80.0423 172.884C80.2752 173.043 80.5721 173.122 80.9329 173.122ZM90.4879 169.053L89.3331 169.257C89.2848 169.109 89.2081 168.969 89.103 168.835C89.0007 168.702 88.8615 168.592 88.6854 168.507C88.5092 168.422 88.2891 168.379 88.0249 168.379C87.6641 168.379 87.3629 168.46 87.1214 168.622C86.88 168.781 86.7592 168.987 86.7592 169.24C86.7592 169.459 86.8402 169.635 87.0021 169.768C87.1641 169.902 87.4254 170.011 87.7862 170.097L88.826 170.335C89.4283 170.474 89.8771 170.689 90.1726 170.979C90.468 171.268 90.6158 171.645 90.6158 172.108C90.6158 172.5 90.5021 172.849 90.2749 173.156C90.0504 173.46 89.7365 173.699 89.3331 173.872C88.9325 174.045 88.468 174.132 87.9396 174.132C87.2067 174.132 86.6087 173.976 86.1456 173.663C85.6825 173.348 85.3984 172.901 85.2933 172.321L86.5249 172.134C86.6016 172.455 86.7592 172.697 86.9979 172.862C87.2365 173.024 87.5476 173.105 87.9311 173.105C88.3487 173.105 88.6825 173.018 88.9325 172.845C89.1825 172.669 89.3075 172.455 89.3075 172.202C89.3075 171.997 89.2308 171.825 89.0774 171.686C88.9268 171.547 88.6953 171.442 88.3828 171.371L87.2749 171.128C86.6641 170.989 86.2124 170.767 85.9197 170.463C85.63 170.159 85.4851 169.774 85.4851 169.308C85.4851 168.922 85.593 168.584 85.8089 168.294C86.0249 168.004 86.3232 167.778 86.7038 167.616C87.0845 167.452 87.5206 167.369 88.0121 167.369C88.7195 167.369 89.2763 167.523 89.6825 167.83C90.0888 168.134 90.3572 168.541 90.4879 169.053ZM94.8377 174.132C94.1928 174.132 93.6374 173.994 93.1715 173.719C92.7085 173.44 92.3505 173.05 92.0977 172.547C91.8477 172.041 91.7227 171.449 91.7227 170.77C91.7227 170.099 91.8477 169.509 92.0977 168.997C92.3505 168.486 92.7028 168.087 93.1545 167.8C93.609 167.513 94.1403 167.369 94.7482 167.369C95.1175 167.369 95.4755 167.43 95.8221 167.553C96.1687 167.675 96.4798 167.866 96.7553 168.128C97.0309 168.389 97.2482 168.729 97.4073 169.146C97.5664 169.561 97.646 170.065 97.646 170.659V171.111H92.4428V170.156H96.3974C96.3974 169.821 96.3292 169.524 96.1928 169.266C96.0565 169.004 95.8647 168.798 95.6175 168.648C95.3732 168.497 95.0863 168.422 94.7567 168.422C94.3988 168.422 94.0863 168.51 93.8192 168.686C93.555 168.859 93.3505 169.087 93.2056 169.368C93.0636 169.646 92.9925 169.949 92.9925 170.276V171.021C92.9925 171.459 93.0692 171.831 93.2227 172.138C93.3789 172.445 93.5962 172.679 93.8746 172.841C94.1531 173 94.4783 173.08 94.8505 173.08C95.092 173.08 95.3121 173.045 95.511 172.977C95.7099 172.906 95.8817 172.801 96.0266 172.662C96.1715 172.523 96.2823 172.351 96.359 172.146L97.565 172.364C97.4684 172.719 97.2951 173.03 97.0451 173.297C96.7979 173.561 96.4869 173.767 96.1119 173.915C95.7397 174.06 95.315 174.132 94.8377 174.132Z" fill="#687888"/>
<path d="M160.061 272.636C160.061 273.568 159.891 274.369 159.55 275.04C159.209 275.707 158.742 276.222 158.148 276.582C157.557 276.94 156.885 277.119 156.132 277.119C155.377 277.119 154.702 276.94 154.108 276.582C153.517 276.222 153.051 275.706 152.71 275.036C152.369 274.365 152.199 273.565 152.199 272.636C152.199 271.705 152.369 270.905 152.71 270.237C153.051 269.567 153.517 269.053 154.108 268.695C154.702 268.334 155.377 268.153 156.132 268.153C156.885 268.153 157.557 268.334 158.148 268.695C158.742 269.053 159.209 269.567 159.55 270.237C159.891 270.905 160.061 271.705 160.061 272.636ZM158.757 272.636C158.757 271.926 158.642 271.328 158.412 270.842C158.185 270.354 157.872 269.984 157.475 269.734C157.08 269.482 156.632 269.355 156.132 269.355C155.629 269.355 155.181 269.482 154.786 269.734C154.391 269.984 154.078 270.354 153.848 270.842C153.621 271.328 153.507 271.926 153.507 272.636C153.507 273.347 153.621 273.946 153.848 274.435C154.078 274.92 154.391 275.29 154.786 275.543C155.181 275.793 155.629 275.918 156.132 275.918C156.632 275.918 157.08 275.793 157.475 275.543C157.872 275.29 158.185 274.92 158.412 274.435C158.642 273.946 158.757 273.347 158.757 272.636ZM161.703 277V268.273H164.814C165.49 268.273 166.051 268.389 166.497 268.622C166.946 268.855 167.281 269.178 167.503 269.589C167.724 269.999 167.835 270.472 167.835 271.009C167.835 271.543 167.723 272.013 167.498 272.419C167.277 272.822 166.942 273.136 166.493 273.361C166.047 273.585 165.486 273.697 164.809 273.697H162.453V272.564H164.69C165.116 272.564 165.463 272.503 165.73 272.381C166 272.259 166.197 272.081 166.322 271.848C166.447 271.615 166.51 271.335 166.51 271.009C166.51 270.679 166.446 270.393 166.318 270.152C166.193 269.911 165.996 269.726 165.726 269.598C165.459 269.467 165.108 269.402 164.673 269.402H163.02V277H161.703ZM166.011 273.062L168.167 277H166.667L164.554 273.062H166.011ZM99.8391 298.273H101.152V304.46C101.152 305.02 101.041 305.499 100.819 305.896C100.6 306.294 100.292 306.598 99.8945 306.808C99.4968 307.016 99.0309 307.119 98.4968 307.119C98.0053 307.119 97.5636 307.03 97.1715 306.851C96.7823 306.672 96.4741 306.412 96.2468 306.071C96.0224 305.727 95.9102 305.31 95.9102 304.818H97.2184C97.2184 305.06 97.2738 305.268 97.3846 305.445C97.4982 305.621 97.6531 305.759 97.8491 305.858C98.0479 305.955 98.2752 306.003 98.5309 306.003C98.8093 306.003 99.0451 305.945 99.2383 305.828C99.4343 305.709 99.5835 305.534 99.6857 305.304C99.788 305.074 99.8391 304.793 99.8391 304.46V298.273ZM107.112 304.286V300.455H108.391V307H107.138V305.866H107.07C106.919 306.216 106.678 306.507 106.345 306.74C106.016 306.97 105.605 307.085 105.114 307.085C104.693 307.085 104.321 306.993 103.997 306.808C103.676 306.621 103.423 306.344 103.239 305.977C103.057 305.611 102.966 305.158 102.966 304.618V300.455H104.24V304.464C104.24 304.911 104.364 305.266 104.611 305.53C104.858 305.794 105.179 305.926 105.574 305.926C105.813 305.926 106.05 305.866 106.286 305.747C106.524 305.628 106.722 305.447 106.878 305.206C107.037 304.964 107.115 304.658 107.112 304.286ZM115.007 302.053L113.853 302.257C113.804 302.109 113.728 301.969 113.623 301.835C113.52 301.702 113.381 301.592 113.205 301.507C113.029 301.422 112.809 301.379 112.544 301.379C112.184 301.379 111.882 301.46 111.641 301.622C111.4 301.781 111.279 301.987 111.279 302.24C111.279 302.459 111.36 302.635 111.522 302.768C111.684 302.902 111.945 303.011 112.306 303.097L113.346 303.335C113.948 303.474 114.397 303.689 114.692 303.979C114.988 304.268 115.135 304.645 115.135 305.108C115.135 305.5 115.022 305.849 114.794 306.156C114.57 306.46 114.256 306.699 113.853 306.872C113.452 307.045 112.988 307.132 112.459 307.132C111.726 307.132 111.128 306.976 110.665 306.663C110.202 306.348 109.918 305.901 109.813 305.321L111.044 305.134C111.121 305.455 111.279 305.697 111.517 305.862C111.756 306.024 112.067 306.105 112.451 306.105C112.868 306.105 113.202 306.018 113.452 305.845C113.702 305.669 113.827 305.455 113.827 305.202C113.827 304.997 113.75 304.825 113.597 304.686C113.446 304.547 113.215 304.442 112.902 304.371L111.794 304.128C111.184 303.989 110.732 303.767 110.439 303.463C110.15 303.159 110.005 302.774 110.005 302.308C110.005 301.922 110.113 301.584 110.328 301.294C110.544 301.004 110.843 300.778 111.223 300.616C111.604 300.452 112.04 300.369 112.532 300.369C113.239 300.369 113.796 300.523 114.202 300.83C114.608 301.134 114.877 301.541 115.007 302.053ZM119.592 300.455V301.477H116.016V300.455H119.592ZM116.975 298.886H118.249V305.078C118.249 305.325 118.286 305.511 118.36 305.636C118.434 305.759 118.529 305.842 118.646 305.888C118.765 305.93 118.894 305.952 119.033 305.952C119.136 305.952 119.225 305.945 119.302 305.93C119.379 305.916 119.438 305.905 119.481 305.896L119.711 306.949C119.637 306.977 119.532 307.006 119.396 307.034C119.259 307.065 119.089 307.082 118.884 307.085C118.549 307.091 118.237 307.031 117.947 306.906C117.657 306.781 117.423 306.588 117.244 306.327C117.065 306.065 116.975 305.737 116.975 305.342V298.886ZM129.082 302.053L127.927 302.257C127.879 302.109 127.802 301.969 127.697 301.835C127.594 301.702 127.455 301.592 127.279 301.507C127.103 301.422 126.883 301.379 126.619 301.379C126.258 301.379 125.957 301.46 125.715 301.622C125.474 301.781 125.353 301.987 125.353 302.24C125.353 302.459 125.434 302.635 125.596 302.768C125.758 302.902 126.019 303.011 126.38 303.097L127.42 303.335C128.022 303.474 128.471 303.689 128.766 303.979C129.062 304.268 129.21 304.645 129.21 305.108C129.21 305.5 129.096 305.849 128.869 306.156C128.644 306.46 128.33 306.699 127.927 306.872C127.526 307.045 127.062 307.132 126.533 307.132C125.8 307.132 125.202 306.976 124.739 306.663C124.276 306.348 123.992 305.901 123.887 305.321L125.119 305.134C125.195 305.455 125.353 305.697 125.592 305.862C125.83 306.024 126.141 306.105 126.525 306.105C126.942 306.105 127.276 306.018 127.526 305.845C127.776 305.669 127.901 305.455 127.901 305.202C127.901 304.997 127.825 304.825 127.671 304.686C127.521 304.547 127.289 304.442 126.977 304.371L125.869 304.128C125.258 303.989 124.806 303.767 124.513 303.463C124.224 303.159 124.079 302.774 124.079 302.308C124.079 301.922 124.187 301.584 124.403 301.294C124.619 301.004 124.917 300.778 125.298 300.616C125.678 300.452 126.114 300.369 126.606 300.369C127.313 300.369 127.87 300.523 128.276 300.83C128.683 301.134 128.951 301.541 129.082 302.053ZM133.368 307.132C132.734 307.132 132.189 306.989 131.731 306.702C131.277 306.412 130.927 306.013 130.683 305.504C130.439 304.996 130.316 304.413 130.316 303.757C130.316 303.092 130.441 302.506 130.691 301.997C130.941 301.486 131.294 301.087 131.748 300.8C132.203 300.513 132.738 300.369 133.355 300.369C133.852 300.369 134.295 300.462 134.684 300.646C135.074 300.828 135.387 301.084 135.626 301.413C135.868 301.743 136.011 302.128 136.056 302.568H134.816C134.748 302.261 134.592 301.997 134.348 301.776C134.106 301.554 133.782 301.443 133.376 301.443C133.021 301.443 132.71 301.537 132.443 301.724C132.179 301.909 131.973 302.173 131.825 302.517C131.677 302.858 131.603 303.261 131.603 303.727C131.603 304.205 131.676 304.616 131.821 304.963C131.966 305.31 132.17 305.578 132.434 305.768C132.701 305.959 133.015 306.054 133.376 306.054C133.618 306.054 133.836 306.01 134.032 305.922C134.231 305.831 134.397 305.702 134.531 305.534C134.667 305.366 134.762 305.165 134.816 304.929H136.056C136.011 305.352 135.873 305.73 135.643 306.062C135.413 306.395 135.105 306.656 134.718 306.847C134.335 307.037 133.885 307.132 133.368 307.132ZM139.324 307.145C138.909 307.145 138.534 307.068 138.199 306.915C137.864 306.759 137.598 306.533 137.402 306.237C137.209 305.942 137.112 305.58 137.112 305.151C137.112 304.781 137.183 304.477 137.325 304.239C137.467 304 137.659 303.811 137.901 303.672C138.142 303.533 138.412 303.428 138.71 303.357C139.009 303.286 139.313 303.232 139.622 303.195C140.014 303.149 140.332 303.112 140.577 303.084C140.821 303.053 140.999 303.003 141.109 302.935C141.22 302.866 141.276 302.756 141.276 302.602V302.572C141.276 302.2 141.17 301.912 140.96 301.707C140.753 301.503 140.443 301.401 140.031 301.401C139.602 301.401 139.264 301.496 139.017 301.686C138.773 301.874 138.604 302.082 138.51 302.312L137.312 302.04C137.455 301.642 137.662 301.321 137.935 301.077C138.21 300.83 138.527 300.651 138.885 300.54C139.243 300.426 139.619 300.369 140.014 300.369C140.276 300.369 140.553 300.401 140.845 300.463C141.141 300.523 141.416 300.634 141.672 300.795C141.93 300.957 142.142 301.189 142.307 301.49C142.472 301.788 142.554 302.176 142.554 302.653V307H141.31V306.105H141.259C141.176 306.27 141.053 306.432 140.888 306.591C140.723 306.75 140.511 306.882 140.253 306.987C139.994 307.092 139.685 307.145 139.324 307.145ZM139.601 306.122C139.953 306.122 140.254 306.053 140.504 305.913C140.757 305.774 140.949 305.592 141.08 305.368C141.213 305.141 141.28 304.898 141.28 304.639V303.795C141.234 303.841 141.146 303.884 141.016 303.923C140.888 303.96 140.741 303.993 140.577 304.021C140.412 304.047 140.251 304.071 140.095 304.094C139.939 304.114 139.808 304.131 139.703 304.145C139.456 304.176 139.23 304.229 139.026 304.303C138.824 304.376 138.662 304.483 138.54 304.622C138.42 304.759 138.361 304.94 138.361 305.168C138.361 305.483 138.477 305.722 138.71 305.884C138.943 306.043 139.24 306.122 139.601 306.122ZM145.525 303.114V307H144.251V300.455H145.474V301.52H145.555C145.706 301.173 145.941 300.895 146.262 300.685C146.586 300.474 146.994 300.369 147.485 300.369C147.931 300.369 148.322 300.463 148.657 300.651C148.993 300.835 149.252 301.111 149.437 301.477C149.622 301.844 149.714 302.297 149.714 302.837V307H148.44V302.99C148.44 302.516 148.316 302.145 148.069 301.878C147.822 301.608 147.483 301.473 147.051 301.473C146.755 301.473 146.493 301.537 146.262 301.665C146.035 301.793 145.855 301.98 145.721 302.227C145.591 302.472 145.525 302.767 145.525 303.114ZM157.654 300.455V301.477H154.079V300.455H157.654ZM155.038 298.886H156.312V305.078C156.312 305.325 156.349 305.511 156.423 305.636C156.496 305.759 156.592 305.842 156.708 305.888C156.827 305.93 156.957 305.952 157.096 305.952C157.198 305.952 157.288 305.945 157.364 305.93C157.441 305.916 157.501 305.905 157.543 305.896L157.773 306.949C157.7 306.977 157.594 307.006 157.458 307.034C157.322 307.065 157.151 307.082 156.947 307.085C156.612 307.091 156.299 307.031 156.009 306.906C155.719 306.781 155.485 306.588 155.306 306.327C155.127 306.065 155.038 305.737 155.038 305.342V298.886ZM160.478 303.114V307H159.204V298.273H160.461V301.52H160.542C160.696 301.168 160.93 300.888 161.245 300.68C161.561 300.473 161.973 300.369 162.481 300.369C162.93 300.369 163.322 300.462 163.657 300.646C163.995 300.831 164.257 301.107 164.441 301.473C164.629 301.837 164.723 302.291 164.723 302.837V307H163.449V302.99C163.449 302.51 163.325 302.138 163.078 301.874C162.831 301.607 162.487 301.473 162.047 301.473C161.745 301.473 161.475 301.537 161.237 301.665C161.001 301.793 160.815 301.98 160.679 302.227C160.545 302.472 160.478 302.767 160.478 303.114ZM169.244 307.132C168.599 307.132 168.044 306.994 167.578 306.719C167.115 306.44 166.757 306.05 166.504 305.547C166.254 305.041 166.129 304.449 166.129 303.77C166.129 303.099 166.254 302.509 166.504 301.997C166.757 301.486 167.109 301.087 167.561 300.8C168.015 300.513 168.547 300.369 169.154 300.369C169.524 300.369 169.882 300.43 170.228 300.553C170.575 300.675 170.886 300.866 171.162 301.128C171.437 301.389 171.654 301.729 171.814 302.146C171.973 302.561 172.052 303.065 172.052 303.659V304.111H166.849V303.156H170.804C170.804 302.821 170.735 302.524 170.599 302.266C170.463 302.004 170.271 301.798 170.024 301.648C169.779 301.497 169.493 301.422 169.163 301.422C168.805 301.422 168.493 301.51 168.225 301.686C167.961 301.859 167.757 302.087 167.612 302.368C167.47 302.646 167.399 302.949 167.399 303.276V304.021C167.399 304.459 167.475 304.831 167.629 305.138C167.785 305.445 168.002 305.679 168.281 305.841C168.559 306 168.885 306.08 169.257 306.08C169.498 306.08 169.718 306.045 169.917 305.977C170.116 305.906 170.288 305.801 170.433 305.662C170.578 305.523 170.689 305.351 170.765 305.146L171.971 305.364C171.875 305.719 171.701 306.03 171.451 306.297C171.204 306.561 170.893 306.767 170.518 306.915C170.146 307.06 169.721 307.132 169.244 307.132ZM179.953 304.17H181.248L182.16 305.359L182.591 305.888L184.044 307.784H182.697L181.725 306.518L181.393 306.058L179.953 304.17ZM184.325 302.636C184.325 303.568 184.154 304.369 183.814 305.04C183.473 305.707 183.005 306.222 182.412 306.582C181.821 306.94 181.149 307.119 180.396 307.119C179.64 307.119 178.966 306.94 178.372 306.582C177.781 306.222 177.315 305.706 176.974 305.036C176.633 304.365 176.463 303.565 176.463 302.636C176.463 301.705 176.633 300.905 176.974 300.237C177.315 299.567 177.781 299.053 178.372 298.695C178.966 298.334 179.64 298.153 180.396 298.153C181.149 298.153 181.821 298.334 182.412 298.695C183.005 299.053 183.473 299.567 183.814 300.237C184.154 300.905 184.325 301.705 184.325 302.636ZM183.021 302.636C183.021 301.926 182.906 301.328 182.676 300.842C182.449 300.354 182.136 299.984 181.738 299.734C181.343 299.482 180.896 299.355 180.396 299.355C179.893 299.355 179.444 299.482 179.049 299.734C178.654 299.984 178.342 300.354 178.112 300.842C177.885 301.328 177.771 301.926 177.771 302.636C177.771 303.347 177.885 303.946 178.112 304.435C178.342 304.92 178.654 305.29 179.049 305.543C179.444 305.793 179.893 305.918 180.396 305.918C180.896 305.918 181.343 305.793 181.738 305.543C182.136 305.29 182.449 304.92 182.676 304.435C182.906 303.946 183.021 303.347 183.021 302.636ZM185.967 307V298.273H189.077C189.754 298.273 190.315 298.389 190.761 298.622C191.21 298.855 191.545 299.178 191.766 299.589C191.988 299.999 192.099 300.472 192.099 301.009C192.099 301.543 191.987 302.013 191.762 302.419C191.54 302.822 191.205 303.136 190.756 303.361C190.31 303.585 189.749 303.697 189.073 303.697H186.717V302.564H188.954C189.38 302.564 189.727 302.503 189.994 302.381C190.263 302.259 190.461 302.081 190.586 301.848C190.711 301.615 190.773 301.335 190.773 301.009C190.773 300.679 190.71 300.393 190.582 300.152C190.457 299.911 190.259 299.726 189.989 299.598C189.722 299.467 189.371 299.402 188.937 299.402H187.283V307H185.967ZM190.275 303.062L192.431 307H190.931L188.817 303.062H190.275ZM199.532 307.132C198.898 307.132 198.353 306.989 197.895 306.702C197.441 306.412 197.091 306.013 196.847 305.504C196.603 304.996 196.48 304.413 196.48 303.757C196.48 303.092 196.605 302.506 196.855 301.997C197.105 301.486 197.458 301.087 197.912 300.8C198.367 300.513 198.902 300.369 199.519 300.369C200.016 300.369 200.459 300.462 200.848 300.646C201.238 300.828 201.551 301.084 201.79 301.413C202.032 301.743 202.175 302.128 202.221 302.568H200.98C200.912 302.261 200.756 301.997 200.512 301.776C200.27 301.554 199.946 301.443 199.54 301.443C199.185 301.443 198.874 301.537 198.607 301.724C198.343 301.909 198.137 302.173 197.989 302.517C197.841 302.858 197.767 303.261 197.767 303.727C197.767 304.205 197.84 304.616 197.985 304.963C198.13 305.31 198.334 305.578 198.598 305.768C198.865 305.959 199.179 306.054 199.54 306.054C199.782 306.054 200 306.01 200.196 305.922C200.395 305.831 200.561 305.702 200.695 305.534C200.831 305.366 200.926 305.165 200.98 304.929H202.221C202.175 305.352 202.037 305.73 201.807 306.062C201.577 306.395 201.269 306.656 200.882 306.847C200.499 307.037 200.049 307.132 199.532 307.132ZM206.34 307.132C205.727 307.132 205.191 306.991 204.734 306.71C204.276 306.429 203.921 306.036 203.668 305.53C203.415 305.024 203.289 304.433 203.289 303.757C203.289 303.078 203.415 302.484 203.668 301.976C203.921 301.467 204.276 301.072 204.734 300.791C205.191 300.51 205.727 300.369 206.34 300.369C206.954 300.369 207.489 300.51 207.947 300.791C208.404 301.072 208.759 301.467 209.012 301.976C209.265 302.484 209.391 303.078 209.391 303.757C209.391 304.433 209.265 305.024 209.012 305.53C208.759 306.036 208.404 306.429 207.947 306.71C207.489 306.991 206.954 307.132 206.34 307.132ZM206.344 306.062C206.742 306.062 207.072 305.957 207.333 305.747C207.594 305.537 207.788 305.257 207.913 304.908C208.04 304.558 208.104 304.173 208.104 303.753C208.104 303.335 208.04 302.952 207.913 302.602C207.788 302.25 207.594 301.967 207.333 301.754C207.072 301.541 206.742 301.435 206.344 301.435C205.944 301.435 205.612 301.541 205.347 301.754C205.086 301.967 204.891 302.25 204.763 302.602C204.638 302.952 204.576 303.335 204.576 303.753C204.576 304.173 204.638 304.558 204.763 304.908C204.891 305.257 205.086 305.537 205.347 305.747C205.612 305.957 205.944 306.062 206.344 306.062ZM213.264 307.128C212.735 307.128 212.264 306.993 211.849 306.723C211.437 306.45 211.113 306.062 210.877 305.56C210.645 305.054 210.528 304.447 210.528 303.74C210.528 303.033 210.646 302.428 210.882 301.925C211.12 301.422 211.447 301.037 211.862 300.77C212.277 300.503 212.747 300.369 213.272 300.369C213.679 300.369 214.005 300.438 214.252 300.574C214.502 300.707 214.696 300.864 214.832 301.043C214.971 301.222 215.079 301.379 215.156 301.516H215.233V298.273H216.507V307H215.262V305.982H215.156C215.079 306.121 214.968 306.28 214.824 306.459C214.681 306.638 214.485 306.794 214.235 306.928C213.985 307.061 213.662 307.128 213.264 307.128ZM213.545 306.041C213.912 306.041 214.221 305.945 214.474 305.751C214.73 305.555 214.923 305.284 215.054 304.938C215.187 304.591 215.254 304.187 215.254 303.727C215.254 303.273 215.189 302.875 215.058 302.534C214.927 302.193 214.735 301.928 214.483 301.737C214.23 301.547 213.917 301.452 213.545 301.452C213.162 301.452 212.842 301.551 212.586 301.75C212.331 301.949 212.137 302.22 212.007 302.564C211.879 302.908 211.815 303.295 211.815 303.727C211.815 304.165 211.88 304.558 212.011 304.908C212.142 305.257 212.335 305.534 212.591 305.739C212.849 305.94 213.167 306.041 213.545 306.041ZM221.146 307.132C220.501 307.132 219.946 306.994 219.48 306.719C219.017 306.44 218.659 306.05 218.406 305.547C218.156 305.041 218.031 304.449 218.031 303.77C218.031 303.099 218.156 302.509 218.406 301.997C218.659 301.486 219.011 301.087 219.463 300.8C219.918 300.513 220.449 300.369 221.057 300.369C221.426 300.369 221.784 300.43 222.131 300.553C222.477 300.675 222.788 300.866 223.064 301.128C223.339 301.389 223.557 301.729 223.716 302.146C223.875 302.561 223.955 303.065 223.955 303.659V304.111H218.751V303.156H222.706C222.706 302.821 222.638 302.524 222.501 302.266C222.365 302.004 222.173 301.798 221.926 301.648C221.682 301.497 221.395 301.422 221.065 301.422C220.707 301.422 220.395 301.51 220.128 301.686C219.864 301.859 219.659 302.087 219.514 302.368C219.372 302.646 219.301 302.949 219.301 303.276V304.021C219.301 304.459 219.378 304.831 219.531 305.138C219.688 305.445 219.905 305.679 220.183 305.841C220.462 306 220.787 306.08 221.159 306.08C221.401 306.08 221.621 306.045 221.82 305.977C222.018 305.906 222.19 305.801 222.335 305.662C222.48 305.523 222.591 305.351 222.668 305.146L223.874 305.364C223.777 305.719 223.604 306.03 223.354 306.297C223.107 306.561 222.795 306.767 222.42 306.915C222.048 307.06 221.624 307.132 221.146 307.132Z" fill="#687888"/>
<path d="M63.9588 200V191.273H65.2756V195.065H69.6264V191.273H70.9474V200H69.6264V196.195H65.2756V200H63.9588ZM75.5199 200.132C74.9063 200.132 74.3707 199.991 73.9134 199.71C73.456 199.429 73.1009 199.036 72.848 198.53C72.5952 198.024 72.4688 197.433 72.4688 196.757C72.4688 196.078 72.5952 195.484 72.848 194.976C73.1009 194.467 73.456 194.072 73.9134 193.791C74.3707 193.51 74.9063 193.369 75.5199 193.369C76.1335 193.369 76.669 193.51 77.1264 193.791C77.5838 194.072 77.9389 194.467 78.1918 194.976C78.4446 195.484 78.571 196.078 78.571 196.757C78.571 197.433 78.4446 198.024 78.1918 198.53C77.9389 199.036 77.5838 199.429 77.1264 199.71C76.669 199.991 76.1335 200.132 75.5199 200.132ZM75.5241 199.062C75.9219 199.062 76.2514 198.957 76.5128 198.747C76.7741 198.537 76.9673 198.257 77.0923 197.908C77.2202 197.558 77.2841 197.173 77.2841 196.753C77.2841 196.335 77.2202 195.952 77.0923 195.602C76.9673 195.25 76.7741 194.967 76.5128 194.754C76.2514 194.541 75.9219 194.435 75.5241 194.435C75.1236 194.435 74.7912 194.541 74.527 194.754C74.2656 194.967 74.071 195.25 73.9432 195.602C73.8182 195.952 73.7557 196.335 73.7557 196.753C73.7557 197.173 73.8182 197.558 73.9432 197.908C74.071 198.257 74.2656 198.537 74.527 198.747C74.7912 198.957 75.1236 199.062 75.5241 199.062ZM84.8981 195.053L83.7433 195.257C83.695 195.109 83.6183 194.969 83.5131 194.835C83.4109 194.702 83.2717 194.592 83.0955 194.507C82.9194 194.422 82.6992 194.379 82.435 194.379C82.0742 194.379 81.7731 194.46 81.5316 194.622C81.2901 194.781 81.1694 194.987 81.1694 195.24C81.1694 195.459 81.2504 195.635 81.4123 195.768C81.5742 195.902 81.8356 196.011 82.1964 196.097L83.2362 196.335C83.8384 196.474 84.2873 196.689 84.5827 196.979C84.8782 197.268 85.0259 197.645 85.0259 198.108C85.0259 198.5 84.9123 198.849 84.685 199.156C84.4606 199.46 84.1467 199.699 83.7433 199.872C83.3427 200.045 82.8782 200.132 82.3498 200.132C81.6168 200.132 81.0188 199.976 80.5558 199.663C80.0927 199.348 79.8086 198.901 79.7035 198.321L80.935 198.134C81.0117 198.455 81.1694 198.697 81.408 198.862C81.6467 199.024 81.9577 199.105 82.3413 199.105C82.7589 199.105 83.0927 199.018 83.3427 198.845C83.5927 198.669 83.7177 198.455 83.7177 198.202C83.7177 197.997 83.641 197.825 83.4876 197.686C83.337 197.547 83.1055 197.442 82.793 197.371L81.685 197.128C81.0742 196.989 80.6225 196.767 80.3299 196.463C80.0401 196.159 79.8952 195.774 79.8952 195.308C79.8952 194.922 80.0032 194.584 80.2191 194.294C80.435 194.004 80.7333 193.778 81.114 193.616C81.4947 193.452 81.9308 193.369 82.4222 193.369C83.1296 193.369 83.6864 193.523 84.0927 193.83C84.4989 194.134 84.7674 194.541 84.8981 195.053ZM89.4822 193.455V194.477H85.907V193.455H89.4822ZM86.8658 191.886H88.1399V198.078C88.1399 198.325 88.1768 198.511 88.2507 198.636C88.3246 198.759 88.4197 198.842 88.5362 198.888C88.6555 198.93 88.7848 198.952 88.924 198.952C89.0263 198.952 89.1158 198.945 89.1925 198.93C89.2692 198.916 89.3288 198.905 89.3714 198.896L89.6016 199.949C89.5277 199.977 89.4226 200.006 89.2862 200.034C89.1499 200.065 88.9794 200.082 88.7749 200.085C88.4396 200.091 88.1271 200.031 87.8374 199.906C87.5476 199.781 87.3132 199.588 87.1342 199.327C86.9553 199.065 86.8658 198.737 86.8658 198.342V191.886ZM106.591 200H103.497V191.273H106.616C107.494 191.273 108.25 191.447 108.883 191.797C109.517 192.143 110.004 192.642 110.345 193.293C110.689 193.943 110.86 194.722 110.86 195.628C110.86 196.537 110.689 197.318 110.345 197.972C110.004 198.625 109.514 199.126 108.875 199.476C108.238 199.825 107.477 200 106.591 200ZM105.342 198.419H106.514C107.059 198.419 107.518 198.322 107.89 198.129C108.265 197.933 108.547 197.631 108.734 197.222C108.924 196.81 109.02 196.278 109.02 195.628C109.02 194.983 108.924 194.456 108.734 194.047C108.547 193.638 108.267 193.337 107.895 193.143C107.522 192.95 107.064 192.854 106.518 192.854H105.342V198.419ZM112.193 200V193.455H114.009V200H112.193ZM113.105 192.611C112.835 192.611 112.604 192.521 112.411 192.342C112.22 192.161 112.125 191.943 112.125 191.69C112.125 191.44 112.22 191.226 112.411 191.047C112.604 190.865 112.835 190.774 113.105 190.774C113.375 190.774 113.605 190.865 113.795 191.047C113.989 191.226 114.085 191.44 114.085 191.69C114.085 191.943 113.989 192.161 113.795 192.342C113.605 192.521 113.375 192.611 113.105 192.611ZM117.108 198.116L117.112 195.939H117.376L119.473 193.455H121.556L118.74 196.744H118.309L117.108 198.116ZM115.463 200V191.273H117.278V200H115.463ZM119.554 200L117.627 197.149L118.838 195.866L121.68 200H119.554ZM127.893 195.321L126.231 195.423C126.203 195.281 126.142 195.153 126.048 195.04C125.954 194.923 125.831 194.831 125.677 194.763C125.527 194.692 125.346 194.656 125.136 194.656C124.855 194.656 124.618 194.716 124.424 194.835C124.231 194.952 124.135 195.108 124.135 195.304C124.135 195.46 124.197 195.592 124.322 195.7C124.447 195.808 124.662 195.895 124.966 195.96L126.15 196.199C126.787 196.33 127.261 196.54 127.574 196.83C127.886 197.119 128.042 197.5 128.042 197.972C128.042 198.401 127.916 198.777 127.663 199.101C127.413 199.425 127.069 199.678 126.632 199.859C126.197 200.038 125.696 200.128 125.127 200.128C124.261 200.128 123.571 199.947 123.056 199.587C122.545 199.223 122.245 198.729 122.157 198.104L123.943 198.01C123.997 198.274 124.127 198.476 124.335 198.615C124.542 198.751 124.808 198.82 125.132 198.82C125.45 198.82 125.706 198.759 125.899 198.636C126.095 198.511 126.194 198.351 126.197 198.155C126.194 197.99 126.125 197.855 125.988 197.75C125.852 197.642 125.642 197.56 125.358 197.503L124.224 197.277C123.585 197.149 123.109 196.928 122.797 196.612C122.487 196.297 122.332 195.895 122.332 195.406C122.332 194.986 122.446 194.624 122.673 194.32C122.903 194.016 123.225 193.781 123.64 193.616C124.058 193.452 124.547 193.369 125.106 193.369C125.933 193.369 126.583 193.544 127.058 193.893C127.535 194.243 127.814 194.719 127.893 195.321ZM131.001 196.216V200H129.185V191.273H130.95V194.609H131.026C131.174 194.223 131.413 193.92 131.742 193.702C132.072 193.48 132.485 193.369 132.982 193.369C133.437 193.369 133.833 193.469 134.171 193.668C134.512 193.864 134.776 194.146 134.964 194.516C135.154 194.882 135.248 195.321 135.245 195.832V200H133.43V196.156C133.433 195.753 133.33 195.439 133.123 195.214C132.918 194.99 132.631 194.878 132.262 194.878C132.015 194.878 131.796 194.93 131.606 195.036C131.418 195.141 131.271 195.294 131.163 195.496C131.058 195.695 131.004 195.935 131.001 196.216ZM138.54 200.124C138.123 200.124 137.75 200.051 137.424 199.906C137.097 199.759 136.838 199.541 136.648 199.254C136.461 198.964 136.367 198.604 136.367 198.172C136.367 197.808 136.434 197.503 136.567 197.256C136.701 197.009 136.882 196.81 137.113 196.659C137.343 196.509 137.604 196.395 137.897 196.318C138.192 196.241 138.502 196.188 138.826 196.156C139.206 196.116 139.513 196.08 139.746 196.045C139.979 196.009 140.148 195.955 140.253 195.884C140.358 195.812 140.411 195.707 140.411 195.568V195.543C140.411 195.273 140.326 195.064 140.155 194.916C139.988 194.768 139.749 194.695 139.439 194.695C139.113 194.695 138.853 194.767 138.659 194.912C138.466 195.054 138.338 195.233 138.276 195.449L136.597 195.312C136.682 194.915 136.85 194.571 137.1 194.281C137.35 193.989 137.672 193.764 138.067 193.608C138.465 193.449 138.925 193.369 139.448 193.369C139.811 193.369 140.159 193.412 140.492 193.497C140.827 193.582 141.124 193.714 141.382 193.893C141.644 194.072 141.85 194.303 142 194.584C142.151 194.862 142.226 195.196 142.226 195.585V200H140.505V199.092H140.453C140.348 199.297 140.208 199.477 140.032 199.634C139.855 199.787 139.644 199.908 139.397 199.996C139.15 200.081 138.864 200.124 138.54 200.124ZM139.06 198.871C139.327 198.871 139.563 198.818 139.767 198.713C139.972 198.605 140.132 198.46 140.249 198.278C140.365 198.097 140.424 197.891 140.424 197.661V196.966C140.367 197.003 140.289 197.037 140.189 197.068C140.093 197.097 139.983 197.124 139.861 197.149C139.739 197.172 139.617 197.193 139.495 197.213C139.373 197.23 139.262 197.246 139.162 197.26C138.949 197.291 138.763 197.341 138.604 197.409C138.445 197.477 138.321 197.57 138.233 197.686C138.145 197.8 138.101 197.942 138.101 198.112C138.101 198.359 138.191 198.548 138.37 198.679C138.551 198.807 138.782 198.871 139.06 198.871ZM146.446 191.273H148.722L151.125 197.136H151.227L153.631 191.273H155.906V200H154.116V194.32H154.044L151.786 199.957H150.567L148.308 194.298H148.236V200H146.446V191.273ZM161.59 197.213V193.455H163.405V200H161.662V198.811H161.594C161.446 199.195 161.201 199.503 160.857 199.736C160.516 199.969 160.1 200.085 159.608 200.085C159.171 200.085 158.786 199.986 158.453 199.787C158.121 199.588 157.861 199.305 157.674 198.939C157.489 198.572 157.395 198.134 157.392 197.622V193.455H159.208V197.298C159.211 197.685 159.314 197.99 159.519 198.214C159.723 198.439 159.998 198.551 160.341 198.551C160.56 198.551 160.765 198.501 160.955 198.402C161.145 198.3 161.299 198.149 161.415 197.95C161.534 197.751 161.593 197.506 161.59 197.213ZM166.673 196.216V200H164.857V193.455H166.587V194.609H166.664C166.809 194.229 167.052 193.928 167.393 193.706C167.734 193.482 168.147 193.369 168.633 193.369C169.087 193.369 169.484 193.469 169.822 193.668C170.16 193.866 170.423 194.151 170.61 194.52C170.798 194.886 170.891 195.324 170.891 195.832V200H169.076V196.156C169.079 195.756 168.977 195.443 168.769 195.219C168.562 194.991 168.276 194.878 167.913 194.878C167.668 194.878 167.452 194.93 167.265 195.036C167.08 195.141 166.935 195.294 166.83 195.496C166.728 195.695 166.675 195.935 166.673 196.216ZM172.322 200V193.455H174.137V200H172.322ZM173.234 192.611C172.964 192.611 172.733 192.521 172.539 192.342C172.349 192.161 172.254 191.943 172.254 191.69C172.254 191.44 172.349 191.226 172.539 191.047C172.733 190.865 172.964 190.774 173.234 190.774C173.504 190.774 173.734 190.865 173.924 191.047C174.118 191.226 174.214 191.44 174.214 191.69C174.214 191.943 174.118 192.161 173.924 192.342C173.734 192.521 173.504 192.611 173.234 192.611ZM175.592 200V193.455H177.322V194.609H177.398C177.535 194.226 177.762 193.923 178.08 193.702C178.398 193.48 178.779 193.369 179.222 193.369C179.671 193.369 180.053 193.482 180.369 193.706C180.684 193.928 180.894 194.229 180.999 194.609H181.067C181.201 194.234 181.442 193.935 181.792 193.71C182.144 193.483 182.56 193.369 183.04 193.369C183.651 193.369 184.147 193.564 184.528 193.953C184.911 194.339 185.103 194.888 185.103 195.598V200H183.292V195.956C183.292 195.592 183.195 195.32 183.002 195.138C182.809 194.956 182.567 194.865 182.278 194.865C181.948 194.865 181.691 194.97 181.506 195.18C181.322 195.388 181.229 195.662 181.229 196.003V200H179.469V195.918C179.469 195.597 179.377 195.341 179.192 195.151C179.011 194.96 178.771 194.865 178.472 194.865C178.271 194.865 178.089 194.916 177.927 195.018C177.768 195.118 177.641 195.259 177.548 195.44C177.454 195.619 177.407 195.83 177.407 196.071V200H175.592Z" fill="#3F4450"/>
<rect x="63" y="214" width="134" height="5" rx="2.5" fill="#E2E2E2"/>
<rect x="63" y="230" width="170" height="5" rx="2.5" fill="#E2E2E2"/>
<rect x="63" y="245" width="170" height="6" rx="3" fill="#E2E2E2"/>
<path d="M193.406 66.8544V69.4109C193.445 69.9159 193.288 70.4167 192.968 70.8093C192.827 70.9612 192.655 71.0812 192.463 71.1614C192.272 71.2416 192.066 71.2802 191.858 71.2746C191.654 71.2805 191.45 71.2414 191.262 71.16C191.074 71.0786 190.907 70.9569 190.771 70.8036C190.46 70.4095 190.308 69.9133 190.345 69.4128V60.8864C190.345 59.5113 190.842 58.8236 191.836 58.8231C192.045 58.8046 192.255 58.839 192.447 58.9232C192.64 59.0074 192.807 59.1387 192.935 59.305C193.19 59.7354 193.318 60.2289 193.305 60.7288C193.597 60.1935 193.978 59.712 194.432 59.305C194.872 58.9657 195.419 58.7948 195.974 58.8231C196.628 58.8262 197.271 58.9918 197.846 59.305C198.105 59.4075 198.328 59.5829 198.49 59.8099C198.651 60.0369 198.743 60.3057 198.754 60.5839C198.759 60.7568 198.727 60.9288 198.661 61.0883C198.594 61.2479 198.494 61.3915 198.367 61.5093C198.148 61.7359 197.848 61.8667 197.532 61.8736C197.254 61.8344 196.982 61.7649 196.719 61.6663C196.353 61.5392 195.969 61.4693 195.581 61.4591C195.184 61.4421 194.794 61.5675 194.482 61.8125C194.168 62.0937 193.939 62.4566 193.82 62.8607C193.649 63.3972 193.54 63.9518 193.495 64.5133C193.435 65.1545 193.405 65.9348 193.406 66.8544Z" fill="#EF4B46"/>
<path d="M125.545 56.4596L129.267 67.4802L133.002 56.3795C133.196 55.7964 133.341 55.3909 133.439 55.1629C133.547 54.9211 133.712 54.7095 133.921 54.5463C134.186 54.35 134.511 54.2526 134.84 54.2711C135.118 54.2697 135.391 54.3433 135.631 54.484C135.867 54.6198 136.064 54.815 136.203 55.0504C136.335 55.2647 136.407 55.511 136.41 55.7629C136.409 55.9423 136.386 56.1208 136.343 56.295C136.298 56.485 136.242 56.6722 136.175 56.8556C136.108 57.0386 136.041 57.2274 135.973 57.4219L131.993 68.1641C131.85 68.5752 131.708 68.9657 131.566 69.3356C131.438 69.6781 131.273 70.0053 131.073 70.3113C130.882 70.5968 130.626 70.8336 130.327 71.0029C129.978 71.1918 129.585 71.2846 129.188 71.2718C128.792 71.2844 128.4 71.1937 128.05 71.0086C127.748 70.8401 127.49 70.6017 127.299 70.3132C127.097 70.0052 126.93 69.6764 126.8 69.3324C126.658 68.9663 126.516 68.5775 126.373 68.1661L122.461 57.5141C122.394 57.3196 122.324 57.1289 122.254 56.942C122.18 56.7448 122.12 56.5426 122.074 56.3369C122.03 56.156 122.005 55.9708 122 55.7845C122.003 55.5887 122.045 55.3955 122.124 55.2163C122.203 55.0371 122.318 54.8756 122.46 54.7415C122.609 54.5871 122.789 54.4655 122.988 54.3844C123.187 54.3033 123.4 54.2645 123.615 54.2705C123.844 54.247 124.075 54.2825 124.287 54.3738C124.498 54.465 124.683 54.6089 124.823 54.7917C125.136 55.3136 125.378 55.8744 125.545 56.4596Z" fill="#F17A39"/>
<path d="M158.499 62.3335L152.893 68.6015H158.892C159.288 68.5728 159.68 68.6952 159.989 68.9441C160.111 69.0556 160.207 69.1919 160.271 69.3439C160.334 69.4958 160.365 69.6598 160.359 69.8245C160.364 69.9828 160.334 70.1404 160.271 70.2857C160.208 70.4311 160.114 70.5608 159.995 70.6654C159.679 70.9057 159.286 71.0216 158.89 70.9909H150.594C150.127 71.027 149.662 70.8914 149.288 70.6095C149.036 70.3783 148.882 70.0593 148.859 69.7183C148.835 69.3772 148.943 69.04 149.161 68.7763C149.363 68.511 149.782 68.0237 150.417 67.3144C151.09 66.5673 151.701 65.8907 152.251 65.2848C152.8 64.6788 153.31 64.1125 153.781 63.5857C154.252 63.059 154.642 62.6124 154.953 62.2458C155.263 61.8793 155.511 61.5653 155.698 61.3038H151.146C150.665 61.323 150.185 61.2662 149.722 61.1354C149.4 61.0235 149.239 60.7281 149.24 60.2493C149.234 60.0907 149.263 59.9328 149.326 59.7872C149.389 59.6416 149.484 59.5121 149.604 59.4083C149.9 59.1813 150.267 59.0689 150.639 59.0918H157.67C158.185 59.0639 158.699 59.1621 159.167 59.3778C159.343 59.4813 159.485 59.6329 159.578 59.8149C159.67 59.9968 159.708 60.2014 159.688 60.4044C159.686 60.5786 159.652 60.751 159.587 60.9129C159.532 61.066 159.456 61.2111 159.363 61.3445C159.28 61.4564 159.168 61.5928 159.026 61.7538C158.883 61.9149 158.708 62.1081 158.499 62.3335Z" fill="#F48046"/>
<path d="M163.691 57.402C163.291 57.4113 162.901 57.2716 162.598 57.0098C162.454 56.867 162.339 56.6967 162.261 56.5091C162.184 56.3214 162.144 56.1201 162.145 55.9169C162.146 55.7138 162.188 55.5129 162.267 55.3261C162.347 55.1393 162.463 54.9702 162.609 54.8289C162.903 54.5557 163.289 54.4053 163.69 54.4088C164.076 54.405 164.45 54.5404 164.745 54.7902C164.901 54.9276 165.024 55.0991 165.104 55.2916C165.183 55.484 165.218 55.6921 165.204 55.9C165.215 56.1057 165.181 56.3113 165.103 56.5022C165.026 56.6931 164.907 56.8645 164.755 57.0041C164.464 57.2666 164.084 57.4088 163.691 57.402ZM165.205 60.5642V69.4123C165.242 69.9147 165.085 70.4122 164.767 70.803C164.627 70.9566 164.455 71.0781 164.264 71.1594C164.072 71.2407 163.866 71.2798 163.658 71.274C163.451 71.2806 163.245 71.2407 163.056 71.1573C162.867 71.0739 162.699 70.9492 162.564 70.7922C162.261 70.3992 162.111 69.9086 162.144 69.4129V60.6539C162.107 60.1613 162.257 59.6729 162.564 59.286C162.702 59.1347 162.872 59.0153 163.06 58.936C163.249 58.8566 163.453 58.8192 163.658 58.8264C163.865 58.8203 164.07 58.8581 164.262 58.9373C164.453 59.0165 164.625 59.1353 164.767 59.286C165.076 59.6379 165.233 60.0972 165.205 60.5642H165.205Z" fill="#F07A4F"/>
<path d="M168.535 59.0946H168.872V57.2563C168.872 56.763 168.885 56.3762 168.911 56.0956C168.929 55.8412 169.004 55.5941 169.13 55.3723C169.253 55.1598 169.431 54.9842 169.646 54.8638C169.874 54.7318 170.133 54.6639 170.397 54.6674C170.792 54.6698 171.17 54.8265 171.451 55.104C171.657 55.2926 171.797 55.5424 171.849 55.8166C171.914 56.2113 171.942 56.6111 171.933 57.0109V59.0965H173.055C173.412 59.0716 173.766 59.1816 174.047 59.4047C174.158 59.5035 174.247 59.6255 174.306 59.7621C174.365 59.8987 174.393 60.0467 174.389 60.1955C174.403 60.3716 174.364 60.548 174.277 60.7018C174.191 60.8557 174.06 60.98 173.901 61.0587C173.46 61.246 172.982 61.3305 172.503 61.3059H171.931V66.9351C171.926 67.3038 171.942 67.6725 171.982 68.0392C172.004 68.2714 172.098 68.4909 172.251 68.6672C172.346 68.7552 172.458 68.8221 172.581 68.8636C172.703 68.9051 172.834 68.9203 172.962 68.9081C173.208 68.8999 173.452 68.868 173.692 68.8128C173.927 68.7581 174.167 68.7261 174.409 68.7174C174.535 68.719 174.658 68.7461 174.773 68.7972C174.888 68.8482 174.991 68.9221 175.076 69.0143C175.173 69.1098 175.249 69.2243 175.301 69.3505C175.352 69.4768 175.377 69.6122 175.373 69.7484C175.369 69.9967 175.29 70.2378 175.146 70.44C175.001 70.6422 174.799 70.796 174.566 70.8811C173.83 71.1793 173.038 71.3131 172.245 71.2733C171.489 71.3214 170.735 71.1543 170.07 70.7915C169.588 70.4864 169.241 70.0089 169.1 69.4567C168.927 68.7107 168.85 67.9458 168.87 67.1804V61.304H168.467C168.103 61.3292 167.743 61.2171 167.458 60.99C167.345 60.8909 167.256 60.7682 167.196 60.6307C167.136 60.4932 167.106 60.3442 167.11 60.1942C167.107 60.0433 167.138 59.8936 167.201 59.7565C167.264 59.6195 167.358 59.4987 167.475 59.4035C167.78 59.178 168.156 59.0685 168.535 59.0946Z" fill="#EB674C"/>
<path d="M187.956 65.0492C187.965 65.9088 187.82 66.7632 187.529 67.572C187.263 68.3136 186.843 68.9902 186.296 69.5571C185.751 70.1139 185.094 70.5474 184.368 70.8284C183.562 71.1348 182.706 71.2858 181.845 71.2733C180.99 71.2866 180.141 71.1342 179.344 70.8246C178.617 70.5365 177.96 70.0972 177.415 69.5356C176.871 68.9741 176.453 68.3032 176.188 67.5676C175.899 66.7602 175.757 65.9078 175.767 65.0505C175.757 64.1844 175.902 63.3234 176.194 62.508C176.457 61.7723 176.874 61.1007 177.416 60.5375C177.96 59.983 178.618 59.5528 179.344 59.2764C180.966 58.6842 182.745 58.6863 184.366 59.2821C185.097 59.5633 185.759 59.9996 186.306 60.561C186.853 61.1223 187.272 61.7954 187.534 62.534C187.822 63.3409 187.965 64.1925 187.956 65.0492ZM184.884 65.0492C184.946 64.0119 184.655 62.9841 184.057 62.1336C183.798 61.7962 183.461 61.5256 183.076 61.3442C182.691 61.1628 182.268 61.0758 181.843 61.0905C181.28 61.0798 180.728 61.2425 180.261 61.5564C179.781 61.8984 179.414 62.3766 179.207 62.9294C178.716 64.2915 178.714 65.7821 179.202 67.1455C179.408 67.6954 179.771 68.1729 180.245 68.5191C180.714 68.8418 181.273 69.0084 181.843 68.9952C182.269 69.01 182.692 68.9226 183.077 68.7402C183.463 68.5578 183.799 68.2859 184.057 67.9471C184.652 67.1021 184.943 66.0808 184.884 65.0492Z" fill="#EE5449"/>
<path d="M140.542 60.2046C140.153 60.5057 139.784 60.8301 139.434 61.1758C139.254 61.3971 139.134 61.6622 139.089 61.9443C138.965 62.6289 138.898 63.3243 138.802 64.0139C138.777 64.1914 138.683 64.352 138.541 64.4613C138.4 64.5706 138.22 64.6199 138.042 64.5987C137.951 64.5912 137.862 64.5649 137.782 64.5215C137.701 64.478 137.63 64.4184 137.574 64.3463C137.517 64.2742 137.476 64.1911 137.454 64.1025C137.431 64.0138 137.427 63.9213 137.441 63.8309C137.547 62.927 137.664 62.025 137.772 61.1212C137.812 60.777 137.984 60.462 138.253 60.244C138.852 59.7355 139.443 59.2232 140.055 58.7331C140.638 58.2303 141.387 57.9607 142.157 57.9761C142.411 57.9628 142.663 58.0273 142.88 58.161C143.097 58.2946 143.268 58.4911 143.37 58.7242C143.665 59.3419 143.914 59.9805 144.115 60.6349C144.189 60.9416 144.338 61.2255 144.547 61.4616C144.756 61.6978 145.02 61.879 145.316 61.9895C145.837 62.2113 146.346 62.4624 146.857 62.7077C147.015 62.7799 147.138 62.9112 147.201 63.0734C147.263 63.2356 147.259 63.4158 147.19 63.5754C147.158 63.6549 147.11 63.727 147.049 63.7871C146.987 63.8472 146.914 63.8939 146.834 63.9245C146.754 63.955 146.668 63.9687 146.582 63.9646C146.497 63.9605 146.413 63.9388 146.336 63.9008C145.5 63.5213 144.655 63.1508 143.843 62.723C143.58 62.5334 143.354 62.2962 143.178 62.0238C143.097 61.8816 143.004 61.7468 142.899 61.6208C142.786 62.1706 142.709 62.7325 142.55 63.2683C142.482 63.4878 142.469 63.7204 142.511 63.946C142.553 64.1717 142.649 64.3839 142.791 64.5644C143.878 66.219 144.928 67.9059 145.985 69.5878C146.065 69.6944 146.122 69.8166 146.153 69.9464C146.183 70.0763 146.186 70.2111 146.161 70.3421C146.136 70.4731 146.085 70.5976 146.009 70.7075C145.934 70.8175 145.836 70.9105 145.723 70.9806C145.609 71.0507 145.483 71.0965 145.35 71.1149C145.218 71.1333 145.084 71.124 144.956 71.0876C144.827 71.0512 144.708 70.9884 144.605 70.9033C144.503 70.8182 144.419 70.7127 144.359 70.5934C143.506 69.2408 142.646 67.8932 141.793 66.5412C141.198 65.5979 140.602 64.6547 140.024 63.7006C139.938 63.5459 139.906 63.3668 139.935 63.1921C140.116 62.2259 140.322 61.261 140.542 60.2046Z" fill="#444444"/>
<path d="M145.194 71.3313C144.984 71.3271 144.779 71.2666 144.6 71.1562C144.421 71.0457 144.275 70.8893 144.177 70.7032C143.736 70.0028 143.293 69.3036 142.848 68.6057C142.436 67.9552 142.023 67.3043 141.611 66.653L141.584 66.6098C141.007 65.6957 140.41 64.7499 139.84 63.8085C139.728 63.6103 139.687 63.3797 139.724 63.1551C139.86 62.4324 140.008 61.7141 140.169 60.9545L140.212 60.7511C139.99 60.9243 139.781 61.1141 139.588 61.3188C139.433 61.5107 139.331 61.74 139.293 61.9836C139.215 62.4152 139.16 62.8608 139.106 63.293C139.074 63.5441 139.042 63.7952 139.007 64.0463C138.973 64.2779 138.85 64.4872 138.665 64.6297C138.479 64.7721 138.245 64.8365 138.012 64.809C137.894 64.798 137.779 64.7628 137.674 64.7058C137.57 64.6487 137.478 64.5709 137.404 64.4771C137.331 64.3833 137.277 64.2756 137.247 64.1604C137.217 64.0452 137.21 63.925 137.228 63.8073C137.289 63.2814 137.353 62.7557 137.419 62.2303C137.466 61.8527 137.513 61.4745 137.558 61.0969C137.604 60.6979 137.805 60.3329 138.117 60.0799L138.597 59.6725C139.027 59.3057 139.472 58.9269 139.922 58.5665C140.544 58.0292 141.344 57.7426 142.166 57.7624C142.46 57.7489 142.751 57.8253 143.001 57.9814C143.251 58.1376 143.447 58.366 143.564 58.6364L143.642 58.8131C143.912 59.3831 144.138 59.9725 144.319 60.5763C144.385 60.8523 144.518 61.1077 144.707 61.3198C144.895 61.532 145.133 61.6943 145.4 61.7923C145.835 61.9779 146.267 62.1858 146.684 62.3866L146.949 62.5137C147.157 62.6098 147.319 62.7833 147.4 62.9971C147.482 63.2108 147.476 63.448 147.385 63.6579C147.342 63.763 147.277 63.8582 147.196 63.9375C147.114 64.0168 147.018 64.0787 146.911 64.1193C146.805 64.1598 146.691 64.1783 146.578 64.1735C146.464 64.1687 146.353 64.1408 146.25 64.0914L145.939 63.9515C145.213 63.6248 144.462 63.2873 143.745 62.9072C143.506 62.7574 143.302 62.558 143.147 62.3224C143.103 62.2652 143.059 62.208 143.015 62.154L143.012 62.1483V62.1571C142.947 62.5503 142.86 62.9397 142.753 63.3235C142.695 63.5137 142.684 63.7152 142.721 63.9105C142.759 64.1057 142.844 64.2888 142.969 64.4435C143.868 65.819 144.757 67.2327 145.616 68.5993L146.165 69.472C146.283 69.647 146.355 69.8487 146.375 70.0586C146.394 70.2686 146.361 70.4801 146.278 70.674C146.195 70.8486 146.069 70.9991 145.912 71.1115C145.754 71.2238 145.571 71.2942 145.379 71.316C145.318 71.3257 145.256 71.3308 145.194 71.3313ZM140.872 59.6432L140.748 60.2471C140.693 60.5166 140.638 60.7797 140.585 61.0384C140.428 61.7967 140.278 62.5125 140.145 63.2307C140.126 63.3538 140.149 63.4795 140.208 63.5886C140.776 64.5268 141.372 65.4707 141.948 66.3854L141.976 66.4286C142.384 67.0786 142.795 67.7283 143.209 68.3775C143.653 69.0771 144.096 69.7763 144.538 70.4751C144.607 70.6195 144.719 70.7384 144.86 70.8144C145 70.8903 145.161 70.9193 145.32 70.8971C145.442 70.8854 145.56 70.8422 145.661 70.7717C145.762 70.7012 145.843 70.6058 145.896 70.4948C145.95 70.3649 145.971 70.2234 145.956 70.0834C145.94 69.9435 145.89 69.8097 145.809 69.6945L145.258 68.8224C144.4 67.4571 143.512 66.0447 142.615 64.673C142.457 64.4663 142.351 64.2252 142.304 63.9694C142.258 63.7136 142.273 63.4505 142.347 63.2015C142.45 62.8323 142.533 62.4578 142.595 62.0796C142.626 61.9099 142.659 61.7402 142.693 61.5711L142.768 61.2037L143.043 61.458C143.131 61.5448 143.205 61.6452 143.261 61.7554C143.284 61.7999 143.31 61.8425 143.34 61.8826C143.388 61.941 143.434 62.0014 143.481 62.0624C143.603 62.2473 143.759 62.4065 143.942 62.5309C144.647 62.9047 145.391 63.239 146.112 63.5632L146.423 63.7036C146.475 63.7301 146.531 63.7455 146.589 63.7487C146.647 63.752 146.705 63.7431 146.76 63.7225C146.814 63.702 146.863 63.6703 146.905 63.6295C146.946 63.5887 146.978 63.5397 147 63.4856C147.047 63.3762 147.05 63.2523 147.006 63.1412C146.963 63.0301 146.877 62.9407 146.768 62.8926L146.502 62.7655C146.089 62.5665 145.662 62.3606 145.236 62.1788C144.911 62.0564 144.62 61.8565 144.39 61.5964C144.16 61.3363 143.996 61.0239 143.914 60.6863C143.738 60.103 143.519 59.5337 143.258 58.9828L143.18 58.8055C143.093 58.6085 142.948 58.4431 142.764 58.3316C142.58 58.2202 142.366 58.1681 142.152 58.1825C141.432 58.1689 140.732 58.4223 140.188 58.8938C139.743 59.2504 139.298 59.6273 138.872 59.9922C138.712 60.1286 138.552 60.2649 138.391 60.4009C138.161 60.5843 138.013 60.8515 137.979 61.144C137.934 61.5224 137.887 61.9008 137.839 62.2792C137.776 62.8036 137.712 63.328 137.649 63.853C137.638 63.9161 137.64 63.9807 137.655 64.0428C137.671 64.1049 137.699 64.1631 137.739 64.2135C137.778 64.2639 137.828 64.3055 137.884 64.3355C137.941 64.3654 138.003 64.3832 138.067 64.3876C138.19 64.4017 138.314 64.3672 138.412 64.2915C138.51 64.2157 138.574 64.1047 138.591 63.9821C138.627 63.7342 138.655 63.485 138.689 63.2365C138.744 62.7991 138.8 62.3466 138.88 61.9016C138.931 61.5807 139.068 61.2795 139.276 61.0295C139.51 60.7854 139.762 60.5595 140.031 60.3539C140.15 60.256 140.275 60.1543 140.404 60.0437L140.872 59.6432Z" fill="#444444"/>
<path d="M139.626 64.9253C140.057 65.5018 140.452 66.0307 140.846 66.564C140.864 66.5899 140.875 66.6191 140.881 66.6497C140.886 66.6803 140.885 66.7117 140.878 66.7419C140.78 67.322 140.571 67.8777 140.262 68.3787C139.662 69.1345 139.107 69.9265 138.529 70.7C138.469 70.8057 138.388 70.8974 138.29 70.9691C138.192 71.0408 138.079 71.0908 137.961 71.1158C137.842 71.1408 137.719 71.1402 137.6 71.1142C137.482 71.0881 137.37 71.037 137.273 70.9644C137.176 70.8915 137.096 70.7991 137.037 70.6932C136.978 70.5872 136.942 70.4702 136.931 70.3496C136.921 70.2289 136.935 70.1073 136.974 69.9926C137.013 69.8779 137.076 69.7727 137.158 69.6836C137.705 68.94 138.262 68.2033 138.801 67.4538C138.923 67.2794 139.015 67.0861 139.074 66.8818C139.262 66.2589 139.43 65.6264 139.626 64.9253Z" fill="#444444"/>
<path d="M137.776 71.3515C137.55 71.3477 137.33 71.272 137.15 71.1354C137.039 71.0586 136.946 70.9603 136.874 70.8464C136.803 70.7324 136.755 70.6052 136.734 70.4724C136.714 70.3109 136.726 70.147 136.77 69.9902C136.813 69.8334 136.888 69.6868 136.988 69.559C137.185 69.2924 137.382 69.0261 137.58 68.76C137.927 68.2934 138.286 67.8104 138.63 67.3317C138.738 67.1765 138.82 67.0047 138.872 66.8232C139.007 66.3783 139.13 65.9295 139.261 65.4541L139.423 64.8693L139.539 64.4574L140.062 65.1566C140.393 65.5984 140.707 66.0166 141.016 66.438C141.053 66.4905 141.077 66.5505 141.088 66.6137C141.099 66.6769 141.096 66.7417 141.079 66.8035C141.035 66.9446 140.999 67.087 140.962 67.237C140.879 67.695 140.697 68.1291 140.427 68.5083C140.027 69.0123 139.639 69.5425 139.264 70.0554C139.073 70.3097 138.888 70.5696 138.698 70.8245C138.597 70.9791 138.461 71.1074 138.3 71.199C138.14 71.2906 137.96 71.3429 137.776 71.3515ZM139.715 65.395L139.668 65.5659C139.535 66.0433 139.413 66.4952 139.276 66.9446C139.21 67.1717 139.107 67.3864 138.972 67.5803C138.626 68.0621 138.267 68.5458 137.918 69.0143C137.721 69.2795 137.524 69.5454 137.328 69.812C137.26 69.8951 137.21 69.9908 137.18 70.0934C137.15 70.1961 137.14 70.3037 137.151 70.4101C137.164 70.4877 137.192 70.562 137.234 70.6284C137.276 70.6948 137.332 70.752 137.396 70.7966C137.472 70.8523 137.559 70.8911 137.65 70.9103C137.742 70.9295 137.837 70.9286 137.929 70.9078C138.02 70.887 138.106 70.8467 138.18 70.7897C138.255 70.7326 138.316 70.6602 138.36 70.5773C138.55 70.323 138.738 70.0675 138.924 69.8107C139.301 69.2946 139.692 68.7606 140.097 68.2502C140.328 67.917 140.484 67.5374 140.553 67.1379C140.589 66.9917 140.627 66.841 140.674 66.6929V66.6828C140.37 66.2709 140.057 65.8532 139.727 65.4115L139.715 65.395Z" fill="#444444"/>
<path d="M144.607 55.7652C144.607 56.0888 144.511 56.4052 144.331 56.6742C144.151 56.9431 143.895 57.1524 143.596 57.2755C143.296 57.3985 142.967 57.4297 142.65 57.3651C142.333 57.3005 142.042 57.143 141.815 56.9127C141.587 56.6824 141.434 56.3896 141.373 56.0717C141.313 55.7538 141.348 55.425 141.475 55.1273C141.602 54.8296 141.815 54.5764 142.086 54.3998C142.357 54.2233 142.675 54.1315 142.998 54.136C143.426 54.1438 143.834 54.3186 144.134 54.623C144.435 54.9275 144.604 55.3374 144.607 55.7652Z" fill="#444444"/>
<path d="M142.977 57.6141C142.487 57.6088 142.019 57.4106 141.675 57.0625C141.33 56.7144 141.137 56.2446 141.137 55.7549C141.159 55.281 141.364 54.8342 141.708 54.5073C142.052 54.1805 142.508 53.9988 142.983 54C143.457 54.0012 143.913 54.1853 144.255 54.5139C144.597 54.8426 144.799 55.2905 144.82 55.7644C144.82 56.254 144.626 56.7237 144.28 57.0705C143.935 57.4173 143.466 57.6128 142.976 57.6141H142.977ZM142.982 54.3463C142.606 54.3475 142.246 54.4962 141.98 54.7604C141.713 55.0246 141.56 55.3832 141.556 55.7587C141.557 56.1358 141.707 56.4972 141.973 56.7651C142.238 57.033 142.598 57.1861 142.975 57.1914C143.352 57.1891 143.713 57.0375 143.979 56.77C144.245 56.5024 144.394 56.1404 144.394 55.7631C144.393 55.3907 144.246 55.0336 143.985 54.7684C143.723 54.5032 143.368 54.3512 142.996 54.345L142.982 54.3463Z" fill="#444444"/>
</svg>
