<svg width="241" height="467" viewBox="0 0 241 467" fill="none" xmlns="http://www.w3.org/2000/svg">
<rect x="5" y="5" width="231" height="457" rx="48" fill="white" stroke="#E2E2E2" stroke-width="9"/>
<rect x="67" y="3" width="108" height="17" rx="8.5" fill="#E2E2E2"/>
<rect x="19.6523" y="57.6523" width="202.695" height="370.695" rx="12.3937" fill="white" stroke="#E2E2E2" stroke-width="1.3046"/>
<path d="M94.7532 316.335H79.3347V331.754H94.7532V316.335Z" fill="#D0CFCF"/>
<path d="M94.7532 376.247H79.3347V391.666H94.7532V376.247Z" fill="#D0CFCF"/>
<path d="M67 357.084V363.912V368.317V404H107.088V382.414H116.339V392.326V392.987V403.559H127.573V394.308H136.383V403.559H147.617V392.987H155.767V403.559H167V392.326H156.427V381.753H145.194V392.326H137.814V370.52H127.573V361.269H138.145V371.841H149.379V364.793H155.767V369.419V375.366V380.652H167V375.366V369.419V364.132H159.952V354.22H167V344.088V342.987V304H126.912V304.074H116.339V316.335H107.088V304H67V339.462V344.088V350.696H74.0484V357.084H67ZM100.039 396.952H74.0484V370.961H100.039V396.952ZM117 371.841H126.582V381.753H117V371.841ZM117 350.696H125.92V360.608H117V350.696ZM155.767 353.56H149.708V350.035H127.572V344.088H155.766V353.56H155.767ZM133.96 311.048H159.951V337.039H133.96V311.048ZM126.912 339.462H117V317.51H126.912V339.462ZM116.339 350.035H107.116V340.123H116.339V350.035ZM74.0484 311.048H100.039V337.039H74.0484V311.048ZM95.8829 344.088V350.696H105.767V361.269H116.339V371.18H107.088V363.912H78.2335V361.269H84.6213H85.2822H95.8547V350.035H85.2818H84.6209H78.2335V344.088H95.8829V344.088Z" fill="#D0CFCF"/>
<path d="M154.665 316.335H139.247V331.754H154.665V316.335Z" fill="#D0CFCF"/>
<path d="M25.8849 91V80.8182H28.0376V85.0192H32.4077V80.8182H34.5554V91H32.4077V86.794H28.0376V91H25.8849ZM36.2905 91V83.3636H38.4084V91H36.2905ZM37.3544 82.3793C37.0395 82.3793 36.7694 82.2749 36.544 82.0661C36.322 81.8539 36.2109 81.6004 36.2109 81.3054C36.2109 81.0137 36.322 80.7635 36.544 80.5547C36.7694 80.3426 37.0395 80.2365 37.3544 80.2365C37.6693 80.2365 37.9377 80.3426 38.1598 80.5547C38.3852 80.7635 38.4979 81.0137 38.4979 81.3054C38.4979 81.6004 38.3852 81.8539 38.1598 82.0661C37.9377 82.2749 37.6693 82.3793 37.3544 82.3793ZM48.9084 83.7464C48.8686 83.3454 48.6979 83.0339 48.3963 82.8118C48.0947 82.5897 47.6854 82.4787 47.1683 82.4787C46.817 82.4787 46.5204 82.5284 46.2784 82.6278C46.0365 82.724 45.8509 82.8582 45.7216 83.0305C45.5956 83.2029 45.5327 83.3984 45.5327 83.6172C45.526 83.7995 45.5642 83.9586 45.647 84.0945C45.7332 84.2304 45.8509 84.348 46 84.4474C46.1491 84.5436 46.3215 84.6281 46.517 84.701C46.7126 84.7706 46.9214 84.8303 47.1435 84.88L48.0582 85.0987C48.5024 85.1982 48.91 85.3307 49.2812 85.4964C49.6525 85.6622 49.974 85.866 50.2457 86.108C50.5175 86.3499 50.728 86.6349 50.8771 86.9631C51.0296 87.2912 51.1075 87.6674 51.1108 88.0916C51.1075 88.7147 50.9484 89.255 50.6335 89.7124C50.322 90.1664 49.8712 90.5194 49.2812 90.7713C48.6946 91.0199 47.987 91.1442 47.1584 91.1442C46.3364 91.1442 45.6205 91.0182 45.0107 90.7663C44.4041 90.5144 43.9302 90.1416 43.5888 89.6477C43.2507 89.1506 43.0734 88.5357 43.0568 87.8033H45.1399C45.1631 88.1446 45.2609 88.4297 45.4332 88.6584C45.6089 88.8838 45.8426 89.0545 46.1342 89.1705C46.4292 89.2831 46.7623 89.3395 47.1335 89.3395C47.4981 89.3395 47.8146 89.2865 48.0831 89.1804C48.3549 89.0743 48.5653 88.9268 48.7145 88.7379C48.8636 88.549 48.9382 88.3319 48.9382 88.0866C48.9382 87.858 48.8703 87.6657 48.7344 87.5099C48.6018 87.3542 48.4063 87.2216 48.1477 87.1122C47.8925 87.0028 47.5793 86.9034 47.2081 86.8139L46.0994 86.5355C45.241 86.3267 44.5632 86.0002 44.0661 85.5561C43.5689 85.112 43.322 84.5137 43.3253 83.7614C43.322 83.1449 43.486 82.6063 43.8175 82.1456C44.1522 81.6849 44.6113 81.3253 45.1946 81.0668C45.7779 80.8082 46.4408 80.679 47.1832 80.679C47.9389 80.679 48.5985 80.8082 49.1619 81.0668C49.7287 81.3253 50.1695 81.6849 50.4844 82.1456C50.7992 82.6063 50.9616 83.1399 50.9716 83.7464H48.9084ZM57.416 87.7486V83.3636H59.5339V91H57.5005V89.6129H57.421C57.2486 90.0604 56.9619 90.42 56.5609 90.6918C56.1632 90.9635 55.6776 91.0994 55.1042 91.0994C54.5938 91.0994 54.1447 90.9834 53.7569 90.7514C53.3691 90.5194 53.0659 90.1896 52.8471 89.7621C52.6317 89.3345 52.5223 88.8224 52.519 88.2259V83.3636H54.6369V87.848C54.6402 88.2988 54.7612 88.6551 54.9998 88.9169C55.2385 89.1787 55.5583 89.3097 55.9593 89.3097C56.2145 89.3097 56.4532 89.2517 56.6752 89.1357C56.8973 89.0163 57.0763 88.8407 57.2122 88.6087C57.3514 88.3767 57.4193 88.09 57.416 87.7486ZM61.228 91V83.3636H63.2464V84.7109H63.3359C63.495 84.2635 63.7602 83.9105 64.1314 83.652C64.5026 83.3935 64.9467 83.2642 65.4638 83.2642C65.9875 83.2642 66.4332 83.3951 66.8011 83.657C67.169 83.9155 67.4143 84.2668 67.5369 84.7109H67.6165C67.7723 84.2734 68.054 83.9238 68.4616 83.6619C68.8726 83.3968 69.3582 83.2642 69.9183 83.2642C70.6309 83.2642 71.2093 83.4912 71.6534 83.9453C72.1009 84.3961 72.3246 85.0357 72.3246 85.8643V91H70.2116V86.282C70.2116 85.8577 70.099 85.5395 69.8736 85.3274C69.6482 85.1153 69.3665 85.0092 69.0284 85.0092C68.6439 85.0092 68.344 85.1319 68.1286 85.3771C67.9131 85.6191 67.8054 85.9389 67.8054 86.3366V91H65.7521V86.2372C65.7521 85.8627 65.6444 85.5644 65.429 85.3423C65.2169 85.1203 64.9368 85.0092 64.5888 85.0092C64.3535 85.0092 64.1413 85.0689 63.9524 85.1882C63.7668 85.3042 63.6193 85.4683 63.5099 85.6804C63.4006 85.8892 63.3459 86.1345 63.3459 86.4162V91H61.228ZM73.9975 91V83.3636H76.1154V91H73.9975ZM75.0614 82.3793C74.7466 82.3793 74.4764 82.2749 74.2511 82.0661C74.029 81.8539 73.918 81.6004 73.918 81.3054C73.918 81.0137 74.029 80.7635 74.2511 80.5547C74.4764 80.3426 74.7466 80.2365 75.0614 80.2365C75.3763 80.2365 75.6448 80.3426 75.8668 80.5547C76.0922 80.7635 76.2049 81.0137 76.2049 81.3054C76.2049 81.6004 76.0922 81.8539 75.8668 82.0661C75.6448 82.2749 75.3763 82.3793 75.0614 82.3793ZM81.8738 83.3636V84.9545H77.275V83.3636H81.8738ZM78.3191 81.5341H80.437V88.6534C80.437 88.849 80.4668 89.0014 80.5265 89.1108C80.5861 89.2169 80.669 89.2914 80.775 89.3345C80.8844 89.3776 81.0104 89.3991 81.1529 89.3991C81.2523 89.3991 81.3517 89.3909 81.4512 89.3743C81.5506 89.3544 81.6268 89.3395 81.6799 89.3295L82.013 90.9055C81.9069 90.9387 81.7578 90.9768 81.5655 91.0199C81.3733 91.0663 81.1396 91.0945 80.8645 91.1044C80.3541 91.1243 79.9067 91.0563 79.5222 90.9006C79.141 90.7448 78.8444 90.5028 78.6323 90.1747C78.4202 89.8466 78.3158 89.4323 78.3191 88.9318V81.5341ZM86.1456 82.593V80.8182H94.5078V82.593H91.3906V91H89.2628V82.593H86.1456ZM97.9631 86.5852V91H95.8452V80.8182H97.9034V84.7109H97.9929C98.1652 84.2602 98.4437 83.9072 98.8281 83.652C99.2126 83.3935 99.6948 83.2642 100.275 83.2642C100.805 83.2642 101.268 83.3802 101.662 83.6122C102.06 83.8409 102.368 84.1707 102.587 84.6016C102.809 85.0291 102.918 85.5412 102.915 86.1378V91H100.797V86.5156C100.8 86.045 100.681 85.6787 100.439 85.4169C100.2 85.1551 99.8655 85.0241 99.4347 85.0241C99.1463 85.0241 98.8911 85.0855 98.669 85.2081C98.4503 85.3307 98.2779 85.5097 98.152 85.745C98.0294 85.977 97.9664 86.2571 97.9631 86.5852ZM104.581 93.8636V83.3636H106.67V84.6463H106.764C106.857 84.4408 106.991 84.232 107.167 84.0199C107.346 83.8045 107.578 83.6255 107.863 83.483C108.151 83.3371 108.509 83.2642 108.937 83.2642C109.493 83.2642 110.007 83.41 110.478 83.7017C110.948 83.9901 111.325 84.4259 111.606 85.0092C111.888 85.5893 112.029 86.3168 112.029 87.1918C112.029 88.0436 111.891 88.7628 111.616 89.3494C111.345 89.9328 110.973 90.3752 110.503 90.6768C110.035 90.9751 109.512 91.1243 108.932 91.1243C108.521 91.1243 108.171 91.0563 107.883 90.9205C107.598 90.7846 107.364 90.6139 107.182 90.4084C106.999 90.1996 106.86 89.9891 106.764 89.777H106.699V93.8636H104.581ZM106.655 87.1818C106.655 87.6359 106.718 88.032 106.844 88.37C106.97 88.7081 107.152 88.9716 107.39 89.1605C107.629 89.3461 107.919 89.4389 108.26 89.4389C108.605 89.4389 108.897 89.3445 109.135 89.1555C109.374 88.9633 109.555 88.6982 109.677 88.3601C109.803 88.0187 109.866 87.6259 109.866 87.1818C109.866 86.741 109.805 86.3532 109.682 86.0185C109.56 85.6837 109.379 85.4219 109.14 85.233C108.902 85.044 108.608 84.9496 108.26 84.9496C107.916 84.9496 107.624 85.0407 107.385 85.223C107.15 85.4053 106.97 85.6638 106.844 85.9986C106.718 86.3333 106.655 86.7277 106.655 87.1818ZM115.618 91.1442C115.131 91.1442 114.697 91.0597 114.316 90.8906C113.935 90.7183 113.633 90.4647 113.411 90.13C113.192 89.7919 113.083 89.371 113.083 88.8672C113.083 88.4429 113.161 88.0866 113.317 87.7983C113.472 87.5099 113.684 87.2779 113.953 87.1023C114.221 86.9266 114.526 86.794 114.868 86.7045C115.212 86.6151 115.574 86.5521 115.952 86.5156C116.396 86.4692 116.754 86.4261 117.025 86.3864C117.297 86.3433 117.494 86.2803 117.617 86.1974C117.74 86.1146 117.801 85.992 117.801 85.8295V85.7997C117.801 85.4848 117.702 85.2412 117.503 85.0689C117.307 84.8965 117.029 84.8104 116.667 84.8104C116.286 84.8104 115.983 84.8949 115.758 85.0639C115.532 85.2296 115.383 85.4384 115.31 85.6903L113.351 85.5312C113.451 85.0672 113.646 84.6662 113.938 84.3281C114.23 83.9867 114.606 83.7249 115.067 83.5426C115.531 83.357 116.068 83.2642 116.677 83.2642C117.102 83.2642 117.508 83.3139 117.895 83.4134C118.287 83.5128 118.633 83.6669 118.934 83.8757C119.239 84.0845 119.48 84.353 119.655 84.6811C119.831 85.0059 119.919 85.3954 119.919 85.8494V91H117.91V89.9411H117.851C117.728 90.1797 117.564 90.3902 117.358 90.5724C117.153 90.7514 116.906 90.8923 116.618 90.995C116.329 91.0945 115.996 91.1442 115.618 91.1442ZM116.225 89.6825C116.537 89.6825 116.812 89.6212 117.05 89.4986C117.289 89.3726 117.476 89.2036 117.612 88.9915C117.748 88.7794 117.816 88.5391 117.816 88.2706V87.4602C117.75 87.5033 117.658 87.5431 117.542 87.5795C117.43 87.6127 117.302 87.6442 117.16 87.674C117.017 87.7005 116.875 87.7254 116.732 87.7486C116.59 87.7685 116.46 87.7867 116.344 87.8033C116.096 87.8397 115.879 87.8977 115.693 87.9773C115.507 88.0568 115.363 88.1645 115.26 88.3004C115.158 88.433 115.106 88.5987 115.106 88.7976C115.106 89.0859 115.211 89.3063 115.42 89.4588C115.632 89.608 115.9 89.6825 116.225 89.6825ZM121.562 91V83.3636H123.615V84.696H123.695C123.834 84.2221 124.068 83.8641 124.396 83.6222C124.724 83.3769 125.102 83.2543 125.529 83.2543C125.635 83.2543 125.75 83.2609 125.872 83.2741C125.995 83.2874 126.103 83.3056 126.195 83.3288V85.2081C126.096 85.1783 125.959 85.1518 125.783 85.1286C125.607 85.1054 125.446 85.0938 125.301 85.0938C124.989 85.0938 124.711 85.1617 124.465 85.2976C124.223 85.4302 124.031 85.6158 123.889 85.8544C123.749 86.093 123.68 86.3681 123.68 86.6797V91H121.562ZM128.717 89.608L128.663 90.1548C128.62 90.5923 128.537 91.0282 128.414 91.4624C128.295 91.8999 128.169 92.2959 128.036 92.6506C127.907 93.0052 127.803 93.2836 127.723 93.4858H126.351C126.401 93.2902 126.469 93.0168 126.555 92.6655C126.641 92.3175 126.722 91.9264 126.798 91.4922C126.875 91.058 126.923 90.6155 126.942 90.1648L126.967 89.608H128.717Z" fill="#3F4450"/>
<path d="M25.2379 109.727H26.4844L28.3842 113.033H28.4624L30.3622 109.727H31.6087L28.9702 114.145V117H27.8764V114.145L25.2379 109.727ZM33.9586 117.11C33.4473 117.11 33.001 116.993 32.6199 116.759C32.2387 116.524 31.9428 116.196 31.7321 115.775C31.5214 115.353 31.416 114.861 31.416 114.298C31.416 113.732 31.5214 113.237 31.7321 112.813C31.9428 112.389 32.2387 112.06 32.6199 111.826C33.001 111.592 33.4473 111.474 33.9586 111.474C34.47 111.474 34.9163 111.592 35.2974 111.826C35.6786 112.06 35.9745 112.389 36.1852 112.813C36.3959 113.237 36.5012 113.732 36.5012 114.298C36.5012 114.861 36.3959 115.353 36.1852 115.775C35.9745 116.196 35.6786 116.524 35.2974 116.759C34.9163 116.993 34.47 117.11 33.9586 117.11ZM33.9622 116.219C34.2936 116.219 34.5682 116.131 34.786 115.956C35.0038 115.781 35.1648 115.548 35.269 115.256C35.3755 114.965 35.4288 114.644 35.4288 114.294C35.4288 113.946 35.3755 113.626 35.269 113.335C35.1648 113.042 35.0038 112.806 34.786 112.629C34.5682 112.451 34.2936 112.362 33.9622 112.362C33.6284 112.362 33.3514 112.451 33.1312 112.629C32.9134 112.806 32.7512 113.042 32.6447 113.335C32.5405 113.626 32.4885 113.946 32.4885 114.294C32.4885 114.644 32.5405 114.965 32.6447 115.256C32.7512 115.548 32.9134 115.781 33.1312 115.956C33.3514 116.131 33.6284 116.219 33.9622 116.219ZM41.1417 114.738V111.545H42.207V117H41.163V116.055H41.1062C40.9807 116.347 40.7795 116.589 40.5025 116.783C40.2279 116.975 39.8858 117.071 39.4762 117.071C39.1258 117.071 38.8157 116.994 38.5458 116.84C38.2783 116.684 38.0676 116.453 37.9137 116.148C37.7622 115.842 37.6864 115.465 37.6864 115.015V111.545H38.7482V114.887C38.7482 115.259 38.8512 115.555 39.0572 115.775C39.2631 115.995 39.5307 116.105 39.8597 116.105C40.0586 116.105 40.2563 116.055 40.4528 115.956C40.6516 115.857 40.8162 115.706 40.9464 115.505C41.079 115.304 41.1441 115.048 41.1417 114.738ZM47.342 113.761V117H46.2802V109.727H47.3278V112.433H47.3952C47.5231 112.14 47.7184 111.906 47.9812 111.734C48.244 111.561 48.5872 111.474 49.011 111.474C49.3851 111.474 49.7118 111.551 49.9911 111.705C50.2728 111.859 50.4906 112.089 50.6445 112.394C50.8008 112.697 50.8789 113.076 50.8789 113.531V117H49.8171V113.658C49.8171 113.258 49.7141 112.948 49.5082 112.728C49.3022 112.505 49.0157 112.394 48.6488 112.394C48.3978 112.394 48.1729 112.447 47.9741 112.554C47.7776 112.661 47.6225 112.817 47.5089 113.023C47.3976 113.226 47.342 113.473 47.342 113.761ZM53.8832 117.121C53.5375 117.121 53.225 117.057 52.9457 116.929C52.6663 116.799 52.445 116.611 52.2816 116.364C52.1206 116.118 52.0401 115.816 52.0401 115.459C52.0401 115.151 52.0993 114.898 52.2177 114.699C52.3361 114.5 52.4959 114.343 52.6971 114.227C52.8983 114.111 53.1232 114.023 53.3718 113.964C53.6204 113.905 53.8737 113.86 54.1317 113.829C54.4585 113.791 54.7236 113.76 54.9272 113.737C55.1308 113.71 55.2788 113.669 55.3711 113.612C55.4634 113.555 55.5096 113.463 55.5096 113.335V113.31C55.5096 113 55.422 112.76 55.2468 112.589C55.074 112.419 54.8159 112.334 54.4727 112.334C54.1152 112.334 53.8335 112.413 53.6275 112.572C53.4239 112.728 53.283 112.902 53.2049 113.094L52.207 112.866C52.3254 112.535 52.4982 112.268 52.7255 112.064C52.9551 111.858 53.2191 111.709 53.5174 111.616C53.8157 111.522 54.1294 111.474 54.4585 111.474C54.6763 111.474 54.9071 111.5 55.1509 111.553C55.3971 111.602 55.6268 111.695 55.8398 111.83C56.0553 111.964 56.2317 112.157 56.369 112.408C56.5063 112.657 56.5749 112.98 56.5749 113.378V117H55.538V116.254H55.4954C55.4267 116.392 55.3237 116.527 55.1864 116.659C55.0491 116.792 54.8728 116.902 54.6573 116.989C54.4419 117.077 54.1838 117.121 53.8832 117.121ZM54.114 116.268C54.4076 116.268 54.6585 116.21 54.8668 116.094C55.0775 115.978 55.2373 115.827 55.3462 115.64C55.4575 115.451 55.5131 115.248 55.5131 115.033V114.33C55.4753 114.367 55.4019 114.403 55.293 114.436C55.1864 114.467 55.0645 114.494 54.9272 114.518C54.7899 114.539 54.6561 114.559 54.5259 114.578C54.3957 114.595 54.2868 114.609 54.1992 114.621C53.9933 114.647 53.805 114.691 53.6346 114.752C53.4665 114.814 53.3316 114.902 53.2298 115.018C53.1303 115.132 53.0806 115.284 53.0806 115.473C53.0806 115.736 53.1777 115.935 53.3718 116.07C53.5659 116.202 53.8133 116.268 54.114 116.268ZM62.46 111.545L60.4821 117H59.3457L57.3642 111.545H58.5041L59.8855 115.743H59.9423L61.3201 111.545H62.46ZM65.6232 117.11C65.0858 117.11 64.623 116.995 64.2347 116.766C63.8488 116.534 63.5505 116.208 63.3398 115.789C63.1315 115.368 63.0273 114.874 63.0273 114.308C63.0273 113.75 63.1315 113.257 63.3398 112.831C63.5505 112.405 63.8441 112.072 64.2205 111.833C64.5993 111.594 65.042 111.474 65.5487 111.474C65.8564 111.474 66.1547 111.525 66.4435 111.627C66.7324 111.729 66.9916 111.889 67.2212 112.107C67.4509 112.324 67.632 112.607 67.7646 112.955C67.8971 113.301 67.9634 113.721 67.9634 114.216V114.592H63.6275V113.797H66.9229C66.9229 113.518 66.8661 113.27 66.7525 113.055C66.6388 112.837 66.479 112.665 66.2731 112.54C66.0695 112.414 65.8304 112.352 65.5558 112.352C65.2575 112.352 64.997 112.425 64.7745 112.572C64.5543 112.716 64.3839 112.906 64.2631 113.14C64.1448 113.372 64.0856 113.624 64.0856 113.896V114.518C64.0856 114.882 64.1495 115.192 64.2773 115.448C64.4076 115.704 64.5887 115.899 64.8207 116.034C65.0527 116.167 65.3237 116.233 65.6339 116.233C65.8351 116.233 66.0186 116.205 66.1843 116.148C66.35 116.089 66.4933 116.001 66.614 115.885C66.7347 115.769 66.8271 115.626 66.891 115.455L67.896 115.636C67.8155 115.932 67.671 116.192 67.4627 116.414C67.2567 116.634 66.9975 116.806 66.685 116.929C66.3749 117.05 66.021 117.11 65.6232 117.11ZM71.8732 117V109.727H72.935V112.43H72.9989C73.0605 112.316 73.1493 112.185 73.2653 112.036C73.3813 111.886 73.5423 111.756 73.7482 111.645C73.9542 111.531 74.2264 111.474 74.565 111.474C75.0053 111.474 75.3983 111.586 75.744 111.808C76.0896 112.031 76.3607 112.352 76.5572 112.771C76.756 113.19 76.8555 113.694 76.8555 114.283C76.8555 114.873 76.7572 115.378 76.5607 115.8C76.3642 116.219 76.0943 116.542 75.7511 116.769C75.4078 116.994 75.016 117.107 74.5756 117.107C74.2442 117.107 73.9731 117.051 73.7624 116.94C73.5541 116.828 73.3907 116.698 73.2724 116.549C73.154 116.4 73.0629 116.267 72.9989 116.151H72.9102V117H71.8732ZM72.9137 114.273C72.9137 114.656 72.9693 114.992 73.0806 115.281C73.1919 115.57 73.3529 115.796 73.5636 115.96C73.7743 116.121 74.0323 116.201 74.3377 116.201C74.6549 116.201 74.9201 116.117 75.1332 115.949C75.3462 115.778 75.5072 115.548 75.6161 115.256C75.7274 114.965 75.783 114.637 75.783 114.273C75.783 113.913 75.7286 113.59 75.6197 113.303C75.5131 113.017 75.3522 112.791 75.1367 112.625C74.9237 112.459 74.6573 112.376 74.3377 112.376C74.0299 112.376 73.7695 112.456 73.5565 112.614C73.3458 112.773 73.186 112.994 73.0771 113.278C72.9682 113.562 72.9137 113.894 72.9137 114.273ZM80.3986 117.11C79.8612 117.11 79.3984 116.995 79.0101 116.766C78.6242 116.534 78.3259 116.208 78.1152 115.789C77.9069 115.368 77.8027 114.874 77.8027 114.308C77.8027 113.75 77.9069 113.257 78.1152 112.831C78.3259 112.405 78.6195 112.072 78.9959 111.833C79.3747 111.594 79.8174 111.474 80.324 111.474C80.6318 111.474 80.9301 111.525 81.2189 111.627C81.5078 111.729 81.767 111.889 81.9966 112.107C82.2263 112.324 82.4074 112.607 82.54 112.955C82.6725 113.301 82.7388 113.721 82.7388 114.216V114.592H78.4029V113.797H81.6983C81.6983 113.518 81.6415 113.27 81.5279 113.055C81.4142 112.837 81.2544 112.665 81.0485 112.54C80.8449 112.414 80.6058 112.352 80.3311 112.352C80.0328 112.352 79.7724 112.425 79.5499 112.572C79.3297 112.716 79.1593 112.906 79.0385 113.14C78.9202 113.372 78.861 113.624 78.861 113.896V114.518C78.861 114.882 78.9249 115.192 79.0527 115.448C79.1829 115.704 79.3641 115.899 79.5961 116.034C79.8281 116.167 80.0991 116.233 80.4093 116.233C80.6105 116.233 80.794 116.205 80.9597 116.148C81.1254 116.089 81.2686 116.001 81.3894 115.885C81.5101 115.769 81.6025 115.626 81.6664 115.455L82.6713 115.636C82.5908 115.932 82.4464 116.192 82.2381 116.414C82.0321 116.634 81.7729 116.806 81.4604 116.929C81.1503 117.05 80.7963 117.11 80.3986 117.11ZM86.2678 117.11C85.7304 117.11 85.2675 116.995 84.8793 116.766C84.4934 116.534 84.1951 116.208 83.9844 115.789C83.776 115.368 83.6719 114.874 83.6719 114.308C83.6719 113.75 83.776 113.257 83.9844 112.831C84.1951 112.405 84.4886 112.072 84.8651 111.833C85.2438 111.594 85.6866 111.474 86.1932 111.474C86.5009 111.474 86.7992 111.525 87.0881 111.627C87.3769 111.729 87.6361 111.889 87.8658 112.107C88.0954 112.324 88.2765 112.607 88.4091 112.955C88.5417 113.301 88.608 113.721 88.608 114.216V114.592H84.272V113.797H87.5675C87.5675 113.518 87.5107 113.27 87.397 113.055C87.2834 112.837 87.1236 112.665 86.9176 112.54C86.714 112.414 86.4749 112.352 86.2003 112.352C85.902 112.352 85.6416 112.425 85.419 112.572C85.1989 112.716 85.0284 112.906 84.9077 113.14C84.7893 113.372 84.7301 113.624 84.7301 113.896V114.518C84.7301 114.882 84.794 115.192 84.9219 115.448C85.0521 115.704 85.2332 115.899 85.4652 116.034C85.6972 116.167 85.9683 116.233 86.2784 116.233C86.4796 116.233 86.6631 116.205 86.8288 116.148C86.9946 116.089 87.1378 116.001 87.2585 115.885C87.3793 115.769 87.4716 115.626 87.5355 115.455L88.5405 115.636C88.46 115.932 88.3156 116.192 88.1072 116.414C87.9013 116.634 87.642 116.806 87.3295 116.929C87.0194 117.05 86.6655 117.11 86.2678 117.11ZM90.8478 113.761V117H89.786V111.545H90.8052V112.433H90.8727C90.9982 112.144 91.1947 111.912 91.4622 111.737C91.7321 111.562 92.0718 111.474 92.4814 111.474C92.853 111.474 93.1786 111.553 93.4579 111.709C93.7373 111.863 93.9539 112.092 94.1078 112.398C94.2617 112.703 94.3386 113.081 94.3386 113.531V117H93.2768V113.658C93.2768 113.263 93.1738 112.954 92.9679 112.732C92.7619 112.507 92.479 112.394 92.1191 112.394C91.8729 112.394 91.6539 112.447 91.4622 112.554C91.2728 112.661 91.1225 112.817 91.0112 113.023C90.9023 113.226 90.8478 113.473 90.8478 113.761ZM99.5916 109.727V117H98.4943V109.727H99.5916ZM102.166 113.761V117H101.104V111.545H102.124V112.433H102.191C102.317 112.144 102.513 111.912 102.781 111.737C103.05 111.562 103.39 111.474 103.8 111.474C104.171 111.474 104.497 111.553 104.776 111.709C105.056 111.863 105.272 112.092 105.426 112.398C105.58 112.703 105.657 113.081 105.657 113.531V117H104.595V113.658C104.595 113.263 104.492 112.954 104.286 112.732C104.08 112.507 103.797 112.394 103.438 112.394C103.191 112.394 102.972 112.447 102.781 112.554C102.591 112.661 102.441 112.817 102.33 113.023C102.221 113.226 102.166 113.473 102.166 113.761ZM111.552 111.545L109.574 117H108.438L106.456 111.545H107.596L108.977 115.743H109.034L110.412 111.545H111.552ZM112.55 117V111.545H113.612V117H112.55ZM113.086 110.704C112.901 110.704 112.743 110.642 112.61 110.519C112.48 110.394 112.415 110.245 112.415 110.072C112.415 109.897 112.48 109.747 112.61 109.624C112.743 109.499 112.901 109.436 113.086 109.436C113.271 109.436 113.428 109.499 113.558 109.624C113.691 109.747 113.757 109.897 113.757 110.072C113.757 110.245 113.691 110.394 113.558 110.519C113.428 110.642 113.271 110.704 113.086 110.704ZM117.586 111.545V112.398H114.607V111.545H117.586ZM115.406 110.239H116.468V115.398C116.468 115.604 116.498 115.759 116.56 115.864C116.621 115.965 116.701 116.035 116.798 116.073C116.897 116.109 117.005 116.126 117.121 116.126C117.206 116.126 117.281 116.121 117.345 116.109C117.409 116.097 117.458 116.087 117.494 116.08L117.686 116.957C117.624 116.981 117.536 117.005 117.423 117.028C117.309 117.054 117.167 117.069 116.997 117.071C116.717 117.076 116.457 117.026 116.215 116.922C115.974 116.818 115.779 116.657 115.629 116.439C115.48 116.221 115.406 115.948 115.406 115.619V110.239ZM121.053 117.11C120.516 117.11 120.053 116.995 119.664 116.766C119.279 116.534 118.98 116.208 118.77 115.789C118.561 115.368 118.457 114.874 118.457 114.308C118.457 113.75 118.561 113.257 118.77 112.831C118.98 112.405 119.274 112.072 119.65 111.833C120.029 111.594 120.472 111.474 120.978 111.474C121.286 111.474 121.584 111.525 121.873 111.627C122.162 111.729 122.421 111.889 122.651 112.107C122.881 112.324 123.062 112.607 123.194 112.955C123.327 113.301 123.393 113.721 123.393 114.216V114.592H119.057V113.797H122.353C122.353 113.518 122.296 113.27 122.182 113.055C122.069 112.837 121.909 112.665 121.703 112.54C121.499 112.414 121.26 112.352 120.985 112.352C120.687 112.352 120.427 112.425 120.204 112.572C119.984 112.716 119.814 112.906 119.693 113.14C119.574 113.372 119.515 113.624 119.515 113.896V114.518C119.515 114.882 119.579 115.192 119.707 115.448C119.837 115.704 120.018 115.899 120.25 116.034C120.482 116.167 120.753 116.233 121.064 116.233C121.265 116.233 121.448 116.205 121.614 116.148C121.78 116.089 121.923 116.001 122.044 115.885C122.164 115.769 122.257 115.626 122.321 115.455L123.326 115.636C123.245 115.932 123.101 116.192 122.892 116.414C122.686 116.634 122.427 116.806 122.115 116.929C121.805 117.05 121.451 117.11 121.053 117.11ZM129.764 111.545V112.398H126.784V111.545H129.764ZM127.583 110.239H128.645V115.398C128.645 115.604 128.676 115.759 128.738 115.864C128.799 115.965 128.878 116.035 128.975 116.073C129.075 116.109 129.183 116.126 129.299 116.126C129.384 116.126 129.458 116.121 129.522 116.109C129.586 116.097 129.636 116.087 129.672 116.08L129.863 116.957C129.802 116.981 129.714 117.005 129.6 117.028C129.487 117.054 129.345 117.069 129.174 117.071C128.895 117.076 128.635 117.026 128.393 116.922C128.152 116.818 127.956 116.657 127.807 116.439C127.658 116.221 127.583 115.948 127.583 115.619V110.239ZM133.177 117.11C132.666 117.11 132.22 116.993 131.839 116.759C131.457 116.524 131.162 116.196 130.951 115.775C130.74 115.353 130.635 114.861 130.635 114.298C130.635 113.732 130.74 113.237 130.951 112.813C131.162 112.389 131.457 112.06 131.839 111.826C132.22 111.592 132.666 111.474 133.177 111.474C133.689 111.474 134.135 111.592 134.516 111.826C134.897 112.06 135.193 112.389 135.404 112.813C135.615 113.237 135.72 113.732 135.72 114.298C135.72 114.861 135.615 115.353 135.404 115.775C135.193 116.196 134.897 116.524 134.516 116.759C134.135 116.993 133.689 117.11 133.177 117.11ZM133.181 116.219C133.512 116.219 133.787 116.131 134.005 115.956C134.223 115.781 134.384 115.548 134.488 115.256C134.594 114.965 134.648 114.644 134.648 114.294C134.648 113.946 134.594 113.626 134.488 113.335C134.384 113.042 134.223 112.806 134.005 112.629C133.787 112.451 133.512 112.362 133.181 112.362C132.847 112.362 132.57 112.451 132.35 112.629C132.132 112.806 131.97 113.042 131.863 113.335C131.759 113.626 131.707 113.946 131.707 114.294C131.707 114.644 131.759 114.965 131.863 115.256C131.97 115.548 132.132 115.781 132.35 115.956C132.57 116.131 132.847 116.219 133.181 116.219ZM139.637 117V109.727H140.734V116.055H144.03V117H139.637ZM146.784 117.121C146.438 117.121 146.125 117.057 145.846 116.929C145.567 116.799 145.345 116.611 145.182 116.364C145.021 116.118 144.941 115.816 144.941 115.459C144.941 115.151 145 114.898 145.118 114.699C145.236 114.5 145.396 114.343 145.597 114.227C145.799 114.111 146.024 114.023 146.272 113.964C146.521 113.905 146.774 113.86 147.032 113.829C147.359 113.791 147.624 113.76 147.828 113.737C148.031 113.71 148.179 113.669 148.271 113.612C148.364 113.555 148.41 113.463 148.41 113.335V113.31C148.41 113 148.322 112.76 148.147 112.589C147.974 112.419 147.716 112.334 147.373 112.334C147.016 112.334 146.734 112.413 146.528 112.572C146.324 112.728 146.183 112.902 146.105 113.094L145.107 112.866C145.226 112.535 145.399 112.268 145.626 112.064C145.856 111.858 146.119 111.709 146.418 111.616C146.716 111.522 147.03 111.474 147.359 111.474C147.577 111.474 147.807 111.5 148.051 111.553C148.298 111.602 148.527 111.695 148.74 111.83C148.956 111.964 149.132 112.157 149.269 112.408C149.407 112.657 149.475 112.98 149.475 113.378V117H148.438V116.254H148.396C148.327 116.392 148.224 116.527 148.087 116.659C147.95 116.792 147.773 116.902 147.558 116.989C147.342 117.077 147.084 117.121 146.784 117.121ZM147.014 116.268C147.308 116.268 147.559 116.21 147.767 116.094C147.978 115.978 148.138 115.827 148.247 115.64C148.358 115.451 148.414 115.248 148.414 115.033V114.33C148.376 114.367 148.302 114.403 148.193 114.436C148.087 114.467 147.965 114.494 147.828 114.518C147.69 114.539 147.557 114.559 147.426 114.578C147.296 114.595 147.187 114.609 147.1 114.621C146.894 114.647 146.705 114.691 146.535 114.752C146.367 114.814 146.232 114.902 146.13 115.018C146.031 115.132 145.981 115.284 145.981 115.473C145.981 115.736 146.078 115.935 146.272 116.07C146.466 116.202 146.714 116.268 147.014 116.268ZM154.345 114.738V111.545H155.41V117H154.366V116.055H154.309C154.184 116.347 153.983 116.589 153.706 116.783C153.431 116.975 153.089 117.071 152.679 117.071C152.329 117.071 152.019 116.994 151.749 116.84C151.481 116.684 151.271 116.453 151.117 116.148C150.965 115.842 150.89 115.465 150.89 115.015V111.545H151.951V114.887C151.951 115.259 152.054 115.555 152.26 115.775C152.466 115.995 152.734 116.105 153.063 116.105C153.262 116.105 153.459 116.055 153.656 115.956C153.855 115.857 154.019 115.706 154.15 115.505C154.282 115.304 154.347 115.048 154.345 114.738ZM157.899 113.761V117H156.837V111.545H157.856V112.433H157.923C158.049 112.144 158.245 111.912 158.513 111.737C158.783 111.562 159.123 111.474 159.532 111.474C159.904 111.474 160.229 111.553 160.509 111.709C160.788 111.863 161.005 112.092 161.159 112.398C161.312 112.703 161.389 113.081 161.389 113.531V117H160.328V113.658C160.328 113.263 160.225 112.954 160.019 112.732C159.813 112.507 159.53 112.394 159.17 112.394C158.924 112.394 158.705 112.447 158.513 112.554C158.324 112.661 158.173 112.817 158.062 113.023C157.953 113.226 157.899 113.473 157.899 113.761ZM165.111 117.11C164.583 117.11 164.128 116.991 163.747 116.751C163.369 116.51 163.077 116.177 162.874 115.754C162.67 115.33 162.568 114.844 162.568 114.298C162.568 113.744 162.673 113.255 162.881 112.831C163.089 112.405 163.383 112.072 163.762 111.833C164.14 111.594 164.587 111.474 165.1 111.474C165.515 111.474 165.884 111.551 166.208 111.705C166.533 111.857 166.794 112.07 166.993 112.344C167.194 112.619 167.314 112.94 167.352 113.307H166.318C166.262 113.051 166.131 112.831 165.928 112.646C165.727 112.462 165.457 112.369 165.118 112.369C164.822 112.369 164.563 112.447 164.34 112.604C164.12 112.758 163.949 112.978 163.825 113.264C163.702 113.548 163.641 113.884 163.641 114.273C163.641 114.67 163.701 115.014 163.822 115.303C163.943 115.591 164.113 115.815 164.333 115.974C164.556 116.132 164.817 116.212 165.118 116.212C165.319 116.212 165.502 116.175 165.665 116.102C165.831 116.026 165.969 115.918 166.08 115.778C166.194 115.639 166.273 115.471 166.318 115.274H167.352C167.314 115.627 167.199 115.942 167.007 116.219C166.816 116.496 166.559 116.714 166.237 116.872C165.917 117.031 165.542 117.11 165.111 117.11ZM169.549 113.761V117H168.487V109.727H169.535V112.433H169.602C169.73 112.14 169.925 111.906 170.188 111.734C170.451 111.561 170.794 111.474 171.218 111.474C171.592 111.474 171.919 111.551 172.198 111.705C172.48 111.859 172.698 112.089 172.852 112.394C173.008 112.697 173.086 113.076 173.086 113.531V117H172.024V113.658C172.024 113.258 171.921 112.948 171.715 112.728C171.509 112.505 171.223 112.394 170.856 112.394C170.605 112.394 170.38 112.447 170.181 112.554C169.985 112.661 169.83 112.817 169.716 113.023C169.605 113.226 169.549 113.473 169.549 113.761ZM25.799 129V121.727H28.3913C28.9571 121.727 29.4259 121.83 29.7976 122.036C30.1693 122.242 30.4474 122.524 30.6321 122.881C30.8168 123.237 30.9091 123.637 30.9091 124.082C30.9091 124.529 30.8156 124.932 30.6286 125.289C30.4439 125.644 30.1645 125.926 29.7905 126.134C29.4188 126.34 28.9512 126.443 28.3878 126.443H26.6051V125.513H28.2884C28.6458 125.513 28.9358 125.451 29.1584 125.328C29.3809 125.203 29.5443 125.032 29.6484 124.817C29.7526 124.601 29.8047 124.356 29.8047 124.082C29.8047 123.807 29.7526 123.563 29.6484 123.35C29.5443 123.137 29.3797 122.97 29.1548 122.849C28.9323 122.729 28.6387 122.668 28.2741 122.668H26.8963V129H25.799ZM33.1721 125.761V129H32.1103V121.727H33.1578V124.433H33.2253C33.3532 124.14 33.5485 123.906 33.8113 123.734C34.074 123.561 34.4173 123.474 34.8411 123.474C35.2151 123.474 35.5418 123.551 35.8212 123.705C36.1029 123.859 36.3207 124.089 36.4746 124.394C36.6309 124.697 36.709 125.076 36.709 125.531V129H35.6472V125.658C35.6472 125.258 35.5442 124.948 35.3382 124.728C35.1323 124.505 34.8458 124.394 34.4789 124.394C34.2279 124.394 34.003 124.447 33.8042 124.554C33.6077 124.661 33.4526 124.817 33.339 125.023C33.2277 125.226 33.1721 125.473 33.1721 125.761ZM39.7132 129.121C39.3676 129.121 39.0551 129.057 38.7757 128.929C38.4964 128.799 38.275 128.611 38.1117 128.364C37.9507 128.118 37.8702 127.816 37.8702 127.459C37.8702 127.151 37.9294 126.898 38.0478 126.699C38.1661 126.5 38.3259 126.343 38.5272 126.227C38.7284 126.111 38.9533 126.023 39.2019 125.964C39.4505 125.905 39.7038 125.86 39.9618 125.829C40.2885 125.791 40.5537 125.76 40.7573 125.737C40.9609 125.71 41.1088 125.669 41.2012 125.612C41.2935 125.555 41.3397 125.463 41.3397 125.335V125.31C41.3397 125 41.2521 124.76 41.0769 124.589C40.9041 124.419 40.646 124.334 40.3027 124.334C39.9453 124.334 39.6635 124.413 39.4576 124.572C39.254 124.728 39.1131 124.902 39.035 125.094L38.0371 124.866C38.1555 124.535 38.3283 124.268 38.5556 124.064C38.7852 123.858 39.0492 123.709 39.3475 123.616C39.6458 123.522 39.9595 123.474 40.2885 123.474C40.5063 123.474 40.7372 123.5 40.981 123.553C41.2272 123.602 41.4569 123.695 41.6699 123.83C41.8854 123.964 42.0617 124.157 42.199 124.408C42.3364 124.657 42.405 124.98 42.405 125.378V129H41.3681V128.254H41.3255C41.2568 128.392 41.1538 128.527 41.0165 128.659C40.8792 128.792 40.7028 128.902 40.4874 128.989C40.272 129.077 40.0139 129.121 39.7132 129.121ZM39.9441 128.268C40.2376 128.268 40.4886 128.21 40.6969 128.094C40.9076 127.978 41.0674 127.827 41.1763 127.64C41.2876 127.451 41.3432 127.248 41.3432 127.033V126.33C41.3053 126.367 41.2319 126.403 41.123 126.436C41.0165 126.467 40.8946 126.494 40.7573 126.518C40.62 126.539 40.4862 126.559 40.356 126.578C40.2258 126.595 40.1169 126.609 40.0293 126.621C39.8233 126.647 39.6351 126.691 39.4647 126.752C39.2966 126.814 39.1616 126.902 39.0598 127.018C38.9604 127.132 38.9107 127.284 38.9107 127.473C38.9107 127.736 39.0078 127.935 39.2019 128.07C39.396 128.202 39.6434 128.268 39.9441 128.268ZM47.9066 124.877L46.9442 125.048C46.904 124.924 46.8401 124.807 46.7525 124.696C46.6673 124.585 46.5513 124.494 46.4045 124.423C46.2577 124.352 46.0742 124.316 45.854 124.316C45.5534 124.316 45.3024 124.384 45.1012 124.518C44.9 124.651 44.7994 124.823 44.7994 125.033C44.7994 125.216 44.8668 125.362 45.0018 125.474C45.1367 125.585 45.3545 125.676 45.6552 125.747L46.5217 125.946C47.0236 126.062 47.3976 126.241 47.6438 126.482C47.89 126.724 48.0131 127.037 48.0131 127.423C48.0131 127.75 47.9184 128.041 47.729 128.297C47.542 128.55 47.2804 128.749 46.9442 128.893C46.6104 129.038 46.2234 129.11 45.783 129.11C45.1722 129.11 44.6739 128.98 44.288 128.719C43.9021 128.457 43.6654 128.084 43.5778 127.601L44.604 127.445C44.668 127.712 44.7994 127.915 44.9982 128.052C45.1971 128.187 45.4563 128.254 45.7759 128.254C46.1239 128.254 46.4021 128.182 46.6104 128.038C46.8188 127.891 46.9229 127.712 46.9229 127.501C46.9229 127.331 46.859 127.188 46.7312 127.072C46.6057 126.956 46.4128 126.868 46.1523 126.809L45.229 126.607C44.7201 126.491 44.3436 126.306 44.0998 126.053C43.8583 125.799 43.7376 125.478 43.7376 125.09C43.7376 124.768 43.8275 124.487 44.0075 124.245C44.1874 124.004 44.436 123.815 44.7532 123.68C45.0704 123.543 45.4338 123.474 45.8434 123.474C46.4329 123.474 46.8969 123.602 47.2354 123.858C47.574 124.111 47.7977 124.451 47.9066 124.877ZM51.5314 129.11C50.994 129.11 50.5312 128.995 50.1429 128.766C49.757 128.534 49.4587 128.208 49.248 127.789C49.0397 127.368 48.9355 126.874 48.9355 126.308C48.9355 125.75 49.0397 125.257 49.248 124.831C49.4587 124.405 49.7523 124.072 50.1287 123.833C50.5075 123.594 50.9502 123.474 51.4569 123.474C51.7646 123.474 52.0629 123.525 52.3517 123.627C52.6406 123.729 52.8998 123.889 53.1294 124.107C53.3591 124.324 53.5402 124.607 53.6728 124.955C53.8053 125.301 53.8716 125.721 53.8716 126.216V126.592H49.5357V125.797H52.8311C52.8311 125.518 52.7743 125.27 52.6607 125.055C52.5471 124.837 52.3873 124.665 52.1813 124.54C51.9777 124.414 51.7386 124.352 51.464 124.352C51.1657 124.352 50.9052 124.425 50.6827 124.572C50.4625 124.716 50.2921 124.906 50.1713 125.14C50.053 125.372 49.9938 125.624 49.9938 125.896V126.518C49.9938 126.882 50.0577 127.192 50.1855 127.448C50.3158 127.704 50.4969 127.899 50.7289 128.034C50.9609 128.167 51.2319 128.233 51.5421 128.233C51.7433 128.233 51.9268 128.205 52.0925 128.148C52.2582 128.089 52.4015 128.001 52.5222 127.885C52.6429 127.769 52.7353 127.626 52.7992 127.455L53.8042 127.636C53.7237 127.932 53.5792 128.192 53.3709 128.414C53.165 128.634 52.9057 128.806 52.5932 128.929C52.2831 129.05 51.9292 129.11 51.5314 129.11Z" fill="#687888"/>
<path d="M122.061 221.636C122.061 222.568 121.891 223.369 121.55 224.04C121.209 224.707 120.742 225.222 120.148 225.582C119.557 225.94 118.885 226.119 118.132 226.119C117.377 226.119 116.702 225.94 116.108 225.582C115.517 225.222 115.051 224.706 114.71 224.036C114.369 223.365 114.199 222.565 114.199 221.636C114.199 220.705 114.369 219.905 114.71 219.237C115.051 218.567 115.517 218.053 116.108 217.695C116.702 217.334 117.377 217.153 118.132 217.153C118.885 217.153 119.557 217.334 120.148 217.695C120.742 218.053 121.209 218.567 121.55 219.237C121.891 219.905 122.061 220.705 122.061 221.636ZM120.757 221.636C120.757 220.926 120.642 220.328 120.412 219.842C120.185 219.354 119.872 218.984 119.475 218.734C119.08 218.482 118.632 218.355 118.132 218.355C117.629 218.355 117.181 218.482 116.786 218.734C116.391 218.984 116.078 219.354 115.848 219.842C115.621 220.328 115.507 220.926 115.507 221.636C115.507 222.347 115.621 222.946 115.848 223.435C116.078 223.92 116.391 224.29 116.786 224.543C117.181 224.793 117.629 224.918 118.132 224.918C118.632 224.918 119.08 224.793 119.475 224.543C119.872 224.29 120.185 223.92 120.412 223.435C120.642 222.946 120.757 222.347 120.757 221.636ZM123.703 226V217.273H126.814C127.49 217.273 128.051 217.389 128.497 217.622C128.946 217.855 129.281 218.178 129.503 218.589C129.724 218.999 129.835 219.472 129.835 220.009C129.835 220.543 129.723 221.013 129.498 221.419C129.277 221.822 128.942 222.136 128.493 222.361C128.047 222.585 127.486 222.697 126.809 222.697H124.453V221.564H126.69C127.116 221.564 127.463 221.503 127.73 221.381C128 221.259 128.197 221.081 128.322 220.848C128.447 220.615 128.51 220.335 128.51 220.009C128.51 219.679 128.446 219.393 128.318 219.152C128.193 218.911 127.996 218.726 127.726 218.598C127.459 218.467 127.108 218.402 126.673 218.402H125.02V226H123.703ZM128.011 222.062L130.167 226H128.667L126.554 222.062H128.011ZM61.8391 247.273H63.1516V253.46C63.1516 254.02 63.0408 254.499 62.8192 254.896C62.6005 255.294 62.2923 255.598 61.8945 255.808C61.4968 256.016 61.0309 256.119 60.4968 256.119C60.0053 256.119 59.5636 256.03 59.1715 255.851C58.7823 255.672 58.4741 255.412 58.2468 255.071C58.0224 254.727 57.9102 254.31 57.9102 253.818H59.2184C59.2184 254.06 59.2738 254.268 59.3846 254.445C59.4982 254.621 59.6531 254.759 59.8491 254.858C60.0479 254.955 60.2752 255.003 60.5309 255.003C60.8093 255.003 61.0451 254.945 61.2383 254.828C61.4343 254.709 61.5835 254.534 61.6857 254.304C61.788 254.074 61.8391 253.793 61.8391 253.46V247.273ZM69.1122 253.286V249.455H70.3906V256H69.1378V254.866H69.0696C68.919 255.216 68.6776 255.507 68.3452 255.74C68.0156 255.97 67.6051 256.085 67.1136 256.085C66.6932 256.085 66.321 255.993 65.9972 255.808C65.6761 255.621 65.4233 255.344 65.2386 254.977C65.0568 254.611 64.9659 254.158 64.9659 253.618V249.455H66.2401V253.464C66.2401 253.911 66.3636 254.266 66.6108 254.53C66.858 254.794 67.179 254.926 67.5739 254.926C67.8125 254.926 68.0497 254.866 68.2855 254.747C68.5241 254.628 68.7216 254.447 68.8778 254.206C69.0369 253.964 69.1151 253.658 69.1122 253.286ZM77.0075 251.053L75.8526 251.257C75.8043 251.109 75.7276 250.969 75.6225 250.835C75.5202 250.702 75.381 250.592 75.2049 250.507C75.0288 250.422 74.8086 250.379 74.5444 250.379C74.1836 250.379 73.8825 250.46 73.641 250.622C73.3995 250.781 73.2788 250.987 73.2788 251.24C73.2788 251.459 73.3597 251.635 73.5217 251.768C73.6836 251.902 73.945 252.011 74.3058 252.097L75.3455 252.335C75.9478 252.474 76.3967 252.689 76.6921 252.979C76.9876 253.268 77.1353 253.645 77.1353 254.108C77.1353 254.5 77.0217 254.849 76.7944 255.156C76.57 255.46 76.256 255.699 75.8526 255.872C75.4521 256.045 74.9876 256.132 74.4592 256.132C73.7262 256.132 73.1282 255.976 72.6651 255.663C72.2021 255.348 71.918 254.901 71.8129 254.321L73.0444 254.134C73.1211 254.455 73.2788 254.697 73.5174 254.862C73.756 255.024 74.0671 255.105 74.4506 255.105C74.8683 255.105 75.2021 255.018 75.4521 254.845C75.7021 254.669 75.8271 254.455 75.8271 254.202C75.8271 253.997 75.7504 253.825 75.5969 253.686C75.4464 253.547 75.2148 253.442 74.9023 253.371L73.7944 253.128C73.1836 252.989 72.7319 252.767 72.4393 252.463C72.1495 252.159 72.0046 251.774 72.0046 251.308C72.0046 250.922 72.1126 250.584 72.3285 250.294C72.5444 250.004 72.8427 249.778 73.2234 249.616C73.604 249.452 74.0401 249.369 74.5316 249.369C75.239 249.369 75.7958 249.523 76.2021 249.83C76.6083 250.134 76.8768 250.541 77.0075 251.053ZM81.5916 249.455V250.477H78.0163V249.455H81.5916ZM78.9751 247.886H80.2493V254.078C80.2493 254.325 80.2862 254.511 80.3601 254.636C80.4339 254.759 80.5291 254.842 80.6456 254.888C80.7649 254.93 80.8942 254.952 81.0334 254.952C81.1357 254.952 81.2251 254.945 81.3018 254.93C81.3786 254.916 81.4382 254.905 81.4808 254.896L81.7109 255.949C81.6371 255.977 81.532 256.006 81.3956 256.034C81.2592 256.065 81.0888 256.082 80.8842 256.085C80.549 256.091 80.2365 256.031 79.9467 255.906C79.657 255.781 79.4226 255.588 79.2436 255.327C79.0646 255.065 78.9751 254.737 78.9751 254.342V247.886ZM91.0817 251.053L89.9268 251.257C89.8786 251.109 89.8018 250.969 89.6967 250.835C89.5945 250.702 89.4553 250.592 89.2791 250.507C89.103 250.422 88.8828 250.379 88.6186 250.379C88.2578 250.379 87.9567 250.46 87.7152 250.622C87.4737 250.781 87.353 250.987 87.353 251.24C87.353 251.459 87.4339 251.635 87.5959 251.768C87.7578 251.902 88.0192 252.011 88.38 252.097L89.4197 252.335C90.022 252.474 90.4709 252.689 90.7663 252.979C91.0618 253.268 91.2095 253.645 91.2095 254.108C91.2095 254.5 91.0959 254.849 90.8686 255.156C90.6442 255.46 90.3303 255.699 89.9268 255.872C89.5263 256.045 89.0618 256.132 88.5334 256.132C87.8004 256.132 87.2024 255.976 86.7393 255.663C86.2763 255.348 85.9922 254.901 85.8871 254.321L87.1186 254.134C87.1953 254.455 87.353 254.697 87.5916 254.862C87.8303 255.024 88.1413 255.105 88.5249 255.105C88.9425 255.105 89.2763 255.018 89.5263 254.845C89.7763 254.669 89.9013 254.455 89.9013 254.202C89.9013 253.997 89.8246 253.825 89.6712 253.686C89.5206 253.547 89.2891 253.442 88.9766 253.371L87.8686 253.128C87.2578 252.989 86.8061 252.767 86.5135 252.463C86.2237 252.159 86.0788 251.774 86.0788 251.308C86.0788 250.922 86.1868 250.584 86.4027 250.294C86.6186 250.004 86.9169 249.778 87.2976 249.616C87.6783 249.452 88.1143 249.369 88.6058 249.369C89.3132 249.369 89.87 249.523 90.2763 249.83C90.6825 250.134 90.951 250.541 91.0817 251.053ZM95.3675 256.132C94.734 256.132 94.1886 255.989 93.7312 255.702C93.2766 255.412 92.9272 255.013 92.6829 254.504C92.4386 253.996 92.3164 253.413 92.3164 252.757C92.3164 252.092 92.4414 251.506 92.6914 250.997C92.9414 250.486 93.2937 250.087 93.7482 249.8C94.2028 249.513 94.7383 249.369 95.3548 249.369C95.8519 249.369 96.2951 249.462 96.6843 249.646C97.0735 249.828 97.3874 250.084 97.6261 250.413C97.8675 250.743 98.011 251.128 98.0565 251.568H96.8164C96.7482 251.261 96.592 250.997 96.3477 250.776C96.1062 250.554 95.7823 250.443 95.3761 250.443C95.021 250.443 94.7099 250.537 94.4428 250.724C94.1786 250.909 93.9727 251.173 93.8249 251.517C93.6772 251.858 93.6033 252.261 93.6033 252.727C93.6033 253.205 93.6758 253.616 93.8207 253.963C93.9656 254.31 94.1701 254.578 94.4343 254.768C94.7013 254.959 95.0153 255.054 95.3761 255.054C95.6175 255.054 95.8363 255.01 96.0323 254.922C96.2312 254.831 96.3974 254.702 96.5309 254.534C96.6673 254.366 96.7624 254.165 96.8164 253.929H98.0565C98.011 254.352 97.8732 254.73 97.6431 255.062C97.413 255.395 97.1048 255.656 96.7184 255.847C96.3349 256.037 95.8846 256.132 95.3675 256.132ZM101.324 256.145C100.909 256.145 100.534 256.068 100.199 255.915C99.8636 255.759 99.598 255.533 99.402 255.237C99.2088 254.942 99.1122 254.58 99.1122 254.151C99.1122 253.781 99.1832 253.477 99.3253 253.239C99.4673 253 99.6591 252.811 99.9006 252.672C100.142 252.533 100.412 252.428 100.71 252.357C101.009 252.286 101.313 252.232 101.622 252.195C102.014 252.149 102.332 252.112 102.577 252.084C102.821 252.053 102.999 252.003 103.109 251.935C103.22 251.866 103.276 251.756 103.276 251.602V251.572C103.276 251.2 103.17 250.912 102.96 250.707C102.753 250.503 102.443 250.401 102.031 250.401C101.602 250.401 101.264 250.496 101.017 250.686C100.773 250.874 100.604 251.082 100.51 251.312L99.3125 251.04C99.4545 250.642 99.6619 250.321 99.9347 250.077C100.21 249.83 100.527 249.651 100.885 249.54C101.243 249.426 101.619 249.369 102.014 249.369C102.276 249.369 102.553 249.401 102.845 249.463C103.141 249.523 103.416 249.634 103.672 249.795C103.93 249.957 104.142 250.189 104.307 250.49C104.472 250.788 104.554 251.176 104.554 251.653V256H103.31V255.105H103.259C103.176 255.27 103.053 255.432 102.888 255.591C102.723 255.75 102.511 255.882 102.253 255.987C101.994 256.092 101.685 256.145 101.324 256.145ZM101.601 255.122C101.953 255.122 102.254 255.053 102.504 254.913C102.757 254.774 102.949 254.592 103.08 254.368C103.213 254.141 103.28 253.898 103.28 253.639V252.795C103.234 252.841 103.146 252.884 103.016 252.923C102.888 252.96 102.741 252.993 102.577 253.021C102.412 253.047 102.251 253.071 102.095 253.094C101.939 253.114 101.808 253.131 101.703 253.145C101.456 253.176 101.23 253.229 101.026 253.303C100.824 253.376 100.662 253.483 100.54 253.622C100.42 253.759 100.361 253.94 100.361 254.168C100.361 254.483 100.477 254.722 100.71 254.884C100.943 255.043 101.24 255.122 101.601 255.122ZM107.525 252.114V256H106.251V249.455H107.474V250.52H107.555C107.706 250.173 107.941 249.895 108.262 249.685C108.586 249.474 108.994 249.369 109.485 249.369C109.931 249.369 110.322 249.463 110.657 249.651C110.993 249.835 111.252 250.111 111.437 250.477C111.622 250.844 111.714 251.297 111.714 251.837V256H110.44V251.99C110.44 251.516 110.316 251.145 110.069 250.878C109.822 250.608 109.483 250.473 109.051 250.473C108.755 250.473 108.493 250.537 108.262 250.665C108.035 250.793 107.855 250.98 107.721 251.227C107.591 251.472 107.525 251.767 107.525 252.114ZM119.654 249.455V250.477H116.079V249.455H119.654ZM117.038 247.886H118.312V254.078C118.312 254.325 118.349 254.511 118.423 254.636C118.496 254.759 118.592 254.842 118.708 254.888C118.827 254.93 118.957 254.952 119.096 254.952C119.198 254.952 119.288 254.945 119.364 254.93C119.441 254.916 119.501 254.905 119.543 254.896L119.773 255.949C119.7 255.977 119.594 256.006 119.458 256.034C119.322 256.065 119.151 256.082 118.947 256.085C118.612 256.091 118.299 256.031 118.009 255.906C117.719 255.781 117.485 255.588 117.306 255.327C117.127 255.065 117.038 254.737 117.038 254.342V247.886ZM122.478 252.114V256H121.204V247.273H122.461V250.52H122.542C122.696 250.168 122.93 249.888 123.245 249.68C123.561 249.473 123.973 249.369 124.481 249.369C124.93 249.369 125.322 249.462 125.657 249.646C125.995 249.831 126.257 250.107 126.441 250.473C126.629 250.837 126.723 251.291 126.723 251.837V256H125.449V251.99C125.449 251.51 125.325 251.138 125.078 250.874C124.831 250.607 124.487 250.473 124.047 250.473C123.745 250.473 123.475 250.537 123.237 250.665C123.001 250.793 122.815 250.98 122.679 251.227C122.545 251.472 122.478 251.767 122.478 252.114ZM131.244 256.132C130.599 256.132 130.044 255.994 129.578 255.719C129.115 255.44 128.757 255.05 128.504 254.547C128.254 254.041 128.129 253.449 128.129 252.77C128.129 252.099 128.254 251.509 128.504 250.997C128.757 250.486 129.109 250.087 129.561 249.8C130.015 249.513 130.547 249.369 131.154 249.369C131.524 249.369 131.882 249.43 132.228 249.553C132.575 249.675 132.886 249.866 133.162 250.128C133.437 250.389 133.654 250.729 133.814 251.146C133.973 251.561 134.052 252.065 134.052 252.659V253.111H128.849V252.156H132.804C132.804 251.821 132.735 251.524 132.599 251.266C132.463 251.004 132.271 250.798 132.024 250.648C131.779 250.497 131.493 250.422 131.163 250.422C130.805 250.422 130.493 250.51 130.225 250.686C129.961 250.859 129.757 251.087 129.612 251.368C129.47 251.646 129.399 251.949 129.399 252.276V253.021C129.399 253.459 129.475 253.831 129.629 254.138C129.785 254.445 130.002 254.679 130.281 254.841C130.559 255 130.885 255.08 131.257 255.08C131.498 255.08 131.718 255.045 131.917 254.977C132.116 254.906 132.288 254.801 132.433 254.662C132.578 254.523 132.689 254.351 132.765 254.146L133.971 254.364C133.875 254.719 133.701 255.03 133.451 255.297C133.204 255.561 132.893 255.767 132.518 255.915C132.146 256.06 131.721 256.132 131.244 256.132ZM141.953 253.17H143.248L144.16 254.359L144.591 254.888L146.044 256.784H144.697L143.725 255.518L143.393 255.058L141.953 253.17ZM146.325 251.636C146.325 252.568 146.154 253.369 145.814 254.04C145.473 254.707 145.005 255.222 144.412 255.582C143.821 255.94 143.149 256.119 142.396 256.119C141.64 256.119 140.966 255.94 140.372 255.582C139.781 255.222 139.315 254.706 138.974 254.036C138.633 253.365 138.463 252.565 138.463 251.636C138.463 250.705 138.633 249.905 138.974 249.237C139.315 248.567 139.781 248.053 140.372 247.695C140.966 247.334 141.64 247.153 142.396 247.153C143.149 247.153 143.821 247.334 144.412 247.695C145.005 248.053 145.473 248.567 145.814 249.237C146.154 249.905 146.325 250.705 146.325 251.636ZM145.021 251.636C145.021 250.926 144.906 250.328 144.676 249.842C144.449 249.354 144.136 248.984 143.738 248.734C143.343 248.482 142.896 248.355 142.396 248.355C141.893 248.355 141.444 248.482 141.049 248.734C140.654 248.984 140.342 249.354 140.112 249.842C139.885 250.328 139.771 250.926 139.771 251.636C139.771 252.347 139.885 252.946 140.112 253.435C140.342 253.92 140.654 254.29 141.049 254.543C141.444 254.793 141.893 254.918 142.396 254.918C142.896 254.918 143.343 254.793 143.738 254.543C144.136 254.29 144.449 253.92 144.676 253.435C144.906 252.946 145.021 252.347 145.021 251.636ZM147.967 256V247.273H151.077C151.754 247.273 152.315 247.389 152.761 247.622C153.21 247.855 153.545 248.178 153.766 248.589C153.988 248.999 154.099 249.472 154.099 250.009C154.099 250.543 153.987 251.013 153.762 251.419C153.54 251.822 153.205 252.136 152.756 252.361C152.31 252.585 151.749 252.697 151.073 252.697H148.717V251.564H150.954C151.38 251.564 151.727 251.503 151.994 251.381C152.263 251.259 152.461 251.081 152.586 250.848C152.711 250.615 152.773 250.335 152.773 250.009C152.773 249.679 152.71 249.393 152.582 249.152C152.457 248.911 152.259 248.726 151.989 248.598C151.722 248.467 151.371 248.402 150.937 248.402H149.283V256H147.967ZM152.275 252.062L154.431 256H152.931L150.817 252.062H152.275ZM161.532 256.132C160.898 256.132 160.353 255.989 159.895 255.702C159.441 255.412 159.091 255.013 158.847 254.504C158.603 253.996 158.48 253.413 158.48 252.757C158.48 252.092 158.605 251.506 158.855 250.997C159.105 250.486 159.458 250.087 159.912 249.8C160.367 249.513 160.902 249.369 161.519 249.369C162.016 249.369 162.459 249.462 162.848 249.646C163.238 249.828 163.551 250.084 163.79 250.413C164.032 250.743 164.175 251.128 164.221 251.568H162.98C162.912 251.261 162.756 250.997 162.512 250.776C162.27 250.554 161.946 250.443 161.54 250.443C161.185 250.443 160.874 250.537 160.607 250.724C160.343 250.909 160.137 251.173 159.989 251.517C159.841 251.858 159.767 252.261 159.767 252.727C159.767 253.205 159.84 253.616 159.985 253.963C160.13 254.31 160.334 254.578 160.598 254.768C160.865 254.959 161.179 255.054 161.54 255.054C161.782 255.054 162 255.01 162.196 254.922C162.395 254.831 162.561 254.702 162.695 254.534C162.831 254.366 162.926 254.165 162.98 253.929H164.221C164.175 254.352 164.037 254.73 163.807 255.062C163.577 255.395 163.269 255.656 162.882 255.847C162.499 256.037 162.049 256.132 161.532 256.132ZM168.34 256.132C167.727 256.132 167.191 255.991 166.734 255.71C166.276 255.429 165.921 255.036 165.668 254.53C165.415 254.024 165.289 253.433 165.289 252.757C165.289 252.078 165.415 251.484 165.668 250.976C165.921 250.467 166.276 250.072 166.734 249.791C167.191 249.51 167.727 249.369 168.34 249.369C168.954 249.369 169.489 249.51 169.947 249.791C170.404 250.072 170.759 250.467 171.012 250.976C171.265 251.484 171.391 252.078 171.391 252.757C171.391 253.433 171.265 254.024 171.012 254.53C170.759 255.036 170.404 255.429 169.947 255.71C169.489 255.991 168.954 256.132 168.34 256.132ZM168.344 255.062C168.742 255.062 169.072 254.957 169.333 254.747C169.594 254.537 169.788 254.257 169.913 253.908C170.04 253.558 170.104 253.173 170.104 252.753C170.104 252.335 170.04 251.952 169.913 251.602C169.788 251.25 169.594 250.967 169.333 250.754C169.072 250.541 168.742 250.435 168.344 250.435C167.944 250.435 167.612 250.541 167.347 250.754C167.086 250.967 166.891 251.25 166.763 251.602C166.638 251.952 166.576 252.335 166.576 252.753C166.576 253.173 166.638 253.558 166.763 253.908C166.891 254.257 167.086 254.537 167.347 254.747C167.612 254.957 167.944 255.062 168.344 255.062ZM175.264 256.128C174.735 256.128 174.264 255.993 173.849 255.723C173.437 255.45 173.113 255.062 172.877 254.56C172.645 254.054 172.528 253.447 172.528 252.74C172.528 252.033 172.646 251.428 172.882 250.925C173.12 250.422 173.447 250.037 173.862 249.77C174.277 249.503 174.747 249.369 175.272 249.369C175.679 249.369 176.005 249.438 176.252 249.574C176.502 249.707 176.696 249.864 176.832 250.043C176.971 250.222 177.079 250.379 177.156 250.516H177.233V247.273H178.507V256H177.262V254.982H177.156C177.079 255.121 176.968 255.28 176.824 255.459C176.681 255.638 176.485 255.794 176.235 255.928C175.985 256.061 175.662 256.128 175.264 256.128ZM175.545 255.041C175.912 255.041 176.221 254.945 176.474 254.751C176.73 254.555 176.923 254.284 177.054 253.938C177.187 253.591 177.254 253.187 177.254 252.727C177.254 252.273 177.189 251.875 177.058 251.534C176.927 251.193 176.735 250.928 176.483 250.737C176.23 250.547 175.917 250.452 175.545 250.452C175.162 250.452 174.842 250.551 174.586 250.75C174.331 250.949 174.137 251.22 174.007 251.564C173.879 251.908 173.815 252.295 173.815 252.727C173.815 253.165 173.88 253.558 174.011 253.908C174.142 254.257 174.335 254.534 174.591 254.739C174.849 254.94 175.167 255.041 175.545 255.041ZM183.146 256.132C182.501 256.132 181.946 255.994 181.48 255.719C181.017 255.44 180.659 255.05 180.406 254.547C180.156 254.041 180.031 253.449 180.031 252.77C180.031 252.099 180.156 251.509 180.406 250.997C180.659 250.486 181.011 250.087 181.463 249.8C181.918 249.513 182.449 249.369 183.057 249.369C183.426 249.369 183.784 249.43 184.131 249.553C184.477 249.675 184.788 249.866 185.064 250.128C185.339 250.389 185.557 250.729 185.716 251.146C185.875 251.561 185.955 252.065 185.955 252.659V253.111H180.751V252.156H184.706C184.706 251.821 184.638 251.524 184.501 251.266C184.365 251.004 184.173 250.798 183.926 250.648C183.682 250.497 183.395 250.422 183.065 250.422C182.707 250.422 182.395 250.51 182.128 250.686C181.864 250.859 181.659 251.087 181.514 251.368C181.372 251.646 181.301 251.949 181.301 252.276V253.021C181.301 253.459 181.378 253.831 181.531 254.138C181.688 254.445 181.905 254.679 182.183 254.841C182.462 255 182.787 255.08 183.159 255.08C183.401 255.08 183.621 255.045 183.82 254.977C184.018 254.906 184.19 254.801 184.335 254.662C184.48 254.523 184.591 254.351 184.668 254.146L185.874 254.364C185.777 254.719 185.604 255.03 185.354 255.297C185.107 255.561 184.795 255.767 184.42 255.915C184.048 256.06 183.624 256.132 183.146 256.132Z" fill="#687888"/>
<path d="M25.799 155V147.727H26.8963V150.888H30.522V147.727H31.6229V155H30.522V151.829H26.8963V155H25.799ZM35.4332 155.11C34.9219 155.11 34.4756 154.993 34.0945 154.759C33.7133 154.524 33.4174 154.196 33.2067 153.775C32.996 153.353 32.8906 152.861 32.8906 152.298C32.8906 151.732 32.996 151.237 33.2067 150.813C33.4174 150.389 33.7133 150.06 34.0945 149.826C34.4756 149.592 34.9219 149.474 35.4332 149.474C35.9446 149.474 36.3909 149.592 36.772 149.826C37.1532 150.06 37.4491 150.389 37.6598 150.813C37.8705 151.237 37.9759 151.732 37.9759 152.298C37.9759 152.861 37.8705 153.353 37.6598 153.775C37.4491 154.196 37.1532 154.524 36.772 154.759C36.3909 154.993 35.9446 155.11 35.4332 155.11ZM35.4368 154.219C35.7682 154.219 36.0429 154.131 36.2607 153.956C36.4785 153.781 36.6394 153.548 36.7436 153.256C36.8501 152.965 36.9034 152.644 36.9034 152.294C36.9034 151.946 36.8501 151.626 36.7436 151.335C36.6394 151.042 36.4785 150.806 36.2607 150.629C36.0429 150.451 35.7682 150.362 35.4368 150.362C35.103 150.362 34.826 150.451 34.6058 150.629C34.388 150.806 34.2259 151.042 34.1193 151.335C34.0152 151.626 33.9631 151.946 33.9631 152.294C33.9631 152.644 34.0152 152.965 34.1193 153.256C34.2259 153.548 34.388 153.781 34.6058 153.956C34.826 154.131 35.103 154.219 35.4368 154.219ZM43.2484 150.877L42.286 151.048C42.2458 150.924 42.1819 150.807 42.0943 150.696C42.0091 150.585 41.8931 150.494 41.7463 150.423C41.5995 150.352 41.416 150.316 41.1958 150.316C40.8952 150.316 40.6442 150.384 40.443 150.518C40.2418 150.651 40.1412 150.823 40.1412 151.033C40.1412 151.216 40.2086 151.362 40.3436 151.474C40.4785 151.585 40.6963 151.676 40.997 151.747L41.8635 151.946C42.3654 152.062 42.7394 152.241 42.9856 152.482C43.2318 152.724 43.3549 153.037 43.3549 153.423C43.3549 153.75 43.2602 154.041 43.0708 154.297C42.8838 154.55 42.6222 154.749 42.286 154.893C41.9522 155.038 41.5652 155.11 41.1248 155.11C40.514 155.11 40.0157 154.98 39.6298 154.719C39.2439 154.457 39.0072 154.084 38.9196 153.601L39.9458 153.445C40.0098 153.712 40.1412 153.915 40.34 154.052C40.5389 154.187 40.7981 154.254 41.1177 154.254C41.4657 154.254 41.7439 154.182 41.9522 154.038C42.1606 153.891 42.2647 153.712 42.2647 153.501C42.2647 153.331 42.2008 153.188 42.073 153.072C41.9475 152.956 41.7546 152.868 41.4941 152.809L40.5708 152.607C40.0618 152.491 39.6854 152.306 39.4416 152.053C39.2001 151.799 39.0794 151.478 39.0794 151.09C39.0794 150.768 39.1693 150.487 39.3493 150.245C39.5292 150.004 39.7778 149.815 40.095 149.68C40.4122 149.543 40.7756 149.474 41.1852 149.474C41.7747 149.474 42.2387 149.602 42.5772 149.858C42.9158 150.111 43.1395 150.451 43.2484 150.877ZM47.0685 149.545V150.398H44.0891V149.545H47.0685ZM44.8881 148.239H45.9499V153.398C45.9499 153.604 45.9807 153.759 46.0423 153.864C46.1038 153.965 46.1831 154.035 46.2802 154.073C46.3796 154.109 46.4873 154.126 46.6033 154.126C46.6886 154.126 46.7631 154.121 46.8271 154.109C46.891 154.097 46.9407 154.087 46.9762 154.08L47.168 154.957C47.1064 154.981 47.0188 155.005 46.9052 155.028C46.7915 155.054 46.6495 155.069 46.479 155.071C46.1997 155.076 45.9393 155.026 45.6978 154.922C45.4563 154.818 45.261 154.657 45.1119 154.439C44.9627 154.221 44.8881 153.948 44.8881 153.619V148.239ZM61.3255 155H58.7473V147.727H61.3468C62.0783 147.727 62.708 147.873 63.236 148.164C63.7639 148.453 64.1699 148.868 64.454 149.411C64.7405 149.953 64.8837 150.601 64.8837 151.357C64.8837 152.114 64.7405 152.765 64.454 153.31C64.1699 153.854 63.7615 154.272 63.2289 154.563C62.6986 154.854 62.0641 155 61.3255 155ZM60.285 153.683H61.2615C61.7161 153.683 62.0984 153.602 62.4086 153.441C62.7211 153.278 62.9554 153.026 63.1117 152.685C63.2703 152.341 63.3496 151.899 63.3496 151.357C63.3496 150.819 63.2703 150.38 63.1117 150.039C62.9554 149.698 62.7222 149.447 62.4121 149.286C62.102 149.125 61.7196 149.045 61.2651 149.045H60.285V153.683ZM65.9943 155V149.545H67.5071V155H65.9943ZM66.7543 148.842C66.5294 148.842 66.3364 148.768 66.1754 148.619C66.0168 148.467 65.9375 148.286 65.9375 148.075C65.9375 147.867 66.0168 147.688 66.1754 147.539C66.3364 147.388 66.5294 147.312 66.7543 147.312C66.9792 147.312 67.1709 147.388 67.3295 147.539C67.4905 147.688 67.571 147.867 67.571 148.075C67.571 148.286 67.4905 148.467 67.3295 148.619C67.1709 148.768 66.9792 148.842 66.7543 148.842ZM70.0897 153.43L70.0932 151.616H70.3134L72.0605 149.545H73.7971L71.4498 152.287H71.0911L70.0897 153.43ZM68.7189 155V147.727H70.2317V155H68.7189ZM72.128 155L70.5229 152.624L71.5314 151.555L73.9 155H72.128ZM79.0776 151.101L77.6926 151.186C77.669 151.068 77.6181 150.961 77.54 150.866C77.4618 150.769 77.3588 150.692 77.231 150.636C77.1055 150.576 76.9552 150.547 76.78 150.547C76.5456 150.547 76.348 150.597 76.187 150.696C76.026 150.793 75.9455 150.923 75.9455 151.087C75.9455 151.217 75.9976 151.327 76.1017 151.417C76.2059 151.507 76.3846 151.579 76.638 151.634L77.6252 151.832C78.1555 151.941 78.5508 152.116 78.8113 152.358C79.0717 152.599 79.2019 152.917 79.2019 153.31C79.2019 153.667 79.0965 153.981 78.8858 154.251C78.6775 154.521 78.391 154.731 78.0265 154.883C77.6642 155.032 77.2464 155.107 76.7729 155.107C76.0508 155.107 75.4756 154.956 75.0471 154.656C74.6209 154.353 74.3712 153.941 74.2978 153.42L75.7857 153.342C75.8307 153.562 75.9396 153.73 76.1124 153.846C76.2852 153.96 76.5066 154.016 76.7765 154.016C77.0416 154.016 77.2547 153.965 77.4157 153.864C77.579 153.759 77.6619 153.626 77.6642 153.462C77.6619 153.325 77.6039 153.213 77.4902 153.125C77.3766 153.035 77.2014 152.966 76.9647 152.919L76.0201 152.731C75.4874 152.624 75.0908 152.44 74.8304 152.177C74.5724 151.914 74.4434 151.579 74.4434 151.172C74.4434 150.821 74.5381 150.52 74.7275 150.266C74.9192 150.013 75.1879 149.818 75.5336 149.68C75.8816 149.543 76.2888 149.474 76.7551 149.474C77.4441 149.474 77.9862 149.62 78.3816 149.911C78.7793 150.202 79.0113 150.599 79.0776 151.101ZM81.6673 151.847V155H80.1545V147.727H81.6246V150.508H81.6886C81.8117 150.186 82.0105 149.934 82.2852 149.751C82.5598 149.567 82.9042 149.474 83.3185 149.474C83.6973 149.474 84.0276 149.557 84.3093 149.723C84.5934 149.886 84.8136 150.122 84.9698 150.43C85.1284 150.735 85.2066 151.101 85.2042 151.527V155H83.6914V151.797C83.6938 151.461 83.6085 151.199 83.4357 151.012C83.2653 150.825 83.0262 150.732 82.7184 150.732C82.5124 150.732 82.3301 150.775 82.1715 150.863C82.0153 150.951 81.8922 151.078 81.8022 151.246C81.7146 151.412 81.6696 151.612 81.6673 151.847ZM87.9501 155.103C87.6021 155.103 87.292 155.043 87.0197 154.922C86.7475 154.799 86.532 154.618 86.3734 154.379C86.2172 154.137 86.139 153.836 86.139 153.477C86.139 153.174 86.1947 152.919 86.3059 152.713C86.4172 152.507 86.5687 152.341 86.7605 152.216C86.9522 152.09 87.17 151.996 87.4139 151.932C87.6601 151.868 87.9181 151.823 88.188 151.797C88.5053 151.764 88.7609 151.733 88.9551 151.705C89.1492 151.674 89.2901 151.629 89.3777 151.57C89.4653 151.51 89.5091 151.423 89.5091 151.307V151.286C89.5091 151.061 89.438 150.887 89.296 150.763C89.1563 150.64 88.9574 150.579 88.6994 150.579C88.4271 150.579 88.2105 150.639 88.0495 150.76C87.8886 150.878 87.782 151.027 87.7299 151.207L86.3308 151.094C86.4018 150.762 86.5415 150.476 86.7498 150.234C86.9582 149.991 87.2269 149.804 87.5559 149.673C87.8874 149.541 88.2709 149.474 88.7065 149.474C89.0095 149.474 89.2995 149.51 89.5765 149.581C89.8559 149.652 90.1033 149.762 90.3187 149.911C90.5365 150.06 90.7082 150.252 90.8336 150.487C90.9591 150.719 91.0218 150.997 91.0218 151.321V155H89.5872V154.244H89.5446C89.457 154.414 89.3398 154.564 89.193 154.695C89.0462 154.822 88.8699 154.923 88.6639 154.996C88.4579 155.067 88.22 155.103 87.9501 155.103ZM88.3833 154.059C88.6059 154.059 88.8024 154.015 88.9728 153.928C89.1433 153.838 89.277 153.717 89.3741 153.565C89.4712 153.414 89.5197 153.242 89.5197 153.05V152.472C89.4724 152.502 89.4073 152.531 89.3244 152.557C89.2439 152.58 89.1528 152.603 89.051 152.624C88.9492 152.643 88.8474 152.661 88.7456 152.678C88.6438 152.692 88.5514 152.705 88.4686 152.717C88.291 152.743 88.1359 152.784 88.0034 152.841C87.8708 152.898 87.7678 152.975 87.6944 153.072C87.621 153.166 87.5843 153.285 87.5843 153.427C87.5843 153.633 87.6589 153.79 87.8081 153.899C87.9596 154.006 88.1513 154.059 88.3833 154.059ZM94.5384 147.727H96.4347L98.4375 152.614H98.5227L100.526 147.727H102.422V155H100.93V150.266H100.87L98.9879 154.964H97.9723L96.0902 150.249H96.0298V155H94.5384V147.727ZM107.158 152.678V149.545H108.671V155H107.219V154.009H107.162C107.039 154.329 106.834 154.586 106.547 154.78C106.263 154.974 105.916 155.071 105.507 155.071C105.142 155.071 104.822 154.988 104.545 154.822C104.268 154.657 104.051 154.421 103.895 154.116C103.741 153.81 103.663 153.445 103.66 153.018V149.545H105.173V152.749C105.175 153.071 105.262 153.325 105.432 153.512C105.603 153.699 105.831 153.793 106.118 153.793C106.3 153.793 106.47 153.751 106.629 153.668C106.788 153.583 106.916 153.458 107.013 153.292C107.112 153.126 107.161 152.921 107.158 152.678ZM111.394 151.847V155H109.881V149.545H111.323V150.508H111.387C111.507 150.191 111.71 149.94 111.994 149.755C112.278 149.568 112.623 149.474 113.027 149.474C113.406 149.474 113.736 149.557 114.018 149.723C114.3 149.889 114.519 150.125 114.675 150.433C114.831 150.739 114.909 151.103 114.909 151.527V155H113.397V151.797C113.399 151.463 113.314 151.203 113.141 151.016C112.968 150.826 112.73 150.732 112.427 150.732C112.224 150.732 112.044 150.775 111.887 150.863C111.734 150.951 111.613 151.078 111.525 151.246C111.44 151.412 111.396 151.612 111.394 151.847ZM116.102 155V149.545H117.615V155H116.102ZM116.862 148.842C116.637 148.842 116.444 148.768 116.283 148.619C116.124 148.467 116.045 148.286 116.045 148.075C116.045 147.867 116.124 147.688 116.283 147.539C116.444 147.388 116.637 147.312 116.862 147.312C117.087 147.312 117.278 147.388 117.437 147.539C117.598 147.688 117.678 147.867 117.678 148.075C117.678 148.286 117.598 148.467 117.437 148.619C117.278 148.768 117.087 148.842 116.862 148.842ZM118.826 155V149.545H120.268V150.508H120.332C120.446 150.188 120.635 149.936 120.9 149.751C121.165 149.567 121.483 149.474 121.852 149.474C122.226 149.474 122.544 149.568 122.807 149.755C123.07 149.94 123.245 150.191 123.333 150.508H123.39C123.501 150.195 123.702 149.946 123.993 149.759C124.287 149.569 124.634 149.474 125.034 149.474C125.543 149.474 125.956 149.637 126.273 149.961C126.593 150.283 126.752 150.74 126.752 151.332V155H125.243V151.63C125.243 151.327 125.163 151.1 125.002 150.948C124.841 150.797 124.64 150.721 124.398 150.721C124.123 150.721 123.909 150.808 123.755 150.984C123.601 151.156 123.525 151.385 123.525 151.669V155H122.058V151.598C122.058 151.33 121.981 151.117 121.827 150.959C121.676 150.8 121.475 150.721 121.227 150.721C121.059 150.721 120.907 150.763 120.772 150.849C120.64 150.932 120.534 151.049 120.456 151.2C120.378 151.349 120.339 151.525 120.339 151.726V155H118.826Z" fill="#3F4450"/>
<rect x="25" y="173" width="134" height="5" rx="2.5" fill="#E2E2E2"/>
<rect x="25" y="189" width="170" height="5" rx="2.5" fill="#E2E2E2"/>
<rect x="25" y="204" width="170" height="6" rx="3" fill="#E2E2E2"/>
<path d="M155.406 43.8545V46.411C155.445 46.916 155.288 47.4168 154.968 47.8094C154.827 47.9613 154.655 48.0813 154.463 48.1615C154.272 48.2418 154.066 48.2803 153.858 48.2747C153.654 48.2806 153.45 48.2415 153.262 48.1601C153.074 48.0787 152.907 47.9571 152.771 47.8037C152.46 47.4096 152.308 46.9134 152.345 46.4129V37.8865C152.345 36.5114 152.842 35.8237 153.836 35.8233C154.045 35.8047 154.255 35.8391 154.447 35.9233C154.64 36.0075 154.807 36.1388 154.935 36.3051C155.19 36.7356 155.318 37.229 155.305 37.7289C155.597 37.1937 155.978 36.7122 156.432 36.3051C156.872 35.9658 157.419 35.7949 157.974 35.8233C158.628 35.8264 159.271 35.9919 159.846 36.3051C160.105 36.4077 160.328 36.5831 160.49 36.81C160.651 37.037 160.743 37.3058 160.754 37.584C160.759 37.7569 160.727 37.9289 160.661 38.0885C160.594 38.2481 160.494 38.3916 160.367 38.5095C160.148 38.736 159.848 38.8669 159.532 38.8737C159.254 38.8345 158.982 38.765 158.719 38.6665C158.353 38.5393 157.969 38.4694 157.581 38.4592C157.184 38.4422 156.794 38.5676 156.482 38.8127C156.168 39.0938 155.939 39.4568 155.82 39.8608C155.648 40.3974 155.539 40.9519 155.495 41.5135C155.435 42.1546 155.405 42.9349 155.406 43.8545Z" fill="#EF4B46"/>
<path d="M87.5449 33.4593L91.2672 44.48L95.0015 33.3792C95.1956 32.7962 95.3414 32.3906 95.4388 32.1626C95.5467 31.9209 95.7121 31.7092 95.9206 31.5461C96.1857 31.3497 96.5111 31.2523 96.8404 31.2709C97.1181 31.2694 97.3911 31.343 97.6305 31.4838C97.8672 31.6196 98.0644 31.8148 98.2026 32.0501C98.335 32.2645 98.4068 32.5108 98.4104 32.7627C98.4085 32.942 98.3859 33.1206 98.343 33.2947C98.2984 33.4848 98.2424 33.672 98.1752 33.8553C98.1079 34.0384 98.0405 34.2272 97.9731 34.4217L93.9928 45.1639C93.8504 45.5749 93.7082 45.9654 93.5663 46.3354C93.4384 46.6779 93.273 47.0051 93.073 47.3111C92.8815 47.5966 92.626 47.8334 92.3268 48.0026C91.9778 48.1915 91.5849 48.2843 91.1883 48.2715C90.7925 48.2841 90.4001 48.1934 90.0499 48.0084C89.7475 47.8399 89.4899 47.6015 89.2986 47.313C89.0974 47.005 88.9301 46.6761 88.7996 46.3322C88.6577 45.9661 88.5155 45.5773 88.3731 45.1658L84.4608 34.5139C84.3941 34.3194 84.3241 34.1287 84.2536 33.9418C84.1796 33.7446 84.1197 33.5424 84.0743 33.3367C84.0296 33.1558 84.0047 32.9706 84 32.7843C84.0029 32.5885 84.0451 32.3952 84.1242 32.216C84.2033 32.0369 84.3175 31.8754 84.4602 31.7412C84.6095 31.5869 84.7892 31.4653 84.9881 31.3842C85.1869 31.3031 85.4005 31.2643 85.6151 31.2702C85.8442 31.2467 86.0754 31.2823 86.2868 31.3735C86.4983 31.4648 86.6828 31.6087 86.8228 31.7914C87.1356 32.3133 87.3784 32.8741 87.5449 33.4593Z" fill="#F17A39"/>
<path d="M120.499 39.3338L114.893 45.6018H120.892C121.288 45.573 121.68 45.6954 121.989 45.9444C122.111 46.0558 122.207 46.1922 122.271 46.3441C122.334 46.496 122.365 46.66 122.359 46.8247C122.364 46.9831 122.334 47.1406 122.271 47.286C122.208 47.4314 122.114 47.561 121.995 47.6657C121.679 47.906 121.286 48.0218 120.89 47.9911H112.594C112.127 48.0272 111.662 47.8916 111.288 47.6097C111.036 47.3786 110.882 47.0596 110.859 46.7185C110.835 46.3774 110.943 46.0403 111.161 45.7766C111.363 45.5113 111.781 45.024 112.417 44.3146C113.09 43.5675 113.701 42.891 114.25 42.285C114.8 41.6791 115.31 41.1127 115.781 40.586C116.252 40.0592 116.642 39.6126 116.953 39.2461C117.263 38.8795 117.511 38.5655 117.698 38.3041H113.146C112.665 38.3233 112.185 38.2664 111.722 38.1356C111.4 38.0237 111.239 37.7284 111.24 37.2495C111.234 37.091 111.263 36.933 111.326 36.7874C111.389 36.6418 111.484 36.5123 111.604 36.4086C111.9 36.1816 112.267 36.0691 112.639 36.092H119.67C120.185 36.0641 120.699 36.1623 121.167 36.3781C121.343 36.4815 121.485 36.6332 121.578 36.8151C121.67 36.997 121.708 37.2016 121.688 37.4046C121.686 37.5789 121.651 37.7512 121.587 37.9131C121.531 38.0662 121.456 38.2113 121.363 38.3447C121.28 38.4566 121.168 38.5931 121.026 38.7541C120.883 38.9151 120.708 39.1083 120.499 39.3338Z" fill="#F48046"/>
<path d="M125.691 34.402C125.291 34.4113 124.901 34.2716 124.598 34.0098C124.453 33.867 124.339 33.6967 124.261 33.5091C124.183 33.3214 124.144 33.1201 124.145 32.9169C124.146 32.7138 124.188 32.5129 124.267 32.3261C124.347 32.1393 124.463 31.9702 124.609 31.8289C124.903 31.5557 125.289 31.4053 125.69 31.4088C126.076 31.405 126.45 31.5404 126.744 31.7902C126.901 31.9276 127.024 32.0991 127.103 32.2916C127.183 32.484 127.218 32.6921 127.204 32.9C127.215 33.1057 127.181 33.3113 127.103 33.5022C127.026 33.6931 126.907 33.8645 126.755 34.0041C126.464 34.2666 126.083 34.4088 125.691 34.402ZM127.205 37.5642V46.4123C127.242 46.9147 127.085 47.4122 126.767 47.803C126.627 47.9566 126.455 48.0781 126.264 48.1594C126.072 48.2407 125.866 48.2798 125.658 48.274C125.451 48.2806 125.245 48.2407 125.056 48.1573C124.867 48.0739 124.699 47.9492 124.564 47.7922C124.26 47.3992 124.111 46.9086 124.144 46.4129V37.6539C124.107 37.1613 124.257 36.6729 124.564 36.286C124.702 36.1347 124.872 36.0153 125.06 35.936C125.249 35.8566 125.453 35.8192 125.658 35.8264C125.865 35.8203 126.07 35.8581 126.262 35.9373C126.453 36.0165 126.625 36.1353 126.767 36.286C127.076 36.6379 127.233 37.0972 127.205 37.5642H127.205Z" fill="#F07A4F"/>
<path d="M130.535 36.0948H130.871V34.2565C130.871 33.7633 130.885 33.3764 130.911 33.0959C130.929 32.8415 131.004 32.5943 131.129 32.3725C131.253 32.16 131.431 31.9845 131.646 31.864C131.874 31.732 132.133 31.6641 132.397 31.6676C132.792 31.67 133.17 31.8267 133.451 32.1043C133.657 32.2928 133.796 32.5427 133.849 32.8168C133.914 33.2115 133.942 33.6113 133.933 34.0112V36.0967H135.055C135.412 36.0719 135.766 36.1819 136.047 36.405C136.158 36.5037 136.247 36.6257 136.306 36.7624C136.365 36.899 136.393 37.0469 136.389 37.1957C136.403 37.3718 136.364 37.5482 136.277 37.7021C136.19 37.8559 136.059 37.9802 135.901 38.0589C135.46 38.2462 134.982 38.3308 134.503 38.3062H133.931V43.9353C133.925 44.3041 133.942 44.6728 133.982 45.0394C134.004 45.2716 134.098 45.4911 134.25 45.6674C134.345 45.7554 134.458 45.8224 134.581 45.8639C134.703 45.9054 134.833 45.9205 134.962 45.9083C135.208 45.9002 135.452 45.8683 135.691 45.813C135.927 45.7583 136.167 45.7264 136.409 45.7177C136.535 45.7192 136.658 45.7464 136.773 45.7974C136.888 45.8484 136.991 45.9223 137.076 46.0145C137.173 46.1101 137.249 46.2245 137.301 46.3508C137.352 46.4771 137.376 46.6125 137.373 46.7487C137.369 46.9969 137.289 47.238 137.145 47.4402C137.001 47.6424 136.799 47.7962 136.566 47.8813C135.83 48.1795 135.038 48.3134 134.245 48.2735C133.489 48.3216 132.735 48.1545 132.07 47.7917C131.588 47.4866 131.241 47.0092 131.1 46.4569C130.927 45.7109 130.85 44.9461 130.87 44.1807V38.3043H130.467C130.103 38.3294 129.743 38.2174 129.458 37.9903C129.345 37.8911 129.256 37.7685 129.196 37.631C129.135 37.4935 129.106 37.3445 129.11 37.1944C129.107 37.0435 129.138 36.8938 129.201 36.7568C129.264 36.6197 129.358 36.4989 129.475 36.4037C129.78 36.1782 130.156 36.0687 130.535 36.0948Z" fill="#EB674C"/>
<path d="M149.956 42.0495C149.965 42.9091 149.82 43.7634 149.529 44.5723C149.263 45.3138 148.843 45.9904 148.296 46.5574C147.751 47.1141 147.094 47.5477 146.368 47.8286C145.562 48.1351 144.706 48.286 143.845 48.2736C142.99 48.2869 142.141 48.1345 141.344 47.8248C140.617 47.5368 139.96 47.0974 139.415 46.5359C138.871 45.9743 138.453 45.3035 138.188 44.5678C137.899 43.7605 137.757 42.9081 137.767 42.0507C137.757 41.1846 137.902 40.3237 138.194 39.5082C138.457 38.7725 138.874 38.1009 139.416 37.5377C139.96 36.9832 140.618 36.553 141.344 36.2766C142.966 35.6845 144.745 35.6865 146.366 36.2824C147.097 36.5636 147.759 36.9999 148.306 37.5612C148.853 38.1226 149.272 38.7957 149.534 39.5343C149.822 40.3412 149.965 41.1927 149.956 42.0495ZM146.884 42.0495C146.946 41.0121 146.655 39.9843 146.057 39.1338C145.798 38.7964 145.461 38.5258 145.076 38.3444C144.691 38.163 144.268 38.0761 143.843 38.0907C143.28 38.0801 142.728 38.2427 142.261 38.5567C141.781 38.8986 141.414 39.3769 141.207 39.9296C140.716 41.2917 140.714 42.7824 141.202 44.1458C141.408 44.6956 141.771 45.1731 142.245 45.5194C142.714 45.842 143.273 46.0086 143.843 45.9955C144.269 46.0102 144.692 45.9228 145.077 45.7404C145.463 45.5581 145.799 45.2861 146.057 44.9473C146.652 44.1023 146.943 43.081 146.884 42.0495Z" fill="#EE5449"/>
<path d="M102.542 37.2043C102.153 37.5055 101.784 37.8298 101.434 38.1756C101.254 38.3969 101.134 38.662 101.089 38.9441C100.965 39.6287 100.898 40.324 100.802 41.0137C100.777 41.1911 100.683 41.3517 100.541 41.461C100.399 41.5703 100.22 41.6197 100.042 41.5985C99.9511 41.591 99.8623 41.5647 99.7817 41.5212C99.7011 41.4778 99.6303 41.4181 99.5738 41.346C99.5174 41.2739 99.4764 41.1909 99.4536 41.1022C99.4307 41.0135 99.4264 40.9211 99.441 40.8306C99.5466 39.9268 99.6642 39.0248 99.7722 38.1209C99.8114 37.7768 99.9842 37.4618 100.253 37.2438C100.852 36.7353 101.443 36.2229 102.055 35.7329C102.638 35.23 103.387 34.9604 104.157 34.9758C104.411 34.9626 104.663 35.0271 104.88 35.1607C105.097 35.2944 105.268 35.4908 105.37 35.724C105.665 36.3417 105.914 36.9803 106.115 37.6347C106.189 37.9414 106.338 38.2253 106.547 38.4614C106.756 38.6975 107.02 38.8788 107.316 38.9892C107.837 39.211 108.346 39.4621 108.857 39.7075C109.015 39.7797 109.138 39.911 109.201 40.0732C109.263 40.2354 109.259 40.4156 109.19 40.5751C109.158 40.6547 109.11 40.7268 109.049 40.7868C108.987 40.8469 108.914 40.8937 108.834 40.9242C108.754 40.9548 108.668 40.9684 108.582 40.9644C108.496 40.9603 108.412 40.9386 108.335 40.9006C107.5 40.5211 106.655 40.1505 105.843 39.7227C105.58 39.5331 105.354 39.296 105.178 39.0235C105.097 38.8814 105.004 38.7466 104.899 38.6205C104.786 39.1704 104.709 39.7323 104.55 40.2681C104.482 40.4876 104.469 40.7201 104.511 40.9458C104.553 41.1715 104.649 41.3837 104.791 41.5642C105.878 43.2187 106.928 44.9057 107.985 46.5876C108.065 46.6942 108.122 46.8163 108.153 46.9462C108.183 47.0761 108.186 47.2108 108.161 47.3419C108.136 47.4729 108.085 47.5973 108.009 47.7073C107.934 47.8172 107.836 47.9102 107.723 47.9804C107.609 48.0505 107.482 48.0962 107.35 48.1147C107.218 48.1331 107.084 48.1238 106.956 48.0873C106.827 48.0509 106.708 47.9881 106.605 47.9031C106.503 47.818 106.419 47.7124 106.359 47.5931C105.506 46.2405 104.646 44.893 103.793 43.541C103.198 42.5977 102.602 41.6544 102.024 40.7003C101.938 40.5457 101.906 40.3665 101.935 40.1918C102.116 39.2257 102.322 38.2608 102.542 37.2043Z" fill="#444444"/>
<path d="M107.194 48.3311C106.984 48.327 106.779 48.2665 106.6 48.1561C106.421 48.0456 106.275 47.8892 106.177 47.7031C105.736 47.0027 105.293 46.3035 104.848 45.6055C104.436 44.9551 104.023 44.3042 103.611 43.6529L103.584 43.6096C103.007 42.6956 102.41 41.7498 101.84 40.8084C101.728 40.6102 101.687 40.3796 101.724 40.155C101.86 39.4323 102.008 38.714 102.169 37.9544L102.212 37.751C101.99 37.9242 101.781 38.114 101.588 38.3186C101.433 38.5105 101.331 38.7398 101.293 38.9835C101.215 39.4151 101.16 39.8607 101.106 40.2929C101.074 40.544 101.042 40.7951 101.007 41.0461C100.973 41.2778 100.85 41.4871 100.665 41.6296C100.479 41.772 100.245 41.8363 100.012 41.8089C99.8938 41.7979 99.7787 41.7627 99.6742 41.7056C99.5696 41.6486 99.4778 41.5708 99.4044 41.477C99.331 41.3832 99.2774 41.2754 99.2471 41.1603C99.2168 41.0451 99.2103 40.9249 99.228 40.8071C99.2895 40.2813 99.353 39.7556 99.4187 39.2301C99.4657 38.8526 99.5128 38.4744 99.5579 38.0968C99.6041 37.6978 99.8047 37.3328 100.117 37.0798L100.597 36.6723C101.027 36.3056 101.472 35.9267 101.922 35.5663C102.544 35.0291 103.344 34.7425 104.166 34.7623C104.46 34.7488 104.751 34.8252 105.001 34.9813C105.251 35.1374 105.447 35.3659 105.564 35.6363L105.642 35.813C105.912 36.383 106.138 36.9724 106.319 37.5762C106.385 37.8522 106.518 38.1076 106.707 38.3197C106.895 38.5319 107.133 38.6941 107.4 38.7922C107.835 38.9778 108.267 39.1856 108.684 39.3865L108.949 39.5136C109.157 39.6097 109.319 39.7832 109.4 39.9969C109.482 40.2107 109.476 40.4479 109.385 40.6578C109.342 40.7629 109.277 40.858 109.196 40.9374C109.114 41.0167 109.018 41.0786 108.911 41.1191C108.805 41.1597 108.691 41.1782 108.578 41.1734C108.464 41.1686 108.353 41.1407 108.25 41.0913L107.939 40.9514C107.213 40.6247 106.462 40.2872 105.745 39.9071C105.506 39.7573 105.302 39.5579 105.147 39.3223C105.103 39.2651 105.059 39.2079 105.015 39.1539L105.012 39.1481V39.157C104.947 39.5502 104.86 39.9396 104.753 40.3234C104.695 40.5135 104.684 40.7151 104.721 40.9103C104.759 41.1056 104.844 41.2886 104.969 41.4434C105.868 42.8189 106.757 44.2326 107.616 45.5992L108.165 46.4719C108.283 46.6469 108.355 46.8485 108.375 47.0585C108.394 47.2685 108.361 47.48 108.278 47.6739C108.195 47.8485 108.069 47.999 107.912 48.1113C107.754 48.2236 107.571 48.294 107.379 48.3159C107.318 48.3256 107.256 48.3307 107.194 48.3311ZM102.872 36.6431L102.748 37.247C102.693 37.5165 102.638 37.7796 102.585 38.0383C102.428 38.7966 102.278 39.5123 102.145 40.2306C102.126 40.3536 102.149 40.4794 102.208 40.5885C102.776 41.5267 103.372 42.4706 103.948 43.3853L103.976 43.4285C104.384 44.0785 104.795 44.7281 105.209 45.3773C105.653 46.077 106.096 46.7762 106.538 47.4749C106.607 47.6194 106.719 47.7383 106.86 47.8142C107 47.8902 107.161 47.9192 107.32 47.897C107.442 47.8853 107.56 47.8421 107.661 47.7716C107.762 47.7011 107.843 47.6057 107.896 47.4946C107.95 47.3647 107.971 47.2232 107.956 47.0833C107.94 46.9434 107.89 46.8096 107.809 46.6944L107.258 45.8223C106.4 44.4569 105.512 43.0446 104.615 41.6729C104.457 41.4661 104.351 41.225 104.304 40.9693C104.258 40.7135 104.273 40.4504 104.347 40.2014C104.45 39.8322 104.533 39.4576 104.595 39.0795C104.626 38.9098 104.659 38.7401 104.693 38.571L104.768 38.2036L105.043 38.4578C105.131 38.5447 105.205 38.6451 105.261 38.7553C105.284 38.7998 105.31 38.8423 105.34 38.8824C105.388 38.9409 105.434 39.0013 105.481 39.0623C105.603 39.2472 105.759 39.4063 105.942 39.5308C106.647 39.9045 107.391 40.2389 108.112 40.5631L108.423 40.7035C108.475 40.73 108.531 40.7454 108.589 40.7486C108.647 40.7519 108.705 40.7429 108.76 40.7224C108.814 40.7019 108.863 40.6702 108.905 40.6294C108.946 40.5886 108.978 40.5396 109 40.4855C109.047 40.3761 109.05 40.2522 109.006 40.1411C108.963 40.0299 108.877 39.9405 108.768 39.8925L108.502 39.7653C108.089 39.5664 107.662 39.3604 107.236 39.1786C106.911 39.0563 106.62 38.8564 106.39 38.5963C106.16 38.3362 105.996 38.0237 105.914 37.6862C105.738 37.1029 105.519 36.5335 105.258 35.9827L105.18 35.8053C105.093 35.6084 104.948 35.443 104.764 35.3315C104.58 35.22 104.366 35.168 104.152 35.1824C103.432 35.1688 102.732 35.4222 102.188 35.8937C101.743 36.2503 101.298 36.6272 100.872 36.9921C100.712 37.1285 100.552 37.2647 100.391 37.4008C100.161 37.5842 100.013 37.8514 99.9793 38.1438C99.9336 38.5222 99.8869 38.9007 99.8395 39.2791C99.7759 39.8035 99.7124 40.3279 99.6488 40.8529C99.6377 40.9159 99.64 40.9806 99.6555 41.0427C99.671 41.1048 99.6994 41.163 99.7388 41.2134C99.7783 41.2638 99.8279 41.3053 99.8844 41.3353C99.941 41.3653 100.003 41.3831 100.067 41.3875C100.19 41.4016 100.314 41.3671 100.412 41.2914C100.51 41.2156 100.574 41.1046 100.591 40.9819C100.627 40.734 100.655 40.4849 100.689 40.2363C100.744 39.799 100.8 39.3464 100.88 38.9015C100.931 38.5806 101.068 38.2793 101.276 38.0294C101.51 37.7853 101.762 37.5594 102.031 37.3537C102.15 37.2558 102.275 37.1541 102.404 37.0435L102.872 36.6431Z" fill="#444444"/>
<path d="M101.626 41.9253C102.057 42.5018 102.452 43.0307 102.846 43.564C102.864 43.5899 102.875 43.6191 102.881 43.6497C102.886 43.6803 102.885 43.7117 102.878 43.7419C102.78 44.322 102.571 44.8777 102.262 45.3787C101.662 46.1345 101.107 46.9265 100.529 47.7C100.469 47.8057 100.388 47.8974 100.29 47.9691C100.192 48.0408 100.079 48.0908 99.9606 48.1158C99.8418 48.1408 99.7191 48.1402 99.6005 48.1142C99.4819 48.0881 99.3702 48.037 99.2729 47.9644C99.1762 47.8915 99.0959 47.7991 99.0371 47.6932C98.9783 47.5872 98.9423 47.4702 98.9315 47.3496C98.9206 47.2289 98.9352 47.1073 98.9742 46.9926C99.0132 46.8779 99.0757 46.7727 99.1579 46.6836C99.7052 45.94 100.262 45.2033 100.801 44.4538C100.923 44.2794 101.015 44.0861 101.074 43.8818C101.262 43.2589 101.43 42.6264 101.626 41.9253Z" fill="#444444"/>
<path d="M99.7759 48.3516C99.5496 48.3478 99.3303 48.2721 99.1498 48.1355C99.0394 48.0587 98.9457 47.9604 98.8742 47.8465C98.8028 47.7325 98.7551 47.6053 98.7341 47.4725C98.7139 47.311 98.726 47.1471 98.7696 46.9903C98.8133 46.8335 98.8876 46.6869 98.9884 46.5591C99.1846 46.2926 99.3818 46.0262 99.5801 45.7601C99.9266 45.2936 100.286 44.8105 100.63 44.3319C100.738 44.1766 100.82 44.0048 100.872 43.8233C101.007 43.3784 101.13 42.9296 101.261 42.4542L101.423 41.8694L101.539 41.4575L102.062 42.1567C102.393 42.5985 102.707 43.0167 103.016 43.4382C103.053 43.4907 103.077 43.5506 103.088 43.6138C103.099 43.677 103.096 43.7418 103.079 43.8036C103.035 43.9448 102.999 44.0871 102.962 44.2371C102.879 44.6951 102.697 45.1292 102.427 45.5084C102.027 46.0125 101.639 46.5426 101.264 47.0555C101.073 47.3098 100.888 47.5698 100.698 47.8247C100.597 47.9792 100.461 48.1075 100.3 48.1991C100.14 48.2907 99.9604 48.343 99.7759 48.3516ZM101.715 42.3951L101.668 42.5661C101.535 43.0434 101.413 43.4954 101.276 43.9448C101.21 44.1718 101.107 44.3865 100.972 44.5804C100.626 45.0622 100.267 45.5459 99.9183 46.0144C99.7212 46.2796 99.5244 46.5456 99.3278 46.8121C99.2604 46.8953 99.2102 46.9909 99.1798 47.0936C99.1495 47.1962 99.1398 47.3038 99.1511 47.4102C99.1638 47.4879 99.1921 47.5621 99.2343 47.6285C99.2764 47.6949 99.3316 47.7521 99.3964 47.7967C99.4719 47.8524 99.5585 47.8912 99.6503 47.9104C99.7422 47.9296 99.837 47.9288 99.9285 47.9079C100.02 47.8871 100.106 47.8468 100.18 47.7898C100.255 47.7327 100.316 47.6603 100.36 47.5774C100.55 47.3231 100.738 47.0676 100.924 46.8108C101.301 46.2947 101.692 45.7608 102.097 45.2503C102.328 44.9171 102.484 44.5375 102.553 44.138C102.589 43.9918 102.627 43.8411 102.674 43.693V43.6829C102.37 43.271 102.057 42.8534 101.727 42.4116L101.715 42.3951Z" fill="#444444"/>
<path d="M106.607 32.765C106.607 33.0887 106.511 33.4051 106.331 33.674C106.151 33.943 105.895 34.1523 105.596 34.2753C105.296 34.3984 104.967 34.4296 104.65 34.365C104.333 34.3004 104.042 34.1429 103.815 33.9126C103.587 33.6823 103.434 33.3895 103.373 33.0716C103.313 32.7536 103.348 32.4249 103.475 32.1272C103.602 31.8295 103.815 31.5762 104.086 31.3997C104.357 31.2232 104.675 31.1314 104.998 31.1359C105.426 31.1437 105.834 31.3185 106.134 31.6229C106.435 31.9274 106.604 32.3373 106.607 32.765Z" fill="#444444"/>
<path d="M104.977 34.6141C104.487 34.6088 104.019 34.4106 103.675 34.0625C103.33 33.7144 103.137 33.2446 103.137 32.7549C103.16 32.281 103.364 31.8342 103.708 31.5073C104.052 31.1805 104.508 30.9988 104.983 31C105.457 31.0012 105.913 31.1853 106.255 31.5139C106.597 31.8426 106.799 32.2905 106.82 32.7644C106.82 33.254 106.626 33.7237 106.281 34.0705C105.935 34.4173 105.466 34.6128 104.976 34.6141H104.977ZM104.982 31.3463C104.606 31.3475 104.246 31.4962 103.98 31.7604C103.713 32.0246 103.561 32.3832 103.556 32.7587C103.557 33.1358 103.707 33.4972 103.973 33.7651C104.238 34.033 104.598 34.1861 104.975 34.1914C105.352 34.1891 105.713 34.0375 105.979 33.77C106.245 33.5024 106.394 33.1404 106.394 32.7631C106.393 32.3907 106.246 32.0336 105.985 31.7684C105.723 31.5032 105.368 31.3512 104.996 31.345L104.982 31.3463Z" fill="#444444"/>
</svg>
