<svg width="241" height="470" viewBox="0 0 241 470" fill="none" xmlns="http://www.w3.org/2000/svg">
<rect x="5" y="5" width="231" height="457" rx="48" fill="white" stroke="#E2E2E2" stroke-width="9"/>
<rect x="67" y="3" width="108" height="17" rx="8.5" fill="#E2E2E2"/>
<g filter="url(#filter0_d_489_2217)">
<path d="M188.488 414H51.6431C48.5265 414 46 416.526 46 419.643V436.572C46 439.689 48.5265 442.215 51.6431 442.215H188.488C191.604 442.215 194.131 439.689 194.131 436.572V419.643C194.131 416.526 191.604 414 188.488 414Z" fill="#ED5C18"/>
</g>
<path d="M114.6 423.562V431.782H113.276L109.402 426.183H109.334V431.782H107.845V423.562H109.178L113.047 429.165H113.119V423.562H114.6ZM118.888 431.902C118.27 431.902 117.736 431.774 117.286 431.517C116.839 431.257 116.496 430.891 116.255 430.417C116.014 429.941 115.894 429.38 115.894 428.735C115.894 428.101 116.014 427.545 116.255 427.066C116.498 426.584 116.838 426.209 117.274 425.942C117.71 425.672 118.223 425.536 118.812 425.536C119.192 425.536 119.55 425.598 119.887 425.721C120.227 425.841 120.527 426.029 120.786 426.283C121.049 426.537 121.255 426.861 121.404 427.254C121.554 427.645 121.629 428.111 121.629 428.651V429.097H116.576V428.117H120.236C120.234 427.839 120.174 427.591 120.056 427.375C119.938 427.155 119.773 426.983 119.562 426.857C119.353 426.731 119.11 426.668 118.832 426.668C118.535 426.668 118.274 426.741 118.049 426.885C117.824 427.027 117.649 427.214 117.523 427.447C117.4 427.677 117.337 427.93 117.334 428.206V429.06C117.334 429.419 117.4 429.727 117.531 429.984C117.662 430.238 117.846 430.433 118.081 430.57C118.317 430.703 118.592 430.77 118.908 430.77C119.119 430.77 119.311 430.741 119.482 430.682C119.653 430.62 119.802 430.531 119.927 430.413C120.053 430.295 120.148 430.149 120.212 429.976L121.569 430.128C121.483 430.487 121.32 430.8 121.079 431.067C120.841 431.332 120.536 431.538 120.164 431.685C119.792 431.83 119.367 431.902 118.888 431.902ZM123.914 425.617L125.158 427.892L126.423 425.617H127.96L126.101 428.699L127.992 431.782H126.463L125.158 429.562L123.866 431.782H122.325L124.203 428.699L122.373 425.617H123.914ZM132.162 425.617V426.741H128.618V425.617H132.162ZM129.493 424.14H130.946V429.927C130.946 430.123 130.975 430.273 131.034 430.377C131.096 430.479 131.176 430.548 131.275 430.586C131.374 430.623 131.484 430.642 131.604 430.642C131.695 430.642 131.778 430.635 131.853 430.622C131.931 430.608 131.99 430.596 132.03 430.586L132.275 431.722C132.197 431.748 132.086 431.778 131.941 431.81C131.8 431.842 131.626 431.861 131.42 431.866C131.056 431.877 130.728 431.822 130.436 431.701C130.145 431.578 129.913 431.388 129.742 431.132C129.573 430.875 129.49 430.554 129.493 430.168V424.14Z" fill="white"/>
<rect x="75" y="399" width="24.5" height="2" rx="1" fill="#E2E2E2"/>
<rect x="113.5" y="399" width="24.5" height="2" rx="1" fill="#E2E2E2"/>
<rect x="152.5" y="399" width="13" height="2" rx="1" fill="#E2E2E2"/>
<rect x="20.5" y="307.5" width="199" height="57.2375" rx="9.5" fill="white" stroke="#E2E2E2"/>
<path d="M92.2222 325.536C93.39 326.863 94.2182 328.488 95.0408 330.039C97.228 334.161 99.2195 338.406 101.156 342.65C101.985 344.468 102.799 346.289 103.568 348.132C103.601 348.212 104.046 349.471 104.046 349.183" stroke="#3F4450" stroke-width="1.9" stroke-linecap="round"/>
<path d="M86.6667 328.35C86.8316 327.896 87.4059 327.656 87.8132 327.49C90.0716 326.569 92.6401 326.168 95.0506 325.925C96.9123 325.738 100.423 325.177 101.882 326.845C103.541 328.741 102.195 333.099 101.595 335.085C100.921 337.317 99.6495 339.342 99.3023 341.678C99.1145 342.941 98.7966 344.228 98.7171 345.5C98.6346 346.819 101.441 344.931 102.049 344.64C104.811 343.316 106.14 341.066 105.357 337.999C104.825 335.914 104.641 337.916 105.071 338.979C105.214 339.333 106.326 341.977 106.922 341.152C107.787 339.954 107.734 338.003 107.734 336.59C107.734 336.015 108.245 337.092 108.319 337.187C108.947 337.986 109.658 338.793 110.385 339.504C110.841 339.95 110.736 339.373 110.756 339.027C110.848 337.367 110.903 335.852 110.409 334.226C109.905 332.566 109.024 331.084 108.355 329.496C108.294 329.35 107.946 328.536 108.248 329.245C109.395 331.95 111.159 334.476 112.798 336.901C113.32 337.674 113.509 335.055 113.55 334.847C113.796 333.604 114.128 332.343 114.183 331.073C114.205 330.575 114.15 331.552 114.135 331.598C113.934 332.252 113.023 333.496 112.201 333.246C110.848 332.835 114.833 334.281 116.166 334.751C119.356 335.877 117.911 329.946 116.882 328.636C116.15 327.704 117.679 328.595 117.981 328.732C122.28 330.673 126.621 332.667 130.772 334.906C131.317 335.201 132.835 336.031 132.217 336.077C130.678 336.191 128.966 335.935 127.512 335.444C125.47 334.754 126.145 333.32 126.21 331.562C126.258 330.253 126.078 328.971 125.744 327.705C125.372 326.298 124.556 324.857 124.502 323.381C124.475 322.633 125.478 324.056 125.505 324.086C126.932 325.65 128.483 327.01 130.115 328.35C131.137 329.189 131.338 329.569 131.907 328.099C132.009 327.833 132.292 325.32 132.886 325.603C133.448 325.871 135.19 327.67 135.8 327.227C136.859 326.457 135.825 323.599 135.382 325.567C135.047 327.056 135.509 326.782 136.11 325.913C136.286 325.659 137.687 326.2 138.045 326.2C141.215 326.2 143.995 325.648 146.764 324.05C147.483 323.635 149.06 322.658 149.439 321.9" stroke="#3F4450" stroke-width="1.9" stroke-linecap="round"/>
<rect x="20" y="204" width="200" height="4" rx="2" fill="#E2E2E2"/>
<rect x="20" y="256" width="200" height="4" rx="2" fill="#E2E2E2"/>
<rect x="20" y="217" width="200" height="4" rx="2" fill="#E2E2E2"/>
<rect x="20" y="269" width="200" height="4" rx="2" fill="#E2E2E2"/>
<rect x="20" y="230" width="200" height="4" rx="2" fill="#E2E2E2"/>
<rect x="20" y="282" width="200" height="4" rx="2" fill="#E2E2E2"/>
<rect x="20" y="243" width="81.2261" height="4" rx="2" fill="#E2E2E2"/>
<rect x="20" y="100" width="200" height="4" rx="2" fill="#E2E2E2"/>
<rect x="20" y="152" width="200" height="4" rx="2" fill="#E2E2E2"/>
<rect x="20" y="113" width="200" height="4" rx="2" fill="#E2E2E2"/>
<rect x="20" y="165" width="200" height="4" rx="2" fill="#E2E2E2"/>
<rect x="20" y="126" width="200" height="4" rx="2" fill="#E2E2E2"/>
<rect x="20" y="178" width="200" height="4" rx="2" fill="#E2E2E2"/>
<rect x="20" y="204" width="200" height="4" rx="2" fill="#E2E2E2"/>
<rect x="20" y="243" width="200" height="4" rx="2" fill="#E2E2E2"/>
<rect x="20" y="139" width="81.2262" height="4" rx="2" fill="#E2E2E2"/>
<rect x="20" y="191" width="200" height="4" rx="2" fill="#E2E2E2"/>
<rect x="20" y="230" width="200" height="4" rx="2" fill="#E2E2E2"/>
<rect x="20" y="217" width="200" height="4" rx="2" fill="#E2E2E2"/>
<rect x="20" y="256" width="150.191" height="4" rx="2" fill="#E2E2E2"/>
<path d="M36.0327 70.2727V79H34.6264L30.5142 73.0554H30.4418V79H28.8608V70.2727H30.2756L34.3835 76.2216H34.4602V70.2727H36.0327ZM45.5536 74.6364C45.5536 75.5767 45.3775 76.3821 45.0252 77.0526C44.6758 77.7202 44.1985 78.2315 43.5934 78.5866C42.9911 78.9418 42.3079 79.1193 41.5437 79.1193C40.7795 79.1193 40.0948 78.9418 39.4897 78.5866C38.8874 78.2287 38.4102 77.7159 38.0579 77.0483C37.7085 76.3778 37.5337 75.5739 37.5337 74.6364C37.5337 73.696 37.7085 72.892 38.0579 72.2244C38.4102 71.554 38.8874 71.0412 39.4897 70.6861C40.0948 70.331 40.7795 70.1534 41.5437 70.1534C42.3079 70.1534 42.9911 70.331 43.5934 70.6861C44.1985 71.0412 44.6758 71.554 45.0252 72.2244C45.3775 72.892 45.5536 73.696 45.5536 74.6364ZM43.9641 74.6364C43.9641 73.9744 43.8604 73.4162 43.6531 72.9616C43.4485 72.5043 43.1644 72.1591 42.8008 71.9261C42.4371 71.6903 42.0181 71.5724 41.5437 71.5724C41.0692 71.5724 40.6502 71.6903 40.2866 71.9261C39.9229 72.1591 39.6374 72.5043 39.43 72.9616C39.2255 73.4162 39.1232 73.9744 39.1232 74.6364C39.1232 75.2983 39.2255 75.858 39.43 76.3153C39.6374 76.7699 39.9229 77.1151 40.2866 77.3509C40.6502 77.5838 41.0692 77.7003 41.5437 77.7003C42.0181 77.7003 42.4371 77.5838 42.8008 77.3509C43.1644 77.1151 43.4485 76.7699 43.6531 76.3153C43.8604 75.858 43.9641 75.2983 43.9641 74.6364ZM54.2202 70.2727V79H52.8139L48.7017 73.0554H48.6293V79H47.0483V70.2727H48.4631L52.571 76.2216H52.6477V70.2727H54.2202ZM61.8768 79H58.9194V70.2727H61.9364C62.8029 70.2727 63.5472 70.4474 64.1694 70.7969C64.7944 71.1435 65.2745 71.642 65.6097 72.2926C65.945 72.9432 66.1126 73.7216 66.1126 74.6278C66.1126 75.5369 65.9435 76.3182 65.6055 76.9716C65.2702 77.625 64.7859 78.1264 64.1523 78.4759C63.5217 78.8253 62.7631 79 61.8768 79ZM60.5004 77.6321H61.8001C62.408 77.6321 62.9151 77.5213 63.3214 77.2997C63.7276 77.0753 64.033 76.7415 64.2376 76.2983C64.4421 75.8523 64.5444 75.2955 64.5444 74.6278C64.5444 73.9602 64.4421 73.4062 64.2376 72.9659C64.033 72.5227 63.7305 72.1918 63.3299 71.973C62.9322 71.7514 62.4379 71.6406 61.8469 71.6406H60.5004V77.6321ZM69.1957 70.2727V79H67.6147V70.2727H69.1957ZM75.6506 72.6719C75.6108 72.2997 75.4432 72.0099 75.1477 71.8026C74.8551 71.5952 74.4744 71.4915 74.0057 71.4915C73.6761 71.4915 73.3935 71.5412 73.1577 71.6406C72.9219 71.7401 72.7415 71.875 72.6165 72.0455C72.4915 72.2159 72.4276 72.4105 72.4247 72.6293C72.4247 72.8111 72.4659 72.9687 72.5483 73.1023C72.6335 73.2358 72.7486 73.3494 72.8935 73.4432C73.0384 73.5341 73.1989 73.6108 73.375 73.6733C73.5511 73.7358 73.7287 73.7884 73.9077 73.831L74.7259 74.0355C75.0554 74.1122 75.3722 74.2159 75.6761 74.3466C75.983 74.4773 76.2571 74.642 76.4986 74.8409C76.7429 75.0398 76.9361 75.2798 77.0781 75.5611C77.2202 75.8423 77.2912 76.1719 77.2912 76.5497C77.2912 77.0611 77.1605 77.5114 76.8991 77.9006C76.6378 78.2869 76.2599 78.5895 75.7656 78.8082C75.2741 79.0241 74.679 79.1321 73.9801 79.1321C73.3011 79.1321 72.7116 79.027 72.2116 78.8168C71.7145 78.6065 71.3253 78.2997 71.044 77.8963C70.7656 77.4929 70.6151 77.0014 70.5923 76.4219H72.1477C72.1705 76.7259 72.2642 76.9787 72.429 77.1804C72.5938 77.3821 72.8082 77.5327 73.0724 77.6321C73.3395 77.7315 73.6378 77.7812 73.9673 77.7812C74.3111 77.7812 74.6122 77.7301 74.8707 77.6278C75.1321 77.5227 75.3366 77.3778 75.4844 77.1932C75.6321 77.0057 75.7074 76.7869 75.7102 76.5369C75.7074 76.3097 75.6406 76.1222 75.5099 75.9744C75.3793 75.8239 75.196 75.6989 74.9602 75.5994C74.7273 75.4972 74.4545 75.4062 74.142 75.3267L73.1491 75.071C72.4304 74.8864 71.8622 74.6065 71.4446 74.2315C71.0298 73.8537 70.8224 73.3523 70.8224 72.7273C70.8224 72.2131 70.9616 71.7628 71.2401 71.3764C71.5213 70.9901 71.9034 70.6903 72.3864 70.4773C72.8693 70.2614 73.4162 70.1534 74.027 70.1534C74.6463 70.1534 75.1889 70.2614 75.6548 70.4773C76.1236 70.6903 76.4915 70.9872 76.7585 71.3679C77.0256 71.7457 77.1634 72.1804 77.1719 72.6719H75.6506ZM86.1708 73.2173H84.5771C84.5316 72.956 84.4478 72.7244 84.3256 72.5227C84.2035 72.3182 84.0515 72.1449 83.8697 72.0028C83.6879 71.8608 83.4805 71.7543 83.2475 71.6832C83.0174 71.6094 82.7688 71.5724 82.5018 71.5724C82.0273 71.5724 81.6069 71.6918 81.2404 71.9304C80.8739 72.1662 80.587 72.5128 80.3796 72.9702C80.1722 73.4247 80.0685 73.9801 80.0685 74.6364C80.0685 75.304 80.1722 75.8665 80.3796 76.3239C80.5898 76.7784 80.8768 77.1222 81.2404 77.3551C81.6069 77.5852 82.0259 77.7003 82.4975 77.7003C82.7589 77.7003 83.0032 77.6662 83.2305 77.598C83.4606 77.527 83.6665 77.4233 83.8484 77.2869C84.033 77.1506 84.1879 76.983 84.3129 76.7841C84.4407 76.5852 84.5288 76.358 84.5771 76.1023L86.1708 76.1108C86.1112 76.5256 85.9819 76.9148 85.783 77.2784C85.587 77.642 85.3299 77.9631 85.0117 78.2415C84.6935 78.517 84.3214 78.733 83.8952 78.8892C83.4691 79.0426 82.9961 79.1193 82.4762 79.1193C81.7092 79.1193 81.0245 78.9418 80.4222 78.5866C79.82 78.2315 79.3455 77.7188 78.9989 77.0483C78.6523 76.3778 78.479 75.5739 78.479 74.6364C78.479 73.696 78.6538 72.892 79.0032 72.2244C79.3526 71.554 79.8285 71.0412 80.4308 70.6861C81.033 70.331 81.7148 70.1534 82.4762 70.1534C82.962 70.1534 83.4137 70.2216 83.8313 70.358C84.2489 70.4943 84.6211 70.6946 84.9478 70.9588C85.2745 71.2202 85.543 71.5412 85.7532 71.9219C85.9663 72.2997 86.1055 72.7315 86.1708 73.2173ZM87.6186 79V70.2727H89.1996V77.6747H93.0433V79H87.6186ZM101.874 74.6364C101.874 75.5767 101.698 76.3821 101.346 77.0526C100.996 77.7202 100.519 78.2315 99.9137 78.5866C99.3114 78.9418 98.6282 79.1193 97.864 79.1193C97.0998 79.1193 96.4151 78.9418 95.81 78.5866C95.2077 78.2287 94.7305 77.7159 94.3782 77.0483C94.0288 76.3778 93.854 75.5739 93.854 74.6364C93.854 73.696 94.0288 72.892 94.3782 72.2244C94.7305 71.554 95.2077 71.0412 95.81 70.6861C96.4151 70.331 97.0998 70.1534 97.864 70.1534C98.6282 70.1534 99.3114 70.331 99.9137 70.6861C100.519 71.0412 100.996 71.554 101.346 72.2244C101.698 72.892 101.874 73.696 101.874 74.6364ZM100.284 74.6364C100.284 73.9744 100.181 73.4162 99.9734 72.9616C99.7688 72.5043 99.4847 72.1591 99.1211 71.9261C98.7575 71.6903 98.3384 71.5724 97.864 71.5724C97.3896 71.5724 96.9705 71.6903 96.6069 71.9261C96.2433 72.1591 95.9577 72.5043 95.7504 72.9616C95.5458 73.4162 95.4435 73.9744 95.4435 74.6364C95.4435 75.2983 95.5458 75.858 95.7504 76.3153C95.9577 76.7699 96.2433 77.1151 96.6069 77.3509C96.9705 77.5838 97.3896 77.7003 97.864 77.7003C98.3384 77.7003 98.7575 77.5838 99.1211 77.3509C99.4847 77.1151 99.7688 76.7699 99.9734 76.3153C100.181 75.858 100.284 75.2983 100.284 74.6364ZM108.87 70.2727H110.451V75.9744C110.451 76.5994 110.303 77.1491 110.008 77.6236C109.715 78.098 109.303 78.4687 108.772 78.7358C108.241 79 107.62 79.1321 106.91 79.1321C106.197 79.1321 105.575 79 105.043 78.7358C104.512 78.4687 104.1 78.098 103.808 77.6236C103.515 77.1491 103.369 76.5994 103.369 75.9744V70.2727H104.95V75.8423C104.95 76.206 105.029 76.5298 105.188 76.8139C105.35 77.098 105.577 77.321 105.87 77.483C106.163 77.642 106.509 77.7216 106.91 77.7216C107.31 77.7216 107.657 77.642 107.95 77.483C108.245 77.321 108.472 77.098 108.631 76.8139C108.79 76.5298 108.87 76.206 108.87 75.8423V70.2727ZM116.912 72.6719C116.873 72.2997 116.705 72.0099 116.409 71.8026C116.117 71.5952 115.736 71.4915 115.267 71.4915C114.938 71.4915 114.655 71.5412 114.419 71.6406C114.184 71.7401 114.003 71.875 113.878 72.0455C113.753 72.2159 113.689 72.4105 113.686 72.6293C113.686 72.8111 113.728 72.9687 113.81 73.1023C113.895 73.2358 114.01 73.3494 114.155 73.4432C114.3 73.5341 114.461 73.6108 114.637 73.6733C114.813 73.7358 114.99 73.7884 115.169 73.831L115.988 74.0355C116.317 74.1122 116.634 74.2159 116.938 74.3466C117.245 74.4773 117.519 74.642 117.76 74.8409C118.005 75.0398 118.198 75.2798 118.34 75.5611C118.482 75.8423 118.553 76.1719 118.553 76.5497C118.553 77.0611 118.422 77.5114 118.161 77.9006C117.9 78.2869 117.522 78.5895 117.027 78.8082C116.536 79.0241 115.941 79.1321 115.242 79.1321C114.563 79.1321 113.973 79.027 113.473 78.8168C112.976 78.6065 112.587 78.2997 112.306 77.8963C112.027 77.4929 111.877 77.0014 111.854 76.4219H113.409C113.432 76.7259 113.526 76.9787 113.691 77.1804C113.855 77.3821 114.07 77.5327 114.334 77.6321C114.601 77.7315 114.9 77.7812 115.229 77.7812C115.573 77.7812 115.874 77.7301 116.132 77.6278C116.394 77.5227 116.598 77.3778 116.746 77.1932C116.894 77.0057 116.969 76.7869 116.972 76.5369C116.969 76.3097 116.902 76.1222 116.772 75.9744C116.641 75.8239 116.458 75.6989 116.222 75.5994C115.989 75.4972 115.716 75.4062 115.404 75.3267L114.411 75.071C113.692 74.8864 113.124 74.6065 112.706 74.2315C112.292 73.8537 112.084 73.3523 112.084 72.7273C112.084 72.2131 112.223 71.7628 112.502 71.3764C112.783 70.9901 113.165 70.6903 113.648 70.4773C114.131 70.2614 114.678 70.1534 115.289 70.1534C115.908 70.1534 116.451 70.2614 116.917 70.4773C117.385 70.6903 117.753 70.9872 118.02 71.3679C118.287 71.7457 118.425 72.1804 118.434 72.6719H116.912ZM119.962 79V70.2727H125.638V71.598H121.543V73.9673H125.344V75.2926H121.543V77.6747H125.673V79H119.962ZM127.251 79V70.2727H130.524C131.195 70.2727 131.757 70.3892 132.212 70.6222C132.669 70.8551 133.014 71.1818 133.247 71.6023C133.483 72.0199 133.601 72.5071 133.601 73.0639C133.601 73.6236 133.482 74.1094 133.243 74.5213C133.007 74.9304 132.659 75.2472 132.199 75.4716C131.739 75.6932 131.173 75.804 130.503 75.804H128.172V74.4915H130.29C130.682 74.4915 131.003 74.4375 131.253 74.3295C131.503 74.2187 131.688 74.0582 131.807 73.848C131.929 73.6349 131.99 73.3736 131.99 73.0639C131.99 72.7543 131.929 72.4901 131.807 72.2713C131.685 72.0497 131.499 71.8821 131.249 71.7685C130.999 71.652 130.676 71.5938 130.281 71.5938H128.832V79H127.251ZM131.76 75.0455L133.92 79H132.156L130.034 75.0455H131.76ZM139.153 79H137.466L140.538 70.2727H142.49L145.567 79H143.879L141.548 72.0625H141.48L139.153 79ZM139.209 75.5781H143.811V76.848H139.209V75.5781ZM152.153 73.0597C152.082 72.8295 151.984 72.6236 151.859 72.4418C151.737 72.2571 151.589 72.0994 151.415 71.9688C151.245 71.8381 151.049 71.7401 150.827 71.6747C150.606 71.6065 150.364 71.5724 150.103 71.5724C149.634 71.5724 149.217 71.6903 148.85 71.9261C148.484 72.1619 148.195 72.5085 147.985 72.9659C147.778 73.4205 147.674 73.9744 147.674 74.6278C147.674 75.2869 147.778 75.8452 147.985 76.3026C148.192 76.7599 148.481 77.108 148.85 77.3466C149.219 77.5824 149.648 77.7003 150.137 77.7003C150.58 77.7003 150.964 77.6151 151.288 77.4446C151.614 77.2741 151.866 77.0327 152.042 76.7202C152.218 76.4048 152.306 76.0355 152.306 75.6122L152.664 75.6676H150.295V74.4318H153.836V75.4801C153.836 76.2273 153.677 76.8736 153.359 77.419C153.04 77.9645 152.603 78.3849 152.046 78.6804C151.489 78.973 150.85 79.1193 150.129 79.1193C149.325 79.1193 148.619 78.9389 148.011 78.5781C147.406 78.2145 146.933 77.6989 146.592 77.0312C146.254 76.3608 146.085 75.5653 146.085 74.6449C146.085 73.9403 146.184 73.3111 146.383 72.7571C146.585 72.2031 146.866 71.733 147.227 71.3466C147.587 70.9574 148.011 70.6619 148.496 70.4602C148.982 70.2557 149.511 70.1534 150.082 70.1534C150.565 70.1534 151.015 70.2244 151.433 70.3665C151.85 70.5057 152.221 70.7045 152.545 70.9631C152.871 71.2216 153.14 71.5284 153.35 71.8835C153.56 72.2386 153.698 72.6307 153.763 73.0597H152.153ZM155.365 79V70.2727H158.637C159.308 70.2727 159.87 70.3892 160.325 70.6222C160.782 70.8551 161.127 71.1818 161.36 71.6023C161.596 72.0199 161.714 72.5071 161.714 73.0639C161.714 73.6236 161.595 74.1094 161.356 74.5213C161.12 74.9304 160.772 75.2472 160.312 75.4716C159.852 75.6932 159.287 75.804 158.616 75.804H156.285V74.4915H158.403C158.795 74.4915 159.116 74.4375 159.366 74.3295C159.616 74.2187 159.801 74.0582 159.92 73.848C160.042 73.6349 160.103 73.3736 160.103 73.0639C160.103 72.7543 160.042 72.4901 159.92 72.2713C159.798 72.0497 159.612 71.8821 159.362 71.7685C159.112 71.652 158.789 71.5938 158.395 71.5938H156.946V79H155.365ZM159.873 75.0455L162.034 79H160.27L158.147 75.0455H159.873ZM163.169 79V70.2727H168.846V71.598H164.75V73.9673H168.551V75.2926H164.75V77.6747H168.88V79H163.169ZM170.458 79V70.2727H176.135V71.598H172.039V73.9673H175.841V75.2926H172.039V77.6747H176.169V79H170.458ZM177.748 70.2727H179.682L182.273 76.5966H182.375L184.966 70.2727H186.901V79H185.384V73.0043H185.303L182.891 78.9744H181.757L179.346 72.9915H179.265V79H177.748V70.2727ZM188.623 79V70.2727H194.299V71.598H190.203V73.9673H194.005V75.2926H190.203V77.6747H194.333V79H188.623ZM203.083 70.2727V79H201.677L197.565 73.0554H197.493V79H195.912V70.2727H197.326L201.434 76.2216H201.511V70.2727H203.083ZM204.423 71.598V70.2727H211.386V71.598H208.688V79H207.12V71.598H204.423Z" fill="#3F4450"/>
<path d="M150.844 48.8531V51.2105C150.88 51.6762 150.736 52.138 150.441 52.5C150.31 52.64 150.152 52.7507 149.975 52.8247C149.799 52.8987 149.609 52.9342 149.417 52.929C149.229 52.9345 149.041 52.8984 148.868 52.8234C148.694 52.7483 148.54 52.6361 148.415 52.4947C148.128 52.1313 147.988 51.6738 148.022 51.2123V43.35C148.022 42.082 148.48 41.4478 149.397 41.4474C149.59 41.4303 149.783 41.462 149.961 41.5396C150.138 41.6173 150.292 41.7384 150.41 41.8917C150.645 42.2886 150.763 42.7436 150.751 43.2046C151.021 42.7111 151.372 42.2671 151.791 41.8917C152.196 41.5788 152.7 41.4212 153.212 41.4474C153.816 41.4502 154.409 41.6029 154.939 41.8917C155.177 41.9863 155.384 42.148 155.532 42.3573C155.681 42.5666 155.766 42.8145 155.776 43.071C155.781 43.2304 155.752 43.389 155.69 43.5362C155.628 43.6833 155.536 43.8157 155.419 43.9244C155.217 44.1333 154.94 44.2539 154.649 44.2602C154.393 44.2241 154.142 44.16 153.9 44.0691C153.562 43.9519 153.207 43.8874 152.85 43.8781C152.484 43.8624 152.125 43.978 151.836 44.204C151.547 44.4632 151.336 44.7979 151.226 45.1705C151.068 45.6652 150.968 46.1766 150.927 46.6944C150.871 47.2856 150.844 48.0052 150.844 48.8531Z" fill="#EF4B46"/>
<path d="M88.2688 39.2678L91.7012 49.4301L95.1447 39.1939C95.3236 38.6563 95.458 38.2823 95.5479 38.0721C95.6474 37.8492 95.7999 37.654 95.9922 37.5035C96.2366 37.3225 96.5366 37.2327 96.8403 37.2497C97.0964 37.2485 97.3481 37.3163 97.5689 37.4461C97.7872 37.5713 97.969 37.7513 98.0964 37.9683C98.2185 38.166 98.2847 38.3931 98.2881 38.6254C98.2863 38.7908 98.2655 38.9554 98.2259 39.116C98.1848 39.2912 98.1331 39.4639 98.0712 39.6329C98.0091 39.8017 97.9469 39.9758 97.8848 40.1552L94.2145 50.0607C94.0832 50.4398 93.9521 50.7998 93.8212 51.141C93.7033 51.4568 93.5508 51.7585 93.3663 52.0407C93.1898 52.3039 92.9541 52.5223 92.6782 52.6784C92.3565 52.8526 91.9942 52.9381 91.6285 52.9263C91.2634 52.9379 90.9016 52.8543 90.5787 52.6836C90.2999 52.5283 90.0623 52.3084 89.8859 52.0424C89.7004 51.7584 89.5461 51.4552 89.4258 51.138C89.2949 50.8004 89.1638 50.4419 89.0325 50.0625L85.4249 40.2402C85.3634 40.0608 85.2989 39.885 85.2338 39.7127C85.1656 39.5308 85.1104 39.3443 85.0685 39.1547C85.0273 38.9879 85.0043 38.8171 85 38.6453C85.0027 38.4647 85.0416 38.2866 85.1145 38.1213C85.1874 37.9561 85.2928 37.8072 85.4243 37.6835C85.562 37.5411 85.7278 37.429 85.9111 37.3542C86.0945 37.2795 86.2914 37.2437 86.4893 37.2492C86.7005 37.2275 86.9138 37.2603 87.1087 37.3444C87.3037 37.4286 87.4738 37.5612 87.603 37.7298C87.8914 38.211 88.1153 38.7281 88.2688 39.2678Z" fill="#F17A39"/>
<path d="M118.657 44.6849L113.487 50.4647H119.018C119.383 50.4382 119.745 50.5511 120.031 50.7807C120.142 50.8834 120.231 51.0091 120.29 51.1493C120.349 51.2894 120.377 51.4405 120.372 51.5924C120.376 51.7385 120.349 51.8837 120.291 52.0178C120.232 52.1518 120.145 52.2714 120.036 52.3679C119.745 52.5895 119.382 52.6963 119.017 52.668H111.367C110.936 52.7013 110.508 52.5762 110.162 52.3163C109.93 52.1032 109.788 51.809 109.767 51.4945C109.745 51.18 109.845 50.8691 110.045 50.6259C110.232 50.3813 110.618 49.9319 111.203 49.2778C111.824 48.5889 112.388 47.9651 112.894 47.4063C113.401 46.8475 113.872 46.3253 114.306 45.8396C114.74 45.3539 115.1 44.942 115.386 44.6041C115.672 44.2661 115.901 43.9765 116.074 43.7354H111.876C111.433 43.7531 110.99 43.7007 110.563 43.5801C110.266 43.4769 110.118 43.2046 110.119 42.763C110.113 42.6168 110.14 42.4712 110.198 42.3369C110.256 42.2026 110.344 42.0832 110.454 41.9876C110.727 41.7783 111.066 41.6746 111.409 41.6957H117.892C118.366 41.67 118.84 41.7605 119.272 41.9594C119.434 42.0548 119.566 42.1947 119.651 42.3624C119.736 42.5302 119.771 42.7188 119.753 42.906C119.751 43.0667 119.719 43.2256 119.659 43.3749C119.608 43.5161 119.539 43.6499 119.453 43.7729C119.377 43.8761 119.273 44.0019 119.142 44.1504C119.011 44.2989 118.849 44.4771 118.657 44.6849Z" fill="#F48046"/>
<path d="M123.444 40.1371C123.075 40.1457 122.716 40.0168 122.436 39.7755C122.303 39.6438 122.197 39.4868 122.125 39.3137C122.054 39.1407 122.017 38.9551 122.018 38.7677C122.019 38.5804 122.058 38.3952 122.131 38.2229C122.205 38.0506 122.312 37.8948 122.446 37.7645C122.717 37.5125 123.073 37.3738 123.443 37.377C123.799 37.3735 124.144 37.4984 124.415 37.7287C124.56 37.8554 124.673 38.0136 124.746 38.1911C124.82 38.3685 124.852 38.5604 124.839 38.7521C124.849 38.9418 124.818 39.1314 124.746 39.3074C124.675 39.4834 124.565 39.6414 124.425 39.7702C124.156 40.0123 123.806 40.1434 123.444 40.1371ZM124.84 43.0531V51.212C124.874 51.6752 124.73 52.134 124.436 52.4944C124.307 52.636 124.149 52.7481 123.972 52.823C123.795 52.898 123.605 52.934 123.413 52.9287C123.222 52.9348 123.033 52.898 122.858 52.8211C122.684 52.7442 122.529 52.6292 122.405 52.4845C122.125 52.122 121.987 51.6696 122.017 51.2126V43.1357C121.983 42.6815 122.122 42.2312 122.405 41.8744C122.532 41.7349 122.688 41.6248 122.862 41.5516C123.036 41.4784 123.224 41.444 123.413 41.4506C123.604 41.445 123.794 41.4798 123.97 41.5528C124.147 41.6259 124.305 41.7355 124.436 41.8744C124.721 42.1989 124.866 42.6224 124.84 43.0531H124.84Z" fill="#F07A4F"/>
<path d="M127.91 41.6982H128.221V40.0031C128.221 39.5483 128.233 39.1915 128.257 38.9329C128.274 38.6983 128.343 38.4704 128.459 38.2659C128.573 38.0699 128.737 37.908 128.935 37.797C129.145 37.6752 129.384 37.6127 129.628 37.6158C129.992 37.618 130.34 37.7626 130.599 38.0185C130.789 38.1924 130.918 38.4228 130.967 38.6756C131.027 39.0395 131.053 39.4082 131.044 39.7769V41.7H132.078C132.408 41.6771 132.734 41.7785 132.993 41.9842C133.096 42.0753 133.177 42.1878 133.232 42.3138C133.286 42.4398 133.312 42.5762 133.308 42.7134C133.322 42.8758 133.286 43.0384 133.206 43.1803C133.126 43.3222 133.005 43.4368 132.859 43.5093C132.452 43.6821 132.011 43.76 131.569 43.7373H131.042V48.9281C131.037 49.2681 131.053 49.6081 131.089 49.9462C131.109 50.1603 131.196 50.3627 131.337 50.5253C131.424 50.6064 131.528 50.6681 131.641 50.7064C131.754 50.7447 131.874 50.7587 131.993 50.7474C132.22 50.7399 132.445 50.7105 132.665 50.6595C132.883 50.6091 133.104 50.5796 133.327 50.5716C133.443 50.5731 133.557 50.5981 133.663 50.6451C133.768 50.6922 133.863 50.7603 133.942 50.8453C134.032 50.9335 134.102 51.039 134.149 51.1554C134.196 51.2718 134.219 51.3967 134.216 51.5223C134.212 51.7512 134.139 51.9736 134.006 52.16C133.873 52.3465 133.687 52.4883 133.472 52.5668C132.793 52.8417 132.063 52.9651 131.331 52.9284C130.634 52.9727 129.939 52.8187 129.326 52.4841C128.882 52.2028 128.562 51.7625 128.431 51.2533C128.272 50.5654 128.201 49.8601 128.22 49.1543V43.7356H127.847C127.512 43.7588 127.18 43.6555 126.917 43.446C126.813 43.3546 126.731 43.2415 126.675 43.1148C126.62 42.988 126.593 42.8505 126.597 42.7122C126.593 42.5731 126.622 42.435 126.68 42.3086C126.739 42.1822 126.825 42.0709 126.933 41.9831C127.215 41.7751 127.561 41.6742 127.91 41.6982Z" fill="#EB674C"/>
<path d="M145.819 47.1889C145.827 47.9816 145.694 48.7694 145.425 49.5152C145.18 50.199 144.793 50.8229 144.288 51.3457C143.786 51.8591 143.18 52.2589 142.51 52.518C141.767 52.8005 140.978 52.9397 140.184 52.9283C139.396 52.9405 138.613 52.8 137.878 52.5144C137.207 52.2488 136.601 51.8437 136.099 51.3259C135.598 50.8081 135.212 50.1895 134.967 49.5111C134.701 48.7666 134.57 47.9806 134.58 47.1901C134.571 46.3914 134.704 45.5975 134.973 44.8456C135.216 44.1672 135.6 43.5479 136.1 43.0286C136.602 42.5173 137.208 42.1206 137.878 41.8657C139.373 41.3197 141.014 41.3215 142.508 41.871C143.183 42.1303 143.793 42.5326 144.297 43.0502C144.802 43.5678 145.188 44.1885 145.43 44.8696C145.695 45.6137 145.827 46.3989 145.819 47.1889ZM142.986 47.1889C143.043 46.2323 142.775 45.2846 142.224 44.5003C141.985 44.1892 141.674 43.9397 141.319 43.7724C140.964 43.6052 140.574 43.525 140.182 43.5385C139.663 43.5287 139.154 43.6787 138.724 43.9681C138.28 44.2835 137.942 44.7245 137.752 45.2342C137.299 46.4902 137.297 47.8647 137.747 49.1219C137.937 49.629 138.271 50.0693 138.708 50.3886C139.141 50.6861 139.657 50.8397 140.182 50.8276C140.575 50.8412 140.965 50.7606 141.32 50.5924C141.676 50.4243 141.985 50.1735 142.224 49.8611C142.772 49.0819 143.041 48.1401 142.986 47.1889Z" fill="#EE5449"/>
<path d="M102.098 42.7211C101.739 42.9988 101.398 43.2978 101.077 43.6167C100.91 43.8207 100.8 44.0652 100.758 44.3253C100.643 44.9566 100.582 45.5978 100.493 46.2337C100.47 46.3974 100.384 46.5454 100.253 46.6462C100.122 46.747 99.957 46.7925 99.7929 46.773C99.7087 46.7661 99.6269 46.7418 99.5525 46.7017C99.4782 46.6617 99.4129 46.6067 99.3609 46.5402C99.3088 46.4737 99.271 46.3971 99.25 46.3154C99.2289 46.2336 99.225 46.1483 99.2384 46.0649C99.3357 45.2315 99.4441 44.3997 99.5438 43.5663C99.58 43.2489 99.7393 42.9585 99.9875 42.7574C100.539 42.2885 101.085 41.8161 101.649 41.3642C102.187 40.9005 102.877 40.6519 103.587 40.6661C103.821 40.6539 104.054 40.7134 104.254 40.8366C104.454 40.9598 104.611 41.141 104.706 41.356C104.978 41.9256 105.207 42.5145 105.393 43.1179C105.461 43.4007 105.598 43.6625 105.791 43.8802C105.984 44.098 106.227 44.2651 106.5 44.3669C106.981 44.5715 107.449 44.803 107.921 45.0292C108.066 45.0958 108.18 45.2169 108.238 45.3665C108.295 45.516 108.292 45.6822 108.228 45.8293C108.199 45.9027 108.154 45.9692 108.098 46.0245C108.041 46.0799 107.974 46.1231 107.9 46.1512C107.826 46.1794 107.747 46.192 107.668 46.1882C107.589 46.1845 107.511 46.1645 107.44 46.1294C106.669 45.7795 105.89 45.4378 105.142 45.0433C104.899 44.8685 104.691 44.6498 104.528 44.3986C104.454 44.2675 104.368 44.1432 104.271 44.027C104.167 44.534 104.096 45.0521 103.949 45.5462C103.887 45.7486 103.875 45.963 103.914 46.1711C103.952 46.3792 104.041 46.5749 104.172 46.7413C105.174 48.267 106.142 49.8226 107.117 51.3735C107.191 51.4718 107.244 51.5844 107.271 51.7042C107.299 51.8239 107.302 51.9482 107.279 52.069C107.256 52.1898 107.209 52.3046 107.139 52.406C107.07 52.5074 106.98 52.5931 106.875 52.6578C106.77 52.7225 106.654 52.7646 106.532 52.7816C106.41 52.7986 106.286 52.79 106.168 52.7564C106.049 52.7228 105.939 52.665 105.845 52.5865C105.75 52.5081 105.673 52.4107 105.618 52.3007C104.831 51.0535 104.038 49.8109 103.252 48.5642C102.702 47.6944 102.153 46.8246 101.62 45.9448C101.541 45.8021 101.512 45.637 101.538 45.4759C101.705 44.585 101.895 43.6952 102.098 42.7211Z" fill="#444444"/>
<path d="M106.388 52.9812C106.194 52.9774 106.005 52.9217 105.84 52.8198C105.675 52.7179 105.54 52.5737 105.45 52.4021C105.043 51.7562 104.634 51.1115 104.225 50.4679C103.844 49.8681 103.464 49.2679 103.084 48.6673L103.059 48.6275C102.527 47.7846 101.976 46.9125 101.45 46.0444C101.347 45.8616 101.309 45.649 101.344 45.4419C101.469 44.7754 101.606 44.1131 101.754 43.4127L101.793 43.2251C101.589 43.3849 101.396 43.5598 101.218 43.7486C101.075 43.9255 100.982 44.137 100.946 44.3616C100.874 44.7596 100.823 45.1705 100.773 45.5691C100.744 45.8006 100.715 46.0321 100.683 46.2636C100.651 46.4772 100.538 46.6702 100.367 46.8016C100.195 46.933 99.9796 46.9923 99.7653 46.967C99.6559 46.9568 99.5498 46.9244 99.4534 46.8718C99.357 46.8191 99.2723 46.7474 99.2046 46.6609C99.1369 46.5745 99.0876 46.4751 99.0596 46.3689C99.0316 46.2626 99.0256 46.1518 99.042 46.0432C99.0986 45.5583 99.1573 45.0736 99.2178 44.5891C99.2612 44.2409 99.3046 43.8922 99.3462 43.544C99.3888 43.1761 99.5737 42.8395 99.8614 42.6062L100.304 42.2305C100.701 41.8923 101.112 41.543 101.527 41.2106C102.1 40.7152 102.837 40.4509 103.595 40.4692C103.866 40.4568 104.135 40.5272 104.365 40.6712C104.596 40.8151 104.777 41.0258 104.884 41.2751L104.957 41.438C105.205 41.9637 105.414 42.5072 105.581 43.064C105.642 43.3184 105.765 43.554 105.938 43.7496C106.112 43.9452 106.332 44.0948 106.577 44.1852C106.979 44.3564 107.377 44.548 107.762 44.7332L108.006 44.8505C108.198 44.9391 108.347 45.099 108.422 45.2961C108.497 45.4933 108.492 45.712 108.408 45.9055C108.368 46.0024 108.309 46.0902 108.234 46.1633C108.158 46.2365 108.069 46.2935 107.971 46.3309C107.873 46.3684 107.768 46.3854 107.664 46.381C107.559 46.3765 107.456 46.3508 107.361 46.3052L107.074 46.1763C106.405 45.875 105.712 45.5638 105.051 45.2133C104.831 45.0752 104.643 44.8913 104.5 44.674C104.46 44.6213 104.419 44.5685 104.378 44.5187L104.375 44.5134V44.5217C104.315 44.8842 104.236 45.2433 104.137 45.5972C104.083 45.7725 104.073 45.9583 104.108 46.1384C104.142 46.3185 104.221 46.4873 104.336 46.63C105.165 47.8983 105.985 49.2019 106.777 50.4621L107.283 51.2668C107.391 51.4282 107.458 51.6141 107.476 51.8077C107.494 52.0013 107.464 52.1964 107.387 52.3752C107.311 52.5361 107.194 52.675 107.049 52.7785C106.904 52.8821 106.735 52.947 106.558 52.9672C106.502 52.9761 106.445 52.9808 106.388 52.9812ZM102.402 42.2035L102.288 42.7603C102.237 43.0089 102.187 43.2515 102.137 43.4901C101.993 44.1893 101.855 44.8493 101.732 45.5116C101.715 45.6251 101.735 45.741 101.79 45.8416C102.314 46.7067 102.864 47.5771 103.395 48.4206L103.42 48.4604C103.796 49.0598 104.175 49.6589 104.557 50.2575C104.966 50.9026 105.375 51.5474 105.783 52.1917C105.846 52.3249 105.95 52.4346 106.079 52.5046C106.209 52.5746 106.357 52.6014 106.503 52.5809C106.616 52.5701 106.725 52.5302 106.818 52.4652C106.911 52.4002 106.986 52.3123 107.035 52.2099C107.085 52.0901 107.104 51.9596 107.09 51.8306C107.076 51.7016 107.029 51.5782 106.955 51.4719L106.447 50.6678C105.655 49.4088 104.836 48.1064 104.009 46.8415C103.864 46.6509 103.766 46.4286 103.723 46.1927C103.68 45.9569 103.694 45.7143 103.763 45.4847C103.857 45.1442 103.934 44.7989 103.991 44.4501C104.02 44.2937 104.05 44.1372 104.081 43.9812L104.151 43.6425L104.404 43.8769C104.485 43.957 104.553 44.0496 104.605 44.1512C104.626 44.1923 104.651 44.2315 104.678 44.2684C104.722 44.3224 104.765 44.3781 104.808 44.4343C104.92 44.6048 105.064 44.7515 105.233 44.8663C105.883 45.2109 106.57 45.5192 107.234 45.8182L107.521 45.9477C107.569 45.9721 107.621 45.9863 107.674 45.9893C107.728 45.9923 107.781 45.984 107.831 45.9651C107.881 45.9462 107.927 45.9169 107.965 45.8793C108.003 45.8417 108.033 45.7965 108.053 45.7467C108.096 45.6457 108.099 45.5315 108.058 45.4291C108.018 45.3266 107.939 45.2441 107.839 45.1998L107.594 45.0826C107.213 44.8991 106.819 44.7092 106.426 44.5416C106.126 44.4288 105.858 44.2444 105.646 44.0046C105.434 43.7647 105.283 43.4766 105.207 43.1654C105.045 42.6275 104.843 42.1025 104.603 41.5945L104.53 41.431C104.451 41.2494 104.317 41.0969 104.147 40.9941C103.977 40.8913 103.78 40.8433 103.582 40.8566C102.918 40.8441 102.273 41.0777 101.772 41.5125C101.361 41.8413 100.951 42.1889 100.558 42.5253C100.411 42.6511 100.263 42.7768 100.115 42.9022C99.9023 43.0713 99.7657 43.3177 99.7348 43.5874C99.6926 43.9363 99.6496 44.2852 99.6058 44.6342C99.5472 45.1177 99.4886 45.6013 99.43 46.0854C99.4197 46.1436 99.4218 46.2032 99.4361 46.2605C99.4504 46.3177 99.4766 46.3714 99.513 46.4178C99.5494 46.4643 99.5951 46.5026 99.6473 46.5303C99.6994 46.558 99.7568 46.5743 99.8157 46.5784C99.9291 46.5914 100.043 46.5596 100.134 46.4898C100.224 46.4199 100.283 46.3175 100.299 46.2044C100.332 45.9758 100.358 45.7461 100.389 45.5169C100.44 45.1136 100.491 44.6963 100.565 44.286C100.613 43.9901 100.739 43.7123 100.93 43.4819C101.146 43.2568 101.379 43.0485 101.626 42.8588C101.736 42.7685 101.852 42.6748 101.97 42.5728L102.402 42.2035Z" fill="#444444"/>
<path d="M101.253 47.0742C101.651 47.6058 102.015 48.0935 102.379 48.5853C102.394 48.6092 102.405 48.6361 102.41 48.6643C102.415 48.6925 102.414 48.7215 102.408 48.7494C102.317 49.2842 102.124 49.7966 101.84 50.2586C101.286 50.9556 100.774 51.6859 100.242 52.3992C100.186 52.4966 100.111 52.5812 100.021 52.6473C99.9305 52.7134 99.8271 52.7595 99.7175 52.7826C99.608 52.8056 99.4948 52.8051 99.3854 52.7811C99.2761 52.757 99.1731 52.7099 99.0834 52.643C98.9942 52.5757 98.9202 52.4905 98.8659 52.3928C98.8117 52.2952 98.7785 52.1873 98.7685 52.076C98.7585 51.9648 98.7719 51.8526 98.8079 51.7469C98.8439 51.6411 98.9016 51.5441 98.9773 51.462C99.482 50.7762 99.9954 50.0969 100.492 49.4058C100.605 49.245 100.69 49.0668 100.744 48.8783C100.918 48.3039 101.072 47.7207 101.253 47.0742Z" fill="#444444"/>
<path d="M99.5472 53.0002C99.3385 52.9967 99.1363 52.9269 98.9699 52.8009C98.8681 52.7301 98.7816 52.6395 98.7158 52.5344C98.6499 52.4294 98.6059 52.3121 98.5866 52.1896C98.5679 52.0407 98.5791 51.8895 98.6193 51.7449C98.6596 51.6004 98.7281 51.4652 98.821 51.3473C99.0019 51.1015 99.1838 50.856 99.3667 50.6106C99.6861 50.1803 100.017 49.7349 100.335 49.2935C100.434 49.1503 100.51 48.992 100.558 48.8246C100.683 48.4143 100.796 48.0005 100.917 47.5621L101.066 47.0229L101.173 46.6431L101.656 47.2878C101.96 47.6952 102.25 48.0808 102.535 48.4694C102.569 48.5178 102.592 48.5732 102.602 48.6314C102.612 48.6897 102.609 48.7494 102.593 48.8065C102.553 48.9366 102.519 49.0679 102.485 49.2062C102.409 49.6285 102.241 50.0288 101.992 50.3785C101.623 50.8432 101.265 51.3321 100.919 51.8051C100.743 52.0395 100.573 52.2793 100.398 52.5143C100.304 52.6568 100.179 52.7751 100.031 52.8596C99.8831 52.9441 99.7173 52.9923 99.5472 53.0002ZM101.335 47.5076L101.292 47.6653C101.17 48.1055 101.057 48.5222 100.93 48.9366C100.87 49.1459 100.775 49.3439 100.65 49.5227C100.331 49.967 99.9997 50.413 99.6785 50.845C99.4968 51.0896 99.3153 51.3348 99.134 51.5806C99.0719 51.6573 99.0255 51.7455 98.9976 51.8401C98.9696 51.9348 98.9606 52.034 98.971 52.1321C98.9828 52.2037 99.0089 52.2722 99.0478 52.3334C99.0866 52.3947 99.1375 52.4474 99.1973 52.4885C99.2669 52.5399 99.3467 52.5757 99.4314 52.5934C99.5161 52.6111 99.6036 52.6103 99.6879 52.5911C99.7723 52.5719 99.8515 52.5347 99.9202 52.4821C99.9888 52.4295 100.045 52.3627 100.086 52.2863C100.261 52.0518 100.434 51.8162 100.606 51.5794C100.954 51.1035 101.314 50.6111 101.688 50.1405C101.901 49.8332 102.044 49.4832 102.108 49.1148C102.141 48.98 102.177 48.841 102.219 48.7045V48.6951C101.939 48.3153 101.651 47.9302 101.347 47.5228L101.335 47.5076Z" fill="#444444"/>
<path d="M105.846 38.6274C105.846 38.9258 105.758 39.2176 105.592 39.4656C105.426 39.7136 105.19 39.9066 104.914 40.0201C104.638 40.1335 104.334 40.1623 104.042 40.1027C103.749 40.0432 103.481 39.898 103.272 39.6856C103.062 39.4732 102.92 39.2032 102.864 38.9101C102.809 38.6169 102.841 38.3138 102.958 38.0392C103.075 37.7647 103.271 37.5312 103.522 37.3684C103.772 37.2056 104.065 37.121 104.363 37.1251C104.757 37.1323 105.133 37.2935 105.41 37.5742C105.687 37.855 105.844 38.2329 105.846 38.6274Z" fill="#444444"/>
<path d="M104.343 40.3326C103.892 40.3277 103.46 40.1449 103.143 39.824C102.825 39.503 102.647 39.0698 102.646 38.6182C102.667 38.1813 102.856 37.7692 103.173 37.4678C103.49 37.1664 103.911 36.9989 104.349 37C104.786 37.0011 105.206 37.1709 105.522 37.4739C105.837 37.7769 106.024 38.1899 106.042 38.627C106.043 39.0784 105.864 39.5116 105.545 39.8313C105.227 40.1511 104.794 40.3314 104.343 40.3326H104.343ZM104.348 37.3193C104.002 37.3204 103.67 37.4575 103.423 37.7012C103.177 37.9448 103.037 38.2755 103.033 38.6217C103.034 38.9695 103.172 39.3027 103.417 39.5497C103.662 39.7968 103.994 39.9379 104.341 39.9428C104.689 39.9407 105.022 39.801 105.267 39.5542C105.513 39.3075 105.65 38.9737 105.65 38.6258C105.649 38.2824 105.514 37.9531 105.273 37.7085C105.032 37.464 104.704 37.3239 104.361 37.3182L104.348 37.3193Z" fill="#444444"/>
<defs>
<filter id="filter0_d_489_2217" x="29.0708" y="407.887" width="181.989" height="62.0738" filterUnits="userSpaceOnUse" color-interpolation-filters="sRGB">
<feFlood flood-opacity="0" result="BackgroundImageFix"/>
<feColorMatrix in="SourceAlpha" type="matrix" values="0 0 0 0 0 0 0 0 0 0 0 0 0 0 0 0 0 0 127 0" result="hardAlpha"/>
<feOffset dy="10.8159"/>
<feGaussianBlur stdDeviation="8.46461"/>
<feColorMatrix type="matrix" values="0 0 0 0 0 0 0 0 0 0 0 0 0 0 0 0 0 0 0.012 0"/>
<feBlend mode="normal" in2="BackgroundImageFix" result="effect1_dropShadow_489_2217"/>
<feBlend mode="normal" in="SourceGraphic" in2="effect1_dropShadow_489_2217" result="shape"/>
</filter>
</defs>
</svg>
