<svg width="321" height="619" viewBox="0 0 321 619" fill="none" xmlns="http://www.w3.org/2000/svg">
<rect x="8" y="8" width="305" height="603" rx="48" fill="#FCFCFC" stroke="#E2E2E2" stroke-width="15"/>
<rect x="90" y="5" width="142" height="23" rx="10" fill="#E2E2E2"/>
<path d="M48.7045 66.3636L51.733 75.5227H51.8523L54.875 66.3636H57.1932L53.0909 78H50.4886L46.392 66.3636H48.7045ZM58.6349 78V69.2727H60.6918V78H58.6349ZM59.669 68.0341C59.3433 68.0341 59.063 67.9261 58.8281 67.7102C58.5933 67.4905 58.4759 67.2273 58.4759 66.9205C58.4759 66.6098 58.5933 66.3466 58.8281 66.1307C59.063 65.911 59.3433 65.8011 59.669 65.8011C59.9986 65.8011 60.2789 65.911 60.5099 66.1307C60.7448 66.3466 60.8622 66.6098 60.8622 66.9205C60.8622 67.2273 60.7448 67.4905 60.5099 67.7102C60.2789 67.9261 59.9986 68.0341 59.669 68.0341ZM69.7045 71.5795L67.8295 71.7841C67.7765 71.5947 67.6837 71.4167 67.5511 71.25C67.4223 71.0833 67.2481 70.9489 67.0284 70.8466C66.8087 70.7443 66.5398 70.6932 66.2216 70.6932C65.7936 70.6932 65.4337 70.786 65.142 70.9716C64.8542 71.1572 64.7121 71.3977 64.7159 71.6932C64.7121 71.947 64.8049 72.1534 64.9943 72.3125C65.1875 72.4716 65.5057 72.6023 65.9489 72.7045L67.4375 73.0227C68.2633 73.2008 68.8769 73.483 69.2784 73.8693C69.6837 74.2557 69.8883 74.7614 69.892 75.3864C69.8883 75.9356 69.7273 76.4205 69.4091 76.8409C69.0947 77.2576 68.6572 77.5833 68.0966 77.8182C67.536 78.053 66.892 78.1705 66.1648 78.1705C65.0966 78.1705 64.2367 77.947 63.5852 77.5C62.9337 77.0492 62.5455 76.4223 62.4205 75.6193L64.4261 75.4261C64.517 75.8201 64.7102 76.1174 65.0057 76.3182C65.3011 76.5189 65.6856 76.6193 66.1591 76.6193C66.6477 76.6193 67.0398 76.5189 67.3352 76.3182C67.6345 76.1174 67.7841 75.8693 67.7841 75.5739C67.7841 75.3239 67.6875 75.1174 67.4943 74.9545C67.3049 74.7917 67.0095 74.6667 66.608 74.5795L65.1193 74.267C64.2822 74.0928 63.6629 73.7992 63.2614 73.3864C62.8598 72.9697 62.661 72.4432 62.6648 71.8068C62.661 71.2689 62.8068 70.803 63.1023 70.4091C63.4015 70.0114 63.8163 69.7045 64.3466 69.4886C64.8807 69.2689 65.4962 69.1591 66.1932 69.1591C67.2159 69.1591 68.0208 69.3769 68.608 69.8125C69.1989 70.2481 69.5644 70.8371 69.7045 71.5795ZM71.5881 78V69.2727H73.6449V78H71.5881ZM72.6222 68.0341C72.2964 68.0341 72.0161 67.9261 71.7812 67.7102C71.5464 67.4905 71.429 67.2273 71.429 66.9205C71.429 66.6098 71.5464 66.3466 71.7812 66.1307C72.0161 65.911 72.2964 65.8011 72.6222 65.8011C72.9517 65.8011 73.232 65.911 73.4631 66.1307C73.6979 66.3466 73.8153 66.6098 73.8153 66.9205C73.8153 67.2273 73.6979 67.4905 73.4631 67.7102C73.232 67.9261 72.9517 68.0341 72.6222 68.0341ZM80.1179 69.2727V70.8636H75.1009V69.2727H80.1179ZM76.3395 67.1818H78.3963V75.375C78.3963 75.6515 78.438 75.8636 78.5213 76.0114C78.6084 76.1553 78.7221 76.2538 78.8622 76.3068C79.0024 76.3598 79.1577 76.3864 79.3281 76.3864C79.4569 76.3864 79.5743 76.3769 79.6804 76.358C79.7902 76.339 79.8736 76.322 79.9304 76.3068L80.277 77.9148C80.1671 77.9527 80.0099 77.9943 79.8054 78.0398C79.6046 78.0852 79.3584 78.1117 79.0668 78.1193C78.5516 78.1345 78.0876 78.0568 77.6747 77.8864C77.2618 77.7121 76.9342 77.4432 76.6918 77.0795C76.4531 76.7159 76.3357 76.2614 76.3395 75.7159V67.1818ZM85.5511 78.1705C84.6989 78.1705 83.9602 77.983 83.3352 77.608C82.7102 77.233 82.2254 76.7083 81.8807 76.0341C81.5398 75.3598 81.3693 74.572 81.3693 73.6705C81.3693 72.7689 81.5398 71.9792 81.8807 71.3011C82.2254 70.6231 82.7102 70.0966 83.3352 69.7216C83.9602 69.3466 84.6989 69.1591 85.5511 69.1591C86.4034 69.1591 87.142 69.3466 87.767 69.7216C88.392 70.0966 88.875 70.6231 89.2159 71.3011C89.5606 71.9792 89.733 72.7689 89.733 73.6705C89.733 74.572 89.5606 75.3598 89.2159 76.0341C88.875 76.7083 88.392 77.233 87.767 77.608C87.142 77.983 86.4034 78.1705 85.5511 78.1705ZM85.5625 76.5227C86.0246 76.5227 86.411 76.3958 86.7216 76.142C87.0322 75.8845 87.2633 75.5398 87.4148 75.108C87.5701 74.6761 87.6477 74.1951 87.6477 73.6648C87.6477 73.1307 87.5701 72.6477 87.4148 72.2159C87.2633 71.7803 87.0322 71.4337 86.7216 71.1761C86.411 70.9186 86.0246 70.7898 85.5625 70.7898C85.089 70.7898 84.6951 70.9186 84.3807 71.1761C84.0701 71.4337 83.8371 71.7803 83.6818 72.2159C83.5303 72.6477 83.4545 73.1307 83.4545 73.6648C83.4545 74.1951 83.5303 74.6761 83.6818 75.108C83.8371 75.5398 84.0701 75.8845 84.3807 76.142C84.6951 76.3958 85.089 76.5227 85.5625 76.5227ZM91.4787 78V69.2727H93.473V70.7273H93.5639C93.723 70.2235 93.9957 69.8352 94.3821 69.5625C94.7723 69.286 95.2173 69.1477 95.7173 69.1477C95.831 69.1477 95.9579 69.1534 96.098 69.1648C96.242 69.1723 96.3613 69.1856 96.456 69.2045V71.0966C96.3688 71.0663 96.2306 71.0398 96.0412 71.017C95.8556 70.9905 95.6757 70.9773 95.5014 70.9773C95.1264 70.9773 94.7893 71.0587 94.4901 71.2216C94.1946 71.3807 93.9616 71.6023 93.7912 71.8864C93.6207 72.1705 93.5355 72.4981 93.5355 72.8693V78H91.4787ZM104.72 71.5795L102.845 71.7841C102.792 71.5947 102.699 71.4167 102.567 71.25C102.438 71.0833 102.264 70.9489 102.044 70.8466C101.824 70.7443 101.555 70.6932 101.237 70.6932C100.809 70.6932 100.449 70.786 100.158 70.9716C99.8698 71.1572 99.7277 71.3977 99.7315 71.6932C99.7277 71.947 99.8205 72.1534 100.01 72.3125C100.203 72.4716 100.521 72.6023 100.964 72.7045L102.453 73.0227C103.279 73.2008 103.893 73.483 104.294 73.8693C104.699 74.2557 104.904 74.7614 104.908 75.3864C104.904 75.9356 104.743 76.4205 104.425 76.8409C104.11 77.2576 103.673 77.5833 103.112 77.8182C102.552 78.053 101.908 78.1705 101.18 78.1705C100.112 78.1705 99.2524 77.947 98.6009 77.5C97.9493 77.0492 97.5611 76.4223 97.4361 75.6193L99.4418 75.4261C99.5327 75.8201 99.7259 76.1174 100.021 76.3182C100.317 76.5189 100.701 76.6193 101.175 76.6193C101.663 76.6193 102.055 76.5189 102.351 76.3182C102.65 76.1174 102.8 75.8693 102.8 75.5739C102.8 75.3239 102.703 75.1174 102.51 74.9545C102.321 74.7917 102.025 74.6667 101.624 74.5795L100.135 74.267C99.2978 74.0928 98.6785 73.7992 98.277 73.3864C97.8755 72.9697 97.6766 72.4432 97.6804 71.8068C97.6766 71.2689 97.8224 70.803 98.1179 70.4091C98.4171 70.0114 98.8319 69.7045 99.3622 69.4886C99.8963 69.2689 100.512 69.1591 101.209 69.1591C102.232 69.1591 103.036 69.3769 103.624 69.8125C104.214 70.2481 104.58 70.8371 104.72 71.5795Z" fill="#3F4450"/>
<rect x="46.6523" y="100.652" width="225.695" height="144.81" rx="12.3937" fill="white" stroke="#E2E2E2" stroke-width="1.3046"/>
<rect x="46.6523" y="258.509" width="225.695" height="144.81" rx="12.3937" fill="white" stroke="#E2E2E2" stroke-width="1.3046"/>
<rect x="46.6523" y="416.365" width="225.695" height="144.81" rx="12.3937" fill="white" stroke="#E2E2E2" stroke-width="1.3046"/>
<circle cx="87.0948" cy="128.049" r="12.3937" fill="#E2E2E2"/>
<circle cx="87.0948" cy="284.601" r="12.3937" fill="#E2E2E2"/>
<circle cx="87.0948" cy="443.761" r="12.3937" fill="#E2E2E2"/>
<path d="M83.0184 123.206H84.7559L87.0828 128.885H87.1747L89.5015 123.206H91.239V131.044H89.8766V125.659H89.8039L87.6377 131.021H86.6197L84.4536 125.647H84.3809V131.044H83.0184V123.206Z" fill="#3F4450"/>
<path d="M88.5824 281.912C88.5467 281.578 88.3962 281.317 88.1308 281.131C87.868 280.945 87.5262 280.852 87.1052 280.852C86.8092 280.852 86.5554 280.897 86.3436 280.986C86.1318 281.075 85.9698 281.196 85.8575 281.349C85.7453 281.502 85.6879 281.677 85.6853 281.874C85.6853 282.037 85.7223 282.179 85.7963 282.299C85.8729 282.418 85.9762 282.52 86.1063 282.605C86.2364 282.686 86.3806 282.755 86.5388 282.811C86.697 282.867 86.8564 282.915 87.0172 282.953L87.752 283.137C88.0479 283.206 88.3324 283.299 88.6054 283.416C88.881 283.533 89.1272 283.681 89.344 283.86C89.5635 284.039 89.7369 284.254 89.8645 284.507C89.9921 284.759 90.0559 285.055 90.0559 285.395C90.0559 285.854 89.9385 286.258 89.7038 286.608C89.4691 286.955 89.1297 287.227 88.6858 287.423C88.2444 287.617 87.7099 287.714 87.0822 287.714C86.4724 287.714 85.943 287.619 85.494 287.431C85.0475 287.242 84.6979 286.966 84.4453 286.604C84.1953 286.242 84.0601 285.8 84.0397 285.28H85.4366C85.457 285.553 85.5412 285.78 85.6892 285.961C85.8371 286.142 86.0298 286.277 86.267 286.367C86.5069 286.456 86.7748 286.501 87.0707 286.501C87.3795 286.501 87.6499 286.455 87.8821 286.363C88.1168 286.268 88.3005 286.138 88.4332 285.973C88.5659 285.804 88.6335 285.608 88.636 285.383C88.6335 285.179 88.5735 285.011 88.4561 284.878C88.3388 284.743 88.1742 284.63 87.9625 284.541C87.7532 284.449 87.5083 284.368 87.2276 284.296L86.3359 284.067C85.6904 283.901 85.1801 283.649 84.8051 283.313C84.4326 282.973 84.2463 282.523 84.2463 281.962C84.2463 281.5 84.3714 281.096 84.6214 280.749C84.874 280.402 85.2171 280.132 85.6509 279.941C86.0846 279.747 86.5758 279.65 87.1243 279.65C87.6805 279.65 88.1678 279.747 88.5863 279.941C89.0072 280.132 89.3377 280.399 89.5775 280.741C89.8173 281.08 89.9411 281.471 89.9487 281.912H88.5824Z" fill="#3F4450"/>
<path d="M84.3229 446.756V438.918H87.2621C87.8642 438.918 88.3694 439.031 88.7776 439.255C89.1884 439.48 89.4984 439.788 89.7076 440.181C89.9194 440.572 90.0253 441.016 90.0253 441.513C90.0253 442.016 89.9194 442.462 89.7076 442.853C89.4958 443.243 89.1833 443.551 88.77 443.775C88.3566 443.997 87.8476 444.108 87.243 444.108H85.295V442.941H87.0516C87.4037 442.941 87.692 442.879 87.9165 442.757C88.141 442.635 88.3069 442.466 88.414 442.252C88.5238 442.038 88.5786 441.791 88.5786 441.513C88.5786 441.235 88.5238 440.99 88.414 440.778C88.3069 440.567 88.1398 440.402 87.9127 440.285C87.6882 440.165 87.3986 440.105 87.0439 440.105H85.7427V446.756H84.3229Z" fill="#3F4450"/>
<path d="M108.275 122.842H109.873L112.651 129.626H112.754L115.532 122.842H117.13V131.569H115.877V125.254H115.796L113.222 131.556H112.183L109.609 125.249H109.528V131.569H108.275V122.842ZM121.763 131.701C121.118 131.701 120.563 131.563 120.097 131.288C119.634 131.009 119.276 130.619 119.023 130.116C118.773 129.61 118.648 129.018 118.648 128.339C118.648 127.668 118.773 127.077 119.023 126.566C119.276 126.055 119.628 125.655 120.08 125.369C120.535 125.082 121.066 124.938 121.674 124.938C122.043 124.938 122.401 124.999 122.748 125.121C123.094 125.244 123.405 125.435 123.681 125.697C123.956 125.958 124.174 126.298 124.333 126.715C124.492 127.13 124.571 127.634 124.571 128.228V128.68H119.368V127.725H123.323C123.323 127.39 123.255 127.093 123.118 126.834C122.982 126.573 122.79 126.367 122.543 126.217C122.299 126.066 122.012 125.991 121.682 125.991C121.324 125.991 121.012 126.079 120.745 126.255C120.481 126.428 120.276 126.655 120.131 126.937C119.989 127.215 119.918 127.518 119.918 127.844V128.59C119.918 129.028 119.995 129.4 120.148 129.707C120.304 130.013 120.522 130.248 120.8 130.41C121.079 130.569 121.404 130.648 121.776 130.648C122.018 130.648 122.238 130.614 122.437 130.546C122.635 130.475 122.807 130.37 122.952 130.231C123.097 130.092 123.208 129.92 123.285 129.715L124.491 129.932C124.394 130.288 124.221 130.599 123.971 130.866C123.723 131.13 123.412 131.336 123.037 131.484C122.665 131.629 122.241 131.701 121.763 131.701ZM128.806 131.701C128.161 131.701 127.606 131.563 127.14 131.288C126.677 131.009 126.319 130.619 126.066 130.116C125.816 129.61 125.691 129.018 125.691 128.339C125.691 127.668 125.816 127.077 126.066 126.566C126.319 126.055 126.671 125.655 127.123 125.369C127.578 125.082 128.109 124.938 128.717 124.938C129.086 124.938 129.444 124.999 129.791 125.121C130.137 125.244 130.448 125.435 130.724 125.697C130.999 125.958 131.217 126.298 131.376 126.715C131.535 127.13 131.614 127.634 131.614 128.228V128.68H126.411V127.725H130.366C130.366 127.39 130.298 127.093 130.161 126.834C130.025 126.573 129.833 126.367 129.586 126.217C129.342 126.066 129.055 125.991 128.725 125.991C128.367 125.991 128.055 126.079 127.788 126.255C127.524 126.428 127.319 126.655 127.174 126.937C127.032 127.215 126.961 127.518 126.961 127.844V128.59C126.961 129.028 127.038 129.4 127.191 129.707C127.347 130.013 127.565 130.248 127.843 130.41C128.122 130.569 128.447 130.648 128.819 130.648C129.06 130.648 129.281 130.614 129.48 130.546C129.678 130.475 129.85 130.37 129.995 130.231C130.14 130.092 130.251 129.92 130.328 129.715L131.533 129.932C131.437 130.288 131.264 130.599 131.014 130.866C130.766 131.13 130.455 131.336 130.08 131.484C129.708 131.629 129.283 131.701 128.806 131.701ZM133.028 131.569V125.023H134.26V126.063H134.328C134.447 125.711 134.657 125.434 134.959 125.232C135.263 125.028 135.606 124.925 135.99 124.925C136.069 124.925 136.163 124.928 136.271 124.934C136.382 124.94 136.469 124.947 136.531 124.955V126.174C136.48 126.16 136.389 126.144 136.258 126.127C136.128 126.107 135.997 126.097 135.866 126.097C135.565 126.097 135.297 126.161 135.061 126.289C134.828 126.414 134.643 126.589 134.507 126.813C134.37 127.035 134.302 127.288 134.302 127.572V131.569H133.028ZM139.48 131.714C139.065 131.714 138.69 131.637 138.355 131.484C138.02 131.327 137.754 131.102 137.558 130.806C137.365 130.511 137.268 130.148 137.268 129.719C137.268 129.35 137.339 129.046 137.481 128.807C137.623 128.569 137.815 128.38 138.057 128.241C138.298 128.102 138.568 127.996 138.866 127.925C139.165 127.854 139.469 127.8 139.778 127.763C140.17 127.718 140.488 127.681 140.733 127.653C140.977 127.621 141.155 127.572 141.265 127.504C141.376 127.435 141.432 127.325 141.432 127.171V127.141C141.432 126.769 141.326 126.481 141.116 126.276C140.909 126.072 140.599 125.969 140.187 125.969C139.758 125.969 139.42 126.065 139.173 126.255C138.929 126.442 138.76 126.651 138.666 126.881L137.469 126.609C137.611 126.211 137.818 125.89 138.091 125.646C138.366 125.398 138.683 125.219 139.041 125.109C139.399 124.995 139.775 124.938 140.17 124.938C140.432 124.938 140.709 124.969 141.001 125.032C141.297 125.092 141.572 125.202 141.828 125.364C142.086 125.526 142.298 125.758 142.463 126.059C142.628 126.357 142.71 126.745 142.71 127.222V131.569H141.466V130.674H141.415C141.332 130.839 141.209 131.001 141.044 131.16C140.879 131.319 140.667 131.451 140.409 131.556C140.15 131.661 139.841 131.714 139.48 131.714ZM139.757 130.691C140.109 130.691 140.41 130.621 140.66 130.482C140.913 130.343 141.105 130.161 141.236 129.937C141.369 129.709 141.436 129.467 141.436 129.208V128.364C141.39 128.41 141.302 128.452 141.172 128.492C141.044 128.529 140.897 128.562 140.733 128.59C140.568 128.616 140.407 128.64 140.251 128.663C140.095 128.682 139.964 128.7 139.859 128.714C139.612 128.745 139.386 128.798 139.182 128.871C138.98 128.945 138.818 129.052 138.696 129.191C138.576 129.327 138.517 129.509 138.517 129.736C138.517 130.052 138.633 130.29 138.866 130.452C139.099 130.611 139.396 130.691 139.757 130.691ZM152.445 125.134C152.4 124.731 152.212 124.418 151.883 124.197C151.553 123.972 151.138 123.86 150.638 123.86C150.28 123.86 149.971 123.917 149.709 124.03C149.448 124.141 149.245 124.295 149.1 124.491C148.958 124.684 148.887 124.904 148.887 125.151C148.887 125.359 148.935 125.538 149.032 125.688C149.131 125.839 149.26 125.965 149.42 126.067C149.581 126.167 149.755 126.251 149.939 126.319C150.124 126.384 150.302 126.438 150.472 126.481L151.324 126.702C151.603 126.771 151.888 126.863 152.181 126.979C152.473 127.096 152.745 127.249 152.995 127.44C153.245 127.63 153.446 127.866 153.6 128.147C153.756 128.428 153.834 128.765 153.834 129.157C153.834 129.651 153.706 130.09 153.451 130.474C153.198 130.857 152.83 131.16 152.347 131.381C151.867 131.603 151.286 131.714 150.604 131.714C149.951 131.714 149.385 131.61 148.908 131.403C148.431 131.195 148.057 130.901 147.787 130.521C147.518 130.137 147.368 129.682 147.34 129.157H148.661C148.687 129.472 148.789 129.735 148.968 129.945C149.15 130.153 149.381 130.307 149.662 130.41C149.946 130.509 150.258 130.559 150.596 130.559C150.968 130.559 151.299 130.501 151.589 130.384C151.881 130.265 152.111 130.1 152.279 129.89C152.446 129.677 152.53 129.428 152.53 129.144C152.53 128.886 152.456 128.674 152.309 128.509C152.164 128.344 151.966 128.208 151.716 128.1C151.469 127.992 151.189 127.897 150.877 127.815L149.846 127.533C149.147 127.343 148.593 127.063 148.184 126.694C147.777 126.325 147.574 125.836 147.574 125.228C147.574 124.725 147.711 124.286 147.983 123.911C148.256 123.536 148.625 123.245 149.091 123.038C149.557 122.827 150.083 122.722 150.668 122.722C151.259 122.722 151.78 122.826 152.232 123.033C152.687 123.241 153.045 123.526 153.306 123.89C153.567 124.251 153.704 124.665 153.715 125.134H152.445ZM156.58 127.682V131.569H155.306V122.842H156.563V126.089H156.644C156.797 125.736 157.031 125.457 157.347 125.249C157.662 125.042 158.074 124.938 158.582 124.938C159.031 124.938 159.423 125.03 159.759 125.215C160.097 125.4 160.358 125.675 160.543 126.042C160.73 126.405 160.824 126.86 160.824 127.405V131.569H159.55V127.559C159.55 127.079 159.426 126.707 159.179 126.442C158.932 126.175 158.588 126.042 158.148 126.042C157.847 126.042 157.577 126.106 157.338 126.234C157.102 126.361 156.916 126.549 156.78 126.796C156.646 127.04 156.58 127.336 156.58 127.682ZM164.429 131.714C164.014 131.714 163.639 131.637 163.304 131.484C162.969 131.327 162.703 131.102 162.507 130.806C162.314 130.511 162.217 130.148 162.217 129.719C162.217 129.35 162.288 129.046 162.431 128.807C162.573 128.569 162.764 128.38 163.006 128.241C163.247 128.102 163.517 127.996 163.815 127.925C164.114 127.854 164.418 127.8 164.727 127.763C165.119 127.718 165.438 127.681 165.682 127.653C165.926 127.621 166.104 127.572 166.215 127.504C166.325 127.435 166.381 127.325 166.381 127.171V127.141C166.381 126.769 166.276 126.481 166.065 126.276C165.858 126.072 165.548 125.969 165.136 125.969C164.707 125.969 164.369 126.065 164.122 126.255C163.878 126.442 163.709 126.651 163.615 126.881L162.418 126.609C162.56 126.211 162.767 125.89 163.04 125.646C163.315 125.398 163.632 125.219 163.99 125.109C164.348 124.995 164.725 124.938 165.119 124.938C165.381 124.938 165.658 124.969 165.95 125.032C166.246 125.092 166.521 125.202 166.777 125.364C167.036 125.526 167.247 125.758 167.412 126.059C167.577 126.357 167.659 126.745 167.659 127.222V131.569H166.415V130.674H166.364C166.281 130.839 166.158 131.001 165.993 131.16C165.828 131.319 165.617 131.451 165.358 131.556C165.1 131.661 164.79 131.714 164.429 131.714ZM164.706 130.691C165.058 130.691 165.359 130.621 165.609 130.482C165.862 130.343 166.054 130.161 166.185 129.937C166.318 129.709 166.385 129.467 166.385 129.208V128.364C166.34 128.41 166.252 128.452 166.121 128.492C165.993 128.529 165.847 128.562 165.682 128.59C165.517 128.616 165.357 128.64 165.2 128.663C165.044 128.682 164.913 128.7 164.808 128.714C164.561 128.745 164.335 128.798 164.131 128.871C163.929 128.945 163.767 129.052 163.645 129.191C163.526 129.327 163.466 129.509 163.466 129.736C163.466 130.052 163.582 130.29 163.815 130.452C164.048 130.611 164.345 130.691 164.706 130.691ZM169.356 131.569V125.023H170.588V126.063H170.656C170.775 125.711 170.986 125.434 171.287 125.232C171.591 125.028 171.934 124.925 172.318 124.925C172.397 124.925 172.491 124.928 172.599 124.934C172.71 124.94 172.797 124.947 172.859 124.955V126.174C172.808 126.16 172.717 126.144 172.586 126.127C172.456 126.107 172.325 126.097 172.194 126.097C171.893 126.097 171.625 126.161 171.389 126.289C171.156 126.414 170.971 126.589 170.835 126.813C170.699 127.035 170.63 127.288 170.63 127.572V131.569H169.356ZM173.962 131.569V125.023H175.185V126.089H175.266C175.402 125.728 175.625 125.447 175.935 125.245C176.244 125.04 176.615 124.938 177.047 124.938C177.484 124.938 177.851 125.04 178.146 125.245C178.445 125.45 178.665 125.731 178.807 126.089H178.875C179.031 125.739 179.28 125.461 179.621 125.254C179.962 125.043 180.368 124.938 180.84 124.938C181.433 124.938 181.918 125.124 182.293 125.496C182.671 125.869 182.859 126.43 182.859 127.18V131.569H181.585V127.299C181.585 126.856 181.465 126.535 181.223 126.336C180.982 126.137 180.693 126.038 180.358 126.038C179.943 126.038 179.621 126.165 179.391 126.421C179.161 126.674 179.046 126.999 179.046 127.397V131.569H177.776V127.218C177.776 126.863 177.665 126.577 177.443 126.361C177.222 126.146 176.933 126.038 176.578 126.038C176.337 126.038 176.114 126.102 175.909 126.229C175.707 126.354 175.544 126.529 175.419 126.754C175.297 126.978 175.236 127.238 175.236 127.533V131.569H173.962ZM186.472 131.714C186.057 131.714 185.682 131.637 185.347 131.484C185.012 131.327 184.746 131.102 184.55 130.806C184.357 130.511 184.26 130.148 184.26 129.719C184.26 129.35 184.331 129.046 184.473 128.807C184.616 128.569 184.807 128.38 185.049 128.241C185.29 128.102 185.56 127.996 185.858 127.925C186.157 127.854 186.461 127.8 186.77 127.763C187.162 127.718 187.481 127.681 187.725 127.653C187.969 127.621 188.147 127.572 188.258 127.504C188.368 127.435 188.424 127.325 188.424 127.171V127.141C188.424 126.769 188.319 126.481 188.108 126.276C187.901 126.072 187.591 125.969 187.179 125.969C186.75 125.969 186.412 126.065 186.165 126.255C185.921 126.442 185.752 126.651 185.658 126.881L184.461 126.609C184.603 126.211 184.81 125.89 185.083 125.646C185.358 125.398 185.675 125.219 186.033 125.109C186.391 124.995 186.768 124.938 187.162 124.938C187.424 124.938 187.701 124.969 187.993 125.032C188.289 125.092 188.564 125.202 188.82 125.364C189.079 125.526 189.29 125.758 189.455 126.059C189.62 126.357 189.702 126.745 189.702 127.222V131.569H188.458V130.674H188.407C188.324 130.839 188.201 131.001 188.036 131.16C187.871 131.319 187.66 131.451 187.401 131.556C187.143 131.661 186.833 131.714 186.472 131.714ZM186.749 130.691C187.101 130.691 187.402 130.621 187.652 130.482C187.905 130.343 188.097 130.161 188.228 129.937C188.361 129.709 188.428 129.467 188.428 129.208V128.364C188.383 128.41 188.295 128.452 188.164 128.492C188.036 128.529 187.89 128.562 187.725 128.59C187.56 128.616 187.4 128.64 187.243 128.663C187.087 128.682 186.956 128.7 186.851 128.714C186.604 128.745 186.378 128.798 186.174 128.871C185.972 128.945 185.81 129.052 185.688 129.191C185.569 129.327 185.509 129.509 185.509 129.736C185.509 130.052 185.625 130.29 185.858 130.452C186.091 130.611 186.388 130.691 186.749 130.691Z" fill="#3F4450"/>
<path d="M113.035 281.686C112.989 281.283 112.802 280.97 112.472 280.748C112.143 280.524 111.728 280.412 111.228 280.412C110.87 280.412 110.56 280.469 110.299 280.582C110.038 280.693 109.835 280.846 109.69 281.042C109.548 281.236 109.477 281.456 109.477 281.703C109.477 281.91 109.525 282.089 109.622 282.24C109.721 282.39 109.85 282.517 110.009 282.619C110.171 282.719 110.345 282.802 110.529 282.871C110.714 282.936 110.891 282.99 111.062 283.033L111.914 283.254C112.193 283.322 112.478 283.415 112.771 283.531C113.063 283.648 113.335 283.801 113.585 283.991C113.835 284.182 114.036 284.417 114.19 284.699C114.346 284.98 114.424 285.317 114.424 285.709C114.424 286.203 114.296 286.642 114.041 287.025C113.788 287.409 113.42 287.712 112.937 287.933C112.457 288.155 111.876 288.265 111.194 288.265C110.541 288.265 109.975 288.162 109.498 287.954C109.021 287.747 108.647 287.453 108.377 287.072C108.107 286.689 107.958 286.234 107.93 285.709H109.251C109.276 286.024 109.379 286.287 109.558 286.497C109.739 286.704 109.971 286.859 110.252 286.962C110.536 287.061 110.847 287.111 111.185 287.111C111.558 287.111 111.889 287.052 112.178 286.936C112.471 286.817 112.701 286.652 112.869 286.442C113.036 286.229 113.12 285.98 113.12 285.696C113.12 285.437 113.046 285.226 112.899 285.061C112.754 284.896 112.556 284.76 112.306 284.652C112.059 284.544 111.779 284.449 111.467 284.366L110.435 284.085C109.737 283.895 109.183 283.615 108.774 283.246C108.367 282.876 108.164 282.388 108.164 281.78C108.164 281.277 108.301 280.838 108.573 280.463C108.846 280.088 109.215 279.797 109.681 279.589C110.147 279.379 110.673 279.274 111.258 279.274C111.849 279.274 112.37 279.378 112.822 279.585C113.276 279.792 113.634 280.078 113.896 280.442C114.157 280.802 114.293 281.217 114.305 281.686H113.035ZM120.042 285.406V281.575H121.32V288.121H120.067V286.987H119.999C119.848 287.337 119.607 287.628 119.275 287.861C118.945 288.091 118.535 288.206 118.043 288.206C117.623 288.206 117.25 288.114 116.927 287.929C116.606 287.741 116.353 287.464 116.168 287.098C115.986 286.731 115.895 286.278 115.895 285.739V281.575H117.17V285.585C117.17 286.031 117.293 286.386 117.54 286.65C117.787 286.915 118.108 287.047 118.503 287.047C118.742 287.047 118.979 286.987 119.215 286.868C119.454 286.748 119.651 286.568 119.807 286.327C119.966 286.085 120.045 285.778 120.042 285.406ZM123.032 288.121V281.575H124.255V282.64H124.336C124.472 282.28 124.695 281.998 125.005 281.797C125.315 281.592 125.685 281.49 126.117 281.49C126.555 281.49 126.921 281.592 127.217 281.797C127.515 282.001 127.735 282.283 127.877 282.64H127.945C128.102 282.291 128.35 282.013 128.691 281.805C129.032 281.595 129.438 281.49 129.91 281.49C130.504 281.49 130.988 281.676 131.363 282.048C131.741 282.42 131.93 282.981 131.93 283.731V288.121H130.656V283.851C130.656 283.408 130.535 283.087 130.293 282.888C130.052 282.689 129.764 282.589 129.428 282.589C129.014 282.589 128.691 282.717 128.461 282.973C128.231 283.226 128.116 283.551 128.116 283.949V288.121H126.846V283.77C126.846 283.415 126.735 283.129 126.514 282.913C126.292 282.697 126.004 282.589 125.649 282.589C125.407 282.589 125.184 282.653 124.98 282.781C124.778 282.906 124.614 283.081 124.489 283.305C124.367 283.53 124.306 283.79 124.306 284.085V288.121H123.032ZM133.638 288.121V281.575H134.912V288.121H133.638ZM134.281 280.565C134.059 280.565 133.869 280.491 133.71 280.344C133.554 280.193 133.476 280.014 133.476 279.807C133.476 279.596 133.554 279.417 133.71 279.27C133.869 279.119 134.059 279.044 134.281 279.044C134.503 279.044 134.692 279.119 134.848 279.27C135.007 279.417 135.086 279.596 135.086 279.807C135.086 280.014 135.007 280.193 134.848 280.344C134.692 280.491 134.503 280.565 134.281 280.565ZM139.681 281.575V282.598H136.106V281.575H139.681ZM137.065 280.007H138.339V286.199C138.339 286.446 138.376 286.632 138.45 286.757C138.524 286.879 138.619 286.963 138.735 287.008C138.855 287.051 138.984 287.072 139.123 287.072C139.225 287.072 139.315 287.065 139.391 287.051C139.468 287.037 139.528 287.025 139.57 287.017L139.801 288.069C139.727 288.098 139.622 288.126 139.485 288.155C139.349 288.186 139.178 288.203 138.974 288.206C138.639 288.212 138.326 288.152 138.036 288.027C137.747 287.902 137.512 287.709 137.333 287.447C137.154 287.186 137.065 286.858 137.065 286.463V280.007ZM143.938 280.527V279.393H150.693V280.527H147.97V288.121H146.657V280.527H143.938ZM153.357 284.234V288.121H152.083V279.393H153.34V282.64H153.421C153.574 282.288 153.809 282.008 154.124 281.801C154.439 281.594 154.851 281.49 155.36 281.49C155.809 281.49 156.201 281.582 156.536 281.767C156.874 281.952 157.135 282.227 157.32 282.594C157.508 282.957 157.601 283.412 157.601 283.957V288.121H156.327V284.111C156.327 283.631 156.204 283.258 155.956 282.994C155.709 282.727 155.366 282.594 154.925 282.594C154.624 282.594 154.354 282.658 154.116 282.785C153.88 282.913 153.694 283.101 153.557 283.348C153.424 283.592 153.357 283.888 153.357 284.234ZM161.206 288.265C160.792 288.265 160.417 288.189 160.081 288.035C159.746 287.879 159.481 287.653 159.285 287.358C159.091 287.062 158.995 286.7 158.995 286.271C158.995 285.902 159.066 285.598 159.208 285.359C159.35 285.121 159.542 284.932 159.783 284.792C160.025 284.653 160.295 284.548 160.593 284.477C160.891 284.406 161.195 284.352 161.505 284.315C161.897 284.27 162.215 284.233 162.459 284.204C162.704 284.173 162.881 284.123 162.992 284.055C163.103 283.987 163.158 283.876 163.158 283.723V283.693C163.158 283.321 163.053 283.033 162.843 282.828C162.635 282.623 162.326 282.521 161.914 282.521C161.485 282.521 161.147 282.616 160.9 282.807C160.655 282.994 160.486 283.203 160.393 283.433L159.195 283.16C159.337 282.763 159.545 282.442 159.817 282.197C160.093 281.95 160.41 281.771 160.768 281.66C161.125 281.547 161.502 281.49 161.897 281.49C162.158 281.49 162.435 281.521 162.728 281.584C163.023 281.643 163.299 281.754 163.554 281.916C163.813 282.078 164.025 282.31 164.189 282.611C164.354 282.909 164.437 283.297 164.437 283.774V288.121H163.192V287.226H163.141C163.059 287.39 162.935 287.552 162.77 287.712C162.606 287.871 162.394 288.003 162.135 288.108C161.877 288.213 161.567 288.265 161.206 288.265ZM161.483 287.243C161.836 287.243 162.137 287.173 162.387 287.034C162.64 286.895 162.831 286.713 162.962 286.489C163.096 286.261 163.162 286.018 163.162 285.76V284.916C163.117 284.962 163.029 285.004 162.898 285.044C162.77 285.081 162.624 285.114 162.459 285.142C162.295 285.167 162.134 285.192 161.978 285.214C161.821 285.234 161.691 285.251 161.586 285.265C161.339 285.297 161.113 285.349 160.908 285.423C160.706 285.497 160.545 285.604 160.422 285.743C160.303 285.879 160.243 286.061 160.243 286.288C160.243 286.604 160.36 286.842 160.593 287.004C160.826 287.163 161.123 287.243 161.483 287.243ZM166.134 290.575V281.575H167.378V282.636H167.484C167.558 282.5 167.665 282.342 167.804 282.163C167.943 281.984 168.136 281.828 168.384 281.694C168.631 281.558 168.957 281.49 169.364 281.49C169.892 281.49 170.364 281.623 170.779 281.89C171.193 282.158 171.519 282.542 171.754 283.045C171.993 283.548 172.112 284.153 172.112 284.861C172.112 285.568 171.994 286.175 171.759 286.68C171.523 287.183 171.199 287.571 170.787 287.844C170.375 288.114 169.905 288.248 169.377 288.248C168.979 288.248 168.654 288.182 168.401 288.048C168.151 287.915 167.955 287.758 167.813 287.579C167.671 287.4 167.561 287.241 167.484 287.102H167.408V290.575H166.134ZM167.382 284.848C167.382 285.308 167.449 285.712 167.582 286.058C167.716 286.405 167.909 286.676 168.162 286.872C168.415 287.065 168.725 287.162 169.091 287.162C169.472 287.162 169.79 287.061 170.046 286.859C170.301 286.655 170.494 286.378 170.625 286.028C170.759 285.679 170.825 285.285 170.825 284.848C170.825 284.416 170.76 284.028 170.629 283.685C170.502 283.341 170.308 283.069 170.05 282.871C169.794 282.672 169.475 282.572 169.091 282.572C168.722 282.572 168.409 282.667 168.154 282.858C167.901 283.048 167.709 283.314 167.578 283.655C167.448 283.996 167.382 284.393 167.382 284.848ZM175.445 288.265C175.03 288.265 174.655 288.189 174.32 288.035C173.984 287.879 173.719 287.653 173.523 287.358C173.33 287.062 173.233 286.7 173.233 286.271C173.233 285.902 173.304 285.598 173.446 285.359C173.588 285.121 173.78 284.932 174.021 284.792C174.263 284.653 174.533 284.548 174.831 284.477C175.129 284.406 175.433 284.352 175.743 284.315C176.135 284.27 176.453 284.233 176.698 284.204C176.942 284.173 177.119 284.123 177.23 284.055C177.341 283.987 177.396 283.876 177.396 283.723V283.693C177.396 283.321 177.291 283.033 177.081 282.828C176.874 282.623 176.564 282.521 176.152 282.521C175.723 282.521 175.385 282.616 175.138 282.807C174.894 282.994 174.725 283.203 174.631 283.433L173.433 283.16C173.575 282.763 173.783 282.442 174.056 282.197C174.331 281.95 174.648 281.771 175.006 281.66C175.364 281.547 175.74 281.49 176.135 281.49C176.396 281.49 176.673 281.521 176.966 281.584C177.261 281.643 177.537 281.754 177.793 281.916C178.051 282.078 178.263 282.31 178.428 282.611C178.592 282.909 178.675 283.297 178.675 283.774V288.121H177.431V287.226H177.379C177.297 287.39 177.173 287.552 177.009 287.712C176.844 287.871 176.632 288.003 176.374 288.108C176.115 288.213 175.806 288.265 175.445 288.265ZM175.722 287.243C176.074 287.243 176.375 287.173 176.625 287.034C176.878 286.895 177.07 286.713 177.2 286.489C177.334 286.261 177.401 286.018 177.401 285.76V284.916C177.355 284.962 177.267 285.004 177.136 285.044C177.009 285.081 176.862 285.114 176.698 285.142C176.533 285.167 176.372 285.192 176.216 285.214C176.06 285.234 175.929 285.251 175.824 285.265C175.577 285.297 175.351 285.349 175.146 285.423C174.945 285.497 174.783 285.604 174.661 285.743C174.541 285.879 174.482 286.061 174.482 286.288C174.482 286.604 174.598 286.842 174.831 287.004C175.064 287.163 175.361 287.243 175.722 287.243ZM180.372 288.121V281.575H181.603V282.615H181.672C181.791 282.263 182.001 281.986 182.302 281.784C182.606 281.579 182.95 281.477 183.334 281.477C183.413 281.477 183.507 281.48 183.615 281.486C183.726 281.491 183.812 281.498 183.875 281.507V282.726C183.824 282.712 183.733 282.696 183.602 282.679C183.471 282.659 183.341 282.649 183.21 282.649C182.909 282.649 182.64 282.713 182.405 282.841C182.172 282.966 181.987 283.14 181.851 283.365C181.714 283.587 181.646 283.839 181.646 284.123V288.121H180.372Z" fill="#3F4450"/>
<path d="M108.275 447.282V438.554H111.386C112.065 438.554 112.627 438.678 113.073 438.925C113.519 439.172 113.853 439.51 114.075 439.939C114.296 440.366 114.407 440.846 114.407 441.38C114.407 441.917 114.295 442.4 114.07 442.829C113.849 443.255 113.514 443.593 113.065 443.843C112.619 444.09 112.058 444.214 111.382 444.214H109.242V443.097H111.262C111.691 443.097 112.039 443.023 112.306 442.875C112.573 442.725 112.769 442.52 112.894 442.262C113.019 442.003 113.082 441.709 113.082 441.38C113.082 441.05 113.019 440.758 112.894 440.502C112.769 440.246 112.572 440.046 112.302 439.901C112.035 439.756 111.683 439.684 111.245 439.684H109.592V447.282H108.275ZM115.848 447.282V440.736H117.08V441.776H117.148C117.268 441.424 117.478 441.147 117.779 440.945C118.083 440.741 118.427 440.638 118.81 440.638C118.89 440.638 118.983 440.641 119.091 440.647C119.202 440.652 119.289 440.66 119.351 440.668V441.887C119.3 441.873 119.209 441.857 119.079 441.84C118.948 441.82 118.817 441.81 118.687 441.81C118.385 441.81 118.117 441.874 117.881 442.002C117.648 442.127 117.464 442.302 117.327 442.526C117.191 442.748 117.123 443 117.123 443.285V447.282H115.848ZM122.3 447.427C121.885 447.427 121.51 447.35 121.175 447.197C120.84 447.04 120.574 446.814 120.378 446.519C120.185 446.223 120.089 445.861 120.089 445.432C120.089 445.063 120.16 444.759 120.302 444.52C120.444 444.282 120.635 444.093 120.877 443.954C121.118 443.814 121.388 443.709 121.687 443.638C121.985 443.567 122.289 443.513 122.598 443.476C122.991 443.431 123.309 443.394 123.553 443.366C123.797 443.334 123.975 443.285 124.086 443.216C124.196 443.148 124.252 443.037 124.252 442.884V442.854C124.252 442.482 124.147 442.194 123.937 441.989C123.729 441.785 123.42 441.682 123.008 441.682C122.579 441.682 122.241 441.777 121.993 441.968C121.749 442.155 121.58 442.364 121.486 442.594L120.289 442.322C120.431 441.924 120.638 441.603 120.911 441.358C121.187 441.111 121.503 440.932 121.861 440.822C122.219 440.708 122.596 440.651 122.991 440.651C123.252 440.651 123.529 440.682 123.821 440.745C124.117 440.804 124.393 440.915 124.648 441.077C124.907 441.239 125.118 441.471 125.283 441.772C125.448 442.07 125.53 442.458 125.53 442.935V447.282H124.286V446.387H124.235C124.152 446.552 124.029 446.714 123.864 446.873C123.699 447.032 123.488 447.164 123.229 447.269C122.971 447.374 122.661 447.427 122.3 447.427ZM122.577 446.404C122.929 446.404 123.231 446.334 123.481 446.195C123.733 446.056 123.925 445.874 124.056 445.65C124.189 445.422 124.256 445.179 124.256 444.921V444.077C124.211 444.123 124.123 444.165 123.992 444.205C123.864 444.242 123.718 444.275 123.553 444.303C123.388 444.329 123.228 444.353 123.071 444.375C122.915 444.395 122.785 444.412 122.679 444.427C122.432 444.458 122.206 444.51 122.002 444.584C121.8 444.658 121.638 444.765 121.516 444.904C121.397 445.04 121.337 445.222 121.337 445.449C121.337 445.765 121.454 446.003 121.687 446.165C121.92 446.324 122.216 446.404 122.577 446.404ZM130.283 440.736V441.759H126.707V440.736H130.283ZM127.666 439.168H128.94V445.36C128.94 445.607 128.977 445.793 129.051 445.918C129.125 446.04 129.22 446.124 129.337 446.17C129.456 446.212 129.585 446.233 129.725 446.233C129.827 446.233 129.916 446.226 129.993 446.212C130.07 446.198 130.129 446.187 130.172 446.178L130.402 447.231C130.328 447.259 130.223 447.287 130.087 447.316C129.95 447.347 129.78 447.364 129.575 447.367C129.24 447.373 128.928 447.313 128.638 447.188C128.348 447.063 128.114 446.87 127.935 446.608C127.756 446.347 127.666 446.019 127.666 445.624V439.168ZM131.692 447.282V440.736H132.966V447.282H131.692ZM132.336 439.726C132.114 439.726 131.924 439.652 131.765 439.505C131.608 439.354 131.53 439.175 131.53 438.968C131.53 438.758 131.608 438.579 131.765 438.431C131.924 438.28 132.114 438.205 132.336 438.205C132.557 438.205 132.746 438.28 132.902 438.431C133.062 438.579 133.141 438.758 133.141 438.968C133.141 439.175 133.062 439.354 132.902 439.505C132.746 439.652 132.557 439.726 132.336 439.726ZM135.852 445.062L135.844 443.506H136.065L138.673 440.736H140.199L137.225 443.89H137.024L135.852 445.062ZM134.681 447.282V438.554H135.955V447.282H134.681ZM138.814 447.282L136.47 444.171L137.348 443.28L140.378 447.282H138.814ZM148.03 438.554H149.343V444.742C149.343 445.302 149.232 445.78 149.01 446.178C148.792 446.576 148.483 446.88 148.086 447.09C147.688 447.297 147.222 447.401 146.688 447.401C146.196 447.401 145.755 447.312 145.363 447.133C144.973 446.954 144.665 446.694 144.438 446.353C144.214 446.009 144.101 445.591 144.101 445.1H145.41C145.41 445.341 145.465 445.55 145.576 445.726C145.689 445.902 145.844 446.04 146.04 446.14C146.239 446.236 146.466 446.285 146.722 446.285C147 446.285 147.236 446.226 147.429 446.11C147.625 445.991 147.775 445.816 147.877 445.586C147.979 445.356 148.03 445.074 148.03 444.742V438.554ZM153.062 447.427C152.647 447.427 152.272 447.35 151.937 447.197C151.602 447.04 151.336 446.814 151.14 446.519C150.947 446.223 150.85 445.861 150.85 445.432C150.85 445.063 150.921 444.759 151.063 444.52C151.205 444.282 151.397 444.093 151.639 443.954C151.88 443.814 152.15 443.709 152.448 443.638C152.747 443.567 153.051 443.513 153.36 443.476C153.752 443.431 154.07 443.394 154.315 443.366C154.559 443.334 154.737 443.285 154.847 443.216C154.958 443.148 155.014 443.037 155.014 442.884V442.854C155.014 442.482 154.908 442.194 154.698 441.989C154.491 441.785 154.181 441.682 153.769 441.682C153.34 441.682 153.002 441.777 152.755 441.968C152.511 442.155 152.342 442.364 152.248 442.594L151.051 442.322C151.193 441.924 151.4 441.603 151.673 441.358C151.948 441.111 152.265 440.932 152.623 440.822C152.981 440.708 153.357 440.651 153.752 440.651C154.014 440.651 154.291 440.682 154.583 440.745C154.879 440.804 155.154 440.915 155.41 441.077C155.668 441.239 155.88 441.471 156.045 441.772C156.21 442.07 156.292 442.458 156.292 442.935V447.282H155.048V446.387H154.997C154.914 446.552 154.791 446.714 154.626 446.873C154.461 447.032 154.249 447.164 153.991 447.269C153.732 447.374 153.423 447.427 153.062 447.427ZM153.339 446.404C153.691 446.404 153.992 446.334 154.242 446.195C154.495 446.056 154.687 445.874 154.818 445.65C154.951 445.422 155.018 445.179 155.018 444.921V444.077C154.972 444.123 154.884 444.165 154.754 444.205C154.626 444.242 154.48 444.275 154.315 444.303C154.15 444.329 153.989 444.353 153.833 444.375C153.677 444.395 153.546 444.412 153.441 444.427C153.194 444.458 152.968 444.51 152.764 444.584C152.562 444.658 152.4 444.765 152.278 444.904C152.158 445.04 152.099 445.222 152.099 445.449C152.099 445.765 152.215 446.003 152.448 446.165C152.681 446.324 152.978 446.404 153.339 446.404ZM157.989 447.282V440.736H159.263V447.282H157.989ZM158.633 439.726C158.411 439.726 158.221 439.652 158.062 439.505C157.905 439.354 157.827 439.175 157.827 438.968C157.827 438.758 157.905 438.579 158.062 438.431C158.221 438.28 158.411 438.205 158.633 438.205C158.854 438.205 159.043 438.28 159.199 438.431C159.358 438.579 159.438 438.758 159.438 438.968C159.438 439.175 159.358 439.354 159.199 439.505C159.043 439.652 158.854 439.726 158.633 439.726ZM165.882 442.334L164.727 442.539C164.679 442.391 164.602 442.25 164.497 442.117C164.395 441.983 164.256 441.874 164.08 441.789C163.904 441.704 163.683 441.661 163.419 441.661C163.058 441.661 162.757 441.742 162.516 441.904C162.274 442.063 162.154 442.269 162.154 442.522C162.154 442.741 162.234 442.917 162.396 443.05C162.558 443.184 162.82 443.293 163.181 443.378L164.22 443.617C164.823 443.756 165.271 443.971 165.567 444.26C165.862 444.55 166.01 444.927 166.01 445.39C166.01 445.782 165.896 446.131 165.669 446.438C165.445 446.742 165.131 446.981 164.727 447.154C164.327 447.327 163.862 447.414 163.334 447.414C162.601 447.414 162.003 447.258 161.54 446.945C161.077 446.63 160.793 446.182 160.688 445.603L161.919 445.415C161.996 445.736 162.154 445.979 162.392 446.144C162.631 446.306 162.942 446.387 163.325 446.387C163.743 446.387 164.077 446.3 164.327 446.127C164.577 445.951 164.702 445.736 164.702 445.483C164.702 445.279 164.625 445.107 164.472 444.968C164.321 444.829 164.09 444.723 163.777 444.652L162.669 444.41C162.058 444.27 161.607 444.049 161.314 443.745C161.024 443.441 160.879 443.056 160.879 442.59C160.879 442.204 160.987 441.866 161.203 441.576C161.419 441.286 161.717 441.06 162.098 440.898C162.479 440.733 162.915 440.651 163.406 440.651C164.114 440.651 164.671 440.804 165.077 441.111C165.483 441.415 165.752 441.823 165.882 442.334ZM168.83 447.282L166.904 440.736H168.221L169.503 445.543H169.567L170.854 440.736H172.171L173.449 445.522H173.513L174.787 440.736H176.104L174.182 447.282H172.883L171.553 442.556H171.455L170.125 447.282H168.83ZM179.218 447.427C178.803 447.427 178.428 447.35 178.093 447.197C177.758 447.04 177.492 446.814 177.296 446.519C177.103 446.223 177.007 445.861 177.007 445.432C177.007 445.063 177.078 444.759 177.22 444.52C177.362 444.282 177.553 444.093 177.795 443.954C178.036 443.814 178.306 443.709 178.605 443.638C178.903 443.567 179.207 443.513 179.516 443.476C179.908 443.431 180.227 443.394 180.471 443.366C180.715 443.334 180.893 443.285 181.004 443.216C181.114 443.148 181.17 443.037 181.17 442.884V442.854C181.17 442.482 181.065 442.194 180.855 441.989C180.647 441.785 180.337 441.682 179.926 441.682C179.497 441.682 179.158 441.777 178.911 441.968C178.667 442.155 178.498 442.364 178.404 442.594L177.207 442.322C177.349 441.924 177.556 441.603 177.829 441.358C178.105 441.111 178.421 440.932 178.779 440.822C179.137 440.708 179.514 440.651 179.908 440.651C180.17 440.651 180.447 440.682 180.739 440.745C181.035 440.804 181.31 440.915 181.566 441.077C181.825 441.239 182.036 441.471 182.201 441.772C182.366 442.07 182.448 442.458 182.448 442.935V447.282H181.204V446.387H181.153C181.07 446.552 180.947 446.714 180.782 446.873C180.617 447.032 180.406 447.164 180.147 447.269C179.889 447.374 179.579 447.427 179.218 447.427ZM179.495 446.404C179.847 446.404 180.149 446.334 180.399 446.195C180.651 446.056 180.843 445.874 180.974 445.65C181.107 445.422 181.174 445.179 181.174 444.921V444.077C181.129 444.123 181.041 444.165 180.91 444.205C180.782 444.242 180.636 444.275 180.471 444.303C180.306 444.329 180.146 444.353 179.989 444.375C179.833 444.395 179.703 444.412 179.597 444.427C179.35 444.458 179.124 444.51 178.92 444.584C178.718 444.658 178.556 444.765 178.434 444.904C178.315 445.04 178.255 445.222 178.255 445.449C178.255 445.765 178.372 446.003 178.605 446.165C178.837 446.324 179.134 446.404 179.495 446.404ZM185.42 438.554V447.282H184.145V438.554H185.42Z" fill="#3F4450"/>
<path d="M47.3047 113.046C47.3047 106.561 52.5615 101.305 59.0461 101.305V244.81C52.5615 244.81 47.3047 239.554 47.3047 233.069V113.046Z" fill="#00A850"/>
<path d="M47.3047 270.902C47.3047 264.418 52.5615 259.161 59.0461 259.161V402.667C52.5615 402.667 47.3047 397.41 47.3047 390.925V270.902Z" fill="#E2E2E2"/>
<path d="M47.3047 428.758C47.3047 422.274 52.5615 417.017 59.0461 417.017V560.523C52.5615 560.523 47.3047 555.266 47.3047 548.781V428.758Z" fill="#E2E2E2"/>
<rect x="74.7012" y="153.489" width="53.4885" height="5.21839" rx="2.6092" fill="#E2E2E2"/>
<rect x="74.7012" y="310.04" width="53.4885" height="5.21839" rx="2.6092" fill="#E2E2E2"/>
<rect x="74.7012" y="469.201" width="53.4885" height="5.21839" rx="2.6092" fill="#E2E2E2"/>
<rect x="186.896" y="153.489" width="53.4885" height="5.21839" rx="2.6092" fill="#E2E2E2"/>
<rect x="186.896" y="310.04" width="53.4885" height="5.21839" rx="2.6092" fill="#E2E2E2"/>
<rect x="186.896" y="469.201" width="53.4885" height="5.21839" rx="2.6092" fill="#E2E2E2"/>
<rect x="74.7012" y="169.144" width="67.8391" height="5.21839" rx="2.6092" fill="#E2E2E2"/>
<rect x="74.7012" y="325.695" width="67.8391" height="5.21839" rx="2.6092" fill="#E2E2E2"/>
<rect x="74.7012" y="484.856" width="67.8391" height="5.21839" rx="2.6092" fill="#E2E2E2"/>
<rect x="186.896" y="169.144" width="67.8391" height="5.21839" rx="2.6092" fill="#E2E2E2"/>
<rect x="186.896" y="325.695" width="67.8391" height="5.21839" rx="2.6092" fill="#E2E2E2"/>
<rect x="186.896" y="484.856" width="67.8391" height="5.21839" rx="2.6092" fill="#E2E2E2"/>
<rect x="74.7012" y="184.799" width="67.8391" height="5.21839" rx="2.6092" fill="#E2E2E2"/>
<rect x="74.7012" y="341.351" width="67.8391" height="5.21839" rx="2.6092" fill="#E2E2E2"/>
<rect x="74.7012" y="500.511" width="67.8391" height="5.21839" rx="2.6092" fill="#E2E2E2"/>
<rect x="186.896" y="184.799" width="67.8391" height="5.21839" rx="2.6092" fill="#E2E2E2"/>
<rect x="186.896" y="341.351" width="67.8391" height="5.21839" rx="2.6092" fill="#E2E2E2"/>
<rect x="186.896" y="500.511" width="67.8391" height="5.21839" rx="2.6092" fill="#E2E2E2"/>
<rect x="174.307" y="203.52" width="79.9718" height="26.4833" rx="6.06638" stroke="#4D6175" stroke-width="0.913218"/>
<rect x="174.307" y="360.072" width="79.9718" height="26.4833" rx="6.06638" stroke="#4D6175" stroke-width="0.913218"/>
<rect x="174.307" y="519.232" width="79.9718" height="26.4833" rx="6.06638" stroke="#4D6175" stroke-width="0.913218"/>
<rect x="74.7012" y="203.063" width="67.8391" height="27.3966" rx="6.52299" fill="#00A850"/>
<rect x="74.7012" y="359.615" width="67.8391" height="27.3966" rx="6.52299" fill="#E2E2E2"/>
<rect x="74.7012" y="518.776" width="67.8391" height="27.3966" rx="6.52299" fill="#E2E2E2"/>
<path d="M188.745 219.586H186.391V212.313H188.82C189.533 212.313 190.145 212.459 190.656 212.75C191.167 213.039 191.559 213.455 191.831 213.997C192.106 214.536 192.243 215.184 192.243 215.939C192.243 216.697 192.105 217.348 191.828 217.892C191.553 218.437 191.155 218.856 190.635 219.149C190.114 219.441 189.484 219.586 188.745 219.586ZM187.488 218.627H188.685C189.239 218.627 189.7 218.523 190.066 218.315C190.433 218.104 190.708 217.8 190.89 217.402C191.073 217.002 191.164 216.514 191.164 215.939C191.164 215.369 191.073 214.884 190.89 214.487C190.71 214.089 190.442 213.787 190.084 213.581C189.727 213.375 189.283 213.272 188.753 213.272H187.488V218.627ZM193.523 219.586V214.132H194.584V219.586H193.523ZM194.059 213.29C193.874 213.29 193.716 213.228 193.583 213.105C193.453 212.98 193.388 212.831 193.388 212.658C193.388 212.483 193.453 212.334 193.583 212.21C193.716 212.085 193.874 212.022 194.059 212.022C194.243 212.022 194.401 212.085 194.531 212.21C194.664 212.334 194.73 212.483 194.73 212.658C194.73 212.831 194.664 212.98 194.531 213.105C194.401 213.228 194.243 213.29 194.059 213.29ZM200.1 215.463L199.138 215.634C199.098 215.511 199.034 215.393 198.946 215.282C198.861 215.171 198.745 215.08 198.598 215.009C198.451 214.938 198.268 214.902 198.048 214.902C197.747 214.902 197.496 214.97 197.295 215.105C197.094 215.237 196.993 215.409 196.993 215.62C196.993 215.802 197.06 215.949 197.195 216.06C197.33 216.171 197.548 216.262 197.849 216.333L198.715 216.532C199.217 216.648 199.591 216.827 199.837 217.068C200.084 217.31 200.207 217.624 200.207 218.009C200.207 218.336 200.112 218.627 199.923 218.883C199.736 219.136 199.474 219.335 199.138 219.48C198.804 219.624 198.417 219.696 197.977 219.696C197.366 219.696 196.867 219.566 196.482 219.306C196.096 219.043 195.859 218.67 195.771 218.187L196.798 218.031C196.862 218.298 196.993 218.501 197.192 218.638C197.391 218.773 197.65 218.84 197.97 218.84C198.318 218.84 198.596 218.768 198.804 218.624C199.012 218.477 199.117 218.298 199.117 218.088C199.117 217.917 199.053 217.774 198.925 217.658C198.799 217.542 198.606 217.454 198.346 217.395L197.423 217.193C196.914 217.077 196.537 216.892 196.293 216.639C196.052 216.385 195.931 216.065 195.931 215.676C195.931 215.354 196.021 215.073 196.201 214.831C196.381 214.59 196.63 214.402 196.947 214.267C197.264 214.129 197.627 214.061 198.037 214.061C198.626 214.061 199.091 214.188 199.429 214.444C199.768 214.697 199.991 215.037 200.1 215.463ZM202.962 219.707C202.616 219.707 202.303 219.643 202.024 219.515C201.745 219.385 201.523 219.197 201.36 218.951C201.199 218.704 201.118 218.402 201.118 218.045C201.118 217.737 201.178 217.484 201.296 217.285C201.414 217.086 201.574 216.929 201.775 216.813C201.977 216.697 202.202 216.609 202.45 216.55C202.699 216.491 202.952 216.446 203.21 216.415C203.537 216.377 203.802 216.346 204.006 216.323C204.209 216.297 204.357 216.255 204.449 216.198C204.542 216.142 204.588 216.049 204.588 215.921V215.897C204.588 215.586 204.5 215.346 204.325 215.176C204.152 215.005 203.894 214.92 203.551 214.92C203.194 214.92 202.912 214.999 202.706 215.158C202.502 215.314 202.361 215.488 202.283 215.68L201.285 215.453C201.404 215.121 201.577 214.854 201.804 214.65C202.034 214.444 202.297 214.295 202.596 214.203C202.894 214.108 203.208 214.061 203.537 214.061C203.755 214.061 203.985 214.087 204.229 214.139C204.476 214.188 204.705 214.281 204.918 214.416C205.134 214.551 205.31 214.744 205.447 214.995C205.585 215.243 205.653 215.566 205.653 215.964V219.586H204.616V218.84H204.574C204.505 218.978 204.402 219.113 204.265 219.245C204.127 219.378 203.951 219.488 203.736 219.576C203.52 219.663 203.262 219.707 202.962 219.707ZM203.192 218.855C203.486 218.855 203.737 218.797 203.945 218.681C204.156 218.565 204.316 218.413 204.425 218.226C204.536 218.037 204.592 217.834 204.592 217.619V216.916C204.554 216.954 204.48 216.989 204.371 217.022C204.265 217.053 204.143 217.08 204.006 217.104C203.868 217.125 203.735 217.145 203.604 217.164C203.474 217.181 203.365 217.195 203.278 217.207C203.072 217.233 202.883 217.277 202.713 217.338C202.545 217.4 202.41 217.489 202.308 217.605C202.209 217.718 202.159 217.87 202.159 218.059C202.159 218.322 202.256 218.521 202.45 218.656C202.644 218.788 202.892 218.855 203.192 218.855ZM207.068 221.632V214.132H208.104V215.016H208.193C208.255 214.902 208.344 214.771 208.46 214.622C208.576 214.473 208.737 214.342 208.943 214.231C209.149 214.117 209.421 214.061 209.759 214.061C210.2 214.061 210.593 214.172 210.938 214.394C211.284 214.617 211.555 214.938 211.751 215.357C211.95 215.776 212.05 216.28 212.05 216.87C212.05 217.459 211.952 217.964 211.755 218.386C211.559 218.805 211.289 219.128 210.945 219.355C210.602 219.58 210.21 219.693 209.77 219.693C209.439 219.693 209.167 219.637 208.957 219.526C208.748 219.415 208.585 219.284 208.467 219.135C208.348 218.986 208.257 218.853 208.193 218.737H208.129V221.632H207.068ZM208.108 216.859C208.108 217.242 208.164 217.579 208.275 217.867C208.386 218.156 208.547 218.382 208.758 218.546C208.969 218.707 209.227 218.787 209.532 218.787C209.849 218.787 210.114 218.703 210.327 218.535C210.541 218.365 210.702 218.134 210.81 217.843C210.922 217.551 210.977 217.223 210.977 216.859C210.977 216.499 210.923 216.176 210.814 215.889C210.707 215.603 210.546 215.377 210.331 215.211C210.118 215.045 209.852 214.963 209.532 214.963C209.224 214.963 208.964 215.042 208.751 215.201C208.54 215.359 208.38 215.58 208.271 215.865C208.162 216.149 208.108 216.48 208.108 216.859ZM213.239 221.632V214.132H214.276V215.016H214.365C214.427 214.902 214.515 214.771 214.631 214.622C214.747 214.473 214.908 214.342 215.114 214.231C215.32 214.117 215.593 214.061 215.931 214.061C216.372 214.061 216.765 214.172 217.11 214.394C217.456 214.617 217.727 214.938 217.923 215.357C218.122 215.776 218.222 216.28 218.222 216.87C218.222 217.459 218.123 217.964 217.927 218.386C217.73 218.805 217.461 219.128 217.117 219.355C216.774 219.58 216.382 219.693 215.942 219.693C215.61 219.693 215.339 219.637 215.129 219.526C214.92 219.415 214.757 219.284 214.639 219.135C214.52 218.986 214.429 218.853 214.365 218.737H214.301V221.632H213.239ZM214.28 216.859C214.28 217.242 214.336 217.579 214.447 217.867C214.558 218.156 214.719 218.382 214.93 218.546C215.14 218.707 215.399 218.787 215.704 218.787C216.021 218.787 216.286 218.703 216.499 218.535C216.712 218.365 216.873 218.134 216.982 217.843C217.094 217.551 217.149 217.223 217.149 216.859C217.149 216.499 217.095 216.176 216.986 215.889C216.879 215.603 216.718 215.377 216.503 215.211C216.29 215.045 216.024 214.963 215.704 214.963C215.396 214.963 215.136 215.042 214.923 215.201C214.712 215.359 214.552 215.58 214.443 215.865C214.334 216.149 214.28 216.48 214.28 216.859ZM219.411 219.586V214.132H220.438V214.998H220.494C220.594 214.705 220.769 214.474 221.02 214.306C221.273 214.135 221.56 214.05 221.879 214.05C221.946 214.05 222.024 214.052 222.114 214.057C222.206 214.062 222.278 214.068 222.33 214.075V215.09C222.288 215.079 222.212 215.066 222.103 215.051C221.994 215.035 221.885 215.027 221.776 215.027C221.525 215.027 221.302 215.08 221.105 215.186C220.911 215.29 220.757 215.436 220.644 215.623C220.53 215.808 220.473 216.018 220.473 216.255V219.586H219.411ZM225.351 219.696C224.84 219.696 224.394 219.579 224.013 219.345C223.632 219.11 223.336 218.782 223.125 218.361C222.914 217.94 222.809 217.447 222.809 216.884C222.809 216.318 222.914 215.823 223.125 215.399C223.336 214.976 223.632 214.647 224.013 214.412C224.394 214.178 224.84 214.061 225.351 214.061C225.863 214.061 226.309 214.178 226.69 214.412C227.071 214.647 227.367 214.976 227.578 215.399C227.789 215.823 227.894 216.318 227.894 216.884C227.894 217.447 227.789 217.94 227.578 218.361C227.367 218.782 227.071 219.11 226.69 219.345C226.309 219.579 225.863 219.696 225.351 219.696ZM225.355 218.805C225.686 218.805 225.961 218.717 226.179 218.542C226.397 218.367 226.558 218.134 226.662 217.843C226.768 217.551 226.822 217.231 226.822 216.88C226.822 216.532 226.768 216.213 226.662 215.921C226.558 215.628 226.397 215.392 226.179 215.215C225.961 215.037 225.686 214.948 225.355 214.948C225.021 214.948 224.744 215.037 224.524 215.215C224.306 215.392 224.144 215.628 224.038 215.921C223.933 216.213 223.881 216.532 223.881 216.88C223.881 217.231 223.933 217.551 224.038 217.843C224.144 218.134 224.306 218.367 224.524 218.542C224.744 218.717 225.021 218.805 225.355 218.805ZM233.56 214.132L231.582 219.586H230.446L228.464 214.132H229.604L230.985 218.329H231.042L232.42 214.132H233.56ZM236.723 219.696C236.186 219.696 235.723 219.581 235.335 219.352C234.949 219.12 234.65 218.794 234.44 218.375C234.231 217.954 234.127 217.46 234.127 216.894C234.127 216.336 234.231 215.843 234.44 215.417C234.65 214.991 234.944 214.658 235.32 214.419C235.699 214.18 236.142 214.061 236.649 214.061C236.956 214.061 237.255 214.112 237.543 214.213C237.832 214.315 238.091 214.475 238.321 214.693C238.551 214.911 238.732 215.193 238.864 215.541C238.997 215.887 239.063 216.307 239.063 216.802V217.179H234.727V216.383H238.023C238.023 216.104 237.966 215.856 237.852 215.641C237.739 215.423 237.579 215.251 237.373 215.126C237.169 215 236.93 214.938 236.656 214.938C236.357 214.938 236.097 215.011 235.874 215.158C235.654 215.302 235.484 215.492 235.363 215.726C235.245 215.958 235.185 216.21 235.185 216.482V217.104C235.185 217.469 235.249 217.779 235.377 218.034C235.507 218.29 235.689 218.485 235.921 218.62C236.153 218.753 236.424 218.819 236.734 218.819C236.935 218.819 237.118 218.791 237.284 218.734C237.45 218.675 237.593 218.587 237.714 218.471C237.835 218.355 237.927 218.212 237.991 218.041L238.996 218.223C238.915 218.518 238.771 218.778 238.563 219C238.357 219.22 238.097 219.392 237.785 219.515C237.475 219.636 237.121 219.696 236.723 219.696Z" fill="#4D6175"/>
<path d="M188.745 376.138H186.391V368.865H188.82C189.533 368.865 190.145 369.011 190.656 369.302C191.167 369.591 191.559 370.006 191.831 370.548C192.106 371.088 192.243 371.736 192.243 372.491C192.243 373.248 192.105 373.9 191.828 374.444C191.553 374.989 191.155 375.408 190.635 375.701C190.114 375.992 189.484 376.138 188.745 376.138ZM187.488 375.179H188.685C189.239 375.179 189.7 375.075 190.066 374.867C190.433 374.656 190.708 374.352 190.89 373.954C191.073 373.554 191.164 373.066 191.164 372.491C191.164 371.92 191.073 371.436 190.89 371.039C190.71 370.641 190.442 370.339 190.084 370.133C189.727 369.927 189.283 369.824 188.753 369.824H187.488V375.179ZM193.523 376.138V370.683H194.584V376.138H193.523ZM194.059 369.842C193.874 369.842 193.716 369.78 193.583 369.657C193.453 369.532 193.388 369.382 193.388 369.21C193.388 369.034 193.453 368.885 193.583 368.762C193.716 368.637 193.874 368.574 194.059 368.574C194.243 368.574 194.401 368.637 194.531 368.762C194.664 368.885 194.73 369.034 194.73 369.21C194.73 369.382 194.664 369.532 194.531 369.657C194.401 369.78 194.243 369.842 194.059 369.842ZM200.1 372.015L199.138 372.186C199.098 372.062 199.034 371.945 198.946 371.834C198.861 371.723 198.745 371.632 198.598 371.561C198.451 371.49 198.268 371.454 198.048 371.454C197.747 371.454 197.496 371.521 197.295 371.656C197.094 371.789 196.993 371.961 196.993 372.171C196.993 372.354 197.06 372.5 197.195 372.612C197.33 372.723 197.548 372.814 197.849 372.885L198.715 373.084C199.217 373.2 199.591 373.379 199.837 373.62C200.084 373.862 200.207 374.175 200.207 374.561C200.207 374.888 200.112 375.179 199.923 375.435C199.736 375.688 199.474 375.887 199.138 376.031C198.804 376.176 198.417 376.248 197.977 376.248C197.366 376.248 196.867 376.118 196.482 375.857C196.096 375.595 195.859 375.222 195.771 374.739L196.798 374.583C196.862 374.85 196.993 375.052 197.192 375.19C197.391 375.325 197.65 375.392 197.97 375.392C198.318 375.392 198.596 375.32 198.804 375.176C199.012 375.029 199.117 374.85 199.117 374.639C199.117 374.469 199.053 374.326 198.925 374.21C198.799 374.094 198.606 374.006 198.346 373.947L197.423 373.744C196.914 373.628 196.537 373.444 196.293 373.19C196.052 372.937 195.931 372.616 195.931 372.228C195.931 371.906 196.021 371.624 196.201 371.383C196.381 371.141 196.63 370.953 196.947 370.818C197.264 370.681 197.627 370.612 198.037 370.612C198.626 370.612 199.091 370.74 199.429 370.996C199.768 371.249 199.991 371.589 200.1 372.015ZM202.962 376.259C202.616 376.259 202.303 376.195 202.024 376.067C201.745 375.937 201.523 375.748 201.36 375.502C201.199 375.256 201.118 374.954 201.118 374.597C201.118 374.289 201.178 374.036 201.296 373.837C201.414 373.638 201.574 373.481 201.775 373.365C201.977 373.248 202.202 373.161 202.45 373.102C202.699 373.043 202.952 372.998 203.21 372.967C203.537 372.929 203.802 372.898 204.006 372.874C204.209 372.848 204.357 372.807 204.449 372.75C204.542 372.693 204.588 372.601 204.588 372.473V372.448C204.588 372.138 204.5 371.898 204.325 371.727C204.152 371.557 203.894 371.472 203.551 371.472C203.194 371.472 202.912 371.551 202.706 371.71C202.502 371.866 202.361 372.04 202.283 372.232L201.285 372.004C201.404 371.673 201.577 371.405 201.804 371.202C202.034 370.996 202.297 370.847 202.596 370.754C202.894 370.66 203.208 370.612 203.537 370.612C203.755 370.612 203.985 370.638 204.229 370.69C204.476 370.74 204.705 370.833 204.918 370.967C205.134 371.102 205.31 371.295 205.447 371.546C205.585 371.795 205.653 372.118 205.653 372.516V376.138H204.616V375.392H204.574C204.505 375.53 204.402 375.664 204.265 375.797C204.127 375.93 203.951 376.04 203.736 376.127C203.52 376.215 203.262 376.259 202.962 376.259ZM203.192 375.406C203.486 375.406 203.737 375.348 203.945 375.232C204.156 375.116 204.316 374.965 204.425 374.778C204.536 374.588 204.592 374.386 204.592 374.171V373.467C204.554 373.505 204.48 373.541 204.371 373.574C204.265 373.605 204.143 373.632 204.006 373.656C203.868 373.677 203.735 373.697 203.604 373.716C203.474 373.733 203.365 373.747 203.278 373.759C203.072 373.785 202.883 373.829 202.713 373.89C202.545 373.952 202.41 374.04 202.308 374.156C202.209 374.27 202.159 374.422 202.159 374.611C202.159 374.874 202.256 375.073 202.45 375.208C202.644 375.34 202.892 375.406 203.192 375.406ZM207.068 378.183V370.683H208.104V371.568H208.193C208.255 371.454 208.344 371.323 208.46 371.173C208.576 371.024 208.737 370.894 208.943 370.783C209.149 370.669 209.421 370.612 209.759 370.612C210.2 370.612 210.593 370.724 210.938 370.946C211.284 371.169 211.555 371.49 211.751 371.909C211.95 372.328 212.05 372.832 212.05 373.421C212.05 374.011 211.952 374.516 211.755 374.938C211.559 375.357 211.289 375.68 210.945 375.907C210.602 376.132 210.21 376.244 209.77 376.244C209.439 376.244 209.167 376.189 208.957 376.078C208.748 375.966 208.585 375.836 208.467 375.687C208.348 375.538 208.257 375.405 208.193 375.289H208.129V378.183H207.068ZM208.108 373.411C208.108 373.794 208.164 374.13 208.275 374.419C208.386 374.708 208.547 374.934 208.758 375.097C208.969 375.258 209.227 375.339 209.532 375.339C209.849 375.339 210.114 375.255 210.327 375.087C210.541 374.916 210.702 374.686 210.81 374.394C210.922 374.103 210.977 373.775 210.977 373.411C210.977 373.051 210.923 372.728 210.814 372.441C210.707 372.155 210.546 371.929 210.331 371.763C210.118 371.597 209.852 371.514 209.532 371.514C209.224 371.514 208.964 371.594 208.751 371.752C208.54 371.911 208.38 372.132 208.271 372.416C208.162 372.7 208.108 373.032 208.108 373.411ZM213.239 378.183V370.683H214.276V371.568H214.365C214.427 371.454 214.515 371.323 214.631 371.173C214.747 371.024 214.908 370.894 215.114 370.783C215.32 370.669 215.593 370.612 215.931 370.612C216.372 370.612 216.765 370.724 217.11 370.946C217.456 371.169 217.727 371.49 217.923 371.909C218.122 372.328 218.222 372.832 218.222 373.421C218.222 374.011 218.123 374.516 217.927 374.938C217.73 375.357 217.461 375.68 217.117 375.907C216.774 376.132 216.382 376.244 215.942 376.244C215.61 376.244 215.339 376.189 215.129 376.078C214.92 375.966 214.757 375.836 214.639 375.687C214.52 375.538 214.429 375.405 214.365 375.289H214.301V378.183H213.239ZM214.28 373.411C214.28 373.794 214.336 374.13 214.447 374.419C214.558 374.708 214.719 374.934 214.93 375.097C215.14 375.258 215.399 375.339 215.704 375.339C216.021 375.339 216.286 375.255 216.499 375.087C216.712 374.916 216.873 374.686 216.982 374.394C217.094 374.103 217.149 373.775 217.149 373.411C217.149 373.051 217.095 372.728 216.986 372.441C216.879 372.155 216.718 371.929 216.503 371.763C216.29 371.597 216.024 371.514 215.704 371.514C215.396 371.514 215.136 371.594 214.923 371.752C214.712 371.911 214.552 372.132 214.443 372.416C214.334 372.7 214.28 373.032 214.28 373.411ZM219.411 376.138V370.683H220.438V371.55H220.494C220.594 371.256 220.769 371.025 221.02 370.857C221.273 370.687 221.56 370.602 221.879 370.602C221.946 370.602 222.024 370.604 222.114 370.609C222.206 370.614 222.278 370.619 222.33 370.627V371.642C222.288 371.63 222.212 371.617 222.103 371.603C221.994 371.587 221.885 371.578 221.776 371.578C221.525 371.578 221.302 371.632 221.105 371.738C220.911 371.842 220.757 371.988 220.644 372.175C220.53 372.36 220.473 372.57 220.473 372.807V376.138H219.411ZM225.351 376.248C224.84 376.248 224.394 376.131 224.013 375.896C223.632 375.662 223.336 375.334 223.125 374.913C222.914 374.491 222.809 373.999 222.809 373.436C222.809 372.87 222.914 372.375 223.125 371.951C223.336 371.527 223.632 371.198 224.013 370.964C224.394 370.73 224.84 370.612 225.351 370.612C225.863 370.612 226.309 370.73 226.69 370.964C227.071 371.198 227.367 371.527 227.578 371.951C227.789 372.375 227.894 372.87 227.894 373.436C227.894 373.999 227.789 374.491 227.578 374.913C227.367 375.334 227.071 375.662 226.69 375.896C226.309 376.131 225.863 376.248 225.351 376.248ZM225.355 375.357C225.686 375.357 225.961 375.269 226.179 375.094C226.397 374.919 226.558 374.686 226.662 374.394C226.768 374.103 226.822 373.782 226.822 373.432C226.822 373.084 226.768 372.764 226.662 372.473C226.558 372.18 226.397 371.944 226.179 371.766C225.961 371.589 225.686 371.5 225.355 371.5C225.021 371.5 224.744 371.589 224.524 371.766C224.306 371.944 224.144 372.18 224.038 372.473C223.933 372.764 223.881 373.084 223.881 373.432C223.881 373.782 223.933 374.103 224.038 374.394C224.144 374.686 224.306 374.919 224.524 375.094C224.744 375.269 225.021 375.357 225.355 375.357ZM233.56 370.683L231.582 376.138H230.446L228.464 370.683H229.604L230.985 374.881H231.042L232.42 370.683H233.56ZM236.723 376.248C236.186 376.248 235.723 376.133 235.335 375.904C234.949 375.672 234.65 375.346 234.44 374.927C234.231 374.506 234.127 374.012 234.127 373.446C234.127 372.887 234.231 372.395 234.44 371.969C234.65 371.543 234.944 371.21 235.32 370.971C235.699 370.732 236.142 370.612 236.649 370.612C236.956 370.612 237.255 370.663 237.543 370.765C237.832 370.867 238.091 371.027 238.321 371.244C238.551 371.462 238.732 371.745 238.864 372.093C238.997 372.439 239.063 372.859 239.063 373.354V373.73H234.727V372.935H238.023C238.023 372.655 237.966 372.408 237.852 372.193C237.739 371.975 237.579 371.803 237.373 371.678C237.169 371.552 236.93 371.49 236.656 371.49C236.357 371.49 236.097 371.563 235.874 371.71C235.654 371.854 235.484 372.043 235.363 372.278C235.245 372.51 235.185 372.762 235.185 373.034V373.656C235.185 374.02 235.249 374.33 235.377 374.586C235.507 374.842 235.689 375.037 235.921 375.172C236.153 375.305 236.424 375.371 236.734 375.371C236.935 375.371 237.118 375.342 237.284 375.286C237.45 375.226 237.593 375.139 237.714 375.023C237.835 374.907 237.927 374.764 237.991 374.593L238.996 374.774C238.915 375.07 238.771 375.329 238.563 375.552C238.357 375.772 238.097 375.944 237.785 376.067C237.475 376.188 237.121 376.248 236.723 376.248Z" fill="#4D6175"/>
<path d="M188.745 535.299H186.391V528.026H188.82C189.533 528.026 190.145 528.172 190.656 528.463C191.167 528.752 191.559 529.167 191.831 529.709C192.106 530.249 192.243 530.897 192.243 531.652C192.243 532.409 192.105 533.06 191.828 533.605C191.553 534.149 191.155 534.568 190.635 534.862C190.114 535.153 189.484 535.299 188.745 535.299ZM187.488 534.34H188.685C189.239 534.34 189.7 534.236 190.066 534.028C190.433 533.817 190.708 533.513 190.89 533.115C191.073 532.715 191.164 532.227 191.164 531.652C191.164 531.081 191.073 530.597 190.89 530.199C190.71 529.802 190.442 529.5 190.084 529.294C189.727 529.088 189.283 528.985 188.753 528.985H187.488V534.34ZM193.523 535.299V529.844H194.584V535.299H193.523ZM194.059 529.003C193.874 529.003 193.716 528.941 193.583 528.818C193.453 528.693 193.388 528.543 193.388 528.371C193.388 528.195 193.453 528.046 193.583 527.923C193.716 527.798 193.874 527.735 194.059 527.735C194.243 527.735 194.401 527.798 194.531 527.923C194.664 528.046 194.73 528.195 194.73 528.371C194.73 528.543 194.664 528.693 194.531 528.818C194.401 528.941 194.243 529.003 194.059 529.003ZM200.1 531.176L199.138 531.346C199.098 531.223 199.034 531.106 198.946 530.995C198.861 530.884 198.745 530.792 198.598 530.721C198.451 530.65 198.268 530.615 198.048 530.615C197.747 530.615 197.496 530.682 197.295 530.817C197.094 530.95 196.993 531.122 196.993 531.332C196.993 531.515 197.06 531.661 197.195 531.773C197.33 531.884 197.548 531.975 197.849 532.046L198.715 532.245C199.217 532.361 199.591 532.54 199.837 532.781C200.084 533.023 200.207 533.336 200.207 533.722C200.207 534.049 200.112 534.34 199.923 534.596C199.736 534.849 199.474 535.048 199.138 535.192C198.804 535.337 198.417 535.409 197.977 535.409C197.366 535.409 196.867 535.279 196.482 535.018C196.096 534.756 195.859 534.383 195.771 533.9L196.798 533.743C196.862 534.011 196.993 534.213 197.192 534.351C197.391 534.486 197.65 534.553 197.97 534.553C198.318 534.553 198.596 534.481 198.804 534.336C199.012 534.19 199.117 534.011 199.117 533.8C199.117 533.63 199.053 533.487 198.925 533.371C198.799 533.255 198.606 533.167 198.346 533.108L197.423 532.905C196.914 532.789 196.537 532.605 196.293 532.351C196.052 532.098 195.931 531.777 195.931 531.389C195.931 531.067 196.021 530.785 196.201 530.544C196.381 530.302 196.63 530.114 196.947 529.979C197.264 529.842 197.627 529.773 198.037 529.773C198.626 529.773 199.091 529.901 199.429 530.157C199.768 530.41 199.991 530.75 200.1 531.176ZM202.962 535.42C202.616 535.42 202.303 535.356 202.024 535.228C201.745 535.098 201.523 534.909 201.36 534.663C201.199 534.417 201.118 534.115 201.118 533.758C201.118 533.45 201.178 533.197 201.296 532.998C201.414 532.799 201.574 532.641 201.775 532.525C201.977 532.409 202.202 532.322 202.45 532.263C202.699 532.203 202.952 532.158 203.21 532.128C203.537 532.09 203.802 532.059 204.006 532.035C204.209 532.009 204.357 531.968 204.449 531.911C204.542 531.854 204.588 531.762 204.588 531.634V531.609C204.588 531.299 204.5 531.059 204.325 530.888C204.152 530.718 203.894 530.633 203.551 530.633C203.194 530.633 202.912 530.712 202.706 530.871C202.502 531.027 202.361 531.201 202.283 531.393L201.285 531.165C201.404 530.834 201.577 530.566 201.804 530.363C202.034 530.157 202.297 530.008 202.596 529.915C202.894 529.821 203.208 529.773 203.537 529.773C203.755 529.773 203.985 529.799 204.229 529.851C204.476 529.901 204.705 529.993 204.918 530.128C205.134 530.263 205.31 530.456 205.447 530.707C205.585 530.956 205.653 531.279 205.653 531.677V535.299H204.616V534.553H204.574C204.505 534.69 204.402 534.825 204.265 534.958C204.127 535.09 203.951 535.201 203.736 535.288C203.52 535.376 203.262 535.42 202.962 535.42ZM203.192 534.567C203.486 534.567 203.737 534.509 203.945 534.393C204.156 534.277 204.316 534.126 204.425 533.939C204.536 533.749 204.592 533.547 204.592 533.331V532.628C204.554 532.666 204.48 532.702 204.371 532.735C204.265 532.766 204.143 532.793 204.006 532.817C203.868 532.838 203.735 532.858 203.604 532.877C203.474 532.894 203.365 532.908 203.278 532.92C203.072 532.946 202.883 532.989 202.713 533.051C202.545 533.113 202.41 533.201 202.308 533.317C202.209 533.431 202.159 533.582 202.159 533.772C202.159 534.035 202.256 534.233 202.45 534.368C202.644 534.501 202.892 534.567 203.192 534.567ZM207.068 537.344V529.844H208.104V530.729H208.193C208.255 530.615 208.344 530.483 208.46 530.334C208.576 530.185 208.737 530.055 208.943 529.944C209.149 529.83 209.421 529.773 209.759 529.773C210.2 529.773 210.593 529.885 210.938 530.107C211.284 530.33 211.555 530.65 211.751 531.069C211.95 531.488 212.05 531.993 212.05 532.582C212.05 533.172 211.952 533.677 211.755 534.099C211.559 534.518 211.289 534.841 210.945 535.068C210.602 535.293 210.21 535.405 209.77 535.405C209.439 535.405 209.167 535.35 208.957 535.238C208.748 535.127 208.585 534.997 208.467 534.848C208.348 534.699 208.257 534.566 208.193 534.45H208.129V537.344H207.068ZM208.108 532.572C208.108 532.955 208.164 533.291 208.275 533.58C208.386 533.869 208.547 534.095 208.758 534.258C208.969 534.419 209.227 534.5 209.532 534.5C209.849 534.5 210.114 534.416 210.327 534.248C210.541 534.077 210.702 533.846 210.81 533.555C210.922 533.264 210.977 532.936 210.977 532.572C210.977 532.212 210.923 531.889 210.814 531.602C210.707 531.316 210.546 531.09 210.331 530.924C210.118 530.758 209.852 530.675 209.532 530.675C209.224 530.675 208.964 530.755 208.751 530.913C208.54 531.072 208.38 531.293 208.271 531.577C208.162 531.861 208.108 532.193 208.108 532.572ZM213.239 537.344V529.844H214.276V530.729H214.365C214.427 530.615 214.515 530.483 214.631 530.334C214.747 530.185 214.908 530.055 215.114 529.944C215.32 529.83 215.593 529.773 215.931 529.773C216.372 529.773 216.765 529.885 217.11 530.107C217.456 530.33 217.727 530.65 217.923 531.069C218.122 531.488 218.222 531.993 218.222 532.582C218.222 533.172 218.123 533.677 217.927 534.099C217.73 534.518 217.461 534.841 217.117 535.068C216.774 535.293 216.382 535.405 215.942 535.405C215.61 535.405 215.339 535.35 215.129 535.238C214.92 535.127 214.757 534.997 214.639 534.848C214.52 534.699 214.429 534.566 214.365 534.45H214.301V537.344H213.239ZM214.28 532.572C214.28 532.955 214.336 533.291 214.447 533.58C214.558 533.869 214.719 534.095 214.93 534.258C215.14 534.419 215.399 534.5 215.704 534.5C216.021 534.5 216.286 534.416 216.499 534.248C216.712 534.077 216.873 533.846 216.982 533.555C217.094 533.264 217.149 532.936 217.149 532.572C217.149 532.212 217.095 531.889 216.986 531.602C216.879 531.316 216.718 531.09 216.503 530.924C216.29 530.758 216.024 530.675 215.704 530.675C215.396 530.675 215.136 530.755 214.923 530.913C214.712 531.072 214.552 531.293 214.443 531.577C214.334 531.861 214.28 532.193 214.28 532.572ZM219.411 535.299V529.844H220.438V530.711H220.494C220.594 530.417 220.769 530.186 221.02 530.018C221.273 529.848 221.56 529.763 221.879 529.763C221.946 529.763 222.024 529.765 222.114 529.77C222.206 529.774 222.278 529.78 222.33 529.787V530.803C222.288 530.791 222.212 530.778 222.103 530.764C221.994 530.747 221.885 530.739 221.776 530.739C221.525 530.739 221.302 530.792 221.105 530.899C220.911 531.003 220.757 531.149 220.644 531.336C220.53 531.52 220.473 531.731 220.473 531.968V535.299H219.411ZM225.351 535.409C224.84 535.409 224.394 535.292 224.013 535.057C223.632 534.823 223.336 534.495 223.125 534.074C222.914 533.652 222.809 533.16 222.809 532.596C222.809 532.031 222.914 531.536 223.125 531.112C223.336 530.688 223.632 530.359 224.013 530.125C224.394 529.89 224.84 529.773 225.351 529.773C225.863 529.773 226.309 529.89 226.69 530.125C227.071 530.359 227.367 530.688 227.578 531.112C227.789 531.536 227.894 532.031 227.894 532.596C227.894 533.16 227.789 533.652 227.578 534.074C227.367 534.495 227.071 534.823 226.69 535.057C226.309 535.292 225.863 535.409 225.351 535.409ZM225.355 534.518C225.686 534.518 225.961 534.43 226.179 534.255C226.397 534.08 226.558 533.846 226.662 533.555C226.768 533.264 226.822 532.943 226.822 532.593C226.822 532.245 226.768 531.925 226.662 531.634C226.558 531.34 226.397 531.105 226.179 530.927C225.961 530.75 225.686 530.661 225.355 530.661C225.021 530.661 224.744 530.75 224.524 530.927C224.306 531.105 224.144 531.34 224.038 531.634C223.933 531.925 223.881 532.245 223.881 532.593C223.881 532.943 223.933 533.264 224.038 533.555C224.144 533.846 224.306 534.08 224.524 534.255C224.744 534.43 225.021 534.518 225.355 534.518ZM233.56 529.844L231.582 535.299H230.446L228.464 529.844H229.604L230.985 534.042H231.042L232.42 529.844H233.56ZM236.723 535.409C236.186 535.409 235.723 535.294 235.335 535.064C234.949 534.832 234.65 534.507 234.44 534.088C234.231 533.666 234.127 533.173 234.127 532.607C234.127 532.048 234.231 531.556 234.44 531.13C234.65 530.704 234.944 530.371 235.32 530.132C235.699 529.893 236.142 529.773 236.649 529.773C236.956 529.773 237.255 529.824 237.543 529.926C237.832 530.028 238.091 530.188 238.321 530.405C238.551 530.623 238.732 530.906 238.864 531.254C238.997 531.6 239.063 532.02 239.063 532.515V532.891H234.727V532.096H238.023C238.023 531.816 237.966 531.569 237.852 531.354C237.739 531.136 237.579 530.964 237.373 530.839C237.169 530.713 236.93 530.65 236.656 530.65C236.357 530.65 236.097 530.724 235.874 530.871C235.654 531.015 235.484 531.204 235.363 531.439C235.245 531.671 235.185 531.923 235.185 532.195V532.817C235.185 533.181 235.249 533.491 235.377 533.747C235.507 534.003 235.689 534.198 235.921 534.333C236.153 534.465 236.424 534.532 236.734 534.532C236.935 534.532 237.118 534.503 237.284 534.447C237.45 534.387 237.593 534.3 237.714 534.184C237.835 534.068 237.927 533.925 237.991 533.754L238.996 533.935C238.915 534.231 238.771 534.49 238.563 534.713C238.357 534.933 238.097 535.105 237.785 535.228C237.475 535.349 237.121 535.409 236.723 535.409Z" fill="#4D6175"/>
<path d="M87.856 219.586H86.6912L89.3084 212.313H90.5761L93.1933 219.586H92.0286L89.9725 213.634H89.9156L87.856 219.586ZM88.0513 216.738H91.8297V217.661H88.0513V216.738ZM94.1584 221.632V214.132H95.1953V215.016H95.2841C95.3456 214.902 95.4344 214.771 95.5504 214.622C95.6664 214.473 95.8274 214.342 96.0334 214.231C96.2393 214.117 96.5116 214.061 96.8501 214.061C97.2905 214.061 97.6835 214.172 98.0291 214.394C98.3747 214.617 98.6458 214.938 98.8423 215.357C99.0412 215.776 99.1406 216.28 99.1406 216.87C99.1406 217.459 99.0424 217.964 98.8459 218.386C98.6494 218.805 98.3795 219.128 98.0362 219.355C97.6929 219.58 97.3011 219.693 96.8608 219.693C96.5293 219.693 96.2583 219.637 96.0476 219.526C95.8392 219.415 95.6759 219.284 95.5575 219.135C95.4391 218.986 95.348 218.853 95.2841 218.737H95.2201V221.632H94.1584ZM95.1988 216.859C95.1988 217.242 95.2545 217.579 95.3657 217.867C95.477 218.156 95.638 218.382 95.8487 218.546C96.0594 218.707 96.3174 218.787 96.6228 218.787C96.9401 218.787 97.2052 218.703 97.4183 218.535C97.6314 218.365 97.7924 218.134 97.9013 217.843C98.0125 217.551 98.0682 217.223 98.0682 216.859C98.0682 216.499 98.0137 216.176 97.9048 215.889C97.7983 215.603 97.6373 215.377 97.4219 215.211C97.2088 215.045 96.9424 214.963 96.6228 214.963C96.3151 214.963 96.0547 215.042 95.8416 215.201C95.6309 215.359 95.4711 215.58 95.3622 215.865C95.2533 216.149 95.1988 216.48 95.1988 216.859ZM100.33 221.632V214.132H101.367V215.016H101.456C101.517 214.902 101.606 214.771 101.722 214.622C101.838 214.473 101.999 214.342 102.205 214.231C102.411 214.117 102.683 214.061 103.022 214.061C103.462 214.061 103.855 214.172 104.201 214.394C104.547 214.617 104.818 214.938 105.014 215.357C105.213 215.776 105.312 216.28 105.312 216.87C105.312 217.459 105.214 217.964 105.018 218.386C104.821 218.805 104.551 219.128 104.208 219.355C103.865 219.58 103.473 219.693 103.033 219.693C102.701 219.693 102.43 219.637 102.219 219.526C102.011 219.415 101.848 219.284 101.729 219.135C101.611 218.986 101.52 218.853 101.456 218.737H101.392V221.632H100.33ZM101.371 216.859C101.371 217.242 101.426 217.579 101.538 217.867C101.649 218.156 101.81 218.382 102.021 218.546C102.231 218.707 102.489 218.787 102.795 218.787C103.112 218.787 103.377 218.703 103.59 218.535C103.803 218.365 103.964 218.134 104.073 217.843C104.184 217.551 104.24 217.223 104.24 216.859C104.24 216.499 104.186 216.176 104.077 215.889C103.97 215.603 103.809 215.377 103.594 215.211C103.381 215.045 103.114 214.963 102.795 214.963C102.487 214.963 102.227 215.042 102.013 215.201C101.803 215.359 101.643 215.58 101.534 215.865C101.425 216.149 101.371 216.48 101.371 216.859ZM106.502 219.586V214.132H107.528V214.998H107.585C107.685 214.705 107.86 214.474 108.111 214.306C108.364 214.135 108.651 214.05 108.97 214.05C109.036 214.05 109.115 214.052 109.205 214.057C109.297 214.062 109.369 214.068 109.421 214.075V215.09C109.379 215.079 109.303 215.066 109.194 215.051C109.085 215.035 108.976 215.027 108.867 215.027C108.616 215.027 108.392 215.08 108.196 215.186C108.002 215.29 107.848 215.436 107.734 215.623C107.621 215.808 107.564 216.018 107.564 216.255V219.586H106.502ZM112.442 219.696C111.931 219.696 111.485 219.579 111.103 219.345C110.722 219.11 110.426 218.782 110.216 218.361C110.005 217.94 109.9 217.447 109.9 216.884C109.9 216.318 110.005 215.823 110.216 215.399C110.426 214.976 110.722 214.647 111.103 214.412C111.485 214.178 111.931 214.061 112.442 214.061C112.954 214.061 113.4 214.178 113.781 214.412C114.162 214.647 114.458 214.976 114.669 215.399C114.88 215.823 114.985 216.318 114.985 216.884C114.985 217.447 114.88 217.94 114.669 218.361C114.458 218.782 114.162 219.11 113.781 219.345C113.4 219.579 112.954 219.696 112.442 219.696ZM112.446 218.805C112.777 218.805 113.052 218.717 113.27 218.542C113.487 218.367 113.648 218.134 113.753 217.843C113.859 217.551 113.912 217.231 113.912 216.88C113.912 216.532 113.859 216.213 113.753 215.921C113.648 215.628 113.487 215.392 113.27 215.215C113.052 215.037 112.777 214.948 112.446 214.948C112.112 214.948 111.835 215.037 111.615 215.215C111.397 215.392 111.235 215.628 111.128 215.921C111.024 216.213 110.972 216.532 110.972 216.88C110.972 217.231 111.024 217.551 111.128 217.843C111.235 218.134 111.397 218.367 111.615 218.542C111.835 218.717 112.112 218.805 112.446 218.805ZM120.651 214.132L118.673 219.586H117.536L115.555 214.132H116.695L118.076 218.329H118.133L119.511 214.132H120.651ZM123.814 219.696C123.276 219.696 122.814 219.581 122.425 219.352C122.04 219.12 121.741 218.794 121.531 218.375C121.322 217.954 121.218 217.46 121.218 216.894C121.218 216.336 121.322 215.843 121.531 215.417C121.741 214.991 122.035 214.658 122.411 214.419C122.79 214.18 123.233 214.061 123.739 214.061C124.047 214.061 124.345 214.112 124.634 214.213C124.923 214.315 125.182 214.475 125.412 214.693C125.642 214.911 125.823 215.193 125.955 215.541C126.088 215.887 126.154 216.307 126.154 216.802V217.179H121.818V216.383H125.114C125.114 216.104 125.057 215.856 124.943 215.641C124.83 215.423 124.67 215.251 124.464 215.126C124.26 215 124.021 214.938 123.746 214.938C123.448 214.938 123.188 215.011 122.965 215.158C122.745 215.302 122.575 215.492 122.454 215.726C122.335 215.958 122.276 216.21 122.276 216.482V217.104C122.276 217.469 122.34 217.779 122.468 218.034C122.598 218.29 122.779 218.485 123.011 218.62C123.243 218.753 123.514 218.819 123.825 218.819C124.026 218.819 124.209 218.791 124.375 218.734C124.541 218.675 124.684 218.587 124.805 218.471C124.925 218.355 125.018 218.212 125.082 218.041L126.087 218.223C126.006 218.518 125.862 218.778 125.653 219C125.447 219.22 125.188 219.392 124.876 219.515C124.566 219.636 124.212 219.696 123.814 219.696Z" fill="white"/>
<path d="M87.856 376.138H86.6912L89.3084 368.865H90.5761L93.1933 376.138H92.0286L89.9725 370.186H89.9156L87.856 376.138ZM88.0513 373.29H91.8297V374.213H88.0513V373.29ZM94.1584 378.183V370.683H95.1953V371.568H95.2841C95.3456 371.454 95.4344 371.323 95.5504 371.173C95.6664 371.024 95.8274 370.894 96.0334 370.783C96.2393 370.669 96.5116 370.612 96.8501 370.612C97.2905 370.612 97.6835 370.724 98.0291 370.946C98.3747 371.169 98.6458 371.49 98.8423 371.909C99.0412 372.328 99.1406 372.832 99.1406 373.421C99.1406 374.011 99.0424 374.516 98.8459 374.938C98.6494 375.357 98.3795 375.68 98.0362 375.907C97.6929 376.132 97.3011 376.244 96.8608 376.244C96.5293 376.244 96.2583 376.189 96.0476 376.078C95.8392 375.966 95.6759 375.836 95.5575 375.687C95.4391 375.538 95.348 375.405 95.2841 375.289H95.2201V378.183H94.1584ZM95.1988 373.411C95.1988 373.794 95.2545 374.13 95.3657 374.419C95.477 374.708 95.638 374.934 95.8487 375.097C96.0594 375.258 96.3174 375.339 96.6228 375.339C96.9401 375.339 97.2052 375.255 97.4183 375.087C97.6314 374.916 97.7924 374.686 97.9013 374.394C98.0125 374.103 98.0682 373.775 98.0682 373.411C98.0682 373.051 98.0137 372.728 97.9048 372.441C97.7983 372.155 97.6373 371.929 97.4219 371.763C97.2088 371.597 96.9424 371.514 96.6228 371.514C96.3151 371.514 96.0547 371.594 95.8416 371.752C95.6309 371.911 95.4711 372.132 95.3622 372.416C95.2533 372.7 95.1988 373.032 95.1988 373.411ZM100.33 378.183V370.683H101.367V371.568H101.456C101.517 371.454 101.606 371.323 101.722 371.173C101.838 371.024 101.999 370.894 102.205 370.783C102.411 370.669 102.683 370.612 103.022 370.612C103.462 370.612 103.855 370.724 104.201 370.946C104.547 371.169 104.818 371.49 105.014 371.909C105.213 372.328 105.312 372.832 105.312 373.421C105.312 374.011 105.214 374.516 105.018 374.938C104.821 375.357 104.551 375.68 104.208 375.907C103.865 376.132 103.473 376.244 103.033 376.244C102.701 376.244 102.43 376.189 102.219 376.078C102.011 375.966 101.848 375.836 101.729 375.687C101.611 375.538 101.52 375.405 101.456 375.289H101.392V378.183H100.33ZM101.371 373.411C101.371 373.794 101.426 374.13 101.538 374.419C101.649 374.708 101.81 374.934 102.021 375.097C102.231 375.258 102.489 375.339 102.795 375.339C103.112 375.339 103.377 375.255 103.59 375.087C103.803 374.916 103.964 374.686 104.073 374.394C104.184 374.103 104.24 373.775 104.24 373.411C104.24 373.051 104.186 372.728 104.077 372.441C103.97 372.155 103.809 371.929 103.594 371.763C103.381 371.597 103.114 371.514 102.795 371.514C102.487 371.514 102.227 371.594 102.013 371.752C101.803 371.911 101.643 372.132 101.534 372.416C101.425 372.7 101.371 373.032 101.371 373.411ZM106.502 376.138V370.683H107.528V371.55H107.585C107.685 371.256 107.86 371.025 108.111 370.857C108.364 370.687 108.651 370.602 108.97 370.602C109.036 370.602 109.115 370.604 109.205 370.609C109.297 370.614 109.369 370.619 109.421 370.627V371.642C109.379 371.63 109.303 371.617 109.194 371.603C109.085 371.587 108.976 371.578 108.867 371.578C108.616 371.578 108.392 371.632 108.196 371.738C108.002 371.842 107.848 371.988 107.734 372.175C107.621 372.36 107.564 372.57 107.564 372.807V376.138H106.502ZM112.442 376.248C111.931 376.248 111.485 376.131 111.103 375.896C110.722 375.662 110.426 375.334 110.216 374.913C110.005 374.491 109.9 373.999 109.9 373.436C109.9 372.87 110.005 372.375 110.216 371.951C110.426 371.527 110.722 371.198 111.103 370.964C111.485 370.73 111.931 370.612 112.442 370.612C112.954 370.612 113.4 370.73 113.781 370.964C114.162 371.198 114.458 371.527 114.669 371.951C114.88 372.375 114.985 372.87 114.985 373.436C114.985 373.999 114.88 374.491 114.669 374.913C114.458 375.334 114.162 375.662 113.781 375.896C113.4 376.131 112.954 376.248 112.442 376.248ZM112.446 375.357C112.777 375.357 113.052 375.269 113.27 375.094C113.487 374.919 113.648 374.686 113.753 374.394C113.859 374.103 113.912 373.782 113.912 373.432C113.912 373.084 113.859 372.764 113.753 372.473C113.648 372.18 113.487 371.944 113.27 371.766C113.052 371.589 112.777 371.5 112.446 371.5C112.112 371.5 111.835 371.589 111.615 371.766C111.397 371.944 111.235 372.18 111.128 372.473C111.024 372.764 110.972 373.084 110.972 373.432C110.972 373.782 111.024 374.103 111.128 374.394C111.235 374.686 111.397 374.919 111.615 375.094C111.835 375.269 112.112 375.357 112.446 375.357ZM120.651 370.683L118.673 376.138H117.536L115.555 370.683H116.695L118.076 374.881H118.133L119.511 370.683H120.651ZM123.814 376.248C123.276 376.248 122.814 376.133 122.425 375.904C122.04 375.672 121.741 375.346 121.531 374.927C121.322 374.506 121.218 374.012 121.218 373.446C121.218 372.887 121.322 372.395 121.531 371.969C121.741 371.543 122.035 371.21 122.411 370.971C122.79 370.732 123.233 370.612 123.739 370.612C124.047 370.612 124.345 370.663 124.634 370.765C124.923 370.867 125.182 371.027 125.412 371.244C125.642 371.462 125.823 371.745 125.955 372.093C126.088 372.439 126.154 372.859 126.154 373.354V373.73H121.818V372.935H125.114C125.114 372.655 125.057 372.408 124.943 372.193C124.83 371.975 124.67 371.803 124.464 371.678C124.26 371.552 124.021 371.49 123.746 371.49C123.448 371.49 123.188 371.563 122.965 371.71C122.745 371.854 122.575 372.043 122.454 372.278C122.335 372.51 122.276 372.762 122.276 373.034V373.656C122.276 374.02 122.34 374.33 122.468 374.586C122.598 374.842 122.779 375.037 123.011 375.172C123.243 375.305 123.514 375.371 123.825 375.371C124.026 375.371 124.209 375.342 124.375 375.286C124.541 375.226 124.684 375.139 124.805 375.023C124.925 374.907 125.018 374.764 125.082 374.593L126.087 374.774C126.006 375.07 125.862 375.329 125.653 375.552C125.447 375.772 125.188 375.944 124.876 376.067C124.566 376.188 124.212 376.248 123.814 376.248Z" fill="#3F4450"/>
<path d="M87.856 535.299H86.6912L89.3084 528.026H90.5761L93.1933 535.299H92.0286L89.9725 529.347H89.9156L87.856 535.299ZM88.0513 532.451H91.8297V533.374H88.0513V532.451ZM94.1584 537.344V529.844H95.1953V530.729H95.2841C95.3456 530.615 95.4344 530.483 95.5504 530.334C95.6664 530.185 95.8274 530.055 96.0334 529.944C96.2393 529.83 96.5116 529.773 96.8501 529.773C97.2905 529.773 97.6835 529.885 98.0291 530.107C98.3747 530.33 98.6458 530.65 98.8423 531.069C99.0412 531.488 99.1406 531.993 99.1406 532.582C99.1406 533.172 99.0424 533.677 98.8459 534.099C98.6494 534.518 98.3795 534.841 98.0362 535.068C97.6929 535.293 97.3011 535.405 96.8608 535.405C96.5293 535.405 96.2583 535.35 96.0476 535.238C95.8392 535.127 95.6759 534.997 95.5575 534.848C95.4391 534.699 95.348 534.566 95.2841 534.45H95.2201V537.344H94.1584ZM95.1988 532.572C95.1988 532.955 95.2545 533.291 95.3657 533.58C95.477 533.869 95.638 534.095 95.8487 534.258C96.0594 534.419 96.3174 534.5 96.6228 534.5C96.9401 534.5 97.2052 534.416 97.4183 534.248C97.6314 534.077 97.7924 533.846 97.9013 533.555C98.0125 533.264 98.0682 532.936 98.0682 532.572C98.0682 532.212 98.0137 531.889 97.9048 531.602C97.7983 531.316 97.6373 531.09 97.4219 530.924C97.2088 530.758 96.9424 530.675 96.6228 530.675C96.3151 530.675 96.0547 530.755 95.8416 530.913C95.6309 531.072 95.4711 531.293 95.3622 531.577C95.2533 531.861 95.1988 532.193 95.1988 532.572ZM100.33 537.344V529.844H101.367V530.729H101.456C101.517 530.615 101.606 530.483 101.722 530.334C101.838 530.185 101.999 530.055 102.205 529.944C102.411 529.83 102.683 529.773 103.022 529.773C103.462 529.773 103.855 529.885 104.201 530.107C104.547 530.33 104.818 530.65 105.014 531.069C105.213 531.488 105.312 531.993 105.312 532.582C105.312 533.172 105.214 533.677 105.018 534.099C104.821 534.518 104.551 534.841 104.208 535.068C103.865 535.293 103.473 535.405 103.033 535.405C102.701 535.405 102.43 535.35 102.219 535.238C102.011 535.127 101.848 534.997 101.729 534.848C101.611 534.699 101.52 534.566 101.456 534.45H101.392V537.344H100.33ZM101.371 532.572C101.371 532.955 101.426 533.291 101.538 533.58C101.649 533.869 101.81 534.095 102.021 534.258C102.231 534.419 102.489 534.5 102.795 534.5C103.112 534.5 103.377 534.416 103.59 534.248C103.803 534.077 103.964 533.846 104.073 533.555C104.184 533.264 104.24 532.936 104.24 532.572C104.24 532.212 104.186 531.889 104.077 531.602C103.97 531.316 103.809 531.09 103.594 530.924C103.381 530.758 103.114 530.675 102.795 530.675C102.487 530.675 102.227 530.755 102.013 530.913C101.803 531.072 101.643 531.293 101.534 531.577C101.425 531.861 101.371 532.193 101.371 532.572ZM106.502 535.299V529.844H107.528V530.711H107.585C107.685 530.417 107.86 530.186 108.111 530.018C108.364 529.848 108.651 529.763 108.97 529.763C109.036 529.763 109.115 529.765 109.205 529.77C109.297 529.774 109.369 529.78 109.421 529.787V530.803C109.379 530.791 109.303 530.778 109.194 530.764C109.085 530.747 108.976 530.739 108.867 530.739C108.616 530.739 108.392 530.792 108.196 530.899C108.002 531.003 107.848 531.149 107.734 531.336C107.621 531.52 107.564 531.731 107.564 531.968V535.299H106.502ZM112.442 535.409C111.931 535.409 111.485 535.292 111.103 535.057C110.722 534.823 110.426 534.495 110.216 534.074C110.005 533.652 109.9 533.16 109.9 532.596C109.9 532.031 110.005 531.536 110.216 531.112C110.426 530.688 110.722 530.359 111.103 530.125C111.485 529.89 111.931 529.773 112.442 529.773C112.954 529.773 113.4 529.89 113.781 530.125C114.162 530.359 114.458 530.688 114.669 531.112C114.88 531.536 114.985 532.031 114.985 532.596C114.985 533.16 114.88 533.652 114.669 534.074C114.458 534.495 114.162 534.823 113.781 535.057C113.4 535.292 112.954 535.409 112.442 535.409ZM112.446 534.518C112.777 534.518 113.052 534.43 113.27 534.255C113.487 534.08 113.648 533.846 113.753 533.555C113.859 533.264 113.912 532.943 113.912 532.593C113.912 532.245 113.859 531.925 113.753 531.634C113.648 531.34 113.487 531.105 113.27 530.927C113.052 530.75 112.777 530.661 112.446 530.661C112.112 530.661 111.835 530.75 111.615 530.927C111.397 531.105 111.235 531.34 111.128 531.634C111.024 531.925 110.972 532.245 110.972 532.593C110.972 532.943 111.024 533.264 111.128 533.555C111.235 533.846 111.397 534.08 111.615 534.255C111.835 534.43 112.112 534.518 112.446 534.518ZM120.651 529.844L118.673 535.299H117.536L115.555 529.844H116.695L118.076 534.042H118.133L119.511 529.844H120.651ZM123.814 535.409C123.276 535.409 122.814 535.294 122.425 535.064C122.04 534.832 121.741 534.507 121.531 534.088C121.322 533.666 121.218 533.173 121.218 532.607C121.218 532.048 121.322 531.556 121.531 531.13C121.741 530.704 122.035 530.371 122.411 530.132C122.79 529.893 123.233 529.773 123.739 529.773C124.047 529.773 124.345 529.824 124.634 529.926C124.923 530.028 125.182 530.188 125.412 530.405C125.642 530.623 125.823 530.906 125.955 531.254C126.088 531.6 126.154 532.02 126.154 532.515V532.891H121.818V532.096H125.114C125.114 531.816 125.057 531.569 124.943 531.354C124.83 531.136 124.67 530.964 124.464 530.839C124.26 530.713 124.021 530.65 123.746 530.65C123.448 530.65 123.188 530.724 122.965 530.871C122.745 531.015 122.575 531.204 122.454 531.439C122.335 531.671 122.276 531.923 122.276 532.195V532.817C122.276 533.181 122.34 533.491 122.468 533.747C122.598 534.003 122.779 534.198 123.011 534.333C123.243 534.465 123.514 534.532 123.825 534.532C124.026 534.532 124.209 534.503 124.375 534.447C124.541 534.387 124.684 534.3 124.805 534.184C124.925 534.068 125.018 533.925 125.082 533.754L126.087 533.935C126.006 534.231 125.862 534.49 125.653 534.713C125.447 534.933 125.188 535.105 124.876 535.228C124.566 535.349 124.212 535.409 123.814 535.409Z" fill="#3F4450"/>
<line x1="160.152" y1="154.141" x2="160.152" y2="189.365" stroke="#E2E2E2" stroke-width="1.3046" stroke-linecap="round"/>
<line x1="160.152" y1="310.693" x2="160.152" y2="345.917" stroke="#E2E2E2" stroke-width="1.3046" stroke-linecap="round"/>
<line x1="160.152" y1="469.853" x2="160.152" y2="505.078" stroke="#E2E2E2" stroke-width="1.3046" stroke-linecap="round"/>
</svg>
