<svg width="50" height="50" viewBox="0 0 50 50" fill="none" xmlns="http://www.w3.org/2000/svg">
<path d="M17.0313 6.94381C12.8125 7.23678 8.72071 9.07272 5.73243 12.0024C2.48047 15.1665 0.683598 19.0532 0.273442 23.7505C0.0195354 26.6899 0.664067 30.0297 2.04102 32.8618C2.96875 34.7758 3.84766 36.0551 5.27344 37.5395C7.64649 40.0102 10.332 41.6118 13.5742 42.4712C16.5332 43.2622 20.0586 43.2817 22.9492 42.52C25.0391 41.9731 27.1582 40.9868 28.9258 39.7465C29.7559 39.1704 32.207 36.8657 32.6953 36.2016L32.8906 35.938L33.3203 36.2114C33.7207 36.4751 42.0117 40.7524 44.502 41.9731C45.8887 42.6567 46.4941 42.7739 47.3926 42.5297C50.0586 41.8266 50.6055 38.3891 48.3008 36.8266C48.0859 36.6801 45.166 35.1567 41.8164 33.4477C36.2793 30.6255 35.7324 30.3227 35.7813 30.1372C36.0254 29.268 36.3379 27.354 36.416 26.2895C36.9434 18.8481 32.8418 11.8071 26.1426 8.64303C23.2715 7.29538 20.2148 6.7192 17.0313 6.94381ZM19.6289 10.059C22.3145 10.3423 24.4824 11.1137 26.709 12.6079C30.459 15.1176 32.9785 19.4243 33.2813 23.8286C33.5742 28.1938 32.1191 32.2563 29.1602 35.3227C27.793 36.7485 26.6602 37.5981 25 38.4282C20.2637 40.811 14.4824 40.4399 10.0195 37.4614C5.01954 34.1313 2.5 28.0962 3.62305 22.1782C4.18946 19.2387 5.54688 16.7192 7.76368 14.4926C10.9766 11.27 15.3906 9.61959 19.6289 10.059Z" fill="#ED5C18"/>
<path d="M22.4707 14.0241C22.2754 14.1901 22.1484 14.405 22.1094 14.6296C22.0508 14.9519 21.8652 15.1472 20.2344 16.5046C18.9648 17.5691 18.3594 18.0085 18.2227 17.989C18.1055 17.9694 17.8418 18.0085 17.6269 18.0671C17.2559 18.1648 17.1191 18.1355 15.1953 17.4323C12.9102 16.6023 12.793 16.5534 12.793 16.3679C12.793 16.1237 12.3242 15.8015 11.8848 15.7526C11.5039 15.7038 11.416 15.7331 11.123 15.9968C10.8496 16.2409 10.8008 16.3483 10.7812 16.778C10.7715 17.2566 10.7422 17.3054 9.28711 19.073C7.91992 20.7429 7.7832 20.8796 7.43164 20.9382C6.5332 21.0749 6.33789 22.3151 7.1289 22.7839C7.84179 23.2136 8.68164 22.7448 8.6914 21.9148C8.6914 21.5534 8.80859 21.3776 10.1465 19.7273C11.4941 18.0769 11.6406 17.9304 12.0801 17.7839L12.5488 17.6276L14.7461 18.4284C15.957 18.8776 16.9922 19.3073 17.041 19.3952C17.4609 20.0691 17.8711 20.2448 18.4766 19.9909C18.8184 19.8444 19.1309 19.3659 19.1504 18.9753C19.1602 18.7116 22.6758 15.821 22.9883 15.821C23.1836 15.821 23.5254 16.1726 24.7461 17.6472C26.1816 19.3855 26.2598 19.5026 26.2695 19.903C26.2695 20.4304 26.3867 20.6648 26.7578 20.8503C27.5488 21.2605 28.3203 20.7722 28.3203 19.864C28.3203 19.4343 27.9102 18.9948 27.4316 18.8972C27.1484 18.8386 26.8848 18.5749 25.6348 17.0319C24.5019 15.6452 24.1602 15.1667 24.1406 14.9226C24.0918 14.3171 24.0137 14.1511 23.7012 13.9655C23.2617 13.6921 22.832 13.7214 22.4707 14.0241ZM23.5742 14.278C23.9258 14.6003 23.9551 15.0105 23.6328 15.3327C23.2422 15.7233 22.5391 15.489 22.4023 14.9226C22.3535 14.7077 22.4023 14.6003 22.6367 14.3562C22.9883 14.0046 23.2422 13.9851 23.5742 14.278ZM12.334 16.2898C12.5684 16.4948 12.5488 17.0417 12.3047 17.2858C11.9043 17.6862 11.1328 17.3835 11.1328 16.8366C11.1328 16.1335 11.8066 15.8308 12.334 16.2898ZM18.5449 18.614C18.6621 18.7605 18.75 18.946 18.75 19.0437C18.75 19.3757 18.3691 19.7273 18.0176 19.7273C17.666 19.7273 17.2852 19.3757 17.2852 19.0437C17.2852 18.7116 17.666 18.3601 18.0176 18.3601C18.2519 18.3601 18.3984 18.4284 18.5449 18.614ZM27.7832 19.4831C28.0859 19.7761 28.0957 20.0398 27.8125 20.3523C27.3633 20.8503 26.5625 20.6062 26.5625 19.9714C26.5625 19.6491 26.9727 19.239 27.2949 19.239C27.4316 19.239 27.6562 19.3464 27.7832 19.4831ZM8.17382 21.446C8.36914 21.6413 8.4082 21.7487 8.35937 22.0026C8.27148 22.4226 8.07617 22.5983 7.66601 22.5983C7.25586 22.5983 7.06054 22.4226 6.97265 22.0026C6.92382 21.7487 6.96289 21.6413 7.1582 21.446C7.30468 21.2995 7.52929 21.1921 7.66601 21.1921C7.80273 21.1921 8.02734 21.2995 8.17382 21.446Z" fill="#ED5C18"/>
<path d="M21.3867 25.8301V32.7148H22.8516H24.3164V25.8301V18.9453H22.8516H21.3867V25.8301Z" fill="#ED5C18"/>
<path d="M11.9141 26.5137V32.7148H13.3789H14.8438V26.5137V20.3125H13.3789H11.9141V26.5137Z" fill="#ED5C18"/>
<path d="M16.6016 27.5391V32.7148H18.0664H19.5312V27.5391V22.3633H18.0664H16.6016V27.5391Z" fill="#ED5C18"/>
<path d="M26.0742 27.8809V32.7148H27.5391H29.0039V27.8809V23.0469H27.5391H26.0742V27.8809Z" fill="#ED5C18"/>
<path d="M7.31445 26.9531C7.31445 27.3242 7.30469 28.623 7.30469 29.834C7.30469 31.0449 7.31445 32.1875 7.31445 32.373L7.32422 32.7148H8.78906H10.2539V29.4922V26.2695H8.78906H7.32422L7.31445 26.9531Z" fill="#ED5C18"/>
</svg>
