<svg width="589" height="663" viewBox="0 0 589 663" fill="none" xmlns="http://www.w3.org/2000/svg">
<g filter="url(#filter0_d_635_18)">
<rect x="26" y="18" width="429.723" height="610.896" rx="20" fill="white"/>
</g>
<rect x="96.1938" y="439.163" width="297.896" height="53.0734" rx="6.84818" fill="#ED5C18"/>
<path d="M148.702 462.543C148.645 462.012 148.406 461.599 147.984 461.303C147.567 461.007 147.024 460.859 146.355 460.859C145.885 460.859 145.482 460.93 145.145 461.072C144.809 461.214 144.551 461.406 144.373 461.649C144.195 461.892 144.104 462.17 144.1 462.482C144.1 462.742 144.158 462.966 144.276 463.157C144.397 463.347 144.562 463.51 144.768 463.643C144.975 463.773 145.204 463.882 145.455 463.972C145.707 464.061 145.96 464.136 146.215 464.197L147.383 464.488C147.853 464.598 148.305 464.746 148.738 464.932C149.176 465.119 149.567 465.354 149.912 465.638C150.26 465.921 150.536 466.264 150.739 466.665C150.941 467.066 151.043 467.536 151.043 468.075C151.043 468.805 150.856 469.447 150.483 470.003C150.11 470.554 149.571 470.986 148.866 471.298C148.165 471.606 147.316 471.76 146.319 471.76C145.35 471.76 144.509 471.61 143.796 471.31C143.086 471.01 142.531 470.572 142.13 469.997C141.732 469.421 141.518 468.72 141.485 467.893H143.704C143.737 468.327 143.871 468.687 144.106 468.975C144.341 469.263 144.647 469.478 145.024 469.62C145.405 469.762 145.83 469.832 146.3 469.832C146.791 469.832 147.22 469.76 147.589 469.614C147.962 469.464 148.254 469.257 148.465 468.993C148.675 468.726 148.783 468.414 148.787 468.057C148.783 467.733 148.688 467.465 148.501 467.255C148.315 467.04 148.053 466.862 147.717 466.72C147.385 466.574 146.995 466.444 146.55 466.331L145.133 465.966C144.108 465.702 143.297 465.303 142.701 464.768C142.109 464.229 141.814 463.514 141.814 462.622C141.814 461.888 142.012 461.246 142.409 460.695C142.811 460.143 143.356 459.716 144.045 459.412C144.734 459.104 145.514 458.95 146.385 458.95C147.269 458.95 148.043 459.104 148.708 459.412C149.377 459.716 149.902 460.139 150.283 460.683C150.664 461.222 150.86 461.842 150.872 462.543H148.702ZM157.03 471.754C156.097 471.754 155.297 471.549 154.628 471.14C153.963 470.73 153.451 470.165 153.09 469.443C152.733 468.718 152.555 467.883 152.555 466.939C152.555 465.99 152.737 465.153 153.102 464.428C153.467 463.698 153.982 463.131 154.646 462.725C155.315 462.316 156.105 462.111 157.017 462.111C157.775 462.111 158.446 462.251 159.03 462.531C159.617 462.806 160.086 463.198 160.434 463.704C160.783 464.207 160.981 464.794 161.03 465.467H158.926C158.841 465.017 158.639 464.642 158.318 464.343C158.002 464.039 157.579 463.887 157.048 463.887C156.598 463.887 156.203 464.008 155.862 464.251C155.522 464.49 155.256 464.835 155.066 465.285C154.879 465.735 154.786 466.274 154.786 466.902C154.786 467.538 154.879 468.086 155.066 468.544C155.252 468.998 155.514 469.348 155.85 469.595C156.191 469.839 156.59 469.96 157.048 469.96C157.372 469.96 157.662 469.899 157.917 469.778C158.177 469.652 158.393 469.472 158.568 469.237C158.742 469.002 158.862 468.716 158.926 468.379H161.03C160.977 469.04 160.783 469.626 160.446 470.136C160.11 470.643 159.652 471.04 159.072 471.328C158.493 471.612 157.812 471.754 157.03 471.754ZM165.524 471.76C164.933 471.76 164.4 471.654 163.925 471.444C163.455 471.229 163.082 470.913 162.807 470.495C162.535 470.078 162.399 469.563 162.399 468.951C162.399 468.424 162.497 467.988 162.691 467.644C162.886 467.299 163.151 467.024 163.488 466.817C163.824 466.61 164.203 466.454 164.625 466.349C165.05 466.239 165.49 466.16 165.944 466.112C166.491 466.055 166.935 466.004 167.275 465.96C167.616 465.911 167.863 465.838 168.017 465.741C168.175 465.64 168.254 465.483 168.254 465.273V465.236C168.254 464.778 168.118 464.424 167.847 464.172C167.575 463.921 167.184 463.795 166.673 463.795C166.134 463.795 165.707 463.913 165.391 464.148C165.079 464.383 164.868 464.661 164.758 464.981L162.703 464.689C162.866 464.122 163.133 463.647 163.506 463.266C163.879 462.881 164.335 462.594 164.874 462.403C165.413 462.209 166.009 462.111 166.661 462.111C167.111 462.111 167.559 462.164 168.005 462.269C168.451 462.375 168.858 462.549 169.227 462.792C169.596 463.031 169.892 463.358 170.115 463.771C170.342 464.184 170.455 464.701 170.455 465.321V471.571H168.339V470.288H168.266C168.133 470.548 167.944 470.791 167.701 471.018C167.462 471.241 167.16 471.421 166.795 471.559C166.434 471.693 166.011 471.76 165.524 471.76ZM166.096 470.143C166.538 470.143 166.921 470.055 167.245 469.881C167.569 469.703 167.818 469.468 167.993 469.176C168.171 468.884 168.26 468.566 168.26 468.221V467.121C168.191 467.178 168.074 467.23 167.908 467.279C167.745 467.328 167.563 467.37 167.36 467.407C167.158 467.443 166.957 467.476 166.759 467.504C166.56 467.532 166.388 467.557 166.242 467.577C165.913 467.622 165.62 467.694 165.36 467.796C165.101 467.897 164.896 468.039 164.746 468.221C164.596 468.4 164.521 468.631 164.521 468.914C164.521 469.32 164.669 469.626 164.965 469.832C165.261 470.039 165.638 470.143 166.096 470.143ZM174.869 466.1V471.571H172.668V462.233H174.772V463.82H174.881C175.096 463.297 175.438 462.881 175.909 462.573C176.383 462.265 176.968 462.111 177.666 462.111C178.31 462.111 178.871 462.249 179.35 462.525C179.832 462.8 180.205 463.2 180.468 463.722C180.736 464.245 180.868 464.88 180.863 465.625V471.571H178.663V465.966C178.663 465.342 178.5 464.853 178.176 464.501C177.856 464.148 177.412 463.972 176.845 463.972C176.46 463.972 176.117 464.057 175.817 464.227C175.521 464.393 175.288 464.634 175.118 464.95C174.952 465.267 174.869 465.65 174.869 466.1ZM198.571 465.346C198.571 466.687 198.319 467.836 197.817 468.793C197.318 469.745 196.637 470.475 195.774 470.982C194.915 471.488 193.94 471.742 192.85 471.742C191.759 471.742 190.782 471.488 189.919 470.982C189.06 470.471 188.379 469.739 187.876 468.787C187.378 467.83 187.129 466.683 187.129 465.346C187.129 464.004 187.378 462.857 187.876 461.905C188.379 460.948 189.06 460.216 189.919 459.71C190.782 459.203 191.759 458.95 192.85 458.95C193.94 458.95 194.915 459.203 195.774 459.71C196.637 460.216 197.318 460.948 197.817 461.905C198.319 462.857 198.571 464.004 198.571 465.346ZM196.303 465.346C196.303 464.401 196.155 463.605 195.859 462.956C195.567 462.304 195.162 461.811 194.643 461.479C194.124 461.143 193.526 460.974 192.85 460.974C192.173 460.974 191.575 461.143 191.056 461.479C190.537 461.811 190.13 462.304 189.834 462.956C189.542 463.605 189.396 464.401 189.396 465.346C189.396 466.29 189.542 467.089 189.834 467.741C190.13 468.39 190.537 468.882 191.056 469.218C191.575 469.551 192.173 469.717 192.85 469.717C193.526 469.717 194.124 469.551 194.643 469.218C195.162 468.882 195.567 468.39 195.859 467.741C196.155 467.089 196.303 466.29 196.303 465.346ZM200.703 471.571V459.12H205.372C206.329 459.12 207.131 459.286 207.78 459.619C208.432 459.951 208.925 460.417 209.257 461.017C209.594 461.613 209.762 462.308 209.762 463.102C209.762 463.901 209.592 464.594 209.251 465.182C208.915 465.765 208.418 466.217 207.762 466.537C207.105 466.853 206.298 467.012 205.342 467.012H202.016V465.139H205.038C205.597 465.139 206.055 465.062 206.412 464.908C206.769 464.75 207.032 464.521 207.202 464.221C207.377 463.917 207.464 463.544 207.464 463.102C207.464 462.66 207.377 462.284 207.202 461.971C207.028 461.655 206.762 461.416 206.406 461.254C206.049 461.088 205.589 461.005 205.026 461.005H202.959V471.571H200.703ZM207.135 465.929L210.218 471.571H207.701L204.673 465.929H207.135ZM215.538 461.011V459.12H225.472V461.011H221.623V471.571H219.386V461.011H215.538ZM228.706 471.76C228.114 471.76 227.581 471.654 227.107 471.444C226.637 471.229 226.264 470.913 225.989 470.495C225.717 470.078 225.581 469.563 225.581 468.951C225.581 468.424 225.678 467.988 225.873 467.644C226.068 467.299 226.333 467.024 226.669 466.817C227.006 466.61 227.385 466.454 227.806 466.349C228.232 466.239 228.672 466.16 229.126 466.112C229.673 466.055 230.117 466.004 230.457 465.96C230.798 465.911 231.045 465.838 231.199 465.741C231.357 465.64 231.436 465.483 231.436 465.273V465.236C231.436 464.778 231.3 464.424 231.029 464.172C230.757 463.921 230.366 463.795 229.855 463.795C229.316 463.795 228.889 463.913 228.572 464.148C228.26 464.383 228.05 464.661 227.94 464.981L225.885 464.689C226.047 464.122 226.315 463.647 226.688 463.266C227.061 462.881 227.517 462.594 228.056 462.403C228.595 462.209 229.191 462.111 229.843 462.111C230.293 462.111 230.741 462.164 231.187 462.269C231.633 462.375 232.04 462.549 232.409 462.792C232.778 463.031 233.073 463.358 233.296 463.771C233.523 464.184 233.637 464.701 233.637 465.321V471.571H231.521V470.288H231.448C231.314 470.548 231.126 470.791 230.883 471.018C230.644 471.241 230.342 471.421 229.977 471.559C229.616 471.693 229.193 471.76 228.706 471.76ZM229.278 470.143C229.719 470.143 230.102 470.055 230.427 469.881C230.751 469.703 231 469.468 231.175 469.176C231.353 468.884 231.442 468.566 231.442 468.221V467.121C231.373 467.178 231.256 467.23 231.089 467.279C230.927 467.328 230.745 467.37 230.542 467.407C230.34 467.443 230.139 467.476 229.94 467.504C229.742 467.532 229.569 467.557 229.424 467.577C229.095 467.622 228.801 467.694 228.542 467.796C228.283 467.897 228.078 468.039 227.928 468.221C227.778 468.4 227.703 468.631 227.703 468.914C227.703 469.32 227.851 469.626 228.147 469.832C228.443 470.039 228.82 470.143 229.278 470.143ZM235.85 475.073V462.233H238.014V463.777H238.142C238.255 463.55 238.415 463.309 238.622 463.054C238.829 462.794 239.109 462.573 239.461 462.391C239.814 462.204 240.264 462.111 240.811 462.111C241.532 462.111 242.183 462.296 242.762 462.665C243.346 463.029 243.808 463.57 244.149 464.288C244.493 465.001 244.665 465.877 244.665 466.914C244.665 467.94 244.497 468.811 244.161 469.529C243.824 470.246 243.366 470.793 242.787 471.17C242.207 471.547 241.551 471.735 240.817 471.735C240.282 471.735 239.838 471.646 239.485 471.468C239.133 471.29 238.849 471.075 238.634 470.823C238.424 470.568 238.259 470.327 238.142 470.1H238.051V475.073H235.85ZM238.008 466.902C238.008 467.506 238.093 468.035 238.263 468.489C238.438 468.943 238.687 469.297 239.011 469.553C239.34 469.804 239.737 469.93 240.203 469.93C240.689 469.93 241.097 469.8 241.425 469.541C241.753 469.277 242 468.919 242.167 468.465C242.337 468.007 242.422 467.486 242.422 466.902C242.422 466.322 242.339 465.808 242.173 465.358C242.007 464.908 241.759 464.555 241.431 464.3C241.103 464.045 240.693 463.917 240.203 463.917C239.733 463.917 239.333 464.041 239.005 464.288C238.677 464.535 238.428 464.882 238.257 465.327C238.091 465.773 238.008 466.298 238.008 466.902ZM255.46 462.233V463.935H250.092V462.233H255.46ZM251.417 459.996H253.618V468.762C253.618 469.058 253.662 469.285 253.751 469.443C253.845 469.597 253.966 469.703 254.116 469.76C254.266 469.816 254.432 469.845 254.615 469.845C254.753 469.845 254.878 469.835 254.992 469.814C255.109 469.794 255.198 469.776 255.259 469.76L255.63 471.48C255.513 471.521 255.344 471.565 255.125 471.614C254.911 471.662 254.647 471.691 254.335 471.699C253.784 471.715 253.287 471.632 252.846 471.45C252.404 471.263 252.053 470.975 251.794 470.586C251.538 470.197 251.413 469.711 251.417 469.127V459.996ZM261.274 471.754C260.362 471.754 259.571 471.553 258.903 471.152C258.234 470.751 257.715 470.189 257.346 469.468C256.981 468.746 256.799 467.903 256.799 466.939C256.799 465.974 256.981 465.129 257.346 464.403C257.715 463.678 258.234 463.114 258.903 462.713C259.571 462.312 260.362 462.111 261.274 462.111C262.186 462.111 262.976 462.312 263.645 462.713C264.313 463.114 264.83 463.678 265.195 464.403C265.564 465.129 265.748 465.974 265.748 466.939C265.748 467.903 265.564 468.746 265.195 469.468C264.83 470.189 264.313 470.751 263.645 471.152C262.976 471.553 262.186 471.754 261.274 471.754ZM261.286 469.991C261.78 469.991 262.194 469.855 262.526 469.583C262.858 469.308 263.106 468.939 263.268 468.477C263.434 468.015 263.517 467.5 263.517 466.932C263.517 466.361 263.434 465.844 263.268 465.382C263.106 464.916 262.858 464.545 262.526 464.27C262.194 463.994 261.78 463.856 261.286 463.856C260.779 463.856 260.358 463.994 260.021 464.27C259.689 464.545 259.44 464.916 259.273 465.382C259.111 465.844 259.03 466.361 259.03 466.932C259.03 467.5 259.111 468.015 259.273 468.477C259.44 468.939 259.689 469.308 260.021 469.583C260.358 469.855 260.779 469.991 261.286 469.991ZM282.618 463.321H280.344C280.279 462.948 280.16 462.618 279.985 462.33C279.811 462.038 279.594 461.791 279.335 461.588C279.075 461.386 278.78 461.234 278.447 461.132C278.119 461.027 277.764 460.974 277.383 460.974C276.706 460.974 276.107 461.145 275.584 461.485C275.061 461.821 274.651 462.316 274.356 462.969C274.06 463.617 273.912 464.409 273.912 465.346C273.912 466.298 274.06 467.101 274.356 467.753C274.656 468.402 275.065 468.892 275.584 469.225C276.107 469.553 276.704 469.717 277.377 469.717C277.75 469.717 278.099 469.668 278.423 469.571C278.751 469.47 279.045 469.322 279.304 469.127C279.568 468.933 279.789 468.694 279.967 468.41C280.15 468.126 280.275 467.802 280.344 467.437L282.618 467.449C282.533 468.041 282.348 468.596 282.065 469.115C281.785 469.634 281.418 470.092 280.964 470.489C280.51 470.882 279.979 471.19 279.371 471.413C278.763 471.632 278.089 471.742 277.347 471.742C276.252 471.742 275.276 471.488 274.416 470.982C273.557 470.475 272.88 469.743 272.386 468.787C271.891 467.83 271.644 466.683 271.644 465.346C271.644 464.004 271.893 462.857 272.392 461.905C272.89 460.948 273.569 460.216 274.429 459.71C275.288 459.203 276.261 458.95 277.347 458.95C278.04 458.95 278.684 459.047 279.28 459.242C279.876 459.436 280.407 459.722 280.873 460.099C281.339 460.472 281.722 460.93 282.022 461.473C282.326 462.012 282.525 462.628 282.618 463.321ZM286.787 466.1V471.571H284.586V459.12H286.738V463.82H286.848C287.067 463.293 287.405 462.877 287.863 462.573C288.325 462.265 288.913 462.111 289.626 462.111C290.275 462.111 290.84 462.247 291.323 462.519C291.805 462.79 292.178 463.187 292.441 463.71C292.709 464.233 292.842 464.871 292.842 465.625V471.571H290.642V465.966C290.642 465.338 290.479 464.849 290.155 464.501C289.835 464.148 289.385 463.972 288.806 463.972C288.416 463.972 288.068 464.057 287.76 464.227C287.456 464.393 287.217 464.634 287.042 464.95C286.872 465.267 286.787 465.65 286.787 466.1ZM299.22 471.754C298.284 471.754 297.475 471.559 296.794 471.17C296.117 470.777 295.597 470.222 295.232 469.504C294.867 468.783 294.685 467.934 294.685 466.957C294.685 465.996 294.867 465.153 295.232 464.428C295.601 463.698 296.115 463.131 296.776 462.725C297.437 462.316 298.213 462.111 299.105 462.111C299.68 462.111 300.223 462.204 300.734 462.391C301.249 462.573 301.703 462.857 302.096 463.242C302.493 463.627 302.805 464.118 303.032 464.713C303.259 465.305 303.372 466.01 303.372 466.829V467.504H295.718V466.021H301.263C301.259 465.599 301.168 465.224 300.989 464.896C300.811 464.563 300.562 464.302 300.241 464.111C299.925 463.921 299.556 463.826 299.135 463.826C298.685 463.826 298.29 463.935 297.949 464.154C297.609 464.369 297.343 464.653 297.153 465.005C296.967 465.354 296.871 465.737 296.867 466.154V467.449C296.867 467.992 296.967 468.458 297.165 468.848C297.364 469.233 297.641 469.529 297.998 469.735C298.355 469.938 298.772 470.039 299.25 470.039C299.571 470.039 299.86 469.995 300.12 469.905C300.379 469.812 300.604 469.676 300.795 469.498C300.985 469.32 301.129 469.099 301.226 468.835L303.281 469.066C303.152 469.61 302.904 470.084 302.54 470.489C302.179 470.89 301.717 471.202 301.153 471.425C300.59 471.644 299.946 471.754 299.22 471.754ZM309.308 471.754C308.376 471.754 307.575 471.549 306.906 471.14C306.242 470.73 305.729 470.165 305.368 469.443C305.011 468.718 304.833 467.883 304.833 466.939C304.833 465.99 305.016 465.153 305.38 464.428C305.745 463.698 306.26 463.131 306.925 462.725C307.593 462.316 308.384 462.111 309.296 462.111C310.054 462.111 310.724 462.251 311.308 462.531C311.896 462.806 312.364 463.198 312.712 463.704C313.061 464.207 313.26 464.794 313.308 465.467H311.205C311.12 465.017 310.917 464.642 310.597 464.343C310.281 464.039 309.857 463.887 309.326 463.887C308.876 463.887 308.481 464.008 308.14 464.251C307.8 464.49 307.535 464.835 307.344 465.285C307.158 465.735 307.064 466.274 307.064 466.902C307.064 467.538 307.158 468.086 307.344 468.544C307.531 468.998 307.792 469.348 308.128 469.595C308.469 469.839 308.868 469.96 309.326 469.96C309.65 469.96 309.94 469.899 310.195 469.778C310.455 469.652 310.672 469.472 310.846 469.237C311.02 469.002 311.14 468.716 311.205 468.379H313.308C313.256 469.04 313.061 469.626 312.725 470.136C312.388 470.643 311.93 471.04 311.351 471.328C310.771 471.612 310.09 471.754 309.308 471.754ZM317.122 468.641L317.116 465.984H317.468L320.824 462.233H323.396L319.268 466.829H318.812L317.122 468.641ZM315.115 471.571V459.12H317.316V471.571H315.115ZM320.976 471.571L317.936 467.322L319.42 465.771L323.609 471.571H320.976ZM329.109 471.571V462.233H331.31V471.571H329.109ZM330.216 460.907C329.867 460.907 329.567 460.792 329.316 460.561C329.065 460.326 328.939 460.044 328.939 459.716C328.939 459.384 329.065 459.102 329.316 458.871C329.567 458.636 329.867 458.518 330.216 458.518C330.569 458.518 330.868 458.636 331.116 458.871C331.367 459.102 331.493 459.384 331.493 459.716C331.493 460.044 331.367 460.326 331.116 460.561C330.868 460.792 330.569 460.907 330.216 460.907ZM335.774 466.1V471.571H333.573V462.233H335.677V463.82H335.786C336.001 463.297 336.344 462.881 336.814 462.573C337.288 462.265 337.874 462.111 338.571 462.111C339.215 462.111 339.777 462.249 340.255 462.525C340.737 462.8 341.11 463.2 341.374 463.722C341.641 464.245 341.773 464.88 341.769 465.625V471.571H339.568V465.966C339.568 465.342 339.406 464.853 339.082 464.501C338.761 464.148 338.318 463.972 337.75 463.972C337.365 463.972 337.023 464.057 336.723 464.227C336.427 464.393 336.194 464.634 336.024 464.95C335.857 465.267 335.774 465.65 335.774 466.1Z" fill="white"/>
<path d="M310.101 530.091H307.827C307.762 529.718 307.642 529.387 307.468 529.1C307.294 528.808 307.077 528.561 306.818 528.358C306.558 528.155 306.262 528.003 305.93 527.902C305.602 527.797 305.247 527.744 304.866 527.744C304.189 527.744 303.589 527.914 303.066 528.255C302.544 528.591 302.134 529.085 301.838 529.738C301.542 530.387 301.395 531.179 301.395 532.115C301.395 533.068 301.542 533.87 301.838 534.523C302.138 535.171 302.548 535.662 303.066 535.994C303.589 536.322 304.187 536.487 304.86 536.487C305.233 536.487 305.581 536.438 305.906 536.341C306.234 536.239 306.528 536.091 306.787 535.897C307.051 535.702 307.272 535.463 307.45 535.179C307.632 534.896 307.758 534.571 307.827 534.207L310.101 534.219C310.016 534.811 309.831 535.366 309.547 535.885C309.268 536.403 308.901 536.861 308.447 537.259C307.993 537.652 307.462 537.96 306.854 538.183C306.246 538.402 305.571 538.511 304.83 538.511C303.735 538.511 302.758 538.258 301.899 537.751C301.04 537.244 300.363 536.513 299.869 535.556C299.374 534.6 299.127 533.453 299.127 532.115C299.127 530.774 299.376 529.627 299.875 528.674C300.373 527.718 301.052 526.986 301.911 526.479C302.771 525.973 303.743 525.719 304.83 525.719C305.523 525.719 306.167 525.817 306.763 526.011C307.359 526.206 307.89 526.491 308.356 526.868C308.822 527.241 309.205 527.699 309.505 528.242C309.809 528.782 310.007 529.398 310.101 530.091ZM314.27 532.869V538.341H312.069V525.89H314.221V530.589H314.331C314.549 530.062 314.888 529.647 315.346 529.343C315.808 529.035 316.396 528.881 317.109 528.881C317.758 528.881 318.323 529.017 318.805 529.288C319.288 529.56 319.66 529.957 319.924 530.48C320.191 531.003 320.325 531.641 320.325 532.395V538.341H318.124V532.735C318.124 532.107 317.962 531.619 317.638 531.27C317.318 530.918 316.868 530.741 316.288 530.741C315.899 530.741 315.551 530.826 315.243 530.997C314.939 531.163 314.699 531.404 314.525 531.72C314.355 532.036 314.27 532.419 314.27 532.869ZM326.703 538.523C325.767 538.523 324.958 538.329 324.277 537.94C323.6 537.546 323.079 536.991 322.715 536.274C322.35 535.552 322.167 534.703 322.167 533.726C322.167 532.766 322.35 531.923 322.715 531.197C323.083 530.468 323.598 529.9 324.259 529.495C324.919 529.085 325.696 528.881 326.587 528.881C327.163 528.881 327.706 528.974 328.217 529.16C328.731 529.343 329.185 529.627 329.579 530.012C329.976 530.397 330.288 530.887 330.515 531.483C330.742 532.075 330.855 532.78 330.855 533.599V534.273H323.201V532.79H328.746C328.742 532.369 328.65 531.994 328.472 531.665C328.294 531.333 328.044 531.072 327.724 530.881C327.408 530.691 327.039 530.595 326.618 530.595C326.168 530.595 325.773 530.705 325.432 530.924C325.092 531.138 324.826 531.422 324.636 531.775C324.449 532.123 324.354 532.506 324.35 532.924V534.219C324.35 534.762 324.449 535.228 324.648 535.617C324.846 536.002 325.124 536.298 325.481 536.505C325.837 536.707 326.255 536.809 326.733 536.809C327.053 536.809 327.343 536.764 327.603 536.675C327.862 536.582 328.087 536.446 328.277 536.268C328.468 536.089 328.612 535.868 328.709 535.605L330.764 535.836C330.634 536.379 330.387 536.853 330.022 537.259C329.662 537.66 329.2 537.972 328.636 538.195C328.073 538.414 327.428 538.523 326.703 538.523ZM336.791 538.523C335.858 538.523 335.058 538.319 334.389 537.909C333.724 537.5 333.212 536.934 332.851 536.213C332.494 535.487 332.316 534.652 332.316 533.708C332.316 532.76 332.498 531.923 332.863 531.197C333.228 530.468 333.743 529.9 334.407 529.495C335.076 529.085 335.866 528.881 336.778 528.881C337.536 528.881 338.207 529.021 338.791 529.3C339.378 529.576 339.847 529.967 340.195 530.474C340.544 530.976 340.742 531.564 340.791 532.237H338.687C338.602 531.787 338.4 531.412 338.079 531.112C337.763 530.808 337.34 530.656 336.809 530.656C336.359 530.656 335.964 530.778 335.623 531.021C335.283 531.26 335.017 531.605 334.827 532.054C334.64 532.504 334.547 533.043 334.547 533.672C334.547 534.308 334.64 534.855 334.827 535.313C335.013 535.767 335.275 536.118 335.611 536.365C335.952 536.608 336.351 536.73 336.809 536.73C337.133 536.73 337.423 536.669 337.678 536.547C337.938 536.422 338.154 536.241 338.329 536.006C338.503 535.771 338.623 535.485 338.687 535.149H340.791C340.738 535.81 340.544 536.395 340.207 536.906C339.871 537.413 339.413 537.81 338.833 538.098C338.254 538.381 337.573 538.523 336.791 538.523ZM344.604 535.41L344.598 532.754H344.951L348.307 529.002H350.879L346.751 533.599H346.295L344.604 535.41ZM342.598 538.341V525.89H344.799V538.341H342.598ZM348.459 538.341L345.419 534.091L346.903 532.541L351.092 538.341H348.459ZM356.034 538.523C355.122 538.523 354.332 538.323 353.663 537.921C352.994 537.52 352.476 536.959 352.107 536.237C351.742 535.516 351.56 534.673 351.56 533.708C351.56 532.743 351.742 531.898 352.107 531.173C352.476 530.447 352.994 529.884 353.663 529.483C354.332 529.081 355.122 528.881 356.034 528.881C356.946 528.881 357.737 529.081 358.405 529.483C359.074 529.884 359.591 530.447 359.956 531.173C360.325 531.898 360.509 532.743 360.509 533.708C360.509 534.673 360.325 535.516 359.956 536.237C359.591 536.959 359.074 537.52 358.405 537.921C357.737 538.323 356.946 538.523 356.034 538.523ZM356.046 536.76C356.541 536.76 356.954 536.624 357.287 536.353C357.619 536.077 357.866 535.708 358.028 535.246C358.195 534.784 358.278 534.269 358.278 533.702C358.278 533.131 358.195 532.614 358.028 532.152C357.866 531.686 357.619 531.315 357.287 531.039C356.954 530.763 356.541 530.626 356.046 530.626C355.54 530.626 355.118 530.763 354.782 531.039C354.45 531.315 354.2 531.686 354.034 532.152C353.872 532.614 353.791 533.131 353.791 533.702C353.791 534.269 353.872 534.784 354.034 535.246C354.2 535.708 354.45 536.077 354.782 536.353C355.118 536.624 355.54 536.76 356.046 536.76ZM368.329 534.413V529.002H370.53V538.341H368.396V536.681H368.299C368.088 537.204 367.741 537.632 367.259 537.964C366.781 538.296 366.191 538.462 365.49 538.462C364.878 538.462 364.337 538.327 363.866 538.055C363.4 537.779 363.036 537.38 362.772 536.857C362.509 536.33 362.377 535.694 362.377 534.948V529.002H364.578V534.608C364.578 535.2 364.74 535.67 365.064 536.018C365.388 536.367 365.814 536.541 366.341 536.541C366.665 536.541 366.979 536.462 367.283 536.304C367.587 536.146 367.837 535.911 368.031 535.599C368.23 535.283 368.329 534.888 368.329 534.413ZM377.456 529.002V530.705H372.088V529.002H377.456ZM373.413 526.765H375.614V535.532C375.614 535.828 375.659 536.055 375.748 536.213C375.841 536.367 375.963 536.472 376.113 536.529C376.263 536.586 376.429 536.614 376.611 536.614C376.749 536.614 376.875 536.604 376.988 536.584C377.106 536.564 377.195 536.545 377.256 536.529L377.626 538.25C377.509 538.29 377.341 538.335 377.122 538.383C376.907 538.432 376.644 538.46 376.331 538.468C375.78 538.485 375.284 538.402 374.842 538.219C374.4 538.033 374.049 537.745 373.79 537.356C373.535 536.967 373.409 536.48 373.413 535.897V526.765Z" fill="#3F4450"/>
<path d="M265.687 518.416H274.418C275.549 518.366 276.653 518.765 277.49 519.527C278.327 520.29 278.828 521.352 278.884 522.482V540.744C278.828 541.875 278.327 542.937 277.49 543.699C276.653 544.461 275.549 544.861 274.418 544.81H265.687" stroke="#3F4450" stroke-width="2.56807" stroke-linecap="round" stroke-linejoin="round"/>
<path d="M269.967 531.613H252.532" stroke="#3F4450" stroke-width="2.56807" stroke-linecap="round" stroke-linejoin="round"/>
<path d="M252.489 531.613L258.196 537.32" stroke="#3F4450" stroke-width="2.56807" stroke-linecap="round" stroke-linejoin="round"/>
<path d="M252.489 531.613L258.196 525.906" stroke="#3F4450" stroke-width="2.56807" stroke-linecap="round" stroke-linejoin="round"/>
<path d="M169.634 525.89V538.341H167.756V525.89H169.634ZM174.042 532.796V538.341H172.224V529.002H173.969V530.522H174.085C174.299 530.028 174.636 529.631 175.094 529.331C175.556 529.031 176.138 528.881 176.839 528.881C177.475 528.881 178.032 529.015 178.511 529.282C178.989 529.546 179.36 529.939 179.623 530.462C179.887 530.984 180.018 531.631 180.018 532.401V538.341H178.201V532.62C178.201 531.943 178.024 531.414 177.672 531.033C177.319 530.648 176.835 530.455 176.219 530.455C175.797 530.455 175.422 530.547 175.094 530.729C174.77 530.911 174.512 531.179 174.322 531.532C174.135 531.88 174.042 532.302 174.042 532.796ZM190.111 529.002L186.724 538.341H184.779L181.386 529.002H183.338L185.703 536.189H185.8L188.159 529.002H190.111ZM191.819 538.341V529.002H193.637V538.341H191.819ZM192.737 527.562C192.421 527.562 192.149 527.456 191.922 527.245C191.7 527.031 191.588 526.775 191.588 526.479C191.588 526.179 191.7 525.924 191.922 525.713C192.149 525.498 192.421 525.391 192.737 525.391C193.053 525.391 193.323 525.498 193.546 525.713C193.773 525.924 193.886 526.179 193.886 526.479C193.886 526.775 193.773 527.031 193.546 527.245C193.323 527.456 193.053 527.562 192.737 527.562ZM200.442 529.002V530.462H195.341V529.002H200.442ZM196.709 526.765H198.527V535.599C198.527 535.951 198.579 536.217 198.685 536.395C198.79 536.57 198.926 536.689 199.092 536.754C199.262 536.815 199.447 536.845 199.645 536.845C199.791 536.845 199.919 536.835 200.028 536.815C200.138 536.795 200.223 536.778 200.284 536.766L200.612 538.268C200.506 538.308 200.357 538.349 200.162 538.389C199.967 538.434 199.724 538.458 199.432 538.462C198.954 538.471 198.508 538.385 198.095 538.207C197.681 538.029 197.347 537.753 197.092 537.38C196.836 537.007 196.709 536.539 196.709 535.976V526.765ZM206.377 538.529C205.457 538.529 204.664 538.333 204 537.94C203.339 537.542 202.828 536.985 202.468 536.268C202.111 535.546 201.933 534.701 201.933 533.732C201.933 532.776 202.111 531.933 202.468 531.203C202.828 530.474 203.331 529.904 203.975 529.495C204.624 529.085 205.382 528.881 206.249 528.881C206.776 528.881 207.287 528.968 207.781 529.142C208.276 529.317 208.72 529.59 209.113 529.963C209.506 530.336 209.816 530.82 210.043 531.416C210.27 532.008 210.383 532.727 210.383 533.574V534.219H202.96V532.857H208.602C208.602 532.379 208.505 531.955 208.31 531.586C208.116 531.213 207.842 530.92 207.49 530.705C207.141 530.49 206.732 530.382 206.261 530.382C205.751 530.382 205.305 530.508 204.924 530.759C204.547 531.007 204.255 531.331 204.048 531.732C203.846 532.129 203.744 532.561 203.744 533.027V534.091C203.744 534.715 203.854 535.246 204.073 535.684C204.296 536.122 204.606 536.456 205.003 536.687C205.4 536.914 205.864 537.028 206.395 537.028C206.74 537.028 207.054 536.979 207.338 536.882C207.621 536.78 207.866 536.63 208.073 536.432C208.28 536.233 208.438 535.988 208.547 535.696L210.268 536.006C210.13 536.513 209.883 536.957 209.526 537.338C209.174 537.715 208.73 538.008 208.195 538.219C207.664 538.426 207.058 538.529 206.377 538.529ZM216.425 538.529C215.505 538.529 214.713 538.333 214.048 537.94C213.387 537.542 212.877 536.985 212.516 536.268C212.159 535.546 211.981 534.701 211.981 533.732C211.981 532.776 212.159 531.933 212.516 531.203C212.877 530.474 213.379 529.904 214.024 529.495C214.672 529.085 215.43 528.881 216.297 528.881C216.824 528.881 217.335 528.968 217.83 529.142C218.324 529.317 218.768 529.59 219.161 529.963C219.554 530.336 219.864 530.82 220.091 531.416C220.318 532.008 220.432 532.727 220.432 533.574V534.219H213.008V532.857H218.65C218.65 532.379 218.553 531.955 218.359 531.586C218.164 531.213 217.89 530.92 217.538 530.705C217.189 530.49 216.78 530.382 216.31 530.382C215.799 530.382 215.353 530.508 214.972 530.759C214.595 531.007 214.303 531.331 214.097 531.732C213.894 532.129 213.793 532.561 213.793 533.027V534.091C213.793 534.715 213.902 535.246 214.121 535.684C214.344 536.122 214.654 536.456 215.051 536.687C215.448 536.914 215.912 537.028 216.443 537.028C216.788 537.028 217.102 536.979 217.386 536.882C217.669 536.78 217.915 536.63 218.121 536.432C218.328 536.233 218.486 535.988 218.596 535.696L220.316 536.006C220.178 536.513 219.931 536.957 219.574 537.338C219.222 537.715 218.778 538.008 218.243 538.219C217.712 538.426 217.106 538.529 216.425 538.529Z" fill="#3F4450"/>
<path d="M126.166 532.051C126.88 532.749 127.855 532.749 128.568 532.051L137.769 522.908L139.472 521.205C138.832 520.87 138.119 520.681 137.347 520.681H117.388C116.616 520.681 115.903 520.87 115.262 521.205L116.966 522.908L126.166 532.051Z" fill="#3F4450"/>
<path d="M122.891 531.876L115.233 524.248L113.632 522.661C113.108 523.404 112.816 524.292 112.816 525.267V538.661C112.816 539.476 113.035 540.247 113.399 540.903C113.413 540.888 113.413 540.888 113.428 540.873L115.087 539.287L122.891 531.876Z" fill="#3F4450"/>
<path d="M130.403 533.303L130.112 533.594C129.325 534.365 128.35 534.759 127.36 534.759C126.385 534.759 125.409 534.365 124.623 533.594L124.434 533.405L116.572 540.917L114.942 542.46C114.927 542.474 114.913 542.489 114.898 542.489C115.612 542.969 116.456 543.246 117.388 543.246H137.347C138.264 543.246 139.123 542.969 139.836 542.489L138.206 540.902L130.403 533.303Z" fill="#3F4450"/>
<path d="M141.117 522.661L139.516 524.248L131.946 531.76L139.662 539.287L141.336 540.917C141.714 540.262 141.933 539.476 141.933 538.661V525.267C141.933 524.292 141.642 523.404 141.117 522.661Z" fill="#3F4450"/>
<rect x="384.673" y="59.9449" width="32.4065" height="29.1047" rx="3.25288" stroke="#33475B" stroke-width="1.71204"/>
<path d="M392.035 67.3064H404.362M398.199 65.252V67.3064M399.275 77.0651C397.706 75.4398 396.432 73.5278 395.54 71.4153M401.794 80.6603H408.984M400.253 83.742L405.389 73.4698L410.525 83.742M402.052 67.3064C401.057 73.2337 397.243 78.2048 392.035 80.7928" stroke="#33475B" stroke-width="2.05445" stroke-linecap="round" stroke-linejoin="round"/>
<path fill-rule="evenodd" clip-rule="evenodd" d="M566.843 581.227H543.919L547.836 602.014H570.76L566.843 581.227Z" fill="#D3D8DC"/>
<path fill-rule="evenodd" clip-rule="evenodd" d="M467.358 569.43L489.926 569.386L489.303 598.497L464.643 597.206L467.358 569.43Z" fill="#D3D8DC"/>
<path fill-rule="evenodd" clip-rule="evenodd" d="M494.155 617.147C494.155 617.147 488.546 618.082 483.383 618.394C478.976 618.661 479.065 624.047 471.676 626.851C466.201 628.899 457.61 628.943 447.061 627.474C437.09 626.094 433.44 624.091 432.772 623.29H432.683V623.156C432.639 623.067 432.639 622.978 432.683 622.934L432.55 618.126H435.844C436.868 617.592 438.247 617.281 440.117 617.325C448.352 616.524 462.774 600.144 464.91 590.173C467.091 588.615 471.676 591.241 475.86 593.333C480.356 599.743 485.252 595.87 485.252 595.87C485.252 595.87 487.122 593.467 489.481 591.419C494.288 598.007 495.357 615.233 494.155 617.147Z" fill="#2C1C28"/>
<path fill-rule="evenodd" clip-rule="evenodd" d="M588.432 621.688L588.343 625.827H588.254C588.254 625.872 588.254 625.916 588.254 625.916C584.96 627.252 581.844 628.454 569.38 628.943C559.054 629.388 552.421 627.83 548.682 625.427C544.543 622.8 547.926 617.147 543.741 616.435C541.204 615.99 540.625 614.254 540.625 614.254C541.204 605.886 542.094 595.871 545.344 591.998C545.344 594.802 547.525 597.117 547.525 597.117C547.525 597.117 548.593 598.141 552.421 591.597C557.362 589.461 562.837 589.105 568.001 591.686C571.918 606.464 578.194 614.388 583.402 619.774C584.693 619.774 585.672 620.575 586.429 621.643H588.432V621.688Z" fill="#2C1C28"/>
<path fill-rule="evenodd" clip-rule="evenodd" d="M494.021 612.652C494.021 612.652 488.413 613.586 483.249 613.898C478.843 614.165 478.932 619.551 471.543 622.355C466.068 624.403 457.477 624.447 446.927 622.979C434.152 621.198 431.749 618.438 432.728 618.394C432.728 618.394 432.639 612.652 440.028 612.83C448.263 612.029 462.818 596.138 464.955 586.167C467.136 584.609 474.569 586.79 475.771 588.838C480.267 595.247 484.496 593.467 484.496 593.467C484.496 593.467 489.036 592.399 489.525 586.968C494.377 593.556 495.223 610.738 494.021 612.652Z" fill="#814A2A"/>
<path fill-rule="evenodd" clip-rule="evenodd" d="M540.759 610.115C540.759 610.115 541.293 611.851 543.875 612.296C548.059 613.008 544.676 618.661 548.816 621.287C552.555 623.691 559.187 625.249 569.514 624.804C581.977 624.27 585.093 623.112 588.387 621.777C588.387 621.777 587.052 615.679 583.535 615.679C578.372 610.293 572.051 602.37 568.134 587.591C564.796 585.099 557.496 585.321 552.555 587.502C548.771 594.046 547.614 592.666 547.614 592.666C547.614 592.666 545.433 590.841 545.166 588.037C542.629 593.334 541.382 601.746 540.759 610.115Z" fill="#814A2A"/>
<path fill-rule="evenodd" clip-rule="evenodd" d="M567.734 583.63C567.734 583.719 567.734 583.674 567.734 583.763C567.645 584.921 560.3 585.855 551.442 585.855C543.029 585.855 536.219 585.01 535.685 583.941H535.64C535.64 583.941 523.266 568.051 521.574 537.025C517.835 467.987 490.371 397.702 490.371 397.702C490.371 397.702 487.701 379.897 533.86 390.669L567.734 583.496V583.63Z" fill="#5A74C7"/>
<path fill-rule="evenodd" clip-rule="evenodd" d="M495.757 381.411C474.525 381.411 457.388 385.15 457.521 389.779C457.655 394.409 474.97 398.148 496.202 398.148C517.435 398.148 534.572 394.409 534.438 389.779C534.349 385.15 517.034 381.411 495.757 381.411Z" fill="#5A74C7"/>
<path fill-rule="evenodd" clip-rule="evenodd" d="M533.325 362.76C533.325 362.76 522.375 355.771 504.927 355.504C470.029 355.015 455.117 362.582 455.117 362.582L455.874 389.69L533.904 383.013L533.325 362.76Z" fill="#7581F1"/>
<path fill-rule="evenodd" clip-rule="evenodd" d="M495.09 533.732C499.674 566.359 493.265 583.808 492.953 584.609C492.686 585.544 486.143 586.256 477.997 586.256C469.985 586.256 463.397 585.544 462.952 584.609H462.907L455.474 381.589C455.474 381.589 465.756 379.363 475.059 381.589C485.876 384.17 495.223 396.233 495.223 396.233C495.223 396.233 487.611 480.584 495.09 533.732Z" fill="#5A74C7"/>
<path d="M465.4 369.837C465.4 369.837 464.91 383.769 456.319 393.517" stroke="#555EC2" stroke-width="1.00854" stroke-miterlimit="10" stroke-linecap="round" stroke-linejoin="round"/>
<path d="M509.511 367.656C509.511 367.656 509.779 387.375 527.851 393.874" stroke="#3763C3" stroke-width="1.00854" stroke-miterlimit="10" stroke-linecap="round" stroke-linejoin="round"/>
<path d="M567.645 582.962L526.293 383.146C526.515 379.363 527.316 370.06 527.316 370.06" stroke="#3763C3" stroke-width="1.00854" stroke-miterlimit="10" stroke-linecap="round" stroke-linejoin="round"/>
<path d="M485.92 399.394C485.92 399.394 482.804 480.45 487.923 539.162C490.238 565.424 485.964 585.544 485.964 585.544" stroke="#3763C3" stroke-width="1.00854" stroke-miterlimit="10" stroke-linecap="round" stroke-linejoin="round"/>
<path fill-rule="evenodd" clip-rule="evenodd" d="M494.021 413.103L494.333 408.518L491.217 398.147L479.021 395.877C478.976 395.877 481.424 409.72 494.021 413.103Z" fill="#375BB7"/>
<path fill-rule="evenodd" clip-rule="evenodd" d="M445.698 320.078C449.494 354.858 441.758 372.205 453.6 380.781C454.105 386.905 454.892 396.357 454.892 396.357C454.892 396.357 454.971 397.065 455.522 397.586C456.166 398.141 456.683 398.352 456.683 398.352C456.683 398.352 456.086 395.821 456.347 395.747C459.065 394.816 467.444 392.85 494.169 390.312C514.375 388.368 526.227 389.015 534.156 389.025C534.703 390.71 534.851 391.231 534.851 391.231C534.851 391.231 538.183 390.187 538.216 388.885C538.216 388.885 537.103 377.319 536.683 373.962C544.667 367.65 543.439 352.649 529.701 313.067C536.03 308.777 539.864 301.003 538.935 292.687C537.635 281.052 527.647 272.628 516.454 273.475L515.923 273.535C515.879 273.54 515.835 273.545 515.746 273.555C515.702 273.559 515.614 273.569 515.57 273.574L451.485 280.868C441.414 283.337 434.657 293.408 435.872 304.291C436.604 310.838 440.658 316.655 445.698 320.078Z" fill="#ED5C18"/>
<path d="M453.172 372.206C463.944 370.025 508.278 366.642 536.632 374.654" stroke="#CC2818" stroke-width="1.00854" stroke-miterlimit="10" stroke-linecap="round" stroke-linejoin="round"/>
<path d="M466.307 291.262L480.794 301.468L495.454 287.557" stroke="#CC2818" stroke-width="1.00854" stroke-miterlimit="10" stroke-linecap="round" stroke-linejoin="round"/>
<path fill-rule="evenodd" clip-rule="evenodd" d="M473.323 310.767C467.716 321.919 452.353 342.357 438.797 352.113C436.199 356.927 431.394 360.42 425.555 361.072C416.132 362.125 407.624 355.327 406.576 345.948C405.83 339.269 409.036 333.088 414.299 329.678C414.422 329.575 414.505 329.521 414.628 329.417C429.099 320.634 435.05 300.934 436.065 297.193C437.623 288.688 444.565 281.866 453.589 280.858C464.604 279.627 474.582 287.56 475.813 298.575C476.307 302.998 475.341 307.182 473.323 310.767Z" fill="#ED5C18"/>
<path d="M442.052 344.762L448.588 302.244" stroke="#ED5C18" stroke-width="1.00854" stroke-miterlimit="10" stroke-linecap="round" stroke-linejoin="round"/>
<path fill-rule="evenodd" clip-rule="evenodd" d="M582.058 332.3C583.215 342.652 575.744 351.952 565.437 353.103C559.376 353.78 553.658 351.508 549.703 347.381L518.436 316.476C507.829 316.541 498.627 308.343 497.381 297.195C496.057 285.34 504.274 274.702 515.776 273.417C522.456 272.671 528.7 275.243 533.068 279.861L533.146 279.763L576.664 320.899L576.625 320.949C579.512 323.94 581.559 327.832 582.058 332.3Z" fill="#ED5C18"/>
<path d="M511.846 309.599L543.335 343.3" stroke="#CC2818" stroke-width="1.00854" stroke-miterlimit="10" stroke-linecap="round" stroke-linejoin="round"/>
<path fill-rule="evenodd" clip-rule="evenodd" d="M582.059 332.3C583.215 342.651 575.744 351.951 565.437 353.103C563.756 353.29 562.094 353.252 560.497 352.983L529.365 351.355L529.417 322.953C529.417 322.953 535.773 322.914 540.03 322.931C544.583 309.568 564.873 314.781 567.145 315.871C574.848 317.474 581.124 323.939 582.059 332.3Z" fill="#ED5C18"/>
<path fill-rule="evenodd" clip-rule="evenodd" d="M531.177 323.473C527.568 321.636 523.869 326.215 522.964 333.751C522.055 341.243 524.271 349.057 527.881 350.894C531.49 352.73 535.164 347.93 536.073 340.438C537.022 332.897 534.786 325.309 531.177 323.473Z" fill="#CC2818"/>
<path fill-rule="evenodd" clip-rule="evenodd" d="M530.652 324.785C527.421 323.131 524.12 327.262 523.304 333.982C522.487 340.702 524.477 347.691 527.707 349.345C530.938 351 534.219 346.692 535.036 339.972C535.892 333.202 533.922 326.391 530.652 324.785Z" fill="#D3D8DC"/>
<path fill-rule="evenodd" clip-rule="evenodd" d="M521.268 324.58L529.187 324.502L529.468 349.866L520.659 349.999L521.268 324.58Z" fill="#D3D8DC"/>
<path fill-rule="evenodd" clip-rule="evenodd" d="M522.369 324.816C519.139 323.161 515.838 327.292 515.021 334.012C514.204 340.732 516.194 347.721 519.425 349.375C522.655 351.03 525.936 346.722 526.753 340.002C527.565 333.238 525.595 326.426 522.369 324.816Z" fill="#A8B3BC"/>
<path fill-rule="evenodd" clip-rule="evenodd" d="M521.534 325.759C518.825 324.36 516.035 327.852 515.365 333.48C514.7 339.153 516.34 345.017 519.045 346.372C521.754 347.771 524.529 344.146 525.194 338.473C525.908 332.84 524.238 327.114 521.534 325.759Z" fill="#E99670"/>
<path fill-rule="evenodd" clip-rule="evenodd" d="M494.238 325.584L499.852 334.542L494.238 325.584Z" fill="#E99670"/>
<path fill-rule="evenodd" clip-rule="evenodd" d="M504.07 343.432C498.293 341.032 495.925 336.28 491.224 332.685L489.444 331.585C488.436 330.98 488.071 329.722 488.587 328.724C489.112 327.814 490.243 327.509 491.187 327.941C491.187 327.941 496.153 330.701 502.613 331.591C512.491 328.607 525.924 350.217 504.07 343.432Z" fill="#E99670"/>
<path d="M482.107 311.219L494.825 313.605L495.833 313.806L496.34 313.929L496.571 313.992L496.895 314.09C497.815 314.301 498.66 314.655 499.516 315.097C500.371 315.538 501.148 316.079 501.891 316.712C502.24 317.032 502.589 317.351 502.944 317.715C503.096 317.877 503.253 318.083 503.406 318.245L503.824 318.781L518.7 338.08C521.268 341.421 513.377 346.155 505.848 340.904L498.743 321.812L498.527 321.478C498.473 321.394 498.418 321.311 498.364 321.227C498.256 321.06 498.104 320.898 497.951 320.736C497.646 320.411 497.346 320.131 496.958 319.861C496.574 319.635 496.191 319.41 495.768 319.233L495.581 319.164L495.35 319.1L494.838 318.934L493.865 318.639L481.274 315.388C480.114 315.025 479.351 313.811 479.626 312.661C479.955 311.594 481.006 310.984 482.107 311.219Z" fill="#E99670"/>
<path fill-rule="evenodd" clip-rule="evenodd" d="M504.31 333.552L499.555 323.871L499.26 323.635C499.162 323.557 499.113 323.517 499.014 323.439C498.867 323.321 498.675 323.208 498.483 323.095C498.1 322.869 497.721 322.687 497.308 322.599C496.89 322.467 496.477 322.378 496.03 322.384L495.848 322.359L495.578 322.345L495.086 322.355L494.098 322.331L481.509 321.901C480.3 321.902 479.302 320.983 479.217 319.828C479.148 318.806 479.949 317.955 481.055 317.831L493.55 317.42L494.523 317.312L495.009 317.257L495.275 317.228L495.585 317.193C496.474 317.139 497.379 317.217 498.293 317.383C499.208 317.55 500.088 317.81 500.938 318.207C501.361 318.384 501.789 318.605 502.172 318.831C502.364 318.944 502.556 319.057 502.753 319.214L503.284 319.558L513.347 329.049C518.031 336.498 513.194 336.098 504.31 333.552Z" fill="#E99670"/>
<path d="M482.107 311.219L494.825 313.605L495.833 313.806L496.34 313.929L496.571 313.992L496.895 314.09C497.815 314.301 498.66 314.655 499.516 315.097C500.371 315.538 501.148 316.079 501.891 316.712C502.24 317.032 502.589 317.351 502.944 317.715C503.096 317.877 503.253 318.083 503.406 318.245L503.824 318.781L518.7 338.08C521.268 341.421 513.377 346.155 505.848 340.904L498.743 321.812L498.527 321.478C498.473 321.394 498.418 321.311 498.364 321.227C498.256 321.06 498.104 320.898 497.951 320.736C497.646 320.411 497.346 320.131 496.958 319.861C496.574 319.635 496.191 319.41 495.768 319.233L495.581 319.164L495.35 319.1L494.838 318.934L493.865 318.639L481.274 315.388C480.114 315.025 479.351 313.811 479.626 312.661C479.955 311.594 481.006 310.984 482.107 311.219Z" fill="#E99670"/>
<path fill-rule="evenodd" clip-rule="evenodd" d="M509.004 333.475L502.245 325.093L501.911 324.906C501.817 324.872 501.719 324.793 501.625 324.759C501.439 324.69 501.247 324.577 501.065 324.553C500.647 324.42 500.234 324.332 499.826 324.288C499.418 324.244 498.971 324.249 498.533 324.343L498.356 324.363L498.096 324.436L497.614 324.535L496.651 324.732L487.691 326.719C486.511 326.985 485.316 326.312 485.016 325.226C484.725 324.228 485.329 323.22 486.366 322.88L495.055 320.073L496.004 319.743L496.481 319.601L496.697 319.532L497.002 319.453C497.871 319.221 498.751 319.078 499.685 319.019C500.619 318.959 501.524 319.037 502.438 319.204C502.895 319.287 503.357 319.415 503.775 319.547C504.006 319.611 504.237 319.675 504.429 319.787L505.039 320.033L513.304 332.277C519.379 338.541 518.246 334.01 509.004 333.475Z" fill="#E99670"/>
<path fill-rule="evenodd" clip-rule="evenodd" d="M492.122 322.282L504.562 320.579L506.302 336.15L501.923 337.849L492.122 322.282Z" fill="#E99670"/>
<path fill-rule="evenodd" clip-rule="evenodd" d="M520.29 325.451L509.566 327.276L509.463 344.8L520.151 346.651C523.869 341.847 523.627 332.468 520.29 325.451Z" fill="#E99670"/>
<path d="M506.59 341.538C506.59 341.538 504.441 339.941 503.761 336.658C501.262 325.113 501.63 324.4 499.334 324.298C499.516 324.323 496.607 324.737 496.607 324.737L487.647 326.724C486.467 326.99 485.272 326.317 484.972 325.231C484.681 324.233 485.285 323.225 486.322 322.886L495.011 320.078C495.011 320.078 500.191 317.932 502.772 319.391C505.978 321.227 511.133 326.877 511.133 326.877" stroke="#2C1C28" stroke-width="1.00854" stroke-miterlimit="10" stroke-linecap="round" stroke-linejoin="round"/>
<path d="M488.971 322.141C485.511 322.035 481.598 321.89 481.598 321.89C480.389 321.891 479.39 320.972 479.306 319.817C479.237 318.795 480.037 317.944 481.143 317.82L493.638 317.41L494.611 317.301L495.098 317.247L495.364 317.217L495.673 317.182C496.563 317.128 497.467 317.206 498.382 317.372C499.296 317.539 500.176 317.799 501.027 318.197C501.45 318.373 501.877 318.594 502.261 318.82C502.453 318.933 502.645 319.046 502.841 319.203" stroke="#2C1C28" stroke-width="1.00854" stroke-miterlimit="10" stroke-linecap="round" stroke-linejoin="round"/>
<path d="M534.88 351.007C538.804 352.853 542.778 347.93 543.84 340.197C544.858 332.47 542.936 324.891 539.012 323.045" stroke="#CC2818" stroke-width="1.00854" stroke-miterlimit="10" stroke-linecap="round" stroke-linejoin="round"/>
<path d="M529.373 322.958C529.373 322.958 535.729 322.92 539.986 322.937C544.539 309.573 564.829 314.786 567.1 315.876" stroke="#CC2818" stroke-width="1.00854" stroke-miterlimit="10" stroke-linecap="round" stroke-linejoin="round"/>
<path fill-rule="evenodd" clip-rule="evenodd" d="M494.964 266.337C498.573 268.576 492.528 277.806 484.704 280.338C476.315 283.022 468.576 281.109 468.554 276.902C468.604 270.536 485.05 260.189 494.964 266.337Z" fill="black"/>
<path fill-rule="evenodd" clip-rule="evenodd" d="M495.309 275.839L491.955 248.623L471.424 251.275L470.184 281.064C470.184 281.064 470.14 281.472 470.165 281.694C470.259 282.937 472.874 283.496 476.659 283.297L479.871 294.807L481.432 282.719C481.958 282.616 482.528 282.507 483.098 282.399C490.052 280.905 495.61 278.134 495.442 276.227C495.427 276.094 495.412 275.962 495.309 275.839Z" fill="#E99670"/>
<path fill-rule="evenodd" clip-rule="evenodd" d="M494.025 265.546C496.277 266.862 498.094 272.705 484.866 279.782C483.032 280.211 482.104 281.927 481.369 285.368L479.861 294.315L477.344 285.818C477.344 285.818 476.807 284.22 476.216 283.346C475.415 282.181 474.549 281.651 474.549 281.651C474.549 281.651 469.814 279.761 469.194 278.218C468.022 275.348 469.781 273.45 470.783 272.397C470.793 272.083 470.802 271.768 470.812 271.453C469.682 272.162 467.982 273.785 467.084 276.976C464.517 282.861 465.923 291.438 465.923 291.438L470.714 288.619L479.959 295.2L489.657 286.189C489.657 286.189 492.327 286.831 496.112 287.841C499.148 284.546 502.026 279.432 502.288 274.969L495.347 266.159L494.064 265.497L494.025 265.546Z" fill="#D3D8DC"/>
<path d="M494.226 265.747C495.008 266.332 495.495 267.084 495.609 268.101C496.019 271.773 491.294 277.183 484.905 279.733C483.49 280.294 482.404 281.401 481.938 282.841C481.094 285.309 480.177 289.532 479.964 294.841C478.599 289.44 477.194 282.072 473.398 280.974C472.705 280.782 472.007 280.547 471.422 280.12C470.301 279.304 469.415 278.194 469.287 277.044" stroke="#2A1C28" stroke-width="1.00854" stroke-miterlimit="10" stroke-linecap="round" stroke-linejoin="round"/>
<path fill-rule="evenodd" clip-rule="evenodd" d="M465.879 291.444L477.807 287.155C477.807 287.155 476.413 283.101 475.114 281.499C473.821 279.942 469.114 283.513 465.879 291.444Z" fill="#2A1C28"/>
<path fill-rule="evenodd" clip-rule="evenodd" d="M496.024 287.852L480.85 287.531C480.973 287.428 480.797 281.849 483.691 280.093C485.411 279.049 492.885 283.007 496.024 287.852Z" fill="#2A1C28"/>
<path fill-rule="evenodd" clip-rule="evenodd" d="M470.364 277.462C488.187 269.021 486.075 254.924 486.075 254.924L471.056 260.006L470.364 277.462Z" fill="#C87149"/>
<path fill-rule="evenodd" clip-rule="evenodd" d="M470.716 267.395C472.236 268.224 473.951 268.585 475.676 268.481C477.401 268.377 479.064 267.874 480.511 266.924C484.575 264.239 489.876 259 490.791 249.379C497.729 249.599 499.715 238.669 495.134 237.11C492.294 236.182 489.503 238.794 488.323 241.056C488.261 241.165 488.148 241.427 488.129 241.525C486.735 236.276 491.14 229.113 487.322 226.976C467.153 215.708 459.395 230.667 457.658 233.59C457.687 237.229 458.375 240.917 458.934 246.487C460.041 258.092 465.809 264.818 470.716 267.395ZM488.28 241.068C488.311 241.013 488.311 241.013 488.28 241.068V241.068Z" fill="#E99670"/>
<path d="M470.512 256.05C470.512 256.05 475.122 255.524 477.162 251.688" stroke="#2C1C28" stroke-width="1.00854" stroke-miterlimit="10" stroke-linecap="round" stroke-linejoin="round"/>
<path d="M464.363 237.336C461.747 237.223 458.689 239.031 458.249 240.121" stroke="#2C1C28" stroke-width="1.00854" stroke-miterlimit="10" stroke-linecap="round" stroke-linejoin="round"/>
<path d="M479.334 234.706C477.373 233.951 473.738 233.656 470.372 235.687" stroke="#2C1C28" stroke-width="1.00854" stroke-miterlimit="10" stroke-linecap="round" stroke-linejoin="round"/>
<path d="M467.211 241.494C467.211 241.494 467.866 243.714 466.947 247.936C466.106 251.767 468.711 252.852 472.237 250.731" stroke="#2C1C28" stroke-width="1.00854" stroke-miterlimit="10" stroke-linecap="round" stroke-linejoin="round"/>
<path fill-rule="evenodd" clip-rule="evenodd" d="M475.628 238.861C474.972 238.995 474.619 240.061 474.882 241.189C475.145 242.317 475.907 243.077 476.563 242.944C477.219 242.81 477.572 241.744 477.309 240.616C477.046 239.488 476.284 238.728 475.628 238.861Z" fill="#2C1C28"/>
<path fill-rule="evenodd" clip-rule="evenodd" d="M462.511 241.859C461.855 241.993 461.502 243.059 461.765 244.187C462.028 245.315 462.79 246.075 463.446 245.942C464.102 245.808 464.455 244.742 464.192 243.614C463.929 242.486 463.167 241.726 462.511 241.859Z" fill="#2C1C28"/>
<path fill-rule="evenodd" clip-rule="evenodd" d="M454.685 234.868C458.571 246.172 457.704 236.116 457.704 236.116C460.177 237.054 467.853 232.225 473.705 226.973C479.514 221.733 483.568 220.021 485.314 228.911C486.498 234.91 492.223 215.061 486.039 217.081C484.607 204.458 471.514 215.619 471.514 215.619C471.514 215.619 466.108 211.056 460.203 212.583C454.685 214.005 451.605 219.604 453.772 224.641C449.67 225.673 446.729 227.403 454.685 234.868Z" fill="#951800"/>
<path fill-rule="evenodd" clip-rule="evenodd" d="M458.856 235.939C461.409 236.161 466.379 233.413 473.796 227.64C480.004 222.844 483.544 224.643 485.591 233.451C486.058 235.492 487.057 240.48 487.608 243.329C487.999 241.052 489.619 238.208 493.4 236.848C490.285 231.886 495.279 214.085 485.996 217.093C485.806 215.391 485.59 214.435 485.053 213.151C484.493 212.289 480.349 208.118 475.077 220.365C471.335 229.1 464.067 235.248 458.856 235.939ZM454.685 234.867C456.072 240.764 458.737 244.926 458.737 244.926L458.212 236.115C456.217 235.74 455.201 235.234 454.685 234.867Z" fill="#5F1001"/>
<path fill-rule="evenodd" clip-rule="evenodd" d="M422.591 288.549C422.591 288.549 421.938 291.154 421.901 293.133C421.679 299.21 422.883 304.226 423.011 304.984L425.549 295.43L422.591 288.549Z" fill="#EC957E"/>
<path fill-rule="evenodd" clip-rule="evenodd" d="M451.087 338.46C450.091 351.062 438.622 360.198 434.69 362.654C428.423 367.26 419.539 367.266 413.299 362.125C409.802 359.254 407.774 355.317 407.267 351.167C406.308 346.424 404.424 331.87 414.316 322.824C419.302 318.275 423.49 318.494 423.49 318.494L446.775 326.752C446.727 326.714 451.536 332.487 451.087 338.46Z" fill="#ED5C18"/>
<path fill-rule="evenodd" clip-rule="evenodd" d="M436.189 317.29C443.105 319.264 447.621 324.726 446.268 329.513C444.909 334.257 438.212 336.55 431.253 334.581C424.337 332.607 419.821 327.145 421.174 322.358C422.533 317.614 429.23 315.32 436.189 317.29Z" fill="#CC2818"/>
<path fill-rule="evenodd" clip-rule="evenodd" d="M447.037 317.58L445.187 327.144C445.197 327.615 445.122 328.095 444.962 328.585C443.763 332.84 437.763 334.84 431.558 333.087C425.396 331.329 421.332 326.461 422.573 322.202C422.752 321.495 423.114 320.896 423.561 320.288L429.386 309.036L447.037 317.58Z" fill="#E99670"/>
<path fill-rule="evenodd" clip-rule="evenodd" d="M445.23 327.138C445.23 327.525 445.183 327.873 445.094 328.227C441.881 328.285 438.253 326.931 435.241 324.177C430.651 319.968 429.121 313.958 431.337 309.976L447.08 317.575L445.23 327.138Z" fill="#C87149"/>
<path fill-rule="evenodd" clip-rule="evenodd" d="M438.901 306.985C438.901 306.985 452.779 316.337 444.623 320.553C438.779 323.567 425.801 316.132 423.713 305.892C421.927 297.207 438.901 306.985 438.901 306.985Z" fill="#EC957E"/>
<path fill-rule="evenodd" clip-rule="evenodd" d="M447.192 316.661C444.617 318.194 440.194 318.945 432.928 315.379C422.755 310.378 436.831 311.509 445.094 312.475C446.192 313.854 447.041 315.304 447.192 316.661Z" fill="#C87149"/>
<path fill-rule="evenodd" clip-rule="evenodd" d="M433.172 274.919L418.777 276.313C418.056 276.393 417.689 276.949 417.977 277.604L433.478 314.158C433.766 314.813 434.548 315.284 435.269 315.203L449.664 313.809C450.385 313.729 450.752 313.173 450.464 312.518L434.963 275.964C434.675 275.309 433.893 274.838 433.172 274.919Z" fill="#2C1C28"/>
<path fill-rule="evenodd" clip-rule="evenodd" d="M442.832 311.053C448.079 311.154 447.827 306.589 445.504 306.162C448.853 305.402 448.884 301.836 444.074 300.656C437.454 299.035 429.758 299.68 429.758 299.68L430.133 298.05C430.133 298.05 433.012 298.845 434.817 299.244C438.948 300.113 440.632 295.59 433.051 292.273C428.763 290.392 425.456 289.988 423.861 293.772C422.158 297.739 419.935 305.499 428.669 314.138C431.343 320.406 439.99 316.35 441.52 315.063C443.756 313.182 443.501 312.052 442.832 311.053Z" fill="#E99670"/>
<path d="M446.197 306.214C446.197 306.214 433.326 303.96 425.838 307.243" stroke="#2C1C28" stroke-width="1.00854" stroke-miterlimit="10" stroke-linecap="round" stroke-linejoin="round"/>
<path d="M442.808 311.228C439.257 311.324 432.733 311.71 429.031 313.926" stroke="#2C1C28" stroke-width="1.00854" stroke-miterlimit="10" stroke-linecap="round" stroke-linejoin="round"/>
<path d="M434.652 299.306C434.779 299.291 425.975 299.245 423.64 302.167" stroke="#2C1C28" stroke-width="1.00854" stroke-miterlimit="10" stroke-linecap="round" stroke-linejoin="round"/>
<path d="M434.341 299.212L426.953 297.247" stroke="#2C1C28" stroke-width="1.00854" stroke-miterlimit="10" stroke-linecap="round" stroke-linejoin="round"/>
<path d="M447.963 326.887C450.568 333.658 452.651 349.493 440.15 358.661" stroke="#CC2818" stroke-width="1.01051" stroke-linecap="round"/>
<path d="M216.784 286.459H197.459V305.784H216.784V286.459Z" fill="#4D6175"/>
<path d="M216.784 361.549H197.459V380.873H216.784V361.549Z" fill="#4D6175"/>
<path d="M182 337.531V346.089V351.611V396.333H232.244V369.279H243.838V381.702V382.53V395.781H257.918V384.186H268.96V395.781H283.039V382.53H293.254V395.781H307.333V381.702H294.082V368.451H280.003V381.702H270.754V354.371H257.918V342.777H271.169V356.028H285.248V347.194H293.254V352.991V360.445V367.07H307.333V360.445V352.991V346.366H298.499V333.943H307.333V321.244V319.864V271H257.089V271.093H243.838V286.459H232.244V271H182V315.446V321.244V329.525H190.834V337.531H182ZM223.409 387.499H190.834V354.924H223.409V387.499ZM244.666 356.028H256.676V368.451H244.666V356.028ZM244.666 329.525H255.846V341.948H244.666V329.525ZM293.254 333.114H285.661V328.698H257.917V321.244H293.253V333.114H293.254ZM265.923 279.834H298.499V312.409H265.923V279.834ZM257.089 315.446H244.666V287.933H257.089V315.446ZM243.838 328.698H232.279V316.275H243.838V328.698ZM190.834 279.834H223.409V312.409H190.834V279.834ZM218.2 321.244V329.525H230.587V342.776H243.838V355.199H232.244V346.089H196.079V342.776H204.085H204.914H218.164V328.697H204.913H204.085H196.079V321.243H218.2V321.244Z" fill="#4D6175"/>
<path d="M291.874 286.459H272.549V305.784H291.874V286.459Z" fill="#4D6175"/>
<path d="M286.764 169.057C276.424 169.057 268.074 177.577 268.074 188.646C268.074 200.721 276.873 208 286.764 208C296.955 208 305.454 199.458 305.454 188.41C305.454 176.314 296.57 169.057 286.764 169.057ZM287.128 206.672C282.803 206.672 275.824 203.697 275.824 188.475C275.824 182.309 276.98 170.384 286.422 170.384C290.896 170.384 297.726 173.338 297.726 188.56C297.726 202.969 292.074 206.672 287.128 206.672Z" fill="#26336F"/>
<path d="M262.529 203.139V169.997H233.777V170.897C237.138 171.132 238.851 171.753 239.322 172.802C239.814 173.894 239.065 175.671 236.988 178.347L231.422 185.498L224.892 175.992C223.436 173.915 222.773 172.759 223.072 172.095C223.372 171.453 224.871 171.046 227.911 170.897V169.997H208.9V170.961C212.86 171.239 213.717 171.967 217.742 177.469L227.097 190.315L221.188 197.808C219.304 200.227 218.384 201.319 217.206 202.582C213.824 206.222 206.395 207.399 206.395 202.304V180.102C206.395 173.209 201.877 169.526 192.607 169.526C179.569 169.526 178.285 179.096 178.049 180.723H185.542C185.628 174.558 187.769 170.939 192.179 170.961C195.947 170.961 199.244 172.866 199.244 180.745V186.14C178.37 188.645 177 194.511 177 198.793C177 202.068 178.991 207.592 187.426 207.592C192.051 207.592 195.797 205.751 199.415 202.197C199.886 205.515 201.835 207.078 205.474 207.078H225.577V206.2C222.323 205.965 220.525 205.344 220.075 204.316C219.583 203.224 220.311 201.447 222.366 198.771L227.911 191.556L234.569 201.105C236.025 203.182 236.689 204.338 236.389 205.001C236.089 205.644 234.484 206.05 231.55 206.2V207.099H268.652V206.115C264.071 205.922 262.529 205.665 262.529 203.139ZM199.223 200.548C197.103 202.711 194.748 203.974 192.222 204.338C191.665 204.402 191.109 204.445 190.552 204.445C186.527 204.402 184.236 201.597 184.408 197.958C184.6 193.976 186.099 190.593 193.828 188.495C195.605 188.024 197.403 187.703 199.223 187.531V200.548ZM255.357 203.139C255.357 205.066 253.324 205.815 249.684 205.815C246.58 205.815 245.381 204.573 241.72 199.585L232.343 186.718L238.166 179.246C242.705 173.359 244.396 171.86 248.1 171.432C249.491 171.282 250.883 171.261 252.296 171.325C254.351 171.517 255.357 172.502 255.357 174.386V203.139Z" fill="#26336F"/>
<path d="M262.529 153H254.608V160.921H262.529V153Z" fill="#26336F"/>
<path d="M292.338 66.34V70.362C292.4 71.1565 292.154 71.9443 291.65 72.562C291.428 72.8009 291.157 72.9898 290.856 73.116C290.555 73.2422 290.23 73.3029 289.904 73.294C289.582 73.3033 289.262 73.2418 288.966 73.1137C288.67 72.9857 288.406 72.7943 288.193 72.553C287.704 71.933 287.465 71.1524 287.523 70.365V56.951C287.523 54.7877 288.305 53.7057 289.869 53.705C290.198 53.6757 290.528 53.7299 290.831 53.8624C291.133 53.9949 291.397 54.2014 291.598 54.463C291.998 55.1402 292.2 55.9165 292.18 56.703C292.639 55.8609 293.239 55.1034 293.953 54.463C294.645 53.9292 295.505 53.6603 296.378 53.705C297.408 53.7098 298.42 53.9703 299.324 54.463C299.731 54.6244 300.083 54.9003 300.336 55.2574C300.59 55.6145 300.735 56.0374 300.753 56.475C300.761 56.747 300.711 57.0176 300.605 57.2687C300.5 57.5198 300.343 57.7455 300.144 57.931C299.798 58.2874 299.326 58.4933 298.83 58.504C298.393 58.4424 297.964 58.333 297.551 58.178C296.974 57.9779 296.37 57.868 295.76 57.852C295.136 57.8252 294.523 58.0224 294.031 58.408C293.538 58.8503 293.177 59.4213 292.99 60.057C292.72 60.9011 292.549 61.7735 292.479 62.657C292.384 63.6657 292.337 64.8933 292.338 66.34Z" fill="#EF4B46"/>
<path d="M185.577 49.9873L191.433 67.3253L197.308 49.8613C197.613 48.944 197.843 48.306 197.996 47.9473C198.166 47.567 198.426 47.234 198.754 46.9773C199.171 46.6683 199.683 46.5152 200.201 46.5443C200.638 46.5421 201.067 46.6578 201.444 46.8793C201.816 47.0929 202.127 47.4 202.344 47.7703C202.552 48.1075 202.665 48.4949 202.671 48.8913C202.668 49.1734 202.632 49.4543 202.565 49.7283C202.495 50.0273 202.407 50.3219 202.301 50.6103C202.195 50.8983 202.089 51.1953 201.983 51.5013L195.721 68.4013C195.497 69.048 195.273 69.6623 195.05 70.2443C194.849 70.7831 194.589 71.2979 194.274 71.7793C193.973 72.2284 193.571 72.601 193.1 72.8673C192.551 73.1645 191.933 73.3105 191.309 73.2903C190.686 73.3101 190.069 73.1674 189.518 72.8763C189.042 72.6113 188.637 72.2361 188.336 71.7823C188.019 71.2978 187.756 70.7804 187.551 70.2393C187.328 69.6633 187.104 69.0516 186.88 68.4043L180.725 51.6463C180.62 51.3403 180.51 51.0403 180.399 50.7463C180.283 50.436 180.188 50.1179 180.117 49.7943C180.047 49.5097 180.007 49.2183 180 48.9253C180.005 48.6172 180.071 48.3132 180.195 48.0313C180.32 47.7494 180.5 47.4954 180.724 47.2843C180.959 47.0414 181.242 46.8501 181.555 46.7226C181.867 46.595 182.203 46.5339 182.541 46.5433C182.901 46.5063 183.265 46.5623 183.598 46.7058C183.93 46.8494 184.221 47.0757 184.441 47.3633C184.933 48.1844 185.315 49.0666 185.577 49.9873Z" fill="#F17A39"/>
<path d="M237.422 59.2284L228.602 69.0894H238.039C238.662 69.0442 239.279 69.2368 239.766 69.6284C239.957 69.8037 240.108 70.0182 240.208 70.2573C240.309 70.4963 240.357 70.7542 240.348 71.0134C240.356 71.2625 240.309 71.5103 240.21 71.7391C240.111 71.9678 239.962 72.1718 239.775 72.3364C239.278 72.7145 238.66 72.8967 238.037 72.8484H224.985C224.25 72.9052 223.519 72.6919 222.93 72.2484C222.534 71.8848 222.292 71.3829 222.255 70.8463C222.218 70.3097 222.388 69.7793 222.73 69.3644C223.048 68.9471 223.707 68.1804 224.706 67.0644C225.765 65.8891 226.726 64.8247 227.591 63.8714C228.456 62.9181 229.258 62.0271 229.999 61.1984C230.74 60.3697 231.354 59.6671 231.842 59.0904C232.33 58.5137 232.721 58.0197 233.015 57.6084H225.853C225.097 57.6386 224.341 57.5492 223.613 57.3434C223.106 57.1674 222.854 56.7027 222.855 55.9494C222.845 55.7 222.891 55.4515 222.99 55.2224C223.09 54.9933 223.239 54.7896 223.428 54.6264C223.893 54.2693 224.471 54.0924 225.056 54.1284H236.117C236.927 54.0845 237.735 54.239 238.472 54.5784C238.749 54.7411 238.973 54.9797 239.118 55.2659C239.264 55.5521 239.324 55.874 239.292 56.1934C239.288 56.4675 239.234 56.7387 239.133 56.9934C239.046 57.2342 238.927 57.4625 238.78 57.6724C238.651 57.8484 238.474 58.0631 238.25 58.3164C238.026 58.5697 237.75 58.8737 237.422 59.2284Z" fill="#F48046"/>
<path d="M245.59 51.4689C244.96 51.4836 244.347 51.2637 243.87 50.8519C243.643 50.6272 243.463 50.3594 243.34 50.0641C243.218 49.7689 243.156 49.4522 243.157 49.1326C243.159 48.813 243.225 48.497 243.35 48.203C243.476 47.9091 243.658 47.6432 243.888 47.4209C244.349 46.991 244.958 46.7544 245.588 46.7599C246.195 46.7539 246.784 46.9669 247.247 47.3599C247.493 47.5761 247.687 47.846 247.812 48.1487C247.937 48.4514 247.991 48.7789 247.97 49.1059C247.988 49.4295 247.933 49.7531 247.811 50.0534C247.689 50.3536 247.502 50.6232 247.264 50.8429C246.805 51.2559 246.207 51.4796 245.59 51.4689ZM247.971 56.4439V70.3639C248.029 71.1543 247.783 71.937 247.283 72.5519C247.062 72.7935 246.792 72.9847 246.491 73.1126C246.19 73.2404 245.864 73.3019 245.537 73.2929C245.212 73.3032 244.889 73.2405 244.591 73.1093C244.293 72.9781 244.029 72.7818 243.817 72.5349C243.339 71.9165 243.104 71.1447 243.156 70.3649V56.5849C243.098 55.81 243.334 55.0416 243.817 54.4329C244.034 54.1949 244.301 54.007 244.598 53.8822C244.895 53.7574 245.215 53.6986 245.537 53.7099C245.863 53.7003 246.187 53.7597 246.488 53.8843C246.789 54.0089 247.06 54.1959 247.283 54.4329C247.768 54.9866 248.016 55.709 247.972 56.4439H247.971Z" fill="#F07A4F"/>
<path d="M253.21 54.1322H253.74V51.2402C253.74 50.4642 253.761 49.8555 253.802 49.4142C253.83 49.0139 253.948 48.6251 254.146 48.2762C254.341 47.9419 254.621 47.6657 254.958 47.4762C255.317 47.2685 255.725 47.1618 256.14 47.1672C256.761 47.171 257.356 47.4175 257.798 47.8542C258.122 48.1508 258.342 48.5439 258.425 48.9752C258.527 49.5961 258.571 50.2251 258.557 50.8542V54.1352H260.321C260.884 54.0961 261.441 54.2692 261.882 54.6202C262.057 54.7755 262.196 54.9675 262.289 55.1824C262.382 55.3974 262.427 55.6301 262.42 55.8642C262.443 56.1413 262.381 56.4187 262.245 56.6608C262.108 56.9029 261.902 57.0984 261.653 57.2222C260.959 57.5169 260.206 57.6499 259.453 57.6112H258.553V66.4672C258.545 67.0473 258.571 67.6273 258.633 68.2042C258.668 68.5695 258.816 68.9148 259.056 69.1922C259.206 69.3306 259.383 69.4359 259.576 69.5012C259.769 69.5665 259.973 69.5904 260.176 69.5712C260.562 69.5584 260.946 69.5081 261.323 69.4212C261.694 69.3352 262.072 69.2849 262.452 69.2712C262.649 69.2737 262.844 69.3164 263.025 69.3967C263.205 69.477 263.367 69.5932 263.501 69.7382C263.654 69.8886 263.774 70.0686 263.855 70.2673C263.935 70.4659 263.974 70.6789 263.969 70.8932C263.962 71.2838 263.837 71.6631 263.61 71.9812C263.384 72.2993 263.066 72.5413 262.699 72.6752C261.541 73.1443 260.295 73.3549 259.047 73.2922C257.858 73.3678 256.671 73.105 255.625 72.5342C254.867 72.0542 254.322 71.303 254.099 70.4342C253.828 69.2606 253.706 68.0573 253.738 66.8532V57.6082H253.103C252.531 57.6478 251.965 57.4715 251.516 57.1142C251.339 56.9582 251.198 56.7653 251.103 56.549C251.009 56.3326 250.963 56.0982 250.969 55.8622C250.963 55.6248 251.012 55.3892 251.112 55.1736C251.211 54.958 251.359 54.768 251.543 54.6182C252.023 54.2634 252.614 54.0911 253.21 54.1322Z" fill="#EB674C"/>
<path d="M283.764 63.5001C283.778 64.8525 283.551 66.1965 283.093 67.4691C282.675 68.6357 282.013 69.7002 281.153 70.5921C280.296 71.468 279.262 72.15 278.119 72.5921C276.852 73.0742 275.505 73.3117 274.15 73.2921C272.805 73.313 271.469 73.0732 270.216 72.5861C269.072 72.1329 268.038 71.4417 267.182 70.5582C266.326 69.6748 265.667 68.6194 265.25 67.4621C264.796 66.1919 264.572 64.8509 264.589 63.5021C264.573 62.1395 264.801 60.785 265.26 59.5021C265.675 58.3446 266.33 57.2881 267.182 56.4021C268.038 55.5297 269.073 54.8529 270.216 54.4181C272.768 53.4865 275.567 53.4897 278.116 54.4271C279.267 54.8695 280.308 55.5559 281.169 56.439C282.029 57.3221 282.688 58.3811 283.1 59.5431C283.553 60.8126 283.778 62.1522 283.764 63.5001ZM278.931 63.5001C279.029 61.8681 278.571 60.2511 277.631 58.9131C277.223 58.3823 276.693 57.9566 276.087 57.6712C275.482 57.3858 274.816 57.249 274.147 57.2721C273.262 57.2553 272.393 57.5112 271.659 58.0051C270.903 58.5431 270.325 59.2955 270.001 60.1651C269.228 62.3079 269.225 64.6531 269.992 66.7981C270.316 67.6631 270.887 68.4143 271.633 68.9591C272.372 69.4666 273.251 69.7287 274.147 69.7081C274.817 69.7313 275.483 69.5937 276.089 69.3069C276.695 69.02 277.224 68.5921 277.631 68.0591C278.567 66.7297 279.025 65.1229 278.931 63.5001Z" fill="#EE5449"/>
<path d="M209.17 55.8778C208.559 56.3516 207.977 56.8618 207.428 57.4058C207.143 57.7539 206.956 58.171 206.884 58.6148C206.689 59.6918 206.584 60.7858 206.433 61.8708C206.394 62.15 206.246 62.4026 206.023 62.5746C205.8 62.7465 205.518 62.8242 205.238 62.7908C205.094 62.779 204.955 62.7376 204.828 62.6693C204.701 62.6009 204.59 62.5071 204.501 62.3936C204.412 62.2802 204.348 62.1496 204.312 62.0101C204.276 61.8705 204.269 61.7251 204.292 61.5828C204.458 60.1608 204.643 58.7418 204.813 57.3198C204.875 56.7784 205.146 56.2828 205.57 55.9398C206.511 55.1398 207.442 54.3338 208.404 53.5628C209.322 52.7717 210.499 52.3476 211.711 52.3718C212.111 52.351 212.508 52.4525 212.849 52.6627C213.19 52.8729 213.459 53.182 213.62 53.5488C214.084 54.5206 214.476 55.5253 214.792 56.5548C214.909 57.0374 215.142 57.4839 215.471 57.8554C215.8 58.2269 216.216 58.5121 216.681 58.6858C217.501 59.0348 218.301 59.4298 219.105 59.8158C219.354 59.9294 219.548 60.136 219.646 60.3912C219.744 60.6463 219.738 60.9298 219.63 61.1808C219.579 61.306 219.503 61.4194 219.407 61.5139C219.31 61.6084 219.195 61.682 219.069 61.73C218.943 61.7781 218.808 61.7996 218.673 61.7932C218.538 61.7868 218.406 61.7526 218.285 61.6928C216.97 61.0958 215.641 60.5128 214.364 59.8398C213.949 59.5415 213.594 59.1685 213.317 58.7398C213.19 58.5162 213.043 58.3041 212.879 58.1058C212.701 58.9708 212.579 59.8548 212.329 60.6978C212.223 61.0431 212.202 61.4089 212.268 61.764C212.335 62.1191 212.486 62.4528 212.709 62.7368C214.419 65.3398 216.07 67.9938 217.734 70.6398C217.86 70.8075 217.95 70.9997 217.997 71.204C218.045 71.4083 218.049 71.6203 218.01 71.8265C217.972 72.0326 217.89 72.2284 217.771 72.4014C217.653 72.5743 217.499 72.7206 217.321 72.831C217.142 72.9413 216.943 73.0133 216.735 73.0423C216.527 73.0712 216.316 73.0566 216.114 72.9993C215.912 72.942 215.725 72.8432 215.563 72.7094C215.402 72.5755 215.27 72.4095 215.176 72.2218C213.834 70.0938 212.481 67.9738 211.139 65.8468C210.202 64.3628 209.265 62.8788 208.355 61.3778C208.22 61.1345 208.17 60.8526 208.215 60.5778C208.5 59.0578 208.825 57.5398 209.17 55.8778Z" fill="#444444"/>
<path d="M216.49 73.3826C216.159 73.3761 215.836 73.281 215.555 73.1072C215.274 72.9334 215.044 72.6873 214.89 72.3946C214.195 71.2926 213.498 70.1926 212.799 69.0946C212.15 68.0713 211.501 67.0473 210.853 66.0226L210.81 65.9546C209.902 64.5166 208.963 63.0286 208.066 61.5476C207.89 61.2358 207.825 60.873 207.884 60.5196C208.097 59.3826 208.331 58.2526 208.584 57.0576L208.651 56.7376C208.302 57.0101 207.974 57.3086 207.67 57.6306C207.426 57.9325 207.266 58.2932 207.206 58.6766C207.083 59.3556 206.996 60.0566 206.911 60.7366C206.861 61.1316 206.811 61.5266 206.756 61.9216C206.703 62.286 206.509 62.6153 206.217 62.8394C205.925 63.0636 205.557 63.1648 205.191 63.1216C205.004 63.1042 204.823 63.0489 204.659 62.9592C204.494 62.8694 204.35 62.747 204.234 62.5994C204.119 62.4519 204.035 62.2823 203.987 62.1011C203.939 61.9199 203.929 61.7309 203.957 61.5456C204.054 60.7183 204.154 59.8913 204.257 59.0646C204.331 58.4706 204.405 57.8756 204.476 57.2816C204.549 56.6539 204.864 56.0796 205.355 55.6816L206.11 55.0406C206.788 54.4636 207.488 53.8676 208.196 53.3006C209.174 52.4554 210.432 52.0045 211.725 52.0356C212.188 52.0144 212.646 52.1346 213.039 52.3802C213.432 52.6258 213.741 52.9852 213.925 53.4106L214.048 53.6886C214.472 54.5854 214.828 55.5126 215.113 56.4626C215.217 56.8968 215.426 57.2986 215.723 57.6323C216.02 57.966 216.394 58.2214 216.813 58.3756C217.498 58.6676 218.178 58.9946 218.834 59.3106L219.251 59.5106C219.578 59.6618 219.832 59.9346 219.96 60.271C220.089 60.6073 220.08 60.9804 219.937 61.3106C219.869 61.476 219.767 61.6257 219.639 61.7505C219.511 61.8753 219.358 61.9726 219.191 62.0364C219.024 62.1003 218.845 62.1293 218.666 62.1218C218.488 62.1142 218.312 62.0703 218.151 61.9926L217.661 61.7726C216.519 61.2586 215.337 60.7276 214.209 60.1296C213.833 59.894 213.513 59.5802 213.269 59.2096C213.2 59.1196 213.131 59.0296 213.061 58.9446L213.056 58.9356V58.9496C212.954 59.5682 212.818 60.1808 212.649 60.7846C212.557 61.0837 212.54 61.4007 212.599 61.708C212.659 62.0152 212.792 62.3031 212.989 62.5466C214.404 64.7106 215.802 66.9346 217.154 69.0846L218.017 70.4576C218.202 70.7329 218.315 71.0501 218.347 71.3804C218.378 71.7107 218.326 72.0436 218.195 72.3486C218.064 72.6232 217.866 72.8601 217.618 73.0368C217.371 73.2135 217.082 73.3242 216.78 73.3586C216.684 73.3739 216.587 73.3819 216.49 73.3826ZM209.69 54.9946L209.495 55.9446C209.408 56.3686 209.322 56.7826 209.238 57.1896C208.991 58.3826 208.756 59.5086 208.546 60.6386C208.517 60.8321 208.552 61.0299 208.646 61.2016C209.539 62.6776 210.477 64.1626 211.383 65.6016L211.426 65.6696C212.068 66.6923 212.715 67.7143 213.366 68.7356C214.065 69.8363 214.762 70.9363 215.458 72.0356C215.565 72.2629 215.742 72.4499 215.963 72.5694C216.185 72.6889 216.438 72.7345 216.687 72.6996C216.88 72.6811 217.065 72.6132 217.224 72.5023C217.383 72.3913 217.51 72.2413 217.594 72.0666C217.679 71.8622 217.711 71.6396 217.687 71.4195C217.663 71.1993 217.584 70.9888 217.457 70.8076L216.59 69.4356C215.24 67.2876 213.843 65.0656 212.432 62.9076C212.184 62.5824 212.017 62.203 211.943 61.8007C211.87 61.3983 211.893 60.9843 212.011 60.5926C212.173 60.0117 212.303 59.4225 212.401 58.8276C212.45 58.5606 212.501 58.2936 212.554 58.0276L212.673 57.4496L213.105 57.8496C213.244 57.9862 213.36 58.1442 213.449 58.3176C213.485 58.3876 213.526 58.4545 213.573 58.5176C213.648 58.6096 213.721 58.7046 213.795 58.8006C213.986 59.0914 214.232 59.3418 214.519 59.5376C215.629 60.1256 216.8 60.6516 217.933 61.1616L218.423 61.3826C218.504 61.4243 218.593 61.4484 218.685 61.4535C218.776 61.4586 218.867 61.4446 218.953 61.4123C219.038 61.38 219.116 61.3301 219.181 61.2659C219.246 61.2017 219.297 61.1246 219.33 61.0396C219.405 60.8674 219.409 60.6726 219.34 60.4977C219.272 60.3229 219.137 60.1822 218.965 60.1066L218.547 59.9066C217.897 59.5936 217.226 59.2696 216.555 58.9836C216.043 58.7911 215.587 58.4766 215.224 58.0674C214.862 57.6582 214.605 57.1667 214.476 56.6356C214.199 55.718 213.854 54.8222 213.444 53.9556L213.321 53.6766C213.185 53.3668 212.956 53.1065 212.667 52.9311C212.377 52.7558 212.041 52.6739 211.703 52.6966C210.57 52.6752 209.47 53.0738 208.614 53.8156C207.914 54.3766 207.214 54.9696 206.544 55.5436C206.292 55.7583 206.04 55.9726 205.787 56.1866C205.425 56.4751 205.192 56.8955 205.139 57.3556C205.067 57.9509 204.994 58.5463 204.919 59.1416C204.819 59.9666 204.719 60.7916 204.619 61.6176C204.601 61.7168 204.605 61.8185 204.629 61.9162C204.654 62.0139 204.699 62.1054 204.761 62.1847C204.823 62.264 204.901 62.3294 204.99 62.3766C205.079 62.4238 205.177 62.4517 205.277 62.4586C205.471 62.4808 205.665 62.4266 205.819 62.3074C205.973 62.1882 206.075 62.0135 206.102 61.8206C206.158 61.4306 206.202 61.0386 206.256 60.6476C206.342 59.9596 206.43 59.2476 206.556 58.5476C206.637 58.0427 206.852 57.5688 207.179 57.1756C207.547 56.7915 207.944 56.4362 208.366 56.1126C208.554 55.9586 208.751 55.7986 208.953 55.6246L209.69 54.9946Z" fill="#444444"/>
<path d="M207.73 63.3057C208.408 64.2127 209.03 65.0447 209.65 65.8837C209.677 65.9245 209.695 65.9704 209.704 66.0185C209.712 66.0667 209.711 66.116 209.7 66.1637C209.545 67.0762 209.216 67.9504 208.731 68.7387C207.786 69.9277 206.913 71.1737 206.004 72.3907C205.91 72.5569 205.782 72.7012 205.627 72.814C205.473 72.9267 205.297 73.0054 205.11 73.0448C204.923 73.0841 204.73 73.0832 204.543 73.0422C204.357 73.0011 204.181 72.9208 204.028 72.8067C203.876 72.6919 203.75 72.5465 203.657 72.3799C203.564 72.2132 203.508 72.0291 203.491 71.8393C203.474 71.6495 203.497 71.4582 203.558 71.2778C203.619 71.0973 203.718 70.9317 203.847 70.7917C204.708 69.6217 205.584 68.4627 206.432 67.2837C206.623 67.0092 206.768 66.7052 206.861 66.3837C207.158 65.4037 207.421 64.4087 207.73 63.3057Z" fill="#444444"/>
<path d="M204.819 73.4153C204.463 73.4094 204.118 73.2903 203.834 73.0753C203.66 72.9546 203.513 72.7999 203.4 72.6207C203.288 72.4414 203.213 72.2413 203.18 72.0323C203.148 71.7783 203.167 71.5204 203.236 71.2737C203.305 71.027 203.422 70.7964 203.58 70.5953C203.889 70.176 204.199 69.757 204.511 69.3383C205.056 68.6043 205.621 67.8443 206.163 67.0913C206.332 66.847 206.461 66.5769 206.544 66.2913C206.756 65.5913 206.95 64.8853 207.156 64.1373L207.411 63.2173L207.592 62.5693L208.416 63.6693C208.936 64.3643 209.43 65.0223 209.916 65.6853C209.974 65.7679 210.013 65.8623 210.03 65.9617C210.047 66.0611 210.043 66.163 210.016 66.2603C209.947 66.4823 209.89 66.7063 209.831 66.9423C209.701 67.6628 209.414 68.3458 208.99 68.9423C208.36 69.7353 207.75 70.5693 207.16 71.3763C206.86 71.7763 206.569 72.1853 206.27 72.5863C206.111 72.8295 205.897 73.0314 205.644 73.1755C205.392 73.3196 205.109 73.4018 204.819 73.4153ZM207.869 64.0443L207.795 64.3133C207.587 65.0643 207.395 65.7753 207.179 66.4823C207.075 66.8395 206.914 67.1773 206.701 67.4823C206.156 68.2403 205.591 69.0013 205.043 69.7383C204.733 70.1557 204.423 70.574 204.114 70.9933C204.008 71.1242 203.929 71.2747 203.881 71.4361C203.834 71.5976 203.818 71.7669 203.836 71.9343C203.856 72.0565 203.901 72.1733 203.967 72.2778C204.033 72.3822 204.12 72.4722 204.222 72.5423C204.341 72.63 204.477 72.691 204.621 72.7212C204.766 72.7514 204.915 72.7501 205.059 72.7174C205.203 72.6846 205.338 72.6212 205.455 72.5314C205.572 72.4417 205.669 72.3277 205.738 72.1973C206.037 71.7973 206.332 71.3953 206.625 70.9913C207.219 70.1793 207.833 69.3393 208.471 68.5363C208.834 68.012 209.079 67.4148 209.188 66.7863C209.245 66.5563 209.305 66.3193 209.378 66.0863V66.0703C208.9 65.4223 208.408 64.7653 207.889 64.0703L207.869 64.0443Z" fill="#444444"/>
<path d="M215.565 48.8943C215.565 49.4035 215.414 49.9013 215.131 50.3244C214.848 50.7475 214.445 51.0768 213.974 51.2704C213.503 51.4639 212.986 51.513 212.487 51.4114C211.988 51.3098 211.53 51.062 211.173 50.6997C210.815 50.3373 210.573 49.8768 210.478 49.3766C210.383 48.8764 210.439 48.3592 210.638 47.8908C210.838 47.4225 211.173 47.0241 211.599 46.7464C212.026 46.4686 212.526 46.3242 213.035 46.3313C213.708 46.3436 214.349 46.6186 214.822 47.0975C215.295 47.5765 215.561 48.2213 215.565 48.8943Z" fill="#444444"/>
<path d="M213.001 51.803C212.231 51.7946 211.495 51.4828 210.953 50.9352C210.411 50.3876 210.106 49.6485 210.106 48.878C210.142 48.1326 210.464 47.4296 211.005 46.9154C211.545 46.4011 212.264 46.1153 213.01 46.1172C213.756 46.1191 214.473 46.4087 215.012 46.9257C215.55 47.4428 215.868 48.1474 215.9 48.893C215.9 49.6632 215.595 50.4022 215.052 50.9478C214.508 51.4933 213.77 51.8009 213 51.803H213.001ZM213.009 46.662C212.418 46.6638 211.852 46.8978 211.432 47.3135C211.012 47.7292 210.773 48.2933 210.765 48.884C210.768 49.4773 211.003 50.0458 211.421 50.4673C211.838 50.8888 212.405 51.1296 212.998 51.138C213.591 51.1343 214.159 50.896 214.578 50.475C214.996 50.054 215.231 49.4846 215.231 48.891C215.229 48.3051 214.998 47.7432 214.587 47.326C214.175 46.9088 213.617 46.6697 213.031 46.66L213.009 46.662Z" fill="#444444"/>
<defs>
<filter id="filter0_d_635_18" x="0.628899" y="0.630058" width="480.465" height="661.638" filterUnits="userSpaceOnUse" color-interpolation-filters="sRGB">
<feFlood flood-opacity="0" result="BackgroundImageFix"/>
<feColorMatrix in="SourceAlpha" type="matrix" values="0 0 0 0 0 0 0 0 0 0 0 0 0 0 0 0 0 0 127 0" result="hardAlpha"/>
<feOffset dy="8.00116"/>
<feGaussianBlur stdDeviation="12.6856"/>
<feComposite in2="hardAlpha" operator="out"/>
<feColorMatrix type="matrix" values="0 0 0 0 0 0 0 0 0 0 0 0 0 0 0 0 0 0 0.1 0"/>
<feBlend mode="normal" in2="BackgroundImageFix" result="effect1_dropShadow_635_18"/>
<feBlend mode="normal" in="SourceGraphic" in2="effect1_dropShadow_635_18" result="shape"/>
</filter>
</defs>
</svg>
