<svg width="56" height="55" viewBox="0 0 56 55" fill="none" xmlns="http://www.w3.org/2000/svg">
<path fill-rule="evenodd" clip-rule="evenodd" d="M31.2846 5.77149C29.3919 4.18734 26.6081 4.18733 24.7154 5.77149L23.0464 7.16843C22.2353 7.84728 21.2268 8.25754 20.1646 8.34079L17.9786 8.51211C15.4998 8.7064 13.5313 10.6397 13.3335 13.0743L13.1591 15.2212C13.0743 16.2645 12.6566 17.2549 11.9654 18.0515L10.543 19.6908C8.93009 21.5497 8.93009 24.2837 10.543 26.1427L11.9654 27.7819C12.6566 28.5785 13.0743 29.5689 13.1591 30.6122L13.3335 32.7591C13.5313 35.1937 15.4998 37.127 17.9786 37.3213L20.1646 37.4926C21.2268 37.5759 22.2353 37.9861 23.0464 38.665L24.7154 40.0619C26.6081 41.6461 29.3919 41.6461 31.2846 40.0619L32.9536 38.665C33.7647 37.9861 34.7732 37.5759 35.8354 37.4926L38.0214 37.3213C40.5002 37.127 42.4687 35.1937 42.6665 32.7591L42.8409 30.6122C42.9257 29.5689 43.3434 28.5785 44.0346 27.7819L45.4569 26.1427C47.0699 24.2838 47.0699 21.5497 45.4569 19.6908L44.0346 18.0515C43.3434 17.2549 42.9257 16.2645 42.8409 15.2212L42.6665 13.0743C42.4687 10.6397 40.5002 8.7064 38.0214 8.51211L35.8354 8.34079C34.7732 8.25754 33.7647 7.84728 32.9536 7.16844L31.2846 5.77149ZM16.3333 47.0317V40.5311C16.7763 40.6379 17.2329 40.7111 17.7002 40.7477L19.8862 40.9191C20.2142 40.9448 20.5257 41.0715 20.7762 41.2811L22.4452 42.6781C25.6461 45.3571 30.3539 45.3571 33.5548 42.6781L35.2238 41.2811C35.4743 41.0715 35.7858 40.9448 36.1138 40.9191L38.2998 40.7477C38.7671 40.7111 39.2237 40.6379 39.6667 40.5311V47.0317C39.6667 48.6529 37.9994 49.7615 36.4668 49.1594L28.8666 46.1736C28.3103 45.9551 27.6897 45.9551 27.1334 46.1736L19.5332 49.1594C18.0006 49.7615 16.3333 48.6529 16.3333 47.0317Z" fill="#ED5C18"/>
<path d="M26.8197 16.7628C27.3025 15.7457 28.6975 15.7457 29.1803 16.7628L30.0147 18.5207C30.2065 18.9246 30.5771 19.2046 31.0058 19.2693L32.8716 19.5512C33.9512 19.7143 34.3823 21.0937 33.6011 21.8854L32.251 23.2538C31.9407 23.5681 31.7992 24.0211 31.8724 24.4651L32.1911 26.3971C32.3755 27.5151 31.247 28.3676 30.2813 27.8398L28.6125 26.9276C28.229 26.718 27.771 26.718 27.3875 26.9276L25.7187 27.8398C24.753 28.3676 23.6245 27.5151 23.8089 26.3971L24.1276 24.4651C24.2008 24.0211 24.0593 23.5681 23.749 23.2538L22.3989 21.8855C21.6177 21.0937 22.0488 19.7143 23.1284 19.5512L24.9942 19.2693C25.4229 19.2046 25.7935 18.9246 25.9853 18.5207L26.8197 16.7628Z" fill="white"/>
</svg>
