<svg width="60" height="55" viewBox="0 0 60 55" fill="none" xmlns="http://www.w3.org/2000/svg">
<path fill-rule="evenodd" clip-rule="evenodd" d="M40.1443 11.7233L45.4476 16.5847L39.2604 27.1177L50.7509 21.4461L55.1703 25.4972C55.6585 25.9447 55.6585 26.6702 55.1703 27.1177L41.9121 39.271L17.1633 16.5847L30.4216 4.43131C30.9097 3.98383 31.7012 3.98383 32.1893 4.43131L36.6088 8.48244L34.841 13.3438L40.1443 11.7233Z" fill="#ED5C18"/>
<path fill-rule="evenodd" clip-rule="evenodd" d="M25.3999 37.0975L17.171 47.8733C15.5874 49.9471 12.4698 50.4514 10.2075 48.9998C9.9689 48.8466 9.74531 48.6747 9.53933 48.4859L7.1444 46.2905C5.19178 44.5006 5.19178 41.5986 7.1444 39.8087C7.35995 39.6111 7.59476 39.432 7.8459 39.2736L19.6516 31.8282L11.86 24.6859C10.8837 23.791 10.8837 22.34 11.86 21.445L15.3956 18.2041L40.1443 40.8904L36.6088 44.1314C35.6325 45.0263 34.0495 45.0263 33.0732 44.1314L25.3999 37.0975ZM11.86 44.1314C12.8363 45.0263 14.4192 45.0263 15.3956 44.1314C16.3719 43.2364 16.3719 41.7854 15.3956 40.8904C14.4192 39.9955 12.8363 39.9955 11.86 40.8904C10.8837 41.7854 10.8837 43.2364 11.86 44.1314Z" fill="#ED5C18"/>
</svg>
