<svg width="86" height="180" viewBox="0 0 86 180" fill="none" xmlns="http://www.w3.org/2000/svg">
<circle cx="43" cy="137" r="43" fill="#ED5C18"/>
<path d="M38.8299 116.069C35.378 116.069 32.5799 118.867 32.5799 122.319V124.403H30.4966C27.0447 124.403 24.2466 127.2 24.2466 130.653V151.486C24.2466 154.938 27.0447 157.736 30.4966 157.736H55.4966C58.993 157.744 61.7907 154.911 61.7466 151.486V128.569V122.319C61.7466 118.867 58.9482 116.069 55.4966 116.069H38.8299ZM38.8299 120.236H55.4966C56.647 120.236 57.5799 121.169 57.5799 122.319V128.569V151.486C57.5799 152.636 56.647 153.569 55.4966 153.569C54.3459 153.569 53.413 152.636 53.4132 151.486V136.903V130.653C53.4132 127.2 50.6149 124.403 47.1632 124.403H36.7466V122.319C36.7466 121.169 37.6793 120.236 38.8299 120.236ZM30.4966 128.569H47.1632C48.3137 128.569 49.2466 129.503 49.2466 130.653V136.903V151.486C49.2466 152.296 49.3172 152.855 49.598 153.565L30.4966 153.569C29.346 153.569 28.413 152.636 28.4132 151.486V130.653C28.4132 129.503 29.346 128.569 30.4966 128.569ZM32.5799 130.653C31.4293 130.653 30.4966 131.586 30.4966 132.736V136.903C30.4964 138.053 31.4293 138.986 32.5799 138.986H34.6632C35.8137 138.986 36.7466 138.053 36.7466 136.903V132.736C36.7466 131.586 35.8137 130.653 34.6632 130.653H32.5799ZM40.9132 134.819C39.7626 134.819 38.8297 135.753 38.8299 136.903C38.8299 138.053 39.7626 138.986 40.9132 138.986H45.0799C46.2303 138.986 47.1632 138.053 47.1632 136.903C47.1632 135.753 46.2303 134.819 45.0799 134.819H40.9132ZM32.5799 141.069C31.4293 141.069 30.4964 142.003 30.4966 143.153C30.4966 144.303 31.4293 145.236 32.5799 145.236H45.0799C46.2303 145.236 47.1632 144.303 47.1632 143.153C47.1632 142.003 46.2303 141.069 45.0799 141.069H32.5799ZM32.5799 147.319C31.4293 147.319 30.4964 148.253 30.4966 149.403C30.4966 150.553 31.4293 151.486 32.5799 151.486H45.0799C46.2303 151.486 47.1632 150.553 47.1632 149.403C47.1632 148.253 46.2303 147.319 45.0799 147.319H32.5799Z" fill="white"/>
<path d="M44 9.99731L48.7735 -0.00268555H37.2265L42 9.99731H44ZM44 89.0029V85.2944H42V89.0029H44ZM44 77.8772V70.4601H42V77.8772H44ZM44 63.043V55.6258H42V63.043H44ZM44 48.2087V40.7916H42V48.2087H44ZM44 33.3744V25.9573H42V33.3744H44ZM44 18.5402V11.123H42V18.5402H44Z" fill="#33475B"/>
</svg>
