<svg width="86" height="176" viewBox="0 0 86 176" fill="none" xmlns="http://www.w3.org/2000/svg">
<circle cx="43" cy="43" r="43" fill="#ED5C18"/>
<path d="M53.4431 22.069C52.6685 22.069 52.2135 22.4627 51.9075 22.771L48.3185 26.3398L46.5394 24.7752C45.5585 23.794 44.2654 23.3044 42.9798 23.3044C41.6942 23.3044 40.3387 23.8731 39.3577 24.8543L29.0292 35.1731C28.2167 35.9856 28.2515 37.319 29.0642 38.1315C29.8767 38.9461 31.2344 38.9106 32.0471 38.096L42.3446 27.7835C42.681 27.446 43.2058 27.2961 43.6144 27.7211L45.3458 29.2918L33.1152 41.521C31.0485 43.5898 29.1481 46.3773 27.3279 49.6585C25.9348 52.1689 24.6458 54.8585 23.5565 57.5356C23.1756 58.471 22.1644 61.1794 22.1644 61.6774C22.1644 62.1732 22.3279 62.6377 22.6462 63.0044C22.6777 63.0398 23.2919 63.7169 24.2506 63.7356L53.3381 63.719C54.4873 63.719 55.4189 62.7877 55.4189 61.6356C55.4189 60.4856 54.4873 59.5523 53.3381 59.5523L34.4912 59.5565C35.131 59.2315 35.781 58.8878 36.4019 58.5419C39.6781 56.7211 42.3552 54.8398 44.4187 52.7731L57.955 39.3064L63.1571 34.0335C63.4525 33.7335 63.8275 33.419 63.8285 32.4752C63.8335 28.3565 62.1527 25.8378 61.1275 24.7857C60.1023 23.7357 57.605 22.0731 53.4431 22.069ZM54.2067 26.3211C55.079 26.294 57.2275 26.7981 58.1589 27.6814C59.0904 28.5668 59.6264 30.8648 59.5967 31.7335L56.986 34.3419L51.3919 29.1773L54.2067 26.3211ZM48.4206 32.146L54.065 37.2586L41.4385 49.8523C39.6862 51.6065 37.2785 53.2856 34.3123 54.9356C32.3144 56.0461 30.0689 57.0898 27.9202 58.0065C28.8346 55.8544 29.8598 53.6752 30.9694 51.6752C32.6173 48.7065 34.3719 46.2314 36.1229 44.4773L48.4206 32.146Z" fill="white"/>
<path d="M42.4944 166.003L37.7209 176.003H49.2679L44.4944 166.003H42.4944ZM42.4944 86.9973V90.7059H44.4944V86.9973H42.4944ZM42.4944 98.123V105.54H44.4944V98.123H42.4944ZM42.4944 112.957L42.4944 120.374H44.4944L44.4944 112.957H42.4944ZM42.4944 127.792V135.209H44.4944V127.792H42.4944ZM42.4944 142.626V150.043H44.4944V142.626H42.4944ZM42.4944 157.46V164.877H44.4944V157.46H42.4944Z" fill="#33475B"/>
</svg>
