<svg width="60" height="60" viewBox="0 0 60 60" fill="none" xmlns="http://www.w3.org/2000/svg">
<path d="M27 6C25.3431 6 24 7.34315 24 9C24 10.6569 25.3431 12 27 12H33C34.6569 12 36 10.6569 36 9C36 7.34315 34.6569 6 33 6H27Z" fill="#ED5C18"/>
<path fill-rule="evenodd" clip-rule="evenodd" d="M12 15C12 11.6863 14.6863 9 18 9C18 13.9706 22.0294 18 27 18H33C37.9706 18 42 13.9706 42 9C45.3137 9 48 11.6863 48 15V48C48 51.3137 45.3137 54 42 54H18C14.6863 54 12 51.3137 12 48V15ZM21 27C19.3431 27 18 28.3431 18 30C18 31.6569 19.3431 33 21 33H21.03C22.6869 33 24.03 31.6569 24.03 30C24.03 28.3431 22.6869 27 21.03 27H21ZM30 27C28.3431 27 27 28.3431 27 30C27 31.6569 28.3431 33 30 33H39C40.6569 33 42 31.6569 42 30C42 28.3431 40.6569 27 39 27H30ZM21 39C19.3431 39 18 40.3432 18 42C18 43.6569 19.3431 45 21 45H21.03C22.6869 45 24.03 43.6569 24.03 42C24.03 40.3432 22.6869 39 21.03 39H21ZM30 39C28.3431 39 27 40.3432 27 42C27 43.6569 28.3431 45 30 45H39C40.6569 45 42 43.6569 42 42C42 40.3432 40.6569 39 39 39H30Z" fill="#ED5C18"/>
</svg>
