<svg width="55" height="55" viewBox="0 0 55 55" fill="none" xmlns="http://www.w3.org/2000/svg">
<path d="M27.5324 4.58081C14.876 4.58081 4.61578 14.8406 4.61578 27.4975C4.61578 40.1544 14.876 50.4141 27.5324 50.4141C40.1889 50.4141 50.4491 40.1544 50.4491 27.4975C50.4491 14.8406 40.1889 4.58081 27.5324 4.58081ZM27.5324 13.7475C28.7981 13.7475 29.8241 14.7741 29.8241 16.0391V26.4938L36.0547 32.7248C36.9496 33.6208 36.9496 35.1241 36.0547 36.0202C35.1596 36.9139 33.6553 36.9139 32.7602 36.0202L25.8852 29.1452C25.4555 28.7143 25.2408 28.1048 25.2408 27.4975V16.0391C25.2408 14.7741 26.2668 13.7475 27.5324 13.7475Z" fill="#ED5C18"/>
</svg>
