<svg width="60" height="55" viewBox="0 0 60 55" fill="none" xmlns="http://www.w3.org/2000/svg">
<path fill-rule="evenodd" clip-rule="evenodd" d="M35.0607 8.78718C33.9 4.40428 27.1 4.40427 25.9393 8.78717C25.1894 11.6185 21.6508 12.9621 18.9365 11.4461C14.7348 9.09929 9.9265 13.5069 12.4866 17.3585C14.1405 19.8465 12.6747 23.0903 9.58601 23.7777C4.80466 24.8417 4.80466 31.075 9.58601 32.139C12.6747 32.8264 14.1405 36.0702 12.4866 38.5582C9.92651 42.4098 14.7348 46.8174 18.9365 44.4706C21.6508 42.9546 25.1894 44.2982 25.9393 47.1295C27.1 51.5124 33.9 51.5124 35.0607 47.1295C35.8106 44.2982 39.3493 42.9546 42.0635 44.4706C46.2652 46.8174 51.0735 42.4098 48.5134 38.5582C46.8595 36.0702 48.3253 32.8264 51.414 32.139C56.1953 31.075 56.1953 24.8417 51.414 23.7777C48.3253 23.0903 46.8595 19.8465 48.5134 17.3585C51.0735 13.5069 46.2652 9.0993 42.0635 11.4461C39.3493 12.9621 35.8106 11.6185 35.0607 8.78718ZM30.5 36.3802C35.5741 36.3802 39.6875 32.6096 39.6875 27.9583C39.6875 23.3071 35.5741 19.5365 30.5 19.5365C25.4259 19.5365 21.3125 23.3071 21.3125 27.9583C21.3125 32.6096 25.4259 36.3802 30.5 36.3802Z" fill="#ED5C18"/>
</svg>
