<svg width="85" height="80" viewBox="0 0 85 80" fill="none" xmlns="http://www.w3.org/2000/svg">
<path d="M81.7095 38.3706C76.2289 47.6113 63.0941 74.5612 48.393 77.2852C-6.29486 87.4183 -3.79785 55.1312 5.20736 38.0352C19.4338 8.09672 39.8781 0.598606 50.6682 0.980134C86.8784 5.92448 86.45 27.9673 81.7095 38.3706Z" fill="#FEF9F4"/>
<path d="M32.7983 56V52.8182L42.642 42.6193C43.6932 41.5114 44.5597 40.5407 45.2415 39.7074C45.9328 38.8646 46.4489 38.0644 46.7898 37.3068C47.1307 36.5492 47.3011 35.7443 47.3011 34.892C47.3011 33.9261 47.0739 33.0928 46.6193 32.392C46.1648 31.6818 45.5445 31.1373 44.7585 30.7585C43.9725 30.3703 43.0871 30.1761 42.1023 30.1761C41.0606 30.1761 40.1515 30.3892 39.375 30.8153C38.5985 31.2415 38.0019 31.8428 37.5852 32.6193C37.1686 33.3958 36.9602 34.3049 36.9602 35.3466H32.7699C32.7699 33.5758 33.1771 32.0275 33.9915 30.7017C34.8059 29.3759 35.9233 28.3485 37.3438 27.6193C38.7642 26.8807 40.3788 26.5114 42.1875 26.5114C44.0152 26.5114 45.625 26.8759 47.017 27.6051C48.4186 28.3248 49.5123 29.3097 50.2983 30.5597C51.0843 31.8002 51.4773 33.2017 51.4773 34.7642C51.4773 35.8438 51.2737 36.8996 50.8665 37.9318C50.4688 38.964 49.7727 40.1146 48.7784 41.3835C47.7841 42.643 46.4015 44.1723 44.6307 45.9716L38.8494 52.0227V52.2358H51.946V56H32.7983Z" fill="#33475B"/>
</svg>
