<svg width="109" height="105" viewBox="0 0 109 105" fill="none" xmlns="http://www.w3.org/2000/svg">
<path d="M17.3689 38.3536C26.028 31.9938 48.6599 12.3312 63.2549 15.5763C117.548 27.6477 102.617 56.384 87.6413 68.5939C62.8354 90.5796 41.0872 89.4811 31.3066 84.9084C-0.0825912 66.1909 8.93596 46.0729 17.3689 38.3536Z" fill="#FEF9F4"/>
<path d="M53.9261 68.3977C51.9754 68.3977 50.233 68.0616 48.6989 67.3892C47.1742 66.7169 45.9669 65.7841 45.0767 64.5909C44.196 63.3883 43.7225 61.9962 43.6562 60.4148H48.1165C48.1733 61.2765 48.4621 62.0246 48.983 62.6591C49.5133 63.2841 50.2045 63.767 51.0568 64.108C51.9091 64.4489 52.8561 64.6193 53.8977 64.6193C55.0436 64.6193 56.0568 64.4205 56.9375 64.0227C57.8277 63.625 58.5237 63.071 59.0256 62.3608C59.5275 61.6411 59.7784 60.8125 59.7784 59.875C59.7784 58.8996 59.5275 58.0426 59.0256 57.304C58.5331 56.5559 57.8087 55.9687 56.8523 55.5426C55.9053 55.1165 54.7595 54.9034 53.4148 54.9034H50.9574V51.3239H53.4148C54.4943 51.3239 55.4413 51.1297 56.2557 50.7415C57.0795 50.3532 57.7235 49.8134 58.1875 49.1222C58.6515 48.4214 58.8835 47.6023 58.8835 46.6648C58.8835 45.7652 58.6799 44.9839 58.2727 44.321C57.875 43.6487 57.3068 43.1231 56.5682 42.7443C55.839 42.3655 54.9773 42.1761 53.983 42.1761C53.036 42.1761 52.1506 42.3513 51.3267 42.7017C50.5123 43.0426 49.8494 43.535 49.3381 44.179C48.8267 44.8134 48.5521 45.5758 48.5142 46.4659H44.267C44.3144 44.8939 44.7784 43.5114 45.6591 42.3182C46.5492 41.125 47.7235 40.1922 49.1818 39.5199C50.6402 38.8475 52.2595 38.5114 54.0398 38.5114C55.9053 38.5114 57.5152 38.8759 58.8693 39.6051C60.233 40.3248 61.2841 41.286 62.0227 42.4886C62.7708 43.6913 63.1402 45.0076 63.1307 46.4375C63.1402 48.0663 62.6856 49.4489 61.767 50.5852C60.858 51.7216 59.6458 52.4839 58.1307 52.8722V53.0994C60.0625 53.393 61.5587 54.16 62.6193 55.4006C63.6894 56.6411 64.2197 58.1799 64.2102 60.017C64.2197 61.6174 63.7746 63.0521 62.875 64.321C61.9848 65.59 60.768 66.589 59.2244 67.3182C57.6809 68.0379 55.9148 68.3977 53.9261 68.3977Z" fill="#33475B"/>
</svg>
