<svg width="98" height="102" viewBox="0 0 98 102" fill="none" xmlns="http://www.w3.org/2000/svg">
<path d="M60.364 89.2588C50.0311 86.3162 20.6226 80.4886 14.2396 66.9683C-9.50534 16.673 22.3509 10.8533 41.1782 15.2008C73.7549 21.3217 86.2189 39.1778 88.6018 49.7084C93.0555 85.9822 71.6323 91.1894 60.364 89.2588Z" fill="#FEF9F4"/>
<path d="M48.4006 67.3982C46.6203 67.3982 45.0199 67.0573 43.5994 66.3755C42.1884 65.6842 41.0616 64.7372 40.2188 63.5346C39.3759 62.3319 38.9261 60.9588 38.8693 59.4153H43.1307C43.2348 60.6653 43.7888 61.6927 44.7926 62.4976C45.7964 63.3026 46.9991 63.705 48.4006 63.705C49.518 63.705 50.5076 63.4494 51.3693 62.938C52.2405 62.4172 52.9223 61.7022 53.4148 60.7931C53.9167 59.884 54.1676 58.8471 54.1676 57.6823C54.1676 56.4986 53.9119 55.4427 53.4006 54.5147C52.8892 53.5867 52.1837 52.8575 51.2841 52.3272C50.3939 51.7969 49.3712 51.527 48.2159 51.5175C47.3352 51.5175 46.4498 51.669 45.5597 51.9721C44.6695 52.2751 43.9498 52.6728 43.4006 53.1653L39.3807 52.5687L41.0142 37.9096H57.0085V41.6738H44.6648L43.7415 49.813H43.9119C44.4801 49.2637 45.233 48.8045 46.1705 48.4351C47.1174 48.0658 48.1307 47.8812 49.2102 47.8812C50.9811 47.8812 52.5578 48.3026 53.9403 49.1454C55.3324 49.9882 56.4261 51.1387 57.2216 52.5971C58.0265 54.0459 58.4242 55.7126 58.4148 57.5971C58.4242 59.4815 57.9981 61.1624 57.1364 62.6397C56.2841 64.117 55.1004 65.2817 53.5852 66.134C52.0795 66.9768 50.3513 67.3982 48.4006 67.3982Z" fill="#33475B"/>
</svg>
