<svg width="55" height="55" viewBox="0 0 55 55" fill="none" xmlns="http://www.w3.org/2000/svg">
<path fill-rule="evenodd" clip-rule="evenodd" d="M12.7206 21.5606C14.7056 19.3264 18.3334 14.7878 18.3334 11.4584C18.3334 6.87504 15.2553 4.58337 11.4584 4.58337C7.6614 4.58337 4.58335 6.87504 4.58335 11.9377C4.58335 15.5636 8.10999 19.6275 10.1116 21.642C10.8493 22.3845 12.0254 22.343 12.7206 21.5606ZM11.4584 13.75C12.724 13.75 13.75 12.724 13.75 11.4584C13.75 10.1927 12.724 9.16671 11.4584 9.16671C10.1927 9.16671 9.16669 10.1927 9.16669 11.4584C9.16669 12.724 10.1927 13.75 11.4584 13.75ZM11.4584 50.4167C16.0417 50.4167 20.625 41.7293 20.625 36.6667C20.625 31.6041 16.521 27.5 11.4584 27.5C6.39574 27.5 2.29169 31.6041 2.29169 36.6667C2.29169 41.7293 6.87502 50.4167 11.4584 50.4167ZM11.4584 40.1042C13.3568 40.1042 14.8959 38.5652 14.8959 36.6667C14.8959 34.7682 13.3568 33.2292 11.4584 33.2292C9.55988 33.2292 8.02085 34.7682 8.02085 36.6667C8.02085 38.5652 9.55988 40.1042 11.4584 40.1042ZM50.4167 11.4584C50.4167 14.7878 46.7889 19.3264 44.8039 21.5606C44.1088 22.343 42.9326 22.3845 42.1949 21.642C40.1933 19.6275 36.6667 15.5636 36.6667 11.9377C36.6667 6.87504 39.7447 4.58337 43.5417 4.58337C47.3386 4.58337 50.4167 6.87504 50.4167 11.4584ZM45.8334 11.4584C45.8334 12.724 44.8073 13.75 43.5417 13.75C42.276 13.75 41.25 12.724 41.25 11.4584C41.25 10.1927 42.276 9.16671 43.5417 9.16671C44.8073 9.16671 45.8334 10.1927 45.8334 11.4584ZM41.3195 25.1389C41.9907 25.8101 41.9907 26.8983 41.3195 27.5695L40.9649 27.9242C40.2937 28.5954 39.2054 28.5954 38.5342 27.9242C37.863 27.253 37.863 26.1647 38.5342 25.4935L38.8888 25.1389C39.5601 24.4677 40.6483 24.4677 41.3195 25.1389ZM36.7089 29.7495C37.3801 30.4207 37.3801 31.5089 36.7089 32.1802L35.9996 32.8895C35.3284 33.5607 34.2401 33.5607 33.5689 32.8895C32.8977 32.2183 32.8977 31.13 33.5689 30.4588L34.2782 29.7495C34.9494 29.0783 36.0377 29.0783 36.7089 29.7495ZM31.7436 34.7148C32.4148 35.386 32.4148 36.4742 31.7436 37.1454L31.0343 37.8548C30.3631 38.526 29.2748 38.526 28.6036 37.8548C27.9324 37.1836 27.9324 36.0953 28.6036 35.4241L29.313 34.7148C29.9842 34.0435 31.0724 34.0435 31.7436 34.7148ZM26.7784 39.68C27.4496 40.3512 27.4496 41.4395 26.7784 42.1107L26.4237 42.4654C25.7525 43.1366 24.6642 43.1366 23.993 42.4654C23.3218 41.7942 23.3218 40.7059 23.993 40.0347L24.3477 39.68C25.0189 39.0088 26.1071 39.0088 26.7784 39.68ZM20.625 20.0521C19.6758 20.0521 18.9063 20.8216 18.9063 21.7709C18.9063 22.7201 19.6758 23.4896 20.625 23.4896H21.1161C22.0653 23.4896 22.8348 22.7201 22.8348 21.7709C22.8348 20.8216 22.0653 20.0521 21.1161 20.0521H20.625ZM27.0089 20.0521C26.0597 20.0521 25.2902 20.8216 25.2902 21.7709C25.2902 22.7201 26.0597 23.4896 27.0089 23.4896H27.9911C28.9403 23.4896 29.7098 22.7201 29.7098 21.7709C29.7098 20.8216 28.9403 20.0521 27.9911 20.0521H27.0089ZM33.8839 20.0521C32.9347 20.0521 32.1652 20.8216 32.1652 21.7709C32.1652 22.7201 32.9347 23.4896 33.8839 23.4896H34.375C35.3243 23.4896 36.0938 22.7201 36.0938 21.7709C36.0938 20.8216 35.3243 20.0521 34.375 20.0521H33.8839Z" fill="#ED5C18"/>
</svg>
