<svg width="307" height="162" viewBox="0 0 307 162" fill="none" xmlns="http://www.w3.org/2000/svg">
<path d="M82.4644 41.2413L82.5054 39.9153L155.936 1.57729C156.604 1.21497 157.672 1.24859 158.319 1.64825L276.941 73.9727C276.941 73.9727 276.911 75.041 276.903 75.2913C276.896 75.5415 276.724 75.7843 276.388 75.9673L202.917 115.631L82.4644 41.2413Z" fill="#00DFBF"/>
<path d="M276.903 75.2915C276.911 75.0413 276.941 73.973 276.941 73.973L276.104 73.4688L202.958 114.302L202.917 115.628L276.388 75.9639C276.724 75.7846 276.9 75.5418 276.903 75.2915Z" fill="#374E98"/>
<path d="M82.502 39.9156L155.977 0.251602C156.645 -0.110711 157.714 -0.0770945 158.36 0.322571L276.47 73.2634C277.117 73.663 277.098 74.2793 276.429 74.6417L202.958 114.306L82.502 39.9156Z" fill="#5A74C7"/>
<path d="M202.917 115.628L202.958 114.302L82.5017 39.9155L82.4644 41.2415L202.917 115.628Z" fill="#374E98"/>
<path d="M84.2387 42.1792L1.70594 84.6819L0.611526 86.2918L0.574174 87.6178C0.555498 88.2789 0.917812 88.8878 1.57147 89.2912L117.482 160.872C117.956 161.164 118.573 161.339 119.211 161.358C119.854 161.377 120.478 161.242 120.967 160.977L202.42 116.513L202.461 115.191L84.2387 42.1792Z" fill="#00DFBF"/>
<path d="M84.2387 42.1792L1.70594 84.6819L0.611526 86.2918L0.574174 87.6178C0.555498 88.2789 0.917812 88.8878 1.57147 89.2912L117.482 160.872C117.956 161.164 118.573 161.339 119.211 161.358C119.854 161.377 120.478 161.242 120.967 160.977L202.42 116.513L202.461 115.191L84.2387 42.1792Z" fill="#374E98"/>
<path d="M119.252 160.036C118.61 160.017 117.997 159.845 117.523 159.55L1.60858 87.9688C0.954921 87.5654 0.592608 86.9566 0.611284 86.2954C0.62996 85.6343 1.02962 85.0479 1.70569 84.6856L82.0384 40.8232L202.457 115.191L121.008 159.655C120.515 159.92 119.891 160.054 119.252 160.036Z" fill="#5A74C7"/>
<path d="M79.8164 39.6348L4.40665 78.5442L3.89119 79.2166L3.73805 84.3711C3.73058 84.6214 3.88746 84.8754 4.21242 85.0734L120.123 156.655C120.769 157.054 121.837 157.088 122.506 156.726L197.972 115.922L198.125 110.768L79.8164 39.6348Z" fill="#B6BCCF"/>
<path d="M198.072 112.666L197.464 112.994L189.515 117.275L188.036 118.074L122.663 151.575C121.99 151.934 120.922 151.904 120.28 151.504L4.36537 79.9191C3.72292 79.5195 3.73786 78.9031 4.40646 78.5408L5.05638 78.1897L79.8162 39.6313L197.49 112.299L197.632 112.393L198.072 112.666Z" fill="#F5F5F5"/>
<path d="M121.46 151.826L121.307 156.981C120.877 156.969 120.444 156.861 120.127 156.659L4.21234 85.0745C3.89485 84.8766 3.73423 84.6263 3.7417 84.3723L3.89485 79.2178C3.88738 79.4643 4.04425 79.7183 4.36548 79.92L120.28 151.505C120.597 151.707 121.03 151.811 121.46 151.826Z" fill="#CACEDB"/>
<path d="M196.365 112.546L187.569 117.278L186.19 118.021L124.747 149.998C124.074 150.357 123.006 150.327 122.364 149.927L13.3296 82.5932C12.7992 82.2794 12.3061 81.9731 11.8467 81.678C9.45243 80.1205 8.01812 78.7459 7.12167 77.3041C7.08432 77.2406 7.04697 77.1846 7.00961 77.1248C6.93491 77.0053 6.89009 76.8858 6.87141 76.7625C6.77803 76.2321 7.14408 75.7353 7.74545 75.5747C8.9183 75.261 10.6925 74.697 12.3248 73.8267C12.3472 73.8155 12.3621 73.8043 12.3846 73.7968L79.8047 39.9111L196.365 112.546Z" fill="#ECECEC"/>
<path d="M157.023 88.7007L85.0417 125.235" stroke="#C0C0C0" stroke-width="0.708473" stroke-miterlimit="10" stroke-linecap="round"/>
<path d="M150.938 84.9434L78.9568 121.477" stroke="#C0C0C0" stroke-width="0.708473" stroke-miterlimit="10" stroke-linecap="round"/>
<path d="M144.853 81.1851L72.8726 117.719" stroke="#C0C0C0" stroke-width="0.708473" stroke-miterlimit="10" stroke-linecap="round"/>
<path d="M138.769 77.4243L66.7878 113.962" stroke="#C0C0C0" stroke-width="0.708473" stroke-miterlimit="10" stroke-linecap="round"/>
<path d="M132.684 73.667L60.7031 110.205" stroke="#C0C0C0" stroke-width="0.708473" stroke-miterlimit="10" stroke-linecap="round"/>
<path d="M126.599 69.9087L54.6184 106.446" stroke="#C0C0C0" stroke-width="0.708473" stroke-miterlimit="10" stroke-linecap="round"/>
<path d="M120.515 66.1514L48.5337 102.689" stroke="#C0C0C0" stroke-width="0.708473" stroke-miterlimit="10" stroke-linecap="round"/>
<path d="M114.43 62.394L42.4495 98.9317" stroke="#C0C0C0" stroke-width="0.708473" stroke-miterlimit="10" stroke-linecap="round"/>
<path d="M108.346 58.6362L36.3647 95.1739" stroke="#C0C0C0" stroke-width="0.708473" stroke-miterlimit="10" stroke-linecap="round"/>
<path d="M102.261 54.8789L30.2803 91.4165" stroke="#C0C0C0" stroke-width="0.708473" stroke-miterlimit="10" stroke-linecap="round"/>
<path d="M96.1762 51.1216L24.1953 87.6592" stroke="#C0C0C0" stroke-width="0.708473" stroke-miterlimit="10" stroke-linecap="round"/>
<path d="M90.0914 47.3633L18.1106 83.9009" stroke="#C0C0C0" stroke-width="0.708473" stroke-miterlimit="10" stroke-linecap="round"/>
<path d="M84.0072 43.606L12.0264 80.1436" stroke="#C0C0C0" stroke-width="0.708473" stroke-miterlimit="10" stroke-linecap="round"/>
<path d="M193.575 111.706L121.594 148.244" stroke="#C0C0C0" stroke-width="0.708473" stroke-miterlimit="10" stroke-linecap="round"/>
<path d="M187.49 107.948L115.51 144.486" stroke="#C0C0C0" stroke-width="0.708473" stroke-miterlimit="10" stroke-linecap="round"/>
<path d="M181.406 104.19L109.425 140.728" stroke="#C0C0C0" stroke-width="0.708473" stroke-miterlimit="10" stroke-linecap="round"/>
<path d="M175.321 100.434L103.34 136.971" stroke="#C0C0C0" stroke-width="0.708473" stroke-miterlimit="10" stroke-linecap="round"/>
<path d="M169.236 96.6753L97.2556 133.213" stroke="#C0C0C0" stroke-width="0.708473" stroke-miterlimit="10" stroke-linecap="round"/>
<path d="M163.152 92.918L91.1709 129.456" stroke="#C0C0C0" stroke-width="0.708473" stroke-miterlimit="10" stroke-linecap="round"/>
<path d="M71.0237 49.1079L184.895 119.415" stroke="#C0C0C0" stroke-width="0.520732" stroke-miterlimit="10"/>
<path d="M18.3274 76.6885L132.195 146.996" stroke="#C0C0C0" stroke-width="0.520732" stroke-miterlimit="10"/>
<path d="M37.5598 67.7578L151.431 138.062" stroke="#C0C0C0" stroke-width="0.520732" stroke-miterlimit="10"/>
<path d="M199.499 112.812L273.732 74.795L254.679 72.1953L196.869 95.5403L199.499 112.812Z" fill="#B6BCCF"/>
<path d="M87.0586 42.2655C87.0586 42.2655 100.845 24.5719 156.473 5.72412" stroke="#AA948C" stroke-width="0.708473" stroke-miterlimit="10" stroke-linecap="round"/>
<path d="M152.918 2.18604C152.918 2.18604 88.3189 23.7914 79.7429 39.8042L198.173 113.756C198.173 113.756 195.745 99.9733 272.406 75.7357L152.918 2.18604Z" fill="#FBFBFB"/>
<path d="M91.8472 46.4154C91.8472 46.4154 105.634 28.7218 161.262 9.87402" stroke="#C0C0C0" stroke-width="0.708473" stroke-miterlimit="10" stroke-linecap="round"/>
<path d="M87.0586 42.2655C87.0586 42.2655 100.845 24.5719 156.473 5.72412" stroke="#C0C0C0" stroke-width="0.708473" stroke-miterlimit="10" stroke-linecap="round"/>
<path d="M97.1436 50.3143C97.1436 50.3143 110.93 32.6207 166.558 13.7729" stroke="#C0C0C0" stroke-width="0.708473" stroke-miterlimit="10" stroke-linecap="round"/>
<path d="M102.922 53.9935C102.922 53.9935 116.708 36.2999 172.336 17.4521" stroke="#C0C0C0" stroke-width="0.708473" stroke-miterlimit="10" stroke-linecap="round"/>
<path d="M109.137 57.8299C109.137 57.8299 122.924 40.1363 178.552 21.2886" stroke="#C0C0C0" stroke-width="0.708473" stroke-miterlimit="10" stroke-linecap="round"/>
<path d="M115.458 61.1131C115.458 61.1131 129.244 43.4195 184.872 24.5718" stroke="#C0C0C0" stroke-width="0.708473" stroke-miterlimit="10" stroke-linecap="round"/>
<path d="M121.4 65.2699C121.4 65.2699 135.186 47.5763 190.815 28.7285" stroke="#C0C0C0" stroke-width="0.708473" stroke-miterlimit="10" stroke-linecap="round"/>
<path d="M128.43 68.4491C128.43 68.4491 142.216 50.7555 197.844 31.9077" stroke="#C0C0C0" stroke-width="0.708473" stroke-miterlimit="10" stroke-linecap="round"/>
<path d="M133.577 72.6512C133.577 72.6512 147.363 54.9576 202.991 36.1099" stroke="#C0C0C0" stroke-width="0.708473" stroke-miterlimit="10" stroke-linecap="round"/>
<path d="M139.99 76.2181C139.99 76.2181 153.777 58.5245 209.405 39.6768" stroke="#C0C0C0" stroke-width="0.708473" stroke-miterlimit="10" stroke-linecap="round"/>
<path d="M146.16 79.8295C146.16 79.8295 159.947 62.1359 215.575 43.2881" stroke="#C0C0C0" stroke-width="0.708473" stroke-miterlimit="10" stroke-linecap="round"/>
<path d="M152.096 83.8866C152.096 83.8866 165.883 66.193 221.511 47.3452" stroke="#C0C0C0" stroke-width="0.708473" stroke-miterlimit="10" stroke-linecap="round"/>
<path d="M158.046 88.013C158.046 88.013 171.833 70.3194 227.461 51.4717" stroke="#C0C0C0" stroke-width="0.708473" stroke-miterlimit="10" stroke-linecap="round"/>
<path d="M164.53 91.7826C164.53 91.7826 178.317 74.089 233.945 55.2412" stroke="#C0C0C0" stroke-width="0.708473" stroke-miterlimit="10" stroke-linecap="round"/>
<path d="M171.582 95.4691C171.582 95.4691 185.369 77.7755 240.997 58.9277" stroke="#C0C0C0" stroke-width="0.708473" stroke-miterlimit="10" stroke-linecap="round"/>
<path d="M177.443 99.3241C177.443 99.3241 191.229 81.6305 246.857 62.7827" stroke="#C0C0C0" stroke-width="0.708473" stroke-miterlimit="10" stroke-linecap="round"/>
<path d="M183.423 102.488C183.423 102.488 197.209 84.7941 252.837 65.9463" stroke="#C0C0C0" stroke-width="0.708473" stroke-miterlimit="10" stroke-linecap="round"/>
<path d="M189.769 105.737C189.769 105.737 203.556 88.0436 259.184 69.1958" stroke="#C0C0C0" stroke-width="0.708473" stroke-miterlimit="10" stroke-linecap="round"/>
<path d="M195.525 110.058C195.525 110.058 209.311 92.3649 264.939 73.5171" stroke="#C0C0C0" stroke-width="0.708473" stroke-miterlimit="10" stroke-linecap="round"/>
<path d="M90.0469 34.4844L203.918 104.792" stroke="#C0C0C0" stroke-width="0.520732" stroke-miterlimit="10" stroke-linecap="round"/>
<path d="M106.011 21.46L219.879 91.7674" stroke="#C0C0C0" stroke-width="0.520732" stroke-miterlimit="10" stroke-linecap="round"/>
<path d="M140.576 7.97266L254.444 78.2801" stroke="#C0C0C0" stroke-width="0.520732" stroke-miterlimit="10" stroke-linecap="round"/>
<path d="M23.2356 83.2547C24.1283 83.7552 25.0247 84.2594 25.9174 84.7599C26.1266 84.8795 26.3171 84.5545 26.1042 84.4387C25.2115 83.9382 24.315 83.434 23.4223 82.9334C23.2131 82.8139 23.0264 83.1351 23.2356 83.2547Z" fill="#C8CACE"/>
<path d="M29.9026 87.5993C30.2238 87.5844 30.3957 87.6964 30.4143 87.9355C30.433 88.055 30.4442 88.1745 30.4592 88.2941C30.4816 88.4472 30.504 88.5966 30.5675 88.7385C30.6646 88.9589 30.8215 89.1121 31.0493 89.1905C31.7216 89.4146 32.2184 88.817 32.5546 88.3314C32.6928 88.1334 32.3678 87.9467 32.2334 88.1446C32.0802 88.365 31.9159 88.6228 31.6768 88.7572C31.1651 89.0486 30.8775 88.5966 30.8177 88.1559C30.7841 87.8832 30.7617 87.5993 30.5861 87.3752C30.2948 86.9979 29.7084 87.0316 29.544 87.4947C29.4619 87.7263 29.8242 87.8234 29.9026 87.5993Z" fill="#C8CACE"/>
<path d="M34.5602 91.573C34.62 90.7438 35.7144 91.4909 35.9535 91.6067C36.1514 91.7038 36.3569 91.7785 36.5698 91.827C37.0516 91.9391 37.5185 91.9055 37.9929 91.7822C37.9219 91.6926 37.8509 91.5992 37.7837 91.5095C37.3728 92.1109 36.708 92.3873 35.9945 92.2454C35.7592 92.2006 35.6584 92.5591 35.8937 92.604C36.7789 92.7758 37.5969 92.4396 38.1049 91.6963C38.202 91.5581 38.0414 91.3825 37.8958 91.4236C37.1973 91.6029 36.5922 91.5095 35.9572 91.1846C35.6845 91.0426 35.4119 90.8521 35.0944 90.8297C34.6088 90.7999 34.2241 91.0912 34.1867 91.573C34.168 91.8158 34.5416 91.8121 34.5602 91.573Z" fill="#C8CACE"/>
<path d="M40.4694 95.1101C40.9326 95.6405 41.5676 96.2717 42.3445 95.9878C42.86 95.7973 43.155 95.1997 43.8722 95.7226C44.2196 95.9766 44.3503 96.2157 44.7873 96.3203C45.0226 96.3763 45.1198 96.0177 44.8882 95.9617C44.2308 95.8048 43.8573 94.8262 43.0915 94.9719C42.8226 95.0242 42.8039 95.1512 42.6022 95.3118C41.8029 95.943 41.2874 95.4761 40.7384 94.8449C40.574 94.6618 40.3126 94.927 40.4694 95.1101Z" fill="#C8CACE"/>
<path d="M47.3462 98.4837C47.4134 98.4388 47.4769 98.394 47.5441 98.3492C47.6861 98.2521 47.6487 97.9906 47.4508 98.0018C46.8643 98.028 46.629 98.7115 47.0399 99.1261C47.264 99.3502 47.5964 99.4212 47.9027 99.4025C48.1829 99.3876 48.4555 99.2979 48.7319 99.2568C48.8925 99.2307 49.0345 99.212 49.1988 99.2456C49.3258 99.2419 49.4341 99.2905 49.5163 99.395C49.8226 99.5332 49.7778 99.7349 49.3818 99.9964C49.1428 99.9703 49.1465 100.344 49.3818 100.37C50.0504 100.441 50.3194 99.664 49.9122 99.2008C49.6993 98.958 49.3744 98.8534 49.0569 98.8497C48.8664 98.846 48.6759 98.8871 48.4891 98.9207C48.2463 98.9618 48.0036 99.0477 47.757 99.0178C47.645 99.0327 47.5479 99.0028 47.4582 98.9319C47.193 98.8572 47.193 98.6704 47.4582 98.3716C47.4283 98.2558 47.3947 98.14 47.3648 98.0242C47.2976 98.069 47.2341 98.1139 47.1669 98.1587C46.9614 98.2969 47.1482 98.6181 47.3462 98.4837Z" fill="#C8CACE"/>
<path d="M54.6257 102.171C53.8526 102.66 53.367 103.709 54.0393 104.498C54.5884 105.14 55.6417 104.968 55.9069 104.15C55.9293 104.079 55.892 103.971 55.821 103.941C55.2084 103.665 54.5958 103.582 53.9273 103.683C53.6919 103.721 53.7928 104.079 54.0281 104.042C54.5846 103.956 55.1188 104.031 55.6305 104.262C55.6006 104.191 55.5745 104.12 55.5446 104.053C55.3167 104.755 54.4166 104.595 54.17 104.005C53.916 103.399 54.3045 102.813 54.8088 102.496C55.0142 102.365 54.8274 102.04 54.6257 102.171Z" fill="#C8CACE"/>
<path d="M59.6347 106.421C61.0392 105.241 62.4585 106.97 63.1832 108.02C63.3176 108.218 63.6426 108.031 63.5044 107.833C62.6191 106.548 60.9794 104.8 59.3695 106.156C59.1865 106.313 59.4517 106.574 59.6347 106.421Z" fill="#C8CACE"/>
<path d="M66.5672 109.461C66.302 109.432 66.1563 109.514 66.0517 109.76C65.9994 109.88 66.0443 109.984 66.1638 110.033C67.5944 110.619 69.0586 111.097 70.5601 111.475C70.5601 111.355 70.5601 111.236 70.5601 111.116C69.6151 111.258 68.5468 111.277 68.1733 110.216C68.0501 109.857 68.0388 109.57 67.7774 109.271C67.1947 108.602 66.2646 108.595 65.4466 108.617C65.2076 108.625 65.2076 108.998 65.4466 108.991C65.8762 108.98 66.3655 108.946 66.7764 109.08C67.5085 109.316 67.5832 109.704 67.811 110.317C67.9343 110.645 68.009 110.881 68.2854 111.124C68.9465 111.699 69.8504 111.602 70.6535 111.478C70.8402 111.449 70.8216 111.161 70.6535 111.12C69.1519 110.746 67.6877 110.264 66.2572 109.678C66.2945 109.768 66.3319 109.861 66.3692 109.951C66.4327 109.913 66.4999 109.876 66.5634 109.839C66.8062 109.865 66.8025 109.491 66.5672 109.461Z" fill="#C8CACE"/>
<path d="M72.6927 112.991C72.1959 112.303 71.1874 113.103 71.7552 113.783C72.0353 114.115 72.5059 114.156 72.8832 113.977C73.2866 113.786 73.2828 113.525 73.7722 113.775C74.2054 113.995 74.5528 114.421 74.8031 114.825C74.9301 115.03 75.2513 114.84 75.1243 114.638C74.7022 113.954 74.127 113.48 73.38 113.181C73.3239 113.159 73.238 113.185 73.1969 113.23C73.0961 113.361 72.9803 113.476 72.8458 113.57C72.5321 113.824 72.3715 113.697 72.3677 113.181C72.5097 113.372 72.8346 113.185 72.6927 112.991Z" fill="#C8CACE"/>
<path d="M77.1417 117.204C77.9896 117.839 78.8412 118.47 79.6891 119.105C79.8833 119.247 80.0701 118.926 79.8759 118.784C79.028 118.149 78.1763 117.517 77.3285 116.882C77.138 116.737 76.9512 117.062 77.1417 117.204Z" fill="#C8CACE"/>
<path d="M31.2509 81.1367C31.2211 81.1554 31.1949 81.1703 31.165 81.189C31.0903 81.2338 31.0604 81.3197 31.0791 81.3982C31.1239 81.5887 31.1389 81.6223 31.3182 81.7007C31.4041 81.7381 31.4713 81.7306 31.546 81.6708C32.2744 81.0956 31.4302 79.4596 31.0007 78.9255C30.6757 78.5221 29.7606 77.861 29.4991 78.72C29.219 79.6389 30.6795 80.8902 31.3369 81.2936C32.0279 81.7194 33.1746 81.8016 33.1522 80.7034C33.0289 80.7184 32.9094 80.737 32.7861 80.752C32.9056 81.2152 33.2941 81.4617 33.7722 81.4542C34.523 81.443 34.9189 80.7744 35.2401 80.1917C35.3858 79.9302 35.5352 79.5829 35.7668 79.3849C36.6819 78.6117 36.6595 79.1944 37.3057 79.2654C37.4812 79.2841 37.7016 79.2691 37.851 79.1571C38.0677 78.9927 38.0004 78.9329 38.0938 78.7126C38.0639 78.3054 38.2059 77.9992 38.5196 77.79C38.7288 77.5323 39.0015 77.3716 39.3376 77.3119C39.6514 77.2148 39.9838 77.1774 40.305 77.1289C40.5404 77.0952 40.4395 76.7329 40.2042 76.7703C39.502 76.8749 38.7587 76.9907 38.2283 77.5024C38.0303 77.6929 37.9295 77.9095 37.795 78.1411C37.7464 78.2233 37.7726 78.3727 37.7203 78.4474C37.4551 78.8321 37.1563 78.7948 36.7977 78.7051C36.2935 78.5818 35.8639 78.7649 35.5016 79.1272C35.285 79.3438 35.1318 79.6165 34.9824 79.8817C34.8442 80.1245 34.7359 80.3785 34.5491 80.5914C34.2877 80.8939 33.3688 81.5364 33.141 80.6586C33.0887 80.4569 32.7674 80.4943 32.7749 80.7072C32.3267 81.1927 31.9083 81.2824 31.5236 80.9724C31.2846 80.8155 31.0642 80.6399 30.8587 80.442C30.6869 80.2776 29.925 79.5866 29.9772 79.2953C30.2088 78.029 31.1426 79.8854 31.2099 80.061C31.2846 80.2701 31.5946 81.372 31.4414 81.4617C31.6469 81.3384 31.4564 81.0135 31.2509 81.1367Z" fill="#C8CACE"/>
<path d="M55.7951 96.1567C55.7653 96.1754 55.7391 96.1904 55.7092 96.209C55.6345 96.2538 55.6046 96.3398 55.6233 96.4182C55.6681 96.6087 55.6831 96.6423 55.8624 96.7207C55.9483 96.7581 56.0155 96.7506 56.0902 96.6909C56.8186 96.1156 55.9744 94.4796 55.5449 93.9455C55.2199 93.5421 54.3048 92.881 54.0433 93.7401C53.7632 94.6589 55.2237 95.9102 55.881 96.3136C56.5721 96.7394 57.7188 96.8216 57.6963 95.7234C57.5731 95.7384 57.4536 95.7571 57.3303 95.772C57.4498 96.2352 57.8383 96.4817 58.3164 96.4742C59.0672 96.463 59.4631 95.7944 59.7843 95.2117C59.93 94.9503 60.0794 94.6029 60.311 94.4049C61.2261 93.6317 61.2037 94.2144 61.8499 94.2854C62.0254 94.3041 62.2458 94.2891 62.3952 94.1771C62.6119 94.0127 62.5446 93.953 62.638 93.7326C62.6081 93.3255 62.7501 93.0192 63.0638 92.81C63.273 92.5523 63.5457 92.3917 63.8818 92.3319C64.1956 92.2348 64.528 92.1974 64.8492 92.1489C65.0846 92.1153 64.9837 91.7529 64.7484 91.7903C64.0462 91.8949 63.3029 92.0107 62.7725 92.5224C62.5745 92.7129 62.4737 92.9295 62.3392 93.1611C62.2906 93.2433 62.3168 93.3927 62.2645 93.4674C61.9993 93.8521 61.7005 93.8148 61.3419 93.7251C60.8376 93.6019 60.4081 93.7849 60.0458 94.1472C59.8291 94.3638 59.676 94.6365 59.5266 94.9017C59.3884 95.1445 59.2801 95.3985 59.0933 95.6114C58.8318 95.9139 57.913 96.5564 57.6851 95.6786C57.6328 95.4769 57.3116 95.5143 57.3191 95.7272C56.8709 96.2128 56.4525 96.3024 56.0678 95.9924C55.8288 95.8355 55.6084 95.66 55.4029 95.462C55.2311 95.2976 54.4691 94.6066 54.5214 94.3153C54.753 93.0491 55.6868 94.9054 55.754 95.081C55.8288 95.2902 56.1388 96.392 55.9856 96.4817C56.1911 96.3584 56.0043 96.0335 55.7951 96.1567Z" fill="#C8CACE"/>
<path d="M48.915 71.9036C49.352 72.307 49.845 72.2398 50.3231 71.9111C51.2308 71.2836 51.3951 69.1732 52.8257 69.7708C53.5018 70.0509 53.9388 70.6112 54.7344 70.3236C55.7541 69.9501 56.5049 67.6455 57.801 68.273C57.9915 68.3664 58.1745 68.1423 58.0288 67.9779C57.4648 67.3579 56.9045 66.7416 56.3443 66.1215C56.3331 66.2186 56.3181 66.3158 56.3069 66.4166C57.3602 65.931 58.5854 66.5847 58.8244 67.6978C58.8618 67.8696 59.1569 67.8808 59.183 67.6978C59.2278 67.4064 59.2727 67.1188 59.3175 66.8275C59.2278 66.8648 59.1344 66.9022 59.0448 66.9395C59.366 67.0777 59.6873 67.2159 60.0085 67.3541C60.0981 67.3915 60.2102 67.384 60.2625 67.2869C60.3969 67.0329 60.5351 66.7752 60.6696 66.5212C60.5725 66.5324 60.4754 66.5473 60.3745 66.5585C61.1141 67.1636 62.2533 66.4726 62.0105 65.5314C61.9508 65.6098 61.891 65.6883 61.8313 65.7667C63.669 65.9049 64.4085 63.66 62.8883 62.6553C62.8099 62.603 62.6717 62.6329 62.6343 62.7225C62.3318 63.3911 62.5447 64.0672 63.105 64.5303C63.9379 65.2176 65.0809 64.9001 65.9736 64.5191C69.0327 63.2118 71.8864 61.2359 74.755 59.5625C74.9642 59.443 74.7737 59.1181 74.5683 59.2413C72.6521 60.3581 70.736 61.4824 68.8161 62.5955C67.9682 63.0848 67.1128 63.5741 66.2276 63.9925C65.6673 64.2577 65.0361 64.5528 64.4011 64.564C63.5868 64.5789 62.5223 63.8729 62.963 62.9093C62.8771 62.9317 62.7912 62.9541 62.709 62.9765C63.9342 63.787 63.2917 65.5015 61.8425 65.3932C61.7192 65.3857 61.6333 65.5202 61.6632 65.6285C61.5399 66.3681 61.2 66.5922 60.6509 66.2933C60.5613 66.2224 60.4194 66.2149 60.3559 66.3307C60.2214 66.5847 60.0832 66.8424 59.9487 67.0964C60.0346 67.074 60.1205 67.0516 60.2027 67.0292C59.8815 66.891 59.5603 66.7528 59.239 66.6146C59.1419 66.5735 58.985 66.5922 58.9664 66.7266C58.9215 67.018 58.8767 67.3056 58.8319 67.5969C58.9514 67.5969 59.071 67.5969 59.1905 67.5969C58.8917 66.2224 57.3826 65.5127 56.1239 66.0917C56.0081 66.1439 56.0118 66.3046 56.0865 66.3867C56.6468 67.0068 57.2108 67.6231 57.7711 68.2431C57.8458 68.146 57.9205 68.0489 57.999 67.948C57.3266 67.6231 56.7103 67.8845 56.1837 68.3776C55.8213 68.7175 55.5823 69.162 55.2349 69.5131C54.458 70.2975 53.8902 69.924 53.1245 69.5093C52.6016 69.2255 52.0675 69.1396 51.5707 69.5392C51.0029 69.9987 50.2073 72.5871 49.1876 71.6421C49.0046 71.4778 48.7394 71.7393 48.915 71.9036Z" fill="#C8CACE"/>
<path d="M72.5844 87.3782C73.0214 87.7816 73.5145 87.7144 73.9926 87.3857C74.9002 86.7582 75.0646 84.6478 76.4951 85.2454C77.1712 85.5256 77.6082 86.0858 78.4038 85.7982C79.4235 85.4247 80.1743 83.1201 81.4704 83.7476C81.6609 83.841 81.8439 83.6169 81.6983 83.4525C81.1343 82.8325 80.574 82.2162 80.01 81.5961C79.9988 81.6933 79.9838 81.7904 79.9726 81.8912C81.0259 81.4057 82.2511 82.0593 82.4901 83.1724C82.5275 83.3442 82.8226 83.3554 82.8487 83.1724C82.8935 82.881 82.9384 82.5934 82.9832 82.3021C82.8935 82.3394 82.8001 82.3768 82.7105 82.4141C83.0317 82.5524 83.353 82.6906 83.6742 82.8288C83.7638 82.8661 83.8759 82.8586 83.9282 82.7615C84.0626 82.5075 84.2008 82.2498 84.3353 81.9958C84.2382 82.007 84.1411 82.022 84.0402 82.0332C84.7798 82.6383 85.919 81.9472 85.6762 81.006C85.6165 81.0844 85.5567 81.1629 85.497 81.2413C87.3347 81.3795 88.0742 79.1347 86.554 78.1299C86.4756 78.0776 86.3374 78.1075 86.3 78.1971C85.9975 78.8657 86.2104 79.5418 86.7707 80.005C87.6036 80.6922 88.7466 80.3747 89.6393 79.9937C92.6984 78.6864 95.5521 76.7105 98.4207 75.0371C98.6299 74.9176 98.4394 74.5927 98.234 74.7159C96.3178 75.8327 94.4017 76.957 92.4818 78.0701C91.6339 78.5594 90.7785 79.0487 89.8933 79.4671C89.333 79.7323 88.7018 80.0274 88.0668 80.0386C87.2525 80.0535 86.188 79.3476 86.6287 78.3839C86.5428 78.4063 86.4569 78.4287 86.3747 78.4511C87.5999 79.2616 86.9574 80.9761 85.5082 80.8678C85.3849 80.8603 85.299 80.9948 85.3289 81.1031C85.2056 81.8427 84.8657 82.0668 84.3166 81.768C84.227 81.697 84.0851 81.6895 84.0216 81.8053C83.8871 82.0593 83.7489 82.317 83.6144 82.571C83.7003 82.5486 83.7862 82.5262 83.8684 82.5038C83.5472 82.3656 83.226 82.2274 82.9047 82.0892C82.8076 82.0481 82.6507 82.0668 82.6321 82.2012C82.5872 82.4926 82.5424 82.7802 82.4976 83.0715C82.6171 83.0715 82.7367 83.0715 82.8562 83.0715C82.5574 81.7007 81.0483 80.9873 79.7896 81.5663C79.6738 81.6186 79.6775 81.7792 79.7522 81.8613C80.3162 82.4814 80.8765 83.0977 81.4405 83.7177C81.5152 83.6206 81.59 83.5235 81.6684 83.4226C80.9961 83.0977 80.3797 83.3592 79.8531 83.8522C79.4908 84.1921 79.2517 84.6366 78.9044 84.9877C78.1274 85.7721 77.5597 85.3986 76.794 84.984C76.271 84.7001 75.7369 84.6142 75.2401 85.0138C74.6724 85.4733 73.8768 88.0618 72.8571 87.1168C72.6741 86.9524 72.4088 87.2176 72.5844 87.3782Z" fill="#C8CACE"/>
<path d="M85.6802 55.5958C85.9267 54.7516 85.8744 53.8739 85.4561 53.0895C85.2208 52.6525 84.6119 51.7784 84.0068 52.0025C82.4642 52.574 86.2405 54.3819 86.6327 54.5238C86.6476 54.4005 86.6663 54.281 86.6812 54.1577C86.726 53.9448 86.7709 53.7319 86.812 53.519C86.9763 53.5116 87.1369 53.5041 87.3013 53.4966C87.4805 53.5041 87.6561 53.5526 87.8354 53.5564C88.0819 53.5639 88.3172 53.5452 88.5451 53.4443C89.0082 53.2352 89.2473 52.7795 89.52 52.3798C89.9682 51.7187 90.3156 51.5954 91.1336 51.6402C91.3465 51.6514 91.5519 51.7037 91.7648 51.6738C92.213 51.6103 92.5305 51.3788 92.6388 50.9455C92.6949 50.7139 92.3363 50.613 92.2803 50.8446C92.0711 51.7037 90.4127 50.9828 89.759 51.4983C89.4639 51.7299 89.2884 52.0735 89.0792 52.3761C88.6235 53.0447 88.2799 53.2127 87.4357 53.1418C86.9464 53.1007 86.2068 53.1343 86.0724 53.7431C85.979 54.1727 86.2703 54.5163 86.6812 54.535C86.9053 54.5462 86.9203 54.2362 86.7298 54.169C86.2554 53.9971 85.796 53.7954 85.3552 53.5489C85.2432 53.4854 84.0666 52.9102 84.6829 52.6637C84.9107 52.574 85.3702 53.8851 85.3963 53.9971C85.5121 54.5126 85.4673 54.9982 85.3179 55.5024C85.2544 55.7265 85.613 55.8274 85.6802 55.5958Z" fill="#C8CACE"/>
<path d="M37.3171 84.7301C37.4068 84.8048 37.4964 84.8795 37.5861 84.9542C37.6757 85.0289 37.8176 85.0289 37.8811 84.9168C38.3144 84.1175 38.2957 83.2734 37.8139 82.5002C37.7056 82.3284 37.403 82.4367 37.474 82.6458C37.799 83.5983 38.2061 84.7226 39.2482 85.0961C39.9915 85.3613 40.9365 85.055 41.1009 84.1997C41.4296 82.4964 38.4526 82.8139 39.2183 84.4462C39.562 85.1746 40.4472 85.1148 41.0262 84.7376C42.2289 83.9494 42.6024 82.3358 44.1339 82.0071C45.232 81.7718 45.8969 81.6934 46.614 80.7783C47.1257 80.1246 47.3013 79.9266 48.3023 80.0163C48.5563 80.0387 48.7804 80.1022 49.0382 80.091C49.4565 80.076 49.774 79.9528 50.0392 79.6316C50.1923 79.4485 49.9271 79.1833 49.774 79.3663C49.0792 80.2105 47.7159 79.2169 46.8419 79.9416C46.4833 80.2367 46.2891 80.6849 45.9529 80.9986C45.415 81.4954 44.7128 81.4991 44.0367 81.6448C42.9984 81.8689 42.4904 82.5637 41.8404 83.3481C41.2428 84.0727 40.5593 84.9915 39.4947 84.7301C38.4862 84.4836 38.1389 83.4228 37.8401 82.545C37.728 82.5936 37.6122 82.6421 37.5002 82.6907C37.9073 83.3481 37.9334 84.0503 37.5674 84.7301C37.6645 84.7189 37.7616 84.7039 37.8625 84.6927C37.7728 84.618 37.6832 84.5433 37.5935 84.4686C37.3993 84.3155 37.1341 84.5769 37.3171 84.7301Z" fill="#C8CACE"/>
<path d="M55.6156 76.1844C55.4027 75.5308 55.4774 75.3478 55.8397 75.6316C55.9966 75.725 56.1609 75.8072 56.329 75.8782C56.527 75.9454 56.6988 75.9977 56.9117 75.9865C57.274 75.9641 57.6326 75.7736 57.8567 75.4897C58.417 74.7837 58.0248 73.8537 57.2628 73.525C57.1059 73.4577 56.964 73.5698 56.9901 73.7342C57.1657 74.9406 58.3684 75.9006 59.601 75.598C60.8374 75.2955 61.435 73.8612 61.0316 72.7257C60.9196 72.7742 60.8038 72.8228 60.6917 72.8713C61.1325 73.7454 62.3016 74.1674 63.1495 73.5735C63.9974 72.9759 63.9637 71.7284 63.2989 71.0224C63.2877 71.1195 63.2727 71.2166 63.2615 71.3175C63.7957 70.9402 64.3447 70.9141 64.9013 71.239C65.0245 71.31 65.1814 71.2204 65.1814 71.0784C65.7342 69.9504 66.287 69.8197 66.8436 70.6862C66.922 70.8356 67.1387 70.7871 67.1835 70.6414C67.3142 70.2305 67.4487 69.8159 67.5794 69.4051C67.4898 69.4424 67.3964 69.4798 67.3067 69.5171C67.755 69.7076 68.2032 69.8981 68.6514 70.0849C68.7261 70.1148 68.8158 70.1222 68.8793 70.055C69.503 69.3677 70.5078 69.308 71.1913 69.9504C71.3034 70.055 71.4528 69.999 71.5051 69.8682C71.7666 69.2071 72.4314 69.0913 72.4949 68.419C72.5435 67.8774 72.4352 67.2909 72.2596 66.783C71.8898 65.696 71.1428 64.8183 70.153 64.2468C70.0446 64.1833 69.9139 64.243 69.8803 64.3588C69.5628 65.3823 69.9214 66.5327 70.9112 67.0332C71.4304 67.2947 71.972 67.3022 72.5285 67.1826C72.8909 67.1042 72.988 67.0033 73.3503 67.2013C73.8022 67.4478 74.2094 67.9857 74.4372 68.4265C74.5231 68.5908 74.7472 68.9382 74.7211 69.1287C74.7995 69.2781 74.7659 69.3042 74.6202 69.2034C74.3737 69.1585 74.3812 69.0017 74.6389 68.7365C74.8107 68.2733 74.8294 68.2173 75.2627 68.0268C75.4308 67.9558 75.7595 67.9558 75.9014 67.8774C76.4953 67.5562 77.007 66.839 77.4926 66.3609C78.6804 65.188 80.6003 62.6444 82.4716 63.948C82.6696 64.0862 82.8563 63.7612 82.6584 63.6267C80.3911 62.0467 77.9819 65.3561 76.6074 66.7083C76.2936 67.0183 76.006 67.4217 75.5466 67.5263C75.0012 67.6533 75.3598 67.459 74.9303 67.713C74.6352 67.8886 74.3326 68.2061 74.1944 68.5198C73.9143 69.1585 74.2617 69.9541 75.0124 69.928C75.1058 69.9243 75.2104 69.8458 75.1992 69.7412C75.0647 68.5871 74.5045 67.5375 73.5296 66.8801C72.7713 66.3684 72.8348 66.8801 71.9272 66.895C70.6012 66.9174 69.8616 65.64 70.2314 64.4559C70.1418 64.4933 70.0484 64.5306 69.9587 64.568C71.098 65.2254 71.8823 66.331 72.0691 67.6383C72.1588 68.2584 72.099 68.4152 71.7292 68.8411C71.4715 69.1361 71.281 69.4013 71.1353 69.7674C71.2399 69.7412 71.3445 69.7114 71.4491 69.6852C71.0046 69.2669 70.4555 69.0652 69.8429 69.1361C69.4993 69.1772 69.2715 69.3192 68.9689 69.4536C68.7149 69.5657 68.8568 69.618 68.4983 69.618C68.2107 69.618 67.7475 69.3005 67.4898 69.1922C67.3777 69.1436 67.2544 69.1772 67.2171 69.3042C67.0864 69.7151 66.9519 70.1297 66.8212 70.5406C66.9332 70.5256 67.049 70.5107 67.1611 70.4957C66.4999 69.2594 64.8228 69.6927 64.8004 71.0784C64.8938 71.0261 64.9872 70.9701 65.0806 70.9178C64.412 70.5256 63.6985 70.548 63.0636 70.9963C62.9627 71.0672 62.9366 71.198 63.0262 71.2913C63.5753 71.874 63.5678 72.8713 62.8282 73.2971C62.1559 73.6819 61.3566 73.3756 61.0092 72.6883C60.9158 72.5015 60.5946 72.6323 60.6693 72.834C61.0092 73.7827 60.5572 74.9892 59.5002 75.2469C58.4394 75.5046 57.4907 74.6418 57.3487 73.6445C57.2591 73.7155 57.1657 73.7864 57.0761 73.8537C57.3188 73.9097 57.4683 74.0741 57.5205 74.343C57.8604 74.6418 57.8268 74.9145 57.4234 75.161C57.2068 75.6877 56.8258 75.7848 56.273 75.4449C56.1908 75.4 56.1124 75.3552 56.0302 75.3141C55.765 75.1909 55.511 75.0153 55.2085 74.9966C54.7229 74.9668 54.3083 75.2768 54.2037 75.7586C53.9684 76.8717 55.3653 77.1481 55.9406 76.3749C56.0825 76.1807 55.7575 75.9939 55.6156 76.1844Z" fill="#C8CACE"/>
<path d="M90.9094 59.0209C91.0588 57.2392 93.046 59.0246 93.8752 58.0796C94.159 57.7584 94.2225 57.3662 94.3309 56.9665C94.5027 56.3353 94.5587 55.8422 95.4589 55.7451C95.7876 55.7078 96.1462 55.8348 96.4562 55.9282C97.2032 56.156 98.1632 56.5333 98.8579 55.9394C99.3285 55.536 99.3584 54.8599 98.9401 54.4229C98.772 54.2473 98.5105 54.5125 98.6749 54.6881C98.5927 55.6107 98.2528 55.9991 97.6552 55.8535C97.4684 55.846 97.2854 55.8124 97.1098 55.7489C96.8745 55.6891 96.6504 55.592 96.4188 55.5248C96.0304 55.4127 95.6232 55.3231 95.2198 55.3978C94.5587 55.521 94.2263 55.9655 94.0395 56.5893C93.8154 57.3363 93.6473 58.1805 92.5305 57.9115C92.1308 57.8144 91.8544 57.6501 91.4361 57.7883C90.8795 57.975 90.5882 58.4681 90.5396 59.0246C90.5135 59.2599 90.887 59.2599 90.9094 59.0209Z" fill="#C8CACE"/>
<path d="M44.6418 89.242C44.4924 88.7713 42.946 85.5367 42.2102 86.7394C41.8703 87.2997 42.5874 87.7255 42.946 87.9869C44.1301 88.8535 45.3179 89.7051 46.5056 90.568C46.6812 90.6949 46.8754 90.4223 46.7335 90.2729C45.9715 89.4997 46.2666 88.3941 47.3162 88.1027C47.3984 88.0803 47.4506 88.0056 47.4544 87.9234C47.5029 86.8402 50.9916 87.1988 51.8432 86.7543C52.5791 86.3696 52.9563 85.5815 52.5567 84.8195C52.4446 84.6066 52.1234 84.7933 52.2354 85.0063C53.2178 86.8813 49.195 86.7655 48.3583 86.8701C47.615 86.9635 47.5179 87.1689 47.0958 87.662C46.7783 88.0355 46.2853 88.1326 46.0537 88.6481C45.7437 89.3279 45.9678 90.0264 46.472 90.5343C46.5467 90.4372 46.6214 90.3401 46.6999 90.2393C45.6615 89.4885 44.6231 88.734 43.5847 87.9832C43.4503 87.8861 42.8825 87.5723 42.8414 87.4453C42.9049 87.3632 42.9684 87.2773 43.0319 87.1951C43.1626 87.3258 43.2859 87.464 43.3942 87.6172C43.8051 88.1401 44.0815 88.7041 44.2832 89.3428C44.3504 89.5707 44.7128 89.4698 44.6418 89.242Z" fill="#C8CACE"/>
<path d="M50.6966 94.1318C50.0168 93.4818 51.2943 92.7236 51.5893 92.3127C51.8284 91.9766 51.9927 91.5806 52.0525 91.1735C52.1309 90.6132 52.0338 89.7803 51.4399 89.5001C50.988 89.2872 50.5547 89.5039 50.4015 89.9633C50.0654 90.9793 51.425 91.5358 51.5146 92.4509C51.5333 92.6414 51.8508 92.7273 51.8807 92.4995C52.0338 91.3864 53.3897 91.4985 54.1554 91.0428C54.88 90.6132 55.2648 89.9894 56.1164 89.7168C57.2407 89.3545 58.4546 89.3283 59.2203 88.3123C59.366 88.1218 59.041 87.9351 58.8991 88.1256C57.9429 89.3955 55.9969 88.9847 54.8165 89.9596C54.4841 90.2322 54.2488 90.5833 53.8566 90.785C53.4719 90.983 53.0237 91.0241 52.624 91.181C52.0488 91.4051 51.6118 91.7711 51.5221 92.3986C51.6454 92.4136 51.7649 92.4323 51.8882 92.4472C51.8396 91.9766 51.6566 91.6927 51.3727 91.3266C51.1897 91.1362 51.0179 90.9344 50.8647 90.7178C51.4325 89.8662 51.7126 89.8998 51.7089 90.8187C51.7201 91.435 51.4213 91.9766 51.0029 92.4061C50.4763 92.9477 49.6769 93.6686 50.4352 94.3895C50.607 94.5613 50.8722 94.2999 50.6966 94.1318Z" fill="#C8CACE"/>
<path d="M70.9374 82.4444C69.9924 82.1754 69.4957 81.2416 69.7758 80.3078C69.6974 80.3527 69.6226 80.3937 69.5442 80.4386C71.4716 81.0138 74.1534 81.5068 75.4608 79.4973C76.3049 78.2012 75.6102 76.2776 73.9854 76.1431C73.8621 76.1319 73.7762 76.2701 73.8061 76.3784C74.1646 77.7044 74.5232 79.0267 74.8781 80.3527C74.9005 80.4423 75.0163 80.5207 75.1096 80.4834C76.5888 79.8708 78.1314 79.8484 79.6255 80.4161C79.7898 80.4796 79.9019 80.2742 79.8347 80.1435C79.2594 78.9856 80.8245 78.4141 81.5118 77.9248C81.9413 77.6185 82.3223 77.2562 82.7033 76.8939C83.8126 75.8293 85.0415 74.593 86.7261 74.8769C86.8269 74.8955 86.9241 74.8507 86.9577 74.7461C87.5441 72.8188 84.3057 72.3892 84.6456 74.4959C84.7651 75.2317 85.4113 75.609 86.1247 75.4894C87.2154 75.3101 88.1679 73.9916 89.322 74.4361C89.4229 74.4735 89.52 74.3913 89.5536 74.3054C89.9197 73.3305 90.6032 72.6133 91.5669 72.2137C91.7873 72.124 91.6902 71.7617 91.466 71.8551C90.3754 72.3108 89.6059 73.1026 89.195 74.2083C89.2735 74.1634 89.3482 74.1224 89.4266 74.0775C88.6422 73.775 87.9475 74.1859 87.2789 74.5706C86.8045 74.8432 86.1621 75.2989 85.5906 75.1084C85.1312 74.9553 84.9183 74.4249 85.0452 73.9804C85.3665 72.8823 86.9241 73.6106 86.6066 74.6453C86.685 74.6005 86.7597 74.5594 86.8381 74.5146C84.8809 74.1859 83.5325 75.6164 82.2289 76.8416C81.4931 77.5326 80.4398 77.9435 79.7786 78.6905C79.3491 79.1761 79.2408 79.755 79.5246 80.334C79.5956 80.2443 79.6666 80.151 79.7338 80.0613C78.1837 79.4711 76.5514 79.4936 75.02 80.1285C75.0984 80.1734 75.1731 80.2144 75.2516 80.2593C74.893 78.9333 74.5344 77.611 74.1796 76.285C74.1198 76.3635 74.0601 76.4419 74.0003 76.5203C74.8444 76.5913 75.4234 77.3234 75.4832 78.1452C75.5429 78.993 74.9677 79.7139 74.2692 80.1285C72.8424 80.9727 71.1391 80.5282 69.6563 80.0875C69.5592 80.0576 69.4546 80.1211 69.4247 80.2182C69.0848 81.3499 69.716 82.4929 70.8478 82.8141C71.0682 82.8702 71.169 82.5079 70.9374 82.4444Z" fill="#C8CACE"/>
<path d="M101.144 66.4656C101.264 66.9063 101.757 67.0707 102.141 66.798C102.366 66.6374 102.403 66.4021 102.507 66.1705C102.713 65.7222 102.847 65.2703 103.572 65.416C103.714 65.4458 103.837 65.5691 103.987 65.6027C104.655 65.7484 104.614 65.2927 104.861 64.8407C105.085 64.4224 105.832 64.2132 106.202 63.9182C106.874 63.3803 107.401 62.3867 108.443 62.7304C108.671 62.8051 108.771 62.4465 108.544 62.3718C107.819 62.1327 107.21 62.4465 106.672 62.9433C106.187 63.3878 105.787 63.765 105.189 64.0638C104.958 64.1796 104.745 64.2655 104.595 64.5008C104.532 64.6017 104.543 64.766 104.48 64.8519C104.241 65.1844 103.983 65.1171 103.665 65.0462C103.426 64.9939 103.255 64.8333 102.986 64.8744C102.761 64.908 102.605 65.035 102.466 65.2068C102.403 65.2852 102.358 65.3936 102.317 65.4869C102.291 65.5654 102.265 65.6438 102.239 65.7222C102.205 66.0958 101.962 66.3124 101.503 66.3722C101.443 66.1369 101.081 66.234 101.144 66.4656Z" fill="#C8CACE"/>
<path d="M63.6723 79.8443C63.874 78.6939 64.001 76.5573 62.3501 76.3818C61.2258 76.2623 60.6319 77.3828 61.2594 78.268C61.9952 79.3064 63.9338 80.5727 65.2448 80.0311C66.1786 79.6463 66.7277 78.4996 66.0591 77.6555C65.9695 77.7451 65.8836 77.831 65.7939 77.9207C66.5559 78.6528 67.8744 78.2755 68.1023 77.2334C67.9977 77.2596 67.8931 77.2894 67.7885 77.3156C68.5841 78.0178 69.9437 77.3865 69.8391 76.2996C69.7458 76.3519 69.6524 76.4079 69.559 76.4602C70.3098 76.9383 71.4341 77.5882 72.2521 76.8674C72.7488 76.4266 72.8983 75.6684 72.3641 75.2089C72.3193 75.3135 72.2745 75.4218 72.2334 75.5264C73.3539 75.3957 74.0039 74.178 73.4361 73.1845C73.339 73.2592 73.2419 73.3339 73.141 73.4123C74.0786 74.3498 75.9611 75.7729 77.1265 74.2751C78.2732 72.8035 76.1143 70.8051 75.1618 69.9236C75.0721 70.0133 74.9862 70.0992 74.8966 70.1888C75.7669 70.9844 76.0358 72.8894 77.5934 72.6354C78.0827 72.5532 78.2172 72.176 78.5907 71.9182C79.5618 71.2496 80.8243 70.8126 81.8814 70.2897C82.098 70.1814 81.9075 69.8601 81.6946 69.9685C80.4732 70.5736 79.136 71.1226 78.0005 71.851C77.4589 72.1984 77.2983 72.4561 76.7156 72.0826C76.4205 71.8921 76.2263 71.5298 76.062 71.2347C75.793 70.7491 75.5764 70.3084 75.1618 69.9311C74.9862 69.7705 74.721 70.032 74.8966 70.1963C75.7221 70.9583 77.4365 72.415 77.0032 73.7261C76.7716 74.432 75.9051 74.6449 75.2589 74.4806C74.5081 74.2901 73.9329 73.6812 73.4025 73.1546C73.2531 73.0052 73.0028 73.1957 73.1074 73.3824C73.5183 74.0958 73.085 75.0633 72.2297 75.1604C72.0877 75.1753 71.9607 75.3621 72.0989 75.4779C72.9618 76.2249 71.647 76.8188 71.1016 76.7702C70.6011 76.7254 70.1604 76.4079 69.7458 76.1465C69.6337 76.0755 69.4507 76.1651 69.4656 76.3071C69.5328 77.0018 68.6663 77.5995 68.0537 77.0579C67.9566 76.9719 67.7736 76.9944 67.74 77.14C67.5756 77.8908 66.6231 78.2083 66.0554 77.663C65.8761 77.4911 65.6445 77.7414 65.7902 77.9282C66.5186 78.8433 65.3009 79.8256 64.4605 79.7883C63.6798 79.7509 62.9776 79.2504 62.38 78.7947C62.1745 78.6378 61.8682 78.4623 61.7188 78.2419C60.602 76.576 62.6227 76.5723 63.1419 77.3455C63.6126 78.0477 63.4408 78.9815 63.3063 79.7509C63.2689 79.9825 63.6312 80.0834 63.6723 79.8443Z" fill="#C8CACE"/>
<path d="M83.4764 69.9947C84.3206 69.8155 85.0676 69.4793 85.7511 68.9452C86.726 68.1794 87.6075 67.029 89.012 67.3054C89.2473 67.3502 89.3481 66.9916 89.1128 66.9468C88.1977 66.7638 87.4133 67.0925 86.6887 67.6528C85.6017 68.4969 84.7837 69.3336 83.3793 69.6362C83.1402 69.6847 83.2411 70.0433 83.4764 69.9947Z" fill="#C8CACE"/>
<path d="M98.5927 63.1C99.2426 62.1214 100.486 62.0168 101.473 61.5499C101.831 61.3818 102.167 61.1652 102.436 60.8738C102.877 60.392 103.082 59.6898 103.766 59.4806C103.994 59.4097 103.897 59.0511 103.665 59.122C103.228 59.2565 102.967 59.5142 102.698 59.8765C102.164 60.5937 101.749 61.0606 100.897 61.393C99.9187 61.7703 98.8878 61.9907 98.2715 62.917C98.137 63.115 98.4583 63.3017 98.5927 63.1Z" fill="#C8CACE"/>
<path d="M107.527 70.1297C107.725 69.5358 107.781 68.9979 107.714 68.3741C107.591 68.3891 107.471 68.4078 107.348 68.4227C107.445 68.8112 107.725 69.0353 108.143 69.0353C108.532 69.0353 108.898 68.7701 109.249 68.6393C109.821 68.4264 110.414 68.3555 111.02 68.3704C111.266 68.3779 111.251 68.0268 111.02 67.9969C110.747 67.0257 111.012 66.6522 111.815 66.8875C112.121 66.9809 112.416 67.1079 112.697 67.2648C112.812 67.3246 112.988 67.2536 112.977 67.1042C112.887 65.9201 114.717 66.2563 115.352 65.9276C115.931 65.6288 116.107 64.8332 116.719 64.6128C116.944 64.5344 116.846 64.1721 116.619 64.2542C116.309 64.3626 116.148 64.5082 115.942 64.7547C115.614 65.1507 115.505 65.4906 114.945 65.6811C114.602 65.8006 114.202 65.752 113.847 65.8267C113.178 65.9649 112.543 66.3497 112.603 67.1079C112.697 67.0556 112.79 66.9996 112.883 66.9473C112.159 66.5738 110.978 66.1032 110.373 66.9622C109.951 67.5599 110.332 68.292 111.02 68.3779C111.02 68.2546 111.02 68.1276 111.02 68.0044C110.534 67.9932 110.063 68.023 109.593 68.1463C109.2 68.2472 107.882 69.0091 107.71 68.3293C107.662 68.1314 107.322 68.165 107.344 68.3779C107.408 68.9568 107.352 69.4872 107.169 70.0363C107.09 70.2604 107.452 70.3575 107.527 70.1297Z" fill="#C8CACE"/>
<path d="M62.8508 99.8763C64.0349 100.646 65.8352 100.1 66.078 98.6101C66.2536 97.5418 65.189 95.6967 63.8892 96.2644C62.1747 97.0152 64.7632 99.2339 65.4953 99.5925C66.7391 100.198 68.7823 99.5514 68.1921 97.8593C68.1324 97.9378 68.0726 98.0162 68.0128 98.0946C71.0346 97.8892 73.836 96.6379 76.0024 94.5201C76.1742 94.352 75.909 94.0868 75.7372 94.2549C73.6455 96.3017 70.9338 97.5232 68.0091 97.7211C67.897 97.7286 67.785 97.8369 67.8298 97.9564C68.3789 99.5327 66.3469 99.6858 65.4094 99.1144C64.9873 98.8566 64.5989 98.4756 64.2739 98.1058C64.1133 97.9415 63.9714 97.7622 63.8518 97.568C64.1805 96.7089 64.5503 96.4586 64.9612 96.8209C65.7755 97.2243 65.9286 98.498 65.4468 99.1741C64.8902 99.9548 63.8107 100.056 63.0413 99.5551C62.8359 99.4206 62.6491 99.7456 62.8508 99.8763Z" fill="#C8CACE"/>
<path d="M82.0946 90.0159C82.9201 90.423 83.8987 90.4043 84.5934 89.7394C84.9483 89.3995 85.1724 88.9513 85.2396 88.4657C85.2732 88.2304 85.2434 88.0063 85.2396 87.771C85.2172 87.5544 85.2097 87.3377 85.2135 87.1211C85.1687 86.6355 85.3816 86.4189 85.8597 86.4674C86.4797 86.3292 86.4722 86.4413 86.9578 86.7326C87.1035 86.8185 87.2529 86.9194 87.4098 86.9754C87.7497 87.1024 88.1008 87.1211 88.4332 86.9567C89.5239 86.4189 89.3969 84.9136 90.3195 84.23C90.51 84.0881 90.3232 83.7631 90.1327 83.9088C89.3894 84.4579 89.3184 85.2871 88.8478 86.0304C87.8692 87.5805 87.0549 85.8922 85.9568 85.8474C85.3517 85.8212 84.9856 86.3031 84.8698 86.8559C84.7466 87.446 84.9819 88.0474 84.8287 88.6376C84.5337 89.7731 83.2749 90.1877 82.2813 89.6946C82.0684 89.5863 81.8779 89.9075 82.0946 90.0159Z" fill="#C8CACE"/>
<path d="M92.5269 84.5739C91.9404 83.0724 94.3609 84.0024 94.6597 84.0771C94.9734 84.1519 95.3208 84.2154 95.6383 84.1294C96.1425 83.995 96.46 83.5766 96.5497 83.0799C96.6767 82.3926 95.8811 80.2486 94.9062 80.6258C93.8678 81.0292 95.5972 82.6951 96.0716 82.8894C97.1286 83.3189 98.477 82.4486 98.0662 81.2533C97.9616 81.3131 97.857 81.3729 97.7524 81.4364C98.2903 81.9369 98.9589 82.5233 99.7545 82.3291C100.016 82.2656 100.289 82.1162 100.449 81.8921C100.752 81.4663 100.416 80.9172 101.107 80.7416C101.495 80.6445 101.891 80.8425 102.294 80.6781C102.556 80.5735 102.795 80.3756 102.952 80.1403C103.333 79.5576 103.157 78.874 102.731 78.3847C102.589 78.2241 102.332 78.4295 102.436 78.6126C103.176 79.8564 104.827 78.6462 103.886 77.5555C103.796 77.6452 103.71 77.7311 103.62 77.8207C104.741 78.7844 106.448 78.6649 107.382 77.5032C107.531 77.3165 107.27 77.0513 107.117 77.238C106.317 78.2316 104.86 78.3997 103.882 77.5555C103.699 77.3986 103.46 77.6377 103.617 77.8207C103.329 78.0224 103.041 78.2241 102.754 78.4258C102.657 78.5005 102.56 78.5752 102.459 78.6537C103.056 79.3372 102.675 80.3121 101.775 80.4167C101.592 80.4391 101.398 80.383 101.215 80.3793C100.957 80.3756 100.666 80.3569 100.457 80.5399C100.356 80.6296 100.326 80.7491 100.266 80.8612C100.285 81.1338 100.177 81.3654 99.9487 81.5484C99.7619 82.09 99.3884 82.1834 98.8319 81.8211C98.5181 81.6792 98.2641 81.4028 98.0176 81.1749C97.8906 81.0554 97.6404 81.1712 97.7038 81.3579C98.111 82.5495 96.5235 82.8557 95.7914 82.2768C95.6159 82.1386 95.2722 81.851 95.2199 81.6194C95.1004 81.5111 95.1303 81.4326 95.3059 81.3766C95.4478 81.1786 95.5561 81.2123 95.6383 81.4849C95.9296 81.709 96.1687 82.3478 96.1986 82.6989C96.2322 83.1508 95.7055 83.6962 95.2946 83.8082C94.8688 83.924 94.1592 83.5019 93.752 83.4086C92.9527 83.2255 91.7612 83.6625 92.1608 84.686C92.2542 84.8952 92.6128 84.798 92.5269 84.5739Z" fill="#C8CACE"/>
<path d="M113.216 73.3566C114.18 74.014 115.308 73.5621 115.573 72.434C115.483 72.4714 115.39 72.5088 115.3 72.5461C116.178 73.0242 117.22 73.3492 117.806 72.322C118.714 70.7345 120.709 69.7933 122.311 69.0051C122.528 68.9006 122.337 68.5756 122.124 68.6839C120.903 69.2853 119.708 69.9763 118.621 70.798C118.288 71.0483 117.975 71.3098 117.747 71.6571C117.429 72.1427 117.549 72.2137 116.91 72.4303C116.275 72.6432 116.077 72.5424 115.494 72.2249C115.394 72.1689 115.248 72.2174 115.222 72.3369C115.054 73.0541 114.019 73.45 113.414 73.0354C113.205 72.9009 113.018 73.2222 113.216 73.3566Z" fill="#C8CACE"/>
<path d="M68.5952 104.303C69.3011 104.396 69.7643 103.993 70.2163 103.489C70.6607 102.996 71.1687 102.525 71.8859 102.723C72.1996 102.809 72.4499 103.055 72.7749 103.13C73.1372 103.212 73.4733 103.119 73.7236 102.839C74.2988 102.196 74.0672 101.412 75.0907 101.109C75.6584 100.941 76.1141 100.982 76.5474 100.519C77.2422 99.7683 77.3467 98.8756 78.6018 98.9279C79.6962 98.9727 81.1604 99.7832 81.8775 98.4909C81.9933 98.2817 81.6721 98.0912 81.5563 98.3041C80.7719 99.716 78.669 98.0352 77.4737 98.7486C77.0517 99.0026 76.835 99.4471 76.5736 99.8393C76.2897 100.269 75.9871 100.541 75.4791 100.676C75.1542 100.762 74.8218 100.728 74.508 100.885C74.1532 101.061 73.9813 101.359 73.8319 101.711C73.6564 102.125 73.6489 102.446 73.1895 102.633C72.7002 102.831 72.4723 102.547 72.0316 102.368C70.3843 101.692 70.0743 104.124 68.5952 103.929C68.3599 103.899 68.3599 104.273 68.5952 104.303Z" fill="#C8CACE"/>
<path d="M89.124 94.513C88.5189 94.7633 87.9175 94.4234 87.8241 93.7735C87.7643 93.8519 87.7046 93.9303 87.6448 94.0088C89.3369 94.0872 91.3464 94.1134 92.5267 92.6753C93.3223 91.7079 93.3074 90.2325 92.3026 89.4257C92.213 89.3547 92.071 89.3473 92.0075 89.463C91.5742 90.296 92.0897 91.2261 92.9413 91.5435C94.1889 92.0067 95.5522 90.987 96.5682 90.4006C98.1631 89.478 99.758 88.5554 101.353 87.6328C102.974 86.6953 104.606 85.7279 106.515 85.571C106.754 85.5523 106.754 85.1788 106.515 85.1975C104.132 85.3917 102.104 86.7662 100.087 87.9354C98.9027 88.6189 97.7186 89.3062 96.5383 89.9897C95.8772 90.3707 95.2011 90.8451 94.4802 91.0953C93.6398 91.3904 91.5817 91.0953 92.3362 89.6535C92.2391 89.6647 92.142 89.6797 92.0411 89.6909C93.2513 90.6583 92.7023 92.3055 91.5481 93.0414C90.3939 93.7772 88.9596 93.7025 87.6486 93.639C87.5141 93.6315 87.4506 93.7622 87.4693 93.8743C87.5925 94.711 88.4479 95.1966 89.2285 94.8753C89.4414 94.7857 89.3481 94.4234 89.124 94.513Z" fill="#C8CACE"/>
<path d="M109.16 83.8189C109.048 83.408 109.141 83.2212 109.444 83.2586C109.556 83.2362 109.668 83.2362 109.78 83.2549C109.989 83.2623 110.194 83.3034 110.404 83.2922C110.695 83.281 110.986 83.2138 111.259 83.1092C111.771 82.9075 112.163 82.5601 112.477 82.1194C112.619 81.9251 112.294 81.7384 112.155 81.9326C111.659 82.6274 110.904 82.9635 110.056 82.9075C109.623 82.8814 109.122 82.7917 108.768 83.1241C108.304 83.5612 108.629 84.2746 109.257 84.1775C109.496 84.1438 109.395 83.7815 109.16 83.8189Z" fill="#C8CACE"/>
<path d="M122.643 78.3285C122.939 78.0297 123.234 77.7309 123.532 77.432C123.783 77.4582 124.033 77.4881 124.279 77.5254C124.388 77.5366 124.485 77.5553 124.597 77.5628C124.922 77.5852 125.247 77.5702 125.542 77.4134C125.912 77.2191 126.14 76.8568 126.214 76.4497C126.42 75.3217 125.266 73.9994 124.134 73.9471C123.17 73.9023 122.983 75.0228 123.768 75.4711C124.369 75.8184 125.161 75.5234 125.774 75.3777C126.92 75.1088 128.067 74.8398 129.214 74.5671C129.449 74.5111 129.348 74.1525 129.113 74.2086C127.906 74.4924 126.7 74.7801 125.49 75.0602C124.978 75.1797 124.896 75.3627 124.619 74.795C124.209 73.9508 124.933 74.6306 125.21 74.8921C125.508 75.176 125.845 75.542 125.833 75.9753C125.822 76.5505 125.34 77.2005 124.724 77.1967C124.018 77.193 123.215 76.8232 122.584 77.3163C122.188 77.6225 122.109 78.0857 122.319 78.5152C122.423 78.7356 122.748 78.5451 122.643 78.3285Z" fill="#C8CACE"/>
<path d="M74.9156 107.448C74.8707 106.917 75.0911 106.521 75.5356 106.256C75.9764 105.991 76.3275 106.223 76.7794 106.182C76.9288 106.167 77.0857 106.159 77.2164 106.069C77.4368 105.916 77.4181 105.707 77.5414 105.509C77.8402 105.035 78.1166 104.96 78.6433 105.218C78.8002 105.296 78.9309 105.39 79.1027 105.442C80.6715 105.942 81.0712 103.989 81.0861 102.883C80.9815 102.928 80.8732 102.973 80.7686 103.014C81.5418 103.825 82.8192 104.788 83.951 103.996C84.6681 103.496 84.6756 102.458 83.9659 101.965C83.9024 102.073 83.8389 102.181 83.7792 102.286C84.4552 102.581 85.0828 102.543 85.7028 102.129C85.9008 101.994 85.714 101.673 85.516 101.808C85.0454 102.125 84.5075 102.2 83.9697 101.965C83.753 101.871 83.5812 102.148 83.7829 102.286C84.0705 102.487 84.2311 103.134 83.9996 103.429C83.6186 103.914 82.9313 103.959 82.4046 103.772C81.8518 103.574 81.4372 103.163 81.0375 102.749C80.9255 102.629 80.7201 102.723 80.7201 102.88C80.7126 103.515 80.7201 104.303 80.2382 104.788C79.5696 105.468 78.9944 104.788 78.3034 104.631C77.7842 104.516 77.5377 104.706 77.2799 105.113C77.0633 105.457 77.4406 105.651 76.6113 105.767C76.4881 105.786 76.2939 105.688 76.1557 105.681C75.8643 105.666 75.5916 105.737 75.3376 105.883C74.7736 106.215 74.4972 106.794 74.5533 107.433C74.5607 107.683 74.9342 107.687 74.9156 107.448Z" fill="#C8CACE"/>
<path d="M82.1503 113.38C82.2512 113.283 82.352 113.185 82.4529 113.088C82.5463 112.999 82.5089 112.864 82.4155 112.793C81.3697 112.042 83.1626 111.105 83.6369 110.743C83.9582 110.5 84.2009 110.212 84.3541 109.839C84.7351 108.905 84.4251 107.87 83.7527 107.157C83.1962 106.567 82.2885 106.014 81.4406 106.156C80.6749 106.283 80.3163 107.011 80.6226 107.721C81.0783 108.785 82.6434 109.394 83.551 109.999C83.8087 110.164 84.0627 110.335 84.3093 110.519C84.4886 110.335 84.7052 110.261 84.9629 110.291C85.1534 110.279 85.3439 110.313 85.5381 110.287C85.9079 110.238 86.1806 110.119 86.3972 109.813C86.6475 109.461 86.6326 109.024 86.8006 108.647C87.2862 107.579 88.1565 108.468 88.8513 108.546C89.2285 108.587 89.6244 108.505 89.9531 108.315C90.3715 108.076 91.0289 106.712 91.492 106.929C91.7087 107.03 91.8992 106.709 91.6788 106.608C91.3837 106.47 91.1521 106.458 90.8645 106.645C90.6105 106.806 90.5396 107.071 90.3752 107.31C89.9718 107.893 89.49 108.341 88.7056 108.147C87.9212 107.952 87.1069 107.123 86.5691 108.195C86.2964 108.744 86.3823 109.652 85.6913 109.887C85.1684 110.067 84.5446 109.745 84.0889 110.175C83.7415 110.504 83.8573 111.344 84.4699 111.243C85.4597 111.083 84.3205 110.059 84.0366 109.869C83.2559 109.353 82.4305 108.886 81.676 108.333C81.0298 107.855 80.3649 106.529 81.7021 106.511C82.1391 106.503 82.5687 106.716 82.9235 106.951C83.7789 107.519 84.4139 108.576 84.0366 109.622C83.7079 110.526 82.8152 110.646 82.2213 111.266C81.7133 111.8 81.5714 112.651 82.2176 113.114C82.2064 113.017 82.1914 112.92 82.1802 112.819C82.0794 112.916 81.9785 113.014 81.8777 113.111C81.7133 113.283 81.9748 113.548 82.1503 113.38Z" fill="#C8CACE"/>
<path d="M87.7386 114.025C87.9851 112.558 86.5993 110.343 84.8587 110.955C84.3619 111.131 84.164 111.557 84.5114 111.986C84.8288 112.378 85.5049 112.666 85.9233 112.939C86.5919 113.372 87.2567 113.801 87.9253 114.235C87.9403 114.123 87.9552 114.007 87.9701 113.895C87.6601 114.011 87.3501 114.126 87.0401 114.242C86.9019 114.294 86.8683 114.44 86.9579 114.556C88.0262 115.897 89.9834 115.232 90.1253 113.562C90.032 113.615 89.9386 113.671 89.8452 113.723C90.3457 113.951 90.8052 113.925 91.3057 113.678C91.7128 113.476 92.0266 113.144 92.4038 112.905C92.8334 112.632 93.2741 112.554 93.7634 112.449C94.5441 112.281 95.6572 111.418 94.8093 110.608C94.7271 110.526 94.574 110.537 94.5142 110.645C94.2602 111.116 94.4843 111.639 95.0259 111.725C95.1081 111.736 95.1903 111.717 95.2351 111.639C95.7916 110.701 95.8103 109.513 95.1753 108.598C94.8317 108.101 93.9427 107.455 93.3675 108.019C92.6952 108.677 93.9016 109.775 94.3424 110.167C94.7346 110.514 95.1903 110.798 95.7169 110.873C96.3146 110.955 97.5621 110.16 97.9842 110.481C98.1747 110.626 98.3614 110.302 98.1709 110.16C97.8796 109.935 97.5883 109.921 97.2446 110.029C96.7665 110.178 96.5798 110.511 96.0008 110.522C95.4181 110.533 94.9139 110.182 94.5067 109.805C94.3013 109.614 93.7784 109.155 93.7149 108.905C93.7933 108.247 94.0324 108.064 94.432 108.363C94.6076 108.482 94.7495 108.636 94.8578 108.819C95.1305 109.2 95.2762 109.648 95.2874 110.118C95.2949 110.354 95.2687 110.589 95.2052 110.817C95.1118 111.374 94.9886 111.381 94.8354 110.843C94.7383 110.854 94.6412 110.869 94.5403 110.88C95.5451 111.844 93.1023 112.162 92.6765 112.337C91.8361 112.688 91.0778 113.887 90.0282 113.409C89.8938 113.349 89.7593 113.42 89.7481 113.57C89.6286 114.978 88.0523 115.351 87.2156 114.298C87.1895 114.403 87.1596 114.507 87.1335 114.612C87.4435 114.496 87.7535 114.38 88.0635 114.265C88.2129 114.209 88.2503 114.014 88.1083 113.925C87.5854 113.585 87.0588 113.245 86.5358 112.909C86.2333 112.714 85.0903 112.214 84.9633 111.893C85.0492 111.687 85.1314 111.482 85.2173 111.276C85.4115 111.269 85.5983 111.299 85.7813 111.359C86.1025 111.452 86.4126 111.635 86.6591 111.867C87.2343 112.412 87.5107 113.155 87.3762 113.943C87.3389 114.16 87.6975 114.265 87.7386 114.025Z" fill="#C8CACE"/>
<path d="M93.4158 99.4212C93.2888 98.9206 93.4643 98.7077 93.9387 98.775C94.0881 98.8273 94.189 98.6704 94.1703 98.5434C93.8901 96.7169 96.2172 95.8951 97.1734 97.4676C97.1958 97.3817 97.2182 97.2958 97.2406 97.2137C97.136 97.0493 97.0314 96.8887 96.9269 96.7243C96.46 96.3471 96.516 96.0259 97.0912 95.7644C97.1995 95.6897 97.3228 95.6262 97.4423 95.5702C97.8494 95.3685 98.2865 95.2116 98.7123 95.0547C99.4593 94.7858 100.218 94.5505 100.987 94.3562C101.756 94.162 102.537 94.0201 103.321 93.8856C104.02 93.7661 104.423 93.0751 104.898 92.5745C105.376 92.074 106.104 90.9721 106.758 90.7406C107.225 90.5762 107.763 90.8414 108.259 90.6248C108.801 90.3857 109.26 89.6574 108.85 89.1083C108.495 88.6302 107.751 88.7609 107.4 89.1718C106.877 89.7806 107.352 90.6547 107.979 90.9684C109.963 91.9508 112.394 89.0747 113.922 88.2044C114.643 87.7935 115.405 87.5507 116.242 87.5918C116.899 87.6254 117.564 87.7935 118.191 87.5096C119.189 87.0577 119.842 85.1602 121.049 85.3582C121.284 85.3955 121.385 85.0369 121.15 84.9996C120.212 84.8427 119.685 85.5337 119.133 86.1874C118.535 86.8933 118.064 87.3079 117.06 87.2967C116.357 87.2893 115.734 87.1548 115.039 87.3341C113.851 87.6366 112.869 88.4397 111.909 89.1568C111.345 89.5789 110.777 90.0085 110.153 90.3334C109.641 90.5986 108.962 90.9049 108.364 90.7144C107.4 90.2886 107.456 90.0309 108.525 89.9375C108.076 90.3409 107.583 90.4604 107.045 90.2998C106.384 90.2102 106.276 90.5837 105.79 91.0954C105.141 91.779 104.491 92.6978 103.732 93.2581C103.082 93.7362 101.999 93.7325 101.219 93.9192C100.337 94.1284 99.4668 94.3898 98.6114 94.6999C97.7822 95.0024 96.1425 95.4432 96.1275 96.5824C96.1163 97.2846 96.7775 97.8225 97.4236 97.5424C97.517 97.5013 97.5394 97.3631 97.4909 97.2884C96.3068 95.3423 93.4606 96.4218 93.8042 98.6517C93.8827 98.5733 93.9574 98.4986 94.0358 98.4201C93.3261 98.1624 92.6874 98.9841 93.0945 99.6154C93.2215 99.8096 93.5465 99.6229 93.4158 99.4212Z" fill="#C8CACE"/>
<path d="M127.051 82.463C129.039 81.9886 130.899 81.2005 132.621 80.1061C132.822 79.9791 132.636 79.6541 132.434 79.7848C130.738 80.8643 128.908 81.6375 126.951 82.1044C126.719 82.1604 126.82 82.519 127.051 82.463Z" fill="#C8CACE"/>
<path d="M100.057 102.745C100.049 101.96 100.445 101.239 101.133 100.843C101.786 100.47 102.298 100.66 102.993 100.683C103.303 100.69 103.572 100.683 103.837 100.507C104.124 100.313 104.797 98.9871 105.238 99.4465C105.346 99.5586 105.566 99.4764 105.555 99.3158C105.469 98.0234 106.918 97.4071 107.789 98.3745C107.878 98.2849 107.964 98.1989 108.054 98.1093C107.314 97.4146 107.912 96.294 108.7 95.9541C109.753 95.4947 110.982 96.1745 111.897 96.66C111.886 96.5629 111.871 96.4658 111.86 96.365C111.389 96.6862 110.997 96.6451 110.683 96.2417C110.672 96.3388 110.657 96.4359 110.646 96.5368C111.501 96.0213 112.439 95.674 113.44 95.5918C114.333 95.5171 114.146 95.4461 114.785 94.7626C116.07 93.3843 117.795 92.8203 119.644 92.8614C120.783 92.8875 122.382 92.9099 122.954 91.6661C123.308 90.8892 122.909 89.933 122.068 89.7425C121.829 89.6864 121.751 90.0114 121.967 90.1011C122.961 90.5119 124.044 89.7238 123.988 88.6593C123.977 88.4202 123.6 88.4202 123.615 88.6593C123.659 89.4885 122.815 90.0525 122.068 89.7425C122.035 89.862 122.001 89.9815 121.967 90.1011C122.711 90.2691 122.827 91.0162 122.52 91.5914C122.281 92.0359 121.882 92.2525 121.403 92.387C120.6 92.6148 119.752 92.443 118.931 92.4766C117.93 92.5177 116.951 92.7941 116.073 93.2797C115.618 93.5337 115.192 93.8437 114.811 94.1986C114.467 94.5198 114.209 95.0577 113.743 95.1959C113.253 95.3415 112.682 95.2967 112.178 95.4386C111.565 95.6105 110.997 95.8794 110.456 96.2081C110.347 96.2753 110.34 96.4098 110.418 96.5032C110.878 97.0522 111.587 97.0821 112.121 96.6264C112.211 96.5517 112.185 96.3874 112.084 96.3313C110.919 95.715 109.227 94.8858 108.046 95.913C107.326 96.5368 107.038 97.6648 107.789 98.3708C107.964 98.5351 108.214 98.2849 108.054 98.1056C106.963 96.8916 105.077 97.6798 105.185 99.312C105.29 99.2672 105.398 99.2224 105.503 99.1813C105.204 98.8675 104.789 98.89 104.446 99.1477C104.233 99.3083 104.128 99.5361 103.986 99.7528C103.493 100.5 102.854 100.212 102.107 100.208C100.737 100.201 99.6796 101.419 99.6908 102.741C99.687 102.987 100.061 102.987 100.057 102.745Z" fill="#C8CACE"/>
<path d="M106.829 105.812C106.209 105.057 106.239 104.628 106.926 104.523C107.105 104.505 107.285 104.49 107.464 104.471C107.807 104.463 108.151 104.531 108.495 104.534C109.025 104.542 109.518 104.471 110.019 104.284C111.065 103.888 111.92 103.141 112.835 102.525C115.069 101.016 117.68 100.258 120.272 99.6413C122.386 99.1408 124.664 98.715 126.409 97.3292C127.906 96.1414 128.713 93.3326 130.809 93.1421C131.048 93.1197 131.048 92.7461 130.809 92.7685C129.759 92.8657 129.049 93.4932 128.422 94.3C127.518 95.4654 126.838 96.683 125.542 97.4824C122.89 99.1221 119.491 99.279 116.589 100.291C115.106 100.807 113.694 101.475 112.402 102.372C111.827 102.771 111.274 103.212 110.665 103.56C109.701 104.105 108.891 104.153 107.811 104.112C107.038 104.082 105.753 104.243 105.663 105.263C105.6 105.987 106.407 106.551 107.023 106.133C107.214 105.999 107.027 105.674 106.829 105.812Z" fill="#C8CACE"/>
<path d="M138.328 87.7629C140.139 87.2662 141.82 86.4818 143.363 85.406C143.557 85.2716 143.374 84.9466 143.176 85.0848C141.659 86.1381 140.012 86.9113 138.23 87.4044C137.999 87.4641 138.096 87.8264 138.328 87.7629Z" fill="#C8CACE"/>
<path d="M132.669 84.7149C133.311 83.7848 134.779 84.8605 135.56 84.1098C136.158 83.5383 135.75 82.6941 135.403 82.1077C135.351 82.2011 135.295 82.2945 135.242 82.3878C137.073 82.2534 138.724 81.5138 140.046 80.2364C140.218 80.0683 139.956 79.8031 139.781 79.9712C138.529 81.1814 136.979 81.8836 135.242 82.0106C135.104 82.0218 135.003 82.1637 135.082 82.2907C135.186 82.4663 135.433 82.7838 135.426 82.9817C135.414 83.3478 134.783 83.9977 134.454 84.0425C134.107 84.0911 133.722 83.9342 133.364 83.9641C132.915 83.9977 132.602 84.1508 132.344 84.5206C132.21 84.7223 132.531 84.9091 132.669 84.7149Z" fill="#C8CACE"/>
<path d="M146.366 65.9319C146.366 65.4239 138.777 59.2571 137.592 58.6856C136.408 58.1141 114.748 62.3722 114.748 62.3722L109.616 72.6701L114.24 89.2693L108.649 99.9893C107.506 102.186 108.365 104.916 110.557 106.063L111.252 106.425C113.448 107.568 116.179 106.709 117.325 104.516L123.746 92.2052C124.889 90.0089 124.03 87.2785 121.837 86.1318C121.837 86.1318 146.366 66.4398 146.366 65.9319Z" fill="#D88965"/>
<path d="M135.236 103.489H134.451C131.975 103.489 129.95 101.464 129.95 98.9876V85.1039C129.95 82.6275 131.975 80.603 134.451 80.603H135.236C137.712 80.603 139.737 82.6275 139.737 85.1039V98.9876C139.737 101.464 137.712 103.489 135.236 103.489Z" fill="#D88965"/>
<path d="M125.076 108.595H124.291C121.815 108.595 119.791 106.571 119.791 104.094V90.2104C119.791 87.7339 121.815 85.7095 124.291 85.7095H125.076C127.552 85.7095 129.577 87.7339 129.577 90.2104V104.094C129.577 106.571 127.552 108.595 125.076 108.595Z" fill="#D88965"/>
<path d="M130.843 45.9896L114.651 53.2807C107.558 57.1355 102.011 63.6832 99.9268 71.5944L96.4083 84.9477C95.4596 88.5484 98.6644 91.8951 102.295 91.0734C103.341 90.8381 104.45 90.3824 105.586 89.6092C109.048 87.2523 110.923 83.674 111.913 79.5615C113.288 73.8616 117.094 69.0544 122.289 66.3352C127.552 63.5787 133.678 62.9661 139.385 64.6208L147.745 67.0412L160.676 53.7551L150.535 47.6406C144.678 44.1071 137.454 43.6738 130.843 45.9896Z" fill="#E99670"/>
<path d="M153.869 23.0824L94.2546 101.84L102.063 107.751L161.677 28.9929L153.869 23.0824Z" fill="#5A74C7"/>
<path d="M155.824 24.5527L159.727 27.5073L162.54 23.7907C163.358 22.7113 163.145 21.1761 162.066 20.3618C160.986 19.5438 159.451 19.7567 158.637 20.8362L155.824 24.5527Z" fill="#573652"/>
<path d="M147.36 29.1431C142.265 28.6276 137.271 30.8052 134.182 34.8878L119.141 54.759C120.691 55.9318 122.898 55.6256 124.071 54.0755L136.823 37.2335C138.149 35.4854 140.454 34.7981 142.519 35.5414L147.36 29.1431Z" fill="#573652"/>
<path d="M102.074 107.758L94.264 101.845L92.2096 108.815C91.5597 111.015 93.9801 112.845 95.9224 111.623L102.074 107.758Z" fill="#573652"/>
<path d="M99.1912 95.3381L107.001 101.247L123.47 79.6615L115.66 73.7524L99.1912 95.3381Z" fill="#573652"/>
<path d="M139.105 42.6162L146.96 48.5626C147.622 49.0631 148.563 48.9324 149.063 48.2713L159.081 34.959C159.582 34.2979 159.451 33.3567 158.79 32.8561L150.935 26.9097C150.274 26.4092 149.332 26.5399 148.832 27.2011L138.814 40.5133C138.313 41.1744 138.444 42.1157 139.105 42.6162Z" fill="#573652"/>
<path d="M306.367 144.651L192.414 105.82C187.842 104.412 183.083 103.717 178.298 103.717C169.988 103.721 165.031 103.792 151.861 95.1374C148.451 92.8962 144.48 91.6562 140.398 91.6636H139.52C135.467 91.6711 131.485 92.7767 128.019 94.8722C123.623 97.5316 117.508 100.975 114.404 101.573C111.506 102.13 107.95 102.384 105.066 101.289C101.533 99.952 101.014 95.1448 104.121 92.9971L130.245 74.9412C131.997 73.731 133.51 72.2108 134.709 70.4552L150.161 47.8872L174.81 62.1743C180.711 65.7339 187.181 68.2552 193.934 69.6372L306.367 87.0843V144.651Z" fill="#E99670"/>
<path d="M135.314 63.828C135.314 63.828 138.571 64.8216 136.64 67.6416L139.733 63.1221L135.314 63.828Z" fill="#995037"/>
</svg>
