<svg width="50" height="50" viewBox="0 0 50 50" fill="none" xmlns="http://www.w3.org/2000/svg">
<path d="M34.8014 5.4541C34.0747 5.4541 33.6478 5.82347 33.3607 6.11275L29.9934 9.4609L28.3241 7.9931C27.4038 7.07251 26.1906 6.61319 24.9843 6.61319C23.7781 6.61319 22.5064 7.1467 21.586 8.06729L11.8953 17.7482C11.133 18.5104 11.1657 19.7614 11.9282 20.5237C12.6905 21.2878 13.9643 21.2546 14.7269 20.4904L24.3884 10.8154C24.704 10.4988 25.1964 10.3581 25.5797 10.7568L27.2043 12.2305L15.729 23.7037C13.79 25.6445 12.0069 28.2597 10.2992 31.3381C8.99208 33.6934 7.78273 36.2167 6.76063 38.7283C6.40332 39.6059 5.45453 42.1468 5.45453 42.6139C5.45453 43.0791 5.60797 43.515 5.90664 43.859C5.93616 43.8922 6.51239 44.5274 7.41193 44.545L34.7029 44.5294C35.7811 44.5294 36.6552 43.6557 36.6552 42.5748C36.6552 41.4959 35.7811 40.6203 34.7029 40.6203L17.0201 40.6242C17.6203 40.3193 18.2302 39.9968 18.8127 39.6723C21.8866 37.9641 24.3983 36.1991 26.3344 34.2602L39.0347 21.626L43.9154 16.679C44.1926 16.3976 44.5445 16.1025 44.5454 15.2171C44.5501 11.3529 42.9731 8.98992 42.0112 8.00287C41.0493 7.01778 38.7063 5.45803 34.8014 5.4541ZM35.5178 9.44337C36.3362 9.41796 38.3521 9.89087 39.226 10.7196C40.0999 11.5503 40.6029 13.7062 40.5749 14.5212L38.1255 16.9683L32.8769 12.123L35.5178 9.44337Z" fill="#ED5C18"/>
</svg>
