<svg width="50" height="46" viewBox="0 0 50 46" fill="none" xmlns="http://www.w3.org/2000/svg">
<path d="M25.0834 7.06348C17.0137 7.06348 10.472 13.06 10.472 20.4572V28.4617L8.75007 30.0401C8.05361 30.6786 7.84526 31.6387 8.22218 32.4729C8.59911 33.307 9.48708 33.8509 10.472 33.8509H39.6947C40.6796 33.8509 41.5676 33.307 41.9445 32.4729C42.3214 31.6387 42.1131 30.6786 41.4166 30.0401L39.6947 28.4617V20.4572C39.6947 13.06 33.153 7.06348 25.0834 7.06348Z" fill="#ED5C18"/>
<path d="M25.0833 42.78C21.0485 42.78 17.7776 39.7817 17.7776 36.0832H32.3889C32.3889 39.7817 29.1181 42.78 25.0833 42.78Z" fill="#ED5C18"/>
<path d="M38.2684 9.02198C38.2684 11.6225 35.9268 13.9483 32.7579 13.9483C29.589 13.9483 27.2474 11.6225 27.2474 9.02198C27.2474 6.42146 29.589 4.0957 32.7579 4.0957C35.9268 4.0957 38.2684 6.42146 38.2684 9.02198Z" fill="#ED5C18" stroke="#FEF9F4" stroke-width="3"/>
</svg>
