<svg width="55" height="55" viewBox="0 0 55 55" fill="none" xmlns="http://www.w3.org/2000/svg">
<path d="M27.5 5.5C25.9812 5.5 24.75 6.73122 24.75 8.25V11C24.75 12.5188 25.9812 13.75 27.5 13.75C29.0188 13.75 30.25 12.5188 30.25 11V8.25C30.25 6.73122 29.0188 5.5 27.5 5.5Z" fill="#ED5C18"/>
<path fill-rule="evenodd" clip-rule="evenodd" d="M11 11H19.25C19.25 15.5563 22.9437 19.25 27.5 19.25C32.0564 19.25 35.75 15.5563 35.75 11H44C47.0376 11 49.5 13.4624 49.5 16.5V41.25C49.5 44.2876 47.0376 46.75 44 46.75H11C7.96243 46.75 5.5 44.2876 5.5 41.25V16.5C5.5 13.4624 7.96243 11 11 11ZM17.875 30.25C20.1532 30.25 22 28.4032 22 26.125C22 23.8468 20.1532 22 17.875 22C15.5968 22 13.75 23.8468 13.75 26.125C13.75 28.4032 15.5968 30.25 17.875 30.25ZM24.6138 41.25C24.704 40.8057 24.7513 40.3459 24.7513 39.875C24.7513 36.078 21.6733 33 17.8763 33C14.0794 33 11.0013 36.078 11.0013 39.875C11.0013 40.3459 11.0487 40.8057 11.1389 41.25H24.6138ZM33 24.75C31.4812 24.75 30.25 25.9812 30.25 27.5C30.25 29.0188 31.4812 30.25 33 30.25H41.25C42.7688 30.25 44 29.0188 44 27.5C44 25.9812 42.7688 24.75 41.25 24.75H33ZM30.25 35.75C30.25 34.2312 31.4812 33 33 33H38.5C40.0188 33 41.25 34.2312 41.25 35.75C41.25 37.2688 40.0188 38.5 38.5 38.5H33C31.4812 38.5 30.25 37.2688 30.25 35.75Z" fill="#ED5C18"/>
</svg>
