<svg width="55" height="55" viewBox="0 0 55 55" fill="none" xmlns="http://www.w3.org/2000/svg">
<path d="M14.7645 11C10.4528 11 7.07814 12.0896 6.48248 16.2337C6.2917 17.5607 6.71138 18.8666 7.6759 19.8099C8.15498 20.2783 8.66161 20.8358 9.33146 21.3997C11.0125 22.8178 13.1556 24.4119 15.1609 25.8385C20.6787 29.7602 25.035 32.1979 27.6147 32.1979C30.1945 32.1979 34.5507 29.7602 40.0685 25.8385C42.076 24.4119 44.2191 22.8157 45.8979 21.3997C46.5678 20.8358 47.0744 20.2804 47.5535 19.8099C48.518 18.8666 48.9377 17.5607 48.7469 16.2337C48.1513 12.0896 44.7766 11 40.4649 11H14.7645ZM6.41675 24.0494V36.4375C6.41675 41.1201 10.2133 44.9167 14.8959 44.9167H40.3335C45.0161 44.9167 48.8127 41.1201 48.8127 36.4375V24.0494C47.0744 25.7008 45.1327 27.4051 42.3876 29.3489C36.3758 33.6055 30.9767 36.4375 27.6147 36.4375C24.2528 36.4375 18.8536 33.6055 12.8419 29.3489C10.0946 27.4051 8.15498 25.7008 6.41675 24.0494Z" fill="#00A850"/>
</svg>
