<svg width="55" height="55" viewBox="0 0 55 55" fill="none" xmlns="http://www.w3.org/2000/svg">
<path fill-rule="evenodd" clip-rule="evenodd" d="M20.0521 15.4688C20.0521 11.3554 23.3866 8.02087 27.5 8.02087C31.6134 8.02087 34.9479 11.3554 34.9479 15.4688V18.3334H20.0521V15.4688ZM16.6146 18.4942V15.4688C16.6146 9.45694 21.4882 4.58337 27.5 4.58337C33.5119 4.58337 38.3854 9.45694 38.3854 15.4688V18.4942C42.6265 19.2987 45.8334 23.0249 45.8334 27.5V41.25C45.8334 46.3126 41.7293 50.4167 36.6667 50.4167H18.3334C13.2707 50.4167 9.16669 46.3126 9.16669 41.25V27.5C9.16669 23.0249 12.3735 19.2987 16.6146 18.4942ZM27.5 30.3646C28.4493 30.3646 29.2188 31.1341 29.2188 32.0834V36.6667C29.2188 37.6159 28.4493 38.3855 27.5 38.3855C26.5508 38.3855 25.7813 37.6159 25.7813 36.6667V32.0834C25.7813 31.1341 26.5508 30.3646 27.5 30.3646Z" fill="#ED5C18"/>
</svg>
