<svg width="50" height="50" viewBox="0 0 50 50" fill="none" xmlns="http://www.w3.org/2000/svg">
<path fill-rule="evenodd" clip-rule="evenodd" d="M17.4998 5C18.8805 5 19.9998 6.11929 19.9998 7.5V10H21.8304C21.8598 9.99948 21.8893 9.99948 21.9189 10H27.4998C28.8805 10 29.9998 11.1193 29.9998 12.5C29.9998 13.8807 28.8805 15 27.4998 15H23.9448C23.0407 19.2187 21.5767 23.2288 19.6349 26.9491C20.3619 27.8345 21.1239 28.6901 21.919 29.5137C22.8779 30.5071 22.85 32.0897 21.8566 33.0487C20.8632 34.0076 19.2806 33.9797 18.3216 32.9863C17.8489 32.4966 17.3865 31.9967 16.9349 31.4869C14.7222 34.7752 12.1095 37.771 9.16711 40.4044C8.13829 41.3253 6.5578 41.2377 5.63699 40.2089C4.71617 39.1801 4.80372 37.5996 5.83254 36.6788C8.86528 33.9644 11.5052 30.8221 13.6575 27.3473C12.2664 25.3748 11.0215 23.2913 9.93876 21.1126C9.32429 19.8761 9.82851 18.3757 11.065 17.7612C12.3014 17.1468 13.8019 17.651 14.4163 18.8874C15.0003 20.0626 15.6372 21.2069 16.3238 22.3175C17.3673 19.9818 18.206 17.535 18.8172 15H7.49983C6.11911 15 4.99983 13.8807 4.99983 12.5C4.99983 11.1193 6.11911 10 7.49983 10H14.9998V7.5C14.9998 6.11929 16.1191 5 17.4998 5ZM32.4998 20C33.4468 20 34.3124 20.535 34.7359 21.382L42.2134 36.337C42.2296 36.3677 42.2452 36.3989 42.2601 36.4304L44.7359 41.382C45.3534 42.6169 44.8528 44.1186 43.6179 44.7361C42.3829 45.3535 40.8812 44.853 40.2638 43.618L38.4547 40H26.5449L24.7359 43.618C24.1184 44.853 22.6167 45.3535 21.3818 44.7361C20.1468 44.1186 19.6463 42.6169 20.2638 41.382L22.7395 36.4304C22.7545 36.3989 22.7701 36.3677 22.7863 36.337L30.2638 21.382C30.6872 20.535 31.5529 20 32.4998 20ZM29.0449 35H35.9547L32.4998 28.0902L29.0449 35Z" fill="#ED5C18"/>
</svg>
