<svg width="343" height="500" viewBox="0 0 343 500" fill="none" xmlns="http://www.w3.org/2000/svg">
<rect x="8" y="8" width="327" height="484" rx="48" fill="#FCFCFC" stroke="#E2E2E2" stroke-width="15"/>
<path d="M204.406 77.8543V80.4109C204.445 80.9159 204.288 81.4167 203.968 81.8093C203.827 81.9611 203.655 82.0812 203.463 82.1614C203.272 82.2416 203.066 82.2802 202.858 82.2745C202.654 82.2805 202.45 82.2413 202.262 82.16C202.074 82.0786 201.907 81.9569 201.771 81.8035C201.46 81.4095 201.308 80.9133 201.345 80.4128V71.8864C201.345 70.5113 201.842 69.8235 202.836 69.8231C203.045 69.8045 203.255 69.8389 203.447 69.9231C203.64 70.0074 203.807 70.1387 203.935 70.3049C204.19 70.7354 204.318 71.2288 204.305 71.7287C204.597 71.1935 204.978 70.712 205.432 70.3049C205.872 69.9656 206.419 69.7947 206.974 69.8231C207.628 69.8262 208.271 69.9918 208.846 70.3049C209.105 70.4075 209.328 70.5829 209.49 70.8099C209.651 71.0368 209.743 71.3057 209.754 71.5838C209.759 71.7567 209.727 71.9287 209.661 72.0883C209.594 72.2479 209.494 72.3914 209.367 72.5093C209.148 72.7358 208.848 72.8667 208.532 72.8735C208.254 72.8343 207.982 72.7649 207.719 72.6663C207.353 72.5391 206.969 72.4692 206.581 72.4591C206.184 72.4421 205.794 72.5674 205.482 72.8125C205.168 73.0937 204.939 73.4566 204.82 73.8607C204.649 74.3972 204.54 74.9518 204.495 75.5133C204.435 76.1545 204.405 76.9348 204.406 77.8543Z" fill="#EF4B46"/>
<path d="M136.545 67.4595L140.267 78.4801L144.002 67.3794C144.196 66.7963 144.341 66.3908 144.439 66.1628C144.547 65.9211 144.712 65.7094 144.921 65.5463C145.186 65.3499 145.511 65.2525 145.84 65.271C146.118 65.2696 146.391 65.3432 146.631 65.484C146.867 65.6197 147.064 65.815 147.203 66.0503C147.335 66.2647 147.407 66.5109 147.41 66.7629C147.409 66.9422 147.386 67.1207 147.343 67.2949C147.298 67.485 147.242 67.6722 147.175 67.8555C147.108 68.0386 147.041 68.2274 146.973 68.4219L142.993 79.1641C142.85 79.5751 142.708 79.9656 142.566 80.3356C142.438 80.678 142.273 81.0053 142.073 81.3113C141.882 81.5967 141.626 81.8335 141.327 82.0028C140.978 82.1917 140.585 82.2845 140.188 82.2717C139.792 82.2843 139.4 82.1936 139.05 82.0085C138.748 81.8401 138.49 81.6016 138.299 81.3132C138.097 81.0052 137.93 80.6763 137.8 80.3324C137.658 79.9663 137.516 79.5775 137.373 79.166L133.461 68.514C133.394 68.3195 133.324 68.1288 133.254 67.942C133.18 67.7447 133.12 67.5425 133.074 67.3368C133.03 67.156 133.005 66.9708 133 66.7845C133.003 66.5887 133.045 66.3954 133.124 66.2162C133.203 66.0371 133.318 65.8756 133.46 65.7414C133.609 65.587 133.789 65.4654 133.988 65.3844C134.187 65.3033 134.4 65.2645 134.615 65.2704C134.844 65.2469 135.075 65.2825 135.287 65.3737C135.498 65.465 135.683 65.6088 135.823 65.7916C136.136 66.3135 136.378 66.8743 136.545 67.4595Z" fill="#F17A39"/>
<path d="M169.499 73.3336L163.893 79.6016H169.892C170.288 79.5728 170.68 79.6953 170.989 79.9442C171.111 80.0556 171.207 80.192 171.271 80.3439C171.334 80.4959 171.365 80.6598 171.359 80.8245C171.364 80.9829 171.334 81.1404 171.271 81.2858C171.208 81.4312 171.114 81.5608 170.995 81.6655C170.679 81.9058 170.286 82.0216 169.89 81.9909H161.594C161.127 82.027 160.662 81.8914 160.288 81.6095C160.036 81.3784 159.882 81.0594 159.859 80.7183C159.835 80.3772 159.943 80.0401 160.161 79.7764C160.363 79.5111 160.782 79.0238 161.417 78.3144C162.09 77.5673 162.701 76.8908 163.251 76.2848C163.8 75.6789 164.31 75.1125 164.781 74.5858C165.252 74.0591 165.642 73.6124 165.953 73.2459C166.263 72.8793 166.511 72.5653 166.698 72.3039H162.146C161.665 72.3231 161.185 72.2662 160.722 72.1354C160.4 72.0236 160.239 71.7282 160.24 71.2494C160.234 71.0908 160.263 70.9329 160.326 70.7872C160.389 70.6416 160.484 70.5121 160.604 70.4084C160.9 70.1814 161.267 70.069 161.639 70.0919H168.67C169.185 70.064 169.699 70.1621 170.167 70.3779C170.343 70.4813 170.485 70.633 170.578 70.8149C170.67 70.9968 170.708 71.2014 170.688 71.4044C170.686 71.5787 170.652 71.751 170.587 71.913C170.532 72.066 170.456 72.2111 170.363 72.3445C170.28 72.4564 170.168 72.5929 170.026 72.7539C169.883 72.9149 169.708 73.1082 169.499 73.3336Z" fill="#F48046"/>
<path d="M174.691 68.4019C174.291 68.4113 173.901 68.2715 173.598 68.0098C173.454 67.8669 173.339 67.6967 173.261 67.509C173.184 67.3214 173.144 67.1201 173.145 66.9169C173.146 66.7138 173.188 66.5129 173.267 66.3261C173.347 66.1392 173.463 65.9702 173.609 65.8289C173.903 65.5557 174.289 65.4053 174.69 65.4087C175.076 65.4049 175.45 65.5403 175.745 65.7901C175.901 65.9276 176.024 66.0991 176.104 66.2915C176.183 66.4839 176.218 66.6921 176.204 66.8999C176.215 67.1057 176.181 67.3113 176.103 67.5022C176.026 67.6931 175.907 67.8644 175.755 68.004C175.464 68.2666 175.084 68.4088 174.691 68.4019ZM176.205 71.5642V80.4122C176.242 80.9146 176.085 81.4122 175.767 81.803C175.627 81.9566 175.455 82.0781 175.264 82.1594C175.072 82.2407 174.866 82.2798 174.658 82.274C174.451 82.2806 174.245 82.2407 174.056 82.1573C173.867 82.0739 173.699 81.9492 173.564 81.7922C173.261 81.3992 173.111 80.9085 173.144 80.4129V71.6538C173.107 71.1613 173.257 70.6729 173.564 70.286C173.702 70.1347 173.872 70.0153 174.06 69.9359C174.249 69.8566 174.453 69.8192 174.658 69.8264C174.865 69.8203 175.07 69.8581 175.262 69.9373C175.453 70.0165 175.625 70.1353 175.767 70.286C176.076 70.6379 176.233 71.0971 176.205 71.5642H176.205Z" fill="#F07A4F"/>
<path d="M179.535 70.0946H179.872V68.2563C179.872 67.7631 179.885 67.3762 179.911 67.0957C179.929 66.8412 180.004 66.5941 180.13 66.3723C180.253 66.1598 180.431 65.9843 180.646 65.8638C180.874 65.7318 181.133 65.6639 181.397 65.6674C181.792 65.6698 182.17 65.8265 182.451 66.1041C182.657 66.2926 182.797 66.5425 182.849 66.8166C182.914 67.2113 182.942 67.6111 182.933 68.011V70.0965H184.055C184.412 70.0717 184.766 70.1816 185.047 70.4048C185.158 70.5035 185.247 70.6255 185.306 70.7621C185.365 70.8988 185.393 71.0467 185.389 71.1955C185.403 71.3716 185.364 71.548 185.277 71.7018C185.191 71.8557 185.06 71.98 184.901 72.0587C184.46 72.246 183.982 72.3305 183.503 72.306H182.931V77.9351C182.926 78.3038 182.942 78.6725 182.982 79.0392C183.004 79.2714 183.098 79.4909 183.251 79.6672C183.346 79.7552 183.458 79.8221 183.581 79.8637C183.703 79.9052 183.834 79.9203 183.962 79.9081C184.208 79.9 184.452 79.868 184.692 79.8128C184.927 79.7581 185.167 79.7262 185.409 79.7174C185.535 79.719 185.658 79.7462 185.773 79.7972C185.888 79.8482 185.991 79.9221 186.076 80.0143C186.173 80.1099 186.249 80.2243 186.301 80.3506C186.352 80.4768 186.377 80.6122 186.373 80.7484C186.369 80.9967 186.29 81.2378 186.146 81.44C186.001 81.6422 185.799 81.796 185.566 81.8811C184.83 82.1793 184.038 82.3132 183.245 82.2733C182.489 82.3214 181.735 82.1543 181.07 81.7915C180.588 81.4864 180.241 81.009 180.1 80.4567C179.927 79.7107 179.85 78.9459 179.87 78.1805V72.304H179.467C179.103 72.3292 178.743 72.2172 178.458 71.99C178.345 71.8909 178.256 71.7683 178.196 71.6308C178.136 71.4933 178.106 71.3442 178.11 71.1942C178.107 71.0433 178.138 70.8936 178.201 70.7565C178.264 70.6195 178.358 70.4987 178.475 70.4035C178.78 70.178 179.156 70.0685 179.535 70.0946Z" fill="#EB674C"/>
<path d="M198.956 76.0492C198.965 76.9089 198.82 77.7632 198.529 78.5721C198.263 79.3136 197.843 79.9902 197.296 80.5572C196.751 81.1139 196.094 81.5474 195.368 81.8284C194.562 82.1349 193.706 82.2858 192.845 82.2734C191.99 82.2867 191.141 82.1343 190.344 81.8246C189.617 81.5366 188.96 81.0972 188.415 80.5357C187.871 79.9741 187.453 79.3033 187.188 78.5676C186.899 77.7602 186.757 76.9079 186.767 76.0505C186.757 75.1844 186.902 74.3235 187.194 73.508C187.457 72.7723 187.874 72.1007 188.416 71.5375C188.96 70.983 189.618 70.5528 190.344 70.2764C191.966 69.6843 193.745 69.6863 195.366 70.2821C196.097 70.5634 196.759 70.9997 197.306 71.561C197.853 72.1223 198.272 72.7955 198.534 73.534C198.822 74.341 198.965 75.1925 198.956 76.0492ZM195.884 76.0492C195.946 75.0119 195.655 73.9841 195.057 73.1336C194.798 72.7962 194.461 72.5256 194.076 72.3442C193.691 72.1628 193.268 72.0758 192.843 72.0905C192.28 72.0798 191.728 72.2425 191.261 72.5564C190.781 72.8984 190.414 73.3767 190.207 73.9294C189.716 75.2915 189.714 76.7822 190.202 78.1456C190.408 78.6954 190.771 79.1729 191.245 79.5192C191.714 79.8418 192.273 80.0084 192.843 79.9953C193.269 80.01 193.692 79.9226 194.077 79.7402C194.463 79.5579 194.799 79.2859 195.057 78.9471C195.652 78.1021 195.943 77.0808 195.884 76.0492Z" fill="#EE5449"/>
<path d="M151.542 71.2047C151.153 71.5058 150.784 71.8301 150.434 72.1759C150.254 72.3972 150.134 72.6623 150.089 72.9444C149.965 73.629 149.898 74.3243 149.802 75.014C149.777 75.1914 149.683 75.352 149.541 75.4613C149.4 75.5706 149.22 75.62 149.042 75.5988C148.951 75.5913 148.862 75.565 148.782 75.5215C148.701 75.4781 148.63 75.4184 148.574 75.3463C148.517 75.2742 148.476 75.1912 148.454 75.1025C148.431 75.0138 148.427 74.9214 148.441 74.8309C148.547 73.9271 148.664 73.0251 148.772 72.1212C148.812 71.7771 148.984 71.4621 149.253 71.2441C149.852 70.7356 150.443 70.2232 151.055 69.7332C151.638 69.2303 152.387 68.9607 153.157 68.9761C153.411 68.9629 153.663 69.0274 153.88 69.161C154.097 69.2947 154.268 69.4911 154.37 69.7243C154.665 70.342 154.914 70.9806 155.115 71.635C155.189 71.9417 155.338 72.2256 155.547 72.4617C155.756 72.6978 156.02 72.8791 156.316 72.9895C156.837 73.2113 157.346 73.4624 157.857 73.7078C158.015 73.78 158.138 73.9113 158.201 74.0735C158.263 74.2357 158.259 74.4159 158.19 74.5754C158.158 74.655 158.11 74.7271 158.049 74.7871C157.987 74.8472 157.914 74.894 157.834 74.9245C157.754 74.9551 157.668 74.9687 157.582 74.9647C157.497 74.9606 157.413 74.9389 157.336 74.9009C156.5 74.5214 155.655 74.1508 154.843 73.723C154.58 73.5334 154.354 73.2963 154.178 73.0238C154.097 72.8817 154.004 72.7469 153.899 72.6208C153.786 73.1707 153.709 73.7326 153.55 74.2684C153.482 74.4879 153.469 74.7204 153.511 74.9461C153.553 75.1718 153.649 75.384 153.791 75.5645C154.878 77.219 155.928 78.906 156.985 80.5879C157.065 80.6945 157.122 80.8166 157.153 80.9465C157.183 81.0764 157.186 81.2111 157.161 81.3422C157.136 81.4732 157.085 81.5977 157.009 81.7076C156.934 81.8175 156.836 81.9105 156.723 81.9807C156.609 82.0508 156.483 82.0965 156.35 82.115C156.218 82.1334 156.084 82.1241 155.956 82.0876C155.827 82.0512 155.708 81.9885 155.605 81.9034C155.503 81.8183 155.419 81.7127 155.359 81.5935C154.506 80.2408 153.646 78.8933 152.793 77.5413C152.198 76.598 151.602 75.6547 151.024 74.7006C150.938 74.546 150.906 74.3668 150.935 74.1921C151.116 73.226 151.322 72.2611 151.542 71.2047Z" fill="#444444"/>
<path d="M156.194 82.3313C155.984 82.3271 155.779 82.2667 155.6 82.1562C155.421 82.0458 155.275 81.8893 155.177 81.7033C154.736 81.0028 154.293 80.3036 153.848 79.6057C153.436 78.9552 153.023 78.3043 152.611 77.653L152.584 77.6098C152.007 76.6958 151.41 75.7499 150.84 74.8086C150.728 74.6104 150.687 74.3798 150.724 74.1551C150.86 73.4324 151.008 72.7141 151.169 71.9546L151.212 71.7512C150.99 71.9244 150.781 72.1141 150.588 72.3188C150.433 72.5107 150.331 72.74 150.293 72.9837C150.215 73.4153 150.16 73.8608 150.106 74.2931C150.074 74.5441 150.042 74.7952 150.007 75.0463C149.973 75.2779 149.85 75.4873 149.665 75.6297C149.479 75.7722 149.245 75.8365 149.012 75.809C148.894 75.798 148.779 75.7629 148.674 75.7058C148.57 75.6487 148.478 75.5709 148.404 75.4771C148.331 75.3834 148.277 75.2756 148.247 75.1604C148.217 75.0452 148.21 74.9251 148.228 74.8073C148.289 74.2814 148.353 73.7557 148.419 73.2303C148.466 72.8527 148.513 72.4745 148.558 72.0969C148.604 71.698 148.805 71.3329 149.117 71.0799L149.597 70.6725C150.027 70.3057 150.472 69.9269 150.922 69.5665C151.544 69.0293 152.344 68.7426 153.166 68.7624C153.46 68.749 153.751 68.8254 154.001 68.9815C154.251 69.1376 154.447 69.366 154.564 69.6364L154.642 69.8131C154.912 70.3831 155.138 70.9725 155.319 71.5764C155.385 71.8524 155.518 72.1077 155.707 72.3199C155.895 72.532 156.133 72.6943 156.4 72.7923C156.835 72.9779 157.267 73.1858 157.684 73.3866L157.949 73.5138C158.157 73.6099 158.319 73.7833 158.4 73.9971C158.482 74.2109 158.476 74.448 158.385 74.6579C158.342 74.763 158.277 74.8582 158.196 74.9375C158.114 75.0169 158.018 75.0787 157.911 75.1193C157.805 75.1599 157.691 75.1783 157.578 75.1735C157.464 75.1687 157.353 75.1408 157.25 75.0914L156.939 74.9516C156.213 74.6249 155.462 74.2873 154.745 73.9072C154.506 73.7575 154.302 73.558 154.147 73.3224C154.103 73.2652 154.059 73.208 154.015 73.154L154.012 73.1483V73.1572C153.947 73.5504 153.86 73.9398 153.753 74.3236C153.695 74.5137 153.684 74.7152 153.721 74.9105C153.759 75.1058 153.844 75.2888 153.969 75.4436C154.868 76.8191 155.757 78.2327 156.616 79.5993L157.165 80.4721C157.283 80.647 157.355 80.8487 157.375 81.0586C157.394 81.2686 157.361 81.4802 157.278 81.674C157.195 81.8486 157.069 81.9992 156.912 82.1115C156.754 82.2238 156.571 82.2942 156.379 82.316C156.318 82.3257 156.256 82.3308 156.194 82.3313ZM151.872 70.6433L151.748 71.2471C151.693 71.5166 151.638 71.7798 151.585 72.0385C151.428 72.7968 151.278 73.5125 151.145 74.2308C151.126 74.3538 151.149 74.4795 151.208 74.5886C151.776 75.5268 152.372 76.4707 152.948 77.3854L152.976 77.4286C153.384 78.0787 153.795 78.7283 154.209 79.3775C154.653 80.0771 155.096 80.7763 155.538 81.4751C155.607 81.6196 155.719 81.7385 155.86 81.8144C156 81.8903 156.161 81.9193 156.32 81.8971C156.442 81.8854 156.56 81.8422 156.661 81.7717C156.762 81.7012 156.843 81.6058 156.896 81.4948C156.95 81.3649 156.971 81.2234 156.956 81.0835C156.94 80.9435 156.89 80.8097 156.809 80.6945L156.258 79.8224C155.4 78.4571 154.512 77.0447 153.615 75.673C153.457 75.4663 153.351 75.2252 153.304 74.9694C153.258 74.7137 153.273 74.4505 153.347 74.2015C153.45 73.8323 153.533 73.4578 153.595 73.0796C153.626 72.9099 153.659 72.7402 153.693 72.5711L153.768 72.2037L154.043 72.458C154.131 72.5448 154.205 72.6453 154.261 72.7555C154.284 72.8 154.31 72.8425 154.34 72.8826C154.388 72.9411 154.434 73.0015 154.481 73.0625C154.603 73.2473 154.759 73.4065 154.942 73.5309C155.647 73.9047 156.391 74.239 157.112 74.5632L157.423 74.7037C157.475 74.7302 157.531 74.7455 157.589 74.7488C157.647 74.752 157.705 74.7431 157.76 74.7225C157.814 74.702 157.863 74.6703 157.905 74.6295C157.946 74.5887 157.978 74.5397 158 74.4857C158.047 74.3762 158.05 74.2524 158.006 74.1412C157.963 74.0301 157.877 73.9407 157.768 73.8926L157.502 73.7655C157.089 73.5665 156.662 73.3606 156.236 73.1788C155.911 73.0564 155.62 72.8565 155.39 72.5964C155.16 72.3363 154.996 72.0239 154.914 71.6863C154.738 71.1031 154.519 70.5337 154.258 69.9828L154.18 69.8055C154.093 69.6086 153.948 69.4431 153.764 69.3316C153.58 69.2202 153.366 69.1681 153.152 69.1826C152.432 69.169 151.732 69.4223 151.188 69.8938C150.743 70.2504 150.298 70.6274 149.872 70.9922C149.712 71.1287 149.552 71.2649 149.391 71.4009C149.161 71.5843 149.013 71.8515 148.979 72.144C148.934 72.5224 148.887 72.9008 148.839 73.2792C148.776 73.8036 148.712 74.328 148.649 74.8531C148.638 74.9161 148.64 74.9808 148.655 75.0429C148.671 75.105 148.699 75.1631 148.739 75.2135C148.778 75.2639 148.828 75.3055 148.884 75.3355C148.941 75.3655 149.003 75.3832 149.067 75.3876C149.19 75.4018 149.314 75.3673 149.412 75.2915C149.51 75.2158 149.574 75.1047 149.591 74.9821C149.627 74.7342 149.655 74.485 149.689 74.2365C149.744 73.7992 149.8 73.3466 149.88 72.9017C149.931 72.5807 150.068 72.2795 150.276 72.0296C150.51 71.7854 150.762 71.5596 151.031 71.3539C151.15 71.256 151.275 71.1543 151.404 71.0437L151.872 70.6433Z" fill="#444444"/>
<path d="M150.626 75.9254C151.057 76.5019 151.452 77.0307 151.846 77.564C151.864 77.59 151.875 77.6192 151.881 77.6497C151.886 77.6803 151.885 77.7117 151.878 77.742C151.78 78.322 151.571 78.8777 151.262 79.3788C150.662 80.1345 150.107 80.9265 149.529 81.7001C149.469 81.8057 149.388 81.8975 149.29 81.9692C149.192 82.0408 149.079 82.0908 148.961 82.1159C148.842 82.1409 148.719 82.1403 148.6 82.1142C148.482 82.0881 148.37 82.0371 148.273 81.9645C148.176 81.8915 148.096 81.7991 148.037 81.6932C147.978 81.5873 147.942 81.4703 147.931 81.3496C147.921 81.229 147.935 81.1074 147.974 80.9927C148.013 80.878 148.076 80.7727 148.158 80.6837C148.705 79.94 149.262 79.2033 149.801 78.4539C149.923 78.2795 150.015 78.0862 150.074 77.8818C150.262 77.2589 150.43 76.6265 150.626 75.9254Z" fill="#444444"/>
<path d="M148.776 82.3515C148.55 82.3477 148.33 82.272 148.15 82.1354C148.039 82.0586 147.946 81.9603 147.874 81.8464C147.803 81.7324 147.755 81.6052 147.734 81.4724C147.714 81.3109 147.726 81.147 147.77 80.9902C147.813 80.8334 147.888 80.6868 147.988 80.559C148.185 80.2924 148.382 80.0261 148.58 79.76C148.927 79.2934 149.286 78.8104 149.63 78.3317C149.738 78.1765 149.82 78.0047 149.872 77.8232C150.007 77.3783 150.13 76.9295 150.261 76.4541L150.423 75.8693L150.539 75.4574L151.062 76.1566C151.393 76.5984 151.707 77.0166 152.016 77.438C152.053 77.4905 152.077 77.5505 152.088 77.6137C152.099 77.6769 152.096 77.7417 152.079 77.8035C152.035 77.9446 151.999 78.087 151.962 78.237C151.879 78.695 151.697 79.1291 151.427 79.5083C151.027 80.0123 150.639 80.5425 150.264 81.0554C150.073 81.3097 149.888 81.5696 149.698 81.8245C149.597 81.9791 149.461 82.1074 149.3 82.199C149.14 82.2906 148.96 82.3429 148.776 82.3515ZM150.715 76.395L150.668 76.5659C150.535 77.0433 150.413 77.4952 150.276 77.9446C150.21 78.1717 150.107 78.3864 149.972 78.5803C149.626 79.0621 149.267 79.5458 148.918 80.0143C148.721 80.2795 148.524 80.5454 148.328 80.812C148.26 80.8951 148.21 80.9908 148.18 81.0934C148.15 81.1961 148.14 81.3037 148.151 81.4101C148.164 81.4877 148.192 81.562 148.234 81.6284C148.276 81.6948 148.332 81.752 148.396 81.7966C148.472 81.8523 148.559 81.8911 148.65 81.9103C148.742 81.9295 148.837 81.9286 148.929 81.9078C149.02 81.887 149.106 81.8467 149.18 81.7897C149.255 81.7326 149.316 81.6602 149.36 81.5773C149.55 81.323 149.738 81.0675 149.924 80.8107C150.301 80.2946 150.692 79.7606 151.097 79.2502C151.328 78.917 151.484 78.5374 151.553 78.1379C151.589 77.9917 151.627 77.841 151.674 77.6929V77.6828C151.37 77.2709 151.057 76.8532 150.727 76.4115L150.715 76.395Z" fill="#444444"/>
<path d="M155.607 66.765C155.607 67.0887 155.511 67.4051 155.331 67.674C155.151 67.943 154.895 68.1523 154.596 68.2753C154.296 68.3984 153.967 68.4296 153.65 68.365C153.333 68.3004 153.042 68.1429 152.815 67.9126C152.587 67.6823 152.434 67.3895 152.373 67.0716C152.313 66.7536 152.348 66.4249 152.475 66.1272C152.602 65.8295 152.815 65.5762 153.086 65.3997C153.357 65.2232 153.675 65.1314 153.998 65.1359C154.426 65.1437 154.834 65.3185 155.134 65.6229C155.435 65.9274 155.604 66.3373 155.607 66.765Z" fill="#444444"/>
<path d="M153.977 68.6141C153.487 68.6087 153.019 68.4105 152.675 68.0624C152.33 67.7144 152.137 67.2445 152.137 66.7548C152.159 66.281 152.364 65.8341 152.708 65.5073C153.052 65.1804 153.508 64.9987 153.983 64.9999C154.457 65.0012 154.913 65.1852 155.255 65.5139C155.597 65.8425 155.799 66.2904 155.82 66.7644C155.82 67.2539 155.626 67.7236 155.28 68.0704C154.935 68.4172 154.466 68.6127 153.976 68.6141H153.977ZM153.982 65.3463C153.606 65.3474 153.246 65.4961 152.98 65.7604C152.713 66.0246 152.56 66.3831 152.556 66.7586C152.557 67.1358 152.707 67.4971 152.973 67.765C153.238 68.033 153.598 68.186 153.975 68.1914C154.352 68.189 154.713 68.0375 154.979 67.7699C155.245 67.5023 155.394 67.1403 155.394 66.7631C155.393 66.3907 155.246 66.0335 154.985 65.7683C154.723 65.5031 154.368 65.3511 153.996 65.345L153.982 65.3463Z" fill="#444444"/>
<g filter="url(#filter0_d_1155_833)">
<path d="M239.488 426H102.643C99.5265 426 97 428.526 97 431.643V448.572C97 451.689 99.5265 454.215 102.643 454.215H239.488C242.604 454.215 245.131 451.689 245.131 448.572V431.643C245.131 428.526 242.604 426 239.488 426Z" fill="#ED5C18"/>
</g>
<path d="M165.6 435.562V443.782H164.276L160.402 438.183H160.334V443.782H158.845V435.562H160.178L164.047 441.165H164.119V435.562H165.6ZM169.888 443.902C169.27 443.902 168.736 443.774 168.286 443.517C167.839 443.257 167.496 442.891 167.255 442.417C167.014 441.941 166.893 441.38 166.893 440.735C166.893 440.101 167.014 439.545 167.255 439.066C167.498 438.584 167.838 438.209 168.274 437.942C168.71 437.671 169.223 437.536 169.811 437.536C170.191 437.536 170.55 437.598 170.887 437.721C171.227 437.841 171.527 438.029 171.786 438.283C172.048 438.537 172.254 438.861 172.404 439.254C172.554 439.645 172.629 440.11 172.629 440.651V441.096H167.576V440.117H171.236C171.234 439.839 171.173 439.591 171.056 439.375C170.938 439.155 170.773 438.983 170.562 438.857C170.353 438.731 170.11 438.668 169.832 438.668C169.534 438.668 169.274 438.74 169.049 438.885C168.824 439.027 168.649 439.214 168.523 439.447C168.4 439.677 168.337 439.93 168.334 440.205V441.06C168.334 441.419 168.4 441.727 168.531 441.984C168.662 442.238 168.845 442.433 169.081 442.57C169.316 442.703 169.592 442.77 169.908 442.77C170.119 442.77 170.31 442.741 170.482 442.682C170.653 442.62 170.801 442.531 170.927 442.413C171.053 442.295 171.148 442.149 171.212 441.975L172.569 442.128C172.483 442.487 172.32 442.8 172.079 443.067C171.841 443.332 171.536 443.538 171.164 443.685C170.792 443.83 170.367 443.902 169.888 443.902ZM174.914 437.617L176.158 439.892L177.422 437.617H178.96L177.101 440.699L178.992 443.782H177.463L176.158 441.562L174.866 443.782H173.324L175.203 440.699L173.373 437.617H174.914ZM183.162 437.617V438.74H179.618V437.617H183.162ZM180.493 436.14H181.946V441.927C181.946 442.123 181.975 442.273 182.034 442.377C182.096 442.479 182.176 442.548 182.275 442.586C182.374 442.623 182.484 442.642 182.604 442.642C182.695 442.642 182.778 442.635 182.853 442.622C182.931 442.608 182.99 442.596 183.03 442.586L183.274 443.721C183.197 443.748 183.086 443.778 182.941 443.81C182.8 443.842 182.626 443.861 182.42 443.866C182.056 443.877 181.728 443.822 181.436 443.701C181.145 443.578 180.913 443.388 180.742 443.131C180.573 442.875 180.49 442.553 180.493 442.168V436.14Z" fill="white"/>
<path d="M73.3714 109.818V120H71.7308L66.9332 113.065H66.8487V120H65.0043V109.818H66.6548L71.4474 116.759H71.5369V109.818H73.3714ZM84.4792 114.909C84.4792 116.006 84.2737 116.946 83.8627 117.728C83.4551 118.507 82.8983 119.103 82.1923 119.518C81.4896 119.932 80.6925 120.139 79.801 120.139C78.9094 120.139 78.1106 119.932 77.4047 119.518C76.702 119.1 76.1452 118.502 75.7342 117.723C75.3265 116.941 75.1227 116.003 75.1227 114.909C75.1227 113.812 75.3265 112.874 75.7342 112.095C76.1452 111.313 76.702 110.715 77.4047 110.3C78.1106 109.886 78.9094 109.679 79.801 109.679C80.6925 109.679 81.4896 109.886 82.1923 110.3C82.8983 110.715 83.4551 111.313 83.8627 112.095C84.2737 112.874 84.4792 113.812 84.4792 114.909ZM82.6248 114.909C82.6248 114.137 82.5038 113.486 82.2619 112.955C82.0233 112.422 81.6918 112.019 81.2676 111.747C80.8433 111.472 80.3545 111.335 79.801 111.335C79.2475 111.335 78.7586 111.472 78.3343 111.747C77.9101 112.019 77.577 112.422 77.335 112.955C77.0964 113.486 76.9771 114.137 76.9771 114.909C76.9771 115.681 77.0964 116.334 77.335 116.868C77.577 117.398 77.9101 117.801 78.3343 118.076C78.7586 118.348 79.2475 118.484 79.801 118.484C80.3545 118.484 80.8433 118.348 81.2676 118.076C81.6918 117.801 82.0233 117.398 82.2619 116.868C82.5038 116.334 82.6248 115.681 82.6248 114.909ZM94.5902 109.818V120H92.9496L88.152 113.065H88.0675V120H86.223V109.818H87.8736L92.6662 116.759H92.7557V109.818H94.5902ZM103.523 120H100.073V109.818H103.593C104.603 109.818 105.472 110.022 106.198 110.43C106.927 110.834 107.487 111.416 107.878 112.175C108.269 112.934 108.465 113.842 108.465 114.899C108.465 115.96 108.267 116.871 107.873 117.634C107.482 118.396 106.917 118.981 106.178 119.388C105.442 119.796 104.557 120 103.523 120ZM101.917 118.404H103.433C104.143 118.404 104.734 118.275 105.208 118.016C105.682 117.754 106.039 117.365 106.277 116.848C106.516 116.328 106.635 115.678 106.635 114.899C106.635 114.12 106.516 113.474 106.277 112.96C106.039 112.443 105.686 112.057 105.218 111.802C104.754 111.543 104.177 111.414 103.488 111.414H101.917V118.404ZM112.062 109.818V120H110.217V109.818H112.062ZM119.592 112.617C119.546 112.183 119.35 111.845 119.006 111.603C118.664 111.361 118.22 111.24 117.673 111.24C117.289 111.24 116.959 111.298 116.684 111.414C116.409 111.53 116.198 111.687 116.053 111.886C115.907 112.085 115.832 112.312 115.829 112.567C115.829 112.78 115.877 112.964 115.973 113.119C116.072 113.275 116.207 113.408 116.376 113.517C116.545 113.623 116.732 113.713 116.938 113.786C117.143 113.858 117.35 113.92 117.559 113.969L118.513 114.208C118.898 114.298 119.268 114.419 119.622 114.571C119.98 114.723 120.3 114.916 120.582 115.148C120.867 115.38 121.092 115.66 121.258 115.988C121.424 116.316 121.506 116.701 121.506 117.141C121.506 117.738 121.354 118.263 121.049 118.717C120.744 119.168 120.303 119.521 119.727 119.776C119.153 120.028 118.459 120.154 117.643 120.154C116.851 120.154 116.164 120.031 115.58 119.786C115 119.541 114.546 119.183 114.218 118.712C113.893 118.242 113.718 117.668 113.691 116.992H115.506C115.532 117.347 115.642 117.642 115.834 117.877C116.026 118.112 116.276 118.288 116.585 118.404C116.896 118.52 117.244 118.578 117.629 118.578C118.03 118.578 118.381 118.518 118.683 118.399C118.987 118.277 119.226 118.107 119.398 117.892C119.571 117.673 119.659 117.418 119.662 117.126C119.659 116.861 119.581 116.643 119.428 116.47C119.276 116.295 119.062 116.149 118.787 116.033C118.515 115.913 118.197 115.807 117.832 115.714L116.674 115.416C115.835 115.201 115.173 114.874 114.685 114.437C114.201 113.996 113.96 113.411 113.96 112.682C113.96 112.082 114.122 111.557 114.447 111.106C114.775 110.655 115.221 110.305 115.784 110.057C116.348 109.805 116.986 109.679 117.698 109.679C118.421 109.679 119.054 109.805 119.597 110.057C120.144 110.305 120.573 110.652 120.885 111.096C121.196 111.537 121.357 112.044 121.367 112.617H119.592ZM131.866 113.254H130.007C129.954 112.949 129.856 112.679 129.713 112.443C129.571 112.205 129.393 112.002 129.181 111.837C128.969 111.671 128.727 111.547 128.455 111.464C128.187 111.378 127.897 111.335 127.585 111.335C127.032 111.335 126.541 111.474 126.114 111.752C125.686 112.027 125.352 112.432 125.11 112.965C124.868 113.496 124.747 114.143 124.747 114.909C124.747 115.688 124.868 116.344 125.11 116.878C125.355 117.408 125.69 117.809 126.114 118.081C126.541 118.349 127.03 118.484 127.58 118.484C127.885 118.484 128.17 118.444 128.436 118.364C128.704 118.281 128.944 118.161 129.156 118.001C129.372 117.842 129.552 117.647 129.698 117.415C129.847 117.183 129.95 116.918 130.007 116.619L131.866 116.629C131.796 117.113 131.646 117.567 131.414 117.991C131.185 118.416 130.885 118.79 130.514 119.115C130.142 119.437 129.708 119.688 129.211 119.871C128.714 120.05 128.162 120.139 127.556 120.139C126.661 120.139 125.862 119.932 125.159 119.518C124.457 119.103 123.903 118.505 123.499 117.723C123.094 116.941 122.892 116.003 122.892 114.909C122.892 113.812 123.096 112.874 123.504 112.095C123.911 111.313 124.467 110.715 125.169 110.3C125.872 109.886 126.667 109.679 127.556 109.679C128.122 109.679 128.649 109.759 129.137 109.918C129.624 110.077 130.058 110.31 130.439 110.619C130.82 110.924 131.133 111.298 131.379 111.742C131.627 112.183 131.79 112.687 131.866 113.254ZM133.555 120V109.818H135.4V118.454H139.884V120H133.555ZM150.186 114.909C150.186 116.006 149.981 116.946 149.57 117.728C149.162 118.507 148.605 119.103 147.899 119.518C147.197 119.932 146.4 120.139 145.508 120.139C144.616 120.139 143.818 119.932 143.112 119.518C142.409 119.1 141.852 118.502 141.441 117.723C141.034 116.941 140.83 116.003 140.83 114.909C140.83 113.812 141.034 112.874 141.441 112.095C141.852 111.313 142.409 110.715 143.112 110.3C143.818 109.886 144.616 109.679 145.508 109.679C146.4 109.679 147.197 109.886 147.899 110.3C148.605 110.715 149.162 111.313 149.57 112.095C149.981 112.874 150.186 113.812 150.186 114.909ZM148.332 114.909C148.332 114.137 148.211 113.486 147.969 112.955C147.73 112.422 147.399 112.019 146.975 111.747C146.55 111.472 146.061 111.335 145.508 111.335C144.954 111.335 144.466 111.472 144.041 111.747C143.617 112.019 143.284 112.422 143.042 112.955C142.803 113.486 142.684 114.137 142.684 114.909C142.684 115.681 142.803 116.334 143.042 116.868C143.284 117.398 143.617 117.801 144.041 118.076C144.466 118.348 144.954 118.484 145.508 118.484C146.061 118.484 146.55 118.348 146.975 118.076C147.399 117.801 147.73 117.398 147.969 116.868C148.211 116.334 148.332 115.681 148.332 114.909ZM158.348 109.818H160.193V116.47C160.193 117.199 160.02 117.841 159.676 118.394C159.334 118.948 158.854 119.38 158.234 119.692C157.614 120 156.89 120.154 156.061 120.154C155.23 120.154 154.504 120 153.884 119.692C153.264 119.38 152.783 118.948 152.442 118.394C152.101 117.841 151.93 117.199 151.93 116.47V109.818H153.775V116.316C153.775 116.74 153.867 117.118 154.053 117.45C154.242 117.781 154.507 118.041 154.848 118.23C155.19 118.416 155.594 118.509 156.061 118.509C156.529 118.509 156.933 118.416 157.275 118.23C157.619 118.041 157.884 117.781 158.07 117.45C158.256 117.118 158.348 116.74 158.348 116.316V109.818ZM167.731 112.617C167.685 112.183 167.489 111.845 167.144 111.603C166.803 111.361 166.359 111.24 165.812 111.24C165.427 111.24 165.098 111.298 164.823 111.414C164.548 111.53 164.337 111.687 164.191 111.886C164.045 112.085 163.971 112.312 163.968 112.567C163.968 112.78 164.016 112.964 164.112 113.119C164.211 113.275 164.345 113.408 164.514 113.517C164.683 113.623 164.871 113.713 165.076 113.786C165.282 113.858 165.489 113.92 165.698 113.969L166.652 114.208C167.037 114.298 167.406 114.419 167.761 114.571C168.119 114.723 168.439 114.916 168.72 115.148C169.005 115.38 169.231 115.66 169.396 115.988C169.562 116.316 169.645 116.701 169.645 117.141C169.645 117.738 169.493 118.263 169.188 118.717C168.883 119.168 168.442 119.521 167.865 119.776C167.292 120.028 166.597 120.154 165.782 120.154C164.99 120.154 164.302 120.031 163.719 119.786C163.139 119.541 162.685 119.183 162.357 118.712C162.032 118.242 161.856 117.668 161.83 116.992H163.644C163.671 117.347 163.78 117.642 163.972 117.877C164.165 118.112 164.415 118.288 164.723 118.404C165.035 118.52 165.383 118.578 165.767 118.578C166.168 118.578 166.52 118.518 166.821 118.399C167.126 118.277 167.365 118.107 167.537 117.892C167.709 117.673 167.797 117.418 167.801 117.126C167.797 116.861 167.719 116.643 167.567 116.47C167.414 116.295 167.201 116.149 166.926 116.033C166.654 115.913 166.336 115.807 165.971 115.714L164.813 115.416C163.974 115.201 163.311 114.874 162.824 114.437C162.34 113.996 162.098 113.411 162.098 112.682C162.098 112.082 162.261 111.557 162.585 111.106C162.914 110.655 163.359 110.305 163.923 110.057C164.486 109.805 165.124 109.679 165.837 109.679C166.559 109.679 167.192 109.805 167.736 110.057C168.283 110.305 168.712 110.652 169.024 111.096C169.335 111.537 169.496 112.044 169.506 112.617H167.731ZM171.289 120V109.818H177.912V111.364H173.134V114.129H177.569V115.675H173.134V118.454H177.951V120H171.289ZM179.793 120V109.818H183.612C184.394 109.818 185.05 109.954 185.58 110.226C186.114 110.498 186.517 110.879 186.788 111.369C187.063 111.857 187.201 112.425 187.201 113.075C187.201 113.728 187.062 114.294 186.783 114.775C186.508 115.252 186.102 115.622 185.565 115.884C185.028 116.142 184.369 116.271 183.587 116.271H180.867V114.74H183.338C183.795 114.74 184.17 114.677 184.462 114.551C184.753 114.422 184.969 114.235 185.108 113.989C185.25 113.741 185.322 113.436 185.322 113.075C185.322 112.713 185.25 112.405 185.108 112.15C184.965 111.891 184.748 111.696 184.457 111.563C184.165 111.427 183.789 111.359 183.328 111.359H181.638V120H179.793ZM185.053 115.386L187.574 120H185.516L183.04 115.386H185.053ZM193.679 120H191.71L195.295 109.818H197.572L201.161 120H199.192L196.473 111.906H196.393L193.679 120ZM193.744 116.008H199.113V117.489H193.744V116.008ZM208.845 113.07C208.762 112.801 208.648 112.561 208.502 112.349C208.359 112.133 208.187 111.949 207.985 111.797C207.786 111.644 207.557 111.53 207.299 111.454C207.04 111.374 206.758 111.335 206.453 111.335C205.907 111.335 205.419 111.472 204.992 111.747C204.564 112.022 204.228 112.427 203.983 112.96C203.741 113.491 203.62 114.137 203.62 114.899C203.62 115.668 203.741 116.319 203.983 116.853C204.225 117.387 204.561 117.793 204.992 118.071C205.423 118.346 205.923 118.484 206.493 118.484C207.01 118.484 207.458 118.384 207.836 118.185C208.217 117.987 208.51 117.705 208.716 117.34C208.921 116.972 209.024 116.541 209.024 116.048L209.441 116.112H206.677V114.67H210.809V115.893C210.809 116.765 210.623 117.519 210.252 118.156C209.881 118.792 209.37 119.282 208.721 119.627C208.071 119.969 207.325 120.139 206.483 120.139C205.545 120.139 204.722 119.929 204.012 119.508C203.306 119.084 202.755 118.482 202.357 117.703C201.962 116.921 201.765 115.993 201.765 114.919C201.765 114.097 201.881 113.363 202.113 112.717C202.349 112.07 202.677 111.522 203.098 111.071C203.519 110.617 204.012 110.272 204.579 110.037C205.146 109.798 205.762 109.679 206.429 109.679C206.992 109.679 207.517 109.762 208.005 109.928C208.492 110.09 208.924 110.322 209.302 110.624C209.683 110.925 209.997 111.283 210.242 111.697C210.487 112.112 210.648 112.569 210.724 113.07H208.845ZM212.592 120V109.818H216.41C217.193 109.818 217.849 109.954 218.379 110.226C218.913 110.498 219.315 110.879 219.587 111.369C219.862 111.857 220 112.425 220 113.075C220 113.728 219.861 114.294 219.582 114.775C219.307 115.252 218.901 115.622 218.364 115.884C217.827 116.142 217.168 116.271 216.385 116.271H213.666V114.74H216.137C216.594 114.74 216.969 114.677 217.26 114.551C217.552 114.422 217.768 114.235 217.907 113.989C218.049 113.741 218.121 113.436 218.121 113.075C218.121 112.713 218.049 112.405 217.907 112.15C217.764 111.891 217.547 111.696 217.256 111.563C216.964 111.427 216.588 111.359 216.127 111.359H214.437V120H212.592ZM217.852 115.386L220.373 120H218.314L215.839 115.386H217.852ZM221.698 120V109.818H228.32V111.364H223.542V114.129H227.977V115.675H223.542V118.454H228.36V120H221.698ZM230.202 120V109.818H236.824V111.364H232.046V114.129H236.481V115.675H232.046V118.454H236.863V120H230.202ZM238.705 109.818H240.963L243.985 117.196H244.105L247.127 109.818H249.384V120H247.615V113.005H247.52L244.706 119.97H243.384L240.57 112.99H240.475V120H238.705V109.818ZM251.393 120V109.818H258.015V111.364H253.237V114.129H257.672V115.675H253.237V118.454H258.055V120H251.393ZM268.264 109.818V120H266.623L261.826 113.065H261.741V120H259.897V109.818H261.547L266.34 116.759H266.43V109.818H268.264ZM269.826 111.364V109.818H277.95V111.364H274.803V120H272.973V111.364H269.826Z" fill="#3F4450"/>
<rect x="41" y="143" width="261" height="4" rx="2" fill="#E2E2E2"/>
<rect x="41" y="195" width="261" height="4" rx="2" fill="#E2E2E2"/>
<rect x="41" y="156" width="261" height="4" rx="2" fill="#E2E2E2"/>
<rect x="41" y="208" width="261" height="4" rx="2" fill="#E2E2E2"/>
<rect x="41" y="169" width="261" height="4" rx="2" fill="#E2E2E2"/>
<rect x="41" y="221" width="261" height="4" rx="2" fill="#E2E2E2"/>
<rect x="41" y="247" width="261" height="4" rx="2" fill="#E2E2E2"/>
<rect x="41" y="286" width="261" height="4" rx="2" fill="#E2E2E2"/>
<rect x="41" y="182" width="106" height="4" rx="2" fill="#E2E2E2"/>
<rect x="41" y="234" width="261" height="4" rx="2" fill="#E2E2E2"/>
<rect x="41" y="273" width="261" height="4" rx="2" fill="#E2E2E2"/>
<rect x="41" y="260" width="261" height="4" rx="2" fill="#E2E2E2"/>
<rect x="41" y="299" width="196" height="4" rx="2" fill="#E2E2E2"/>
<rect x="81" y="411" width="49" height="4" rx="2" fill="#E2E2E2"/>
<rect x="158" y="411" width="49" height="4" rx="2" fill="#E2E2E2"/>
<rect x="236" y="411" width="26" height="4" rx="2" fill="#E2E2E2"/>
<rect x="41.5" y="319.5" width="260" height="75" rx="9.5" fill="white" stroke="#E2E2E2"/>
<path d="M135.25 343.19C136.774 344.922 137.855 347.043 138.928 349.066C141.783 354.445 144.381 359.985 146.908 365.524C147.99 367.896 149.052 370.273 150.056 372.678C150.1 372.781 150.68 374.425 150.68 374.049" stroke="#3F4450" stroke-width="1.9" stroke-linecap="round"/>
<path d="M128 346.861C128.215 346.269 128.965 345.956 129.496 345.739C132.443 344.537 135.795 344.014 138.941 343.697C141.371 343.452 145.952 342.721 147.856 344.897C150.022 347.372 148.265 353.059 147.482 355.651C146.602 358.563 144.943 361.207 144.49 364.254C144.244 365.903 143.83 367.582 143.726 369.242C143.618 370.963 147.281 368.5 148.074 368.12C151.678 366.392 153.413 363.456 152.391 359.454C151.697 356.733 151.457 359.345 152.017 360.732C152.204 361.194 153.655 364.645 154.433 363.569C155.562 362.005 155.493 359.458 155.493 357.615C155.493 356.864 156.159 358.27 156.257 358.394C157.076 359.437 158.004 360.49 158.953 361.418C159.548 361.999 159.411 361.246 159.436 360.794C159.556 358.628 159.629 356.652 158.984 354.529C158.326 352.363 157.176 350.43 156.303 348.357C156.223 348.167 155.77 347.104 156.163 348.03C157.661 351.56 159.963 354.856 162.101 358.02C162.783 359.029 163.029 355.611 163.083 355.34C163.403 353.719 163.837 352.072 163.909 350.415C163.937 349.765 163.865 351.04 163.847 351.1C163.584 351.953 162.395 353.578 161.322 353.251C159.557 352.714 164.757 354.601 166.496 355.215C170.659 356.684 168.774 348.944 167.431 347.235C166.476 346.019 168.471 347.182 168.865 347.36C174.475 349.893 180.14 352.495 185.557 355.417C186.269 355.802 188.25 356.885 187.443 356.945C185.435 357.094 183.201 356.76 181.303 356.119C178.638 355.219 179.519 353.347 179.604 351.054C179.667 349.345 179.432 347.671 178.996 346.019C178.511 344.183 177.445 342.304 177.375 340.377C177.339 339.401 178.649 341.258 178.684 341.297C180.546 343.337 182.571 345.113 184.7 346.861C186.034 347.956 186.297 348.452 187.038 346.534C187.172 346.187 187.541 342.907 188.316 343.276C189.05 343.626 191.323 345.975 192.119 345.396C193.501 344.391 192.151 340.662 191.573 343.23C191.136 345.173 191.739 344.815 192.524 343.682C192.753 343.35 194.582 344.056 195.049 344.056C199.185 344.056 202.814 343.336 206.426 341.25C207.366 340.708 209.423 339.433 209.918 338.445" stroke="#3F4450" stroke-width="1.9" stroke-linecap="round"/>
<rect x="100" y="4" width="143" height="22" rx="9" fill="#E2E2E2"/>
<defs>
<filter id="filter0_d_1155_833" x="80.0708" y="419.887" width="181.989" height="62.0738" filterUnits="userSpaceOnUse" color-interpolation-filters="sRGB">
<feFlood flood-opacity="0" result="BackgroundImageFix"/>
<feColorMatrix in="SourceAlpha" type="matrix" values="0 0 0 0 0 0 0 0 0 0 0 0 0 0 0 0 0 0 127 0" result="hardAlpha"/>
<feOffset dy="10.8159"/>
<feGaussianBlur stdDeviation="8.46461"/>
<feColorMatrix type="matrix" values="0 0 0 0 0 0 0 0 0 0 0 0 0 0 0 0 0 0 0.012 0"/>
<feBlend mode="normal" in2="BackgroundImageFix" result="effect1_dropShadow_1155_833"/>
<feBlend mode="normal" in="SourceGraphic" in2="effect1_dropShadow_1155_833" result="shape"/>
</filter>
</defs>
</svg>
