<svg width="50" height="50" viewBox="0 0 50 50" fill="none" xmlns="http://www.w3.org/2000/svg">
<path d="M42.0625 29.2918L39.7083 25.3752C39.1875 24.521 38.7291 22.8752 38.7291 21.8752V17.9793C38.7291 10.4168 32.5833 4.271 25.0416 4.271C17.4791 4.29183 11.3333 10.4168 11.3333 17.9793V21.8543C11.3333 22.8543 10.875 24.5002 10.375 25.3543L8.02081 29.271C7.12497 30.7918 6.91664 32.521 7.47914 34.021C8.04164 35.5418 9.31247 36.7502 10.9791 37.2918C13.2291 38.0418 15.5 38.5835 17.8125 38.9793C18.0416 39.021 18.2708 39.0418 18.5 39.0835C18.7916 39.1252 19.1041 39.1668 19.4166 39.2085C19.9583 39.2918 20.5 39.3543 21.0625 39.396C22.375 39.521 23.7083 39.5835 25.0416 39.5835C26.3541 39.5835 27.6666 39.521 28.9583 39.396C29.4375 39.3543 29.9166 39.3127 30.375 39.2502C30.75 39.2085 31.125 39.1668 31.5 39.1043C31.7291 39.0835 31.9583 39.0418 32.1875 39.0002C34.5208 38.6252 36.8333 38.0418 39.0833 37.2918C40.6875 36.7502 41.9166 35.5418 42.5 34.0002C43.0833 32.4377 42.9166 30.7293 42.0625 29.2918ZM26.5625 20.8335C26.5625 21.7085 25.8541 22.4168 24.9791 22.4168C24.1041 22.4168 23.3958 21.7085 23.3958 20.8335V14.3752C23.3958 13.5002 24.1041 12.7918 24.9791 12.7918C25.8541 12.7918 26.5625 13.5002 26.5625 14.3752V20.8335Z" fill="#ED5C18"/>
<path d="M30.8958 41.6873C30.0208 44.104 27.7083 45.8332 25 45.8332C23.3542 45.8332 21.7292 45.1665 20.5833 43.979C19.9167 43.354 19.4167 42.5207 19.125 41.6665C19.3958 41.7082 19.6667 41.729 19.9583 41.7707C20.4375 41.8332 20.9375 41.8957 21.4375 41.9373C22.625 42.0415 23.8333 42.104 25.0417 42.104C26.2292 42.104 27.4167 42.0415 28.5833 41.9373C29.0208 41.8957 29.4583 41.8748 29.875 41.8123C30.2083 41.7707 30.5417 41.729 30.8958 41.6873Z" fill="#ED5C18"/>
</svg>
