<svg width="60" height="55" viewBox="0 0 60 55" fill="none" xmlns="http://www.w3.org/2000/svg">
<path d="M30.1 8.47266C20.4164 8.47266 12.5664 15.6685 12.5664 24.5451V34.1505L10.5 36.0447C9.66428 36.8108 9.41426 37.9629 9.86657 38.9639C10.3189 39.9649 11.3844 40.6175 12.5664 40.6175H47.6335C48.8155 40.6175 49.8811 39.9649 50.3334 38.9639C50.7857 37.9629 50.5357 36.8108 49.6999 36.0447L47.6335 34.1505V24.5451C47.6335 15.6685 39.7835 8.47266 30.1 8.47266Z" fill="#ED5C18"/>
<path d="M30.0999 51.3325C25.2581 51.3325 21.3331 47.7346 21.3331 43.2963H38.8667C38.8667 47.7346 34.9416 51.3325 30.0999 51.3325Z" fill="#ED5C18"/>
<path d="M46.2221 10.8277C46.2221 14.1381 43.2528 17.0393 39.3095 17.0393C35.3663 17.0393 32.397 14.1381 32.397 10.8277C32.397 7.5174 35.3663 4.61621 39.3095 4.61621C43.2528 4.61621 46.2221 7.5174 46.2221 10.8277Z" fill="#ED5C18" stroke="#FEF9F4" stroke-width="3"/>
</svg>
