<svg width="55" height="55" viewBox="0 0 55 55" fill="none" xmlns="http://www.w3.org/2000/svg">
<path d="M47.8891 7.11091C45.7412 4.96303 42.2588 4.96303 40.1109 7.11091L19.25 27.9718V35.75H27.0282L47.8891 14.8891C50.037 12.7412 50.037 9.2588 47.8891 7.11091Z" fill="#ED5C18"/>
<path fill-rule="evenodd" clip-rule="evenodd" d="M5.5 16.5C5.5 13.4624 7.96243 11 11 11H22C23.5188 11 24.75 12.2312 24.75 13.75C24.75 15.2688 23.5188 16.5 22 16.5H11V44H38.5V33C38.5 31.4812 39.7312 30.25 41.25 30.25C42.7688 30.25 44 31.4812 44 33V44C44 47.0376 41.5376 49.5 38.5 49.5H11C7.96243 49.5 5.5 47.0376 5.5 44V16.5Z" fill="#ED5C18"/>
</svg>
