<svg width="40" height="40" viewBox="0 0 40 40" fill="none" xmlns="http://www.w3.org/2000/svg">
<path d="M8.072 2.11195C7.6 2.27996 7.2 2.55996 6.952 2.90395C6.472 3.55996 6.48 3.48796 6.48 9.77596V15.52H6.176C4.84 15.52 3.232 16.568 2.544 17.888C2.008 18.904 2 18.984 2 23.784C2 28.528 2 28.496 2.496 28.8C2.744 28.944 2.896 28.96 4.624 28.96H6.48V32.464C6.48 36.344 6.496 36.496 6.984 37.128C7.12 37.312 7.44 37.576 7.68 37.712L8.12 37.96H20H31.88L32.32 37.712C32.56 37.576 32.88 37.312 33.016 37.128C33.504 36.496 33.52 36.344 33.52 32.464V28.96H35.384C37.104 28.96 37.256 28.944 37.504 28.8C38 28.496 38 28.528 38 23.784C38 18.984 37.992 18.904 37.456 17.888C37.072 17.152 36.288 16.36 35.592 16.024C35 15.728 34.264 15.52 33.824 15.52H33.528L33.504 11.216C33.48 6.93596 33.48 6.91996 33.296 6.51996C33.056 5.99195 29.68 2.57595 29.08 2.25595L28.68 2.03996L18.52 2.02396C10.352 2.00795 8.304 2.02396 8.072 2.11195ZM24.48 8.25596C24.48 9.85596 24.496 10.064 24.64 10.352C24.904 10.912 24.936 10.912 27.08 10.96L29 11L29.024 14.376L29.04 17.76H20H10.96V12.12V6.47996H17.72H24.48V8.25596ZM33.312 19.736C34.192 20.352 34.304 21.536 33.56 22.288C32.952 22.888 32.112 22.968 31.424 22.496C30.904 22.144 30.688 21.672 30.736 21.008C30.776 20.352 31.048 19.928 31.632 19.64C32.176 19.36 32.824 19.392 33.312 19.736ZM29.024 30.136L29.04 33.52H20H10.96V30.176C10.96 28.336 10.984 26.8 11.016 26.776C11.04 26.744 15.104 26.728 20.032 26.736L29 26.76L29.024 30.136Z" fill="#ED5C18"/>
</svg>
