<svg width="55" height="55" viewBox="0 0 55 55" fill="none" xmlns="http://www.w3.org/2000/svg">
<path d="M28.8584 2.91189L15.5283 7.35565C14.1411 7.81778 13.1532 9.18796 13.1532 10.6498V46.6574H10.7016C9.34757 46.6574 8.25 47.7557 8.25 49.109C8.25 50.4623 9.34757 51.5606 10.7016 51.5606H15.6047H30.3142H40.1205H45.0237C46.3777 51.5606 47.4752 50.4623 47.4752 49.109C47.4752 47.7557 46.3777 46.6574 45.0237 46.6574H42.5721V12.3353C42.5721 8.27328 39.2794 4.98056 35.2173 4.98056L32.6831 4.99037C32.374 3.87882 31.562 3.10412 30.577 2.84499C30.0381 2.70329 29.4473 2.71577 28.8584 2.91189ZM32.7658 9.88372H35.2173C36.5714 9.88372 37.6689 10.9813 37.6689 12.3353V46.6574H32.7658C32.7658 42.2544 32.7658 16.7857 32.7658 9.88372ZM25.411 22.1416C26.765 22.1416 27.8626 23.2399 27.8626 24.5932V27.0448C27.8626 28.3981 26.765 29.4964 25.411 29.4964C24.057 29.4964 22.9594 28.3981 22.9594 27.0448V24.5932C22.9594 23.2399 24.057 22.1416 25.411 22.1416Z" fill="#00A850"/>
</svg>
