<svg width="55" height="55" viewBox="0 0 55 55" fill="none" xmlns="http://www.w3.org/2000/svg">
<path fill-rule="evenodd" clip-rule="evenodd" d="M27.5001 51.6667C33.4832 51.6667 38.3334 46.8164 38.3334 40.8333C38.3334 34.8502 33.4832 30 27.5001 30C21.517 30 16.6667 34.8502 16.6667 40.8333C16.6667 46.8164 21.517 51.6667 27.5001 51.6667ZM25.7493 37.1675C25.2205 36.6386 24.363 36.6386 23.8342 37.1675C23.3054 37.6963 23.3054 38.5537 23.8342 39.0825L25.585 40.8333L23.8342 42.5841C23.3054 43.113 23.3054 43.9704 23.8342 44.4992C24.363 45.028 25.2205 45.028 25.7493 44.4992L27.5001 42.7484L29.2509 44.4992C29.7797 45.028 30.6371 45.028 31.166 44.4992C31.6948 43.9704 31.6948 43.113 31.166 42.5841L29.4152 40.8333L31.166 39.0825C31.6948 38.5537 31.6948 37.6963 31.166 37.1675C30.6371 36.6386 29.7797 36.6386 29.2509 37.1675L27.5001 38.9183L25.7493 37.1675Z" fill="#ED5C18"/>
<path fill-rule="evenodd" clip-rule="evenodd" d="M27.5001 25.0007C33.4832 25.0007 38.3334 20.1504 38.3334 14.1673C38.3334 8.18423 33.4832 3.33398 27.5001 3.33398C21.517 3.33398 16.6667 8.18423 16.6667 14.1673C16.6667 20.1504 21.517 25.0007 27.5001 25.0007ZM32.5201 12.4165C33.049 11.8877 33.049 11.0303 32.5201 10.5014C31.9913 9.97261 31.1339 9.97261 30.605 10.5014L26.1459 14.9606L24.3951 13.2098C23.8663 12.6809 23.0089 12.6809 22.48 13.2098C21.9512 13.7386 21.9512 14.596 22.48 15.1249L25.1884 17.8332C25.7172 18.362 26.5746 18.362 27.1035 17.8332L32.5201 12.4165Z" fill="#ED5C18"/>
</svg>
