<svg width="60" height="55" viewBox="0 0 60 55" fill="none" xmlns="http://www.w3.org/2000/svg">
<path d="M29.0156 3.86381C28.8739 3.9197 10.8007 10.9275 10.806 10.9251C10.8296 10.9154 10.848 10.9591 10.9687 10.9251C11.0711 10.8984 11.0817 10.8911 11.3783 10.8497C11.4255 10.8449 11.5069 10.8522 11.5436 10.8497C10.2574 10.8813 9 11.6929 9 13.2796C9 24.2458 9.4016 28.7071 11.4622 34.1598C14.166 41.3255 19.5394 47.0917 28.6875 51.9296C29.4934 52.3572 30.504 52.3572 31.3125 51.9296C40.4554 47.0941 45.834 41.3912 48.5377 34.2376C50.5957 28.7946 51 24.2677 51 13.355C51 12.3855 50.4041 11.5374 49.4407 11.1535L31.1497 3.86381C30.4882 3.60139 29.6771 3.60139 29.0156 3.86381ZM30 18.2148C32.9006 18.2148 35.25 20.3895 35.25 23.0745C35.25 24.7999 34.0871 26.01 32.625 26.8701V32.7942C32.625 34.1355 31.449 35.2241 30 35.2241C28.551 35.2241 27.375 34.1355 27.375 32.7942V26.8701C25.9129 26.0075 24.75 24.7999 24.75 23.0745C24.75 20.3895 27.0994 18.2148 30 18.2148Z" fill="#ED5C18"/>
</svg>
