<svg width="55" height="55" viewBox="0 0 55 55" fill="none" xmlns="http://www.w3.org/2000/svg">
<path d="M26.6356 4.66158C26.5118 4.71429 10.7337 11.3235 10.7383 11.3212C10.7589 11.312 10.7727 11.3533 10.8804 11.3212C10.9697 11.296 10.9789 11.2891 11.2379 11.2501C11.2791 11.2455 11.3501 11.2524 11.3822 11.2501C10.2593 11.2799 9.16162 12.0453 9.16162 13.5418C9.16162 23.8841 9.51455 28.0939 11.3112 33.2364C13.6716 39.9922 18.3626 45.4304 26.3491 49.9931C27.0526 50.3964 27.9372 50.3964 28.6408 49.9931C36.6226 45.4327 41.3182 40.0541 43.6786 33.3074C45.4753 28.1741 45.8282 23.9047 45.8282 13.6128C45.8282 12.6985 45.308 11.8987 44.467 11.5366L28.4987 4.66158C27.9212 4.41408 27.2131 4.41408 26.6356 4.66158ZM27.4949 18.1962C28.7599 18.1962 29.7866 19.2228 29.7866 20.4879V22.7795H32.0783C33.3432 22.7795 34.3699 23.8062 34.3699 25.0712C34.3699 26.3362 33.3432 27.3629 32.0783 27.3629H29.7866V29.6545C29.7866 30.9195 28.7599 31.9462 27.4949 31.9462C26.2299 31.9462 25.2033 30.9195 25.2033 29.6545V27.3629H22.9116C21.6466 27.3629 20.6199 26.3362 20.6199 25.0712C20.6199 23.8062 21.6466 22.7795 22.9116 22.7795H25.2033V20.4879C25.2033 19.2228 26.2299 18.1962 27.4949 18.1962Z" fill="#ED5C18"/>
</svg>
