<svg width="55" height="55" viewBox="0 0 55 55" fill="none" xmlns="http://www.w3.org/2000/svg">
<path fill-rule="evenodd" clip-rule="evenodd" d="M9.16675 9.16622L26.6554 5.8871C27.2137 5.78243 27.7865 5.78243 28.3447 5.8871L45.8334 9.16622V30.4398C45.8334 37.1644 42.3692 43.4147 36.6667 46.9787L28.7147 51.9488C27.9715 52.4132 27.0286 52.4132 26.2855 51.9488L18.3334 46.9787C12.631 43.4147 9.16675 37.1644 9.16675 30.4398V9.16622Z" fill="#ED5C18"/>
<path fill-rule="evenodd" clip-rule="evenodd" d="M27.5001 25.2082C24.9688 25.2082 22.9167 23.1561 22.9167 20.6248C22.9167 18.0935 24.9688 16.0415 27.5001 16.0415C30.0314 16.0415 32.0834 18.0935 32.0834 20.6248C32.0834 23.1561 30.0314 25.2082 27.5001 25.2082Z" fill="#FEF9F4"/>
<path fill-rule="evenodd" clip-rule="evenodd" d="M16.0426 37.8114C16.5361 30.9755 21.4678 27.5 27.4789 27.5C33.5745 27.5 38.5827 30.7845 38.9558 37.8125C38.9706 38.0925 38.9558 38.9583 37.9993 38.9583C33.2816 38.9583 26.2711 38.9583 16.968 38.9583C16.6487 38.9583 16.0157 38.1837 16.0426 37.8114Z" fill="#FEF9F4"/>
</svg>
