<svg width="110" height="105" viewBox="0 0 110 105" fill="none" xmlns="http://www.w3.org/2000/svg">
<path d="M95.7095 51.3706C90.229 60.6113 77.0942 87.5612 62.3931 90.2852C7.70521 100.418 10.2022 68.1312 19.2074 51.0352C33.4339 21.0967 53.8782 13.5986 64.6682 13.9801C100.878 18.9245 100.45 40.9673 95.7095 51.3706Z" fill="#FEF9F4"/>
<path d="M62.68 66H46.32V64.04L56.96 51.24C58.04 49.96 58.76 48.68 58.76 47.28C58.76 45.04 56.88 43.52 54.44 43.52C52.2 43.52 50.32 45.08 50 47.52L46.08 46.68C46.8 42.24 50.24 39.48 54.52 39.48C59.12 39.48 62.84 42.64 62.84 47.28C62.84 49.84 61.72 52.12 60 54C57 57.52 56.4 58.16 53.2 62H62.68V66Z" fill="#33475B"/>
</svg>
