<svg width="55" height="55" viewBox="0 0 55 55" fill="none" xmlns="http://www.w3.org/2000/svg">
<path fill-rule="evenodd" clip-rule="evenodd" d="M19.2498 5.5C20.7686 5.5 21.9998 6.73122 21.9998 8.25V11H24.0134C24.0458 10.9994 24.0782 10.9994 24.1108 11H30.2498C31.7686 11 32.9998 12.2312 32.9998 13.75C32.9998 15.2688 31.7686 16.5 30.2498 16.5H26.3393C25.3447 21.1406 23.7343 25.5517 21.5984 29.644C22.398 30.6179 23.2363 31.5591 24.1108 32.4651C25.1657 33.5578 25.135 35.2987 24.0422 36.3535C22.9495 37.4084 21.2086 37.3777 20.1538 36.2849C19.6337 35.7462 19.1251 35.1963 18.6284 34.6356C16.1944 38.2527 13.3204 41.548 10.0838 44.4449C8.9521 45.4578 7.21356 45.3615 6.20066 44.2298C5.18776 43.0981 5.28407 41.3595 6.41577 40.3466C9.75178 37.3608 12.6556 33.9043 15.0233 30.082C13.493 27.9123 12.1236 25.6204 10.9326 23.2238C10.2567 21.8637 10.8113 20.2132 12.1714 19.5373C13.5315 18.8614 15.182 19.4161 15.8579 20.7762C16.5003 22.0688 17.2009 23.3276 17.9562 24.5492C19.104 21.98 20.0266 19.2885 20.6989 16.5H8.24978C6.731 16.5 5.49978 15.2688 5.49978 13.75C5.49978 12.2312 6.731 11 8.24978 11H16.4998V8.25C16.4998 6.73122 17.731 5.5 19.2498 5.5ZM35.7498 22C36.7914 22 37.7436 22.5885 38.2095 23.5202L46.4347 39.9707C46.4525 40.0045 46.4697 40.0388 46.4861 40.0735L49.2095 45.5202C49.8887 46.8786 49.3381 48.5305 47.9796 49.2097C46.6212 49.8889 44.9693 49.3383 44.2901 47.9798L42.3002 44H29.1994L27.2095 47.9798C26.5302 49.3383 24.8784 49.8889 23.5199 49.2097C22.1615 48.5305 21.6109 46.8786 22.2901 45.5202L25.0135 40.0735C25.0299 40.0388 25.047 40.0045 25.0649 39.9707L33.2901 23.5202C33.7559 22.5885 34.7082 22 35.7498 22ZM31.9494 38.5H39.5502L35.7498 30.8992L31.9494 38.5Z" fill="#ED5C18"/>
</svg>
