<svg width="60" height="55" viewBox="0 0 60 55" fill="none" xmlns="http://www.w3.org/2000/svg">
<path d="M49.5453 31.6663C51.3026 31.6663 52.7272 30.3605 52.7272 28.7497C52.7272 27.1388 51.3026 25.833 49.5453 25.833C47.7881 25.833 46.3635 27.1388 46.3635 28.7497C46.3635 30.3605 47.7881 31.6663 49.5453 31.6663Z" fill="#ED5C18"/>
<path fill-rule="evenodd" clip-rule="evenodd" d="M52.7272 21.9519C51.694 21.5019 50.5382 21.2502 49.3182 21.2502C44.925 21.2502 41.3636 24.5148 41.3636 28.5418C41.3636 32.5689 44.925 35.8335 49.3182 35.8335C50.5382 35.8335 51.694 35.5817 52.7272 35.1318V40.0002C52.7272 42.3013 50.6922 44.1668 48.1818 44.1668H11.8182C9.30777 44.1668 7.27271 42.3013 7.27271 40.0002V15.0002C7.27271 12.699 9.30777 10.8335 11.8182 10.8335H48.1818C50.6922 10.8335 52.7272 12.699 52.7272 15.0002V21.9519Z" fill="#ED5C18"/>
</svg>
