<svg width="55" height="55" viewBox="0 0 55 55" fill="none" xmlns="http://www.w3.org/2000/svg">
<path d="M27.4962 5.0354C26.481 5.0354 25.4612 5.26458 24.6316 5.67937L9.9512 12.9852C8.16141 13.8789 6.87122 15.9965 6.87122 17.9971V36.8323C6.87122 38.8329 8.16141 40.9504 9.9512 41.8442L24.6316 49.15C26.2885 49.9773 28.7039 49.9773 30.3608 49.15L45.0412 41.8442C46.831 40.9504 48.1212 38.8329 48.1212 36.8323V17.9971C48.1212 15.9965 46.831 13.8789 45.0412 12.9852L30.3608 5.67937C29.5312 5.26458 28.5114 5.0354 27.4962 5.0354ZM27.4962 15.9919C33.8235 15.9919 38.9546 21.1229 38.9546 27.4502C38.9546 33.7775 33.8235 38.9085 27.4962 38.9085C21.1689 38.9085 16.0379 33.7775 16.0379 27.4502C16.0379 21.1229 21.1689 15.9919 27.4962 15.9919Z" fill="#ED5C18"/>
</svg>
