<svg width="55" height="55" viewBox="0 0 55 55" fill="none" xmlns="http://www.w3.org/2000/svg">
<path d="M27.4999 4.58337C18.0811 4.58337 10.427 12.2375 10.427 21.6563C10.427 32.8625 24.5895 48.7209 25.1854 49.3855C25.7812 50.05 26.6291 50.4167 27.4999 50.4167C28.3708 50.4167 29.2187 50.05 29.8145 49.3855C31.327 47.7125 44.5729 32.6105 44.5729 21.6563C44.5729 12.2375 36.9187 4.58337 27.4999 4.58337ZM27.4999 46.8188C25.6437 44.6646 13.8645 30.823 13.8645 21.6563C13.8645 14.1396 19.9833 8.02087 27.4999 8.02087C35.0166 8.02087 41.1354 14.1396 41.1354 21.6563C41.1354 29.4021 32.3583 41.3188 27.4999 46.8188Z" fill="black"/>
<path d="M27.4999 4.58337C18.0811 4.58337 10.427 12.2375 10.427 21.6563C10.427 32.8625 24.5895 48.7209 25.1854 49.3855C25.7812 50.05 26.6291 50.4167 27.4999 50.4167C28.3708 50.4167 29.2187 50.05 29.8145 49.3855C31.327 47.7125 44.5729 32.6105 44.5729 21.6563C44.5729 12.2375 36.9187 4.58337 27.4999 4.58337ZM20.3499 21.6563C20.3499 17.7146 23.5583 14.5063 27.4999 14.5063C31.4416 14.5063 34.6499 17.7146 34.6499 21.6563C34.6499 25.598 31.4416 28.8063 27.4999 28.8063C23.5583 28.8063 20.3499 25.598 20.3499 21.6563Z" fill="#ED5C18"/>
<path d="M25 22.5L27 24L30 20" stroke="#ED5C18" stroke-linecap="round"/>
</svg>
