<svg width="55" height="55" viewBox="0 0 55 55" fill="none" xmlns="http://www.w3.org/2000/svg">
<path d="M18.3474 4.61572C17.0824 4.61572 16.0557 5.64239 16.0557 6.90739C10.9934 6.90739 6.88904 11.0118 6.88904 16.0741V38.9908C6.88904 44.0531 10.9934 48.1575 16.0557 48.1575H38.9724C44.037 48.1575 48.139 44.0531 48.139 38.9908V16.0741C48.139 11.0118 44.037 6.90739 38.9724 6.90739C38.9724 5.64239 37.948 4.61572 36.6807 4.61572C35.4157 4.61572 34.389 5.64239 34.389 6.90739H20.639C20.639 5.64239 19.6147 4.61572 18.3474 4.61572ZM18.3474 16.0741H36.6807C37.948 16.0741 38.9724 17.1007 38.9724 18.3657C38.9724 19.6307 37.948 20.6574 36.6807 20.6574H18.3474C17.0824 20.6574 16.0557 19.6307 16.0557 18.3657C16.0557 17.1007 17.0824 16.0741 18.3474 16.0741ZM34.389 27.5325C34.9757 27.5325 35.5899 27.7296 36.0367 28.1764C36.9328 29.0725 36.9328 30.5758 36.0367 31.4719L29.1617 38.3469C28.268 39.2406 26.7624 39.2406 25.8686 38.3469L21.2853 33.7635C20.3893 32.8675 20.3893 31.3641 21.2853 30.4681C22.1791 29.5744 23.6847 29.5744 24.5784 30.4681L27.514 33.4037L32.7436 28.1764C33.1905 27.7296 33.8047 27.5325 34.389 27.5325Z" fill="#ED5C18"/>
</svg>
