<svg width="55" height="55" viewBox="0 0 55 55" fill="none" xmlns="http://www.w3.org/2000/svg">
<path d="M45.5583 11.9398L28.1417 4.721C27.7062 4.53766 27.2479 4.53766 26.8125 4.721L9.39586 11.9398C8.7542 12.2148 8.34167 12.8336 8.34167 13.5211V21.9773C8.34167 34.2147 15.5833 45.3293 26.7667 50.2564C26.9958 50.3481 27.225 50.3939 27.4542 50.3939C27.6833 50.3939 27.9354 50.3481 28.1417 50.2564C39.3479 45.3293 46.5667 34.2147 46.5667 21.9773V13.5211C46.6354 12.8336 46.2 12.2148 45.5583 11.9398Z" fill="#ED5C18"/>
<path d="M33.8965 23.999C33.8965 20.685 31.2105 17.999 27.8965 17.999C24.5825 17.999 21.8965 20.685 21.8965 23.999C21.8965 26.122 23.1165 28.568 25.9045 29.674L25.8965 33.999L23.8965 34.999L23.8965 37.999L29.8965 37.999L29.9065 29.666C32.6165 28.592 33.8965 26.122 33.8965 23.999ZM28.8965 23.999C28.8965 24.255 28.8105 24.522 28.6155 24.718C28.2245 25.108 27.5685 25.108 27.1775 24.718C26.7875 24.327 26.7875 23.671 27.1775 23.28C27.5685 22.89 28.2245 22.89 28.6155 23.28C28.8105 23.476 28.8965 23.743 28.8965 23.999Z" fill="white"/>
</svg>
