<svg width="55" height="55" viewBox="0 0 55 55" fill="none" xmlns="http://www.w3.org/2000/svg">
<path d="M20.2583 26.5604C25.025 26.5604 28.8979 22.6875 28.8979 17.9208C28.8979 13.1541 25.025 9.28125 20.2583 9.28125C15.4917 9.28125 11.6188 13.1541 11.6188 17.9208C11.6188 22.6875 15.4917 26.5604 20.2583 26.5604Z" fill="#ED5C18"/>
<path d="M37.0334 40.0583V44C37.0334 44.9395 36.2771 45.7187 35.3146 45.7187H6.30212C5.36254 45.7187 4.58337 44.9395 4.58337 44V40.0583C4.58337 34.5354 9.07504 30.0437 14.598 30.0437H27.0188C28.1417 30.0437 29.2188 30.227 30.2271 30.5937C30.2271 30.5937 30.2271 30.5708 30.25 30.5937C34.1917 31.9229 37.0334 35.6583 37.0334 40.0583Z" fill="#ED5C18"/>
<path d="M37.0334 40.0583V44C37.0334 44.9395 36.2771 45.7187 35.3146 45.7187H6.30212C5.36254 45.7187 4.58337 44.9395 4.58337 44V40.0583C4.58337 34.5354 9.07504 30.0437 14.598 30.0437H27.0188C28.1417 30.0437 29.2188 30.227 30.2271 30.5937C30.2271 30.5937 30.2271 30.5708 30.25 30.5937C34.1917 31.9229 37.0334 35.6583 37.0334 40.0583Z" fill="#ED5C18"/>
<path d="M50.4167 38.0875V41.3187C50.4167 42.075 49.7979 42.6937 49.0417 42.6937H40.4708V40.0583C40.4708 37.7437 39.875 35.5437 38.8438 33.6416C38.4083 32.8625 37.9271 32.1291 37.3771 31.4646C36.9875 31.0291 36.5979 30.5937 36.1854 30.2271H42.5563C42.8083 30.2271 43.0375 30.2271 43.2667 30.2729C43.5646 30.2958 43.8625 30.3416 44.1604 30.4104C45.9021 30.7771 47.4146 31.7396 48.5375 33.0229C48.7208 33.2291 48.9042 33.4583 49.0646 33.7104C49.0875 33.7104 49.0875 33.7104 49.0646 33.7333C49.5 34.375 49.8438 35.0625 50.0729 35.8187C50.1417 36.0708 50.2104 36.3229 50.2563 36.575C50.3708 37.0562 50.4167 37.5604 50.4167 38.0875Z" fill="#ED5C18"/>
<path d="M37.5375 26.2396C41.322 26.2396 44.3896 23.1718 44.3896 19.3875C44.3896 15.6032 41.322 12.5354 37.5375 12.5354C33.7533 12.5354 30.6854 15.6032 30.6854 19.3875C30.6854 23.1718 33.7533 26.2396 37.5375 26.2396Z" fill="#ED5C18"/>
</svg>
