<svg width="523" height="607" viewBox="0 0 523 607" fill="none" xmlns="http://www.w3.org/2000/svg">
<g filter="url(#filter0_d_334_28)">
<g clip-path="url(#clip0_334_28)">
<rect x="40" y="36" width="443" height="526.772" rx="8.89686" fill="white"/>
<rect x="39.3462" y="40.2598" width="439.824" height="522.513" rx="9.85575" fill="white"/>
<rect x="66.601" y="150.047" width="388.301" height="40.2783" rx="4.10091" fill="#FAFAFA" stroke="#EAEAEA" stroke-width="0.74562"/>
<rect x="66.601" y="237.413" width="388.301" height="40.2783" rx="4.10091" fill="#FAFAFA" stroke="#EAEAEA" stroke-width="0.74562"/>
<rect x="66.601" y="324.778" width="388.301" height="40.2783" rx="4.10091" fill="#FAFAFA" stroke="#EAEAEA" stroke-width="0.74562"/>
<rect x="66.601" y="412.144" width="388.301" height="40.2783" rx="4.10091" fill="#FAFAFA" stroke="#EAEAEA" stroke-width="0.74562"/>
<rect x="337.664" y="499.511" width="117.238" height="40.2783" rx="4.10091" fill="#ED5C18" stroke="#EAEAEA" stroke-width="0.74562"/>
<path d="M68.1593 120.578V123.468H71.5594V124.786H68.1593V127.803H71.9844V129.121H66.5443V119.261H71.9844V120.578H68.1593ZM83.4228 121.187C84.0367 121.187 84.5845 121.315 85.0662 121.57C85.5573 121.825 85.9398 122.202 86.2137 122.703C86.497 123.204 86.6387 123.808 86.6387 124.516V129.121H85.0378V124.757C85.0378 124.058 84.8631 123.525 84.5137 123.156C84.1642 122.779 83.6873 122.59 83.0828 122.59C82.4784 122.59 81.9967 122.779 81.6378 123.156C81.2884 123.525 81.1136 124.058 81.1136 124.757V129.121H79.5128V124.757C79.5128 124.058 79.3381 123.525 78.9886 123.156C78.6392 122.779 78.1622 122.59 77.5578 122.59C76.9533 122.59 76.4717 122.779 76.1128 123.156C75.7633 123.525 75.5886 124.058 75.5886 124.757V129.121H73.9736V121.315H75.5886V122.207C75.853 121.886 76.1883 121.636 76.5944 121.456C77.0005 121.277 77.435 121.187 77.8978 121.187C78.5211 121.187 79.0783 121.319 79.5695 121.584C80.0606 121.848 80.4384 122.231 80.7028 122.731C80.9389 122.259 81.3072 121.886 81.8078 121.612C82.3084 121.329 82.8467 121.187 83.4228 121.187ZM90.3088 122.462C90.5827 122.103 90.9557 121.801 91.4279 121.556C91.9002 121.31 92.4338 121.187 93.0288 121.187C93.7088 121.187 94.3274 121.357 94.8846 121.697C95.4513 122.028 95.8952 122.495 96.2163 123.1C96.5374 123.704 96.698 124.398 96.698 125.182C96.698 125.966 96.5374 126.67 96.2163 127.293C95.8952 127.907 95.4513 128.389 94.8846 128.738C94.3274 129.078 93.7088 129.248 93.0288 129.248C92.4338 129.248 91.9049 129.13 91.4421 128.894C90.9793 128.648 90.6015 128.346 90.3088 127.987V132.832H88.6937V121.315H90.3088V122.462ZM95.0546 125.182C95.0546 124.644 94.9413 124.181 94.7146 123.794C94.4974 123.397 94.2046 123.1 93.8363 122.901C93.4774 122.694 93.0902 122.59 92.6746 122.59C92.2685 122.59 91.8813 122.694 91.5129 122.901C91.154 123.109 90.8613 123.411 90.6346 123.808C90.4174 124.205 90.3088 124.672 90.3088 125.211C90.3088 125.749 90.4174 126.221 90.6346 126.627C90.8613 127.024 91.154 127.326 91.5129 127.534C91.8813 127.742 92.2685 127.846 92.6746 127.846C93.0902 127.846 93.4774 127.742 93.8363 127.534C94.2046 127.317 94.4974 127.005 94.7146 126.599C94.9413 126.193 95.0546 125.721 95.0546 125.182ZM99.9101 118.637V129.121H98.2951V118.637H99.9101ZM105.416 129.248C104.68 129.248 104.014 129.083 103.419 128.752C102.824 128.412 102.356 127.94 102.016 127.336C101.676 126.722 101.506 126.013 101.506 125.211C101.506 124.417 101.681 123.714 102.03 123.1C102.38 122.486 102.857 122.014 103.461 121.683C104.066 121.352 104.741 121.187 105.487 121.187C106.233 121.187 106.909 121.352 107.513 121.683C108.117 122.014 108.594 122.486 108.944 123.1C109.293 123.714 109.468 124.417 109.468 125.211C109.468 126.004 109.289 126.708 108.93 127.321C108.571 127.935 108.08 128.412 107.456 128.752C106.842 129.083 106.162 129.248 105.416 129.248ZM105.416 127.846C105.832 127.846 106.219 127.746 106.578 127.548C106.946 127.35 107.244 127.052 107.47 126.656C107.697 126.259 107.81 125.777 107.81 125.211C107.81 124.644 107.702 124.167 107.485 123.78C107.267 123.383 106.979 123.086 106.62 122.887C106.262 122.689 105.874 122.59 105.459 122.59C105.043 122.59 104.656 122.689 104.297 122.887C103.948 123.086 103.669 123.383 103.461 123.78C103.254 124.167 103.15 124.644 103.15 125.211C103.15 126.051 103.362 126.703 103.787 127.166C104.222 127.619 104.765 127.846 105.416 127.846ZM118.091 121.315L113.303 132.79H111.631L113.218 128.993L110.144 121.315H111.943L114.139 127.265L116.42 121.315H118.091ZM126.464 125.026C126.464 125.319 126.445 125.584 126.408 125.82H120.443C120.491 126.443 120.722 126.944 121.138 127.321C121.553 127.699 122.063 127.888 122.668 127.888C123.536 127.888 124.15 127.524 124.509 126.797H126.252C126.016 127.515 125.586 128.105 124.963 128.568C124.349 129.021 123.584 129.248 122.668 129.248C121.921 129.248 121.251 129.083 120.656 128.752C120.07 128.412 119.608 127.94 119.268 127.336C118.937 126.722 118.772 126.013 118.772 125.211C118.772 124.408 118.932 123.704 119.253 123.1C119.584 122.486 120.042 122.014 120.628 121.683C121.223 121.352 121.903 121.187 122.668 121.187C123.404 121.187 124.061 121.348 124.637 121.669C125.213 121.99 125.661 122.443 125.983 123.029C126.304 123.605 126.464 124.271 126.464 125.026ZM124.778 124.516C124.769 123.921 124.556 123.444 124.141 123.086C123.725 122.727 123.211 122.547 122.597 122.547C122.04 122.547 121.563 122.727 121.166 123.086C120.769 123.435 120.533 123.912 120.458 124.516H124.778ZM135.208 125.026C135.208 125.319 135.189 125.584 135.151 125.82H129.187C129.234 126.443 129.466 126.944 129.881 127.321C130.297 127.699 130.807 127.888 131.411 127.888C132.28 127.888 132.894 127.524 133.253 126.797H134.995C134.759 127.515 134.329 128.105 133.706 128.568C133.092 129.021 132.327 129.248 131.411 129.248C130.665 129.248 129.994 129.083 129.399 128.752C128.814 128.412 128.351 127.94 128.011 127.336C127.681 126.722 127.515 126.013 127.515 125.211C127.515 124.408 127.676 123.704 127.997 123.1C128.327 122.486 128.786 122.014 129.371 121.683C129.966 121.352 130.646 121.187 131.411 121.187C132.148 121.187 132.804 121.348 133.38 121.669C133.956 121.99 134.405 122.443 134.726 123.029C135.047 123.605 135.208 124.271 135.208 125.026ZM133.522 124.516C133.513 123.921 133.3 123.444 132.884 123.086C132.469 122.727 131.954 122.547 131.34 122.547C130.783 122.547 130.306 122.727 129.909 123.086C129.513 123.435 129.277 123.912 129.201 124.516H133.522ZM148.566 129.121H146.951L142.092 121.768V129.121H140.477V119.261H142.092L146.951 126.599V119.261H148.566V129.121ZM150.149 125.182C150.149 124.398 150.309 123.704 150.631 123.1C150.961 122.495 151.405 122.028 151.962 121.697C152.529 121.357 153.152 121.187 153.832 121.187C154.446 121.187 154.98 121.31 155.433 121.556C155.896 121.792 156.264 122.089 156.538 122.448V121.315H158.167V129.121H156.538V127.959C156.264 128.327 155.891 128.634 155.419 128.88C154.947 129.125 154.408 129.248 153.804 129.248C153.133 129.248 152.519 129.078 151.962 128.738C151.405 128.389 150.961 127.907 150.631 127.293C150.309 126.67 150.149 125.966 150.149 125.182ZM156.538 125.211C156.538 124.672 156.425 124.205 156.198 123.808C155.981 123.411 155.693 123.109 155.334 122.901C154.975 122.694 154.588 122.59 154.172 122.59C153.757 122.59 153.369 122.694 153.011 122.901C152.652 123.1 152.359 123.397 152.132 123.794C151.915 124.181 151.806 124.644 151.806 125.182C151.806 125.721 151.915 126.193 152.132 126.599C152.359 127.005 152.652 127.317 153.011 127.534C153.379 127.742 153.766 127.846 154.172 127.846C154.588 127.846 154.975 127.742 155.334 127.534C155.693 127.326 155.981 127.024 156.198 126.627C156.425 126.221 156.538 125.749 156.538 125.211ZM169.738 121.187C170.352 121.187 170.899 121.315 171.381 121.57C171.872 121.825 172.255 122.202 172.529 122.703C172.812 123.204 172.954 123.808 172.954 124.516V129.121H171.353V124.757C171.353 124.058 171.178 123.525 170.829 123.156C170.479 122.779 170.002 122.59 169.398 122.59C168.793 122.59 168.312 122.779 167.953 123.156C167.603 123.525 167.429 124.058 167.429 124.757V129.121H165.828V124.757C165.828 124.058 165.653 123.525 165.304 123.156C164.954 122.779 164.477 122.59 163.873 122.59C163.268 122.59 162.787 122.779 162.428 123.156C162.078 123.525 161.904 124.058 161.904 124.757V129.121H160.289V121.315H161.904V122.207C162.168 121.886 162.503 121.636 162.909 121.456C163.316 121.277 163.75 121.187 164.213 121.187C164.836 121.187 165.393 121.319 165.884 121.584C166.376 121.848 166.753 122.231 167.018 122.731C167.254 122.259 167.622 121.886 168.123 121.612C168.623 121.329 169.162 121.187 169.738 121.187ZM182.163 125.026C182.163 125.319 182.144 125.584 182.106 125.82H176.142C176.189 126.443 176.421 126.944 176.836 127.321C177.252 127.699 177.762 127.888 178.366 127.888C179.235 127.888 179.849 127.524 180.208 126.797H181.95C181.714 127.515 181.285 128.105 180.661 128.568C180.047 129.021 179.282 129.248 178.366 129.248C177.62 129.248 176.95 129.083 176.355 128.752C175.769 128.412 175.306 127.94 174.966 127.336C174.636 126.722 174.47 126.013 174.47 125.211C174.47 124.408 174.631 123.704 174.952 123.1C175.283 122.486 175.741 122.014 176.326 121.683C176.921 121.352 177.601 121.187 178.366 121.187C179.103 121.187 179.759 121.348 180.335 121.669C180.912 121.99 181.36 122.443 181.681 123.029C182.002 123.605 182.163 124.271 182.163 125.026ZM180.477 124.516C180.468 123.921 180.255 123.444 179.84 123.086C179.424 122.727 178.909 122.547 178.295 122.547C177.738 122.547 177.261 122.727 176.865 123.086C176.468 123.435 176.232 123.912 176.156 124.516H180.477Z" fill="#635D5D"/>
<path d="M66.0063 212.135C66.0063 211.172 66.2283 210.307 66.6722 209.542C67.1255 208.777 67.7347 208.182 68.4997 207.757C69.2742 207.323 70.1194 207.106 71.0356 207.106C72.0839 207.106 73.0142 207.365 73.8264 207.885C74.6481 208.395 75.2431 209.122 75.6114 210.067H73.6706C73.4156 209.547 73.0614 209.16 72.6081 208.905C72.1547 208.65 71.6306 208.522 71.0356 208.522C70.3839 208.522 69.803 208.669 69.293 208.962C68.783 209.254 68.3816 209.675 68.0889 210.222C67.8055 210.77 67.6639 211.408 67.6639 212.135C67.6639 212.862 67.8055 213.5 68.0889 214.047C68.3816 214.595 68.783 215.02 69.293 215.322C69.803 215.615 70.3839 215.762 71.0356 215.762C71.6306 215.762 72.1547 215.634 72.6081 215.379C73.0614 215.124 73.4156 214.737 73.6706 214.217H75.6114C75.2431 215.162 74.6481 215.889 73.8264 216.399C73.0142 216.909 72.0839 217.164 71.0356 217.164C70.11 217.164 69.2647 216.952 68.4997 216.527C67.7347 216.092 67.1255 215.492 66.6722 214.727C66.2283 213.962 66.0063 213.098 66.0063 212.135ZM76.9635 213.141C76.9635 212.357 77.124 211.663 77.4451 211.058C77.7757 210.454 78.2196 209.986 78.7768 209.656C79.3435 209.316 79.9668 209.146 80.6468 209.146C81.2607 209.146 81.7943 209.268 82.2477 209.514C82.7105 209.75 83.0788 210.048 83.3527 210.407V209.273H84.9819V217.079H83.3527V215.917C83.0788 216.286 82.7057 216.593 82.2335 216.838C81.7613 217.084 81.2229 217.207 80.6185 217.207C79.9479 217.207 79.334 217.037 78.7768 216.697C78.2196 216.347 77.7757 215.865 77.4451 215.252C77.124 214.628 76.9635 213.925 76.9635 213.141ZM83.3527 213.169C83.3527 212.631 83.2394 212.163 83.0127 211.767C82.7955 211.37 82.5074 211.068 82.1485 210.86C81.7896 210.652 81.4024 210.548 80.9868 210.548C80.5713 210.548 80.184 210.652 79.8252 210.86C79.4663 211.058 79.1735 211.356 78.9468 211.752C78.7296 212.14 78.621 212.602 78.621 213.141C78.621 213.679 78.7296 214.151 78.9468 214.557C79.1735 214.964 79.4663 215.275 79.8252 215.492C80.1935 215.7 80.5807 215.804 80.9868 215.804C81.4024 215.804 81.7896 215.7 82.1485 215.492C82.5074 215.285 82.7955 214.982 83.0127 214.586C83.2394 214.18 83.3527 213.707 83.3527 213.169ZM88.9873 210.591V214.912C88.9873 215.204 89.0534 215.417 89.1856 215.549C89.3273 215.672 89.5634 215.733 89.894 215.733H90.8857V217.079H89.6106C88.8834 217.079 88.3262 216.909 87.939 216.569C87.5517 216.229 87.3581 215.677 87.3581 214.912V210.591H86.4373V209.273H87.3581V207.332H88.9873V209.273H90.8857V210.591H88.9873ZM99.5284 212.985C99.5284 213.278 99.5095 213.542 99.4717 213.778H93.5075C93.5547 214.402 93.7861 214.902 94.2017 215.28C94.6172 215.658 95.1272 215.847 95.7317 215.847C96.6006 215.847 97.2145 215.483 97.5734 214.756H99.3159C99.0798 215.474 98.65 216.064 98.0267 216.527C97.4128 216.98 96.6478 217.207 95.7317 217.207C94.9856 217.207 94.315 217.041 93.72 216.711C93.1344 216.371 92.6717 215.899 92.3317 215.294C92.0011 214.68 91.8358 213.972 91.8358 213.169C91.8358 212.366 91.9964 211.663 92.3175 211.058C92.648 210.444 93.1061 209.972 93.6917 209.642C94.2867 209.311 94.9667 209.146 95.7317 209.146C96.4684 209.146 97.1248 209.306 97.7009 209.627C98.277 209.948 98.7256 210.402 99.0467 210.987C99.3678 211.564 99.5284 212.229 99.5284 212.985ZM97.8425 212.475C97.8331 211.88 97.6206 211.403 97.205 211.044C96.7895 210.685 96.2747 210.506 95.6609 210.506C95.1036 210.506 94.6267 210.685 94.23 211.044C93.8333 211.393 93.5972 211.87 93.5217 212.475H97.8425ZM104.263 209.146C104.867 209.146 105.401 209.268 105.864 209.514C106.336 209.75 106.704 210.048 106.969 210.407V209.273H108.598V217.207C108.598 217.924 108.447 218.562 108.144 219.119C107.842 219.686 107.403 220.13 106.827 220.451C106.26 220.772 105.58 220.932 104.787 220.932C103.729 220.932 102.851 220.682 102.152 220.182C101.453 219.691 101.056 219.02 100.962 218.17H102.563C102.686 218.576 102.945 218.902 103.342 219.147C103.748 219.402 104.23 219.53 104.787 219.53C105.439 219.53 105.963 219.332 106.359 218.935C106.766 218.538 106.969 217.962 106.969 217.207V215.903C106.695 216.272 106.322 216.583 105.849 216.838C105.387 217.084 104.858 217.207 104.263 217.207C103.583 217.207 102.959 217.037 102.393 216.697C101.836 216.347 101.392 215.865 101.061 215.252C100.74 214.628 100.579 213.925 100.579 213.141C100.579 212.357 100.74 211.663 101.061 211.058C101.392 210.454 101.836 209.986 102.393 209.656C102.959 209.316 103.583 209.146 104.263 209.146ZM106.969 213.169C106.969 212.631 106.855 212.163 106.629 211.767C106.411 211.37 106.123 211.068 105.764 210.86C105.406 210.652 105.018 210.548 104.603 210.548C104.187 210.548 103.8 210.652 103.441 210.86C103.082 211.058 102.789 211.356 102.563 211.752C102.346 212.14 102.237 212.602 102.237 213.141C102.237 213.679 102.346 214.151 102.563 214.557C102.789 214.964 103.082 215.275 103.441 215.492C103.809 215.7 104.197 215.804 104.603 215.804C105.018 215.804 105.406 215.7 105.764 215.492C106.123 215.285 106.411 214.982 106.629 214.586C106.855 214.18 106.969 213.707 106.969 213.169ZM114.105 217.207C113.368 217.207 112.702 217.041 112.107 216.711C111.512 216.371 111.045 215.899 110.705 215.294C110.365 214.68 110.195 213.972 110.195 213.169C110.195 212.376 110.37 211.672 110.719 211.058C111.068 210.444 111.545 209.972 112.15 209.642C112.754 209.311 113.43 209.146 114.176 209.146C114.922 209.146 115.597 209.311 116.202 209.642C116.806 209.972 117.283 210.444 117.632 211.058C117.982 211.672 118.157 212.376 118.157 213.169C118.157 213.962 117.977 214.666 117.618 215.28C117.259 215.894 116.768 216.371 116.145 216.711C115.531 217.041 114.851 217.207 114.105 217.207ZM114.105 215.804C114.52 215.804 114.908 215.705 115.267 215.507C115.635 215.308 115.932 215.011 116.159 214.614C116.386 214.217 116.499 213.736 116.499 213.169C116.499 212.602 116.39 212.125 116.173 211.738C115.956 211.342 115.668 211.044 115.309 210.846C114.95 210.647 114.563 210.548 114.147 210.548C113.732 210.548 113.345 210.647 112.986 210.846C112.636 211.044 112.358 211.342 112.15 211.738C111.942 212.125 111.838 212.602 111.838 213.169C111.838 214.01 112.051 214.661 112.476 215.124C112.91 215.577 113.453 215.804 114.105 215.804ZM121.368 210.407C121.604 210.01 121.916 209.703 122.303 209.486C122.7 209.259 123.167 209.146 123.706 209.146V210.817H123.295C122.662 210.817 122.18 210.978 121.85 211.299C121.529 211.62 121.368 212.177 121.368 212.971V217.079H119.753V209.273H121.368V210.407ZM132.217 209.273L127.429 220.748H125.757L127.344 216.952L124.269 209.273H126.069L128.264 215.223L130.545 209.273H132.217Z" fill="#635D5D"/>
<path d="M69.7889 304.138C69.1278 304.138 68.5328 304.024 68.0039 303.798C67.475 303.562 67.0594 303.231 66.7572 302.806C66.455 302.381 66.3039 301.885 66.3039 301.319H68.0322C68.07 301.744 68.2353 302.093 68.528 302.367C68.8303 302.641 69.2505 302.778 69.7889 302.778C70.3461 302.778 70.7806 302.646 71.0922 302.381C71.4039 302.107 71.5597 301.758 71.5597 301.333C71.5597 301.002 71.4606 300.733 71.2622 300.525C71.0733 300.317 70.8325 300.157 70.5397 300.044C70.2564 299.93 69.8597 299.807 69.3497 299.675C68.7075 299.505 68.1833 299.335 67.7772 299.165C67.3805 298.986 67.0405 298.712 66.7572 298.344C66.4739 297.975 66.3322 297.484 66.3322 296.87C66.3322 296.304 66.4739 295.808 66.7572 295.383C67.0405 294.958 67.4372 294.632 67.9472 294.405C68.4572 294.178 69.0475 294.065 69.718 294.065C70.6719 294.065 71.4511 294.306 72.0556 294.788C72.6695 295.26 73.0095 295.912 73.0756 296.743H71.2906C71.2622 296.384 71.0922 296.077 70.7806 295.822C70.4689 295.567 70.058 295.439 69.548 295.439C69.0853 295.439 68.7075 295.557 68.4147 295.794C68.1219 296.03 67.9755 296.37 67.9755 296.814C67.9755 297.116 68.0653 297.366 68.2447 297.564C68.4336 297.753 68.6697 297.904 68.953 298.018C69.2364 298.131 69.6236 298.254 70.1147 298.386C70.7664 298.565 71.2953 298.745 71.7014 298.924C72.117 299.104 72.4664 299.382 72.7497 299.76C73.0425 300.129 73.1889 300.624 73.1889 301.248C73.1889 301.748 73.052 302.221 72.7781 302.664C72.5136 303.108 72.1217 303.467 71.6022 303.741C71.0922 304.006 70.4878 304.138 69.7889 304.138ZM76.7096 297.38C76.9835 297.021 77.3565 296.719 77.8287 296.474C78.301 296.228 78.8346 296.105 79.4296 296.105C80.1096 296.105 80.7282 296.275 81.2854 296.615C81.8521 296.946 82.296 297.413 82.6171 298.018C82.9382 298.622 83.0988 299.316 83.0988 300.1C83.0988 300.884 82.9382 301.588 82.6171 302.211C82.296 302.825 81.8521 303.307 81.2854 303.656C80.7282 303.996 80.1096 304.166 79.4296 304.166C78.8346 304.166 78.3057 304.048 77.8429 303.812C77.3801 303.566 77.0024 303.264 76.7096 302.905V307.75H75.0946V296.233H76.7096V297.38ZM81.4554 300.1C81.4554 299.562 81.3421 299.099 81.1154 298.712C80.8982 298.315 80.6054 298.018 80.2371 297.819C79.8782 297.612 79.491 297.508 79.0754 297.508C78.6693 297.508 78.2821 297.612 77.9137 297.819C77.5549 298.027 77.2621 298.329 77.0354 298.726C76.8182 299.123 76.7096 299.59 76.7096 300.129C76.7096 300.667 76.8182 301.139 77.0354 301.545C77.2621 301.942 77.5549 302.244 77.9137 302.452C78.2821 302.66 78.6693 302.764 79.0754 302.764C79.491 302.764 79.8782 302.66 80.2371 302.452C80.6054 302.235 80.8982 301.923 81.1154 301.517C81.3421 301.111 81.4554 300.639 81.4554 300.1ZM84.1575 300.1C84.1575 299.316 84.3181 298.622 84.6392 298.018C84.9698 297.413 85.4137 296.946 85.9709 296.615C86.5376 296.275 87.1609 296.105 87.8409 296.105C88.4548 296.105 88.9884 296.228 89.4417 296.474C89.9045 296.71 90.2729 297.007 90.5468 297.366V296.233H92.1759V304.039H90.5468V302.877C90.2729 303.245 89.8998 303.552 89.4276 303.798C88.9554 304.043 88.417 304.166 87.8126 304.166C87.142 304.166 86.5281 303.996 85.9709 303.656C85.4137 303.307 84.9698 302.825 84.6392 302.211C84.3181 301.588 84.1575 300.884 84.1575 300.1ZM90.5468 300.129C90.5468 299.59 90.4334 299.123 90.2068 298.726C89.9895 298.329 89.7015 298.027 89.3426 297.819C88.9837 297.612 88.5965 297.508 88.1809 297.508C87.7653 297.508 87.3781 297.612 87.0192 297.819C86.6603 298.018 86.3676 298.315 86.1409 298.712C85.9237 299.099 85.8151 299.562 85.8151 300.1C85.8151 300.639 85.9237 301.111 86.1409 301.517C86.3676 301.923 86.6603 302.235 87.0192 302.452C87.3876 302.66 87.7748 302.764 88.1809 302.764C88.5965 302.764 88.9837 302.66 89.3426 302.452C89.7015 302.244 89.9895 301.942 90.2068 301.545C90.4334 301.139 90.5468 300.667 90.5468 300.129ZM93.7589 300.129C93.7589 299.326 93.9194 298.622 94.2405 298.018C94.5711 297.404 95.0244 296.932 95.6005 296.601C96.1766 296.27 96.8378 296.105 97.5839 296.105C98.5283 296.105 99.3075 296.332 99.9214 296.785C100.545 297.229 100.965 297.867 101.182 298.698H99.4397C99.2981 298.31 99.0714 298.008 98.7597 297.791C98.4481 297.574 98.0561 297.465 97.5839 297.465C96.9228 297.465 96.3939 297.701 95.9972 298.174C95.61 298.636 95.4164 299.288 95.4164 300.129C95.4164 300.969 95.61 301.625 95.9972 302.098C96.3939 302.57 96.9228 302.806 97.5839 302.806C98.5189 302.806 99.1375 302.395 99.4397 301.574H101.182C100.956 302.367 100.531 303 99.9072 303.472C99.2839 303.935 98.5094 304.166 97.5839 304.166C96.8378 304.166 96.1766 304.001 95.6005 303.67C95.0244 303.33 94.5711 302.858 94.2405 302.254C93.9194 301.64 93.7589 300.931 93.7589 300.129ZM109.946 299.944C109.946 300.237 109.927 300.502 109.889 300.738H103.925C103.972 301.361 104.204 301.862 104.619 302.239C105.035 302.617 105.545 302.806 106.149 302.806C107.018 302.806 107.632 302.442 107.991 301.715H109.733C109.497 302.433 109.068 303.023 108.444 303.486C107.83 303.939 107.065 304.166 106.149 304.166C105.403 304.166 104.733 304.001 104.138 303.67C103.552 303.33 103.089 302.858 102.749 302.254C102.419 301.64 102.253 300.931 102.253 300.129C102.253 299.326 102.414 298.622 102.735 298.018C103.066 297.404 103.524 296.932 104.109 296.601C104.704 296.27 105.384 296.105 106.149 296.105C106.886 296.105 107.542 296.266 108.118 296.587C108.695 296.908 109.143 297.361 109.464 297.947C109.785 298.523 109.946 299.189 109.946 299.944ZM108.26 299.434C108.251 298.839 108.038 298.362 107.623 298.004C107.207 297.645 106.692 297.465 106.078 297.465C105.521 297.465 105.044 297.645 104.648 298.004C104.251 298.353 104.015 298.83 103.939 299.434H108.26Z" fill="#635D5D"/>
<path d="M72.3389 382.153V383.471H68.1597V386.375H71.4181V387.692H68.1597V391.999H66.5447V382.153H72.3389ZM80.9898 387.905C80.9898 388.198 80.9709 388.462 80.9332 388.698H74.9689C75.0162 389.322 75.2476 389.822 75.6631 390.2C76.0787 390.578 76.5887 390.767 77.1931 390.767C78.062 390.767 78.6759 390.403 79.0348 389.676H80.7773C80.5412 390.393 80.1115 390.984 79.4881 391.447C78.8742 391.9 78.1092 392.127 77.1931 392.127C76.447 392.127 75.7764 391.961 75.1814 391.631C74.5959 391.291 74.1331 390.818 73.7931 390.214C73.4625 389.6 73.2973 388.892 73.2973 388.089C73.2973 387.286 73.4578 386.583 73.7789 385.978C74.1095 385.364 74.5675 384.892 75.1531 384.561C75.7481 384.231 76.4281 384.066 77.1931 384.066C77.9298 384.066 78.5862 384.226 79.1623 384.547C79.7384 384.868 80.187 385.322 80.5082 385.907C80.8293 386.483 80.9898 387.149 80.9898 387.905ZM79.304 387.395C79.2945 386.8 79.082 386.323 78.6665 385.964C78.2509 385.605 77.7362 385.426 77.1223 385.426C76.5651 385.426 76.0881 385.605 75.6914 385.964C75.2948 386.313 75.0587 386.79 74.9831 387.395H79.304ZM82.0408 388.061C82.0408 387.277 82.2014 386.583 82.5225 385.978C82.853 385.374 83.2969 384.906 83.8542 384.576C84.4208 384.236 85.0442 384.066 85.7242 384.066C86.3381 384.066 86.8717 384.188 87.325 384.434C87.7878 384.67 88.1561 384.968 88.43 385.326V384.193H90.0592V391.999H88.43V390.837C88.1561 391.206 87.7831 391.513 87.3109 391.758C86.8386 392.004 86.3003 392.127 85.6958 392.127C85.0253 392.127 84.4114 391.957 83.8542 391.617C83.2969 391.267 82.853 390.785 82.5225 390.172C82.2014 389.548 82.0408 388.845 82.0408 388.061ZM88.43 388.089C88.43 387.551 88.3167 387.083 88.09 386.686C87.8728 386.29 87.5848 385.988 87.2259 385.78C86.867 385.572 86.4797 385.468 86.0642 385.468C85.6486 385.468 85.2614 385.572 84.9025 385.78C84.5436 385.978 84.2508 386.276 84.0242 386.672C83.8069 387.06 83.6983 387.522 83.6983 388.061C83.6983 388.599 83.8069 389.071 84.0242 389.477C84.2508 389.883 84.5436 390.195 84.9025 390.412C85.2708 390.62 85.6581 390.724 86.0642 390.724C86.4797 390.724 86.867 390.62 87.2259 390.412C87.5848 390.205 87.8728 389.902 88.09 389.506C88.3167 389.1 88.43 388.627 88.43 388.089ZM94.0647 385.511V389.832C94.0647 390.124 94.1308 390.337 94.263 390.469C94.4047 390.592 94.6408 390.653 94.9713 390.653H95.963V391.999H94.688C93.9608 391.999 93.4035 391.829 93.0163 391.489C92.6291 391.149 92.4355 390.597 92.4355 389.832V385.511H91.5146V384.193H92.4355V382.252H94.0647V384.193H95.963V385.511H94.0647ZM104.521 384.193V391.999H102.906V391.078C102.651 391.399 102.315 391.654 101.9 391.843C101.494 392.023 101.059 392.112 100.597 392.112C99.9826 392.112 99.4301 391.985 98.939 391.73C98.4574 391.475 98.0748 391.097 97.7915 390.597C97.5176 390.096 97.3807 389.492 97.3807 388.783V384.193H98.9815V388.542C98.9815 389.241 99.1562 389.78 99.5057 390.157C99.8551 390.526 100.332 390.71 100.937 390.71C101.541 390.71 102.018 390.526 102.367 390.157C102.726 389.78 102.906 389.241 102.906 388.542V384.193H104.521ZM108.267 385.326C108.503 384.93 108.814 384.623 109.202 384.406C109.598 384.179 110.066 384.066 110.604 384.066V385.737H110.193C109.561 385.737 109.079 385.898 108.748 386.219C108.427 386.54 108.267 387.097 108.267 387.891V391.999H106.652V384.193H108.267V385.326ZM119.243 387.905C119.243 388.198 119.224 388.462 119.186 388.698H113.222C113.269 389.322 113.501 389.822 113.916 390.2C114.332 390.578 114.842 390.767 115.446 390.767C116.315 390.767 116.929 390.403 117.288 389.676H119.03C118.794 390.393 118.365 390.984 117.741 391.447C117.127 391.9 116.362 392.127 115.446 392.127C114.7 392.127 114.03 391.961 113.435 391.631C112.849 391.291 112.386 390.818 112.046 390.214C111.716 389.6 111.55 388.892 111.55 388.089C111.55 387.286 111.711 386.583 112.032 385.978C112.363 385.364 112.821 384.892 113.406 384.561C114.001 384.231 114.681 384.066 115.446 384.066C116.183 384.066 116.839 384.226 117.415 384.547C117.991 384.868 118.44 385.322 118.761 385.907C119.082 386.483 119.243 387.149 119.243 387.905ZM117.557 387.395C117.548 386.8 117.335 386.323 116.92 385.964C116.504 385.605 115.989 385.426 115.375 385.426C114.818 385.426 114.341 385.605 113.945 385.964C113.548 386.313 113.312 386.79 113.236 387.395H117.557ZM123.666 392.127C123.052 392.127 122.499 392.018 122.008 391.801C121.526 391.574 121.144 391.272 120.861 390.894C120.577 390.507 120.426 390.077 120.407 389.605H122.079C122.107 389.935 122.263 390.214 122.546 390.441C122.839 390.658 123.203 390.767 123.637 390.767C124.091 390.767 124.44 390.682 124.686 390.512C124.941 390.332 125.068 390.105 125.068 389.832C125.068 389.539 124.926 389.322 124.643 389.18C124.369 389.038 123.93 388.882 123.326 388.712C122.74 388.552 122.263 388.396 121.895 388.245C121.526 388.094 121.205 387.862 120.931 387.551C120.667 387.239 120.535 386.828 120.535 386.318C120.535 385.903 120.658 385.525 120.903 385.185C121.149 384.835 121.498 384.561 121.951 384.363C122.414 384.165 122.943 384.066 123.538 384.066C124.426 384.066 125.139 384.292 125.677 384.746C126.225 385.19 126.518 385.799 126.556 386.573H124.941C124.912 386.224 124.771 385.945 124.516 385.737C124.261 385.53 123.916 385.426 123.481 385.426C123.056 385.426 122.731 385.506 122.504 385.666C122.277 385.827 122.164 386.04 122.164 386.304C122.164 386.512 122.239 386.686 122.391 386.828C122.542 386.97 122.726 387.083 122.943 387.168C123.16 387.244 123.481 387.343 123.906 387.466C124.473 387.617 124.936 387.773 125.295 387.933C125.663 388.084 125.979 388.311 126.244 388.613C126.508 388.915 126.645 389.317 126.655 389.817C126.655 390.261 126.532 390.658 126.286 391.007C126.041 391.357 125.691 391.631 125.238 391.829C124.794 392.027 124.27 392.127 123.666 392.127Z" fill="#635D5D"/>
<path d="M364.722 522.804H360.599L359.891 524.816H358.205L361.733 514.956H363.603L367.13 524.816H365.43L364.722 522.804ZM364.268 521.487L362.668 516.911L361.053 521.487H364.268ZM371.681 523.371L373.891 517.01H375.606L372.631 524.816H370.704L367.743 517.01H369.471L371.681 523.371ZM376.288 520.878C376.288 520.094 376.449 519.399 376.77 518.795C377.1 518.191 377.544 517.723 378.101 517.393C378.668 517.053 379.291 516.883 379.971 516.883C380.585 516.883 381.119 517.005 381.572 517.251C382.035 517.487 382.403 517.784 382.677 518.143V517.01H384.306V524.816H382.677V523.654C382.403 524.023 382.03 524.33 381.558 524.575C381.086 524.821 380.548 524.943 379.943 524.943C379.273 524.943 378.659 524.773 378.101 524.433C377.544 524.084 377.1 523.602 376.77 522.988C376.449 522.365 376.288 521.661 376.288 520.878ZM382.677 520.906C382.677 520.368 382.564 519.9 382.337 519.503C382.12 519.107 381.832 518.804 381.473 518.597C381.114 518.389 380.727 518.285 380.311 518.285C379.896 518.285 379.509 518.389 379.15 518.597C378.791 518.795 378.498 519.093 378.271 519.489C378.054 519.876 377.946 520.339 377.946 520.878C377.946 521.416 378.054 521.888 378.271 522.294C378.498 522.7 378.791 523.012 379.15 523.229C379.518 523.437 379.905 523.541 380.311 523.541C380.727 523.541 381.114 523.437 381.473 523.229C381.832 523.021 382.12 522.719 382.337 522.323C382.564 521.916 382.677 521.444 382.677 520.906ZM387.249 515.976C386.957 515.976 386.711 515.877 386.513 515.678C386.314 515.48 386.215 515.234 386.215 514.942C386.215 514.649 386.314 514.403 386.513 514.205C386.711 514.007 386.957 513.907 387.249 513.907C387.533 513.907 387.774 514.007 387.972 514.205C388.17 514.403 388.269 514.649 388.269 514.942C388.269 515.234 388.17 515.48 387.972 515.678C387.774 515.877 387.533 515.976 387.249 515.976ZM388.043 517.01V524.816H386.428V517.01H388.043ZM391.778 514.333V524.816H390.163V514.333H391.778ZM393.36 520.878C393.36 520.094 393.521 519.399 393.842 518.795C394.172 518.191 394.616 517.723 395.173 517.393C395.74 517.053 396.364 516.883 397.044 516.883C397.657 516.883 398.191 517.005 398.644 517.251C399.107 517.487 399.475 517.784 399.749 518.143V517.01H401.379V524.816H399.749V523.654C399.475 524.023 399.102 524.33 398.63 524.575C398.158 524.821 397.62 524.943 397.015 524.943C396.345 524.943 395.731 524.773 395.173 524.433C394.616 524.084 394.172 523.602 393.842 522.988C393.521 522.365 393.36 521.661 393.36 520.878ZM399.749 520.906C399.749 520.368 399.636 519.9 399.409 519.503C399.192 519.107 398.904 518.804 398.545 518.597C398.186 518.389 397.799 518.285 397.384 518.285C396.968 518.285 396.581 518.389 396.222 518.597C395.863 518.795 395.57 519.093 395.343 519.489C395.126 519.876 395.018 520.339 395.018 520.878C395.018 521.416 395.126 521.888 395.343 522.294C395.57 522.7 395.863 523.012 396.222 523.229C396.59 523.437 396.977 523.541 397.384 523.541C397.799 523.541 398.186 523.437 398.545 523.229C398.904 523.021 399.192 522.719 399.409 522.323C399.636 521.916 399.749 521.444 399.749 520.906ZM405.115 518.172C405.389 517.794 405.762 517.487 406.234 517.251C406.716 517.005 407.249 516.883 407.835 516.883C408.524 516.883 409.148 517.048 409.705 517.378C410.262 517.709 410.701 518.181 411.022 518.795C411.343 519.399 411.504 520.094 411.504 520.878C411.504 521.661 411.343 522.365 411.022 522.988C410.701 523.602 410.257 524.084 409.691 524.433C409.133 524.773 408.515 524.943 407.835 524.943C407.23 524.943 406.692 524.825 406.22 524.589C405.757 524.353 405.389 524.051 405.115 523.683V524.816H403.5V514.333H405.115V518.172ZM409.861 520.878C409.861 520.339 409.747 519.876 409.521 519.489C409.303 519.093 409.011 518.795 408.642 518.597C408.283 518.389 407.896 518.285 407.481 518.285C407.075 518.285 406.687 518.389 406.319 518.597C405.96 518.804 405.667 519.107 405.441 519.503C405.223 519.9 405.115 520.368 405.115 520.906C405.115 521.444 405.223 521.916 405.441 522.323C405.667 522.719 405.96 523.021 406.319 523.229C406.687 523.437 407.075 523.541 407.481 523.541C407.896 523.541 408.283 523.437 408.642 523.229C409.011 523.012 409.303 522.7 409.521 522.294C409.747 521.888 409.861 521.416 409.861 520.878ZM414.716 514.333V524.816H413.101V514.333H414.716ZM423.991 520.722C423.991 521.014 423.972 521.279 423.934 521.515H417.97C418.017 522.138 418.248 522.639 418.664 523.017C419.08 523.395 419.59 523.583 420.194 523.583C421.063 523.583 421.677 523.22 422.036 522.493H423.778C423.542 523.21 423.112 523.801 422.489 524.263C421.875 524.717 421.11 524.943 420.194 524.943C419.448 524.943 418.777 524.778 418.182 524.448C417.597 524.108 417.134 523.635 416.794 523.031C416.463 522.417 416.298 521.709 416.298 520.906C416.298 520.103 416.459 519.399 416.78 518.795C417.11 518.181 417.568 517.709 418.154 517.378C418.749 517.048 419.429 516.883 420.194 516.883C420.931 516.883 421.587 517.043 422.163 517.364C422.739 517.685 423.188 518.139 423.509 518.724C423.83 519.3 423.991 519.966 423.991 520.722ZM422.305 520.212C422.295 519.617 422.083 519.14 421.667 518.781C421.252 518.422 420.737 518.243 420.123 518.243C419.566 518.243 419.089 518.422 418.692 518.781C418.296 519.13 418.06 519.607 417.984 520.212H422.305ZM429.048 519.518C429.048 517.884 429.321 516.609 429.869 515.693C430.426 514.767 431.38 514.304 432.731 514.304C434.082 514.304 435.031 514.767 435.578 515.693C436.136 516.609 436.414 517.884 436.414 519.518C436.414 521.17 436.136 522.464 435.578 523.399C435.031 524.325 434.082 524.788 432.731 524.788C431.38 524.788 430.426 524.325 429.869 523.399C429.321 522.464 429.048 521.17 429.048 519.518ZM434.828 519.518C434.828 518.753 434.776 518.106 434.672 517.577C434.577 517.048 434.379 516.618 434.077 516.288C433.775 515.948 433.326 515.778 432.731 515.778C432.136 515.778 431.687 515.948 431.385 516.288C431.083 516.618 430.88 517.048 430.776 517.577C430.681 518.106 430.634 518.753 430.634 519.518C430.634 520.311 430.681 520.977 430.776 521.515C430.87 522.053 431.069 522.488 431.371 522.818C431.683 523.149 432.136 523.314 432.731 523.314C433.326 523.314 433.775 523.149 434.077 522.818C434.388 522.488 434.592 522.053 434.686 521.515C434.78 520.977 434.828 520.311 434.828 519.518Z" fill="white"/>
<path d="M78.4571 74.5717H71.6167L70.4849 77.8442H66.8679L73.0439 60.645H77.0546L83.2305 77.8442H79.5889L78.4571 74.5717ZM77.5221 71.8159L75.0369 64.6311L72.5518 71.8159H77.5221ZM84.6532 70.9793C84.6532 69.6014 84.9239 68.3793 85.4652 67.3131C86.0229 66.2469 86.7775 65.4267 87.7289 64.8526C88.6803 64.2784 89.7383 63.9914 90.903 63.9914C91.7888 63.9914 92.6336 64.1882 93.4374 64.5819C94.2411 64.9592 94.8809 65.4677 95.3566 66.1074V59.6362H98.8506V77.8442H95.3566V75.8266C94.9301 76.4991 94.3314 77.0405 93.5604 77.4506C92.7894 77.8606 91.8954 78.0657 90.8784 78.0657C89.7301 78.0657 88.6803 77.7704 87.7289 77.1799C86.7775 76.5894 86.0229 75.761 85.4652 74.6947C84.9239 73.6121 84.6532 72.3736 84.6532 70.9793ZM95.3812 71.0285C95.3812 70.1919 95.2172 69.4784 94.8891 68.8878C94.561 68.2809 94.1181 67.8216 93.5604 67.5099C93.0027 67.1819 92.4039 67.0178 91.7642 67.0178C91.1245 67.0178 90.5339 67.1737 89.9926 67.4853C89.4513 67.797 89.0084 68.2563 88.6639 68.8632C88.3358 69.4538 88.1718 70.1591 88.1718 70.9793C88.1718 71.7995 88.3358 72.5213 88.6639 73.1446C89.0084 73.7515 89.4513 74.219 89.9926 74.5471C90.5503 74.8752 91.1409 75.0392 91.7642 75.0392C92.4039 75.0392 93.0027 74.8834 93.5604 74.5717C94.1181 74.2436 94.561 73.7843 94.8891 73.1938C95.2172 72.5869 95.3812 71.8651 95.3812 71.0285ZM101.329 70.9793C101.329 69.6014 101.6 68.3793 102.141 67.3131C102.699 66.2469 103.453 65.4267 104.405 64.8526C105.356 64.2784 106.414 63.9914 107.579 63.9914C108.465 63.9914 109.31 64.1882 110.113 64.5819C110.917 64.9592 111.557 65.4677 112.033 66.1074V59.6362H115.527V77.8442H112.033V75.8266C111.606 76.4991 111.007 77.0405 110.236 77.4506C109.465 77.8606 108.571 78.0657 107.554 78.0657C106.406 78.0657 105.356 77.7704 104.405 77.1799C103.453 76.5894 102.699 75.761 102.141 74.6947C101.6 73.6121 101.329 72.3736 101.329 70.9793ZM112.057 71.0285C112.057 70.1919 111.893 69.4784 111.565 68.8878C111.237 68.2809 110.794 67.8216 110.236 67.5099C109.679 67.1819 109.08 67.0178 108.44 67.0178C107.8 67.0178 107.21 67.1737 106.669 67.4853C106.127 67.797 105.684 68.2563 105.34 68.8632C105.012 69.4538 104.848 70.1591 104.848 70.9793C104.848 71.7995 105.012 72.5213 105.34 73.1446C105.684 73.7515 106.127 74.219 106.669 74.5471C107.226 74.8752 107.817 75.0392 108.44 75.0392C109.08 75.0392 109.679 74.8834 110.236 74.5717C110.794 74.2436 111.237 73.7843 111.565 73.1938C111.893 72.5869 112.057 71.8651 112.057 71.0285ZM139.443 77.8442H135.999L128.199 66.0582V77.8442H124.754V60.645H128.199L135.999 72.4556V60.645H139.443V77.8442ZM155.519 70.7333C155.519 71.2254 155.487 71.6683 155.421 72.062H145.456C145.538 73.0462 145.882 73.8171 146.489 74.3749C147.096 74.9326 147.843 75.2115 148.728 75.2115C150.008 75.2115 150.918 74.6619 151.46 73.5629H155.175C154.781 74.8752 154.027 75.9578 152.911 76.8108C151.796 77.6474 150.426 78.0657 148.802 78.0657C147.49 78.0657 146.309 77.7786 145.259 77.2045C144.226 76.614 143.414 75.7856 142.823 74.7193C142.249 73.6531 141.962 72.4228 141.962 71.0285C141.962 69.6178 142.249 68.3793 142.823 67.3131C143.397 66.2469 144.201 65.4267 145.234 64.8526C146.268 64.2784 147.457 63.9914 148.802 63.9914C150.098 63.9914 151.255 64.2702 152.272 64.8279C153.305 65.3857 154.101 66.1812 154.658 67.2147C155.232 68.2317 155.519 69.4046 155.519 70.7333ZM151.952 69.749C151.935 68.8632 151.615 68.1579 150.992 67.633C150.369 67.0917 149.606 66.821 148.704 66.821C147.851 66.821 147.129 67.0834 146.538 67.6084C145.964 68.1169 145.612 68.8304 145.48 69.749H151.952ZM176.931 64.2128L172.945 77.8442H169.229L166.744 68.3219L164.259 77.8442H160.519L156.508 64.2128H160.002L162.414 74.5963L165.022 64.2128H168.663L171.222 74.5717L173.634 64.2128H176.931ZM194.401 69.0355C195.369 69.2159 196.165 69.6998 196.788 70.4872C197.412 71.2746 197.723 72.1768 197.723 73.1938C197.723 74.1124 197.494 74.9244 197.034 75.6297C196.591 76.3187 195.943 76.86 195.09 77.2537C194.237 77.6474 193.229 77.8442 192.064 77.8442H184.658V60.6696H191.744C192.909 60.6696 193.909 60.8583 194.746 61.2356C195.599 61.6128 196.239 62.1378 196.665 62.8103C197.108 63.4828 197.33 64.2456 197.33 65.0986C197.33 66.0992 197.059 66.9358 196.518 67.6084C195.993 68.2809 195.287 68.7566 194.401 69.0355ZM188.102 67.756H191.252C192.072 67.756 192.704 67.5756 193.147 67.2147C193.589 66.8374 193.811 66.3043 193.811 65.6153C193.811 64.9264 193.589 64.3933 193.147 64.016C192.704 63.6387 192.072 63.45 191.252 63.45H188.102V67.756ZM191.572 75.0392C192.408 75.0392 193.056 74.8424 193.516 74.4487C193.991 74.055 194.229 73.4973 194.229 72.7755C194.229 72.0373 193.983 71.4632 193.491 71.0531C192.999 70.6266 192.335 70.4134 191.498 70.4134H188.102V75.0392H191.572ZM206.522 78.0657C205.209 78.0657 204.028 77.7786 202.978 77.2045C201.929 76.614 201.1 75.7856 200.493 74.7193C199.903 73.6531 199.607 72.4228 199.607 71.0285C199.607 69.6342 199.911 68.4039 200.518 67.3377C201.141 66.2715 201.986 65.4513 203.052 64.8772C204.118 64.2866 205.308 63.9914 206.62 63.9914C207.932 63.9914 209.122 64.2866 210.188 64.8772C211.254 65.4513 212.091 66.2715 212.698 67.3377C213.321 68.4039 213.633 69.6342 213.633 71.0285C213.633 72.4228 213.313 73.6531 212.673 74.7193C212.05 75.7856 211.197 76.614 210.114 77.2045C209.048 77.7786 207.85 78.0657 206.522 78.0657ZM206.522 75.0638C207.145 75.0638 207.727 74.9162 208.269 74.6209C208.826 74.3093 209.269 73.85 209.597 73.243C209.925 72.6361 210.089 71.8979 210.089 71.0285C210.089 69.7326 209.745 68.7402 209.056 68.0513C208.383 67.3459 207.555 66.9932 206.571 66.9932C205.587 66.9932 204.758 67.3459 204.086 68.0513C203.429 68.7402 203.101 69.7326 203.101 71.0285C203.101 72.3244 203.421 73.325 204.061 74.0304C204.717 74.7193 205.537 75.0638 206.522 75.0638ZM222.212 78.0657C220.9 78.0657 219.719 77.7786 218.669 77.2045C217.619 76.614 216.791 75.7856 216.184 74.7193C215.593 73.6531 215.298 72.4228 215.298 71.0285C215.298 69.6342 215.602 68.4039 216.209 67.3377C216.832 66.2715 217.677 65.4513 218.743 64.8772C219.809 64.2866 220.998 63.9914 222.311 63.9914C223.623 63.9914 224.812 64.2866 225.879 64.8772C226.945 65.4513 227.781 66.2715 228.388 67.3377C229.012 68.4039 229.323 69.6342 229.323 71.0285C229.323 72.4228 229.003 73.6531 228.364 74.7193C227.74 75.7856 226.887 76.614 225.805 77.2045C224.739 77.7786 223.541 78.0657 222.212 78.0657ZM222.212 75.0638C222.836 75.0638 223.418 74.9162 223.959 74.6209C224.517 74.3093 224.96 73.85 225.288 73.243C225.616 72.6361 225.78 71.8979 225.78 71.0285C225.78 69.7326 225.436 68.7402 224.747 68.0513C224.074 67.3459 223.246 66.9932 222.262 66.9932C221.277 66.9932 220.449 67.3459 219.776 68.0513C219.12 68.7402 218.792 69.7326 218.792 71.0285C218.792 72.3244 219.112 73.325 219.752 74.0304C220.408 74.7193 221.228 75.0638 222.212 75.0638ZM239.921 77.8442L235.295 72.0373V77.8442H231.85V59.6362H235.295V69.9951L239.872 64.2128H244.35L238.346 71.0531L244.399 77.8442H239.921Z" fill="#635D5D"/>
<path d="M177.798 427.218H177.726V427.094C177.726 426.912 177.574 426.761 177.39 426.761C177.206 426.761 177.054 426.912 177.054 427.094V427.218H173.115V427.094C173.115 426.912 172.968 426.761 172.779 426.761C172.595 426.761 172.442 426.912 172.442 427.094V427.218H172.371C171.393 427.218 170.599 428.004 170.599 428.972V433.889C170.599 434.857 171.393 435.643 172.371 435.643H177.798C178.776 435.643 179.57 434.857 179.57 433.889V428.972C179.57 428.004 178.776 427.218 177.798 427.218ZM172.393 434.297C172.146 434.297 171.945 434.102 171.945 433.853C171.945 433.609 172.146 433.409 172.393 433.409C172.64 433.409 172.842 433.609 172.842 433.853C172.842 434.102 172.64 434.297 172.393 434.297ZM172.393 432.752C172.146 432.752 171.945 432.552 171.945 432.308C171.945 432.059 172.146 431.863 172.393 431.863C172.64 431.863 172.842 432.059 172.842 432.308C172.842 432.552 172.64 432.752 172.393 432.752ZM172.393 431.202C172.146 431.202 171.945 431.002 171.945 430.758C171.945 430.513 172.146 430.314 172.393 430.314C172.64 430.314 172.842 430.513 172.842 430.758C172.842 431.002 172.64 431.202 172.393 431.202ZM174.187 434.297C173.941 434.297 173.738 434.102 173.738 433.853C173.738 433.609 173.941 433.409 174.187 433.409C174.434 433.409 174.636 433.609 174.636 433.853C174.636 434.102 174.434 434.297 174.187 434.297ZM174.187 432.752C173.941 432.752 173.738 432.552 173.738 432.308C173.738 432.059 173.941 431.863 174.187 431.863C174.434 431.863 174.636 432.059 174.636 432.308C174.636 432.552 174.434 432.752 174.187 432.752ZM174.187 431.202C173.941 431.202 173.738 431.002 173.738 430.758C173.738 430.513 173.941 430.314 174.187 430.314C174.434 430.314 174.636 430.513 174.636 430.758C174.636 431.002 174.434 431.202 174.187 431.202ZM175.982 434.297C175.735 434.297 175.533 434.102 175.533 433.853C175.533 433.609 175.735 433.409 175.982 433.409C176.228 433.409 176.43 433.609 176.43 433.853C176.43 434.102 176.228 434.297 175.982 434.297ZM175.982 432.752C175.735 432.752 175.533 432.552 175.533 432.308C175.533 432.059 175.735 431.863 175.982 431.863C176.228 431.863 176.43 432.059 176.43 432.308C176.43 432.552 176.228 432.752 175.982 432.752ZM175.982 431.202C175.735 431.202 175.533 431.002 175.533 430.758C175.533 430.513 175.735 430.314 175.982 430.314C176.228 430.314 176.43 430.513 176.43 430.758C176.43 431.002 176.228 431.202 175.982 431.202ZM177.775 432.752C177.529 432.752 177.328 432.552 177.328 432.308C177.328 432.059 177.529 431.863 177.775 431.863C178.023 431.863 178.224 432.059 178.224 432.308C178.224 432.552 178.023 432.752 177.775 432.752ZM177.775 431.202C177.529 431.202 177.328 431.002 177.328 430.758C177.328 430.513 177.529 430.314 177.775 430.314C178.023 430.314 178.224 430.513 178.224 430.758C178.224 431.002 178.023 431.202 177.775 431.202ZM178.897 429.048H171.272V428.972C171.272 428.372 171.765 427.884 172.371 427.884H172.442V428.008C172.442 428.195 172.595 428.341 172.779 428.341C172.968 428.341 173.115 428.195 173.115 428.008V427.884H177.054V428.008C177.054 428.195 177.206 428.341 177.39 428.341C177.574 428.341 177.726 428.195 177.726 428.008V427.884H177.798C178.404 427.884 178.897 428.372 178.897 428.972V429.048Z" fill="#667085"/>
<path d="M106.497 427.582V435H105.153V428.89H105.109L103.374 429.998V428.767L105.218 427.582H106.497ZM111.097 435.101C110.742 435.099 110.395 435.037 110.057 434.917C109.719 434.794 109.415 434.594 109.144 434.319C108.874 434.041 108.659 433.673 108.5 433.214C108.34 432.753 108.262 432.182 108.264 431.501C108.264 430.866 108.332 430.3 108.467 429.802C108.602 429.305 108.797 428.885 109.05 428.542C109.304 428.197 109.609 427.933 109.967 427.752C110.326 427.571 110.728 427.481 111.173 427.481C111.639 427.481 112.052 427.572 112.411 427.756C112.774 427.939 113.066 428.191 113.288 428.509C113.51 428.826 113.648 429.183 113.701 429.581H112.379C112.311 429.297 112.172 429.07 111.962 428.901C111.755 428.729 111.491 428.643 111.173 428.643C110.658 428.643 110.262 428.867 109.985 429.313C109.709 429.76 109.571 430.373 109.568 431.153H109.619C109.737 430.941 109.89 430.759 110.079 430.607C110.267 430.454 110.48 430.337 110.716 430.255C110.955 430.171 111.208 430.128 111.473 430.128C111.908 430.128 112.298 430.232 112.643 430.44C112.991 430.648 113.266 430.934 113.469 431.298C113.672 431.661 113.772 432.076 113.77 432.544C113.772 433.032 113.661 433.47 113.436 433.859C113.212 434.245 112.899 434.55 112.498 434.772C112.097 434.994 111.63 435.104 111.097 435.101ZM111.089 434.015C111.353 434.015 111.588 433.951 111.796 433.823C112.003 433.695 112.168 433.522 112.288 433.305C112.409 433.088 112.468 432.844 112.466 432.573C112.468 432.308 112.41 432.067 112.292 431.852C112.176 431.638 112.015 431.467 111.81 431.342C111.605 431.216 111.371 431.153 111.107 431.153C110.912 431.153 110.73 431.191 110.561 431.266C110.392 431.341 110.244 431.444 110.119 431.577C109.993 431.708 109.894 431.86 109.822 432.034C109.752 432.205 109.715 432.389 109.713 432.584C109.715 432.842 109.776 433.08 109.894 433.298C110.012 433.515 110.175 433.689 110.383 433.819C110.591 433.95 110.826 434.015 111.089 434.015ZM118.38 430.751V431.831H115.041V430.751H118.38ZM122.487 435.141C121.89 435.141 121.379 434.99 120.951 434.689C120.526 434.384 120.199 433.946 119.97 433.374C119.743 432.799 119.629 432.107 119.629 431.298C119.632 430.489 119.746 429.801 119.973 429.234C120.203 428.664 120.53 428.229 120.955 427.93C121.382 427.63 121.893 427.481 122.487 427.481C123.081 427.481 123.592 427.63 124.019 427.93C124.446 428.229 124.774 428.664 125.001 429.234C125.23 429.804 125.345 430.492 125.345 431.298C125.345 432.11 125.23 432.803 125.001 433.377C124.774 433.95 124.446 434.387 124.019 434.689C123.594 434.99 123.083 435.141 122.487 435.141ZM122.487 434.008C122.951 434.008 123.316 433.779 123.584 433.323C123.855 432.864 123.99 432.189 123.99 431.298C123.99 430.709 123.928 430.214 123.805 429.813C123.682 429.412 123.508 429.111 123.284 428.908C123.059 428.703 122.794 428.6 122.487 428.6C122.026 428.6 121.661 428.829 121.393 429.288C121.125 429.744 120.99 430.415 120.987 431.298C120.985 431.89 121.044 432.387 121.165 432.791C121.288 433.194 121.462 433.498 121.686 433.703C121.911 433.906 122.178 434.008 122.487 434.008ZM129.185 435.101C128.646 435.101 128.168 435.011 127.751 434.83C127.335 434.649 127.009 434.401 126.773 434.087C126.538 433.771 126.423 433.412 126.425 433.012C126.423 432.7 126.49 432.414 126.628 432.153C126.765 431.892 126.951 431.675 127.186 431.501C127.422 431.325 127.685 431.213 127.975 431.164V431.114C127.594 431.029 127.285 430.835 127.048 430.53C126.814 430.224 126.698 429.87 126.7 429.469C126.698 429.088 126.804 428.747 127.019 428.448C127.234 428.148 127.528 427.913 127.903 427.741C128.277 427.568 128.704 427.481 129.185 427.481C129.661 427.481 130.084 427.568 130.456 427.741C130.831 427.913 131.125 428.148 131.34 428.448C131.557 428.747 131.666 429.088 131.666 429.469C131.666 429.87 131.546 430.224 131.307 430.53C131.071 430.835 130.765 431.029 130.391 431.114V431.164C130.681 431.213 130.942 431.325 131.173 431.501C131.408 431.675 131.594 431.892 131.731 432.153C131.871 432.414 131.941 432.7 131.941 433.012C131.941 433.412 131.823 433.771 131.586 434.087C131.35 434.401 131.024 434.649 130.608 434.83C130.195 435.011 129.721 435.101 129.185 435.101ZM129.185 434.066C129.463 434.066 129.704 434.018 129.909 433.924C130.115 433.828 130.274 433.692 130.387 433.519C130.501 433.345 130.559 433.144 130.561 432.917C130.559 432.681 130.497 432.472 130.377 432.291C130.258 432.107 130.095 431.964 129.888 431.86C129.682 431.756 129.448 431.704 129.185 431.704C128.919 431.704 128.683 431.756 128.475 431.86C128.267 431.964 128.103 432.107 127.982 432.291C127.864 432.472 127.806 432.681 127.809 432.917C127.806 433.144 127.862 433.345 127.975 433.519C128.089 433.69 128.248 433.824 128.453 433.921C128.661 434.017 128.905 434.066 129.185 434.066ZM129.185 430.686C129.412 430.686 129.612 430.64 129.786 430.549C129.962 430.457 130.101 430.329 130.203 430.165C130.304 430 130.356 429.811 130.358 429.596C130.356 429.383 130.305 429.198 130.206 429.038C130.107 428.876 129.97 428.752 129.793 428.665C129.617 428.576 129.414 428.531 129.185 428.531C128.951 428.531 128.744 428.576 128.566 428.665C128.389 428.752 128.252 428.876 128.153 429.038C128.056 429.198 128.009 429.383 128.011 429.596C128.009 429.811 128.057 430 128.156 430.165C128.258 430.326 128.397 430.454 128.573 430.549C128.751 430.64 128.956 430.686 129.185 430.686ZM136.519 430.751V431.831H133.179V430.751H136.519ZM137.624 435V434.029L140.199 431.505C140.446 431.256 140.651 431.035 140.815 430.842C140.979 430.649 141.103 430.462 141.185 430.281C141.267 430.099 141.308 429.906 141.308 429.701C141.308 429.467 141.255 429.266 141.148 429.1C141.042 428.931 140.896 428.8 140.71 428.709C140.524 428.617 140.313 428.571 140.076 428.571C139.832 428.571 139.619 428.622 139.435 428.723C139.252 428.822 139.109 428.963 139.008 429.147C138.909 429.33 138.859 429.549 138.859 429.802H137.581C137.581 429.332 137.688 428.922 137.903 428.575C138.118 428.227 138.414 427.958 138.79 427.767C139.17 427.576 139.604 427.481 140.094 427.481C140.592 427.481 141.029 427.574 141.406 427.76C141.782 427.946 142.074 428.2 142.282 428.524C142.492 428.847 142.597 429.217 142.597 429.632C142.597 429.91 142.544 430.183 142.438 430.451C142.332 430.719 142.144 431.016 141.876 431.342C141.611 431.668 141.238 432.063 140.757 432.526L139.479 433.826V433.877H142.71V435H137.624ZM146.701 435.141C146.105 435.141 145.593 434.99 145.165 434.689C144.74 434.384 144.413 433.946 144.184 433.374C143.957 432.799 143.843 432.107 143.843 431.298C143.846 430.489 143.96 429.801 144.187 429.234C144.417 428.664 144.744 428.229 145.169 427.93C145.596 427.63 146.107 427.481 146.701 427.481C147.295 427.481 147.806 427.63 148.233 427.93C148.66 428.229 148.988 428.664 149.215 429.234C149.444 429.804 149.559 430.492 149.559 431.298C149.559 432.11 149.444 432.803 149.215 433.377C148.988 433.95 148.66 434.387 148.233 434.689C147.808 434.99 147.297 435.141 146.701 435.141ZM146.701 434.008C147.165 434.008 147.53 433.779 147.798 433.323C148.069 432.864 148.204 432.189 148.204 431.298C148.204 430.709 148.143 430.214 148.019 429.813C147.896 429.412 147.722 429.111 147.498 428.908C147.273 428.703 147.008 428.6 146.701 428.6C146.24 428.6 145.875 428.829 145.607 429.288C145.339 429.744 145.204 430.415 145.201 431.298C145.199 431.89 145.258 432.387 145.379 432.791C145.502 433.194 145.676 433.498 145.9 433.703C146.125 433.906 146.392 434.008 146.701 434.008ZM150.762 435V434.029L153.337 431.505C153.584 431.256 153.789 431.035 153.953 430.842C154.117 430.649 154.24 430.462 154.323 430.281C154.405 430.099 154.446 429.906 154.446 429.701C154.446 429.467 154.393 429.266 154.286 429.1C154.18 428.931 154.034 428.8 153.848 428.709C153.662 428.617 153.451 428.571 153.214 428.571C152.97 428.571 152.757 428.622 152.573 428.723C152.39 428.822 152.247 428.963 152.146 429.147C152.047 429.33 151.997 429.549 151.997 429.802H150.719C150.719 429.332 150.826 428.922 151.041 428.575C151.256 428.227 151.552 427.958 151.928 427.767C152.308 427.576 152.742 427.481 153.232 427.481C153.73 427.481 154.167 427.574 154.544 427.76C154.92 427.946 155.212 428.2 155.42 428.524C155.63 428.847 155.735 429.217 155.735 429.632C155.735 429.91 155.682 430.183 155.576 430.451C155.47 430.719 155.282 431.016 155.014 431.342C154.749 431.668 154.376 432.063 153.895 432.526L152.617 433.826V433.877H155.847V435H150.762ZM159.759 435.101C159.238 435.101 158.774 435.012 158.368 434.833C157.965 434.655 157.646 434.406 157.412 434.087C157.178 433.769 157.054 433.4 157.039 432.983H158.401C158.413 433.183 158.479 433.358 158.6 433.508C158.721 433.655 158.881 433.77 159.082 433.852C159.282 433.934 159.507 433.975 159.756 433.975C160.021 433.975 160.257 433.929 160.462 433.837C160.667 433.743 160.828 433.613 160.944 433.446C161.06 433.28 161.116 433.088 161.114 432.87C161.116 432.646 161.058 432.448 160.94 432.276C160.822 432.105 160.65 431.971 160.426 431.874C160.204 431.778 159.935 431.729 159.622 431.729H158.966V430.693H159.622C159.88 430.693 160.106 430.649 160.299 430.559C160.494 430.47 160.648 430.345 160.759 430.183C160.87 430.019 160.924 429.829 160.922 429.614C160.924 429.404 160.877 429.222 160.781 429.067C160.686 428.91 160.552 428.788 160.379 428.701C160.207 428.614 160.005 428.571 159.774 428.571C159.547 428.571 159.337 428.612 159.143 428.694C158.95 428.776 158.795 428.893 158.676 429.045C158.558 429.195 158.495 429.374 158.488 429.581H157.195C157.204 429.166 157.324 428.802 157.553 428.488C157.785 428.171 158.094 427.925 158.481 427.749C158.867 427.57 159.3 427.481 159.781 427.481C160.276 427.481 160.706 427.574 161.07 427.76C161.437 427.943 161.721 428.191 161.922 428.502C162.122 428.814 162.222 429.158 162.222 429.534C162.225 429.952 162.101 430.302 161.853 430.585C161.606 430.867 161.283 431.052 160.882 431.139V431.197C161.404 431.269 161.803 431.463 162.081 431.776C162.361 432.088 162.5 432.475 162.497 432.939C162.497 433.354 162.379 433.726 162.142 434.055C161.908 434.381 161.585 434.637 161.172 434.823C160.761 435.008 160.29 435.101 159.759 435.101Z" fill="#635D5D"/>
<path d="M261.984 427.582V435H260.64V428.89H260.597L258.862 429.998V428.767L260.706 427.582H261.984ZM263.868 435V434.029L266.443 431.505C266.689 431.256 266.894 431.035 267.059 430.842C267.223 430.649 267.346 430.462 267.428 430.281C267.51 430.099 267.551 429.906 267.551 429.701C267.551 429.467 267.498 429.266 267.392 429.1C267.285 428.931 267.139 428.8 266.953 428.709C266.768 428.617 266.556 428.571 266.32 428.571C266.076 428.571 265.862 428.622 265.679 428.723C265.495 428.822 265.353 428.963 265.251 429.147C265.152 429.33 265.103 429.549 265.103 429.802H263.824C263.824 429.332 263.932 428.922 264.146 428.575C264.361 428.227 264.657 427.958 265.034 427.767C265.413 427.576 265.848 427.481 266.338 427.481C266.835 427.481 267.272 427.574 267.649 427.76C268.026 427.946 268.318 428.2 268.525 428.524C268.736 428.847 268.841 429.217 268.841 429.632C268.841 429.91 268.787 430.183 268.681 430.451C268.575 430.719 268.388 431.016 268.12 431.342C267.854 431.668 267.481 432.063 267.001 432.526L265.722 433.826V433.877H268.953V435H263.868ZM271.025 434.109C270.805 434.109 270.617 434.032 270.46 433.877C270.303 433.72 270.225 433.532 270.228 433.312C270.225 433.095 270.303 432.909 270.46 432.754C270.617 432.6 270.805 432.523 271.025 432.523C271.237 432.523 271.422 432.6 271.579 432.754C271.738 432.909 271.819 433.095 271.821 433.312C271.819 433.459 271.78 433.593 271.706 433.714C271.633 433.835 271.537 433.932 271.416 434.004C271.297 434.074 271.167 434.109 271.025 434.109ZM271.025 430.433C270.805 430.433 270.617 430.355 270.46 430.201C270.303 430.044 270.225 429.856 270.228 429.636C270.225 429.418 270.303 429.233 270.46 429.078C270.617 428.921 270.805 428.843 271.025 428.843C271.237 428.843 271.422 428.921 271.579 429.078C271.738 429.233 271.819 429.418 271.821 429.636C271.819 429.781 271.78 429.913 271.706 430.034C271.633 430.155 271.537 430.252 271.416 430.324C271.297 430.396 271.167 430.433 271.025 430.433ZM275.903 435.141C275.306 435.141 274.794 434.99 274.367 434.689C273.942 434.384 273.615 433.946 273.385 433.374C273.158 432.799 273.045 432.107 273.045 431.298C273.047 430.489 273.162 429.801 273.389 429.234C273.618 428.664 273.945 428.229 274.37 427.93C274.798 427.63 275.309 427.481 275.903 427.481C276.497 427.481 277.007 427.63 277.435 427.93C277.862 428.229 278.189 428.664 278.416 429.234C278.646 429.804 278.76 430.492 278.76 431.298C278.76 432.11 278.646 432.803 278.416 433.377C278.189 433.95 277.862 434.387 277.435 434.689C277.01 434.99 276.499 435.141 275.903 435.141ZM275.903 434.008C276.366 434.008 276.732 433.779 277 433.323C277.27 432.864 277.406 432.189 277.406 431.298C277.406 430.709 277.344 430.214 277.221 429.813C277.098 429.412 276.924 429.111 276.699 428.908C276.475 428.703 276.209 428.6 275.903 428.6C275.441 428.6 275.077 428.829 274.809 429.288C274.541 429.744 274.405 430.415 274.403 431.298C274.401 431.89 274.46 432.387 274.581 432.791C274.704 433.194 274.878 433.498 275.102 433.703C275.327 433.906 275.593 434.008 275.903 434.008ZM282.706 435.141C282.109 435.141 281.597 434.99 281.17 434.689C280.745 434.384 280.418 433.946 280.188 433.374C279.961 432.799 279.848 432.107 279.848 431.298C279.85 430.489 279.965 429.801 280.192 429.234C280.421 428.664 280.749 428.229 281.173 427.93C281.601 427.63 282.112 427.481 282.706 427.481C283.3 427.481 283.81 427.63 284.238 427.93C284.665 428.229 284.992 428.664 285.219 429.234C285.449 429.804 285.563 430.492 285.563 431.298C285.563 432.11 285.449 432.803 285.219 433.377C284.992 433.95 284.665 434.387 284.238 434.689C283.813 434.99 283.302 435.141 282.706 435.141ZM282.706 434.008C283.169 434.008 283.535 433.779 283.803 433.323C284.074 432.864 284.209 432.189 284.209 431.298C284.209 430.709 284.147 430.214 284.024 429.813C283.901 429.412 283.727 429.111 283.502 428.908C283.278 428.703 283.012 428.6 282.706 428.6C282.244 428.6 281.88 428.829 281.612 429.288C281.344 429.744 281.208 430.415 281.206 431.298C281.204 431.89 281.263 432.387 281.384 432.791C281.507 433.194 281.681 433.498 281.905 433.703C282.13 433.906 282.397 434.008 282.706 434.008ZM289.369 435V427.582H292.151C292.721 427.582 293.199 427.688 293.585 427.901C293.974 428.113 294.267 428.406 294.465 428.777C294.666 429.147 294.766 429.567 294.766 430.038C294.766 430.514 294.666 430.936 294.465 431.306C294.265 431.675 293.969 431.966 293.578 432.178C293.187 432.389 292.705 432.494 292.133 432.494H290.289V431.389H291.952C292.285 431.389 292.558 431.331 292.77 431.215C292.983 431.099 293.14 430.94 293.241 430.737C293.345 430.534 293.397 430.301 293.397 430.038C293.397 429.775 293.345 429.543 293.241 429.342C293.14 429.142 292.982 428.986 292.767 428.875C292.554 428.762 292.28 428.705 291.944 428.705H290.713V435H289.369ZM295.933 427.582H297.578L299.78 432.957H299.867L302.069 427.582H303.713V435H302.424V429.904H302.355L300.305 434.978H299.341L297.291 429.893H297.223V435H295.933V427.582Z" fill="#635D5D"/>
<path d="M387.995 427.582V435H386.651V428.89H386.608L384.873 429.998V428.767L386.717 427.582H387.995ZM389.879 435V434.029L392.454 431.505C392.7 431.256 392.905 431.035 393.07 430.842C393.234 430.649 393.357 430.462 393.439 430.281C393.521 430.099 393.562 429.906 393.562 429.701C393.562 429.467 393.509 429.266 393.403 429.1C393.297 428.931 393.151 428.8 392.965 428.709C392.779 428.617 392.567 428.571 392.331 428.571C392.087 428.571 391.873 428.622 391.69 428.723C391.506 428.822 391.364 428.963 391.262 429.147C391.163 429.33 391.114 429.549 391.114 429.802H389.835C389.835 429.332 389.943 428.922 390.158 428.575C390.372 428.227 390.668 427.958 391.045 427.767C391.424 427.576 391.859 427.481 392.349 427.481C392.846 427.481 393.283 427.574 393.66 427.76C394.037 427.946 394.329 428.2 394.537 428.524C394.747 428.847 394.852 429.217 394.852 429.632C394.852 429.91 394.799 430.183 394.692 430.451C394.586 430.719 394.399 431.016 394.131 431.342C393.865 431.668 393.492 432.063 393.012 432.526L391.733 433.826V433.877H394.964V435H389.879ZM397.036 434.109C396.816 434.109 396.628 434.032 396.471 433.877C396.314 433.72 396.236 433.532 396.239 433.312C396.236 433.095 396.314 432.909 396.471 432.754C396.628 432.6 396.816 432.523 397.036 432.523C397.248 432.523 397.433 432.6 397.59 432.754C397.749 432.909 397.83 433.095 397.833 433.312C397.83 433.459 397.792 433.593 397.717 433.714C397.644 433.835 397.548 433.932 397.427 434.004C397.309 434.074 397.178 434.109 397.036 434.109ZM397.036 430.433C396.816 430.433 396.628 430.355 396.471 430.201C396.314 430.044 396.236 429.856 396.239 429.636C396.236 429.418 396.314 429.233 396.471 429.078C396.628 428.921 396.816 428.843 397.036 428.843C397.248 428.843 397.433 428.921 397.59 429.078C397.749 429.233 397.83 429.418 397.833 429.636C397.83 429.781 397.792 429.913 397.717 430.034C397.644 430.155 397.548 430.252 397.427 430.324C397.309 430.396 397.178 430.433 397.036 430.433ZM401.914 435.141C401.317 435.141 400.805 434.99 400.378 434.689C399.953 434.384 399.626 433.946 399.396 433.374C399.169 432.799 399.056 432.107 399.056 431.298C399.058 430.489 399.173 429.801 399.4 429.234C399.629 428.664 399.957 428.229 400.382 427.93C400.809 427.63 401.32 427.481 401.914 427.481C402.508 427.481 403.018 427.63 403.446 427.93C403.873 428.229 404.2 428.664 404.427 429.234C404.657 429.804 404.771 430.492 404.771 431.298C404.771 432.11 404.657 432.803 404.427 433.377C404.2 433.95 403.873 434.387 403.446 434.689C403.021 434.99 402.51 435.141 401.914 435.141ZM401.914 434.008C402.377 434.008 402.743 433.779 403.011 433.323C403.282 432.864 403.417 432.189 403.417 431.298C403.417 430.709 403.355 430.214 403.232 429.813C403.109 429.412 402.935 429.111 402.711 428.908C402.486 428.703 402.22 428.6 401.914 428.6C401.452 428.6 401.088 428.829 400.82 429.288C400.552 429.744 400.417 430.415 400.414 431.298C400.412 431.89 400.471 432.387 400.592 432.791C400.715 433.194 400.889 433.498 401.113 433.703C401.338 433.906 401.605 434.008 401.914 434.008ZM408.717 435.141C408.12 435.141 407.608 434.99 407.181 434.689C406.756 434.384 406.429 433.946 406.199 433.374C405.972 432.799 405.859 432.107 405.859 431.298C405.861 430.489 405.976 429.801 406.203 429.234C406.432 428.664 406.76 428.229 407.185 427.93C407.612 427.63 408.123 427.481 408.717 427.481C409.311 427.481 409.821 427.63 410.249 427.93C410.676 428.229 411.003 428.664 411.23 429.234C411.46 429.804 411.574 430.492 411.574 431.298C411.574 432.11 411.46 432.803 411.23 433.377C411.003 433.95 410.676 434.387 410.249 434.689C409.824 434.99 409.313 435.141 408.717 435.141ZM408.717 434.008C409.18 434.008 409.546 433.779 409.814 433.323C410.085 432.864 410.22 432.189 410.22 431.298C410.22 430.709 410.158 430.214 410.035 429.813C409.912 429.412 409.738 429.111 409.514 428.908C409.289 428.703 409.023 428.6 408.717 428.6C408.255 428.6 407.891 428.829 407.623 429.288C407.355 429.744 407.22 430.415 407.217 431.298C407.215 431.89 407.274 432.387 407.395 432.791C407.518 433.194 407.692 433.498 407.916 433.703C408.141 433.906 408.408 434.008 408.717 434.008ZM415.38 435V427.582H418.162C418.732 427.582 419.21 427.688 419.596 427.901C419.985 428.113 420.278 428.406 420.476 428.777C420.677 429.147 420.777 429.567 420.777 430.038C420.777 430.514 420.677 430.936 420.476 431.306C420.276 431.675 419.98 431.966 419.589 432.178C419.198 432.389 418.716 432.494 418.144 432.494H416.3V431.389H417.963C418.296 431.389 418.569 431.331 418.781 431.215C418.994 431.099 419.151 430.94 419.252 430.737C419.356 430.534 419.408 430.301 419.408 430.038C419.408 429.775 419.356 429.543 419.252 429.342C419.151 429.142 418.993 428.986 418.778 428.875C418.565 428.762 418.291 428.705 417.956 428.705H416.724V435H415.38ZM421.944 427.582H423.589L425.791 432.957H425.878L428.08 427.582H429.724V435H428.435V429.904H428.366L426.316 434.978H425.353L423.303 429.893H423.234V435H421.944V427.582Z" fill="#635D5D"/>
<path opacity="0.7" d="M77.2453 435H74.7316V427.582H77.296C78.0325 427.582 78.6651 427.731 79.194 428.028C79.7252 428.322 80.1333 428.746 80.4182 429.299C80.7031 429.852 80.8456 430.514 80.8456 431.284C80.8456 432.057 80.7019 432.721 80.4146 433.276C80.1296 433.831 79.7179 434.257 79.1795 434.554C78.6434 434.851 77.9987 435 77.2453 435ZM76.0754 433.837H77.1801C77.6969 433.837 78.1279 433.743 78.4732 433.555C78.8185 433.364 79.0781 433.08 79.2519 432.704C79.4258 432.325 79.5127 431.851 79.5127 431.284C79.5127 430.716 79.4258 430.246 79.2519 429.871C79.0781 429.495 78.8209 429.213 78.4804 429.027C78.1424 428.839 77.7222 428.745 77.22 428.745H76.0754V433.837ZM83.6653 435.112C83.3128 435.112 82.9953 435.05 82.7127 434.924C82.4326 434.796 82.2105 434.608 82.0463 434.359C81.8845 434.11 81.8036 433.804 81.8036 433.439C81.8036 433.125 81.8616 432.865 81.9775 432.66C82.0934 432.455 82.2515 432.291 82.452 432.168C82.6524 432.044 82.8781 431.951 83.1293 431.889C83.3828 431.823 83.6448 431.776 83.9153 431.747C84.2412 431.714 84.5056 431.683 84.7085 431.657C84.9113 431.628 85.0586 431.584 85.1504 431.526C85.2445 431.466 85.2916 431.373 85.2916 431.248V431.226C85.2916 430.953 85.2107 430.742 85.0489 430.592C84.8872 430.442 84.6541 430.367 84.3499 430.367C84.0287 430.367 83.774 430.437 83.5856 430.578C83.3997 430.718 83.2742 430.883 83.209 431.074L81.9847 430.9C82.0813 430.562 82.2407 430.279 82.4628 430.052C82.685 429.823 82.9566 429.651 83.2778 429.538C83.5989 429.422 83.9539 429.364 84.3426 429.364C84.6107 429.364 84.8775 429.396 85.1431 429.458C85.4087 429.521 85.6514 429.625 85.8711 429.77C86.0909 429.912 86.2671 430.107 86.3999 430.353C86.5352 430.599 86.6028 430.907 86.6028 431.277V435H85.3423V434.236H85.2989C85.2192 434.39 85.1069 434.535 84.962 434.67C84.8195 434.803 84.6397 434.911 84.4223 434.993C84.2074 435.072 83.9551 435.112 83.6653 435.112ZM84.0058 434.149C84.269 434.149 84.4972 434.097 84.6904 433.993C84.8835 433.887 85.032 433.747 85.1359 433.573C85.2421 433.399 85.2952 433.21 85.2952 433.004V432.349C85.2542 432.382 85.1842 432.414 85.0852 432.443C84.9886 432.472 84.8799 432.497 84.7592 432.519C84.6384 432.541 84.5189 432.56 84.4006 432.577C84.2823 432.594 84.1797 432.608 84.0927 432.62C83.8971 432.647 83.7221 432.69 83.5675 432.751C83.413 432.811 83.2911 432.896 83.2017 433.004C83.1124 433.111 83.0677 433.248 83.0677 433.417C83.0677 433.659 83.1558 433.841 83.3321 433.964C83.5084 434.087 83.7329 434.149 84.0058 434.149ZM90.6993 429.437V430.451H87.501V429.437H90.6993ZM88.2906 428.104H89.6018V433.327C89.6018 433.503 89.6284 433.638 89.6815 433.732C89.737 433.824 89.8095 433.887 89.8988 433.921C89.9882 433.954 90.0872 433.971 90.1958 433.971C90.2779 433.971 90.3528 433.965 90.4204 433.953C90.4904 433.941 90.5435 433.93 90.5797 433.921L90.8007 434.946C90.7307 434.97 90.6305 434.996 90.5001 435.025C90.3721 435.054 90.2151 435.071 90.0292 435.076C89.7008 435.086 89.405 435.036 89.1418 434.928C88.8786 434.816 88.6697 434.645 88.5152 434.413C88.3631 434.181 88.2882 433.892 88.2906 433.544V428.104ZM94.199 435.109C93.6413 435.109 93.1595 434.993 92.7539 434.761C92.3506 434.527 92.0403 434.196 91.823 433.769C91.6057 433.339 91.497 432.833 91.497 432.251C91.497 431.679 91.6057 431.176 91.823 430.744C92.0427 430.309 92.3494 429.971 92.743 429.73C93.1366 429.486 93.599 429.364 94.1302 429.364C94.4731 429.364 94.7967 429.42 95.1009 429.531C95.4076 429.639 95.678 429.808 95.9123 430.038C96.1489 430.267 96.3348 430.559 96.47 430.914C96.6053 431.267 96.6729 431.687 96.6729 432.175V432.577H92.1128V431.693H95.416C95.4136 431.442 95.3593 431.219 95.253 431.023C95.1468 430.825 94.9983 430.669 94.8075 430.556C94.6192 430.442 94.3995 430.386 94.1483 430.386C93.8803 430.386 93.6449 430.451 93.442 430.581C93.2392 430.709 93.081 430.878 92.9676 431.088C92.8565 431.296 92.7997 431.524 92.7973 431.773V432.544C92.7973 432.868 92.8565 433.146 92.9748 433.377C93.0931 433.607 93.2585 433.783 93.471 433.906C93.6835 434.027 93.9322 434.087 94.2172 434.087C94.4079 434.087 94.5806 434.061 94.7351 434.008C94.8896 433.952 95.0237 433.871 95.1371 433.765C95.2506 433.659 95.3364 433.527 95.3943 433.37L96.6185 433.508C96.5413 433.831 96.394 434.114 96.1767 434.355C95.9618 434.594 95.6865 434.78 95.3508 434.913C95.0152 435.043 94.6313 435.109 94.199 435.109Z" fill="#667085"/>
<path opacity="0.7" d="M199.969 435V427.582H204.721V428.709H201.313V430.722H204.395V431.849H201.313V435H199.969ZM205.808 435V429.437H207.079V430.364H207.137C207.238 430.043 207.412 429.795 207.659 429.621C207.907 429.445 208.191 429.357 208.51 429.357C208.582 429.357 208.663 429.361 208.752 429.368C208.844 429.373 208.92 429.381 208.981 429.393V430.599C208.925 430.58 208.837 430.563 208.716 430.549C208.598 430.532 208.483 430.523 208.372 430.523C208.133 430.523 207.918 430.575 207.727 430.679C207.539 430.78 207.391 430.922 207.282 431.103C207.173 431.284 207.119 431.493 207.119 431.729V435H205.808ZM212.049 435.109C211.506 435.109 211.035 434.989 210.637 434.75C210.238 434.511 209.929 434.177 209.71 433.747C209.492 433.317 209.384 432.815 209.384 432.24C209.384 431.665 209.492 431.162 209.71 430.73C209.929 430.297 210.238 429.962 210.637 429.723C211.035 429.484 211.506 429.364 212.049 429.364C212.593 429.364 213.064 429.484 213.462 429.723C213.86 429.962 214.168 430.297 214.386 430.73C214.605 431.162 214.715 431.665 214.715 432.24C214.715 432.815 214.605 433.317 214.386 433.747C214.168 434.177 213.86 434.511 213.462 434.75C213.064 434.989 212.593 435.109 212.049 435.109ZM212.057 434.058C212.351 434.058 212.598 433.977 212.796 433.816C212.994 433.651 213.141 433.432 213.237 433.156C213.336 432.881 213.386 432.574 213.386 432.236C213.386 431.896 213.336 431.588 213.237 431.313C213.141 431.035 212.994 430.814 212.796 430.65C212.598 430.486 212.351 430.404 212.057 430.404C211.755 430.404 211.504 430.486 211.303 430.65C211.105 430.814 210.957 431.035 210.858 431.313C210.761 431.588 210.713 431.896 210.713 432.236C210.713 432.574 210.761 432.881 210.858 433.156C210.957 433.432 211.105 433.651 211.303 433.816C211.504 433.977 211.755 434.058 212.057 434.058ZM215.828 435V429.437H217.081V430.382H217.146C217.262 430.063 217.454 429.814 217.722 429.636C217.99 429.455 218.31 429.364 218.682 429.364C219.059 429.364 219.376 429.456 219.635 429.639C219.896 429.821 220.079 430.068 220.185 430.382H220.243C220.366 430.073 220.574 429.827 220.866 429.643C221.161 429.457 221.51 429.364 221.913 429.364C222.425 429.364 222.843 429.526 223.166 429.85C223.49 430.173 223.652 430.645 223.652 431.266V435H222.337V431.469C222.337 431.123 222.245 430.871 222.062 430.712C221.878 430.55 221.653 430.469 221.388 430.469C221.072 430.469 220.824 430.568 220.645 430.766C220.469 430.961 220.381 431.216 220.381 431.53V435H219.095V431.414C219.095 431.127 219.008 430.897 218.834 430.726C218.663 430.555 218.438 430.469 218.161 430.469C217.972 430.469 217.801 430.517 217.646 430.614C217.492 430.708 217.369 430.842 217.277 431.016C217.185 431.187 217.139 431.388 217.139 431.617V435H215.828ZM227.244 428.709V427.582H233.162V428.709H230.869V435H229.536V428.709H227.244ZM234.245 435V429.437H235.556V435H234.245ZM234.904 428.647C234.697 428.647 234.518 428.578 234.368 428.441C234.218 428.3 234.144 428.133 234.144 427.937C234.144 427.739 234.218 427.571 234.368 427.434C234.518 427.294 234.697 427.224 234.904 427.224C235.114 427.224 235.293 427.294 235.44 427.434C235.59 427.571 235.665 427.739 235.665 427.937C235.665 428.133 235.59 428.3 235.44 428.441C235.293 428.578 235.114 428.647 234.904 428.647ZM236.905 435V429.437H238.158V430.382H238.223C238.339 430.063 238.531 429.814 238.799 429.636C239.067 429.455 239.387 429.364 239.759 429.364C240.135 429.364 240.453 429.456 240.711 429.639C240.972 429.821 241.156 430.068 241.262 430.382H241.32C241.443 430.073 241.651 429.827 241.943 429.643C242.237 429.457 242.586 429.364 242.989 429.364C243.501 429.364 243.919 429.526 244.243 429.85C244.566 430.173 244.728 430.645 244.728 431.266V435H243.413V431.469C243.413 431.123 243.322 430.871 243.138 430.712C242.954 430.55 242.73 430.469 242.464 430.469C242.148 430.469 241.9 430.568 241.722 430.766C241.546 430.961 241.457 431.216 241.457 431.53V435H240.172V431.414C240.172 431.127 240.085 430.897 239.911 430.726C239.739 430.555 239.515 430.469 239.237 430.469C239.049 430.469 238.877 430.517 238.723 430.614C238.568 430.708 238.445 430.842 238.353 431.016C238.262 431.187 238.216 431.388 238.216 431.617V435H236.905ZM248.521 435.109C247.963 435.109 247.482 434.993 247.076 434.761C246.673 434.527 246.362 434.196 246.145 433.769C245.928 433.339 245.819 432.833 245.819 432.251C245.819 431.679 245.928 431.176 246.145 430.744C246.365 430.309 246.672 429.971 247.065 429.73C247.459 429.486 247.921 429.364 248.452 429.364C248.795 429.364 249.119 429.42 249.423 429.531C249.73 429.639 250 429.808 250.234 430.038C250.471 430.267 250.657 430.559 250.792 430.914C250.927 431.267 250.995 431.687 250.995 432.175V432.577H246.435V431.693H249.738C249.736 431.442 249.681 431.219 249.575 431.023C249.469 430.825 249.32 430.669 249.13 430.556C248.941 430.442 248.722 430.386 248.47 430.386C248.202 430.386 247.967 430.451 247.764 430.581C247.561 430.709 247.403 430.878 247.29 431.088C247.179 431.296 247.122 431.524 247.119 431.773V432.544C247.119 432.868 247.179 433.146 247.297 433.377C247.415 433.607 247.581 433.783 247.793 433.906C248.006 434.027 248.254 434.087 248.539 434.087C248.73 434.087 248.903 434.061 249.057 434.008C249.212 433.952 249.346 433.871 249.459 433.765C249.573 433.659 249.659 433.527 249.716 433.37L250.941 433.508C250.863 433.831 250.716 434.114 250.499 434.355C250.284 434.594 250.009 434.78 249.673 434.913C249.337 435.043 248.953 435.109 248.521 435.109Z" fill="#667085"/>
<path opacity="0.7" d="M337.531 428.709V427.582H343.45V428.709H341.157V435H339.824V428.709H337.531ZM346.153 435.109C345.609 435.109 345.139 434.989 344.74 434.75C344.342 434.511 344.033 434.177 343.813 433.747C343.596 433.317 343.487 432.815 343.487 432.24C343.487 431.665 343.596 431.162 343.813 430.73C344.033 430.297 344.342 429.962 344.74 429.723C345.139 429.484 345.609 429.364 346.153 429.364C346.696 429.364 347.167 429.484 347.565 429.723C347.964 429.962 348.272 430.297 348.489 430.73C348.709 431.162 348.818 431.665 348.818 432.24C348.818 432.815 348.709 433.317 348.489 433.747C348.272 434.177 347.964 434.511 347.565 434.75C347.167 434.989 346.696 435.109 346.153 435.109ZM346.16 434.058C346.455 434.058 346.701 433.977 346.899 433.816C347.097 433.651 347.244 433.432 347.341 433.156C347.44 432.881 347.489 432.574 347.489 432.236C347.489 431.896 347.44 431.588 347.341 431.313C347.244 431.035 347.097 430.814 346.899 430.65C346.701 430.486 346.455 430.404 346.16 430.404C345.858 430.404 345.607 430.486 345.407 430.65C345.209 430.814 345.06 431.035 344.961 431.313C344.864 431.588 344.816 431.896 344.816 432.236C344.816 432.574 344.864 432.881 344.961 433.156C345.06 433.432 345.209 433.651 345.407 433.816C345.607 433.977 345.858 434.058 346.16 434.058ZM352.193 428.709V427.582H358.112V428.709H355.819V435H354.486V428.709H352.193ZM359.195 435V429.437H360.506V435H359.195ZM359.854 428.647C359.646 428.647 359.467 428.578 359.318 428.441C359.168 428.3 359.093 428.133 359.093 427.937C359.093 427.739 359.168 427.571 359.318 427.434C359.467 427.294 359.646 427.224 359.854 427.224C360.064 427.224 360.243 427.294 360.39 427.434C360.54 427.571 360.614 427.739 360.614 427.937C360.614 428.133 360.54 428.3 360.39 428.441C360.243 428.578 360.064 428.647 359.854 428.647ZM361.854 435V429.437H363.107V430.382H363.173C363.288 430.063 363.48 429.814 363.748 429.636C364.016 429.455 364.336 429.364 364.708 429.364C365.085 429.364 365.402 429.456 365.661 429.639C365.922 429.821 366.105 430.068 366.211 430.382H366.269C366.392 430.073 366.6 429.827 366.892 429.643C367.187 429.457 367.536 429.364 367.939 429.364C368.451 429.364 368.869 429.526 369.192 429.85C369.516 430.173 369.678 430.645 369.678 431.266V435H368.363V431.469C368.363 431.123 368.271 430.871 368.088 430.712C367.904 430.55 367.679 430.469 367.414 430.469C367.098 430.469 366.85 430.568 366.671 430.766C366.495 430.961 366.407 431.216 366.407 431.53V435H365.121V431.414C365.121 431.127 365.034 430.897 364.86 430.726C364.689 430.555 364.464 430.469 364.187 430.469C363.998 430.469 363.827 430.517 363.672 430.614C363.518 430.708 363.395 430.842 363.303 431.016C363.211 431.187 363.165 431.388 363.165 431.617V435H361.854ZM373.471 435.109C372.913 435.109 372.431 434.993 372.026 434.761C371.622 434.527 371.312 434.196 371.095 433.769C370.877 433.339 370.769 432.833 370.769 432.251C370.769 431.679 370.877 431.176 371.095 430.744C371.314 430.309 371.621 429.971 372.015 429.73C372.408 429.486 372.871 429.364 373.402 429.364C373.745 429.364 374.068 429.42 374.373 429.531C374.679 429.639 374.95 429.808 375.184 430.038C375.421 430.267 375.607 430.559 375.742 430.914C375.877 431.267 375.945 431.687 375.945 432.175V432.577H371.385V431.693H374.688C374.685 431.442 374.631 431.219 374.525 431.023C374.419 430.825 374.27 430.669 374.079 430.556C373.891 430.442 373.671 430.386 373.42 430.386C373.152 430.386 372.917 430.451 372.714 430.581C372.511 430.709 372.353 430.878 372.239 431.088C372.128 431.296 372.071 431.524 372.069 431.773V432.544C372.069 432.868 372.128 433.146 372.247 433.377C372.365 433.607 372.53 433.783 372.743 433.906C372.955 434.027 373.204 434.087 373.489 434.087C373.68 434.087 373.852 434.061 374.007 434.008C374.161 433.952 374.295 433.871 374.409 433.765C374.522 433.659 374.608 433.527 374.666 433.37L375.89 433.508C375.813 433.831 375.666 434.114 375.448 434.355C375.233 434.594 374.958 434.78 374.623 434.913C374.287 435.043 373.903 435.109 373.471 435.109Z" fill="#667085"/>
<path d="M313.134 428.887L317.134 432.897L321.132 428.887" stroke="#33475B" stroke-width="0.200941" stroke-linecap="round"/>
<path d="M438.683 428.887L442.683 432.897L446.682 428.887" stroke="#33475B" stroke-width="0.200941" stroke-linecap="round"/>
</g>
</g>
<defs>
<filter id="filter0_d_334_28" x="0.830002" y="0.960002" width="521.34" height="605.112" filterUnits="userSpaceOnUse" color-interpolation-filters="sRGB">
<feFlood flood-opacity="0" result="BackgroundImageFix"/>
<feColorMatrix in="SourceAlpha" type="matrix" values="0 0 0 0 0 0 0 0 0 0 0 0 0 0 0 0 0 0 127 0" result="hardAlpha"/>
<feOffset dy="4.13"/>
<feGaussianBlur stdDeviation="19.585"/>
<feComposite in2="hardAlpha" operator="out"/>
<feColorMatrix type="matrix" values="0 0 0 0 0 0 0 0 0 0 0 0 0 0 0 0 0 0 0.25 0"/>
<feBlend mode="normal" in2="BackgroundImageFix" result="effect1_dropShadow_334_28"/>
<feBlend mode="normal" in="SourceGraphic" in2="effect1_dropShadow_334_28" result="shape"/>
</filter>
<clipPath id="clip0_334_28">
<rect x="40" y="36" width="443" height="526.772" rx="8.89686" fill="white"/>
</clipPath>
</defs>
</svg>
