<svg width="55" height="55" viewBox="0 0 55 55" fill="none" xmlns="http://www.w3.org/2000/svg">
<path d="M18.3468 4.61621C17.0811 4.61621 16.0551 5.64288 16.0551 6.90788C10.9926 6.90788 6.88866 11.0123 6.88843 16.0745V38.9913C6.88843 44.0536 10.9926 48.158 16.0551 48.158H38.9719C44.0346 48.158 48.1385 44.0536 48.1385 38.9913V16.0745C48.1385 11.0123 44.0346 6.90788 38.9719 6.90788C38.9719 5.64288 37.9459 4.61621 36.6802 4.61621C35.4145 4.61621 34.3885 5.64288 34.3885 6.90788H20.6384C20.6384 5.64288 19.6124 4.61621 18.3468 4.61621ZM18.3468 16.0745H36.6802C37.9459 16.0745 38.9719 17.1012 38.9719 18.3662C38.9721 19.6312 37.9459 20.6579 36.6802 20.6579H18.3468C17.0811 20.6579 16.0551 19.6312 16.0551 18.3662C16.0551 17.1012 17.0813 16.0745 18.3468 16.0745Z" fill="#ED5C18"/>
</svg>
