<svg width="55" height="55" viewBox="0 0 55 55" fill="none" xmlns="http://www.w3.org/2000/svg">
<path d="M41.6396 4.58337H13.3605C8.52504 4.58337 4.58337 8.52504 4.58337 13.3605V41.6167C4.58337 46.475 8.52504 50.4167 13.3605 50.4167H41.6396C46.475 50.4167 50.4167 46.475 50.4167 41.6167V13.3605C50.4167 8.52504 46.475 4.58337 41.6396 4.58337ZM15.2625 36.6667V27.5C15.2625 26.5375 16.0417 25.7813 16.9813 25.7813C17.9209 25.7813 18.7 26.5375 18.7 27.5V36.6667C18.7 37.6063 17.9209 38.3855 16.9813 38.3855C16.0417 38.3855 15.2625 37.6063 15.2625 36.6667ZM25.7813 36.6667V22.9167C25.7813 21.9542 26.5605 21.198 27.5 21.198C28.4396 21.198 29.2188 21.9542 29.2188 22.9167V36.6667C29.2188 37.6063 28.4396 38.3855 27.5 38.3855C26.5605 38.3855 25.7813 37.6063 25.7813 36.6667ZM39.7375 36.6667C39.7375 37.6063 38.9584 38.3855 38.0188 38.3855C37.0792 38.3855 36.3 37.6063 36.3 36.6667V18.3334C36.3 17.3709 37.0792 16.6146 38.0188 16.6146C38.9584 16.6146 39.7375 17.3709 39.7375 18.3334V36.6667Z" fill="#ED5C18"/>
</svg>
