<svg width="55" height="55" viewBox="0 0 55 55" fill="none" xmlns="http://www.w3.org/2000/svg">
<path d="M27.5323 4.58081C14.8759 4.58081 4.61572 14.8406 4.61572 27.4975C4.61572 40.1544 14.8759 50.4141 27.5323 50.4141C40.1888 50.4141 50.449 40.1544 50.449 27.4975C50.449 14.8406 40.1888 4.58081 27.5323 4.58081ZM27.5323 13.7475C28.798 13.7475 29.824 14.7741 29.824 16.0391V26.4938L36.0546 32.7248C36.9495 33.6208 36.9495 35.1241 36.0546 36.0202C35.1595 36.9139 33.6552 36.9139 32.7601 36.0202L25.8851 29.1452C25.4554 28.7143 25.2407 28.1048 25.2407 27.4975V16.0391C25.2407 14.7741 26.2667 13.7475 27.5323 13.7475Z" fill="#ED5C18"/>
</svg>
