<svg width="523" height="394" viewBox="0 0 523 394" fill="none" xmlns="http://www.w3.org/2000/svg">
<g filter="url(#filter0_d_353_20)">
<g clip-path="url(#clip0_353_20)">
<rect x="40" y="36" width="443" height="314" rx="8.89686" fill="white"/>
<g filter="url(#filter1_d_353_20)">
<rect x="45" y="36" width="434.038" height="313.923" rx="9.74059" fill="white"/>
<rect x="72.6762" y="145.203" width="388.313" height="40.2831" rx="4.05299" fill="#FAFAFA" stroke="#EAEAEA" stroke-width="0.736907"/>
<rect x="72.3685" y="202.203" width="388.313" height="40.2831" rx="4.05299" fill="#FAFAFA" stroke="#EAEAEA" stroke-width="0.736907"/>
<rect x="337.719" y="286.918" width="117.243" height="40.2831" rx="4.05299" fill="#ED5C18" stroke="#EAEAEA" stroke-width="0.736907"/>
<path d="M78.6331 125.639L76.3929 121.746H75.1748V125.639H73.5787V115.908H76.939C77.6857 115.908 78.3157 116.038 78.8291 116.3C79.3518 116.561 79.7392 116.911 79.9912 117.35C80.2526 117.789 80.3833 118.279 80.3833 118.82C80.3833 119.455 80.1966 120.034 79.8232 120.556C79.4592 121.07 78.8945 121.42 78.1291 121.606L80.5373 125.639H78.6331ZM75.1748 120.472H76.939C77.5363 120.472 77.9844 120.323 78.2831 120.024C78.5911 119.725 78.7451 119.324 78.7451 118.82C78.7451 118.316 78.5958 117.924 78.2971 117.644C77.9984 117.355 77.5457 117.21 76.939 117.21H75.1748V120.472ZM85.7714 125.765C85.0434 125.765 84.3853 125.601 83.7973 125.275C83.2092 124.939 82.7472 124.472 82.4111 123.875C82.0751 123.268 81.9071 122.568 81.9071 121.774C81.9071 120.99 82.0798 120.295 82.4251 119.688C82.7705 119.081 83.2419 118.615 83.8393 118.288C84.4367 117.961 85.104 117.798 85.8414 117.798C86.5788 117.798 87.2462 117.961 87.8436 118.288C88.441 118.615 88.9124 119.081 89.2578 119.688C89.6031 120.295 89.7758 120.99 89.7758 121.774C89.7758 122.558 89.5984 123.254 89.2438 123.861C88.8891 124.467 88.4037 124.939 87.7876 125.275C87.1809 125.601 86.5088 125.765 85.7714 125.765ZM85.7714 124.379C86.1821 124.379 86.5648 124.281 86.9195 124.085C87.2836 123.889 87.5776 123.594 87.8016 123.202C88.0256 122.81 88.1377 122.334 88.1377 121.774C88.1377 121.214 88.0303 120.743 87.8156 120.36C87.6009 119.968 87.3162 119.674 86.9615 119.478C86.6069 119.282 86.2241 119.184 85.8134 119.184C85.4027 119.184 85.02 119.282 84.6653 119.478C84.32 119.674 84.0446 119.968 83.8393 120.36C83.6339 120.743 83.5312 121.214 83.5312 121.774C83.5312 122.605 83.7413 123.249 84.1613 123.707C84.5907 124.155 85.1274 124.379 85.7714 124.379ZM94.7 125.765C93.9719 125.765 93.3138 125.601 92.7258 125.275C92.1377 124.939 91.6757 124.472 91.3397 123.875C91.0036 123.268 90.8356 122.568 90.8356 121.774C90.8356 120.99 91.0083 120.295 91.3537 119.688C91.699 119.081 92.1704 118.615 92.7678 118.288C93.3652 117.961 94.0326 117.798 94.77 117.798C95.5074 117.798 96.1748 117.961 96.7722 118.288C97.3695 118.615 97.8409 119.081 98.1863 119.688C98.5316 120.295 98.7043 120.99 98.7043 121.774C98.7043 122.558 98.527 123.254 98.1723 123.861C97.8176 124.467 97.3322 124.939 96.7161 125.275C96.1094 125.601 95.4374 125.765 94.7 125.765ZM94.7 124.379C95.1107 124.379 95.4934 124.281 95.8481 124.085C96.2121 123.889 96.5061 123.594 96.7301 123.202C96.9542 122.81 97.0662 122.334 97.0662 121.774C97.0662 121.214 96.9588 120.743 96.7441 120.36C96.5295 119.968 96.2448 119.674 95.8901 119.478C95.5354 119.282 95.1527 119.184 94.742 119.184C94.3313 119.184 93.9486 119.282 93.5939 119.478C93.2485 119.674 92.9731 119.968 92.7678 120.36C92.5624 120.743 92.4598 121.214 92.4598 121.774C92.4598 122.605 92.6698 123.249 93.0898 123.707C93.5192 124.155 94.0559 124.379 94.7 124.379ZM109.621 117.798C110.228 117.798 110.769 117.924 111.245 118.176C111.731 118.428 112.109 118.801 112.379 119.296C112.659 119.791 112.799 120.388 112.799 121.088V125.639H111.217V121.326C111.217 120.636 111.044 120.108 110.699 119.744C110.354 119.371 109.882 119.184 109.285 119.184C108.688 119.184 108.212 119.371 107.857 119.744C107.512 120.108 107.339 120.636 107.339 121.326V125.639H105.757V121.326C105.757 120.636 105.584 120.108 105.239 119.744C104.893 119.371 104.422 119.184 103.825 119.184C103.227 119.184 102.751 119.371 102.396 119.744C102.051 120.108 101.878 120.636 101.878 121.326V125.639H100.282V117.924H101.878V118.806C102.14 118.489 102.471 118.241 102.872 118.064C103.274 117.887 103.703 117.798 104.161 117.798C104.777 117.798 105.327 117.929 105.813 118.19C106.298 118.451 106.671 118.829 106.933 119.324C107.166 118.857 107.53 118.489 108.025 118.218C108.52 117.938 109.052 117.798 109.621 117.798ZM126.462 125.639H124.866L120.064 118.372V125.639H118.467V115.894H120.064L124.866 123.146V115.894H126.462V125.639ZM131.904 125.765C131.176 125.765 130.518 125.601 129.93 125.275C129.342 124.939 128.88 124.472 128.544 123.875C128.208 123.268 128.04 122.568 128.04 121.774C128.04 120.99 128.213 120.295 128.558 119.688C128.904 119.081 129.375 118.615 129.972 118.288C130.57 117.961 131.237 117.798 131.974 117.798C132.712 117.798 133.379 117.961 133.977 118.288C134.574 118.615 135.045 119.081 135.391 119.688C135.736 120.295 135.909 120.99 135.909 121.774C135.909 122.558 135.731 123.254 135.377 123.861C135.022 124.467 134.537 124.939 133.921 125.275C133.314 125.601 132.642 125.765 131.904 125.765ZM131.904 124.379C132.315 124.379 132.698 124.281 133.053 124.085C133.417 123.889 133.711 123.594 133.935 123.202C134.159 122.81 134.271 122.334 134.271 121.774C134.271 121.214 134.163 120.743 133.949 120.36C133.734 119.968 133.449 119.674 133.095 119.478C132.74 119.282 132.357 119.184 131.946 119.184C131.536 119.184 131.153 119.282 130.798 119.478C130.453 119.674 130.178 119.968 129.972 120.36C129.767 120.743 129.664 121.214 129.664 121.774C129.664 122.605 129.874 123.249 130.294 123.707C130.724 124.155 131.26 124.379 131.904 124.379Z" fill="#635D5D"/>
<path d="M78.0201 257.657C79.0562 257.657 79.9616 257.858 80.7364 258.259C81.5204 258.651 82.1225 259.221 82.5425 259.968C82.9719 260.705 83.1866 261.568 83.1866 262.558C83.1866 263.547 82.9719 264.406 82.5425 265.134C82.1225 265.862 81.5204 266.422 80.7364 266.814C79.9616 267.197 79.0562 267.388 78.0201 267.388H74.8418V257.657H78.0201ZM78.0201 266.086C79.1589 266.086 80.0316 265.778 80.6384 265.162C81.2451 264.546 81.5484 263.678 81.5484 262.558C81.5484 261.428 81.2451 260.546 80.6384 259.912C80.0316 259.277 79.1589 258.959 78.0201 258.959H76.438V266.086H78.0201ZM88.1148 267.514C87.3867 267.514 86.7287 267.351 86.1406 267.024C85.5526 266.688 85.0905 266.221 84.7545 265.624C84.4185 265.017 84.2505 264.317 84.2505 263.524C84.2505 262.74 84.4231 262.044 84.7685 261.438C85.1139 260.831 85.5852 260.364 86.1826 260.038C86.78 259.711 87.4474 259.547 88.1848 259.547C88.9222 259.547 89.5896 259.711 90.187 260.038C90.7844 260.364 91.2557 260.831 91.6011 261.438C91.9465 262.044 92.1192 262.74 92.1192 263.524C92.1192 264.308 91.9418 265.003 91.5871 265.61C91.2324 266.217 90.747 266.688 90.131 267.024C89.5243 267.351 88.8522 267.514 88.1148 267.514ZM88.1148 266.128C88.5255 266.128 88.9082 266.03 89.2629 265.834C89.6269 265.638 89.921 265.344 90.145 264.952C90.369 264.56 90.481 264.084 90.481 263.524C90.481 262.964 90.3737 262.492 90.159 262.11C89.9443 261.718 89.6596 261.424 89.3049 261.228C88.9502 261.032 88.5675 260.934 88.1568 260.934C87.7461 260.934 87.3634 261.032 87.0087 261.228C86.6633 261.424 86.388 261.718 86.1826 262.11C85.9773 262.492 85.8746 262.964 85.8746 263.524C85.8746 264.355 86.0846 264.999 86.5047 265.456C86.934 265.904 87.4707 266.128 88.1148 266.128ZM104.279 259.673L99.5463 271.015H97.8941L99.4623 267.262L96.424 259.673H98.2021L100.372 265.554L102.627 259.673H104.279ZM108.83 267.514C108.101 267.514 107.443 267.351 106.855 267.024C106.267 266.688 105.805 266.221 105.469 265.624C105.133 265.017 104.965 264.317 104.965 263.524C104.965 262.74 105.138 262.044 105.483 261.438C105.829 260.831 106.3 260.364 106.897 260.038C107.495 259.711 108.162 259.547 108.9 259.547C109.637 259.547 110.304 259.711 110.902 260.038C111.499 260.364 111.97 260.831 112.316 261.438C112.661 262.044 112.834 262.74 112.834 263.524C112.834 264.308 112.657 265.003 112.302 265.61C111.947 266.217 111.462 266.688 110.846 267.024C110.239 267.351 109.567 267.514 108.83 267.514ZM108.83 266.128C109.24 266.128 109.623 266.03 109.978 265.834C110.342 265.638 110.636 265.344 110.86 264.952C111.084 264.56 111.196 264.084 111.196 263.524C111.196 262.964 111.088 262.492 110.874 262.11C110.659 261.718 110.374 261.424 110.02 261.228C109.665 261.032 109.282 260.934 108.872 260.934C108.461 260.934 108.078 261.032 107.723 261.228C107.378 261.424 107.103 261.718 106.897 262.11C106.692 262.492 106.589 262.964 106.589 263.524C106.589 264.355 106.799 264.999 107.219 265.456C107.649 265.904 108.185 266.128 108.83 266.128ZM121.398 259.673V267.388H119.802V266.478C119.55 266.795 119.219 267.047 118.808 267.234C118.407 267.412 117.977 267.5 117.52 267.5C116.913 267.5 116.367 267.374 115.882 267.122C115.406 266.87 115.028 266.497 114.748 266.002C114.477 265.507 114.342 264.91 114.342 264.21V259.673H115.924V263.972C115.924 264.663 116.097 265.195 116.442 265.568C116.787 265.932 117.259 266.114 117.856 266.114C118.453 266.114 118.925 265.932 119.27 265.568C119.625 265.195 119.802 264.663 119.802 263.972V259.673H121.398ZM137.502 259.673L135.108 267.388H133.428L131.874 261.69L130.32 267.388H128.64L126.231 259.673H127.855L129.466 265.876L131.104 259.673H132.77L134.338 265.848L135.934 259.673H137.502ZM139.507 258.651C139.218 258.651 138.975 258.553 138.779 258.357C138.583 258.161 138.485 257.919 138.485 257.629C138.485 257.34 138.583 257.097 138.779 256.901C138.975 256.705 139.218 256.607 139.507 256.607C139.787 256.607 140.025 256.705 140.221 256.901C140.417 257.097 140.515 257.34 140.515 257.629C140.515 257.919 140.417 258.161 140.221 258.357C140.025 258.553 139.787 258.651 139.507 258.651ZM140.291 259.673V267.388H138.695V259.673H140.291ZM145.187 267.514C144.58 267.514 144.034 267.407 143.549 267.192C143.073 266.968 142.695 266.669 142.415 266.296C142.135 265.913 141.986 265.489 141.967 265.022H143.619C143.647 265.349 143.801 265.624 144.081 265.848C144.37 266.063 144.73 266.17 145.159 266.17C145.607 266.17 145.953 266.086 146.195 265.918C146.447 265.741 146.573 265.517 146.573 265.246C146.573 264.957 146.433 264.742 146.153 264.602C145.883 264.462 145.448 264.308 144.851 264.14C144.272 263.981 143.801 263.827 143.437 263.678C143.073 263.529 142.756 263.3 142.485 262.992C142.224 262.684 142.093 262.278 142.093 261.774C142.093 261.363 142.214 260.99 142.457 260.654C142.7 260.308 143.045 260.038 143.493 259.842C143.95 259.645 144.473 259.547 145.061 259.547C145.939 259.547 146.643 259.772 147.175 260.22C147.717 260.658 148.006 261.26 148.043 262.026H146.447C146.419 261.68 146.279 261.405 146.027 261.2C145.775 260.994 145.434 260.892 145.005 260.892C144.585 260.892 144.263 260.971 144.039 261.13C143.815 261.288 143.703 261.498 143.703 261.76C143.703 261.965 143.778 262.138 143.927 262.278C144.076 262.418 144.258 262.53 144.473 262.614C144.688 262.688 145.005 262.786 145.425 262.908C145.985 263.057 146.443 263.211 146.797 263.37C147.161 263.519 147.474 263.743 147.735 264.042C147.997 264.341 148.132 264.737 148.141 265.232C148.141 265.671 148.02 266.063 147.777 266.408C147.535 266.753 147.189 267.024 146.741 267.22C146.303 267.416 145.785 267.514 145.187 267.514ZM153.856 259.547C154.444 259.547 154.967 259.673 155.425 259.926C155.891 260.178 156.255 260.551 156.517 261.046C156.787 261.54 156.923 262.138 156.923 262.838V267.388H155.341V263.076C155.341 262.385 155.168 261.858 154.823 261.494C154.477 261.12 154.006 260.934 153.408 260.934C152.811 260.934 152.335 261.12 151.98 261.494C151.635 261.858 151.462 262.385 151.462 263.076V267.388H149.866V257.027H151.462V260.57C151.733 260.243 152.074 259.991 152.484 259.814C152.904 259.636 153.362 259.547 153.856 259.547ZM164.458 260.976V265.246C164.458 265.535 164.523 265.745 164.654 265.876C164.794 265.997 165.027 266.058 165.354 266.058H166.334V267.388H165.074C164.355 267.388 163.804 267.22 163.422 266.884C163.039 266.548 162.848 266.002 162.848 265.246V260.976H161.938V259.673H162.848V257.755H164.458V259.673H166.334V260.976H164.458ZM171.151 267.514C170.423 267.514 169.765 267.351 169.177 267.024C168.589 266.688 168.127 266.221 167.791 265.624C167.455 265.017 167.287 264.317 167.287 263.524C167.287 262.74 167.46 262.044 167.805 261.438C168.151 260.831 168.622 260.364 169.219 260.038C169.817 259.711 170.484 259.547 171.221 259.547C171.959 259.547 172.626 259.711 173.224 260.038C173.821 260.364 174.292 260.831 174.638 261.438C174.983 262.044 175.156 262.74 175.156 263.524C175.156 264.308 174.978 265.003 174.624 265.61C174.269 266.217 173.784 266.688 173.168 267.024C172.561 267.351 171.889 267.514 171.151 267.514ZM171.151 266.128C171.562 266.128 171.945 266.03 172.3 265.834C172.664 265.638 172.958 265.344 173.182 264.952C173.406 264.56 173.518 264.084 173.518 263.524C173.518 262.964 173.41 262.492 173.196 262.11C172.981 261.718 172.696 261.424 172.342 261.228C171.987 261.032 171.604 260.934 171.193 260.934C170.783 260.934 170.4 261.032 170.045 261.228C169.7 261.424 169.425 261.718 169.219 262.11C169.014 262.492 168.911 262.964 168.911 263.524C168.911 264.355 169.121 264.999 169.541 265.456C169.971 265.904 170.507 266.128 171.151 266.128ZM179.839 263.496C179.839 262.721 179.997 262.035 180.315 261.438C180.641 260.84 181.08 260.378 181.631 260.052C182.191 259.716 182.807 259.547 183.479 259.547C184.086 259.547 184.613 259.669 185.061 259.912C185.519 260.145 185.883 260.439 186.153 260.794V259.673H187.763V267.388H186.153V266.24C185.883 266.604 185.514 266.907 185.047 267.15C184.58 267.393 184.048 267.514 183.451 267.514C182.788 267.514 182.182 267.346 181.631 267.01C181.08 266.665 180.641 266.189 180.315 265.582C179.997 264.966 179.839 264.271 179.839 263.496ZM186.153 263.524C186.153 262.992 186.041 262.53 185.817 262.138C185.603 261.746 185.318 261.447 184.963 261.242C184.608 261.036 184.226 260.934 183.815 260.934C183.404 260.934 183.022 261.036 182.667 261.242C182.312 261.438 182.023 261.732 181.799 262.124C181.584 262.506 181.477 262.964 181.477 263.496C181.477 264.028 181.584 264.495 181.799 264.896C182.023 265.297 182.312 265.605 182.667 265.82C183.031 266.025 183.414 266.128 183.815 266.128C184.226 266.128 184.608 266.025 184.963 265.82C185.318 265.615 185.603 265.316 185.817 264.924C186.041 264.523 186.153 264.056 186.153 263.524ZM189.328 263.496C189.328 262.721 189.486 262.035 189.804 261.438C190.131 260.84 190.569 260.378 191.12 260.052C191.68 259.716 192.301 259.547 192.982 259.547C193.486 259.547 193.981 259.659 194.466 259.884C194.961 260.098 195.353 260.388 195.642 260.752V257.027H197.253V267.388H195.642V266.226C195.381 266.599 195.017 266.907 194.55 267.15C194.093 267.393 193.566 267.514 192.968 267.514C192.296 267.514 191.68 267.346 191.12 267.01C190.569 266.665 190.131 266.189 189.804 265.582C189.486 264.966 189.328 264.271 189.328 263.496ZM195.642 263.524C195.642 262.992 195.53 262.53 195.306 262.138C195.092 261.746 194.807 261.447 194.452 261.242C194.098 261.036 193.715 260.934 193.304 260.934C192.893 260.934 192.511 261.036 192.156 261.242C191.801 261.438 191.512 261.732 191.288 262.124C191.073 262.506 190.966 262.964 190.966 263.496C190.966 264.028 191.073 264.495 191.288 264.896C191.512 265.297 191.801 265.605 192.156 265.82C192.52 266.025 192.903 266.128 193.304 266.128C193.715 266.128 194.098 266.025 194.452 265.82C194.807 265.615 195.092 265.316 195.306 264.924C195.53 264.523 195.642 264.056 195.642 263.524ZM198.817 263.496C198.817 262.721 198.976 262.035 199.293 261.438C199.62 260.84 200.058 260.378 200.609 260.052C201.169 259.716 201.79 259.547 202.471 259.547C202.975 259.547 203.47 259.659 203.955 259.884C204.45 260.098 204.842 260.388 205.131 260.752V257.027H206.742V267.388H205.131V266.226C204.87 266.599 204.506 266.907 204.039 267.15C203.582 267.393 203.055 267.514 202.457 267.514C201.785 267.514 201.169 267.346 200.609 267.01C200.058 266.665 199.62 266.189 199.293 265.582C198.976 264.966 198.817 264.271 198.817 263.496ZM205.131 263.524C205.131 262.992 205.019 262.53 204.795 262.138C204.581 261.746 204.296 261.447 203.941 261.242C203.587 261.036 203.204 260.934 202.793 260.934C202.383 260.934 202 261.036 201.645 261.242C201.29 261.438 201.001 261.732 200.777 262.124C200.562 262.506 200.455 262.964 200.455 263.496C200.455 264.028 200.562 264.495 200.777 264.896C201.001 265.297 201.29 265.605 201.645 265.82C202.009 266.025 202.392 266.128 202.793 266.128C203.204 266.128 203.587 266.025 203.941 265.82C204.296 265.615 204.581 265.316 204.795 264.924C205.019 264.523 205.131 264.056 205.131 263.524ZM214.071 260.808C214.342 260.453 214.711 260.154 215.177 259.912C215.644 259.669 216.171 259.547 216.76 259.547C217.432 259.547 218.043 259.716 218.594 260.052C219.154 260.378 219.592 260.84 219.91 261.438C220.227 262.035 220.386 262.721 220.386 263.496C220.386 264.271 220.227 264.966 219.91 265.582C219.592 266.189 219.154 266.665 218.594 267.01C218.043 267.346 217.432 267.514 216.76 267.514C216.171 267.514 215.649 267.398 215.191 267.164C214.734 266.921 214.361 266.623 214.071 266.268V271.057H212.475V259.673H214.071V260.808ZM218.762 263.496C218.762 262.964 218.65 262.506 218.426 262.124C218.211 261.732 217.922 261.438 217.558 261.242C217.203 261.036 216.82 260.934 216.409 260.934C216.008 260.934 215.625 261.036 215.261 261.242C214.907 261.447 214.617 261.746 214.393 262.138C214.179 262.53 214.071 262.992 214.071 263.524C214.071 264.056 214.179 264.523 214.393 264.924C214.617 265.316 214.907 265.615 215.261 265.82C215.625 266.025 216.008 266.128 216.409 266.128C216.82 266.128 217.203 266.025 217.558 265.82C217.922 265.605 218.211 265.297 218.426 264.896C218.65 264.495 218.762 264.028 218.762 263.496ZM221.432 263.496C221.432 262.721 221.591 262.035 221.908 261.438C222.235 260.84 222.674 260.378 223.224 260.052C223.784 259.716 224.4 259.547 225.073 259.547C225.679 259.547 226.207 259.669 226.655 259.912C227.112 260.145 227.476 260.439 227.747 260.794V259.673H229.357V267.388H227.747V266.24C227.476 266.604 227.107 266.907 226.641 267.15C226.174 267.393 225.642 267.514 225.045 267.514C224.382 267.514 223.775 267.346 223.224 267.01C222.674 266.665 222.235 266.189 221.908 265.582C221.591 264.966 221.432 264.271 221.432 263.496ZM227.747 263.524C227.747 262.992 227.635 262.53 227.411 262.138C227.196 261.746 226.911 261.447 226.557 261.242C226.202 261.036 225.819 260.934 225.409 260.934C224.998 260.934 224.615 261.036 224.26 261.242C223.906 261.438 223.616 261.732 223.392 262.124C223.178 262.506 223.07 262.964 223.07 263.496C223.07 264.028 223.178 264.495 223.392 264.896C223.616 265.297 223.906 265.605 224.26 265.82C224.624 266.025 225.007 266.128 225.409 266.128C225.819 266.128 226.202 266.025 226.557 265.82C226.911 265.615 227.196 265.316 227.411 264.924C227.635 264.523 227.747 264.056 227.747 263.524ZM233.05 260.794C233.283 260.402 233.591 260.098 233.974 259.884C234.366 259.659 234.828 259.547 235.36 259.547V261.2H234.954C234.328 261.2 233.852 261.358 233.526 261.676C233.208 261.993 233.05 262.544 233.05 263.328V267.388H231.453V259.673H233.05V260.794ZM238.689 260.976V265.246C238.689 265.535 238.754 265.745 238.885 265.876C239.025 265.997 239.258 266.058 239.585 266.058H240.565V267.388H239.305C238.586 267.388 238.036 267.22 237.653 266.884C237.27 266.548 237.079 266.002 237.079 265.246V260.976H236.169V259.673H237.079V257.755H238.689V259.673H240.565V260.976H238.689ZM242.848 258.651C242.559 258.651 242.316 258.553 242.12 258.357C241.924 258.161 241.826 257.919 241.826 257.629C241.826 257.34 241.924 257.097 242.12 256.901C242.316 256.705 242.559 256.607 242.848 256.607C243.128 256.607 243.366 256.705 243.562 256.901C243.759 257.097 243.857 257.34 243.857 257.629C243.857 257.919 243.759 258.161 243.562 258.357C243.366 258.553 243.128 258.651 242.848 258.651ZM243.633 259.673V267.388H242.036V259.673H243.633ZM245.196 263.524C245.196 262.73 245.355 262.035 245.672 261.438C245.999 260.831 246.447 260.364 247.016 260.038C247.586 259.711 248.239 259.547 248.976 259.547C249.91 259.547 250.68 259.772 251.287 260.22C251.903 260.658 252.318 261.288 252.533 262.11H250.811C250.671 261.727 250.447 261.428 250.138 261.214C249.83 260.999 249.443 260.892 248.976 260.892C248.323 260.892 247.8 261.125 247.408 261.592C247.026 262.049 246.834 262.693 246.834 263.524C246.834 264.355 247.026 265.003 247.408 265.47C247.8 265.937 248.323 266.17 248.976 266.17C249.9 266.17 250.512 265.764 250.811 264.952H252.533C252.309 265.736 251.889 266.361 251.273 266.828C250.657 267.286 249.891 267.514 248.976 267.514C248.239 267.514 247.586 267.351 247.016 267.024C246.447 266.688 245.999 266.221 245.672 265.624C245.355 265.017 245.196 264.317 245.196 263.524ZM254.935 258.651C254.646 258.651 254.403 258.553 254.207 258.357C254.011 258.161 253.913 257.919 253.913 257.629C253.913 257.34 254.011 257.097 254.207 256.901C254.403 256.705 254.646 256.607 254.935 256.607C255.215 256.607 255.453 256.705 255.65 256.901C255.846 257.097 255.944 257.34 255.944 257.629C255.944 257.919 255.846 258.161 255.65 258.357C255.453 258.553 255.215 258.651 254.935 258.651ZM255.72 259.673V267.388H254.123V259.673H255.72ZM259.411 260.808C259.682 260.453 260.051 260.154 260.517 259.912C260.984 259.669 261.511 259.547 262.099 259.547C262.772 259.547 263.383 259.716 263.934 260.052C264.494 260.378 264.932 260.84 265.25 261.438C265.567 262.035 265.726 262.721 265.726 263.496C265.726 264.271 265.567 264.966 265.25 265.582C264.932 266.189 264.494 266.665 263.934 267.01C263.383 267.346 262.772 267.514 262.099 267.514C261.511 267.514 260.989 267.398 260.531 267.164C260.074 266.921 259.701 266.623 259.411 266.268V271.057H257.815V259.673H259.411V260.808ZM264.102 263.496C264.102 262.964 263.99 262.506 263.766 262.124C263.551 261.732 263.262 261.438 262.898 261.242C262.543 261.036 262.16 260.934 261.749 260.934C261.348 260.934 260.965 261.036 260.601 261.242C260.247 261.447 259.957 261.746 259.733 262.138C259.519 262.53 259.411 262.992 259.411 263.524C259.411 264.056 259.519 264.523 259.733 264.924C259.957 265.316 260.247 265.615 260.601 265.82C260.965 266.025 261.348 266.128 261.749 266.128C262.16 266.128 262.543 266.025 262.898 265.82C263.262 265.605 263.551 265.297 263.766 264.896C263.99 264.495 264.102 264.028 264.102 263.496ZM274.375 263.342C274.375 263.631 274.356 263.893 274.319 264.126H268.424C268.471 264.742 268.7 265.237 269.11 265.61C269.521 265.983 270.025 266.17 270.623 266.17C271.481 266.17 272.088 265.811 272.443 265.092H274.165C273.931 265.801 273.507 266.385 272.891 266.842C272.284 267.29 271.528 267.514 270.623 267.514C269.885 267.514 269.222 267.351 268.634 267.024C268.056 266.688 267.598 266.221 267.262 265.624C266.936 265.017 266.772 264.317 266.772 263.524C266.772 262.73 266.931 262.035 267.248 261.438C267.575 260.831 268.028 260.364 268.606 260.038C269.194 259.711 269.866 259.547 270.623 259.547C271.351 259.547 271.999 259.706 272.569 260.024C273.138 260.341 273.581 260.789 273.899 261.368C274.216 261.937 274.375 262.595 274.375 263.342ZM272.709 262.838C272.699 262.25 272.489 261.778 272.079 261.424C271.668 261.069 271.159 260.892 270.553 260.892C270.002 260.892 269.53 261.069 269.138 261.424C268.746 261.769 268.513 262.24 268.438 262.838H272.709ZM279.838 259.547C280.445 259.547 280.986 259.673 281.462 259.926C281.947 260.178 282.326 260.551 282.596 261.046C282.867 261.54 283.002 262.138 283.002 262.838V267.388H281.42V263.076C281.42 262.385 281.247 261.858 280.902 261.494C280.557 261.12 280.085 260.934 279.488 260.934C278.891 260.934 278.415 261.12 278.06 261.494C277.714 261.858 277.542 262.385 277.542 263.076V267.388H275.946V259.673H277.542V260.556C277.803 260.238 278.134 259.991 278.536 259.814C278.947 259.636 279.381 259.547 279.838 259.547ZM286.9 260.976V265.246C286.9 265.535 286.966 265.745 287.096 265.876C287.236 265.997 287.47 266.058 287.796 266.058H288.777V267.388H287.516C286.798 267.388 286.247 267.22 285.864 266.884C285.482 266.548 285.29 266.002 285.29 265.246V260.976H284.38V259.673H285.29V257.755H286.9V259.673H288.777V260.976H286.9ZM293.048 267.514C292.441 267.514 291.895 267.407 291.41 267.192C290.934 266.968 290.556 266.669 290.276 266.296C289.996 265.913 289.846 265.489 289.828 265.022H291.48C291.508 265.349 291.662 265.624 291.942 265.848C292.231 266.063 292.591 266.17 293.02 266.17C293.468 266.17 293.813 266.086 294.056 265.918C294.308 265.741 294.434 265.517 294.434 265.246C294.434 264.957 294.294 264.742 294.014 264.602C293.743 264.462 293.309 264.308 292.712 264.14C292.133 263.981 291.662 263.827 291.298 263.678C290.934 263.529 290.616 263.3 290.346 262.992C290.084 262.684 289.954 262.278 289.954 261.774C289.954 261.363 290.075 260.99 290.318 260.654C290.56 260.308 290.906 260.038 291.354 259.842C291.811 259.645 292.334 259.547 292.922 259.547C293.799 259.547 294.504 259.772 295.036 260.22C295.577 260.658 295.867 261.26 295.904 262.026H294.308C294.28 261.68 294.14 261.405 293.888 261.2C293.636 260.994 293.295 260.892 292.866 260.892C292.446 260.892 292.124 260.971 291.9 261.13C291.676 261.288 291.564 261.498 291.564 261.76C291.564 261.965 291.638 262.138 291.788 262.278C291.937 262.418 292.119 262.53 292.334 262.614C292.549 262.688 292.866 262.786 293.286 262.908C293.846 263.057 294.303 263.211 294.658 263.37C295.022 263.519 295.335 263.743 295.596 264.042C295.857 264.341 295.993 264.737 296.002 265.232C296.002 265.671 295.881 266.063 295.638 266.408C295.395 266.753 295.05 267.024 294.602 267.22C294.163 267.416 293.645 267.514 293.048 267.514ZM300.345 257.517C301.297 257.517 302.058 257.779 302.627 258.301C303.206 258.824 303.495 259.538 303.495 260.444C303.495 261.386 303.197 262.096 302.599 262.572C302.002 263.048 301.208 263.286 300.219 263.286L300.163 264.392H298.777L298.707 262.194H299.169C300.074 262.194 300.765 262.072 301.241 261.83C301.727 261.587 301.969 261.125 301.969 260.444C301.969 259.949 301.825 259.561 301.535 259.281C301.255 259.001 300.863 258.861 300.359 258.861C299.855 258.861 299.458 258.997 299.169 259.267C298.88 259.538 298.735 259.916 298.735 260.402H297.237C297.237 259.842 297.363 259.342 297.615 258.903C297.867 258.465 298.226 258.124 298.693 257.881C299.169 257.639 299.72 257.517 300.345 257.517ZM299.449 267.486C299.16 267.486 298.917 267.388 298.721 267.192C298.525 266.996 298.427 266.753 298.427 266.464C298.427 266.175 298.525 265.932 298.721 265.736C298.917 265.54 299.16 265.442 299.449 265.442C299.729 265.442 299.967 265.54 300.163 265.736C300.359 265.932 300.457 266.175 300.457 266.464C300.457 266.753 300.359 266.996 300.163 267.192C299.967 267.388 299.729 267.486 299.449 267.486Z" fill="#8C8888"/>
<path d="M181.931 218.288H181.859V218.163C181.859 217.981 181.706 217.831 181.522 217.831C181.338 217.831 181.186 217.981 181.186 218.163V218.288H177.248V218.163C177.248 217.981 177.1 217.831 176.911 217.831C176.728 217.831 176.574 217.981 176.574 218.163V218.288H176.503C175.525 218.288 174.731 219.073 174.731 220.042V224.959C174.731 225.927 175.525 226.713 176.503 226.713H181.931C182.909 226.713 183.702 225.927 183.702 224.959V220.042C183.702 219.073 182.909 218.288 181.931 218.288ZM176.525 225.367C176.279 225.367 176.077 225.172 176.077 224.923C176.077 224.679 176.279 224.479 176.525 224.479C176.772 224.479 176.974 224.679 176.974 224.923C176.974 225.172 176.772 225.367 176.525 225.367ZM176.525 223.822C176.279 223.822 176.077 223.622 176.077 223.378C176.077 223.129 176.279 222.933 176.525 222.933C176.772 222.933 176.974 223.129 176.974 223.378C176.974 223.622 176.772 223.822 176.525 223.822ZM176.525 222.272C176.279 222.272 176.077 222.072 176.077 221.827C176.077 221.583 176.279 221.384 176.525 221.384C176.772 221.384 176.974 221.583 176.974 221.827C176.974 222.072 176.772 222.272 176.525 222.272ZM178.32 225.367C178.073 225.367 177.871 225.172 177.871 224.923C177.871 224.679 178.073 224.479 178.32 224.479C178.566 224.479 178.768 224.679 178.768 224.923C178.768 225.172 178.566 225.367 178.32 225.367ZM178.32 223.822C178.073 223.822 177.871 223.622 177.871 223.378C177.871 223.129 178.073 222.933 178.32 222.933C178.566 222.933 178.768 223.129 178.768 223.378C178.768 223.622 178.566 223.822 178.32 223.822ZM178.32 222.272C178.073 222.272 177.871 222.072 177.871 221.827C177.871 221.583 178.073 221.384 178.32 221.384C178.566 221.384 178.768 221.583 178.768 221.827C178.768 222.072 178.566 222.272 178.32 222.272ZM180.114 225.367C179.867 225.367 179.665 225.172 179.665 224.923C179.665 224.679 179.867 224.479 180.114 224.479C180.36 224.479 180.562 224.679 180.562 224.923C180.562 225.172 180.36 225.367 180.114 225.367ZM180.114 223.822C179.867 223.822 179.665 223.622 179.665 223.378C179.665 223.129 179.867 222.933 180.114 222.933C180.36 222.933 180.562 223.129 180.562 223.378C180.562 223.622 180.36 223.822 180.114 223.822ZM180.114 222.272C179.867 222.272 179.665 222.072 179.665 221.827C179.665 221.583 179.867 221.384 180.114 221.384C180.36 221.384 180.562 221.583 180.562 221.827C180.562 222.072 180.36 222.272 180.114 222.272ZM181.908 223.822C181.661 223.822 181.46 223.622 181.46 223.378C181.46 223.129 181.661 222.933 181.908 222.933C182.155 222.933 182.357 223.129 182.357 223.378C182.357 223.622 182.155 223.822 181.908 223.822ZM181.908 222.272C181.661 222.272 181.46 222.072 181.46 221.827C181.46 221.583 181.661 221.384 181.908 221.384C182.155 221.384 182.357 221.583 182.357 221.827C182.357 222.072 182.155 222.272 181.908 222.272ZM183.029 220.118H175.404V220.042C175.404 219.442 175.897 218.954 176.503 218.954H176.574V219.078C176.574 219.265 176.728 219.411 176.911 219.411C177.1 219.411 177.248 219.265 177.248 219.078V218.954H181.186V219.078C181.186 219.265 181.338 219.411 181.522 219.411C181.706 219.411 181.859 219.265 181.859 219.078V218.954H181.931C182.536 218.954 183.029 219.442 183.029 220.042V220.118Z" fill="#667085"/>
<path d="M110.629 218.652V226.07H109.285V219.959H109.242L107.507 221.068V219.836L109.35 218.652H110.629ZM115.229 226.171C114.874 226.169 114.527 226.107 114.189 225.987C113.851 225.863 113.547 225.664 113.277 225.389C113.006 225.111 112.791 224.743 112.632 224.284C112.473 223.823 112.394 223.252 112.397 222.571C112.397 221.936 112.464 221.37 112.599 220.872C112.735 220.375 112.929 219.955 113.182 219.612C113.436 219.266 113.741 219.003 114.099 218.822C114.459 218.641 114.861 218.551 115.305 218.551C115.771 218.551 116.184 218.642 116.544 218.826C116.906 219.009 117.198 219.26 117.42 219.579C117.642 219.896 117.78 220.253 117.833 220.651H116.511C116.444 220.366 116.305 220.139 116.095 219.97C115.887 219.799 115.624 219.713 115.305 219.713C114.791 219.713 114.395 219.937 114.117 220.383C113.842 220.83 113.703 221.443 113.7 222.223H113.751C113.869 222.011 114.023 221.828 114.211 221.676C114.399 221.524 114.612 221.407 114.849 221.325C115.088 221.24 115.34 221.198 115.606 221.198C116.04 221.198 116.43 221.302 116.776 221.51C117.123 221.717 117.399 222.004 117.601 222.368C117.804 222.73 117.904 223.146 117.902 223.614C117.904 224.102 117.793 224.54 117.569 224.929C117.344 225.315 117.031 225.619 116.631 225.842C116.23 226.064 115.763 226.174 115.229 226.171ZM115.222 225.085C115.485 225.085 115.72 225.021 115.928 224.893C116.136 224.765 116.3 224.592 116.421 224.375C116.541 224.157 116.6 223.914 116.598 223.643C116.6 223.377 116.543 223.137 116.424 222.922C116.308 222.707 116.148 222.537 115.942 222.412C115.737 222.286 115.503 222.223 115.24 222.223C115.044 222.223 114.862 222.261 114.693 222.336C114.524 222.41 114.377 222.514 114.251 222.647C114.125 222.777 114.026 222.93 113.954 223.103C113.884 223.275 113.848 223.458 113.845 223.654C113.848 223.912 113.908 224.15 114.026 224.367C114.145 224.585 114.308 224.759 114.515 224.889C114.723 225.019 114.958 225.085 115.222 225.085ZM122.513 221.821V222.901H119.173V221.821H122.513ZM126.619 226.211C126.023 226.211 125.511 226.06 125.084 225.758C124.659 225.454 124.331 225.016 124.102 224.444C123.875 223.869 123.761 223.177 123.761 222.368C123.764 221.559 123.879 220.871 124.106 220.304C124.335 219.734 124.662 219.299 125.087 219C125.515 218.7 126.025 218.551 126.619 218.551C127.213 218.551 127.724 218.7 128.151 219C128.579 219.299 128.906 219.734 129.133 220.304C129.362 220.873 129.477 221.562 129.477 222.368C129.477 223.179 129.362 223.872 129.133 224.447C128.906 225.019 128.579 225.456 128.151 225.758C127.726 226.06 127.216 226.211 126.619 226.211ZM126.619 225.077C127.083 225.077 127.449 224.849 127.717 224.393C127.987 223.934 128.122 223.259 128.122 222.368C128.122 221.779 128.061 221.284 127.938 220.883C127.815 220.482 127.641 220.18 127.416 219.978C127.192 219.772 126.926 219.67 126.619 219.67C126.158 219.67 125.793 219.899 125.525 220.358C125.257 220.814 125.122 221.484 125.12 222.368C125.117 222.96 125.176 223.457 125.297 223.86C125.42 224.264 125.594 224.568 125.819 224.773C126.043 224.976 126.31 225.077 126.619 225.077ZM133.317 226.171C132.779 226.171 132.301 226.081 131.883 225.9C131.468 225.718 131.142 225.471 130.905 225.157C130.671 224.841 130.555 224.482 130.557 224.081C130.555 223.77 130.622 223.484 130.76 223.223C130.898 222.962 131.084 222.745 131.318 222.571C131.555 222.395 131.818 222.282 132.107 222.234V222.183C131.726 222.099 131.417 221.905 131.18 221.6C130.946 221.294 130.83 220.94 130.833 220.539C130.83 220.157 130.936 219.817 131.151 219.518C131.366 219.218 131.661 218.983 132.035 218.811C132.409 218.637 132.837 218.551 133.317 218.551C133.793 218.551 134.217 218.637 134.589 218.811C134.963 218.983 135.257 219.218 135.472 219.518C135.69 219.817 135.798 220.157 135.798 220.539C135.798 220.94 135.679 221.294 135.44 221.6C135.203 221.905 134.898 222.099 134.523 222.183V222.234C134.813 222.282 135.074 222.395 135.306 222.571C135.54 222.745 135.726 222.962 135.864 223.223C136.004 223.484 136.074 223.77 136.074 224.081C136.074 224.482 135.955 224.841 135.719 225.157C135.482 225.471 135.156 225.718 134.741 225.9C134.328 226.081 133.853 226.171 133.317 226.171ZM133.317 225.135C133.595 225.135 133.836 225.088 134.042 224.994C134.247 224.898 134.406 224.762 134.52 224.588C134.633 224.415 134.691 224.214 134.694 223.987C134.691 223.751 134.63 223.542 134.509 223.361C134.391 223.177 134.228 223.033 134.02 222.93C133.815 222.826 133.58 222.774 133.317 222.774C133.052 222.774 132.815 222.826 132.607 222.93C132.4 223.033 132.235 223.177 132.115 223.361C131.996 223.542 131.938 223.751 131.941 223.987C131.938 224.214 131.994 224.415 132.107 224.588C132.221 224.76 132.38 224.894 132.586 224.99C132.793 225.087 133.037 225.135 133.317 225.135ZM133.317 221.756C133.544 221.756 133.745 221.71 133.918 221.618C134.095 221.527 134.234 221.399 134.335 221.234C134.436 221.07 134.488 220.881 134.491 220.666C134.488 220.453 134.438 220.267 134.339 220.108C134.24 219.946 134.102 219.822 133.926 219.735C133.749 219.646 133.547 219.601 133.317 219.601C133.083 219.601 132.877 219.646 132.698 219.735C132.522 219.822 132.384 219.946 132.285 220.108C132.188 220.267 132.141 220.453 132.144 220.666C132.141 220.881 132.19 221.07 132.289 221.234C132.39 221.396 132.529 221.524 132.705 221.618C132.884 221.71 133.088 221.756 133.317 221.756ZM140.651 221.821V222.901H137.311V221.821H140.651ZM141.757 226.07V225.099L144.332 222.575C144.578 222.326 144.783 222.105 144.948 221.912C145.112 221.719 145.235 221.531 145.317 221.35C145.399 221.169 145.44 220.976 145.44 220.771C145.44 220.537 145.387 220.336 145.281 220.17C145.174 220.001 145.028 219.87 144.842 219.778C144.657 219.687 144.445 219.641 144.209 219.641C143.965 219.641 143.751 219.691 143.568 219.793C143.384 219.892 143.242 220.033 143.14 220.217C143.041 220.4 142.992 220.619 142.992 220.872H141.713C141.713 220.401 141.821 219.992 142.035 219.644C142.25 219.297 142.546 219.027 142.923 218.837C143.302 218.646 143.737 218.551 144.227 218.551C144.724 218.551 145.161 218.643 145.538 218.829C145.915 219.015 146.207 219.27 146.414 219.594C146.625 219.917 146.73 220.287 146.73 220.702C146.73 220.98 146.676 221.253 146.57 221.521C146.464 221.789 146.277 222.086 146.009 222.412C145.743 222.738 145.37 223.132 144.89 223.596L143.611 224.896V224.947H146.842V226.07H141.757ZM150.833 226.211C150.237 226.211 149.725 226.06 149.298 225.758C148.873 225.454 148.545 225.016 148.316 224.444C148.089 223.869 147.976 223.177 147.976 222.368C147.978 221.559 148.093 220.871 148.32 220.304C148.549 219.734 148.876 219.299 149.301 219C149.729 218.7 150.239 218.551 150.833 218.551C151.427 218.551 151.938 218.7 152.365 219C152.793 219.299 153.12 219.734 153.347 220.304C153.576 220.873 153.691 221.562 153.691 222.368C153.691 223.179 153.576 223.872 153.347 224.447C153.12 225.019 152.793 225.456 152.365 225.758C151.94 226.06 151.43 226.211 150.833 226.211ZM150.833 225.077C151.297 225.077 151.663 224.849 151.931 224.393C152.201 223.934 152.336 223.259 152.336 222.368C152.336 221.779 152.275 221.284 152.152 220.883C152.029 220.482 151.855 220.18 151.63 219.978C151.406 219.772 151.14 219.67 150.833 219.67C150.372 219.67 150.007 219.899 149.739 220.358C149.471 220.814 149.336 221.484 149.334 222.368C149.331 222.96 149.391 223.457 149.511 223.86C149.634 224.264 149.808 224.568 150.033 224.773C150.257 224.976 150.524 225.077 150.833 225.077ZM154.894 226.07V225.099L157.47 222.575C157.716 222.326 157.921 222.105 158.085 221.912C158.25 221.719 158.373 221.531 158.455 221.35C158.537 221.169 158.578 220.976 158.578 220.771C158.578 220.537 158.525 220.336 158.419 220.17C158.312 220.001 158.166 219.87 157.98 219.778C157.794 219.687 157.583 219.641 157.347 219.641C157.103 219.641 156.889 219.691 156.705 219.793C156.522 219.892 156.379 220.033 156.278 220.217C156.179 220.4 156.13 220.619 156.13 220.872H154.851C154.851 220.401 154.958 219.992 155.173 219.644C155.388 219.297 155.684 219.027 156.061 218.837C156.44 218.646 156.874 218.551 157.365 218.551C157.862 218.551 158.299 218.643 158.676 218.829C159.053 219.015 159.345 219.27 159.552 219.594C159.762 219.917 159.867 220.287 159.867 220.702C159.867 220.98 159.814 221.253 159.708 221.521C159.602 221.789 159.415 222.086 159.147 222.412C158.881 222.738 158.508 223.132 158.027 223.596L156.749 224.896V224.947H159.98V226.07H154.894ZM163.892 226.171C163.37 226.171 162.906 226.082 162.501 225.903C162.097 225.725 161.779 225.476 161.544 225.157C161.31 224.838 161.186 224.47 161.171 224.052H162.533C162.545 224.253 162.612 224.428 162.732 224.578C162.853 224.725 163.014 224.84 163.214 224.922C163.415 225.004 163.639 225.045 163.888 225.045C164.154 225.045 164.389 224.999 164.594 224.907C164.799 224.813 164.96 224.683 165.076 224.516C165.192 224.349 165.249 224.157 165.246 223.94C165.249 223.716 165.191 223.518 165.072 223.346C164.954 223.175 164.783 223.041 164.558 222.944C164.336 222.847 164.068 222.799 163.754 222.799H163.098V221.763H163.754C164.012 221.763 164.238 221.719 164.431 221.629C164.627 221.54 164.78 221.414 164.891 221.253C165.002 221.088 165.057 220.899 165.054 220.684C165.057 220.474 165.01 220.292 164.913 220.137C164.819 219.98 164.685 219.858 164.511 219.771C164.339 219.684 164.138 219.641 163.906 219.641C163.679 219.641 163.469 219.682 163.276 219.764C163.083 219.846 162.927 219.963 162.809 220.115C162.69 220.265 162.627 220.444 162.62 220.651H161.327C161.337 220.236 161.456 219.871 161.686 219.557C161.918 219.241 162.227 218.995 162.613 218.819C162.999 218.64 163.433 218.551 163.913 218.551C164.408 218.551 164.838 218.643 165.203 218.829C165.57 219.013 165.853 219.26 166.054 219.572C166.254 219.883 166.354 220.228 166.354 220.604C166.357 221.022 166.234 221.372 165.985 221.655C165.739 221.937 165.415 222.122 165.014 222.209V222.267C165.536 222.339 165.936 222.532 166.213 222.846C166.493 223.158 166.632 223.545 166.63 224.009C166.63 224.424 166.511 224.796 166.275 225.124C166.041 225.45 165.717 225.706 165.304 225.892C164.894 226.078 164.423 226.171 163.892 226.171Z" fill="#635D5D"/>
<path d="M264.116 218.652V226.07H262.773V219.959H262.729L260.994 221.068V219.836L262.838 218.652H264.116ZM266 226.07V225.099L268.575 222.575C268.821 222.326 269.027 222.105 269.191 221.912C269.355 221.719 269.478 221.531 269.56 221.35C269.642 221.169 269.683 220.976 269.683 220.771C269.683 220.537 269.63 220.336 269.524 220.17C269.418 220.001 269.272 219.87 269.086 219.778C268.9 219.687 268.689 219.641 268.452 219.641C268.208 219.641 267.994 219.691 267.811 219.793C267.627 219.892 267.485 220.033 267.383 220.217C267.284 220.4 267.235 220.619 267.235 220.872H265.956C265.956 220.401 266.064 219.992 266.279 219.644C266.494 219.297 266.789 219.027 267.166 218.837C267.545 218.646 267.98 218.551 268.47 218.551C268.967 218.551 269.405 218.643 269.781 218.829C270.158 219.015 270.45 219.27 270.658 219.594C270.868 219.917 270.973 220.287 270.973 220.702C270.973 220.98 270.92 221.253 270.813 221.521C270.707 221.789 270.52 222.086 270.252 222.412C269.986 222.738 269.613 223.132 269.133 223.596L267.854 224.896V224.947H271.085V226.07H266ZM273.157 225.179C272.937 225.179 272.749 225.102 272.592 224.947C272.435 224.79 272.358 224.602 272.36 224.382C272.358 224.165 272.435 223.979 272.592 223.824C272.749 223.67 272.937 223.592 273.157 223.592C273.369 223.592 273.554 223.67 273.711 223.824C273.87 223.979 273.951 224.165 273.954 224.382C273.951 224.529 273.913 224.663 273.838 224.784C273.765 224.905 273.669 225.001 273.548 225.074C273.43 225.144 273.299 225.179 273.157 225.179ZM273.157 221.502C272.937 221.502 272.749 221.425 272.592 221.271C272.435 221.114 272.358 220.925 272.36 220.706C272.358 220.488 272.435 220.302 272.592 220.148C272.749 219.991 272.937 219.912 273.157 219.912C273.369 219.912 273.554 219.991 273.711 220.148C273.87 220.302 273.951 220.488 273.954 220.706C273.951 220.851 273.913 220.983 273.838 221.104C273.765 221.225 273.669 221.321 273.548 221.394C273.43 221.466 273.299 221.502 273.157 221.502ZM278.035 226.211C277.438 226.211 276.927 226.06 276.499 225.758C276.074 225.454 275.747 225.016 275.518 224.444C275.291 223.869 275.177 223.177 275.177 222.368C275.18 221.559 275.294 220.871 275.521 220.304C275.751 219.734 276.078 219.299 276.503 219C276.93 218.7 277.441 218.551 278.035 218.551C278.629 218.551 279.14 218.7 279.567 219C279.994 219.299 280.322 219.734 280.549 220.304C280.778 220.873 280.893 221.562 280.893 222.368C280.893 223.179 280.778 223.872 280.549 224.447C280.322 225.019 279.994 225.456 279.567 225.758C279.142 226.06 278.631 226.211 278.035 226.211ZM278.035 225.077C278.498 225.077 278.864 224.849 279.132 224.393C279.403 223.934 279.538 223.259 279.538 222.368C279.538 221.779 279.476 221.284 279.353 220.883C279.23 220.482 279.056 220.18 278.832 219.978C278.607 219.772 278.342 219.67 278.035 219.67C277.574 219.67 277.209 219.899 276.941 220.358C276.673 220.814 276.538 221.484 276.535 222.368C276.533 222.96 276.592 223.457 276.713 223.86C276.836 224.264 277.01 224.568 277.234 224.773C277.459 224.976 277.726 225.077 278.035 225.077ZM284.838 226.211C284.241 226.211 283.73 226.06 283.302 225.758C282.877 225.454 282.55 225.016 282.321 224.444C282.094 223.869 281.98 223.177 281.98 222.368C281.983 221.559 282.097 220.871 282.324 220.304C282.554 219.734 282.881 219.299 283.306 219C283.733 218.7 284.244 218.551 284.838 218.551C285.432 218.551 285.943 218.7 286.37 219C286.797 219.299 287.125 219.734 287.352 220.304C287.581 220.873 287.696 221.562 287.696 222.368C287.696 223.179 287.581 223.872 287.352 224.447C287.125 225.019 286.797 225.456 286.37 225.758C285.945 226.06 285.434 226.211 284.838 226.211ZM284.838 225.077C285.302 225.077 285.667 224.849 285.935 224.393C286.206 223.934 286.341 223.259 286.341 222.368C286.341 221.779 286.279 221.284 286.156 220.883C286.033 220.482 285.859 220.18 285.635 219.978C285.41 219.772 285.145 219.67 284.838 219.67C284.377 219.67 284.012 219.899 283.744 220.358C283.476 220.814 283.341 221.484 283.338 222.368C283.336 222.96 283.395 223.457 283.516 223.86C283.639 224.264 283.813 224.568 284.037 224.773C284.262 224.976 284.529 225.077 284.838 225.077ZM291.502 226.07V218.652H294.283C294.853 218.652 295.331 218.758 295.718 218.971C296.106 219.183 296.4 219.475 296.598 219.847C296.798 220.217 296.898 220.637 296.898 221.108C296.898 221.583 296.798 222.006 296.598 222.375C296.397 222.745 296.101 223.036 295.71 223.248C295.319 223.458 294.837 223.563 294.265 223.563H292.421V222.459H294.084C294.417 222.459 294.69 222.401 294.903 222.285C295.115 222.169 295.272 222.01 295.373 221.807C295.477 221.604 295.529 221.371 295.529 221.108C295.529 220.844 295.477 220.613 295.373 220.412C295.272 220.212 295.114 220.056 294.899 219.945C294.686 219.832 294.412 219.775 294.077 219.775H292.845V226.07H291.502ZM298.065 218.652H299.71L301.912 224.027H301.999L304.201 218.652H305.846V226.07H304.556V220.974H304.487L302.437 226.048H301.474L299.424 220.963H299.355V226.07H298.065V218.652Z" fill="#635D5D"/>
<path d="M390.128 218.652V226.07H388.784V219.959H388.74L387.005 221.068V219.836L388.849 218.652H390.128ZM392.011 226.07V225.099L394.586 222.575C394.833 222.326 395.038 222.105 395.202 221.912C395.366 221.719 395.489 221.531 395.571 221.35C395.653 221.169 395.695 220.976 395.695 220.771C395.695 220.537 395.641 220.336 395.535 220.17C395.429 220.001 395.283 219.87 395.097 219.778C394.911 219.687 394.7 219.641 394.463 219.641C394.219 219.641 394.005 219.691 393.822 219.793C393.638 219.892 393.496 220.033 393.395 220.217C393.296 220.4 393.246 220.619 393.246 220.872H391.967C391.967 220.401 392.075 219.992 392.29 219.644C392.505 219.297 392.801 219.027 393.177 218.837C393.556 218.646 393.991 218.551 394.481 218.551C394.979 218.551 395.416 218.643 395.792 218.829C396.169 219.015 396.461 219.27 396.669 219.594C396.879 219.917 396.984 220.287 396.984 220.702C396.984 220.98 396.931 221.253 396.825 221.521C396.718 221.789 396.531 222.086 396.263 222.412C395.998 222.738 395.625 223.132 395.144 223.596L393.865 224.896V224.947H397.096V226.07H392.011ZM399.168 225.179C398.948 225.179 398.76 225.102 398.603 224.947C398.446 224.79 398.369 224.602 398.371 224.382C398.369 224.165 398.446 223.979 398.603 223.824C398.76 223.67 398.948 223.592 399.168 223.592C399.381 223.592 399.565 223.67 399.722 223.824C399.882 223.979 399.962 224.165 399.965 224.382C399.962 224.529 399.924 224.663 399.849 224.784C399.777 224.905 399.68 225.001 399.559 225.074C399.441 225.144 399.311 225.179 399.168 225.179ZM399.168 221.502C398.948 221.502 398.76 221.425 398.603 221.271C398.446 221.114 398.369 220.925 398.371 220.706C398.369 220.488 398.446 220.302 398.603 220.148C398.76 219.991 398.948 219.912 399.168 219.912C399.381 219.912 399.565 219.991 399.722 220.148C399.882 220.302 399.962 220.488 399.965 220.706C399.962 220.851 399.924 220.983 399.849 221.104C399.777 221.225 399.68 221.321 399.559 221.394C399.441 221.466 399.311 221.502 399.168 221.502ZM404.046 226.211C403.45 226.211 402.938 226.06 402.51 225.758C402.085 225.454 401.758 225.016 401.529 224.444C401.302 223.869 401.188 223.177 401.188 222.368C401.191 221.559 401.305 220.871 401.532 220.304C401.762 219.734 402.089 219.299 402.514 219C402.941 218.7 403.452 218.551 404.046 218.551C404.64 218.551 405.151 218.7 405.578 219C406.005 219.299 406.333 219.734 406.56 220.304C406.789 220.873 406.904 221.562 406.904 222.368C406.904 223.179 406.789 223.872 406.56 224.447C406.333 225.019 406.005 225.456 405.578 225.758C405.153 226.06 404.642 226.211 404.046 226.211ZM404.046 225.077C404.51 225.077 404.875 224.849 405.143 224.393C405.414 223.934 405.549 223.259 405.549 222.368C405.549 221.779 405.488 221.284 405.364 220.883C405.241 220.482 405.067 220.18 404.843 219.978C404.618 219.772 404.353 219.67 404.046 219.67C403.585 219.67 403.22 219.899 402.952 220.358C402.684 220.814 402.549 221.484 402.546 222.368C402.544 222.96 402.603 223.457 402.724 223.86C402.847 224.264 403.021 224.568 403.246 224.773C403.47 224.976 403.737 225.077 404.046 225.077ZM410.849 226.211C410.253 226.211 409.741 226.06 409.313 225.758C408.888 225.454 408.561 225.016 408.332 224.444C408.105 223.869 407.991 223.177 407.991 222.368C407.994 221.559 408.108 220.871 408.335 220.304C408.565 219.734 408.892 219.299 409.317 219C409.744 218.7 410.255 218.551 410.849 218.551C411.443 218.551 411.954 218.7 412.381 219C412.809 219.299 413.136 219.734 413.363 220.304C413.592 220.873 413.707 221.562 413.707 222.368C413.707 223.179 413.592 223.872 413.363 224.447C413.136 225.019 412.809 225.456 412.381 225.758C411.956 226.06 411.445 226.211 410.849 226.211ZM410.849 225.077C411.313 225.077 411.678 224.849 411.946 224.393C412.217 223.934 412.352 223.259 412.352 222.368C412.352 221.779 412.291 221.284 412.167 220.883C412.044 220.482 411.87 220.18 411.646 219.978C411.421 219.772 411.156 219.67 410.849 219.67C410.388 219.67 410.023 219.899 409.755 220.358C409.487 220.814 409.352 221.484 409.35 222.368C409.347 222.96 409.406 223.457 409.527 223.86C409.65 224.264 409.824 224.568 410.049 224.773C410.273 224.976 410.54 225.077 410.849 225.077ZM417.513 226.07V218.652H420.294C420.864 218.652 421.342 218.758 421.729 218.971C422.117 219.183 422.411 219.475 422.609 219.847C422.809 220.217 422.909 220.637 422.909 221.108C422.909 221.583 422.809 222.006 422.609 222.375C422.408 222.745 422.113 223.036 421.721 223.248C421.33 223.458 420.848 223.563 420.276 223.563H418.433V222.459H420.095C420.428 222.459 420.701 222.401 420.914 222.285C421.126 222.169 421.283 222.01 421.385 221.807C421.488 221.604 421.54 221.371 421.54 221.108C421.54 220.844 421.488 220.613 421.385 220.412C421.283 220.212 421.125 220.056 420.91 219.945C420.698 219.832 420.424 219.775 420.088 219.775H418.856V226.07H417.513ZM424.077 218.652H425.721L427.923 224.027H428.01L430.212 218.652H431.857V226.07H430.567V220.974H430.498L428.448 226.048H427.485L425.435 220.963H425.366V226.07H424.077V218.652Z" fill="#635D5D"/>
<path opacity="0.7" d="M81.3776 225.07H78.864V217.652H81.4284C82.1648 217.652 82.7975 217.8 83.3263 218.097C83.8575 218.392 84.2656 218.816 84.5505 219.369C84.8355 219.922 84.9779 220.583 84.9779 221.354C84.9779 222.126 84.8342 222.79 84.5469 223.346C84.262 223.901 83.8503 224.327 83.3118 224.624C82.7757 224.921 82.131 225.07 81.3776 225.07ZM80.2077 223.907H81.3124C81.8292 223.907 82.2602 223.813 82.6055 223.625C82.9508 223.434 83.2104 223.15 83.3842 222.773C83.5581 222.394 83.645 221.921 83.645 221.354C83.645 220.786 83.5581 220.315 83.3842 219.941C83.2104 219.564 82.9532 219.283 82.6128 219.097C82.2747 218.909 81.8545 218.815 81.3523 218.815H80.2077V223.907ZM87.7977 225.182C87.4451 225.182 87.1276 225.119 86.8451 224.994C86.565 224.866 86.3428 224.677 86.1786 224.429C86.0168 224.18 85.9359 223.873 85.9359 223.509C85.9359 223.195 85.9939 222.935 86.1098 222.73C86.2257 222.525 86.3839 222.361 86.5843 222.237C86.7847 222.114 87.0105 222.021 87.2616 221.959C87.5151 221.893 87.7771 221.846 88.0476 221.817C88.3736 221.783 88.638 221.753 88.8408 221.727C89.0436 221.698 89.1909 221.654 89.2827 221.596C89.3769 221.536 89.4239 221.443 89.4239 221.317V221.296C89.4239 221.023 89.343 220.812 89.1813 220.662C89.0195 220.512 88.7865 220.437 88.4822 220.437C88.1611 220.437 87.9063 220.507 87.718 220.647C87.532 220.787 87.4065 220.953 87.3413 221.144L86.117 220.97C86.2136 220.632 86.373 220.349 86.5951 220.122C86.8173 219.893 87.0889 219.721 87.4101 219.608C87.7313 219.492 88.0862 219.434 88.475 219.434C88.743 219.434 89.0098 219.465 89.2754 219.528C89.5411 219.591 89.7837 219.695 90.0035 219.84C90.2232 219.982 90.3995 220.176 90.5323 220.423C90.6675 220.669 90.7351 220.977 90.7351 221.346V225.07H89.4746V224.306H89.4312C89.3515 224.46 89.2392 224.605 89.0943 224.74C88.9519 224.873 88.772 224.98 88.5547 225.063C88.3398 225.142 88.0874 225.182 87.7977 225.182ZM88.1381 224.219C88.4013 224.219 88.6295 224.167 88.8227 224.063C89.0159 223.957 89.1644 223.817 89.2682 223.643C89.3744 223.469 89.4276 223.279 89.4276 223.074V222.419C89.3865 222.452 89.3165 222.484 89.2175 222.513C89.1209 222.542 89.0122 222.567 88.8915 222.589C88.7708 222.61 88.6512 222.63 88.5329 222.647C88.4146 222.664 88.312 222.678 88.2251 222.69C88.0295 222.717 87.8544 222.76 87.6999 222.821C87.5453 222.881 87.4234 222.965 87.334 223.074C87.2447 223.18 87.2 223.318 87.2 223.487C87.2 223.728 87.2882 223.911 87.4644 224.034C87.6407 224.157 87.8653 224.219 88.1381 224.219ZM94.8316 219.506V220.521H91.6334V219.506H94.8316ZM92.423 218.174H93.7341V223.396C93.7341 223.573 93.7607 223.708 93.8138 223.802C93.8694 223.894 93.9418 223.957 94.0311 223.99C94.1205 224.024 94.2195 224.041 94.3281 224.041C94.4102 224.041 94.4851 224.035 94.5527 224.023C94.6227 224.011 94.6759 224 94.7121 223.99L94.933 225.015C94.863 225.04 94.7628 225.066 94.6324 225.095C94.5044 225.124 94.3475 225.141 94.1615 225.146C93.8331 225.156 93.5373 225.106 93.2741 224.997C93.0109 224.886 92.8021 224.715 92.6475 224.483C92.4954 224.251 92.4205 223.961 92.423 223.614V218.174ZM98.3314 225.178C97.7736 225.178 97.2918 225.063 96.8862 224.831C96.4829 224.597 96.1726 224.266 95.9553 223.838C95.738 223.409 95.6293 222.903 95.6293 222.321C95.6293 221.748 95.738 221.246 95.9553 220.814C96.1751 220.379 96.4817 220.041 96.8753 219.8C97.2689 219.556 97.7313 219.434 98.2625 219.434C98.6054 219.434 98.929 219.49 99.2332 219.601C99.5399 219.709 99.8104 219.878 100.045 220.108C100.281 220.337 100.467 220.629 100.602 220.984C100.738 221.337 100.805 221.757 100.805 222.245V222.647H96.2451V221.763H99.5484C99.5459 221.512 99.4916 221.288 99.3854 221.093C99.2791 220.895 99.1306 220.739 98.9399 220.626C98.7515 220.512 98.5318 220.455 98.2807 220.455C98.0126 220.455 97.7772 220.521 97.5744 220.651C97.3715 220.779 97.2134 220.948 97.0999 221.158C96.9888 221.366 96.9321 221.594 96.9296 221.843V222.614C96.9296 222.938 96.9888 223.215 97.1071 223.447C97.2254 223.677 97.3908 223.853 97.6033 223.976C97.8158 224.097 98.0645 224.157 98.3495 224.157C98.5402 224.157 98.7129 224.131 98.8674 224.077C99.022 224.022 99.156 223.941 99.2695 223.835C99.383 223.728 99.4687 223.597 99.5266 223.44L100.751 223.578C100.674 223.901 100.526 224.184 100.309 224.425C100.094 224.664 99.8188 224.85 99.4832 224.983C99.1475 225.113 98.7636 225.178 98.3314 225.178Z" fill="#667085"/>
<path opacity="0.7" d="M202.101 226.07V218.652H206.853V219.778H203.445V221.792H206.527V222.919H203.445V226.07H202.101ZM207.94 226.07V220.506H209.211V221.434H209.269C209.371 221.113 209.545 220.865 209.791 220.691C210.04 220.515 210.323 220.427 210.642 220.427C210.715 220.427 210.795 220.43 210.885 220.438C210.977 220.442 211.053 220.451 211.113 220.463V221.669C211.057 221.65 210.969 221.633 210.849 221.618C210.73 221.601 210.616 221.593 210.504 221.593C210.265 221.593 210.051 221.645 209.86 221.749C209.671 221.85 209.523 221.991 209.414 222.173C209.306 222.354 209.251 222.563 209.251 222.799V226.07H207.94ZM214.182 226.178C213.638 226.178 213.168 226.059 212.769 225.82C212.371 225.581 212.062 225.246 211.842 224.817C211.625 224.387 211.516 223.885 211.516 223.31C211.516 222.735 211.625 222.232 211.842 221.799C212.062 221.367 212.371 221.032 212.769 220.793C213.168 220.554 213.638 220.434 214.182 220.434C214.725 220.434 215.196 220.554 215.594 220.793C215.993 221.032 216.301 221.367 216.518 221.799C216.738 222.232 216.848 222.735 216.848 223.31C216.848 223.885 216.738 224.387 216.518 224.817C216.301 225.246 215.993 225.581 215.594 225.82C215.196 226.059 214.725 226.178 214.182 226.178ZM214.189 225.128C214.484 225.128 214.73 225.047 214.928 224.885C215.126 224.721 215.273 224.501 215.37 224.226C215.469 223.951 215.518 223.644 215.518 223.306C215.518 222.966 215.469 222.658 215.37 222.383C215.273 222.105 215.126 221.884 214.928 221.72C214.73 221.556 214.484 221.473 214.189 221.473C213.887 221.473 213.636 221.556 213.436 221.72C213.238 221.884 213.089 222.105 212.99 222.383C212.893 222.658 212.845 222.966 212.845 223.306C212.845 223.644 212.893 223.951 212.99 224.226C213.089 224.501 213.238 224.721 213.436 224.885C213.636 225.047 213.887 225.128 214.189 225.128ZM217.96 226.07V220.506H219.214V221.452H219.279C219.395 221.133 219.587 220.884 219.855 220.706C220.123 220.525 220.443 220.434 220.815 220.434C221.191 220.434 221.509 220.526 221.767 220.709C222.028 220.89 222.211 221.138 222.318 221.452H222.376C222.499 221.143 222.706 220.896 222.999 220.713C223.293 220.527 223.642 220.434 224.045 220.434C224.557 220.434 224.975 220.596 225.299 220.919C225.622 221.243 225.784 221.715 225.784 222.336V226.07H224.469V222.538C224.469 222.193 224.377 221.941 224.194 221.781C224.01 221.62 223.786 221.539 223.52 221.539C223.204 221.539 222.956 221.638 222.778 221.836C222.601 222.031 222.513 222.286 222.513 222.6V226.07H221.227V222.484C221.227 222.197 221.14 221.967 220.967 221.796C220.795 221.624 220.571 221.539 220.293 221.539C220.105 221.539 219.933 221.587 219.779 221.684C219.624 221.778 219.501 221.912 219.409 222.086C219.317 222.257 219.272 222.457 219.272 222.687V226.07H217.96ZM229.376 219.778V218.652H235.294V219.778H233.002V226.07H231.669V219.778H229.376ZM236.377 226.07V220.506H237.689V226.07H236.377ZM237.037 219.717C236.829 219.717 236.65 219.648 236.501 219.51C236.351 219.37 236.276 219.202 236.276 219.007C236.276 218.809 236.351 218.641 236.501 218.503C236.65 218.363 236.829 218.293 237.037 218.293C237.247 218.293 237.425 218.363 237.573 218.503C237.722 218.641 237.797 218.809 237.797 219.007C237.797 219.202 237.722 219.37 237.573 219.51C237.425 219.648 237.247 219.717 237.037 219.717ZM239.037 226.07V220.506H240.29V221.452H240.355C240.471 221.133 240.663 220.884 240.931 220.706C241.199 220.525 241.519 220.434 241.891 220.434C242.268 220.434 242.585 220.526 242.844 220.709C243.104 220.89 243.288 221.138 243.394 221.452H243.452C243.575 221.143 243.783 220.896 244.075 220.713C244.37 220.527 244.719 220.434 245.122 220.434C245.634 220.434 246.051 220.596 246.375 220.919C246.699 221.243 246.86 221.715 246.86 222.336V226.07H245.546V222.538C245.546 222.193 245.454 221.941 245.27 221.781C245.087 221.62 244.862 221.539 244.597 221.539C244.28 221.539 244.033 221.638 243.854 221.836C243.678 222.031 243.59 222.286 243.59 222.6V226.07H242.304V222.484C242.304 222.197 242.217 221.967 242.043 221.796C241.872 221.624 241.647 221.539 241.369 221.539C241.181 221.539 241.01 221.587 240.855 221.684C240.701 221.778 240.577 221.912 240.486 222.086C240.394 222.257 240.348 222.457 240.348 222.687V226.07H239.037ZM250.654 226.178C250.096 226.178 249.614 226.063 249.208 225.831C248.805 225.597 248.495 225.266 248.277 224.838C248.06 224.409 247.952 223.903 247.952 223.321C247.952 222.748 248.06 222.246 248.277 221.814C248.497 221.379 248.804 221.041 249.197 220.8C249.591 220.556 250.053 220.434 250.585 220.434C250.928 220.434 251.251 220.49 251.555 220.601C251.862 220.709 252.133 220.878 252.367 221.108C252.603 221.337 252.789 221.629 252.925 221.984C253.06 222.337 253.127 222.757 253.127 223.245V223.647H248.567V222.763H251.871C251.868 222.512 251.814 222.288 251.708 222.093C251.601 221.895 251.453 221.739 251.262 221.626C251.074 221.512 250.854 221.455 250.603 221.455C250.335 221.455 250.099 221.521 249.897 221.651C249.694 221.779 249.536 221.948 249.422 222.158C249.311 222.366 249.254 222.594 249.252 222.843V223.614C249.252 223.938 249.311 224.215 249.429 224.447C249.548 224.677 249.713 224.853 249.926 224.976C250.138 225.097 250.387 225.157 250.672 225.157C250.862 225.157 251.035 225.131 251.19 225.077C251.344 225.022 251.478 224.941 251.592 224.835C251.705 224.728 251.791 224.597 251.849 224.44L253.073 224.578C252.996 224.901 252.848 225.184 252.631 225.425C252.416 225.664 252.141 225.85 251.805 225.983C251.47 226.113 251.086 226.178 250.654 226.178Z" fill="#667085"/>
<path opacity="0.7" d="M339.664 219.778V218.652H345.582V219.778H343.289V226.07H341.956V219.778H339.664ZM348.285 226.178C347.742 226.178 347.271 226.059 346.872 225.82C346.474 225.581 346.165 225.246 345.945 224.817C345.728 224.387 345.619 223.885 345.619 223.31C345.619 222.735 345.728 222.232 345.945 221.799C346.165 221.367 346.474 221.032 346.872 220.793C347.271 220.554 347.742 220.434 348.285 220.434C348.828 220.434 349.299 220.554 349.698 220.793C350.096 221.032 350.404 221.367 350.621 221.799C350.841 222.232 350.951 222.735 350.951 223.31C350.951 223.885 350.841 224.387 350.621 224.817C350.404 225.246 350.096 225.581 349.698 225.82C349.299 226.059 348.828 226.178 348.285 226.178ZM348.292 225.128C348.587 225.128 348.833 225.047 349.031 224.885C349.229 224.721 349.376 224.501 349.473 224.226C349.572 223.951 349.621 223.644 349.621 223.306C349.621 222.966 349.572 222.658 349.473 222.383C349.376 222.105 349.229 221.884 349.031 221.72C348.833 221.556 348.587 221.473 348.292 221.473C347.99 221.473 347.739 221.556 347.539 221.72C347.341 221.884 347.192 222.105 347.093 222.383C346.997 222.658 346.948 222.966 346.948 223.306C346.948 223.644 346.997 223.951 347.093 224.226C347.192 224.501 347.341 224.721 347.539 224.885C347.739 225.047 347.99 225.128 348.292 225.128ZM354.326 219.778V218.652H360.244V219.778H357.951V226.07H356.618V219.778H354.326ZM361.327 226.07V220.506H362.638V226.07H361.327ZM361.986 219.717C361.778 219.717 361.6 219.648 361.45 219.51C361.3 219.37 361.225 219.202 361.225 219.007C361.225 218.809 361.3 218.641 361.45 218.503C361.6 218.363 361.778 218.293 361.986 218.293C362.196 218.293 362.375 218.363 362.522 218.503C362.672 218.641 362.747 218.809 362.747 219.007C362.747 219.202 362.672 219.37 362.522 219.51C362.375 219.648 362.196 219.717 361.986 219.717ZM363.986 226.07V220.506H365.24V221.452H365.305C365.421 221.133 365.613 220.884 365.881 220.706C366.149 220.525 366.469 220.434 366.841 220.434C367.217 220.434 367.535 220.526 367.793 220.709C368.054 220.89 368.237 221.138 368.344 221.452H368.402C368.525 221.143 368.732 220.896 369.025 220.713C369.319 220.527 369.668 220.434 370.071 220.434C370.583 220.434 371.001 220.596 371.325 220.919C371.648 221.243 371.81 221.715 371.81 222.336V226.07H370.495V222.538C370.495 222.193 370.403 221.941 370.22 221.781C370.036 221.62 369.812 221.539 369.546 221.539C369.23 221.539 368.982 221.638 368.804 221.836C368.627 222.031 368.539 222.286 368.539 222.6V226.07H367.253V222.484C367.253 222.197 367.166 221.967 366.993 221.796C366.821 221.624 366.597 221.539 366.319 221.539C366.131 221.539 365.959 221.587 365.805 221.684C365.65 221.778 365.527 221.912 365.435 222.086C365.343 222.257 365.298 222.457 365.298 222.687V226.07H363.986ZM375.603 226.178C375.045 226.178 374.564 226.063 374.158 225.831C373.755 225.597 373.444 225.266 373.227 224.838C373.01 224.409 372.901 223.903 372.901 223.321C372.901 222.748 373.01 222.246 373.227 221.814C373.447 221.379 373.753 221.041 374.147 220.8C374.541 220.556 375.003 220.434 375.534 220.434C375.877 220.434 376.201 220.49 376.505 220.601C376.812 220.709 377.082 220.878 377.316 221.108C377.553 221.337 377.739 221.629 377.874 221.984C378.009 222.337 378.077 222.757 378.077 223.245V223.647H373.517V222.763H376.82C376.818 222.512 376.763 222.288 376.657 222.093C376.551 221.895 376.402 221.739 376.212 221.626C376.023 221.512 375.803 221.455 375.552 221.455C375.284 221.455 375.049 221.521 374.846 221.651C374.643 221.779 374.485 221.948 374.372 222.158C374.26 222.366 374.204 222.594 374.201 222.843V223.614C374.201 223.938 374.26 224.215 374.379 224.447C374.497 224.677 374.663 224.853 374.875 224.976C375.088 225.097 375.336 225.157 375.621 225.157C375.812 225.157 375.985 225.131 376.139 225.077C376.294 225.022 376.428 224.941 376.541 224.835C376.655 224.728 376.74 224.597 376.798 224.44L378.023 224.578C377.945 224.901 377.798 225.184 377.581 225.425C377.366 225.664 377.09 225.85 376.755 225.983C376.419 226.113 376.035 226.178 375.603 226.178Z" fill="#667085"/>
<path d="M315.266 219.957L319.266 223.967L323.265 219.957" stroke="#33475B" stroke-width="0.200941" stroke-linecap="round"/>
<path d="M440.816 219.957L444.816 223.967L448.814 219.957" stroke="#33475B" stroke-width="0.200941" stroke-linecap="round"/>
<path d="M391.178 311.128H389.581L384.779 303.862V311.128H383.183V301.384H384.779L389.581 308.636V301.384H391.178V311.128ZM400.344 307.082C400.344 307.371 400.326 307.633 400.288 307.866H394.394C394.44 308.482 394.669 308.977 395.08 309.35C395.491 309.724 395.995 309.91 396.592 309.91C397.451 309.91 398.057 309.551 398.412 308.832H400.134C399.901 309.542 399.476 310.125 398.86 310.582C398.253 311.03 397.497 311.254 396.592 311.254C395.855 311.254 395.192 311.091 394.604 310.764C394.025 310.428 393.568 309.962 393.232 309.364C392.905 308.758 392.742 308.057 392.742 307.264C392.742 306.471 392.9 305.775 393.218 305.178C393.544 304.571 393.997 304.104 394.576 303.778C395.164 303.451 395.836 303.288 396.592 303.288C397.32 303.288 397.969 303.446 398.538 303.764C399.107 304.081 399.551 304.529 399.868 305.108C400.186 305.677 400.344 306.335 400.344 307.082ZM398.678 306.578C398.669 305.99 398.459 305.519 398.048 305.164C397.637 304.809 397.129 304.632 396.522 304.632C395.971 304.632 395.5 304.809 395.108 305.164C394.716 305.509 394.482 305.981 394.408 306.578H398.678ZM405.219 307.222L407.712 311.128H405.905L404.239 308.51L402.671 311.128H401.005L403.497 307.334L401.005 303.414H402.811L404.477 306.032L406.045 303.414H407.712L405.219 307.222ZM410.764 304.716V308.986C410.764 309.276 410.829 309.486 410.96 309.616C411.1 309.738 411.334 309.798 411.66 309.798H412.64V311.128H411.38C410.661 311.128 410.111 310.96 409.728 310.624C409.345 310.288 409.154 309.742 409.154 308.986V304.716H408.244V303.414H409.154V301.496H410.764V303.414H412.64V304.716H410.764Z" fill="white"/>
<path d="M84.7597 71.7293H77.9182L76.7861 75.0024H73.1684L79.3455 57.8H83.357L89.5341 75.0024H85.8918L84.7597 71.7293ZM83.8246 68.973L81.3389 61.7869L78.8533 68.973H83.8246ZM90.957 68.1363C90.957 66.7581 91.2277 65.5358 91.7692 64.4694C92.327 63.4029 93.0817 62.5826 94.0333 62.0084C94.9849 61.4341 96.0431 61.147 97.208 61.147C98.0939 61.147 98.9389 61.3439 99.7428 61.7377C100.547 62.115 101.187 62.6236 101.662 63.2635V56.791H105.157V75.0024H101.662V72.9844C101.236 73.6571 100.637 74.1985 99.8659 74.6087C99.0947 75.0188 98.2006 75.2239 97.1834 75.2239C96.0349 75.2239 94.9849 74.9286 94.0333 74.338C93.0817 73.7473 92.327 72.9188 91.7692 71.8524C91.2277 70.7695 90.957 69.5308 90.957 68.1363ZM101.687 68.1855C101.687 67.3487 101.523 66.635 101.195 66.0444C100.867 65.4374 100.424 64.978 99.8659 64.6662C99.308 64.3381 98.7092 64.174 98.0693 64.174C97.4295 64.174 96.8388 64.3299 96.2974 64.6416C95.756 64.9534 95.313 65.4127 94.9685 66.0198C94.6403 66.6104 94.4763 67.3159 94.4763 68.1363C94.4763 68.9566 94.6403 69.6785 94.9685 70.3019C95.313 70.909 95.756 71.3766 96.2974 71.7047C96.8552 72.0328 97.4459 72.1969 98.0693 72.1969C98.7092 72.1969 99.308 72.041 99.8659 71.7293C100.424 71.4012 100.867 70.9418 101.195 70.3512C101.523 69.7441 101.687 69.0222 101.687 68.1855ZM107.636 68.1363C107.636 66.7581 107.907 65.5358 108.448 64.4694C109.006 63.4029 109.761 62.5826 110.712 62.0084C111.664 61.4341 112.722 61.147 113.887 61.147C114.773 61.147 115.618 61.3439 116.422 61.7377C117.226 62.115 117.866 62.6236 118.341 63.2635V56.791H121.836V75.0024H118.341V72.9844C117.915 73.6571 117.316 74.1985 116.545 74.6087C115.774 75.0188 114.88 75.2239 113.862 75.2239C112.714 75.2239 111.664 74.9286 110.712 74.338C109.761 73.7473 109.006 72.9188 108.448 71.8524C107.907 70.7695 107.636 69.5308 107.636 68.1363ZM118.366 68.1855C118.366 67.3487 118.202 66.635 117.874 66.0444C117.546 65.4374 117.103 64.978 116.545 64.6662C115.987 64.3381 115.388 64.174 114.748 64.174C114.109 64.174 113.518 64.3299 112.976 64.6416C112.435 64.9534 111.992 65.4127 111.648 66.0198C111.319 66.6104 111.155 67.3159 111.155 68.1363C111.155 68.9566 111.319 69.6785 111.648 70.3019C111.992 70.909 112.435 71.3766 112.976 71.7047C113.534 72.0328 114.125 72.1969 114.748 72.1969C115.388 72.1969 115.987 72.041 116.545 71.7293C117.103 71.4012 117.546 70.9418 117.874 70.3512C118.202 69.7441 118.366 69.0222 118.366 68.1855ZM145.757 75.0024H142.312L134.511 63.2143V75.0024H131.065V57.8H134.511L142.312 69.6129V57.8H145.757V75.0024ZM161.836 67.8902C161.836 68.3824 161.804 68.8253 161.738 69.2191H151.771C151.853 70.2035 152.197 70.9746 152.804 71.5324C153.412 72.0903 154.158 72.3692 155.044 72.3692C156.324 72.3692 157.234 71.8195 157.776 70.7203H161.492C161.098 72.0328 160.343 73.1157 159.228 73.9688C158.112 74.8056 156.742 75.2239 155.118 75.2239C153.805 75.2239 152.624 74.9368 151.574 74.3626C150.54 73.7719 149.728 72.9434 149.138 71.877C148.563 70.8105 148.276 69.58 148.276 68.1855C148.276 66.7745 148.563 65.5358 149.138 64.4694C149.712 63.4029 150.516 62.5826 151.549 62.0084C152.583 61.4341 153.772 61.147 155.118 61.147C156.414 61.147 157.571 61.4259 158.588 61.9838C159.621 62.5416 160.417 63.3373 160.975 64.3709C161.549 65.3881 161.836 66.5612 161.836 67.8902ZM158.268 66.9058C158.251 66.0198 157.932 65.3143 157.308 64.7893C156.685 64.2479 155.922 63.9772 155.019 63.9772C154.166 63.9772 153.444 64.2397 152.854 64.7647C152.279 65.2733 151.927 65.987 151.795 66.9058H158.268ZM183.252 61.3685L179.265 75.0024H175.549L173.063 65.4784L170.577 75.0024H166.837L162.825 61.3685H166.32L168.732 71.7539L171.34 61.3685H174.983L177.542 71.7293L179.954 61.3685H183.252ZM200.726 66.1921C201.694 66.3725 202.489 66.8565 203.113 67.6441C203.736 68.4316 204.048 69.3339 204.048 70.3512C204.048 71.2699 203.818 72.0821 203.359 72.7875C202.916 73.4766 202.268 74.018 201.415 74.4118C200.561 74.8056 199.552 75.0024 198.388 75.0024H190.98V57.8247H198.068C199.233 57.8247 200.233 58.0133 201.07 58.3907C201.923 58.768 202.563 59.2931 202.99 59.9657C203.433 60.6384 203.654 61.4013 203.654 62.2545C203.654 63.2553 203.383 64.092 202.842 64.7647C202.317 65.4374 201.611 65.9131 200.726 66.1921ZM194.425 64.9123H197.575C198.396 64.9123 199.027 64.7319 199.47 64.3709C199.913 63.9936 200.135 63.4604 200.135 62.7713C200.135 62.0822 199.913 61.549 199.47 61.1716C199.027 60.7943 198.396 60.6056 197.575 60.6056H194.425V64.9123ZM197.895 72.1969C198.732 72.1969 199.38 72 199.84 71.6063C200.315 71.2125 200.553 70.6547 200.553 69.9328C200.553 69.1945 200.307 68.6202 199.815 68.2101C199.323 67.7835 198.658 67.5702 197.822 67.5702H194.425V72.1969H197.895ZM212.848 75.2239C211.535 75.2239 210.354 74.9368 209.304 74.3626C208.254 73.7719 207.425 72.9434 206.818 71.877C206.228 70.8105 205.932 69.58 205.932 68.1855C205.932 66.7909 206.236 65.5604 206.843 64.494C207.466 63.4275 208.311 62.6072 209.378 62.033C210.444 61.4423 211.634 61.147 212.946 61.147C214.259 61.147 215.448 61.4423 216.515 62.033C217.581 62.6072 218.418 63.4275 219.025 64.494C219.648 65.5604 219.96 66.7909 219.96 68.1855C219.96 69.58 219.64 70.8105 219 71.877C218.377 72.9434 217.524 73.7719 216.441 74.3626C215.374 74.9368 214.177 75.2239 212.848 75.2239ZM212.848 72.2215C213.471 72.2215 214.054 72.0739 214.595 71.7785C215.153 71.4668 215.596 71.0074 215.924 70.4004C216.252 69.7933 216.416 69.055 216.416 68.1855C216.416 66.8893 216.072 65.8967 215.383 65.2077C214.71 64.5022 213.881 64.1494 212.897 64.1494C211.913 64.1494 211.084 64.5022 210.411 65.2077C209.755 65.8967 209.427 66.8893 209.427 68.1855C209.427 69.4816 209.747 70.4824 210.387 71.1879C211.043 71.877 211.863 72.2215 212.848 72.2215ZM228.542 75.2239C227.229 75.2239 226.048 74.9368 224.998 74.3626C223.948 73.7719 223.119 72.9434 222.512 71.877C221.921 70.8105 221.626 69.58 221.626 68.1855C221.626 66.7909 221.93 65.5604 222.537 64.494C223.16 63.4275 224.005 62.6072 225.072 62.033C226.138 61.4423 227.327 61.147 228.64 61.147C229.953 61.147 231.142 61.4423 232.208 62.033C233.275 62.6072 234.112 63.4275 234.719 64.494C235.342 65.5604 235.654 66.7909 235.654 68.1855C235.654 69.58 235.334 70.8105 234.694 71.877C234.071 72.9434 233.217 73.7719 232.135 74.3626C231.068 74.9368 229.87 75.2239 228.542 75.2239ZM228.542 72.2215C229.165 72.2215 229.747 72.0739 230.289 71.7785C230.847 71.4668 231.29 71.0074 231.618 70.4004C231.946 69.7933 232.11 69.055 232.11 68.1855C232.11 66.8893 231.765 65.8967 231.076 65.2077C230.404 64.5022 229.575 64.1494 228.591 64.1494C227.606 64.1494 226.778 64.5022 226.105 65.2077C225.449 65.8967 225.121 66.8893 225.121 68.1855C225.121 69.4816 225.441 70.4824 226.081 71.1879C226.737 71.877 227.557 72.2215 228.542 72.2215ZM246.253 75.0024L241.627 69.1945V75.0024H238.181V56.791H241.627V67.1519L246.204 61.3685H250.683L244.678 68.2101L250.732 75.0024H246.253Z" fill="#635D5D"/>
<path d="M308.471 260.021C307.399 260.021 306.53 260.893 306.53 261.967V266.835C306.53 267.909 307.399 268.781 308.471 268.781H313.327C314.4 268.781 315.27 267.909 315.27 266.835V261.967C315.27 260.893 314.4 260.021 313.327 260.021H308.471ZM312.841 262.85C312.965 262.85 313.096 262.891 313.191 262.987C313.38 263.177 313.38 263.48 313.191 263.671L311.37 265.496C310.812 266.055 309.957 265.972 309.518 265.313L309.033 264.584C308.885 264.361 308.946 264.048 309.17 263.899C309.393 263.75 309.704 263.812 309.852 264.036L310.338 264.766C310.436 264.914 310.562 264.921 310.687 264.796L312.493 262.987C312.587 262.892 312.718 262.85 312.841 262.85Z" fill="#F37A37"/>
<path d="M440.08 164.959L443.737 168.623L447.393 164.959" stroke="#33475B" stroke-width="0.442735" stroke-linecap="round"/>
</g>
</g>
</g>
<defs>
<filter id="filter0_d_353_20" x="0.830002" y="0.960002" width="521.34" height="392.34" filterUnits="userSpaceOnUse" color-interpolation-filters="sRGB">
<feFlood flood-opacity="0" result="BackgroundImageFix"/>
<feColorMatrix in="SourceAlpha" type="matrix" values="0 0 0 0 0 0 0 0 0 0 0 0 0 0 0 0 0 0 127 0" result="hardAlpha"/>
<feOffset dy="4.13"/>
<feGaussianBlur stdDeviation="19.585"/>
<feComposite in2="hardAlpha" operator="out"/>
<feColorMatrix type="matrix" values="0 0 0 0 0 0 0 0 0 0 0 0 0 0 0 0 0 0 0.25 0"/>
<feBlend mode="normal" in2="BackgroundImageFix" result="effect1_dropShadow_353_20"/>
<feBlend mode="normal" in="SourceGraphic" in2="effect1_dropShadow_353_20" result="shape"/>
</filter>
<filter id="filter1_d_353_20" x="5.83" y="0.960002" width="512.378" height="392.262" filterUnits="userSpaceOnUse" color-interpolation-filters="sRGB">
<feFlood flood-opacity="0" result="BackgroundImageFix"/>
<feColorMatrix in="SourceAlpha" type="matrix" values="0 0 0 0 0 0 0 0 0 0 0 0 0 0 0 0 0 0 127 0" result="hardAlpha"/>
<feOffset dy="4.13"/>
<feGaussianBlur stdDeviation="19.585"/>
<feComposite in2="hardAlpha" operator="out"/>
<feColorMatrix type="matrix" values="0 0 0 0 0 0 0 0 0 0 0 0 0 0 0 0 0 0 0.25 0"/>
<feBlend mode="normal" in2="BackgroundImageFix" result="effect1_dropShadow_353_20"/>
<feBlend mode="normal" in="SourceGraphic" in2="effect1_dropShadow_353_20" result="shape"/>
</filter>
<clipPath id="clip0_353_20">
<rect x="40" y="36" width="443" height="314" rx="8.89686" fill="white"/>
</clipPath>
</defs>
</svg>
