<svg width="55" height="55" viewBox="0 0 55 55" fill="none" xmlns="http://www.w3.org/2000/svg">
<path fill-rule="evenodd" clip-rule="evenodd" d="M41.25 21.1343C41.25 29.0095 32.6562 38.9583 27.5 38.9583C22.3437 38.9583 13.75 29.0095 13.75 21.1343C13.75 13.2591 19.906 6.875 27.5 6.875C35.0939 6.875 41.25 13.2591 41.25 21.1343ZM32.0833 20.625C32.0833 23.1564 30.0313 25.2083 27.5 25.2083C24.9686 25.2083 22.9166 23.1564 22.9166 20.625C22.9166 18.0937 24.9686 16.0417 27.5 16.0417C30.0313 16.0417 32.0833 18.0937 32.0833 20.625ZM13.3683 36.6667H16.432C20.0232 40.7147 24.2682 43.5417 27.5002 43.5417C30.7324 43.5417 34.9772 40.7147 38.5685 36.6667H41.6322C43.4825 36.6667 45.1513 37.7793 45.8629 39.4873L47.7727 44.0706C49.0306 47.0894 46.8125 50.4167 43.5419 50.4167H11.4586C8.18801 50.4167 5.96991 47.0894 7.22781 44.0706L9.13754 39.4873C9.84917 37.7793 11.518 36.6667 13.3683 36.6667Z" fill="#ED5C18"/>
</svg>
