<svg width="55" height="55" viewBox="0 0 55 55" fill="none" xmlns="http://www.w3.org/2000/svg">
<path d="M27.5 4.58337C14.873 4.58337 4.58337 14.873 4.58337 27.5C4.58337 40.1271 14.873 50.4167 27.5 50.4167C40.1271 50.4167 50.4167 40.1271 50.4167 27.5C50.4167 14.873 40.1271 4.58337 27.5 4.58337ZM27.0417 15.5146C31.1209 15.5146 34.4209 18.8146 34.4209 22.8938C34.4209 26.95 31.1209 30.273 27.0417 30.273C22.9855 30.273 19.6855 26.95 19.6855 22.8938C19.6855 18.8146 22.9855 15.5146 27.0417 15.5146ZM41.0896 41.4334C40.0584 42.4646 38.8896 43.3584 37.6521 44.1146C34.6959 45.948 31.2125 46.9792 27.5 46.9792C23.7875 46.9792 20.3042 45.948 17.348 44.1146C16.1105 43.3584 14.9417 42.4646 13.9105 41.4334V40.998C13.9105 36.3 17.7375 32.473 22.4125 32.473H32.5875C37.2625 32.473 41.0896 36.3 41.0896 40.998V41.4334Z" fill="#ED5C18"/>
</svg>
