<svg width="24" height="25" viewBox="0 0 24 25" fill="none" xmlns="http://www.w3.org/2000/svg">
<path fill-rule="evenodd" clip-rule="evenodd" d="M18.9852 17.5295C18.696 18.342 17.5464 19.0142 16.6296 19.2108C16.002 19.343 15.1836 19.4477 12.426 18.3134C9.3288 17.0398 5.028 12.5031 5.028 9.48403C5.028 7.9471 5.9208 6.15744 7.482 6.15744C8.2332 6.15744 8.3988 6.17198 8.646 6.76053C8.9352 7.45394 9.64081 9.16234 9.7248 9.33747C10.0716 10.0559 9.37199 10.4765 8.86439 11.102C8.70239 11.2902 8.51881 11.4938 8.72401 11.844C8.92801 12.1872 9.6336 13.3286 10.6704 14.2448C12.0096 15.429 13.0956 15.8071 13.4844 15.968C13.7736 16.0871 14.1192 16.0594 14.3304 15.8354C14.598 15.5482 14.9304 15.0719 15.2688 14.6024C15.5076 14.2665 15.8112 14.2245 16.1292 14.3436C16.344 14.4175 19.074 15.6759 19.1892 15.8772C19.2744 16.0238 19.2744 16.7169 18.9852 17.5295ZM12.0024 0.710449H11.9964C5.38079 0.710449 0 6.05276 0 12.621C0 15.2255 0.846008 17.6417 2.28481 19.6016L0.789606 24.0274L5.40121 22.5647C7.29841 23.811 9.5628 24.5316 12.0024 24.5316C18.618 24.5316 24 19.1893 24 12.621C24 6.05276 18.618 0.710449 12.0024 0.710449Z" fill="#7A8897"/>
</svg>
