<svg width="904" height="653" viewBox="0 0 904 653" fill="none" xmlns="http://www.w3.org/2000/svg">
<path d="M1 0.538818C1.72097 1.06102 2.39372 1.73375 3 2.53882" stroke="#AD4A4D" stroke-linecap="round" stroke-linejoin="round"/>
<path fill-rule="evenodd" clip-rule="evenodd" d="M582.479 628.984C577.121 628.984 572.736 624.641 572.736 619.241C572.736 617.496 573.183 615.872 573.995 614.451L572.046 612.502C571.437 612.705 570.747 612.868 570.057 612.868C566.768 612.868 564.089 610.229 564.048 606.941V584.531H567.58V582.988C567.58 582.095 567.093 581.283 566.322 580.837L547.769 570.403H540.543H537.458H530.8V584.531H534.048V606.941C534.007 608.889 533.033 610.594 531.571 611.65H534.494V629.066H531.531H524.345H521.463V611.69H524.304C522.843 610.635 521.869 608.889 521.828 606.981V584.572H525.238V570.444H508.512L489.96 580.877C489.188 581.324 488.701 582.136 488.701 583.029V584.572H492.233V606.981C492.152 610.269 489.513 612.908 486.225 612.908C485.535 612.908 484.844 612.786 484.235 612.543L482.287 614.491C483.099 615.912 483.545 617.536 483.545 619.282C483.545 624.641 479.201 629.025 473.802 629.025C468.443 629.025 464.059 624.681 464.059 619.282C464.059 613.923 468.403 609.539 473.802 609.539C475.67 609.539 477.456 610.066 478.917 611L480.663 609.255C480.379 608.564 480.176 607.793 480.176 606.981H480.135V584.572H483.505V583.029C483.505 580.268 485.007 577.751 487.402 576.371L506.523 565.573C506.929 565.37 507.335 565.248 507.781 565.248H517.403V552.135H525.197V506.504H514.642L513.181 502.364H507.781L499.743 497.167H511.354L509.365 491.565H546.511L544.521 497.167H556.092L548.053 502.364H542.735L541.274 506.504H530.759V552.135H538.554V565.248H540.543H548.459C548.906 565.248 549.352 565.37 549.718 565.573L568.839 576.371C571.234 577.711 572.736 580.268 572.736 583.029V584.572H576.106V606.981H576.065C576.065 607.793 575.862 608.564 575.578 609.255L577.324 611C578.826 610.066 580.571 609.539 582.439 609.539C587.797 609.539 592.182 613.883 592.182 619.282C592.223 624.6 587.879 628.984 582.479 628.984Z" fill="#2A1C28"/>
<path fill-rule="evenodd" clip-rule="evenodd" d="M535.874 402.699C525.36 401.562 507.822 400.832 487.767 404.769C483.18 405.663 480.095 410.047 480.744 414.675C482.774 429.209 480.825 445.65 477.293 459.494C472.909 476.382 473.031 504.515 506.848 500.415C540.502 496.315 555.28 504.15 555.28 504.15C579.922 502.039 581.343 501.633 596.079 501.227C584.956 488.886 563.033 483.608 556.944 478.168C551.179 473.012 553.169 468.506 547.404 414.31C546.754 408.22 541.964 403.349 535.874 402.699Z" fill="#573652"/>
<path fill-rule="evenodd" clip-rule="evenodd" d="M597.297 433.227C597.297 439.804 591.979 445.122 585.402 445.122C580.937 445.122 576.999 442.646 575.01 438.951L548.784 396.203C546.917 393.93 545.78 391.007 545.78 387.8C545.78 380.492 551.707 374.525 559.055 374.525C565.104 374.525 570.179 378.544 571.762 384.065L594.577 425.555C596.242 427.666 597.297 430.304 597.297 433.227Z" fill="#A8B3BC"/>
<path fill-rule="evenodd" clip-rule="evenodd" d="M603.833 415.933H603.955L596.851 436.394C595.47 441.428 590.883 445.122 585.402 445.122C578.826 445.122 573.508 439.804 573.508 433.227C573.508 431.075 574.076 429.086 575.091 427.341L579.922 415.933C579.881 415.852 579.881 415.77 579.881 415.689C580.125 414.634 585.727 413.741 592.385 413.741C599.043 413.741 604.239 414.593 603.955 415.689C603.955 415.77 603.914 415.852 603.833 415.933Z" fill="#D3D8DC"/>
<path d="M574.969 427.544L579.922 415.893" stroke="#A8B3BC" stroke-width="1.0275" stroke-miterlimit="10" stroke-linecap="round" stroke-linejoin="round"/>
<path fill-rule="evenodd" clip-rule="evenodd" d="M592.385 413.781C599.043 413.781 604.239 414.634 603.955 415.73C603.712 416.786 598.109 417.679 591.451 417.679C584.793 417.679 579.597 416.826 579.881 415.73C580.125 414.634 585.727 413.781 592.385 413.781Z" fill="#A8B3BC"/>
<path fill-rule="evenodd" clip-rule="evenodd" d="M605.457 405.743L602.209 414.959H602.128C602.128 414.999 602.169 415.04 602.128 415.121C601.925 416.014 597.135 416.745 591.492 416.745C585.849 416.745 581.424 416.014 581.667 415.121C581.667 415.081 581.708 414.999 581.749 414.959L584.996 405.784H605.457V405.743Z" fill="#ECE6E8"/>
<path fill-rule="evenodd" clip-rule="evenodd" d="M595.511 404.038C601.154 404.038 605.579 404.769 605.335 405.662C605.132 406.555 600.342 407.286 594.699 407.286C589.056 407.286 584.631 406.555 584.875 405.662C585.118 404.769 589.868 404.038 595.511 404.038Z" fill="#A8B3BC"/>
<path fill-rule="evenodd" clip-rule="evenodd" d="M625.756 364.335C625.106 363.645 624.01 363.645 623.32 364.294C621.452 366.121 619.544 367.907 617.636 369.734L618.895 362.021C619.016 361.168 618.489 360.316 617.636 360.072C616.702 359.829 615.769 360.397 615.525 361.29L612.643 372.576L609.842 366.121C609.517 365.35 608.624 364.903 607.771 365.147C606.837 365.431 606.35 366.365 606.594 367.258L609.314 376.392L604.361 379.315C604.361 379.274 604.402 379.274 604.402 379.234C605.295 377.448 605.985 375.702 606.634 373.835C606.878 373.144 606.634 372.332 605.985 371.886C605.214 371.318 604.117 371.521 603.549 372.292L603.509 372.373C602.494 373.794 601.357 375.215 600.22 376.473C599.652 377.123 599.043 377.691 598.434 378.219C598.15 378.503 597.825 378.706 597.541 378.95C597.216 379.153 597.013 379.274 596.526 379.64C594.74 380.939 593.075 382.603 591.776 384.755C590.477 386.907 589.706 389.708 589.949 392.631L590.071 393.849V393.889L586.62 404.688C586.539 404.769 586.458 404.81 586.458 404.891C586.255 405.662 590.071 406.312 594.943 406.312C599.814 406.312 603.915 405.662 604.117 404.891C604.158 404.769 604.077 404.647 603.915 404.526L606.026 391.25C607.203 389.708 608.34 388.125 609.436 386.501C609.923 385.932 610.369 385.405 610.857 384.836C612.562 382.806 614.267 380.777 615.931 378.747C619.26 374.646 622.589 370.587 625.877 366.446C626.405 365.918 626.364 364.944 625.756 364.335Z" fill="#EB967C"/>
<path d="M593.116 389.505C593.116 389.505 593.075 384.958 598.475 382.36C602.331 380.492 609.354 376.798 609.354 376.798" stroke="black" stroke-width="1.0275" stroke-miterlimit="10" stroke-linecap="round" stroke-linejoin="round"/>
<path d="M612.602 372.86C613.739 368.435 615.566 361.331 615.566 361.331C615.809 360.397 616.743 359.869 617.677 360.113C618.529 360.316 619.098 361.168 618.935 362.061L616.418 377.326C616.378 377.529 616.296 377.732 616.215 377.935L616.134 378.097C615.119 379.64 613.374 381.588 611.709 383.253" stroke="black" stroke-width="1.0275" stroke-miterlimit="10" stroke-linecap="round" stroke-linejoin="round"/>
<path d="M609.395 377.082L606.594 367.339C606.31 366.446 606.837 365.472 607.771 365.228C608.624 364.984 609.517 365.39 609.842 366.202L614.348 376.555C614.591 377.123 614.551 377.732 614.307 378.26L614.185 378.544C613.861 379.275 613.536 379.843 613.211 380.452C612.886 381.061 612.561 381.67 612.196 382.279C611.506 383.456 610.775 384.633 610.044 385.811" stroke="black" stroke-width="1.0275" stroke-miterlimit="10" stroke-linecap="round" stroke-linejoin="round"/>
<path fill-rule="evenodd" clip-rule="evenodd" d="M559.583 401.359C557.756 414.066 548.906 429.33 517.078 429.98C510.096 430.101 511.476 413.822 513.627 400.994C507.619 399.857 502.951 394.742 502.707 388.449C502.423 381.101 508.187 374.89 515.657 374.606C516.144 374.606 516.632 374.606 517.119 374.646C517.119 374.646 544.724 374.809 557.837 374.809C565.266 374.525 571.559 380.249 571.843 387.597C572.127 394.661 566.687 400.709 559.583 401.359Z" fill="#D3D8DC"/>
<path fill-rule="evenodd" clip-rule="evenodd" d="M563.927 391.332L569.164 401.806C571.518 406.515 571.762 411.996 569.894 416.948L557.594 450.075L515.779 450.197C515.738 450.197 494.06 368.111 563.927 391.332Z" fill="#D3D8DC"/>
<path d="M563.927 391.332L569.164 401.806C571.518 406.515 571.762 411.995 569.894 416.948L557.593 450.075" stroke="#D3D8DC" stroke-width="1.0275" stroke-miterlimit="10" stroke-linecap="round" stroke-linejoin="round"/>
<path fill-rule="evenodd" clip-rule="evenodd" d="M593.562 491.281C583.251 509.752 563.236 521.363 554.995 512.553V512.634L543.303 500.577L512.206 494.772C497.795 493.189 491.177 479.102 498.931 466.435L515.779 440.372C515.657 440.291 515.576 440.21 515.576 440.129C515.576 438.992 526.659 438.099 540.34 438.099C554.021 438.099 565.104 438.992 565.104 440.129V440.169H565.226L561.775 457.829L563.318 457.951C566.931 455.474 571.234 454.419 575.497 455.312C577.689 455.758 579.637 456.733 581.383 458.032C586.945 457.626 592.06 459.778 594.009 462.66C599.936 471.226 599.489 480.685 593.562 491.281Z" fill="#ED5C18"/>
<path fill-rule="evenodd" clip-rule="evenodd" d="M595.47 463.634C595.064 463.066 594.536 462.497 593.887 461.97C591.816 459.818 589.218 458.235 586.214 457.626C577.202 455.718 568.027 462.741 565.794 473.377C565.55 474.514 565.104 478.005 565.023 478.695C563.033 493.513 550.448 500.009 555.645 510.442C561.45 522.053 584.144 511.173 594.983 491.727C600.788 481.375 601.235 472.078 595.47 463.634Z" fill="#CC2818"/>
<path fill-rule="evenodd" clip-rule="evenodd" d="M491.867 496.112C491.867 496.112 517.078 484.095 527.674 486.977C542.573 491.078 543.506 500.658 543.506 500.658C543.506 500.658 512.531 495.949 491.867 496.112Z" fill="#573652"/>
<path fill-rule="evenodd" clip-rule="evenodd" d="M528.486 392.184C527.958 394.295 516.875 439.561 516.875 439.561H516.794C516.307 445.528 511.354 450.238 505.265 450.238C498.85 450.238 493.695 445.041 493.695 438.668C493.695 437.815 493.776 437.003 493.938 436.232L503.032 384.39L503.154 384.43C504.696 378.788 509.812 374.647 515.942 374.647C523.249 374.647 529.217 380.574 529.217 387.922C529.217 389.343 528.933 390.804 528.486 392.184Z" fill="#D3D8DC"/>
<path d="M525.482 404.404L519.676 428.112" stroke="#A8B3BC" stroke-width="1.0275" stroke-miterlimit="10" stroke-linecap="round" stroke-linejoin="round"/>
<path fill-rule="evenodd" clip-rule="evenodd" d="M522.193 450.278H522.153L505.914 450.156C505.711 450.156 505.468 450.197 505.224 450.197C498.81 450.197 493.654 445.001 493.654 438.627C493.654 432.253 498.85 427.057 505.224 427.057C512.369 427.463 518.296 427.625 522.234 427.706C525.157 427.625 527.552 432.578 527.512 438.83C527.512 445.041 525.116 450.197 522.193 450.278Z" fill="#D3D8DC"/>
<path d="M499.987 428.275C501.57 427.463 503.356 427.016 505.224 427.016C512.369 427.422 518.296 427.584 522.234 427.666" stroke="#A8B3BC" stroke-width="1.0275" stroke-miterlimit="10" stroke-linecap="round" stroke-linejoin="round"/>
<path fill-rule="evenodd" clip-rule="evenodd" d="M522.234 427.666C525.157 427.585 527.552 432.537 527.511 438.789C527.511 445.041 525.116 450.156 522.193 450.238C519.27 450.319 516.875 445.366 516.916 439.114C516.916 432.903 519.311 427.788 522.234 427.666Z" fill="#A8B3BC"/>
<path fill-rule="evenodd" clip-rule="evenodd" d="M531.49 428.884L530.759 449.75H523.046V449.669C522.965 449.669 522.883 449.71 522.802 449.71C520.164 449.791 518.053 445.082 518.053 439.195C518.053 433.309 520.204 428.478 522.843 428.356C522.924 428.356 522.965 428.356 523.046 428.356V428.275L531.49 428.884Z" fill="#ECE6E8"/>
<path fill-rule="evenodd" clip-rule="evenodd" d="M531.652 428.721C534.21 428.64 536.28 433.187 536.24 438.871C536.24 444.554 534.169 449.263 531.612 449.345C529.054 449.426 526.984 444.879 527.024 439.195C527.024 433.512 529.095 428.803 531.652 428.721Z" fill="#A8B3BC"/>
<path fill-rule="evenodd" clip-rule="evenodd" d="M574.279 430.711L571.518 435.217L572.046 440.738C571.762 440.9 563.44 447.396 552.478 447.355C546.714 447.355 544.765 444.838 544.765 444.838C544.765 444.838 540.015 446.178 532.708 447.721C532.424 447.883 532.14 447.964 531.855 447.964C529.663 448.045 527.877 444.107 527.917 439.236C527.917 434.324 529.704 430.305 531.896 430.223C532.14 430.223 532.383 430.264 532.627 430.345C556.822 430.02 574.279 430.711 574.279 430.711Z" fill="#EB967C"/>
<path d="M569.732 432.578C574.401 430.589 576.471 428.518 579.881 429.046C583.048 429.533 584.956 433.39 591.898 443.295C593.237 445.447 590.355 447.558 587.879 445.041C586.945 445.975 585.078 446.137 584.428 445.406C583.332 444.148 576.918 438.749 575.781 437.49C574.807 436.394 573.832 435.704 572.127 436.11C570.788 436.435 572.777 438.099 571.356 438.708H571.315C569.529 439.479 567.499 438.708 566.768 436.962C566.038 435.257 564.576 435.095 566.362 434.324C566.525 434.242 568.595 435.46 569.732 432.578Z" fill="#EB967C"/>
<path d="M559.542 435.785C563.805 434.08 566.972 432.659 568.271 432.903C570.422 433.43 571.437 434.242 571.843 434.851C572.899 436.272 574.847 440.454 575.822 441.915C576.796 443.336 577.73 444.797 578.663 446.259C579.232 447.152 578.948 448.329 578.054 448.898C577.242 449.425 576.146 449.263 575.537 448.573C574.441 447.314 573.264 446.015 572.127 444.757C570.991 443.498 569.813 442.28 568.677 441.103C568.392 440.819 568.108 440.535 567.824 440.251L567.418 439.885L567.215 439.723L567.134 439.642L567.093 439.601C567.093 439.601 567.053 439.601 567.093 439.601L567.174 439.682C567.662 440.088 567.865 440.048 567.905 440.088C567.946 440.129 567.865 440.129 567.783 440.129C567.58 440.169 567.256 440.21 566.931 440.291C565.591 440.616 563.927 441.225 562.506 441.834H562.465C560.679 442.605 558.649 441.834 557.918 440.088C557.188 438.383 558.04 436.353 559.826 435.582C559.948 435.582 559.38 435.826 559.542 435.785Z" fill="#EB967C"/>
<path d="M575.131 430.995C577.364 431.198 578.46 431.888 578.988 432.456C581.261 434.77 587.148 442.443 587.391 442.727C588.082 443.498 587.96 444.716 587.148 445.406C586.377 446.056 585.321 446.056 584.59 445.447C583.454 444.473 578.663 440.048 576.633 438.302C576.39 438.058 575.091 436.719 572.898 436.435" stroke="black" stroke-width="1.0275" stroke-miterlimit="10" stroke-linecap="round" stroke-linejoin="round"/>
<path d="M568.271 432.903C570.422 433.431 571.437 434.242 571.843 434.851C572.899 436.272 574.847 440.454 575.822 441.915C576.796 443.336 577.73 444.798 578.663 446.259C579.232 447.152 578.948 448.33 578.054 448.898C577.243 449.426 576.146 449.263 575.537 448.573C574.441 447.315 573.264 446.015 572.127 444.757C570.991 443.499 569.813 442.281 568.677 441.103" stroke="black" stroke-width="1.0275" stroke-miterlimit="10" stroke-linecap="round" stroke-linejoin="round"/>
<path fill-rule="evenodd" clip-rule="evenodd" d="M556.985 327.879C594.293 360.844 563.683 356.743 563.683 356.743C565.388 355.12 568.108 350.979 563.724 340.545C569.488 363.442 549.637 357.352 549.637 357.352L550.083 353.333C552.6 352.927 538.716 348.827 538.716 348.827C539.893 351.1 539.163 355.972 540.259 358.245C540.259 358.245 528.648 360.762 516.388 357.028C495.603 350.654 519.595 335.593 519.514 333.238C519.352 328.813 519.027 323.17 522.031 318.907C511.679 315.822 517.444 306.16 521.381 307.906C521.381 307.906 521.138 302.75 524.264 300.355C525.806 298.893 527.877 298 530.191 298C532.87 298 535.225 299.218 536.808 301.126C539.569 304.049 539.163 309.286 538.31 313.102C566.119 316.147 566.038 324.144 559.826 328.772C558.365 330.193 557.066 327.839 556.985 327.879Z" fill="#4F2827"/>
<path fill-rule="evenodd" clip-rule="evenodd" d="M540.908 335.674C546.673 335.674 545.78 338.597 545.78 347.284C545.78 348.543 545.78 349.801 545.78 351.019C542.532 349.882 538.716 348.786 538.716 348.786C539.893 351.06 539.163 355.931 540.259 358.205C540.259 358.205 534.291 359.504 526.415 358.854C525.725 357.921 525.238 356.824 525.035 355.485C523.736 347.771 535.103 335.674 540.908 335.674Z" fill="#351015"/>
<path fill-rule="evenodd" clip-rule="evenodd" d="M539.853 384.755L545.699 372.414L554.305 383.497L550.976 402.861L539.853 384.755Z" fill="#EBE6E9"/>
<path fill-rule="evenodd" clip-rule="evenodd" d="M527.511 374.85C527.268 374.89 531.043 374.241 528.648 375.986C526.415 377.57 524.223 378.706 531.328 383.862C545.902 387.069 548.946 381.954 548.946 381.954C548.946 381.954 553.574 384.918 557.228 383.456C560.841 381.995 554.589 377.285 548.459 376.311C539.041 374.768 527.511 374.85 527.511 374.85Z" fill="#A8B3BC"/>
<path fill-rule="evenodd" clip-rule="evenodd" d="M527.511 367.948C527.268 368.029 523.817 371.439 521.422 374.362C519.189 377.082 520.732 380.858 530.394 383.578C544.075 387.434 547.526 380.492 548.703 378.503C548.703 378.503 554.224 385.486 557.837 383.009C561.45 380.533 554.468 372.129 548.378 370.424C539.041 367.786 527.511 367.948 527.511 367.948Z" fill="#EBE6E9"/>
<path fill-rule="evenodd" clip-rule="evenodd" d="M539.569 367.664C546.267 368.801 551.423 371.155 551.139 372.901C550.854 374.647 545.171 375.134 538.473 373.957C531.774 372.82 526.618 370.465 526.902 368.72C527.227 366.974 532.911 366.487 539.569 367.664Z" fill="#C77157"/>
<path fill-rule="evenodd" clip-rule="evenodd" d="M552.438 355.891L549.677 371.805C549.718 371.927 549.718 372.048 549.718 372.17C549.474 373.713 544.481 374.119 538.635 373.104C532.789 372.089 528.242 370.059 528.486 368.517C528.526 368.395 528.567 368.273 528.648 368.192L534.819 346.351L552.438 355.891Z" fill="#EB967C"/>
<path fill-rule="evenodd" clip-rule="evenodd" d="M550.692 365.918C541.314 362.305 537.782 349.03 537.782 349.03L540.705 349.558L552.438 355.931L550.692 365.918Z" fill="#C77157"/>
<path fill-rule="evenodd" clip-rule="evenodd" d="M534.575 347.69C532.302 348.665 528.689 346.878 527.877 345.782C526.456 343.834 526.456 340.302 528.526 338.84C530.191 337.663 533.195 338.556 534.737 340.058C534.819 340.139 534.981 340.302 535.022 340.383C539.934 335.592 538.919 330.234 538.919 330.234C546.267 329.422 545.617 320.896 545.617 320.856C545.617 320.856 554.467 325.646 559.542 326.052C560.354 329.056 560.192 330.843 561.288 335.552C562.952 342.697 561.978 355.647 553.493 358.327C548.581 359.829 540.137 358.611 534.575 347.69ZM534.778 340.058C534.738 340.017 534.697 340.017 534.778 340.058V340.058Z" fill="#EB967C"/>
<path d="M531.246 342.737C530.272 343.387 529.947 344.686 530.556 345.62C531.165 346.553 532.424 346.716 533.398 346.066" stroke="#2C1C28" stroke-width="1.0275" stroke-miterlimit="10" stroke-linecap="round" stroke-linejoin="round"/>
<path d="M554.549 329.259C554.549 329.259 558.04 327.92 560.273 329.462" stroke="black" stroke-width="1.0275" stroke-miterlimit="10" stroke-linecap="round" stroke-linejoin="round"/>
<path d="M556.498 333.644L558.446 332.426" stroke="#2C1C28" stroke-width="1.0275" stroke-miterlimit="10" stroke-linecap="round" stroke-linejoin="round"/>
<path d="M544.4 334.699L546.592 333.644" stroke="#2C1C28" stroke-width="1.0275" stroke-miterlimit="10" stroke-linecap="round" stroke-linejoin="round"/>
<path d="M539.731 332.061C539.65 332.548 542.086 328.854 548.703 329.747" stroke="black" stroke-width="1.0275" stroke-miterlimit="10" stroke-linecap="round" stroke-linejoin="round"/>
<path d="M552.6 333.969C552.6 333.969 553.656 336.283 555.239 338.678C556.944 341.236 556.457 343.793 552.56 343.225" stroke="#2C1C28" stroke-width="1.0275" stroke-miterlimit="10" stroke-linecap="round" stroke-linejoin="round"/>
<path d="M534.048 344.037L529.42 341.682" stroke="#2C1C28" stroke-width="1.0275" stroke-miterlimit="10" stroke-linecap="round" stroke-linejoin="round"/>
<path fill-rule="evenodd" clip-rule="evenodd" d="M544.237 334.577C544.846 334.456 545.455 335.227 545.536 336.242C545.617 337.257 545.212 338.191 544.562 338.312C543.912 338.434 543.344 337.663 543.263 336.648C543.182 335.592 543.628 334.699 544.237 334.577Z" fill="#2C1C28"/>
<path fill-rule="evenodd" clip-rule="evenodd" d="M556.741 333.157C557.35 333.035 557.959 333.806 558.04 334.821C558.121 335.836 557.715 336.77 557.066 336.892C556.457 337.013 555.848 336.242 555.767 335.227C555.686 334.172 556.132 333.238 556.741 333.157Z" fill="#2C1C28"/>
<path fill-rule="evenodd" clip-rule="evenodd" d="M551.504 345.133C553.534 345.174 555.442 345.092 557.188 344.971C556.254 348.381 554.021 350.776 551.464 350.735C548.865 350.695 546.714 348.259 545.861 344.849C547.566 345.011 549.474 345.133 551.504 345.133Z" fill="#2C1C28"/>
<path fill-rule="evenodd" clip-rule="evenodd" d="M542.41 324.144C524.994 346.838 528.12 365.066 544.278 358.002C536.849 347.934 541.558 328.407 542.41 324.144Z" fill="#4F2827"/>
<path fill-rule="evenodd" clip-rule="evenodd" d="M565.023 330.234L565.104 331.655L564.13 331.817C563.927 332.385 563.764 333.035 563.764 333.684C563.358 333.075 562.709 332.06 561.004 331.289L557.878 330.396C557.797 330.396 557.715 330.355 557.634 330.355H557.715H557.675L565.023 330.234Z" fill="black"/>
<path d="M552.803 334.415C553.29 332.466 555.401 330.924 558 330.761C561.044 330.599 563.561 332.345 563.642 334.74C563.724 337.094 561.369 339.165 558.324 339.368C557.228 339.449 556.173 339.246 555.28 338.84C555.239 338.8 555.239 338.759 555.198 338.718" stroke="#2C1C28" stroke-width="1.0275" stroke-miterlimit="10" stroke-linecap="round" stroke-linejoin="round"/>
<path fill-rule="evenodd" clip-rule="evenodd" d="M538.594 332.101L538.513 333.522L539.488 333.563C539.69 334.09 539.853 334.699 539.853 335.389C540.259 334.699 540.908 333.603 542.613 332.588L545.739 331.289C545.821 331.249 545.902 331.249 545.983 331.208H545.902H545.942L538.594 332.101Z" fill="black"/>
<path fill-rule="evenodd" clip-rule="evenodd" d="M545.618 331.614C542.573 331.858 540.056 334.009 539.975 336.364C539.894 338.759 542.248 340.505 545.293 340.22C548.338 339.977 550.855 337.825 550.936 335.471C551.017 333.116 548.622 331.37 545.618 331.614Z" stroke="#2C1C28" stroke-width="1.0275" stroke-miterlimit="10" stroke-linecap="round" stroke-linejoin="round"/>
<path fill-rule="evenodd" clip-rule="evenodd" d="M550.124 347.731C548.865 347.691 547.769 347.569 546.836 347.406C546.43 346.635 546.064 345.783 545.861 344.849C547.566 345.011 549.515 345.133 551.545 345.174C553.006 345.174 554.386 345.174 555.726 345.092C555.077 346.513 552.357 347.812 550.124 347.731Z" fill="#EBE6E9"/>
<path fill-rule="evenodd" clip-rule="evenodd" d="M620.803 401.846H666.474L631.764 449.872L586.742 449.304L620.803 401.846Z" fill="#573652"/>
<path fill-rule="evenodd" clip-rule="evenodd" d="M552.519 447.477H631.845V449.994H552.519V447.477Z" fill="black"/>
<path fill-rule="evenodd" clip-rule="evenodd" d="M633.347 419.749C634.443 419.587 634.281 421.251 633.022 423.443C631.764 425.636 629.856 427.544 628.76 427.666C627.664 427.828 627.826 426.163 629.084 423.971C630.384 421.82 632.251 419.912 633.347 419.749Z" fill="#555FC1"/>
<path fill-rule="evenodd" clip-rule="evenodd" d="M497.226 458.803H485.088L441 629.674H448.307L497.226 458.803Z" fill="#808AE9"/>
<path fill-rule="evenodd" clip-rule="evenodd" d="M458.66 449.629H689.005V458.6H458.66V449.629Z" fill="#555FC1"/>
<path fill-rule="evenodd" clip-rule="evenodd" d="M564.333 630.081C557.431 629.756 552.154 625.25 549.921 622.286C548.622 620.54 548.256 617.861 549.068 614.816C550.002 611.366 551.26 608.646 550.733 607.915C550.002 606.859 554.386 601.663 556.7 596.264C561.694 584.572 557.918 597.685 566.241 599.836C576.917 619.201 575.862 619.363 575.862 619.363C576.187 623.626 570.422 630.365 564.333 630.081Z" fill="#2C1C28"/>
<path fill-rule="evenodd" clip-rule="evenodd" d="M563.845 627.239C556.944 626.914 551.666 622.408 549.434 619.444C548.135 617.699 548.216 616.075 549.109 611.528C549.799 607.996 550.773 605.845 550.246 605.114C549.515 604.058 552.194 598.862 554.914 591.839C559.502 579.985 556.7 592.164 564.982 594.275C571.153 605.317 575.416 616.846 575.416 616.846C575.334 620.947 569.894 627.523 563.845 627.239Z" fill="#ED5C18"/>
<path fill-rule="evenodd" clip-rule="evenodd" d="M592.385 502.039C586.904 530.822 574.644 573.367 571.478 590.743C571.275 596.467 570.828 601.054 570.666 604.667C570.544 607.103 571.478 612.827 562.506 612.705C548.053 612.543 554.386 599.633 555.645 586.723C558.162 560.214 559.339 546.046 560.882 529.848C561.775 520.47 565.835 517.019 568.798 509.143C565.794 506.504 563.927 502.607 563.927 498.304C563.927 490.306 570.422 483.811 578.42 483.811C586.417 483.811 592.913 490.306 592.913 498.304C592.872 499.603 592.71 500.821 592.385 502.039Z" fill="#EB967C"/>
<path fill-rule="evenodd" clip-rule="evenodd" d="M592.872 498.304C592.872 499.603 592.71 500.821 592.385 501.998C590.599 511.417 588.082 522.297 585.362 533.298C565.348 523.149 587.879 491.281 571.924 485.272C573.873 484.339 576.024 483.77 578.338 483.77C579.678 483.77 580.977 483.973 582.236 484.298C586.133 487.708 589.746 492.336 592.831 497.451C592.872 497.776 592.872 498.02 592.872 498.304Z" fill="#C77157"/>
<path fill-rule="evenodd" clip-rule="evenodd" d="M609.192 577.102C608.177 575.641 608.177 562.365 606.675 558.671C597.216 535.003 590.517 527.655 583.778 512.838C579.232 502.851 582.439 497.695 579.394 486.571C573.426 484.907 569.001 479.426 569.001 472.89C569.001 465.055 575.375 458.682 583.251 458.682C588.812 458.682 593.643 461.889 595.998 466.557C596.079 466.517 596.12 466.476 596.201 466.395C605.904 494.041 619.503 537.236 625.512 554.206C632.251 561.513 643.943 570.607 643.943 570.607C643.943 570.607 629.003 583.963 609.192 577.102Z" fill="#EB967C"/>
<path fill-rule="evenodd" clip-rule="evenodd" d="M579.394 486.571C577.08 485.922 575.01 484.704 573.304 483.08C574.157 481.375 575.497 479.71 577.486 478.127C577.486 478.127 580.693 485.516 580.693 493.919C580.531 491.768 580.165 489.332 579.394 486.571Z" fill="#C77157"/>
<path fill-rule="evenodd" clip-rule="evenodd" d="M608.827 578.929L608.258 569.307C608.258 569.307 611.181 567.48 617.636 568.658C625.309 570.038 629.896 571.215 629.896 571.215C629.896 571.215 635.783 567.886 639.599 567.886L656.893 572.596C656.893 572.596 643.456 585.505 636.27 583.679C629.084 581.892 625.106 579.294 618.976 579.984C612.886 580.634 608.827 578.929 608.827 578.929Z" fill="#ED5C18"/>
<path fill-rule="evenodd" clip-rule="evenodd" d="M625.146 579.903C625.146 579.903 616.256 577.67 611.344 577.346C608.299 577.143 608.136 579.172 609.639 580.431C615.403 585.181 622.345 580.553 626.324 582.136C630.302 583.719 640.857 587.373 648.084 585.627C655.31 583.882 660.06 579.051 661.196 573.367C661.846 570.038 659.41 567.359 654.863 569.105C642.806 573.651 635.011 581.933 625.146 579.903Z" fill="#2C1C28"/>
<path fill-rule="evenodd" clip-rule="evenodd" d="M687.301 595.118L691.158 621.041H691.218C691.906 622.057 699.739 623.044 709.307 623.313C719.354 623.582 727.486 622.954 727.486 621.878C727.486 621.818 727.457 621.758 727.397 621.699H727.546L731.164 596.553C731.254 596.463 731.314 596.373 731.314 596.284C731.344 594.998 721.477 593.682 709.337 593.354C697.168 593.025 687.301 593.802 687.271 595.088C687.271 595.118 687.271 595.118 687.271 595.148L687.301 595.118Z" fill="#D3D8DC"/>
<path fill-rule="evenodd" clip-rule="evenodd" d="M710.623 590.573C699.679 590.274 689.513 594.4 689.513 595.566C689.484 596.732 698.364 597.898 709.307 598.197C720.251 598.496 729.161 597.808 729.161 596.642C729.191 595.476 721.566 590.872 710.623 590.573Z" fill="#2C1C28"/>
<path fill-rule="evenodd" clip-rule="evenodd" d="M718.367 587.284C718.247 586.985 718.068 586.447 717.859 585.729C717.141 586.985 717.829 587.433 718.247 587.583C718.277 587.463 718.307 587.373 718.367 587.284ZM733.347 556.696C733.347 556.696 713.882 569.434 732.988 543.181C745.755 525.63 741.36 515.255 738.011 516.87C737.294 517.228 735.828 518.783 735.828 518.783C716.782 541.507 715.706 578.284 717.859 585.699C718.247 584.981 723.181 590.124 724.736 588.839C761.961 556.128 733.347 556.696 733.347 556.696Z" fill="#618419"/>
<path fill-rule="evenodd" clip-rule="evenodd" d="M762.081 565.278C762.081 565.278 777.329 582.171 747.101 579.839C722.732 577.955 725.483 563.244 762.081 565.278Z" fill="#618419"/>
<path d="M710.085 508.079C710.085 508.079 690.082 545.633 722.104 582.948" stroke="#618419" stroke-width="0.756766" stroke-miterlimit="10" stroke-linecap="round" stroke-linejoin="round"/>
<path fill-rule="evenodd" clip-rule="evenodd" d="M756.28 530.384C752.991 529.398 749.493 532.657 751.197 537.979C752.244 541.238 758.373 545.454 756.37 551.314C759.569 547.816 761.393 543.57 761.154 538.906C760.914 534.182 758.971 531.192 756.28 530.384Z" fill="#799821"/>
<path fill-rule="evenodd" clip-rule="evenodd" d="M760.645 524.673C758.612 524.524 755.981 526.497 756.519 530.743C756.878 533.613 757.835 547.397 756.16 551.852C763.217 544.647 765.459 535.407 765.459 532.208C765.459 528.022 762.888 524.853 760.645 524.673Z" fill="#799821"/>
<path fill-rule="evenodd" clip-rule="evenodd" d="M718.935 510.561C715.616 513.162 708.261 513.969 705.45 520.368C707.424 509.574 712.058 502.488 716.752 499.856C722.912 496.418 727.277 504.013 718.935 510.561Z" fill="#799821"/>
<path d="M764.532 532.507C764.712 546.441 737.114 588.928 686.553 570.241" stroke="#799821" stroke-width="0.756766" stroke-miterlimit="10" stroke-linecap="round" stroke-linejoin="round"/>
<path fill-rule="evenodd" clip-rule="evenodd" d="M714.241 592.247C723.659 586.536 719.354 556.098 716.184 548.235C711.968 537.74 703.895 545.065 703.895 545.065C703.895 545.065 693.61 521.564 684.46 527.335C679.258 530.624 692.085 557.264 692.085 557.264C685.776 553.527 661.168 563.155 714.241 592.247Z" fill="#799821"/>
<path fill-rule="evenodd" clip-rule="evenodd" d="M702.191 579.599C702.191 579.599 705.869 574.965 714.869 574.307C728.802 573.291 735.948 569.404 747.101 562.168C764.622 550.806 777.838 554.603 780.11 555.59C783.369 557.025 789.499 562.646 771.619 568.507C759.928 572.334 750.509 569.374 750.509 569.374C750.509 569.374 760.316 588.181 748.865 595.416C730.476 607.107 702.191 579.599 702.191 579.599Z" fill="#799821"/>
<path fill-rule="evenodd" clip-rule="evenodd" d="M730.148 542.733C730.148 542.733 743.184 536.873 742.586 549.55C742.167 558.43 718.606 576.639 718.606 576.639C706.796 586.177 712.955 583.965 724.227 585.729C737.353 587.792 713.852 592.397 713.852 592.397C713.852 592.397 703.268 569.732 721.716 535.138C724.915 529.158 732.659 519.202 738.31 516.75C726.859 525.57 730.148 542.733 730.148 542.733Z" fill="#799821"/>
<path fill-rule="evenodd" clip-rule="evenodd" d="M678.421 550.955C641.166 532.148 642.93 563.274 669.84 575.264C671.364 575.952 672.859 576.55 674.324 577.028C662.843 585.071 670.438 607.048 698.693 599.094C710.653 595.716 719.144 591.44 722.702 590.812C734.872 588.659 707.184 566.832 685.567 552.929C677.853 547.936 693.849 558.729 678.421 550.955Z" fill="#799821"/>
<path fill-rule="evenodd" clip-rule="evenodd" d="M699.41 554.723C702.58 562.257 687.331 563.214 682.457 565.427C677.584 567.639 671.783 562.855 669.002 555.171C663.172 538.995 687.839 527.275 699.41 554.723Z" fill="#799821"/>
<path fill-rule="evenodd" clip-rule="evenodd" d="M800.274 313.37C793.659 323.531 776.622 341.605 762.483 349.561C759.457 353.928 754.441 356.782 748.733 356.782C739.523 356.782 732.043 349.301 732.043 340.135C732.043 333.605 735.805 327.984 741.253 325.26C741.383 325.174 741.469 325.131 741.599 325.044C756.516 318.126 764.386 299.749 765.769 296.247C768.191 288.205 775.628 282.367 784.449 282.367C795.215 282.367 803.993 291.102 803.993 301.868C803.993 306.192 802.609 310.127 800.274 313.37Z" fill="#FCC670"/>
<path d="M766.418 342.815L777.314 302.473" stroke="#D8912B" stroke-width="1.09438" stroke-miterlimit="10" stroke-linecap="round" stroke-linejoin="round"/>
<path fill-rule="evenodd" clip-rule="evenodd" d="M882.514 579.98H860.246L864.051 600.173H886.319L882.514 579.98Z" fill="#D8D1D1"/>
<path fill-rule="evenodd" clip-rule="evenodd" d="M785.875 568.522L807.797 568.479L807.192 596.757L783.238 595.503L785.875 568.522Z" fill="#D8D1D1"/>
<path fill-rule="evenodd" clip-rule="evenodd" d="M811.905 614.874C811.905 614.874 806.457 615.782 801.441 616.085C797.161 616.344 797.247 621.576 790.07 624.3C784.751 626.289 776.406 626.332 766.159 624.905C756.473 623.565 752.927 621.619 752.279 620.841H752.192V620.711C752.149 620.625 752.149 620.538 752.192 620.495L752.063 615.825H755.262C756.257 615.306 757.597 615.004 759.413 615.047C767.412 614.269 781.422 598.357 783.497 588.671C785.616 587.158 790.07 589.709 794.134 591.741C798.501 597.968 803.257 594.206 803.257 594.206C803.257 594.206 805.074 591.871 807.365 589.882C812.035 596.281 813.073 613.015 811.905 614.874Z" fill="#2C1C28"/>
<path fill-rule="evenodd" clip-rule="evenodd" d="M903.485 619.285L903.399 623.306H903.312C903.312 623.349 903.312 623.392 903.312 623.392C900.113 624.689 897.086 625.857 884.979 626.333C874.948 626.765 868.505 625.252 864.873 622.917C860.852 620.366 864.138 614.874 860.073 614.182C857.609 613.75 857.047 612.064 857.047 612.064C857.609 603.935 858.474 594.206 861.63 590.444C861.63 593.168 863.749 595.417 863.749 595.417C863.749 595.417 864.787 596.411 868.505 590.055C873.305 587.98 878.623 587.634 883.639 590.142C887.444 604.497 893.54 612.193 898.599 617.425C899.853 617.425 900.804 618.204 901.54 619.241H903.485V619.285Z" fill="#2C1C28"/>
<path fill-rule="evenodd" clip-rule="evenodd" d="M811.776 610.507C811.776 610.507 806.327 611.415 801.312 611.718C797.031 611.977 797.118 617.209 789.94 619.933C784.622 621.922 776.276 621.965 766.029 620.538C753.619 618.809 751.284 616.128 752.236 616.085C752.236 616.085 752.149 610.507 759.327 610.68C767.326 609.902 781.465 594.465 783.541 584.78C785.659 583.267 792.88 585.385 794.048 587.374C798.415 593.601 802.522 591.871 802.522 591.871C802.522 591.871 806.933 590.833 807.408 585.558C812.121 591.958 812.943 608.648 811.776 610.507Z" fill="#814A2A"/>
<path fill-rule="evenodd" clip-rule="evenodd" d="M857.177 608.042C857.177 608.042 857.695 609.729 860.203 610.161C864.268 610.853 860.982 616.344 865.003 618.895C868.635 621.23 875.077 622.743 885.109 622.311C897.216 621.792 900.242 620.668 903.442 619.371C903.442 619.371 902.145 613.447 898.729 613.447C893.713 608.215 887.573 600.519 883.768 586.163C880.525 583.742 873.434 583.958 868.635 586.077C864.96 592.433 863.835 591.093 863.835 591.093C863.835 591.093 861.717 589.32 861.457 586.596C858.993 591.741 857.782 599.913 857.177 608.042Z" fill="#814A2A"/>
<path fill-rule="evenodd" clip-rule="evenodd" d="M883.379 582.315C883.379 582.402 883.379 582.358 883.379 582.445C883.292 583.569 876.158 584.477 867.554 584.477C859.381 584.477 852.766 583.656 852.247 582.618H852.204C852.204 582.618 840.183 567.182 838.54 537.044C834.908 469.981 808.23 401.707 808.23 401.707C808.23 401.707 805.635 384.411 850.474 394.875L883.379 582.185V582.315V582.315Z" fill="#5A74C7"/>
<path fill-rule="evenodd" clip-rule="evenodd" d="M813.462 385.881C792.837 385.881 776.19 389.513 776.32 394.01C776.449 398.507 793.269 402.139 813.894 402.139C834.519 402.139 851.166 398.507 851.036 394.01C850.95 389.513 834.13 385.881 813.462 385.881Z" fill="#5A74C7"/>
<path fill-rule="evenodd" clip-rule="evenodd" d="M849.955 367.764C849.955 367.764 839.319 360.975 822.369 360.716C788.47 360.24 773.985 367.591 773.985 367.591L774.72 393.923L850.518 387.438L849.955 367.764Z" fill="#7581F1"/>
<path fill-rule="evenodd" clip-rule="evenodd" d="M812.813 533.845C817.267 565.539 811.041 582.488 810.738 583.267C810.478 584.175 804.122 584.867 796.21 584.867C788.427 584.867 782.027 584.175 781.595 583.267H781.552L774.331 386.054C774.331 386.054 784.319 383.892 793.356 386.054C803.863 388.562 812.943 400.28 812.943 400.28C812.943 400.28 805.549 482.217 812.813 533.845Z" fill="#5A74C7"/>
<path d="M783.973 374.639C783.973 374.639 783.497 388.173 775.152 397.642" stroke="#375BB7" stroke-width="1.09438" stroke-miterlimit="10" stroke-linecap="round" stroke-linejoin="round"/>
<path d="M826.823 372.52C826.823 372.52 827.082 391.675 844.637 397.988" stroke="#555EC2" stroke-width="1.09438" stroke-miterlimit="10" stroke-linecap="round" stroke-linejoin="round"/>
<path d="M883.293 581.667L843.124 387.567C843.34 383.892 844.118 374.855 844.118 374.855" stroke="#375BB7" stroke-width="1.09438" stroke-miterlimit="10" stroke-linecap="round" stroke-linejoin="round"/>
<path d="M803.906 403.35C803.906 403.35 800.879 482.088 805.852 539.12C808.1 564.631 803.949 584.174 803.949 584.174" stroke="#375BB7" stroke-width="1.09438" stroke-miterlimit="10" stroke-linecap="round" stroke-linejoin="round"/>
<path fill-rule="evenodd" clip-rule="evenodd" d="M811.775 416.667L812.078 412.214L809.051 402.139L797.204 399.934C797.161 399.934 799.539 413.381 811.775 416.667Z" fill="#375BB7"/>
<path fill-rule="evenodd" clip-rule="evenodd" d="M772.601 319.38C772.515 353.365 763.175 369.277 773.682 378.833C773.509 384.8 773.25 394.01 773.25 394.01C773.25 394.01 773.25 394.702 773.725 395.264C774.288 395.869 774.763 396.129 774.763 396.129C774.763 396.129 774.46 393.621 774.72 393.578C777.444 392.972 785.746 391.978 811.819 392.41C831.536 392.713 842.908 394.615 850.561 395.48C850.907 397.166 850.993 397.685 850.993 397.685C850.993 397.685 854.323 397.037 854.496 395.783C854.496 395.783 854.669 384.497 854.625 381.211C863.014 375.979 863.446 361.365 854.452 321.671C861.025 318.212 865.565 311.121 865.565 302.992C865.565 291.62 856.831 282.41 845.934 282.021H845.415C845.372 282.021 845.329 282.021 845.242 282.021C845.199 282.021 845.113 282.021 845.07 282.021L782.416 282.151C772.428 283.448 764.818 292.442 764.818 303.079C764.818 309.478 768.104 315.531 772.601 319.38Z" fill="#FCC670"/>
<path d="M773.509 378.747C783.973 376.628 827.039 373.342 854.582 381.125" stroke="#D8912B" stroke-width="1.09438" stroke-miterlimit="10" stroke-linecap="round" stroke-linejoin="round"/>
<path d="M795.604 293.783L808.489 305.198L824.142 293.35" stroke="#D8912B" stroke-width="1.09438" stroke-miterlimit="10" stroke-linecap="round" stroke-linejoin="round"/>
<path fill-rule="evenodd" clip-rule="evenodd" d="M902.923 345.885C902.923 356.003 894.708 364.175 884.633 364.175C878.709 364.175 873.434 361.365 870.061 356.954L843.21 323.747C832.962 322.666 824.963 313.759 824.963 302.863C824.963 291.275 834.043 281.892 845.286 281.892C851.815 281.892 857.565 285.048 861.284 289.977L861.37 289.891L898.945 334.297L898.902 334.341C901.366 337.54 902.923 341.518 902.923 345.885Z" fill="#FCC670"/>
<path d="M837.589 316.396L864.354 352.328" stroke="#D8912B" stroke-width="1.09438" stroke-miterlimit="10" stroke-linecap="round" stroke-linejoin="round"/>
<path fill-rule="evenodd" clip-rule="evenodd" d="M902.923 345.885C902.923 356.003 894.708 364.175 884.633 364.175C882.99 364.175 881.39 363.959 879.877 363.527L849.999 358.598L853.112 331.184C853.112 331.184 859.252 331.833 863.36 332.308C869.197 319.899 888.222 327.12 890.297 328.417C897.561 330.795 902.923 337.713 902.923 345.885Z" fill="#FCC670"/>
<path fill-rule="evenodd" clip-rule="evenodd" d="M854.755 331.876C851.469 329.714 847.404 333.735 845.718 340.913C844.032 348.047 845.329 355.83 848.615 357.992C851.901 360.154 855.966 355.917 857.652 348.782C859.382 341.605 858.041 334.038 854.755 331.876Z" fill="#D8912B"/>
<path fill-rule="evenodd" clip-rule="evenodd" d="M854.107 333.086C851.166 331.141 847.534 334.773 846.021 341.172C844.508 347.571 845.675 354.533 848.615 356.479C851.555 358.424 855.187 354.619 856.701 348.22C858.257 341.777 857.09 334.989 854.107 333.086Z" fill="#D3D8DC"/>
<path fill-rule="evenodd" clip-rule="evenodd" d="M845.069 331.876L852.723 332.654L850.258 357.171L841.74 356.349L845.069 331.876Z" fill="#D3D8DC"/>
<path fill-rule="evenodd" clip-rule="evenodd" d="M846.107 332.222C843.167 330.276 839.535 333.908 838.021 340.307C836.508 346.707 837.676 353.668 840.616 355.614C843.556 357.559 847.188 353.754 848.701 347.355C850.215 340.913 849.047 334.124 846.107 332.222Z" fill="#A8B3BC"/>
<path fill-rule="evenodd" clip-rule="evenodd" d="M845.199 333.043C842.735 331.4 839.665 334.47 838.411 339.832C837.157 345.237 838.108 351.074 840.573 352.674C843.037 354.317 846.107 351.117 847.361 345.712C848.658 340.351 847.664 334.643 845.199 333.043Z" fill="#CC7544"/>
<path fill-rule="evenodd" clip-rule="evenodd" d="M818.867 329.93L823.32 339.183Z" fill="#E99670"/>
<path fill-rule="evenodd" clip-rule="evenodd" d="M826.434 348.22C821.115 345.28 819.342 340.437 815.191 336.459L813.592 335.205C812.684 334.513 812.467 333.259 813.073 332.351C813.678 331.53 814.802 331.357 815.667 331.876C815.667 331.876 820.164 335.075 826.304 336.632C836.162 334.816 846.799 357.127 826.434 348.22Z" fill="#CC7544"/>
<path d="M808.706 314.753L820.726 318.429L821.677 318.731L822.153 318.904L822.369 318.991L822.672 319.12C823.536 319.423 824.315 319.856 825.093 320.374C825.871 320.893 826.563 321.499 827.212 322.19C827.514 322.536 827.817 322.882 828.12 323.271C828.25 323.444 828.379 323.661 828.509 323.833L828.855 324.396L841.135 344.631C843.253 348.134 835.125 351.852 828.423 345.972L823.623 326.774L823.45 326.428C823.407 326.341 823.364 326.255 823.32 326.168C823.234 325.995 823.104 325.822 822.974 325.65C822.715 325.304 822.456 325.001 822.11 324.698C821.764 324.439 821.418 324.179 821.029 323.963L820.856 323.877L820.64 323.79L820.164 323.574L819.256 323.185L807.452 318.688C806.371 318.212 805.765 316.959 806.154 315.878C806.587 314.883 807.668 314.407 808.706 314.753Z" fill="#E99670"/>
<path fill-rule="evenodd" clip-rule="evenodd" d="M827.731 338.708L824.185 328.849L823.926 328.59C823.839 328.503 823.796 328.46 823.71 328.374C823.58 328.244 823.407 328.114 823.234 327.984C822.888 327.725 822.542 327.509 822.153 327.379C821.764 327.206 821.375 327.076 820.942 327.033L820.769 326.99L820.51 326.947L820.034 326.903L819.083 326.774L806.976 325.001C805.809 324.871 804.944 323.877 804.987 322.753C805.03 321.758 805.895 321.023 806.976 321.023L819.083 321.974H820.034H820.51H820.769H821.072C821.937 322.018 822.802 322.19 823.666 322.45C824.531 322.709 825.353 323.055 826.131 323.531C826.52 323.747 826.909 324.006 827.255 324.266C827.428 324.396 827.601 324.525 827.774 324.698L828.25 325.087L836.941 335.335C840.659 343.032 836.033 342.124 827.731 338.708Z" fill="#CC7544"/>
<path d="M808.706 314.753L820.726 318.429L821.677 318.731L822.153 318.904L822.369 318.991L822.672 319.12C823.536 319.423 824.315 319.856 825.093 320.374C825.871 320.893 826.563 321.499 827.212 322.19C827.514 322.536 827.817 322.882 828.12 323.271C828.25 323.444 828.379 323.661 828.509 323.833L828.855 324.396L841.135 344.631C843.253 348.134 835.125 351.852 828.423 345.972L823.623 326.774L823.45 326.428C823.407 326.341 823.364 326.255 823.32 326.168C823.234 325.995 823.104 325.822 822.974 325.65C822.715 325.304 822.456 325.001 822.11 324.698C821.764 324.439 821.418 324.179 821.029 323.963L820.856 323.877L820.64 323.79L820.164 323.574L819.256 323.185L807.452 318.688C806.371 318.212 805.765 316.959 806.154 315.878C806.587 314.883 807.668 314.407 808.706 314.753Z" fill="#CC7544"/>
<path fill-rule="evenodd" clip-rule="evenodd" d="M832.271 339.14L826.65 330.32L826.347 330.103C826.26 330.06 826.174 329.974 826.088 329.93C825.915 329.844 825.742 329.714 825.569 329.671C825.179 329.498 824.79 329.368 824.401 329.282C824.012 329.195 823.58 329.152 823.147 329.195H822.974L822.715 329.239L822.239 329.282L821.288 329.368L812.424 330.32C811.257 330.449 810.176 329.671 810.003 328.59C809.83 327.595 810.522 326.687 811.559 326.471L820.25 324.698L821.202 324.482L821.677 324.396L821.893 324.353L822.196 324.309C823.061 324.18 823.926 324.136 824.834 324.18C825.742 324.223 826.606 324.396 827.471 324.655C827.904 324.785 828.336 324.958 828.725 325.131C828.941 325.217 829.157 325.304 829.33 325.434L829.893 325.736L836.551 338.448C841.74 345.15 841.135 340.654 832.271 339.14Z" fill="#CC7544"/>
<path fill-rule="evenodd" clip-rule="evenodd" d="M817.18 326.514L829.374 326.211V341.431L824.963 342.599L817.18 326.514Z" fill="#CC7544"/>
<path fill-rule="evenodd" clip-rule="evenodd" d="M844.032 332.611L833.482 333.216L831.493 350.123L841.611 353.063C845.718 348.826 846.497 339.745 844.032 332.611Z" fill="#CC7544"/>
<path d="M829.071 346.663C829.071 346.663 827.169 344.891 826.866 341.648C825.698 330.233 826.131 329.584 823.926 329.238C824.099 329.281 821.245 329.368 821.245 329.368L812.381 330.319C811.213 330.449 810.132 329.671 809.96 328.59C809.787 327.595 810.478 326.687 811.516 326.471L820.207 324.698C820.207 324.698 825.439 323.185 827.774 324.871C830.671 326.99 835.038 333 835.038 333" stroke="#2C1C28" stroke-width="1.09438" stroke-miterlimit="10" stroke-linecap="round" stroke-linejoin="round"/>
<path d="M814.154 326.039C810.824 325.563 807.063 325.001 807.063 325.001C805.895 324.871 805.03 323.877 805.074 322.753C805.117 321.758 805.982 321.023 807.063 321.023L819.169 321.974H820.121H820.596H820.856H821.158C822.023 322.018 822.888 322.19 823.753 322.45C824.617 322.709 825.439 323.055 826.217 323.531C826.606 323.747 826.996 324.006 827.342 324.266C827.515 324.396 827.687 324.525 827.86 324.698" stroke="#2C1C28" stroke-width="1.09438" stroke-miterlimit="10" stroke-linecap="round" stroke-linejoin="round"/>
<path d="M855.36 358.857C858.949 361.062 863.316 356.738 865.176 349.388C866.992 342.037 865.954 334.514 862.365 332.308" stroke="#D8912B" stroke-width="1.09438" stroke-miterlimit="10" stroke-linecap="round" stroke-linejoin="round"/>
<path d="M853.069 331.184C853.069 331.184 859.209 331.833 863.316 332.308C869.153 319.899 888.179 327.12 890.254 328.417" stroke="#D8912B" stroke-width="1.09438" stroke-miterlimit="10" stroke-linecap="round" stroke-linejoin="round"/>
<path fill-rule="evenodd" clip-rule="evenodd" d="M825.958 272.811C829.201 275.363 822.369 283.621 814.543 285.221C806.155 286.907 798.89 284.226 799.323 280.162C800.058 274.022 817.051 265.807 825.958 272.811Z" fill="#2C1C28"/>
<path fill-rule="evenodd" clip-rule="evenodd" d="M825.266 282.021L824.963 255.386L804.857 255.732L800.447 284.356C800.447 284.356 800.36 284.746 800.36 284.962C800.317 286.172 802.782 286.994 806.457 287.21L808.316 298.668L811.127 287.167C811.646 287.124 812.208 287.08 812.77 287.037C819.645 286.345 825.309 284.27 825.353 282.411C825.353 282.281 825.353 282.151 825.266 282.021Z" fill="#CC7544"/>
<path fill-rule="evenodd" clip-rule="evenodd" d="M825.136 271.946C827.169 273.46 828.293 279.297 814.759 284.702C812.943 284.918 811.862 286.475 810.781 289.718L808.36 298.192L806.846 289.718C806.846 289.718 806.5 288.118 806.025 287.21C805.376 285.999 804.598 285.394 804.598 285.394C804.598 285.394 800.231 283.059 799.798 281.502C798.977 278.605 800.879 276.962 801.96 276.054C802.004 275.751 802.047 275.449 802.09 275.146C800.923 275.708 799.107 277.092 797.896 280.075C794.783 285.48 795.215 293.912 795.215 293.912L800.144 291.707L808.36 299.057L818.694 291.404C818.694 291.404 821.202 292.312 824.747 293.696C828.033 290.842 831.363 286.215 832.098 281.935L826.347 272.682L825.18 271.903L825.136 271.946Z" fill="#D3D8DC"/>
<path d="M825.309 272.163C826.001 272.811 826.39 273.59 826.39 274.584C826.39 278.173 821.245 282.886 814.802 284.659C813.375 285.048 812.208 285.999 811.603 287.34C810.522 289.631 809.181 293.609 808.403 298.711C807.668 293.35 807.106 286.086 803.56 284.616C802.912 284.356 802.263 284.053 801.744 283.578C800.75 282.67 800.015 281.502 800.015 280.378" stroke="#2C1C28" stroke-width="1.09438" stroke-miterlimit="10" stroke-linecap="round" stroke-linejoin="round"/>
<path fill-rule="evenodd" clip-rule="evenodd" d="M795.172 293.912L807.149 291.058C807.149 291.058 806.241 286.994 805.16 285.307C804.079 283.664 799.15 286.605 795.172 293.912Z" fill="#2C1C28"/>
<path fill-rule="evenodd" clip-rule="evenodd" d="M824.661 293.696L810.046 291.75C810.176 291.664 810.608 286.259 813.592 284.875C815.364 284.054 822.153 288.68 824.661 293.696Z" fill="#2C1C28"/>
<path fill-rule="evenodd" clip-rule="evenodd" d="M801.009 280.897C819.126 274.671 818.607 260.835 818.607 260.835L803.56 264.121L801.009 280.897Z" fill="#A95A2D"/>
<path fill-rule="evenodd" clip-rule="evenodd" d="M800.274 269.05C801.485 270.217 802.998 270.996 804.641 271.342C806.284 271.687 807.97 271.644 809.57 271.125C814.067 269.655 820.38 266.11 823.709 257.332C830.152 259.321 834.822 249.592 830.93 246.955C828.509 245.355 825.223 247.085 823.536 248.901C823.45 248.987 823.277 249.203 823.234 249.29C823.277 244.015 829.244 238.437 826.217 235.453C810.219 219.714 799.106 231.735 796.728 234.026C795.82 237.442 795.518 241.074 794.61 246.436C792.664 257.592 796.339 265.375 800.274 269.05ZM823.493 248.901C823.536 248.857 823.536 248.857 823.493 248.901V248.901Z" fill="#CC7544"/>
<path d="M802.998 258.37C802.998 258.37 807.452 259.062 810.349 255.992" stroke="#2C1C28" stroke-width="1.09438" stroke-miterlimit="10" stroke-linecap="round" stroke-linejoin="round"/>
<path d="M802.047 239.258C799.626 238.48 796.296 239.388 795.604 240.296" stroke="#2C1C28" stroke-width="1.09438" stroke-miterlimit="10" stroke-linecap="round" stroke-linejoin="round"/>
<path d="M808.946 239.258C811.368 238.48 814.697 239.388 815.389 240.296" stroke="#2C1C28" stroke-width="1.09438" stroke-miterlimit="10" stroke-linecap="round" stroke-linejoin="round"/>
<path d="M803.647 243.885C803.647 243.885 803.69 246.133 801.744 249.852C799.971 253.224 802.133 254.911 805.981 253.83" stroke="#2C1C28" stroke-width="1.09438" stroke-miterlimit="10" stroke-linecap="round" stroke-linejoin="round"/>
<path fill-rule="evenodd" clip-rule="evenodd" d="M812.208 243.582C811.559 243.539 810.954 244.447 810.911 245.571C810.867 246.696 811.386 247.604 812.035 247.647C812.684 247.69 813.289 246.782 813.332 245.658C813.375 244.534 812.856 243.626 812.208 243.582Z" fill="#2C1C28"/>
<path fill-rule="evenodd" clip-rule="evenodd" d="M799.15 243.02C798.501 242.977 797.896 243.885 797.853 245.009C797.809 246.133 798.328 247.041 798.977 247.084C799.625 247.128 800.231 246.22 800.274 245.095C800.317 243.971 799.798 243.063 799.15 243.02Z" fill="#2C1C28"/>
<path fill-rule="evenodd" clip-rule="evenodd" d="M793.615 234.459C794.35 246.047 796.123 236.405 796.123 236.405C798.199 237.918 806.63 235.367 813.462 231.951C820.25 228.535 824.488 227.973 823.839 236.75C823.407 242.674 833.871 225.552 827.558 225.854C829.46 213.661 814.327 220.752 814.327 220.752C814.327 220.752 810.435 215.088 804.511 215.001C798.977 214.915 794.653 219.368 795.388 224.644C791.28 224.557 788.081 225.422 793.615 234.459Z" fill="#951800"/>
<path fill-rule="evenodd" clip-rule="evenodd" d="M797.247 236.534C799.582 237.399 804.944 236.102 813.375 232.599C820.423 229.702 823.277 232.297 822.931 241.074C822.845 243.107 822.499 248.036 822.283 250.846C823.234 248.814 825.482 246.566 829.374 246.263C827.731 240.815 836.984 225.422 827.514 225.854C827.774 224.211 827.817 223.26 827.644 221.92C827.342 220.968 824.531 215.996 816.445 226.114C810.695 233.335 802.306 237.226 797.247 236.534ZM793.615 234.459C793.399 240.339 794.826 244.923 794.826 244.923L796.599 236.534C794.826 235.669 794.004 234.934 793.615 234.459Z" fill="#5F1001"/>
<path fill-rule="evenodd" clip-rule="evenodd" d="M765.38 340.134C765.38 330.924 757.9 323.487 748.69 323.487C739.48 323.487 732 330.968 732 340.134C732 348.523 738.183 355.441 746.226 356.608L754.311 358.381L754.441 355.744C760.884 353.409 765.38 347.312 765.38 340.134Z" fill="#FCC670"/>
<path fill-rule="evenodd" clip-rule="evenodd" d="M757.511 331.314C765.078 331.314 771.261 337.454 771.261 345.064C771.261 352.674 765.121 358.814 757.511 358.814C749.944 358.814 743.761 352.674 743.761 345.064C743.761 337.454 749.944 331.314 757.511 331.314Z" fill="#FCC670"/>
<path fill-rule="evenodd" clip-rule="evenodd" d="M761.229 334.427C768.234 334.427 773.898 340.091 773.898 347.096C773.898 354.101 768.234 359.765 761.229 359.765C754.225 359.765 748.56 354.101 748.56 347.096C748.56 340.091 754.225 334.427 761.229 334.427Z" fill="#D8912B"/>
<path fill-rule="evenodd" clip-rule="evenodd" d="M749.641 347.139C749.641 353.452 754.744 358.554 761.056 358.554C767.023 358.554 771.866 354.014 772.428 348.22L772.99 342.945C773.077 342.426 773.163 341.907 773.163 341.388C773.163 336.978 769.574 333.389 765.164 333.389C763.651 333.389 762.224 333.821 761.056 334.557L755.825 336.935L755.911 336.978C752.192 338.88 749.641 342.685 749.641 347.139Z" fill="#CC7544"/>
<path fill-rule="evenodd" clip-rule="evenodd" d="M765.164 333.389C769.574 333.389 773.163 336.978 773.163 341.388C773.163 341.907 773.12 342.426 772.99 342.945L772.428 348.22C771.909 354.014 767.023 358.554 761.056 358.554C760.883 358.554 760.667 358.554 760.494 358.511C756.343 352.674 755.954 341.432 759.024 335.465L761.013 334.557C762.224 333.821 763.651 333.389 765.164 333.389Z" fill="#A95A2D"/>
<path fill-rule="evenodd" clip-rule="evenodd" d="M759.802 307.36H794.999C796.555 307.36 798.285 308.613 798.89 310.17L816.143 355.484C816.748 357.041 815.97 358.295 814.413 358.295H779.217C777.66 358.295 775.93 357.041 775.325 355.484L758.029 310.127C757.467 308.613 758.246 307.36 759.802 307.36Z" fill="#2C1C28"/>
<path fill-rule="evenodd" clip-rule="evenodd" d="M776.709 310.3C777.444 310.3 778.438 311.251 778.871 312.462C779.303 313.672 779.087 314.624 778.352 314.624C777.617 314.624 776.622 313.672 776.19 312.462C775.714 311.294 775.93 310.3 776.709 310.3Z" fill="#555EC2"/>
<path fill-rule="evenodd" clip-rule="evenodd" d="M762.656 346.793C765.38 354.014 770.655 353.366 773.163 351.074C771.953 347.831 769.747 343.68 773.725 341.388C768.104 344.329 765.251 328.979 760.321 329.238C756.862 329.455 758.289 335.292 762.656 346.793Z" fill="#CC7544"/>
<path d="M775.931 318.256L764.126 324.958L763.218 325.52L762.743 325.779L762.526 325.909L762.224 326.082C761.402 326.601 761.143 326.947 760.451 327.682C756.214 331.184 760.019 339.443 765.078 330.795L765.207 330.665L765.423 330.492L765.856 330.19L766.721 329.541L778.049 322.061C779.087 321.282 779.39 319.856 778.741 318.818C778.179 317.867 776.925 317.65 775.931 318.256Z" fill="#CC7544"/>
<path d="M780.773 324.569L768.061 329.195L767.067 329.584L766.548 329.757L766.288 329.844L765.986 329.973C765.078 330.363 764.213 330.406 763.435 331.011C759.932 333.606 765.553 336.027 765.553 336.027L769.704 333.865L782.33 328.676C783.497 328.071 784.016 326.687 783.541 325.606C783.022 324.569 781.854 324.136 780.773 324.569Z" fill="#CC7544"/>
<path d="M780.773 329.541L768.061 334.168L767.067 334.557C767.067 334.557 764.429 335.335 763.867 336.589C763.867 341.172 768.883 339.659 768.883 339.659L769.834 339.184L782.243 333.692C783.411 333.087 783.93 331.703 783.454 330.622C783.022 329.541 781.854 329.109 780.773 329.541Z" fill="#CC7544"/>
<path d="M778.784 335.292L766.288 340.264L766.894 345.41L767.845 344.934L780.254 339.443C781.422 338.837 781.941 337.454 781.465 336.373C781.076 335.335 779.865 334.903 778.784 335.292Z" fill="#CC7544"/>
<path d="M780.211 339.443C781.379 338.838 781.898 337.454 781.422 336.373C780.99 335.335 779.779 334.903 778.698 335.335L766.591 339.962L764.948 341.043" stroke="#2C1C28" stroke-width="1.09438" stroke-miterlimit="10" stroke-linecap="round" stroke-linejoin="round"/>
<path d="M782.244 328.676C783.411 328.071 783.93 326.687 783.454 325.606C783.022 324.569 781.811 324.136 780.73 324.569L768.018 329.195L765.899 330.449C765.899 330.449 763.262 331.227 762.7 332.481" stroke="#2C1C28" stroke-width="1.09438" stroke-miterlimit="10" stroke-linecap="round" stroke-linejoin="round"/>
<path d="M782.243 333.649C783.411 333.044 783.93 331.66 783.454 330.579C783.022 329.541 781.811 329.109 780.73 329.541L768.018 334.168L767.629 334.557C767.629 334.557 764.472 335.422 763.91 336.676" stroke="#2C1C28" stroke-width="1.09438" stroke-miterlimit="10" stroke-linecap="round" stroke-linejoin="round"/>
<path fill-rule="evenodd" clip-rule="evenodd" d="M376.04 586.613L386.62 623.175L384.519 626.583L364.344 626.503L355.021 593.997L376.04 586.613Z" fill="#CC7544"/>
<path fill-rule="evenodd" clip-rule="evenodd" d="M365.067 635.609C365.067 635.609 363.114 625.726 361.601 617.767C361.706 618.279 366.539 617.743 372.371 616.568C376.93 615.649 382.485 614.081 383.912 613.405L385.685 619.26L427.581 621.743C427.562 622.623 397.583 624.145 397.535 625.085C396.268 626.322 378.144 629.104 383.311 629.726C383.202 630.383 383.077 630.996 382.961 631.608L368.424 638.124C366.507 637.666 366.119 636.715 365.067 635.609Z" fill="white"/>
<path fill-rule="evenodd" clip-rule="evenodd" d="M408.322 625.379C400.428 627.859 385.561 625.965 385.561 625.965L382.705 627.727C375.232 631.984 374.936 633.243 374.936 633.243C374.936 633.243 372.754 632.392 369.208 631.81C368.164 631.636 364.534 638.188 364.534 638.188L364.109 644.645C364.109 644.645 404.623 635.29 421.003 632.017C427.785 630.659 431.352 627.006 432.955 624.775C433.698 623.74 433.439 622.332 432.341 621.685C427.281 618.699 420.679 621.416 408.322 625.379Z" fill="#583652"/>
<path fill-rule="evenodd" clip-rule="evenodd" d="M392.043 619.778L387.842 612.071C387.842 612.071 385.167 613.349 384.112 617.572C383.501 619.851 383.903 622.601 384.379 624.709C376.138 625.349 369.992 622.536 362.214 624.691L364.623 640.202C364.623 640.202 403.306 632.378 419.241 629.151C426.005 627.779 428.624 620.399 428.624 620.399L392.043 619.778Z" fill="#583652"/>
<path fill-rule="evenodd" clip-rule="evenodd" d="M299.849 576.913L298.74 614.24L296.353 617.454L276.264 615.611L277.657 580.423L299.849 576.913Z" fill="#CC7544"/>
<path fill-rule="evenodd" clip-rule="evenodd" d="M298.593 616.317L276.328 615.909C276.328 615.909 276.732 606.892 276.771 602.631C276.846 603.154 279.561 603.737 285.474 603.056C293.672 602.152 297.868 600.257 299.334 599.663L299.044 607.022C299.035 607.025 298.602 615.875 298.593 616.317Z" fill="white"/>
<path d="M358.64 376.541C358.64 376.541 385.877 546.201 390.004 605.536C390.004 605.536 367.627 616.509 359.091 613.514C359.091 613.514 313.776 409.368 311.064 382.78L358.64 376.541Z" fill="#573652"/>
<path fill-rule="evenodd" clip-rule="evenodd" d="M325.846 466.24L322.83 449.61L326.273 418.061C326.273 418.061 329.528 416.914 333.55 414.428L334.003 412.631C334.567 411.722 335.131 410.813 335.695 409.904C337.044 414.042 349.256 452.448 325.846 466.24Z" fill="#2C1A28"/>
<path d="M305.683 593.301C314.182 547.977 331.06 439.566 338.437 391.026L290.192 383.059C287.713 421.655 277.356 541.958 272.487 597.285C288.775 600.471 301.405 595.957 305.683 593.301Z" fill="#573652"/>
<path fill-rule="evenodd" clip-rule="evenodd" d="M326.528 395.01C347.723 395.01 364.911 398.54 364.911 402.938C364.911 403.922 364.994 418.911 364.994 418.911C364.994 418.911 351.69 410.056 326.941 405.832C301.118 401.433 287.979 405.89 287.979 405.89C287.979 405.89 288.185 404.848 288.185 402.938C288.144 398.54 305.332 395.01 326.528 395.01Z" fill="#2C1A28"/>
<path fill-rule="evenodd" clip-rule="evenodd" d="M316.121 301.081C317.056 301.267 318.039 302.115 318.988 303.221C321.351 305.86 321.554 301.392 322.783 304.065C322.409 299.076 324.226 301.6 325.249 300.806C325.707 300.414 326.345 300.263 326.999 300.317L325.457 279.747C329.407 278.274 331.962 274.805 331.576 269.663C330.588 256.476 329.615 244.209 329.615 244.209C326.677 238.234 305.006 233.663 301.05 253.108L301.699 261.047C301.369 260.97 301.042 260.943 300.665 260.971C298.781 261.112 297.381 262.651 297.514 264.433C297.648 266.215 299.262 267.528 301.146 267.386C301.523 267.358 301.896 267.279 302.211 267.153L307 296C308.903 296.393 309.54 299.936 316.121 301.081Z" fill="#CC7544"/>
<path fill-rule="evenodd" clip-rule="evenodd" d="M363.398 310.765L359.017 348.681L338.704 328.935C331.778 326.502 326.584 320.028 325.986 312.052C325.189 301.418 332.877 292.183 343.154 291.413C353.431 290.642 362.409 298.628 363.206 309.263C363.248 309.818 363.247 310.337 363.246 310.856L363.398 310.765Z" fill="#783040"/>
<path fill-rule="evenodd" clip-rule="evenodd" d="M327.671 394.67C305.587 395.028 287.457 397.292 287.536 399.878C287.576 400.634 287.094 401.206 288.864 402.534C295.589 398.833 322.061 404.498 337.54 404.26C359.624 403.902 367.86 401.315 367.781 398.729C367.701 396.103 349.756 394.312 327.671 394.67Z" fill="#FCC670"/>
<path fill-rule="evenodd" clip-rule="evenodd" d="M357.264 324.751C367.906 355.477 375.516 371.825 365.321 379.014C365.89 384.477 370.748 400.455 370.748 400.455C370.748 400.455 358.753 391.476 326.336 394.464C305.135 396.412 294.331 399.413 287.536 400.321C287.536 400.321 285.681 378.557 285.455 375.542C270.009 371.233 275.111 354.131 282.305 332.444C276.035 329.721 271.381 323.526 270.822 316.066C270.043 305.67 277.422 296.578 287.395 295.471L287.871 295.436C287.911 295.433 287.95 295.43 288.03 295.424C288.069 295.421 288.149 295.415 288.188 295.412L342.916 291.43C342.995 291.424 343.114 291.415 343.194 291.41C343.313 291.401 343.392 291.395 343.511 291.386L345.574 291.231C345.574 291.231 345.577 291.271 345.586 291.39C354.841 291.893 362.511 299.459 363.246 309.26C363.728 315.169 361.086 320.913 357.264 324.751Z" fill="#FCC670"/>
<path fill-rule="evenodd" clip-rule="evenodd" d="M351.482 308.726C351.021 308.888 350.779 309.393 350.941 309.855L363.715 346.127C363.877 346.588 364.383 346.83 364.844 346.667C365.305 346.505 365.547 346 365.385 345.538L352.611 309.267C352.449 308.805 351.943 308.563 351.482 308.726Z" fill="#5D202D"/>
<path fill-rule="evenodd" clip-rule="evenodd" d="M318.003 282.723C325.292 283.614 330.881 287.384 330.483 291.125C330.085 294.866 323.837 297.21 316.547 296.319C309.258 295.429 303.669 291.658 304.067 287.918C304.462 284.137 310.713 281.833 318.003 282.723Z" fill="#2A1C28"/>
<path fill-rule="evenodd" clip-rule="evenodd" d="M306.594 295.549L304.98 270.292L323.455 269.227L329.536 296.064L329.378 296.076C329.512 296.266 329.606 296.458 329.621 296.657C329.75 297.844 327.428 298.816 323.909 299.239L323.146 308.235L320.295 299.47C319.697 299.475 319.059 299.483 318.418 299.451C312.058 299.25 306.715 297.695 306.544 295.952C306.535 295.833 306.563 295.671 306.594 295.549Z" fill="#CC7544"/>
<path fill-rule="evenodd" clip-rule="evenodd" d="M328.774 292.809C328.533 292.788 328.329 292.723 328.087 292.701C311.296 289.61 311.2 275.013 311.2 275.013L325.243 277.113L328.774 292.809Z" fill="#A95A2D"/>
<path fill-rule="evenodd" clip-rule="evenodd" d="M308.211 303.981C307.964 304.403 308.106 304.945 308.528 305.192L323.26 313.824C323.609 314.029 324.053 313.971 324.337 313.683L334.722 303.168C335.066 302.82 335.062 302.26 334.714 301.916C334.367 301.573 333.806 301.576 333.463 301.924L323.561 311.949L309.423 303.665C309.001 303.418 308.458 303.559 308.211 303.981Z" fill="#D8912B"/>
<path fill-rule="evenodd" clip-rule="evenodd" d="M334.882 302.966L330.207 301.281L323.122 308.436L313.206 302.316C313.206 302.316 311.44 303.246 308.242 304.763C305.03 302.37 301.241 298.664 300.232 294.789C300.232 294.789 302.139 286.147 305.853 284.591C305.862 284.71 305.867 284.79 305.876 284.909C304.116 286.437 303.482 291.832 316.274 295.861C317.955 295.935 319.015 297.292 320.269 300.19L323.074 307.801L323.88 299.92C323.88 299.92 324.088 298.428 324.462 297.562C324.974 296.406 325.646 295.797 325.646 295.797C325.646 295.797 329.145 293.5 329.438 292.081C329.992 289.366 328.518 287.801 327.464 287.042C327.403 286.767 327.28 286.178 327.219 285.903C328.329 286.339 330.154 287.798 331.47 290.453C334.699 295.199 334.882 302.966 334.882 302.966Z" fill="#573652"/>
<path fill-rule="evenodd" clip-rule="evenodd" d="M334.882 302.966L323.694 301.171C323.694 301.171 323.995 297.198 324.874 295.616C325.75 293.994 330.729 296.534 334.882 302.966Z" fill="#2A1C28"/>
<path fill-rule="evenodd" clip-rule="evenodd" d="M308.282 304.76L321.126 302.041C321.001 301.971 320.056 296.814 316.979 295.688C315.256 295.059 310.238 299.984 308.282 304.76Z" fill="#2A1C28"/>
<path fill-rule="evenodd" clip-rule="evenodd" d="M305.64 284.377C305.287 284.018 304.687 283.997 304.299 284.33C303.323 285.168 302.841 286.258 302.936 287.523C303.089 289.564 304.773 291.509 307.029 293.023C309.329 294.566 312.416 295.799 315.771 296.357C316.919 296.561 317.939 297.257 318.494 298.207C319.642 300.283 321.173 303.885 322.315 308.438C322.422 308.864 322.848 309.15 323.317 309.109C323.785 309.069 324.155 308.715 324.186 308.277C324.253 307.346 324.289 306.393 324.326 305.44C324.391 303.733 324.457 302.025 324.694 300.436C325.067 297.934 325.808 296.277 327.15 295.628C327.832 295.313 328.508 294.91 329.134 294.423C329.147 294.412 329.16 294.402 329.173 294.391C330.214 293.485 331.289 292.176 331.18 290.714C331.065 289.181 330.113 287.772 328.786 286.588C328.409 286.252 327.809 286.268 327.445 286.623C327.08 286.978 327.091 287.539 327.468 287.875C328.617 288.9 329.217 289.929 329.287 290.856C329.331 291.453 328.86 292.249 327.906 293.084C327.407 293.47 326.864 293.792 326.316 294.045L326.301 294.052C324.012 295.153 323.188 297.703 322.814 300.21C322.694 301.017 322.615 301.876 322.557 302.749C321.744 300.508 320.899 298.677 320.177 297.374L320.169 297.359C319.347 295.943 317.846 294.917 316.137 294.616L316.127 294.614L316.127 294.614C313.029 294.1 310.206 292.963 308.148 291.581C306.045 290.17 304.923 288.635 304.829 287.382C304.775 286.663 305.025 286.102 305.576 285.628C305.964 285.295 305.992 284.735 305.64 284.377Z" fill="#2A1C28"/>
<path fill-rule="evenodd" clip-rule="evenodd" d="M394.094 404.705L352.741 404.872L339.855 346.929L396.739 346.51L397.348 401.416C397.369 403.221 395.905 404.696 394.094 404.705Z" fill="#AF8762"/>
<g opacity="0.4">
<path d="M373.968 346.708L375.628 346.665L377.038 405.21L375.378 405.253L373.968 346.708Z" fill="#CE986F"/>
</g>
<path fill-rule="evenodd" clip-rule="evenodd" d="M352.741 404.872L326.388 404.284C324.624 404.247 323.216 402.814 323.208 401.059L322.935 350.424C322.927 348.606 324.414 347.13 326.243 347.151L352.545 347.454L352.741 404.872Z" fill="#EDCBA6"/>
<path fill-rule="evenodd" clip-rule="evenodd" d="M400.161 347.103L347.799 347.491L360.795 289.281L399.838 288.896C401.643 288.878 403.118 290.324 403.126 292.118L403.404 343.825C403.417 345.623 401.962 347.091 400.161 347.103Z" fill="#AF8762"/>
<path fill-rule="evenodd" clip-rule="evenodd" d="M361.694 347.361L329.144 347.603L328.874 292.936C328.864 291.153 330.297 289.695 332.089 289.666L361.049 289.18L361.694 347.361Z" fill="#EDCBA6"/>
<path fill-rule="evenodd" clip-rule="evenodd" d="M344.008 360.518L331.618 358.587L332.44 353.489L344.696 355.375L344.008 360.518Z" fill="#F9E7D7"/>
<path d="M336.793 302.212L352.46 302.272L353.17 335.166L338.292 335.106L336.793 302.212Z" fill="#F9E7D7"/>
<path d="M372.5 303L387.5 303L387.5 335L372.5 337.545L372.5 303Z" fill="#F9E7D7"/>
<path d="M311.526 365.516C315.57 361.98 320.094 360.045 322.663 360.252C323.734 363.364 324.689 368.12 324.769 370.788C324.744 370.989 324.756 371.148 324.774 371.386C324.777 371.426 324.783 371.505 324.786 371.545L324.789 371.584C324.943 372.57 325.517 373.844 326.866 375.339C327.397 375.499 327.93 375.698 328.501 375.855C330.947 376.55 333.464 377.119 336.014 377.606C338.564 378.094 341.146 378.459 343.681 378.748L343.721 378.745C344.728 378.869 345.51 379.728 345.511 380.805C345.515 381.922 344.589 382.869 343.508 382.831C340.753 382.798 338.107 382.637 335.416 382.4C332.724 382.162 330.024 381.806 327.352 381.288C326.784 381.171 326.217 381.054 325.65 380.937C326.908 381.76 327.914 382.403 328.201 382.501C330.552 383.522 332.97 384.379 335.465 385.189C337.917 385.963 340.446 386.691 342.923 387.264L342.962 387.261C343.939 387.507 344.611 388.494 344.49 389.541C344.335 390.669 343.357 391.461 342.268 391.303C342.066 391.278 341.865 391.254 341.664 391.229C341.404 391.488 341.15 391.826 340.908 392.323C340.319 393.524 329.833 393.632 330.068 393.574C324.539 394.866 321.033 396.007 318.126 392.354C316.32 390.095 310.392 384.993 308.606 381.935L311.526 365.516Z" fill="#CC7544"/>
<path d="M314.008 377.34C313.886 377.309 313.886 377.309 314.008 377.34V377.34Z" fill="#C35662"/>
<path fill-rule="evenodd" clip-rule="evenodd" d="M320.001 379.394C319.854 379.861 320.113 380.358 320.579 380.505C321.221 380.707 321.645 380.805 322.102 380.911C322.376 380.974 322.662 381.04 323.013 381.133C324.39 381.52 325.794 381.82 327.138 382.081L327.141 382.081C329.885 382.602 332.614 382.962 335.29 383.205L335.292 383.205C337.999 383.444 340.668 383.606 343.452 383.639C343.941 383.645 344.342 383.254 344.348 382.765C344.354 382.276 343.962 381.875 343.473 381.869C340.746 381.836 338.124 381.677 335.449 381.441C332.822 381.203 330.152 380.851 327.473 380.342C326.147 380.085 324.796 379.795 323.486 379.427L323.472 379.423C322.989 379.295 322.676 379.224 322.404 379.163C322.015 379.074 321.71 379.005 321.112 378.817C320.646 378.669 320.148 378.928 320.001 379.394Z" fill="#2A1C28"/>
<path fill-rule="evenodd" clip-rule="evenodd" d="M318.754 389.849C318.554 390.295 318.753 390.819 319.199 391.019C321.196 391.915 323.184 392.729 325.164 393.502C326.273 393.955 328.087 394.321 329.82 394.318C330.309 394.317 330.704 393.92 330.704 393.432C330.703 392.943 330.306 392.547 329.817 392.548C328.281 392.551 326.696 392.216 325.828 391.861L325.814 391.855C323.85 391.089 321.888 390.285 319.924 389.404C319.477 389.204 318.954 389.403 318.754 389.849Z" fill="#2A1C28"/>
<path fill-rule="evenodd" clip-rule="evenodd" d="M324.444 380.654C324.249 381.102 324.455 381.624 324.903 381.818C325.052 381.883 325.213 381.953 325.386 382.028C327.907 383.125 332.808 385.256 335.156 385.997C337.621 386.775 340.174 387.51 342.681 388.09C342.716 388.098 342.751 388.104 342.787 388.107C343.274 388.276 343.636 388.812 343.568 389.402L343.567 389.414L343.567 389.414C343.502 390.048 342.934 390.474 342.353 390.39C339.67 389.998 337.064 389.52 334.45 388.926C331.827 388.329 329.209 387.656 326.625 386.825C325.331 386.409 324.042 385.956 322.752 385.428C321.787 385.032 320.772 384.56 319.82 384.112C319.378 383.904 318.851 384.094 318.642 384.537C318.434 384.979 318.624 385.506 319.067 385.714C320.017 386.162 321.07 386.652 322.081 387.066C323.425 387.617 324.759 388.085 326.083 388.51C328.732 389.362 331.403 390.048 334.057 390.652C336.721 391.258 339.373 391.743 342.097 392.142L342.098 392.143C343.693 392.374 345.159 391.214 345.327 389.6C345.494 388.133 344.558 386.724 343.136 386.366C343.084 386.353 343.03 386.344 342.976 386.341C340.562 385.779 338.094 385.067 335.689 384.308C333.437 383.597 328.612 381.5 326.065 380.393C325.904 380.323 325.751 380.256 325.608 380.194C325.16 380 324.639 380.205 324.444 380.654Z" fill="#2A1C28"/>
<path fill-rule="evenodd" clip-rule="evenodd" d="M390.633 332.797C391.393 332.82 392.116 332.885 392.8 332.954C392.214 333.118 391.727 333.553 391.497 334.209C391.138 335.273 391.664 336.431 392.689 336.793C393.96 337.256 395.159 337.805 396.122 338.411C397.088 339.057 397.822 339.8 397.989 340.426C398.694 341.849 398.469 341.507 398.571 342.338C398.61 342.335 398.613 342.374 398.653 342.371C397.894 345.022 396.809 347.577 395.473 349.992C398.231 350.583 403.2 348.734 404.721 345.069C404.791 344.944 404.825 344.862 404.782 344.825C404.853 344.7 404.923 344.575 404.994 344.45C405.132 344.16 405.27 343.871 405.407 343.581C405.683 343.002 405.88 342.428 406.073 341.815C406.362 340.876 407.227 338.576 407.615 336.832C407.612 336.792 407.652 336.789 407.649 336.749C407.803 336.139 407.917 335.532 407.991 334.928C408.137 333.68 408.155 332.322 407.849 330.908C407.677 330.203 407.465 329.501 407.136 328.847C406.991 328.499 406.768 328.196 406.586 327.891C406.403 327.585 406.187 327.362 405.965 327.059C405.35 326.307 404.579 325.607 403.741 325.071C403.946 324.617 404.149 324.123 404.254 323.397C404.279 323.195 404.304 322.994 404.286 322.756C404.311 322.555 404.25 322.28 404.232 322.042C404.157 321.569 403.999 321.062 403.768 320.64C403.306 319.797 402.751 319.32 402.291 319.035C401.828 318.71 401.416 318.542 401.007 318.413C400.23 318.152 399.504 318.047 398.82 317.978C398.097 317.913 397.496 317.878 396.742 317.934C395.707 317.972 394.945 318.987 395.038 320.217C395.124 321.368 395.992 322.3 396.953 322.348L397.032 322.342C397.511 322.346 398.076 322.423 398.601 322.504C399.046 322.59 398.958 322.477 399.327 322.609C399.259 322.774 399.204 323.097 399.047 323.667C398.046 323.623 397.091 323.654 396.141 323.765C394.127 324.036 392.252 324.576 390.502 325.186C389.607 325.492 389.038 326.413 389.194 327.438C389.279 328.03 389.635 328.523 390.095 328.807C389.356 329.062 388.772 329.784 388.755 330.624C388.682 331.786 389.55 332.719 390.633 332.797Z" fill="#CC7544"/>
<path fill-rule="evenodd" clip-rule="evenodd" d="M399.46 322.842C398.239 322.717 397.093 322.806 396.044 322.926L396.027 322.928C393.932 323.209 391.996 323.768 390.215 324.389C388.895 324.842 388.108 326.226 388.322 327.611C388.436 328.38 388.829 329.067 389.473 329.507C389.877 329.783 390.428 329.68 390.704 329.276C390.98 328.873 390.876 328.322 390.473 328.046C390.277 327.912 390.122 327.684 390.073 327.349L390.072 327.342L390.072 327.342C389.981 326.757 390.325 326.223 390.792 326.063L390.796 326.061L390.796 326.061C392.513 325.463 394.323 324.944 396.253 324.684C397.259 324.57 398.253 324.499 399.28 324.604C400.335 324.712 401.448 324.96 402.492 325.457L402.504 325.463C403.559 325.946 404.522 326.732 405.333 327.669C405.387 327.734 405.435 327.791 405.479 327.842C405.645 328.037 405.746 328.156 405.849 328.346C405.855 328.358 405.862 328.37 405.869 328.381C405.951 328.52 406.022 328.631 406.084 328.728C406.202 328.913 406.288 329.047 406.362 329.226C406.37 329.244 406.379 329.263 406.388 329.281C406.685 329.873 406.907 330.494 407.022 331.108C407.112 331.589 407.575 331.905 408.055 331.815C408.536 331.725 408.852 331.262 408.762 330.782C408.614 329.99 408.336 329.221 407.983 328.512C407.846 328.195 407.642 327.874 407.499 327.65C407.459 327.588 407.425 327.533 407.397 327.488C407.199 327.124 406.959 326.846 406.784 326.643C406.749 326.602 406.717 326.564 406.687 326.529L406.678 326.518C405.743 325.435 404.583 324.469 403.247 323.856C401.975 323.251 400.655 322.965 399.46 322.842Z" fill="#2A1C28"/>
<path fill-rule="evenodd" clip-rule="evenodd" d="M396.34 327.499C394.164 327.371 392.192 327.604 390.327 327.864L390.31 327.867C388.945 328.084 387.937 329.207 387.873 330.624L387.873 330.635L387.873 330.635C387.823 332.196 388.983 333.573 390.578 333.641C390.837 333.661 391.103 333.681 391.367 333.7L391.369 333.7C391.64 333.72 391.909 333.739 392.167 333.759C392.654 333.797 393.08 333.433 393.118 332.945C393.156 332.458 392.792 332.032 392.304 331.994C392.041 331.973 391.768 331.954 391.498 331.934L391.497 331.934C391.226 331.914 390.957 331.895 390.699 331.875C390.687 331.874 390.675 331.873 390.662 331.873C390.109 331.853 389.624 331.366 389.642 330.697C389.671 330.118 390.059 329.703 390.581 329.616C392.422 329.36 394.242 329.15 396.228 329.266C397.248 329.346 398.222 329.462 399.235 329.753C400.253 330.046 401.313 330.517 402.273 331.208L402.287 331.218C403.234 331.872 404.069 332.873 404.71 333.97C404.78 334.118 404.856 334.258 404.92 334.373C404.93 334.393 404.94 334.411 404.95 334.429C405.028 334.573 405.092 334.693 405.146 334.823C405.294 335.177 405.419 335.477 405.511 335.807C405.642 336.278 406.13 336.553 406.601 336.421C407.072 336.29 407.347 335.802 407.216 335.331C407.092 334.887 406.928 334.495 406.786 334.157L406.779 334.139C406.688 333.921 406.588 333.735 406.505 333.582C406.493 333.56 406.481 333.538 406.47 333.518C406.399 333.389 406.346 333.291 406.298 333.187C406.286 333.162 406.274 333.138 406.26 333.115C405.53 331.856 404.53 330.617 403.301 329.766C402.154 328.942 400.905 328.391 399.724 328.051C398.537 327.71 397.421 327.583 396.357 327.5L396.34 327.499Z" fill="#2A1C28"/>
<path fill-rule="evenodd" clip-rule="evenodd" d="M393.906 332.061C392.533 331.743 391.163 332.59 390.701 333.915L390.698 333.923L390.698 333.923C390.197 335.408 390.916 337.086 392.429 337.623C393.683 338.08 394.795 338.56 395.67 339.144C396.587 339.757 397.076 340.364 397.188 340.701C397.202 340.743 397.219 340.784 397.239 340.824C397.611 341.557 397.666 341.704 397.68 341.768C397.68 341.768 397.68 341.769 397.68 341.769C397.682 341.777 397.685 341.788 397.689 341.9L397.69 341.905C397.695 342.024 397.702 342.192 397.732 342.441C397.79 342.926 398.231 343.272 398.717 343.213C399.202 343.155 399.548 342.714 399.489 342.228C399.468 342.049 399.463 341.935 399.459 341.831L399.458 341.827C399.458 341.822 399.458 341.817 399.458 341.813C399.454 341.707 399.447 341.554 399.407 341.375C399.334 341.056 399.158 340.694 398.844 340.075C398.522 339.191 397.643 338.333 396.653 337.672C395.596 336.966 394.32 336.428 393.031 335.958L393.023 335.955L393.023 335.955C392.491 335.767 392.161 335.133 392.374 334.493C392.569 333.94 393.102 333.689 393.511 333.787C393.52 333.789 393.528 333.79 393.537 333.792C394.954 334.085 396.376 334.397 397.811 335.002C398.535 335.317 399.229 335.708 399.938 336.213C400.596 336.683 401.257 337.38 401.79 338.21C402.305 339.01 402.668 340.017 402.81 340.968C402.813 340.988 402.817 341.008 402.821 341.027C402.862 341.215 402.879 341.413 402.867 341.666C402.865 341.703 402.866 341.739 402.868 341.776C402.885 342.003 402.875 342.203 402.861 342.493C402.859 342.523 402.857 342.553 402.856 342.585C402.844 342.827 402.8 343.048 402.74 343.337C402.641 343.816 402.949 344.285 403.428 344.383C403.907 344.482 404.375 344.174 404.474 343.695L404.478 343.676C404.535 343.402 404.605 343.061 404.624 342.672C404.626 342.641 404.627 342.609 404.629 342.576C404.643 342.315 404.658 342.022 404.638 341.699C404.652 341.343 404.627 341.011 404.557 340.677C404.377 339.506 403.934 338.271 403.28 337.252C402.638 336.255 401.826 335.386 400.966 334.772C400.158 334.196 399.355 333.742 398.512 333.376L398.504 333.373L398.504 333.373C396.895 332.694 395.322 332.353 393.906 332.061Z" fill="#2A1C28"/>
<path d="M302.097 266.341C302.316 266.325 302.472 266.203 302.569 266.031C302.658 265.749 302.524 265.43 302.297 265.337L300.032 264.462C299.751 264.373 299.431 264.507 299.338 264.734C299.249 265.015 299.383 265.335 299.61 265.428L301.875 266.303C301.933 266.354 302.043 266.345 302.097 266.341Z" fill="#2A1C28"/>
<path fill-rule="evenodd" clip-rule="evenodd" d="M325.583 256.115C325.637 255.63 326.075 255.28 326.561 255.334L329.499 255.664C329.985 255.718 330.335 256.156 330.28 256.642C330.226 257.128 329.788 257.478 329.302 257.423L326.364 257.094C325.878 257.039 325.528 256.601 325.583 256.115Z" fill="#2A1C28"/>
<path fill-rule="evenodd" clip-rule="evenodd" d="M317.258 256.739C317.385 257.211 317.104 257.697 316.632 257.823L313.775 258.587C313.303 258.713 312.818 258.433 312.692 257.96C312.565 257.488 312.846 257.003 313.318 256.876L316.175 256.113C316.647 255.986 317.132 256.267 317.258 256.739Z" fill="#2A1C28"/>
<path fill-rule="evenodd" clip-rule="evenodd" d="M327.766 258.206C327.001 258.263 326.444 258.909 326.502 259.675C326.559 260.44 327.205 260.996 327.971 260.939C328.736 260.882 329.292 260.235 329.235 259.47C329.178 258.704 328.531 258.148 327.766 258.206Z" fill="#2A1C28"/>
<path fill-rule="evenodd" clip-rule="evenodd" d="M316.012 259.086C315.247 259.144 314.691 259.79 314.748 260.555C314.805 261.321 315.452 261.877 316.217 261.82C316.983 261.762 317.539 261.116 317.481 260.351C317.424 259.585 316.778 259.029 316.012 259.086Z" fill="#2A1C28"/>
<path fill-rule="evenodd" clip-rule="evenodd" d="M301.826 254.652C301.826 254.652 302.756 267.062 303.178 272.692C303.436 276.137 311.442 282.463 319.699 284.813C329.079 287.464 332.332 281.723 331.886 275.764C331.488 270.461 330.647 259.969 330.647 259.969L329.373 268.64C329.373 268.64 324.472 265.599 315.071 269.272C310.106 271.239 308.775 268.15 308.775 268.15L303.239 254.436L301.826 254.652Z" fill="#814A2A"/>
<path d="M321.917 273.322C323.338 273.216 324.29 272.705 324.34 272.646C324.605 272.516 324.69 272.18 324.56 271.915C324.43 271.65 324.094 271.565 323.829 271.695C323.669 271.762 320.079 273.735 316.643 269.704C316.463 269.498 316.13 269.468 315.869 269.652C315.663 269.833 315.578 270.169 315.817 270.426C317.936 273.016 320.222 273.449 321.917 273.322Z" fill="#2A1C28"/>
<path d="M326.118 268.499L320.556 268.366C320.278 268.332 320.043 268.13 320.019 267.802C320.053 267.524 320.251 267.235 320.583 267.265L325.322 267.404L322.586 258.044C322.511 257.774 322.65 257.434 322.974 257.355C323.244 257.28 323.584 257.419 323.663 257.743L326.616 267.802C326.683 267.962 326.641 268.13 326.543 268.302C326.438 268.365 326.282 268.487 326.118 268.499Z" fill="#2A1C28"/>
<path fill-rule="evenodd" clip-rule="evenodd" d="M332.015 240.075C331.804 242.4 331.799 240.861 334.327 244.52C334.578 244.941 334.729 245.479 334.766 245.971C334.913 247.939 333.447 249.643 331.478 249.791C330.166 249.889 328.965 249.265 328.282 248.216C326.744 249.706 324.732 250.736 322.436 250.908C317.68 251.265 313.532 248.002 312.591 243.51C302.715 245.239 306.109 261.918 306.109 261.918C306.109 261.918 299.402 261.925 297.915 263.356C297.915 263.356 295.745 261.54 296.08 257.941C296.709 250.198 297.89 248.35 297.89 248.35C297.923 244.389 304.865 242.385 306.211 239.81L332.015 240.075Z" fill="#814A2A"/>
<path fill-rule="evenodd" clip-rule="evenodd" d="M296.247 254.3L295.28 250.195C293.845 244.255 297.351 238.22 303.161 236.52L320.86 231.345C322.53 230.89 324.27 231.364 325.466 232.649L332.011 240.02C332.015 240.075 309.877 244.703 296.247 254.3Z" fill="#FCC670"/>
<path fill-rule="evenodd" clip-rule="evenodd" d="M329.854 237.653L316.24 241.587L313.062 237.317L326.192 233.529L329.854 237.653Z" fill="#D8912B"/>
<path fill-rule="evenodd" clip-rule="evenodd" d="M330.416 240.745C330.416 240.745 337.569 240.099 346.857 240.062C351.802 240.021 351.982 242.427 351.982 242.427L335.035 243.697L320.739 243.669L330.416 240.745Z" fill="#D8912B"/>
<path fill-rule="evenodd" clip-rule="evenodd" d="M309.969 246.675L332.383 244.995C332.383 244.995 336.245 242.232 340.338 241.1C344.431 239.969 345.377 240.118 347.404 240.021L331.427 239.569C331.427 239.569 323.881 240.849 319.707 242.372C314.789 244.225 309.969 246.675 309.969 246.675Z" fill="#FCC670"/>
<path fill-rule="evenodd" clip-rule="evenodd" d="M311.65 365.693L274.913 349.74C274.913 349.74 254.465 340.844 263.736 367.834L309.649 382.678L311.65 365.693Z" fill="#CC7544"/>
<path fill-rule="evenodd" clip-rule="evenodd" d="M266.042 368.643L260.549 367.11C253.374 365.103 249.571 357.279 252.413 350.398L264.345 321.538L285.97 331.048L266.042 368.643Z" fill="#CC7544"/>
<path d="M257.243 332.359C263.095 310.596 277.707 293.414 284.926 296.146C292.878 297.421 297.717 314.984 299.143 323.607L284.9 345.718L271.072 339.038L257.243 332.359Z" fill="#FCC670"/>
<path fill-rule="evenodd" clip-rule="evenodd" d="M287.608 299.989C287.534 300.222 287.664 300.471 287.897 300.544C291.513 301.686 293.504 305.01 294.502 308.847C295.488 312.64 295.47 316.821 295.144 319.538L283.003 344.233C282.895 344.452 282.986 344.717 283.205 344.825C283.425 344.933 283.69 344.842 283.798 344.623L296.004 319.794L296.013 319.72C296.357 316.927 296.389 312.588 295.359 308.625C294.331 304.671 292.211 300.978 288.163 299.7C287.93 299.627 287.682 299.756 287.608 299.989Z" fill="#D8912B"/>
<path fill-rule="evenodd" clip-rule="evenodd" d="M263.001 355.661C267.448 351.678 273.157 350.946 275.422 351.077C275.667 351.091 275.876 350.905 275.89 350.661C275.904 350.417 275.718 350.208 275.474 350.194C273.042 350.053 267.079 350.82 262.411 355.002C262.229 355.165 262.213 355.445 262.376 355.627C262.539 355.809 262.819 355.824 263.001 355.661Z" fill="#2A1C28"/>
<path fill-rule="evenodd" clip-rule="evenodd" d="M426.941 623.994C424.679 624.129 418.55 623.994 400.846 629.153C384.673 633.164 372.199 638.771 368.977 639.776C364.634 641.167 359.227 647.328 371.906 645.194C387.932 642.491 417.972 633.733 425.547 630.45C431.626 627.808 436.075 623.464 426.941 623.994Z" fill="#2A1C28"/>
<path d="M276.471 610.563C282.136 605.252 294.618 607.696 298.601 609.467V611.192C298.601 616.647 299.369 622.075 300.881 627.317L303.222 635.429C304.141 638.614 302.637 641.928 299.375 642.524C293.03 643.684 283.782 643.775 277.982 642.05C276.174 641.512 275.195 639.706 275.277 637.821L276.471 610.563Z" fill="#583652"/>
<path d="M293.29 642.874C303.028 641.989 303.913 639.333 303.47 636.677C308.073 644.468 296.536 645.825 290.192 645.53C275.32 645.53 273.815 641.104 275.143 638.891C276.147 642.874 287.241 643.022 293.29 642.874Z" fill="#2A1C28"/>
<path d="M296.388 404.304L276.913 596.842" stroke="#2C1A28" stroke-width="1.00286" stroke-linecap="round"/>
<path d="M310.109 404.747C309.077 408.435 304.621 416.609 295.061 419.796" stroke="#2C1A28" stroke-width="1.00286" stroke-linecap="round"/>
<path d="M334.011 457.861L364.109 613.219" stroke="#2C1A28" stroke-width="1.00286" stroke-linecap="round"/>
</svg>
