<svg width="55" height="55" viewBox="0 0 55 55" fill="none" xmlns="http://www.w3.org/2000/svg">
<path d="M13.7493 50.4165C12.4889 50.4165 11.4103 49.9681 10.5135 49.0713C9.61671 48.1745 9.16754 47.0951 9.16602 45.8332V22.9165C9.16602 21.6561 9.61518 20.5775 10.5135 19.6807C11.4118 18.7839 12.4905 18.3347 13.7493 18.3332H16.041V13.7498C16.041 10.5797 17.1586 7.87783 19.3937 5.64421C21.6289 3.4106 24.3307 2.29303 27.4993 2.29151C30.668 2.28998 33.3706 3.40755 35.6073 5.64421C37.8439 7.88088 38.9607 10.5828 38.9577 13.7498V18.3332H41.2494C42.5098 18.3332 43.5891 18.7823 44.4875 19.6807C45.3858 20.579 45.8342 21.6576 45.8327 22.9165V45.8332C45.8327 47.0936 45.3843 48.173 44.4875 49.0713C43.5907 49.9696 42.5113 50.418 41.2494 50.4165H13.7493ZM27.4993 38.9582C28.7598 38.9582 29.8391 38.5098 30.7375 37.613C31.6358 36.7162 32.0842 35.6368 32.0827 34.3748C32.0812 33.1129 31.6328 32.0343 30.7375 31.139C29.8422 30.2437 28.7628 29.7946 27.4993 29.7915C26.2359 29.7885 25.1573 30.2376 24.2635 31.139C23.3698 32.0404 22.9206 33.119 22.916 34.3748C22.9114 35.6307 23.3606 36.71 24.2635 37.613C25.1664 38.5159 26.245 38.9643 27.4993 38.9582ZM20.6243 18.3332H34.3743V13.7498C34.3743 11.8401 33.7059 10.2169 32.3691 8.88005C31.0323 7.54324 29.4091 6.87484 27.4993 6.87484C25.5896 6.87484 23.9664 7.54324 22.6296 8.88005C21.2928 10.2169 20.6243 11.8401 20.6243 13.7498V18.3332Z" fill="#ED5C18"/>
</svg>
