<svg width="55" height="55" viewBox="0 0 55 55" fill="none" xmlns="http://www.w3.org/2000/svg">
<path d="M8.59375 6.875C7.22623 6.875 5.91472 7.41825 4.94773 8.38523C3.98075 9.35222 3.4375 10.6637 3.4375 12.0312V41.25H51.5625V12.0312C51.5625 10.6637 51.0193 9.35222 50.0523 8.38523C49.0853 7.41825 47.7738 6.875 46.4062 6.875H8.59375ZM0 42.9688H55C55 44.3363 54.4568 45.6478 53.4898 46.6148C52.5228 47.5818 51.2113 48.125 49.8438 48.125H5.15625C3.78873 48.125 2.47722 47.5818 1.51023 46.6148C0.543246 45.6478 0 44.3363 0 42.9688Z" fill="#ED5C18"/>
</svg>
