<svg width="55" height="55" viewBox="0 0 55 55" fill="none" xmlns="http://www.w3.org/2000/svg">
<path d="M48.125 6.43745C48.125 6.19232 48.0623 5.95126 47.9429 5.73718C47.8234 5.5231 47.6513 5.34312 47.4427 5.21434C47.2341 5.08557 46.996 5.01227 46.7512 5.00141C46.5063 4.99056 46.2627 5.04251 46.0435 5.15233L23.0435 16.6523C22.805 16.7718 22.6045 16.9553 22.4644 17.1823C22.3242 17.4092 22.25 17.6707 22.25 17.9375V26.965L5.98325 32.3872C5.69712 32.4825 5.44822 32.6654 5.27176 32.9099C5.0953 33.1545 5.00023 33.4484 5 33.75V49.5625C5 49.9437 5.15145 50.3093 5.42103 50.5789C5.69062 50.8485 6.05625 51 6.4375 51H32.3125C32.6937 51 33.0594 50.8485 33.329 50.5789C33.5986 50.3093 33.75 49.9437 33.75 49.5625V45.25H36.625V49.5625C36.625 49.9437 36.7764 50.3093 37.046 50.5789C37.3156 50.8485 37.6813 51 38.0625 51H46.6875C47.0687 51 47.4344 50.8485 47.704 50.5789C47.9735 50.3093 48.125 49.9437 48.125 49.5625V6.43745ZM10.75 36.625H13.625V39.5H10.75V36.625ZM16.5 36.625H19.375V39.5H16.5V36.625ZM13.625 42.375V45.25H10.75V42.375H13.625ZM16.5 42.375H19.375V45.25H16.5V42.375ZM42.375 13.625V16.5H39.5V13.625H42.375ZM28 19.375H30.875V22.25H28V19.375ZM30.875 25.125V28H28V25.125H30.875ZM28 30.875H30.875V33.75H28V30.875ZM33.75 30.875H36.625V33.75H33.75V30.875ZM30.875 36.625V39.5H28V36.625H30.875ZM33.75 36.625H36.625V39.5H33.75V36.625ZM42.375 30.875V33.75H39.5V30.875H42.375ZM39.5 36.625H42.375V39.5H39.5V36.625ZM33.75 25.125H36.625V28H33.75V25.125ZM42.375 25.125V28H39.5V25.125H42.375ZM36.625 19.375V22.25H33.75V19.375H36.625ZM39.5 19.375H42.375V22.25H39.5V19.375Z" fill="#ED5C18"/>
</svg>
