<svg width="55" height="55" viewBox="0 0 55 55" fill="none" xmlns="http://www.w3.org/2000/svg">
<path d="M37.8555 37.8147C38.2565 37.5031 38.6209 37.1387 39.3474 36.4122L48.4155 27.3418C48.6355 27.1241 48.5347 26.746 48.2436 26.6428C46.8235 26.1506 45.5348 25.3401 44.4761 24.2733C43.4093 23.2146 42.5988 21.9259 42.1065 20.5058C42.0034 20.2147 41.6253 20.1139 41.4076 20.3339L32.3349 29.402C31.6084 30.1285 31.244 30.4928 30.9324 30.8939C30.5611 31.369 30.2464 31.8778 29.9882 32.4201C29.7705 32.8785 29.6078 33.3689 29.2824 34.3451L28.8607 35.6056L28.1915 37.6108L27.5659 39.4899C27.4879 39.7255 27.4769 39.978 27.5341 40.2195C27.5914 40.4609 27.7146 40.6816 27.89 40.8571C28.0655 41.0325 28.2862 41.1557 28.5276 41.213C28.7691 41.2702 29.0216 41.2592 29.2572 41.1812L31.1363 40.5556L33.1415 39.8864L34.402 39.4647C35.3782 39.1393 35.8686 38.9789 36.327 38.7589C36.8693 38.4992 37.3804 38.1844 37.8555 37.8147ZM51.2572 24.5024C52.1868 23.5725 52.7089 22.3114 52.7087 20.9965C52.7085 19.6816 52.1859 18.4207 51.256 17.4911C50.3261 16.5615 49.065 16.0393 47.7501 16.0396C46.4352 16.0398 45.1743 16.5623 44.2447 17.4922L43.9559 17.7856C43.8165 17.9219 43.7127 18.0903 43.6536 18.2761C43.5944 18.4619 43.5818 18.6594 43.6168 18.8512C43.6626 19.0964 43.7428 19.4585 43.8918 19.887C44.1897 20.7464 44.7534 21.8739 45.8145 22.9349C46.8755 23.996 48.003 24.5597 48.8624 24.8576C49.2932 25.0066 49.653 25.0868 49.8982 25.1326C50.09 25.1656 50.2869 25.152 50.4724 25.093C50.6578 25.034 50.8264 24.9312 50.9638 24.7935L51.2572 24.5024Z" fill="#ED5C18"/>
<path fill-rule="evenodd" clip-rule="evenodd" d="M9.56083 7.26933C6.875 9.95287 6.875 14.275 6.875 22.9168V32.0835C6.875 40.7254 6.875 45.0475 9.56083 47.731C12.2467 50.4145 16.5665 50.4168 25.2083 50.4168H29.7917C38.4335 50.4168 42.7556 50.4168 45.4392 47.731C48.0815 45.091 48.125 40.8652 48.125 32.496L41.6671 38.9539C41.0483 39.5727 40.5419 40.0791 39.9712 40.526C39.3019 41.0502 38.5764 41.4983 37.8079 41.862C37.1046 42.1784 36.3821 42.4502 35.6446 42.6756L30.3463 44.4425C29.5052 44.7229 28.6026 44.7637 27.7397 44.56C26.8768 44.3564 26.0876 43.9164 25.4607 43.2895C24.8337 42.6626 24.3938 41.8734 24.1901 41.0105C23.9865 40.1476 24.0272 39.245 24.3077 38.4039L24.9356 36.5247L26.0242 33.2568L26.0723 33.1056C26.3496 32.276 26.5765 31.5977 26.8881 30.9422C27.2548 30.1722 27.7001 29.4519 28.2242 28.7812C28.671 28.2083 29.1775 27.7041 29.7963 27.0854L38.9767 17.9027L41.525 15.3543L41.816 15.0633C42.5948 14.2822 43.5203 13.6628 44.5393 13.2408C45.5584 12.8188 46.6508 12.6025 47.7537 12.6043C47.4077 10.2439 46.7362 8.56412 45.4392 7.26933C42.7556 4.5835 38.4335 4.5835 29.7917 4.5835H25.2083C16.5665 4.5835 12.2444 4.5835 9.56083 7.26933ZM16.6146 20.6252C16.6146 20.1693 16.7957 19.7322 17.118 19.4098C17.4403 19.0875 17.8775 18.9064 18.3333 18.9064H33.2292C33.685 18.9064 34.1222 19.0875 34.4445 19.4098C34.7668 19.7322 34.9479 20.1693 34.9479 20.6252C34.9479 21.081 34.7668 21.5182 34.4445 21.8405C34.1222 22.1628 33.685 22.3439 33.2292 22.3439H18.3333C17.8775 22.3439 17.4403 22.1628 17.118 21.8405C16.7957 21.5182 16.6146 21.081 16.6146 20.6252ZM16.6146 29.7918C16.6146 29.336 16.7957 28.8988 17.118 28.5765C17.4403 28.2542 17.8775 28.0731 18.3333 28.0731H24.0625C24.5183 28.0731 24.9555 28.2542 25.2778 28.5765C25.6002 28.8988 25.7812 29.336 25.7812 29.7918C25.7812 30.2477 25.6002 30.6848 25.2778 31.0072C24.9555 31.3295 24.5183 31.5106 24.0625 31.5106H18.3333C17.8775 31.5106 17.4403 31.3295 17.118 31.0072C16.7957 30.6848 16.6146 30.2477 16.6146 29.7918ZM16.6146 38.9585C16.6146 38.5027 16.7957 38.0655 17.118 37.7432C17.4403 37.4208 17.8775 37.2397 18.3333 37.2397H21.7708C22.2267 37.2397 22.6638 37.4208 22.9862 37.7432C23.3085 38.0655 23.4896 38.5027 23.4896 38.9585C23.4896 39.4143 23.3085 39.8515 22.9862 40.1738C22.6638 40.4962 22.2267 40.6772 21.7708 40.6772H18.3333C17.8775 40.6772 17.4403 40.4962 17.118 40.1738C16.7957 39.8515 16.6146 39.4143 16.6146 38.9585Z" fill="#ED5C18"/>
</svg>
