<svg width="55" height="55" viewBox="0 0 55 55" fill="none" xmlns="http://www.w3.org/2000/svg">
<path d="M27.4995 35.521C25.3723 35.521 23.3321 34.6759 21.8279 33.1718C20.3237 31.6676 19.4787 29.6274 19.4787 27.5002C19.4787 25.3729 20.3237 23.3328 21.8279 21.8286C23.3321 20.3244 25.3723 19.4793 27.4995 19.4793C29.6268 19.4793 31.6669 20.3244 33.1711 21.8286C34.6753 23.3328 35.5203 25.3729 35.5203 27.5002C35.5203 29.6274 34.6753 31.6676 33.1711 33.1718C31.6669 34.6759 29.6268 35.521 27.4995 35.521ZM44.5266 29.7231C44.6183 28.9897 44.687 28.2564 44.687 27.5002C44.687 26.7439 44.6183 25.9877 44.5266 25.2085L49.362 21.4731C49.7974 21.1293 49.912 20.5106 49.637 20.0064L45.0537 12.0773C44.7787 11.5731 44.1599 11.3668 43.6558 11.5731L37.9495 13.8647C36.7578 12.971 35.5203 12.1918 34.0766 11.6189L33.2287 5.546C33.1821 5.27608 33.0415 5.03135 32.8318 4.85518C32.6221 4.67901 32.3567 4.58276 32.0828 4.5835H22.9162C22.3433 4.5835 21.862 4.996 21.7703 5.546L20.9224 11.6189C19.4787 12.1918 18.2412 12.971 17.0495 13.8647L11.3433 11.5731C10.8391 11.3668 10.2203 11.5731 9.94534 12.0773L5.36201 20.0064C5.06409 20.5106 5.20159 21.1293 5.63701 21.4731L10.4724 25.2085C10.3808 25.9877 10.312 26.7439 10.312 27.5002C10.312 28.2564 10.3808 28.9897 10.4724 29.7231L5.63701 33.5272C5.20159 33.871 5.06409 34.4897 5.36201 34.9939L9.94534 42.9231C10.2203 43.4272 10.8391 43.6106 11.3433 43.4272L17.0495 41.1127C18.2412 42.0293 19.4787 42.8085 20.9224 43.3814L21.7703 49.4543C21.862 50.0043 22.3433 50.4168 22.9162 50.4168H32.0828C32.6558 50.4168 33.137 50.0043 33.2287 49.4543L34.0766 43.3814C35.5203 42.7856 36.7578 42.0293 37.9495 41.1127L43.6558 43.4272C44.1599 43.6106 44.7787 43.4272 45.0537 42.9231L49.637 34.9939C49.912 34.4897 49.7974 33.871 49.362 33.5272L44.5266 29.7231Z" fill="#DF6D27"/>
</svg>
