<svg width="55" height="55" viewBox="0 0 55 55" fill="none" xmlns="http://www.w3.org/2000/svg">
<path d="M9.16732 50.4163C7.9069 50.4163 6.82829 49.9679 5.93148 49.0711C5.03468 48.1743 4.58551 47.0949 4.58398 45.833V25.8955C4.58398 24.9788 4.83225 24.1386 5.32878 23.3747C5.8253 22.6108 6.5128 22.0379 7.39128 21.6559L17.4173 17.4163C18.1812 17.1108 18.9069 17.1681 19.5944 17.5882C20.2819 18.0084 20.6257 18.6386 20.6257 19.4788V20.6247L28.9329 17.3018C29.6968 16.9962 30.4126 17.0726 31.0802 17.5309C31.7479 17.9893 32.0825 18.6195 32.084 19.4215V22.9163H50.4173V45.833C50.4173 47.0934 49.9689 48.1728 49.0721 49.0711C48.1753 49.9695 47.0959 50.4179 45.834 50.4163H9.16732ZM25.209 41.2497H29.7923V32.083H25.209V41.2497ZM16.0423 41.2497H20.6257V32.083H16.0423V41.2497ZM34.3756 41.2497H38.959V32.083H34.3756V41.2497ZM49.959 19.4788H39.36L41.0215 6.58822C41.0979 6.0153 41.3561 5.53787 41.7961 5.15592C42.2361 4.77398 42.7418 4.58301 43.3131 4.58301H46.1204C46.6934 4.58301 47.1899 4.77398 47.61 5.15592C48.0302 5.53787 48.2784 6.0153 48.3548 6.58822L49.959 19.4788Z" fill="#ED5C18"/>
</svg>
