<svg width="55" height="55" viewBox="0 0 55 55" fill="none" xmlns="http://www.w3.org/2000/svg">
<path d="M11.4583 7.448C9.78692 7.448 8.18396 8.11197 7.00209 9.29384C5.82022 10.4757 5.15625 12.0787 5.15625 13.7501V34.3751C5.15625 36.0465 5.82022 37.6495 7.00209 38.8313C8.18396 40.0132 9.78692 40.6772 11.4583 40.6772H25.7812V44.1147H20.625C20.1692 44.1147 19.732 44.2957 19.4097 44.6181C19.0873 44.9404 18.9062 45.3776 18.9062 45.8334C18.9062 46.2893 19.0873 46.7264 19.4097 47.0488C19.732 47.3711 20.1692 47.5522 20.625 47.5522H34.375C34.8308 47.5522 35.268 47.3711 35.5903 47.0488C35.9127 46.7264 36.0938 46.2893 36.0938 45.8334C36.0938 45.3776 35.9127 44.9404 35.5903 44.6181C35.268 44.2957 34.8308 44.1147 34.375 44.1147H29.2188V40.6772H43.5417C45.2131 40.6772 46.816 40.0132 47.9979 38.8313C49.1798 37.6495 49.8438 36.0465 49.8438 34.3751V13.7501C49.8438 12.0787 49.1798 10.4757 47.9979 9.29384C46.816 8.11197 45.2131 7.448 43.5417 7.448H11.4583Z" fill="#ED5C18"/>
</svg>
