<svg width="55" height="55" viewBox="0 0 55 55" fill="none" xmlns="http://www.w3.org/2000/svg">
<path d="M19.1401 46.3878C20.1374 47.6488 21.4081 48.6667 22.8563 49.3646C24.3046 50.0626 25.8925 50.4223 27.5001 50.4166C29.1078 50.4223 30.6957 50.0626 32.1439 49.3646C33.5922 48.6667 34.8629 47.6488 35.8601 46.3878C30.3121 47.1387 24.6882 47.1387 19.1401 46.3878ZM42.9689 20.6249V22.2383C42.9689 24.1747 43.5189 26.0676 44.5547 27.6787L47.0939 31.6272C49.4108 35.2343 47.6416 40.1362 43.6106 41.2751C33.0774 44.2581 21.9229 44.2581 11.3897 41.2751C7.35868 40.1362 5.58952 35.2343 7.90639 31.6272L10.4456 27.6787C11.4842 26.0543 12.0353 24.1663 12.0337 22.2383V20.6249C12.0337 11.7653 18.9591 4.58325 27.5001 4.58325C36.0412 4.58325 42.9689 11.7653 42.9689 20.6249Z" fill="#ED5C18"/>
</svg>
