<svg width="55" height="55" viewBox="0 0 55 55" fill="none" xmlns="http://www.w3.org/2000/svg">
<path d="M45.834 18.3332L27.5006 29.7915L9.16732 18.3332V13.7498L27.5006 25.2082L45.834 13.7498M45.834 9.1665H9.16732C6.62357 9.1665 4.58398 11.2061 4.58398 13.7498V41.2498C4.58398 42.4654 5.06687 43.6312 5.92641 44.4907C6.78595 45.3503 7.95174 45.8332 9.16732 45.8332H45.834C47.0496 45.8332 48.2153 45.3503 49.0749 44.4907C49.9344 43.6312 50.4173 42.4654 50.4173 41.2498V13.7498C50.4173 12.5343 49.9344 11.3685 49.0749 10.5089C48.2153 9.64939 47.0496 9.1665 45.834 9.1665Z" fill="#ED5C18"/>
</svg>
