<svg width="55" height="55" viewBox="0 0 55 55" fill="none" xmlns="http://www.w3.org/2000/svg">
<path fill-rule="evenodd" clip-rule="evenodd" d="M9.16602 9.1672L26.6547 5.88807C27.2129 5.7834 27.7858 5.7834 28.344 5.88807L45.8327 9.1672V30.4408C45.8327 37.1654 42.3685 43.4157 36.666 46.9797L28.7139 51.9497C27.9708 52.4142 27.0279 52.4142 26.2848 51.9497L18.3327 46.9797C12.6302 43.4157 9.16602 37.1654 9.16602 30.4408V9.1672Z" fill="#ED5C18"/>
<path fill-rule="evenodd" clip-rule="evenodd" d="M33.2285 25.208C34.4942 25.208 35.5202 26.234 35.5202 27.4997V34.3747C35.5202 35.6403 34.4942 36.6663 33.2285 36.6663H21.7702C20.5045 36.6663 19.4785 35.6403 19.4785 34.3747V27.4997C19.4785 26.234 20.5045 25.208 21.7702 25.208V24.0622C21.7702 20.898 24.3352 18.333 27.4993 18.333C30.6635 18.333 33.2285 20.898 33.2285 24.0622V25.208ZM27.4993 20.6247C25.6009 20.6247 24.0618 22.1637 24.0618 24.0622V25.208H30.9368V24.0622C30.9368 22.1637 29.3978 20.6247 27.4993 20.6247Z" fill="white"/>
</svg>
