<svg width="55" height="55" viewBox="0 0 55 55" fill="none" xmlns="http://www.w3.org/2000/svg">
<path fill-rule="evenodd" clip-rule="evenodd" d="M6.875 13.75C6.875 11.9266 7.59933 10.178 8.88864 8.88864C10.178 7.59933 11.9266 6.875 13.75 6.875H41.25C43.0734 6.875 44.822 7.59933 46.1114 8.88864C47.4007 10.178 48.125 11.9266 48.125 13.75V41.25C48.125 43.0734 47.4007 44.822 46.1114 46.1114C44.822 47.4007 43.0734 48.125 41.25 48.125H13.75C11.9266 48.125 10.178 47.4007 8.88864 46.1114C7.59933 44.822 6.875 43.0734 6.875 41.25V13.75ZM29.7917 18.3333C29.7917 17.7255 29.5502 17.1427 29.1205 16.7129C28.6907 16.2831 28.1078 16.0417 27.5 16.0417C26.8922 16.0417 26.3093 16.2831 25.8795 16.7129C25.4498 17.1427 25.2083 17.7255 25.2083 18.3333V36.6667C25.2083 37.2745 25.4498 37.8574 25.8795 38.2871C26.3093 38.7169 26.8922 38.9583 27.5 38.9583C28.1078 38.9583 28.6907 38.7169 29.1205 38.2871C29.5502 37.8574 29.7917 37.2745 29.7917 36.6667V18.3333ZM20.625 25.2083C20.625 24.6005 20.3836 24.0177 19.9538 23.5879C19.524 23.1581 18.9411 22.9167 18.3333 22.9167C17.7255 22.9167 17.1427 23.1581 16.7129 23.5879C16.2831 24.0177 16.0417 24.6005 16.0417 25.2083V36.6667C16.0417 37.2745 16.2831 37.8574 16.7129 38.2871C17.1427 38.7169 17.7255 38.9583 18.3333 38.9583C18.9411 38.9583 19.524 38.7169 19.9538 38.2871C20.3836 37.8574 20.625 37.2745 20.625 36.6667V25.2083ZM38.9583 32.0833C38.9583 31.4755 38.7169 30.8927 38.2871 30.4629C37.8574 30.0331 37.2745 29.7917 36.6667 29.7917C36.0589 29.7917 35.476 30.0331 35.0462 30.4629C34.6164 30.8927 34.375 31.4755 34.375 32.0833V36.6667C34.375 37.2745 34.6164 37.8574 35.0462 38.2871C35.476 38.7169 36.0589 38.9583 36.6667 38.9583C37.2745 38.9583 37.8574 38.7169 38.2871 38.2871C38.7169 37.8574 38.9583 37.2745 38.9583 36.6667V32.0833Z" fill="#ED5C18"/>
</svg>
