<svg width="55" height="55" viewBox="0 0 55 55" fill="none" xmlns="http://www.w3.org/2000/svg">
<path d="M26.6356 4.66084C26.5118 4.71355 10.7337 11.3227 10.7382 11.3204C10.7589 11.3136 10.7726 11.3525 10.8804 11.3204C10.9697 11.2975 10.9789 11.2883 11.2379 11.2494C11.2791 11.2448 11.3501 11.2517 11.3822 11.2494C10.2593 11.2792 9.16161 12.0446 9.16161 13.5411C9.16161 23.8834 9.5145 28.0931 11.3112 33.2357C13.6716 39.9915 18.3626 45.4296 26.3491 49.9924C27.0526 50.3957 27.9372 50.3957 28.6408 49.9924C36.6226 45.4319 41.3183 40.0534 43.6787 33.3067C45.4754 28.1734 45.8283 23.904 45.8283 13.6121C45.8283 12.6977 45.3081 11.8979 44.467 11.5358L28.4987 4.66084C27.9212 4.41334 27.2131 4.41563 26.6356 4.66084ZM34.3699 20.4871C34.9566 20.4871 35.5685 20.6841 36.0176 21.131C36.9114 22.0271 36.9114 23.5304 36.0176 24.4265L29.1426 31.3015C28.2466 32.1952 26.7433 32.1952 25.8472 31.3015L21.2639 26.7182C20.3702 25.8221 20.3702 24.3187 21.2639 23.4227C22.16 22.5289 23.6633 22.5289 24.5593 23.4227L27.4949 26.3606L32.7222 21.131C33.1714 20.6841 33.7833 20.4871 34.3699 20.4871Z" fill="#ED5C18"/>
</svg>
