<svg width="21" height="21" viewBox="0 0 21 21" fill="none" xmlns="http://www.w3.org/2000/svg">
<g clip-path="url(#clip0_1_2)">
<path d="M10.5 20.5C16.0228 20.5 20.5 16.0228 20.5 10.5C20.5 4.97715 16.0228 0.5 10.5 0.5C4.97715 0.5 0.5 4.97715 0.5 10.5C0.5 16.0228 4.97715 20.5 10.5 20.5Z" fill="white"/>
<path d="M10.5 20.5C16.0228 20.5 20.5 16.0228 20.5 10.5C20.5 4.97715 16.0228 0.5 10.5 0.5C4.97715 0.5 0.5 4.97715 0.5 10.5C0.5 16.0228 4.97715 20.5 10.5 20.5Z" fill="white" fill-opacity="0.2"/>
<path fill-rule="evenodd" clip-rule="evenodd" d="M15.8385 6.64286C16.1277 6.93214 16.1277 7.40115 15.8385 7.69043L9.91255 13.6164C9.62327 13.9056 9.15426 13.9056 8.86498 13.6164L5.90202 10.6534C5.61274 10.3641 5.61274 9.8951 5.90202 9.60582C6.19129 9.31655 6.6603 9.31655 6.94958 9.60582L9.38876 12.045L14.7909 6.64286C15.0802 6.35358 15.5492 6.35358 15.8385 6.64286Z" fill="#008000"/>
</g>
<rect x="0.5" y="0.5" width="20" height="20" rx="10" stroke="#008000"/>
<defs>
<clipPath id="clip0_1_2">
<rect x="0.5" y="0.5" width="20" height="20" rx="10" fill="white"/>
</clipPath>
</defs>
</svg>
