<svg width="53" height="55" viewBox="0 0 53 55" fill="none" xmlns="http://www.w3.org/2000/svg">
<path d="M22.8544 0.455566C19.8923 1.26918 17.0605 4.06799 16.5396 6.73663L16.3443 7.74551L11.7222 7.87568C7.84871 7.97332 6.8722 8.1035 5.50508 8.72184C3.55206 9.63308 2.31515 10.7396 1.17589 12.6923L0.29703 14.1567L0.199379 30.9822C0.101728 47.6124 0.134279 47.8402 0.817836 49.4674C1.20844 50.3461 2.1524 51.6804 2.96616 52.4289C5.66784 54.9023 5.08193 54.8372 20.9665 54.8372C36.7534 54.8372 36.2326 54.9023 38.8692 52.5266C39.6178 51.8431 40.4967 50.7692 40.8222 50.0857L41.4407 48.8816L40.2688 48.7189C39.1621 48.5236 38.9668 48.6212 37.9252 49.8579C35.7443 52.3964 35.8745 52.3964 20.9665 52.3964C7.91381 52.3964 7.75106 52.3964 6.31884 51.6479C4.33327 50.639 3.12891 49.0443 2.73831 46.7662C2.51045 45.5621 2.4128 39.6065 2.4779 30.1686L2.57555 15.4585L3.38931 13.994C3.84502 13.213 4.85408 12.1065 5.60274 11.5532L7.03495 10.5769L20.1853 10.4792C28.9088 10.4141 33.7588 10.5118 34.6376 10.7396C36.2977 11.1952 38.0229 12.6923 38.7715 14.352C39.2923 15.5562 39.39 15.6212 40.4641 15.426C41.1152 15.2958 41.6685 15.1656 41.7336 15.1331C42.0917 14.8076 40.1712 11.5207 39.0319 10.4467C36.493 8.1035 36.1024 8.00586 27.086 7.87568C21.5524 7.8106 19.0135 7.64787 19.0135 7.42006C19.0135 7.2248 19.3715 6.44373 19.8272 5.66267C20.4131 4.68634 21.1292 4.06799 22.3336 3.44965C24.0262 2.60349 24.0913 2.60349 31.6756 2.60349C40.3339 2.60349 41.05 2.76622 43.0031 4.97923C44.3702 6.54137 44.7282 7.94077 44.7282 11.7485C44.7282 14.7425 44.7608 14.9053 45.4769 15.1005C47.4625 15.6212 47.4299 15.6863 47.2672 11.1301C47.1044 6.37864 46.6162 4.81651 44.5655 2.76622C42.1242 0.325386 41.343 0.162666 32.3591 0.0975761C26.6303 0.0324898 23.9611 0.130123 22.8544 0.455566Z" fill="#3F4450"/>
<path d="M7.94629 18.2248V19.2012H16.5721H25.198V18.2248V17.2485H16.5721H7.94629V18.2248Z" fill="#3F4450"/>
<path d="M40.1713 17.8669C36.5908 18.9734 34.6378 21.5769 34.3774 25.6124L34.2146 27.9882H35.7445H37.2418V26.1006C37.2418 22.6834 39.1297 20.503 42.0918 20.503C45.1515 20.503 47.0069 22.5532 47.0069 25.9379V27.9882H48.4716H49.9364V26.1657C49.9364 23.3343 49.3505 21.8373 47.4951 19.9822C45.3794 17.8669 42.7428 17.0858 40.1713 17.8669Z" fill="#ED5C18"/>
<path d="M7.94629 27.0118V27.9882H14.6191H21.2919V27.0118V26.0355H14.6191H7.94629V27.0118Z" fill="#3F4450"/>
<path d="M32.0987 28.9645L31.3826 29.2574L31.4477 37.4911L31.5453 45.7249H42.1242H52.703L52.8007 37.5888C52.8658 30.2337 52.8332 29.4201 52.3124 29.0296C51.6614 28.5414 33.303 28.5089 32.0987 28.9645Z" fill="#ED5C18"/>
<path d="M7.94629 35.7988V36.7751H14.6191H21.2919V35.7988V34.8225H14.6191H7.94629V35.7988Z" fill="#3F4450"/>
<path d="M7.94629 44.5858V45.5621H16.5721H25.198V44.5858V43.6095H16.5721H7.94629V44.5858Z" fill="#3F4450"/>
</svg>
