<svg width="34" height="54" viewBox="0 0 34 54" fill="none" xmlns="http://www.w3.org/2000/svg">
<path d="M12.5261 19.5952C11.3468 20.5089 10.2237 21.493 9.16311 22.5422C8.61438 23.2142 8.25262 24.019 8.11434 24.8755C7.73817 26.9557 7.54055 29.0672 7.24759 31.1613C7.17204 31.7005 6.8881 32.1886 6.45672 32.5208C6.02533 32.853 5.48089 33.0028 4.94027 32.9381C4.66319 32.9151 4.39385 32.8351 4.14914 32.7031C3.90443 32.5712 3.68963 32.39 3.51823 32.1711C3.34684 31.9522 3.22254 31.7002 3.15312 31.4309C3.08371 31.1617 3.07069 30.881 3.11488 30.6065C3.43558 27.8606 3.79095 25.1217 4.12032 22.3775C4.24155 21.3282 4.77161 20.369 5.59554 19.7079C7.41226 18.172 9.20819 16.6084 11.0648 15.1193C12.8368 13.5922 15.1106 12.7736 17.4493 12.8207C18.2216 12.7812 18.9876 12.9774 19.6458 13.3832C20.3041 13.7891 20.8233 14.3855 21.1348 15.0933C22.0277 16.9693 22.7809 18.9086 23.3884 20.8954C23.6131 21.8262 24.0624 22.6878 24.697 23.4049C25.3316 24.122 26.1321 24.6728 27.0287 25.009C28.6114 25.6834 30.1491 26.4461 31.7092 27.1898C32.1893 27.4091 32.5643 27.8078 32.7539 28.3003C32.9435 28.7929 32.9325 29.3401 32.7234 29.8247C32.6254 30.0668 32.4786 30.2861 32.292 30.4688C32.1053 30.6515 31.883 30.7936 31.6389 30.8864C31.3948 30.9792 31.1342 31.0205 30.8733 31.0079C30.6125 30.9952 30.3571 30.9288 30.1231 30.8128C27.5765 29.6652 25.0144 28.5402 22.5493 27.2348C21.7487 26.6576 21.0631 25.9356 20.5281 25.1061C20.282 24.6744 19.999 24.2649 19.6821 23.8822C19.3354 25.5533 19.1066 27.2574 18.6212 28.8852C18.4169 29.5516 18.3769 30.2575 18.5045 30.9427C18.6322 31.628 18.9238 32.2721 19.3545 32.8202C22.6482 37.8648 25.843 42.9804 29.0622 48.0752C29.3036 48.3991 29.475 48.7697 29.5656 49.1634C29.6562 49.5571 29.6639 49.9654 29.5883 50.3622C29.5126 50.7591 29.3553 51.1358 29.1263 51.4686C28.8972 51.8014 28.6015 52.083 28.2579 52.2954C27.9142 52.5078 27.5302 52.6464 27.1301 52.7025C26.73 52.7586 26.3226 52.7308 25.9338 52.621C25.545 52.5112 25.1833 52.3218 24.8717 52.0648C24.56 51.8077 24.3052 51.4887 24.1234 51.1279C21.5335 47.0212 18.9228 42.9284 16.3225 38.8199C14.5145 35.9544 12.7047 33.0907 10.9486 30.194C10.6899 29.7264 10.5953 29.1857 10.6799 28.6581C11.2381 25.7336 11.8657 22.8126 12.5261 19.5952Z" fill="#ED5C18"/>
<path d="M26.6614 53.3865C26.0247 53.3722 25.4036 53.1878 24.8622 52.8525C24.3209 52.5172 23.8791 52.0432 23.5826 51.4796C22.2409 49.3532 20.8951 47.2279 19.5453 45.1038C18.2925 43.1275 17.0409 41.1513 15.7905 39.1751L15.709 39.0434C13.9564 36.2697 12.1431 33.3956 10.4131 30.537C10.0742 29.9344 9.95189 29.2339 10.0664 28.5521C10.4772 26.3575 10.9332 24.1767 11.4099 21.8694L11.5382 21.2506C10.8646 21.777 10.2318 22.3535 9.64515 22.9754C9.17487 23.5584 8.86636 24.2549 8.75066 24.995C8.51316 26.3055 8.34502 27.6594 8.18207 28.9699C8.08673 29.7327 7.98964 30.4954 7.88216 31.2564C7.78041 31.9608 7.40762 32.5976 6.84323 33.0312C6.27885 33.4648 5.56747 33.6608 4.86065 33.5776C4.50057 33.5439 4.15114 33.4371 3.83374 33.2637C3.51635 33.0903 3.23766 32.854 3.01472 32.5692C2.79177 32.2845 2.62924 31.9572 2.5371 31.6075C2.44495 31.2578 2.42512 30.8929 2.4788 30.5353C2.66602 28.9381 2.86075 27.3416 3.06299 25.7456C3.20514 24.5997 3.34901 23.4504 3.48596 22.3045C3.6274 21.0953 4.23581 19.9893 5.18135 19.2223C5.66789 18.8109 6.15327 18.3983 6.6375 17.9846C7.9463 16.8717 9.29672 15.7206 10.6645 14.6251C12.5496 12.9961 14.9725 12.125 17.4633 12.1808C18.3572 12.1394 19.2426 12.3712 20.0016 12.8453C20.7606 13.3194 21.3572 14.0133 21.7122 14.8348L21.9497 15.3722C22.7678 17.1033 23.455 18.8932 24.0056 20.727C24.2061 21.5649 24.6104 22.3403 25.1826 22.9844C25.7547 23.6286 26.477 24.1215 27.2854 24.4194C28.6081 24.9828 29.9204 25.6138 31.1858 26.224L31.9919 26.6123C32.6201 26.9046 33.1097 27.4301 33.3567 28.0775C33.6036 28.7248 33.5885 29.443 33.3146 30.0794C33.1825 30.3987 32.9867 30.6876 32.739 30.9285C32.4913 31.1695 32.197 31.3573 31.8742 31.4805C31.5514 31.6036 31.2068 31.6596 30.8616 31.6449C30.5164 31.6303 30.1778 31.5452 29.8666 31.3951L28.9201 30.9704C26.7151 29.9771 24.4338 28.9526 22.2565 27.7981C21.5311 27.3435 20.9121 26.7381 20.4415 26.0229C20.308 25.8496 20.1745 25.6762 20.0411 25.5029L20.0307 25.4907V25.5185C19.8333 26.7124 19.5711 27.8946 19.2454 29.0601C19.0684 29.6375 19.0357 30.2495 19.1503 30.8425C19.2648 31.4354 19.5231 31.9913 19.9024 32.4612C22.6344 36.6373 25.3317 40.9312 27.9424 45.0812L29.6083 47.73C29.9663 48.2612 30.1856 48.8736 30.2462 49.5113C30.3067 50.149 30.2066 50.7917 29.955 51.3808C29.7028 51.9112 29.3196 52.3686 28.8416 52.7098C28.3636 53.051 27.8066 53.2648 27.223 53.331C27.0375 53.3637 26.8497 53.3822 26.6614 53.3865ZM13.5282 17.891L13.1521 19.7251C12.9787 20.5433 12.8175 21.3424 12.6545 22.1295C12.1778 24.4316 11.7254 26.6054 11.318 28.7879C11.2604 29.1609 11.3262 29.5426 11.5052 29.8748C13.2301 32.723 15.0399 35.5954 16.789 38.369L16.8722 38.5008C18.1203 40.4793 19.3719 42.4549 20.627 44.4277C21.9757 46.5518 23.322 48.6777 24.6661 50.8053C24.8733 51.244 25.2153 51.605 25.6423 51.8355C26.0693 52.066 26.5588 52.1539 27.0393 52.0864C27.4104 52.0512 27.7663 51.9211 28.0727 51.7086C28.379 51.4961 28.6255 51.2083 28.7884 50.8729C28.9522 50.4788 29.0139 50.0497 28.9675 49.6254C28.9211 49.2011 28.7683 48.7954 28.5231 48.446L26.8555 45.7954C24.2552 41.6489 21.5544 37.3601 18.8293 33.1945C18.3508 32.5669 18.0277 31.8349 17.8864 31.0585C17.7451 30.282 17.7896 29.4832 18.0163 28.7272C18.3283 27.6062 18.5794 26.469 18.7687 25.3209C18.8623 24.8008 18.9593 24.2912 19.0633 23.7798L19.2922 22.6651L20.126 23.44C20.3943 23.7041 20.6185 24.0097 20.7899 24.3449C20.859 24.4784 20.939 24.606 21.0292 24.7263C21.1748 24.8996 21.3152 25.0868 21.4573 25.2723C21.8252 25.8338 22.2999 26.3174 22.8546 26.6955C24.9972 27.831 27.2577 28.8468 29.4419 29.8297L30.3884 30.2562C30.5453 30.3364 30.7172 30.3829 30.8931 30.3926C31.069 30.4023 31.245 30.3752 31.4098 30.3128C31.5745 30.2504 31.7244 30.1542 31.8497 30.0304C31.9751 29.9066 32.0731 29.758 32.1375 29.594C32.2819 29.2615 32.2887 28.8853 32.1565 28.5478C32.0243 28.2103 31.7638 27.9388 31.432 27.7929L30.6259 27.4045C29.3708 26.7996 28.0759 26.1755 26.781 25.6225C25.7904 25.2494 24.9063 24.6391 24.2061 23.8453C23.5059 23.0514 23.0109 22.098 22.7644 21.0685C22.2291 19.2975 21.5633 17.5685 20.7726 15.8957L20.5351 15.3566C20.2721 14.7592 19.8315 14.2571 19.2733 13.9188C18.715 13.5804 18.0661 13.4221 17.4148 13.4653C15.229 13.4243 13.1054 14.1937 11.4532 15.6253C10.1011 16.707 8.75759 17.8529 7.46612 18.9606C6.97958 19.3755 6.49246 19.7892 6.00477 20.2018C5.30583 20.7578 4.85577 21.5682 4.75317 22.4554C4.61448 23.6053 4.47291 24.7546 4.32845 25.9033C4.13083 27.4964 3.93321 29.0895 3.74772 30.6826C3.71424 30.8739 3.72129 31.0701 3.76842 31.2584C3.81555 31.4468 3.90173 31.6232 4.02135 31.7761C4.14097 31.9291 4.29137 32.0552 4.46282 32.1463C4.63428 32.2375 4.82296 32.2916 5.01666 32.3052C5.39052 32.3482 5.76636 32.2434 6.064 32.0131C6.36164 31.7828 6.5575 31.4453 6.60976 31.0727C6.71724 30.3203 6.81259 29.5645 6.9062 28.8087C7.07955 27.4808 7.2425 26.1079 7.48693 24.7644C7.64342 23.7901 8.05894 22.8759 8.68999 22.1173C9.39829 21.3712 10.1627 20.6804 10.9765 20.051C11.3405 19.7528 11.7184 19.4442 12.1102 19.1097L13.5282 17.891Z" fill="#ED5C18"/>
<path d="M9.75241 33.934C11.0612 35.6831 12.2677 37.2901 13.4587 38.9092C13.5106 38.9881 13.5458 39.0768 13.5622 39.1698C13.5786 39.2628 13.5758 39.3582 13.554 39.4501C13.2553 41.212 12.6203 42.8999 11.6835 44.4218C9.85988 46.717 8.17491 49.1214 6.42059 51.472C6.23885 51.7926 5.99101 52.071 5.69353 52.2886C5.39604 52.5061 5.05571 52.658 4.69508 52.7341C4.33445 52.8101 3.96177 52.8086 3.60175 52.7297C3.24173 52.6508 2.9026 52.4963 2.60685 52.2764C2.31363 52.0545 2.07008 51.7738 1.89187 51.4522C1.71365 51.1306 1.60471 50.7753 1.57206 50.409C1.5394 50.0428 1.58376 49.6738 1.70226 49.3258C1.82077 48.9777 2.0108 48.6583 2.26015 48.3881C3.92086 46.1345 5.61277 43.8931 7.24921 41.617C7.61793 41.0883 7.89728 40.5027 8.07609 39.8835C8.64815 37.9835 9.15608 36.0645 9.75241 33.934Z" fill="#ED5C18"/>
<path d="M4.13277 53.4486C3.44363 53.4386 2.77566 53.209 2.22591 52.7934C1.89076 52.5603 1.6062 52.2618 1.38933 51.916C1.17246 51.5701 1.02776 51.184 0.963912 50.7807C0.902699 50.2903 0.939521 49.7925 1.07224 49.3164C1.20497 48.8402 1.43094 48.3952 1.73706 48.0071C2.33223 47.1981 2.93087 46.3892 3.53298 45.5802C4.58522 44.1622 5.67561 42.6974 6.72092 41.2464C7.04792 40.7747 7.29615 40.2531 7.45593 39.7018C7.86504 38.3514 8.23948 36.9889 8.63645 35.5414L9.13744 33.7559L9.48415 32.5043L11.0755 34.6313C12.0792 35.973 13.0327 37.2437 13.974 38.523C14.0855 38.6828 14.1605 38.8653 14.1934 39.0573C14.2264 39.2494 14.2166 39.4464 14.1646 39.6342C14.0312 40.0624 13.9219 40.501 13.8075 40.9517C13.5575 42.3431 13.0028 43.6621 12.1832 44.814C10.9698 46.3429 9.78925 47.9551 8.65032 49.5118C8.08 50.2919 7.50967 51.072 6.93241 51.8486C6.62559 52.3177 6.21183 52.7074 5.72515 52.9855C5.23846 53.2637 4.69272 53.4224 4.13277 53.4486ZM10.0267 35.3611L9.88459 35.8812C9.48414 37.3321 9.10624 38.7033 8.6954 40.0676C8.49443 40.7543 8.18294 41.4036 7.77317 41.9901C6.72093 43.4532 5.62881 44.9232 4.5731 46.3447C3.97445 47.1536 3.37696 47.9626 2.78063 48.7716C2.57592 49.0242 2.42307 49.3146 2.33085 49.6264C2.23864 49.9381 2.20887 50.265 2.24325 50.5883C2.28194 50.8241 2.36791 51.0496 2.49602 51.2513C2.62412 51.453 2.7917 51.6267 2.98866 51.7619C3.21778 51.9312 3.48074 52.0491 3.7596 52.1075C4.03845 52.1659 4.32661 52.1634 4.60441 52.1002C4.88222 52.037 5.14311 51.9146 5.36927 51.7413C5.59542 51.5681 5.78151 51.348 5.91483 51.0962C6.49267 50.3242 7.06357 49.5482 7.62754 48.7681C8.7734 47.208 9.95914 45.5802 11.1917 44.0287C11.8941 43.0167 12.3674 41.8637 12.5785 40.6501C12.6894 40.2063 12.8038 39.7486 12.946 39.2962V39.2667C12.0237 38.0169 11.0738 36.7479 10.0718 35.4097L10.0267 35.3611Z" fill="#ED5C18"/>
<path d="M24.8758 6.12025C24.8767 7.10294 24.5853 8.06371 24.0386 8.88029C23.4919 9.69687 22.7146 10.3324 21.8057 10.7059C20.8967 11.0794 19.8972 11.1741 18.9343 10.9779C17.9714 10.7817 17.0886 10.3035 16.3983 9.6041C15.708 8.90471 15.2413 8.01577 15.0577 7.05037C14.8741 6.08499 14.9818 5.08679 15.3672 4.1828C15.7525 3.27882 16.3981 2.50991 17.2217 1.9739C18.0454 1.4379 19.0099 1.15903 19.9925 1.17279C21.2912 1.19676 22.529 1.7277 23.4415 2.65217C24.354 3.57664 24.8688 4.82131 24.8758 6.12025Z" fill="#3F4450"/>
<path d="M19.9266 11.7317C18.4397 11.7153 17.0192 11.1133 15.9733 10.0563C14.9274 8.99933 14.3403 7.57262 14.3395 6.08562C14.3432 4.60244 14.9359 3.18147 15.9872 2.13531C17.0386 1.08914 18.4625 0.50348 19.9457 0.507158C21.4289 0.510836 22.8498 1.10355 23.896 2.15492C24.9422 3.20629 25.5278 4.63018 25.5241 6.11336C25.5251 7.59862 24.9375 9.02374 23.89 10.0767C22.8425 11.1297 21.4205 11.7248 19.9353 11.7317H19.9266ZM19.9422 1.8073C18.8008 1.80995 17.7063 2.26171 16.8953 3.06489C16.0844 3.86808 15.6221 4.95817 15.6084 6.09949C15.6137 7.24466 16.0682 8.34202 16.8741 9.15567C17.6799 9.96931 18.7729 10.4343 19.9179 10.4506C21.0631 10.4442 22.1592 9.98478 22.9667 9.17273C23.7742 8.36068 24.2275 7.26202 24.2275 6.11682C24.2244 4.98558 23.7776 3.90071 22.9831 3.09547C22.1885 2.29022 21.1097 1.82893 19.9786 1.81077L19.9422 1.8073Z" fill="#3F4450"/>
</svg>
