<svg width="24" height="24" viewBox="0 0 24 24" fill="none" xmlns="http://www.w3.org/2000/svg">
<path fill-rule="evenodd" clip-rule="evenodd" d="M2 6.66663C2 6.13619 2.21071 5.62749 2.58579 5.25241C2.96086 4.87734 3.46957 4.66663 4 4.66663H20C20.5304 4.66663 21.0391 4.87734 21.4142 5.25241C21.7893 5.62749 22 6.13619 22 6.66663V17.3333C22 17.8637 21.7893 18.3724 21.4142 18.7475C21.0391 19.1226 20.5304 19.3333 20 19.3333H4C3.46957 19.3333 2.96086 19.1226 2.58579 18.7475C2.21071 18.3724 2 17.8637 2 17.3333V6.66663ZM6 9.99996C6 9.29272 6.28095 8.61444 6.78105 8.11434C7.28115 7.61424 7.95942 7.33329 8.66667 7.33329C9.37391 7.33329 10.0522 7.61424 10.5523 8.11434C11.0524 8.61444 11.3333 9.29272 11.3333 9.99996C11.3333 10.7072 11.0524 11.3855 10.5523 11.8856C10.0522 12.3857 9.37391 12.6666 8.66667 12.6666C7.95942 12.6666 7.28115 12.3857 6.78105 11.8856C6.28095 11.3855 6 10.7072 6 9.99996ZM18 9.99996H14V8.66663H18V9.99996ZM18 14H14V12.6666H18V14ZM8.66667 14C7.94199 14.0004 7.23172 14.2024 6.61527 14.5834C5.99883 14.9644 5.5005 15.5093 5.176 16.1573L4.736 17.0346C4.68502 17.1364 4.66093 17.2495 4.66602 17.3631C4.67112 17.4768 4.70523 17.5873 4.76511 17.6841C4.82499 17.7809 4.90865 17.8607 5.00811 17.916C5.10757 17.9713 5.21954 18.0002 5.33333 18H12C12.1137 18 12.2255 17.9709 12.3248 17.9155C12.424 17.8601 12.5075 17.7803 12.5672 17.6835C12.627 17.5868 12.661 17.4764 12.666 17.3628C12.671 17.2492 12.6469 17.1363 12.596 17.0346L12.1573 16.1573C11.8328 15.5093 11.3345 14.9644 10.7181 14.5834C10.1016 14.2024 9.39134 14.0004 8.66667 14Z" fill="#ED5C18"/>
</svg>
