<svg width="24" height="24" viewBox="0 0 24 24" fill="none" xmlns="http://www.w3.org/2000/svg">
<path d="M13.7122 3.37791C15.464 3.37791 16.7087 3.37974 17.653 3.50651C18.5762 3.63052 19.109 3.86385 19.4976 4.25242C19.8862 4.64099 20.1195 5.17378 20.2435 6.0979C20.3703 7.04222 20.3721 8.28601 20.3721 10.0378C20.3721 10.2205 20.4447 10.3958 20.5739 10.525C20.7031 10.6542 20.8783 10.7267 21.061 10.7267C21.2438 10.7267 21.419 10.6542 21.5482 10.525C21.6774 10.3958 21.75 10.2205 21.75 10.0378V9.98635C21.75 8.29795 21.75 6.96047 21.6095 5.91417C21.4643 4.83757 21.1593 3.96581 20.4722 3.27778C19.7842 2.59066 18.9124 2.28569 17.8358 2.14055C16.7886 2 15.452 2 13.7637 2H13.7122C13.5295 2 13.3542 2.07259 13.225 2.20179C13.0958 2.33099 13.0233 2.50623 13.0233 2.68895C13.0233 2.87168 13.0958 3.04691 13.225 3.17612C13.3542 3.30532 13.5295 3.37791 13.7122 3.37791ZM9.98635 2H10.0378C10.2205 2 10.3958 2.07259 10.525 2.20179C10.6542 2.33099 10.7267 2.50623 10.7267 2.68895C10.7267 2.87168 10.6542 3.04691 10.525 3.17612C10.3958 3.30532 10.2205 3.37791 10.0378 3.37791C8.28601 3.37791 7.04222 3.37974 6.09698 3.50651C5.17378 3.63052 4.64099 3.86385 4.25242 4.25242C3.86385 4.64099 3.63052 5.17378 3.50651 6.09698C3.37974 7.04222 3.37791 8.28601 3.37791 10.0378C3.37791 10.2205 3.30532 10.3958 3.17612 10.525C3.04691 10.6542 2.87168 10.7267 2.68895 10.7267C2.50623 10.7267 2.33099 10.6542 2.20179 10.525C2.07259 10.3958 2 10.2205 2 10.0378V9.98635C2 8.29795 2 6.96047 2.14055 5.91417C2.28569 4.83757 2.59066 3.96581 3.27778 3.27778C3.96581 2.59066 4.83757 2.28569 5.91417 2.14055C6.96138 2 8.29795 2 9.98635 2Z" fill="#ED5C18"/>
<path d="M5.92893 5.92893C5.44482 6.41303 5.44482 7.19293 5.44482 8.7518C5.44482 9.79074 5.44482 10.3107 5.76725 10.634C6.0906 10.9565 6.61145 10.9565 7.64948 10.9565H8.7518C9.79074 10.9565 10.3107 10.9565 10.634 10.634C10.9565 10.3107 10.9565 9.78982 10.9565 8.7518V7.64948C10.9565 6.61053 10.9565 6.0906 10.634 5.76725C10.3107 5.44482 9.78982 5.44482 8.7518 5.44482C7.19293 5.44482 6.41303 5.44482 5.92893 5.92893ZM5.92893 17.8212C5.44482 17.3371 5.44482 16.5572 5.44482 14.9983C5.44482 13.9594 5.44482 13.4394 5.76725 13.1161C6.0906 12.7937 6.61145 12.7937 7.64948 12.7937H8.7518C9.79074 12.7937 10.3107 12.7937 10.634 13.1161C10.9565 13.4394 10.9565 13.9594 10.9565 14.9983V16.1006C10.9565 17.1396 10.9565 17.6595 10.634 17.9819C10.3107 18.3053 9.78982 18.3053 8.7518 18.3053C7.19293 18.3053 6.41303 18.3053 5.92893 17.8212ZM12.7937 7.64948C12.7937 6.61053 12.7937 6.0906 13.1161 5.76725C13.4404 5.44482 13.9603 5.44482 14.9983 5.44482C16.5572 5.44482 17.3371 5.44482 17.8212 5.92893C18.3053 6.41303 18.3053 7.19293 18.3053 8.7518C18.3053 9.79074 18.3053 10.3107 17.9819 10.634C17.6604 10.9565 17.1396 10.9565 16.1006 10.9565H14.9983C13.9594 10.9565 13.4394 10.9565 13.1161 10.634C12.7937 10.3107 12.7937 9.78982 12.7937 8.7518V7.64948ZM13.117 17.9829C12.7937 17.6595 12.7937 17.1387 12.7937 16.1006V14.9983C12.7937 13.9594 12.7937 13.4394 13.1161 13.1161C13.4404 12.7937 13.9603 12.7937 14.9983 12.7937H16.1006C17.1396 12.7937 17.6595 12.7937 17.9819 13.1161C18.3053 13.4394 18.3053 13.9594 18.3053 14.9983C18.3053 16.5572 18.3053 17.3371 17.8212 17.8212C17.3371 18.3053 16.5572 18.3053 14.9983 18.3053C13.9594 18.3053 13.4394 18.3053 13.1161 17.9819" fill="#ED5C18"/>
<path d="M21.061 13.0233C21.2438 13.0233 21.419 13.0959 21.5482 13.2251C21.6774 13.3543 21.75 13.5295 21.75 13.7123V13.7637C21.75 15.4521 21.75 16.7896 21.6095 17.8359C21.4643 18.9125 21.1593 19.7842 20.4722 20.4723C19.7842 21.1594 18.9124 21.4644 17.8358 21.6095C16.7886 21.7501 15.452 21.7501 13.7637 21.7501H13.7122C13.5295 21.7501 13.3542 21.6775 13.225 21.5483C13.0958 21.4191 13.0233 21.2438 13.0233 21.0611C13.0233 20.8784 13.0958 20.7031 13.225 20.5739C13.3542 20.4447 13.5295 20.3722 13.7122 20.3722C15.464 20.3722 16.7087 20.3703 17.653 20.2435C18.5762 20.1195 19.109 19.8862 19.4976 19.4976C19.8862 19.1091 20.1195 18.5763 20.2435 17.6522C20.3703 16.7088 20.3721 15.464 20.3721 13.7123C20.3721 13.5295 20.4447 13.3543 20.5739 13.2251C20.7031 13.0959 20.8783 13.0233 21.061 13.0233ZM3.37791 13.7123C3.37791 13.5295 3.30532 13.3543 3.17612 13.2251C3.04691 13.0959 2.87168 13.0233 2.68895 13.0233C2.50623 13.0233 2.33099 13.0959 2.20179 13.2251C2.07259 13.3543 2 13.5295 2 13.7123V13.7637C2 15.4521 2 16.7896 2.14055 17.8359C2.28569 18.9125 2.59066 19.7842 3.27778 20.4723C3.96581 21.1594 4.83757 21.4644 5.91417 21.6095C6.96138 21.7501 8.29795 21.7501 9.98635 21.7501H10.0378C10.2205 21.7501 10.3958 21.6775 10.525 21.5483C10.6542 21.4191 10.7267 21.2438 10.7267 21.0611C10.7267 20.8784 10.6542 20.7031 10.525 20.5739C10.3958 20.4447 10.2205 20.3722 10.0378 20.3722C8.28601 20.3722 7.04222 20.3703 6.09698 20.2435C5.17378 20.1195 4.64099 19.8862 4.25242 19.4976C3.86385 19.1091 3.63052 18.5763 3.50651 17.6522C3.37974 16.7088 3.37791 15.464 3.37791 13.7123Z" fill="#ED5C18"/>
</svg>
