<svg width="1203" height="411" viewBox="0 0 1203 411" fill="none" xmlns="http://www.w3.org/2000/svg">
<path fill-rule="evenodd" clip-rule="evenodd" d="M1064.08 128.755C1055.16 130.323 1049.19 138.832 1050.76 147.767C1052.33 156.702 1060.83 162.671 1069.75 161.103C1078.68 159.536 1084.65 151.026 1083.08 142.091C1081.51 133.157 1073.01 127.187 1064.08 128.755Z" fill="#7581F1"/>
<path fill-rule="evenodd" clip-rule="evenodd" d="M1083.07 148.106C1085.02 140.77 1088.45 106.141 1087.94 102.479C1086.93 95.0243 1080 89.8015 1072.47 90.8258C1064.94 91.8499 1059.63 98.7107 1060.63 106.166C1061.37 111.794 1050.28 133.141 1050.5 144.359C1050.82 160.507 1082.01 152.002 1083.07 148.106Z" fill="#54B4A6"/>
<path fill-rule="evenodd" clip-rule="evenodd" d="M1064.08 128.755C1055.16 130.323 1049.19 138.832 1050.76 147.767C1052.33 156.702 1060.83 162.671 1069.75 161.103C1078.68 159.536 1084.65 151.026 1083.08 142.091C1081.51 133.157 1073.01 127.187 1064.08 128.755Z" fill="#7581F1"/>
<path fill-rule="evenodd" clip-rule="evenodd" d="M1038.31 157.928C1052.9 183.294 1078.18 158.131 1079.9 155.058C1084.02 144.784 1080.26 147.66 1079.86 141.719C1079.85 140.952 1079.76 140.16 1079.63 139.415C1078.23 131.431 1070.88 125.984 1062.94 126.826C1059.21 126.968 1051.48 127.559 1046.33 130.04C1046.02 130.181 1045.7 130.322 1045.42 130.455C1036.17 135.237 1032.49 147.78 1038.31 157.928Z" fill="#54B4A6"/>
<path fill-rule="evenodd" clip-rule="evenodd" d="M1052.17 142.66C1057.99 141.38 1063.41 144.138 1064.29 148.887C1065.16 153.595 1061.12 158.484 1055.29 159.763C1049.47 161.042 1044.04 158.285 1043.17 153.535C1042.3 148.827 1046.3 143.946 1052.17 142.66Z" fill="#54B4A6"/>
<path d="M1064.28 148.846C1065.15 153.554 1061.11 158.443 1055.28 159.722C1049.46 161.001 1044.03 158.243 1043.16 153.494" stroke="#39A08F" stroke-width="1.0126" stroke-miterlimit="10" stroke-linecap="round" stroke-linejoin="round"/>
<path fill-rule="evenodd" clip-rule="evenodd" d="M1049.43 134.825C1055.25 133.547 1060.68 136.303 1061.55 141.053C1062.42 145.762 1058.38 150.651 1052.55 151.929C1046.73 153.208 1041.3 150.451 1040.43 145.702C1039.61 141.027 1043.61 136.146 1049.43 134.825Z" fill="#39A08F"/>
<path fill-rule="evenodd" clip-rule="evenodd" d="M1041.5 145.513C1042.29 149.767 1047.16 152.238 1052.41 151.102C1057.66 149.925 1061.27 145.537 1060.49 141.325C1060.43 140.953 1060.33 140.629 1060.23 140.305L1057.94 120.923L1043.05 117.398L1041.54 143.075C1041.38 143.829 1041.36 144.686 1041.5 145.513Z" fill="#DE7C62"/>
<path fill-rule="evenodd" clip-rule="evenodd" d="M1048.16 128.098C1051.64 130.898 1055.85 131.863 1059.09 130.869L1057.89 120.889L1043.17 117.376C1042.68 120.873 1044.49 125.118 1048.16 128.098Z" fill="#C26147"/>
<path fill-rule="evenodd" clip-rule="evenodd" d="M1050.51 112.293C1050.51 112.293 1063.61 119.969 1056.44 124.257C1051.31 127.331 1039.14 121.325 1036.63 112.128C1034.59 104.385 1050.51 112.293 1050.51 112.293Z" fill="#DE7C62"/>
<path fill-rule="evenodd" clip-rule="evenodd" d="M1045.59 120.234C1052.35 123.056 1056.32 122.145 1058.56 120.6C1058.35 119.359 1057.53 118.095 1056.43 116.924C1048.91 116.539 1036.08 116.277 1045.59 120.234Z" fill="#C26147"/>
<path fill-rule="evenodd" clip-rule="evenodd" d="M1043.5 83.5057L1030.53 85.5707C1029.86 85.6868 1029.58 86.2485 1029.89 86.7913L1045.99 119.099C1046.26 119.69 1047.05 120.063 1047.67 119.954L1060.65 117.889C1061.31 117.773 1061.59 117.211 1061.28 116.668L1045.15 84.4099C1044.92 83.8112 1044.12 83.3968 1043.5 83.5057Z" fill="#2C1C28"/>
<path fill-rule="evenodd" clip-rule="evenodd" d="M1054.31 115.762C1059.09 115.562 1058.58 111.43 1056.45 111.207C1059.45 110.339 1059.26 107.088 1054.86 106.284C1048.79 105.176 1041.85 106.181 1041.85 106.181L1042.09 104.646C1042.09 104.646 1044.75 105.203 1046.41 105.465C1050.21 105.992 1051.48 101.804 1044.43 99.2475C1040.43 97.818 1037.44 97.5745 1036.19 101.12C1034.88 104.846 1033.28 111.992 1041.73 119.335C1044.53 124.856 1052.1 120.669 1053.41 119.415C1055.28 117.638 1054.97 116.626 1054.31 115.762Z" fill="#DE7C62"/>
<path fill-rule="evenodd" clip-rule="evenodd" d="M1034.7 96.48C1034.7 96.48 1034.27 98.8997 1034.33 100.681C1034.48 106.197 1035.82 110.694 1035.98 111.348L1037.76 102.55L1034.7 96.48Z" fill="#DE7C62"/>
<path d="M1057.08 111.181C1057.08 111.181 1045.31 109.88 1038.7 113.257" stroke="#2C1C28" stroke-width="1.0126" stroke-miterlimit="10" stroke-linecap="round" stroke-linejoin="round"/>
<path d="M1054.3 115.934C1051.06 116.203 1045.18 116.937 1041.95 119.167" stroke="#2C1C28" stroke-width="1.0126" stroke-miterlimit="10" stroke-linecap="round" stroke-linejoin="round"/>
<path d="M1046.21 105.542C1046.34 105.521 1038.36 105.983 1036.39 108.803" stroke="#2C1C28" stroke-width="1.0126" stroke-miterlimit="10" stroke-linecap="round" stroke-linejoin="round"/>
<path d="M1045.95 105.504L1039.15 104.14" stroke="#2C1C28" stroke-width="1.0126" stroke-miterlimit="10" stroke-linecap="round" stroke-linejoin="round"/>
<path fill-rule="evenodd" clip-rule="evenodd" d="M1067.37 116.153C1067.18 116.528 1066.99 116.903 1066.79 117.235C1065.31 120.182 1065.14 123.622 1066.44 126.636C1067.64 129.367 1069.82 132.821 1073.92 136.535C1072.58 143.465 1072.1 156.47 1080.51 160.237C1083.74 161.673 1116.86 158.117 1127.47 153.739C1133.78 151.137 1133.34 146.183 1128.68 139.539C1126.19 136.012 1128.81 112.783 1130.03 103.016C1133.37 100.426 1135.17 96.1018 1134.39 91.6345C1133.26 85.1815 1127.13 80.8839 1120.69 82.0162C1120.19 82.1033 1119.74 82.2245 1119.3 82.3457C1097.31 86.2072 1080.91 89.641 1072.47 90.7835C1064.93 91.8077 1059.62 98.668 1060.63 106.123C1061.23 110.537 1063.82 114.133 1067.37 116.153Z" fill="#54B4A6"/>
<path d="M1084.23 108.289C1083.73 111.276 1083.44 114.013 1083.55 115.869C1083.91 121.562 1086.95 132.839 1093.06 154.068" stroke="#39A08F" stroke-width="1.0126" stroke-miterlimit="10" stroke-linecap="round" stroke-linejoin="round"/>
<path d="M1080.52 160.279C1072.14 156.505 1072.63 143.499 1073.93 136.577C1069.87 132.814 1067.64 129.367 1066.45 126.678C1065.11 123.671 1065.32 120.225 1066.8 117.277C1068.19 114.517 1070.57 109.836 1074.32 102.568" stroke="#39A08F" stroke-width="1.0126" stroke-miterlimit="10" stroke-linecap="round" stroke-linejoin="round"/>
<path fill-rule="evenodd" clip-rule="evenodd" d="M1114.05 101.772C1121.34 112.004 1128.06 118.713 1131.59 135.917C1133.72 146.373 1128.54 149.883 1134.58 160.548C1141.37 172.532 1173.37 166.741 1168.78 147.592C1163.87 127.093 1138.05 94.0608 1132.5 87.1899C1129.97 83.4554 1125.38 81.3197 1120.67 82.1472C1114.22 83.2794 1109.93 89.4061 1111.06 95.8592C1111.5 98.1271 1112.58 100.155 1114.05 101.772Z" fill="#54B4A6"/>
<path d="M1118.77 108.491C1127.72 120.649 1129.85 125.775 1131.71 135.17" stroke="#39A08F" stroke-width="1.0126" stroke-miterlimit="10" stroke-linecap="round" stroke-linejoin="round"/>
<path fill-rule="evenodd" clip-rule="evenodd" d="M1167.84 169.675C1167.84 169.675 1167.86 170.054 1167.9 170.261C1168.17 171.792 1163.05 173.969 1156.48 175.123C1149.91 176.277 1144.36 175.973 1144.09 174.441C1144.07 174.317 1139.79 162.32 1139.79 162.32L1139.83 162.312C1139.83 162.271 1139.83 162.271 1139.82 162.229C1139.55 160.699 1144.66 158.522 1151.24 157.368C1157.81 156.214 1163.36 156.518 1163.63 158.049C1163.64 158.132 1163.61 158.221 1163.63 158.305L1167.84 169.675Z" fill="#54B4A6"/>
<path d="M1139.84 162.354L1139.88 162.347C1139.88 162.306 1139.88 162.306 1139.87 162.264C1139.6 160.734 1144.71 158.556 1151.28 157.402C1157.86 156.248 1163.41 156.553 1163.67 158.083C1163.69 158.167 1163.66 158.256 1163.68 158.339" stroke="#39A08F" stroke-width="1.0126" stroke-miterlimit="10" stroke-linecap="round" stroke-linejoin="round"/>
<path fill-rule="evenodd" clip-rule="evenodd" d="M1155.65 170.152C1149.7 171.197 1145.03 173.212 1145.27 174.618C1145.52 176.024 1150.56 176.334 1156.55 175.281C1162.5 174.236 1167.18 172.222 1166.93 170.815C1166.68 169.408 1161.64 169.1 1155.65 170.152Z" fill="#39A08F"/>
<path fill-rule="evenodd" clip-rule="evenodd" d="M1165.86 206.777C1168.94 208.284 1176.78 210.232 1181.69 212.269L1183.38 213.166C1184.33 213.682 1185.47 213.397 1185.91 212.508C1186.32 211.711 1186.01 210.658 1185.19 210.119C1185.19 210.119 1180.31 207.524 1176.43 202.875L1186.95 200.941L1187.3 201.007C1187.39 201.035 1187.48 201.062 1187.61 201.081C1187.79 201.134 1188.02 201.223 1188.2 201.276C1188.57 201.425 1188.95 201.656 1189.29 201.895C1189.63 202.134 1189.94 202.463 1190.21 202.799L1190.33 202.95L1190.49 203.134L1190.77 203.553L1191.38 204.343L1198.36 214.756C1199.08 215.696 1200.41 215.976 1201.37 215.38C1202.25 214.799 1202.43 213.659 1201.88 212.732L1195.64 201.889L1195.15 201.037L1194.9 200.612L1194.77 200.378L1194.6 200.109C1194.12 199.34 1193.54 198.676 1192.87 198.025C1192.21 197.417 1191.48 196.863 1190.66 196.367C1190.24 196.143 1189.86 195.911 1189.4 195.735C1189.17 195.647 1188.99 195.552 1188.76 195.465L1188.17 195.269L1166.55 188.108C1166.5 188.074 1166.5 188.032 1166.5 188.032C1166.83 187.974 1160.39 186.717 1160.24 186.615C1150.86 199.434 1165.85 206.736 1165.86 206.777Z" fill="#DE7C62"/>
<path fill-rule="evenodd" clip-rule="evenodd" d="M1147.53 174.605L1157.93 199.214L1173.02 196.564L1165.35 171.518L1165.34 171.477C1165.14 170.318 1161.01 170.105 1156.09 170.969C1151.13 171.84 1147.32 173.447 1147.53 174.605Z" fill="#DE7C62"/>
<path fill-rule="evenodd" clip-rule="evenodd" d="M1092.88 80.6322C1085.44 82.9191 1079.79 86.3854 1080.32 88.4246C1080.8 90.4711 1087.25 90.2779 1094.73 88.025C1102.17 85.7381 1107.82 82.2719 1107.3 80.2326C1106.8 78.1448 1100.32 78.3453 1092.88 80.6322Z" fill="black"/>
<path d="M1097.2 53.4802C1098.3 53.9678 1098.83 55.2407 1098.41 56.2525C1097.99 57.2641 1096.7 57.7032 1095.63 57.2083" stroke="black" stroke-width="1.0126" stroke-miterlimit="10" stroke-linecap="round" stroke-linejoin="round"/>
<path fill-rule="evenodd" clip-rule="evenodd" d="M1071.91 61.8855C1067.35 52.8382 1081.7 57.438 1087.54 60.6333C1093.39 63.8285 1094.21 73.6191 1089.38 82.5259C1084.55 91.4328 1067.73 101.464 1065.05 95.3696C1057.89 78.8459 1078.15 74.0949 1071.91 61.8855Z" fill="#4F2827"/>
<path fill-rule="evenodd" clip-rule="evenodd" d="M1077.78 72.2412L1082.13 87.1249C1082.11 87.2563 1082.13 87.339 1082.15 87.463C1082.58 89.1787 1087.95 88.9601 1094.2 86.9664C1100.42 84.9799 1105.13 81.9775 1104.7 80.2618C1104.67 80.0964 1104.56 79.9455 1104.41 79.8018L1093.88 58.8811L1077.78 72.2412Z" fill="#DE7C62"/>
<path fill-rule="evenodd" clip-rule="evenodd" d="M1080.44 81.8362C1093.25 75.1948 1091.32 62.0166 1091.32 62.0166L1077.73 71.9927L1080.44 81.8362Z" fill="#C26147"/>
<path fill-rule="evenodd" clip-rule="evenodd" d="M1094.94 60.3148C1125.85 63.1159 1091.09 30.2919 1081.6 31.105C1081.6 31.105 1067.7 33.7165 1065.42 42.8156C1065.12 45.9804 1065.6 47.7302 1065.36 52.676C1064.93 60.1711 1068.2 73.0272 1077.19 74.2207C1082.42 74.8803 1091.25 72.3051 1094.94 60.3148Z" fill="#DE7C62"/>
<path d="M1082.15 60.2581C1082.15 60.2581 1079.37 65.7779 1073.94 64.4296" stroke="#BD4040" stroke-width="1.0126" stroke-miterlimit="10" stroke-linecap="round" stroke-linejoin="round"/>
<path fill-rule="evenodd" clip-rule="evenodd" d="M1080.99 61.9114C1080.99 61.9114 1079.61 60.5769 1077.39 61.307C1076.03 61.7606 1075.85 62.7287 1075.85 62.7287C1075.85 62.7287 1073.4 61.8383 1073.57 64.4952C1075.27 65.689 1079.83 64.0342 1080.99 61.9114Z" fill="#BD4040"/>
<path d="M1072.1 47.1426C1072.1 47.1426 1069.23 45.5998 1065.72 47.9223" stroke="#2C1C28" stroke-width="1.0126" stroke-miterlimit="10" stroke-linecap="round" stroke-linejoin="round"/>
<path d="M1069.99 50.8818L1067.78 49.9893" stroke="#2C1C28" stroke-width="1.0126" stroke-miterlimit="10" stroke-linecap="round" stroke-linejoin="round"/>
<path d="M1082.21 48.9478L1079.8 48.3057" stroke="#2C1C28" stroke-width="1.0126" stroke-miterlimit="10" stroke-linecap="round" stroke-linejoin="round"/>
<path d="M1085.37 46.2623C1083.99 45.48 1080.14 43.9387 1076.5 46.4969" stroke="#2C1C28" stroke-width="1.0126" stroke-miterlimit="10" stroke-linecap="round" stroke-linejoin="round"/>
<path d="M1073.8 49.5317C1073.8 49.5317 1074.95 52.4426 1072.66 55.1895C1070.41 57.8877 1072.05 61.2223 1075.65 60.08" stroke="#2C1C28" stroke-width="1.0126" stroke-miterlimit="10" stroke-linecap="round" stroke-linejoin="round"/>
<path d="M1094.57 55.2634L1098.82 52.0439" stroke="#2C1C28" stroke-width="1.0126" stroke-miterlimit="10" stroke-linecap="round" stroke-linejoin="round"/>
<path fill-rule="evenodd" clip-rule="evenodd" d="M1082.36 48.7949C1081.72 48.7797 1081.28 49.6672 1081.33 50.7232C1081.43 51.7718 1082.01 52.6507 1082.65 52.6245C1083.29 52.6397 1083.73 51.7521 1083.67 50.6963C1083.57 49.6476 1083 48.8101 1082.36 48.7949Z" fill="#2C1C28"/>
<path fill-rule="evenodd" clip-rule="evenodd" d="M1069.65 50.4291C1069.01 50.4139 1068.57 51.3015 1068.63 52.3574C1068.72 53.4061 1069.3 54.285 1069.94 54.2588C1070.58 54.274 1071.02 53.3864 1070.96 52.3306C1070.91 51.316 1070.29 50.4444 1069.65 50.4291Z" fill="#2C1C28"/>
<path fill-rule="evenodd" clip-rule="evenodd" d="M1124.09 81.9735C1124.09 81.9735 1117.48 83.1348 1112.19 84.0639C1103.98 89.9823 1106.16 103.159 1112.29 105.577L1089.89 109.512C1084.63 103.529 1083.61 98.2076 1084.74 93.7029C1080.34 99.7196 1080.93 105.073 1088.8 109.618C1055.51 105.87 1081.95 86.0488 1098.56 78.7397C1100.69 77.5545 1102.2 76.9064 1102.2 76.9064C1102.2 76.9064 1090.89 70.7475 1094.97 59.7136C1097.36 60.7426 1099.99 58.7454 1100.64 57.566C1102.16 54.8257 1101.42 51.076 1098.93 50.0201C1096.45 48.9642 1094.07 50.7038 1092.81 52.503C1092.84 52.4543 1092.84 52.4543 1092.81 52.503C1092.74 52.6001 1092.6 52.7947 1092.58 52.8847C1093.07 44.7812 1077.67 42.9246 1078.47 35.1086C1078.47 35.1086 1069.68 35.5014 1065.53 42.4967C1065.01 39.7739 1066.46 32.6981 1077.09 28.6991C1089.48 24.0498 1102.75 29.0525 1104.49 42.3498C1104.74 43.2867 1104.65 44.4957 1105.77 46.0052C1108.98 50.4726 1146.27 66.0963 1124.09 81.9735ZM1088.94 109.679C1088.89 109.645 1088.89 109.645 1088.84 109.611C1088.89 109.645 1088.93 109.637 1088.98 109.672L1088.94 109.679Z" fill="#4F2827"/>
<path fill-rule="evenodd" clip-rule="evenodd" d="M1120.19 410.565C1111.38 411.615 1100.59 409.641 1098.16 408.339C1096.69 407.584 1094.51 406.785 1094.09 402.963C1093.96 401.914 1091.82 400.234 1090.86 399.562C1089.22 398.427 1091.82 383.981 1095.43 380.327C1098.24 379.822 1105.42 392.422 1110.08 395.404C1121.74 398.218 1123.71 402.123 1123.71 402.123C1125.14 404.434 1125.27 409.977 1120.19 410.565Z" fill="#2C1A28"/>
<path fill-rule="evenodd" clip-rule="evenodd" d="M1120.19 407.962C1111.38 409.012 1100.59 407.038 1098.16 405.736C1096.69 404.98 1094.51 404.182 1094.09 400.361C1093.96 399.31 1091.82 397.63 1090.86 396.958C1089.22 395.825 1091.82 381.377 1095.43 377.724C1098.24 377.22 1105.42 389.819 1110.08 392.801C1121.74 395.614 1123.71 399.521 1123.71 399.521C1125.14 401.83 1125.27 407.374 1120.19 407.962Z" fill="#54B4A6"/>
<path fill-rule="evenodd" clip-rule="evenodd" d="M1035.55 410.986C1045.79 411.154 1049.06 409.809 1053.09 407.919C1057.54 405.861 1054.85 401.284 1059.01 400.444C1063.25 399.604 1063.71 398.176 1063.71 398.176C1064.72 393.641 1062.24 394.187 1059.55 390.995C1036.06 406.072 1034.5 394.522 1033.29 398.218C1033.29 398.218 1021.2 399.394 1016.46 405.232C1015.66 406.198 1016.08 407.373 1016.38 408.424C1015.12 408.297 1021.37 410.734 1035.55 410.986Z" fill="#2C1A28"/>
<path fill-rule="evenodd" clip-rule="evenodd" d="M1035.55 408.17C1045.79 408.339 1049.06 406.995 1053.09 405.105C1057.54 403.047 1054.85 398.469 1059.01 397.629C1063.25 396.79 1063.71 395.362 1063.71 395.362C1064.72 390.826 1063.41 384.316 1060.69 381.167C1037.19 396.244 1034.46 391.749 1033.29 395.445C1033.29 395.445 1019.27 396.79 1016.33 405.609C1015.12 405.525 1021.37 407.919 1035.55 408.17Z" fill="#54B4A6"/>
<path fill-rule="evenodd" clip-rule="evenodd" d="M1102.52 256.222C1103.19 270.627 1099.96 268.444 1098.16 287.259C1096.44 305.276 1094.89 349.163 1094.72 373.774C1095.05 375.58 1094.3 379.192 1094.3 379.192C1094.3 379.192 1096.94 382.594 1097.07 384.4C1097.95 397.04 1099.38 398.972 1120.44 397.166C1116.79 392.925 1109.95 378.73 1111.59 369.952C1119.14 302.252 1122.2 292.214 1122.12 272.685C1122.03 249.755 1132.27 223.968 1135.88 204.229C1139.91 182.433 1121.99 159.333 1122.75 164.92C1113.98 163.911 1122.58 185.12 1115.99 185.498C1115.24 185.582 1101.18 184.658 1101.18 184.658C1101.18 184.658 1099.92 199.694 1102.52 256.222Z" fill="#DE7C62"/>
<path fill-rule="evenodd" clip-rule="evenodd" d="M1048.35 394.227C1055.02 383.35 1058.63 383.139 1061.15 382.51C1065.64 357.017 1072.6 315.062 1076.04 298.011C1079.78 279.49 1075.08 276.76 1079.99 262.774C1099.21 207.883 1100.63 191.798 1100.63 191.798C1100.63 191.798 1090.06 182.517 1089.35 182.391C1082.88 181.425 1088.42 169.498 1079.36 169.75C1081.21 165.55 1066.52 179.577 1062.91 209.521C1055.32 272.434 1042.18 375.287 1042.18 375.287C1042.18 375.287 1038.82 383.182 1033.96 388.684C1031.23 391.75 1028.67 395.487 1026.45 397.293C1039.45 400.695 1046.04 397.923 1048.35 394.227Z" fill="#DE7C62"/>
<path fill-rule="evenodd" clip-rule="evenodd" d="M1095.14 352.02C1102.98 352.314 1110.03 349.458 1114.19 347.316C1114.61 343.746 1115.03 340.429 1115.4 337.279C1109.24 335.095 1097.66 336.942 1097.66 336.942C1097.66 336.942 1096.73 337.866 1095.51 339.252C1095.35 343.578 1095.22 347.862 1095.14 352.02Z" fill="#C26147"/>
<path fill-rule="evenodd" clip-rule="evenodd" d="M1043.36 342.446C1043.48 343.621 1050.62 344.587 1059.47 344.587C1068.37 344.587 1075.58 343.621 1075.58 342.403H1075.63L1098.79 208.725L1091.86 342.529H1092.07C1092.49 343.663 1099.54 344.587 1108.15 344.587C1117.04 344.587 1124.26 343.621 1124.26 342.403C1125.1 335.222 1128.83 296.71 1129.96 287.092C1134.12 252.36 1139.45 208.01 1139.45 208.01C1139.45 208.01 1140.37 198.394 1138.99 190.414C1138.44 187.306 1137.73 184.492 1136.93 181.93C1135.8 176.051 1131.52 169.205 1128.45 165.131V153.036V152.994C1128.45 150.894 1117.8 149.928 1104.62 150.768C1091.44 151.65 1080.79 154.044 1080.79 156.102C1080.79 156.228 1080.83 156.311 1080.87 156.437L1079.99 166.979C1064.55 175.001 1060.85 197.176 1060.81 197.217L1043.23 342.403L1043.36 342.446Z" fill="#FCC670"/>
<path d="M1093 202.927L1067.86 339.714" stroke="#D8912B" stroke-width="1.0126" stroke-miterlimit="10" stroke-linecap="round" stroke-linejoin="round"/>
<path d="M1083.35 166.222C1083.35 166.222 1078.1 180.837 1064.46 186.507" stroke="#D8912B" stroke-width="1.0126" stroke-miterlimit="10" stroke-linecap="round" stroke-linejoin="round"/>
<path d="M1099.54 151.775V162.82L1098.45 201.207C1098.45 201.207 1087.46 196.419 1090.9 179.913C1093.84 165.929 1093.08 163.912 1093.08 163.912" stroke="#D8912B" stroke-width="1.0126" stroke-miterlimit="10" stroke-linecap="round" stroke-linejoin="round"/>
<path d="M1113.6 162.274C1113.6 162.274 1113.6 181.845 1132.65 188.019" stroke="#D8912B" stroke-width="1.0126" stroke-miterlimit="10" stroke-linecap="round" stroke-linejoin="round"/>
<path d="M1121.95 151.02V162.402C1125.01 166.475 1129.34 173.321 1130.43 179.2C1131.22 181.72 1131.94 184.576 1132.48 187.684C1133.83 195.663 1132.94 205.281 1132.94 205.281C1132.94 205.281 1127.62 249.63 1123.46 284.362C1122.16 295.366 1118.22 336.818 1117.33 344.209" stroke="#D8912B" stroke-width="1.0126" stroke-miterlimit="10" stroke-linecap="round" stroke-linejoin="round"/>
<path d="M1128.66 164.88V164.837C1128.66 162.696 1117.71 161.687 1104.2 162.57C1090.69 163.451 1079.74 165.929 1079.74 168.072" stroke="#D8912B" stroke-width="1.0126" stroke-miterlimit="10" stroke-linecap="round" stroke-linejoin="round"/>
<path fill-rule="evenodd" clip-rule="evenodd" d="M1098.58 201.626L1091.74 201.374C1091.74 201.374 1091.23 204.818 1092.7 209.606C1094 213.848 1097.19 217.753 1097.19 217.753L1098.75 208.723L1098.58 201.626Z" fill="#D8912B"/>
<path fill-rule="evenodd" clip-rule="evenodd" d="M161.503 362.013H139.445L143.214 382.015H165.272L161.503 362.013Z" fill="#D3D8DC"/>
<path fill-rule="evenodd" clip-rule="evenodd" d="M65.7757 350.662L87.4909 350.619L86.8912 378.63L63.1631 377.388L65.7757 350.662Z" fill="#D3D8DC"/>
<path fill-rule="evenodd" clip-rule="evenodd" d="M91.5594 396.577C91.5594 396.577 86.1628 397.476 81.1944 397.776C76.9542 398.033 77.0398 403.215 69.9299 405.914C64.6617 407.884 56.3954 407.927 46.2446 406.513C36.6505 405.186 33.1384 403.258 32.4959 402.487H32.4103V402.359C32.3674 402.273 32.3674 402.188 32.4103 402.145L32.2817 397.519H35.4512C36.4363 397.005 37.7641 396.705 39.563 396.748C47.4866 395.977 61.3638 380.215 63.4197 370.621C65.5184 369.122 69.9299 371.649 73.956 373.662C78.2819 379.83 82.9933 376.104 82.9933 376.104C82.9933 376.104 84.7921 373.791 87.0622 371.821C91.6879 378.16 92.7158 394.735 91.5594 396.577Z" fill="#2C1C28"/>
<path fill-rule="evenodd" clip-rule="evenodd" d="M182.276 400.946L182.19 404.929H182.104C182.104 404.972 182.104 405.015 182.104 405.015C178.935 406.299 175.937 407.456 163.944 407.927C154.007 408.355 147.626 406.856 144.028 404.543C140.044 402.016 143.3 396.577 139.274 395.892C136.832 395.463 136.275 393.793 136.275 393.793C136.832 385.741 137.689 376.104 140.815 372.378C140.815 375.076 142.914 377.303 142.914 377.303C142.914 377.303 143.942 378.288 147.626 371.992C152.38 369.936 157.648 369.594 162.616 372.078C166.385 386.298 172.424 393.921 177.436 399.104C178.678 399.104 179.62 399.875 180.348 400.903H182.276V400.946Z" fill="#2C1C28"/>
<path fill-rule="evenodd" clip-rule="evenodd" d="M91.4317 392.251C91.4317 392.251 86.035 393.15 81.0667 393.45C76.8264 393.707 76.9121 398.89 69.8022 401.588C64.5341 403.558 56.2677 403.601 46.1168 402.188C33.8244 400.474 31.5116 397.819 32.4538 397.776C32.4538 397.776 32.3682 392.251 39.4781 392.422C47.4018 391.651 61.4074 376.361 63.4633 366.767C65.562 365.268 72.7147 367.366 73.8711 369.337C78.197 375.504 82.2659 373.791 82.2659 373.791C82.2659 373.791 86.6346 372.763 87.1058 367.538C91.7743 373.877 92.5882 390.409 91.4317 392.251Z" fill="#814A2A"/>
<path fill-rule="evenodd" clip-rule="evenodd" d="M136.404 389.81C136.404 389.81 136.918 391.48 139.402 391.909C143.429 392.594 140.173 398.033 144.157 400.56C147.754 402.873 154.136 404.372 164.073 403.944C176.065 403.43 179.064 402.316 182.233 401.032C182.233 401.032 180.948 395.164 177.565 395.164C172.596 389.981 166.514 382.357 162.745 368.138C159.533 365.739 152.509 365.953 147.754 368.052C144.114 374.348 143 373.02 143 373.02C143 373.02 140.901 371.264 140.644 368.566C138.203 373.663 137.004 381.758 136.404 389.81Z" fill="#814A2A"/>
<path fill-rule="evenodd" clip-rule="evenodd" d="M162.359 364.325C162.359 364.411 162.359 364.368 162.359 364.454C162.274 365.568 155.207 366.467 146.683 366.467C138.588 366.467 132.035 365.653 131.521 364.625H131.479C131.479 364.625 119.572 349.335 117.944 319.482C114.346 253.051 87.9197 185.422 87.9197 185.422C87.9197 185.422 85.3499 168.29 129.765 178.655L162.359 364.197V364.325V364.325Z" fill="#5A74C7"/>
<path fill-rule="evenodd" clip-rule="evenodd" d="M93.1023 169.746C72.6721 169.746 56.1823 173.344 56.3108 177.798C56.4393 182.253 73.1004 185.851 93.5306 185.851C113.961 185.851 130.451 182.253 130.322 177.798C130.237 173.344 113.575 169.746 93.1023 169.746Z" fill="#5A74C7"/>
<path fill-rule="evenodd" clip-rule="evenodd" d="M129.251 151.8C129.251 151.8 118.715 145.075 101.925 144.818C68.3458 144.347 53.9976 151.628 53.9976 151.628L54.7257 177.712L129.808 171.288L129.251 151.8Z" fill="#7581F1"/>
<path fill-rule="evenodd" clip-rule="evenodd" d="M92.4591 316.313C96.8707 347.707 90.7031 364.497 90.4033 365.268C90.1463 366.168 83.8502 366.853 76.0122 366.853C68.3027 366.853 61.9637 366.168 61.5354 365.268H61.4926L54.3398 169.917C54.3398 169.917 64.2337 167.776 73.1853 169.917C83.5932 172.402 92.5877 184.009 92.5877 184.009C92.5877 184.009 85.2636 265.173 92.4591 316.313Z" fill="#5A74C7"/>
<path d="M63.8913 158.609C63.8913 158.609 63.4201 172.015 55.1538 181.395" stroke="#555EC2" stroke-width="0.691702" stroke-miterlimit="10" stroke-linecap="round" stroke-linejoin="round"/>
<path d="M106.336 156.511C106.336 156.511 106.593 175.485 123.983 181.738" stroke="#3763C3" stroke-width="0.691702" stroke-miterlimit="10" stroke-linecap="round" stroke-linejoin="round"/>
<path d="M162.274 363.683L122.484 171.416C122.698 167.776 123.469 158.824 123.469 158.824" stroke="#3763C3" stroke-width="0.691702" stroke-miterlimit="10" stroke-linecap="round" stroke-linejoin="round"/>
<path d="M83.6366 187.049C83.6366 187.049 80.6385 265.044 85.564 321.538C87.7912 346.808 83.6794 366.167 83.6794 366.167" stroke="#3763C3" stroke-width="0.691702" stroke-miterlimit="10" stroke-linecap="round" stroke-linejoin="round"/>
<path fill-rule="evenodd" clip-rule="evenodd" d="M91.4311 200.241L91.7309 195.829L88.7328 185.85L76.9972 183.666C76.9543 183.666 79.31 196.986 91.4311 200.241Z" fill="#375BB7"/>
<path fill-rule="evenodd" clip-rule="evenodd" d="M44.9347 110.731C48.5874 144.197 41.1432 160.888 52.5377 169.14C53.0237 175.033 53.7812 184.128 53.7812 184.128C53.7812 184.128 53.8573 184.809 54.3874 185.31C55.0073 185.844 55.504 186.047 55.504 186.047C55.504 186.047 54.9303 183.612 55.1809 183.541C57.796 182.645 65.8593 180.753 91.574 178.311C111.017 176.441 122.421 177.063 130.051 177.072C130.577 178.694 130.719 179.196 130.719 179.196C130.719 179.196 133.925 178.191 133.957 176.938C133.957 176.938 132.887 165.809 132.483 162.579C140.165 156.506 138.983 142.071 125.764 103.984C131.853 99.8564 135.543 92.3763 134.649 84.3739C133.398 73.1791 123.787 65.0731 113.018 65.8884L112.507 65.9455C112.464 65.9503 112.422 65.955 112.337 65.9645C112.294 65.9693 112.209 65.9788 112.166 65.9836L50.5027 73.002C40.8126 75.3775 34.3101 85.0682 35.48 95.5394C36.1838 101.839 40.0846 107.437 44.9347 110.731Z" fill="#ED5C18"/>
<path d="M52.1255 160.889C62.4905 158.79 105.15 155.535 132.433 163.244" stroke="#CC2818" stroke-width="0.691702" stroke-miterlimit="10" stroke-linecap="round" stroke-linejoin="round"/>
<path d="M64.7644 83.0026L78.7044 92.8228L92.8103 79.4383" stroke="#CC2818" stroke-width="0.691702" stroke-miterlimit="10" stroke-linecap="round" stroke-linejoin="round"/>
<path fill-rule="evenodd" clip-rule="evenodd" d="M71.5151 101.771C66.1201 112.501 51.337 132.168 38.293 141.555C35.7937 146.187 31.1699 149.548 25.5512 150.176C16.4847 151.188 8.29808 144.647 7.2899 135.623C6.57182 129.196 9.6568 123.249 14.7205 119.968C14.8387 119.868 14.9191 119.816 15.0373 119.717C28.9616 111.266 34.6875 92.3097 35.6644 88.7097C37.1636 80.5261 43.8429 73.9618 52.5263 72.9917C63.1252 71.8076 72.7267 79.4405 73.9108 90.0394C74.3864 94.296 73.457 98.3216 71.5151 101.771Z" fill="#ED5C18"/>
<path d="M41.4252 134.482L47.7149 93.5699" stroke="#ED5C18" stroke-width="0.691702" stroke-miterlimit="10" stroke-linecap="round" stroke-linejoin="round"/>
<path fill-rule="evenodd" clip-rule="evenodd" d="M176.143 122.491C177.256 132.452 170.067 141.4 160.15 142.508C154.318 143.16 148.816 140.973 145.011 137.002L114.925 107.265C104.718 107.328 95.8637 99.4389 94.6653 88.7123C93.3908 77.3047 101.298 67.0692 112.365 65.8328C118.792 65.1147 124.801 67.5895 129.003 72.033L129.079 71.9384L170.953 111.521L170.915 111.568C173.693 114.447 175.663 118.192 176.143 122.491Z" fill="#ED5C18"/>
<path d="M108.583 100.647L138.883 133.076" stroke="#CC2818" stroke-width="0.691702" stroke-miterlimit="10" stroke-linecap="round" stroke-linejoin="round"/>
<path fill-rule="evenodd" clip-rule="evenodd" d="M176.143 122.491C177.255 132.451 170.067 141.399 160.149 142.508C158.531 142.688 156.933 142.651 155.395 142.392L125.44 140.826L125.49 113.497C125.49 113.497 131.606 113.46 135.702 113.476C140.083 100.618 159.606 105.634 161.792 106.683C169.205 108.225 175.244 114.446 176.143 122.491Z" fill="#ED5C18"/>
<path fill-rule="evenodd" clip-rule="evenodd" d="M127.184 113.997C123.711 112.23 120.152 116.636 119.281 123.887C118.406 131.096 120.539 138.615 124.012 140.382C127.484 142.149 131.02 137.53 131.895 130.321C132.808 123.065 130.656 115.764 127.184 113.997Z" fill="#CC2818"/>
<path fill-rule="evenodd" clip-rule="evenodd" d="M126.679 115.26C123.571 113.668 120.395 117.643 119.609 124.109C118.823 130.575 120.738 137.3 123.846 138.892C126.955 140.484 130.112 136.339 130.898 129.873C131.721 123.359 129.826 116.805 126.679 115.26Z" fill="#D3D8DC"/>
<path fill-rule="evenodd" clip-rule="evenodd" d="M117.649 115.063L125.269 114.987L125.539 139.393L117.063 139.521L117.649 115.063Z" fill="#D3D8DC"/>
<path fill-rule="evenodd" clip-rule="evenodd" d="M118.709 115.289C115.6 113.697 112.424 117.672 111.638 124.138C110.852 130.604 112.767 137.329 115.875 138.921C118.984 140.513 122.141 136.368 122.927 129.902C123.708 123.393 121.812 116.839 118.709 115.289Z" fill="#A8B3BC"/>
<path fill-rule="evenodd" clip-rule="evenodd" d="M117.905 116.197C115.298 114.85 112.614 118.21 111.969 123.626C111.329 129.085 112.907 134.727 115.51 136.031C118.117 137.377 120.787 133.889 121.427 128.431C122.114 123.01 120.507 117.501 117.905 116.197Z" fill="#E99670"/>
<path fill-rule="evenodd" clip-rule="evenodd" d="M91.6401 116.029L97.0421 124.648Z" fill="#E99670"/>
<path fill-rule="evenodd" clip-rule="evenodd" d="M101.101 133.202C95.5415 130.893 93.2637 126.32 88.7399 122.861L87.0271 121.802C86.0571 121.221 85.7064 120.011 86.2024 119.05C86.708 118.175 87.7957 117.881 88.7041 118.297C88.7041 118.297 93.4828 120.952 99.6984 121.809C109.204 118.937 122.129 139.731 101.101 133.202Z" fill="#E99670"/>
<path d="M79.9679 102.206L92.2055 104.502L93.1752 104.695L93.6625 104.813L93.8848 104.875L94.197 104.969C95.0816 105.172 95.8953 105.512 96.7186 105.937C97.5418 106.362 98.2895 106.882 99.0041 107.492C99.3401 107.799 99.6761 108.106 100.017 108.456C100.164 108.612 100.315 108.811 100.462 108.967L100.864 109.482L115.178 128.052C117.649 131.267 110.056 135.822 102.811 130.77L95.9752 112.399L95.7669 112.077C95.7148 111.997 95.6627 111.916 95.6106 111.836C95.5065 111.675 95.3597 111.519 95.213 111.363C94.9196 111.051 94.6309 110.782 94.2571 110.522C93.888 110.305 93.519 110.087 93.1121 109.917L92.9324 109.851L92.71 109.79L92.218 109.629L91.2813 109.346L79.1663 106.217C78.0498 105.868 77.316 104.7 77.5802 103.593C77.8965 102.567 78.9083 101.98 79.9679 102.206Z" fill="#E99670"/>
<path fill-rule="evenodd" clip-rule="evenodd" d="M101.331 123.695L96.7566 114.38L96.4727 114.153C96.3781 114.078 96.3308 114.04 96.2361 113.964C96.0942 113.851 95.9096 113.742 95.7251 113.633C95.356 113.416 94.9917 113.241 94.5944 113.156C94.1923 113.029 93.7949 112.944 93.3645 112.949L93.1894 112.926L92.9293 112.911L92.4563 112.921L91.5056 112.898L79.3922 112.484C78.2286 112.485 77.2679 111.601 77.1869 110.49C77.1201 109.506 77.8905 108.687 78.9547 108.568L90.9777 108.173L91.9142 108.069L92.3824 108.016L92.6378 107.988L92.9358 107.955C93.7919 107.902 94.6622 107.977 95.5421 108.137C96.4219 108.298 97.2687 108.548 98.0872 108.931C98.494 109.101 98.9057 109.313 99.2747 109.531C99.4593 109.639 99.6438 109.748 99.8331 109.899L100.344 110.23L110.027 119.362C114.534 126.53 109.88 126.145 101.331 123.695Z" fill="#E99670"/>
<path d="M79.9679 102.206L92.2055 104.502L93.1752 104.695L93.6625 104.813L93.8848 104.875L94.197 104.969C95.0816 105.172 95.8953 105.512 96.7186 105.937C97.5418 106.362 98.2895 106.882 99.0041 107.492C99.3401 107.799 99.6761 108.106 100.017 108.456C100.164 108.612 100.315 108.811 100.462 108.967L100.864 109.482L115.178 128.052C117.649 131.267 110.056 135.822 102.811 130.77L95.9752 112.399L95.7669 112.077C95.7148 111.997 95.6627 111.916 95.6106 111.836C95.5065 111.675 95.3597 111.519 95.213 111.363C94.9196 111.051 94.6309 110.782 94.2571 110.522C93.888 110.305 93.519 110.087 93.1121 109.917L92.9324 109.851L92.71 109.79L92.218 109.629L91.2813 109.346L79.1663 106.217C78.0498 105.868 77.316 104.7 77.5802 103.593C77.8965 102.567 78.9083 101.98 79.9679 102.206Z" fill="#E99670"/>
<path fill-rule="evenodd" clip-rule="evenodd" d="M105.849 123.621L99.3454 115.556L99.0237 115.376C98.9338 115.343 98.8392 115.268 98.7493 115.235C98.5695 115.168 98.3849 115.06 98.2099 115.036C97.8078 114.909 97.4105 114.824 97.0179 114.782C96.6252 114.739 96.1948 114.744 95.7739 114.834L95.6036 114.853L95.353 114.924L94.8896 115.019L93.9626 115.209L85.3413 117.12C84.2063 117.377 83.0565 116.729 82.7673 115.684C82.4877 114.724 83.0689 113.754 84.0667 113.427L92.4275 110.726L93.3401 110.409L93.7988 110.271L94.0069 110.205L94.3001 110.129C95.1372 109.906 95.9837 109.769 96.8824 109.711C97.781 109.654 98.6513 109.729 99.5312 109.889C99.9711 109.97 100.416 110.092 100.818 110.22C101.04 110.281 101.263 110.342 101.447 110.451L102.034 110.687L109.987 122.469C115.832 128.496 114.742 124.136 105.849 123.621Z" fill="#E99670"/>
<path fill-rule="evenodd" clip-rule="evenodd" d="M89.6046 112.851L101.575 111.212L103.249 126.196L99.0355 127.83L89.6046 112.851Z" fill="#E99670"/>
<path fill-rule="evenodd" clip-rule="evenodd" d="M116.709 115.9L106.389 117.656L106.291 134.518L116.575 136.3C120.152 131.677 119.92 122.652 116.709 115.9Z" fill="#E99670"/>
<path d="M103.526 131.38C103.526 131.38 101.458 129.844 100.804 126.685C98.399 115.576 98.7534 114.889 96.5445 114.791C96.7195 114.815 93.9197 115.214 93.9197 115.214L85.2983 117.125C84.1633 117.381 83.0135 116.734 82.7244 115.689C82.4447 114.729 83.0259 113.759 84.0237 113.432L92.3845 110.731C92.3845 110.731 97.3685 108.666 99.8526 110.069C102.937 111.836 107.898 117.273 107.898 117.273" stroke="#2C1C28" stroke-width="0.691702" stroke-miterlimit="10" stroke-linecap="round" stroke-linejoin="round"/>
<path d="M86.5721 112.716C83.2422 112.614 79.4771 112.474 79.4771 112.474C78.3136 112.475 77.3529 111.591 77.2718 110.48C77.205 109.496 77.9755 108.677 79.0396 108.558L91.0627 108.163L91.9991 108.058L92.4673 108.006L92.7228 107.978L93.0207 107.944C93.8768 107.892 94.7471 107.967 95.627 108.127C96.5068 108.288 97.3536 108.538 98.1721 108.92C98.579 109.09 98.9906 109.303 99.3597 109.52C99.5442 109.629 99.7287 109.738 99.918 109.889" stroke="#2C1C28" stroke-width="0.691702" stroke-miterlimit="10" stroke-linecap="round" stroke-linejoin="round"/>
<path d="M130.747 140.491C134.523 142.268 138.346 137.531 139.368 130.09C140.347 122.654 138.498 115.362 134.723 113.586" stroke="#CC2818" stroke-width="0.691702" stroke-miterlimit="10" stroke-linecap="round" stroke-linejoin="round"/>
<path d="M125.448 113.502C125.448 113.502 131.563 113.465 135.659 113.481C140.041 100.623 159.564 105.639 161.75 106.688" stroke="#CC2818" stroke-width="0.691702" stroke-miterlimit="10" stroke-linecap="round" stroke-linejoin="round"/>
<path fill-rule="evenodd" clip-rule="evenodd" d="M92.3387 59.0197C95.8117 61.1744 89.9946 70.0558 82.4661 72.4915C74.3938 75.0742 66.948 73.234 66.9266 69.1853C66.9749 63.0601 82.7997 53.1036 92.3387 59.0197Z" fill="black"/>
<path fill-rule="evenodd" clip-rule="evenodd" d="M92.671 68.1622L89.4437 41.975L69.6886 44.5268L68.495 73.1905C68.495 73.1905 68.4527 73.5831 68.4765 73.7959C68.5671 74.9925 71.0837 75.5302 74.7255 75.3388L77.8161 86.4142L79.3179 74.7826C79.8239 74.683 80.3725 74.5786 80.9211 74.4742C87.613 73.037 92.9609 70.3709 92.7989 68.5358C92.7847 68.4081 92.7704 68.2804 92.671 68.1622Z" fill="#E99670"/>
<path fill-rule="evenodd" clip-rule="evenodd" d="M91.4345 58.258C93.6016 59.5243 95.3503 65.1471 82.6216 71.9563C80.8576 72.3689 79.9647 74.0201 79.2572 77.3314L77.8056 85.9407L75.3837 77.7642C75.3837 77.7642 74.8672 76.2273 74.2991 75.3857C73.5275 74.2652 72.6947 73.7549 72.6947 73.7549C72.6947 73.7549 68.1388 71.9366 67.5419 70.4518C66.4145 67.6903 68.1067 65.8635 69.071 64.8508C69.0803 64.548 69.0896 64.2453 69.0989 63.9426C68.0114 64.6244 66.3758 66.1862 65.5121 69.2564C63.0418 74.9195 64.3948 83.1723 64.3948 83.1723L69.0048 80.4593L77.9007 86.792L87.2322 78.1212C87.2322 78.1212 89.8009 78.7393 93.4435 79.7115C96.3646 76.5407 99.1334 71.62 99.3862 67.3251L92.7072 58.8485L91.4724 58.2107L91.4345 58.258Z" fill="#D3D8DC"/>
<path d="M91.6295 58.4521C92.3819 59.0145 92.8506 59.7379 92.96 60.717C93.3547 64.2499 88.8077 69.4555 82.6604 71.9093C81.2985 72.4493 80.2539 73.5141 79.8054 74.9003C78.9933 77.2751 78.1112 81.3386 77.9062 86.447C76.5929 81.2497 75.2406 74.1604 71.5885 73.1031C70.9215 72.9191 70.2497 72.6925 69.6866 72.2813C68.6077 71.4968 67.7557 70.4284 67.6321 69.3216" stroke="#2A1C28" stroke-width="0.691702" stroke-miterlimit="10" stroke-linecap="round" stroke-linejoin="round"/>
<path fill-rule="evenodd" clip-rule="evenodd" d="M64.3525 83.1782L75.8294 79.0516C75.8294 79.0516 74.4885 75.1503 73.2388 73.6091C71.994 72.1105 67.4649 75.5471 64.3525 83.1782Z" fill="#2A1C28"/>
<path fill-rule="evenodd" clip-rule="evenodd" d="M93.359 79.7213L78.7578 79.4132C78.876 79.3138 78.7072 73.9455 81.4921 72.2553C83.1469 71.2516 90.3386 75.0595 93.359 79.7213Z" fill="#2A1C28"/>
<path fill-rule="evenodd" clip-rule="evenodd" d="M68.6685 69.7237C85.8188 61.6017 83.7862 48.0376 83.7862 48.0376L69.3347 52.9276L68.6685 69.7237Z" fill="#C87149"/>
<path fill-rule="evenodd" clip-rule="evenodd" d="M69.0069 60.0373C70.4694 60.8353 72.119 61.1821 73.7793 61.082C75.4395 60.9818 77.039 60.4986 78.4313 59.5837C82.3417 57.0009 87.4431 51.9596 88.3233 42.7023C94.9989 42.914 96.9103 32.3967 92.5017 30.8969C89.7694 30.0032 87.0835 32.5165 85.9485 34.6932C85.8886 34.7985 85.78 35.0503 85.7614 35.1443C84.4203 30.0938 88.6586 23.2018 84.9854 21.1449C65.5782 10.3026 58.113 24.6973 56.4418 27.5097C56.4695 31.0107 57.1322 34.5596 57.6698 39.9193C58.7346 51.0858 64.285 57.5575 69.0069 60.0373ZM85.9072 34.7045C85.9372 34.6519 85.9372 34.6519 85.9072 34.7045V34.7045Z" fill="#E99670"/>
<path d="M68.8102 49.1216C68.8102 49.1216 73.2459 48.6154 75.2088 44.9236" stroke="#2C1C28" stroke-width="0.691702" stroke-miterlimit="10" stroke-linecap="round" stroke-linejoin="round"/>
<path d="M62.8928 31.1141C60.3758 31.0052 57.4333 32.745 57.0104 33.7937" stroke="#2C1C28" stroke-width="0.691702" stroke-miterlimit="10" stroke-linecap="round" stroke-linejoin="round"/>
<path d="M77.2993 28.583C75.4125 27.857 71.9147 27.573 68.6758 29.5274" stroke="#2C1C28" stroke-width="0.691702" stroke-miterlimit="10" stroke-linecap="round" stroke-linejoin="round"/>
<path d="M65.6337 35.1145C65.6337 35.1145 66.2643 37.2511 65.38 41.3132C64.5704 44.9995 67.0775 46.0438 70.4704 44.0027" stroke="#2C1C28" stroke-width="0.691702" stroke-miterlimit="10" stroke-linecap="round" stroke-linejoin="round"/>
<path fill-rule="evenodd" clip-rule="evenodd" d="M73.7331 32.5817C73.1022 32.7104 72.7619 33.7364 73.0152 34.8217C73.2685 35.9069 74.0021 36.6383 74.633 36.5097C75.2639 36.381 75.6043 35.355 75.3509 34.2697C75.0976 33.1845 74.364 32.4531 73.7331 32.5817Z" fill="#2C1C28"/>
<path fill-rule="evenodd" clip-rule="evenodd" d="M61.1116 35.467C60.4807 35.5956 60.1404 36.6217 60.3937 37.7069C60.647 38.7922 61.3806 39.5236 62.0115 39.3949C62.6424 39.2663 62.9827 38.2402 62.7294 37.155C62.4761 36.0697 61.7425 35.3383 61.1116 35.467Z" fill="#2C1C28"/>
<path fill-rule="evenodd" clip-rule="evenodd" d="M53.5811 28.7391C57.32 39.6161 56.4866 29.9406 56.4866 29.9406C58.8658 30.8424 66.2517 26.1959 71.8827 21.1425C77.4723 16.1004 81.3729 14.453 83.0535 23.0078C84.1928 28.7799 89.7015 9.68112 83.7503 11.6246C82.3724 -0.521888 69.774 10.218 69.774 10.218C69.774 10.218 64.5722 5.82685 58.8908 7.2966C53.5812 8.66436 50.6178 14.0518 52.7024 18.8984C48.7558 19.8922 45.9259 21.5568 53.5811 28.7391Z" fill="#951800"/>
<path fill-rule="evenodd" clip-rule="evenodd" d="M57.5942 29.7697C60.0513 29.9839 64.8331 27.3397 71.9697 21.7844C77.9432 17.1701 81.3491 18.9005 83.3189 27.376C83.7689 29.34 84.7302 34.1393 85.2602 36.8808C85.6363 34.6902 87.195 31.9531 90.8331 30.6442C87.8358 25.8704 92.6411 8.7411 83.7087 11.6357C83.5259 9.9981 83.3179 9.07805 82.8015 7.84293C82.263 7.01355 78.2752 3.00004 73.2027 14.7842C69.6014 23.1891 62.6081 29.1048 57.5942 29.7697ZM53.5808 28.7388C54.9153 34.4129 57.4794 38.4173 57.4794 38.4173L56.9746 29.9396C55.0545 29.5781 54.0771 29.0912 53.5808 28.7388Z" fill="#5F1001"/>
<path fill-rule="evenodd" clip-rule="evenodd" d="M22.6998 80.3864C22.6998 80.3864 22.0713 82.8934 22.0362 84.7971C21.8222 90.6444 22.9809 95.471 23.1037 96.2007L25.5458 87.0069L22.6998 80.3864Z" fill="#EC957E"/>
<path fill-rule="evenodd" clip-rule="evenodd" d="M50.1195 128.412C49.1613 140.538 38.125 149.329 34.3416 151.692C28.3113 156.124 19.7627 156.13 13.7585 151.183C10.3935 148.421 8.44221 144.632 7.9548 140.639C7.03192 136.076 5.21946 122.071 14.7374 113.367C19.5348 108.99 23.5645 109.2 23.5645 109.2L45.9698 117.146C45.9245 117.11 50.5511 122.664 50.1195 128.412Z" fill="#ED5C18"/>
<path fill-rule="evenodd" clip-rule="evenodd" d="M35.7843 108.042C42.4394 109.941 46.7849 115.197 45.4822 119.803C44.175 124.368 37.7309 126.575 31.035 124.68C24.3799 122.78 20.0344 117.525 21.337 112.919C22.6442 108.353 29.0884 106.147 35.7843 108.042Z" fill="#CC2818"/>
<path fill-rule="evenodd" clip-rule="evenodd" d="M46.223 108.321L44.4427 117.523C44.452 117.976 44.3798 118.439 44.226 118.91C43.0726 123.004 37.2991 124.929 31.3285 123.242C25.3988 121.551 21.4888 116.866 22.6829 112.768C22.8548 112.088 23.2034 111.512 23.6337 110.927L29.2386 100.1L46.223 108.321Z" fill="#E99670"/>
<path fill-rule="evenodd" clip-rule="evenodd" d="M44.4834 117.518C44.4836 117.89 44.4385 118.225 44.3526 118.565C41.2613 118.621 37.7704 117.318 34.8724 114.668C30.4551 110.619 28.9831 104.836 31.1156 101.005L46.2637 108.316L44.4834 117.518Z" fill="#C87149"/>
<path fill-rule="evenodd" clip-rule="evenodd" d="M38.3935 98.1264C38.3935 98.1264 51.7477 107.125 43.8996 111.182C38.2762 114.082 25.7889 106.927 23.7795 97.0746C22.0611 88.7174 38.3935 98.1264 38.3935 98.1264Z" fill="#EC957E"/>
<path fill-rule="evenodd" clip-rule="evenodd" d="M46.3722 107.437C43.8937 108.911 39.6379 109.634 32.6464 106.203C22.8575 101.391 36.4018 102.479 44.3527 103.408C45.4096 104.736 46.2263 106.131 46.3722 107.437Z" fill="#C87149"/>
<path fill-rule="evenodd" clip-rule="evenodd" d="M32.8812 67.2714L19.0301 68.6124C18.3367 68.6898 17.9834 69.2249 18.2603 69.8548L33.1759 105.028C33.4528 105.658 34.2055 106.111 34.8989 106.034L48.75 104.693C49.4434 104.615 49.7967 104.08 49.5198 103.45L34.6042 68.2766C34.3273 67.6467 33.5746 67.1939 32.8812 67.2714Z" fill="#2C1C28"/>
<path fill-rule="evenodd" clip-rule="evenodd" d="M42.176 102.041C47.2254 102.137 46.9826 97.7455 44.7477 97.3343C47.97 96.6026 47.9996 93.1714 43.3711 92.0365C37.0017 90.4765 29.5957 91.0974 29.5957 91.0974L29.9574 89.5289C29.9574 89.5289 32.7273 90.2933 34.4636 90.6775C38.4392 91.5136 40.0593 87.1613 32.7643 83.9702C28.6385 82.1596 25.4563 81.7717 23.9219 85.4123C22.2834 89.2299 20.1439 96.6965 28.548 105.009C31.1217 111.04 39.4413 107.137 40.9137 105.899C43.0656 104.089 42.8202 103.001 42.176 102.041Z" fill="#E99670"/>
<path d="M45.4144 97.3838C45.4144 97.3838 33.0298 95.2156 25.8248 98.3747" stroke="#2C1C28" stroke-width="0.691702" stroke-miterlimit="10" stroke-linecap="round" stroke-linejoin="round"/>
<path d="M42.1537 102.209C38.7362 102.301 32.4586 102.672 28.8972 104.805" stroke="#2C1C28" stroke-width="0.691702" stroke-miterlimit="10" stroke-linecap="round" stroke-linejoin="round"/>
<path d="M34.3044 90.7372C34.4268 90.7235 25.9552 90.6788 23.7087 93.4904" stroke="#2C1C28" stroke-width="0.691702" stroke-miterlimit="10" stroke-linecap="round" stroke-linejoin="round"/>
<path d="M34.0063 90.6465L26.8979 88.7561" stroke="#2C1C28" stroke-width="0.691702" stroke-miterlimit="10" stroke-linecap="round" stroke-linejoin="round"/>
<path d="M47.1133 117.282C49.6193 123.797 51.6241 139.034 39.5952 147.855" stroke="#CC2818" stroke-width="0.693053" stroke-linecap="round"/>
</svg>
