<svg width="29" height="40" viewBox="0 0 29 40" fill="none" xmlns="http://www.w3.org/2000/svg">
<path d="M27.3912 37.3912H26.0868V30.4346C26.0868 25.8909 23.4872 21.9502 19.7014 19.9999C23.5259 18.0296 26.0868 14.0731 26.0868 9.5652V2.60866H27.3912C28.1113 2.60866 28.6956 2.02484 28.6956 1.30429C28.6955 0.583826 28.1113 0 27.3912 0C22.1598 0 6.58825 0 1.30437 0C0.584294 0 0 0.583826 0 1.30437C0 2.02491 0.584294 2.60874 1.30437 2.60874H2.60874V9.56528C2.60874 14.0724 5.16896 18.0294 8.99418 20C5.20834 21.9503 2.60874 25.891 2.60874 30.4347V37.3913H1.30437C0.584294 37.3913 0 37.9751 0 38.6956C0 39.4162 0.584294 40 1.30437 40C10.0169 40 18.687 40 27.3912 40C28.1113 40 28.6956 39.4162 28.6956 38.6956C28.6955 37.975 28.1113 37.3912 27.3912 37.3912ZM5.25725 10.3524C5.19342 9.60949 5.21732 9.92613 5.21732 2.60866H23.4782C23.4782 9.92613 23.5021 9.60949 23.4383 10.3524H5.25725ZM23.4782 35.9109C16.2826 29.9144 16.5449 30.0225 15.6521 29.707V28.2607C15.6521 27.5402 15.0678 26.9564 14.3478 26.9564C13.6277 26.9564 13.0434 27.5402 13.0434 28.2607V29.7069C12.16 30.0191 12.4365 29.8946 5.21732 35.9108V30.4346C5.21732 25.8441 8.6259 22.0448 13.0434 21.4084V23.0433C13.0434 23.7639 13.6277 24.3477 14.3478 24.3477C15.0678 24.3477 15.6521 23.7639 15.6521 23.0433V21.4084C20.0696 22.0448 23.4782 25.8441 23.4782 30.4346V35.9109Z" fill="#2B49AB"/>
</svg>
