<svg width="50" height="50" viewBox="0 0 50 50" fill="none" xmlns="http://www.w3.org/2000/svg">
<path fill-rule="evenodd" clip-rule="evenodd" d="M8.33122 15.4785C8.33122 10.3014 12.5291 6.10352 17.7062 6.10352C22.8833 6.10352 27.0812 10.3014 27.0812 15.4785C27.0812 20.6556 22.8833 24.8535 17.7062 24.8535C12.5291 24.8535 8.33122 20.6556 8.33122 15.4785ZM4.16455 37.3535C4.16455 33.0952 6.72291 29.2306 10.5437 27.6535C11.0771 27.4327 11.6479 27.4785 12.1729 27.7181C14.0812 28.5868 15.8833 29.0202 17.7062 29.0202C19.5354 29.0202 21.3312 28.6098 23.175 27.7827C23.7083 27.5452 24.3312 27.5514 24.8687 27.7827C28.6749 29.4244 31.2479 33.1952 31.2479 37.3535V41.5202C31.2479 42.6702 30.3145 43.6035 29.1645 43.6035H6.24788C5.09788 43.6035 4.16455 42.6702 4.16455 41.5202V37.3535ZM42.2299 17.3701C42.6362 16.9638 43.1925 16.7847 43.7258 16.7847C44.2591 16.7847 44.8174 16.9638 45.2237 17.3701C46.0383 18.1847 46.0383 19.5513 45.2237 20.3659L36.8904 28.6992C36.0779 29.5117 34.7091 29.5117 33.8966 28.6992L29.7299 24.5325C28.9154 23.718 28.9154 22.3513 29.7299 21.5367C30.5424 20.7242 31.9112 20.7242 32.7237 21.5367L35.3925 24.2055L42.2299 17.3701Z" fill="#ED5C18"/>
</svg>
