<svg width="38" height="38" viewBox="0 0 38 38" fill="none" xmlns="http://www.w3.org/2000/svg">
<circle cx="19" cy="19" r="19" fill="#ED5C18"/>
<path d="M21.5741 21.3067C21.5741 19.7007 20.4081 18.9527 18.9121 18.9527C18.0321 18.9527 16.5581 19.2387 15.7441 20.5367L14.0501 19.6567L15.2381 11.9787H23.6861V14.7947H17.6801L17.3061 17.1267C17.9001 16.6207 19.0001 16.3787 19.9461 16.3787C22.5201 16.3787 24.6541 18.0947 24.6541 21.3067C24.6541 24.3647 22.3441 26.6087 18.7141 26.6087C16.6901 26.6087 14.7321 25.4427 13.6101 23.7047L16.2061 22.0327C16.8001 22.9127 17.8121 23.5287 18.7141 23.5287C20.3861 23.5287 21.5741 22.4507 21.5741 21.3067Z" fill="white"/>
</svg>
