<svg width="60" height="60" viewBox="0 0 60 60" fill="none" xmlns="http://www.w3.org/2000/svg">
<circle cx="30" cy="30" r="30" fill="#ED5C18"/>
<path d="M32.96 31.608C32.96 29.272 31.264 28.184 29.088 28.184C27.808 28.184 25.664 28.6 24.48 30.488L22.016 29.208L23.744 18.04H36.032V22.136H27.296L26.752 25.528C27.616 24.792 29.216 24.44 30.592 24.44C34.336 24.44 37.44 26.936 37.44 31.608C37.44 36.056 34.08 39.32 28.8 39.32C25.856 39.32 23.008 37.624 21.376 35.096L25.152 32.664C26.016 33.944 27.488 34.84 28.8 34.84C31.232 34.84 32.96 33.272 32.96 31.608Z" fill="white"/>
</svg>
