<svg width="427" height="530" viewBox="0 0 427 530" fill="none" xmlns="http://www.w3.org/2000/svg">
<g filter="url(#filter0_d_1862_325)">
<rect x="84.5273" y="137.831" width="224.641" height="290.891" rx="29.0158" fill="#FFEAD5"/>
</g>
<circle cx="203.349" cy="307.145" r="40.7671" fill="#FFB38F"/>
<mask id="mask0_1862_325" style="mask-type:alpha" maskUnits="userSpaceOnUse" x="162" y="266" width="83" height="82">
<circle cx="203.349" cy="307.145" r="40.7671" fill="#ED5C18"/>
</mask>
<g mask="url(#mask0_1862_325)">
<path fill-rule="evenodd" clip-rule="evenodd" d="M204.015 370.403C200.046 370.439 196.26 370.584 192.84 370.821V327.665L225.084 329.356L230.733 371.621H227.1C221.848 370.821 213.481 370.312 204.015 370.403Z" fill="#F68E28"/>
<path fill-rule="evenodd" clip-rule="evenodd" d="M209.197 336.798C202.332 336.798 196.754 334.469 196.754 331.588C196.754 331.434 196.785 331.281 196.815 331.128L196.999 327.879L221.057 329.994C221.425 330.484 221.64 331.036 221.64 331.588C221.64 334.469 216.062 336.798 209.197 336.798Z" fill="#E1D6DA"/>
<path fill-rule="evenodd" clip-rule="evenodd" d="M171.99 332.647C178.771 329.552 201.958 321.908 201.958 321.908C201.958 321.908 204.564 325.34 205.788 331.376C207.755 341.15 210.388 356.409 210.6 369.095C197.651 366.674 183.85 360.454 176.803 356.961C176.777 356.256 176.777 355.551 176.724 354.847C175.048 354.816 173.426 354.356 171.99 353.621C171.778 350.251 172.895 341.564 171.99 332.647C173.878 335.068 171.99 340.806 171.99 332.647ZM222.513 367.379C222.168 365.755 221.716 364.069 221.157 362.323C213.153 336.799 215.839 321.602 215.839 321.602C219.961 324.267 231.208 328.128 233.522 328.955C238.867 330.487 234.825 333.153 234.825 339.802C234.825 343.264 233.735 346.451 231.953 348.902C232.432 351.078 232.963 353.315 233.522 355.551C231.182 359.014 227.353 364.131 222.513 367.379Z" fill="#906CB4"/>
<path fill-rule="evenodd" clip-rule="evenodd" d="M207.723 314.823C214.037 314.823 219.155 316.57 219.155 318.746C219.155 320.922 217.438 331.496 211.125 331.496C204.812 331.496 196.322 320.922 196.322 318.746C196.292 316.57 201.41 314.823 207.723 314.823Z" fill="#3E9689"/>
<path fill-rule="evenodd" clip-rule="evenodd" d="M218.327 322.485C218.235 322.577 218.113 322.639 217.99 322.7L217.745 318.685H217.714C217.622 316.816 213.178 315.314 207.723 315.314C202.207 315.314 197.732 316.846 197.732 318.746C197.732 319.022 197.824 319.267 198.008 319.513L198.468 321.014C197.119 320.371 196.322 319.574 196.322 318.716C196.322 316.54 201.44 314.793 207.754 314.793C214.067 314.793 219.185 316.54 219.185 318.716C219.155 319.298 218.971 321.995 218.327 322.485Z" fill="#75D6C7"/>
<path fill-rule="evenodd" clip-rule="evenodd" d="M218.695 328.952C218.695 331.159 214.435 332.936 209.194 332.936C203.953 332.936 199.693 331.159 199.693 328.952C199.693 328.83 199.693 328.707 199.724 328.584L200.858 307.836L216.182 310.319L217.438 326.96C218.235 327.542 218.695 328.217 218.695 328.952Z" fill="#CC7544"/>
<path fill-rule="evenodd" clip-rule="evenodd" d="M203.678 308.296L216.183 310.319C214.926 313.935 211.31 322.363 200.031 324.631C200.001 324.631 199.97 324.631 199.939 324.631L200.798 308.633C201.717 308.51 202.667 308.388 203.678 308.296Z" fill="#A95A2D"/>
<path fill-rule="evenodd" clip-rule="evenodd" d="M219.125 318.409C219.125 318.409 217.072 322.056 216.459 327.328C215.784 332.998 217.041 337.687 217.041 337.687C217.041 337.687 219.002 336.093 220.351 332.538C221.577 329.289 221.178 326.776 221.178 326.776L219.125 318.409Z" fill="#54B4A6"/>
<path fill-rule="evenodd" clip-rule="evenodd" d="M206.589 338.606C206.589 338.606 202.176 337.288 197.977 332.262C194.054 327.573 193.932 325.336 193.932 325.336L196.445 318.164C196.445 318.164 206.926 325.826 206.589 338.606Z" fill="#54B4A6"/>
<path fill-rule="evenodd" clip-rule="evenodd" d="M217.016 306.557C216.092 312.845 212.43 316.211 209.658 317.911C208.637 318.526 207.471 318.848 206.289 318.88C205.106 318.912 203.922 318.595 202.877 317.998C200.02 316.344 196.218 313.009 195.173 306.605C192.891 307.898 190.146 305.829 189.32 303.229C188.48 300.56 189.369 298.07 191.317 297.672C192.152 297.515 193.454 297.864 194.737 298.525C194.616 295.066 194.445 291.561 194.542 289.779C194.751 289.708 194.931 289.629 195.111 289.55C195.837 287.905 197.722 286.316 202.765 286.207C208.96 286.059 217.19 291.342 217.107 293.192C217.096 293.347 217.057 293.495 216.988 293.636C217.026 294.915 217.083 296.358 217.115 298.016C218.246 297.463 219.337 297.184 220.063 297.315C222.035 297.653 222.989 300.13 222.208 302.808C221.55 305.265 219.204 307.27 217.016 306.557Z" fill="#CC7544"/>
<path d="M218.445 300.403C219.896 300.316 221.1 303.874 218.013 304.856" stroke="#2C1C28" stroke-width="0.763735" stroke-miterlimit="10" stroke-linecap="round" stroke-linejoin="round"/>
<path fill-rule="evenodd" clip-rule="evenodd" d="M200.222 299.137C200.706 299.108 201.104 299.754 201.142 300.557C201.181 301.361 200.842 302.032 200.359 302.061C199.875 302.09 199.477 301.444 199.438 300.64C199.4 299.837 199.738 299.166 200.222 299.137Z" fill="#2C1C28"/>
<path fill-rule="evenodd" clip-rule="evenodd" d="M210.331 298.705C210.815 298.676 211.213 299.322 211.251 300.126C211.29 300.929 210.951 301.6 210.468 301.629C209.984 301.658 209.586 301.012 209.547 300.209C209.479 299.397 209.847 298.734 210.331 298.705Z" fill="#2C1C28"/>
<path d="M202.666 296.049C202.666 296.049 199.02 294.5 196.474 296.896" stroke="#2C1C28" stroke-width="0.763735" stroke-miterlimit="10" stroke-linecap="round" stroke-linejoin="round"/>
<path d="M207.792 295.993C207.792 295.993 210.36 293.985 214.239 295.849" stroke="#2C1C28" stroke-width="0.763735" stroke-miterlimit="10" stroke-linecap="round" stroke-linejoin="round"/>
<path d="M208.845 309.753C208.845 309.753 206.276 311.761 202.397 309.897" stroke="#2C1C28" stroke-width="0.763735" stroke-miterlimit="10" stroke-linecap="round" stroke-linejoin="round"/>
<path d="M203.838 296.298C203.838 296.298 205.576 298.573 203.959 302.359C202.751 305.208 205.3 306.589 207.31 304.653" stroke="#2C1C28" stroke-width="0.763735" stroke-miterlimit="10" stroke-linecap="round" stroke-linejoin="round"/>
<path d="M220.61 298.826C220.61 298.826 219.008 299.476 218.071 300.843C217.134 302.21 216.971 303.054 216.971 303.054" stroke="#2C1C28" stroke-width="0.763735" stroke-miterlimit="10" stroke-linecap="round" stroke-linejoin="round"/>
<path d="M193.549 300.713C192.1 300.673 190.984 304.245 194.106 305.145" stroke="#2C1C28" stroke-width="0.763735" stroke-miterlimit="10" stroke-linecap="round" stroke-linejoin="round"/>
<path d="M191.352 299.204C191.352 299.204 192.962 299.825 193.935 301.165C194.909 302.505 195.096 303.348 195.096 303.348" stroke="#2C1C28" stroke-width="0.763735" stroke-miterlimit="10" stroke-linecap="round" stroke-linejoin="round"/>
<path fill-rule="evenodd" clip-rule="evenodd" d="M195.015 300.217C195.015 300.217 194.777 294.474 194.667 290.859C195.095 289.26 198.603 286.234 204.56 290.527C212.162 296.022 215.708 293.8 215.708 293.8L216.688 300.091C216.688 300.091 217.615 297.579 217.816 292.207C221.669 283.277 214.578 276.586 211.434 275.648C207.388 274.405 204.244 278.798 204.244 278.798C204.244 278.798 192.602 277.487 194.596 285.795C191.097 286.539 191.591 288.956 192.354 291.794C193.187 294.841 193.608 296.35 195.015 300.217Z" fill="#814A2A"/>
<path fill-rule="evenodd" clip-rule="evenodd" d="M217.922 292.045C217.899 292.134 217.853 292.186 217.829 292.274C217.627 297.646 216.7 300.158 216.7 300.158L215.721 293.867C216.485 293.501 217.246 292.911 217.922 292.045ZM212.459 294.199C210.62 293.96 208.011 293.038 204.551 290.557C198.594 286.264 195.086 289.29 194.658 290.888C194.755 293.96 194.923 298.543 194.983 299.859C194.91 299.776 194.837 299.693 194.794 299.618C193.558 296.178 193.167 294.677 192.375 291.831C191.583 288.986 191.118 286.576 194.617 285.832C194.346 284.713 194.339 283.791 194.494 282.976C196.514 282.184 199.261 283.301 201.475 286.052C204.27 289.117 208.51 293.426 212.459 294.199Z" fill="#5F3319"/>
</g>
<rect y="186.566" width="137.069" height="197.988" rx="58.0316" fill="#D6D7D2"/>
<mask id="mask1_1862_325" style="mask-type:alpha" maskUnits="userSpaceOnUse" x="0" y="186" width="138" height="199">
<rect y="186.566" width="137.069" height="197.988" rx="58.0316" fill="#D6D7D2"/>
</mask>
<g mask="url(#mask1_1862_325)">
<path fill-rule="evenodd" clip-rule="evenodd" d="M128.687 512.985C128.687 513.056 128.687 513.02 128.687 513.092C128.615 514.027 122.682 514.782 115.526 514.782C108.73 514.782 103.229 514.099 102.797 513.236H102.762C102.762 513.236 92.7654 500.4 91.3991 475.337C88.3787 419.568 66.1931 362.792 66.1931 362.792C66.1931 362.792 64.0357 348.409 101.323 357.11L128.687 512.877V512.985Z" fill="#5A74C7"/>
<path fill-rule="evenodd" clip-rule="evenodd" d="M70.546 349.632C53.3944 349.632 39.551 352.652 39.6588 356.392C39.7667 360.131 53.754 363.152 70.9055 363.152C88.0571 363.152 101.901 360.131 101.793 356.392C101.721 352.652 87.7335 349.632 70.546 349.632Z" fill="#5A74C7"/>
<path fill-rule="evenodd" clip-rule="evenodd" d="M100.893 334.565C100.893 334.565 92.048 328.92 77.9528 328.704C49.7624 328.308 37.7168 334.421 37.7168 334.421L38.3281 356.319L101.361 350.925L100.893 334.565Z" fill="#7581F1"/>
<path fill-rule="evenodd" clip-rule="evenodd" d="M70.0077 472.677C73.7113 499.033 68.5335 513.128 68.2818 513.776C68.066 514.531 62.7803 515.106 56.2002 515.106C49.7279 515.106 44.4062 514.531 44.0467 513.776H44.0107L38.0059 349.775C38.0059 349.775 46.312 347.977 53.827 349.775C62.5646 351.861 70.1156 361.605 70.1156 361.605C70.1156 361.605 63.9669 429.744 70.0077 472.677Z" fill="#5A74C7"/>
<path d="M46.0228 340.282C46.0228 340.282 45.6272 351.537 38.6875 359.411" stroke="#555EC2" stroke-width="0.632192" stroke-miterlimit="10" stroke-linecap="round" stroke-linejoin="round"/>
<path d="M81.6582 338.521C81.6582 338.521 81.874 354.45 96.4726 359.699" stroke="#3763C3" stroke-width="0.632192" stroke-miterlimit="10" stroke-linecap="round" stroke-linejoin="round"/>
<path d="M128.615 512.445L95.2109 351.033C95.3907 347.977 96.0379 340.462 96.0379 340.462" stroke="#3763C3" stroke-width="0.632192" stroke-miterlimit="10" stroke-linecap="round" stroke-linejoin="round"/>
<path d="M62.5966 364.158C62.5966 364.158 60.0796 429.636 64.2146 477.063C66.0844 498.278 62.6325 514.531 62.6325 514.531" stroke="#3763C3" stroke-width="0.632192" stroke-miterlimit="10" stroke-linecap="round" stroke-linejoin="round"/>
<path fill-rule="evenodd" clip-rule="evenodd" d="M69.1415 375.233L69.3932 371.529L66.8762 363.151L57.0239 361.317C56.988 361.317 58.9656 372.5 69.1415 375.233Z" fill="#375BB7"/>
<path fill-rule="evenodd" clip-rule="evenodd" d="M30.1082 300.086C33.1747 328.182 26.9252 342.195 36.4911 349.122C36.8991 354.069 37.535 361.705 37.535 361.705C37.535 361.705 37.5989 362.277 38.0439 362.697C38.5644 363.146 38.9814 363.316 38.9814 363.316C38.9814 363.316 38.4997 361.271 38.7101 361.212C40.9055 360.46 47.6748 358.871 69.2628 356.821C85.5858 355.251 95.1597 355.773 101.565 355.781C102.006 357.143 102.126 357.564 102.126 357.564C102.126 357.564 104.817 356.721 104.844 355.668C104.844 355.668 103.945 346.326 103.606 343.614C110.056 338.515 109.064 326.397 97.9658 294.423C103.078 290.957 106.175 284.678 105.425 277.959C104.375 268.561 96.3062 261.756 87.2651 262.441L86.8362 262.488C86.8005 262.492 86.7647 262.496 86.6933 262.504C86.6575 262.508 86.5861 262.516 86.5504 262.52L34.7826 268.412C26.6477 270.407 21.1887 278.542 22.1708 287.333C22.7617 292.622 26.0365 297.321 30.1082 300.086Z" fill="#ED5C18"/>
<path d="M36.1445 342.196C44.8462 340.434 80.6594 337.701 103.564 344.173" stroke="#CC2818" stroke-width="0.632192" stroke-miterlimit="10" stroke-linecap="round" stroke-linejoin="round"/>
<path d="M46.7548 276.809L58.4577 285.053L70.2998 273.816" stroke="#CC2818" stroke-width="0.632192" stroke-miterlimit="10" stroke-linecap="round" stroke-linejoin="round"/>
<path fill-rule="evenodd" clip-rule="evenodd" d="M52.4239 292.565C47.8946 301.574 35.484 318.084 24.5333 325.964C22.4351 329.853 18.5533 332.675 13.8363 333.202C6.22482 334.052 -0.647969 328.561 -1.49435 320.985C-2.09719 315.589 0.492704 310.596 4.74377 307.842C4.84299 307.758 4.91048 307.715 5.0097 307.631C16.6994 300.536 21.5064 284.622 22.3266 281.6C23.5851 274.73 29.1925 269.219 36.4824 268.404C45.3804 267.41 53.441 273.818 54.4351 282.716C54.8344 286.29 54.0541 289.669 52.4239 292.565Z" fill="#ED5C18"/>
<path d="M27.1643 320.026L32.4446 285.68" stroke="#ED5C18" stroke-width="0.632192" stroke-miterlimit="10" stroke-linecap="round" stroke-linejoin="round"/>
<path fill-rule="evenodd" clip-rule="evenodd" d="M140.258 309.96C141.193 318.322 135.158 325.835 126.831 326.765C121.936 327.312 117.317 325.476 114.122 322.143L88.8646 297.178C80.2956 297.23 72.8623 290.608 71.8562 281.602C70.7863 272.025 77.4242 263.433 86.7153 262.395C92.1112 261.792 97.1554 263.869 100.684 267.6L100.747 267.52L135.901 300.751L135.869 300.79C138.201 303.207 139.855 306.351 140.258 309.96Z" fill="#ED5C18"/>
<path d="M83.541 291.622L108.979 318.846" stroke="#CC2818" stroke-width="0.632192" stroke-miterlimit="10" stroke-linecap="round" stroke-linejoin="round"/>
<path fill-rule="evenodd" clip-rule="evenodd" d="M140.259 309.96C141.193 318.322 135.158 325.834 126.832 326.764C125.474 326.916 124.132 326.885 122.842 326.667L97.6936 325.352L97.7354 302.409C97.7354 302.409 102.87 302.378 106.308 302.392C109.987 291.597 126.377 295.808 128.212 296.689C134.435 297.983 139.505 303.206 140.259 309.96Z" fill="#ED5C18"/>
<path fill-rule="evenodd" clip-rule="evenodd" d="M99.1567 302.829C96.2413 301.346 93.2535 305.045 92.5226 311.132C91.7877 317.184 93.5783 323.497 96.4938 324.98C99.4092 326.463 102.377 322.586 103.112 316.534C103.879 310.442 102.072 304.313 99.1567 302.829Z" fill="#CC2818"/>
<path fill-rule="evenodd" clip-rule="evenodd" d="M98.7337 303.889C96.1241 302.553 93.4577 305.89 92.7979 311.318C92.138 316.747 93.7456 322.392 96.3553 323.729C98.9649 325.065 101.615 321.585 102.275 316.157C102.967 310.689 101.375 305.186 98.7337 303.889Z" fill="#D3D8DC"/>
<path fill-rule="evenodd" clip-rule="evenodd" d="M91.152 303.724L97.5489 303.66L97.7757 324.149L90.6601 324.257L91.152 303.724Z" fill="#D3D8DC"/>
<path fill-rule="evenodd" clip-rule="evenodd" d="M92.0403 303.914C89.4307 302.577 86.7644 305.915 86.1045 311.343C85.4447 316.771 87.0523 322.417 89.6619 323.754C92.2715 325.09 94.9219 321.61 95.5818 316.182C96.2376 310.717 94.646 305.215 92.0403 303.914Z" fill="#A8B3BC"/>
<path fill-rule="evenodd" clip-rule="evenodd" d="M91.3671 304.676C89.1785 303.546 86.9248 306.366 86.3836 310.913C85.8463 315.496 87.1714 320.232 89.356 321.327C91.5446 322.457 93.7863 319.529 94.3236 314.947C94.9006 310.396 93.5517 305.771 91.3671 304.676Z" fill="#E99670"/>
<path fill-rule="evenodd" clip-rule="evenodd" d="M69.3184 304.535L73.8534 311.771L69.3184 304.535Z" fill="#E99670"/>
<path fill-rule="evenodd" clip-rule="evenodd" d="M77.2588 318.952C72.592 317.013 70.6797 313.175 66.8818 310.27L65.4439 309.382C64.6296 308.894 64.3352 307.878 64.7516 307.071C65.176 306.336 66.0892 306.09 66.8518 306.439C66.8518 306.439 70.8636 308.668 76.0817 309.387C84.0615 306.976 94.9123 324.433 77.2588 318.952Z" fill="#E99670"/>
<path d="M59.5173 292.931L69.791 294.858L70.6051 295.02L71.0142 295.119L71.2008 295.171L71.4629 295.25C72.2056 295.42 72.8887 295.706 73.5798 296.063C74.271 296.42 74.8986 296.856 75.4985 297.368C75.7806 297.626 76.0627 297.884 76.3488 298.178C76.4719 298.309 76.5991 298.475 76.7223 298.606L77.0601 299.039L89.0771 314.629C91.1515 317.328 84.7768 321.152 78.6949 316.911L72.9557 301.487L72.7809 301.218C72.7371 301.15 72.6934 301.083 72.6497 301.015C72.5623 300.88 72.4391 300.749 72.3159 300.618C72.0695 300.356 71.8272 300.13 71.5134 299.912C71.2035 299.729 70.8937 299.547 70.5521 299.404L70.4012 299.349L70.2146 299.297L69.8015 299.162L69.0151 298.925L58.8444 296.298C57.9071 296.005 57.291 295.024 57.5128 294.095C57.7783 293.233 58.6278 292.74 59.5173 292.931Z" fill="#E99670"/>
<path fill-rule="evenodd" clip-rule="evenodd" d="M77.4541 310.971L73.6136 303.151L73.3752 302.96C73.2958 302.897 73.2561 302.865 73.1766 302.802C73.0574 302.706 72.9025 302.615 72.7476 302.524C72.4378 302.341 72.1319 302.195 71.7983 302.123C71.4608 302.016 71.1271 301.945 70.7658 301.949L70.6189 301.93L70.4005 301.918L70.0034 301.926L69.2052 301.907L59.0358 301.559C58.059 301.56 57.2525 300.818 57.1844 299.885C57.1283 299.059 57.7751 298.372 58.6685 298.272L68.7621 297.94L69.5483 297.852L69.9414 297.808L70.1558 297.784L70.4059 297.756C71.1246 297.712 71.8553 297.775 72.5939 297.91C73.3326 298.045 74.0435 298.255 74.7306 298.576C75.0722 298.719 75.4177 298.897 75.7276 299.079C75.8825 299.171 76.0374 299.262 76.1963 299.389L76.6253 299.667L84.7542 307.333C88.538 313.351 84.6306 313.027 77.4541 310.971Z" fill="#E99670"/>
<path d="M59.5173 292.931L69.791 294.858L70.6051 295.02L71.0142 295.119L71.2008 295.171L71.4629 295.25C72.2056 295.42 72.8887 295.706 73.5798 296.063C74.271 296.42 74.8986 296.856 75.4985 297.368C75.7806 297.626 76.0627 297.884 76.3488 298.178C76.4719 298.309 76.5991 298.475 76.7223 298.606L77.0601 299.039L89.0771 314.629C91.1515 317.328 84.7768 321.152 78.6949 316.911L72.9557 301.487L72.7809 301.218C72.7371 301.15 72.6934 301.083 72.6497 301.015C72.5623 300.88 72.4391 300.749 72.3159 300.618C72.0695 300.356 71.8272 300.13 71.5134 299.912C71.2035 299.729 70.8937 299.547 70.5521 299.404L70.4012 299.349L70.2146 299.297L69.8015 299.162L69.0151 298.925L58.8444 296.298C57.9071 296.005 57.291 295.024 57.5128 294.095C57.7783 293.233 58.6278 292.74 59.5173 292.931Z" fill="#E99670"/>
<path fill-rule="evenodd" clip-rule="evenodd" d="M81.2457 310.909L75.7857 304.138L75.5156 303.987C75.4401 303.959 75.3607 303.896 75.2852 303.868C75.1343 303.813 74.9794 303.721 74.8324 303.702C74.4949 303.595 74.1613 303.523 73.8317 303.488C73.5021 303.452 73.1407 303.456 72.7874 303.532L72.6444 303.548L72.434 303.608L72.0449 303.687L71.2668 303.847L64.029 305.451C63.0761 305.666 62.1109 305.123 61.8681 304.245C61.6333 303.44 62.1213 302.625 62.959 302.351L69.978 300.083L70.7442 299.817L71.1292 299.701L71.3039 299.646L71.5501 299.582C72.2528 299.395 72.9635 299.279 73.7179 299.231C74.4724 299.183 75.203 299.246 75.9417 299.381C76.311 299.448 76.6843 299.551 77.0219 299.658C77.2086 299.71 77.3952 299.761 77.5501 299.852L78.0426 300.051L84.7195 309.942C89.6265 315.002 88.711 311.341 81.2457 310.909Z" fill="#E99670"/>
<path fill-rule="evenodd" clip-rule="evenodd" d="M67.61 301.867L77.6592 300.491L79.0645 313.07L75.5274 314.442L67.61 301.867Z" fill="#E99670"/>
<path fill-rule="evenodd" clip-rule="evenodd" d="M90.3631 304.427L81.6997 305.901L81.6169 320.057L90.2503 321.553C93.2539 317.672 93.0587 310.095 90.3631 304.427Z" fill="#E99670"/>
<path d="M79.295 317.422C79.295 317.422 77.559 316.133 77.0094 313.48C74.9906 304.154 75.2881 303.578 73.4336 303.496C73.5806 303.516 71.23 303.851 71.23 303.851L63.9922 305.455C63.0394 305.67 62.0742 305.127 61.8314 304.25C61.5966 303.444 62.0846 302.629 62.9222 302.355L69.9413 300.087C69.9413 300.087 74.1254 298.353 76.2108 299.531C78.8007 301.015 82.9648 305.579 82.9648 305.579" stroke="#2C1C28" stroke-width="0.632192" stroke-miterlimit="10" stroke-linecap="round" stroke-linejoin="round"/>
<path d="M65.0644 301.754C62.2689 301.668 59.1081 301.551 59.1081 301.551C58.1313 301.551 57.3247 300.809 57.2567 299.876C57.2006 299.05 57.8474 298.363 58.7408 298.263L68.8344 297.932L69.6205 297.844L70.0136 297.8L70.228 297.776L70.4781 297.748C71.1968 297.704 71.9275 297.767 72.6661 297.901C73.4048 298.036 74.1157 298.246 74.8028 298.567C75.1444 298.71 75.49 298.888 75.7998 299.071C75.9547 299.162 76.1096 299.253 76.2686 299.38" stroke="#2C1C28" stroke-width="0.632192" stroke-miterlimit="10" stroke-linecap="round" stroke-linejoin="round"/>
<path d="M102.149 325.072C105.318 326.563 108.528 322.586 109.386 316.339C110.208 310.097 108.656 303.975 105.486 302.484" stroke="#CC2818" stroke-width="0.632192" stroke-miterlimit="10" stroke-linecap="round" stroke-linejoin="round"/>
<path d="M97.6996 302.413C97.6996 302.413 102.834 302.382 106.272 302.396C109.951 291.601 126.341 295.812 128.176 296.693" stroke="#CC2818" stroke-width="0.632192" stroke-miterlimit="10" stroke-linecap="round" stroke-linejoin="round"/>
<path fill-rule="evenodd" clip-rule="evenodd" d="M69.9047 256.674C72.8203 258.483 67.9368 265.94 61.6165 267.984C54.8397 270.152 48.5887 268.608 48.5708 265.209C48.6113 260.066 61.8966 251.708 69.9047 256.674Z" fill="black"/>
<path fill-rule="evenodd" clip-rule="evenodd" d="M70.1836 264.35L67.4742 242.365L50.8895 244.507L49.8874 268.571C49.8874 268.571 49.8519 268.901 49.8719 269.079C49.9479 270.084 52.0606 270.535 55.1181 270.375L57.7126 279.673L58.9734 269.908C59.3983 269.824 59.8588 269.736 60.3194 269.649C65.9373 268.442 70.4269 266.204 70.291 264.663C70.279 264.556 70.2671 264.449 70.1836 264.35Z" fill="#E99670"/>
<path fill-rule="evenodd" clip-rule="evenodd" d="M69.1458 256.035C70.9651 257.098 72.4332 261.819 61.7472 267.535C60.2663 267.881 59.5167 269.268 58.9227 272.048L57.7041 279.275L55.6709 272.411C55.6709 272.411 55.2373 271.121 54.7604 270.414C54.1126 269.473 53.4134 269.045 53.4134 269.045C53.4134 269.045 49.5886 267.518 49.0876 266.272C48.1411 263.954 49.5617 262.42 50.3713 261.57C50.379 261.316 50.3869 261.061 50.3946 260.807C49.4817 261.38 48.1086 262.691 47.3835 265.268C45.3096 270.023 46.4455 276.951 46.4455 276.951L50.3156 274.673L57.784 279.99L65.6179 272.711C65.6179 272.711 67.7744 273.229 70.8324 274.046C73.2848 271.384 75.6091 267.253 75.8214 263.647L70.2143 256.531L69.1776 255.995L69.1458 256.035Z" fill="#D3D8DC"/>
<path d="M69.3111 256.198C69.9427 256.67 70.3362 257.278 70.428 258.1C70.7594 261.065 66.9422 265.436 61.7814 267.496C60.638 267.949 59.761 268.843 59.3845 270.007C58.7027 272 57.9622 275.412 57.7901 279.7C56.6876 275.337 55.5523 269.386 52.4863 268.498C51.9263 268.343 51.3624 268.153 50.8896 267.808C49.9839 267.149 49.2686 266.252 49.1648 265.323" stroke="#2A1C28" stroke-width="0.632192" stroke-miterlimit="10" stroke-linecap="round" stroke-linejoin="round"/>
<path fill-rule="evenodd" clip-rule="evenodd" d="M46.4116 276.956L56.0466 273.492C56.0466 273.492 54.9209 270.217 53.8718 268.923C52.8267 267.665 49.0244 270.55 46.4116 276.956Z" fill="#2A1C28"/>
<path fill-rule="evenodd" clip-rule="evenodd" d="M70.7609 274.054L58.5029 273.795C58.6022 273.712 58.4605 269.205 60.7984 267.786C62.1877 266.944 68.2252 270.14 70.7609 274.054Z" fill="#2A1C28"/>
<path fill-rule="evenodd" clip-rule="evenodd" d="M50.0321 265.661C64.4301 258.842 62.7237 247.455 62.7237 247.455L50.5915 251.56L50.0321 265.661Z" fill="#C87149"/>
<path fill-rule="evenodd" clip-rule="evenodd" d="M50.3182 257.529C51.5459 258.199 52.9309 258.49 54.3247 258.406C55.7184 258.322 57.0613 257.916 58.2301 257.148C61.513 254.98 65.7957 250.748 66.5347 242.976C72.139 243.154 73.7436 234.324 70.0425 233.065C67.7487 232.315 65.4938 234.425 64.541 236.252C64.4907 236.341 64.3995 236.552 64.3839 236.631C63.258 232.391 66.8161 226.605 63.7324 224.878C47.4397 215.776 41.1725 227.861 39.7695 230.222C39.7928 233.161 40.3491 236.14 40.8005 240.64C41.6944 250.014 46.3541 255.447 50.3182 257.529ZM64.5063 236.262C64.5315 236.218 64.5315 236.218 64.5063 236.262V236.262Z" fill="#E99670"/>
<path d="M50.1521 248.365C50.1521 248.365 53.8759 247.94 55.5238 244.841" stroke="#2C1C28" stroke-width="0.632192" stroke-miterlimit="10" stroke-linecap="round" stroke-linejoin="round"/>
<path d="M45.1867 233.247C43.0736 233.156 40.6033 234.617 40.2483 235.497" stroke="#2C1C28" stroke-width="0.632192" stroke-miterlimit="10" stroke-linecap="round" stroke-linejoin="round"/>
<path d="M57.2812 231.122C55.6971 230.513 52.7607 230.275 50.0416 231.915" stroke="#2C1C28" stroke-width="0.632192" stroke-miterlimit="10" stroke-linecap="round" stroke-linejoin="round"/>
<path d="M47.4881 236.606C47.4881 236.606 48.0174 238.4 47.275 241.81C46.5953 244.905 48.7001 245.781 51.5485 244.068" stroke="#2C1C28" stroke-width="0.632192" stroke-miterlimit="10" stroke-linecap="round" stroke-linejoin="round"/>
<path fill-rule="evenodd" clip-rule="evenodd" d="M54.2829 234.479C53.7532 234.587 53.4675 235.449 53.6802 236.36C53.8928 237.271 54.5087 237.885 55.0383 237.777C55.568 237.669 55.8537 236.808 55.641 235.897C55.4284 234.985 54.8125 234.371 54.2829 234.479Z" fill="#2C1C28"/>
<path fill-rule="evenodd" clip-rule="evenodd" d="M43.6891 236.902C43.1595 237.01 42.8738 237.871 43.0864 238.782C43.2991 239.693 43.9149 240.307 44.4446 240.199C44.9742 240.091 45.2599 239.23 45.0473 238.319C44.8346 237.408 44.2188 236.794 43.6891 236.902Z" fill="#2C1C28"/>
<path fill-rule="evenodd" clip-rule="evenodd" d="M37.3678 231.254C40.5067 240.385 39.807 232.262 39.807 232.262C41.8044 233.019 48.005 229.118 52.7323 224.876C57.4249 220.643 60.6995 219.26 62.1104 226.442C63.0669 231.288 67.6915 215.254 62.6954 216.886C61.5386 206.688 50.962 215.705 50.962 215.705C50.962 215.705 46.5951 212.018 41.8254 213.252C37.3679 214.4 34.8801 218.923 36.6301 222.992C33.3169 223.826 30.9411 225.224 37.3678 231.254Z" fill="#951800"/>
<path fill-rule="evenodd" clip-rule="evenodd" d="M40.7375 232.119C42.8003 232.299 46.8148 230.079 52.806 225.415C57.8209 221.541 60.6802 222.994 62.3339 230.109C62.7117 231.758 63.5187 235.787 63.9636 238.089C64.2794 236.25 65.5879 233.952 68.6422 232.853C66.1259 228.845 70.16 214.465 62.6611 216.895C62.5077 215.52 62.3331 214.748 61.8995 213.711C61.4475 213.015 58.0996 209.645 53.8411 219.538C50.8178 226.594 44.9468 231.561 40.7375 232.119ZM37.3682 231.254C38.4885 236.017 40.6411 239.379 40.6411 239.379L40.2174 232.262C38.6054 231.958 37.7849 231.549 37.3682 231.254Z" fill="#5F1001"/>
<path fill-rule="evenodd" clip-rule="evenodd" d="M11.4432 274.613C11.4432 274.613 10.9156 276.717 10.8861 278.315C10.7064 283.224 11.6792 287.276 11.7823 287.889L13.8325 280.171L11.4432 274.613Z" fill="#EC957E"/>
<path fill-rule="evenodd" clip-rule="evenodd" d="M34.4609 314.931C33.6565 325.11 24.3913 332.49 21.2151 334.475C16.1525 338.196 8.97582 338.2 3.93514 334.048C1.11023 331.728 -0.527952 328.548 -0.937137 325.196C-1.71192 321.364 -3.23351 309.607 4.75695 302.3C8.78451 298.625 12.1675 298.802 12.1675 298.802L30.9771 305.473C30.9391 305.442 34.8233 310.105 34.4609 314.931Z" fill="#ED5C18"/>
<path fill-rule="evenodd" clip-rule="evenodd" d="M22.426 297.829C28.0131 299.424 31.6612 303.836 30.5676 307.703C29.4702 311.536 24.0602 313.388 18.4389 311.797C12.8518 310.202 9.20367 305.79 10.2973 301.924C11.3947 298.091 16.8047 296.238 22.426 297.829Z" fill="#CC2818"/>
<path fill-rule="evenodd" clip-rule="evenodd" d="M31.1919 298.064L29.6973 305.789C29.7051 306.17 29.6445 306.558 29.5153 306.954C28.5471 310.391 23.7001 312.007 18.6877 310.591C13.7096 309.17 10.4271 305.238 11.4296 301.797C11.5739 301.226 11.8666 300.743 12.2278 300.252L16.9332 291.162L31.1919 298.064Z" fill="#E99670"/>
<path fill-rule="evenodd" clip-rule="evenodd" d="M29.7308 305.785C29.731 306.098 29.6931 306.379 29.621 306.665C27.0258 306.712 24.0951 305.618 21.6622 303.393C17.9538 299.993 16.718 295.139 18.5083 291.922L31.2254 298.06L29.7308 305.785Z" fill="#C87149"/>
<path fill-rule="evenodd" clip-rule="evenodd" d="M24.6176 289.506C24.6176 289.506 35.8287 297.06 29.24 300.466C24.5192 302.9 14.0358 296.894 12.3489 288.622C10.9063 281.606 24.6176 289.506 24.6176 289.506Z" fill="#EC957E"/>
<path fill-rule="evenodd" clip-rule="evenodd" d="M31.3151 297.322C29.2344 298.56 25.6616 299.167 19.7921 296.286C11.5741 292.246 22.9448 293.16 29.6197 293.94C30.507 295.054 31.1927 296.226 31.3151 297.322Z" fill="#C87149"/>
<path fill-rule="evenodd" clip-rule="evenodd" d="M19.9883 263.602L8.36006 264.728C7.7779 264.793 7.48135 265.242 7.71379 265.771L20.2357 295.3C20.4682 295.829 21.1 296.209 21.6822 296.144L33.3104 295.018C33.8926 294.953 34.1891 294.504 33.9567 293.975L21.4348 264.446C21.2023 263.917 20.5705 263.537 19.9883 263.602Z" fill="#2C1C28"/>
<path fill-rule="evenodd" clip-rule="evenodd" d="M27.7909 292.792C32.03 292.873 31.8261 289.185 29.9499 288.84C32.6551 288.226 32.68 285.345 28.7942 284.393C23.447 283.083 17.2295 283.604 17.2295 283.604L17.5332 282.288C17.5332 282.288 19.8586 282.929 21.3162 283.252C24.6538 283.954 26.0139 280.3 19.8896 277.621C16.4259 276.101 13.7544 275.775 12.4663 278.832C11.0907 282.036 9.2946 288.305 16.35 295.283C18.5106 300.347 25.4951 297.07 26.7312 296.03C28.5378 294.511 28.3317 293.598 27.7909 292.792Z" fill="#E99670"/>
<path d="M30.5127 288.882C30.5127 288.882 20.1156 287.062 14.0669 289.714" stroke="#2C1C28" stroke-width="0.632192" stroke-miterlimit="10" stroke-linecap="round" stroke-linejoin="round"/>
<path d="M27.7734 292.933C24.9043 293.011 19.6342 293.322 16.6443 295.112" stroke="#2C1C28" stroke-width="0.632192" stroke-miterlimit="10" stroke-linecap="round" stroke-linejoin="round"/>
<path d="M21.1851 283.302C21.2879 283.29 14.1758 283.253 12.2898 285.613" stroke="#2C1C28" stroke-width="0.632192" stroke-miterlimit="10" stroke-linecap="round" stroke-linejoin="round"/>
<path d="M20.9344 283.226L14.9668 281.639" stroke="#2C1C28" stroke-width="0.632192" stroke-miterlimit="10" stroke-linecap="round" stroke-linejoin="round"/>
<path d="M31.9385 305.587C34.0424 311.057 35.7255 323.848 25.627 331.254" stroke="#CC2818" stroke-width="0.633427" stroke-linecap="round"/>
</g>
<path d="M249.008 530H124.353C55.6741 530 -0.000778198 474.325 -0.000778198 405.646V403.592H249.008L249.008 530Z" fill="#F9B99B"/>
<mask id="mask2_1862_325" style="mask-type:alpha" maskUnits="userSpaceOnUse" x="0" y="403" width="250" height="127">
<path d="M249.008 530H124.353C55.6741 530 -0.000778198 474.325 -0.000778198 405.646V403.592H249.008L249.008 530Z" fill="#FCB72B"/>
</mask>
<g mask="url(#mask2_1862_325)">
<path fill-rule="evenodd" clip-rule="evenodd" d="M126.677 418.543C126.677 418.543 128.002 445.462 125.297 456.703L117.314 456.42L126.677 418.543Z" fill="#2C1C28"/>
<path fill-rule="evenodd" clip-rule="evenodd" d="M157.318 466.116L153.875 473.768C153.808 473.815 150.439 480.96 150.429 481.014C150.193 481.522 152.751 482.447 156.12 483.053C159.489 483.659 162.403 483.723 162.642 483.215C162.685 483.134 165.664 475.3 165.566 475.195L168.679 466.28C169.686 465.362 170.668 464.406 171.628 463.42C172.034 463.087 172.408 462.777 172.819 462.447C174.249 461.256 175.683 460.065 177.086 458.87C179.9 456.45 182.706 454.057 185.496 451.604C185.927 451.305 186.021 450.625 185.674 450.13C185.311 449.571 184.554 449.437 183.995 449.797C182.477 450.827 180.936 451.826 179.388 452.849L181.219 447.673C181.411 447.098 181.152 446.445 180.593 446.169C179.977 445.883 179.26 446.162 178.981 446.748L175.581 454.192L174.447 449.38C174.32 448.808 173.758 448.387 173.138 448.447C172.458 448.528 172.005 449.114 172.062 449.76L172.805 456.413L169.016 457.817C169.023 457.79 169.049 457.793 169.053 457.766C169.894 456.642 170.587 455.521 171.271 454.31C171.526 453.862 171.459 453.27 171.066 452.883C170.604 452.395 169.82 452.398 169.332 452.859L169.295 452.91C168.416 453.765 167.455 454.606 166.512 455.336C166.038 455.713 165.546 456.033 165.058 456.322C164.826 456.484 164.577 456.585 164.348 456.716C164.099 456.817 163.944 456.874 163.56 457.066C162.164 457.743 160.805 458.685 159.64 460.011C158.472 461.337 157.59 463.178 157.395 465.227" fill="#CC7544"/>
<path fill-rule="evenodd" clip-rule="evenodd" d="M156.82 491.392C157.911 495.882 155.164 500.395 150.675 501.489C147.626 502.229 144.527 501.193 142.554 499.002L117.553 474.172C115.901 472.93 114.639 471.123 114.107 468.936C112.895 463.948 115.948 458.89 120.966 457.668C125.095 456.666 129.227 458.567 131.223 462.07L153.687 486.607C155.178 487.768 156.335 489.397 156.82 491.392Z" fill="#A8B3BC"/>
<path fill-rule="evenodd" clip-rule="evenodd" d="M164.091 483.073L164.176 483.091L156.715 496.353C155.133 499.661 151.502 501.644 147.712 500.961C143.165 500.143 140.15 495.801 140.968 491.255C141.237 489.767 141.877 488.461 142.795 487.381L147.558 480.095C147.54 480.034 147.551 479.977 147.561 479.92C147.86 479.22 151.845 479.301 156.449 480.129C161.052 480.957 164.539 482.195 164.206 482.918C164.196 482.976 164.158 483.027 164.091 483.073Z" fill="#A8B3BC"/>
<path d="M142.688 487.506L147.563 480.068" stroke="#1C4192" stroke-width="0.703535" stroke-miterlimit="10" stroke-linecap="round" stroke-linejoin="round"/>
<path d="M159.973 463.464C159.973 463.464 160.511 460.314 164.566 459.19C167.463 458.379 172.781 456.699 172.781 456.699" stroke="#2A1C28" stroke-width="0.703535" stroke-miterlimit="10" stroke-linecap="round" stroke-linejoin="round"/>
<path d="M175.521 454.384C176.857 451.466 179.008 446.781 179.008 446.781C179.294 446.166 180.004 445.917 180.62 446.203C181.185 446.448 181.471 447.108 181.246 447.707L177.604 457.948C177.55 458.082 177.469 458.214 177.389 458.345L177.312 458.446C176.416 459.385 174.969 460.515 173.609 461.458" stroke="#2A1C28" stroke-width="0.703535" stroke-miterlimit="10" stroke-linecap="round" stroke-linejoin="round"/>
<path d="M172.779 456.901L172.054 449.817C171.971 449.164 172.455 448.555 173.132 448.505C173.751 448.444 174.32 448.835 174.441 449.437L176.268 457.157C176.366 457.581 176.262 457.995 176.029 458.332L175.908 458.513C175.591 458.978 175.295 459.331 174.996 459.711C174.697 460.092 174.394 460.472 174.067 460.849C173.445 461.576 172.791 462.299 172.139 463.023" stroke="#2A1C28" stroke-width="0.703535" stroke-miterlimit="10" stroke-linecap="round" stroke-linejoin="round"/>
<path fill-rule="evenodd" clip-rule="evenodd" d="M118.936 504.44C118.936 504.44 102.681 524.632 99.5175 539.069C96.8252 551.32 109.176 587.363 110.421 598.569C111.7 609.776 111.162 612.165 111.162 612.165C111.195 612.165 114.796 614.319 128.762 613.949C146.599 613.477 148.787 611.66 148.787 611.66L139.363 537.286L141.517 517.8L118.936 504.44Z" fill="#5A74C7"/>
<path d="M126.676 613.78C126.676 613.78 116.984 564.074 113.72 547.079C110.792 531.868 121.662 515.512 121.426 515.647" stroke="#1C4192" stroke-width="0.830126" stroke-miterlimit="10" stroke-linecap="round" stroke-linejoin="round"/>
<path fill-rule="evenodd" clip-rule="evenodd" d="M88.1074 467.421C88.1074 462.171 92.1122 457.864 97.2275 457.325C97.3285 457.291 97.3622 457.258 97.3622 457.258L119.708 457.46C120.314 457.359 120.92 457.291 121.525 457.291C127.146 457.291 131.689 461.835 131.689 467.455C131.689 467.791 131.655 468.162 131.622 468.498C135.02 472.335 138.386 476.272 140.271 478.729C141.785 482.902 137.915 489.094 137.915 489.094L141.516 517.8C140.775 517.262 133.876 517.599 125.362 517.599C116.444 517.599 109.208 518.07 109.04 518.642C109.006 518.642 109.006 518.642 109.006 518.642L109.612 512.046C109.612 512.046 100.526 491.651 92.6843 475.936C89.9584 474.118 88.1411 470.988 88.1074 467.421Z" fill="#D3D8DC"/>
<path fill-rule="evenodd" clip-rule="evenodd" d="M128.696 469.979C127.518 465.705 125.667 463.618 125.667 463.618L104.566 459.815L130.043 479.099C130.043 479.099 130.345 476.07 128.696 469.979Z" fill="#5A74C7"/>
<path fill-rule="evenodd" clip-rule="evenodd" d="M116.473 514.533C117.205 515.135 118.623 516.694 116.065 519.883C113.507 523.071 108.424 527.029 107.168 526.132C106.381 525.567 107.912 522.422 110.47 519.233C113.056 516.027 115.742 513.929 116.473 514.533Z" fill="#2A1C28"/>
<path fill-rule="evenodd" clip-rule="evenodd" d="M108.629 525.348C108.629 525.348 119.486 530.485 122.606 532.52C125.407 534.324 129.557 535.421 132.297 534.668C134.292 534.134 140.768 530.615 140.768 530.615C140.768 530.615 147.73 530.463 145.516 525.258C134.084 524.082 129.599 523.212 129.599 523.212L117.139 515.219C113.932 517.505 108.629 525.348 108.629 525.348Z" fill="#CC7544"/>
<path fill-rule="evenodd" clip-rule="evenodd" d="M117.156 515.247C117.803 515.785 116.4 518.518 114.017 521.304C111.635 524.09 109.181 525.868 108.534 525.331C107.868 524.765 109.262 522.078 111.644 519.292C114.027 516.506 116.49 514.681 117.156 515.247Z" fill="#CC7544"/>
<path fill-rule="evenodd" clip-rule="evenodd" d="M129.038 524.849L143.525 524.897L144.002 525.062C144.189 525.098 144.347 525.153 144.525 525.236C144.862 525.374 145.199 525.513 145.527 525.697C146.192 526.02 146.81 526.455 147.345 526.947C147.907 527.419 148.405 527.977 148.8 528.562L148.951 528.786L149.064 528.953L149.29 529.288L149.695 529.948L155.585 537.951C156.027 538.667 155.92 539.592 155.223 540.063C154.516 540.58 153.414 540.39 152.831 539.647L146.384 532.02L145.876 531.389L145.623 531.073L145.51 530.906L145.407 530.813C145.144 530.544 144.9 530.302 144.618 530.127C144.337 529.951 144.056 529.775 143.739 529.665C143.561 529.582 143.421 529.555 143.261 529.5C143.168 529.482 143.121 529.472 143.028 529.454L142.748 529.4L134.376 531.193C128.424 526.887 122.164 525.673 129.038 524.849Z" fill="#CC7544"/>
<path d="M159.316 537.342C158.741 538.054 157.612 538.126 156.825 537.561L148.853 531.045L148.197 530.554L147.879 530.323L147.71 530.193L147.579 530.119C147.298 529.944 146.942 529.778 146.624 529.667C146.287 529.529 145.961 529.465 145.606 529.421C145.437 529.413 145.269 529.405 145.101 529.396C145.026 529.405 144.933 529.388 144.859 529.397L144.56 529.436L129.017 533.838C122.124 531.506 121.475 524.229 124.808 524.294L144.16 524.753L144.692 524.759C144.878 524.795 145.075 524.785 145.261 524.821C145.645 524.847 146.018 524.919 146.392 524.992C147.112 525.156 147.86 525.423 148.525 525.746C149.208 526.096 149.836 526.484 150.399 526.957L150.605 527.143L150.746 527.291L151.055 527.569L151.656 528.099L159.163 535.13C159.829 535.696 159.937 536.638 159.316 537.342Z" fill="#CC7544"/>
<path fill-rule="evenodd" clip-rule="evenodd" d="M131.085 525.052L142.787 524.584L143.218 524.861C143.368 524.963 143.518 525.065 143.668 525.166C143.959 525.417 144.23 525.639 144.521 525.889C145.056 526.381 145.526 526.957 145.94 527.571C146.354 528.185 146.666 528.827 146.922 529.507L146.998 529.74L147.055 529.944L147.178 530.308L147.378 531.026L149.658 537.891C149.933 538.721 149.575 539.572 148.792 539.857C147.954 540.179 146.952 539.717 146.564 538.843L143.643 532.167L143.32 531.45L143.151 531.078L143.065 530.892L143.018 530.761C142.839 530.436 142.65 530.156 142.435 529.896C142.219 529.636 141.947 529.414 141.693 529.22C141.562 529.146 141.412 529.044 141.281 528.97C141.216 528.932 141.15 528.896 141.085 528.859L140.841 528.739L132.28 528.386C127.618 522.682 124.191 524.101 131.085 525.052Z" fill="#CC7544"/>
<path d="M135.338 524.253C135.338 524.253 141.528 524.581 144.204 525.779C146.347 526.729 147.427 531.035 147.427 531.035L149.706 537.901C149.982 538.73 149.622 539.581 148.84 539.866C148.002 540.188 147.001 539.727 146.613 538.852L143.69 532.177C143.69 532.177 143.358 531.263 143.453 531.403C142.343 529.999 142.038 530.571 133.492 534.391C131.071 535.497 129.061 534.864 129.061 534.864" stroke="#2A1C28" stroke-width="0.830126" stroke-miterlimit="10" stroke-linecap="round" stroke-linejoin="round"/>
<path d="M135.627 524.26C137.878 524.527 143.483 525.251 143.856 525.324C144.025 525.332 146.203 525.973 146.906 526.594C148.417 527.93 149.679 529.92 149.679 529.92L155.568 537.923C156.011 538.639 155.904 539.563 155.206 540.034C154.501 540.552 153.398 540.362 152.815 539.619C152.815 539.619 150.804 537.241 149.028 535.151" stroke="#2A1C28" stroke-width="0.830126" stroke-miterlimit="10" stroke-linecap="round" stroke-linejoin="round"/>
<path fill-rule="evenodd" clip-rule="evenodd" d="M82.915 509.45C80.4485 505.797 81.3907 500.816 85.0728 498.331C88.7269 495.864 93.7073 496.806 96.1926 500.489C96.2679 500.6 96.3243 500.684 96.3808 500.768L116.359 514.486C115.48 514.146 112.925 516.195 110.488 519.261C107.93 522.45 106.463 525.51 107.167 526.131L85.1395 511.603C84.2775 511.048 83.5266 510.296 82.915 509.45Z" fill="#D3D8DC"/>
<path fill-rule="evenodd" clip-rule="evenodd" d="M81.8489 502.388H81.8153L88.3778 465.2H88.4114C89.4547 460.691 93.4931 457.325 98.3055 457.325C103.926 457.325 108.469 461.868 108.469 467.489C108.469 471.594 106.012 475.162 102.479 476.743L97.7671 503.565C97.7671 507.974 94.1998 511.575 89.7575 511.575C85.3489 511.575 81.748 508.007 81.748 503.565C81.748 503.161 81.7816 502.758 81.8489 502.388Z" fill="#D3D8DC"/>
<path d="M97.7344 503.834C97.7344 503.834 100.763 486.536 102.244 478.123" stroke="#9D9797" stroke-width="0.830126" stroke-miterlimit="10" stroke-linecap="round" stroke-linejoin="round"/>
<path fill-rule="evenodd" clip-rule="evenodd" d="M103.488 457.897C103.589 457.662 103.791 457.426 104.093 457.258L113.786 437.672L125.531 444.436L121.459 460.59C124.488 462.104 126.338 463.719 126.002 464.796C125.497 466.445 120.045 466.277 113.853 464.359C107.661 462.474 103.05 459.58 103.488 457.897Z" fill="#CC7544"/>
<path fill-rule="evenodd" clip-rule="evenodd" d="M125.297 445.378L122.537 456.417C114.461 452.075 113.316 439.825 113.316 439.825C118.6 440.801 122.571 442.922 125.297 445.378Z" fill="#995128"/>
<path fill-rule="evenodd" clip-rule="evenodd" d="M108.403 432.186C110.422 427.34 114.662 429.292 116.244 430.032C114.157 423.571 122.15 411.24 132.852 418.341C134.972 422.278 135.022 430.032 135.325 432.859C136.975 433.465 138.422 433.397 138.725 434.003C139.128 434.845 138.792 436.393 136.335 437.2C136.167 437.268 136.032 437.301 135.864 437.335C135.897 438.244 135.931 439.186 135.897 440.095C135.191 441.811 134.753 442.854 134.012 444.57C132.566 454.027 126.306 456.181 113.888 442.686C109.412 441.542 106.989 435.585 108.403 432.186Z" fill="#CC7544"/>
<path fill-rule="evenodd" clip-rule="evenodd" d="M131.255 440.498L135.562 440.97C135.125 442.013 134.755 442.854 134.317 443.897C131.288 442.955 131.221 440.465 131.255 440.498Z" fill="#F8F7F8"/>
<path d="M115.603 437.2C113.315 436.561 113.82 433.936 115.401 433.633" stroke="#2C1C28" stroke-width="0.830126" stroke-miterlimit="10" stroke-linecap="round" stroke-linejoin="round"/>
<path d="M117.152 435.585C115.739 433.23 113.787 432.826 113.787 432.826" stroke="#2C1C28" stroke-width="0.830126" stroke-miterlimit="10" stroke-linecap="round" stroke-linejoin="round"/>
<path d="M128.191 427.743C130.715 425.724 133.341 426.027 133.341 426.027" stroke="#2C1C28" stroke-width="0.830126" stroke-miterlimit="10" stroke-linecap="round" stroke-linejoin="round"/>
<path d="M130.746 430.84L132.63 429.527" stroke="#2C1C28" stroke-width="0.830126" stroke-miterlimit="10" stroke-linecap="round" stroke-linejoin="round"/>
<path fill-rule="evenodd" clip-rule="evenodd" d="M131.994 431.816C131.96 432.657 131.522 433.33 131.017 433.33C130.513 433.296 130.142 432.59 130.176 431.748C130.209 430.907 130.647 430.234 131.152 430.234C131.657 430.234 132.027 430.941 131.994 431.816Z" fill="#2C1C28"/>
<path fill-rule="evenodd" clip-rule="evenodd" d="M132.853 418.341C132.853 418.341 130.07 409.907 114.754 410.473C114.754 410.473 103.584 410.126 101.168 421.925C101.168 421.925 93.5909 446.162 92.9043 457.658C92.9043 457.658 103.807 461.354 116.632 460.081C116.632 460.081 117.157 445.6 115.474 439.213C115.474 439.213 111.564 440.081 111.799 433.885C111.84 432.836 112.429 431.846 113.384 431.409C114.512 430.894 116.258 431.028 118.574 433.949C118.574 433.949 119.95 427.535 119.95 424.786C119.947 424.786 124.298 424.214 132.853 418.341Z" fill="#2C1C28"/>
</g>
<path d="M426.438 240.632V392.184C426.438 433.391 393.033 466.796 351.825 466.796H276.423V240.632H426.438Z" fill="#5A74C7"/>
<mask id="mask3_1862_325" style="mask-type:alpha" maskUnits="userSpaceOnUse" x="276" y="240" width="151" height="227">
<path d="M426.438 240.632V392.184C426.438 433.391 393.033 466.796 351.825 466.796H276.423V240.632H426.438Z" fill="#42BBFC"/>
</mask>
<g mask="url(#mask3_1862_325)">
<path fill-rule="evenodd" clip-rule="evenodd" d="M351.391 355.257L341.542 383.849C340.372 389.099 335.957 393.253 330.296 393.744C323.353 394.386 317.202 389.212 316.56 382.262C316.296 379.505 316.975 376.861 318.296 374.633L329.542 345.777C330.862 341.131 334.938 337.58 340.032 337.127C346.636 336.523 352.486 341.433 353.052 348.043C353.278 350.649 352.637 353.142 351.391 355.257Z" fill="#D3D8DC"/>
<path fill-rule="evenodd" clip-rule="evenodd" d="M330.299 393.745C328.677 393.896 327.092 393.708 325.582 393.292C318.035 391.63 309.242 378.146 306.261 370.819C304.94 367.571 305.582 364.776 307.355 362.434L304.072 355.749L323.092 346.684L326.601 353.634C326.677 353.672 326.714 353.709 326.752 353.785C326.79 353.898 326.79 354.049 326.677 354.2C335.432 354.918 335.205 369.384 335.205 369.384C335.205 369.384 335.243 369.61 335.243 370.026C338.79 371.99 341.356 375.654 341.771 379.997C342.375 386.947 337.243 393.103 330.299 393.745Z" fill="#D3D8DC"/>
<path d="M326.526 354.2C326.941 355.031 323.167 357.335 317.884 359.865C312.601 362.396 307.959 363.793 307.582 362.925" stroke="#A8B3BC" stroke-width="0.747157" stroke-miterlimit="10" stroke-linecap="round" stroke-linejoin="round"/>
<path d="M323.129 346.872C323.129 346.872 325.469 352.198 326.638 354.426C330.676 355.068 333.582 357.901 334.525 363.189" stroke="#A8B3BC" stroke-width="0.747157" stroke-miterlimit="10" stroke-linecap="round" stroke-linejoin="round"/>
<path fill-rule="evenodd" clip-rule="evenodd" d="M312.827 349.629C318.11 347.098 322.751 345.701 323.129 346.569C323.544 347.4 319.581 350.158 314.261 352.688C308.977 355.219 304.336 356.616 303.958 355.747C303.581 354.917 307.543 352.197 312.827 349.629Z" fill="#A8B3BC"/>
<path fill-rule="evenodd" clip-rule="evenodd" d="M321.353 346.797C321.655 347.515 318.334 349.781 313.957 351.896C309.542 354.011 305.655 355.182 305.315 354.465C305.051 353.558 302.862 346.571 302.523 346.004C299.315 344.607 293.881 331.765 293.881 331.765C293.881 331.765 293.919 331.765 293.919 331.727C293.881 331.652 293.843 331.576 293.806 331.501C292.485 328.706 291.956 323.947 295.806 324.324C295.353 323.267 296.447 321.794 297.24 321.416C298.485 320.812 299.806 320.698 301.051 320.925C302.259 320.51 303.466 320.17 304.825 319.943C305.806 319.792 306.825 319.716 308.032 319.868C308.636 319.943 309.278 320.094 309.995 320.396C310.712 320.698 311.051 321.001 312.221 321.945C313.089 323.531 318.674 334.371 317.429 338.715C318.561 341.056 320.938 346.042 321.353 346.797Z" fill="#EB967C"/>
<path d="M302.147 301.964L313.695 328.667C314.487 330.518 313.581 332.709 311.657 333.577C309.732 334.408 307.506 333.615 306.713 331.727C306.638 331.575 306.6 331.424 306.562 331.273L298.6 303.248C298.336 302.266 298.902 301.246 299.921 300.944C300.826 300.717 301.77 301.133 302.147 301.964Z" fill="#EB967C"/>
<path d="M294.675 304.872L307.808 327.081C308.713 328.592 308.147 330.594 306.562 331.538C304.977 332.482 302.94 331.991 302.034 330.443C301.958 330.329 301.921 330.254 301.883 330.141L291.317 306.61C290.902 305.703 291.354 304.608 292.298 304.155C293.203 303.777 294.222 304.079 294.675 304.872Z" fill="#EB967C"/>
<path d="M295.621 324.21C295.659 323.191 295.961 322.284 296.829 321.793C301.546 319.036 305.81 329.649 303.659 330.933C302.489 331.651 301.583 331.273 300.866 330.518" stroke="black" stroke-width="0.747157" stroke-miterlimit="10" stroke-linecap="round" stroke-linejoin="round"/>
<path d="M295.164 333.879C295.164 333.879 290.862 326.513 293.994 324.7C298.485 322.094 302.522 332.179 300.485 333.388C297.617 335.125 296.258 329.875 296.258 329.875" stroke="black" stroke-width="0.747157" stroke-miterlimit="10" stroke-linecap="round" stroke-linejoin="round"/>
<path d="M309.883 339.318C307.543 339.544 305.619 337.543 304.675 335.276C302.788 330.668 306.524 326.514 306.524 326.514C306.524 326.514 305.392 325.381 300.637 324.965H300.524C299.618 325.079 298.751 324.361 298.6 323.379C298.449 322.548 298.826 321.793 299.468 321.528C301.203 320.773 302.864 320.206 304.826 319.904C306.071 319.715 309.694 319.224 312.223 321.906" fill="#EB967C"/>
<path d="M309.883 339.318C307.543 339.544 305.619 337.543 304.675 335.276C302.788 330.668 306.524 326.514 306.524 326.514C306.524 326.514 305.392 325.381 300.637 324.965H300.524C299.618 325.079 298.751 324.361 298.6 323.379C298.449 322.548 298.826 321.793 299.468 321.528C301.203 320.773 302.864 320.206 304.826 319.904C306.071 319.715 309.694 319.224 312.223 321.906" stroke="black" stroke-width="0.747157" stroke-miterlimit="10" stroke-linecap="round" stroke-linejoin="round"/>
<path fill-rule="evenodd" clip-rule="evenodd" d="M390.452 356.919C389.169 360.847 387.131 365.001 387.999 374.972C388.64 382.149 389.772 389.967 381.734 389.552C379.621 387.89 371.055 385.775 360.791 385.51C340.111 384.944 338.488 387.172 337.771 387.399C330.488 386.266 337.243 375.539 337.243 375.539L334.299 364.397C333.922 362.66 333.997 360.847 334.488 359.185C331.582 357.258 329.507 354.161 329.016 350.46C328.148 343.661 333.016 337.467 339.884 336.561C350.111 335.994 376.225 334.068 385.206 332.935C392.074 332.066 398.339 336.674 399.207 343.472C400.037 349.591 396.188 355.219 390.452 356.919Z" fill="#D3D8DC"/>
<path d="M342.867 346.532L336.075 356.05C334.339 358.467 333.735 361.489 334.339 364.397L337.282 375.539" stroke="#A8B3BC" stroke-width="0.747157" stroke-miterlimit="10" stroke-linecap="round" stroke-linejoin="round"/>
<path fill-rule="evenodd" clip-rule="evenodd" d="M361.996 498.442C361.392 511.586 364.335 509.546 365.958 526.732C367.543 543.124 369.015 582.593 369.203 605.029C368.562 608.503 367.279 609.901 366.071 612.771C361.467 623.951 361.128 626.066 345.24 625.311C346.637 621.005 353.958 606.728 352.788 600.156C345.92 538.478 344.071 531.264 344.146 513.437C344.222 492.55 334.561 462.296 331.768 440.692C329.202 420.674 339.693 406.321 339.014 411.382C347.014 410.476 343.693 433.667 349.693 434.007C350.373 434.12 363.165 433.251 363.165 433.251C363.165 433.251 364.411 446.962 361.996 498.442Z" fill="#EB967C"/>
<path fill-rule="evenodd" clip-rule="evenodd" d="M433.811 623.309C425.207 609.787 422.717 605.368 420.264 604.273C413.471 581.346 402.792 549.318 397.773 533.492C392.301 516.345 396.339 514.229 390.301 501.086C366.564 449.605 363.508 434.799 363.508 434.799C363.508 434.799 372.225 427.208 372.867 427.094C378.716 426.717 372.3 415.423 380.678 416.368C378.527 412.402 393.584 426.301 400.188 453.911C414.075 511.774 437.472 606.501 437.472 606.501C437.472 606.501 441.434 613.98 446.491 619.343C449.359 622.365 452.114 624.82 454.34 626.67C442.68 628.785 436.151 626.973 433.811 623.309Z" fill="#EB967C"/>
<path fill-rule="evenodd" clip-rule="evenodd" d="M397.246 491.606C381.661 492.248 366.717 483.41 349.66 484.354C340.792 484.845 341.546 489.755 341.546 489.755C322.942 422.412 331.773 403.904 336.565 399.108C336.754 398.805 336.98 398.503 337.207 398.201C337.207 398.201 337.471 384.377 337.471 387.248C337.471 385.359 348.943 384.491 360.792 385.246C372.641 386.039 382.227 388.192 382.227 390.043C382.227 390.156 382.189 390.232 382.151 390.345L382.906 399.259C390.378 402.847 396.114 409.796 398.227 420.145C402.567 441.372 408.34 487.791 408.34 487.791C408.34 487.791 405.623 491.228 397.246 491.606Z" fill="#ED5C18"/>
<path d="M342.378 397.86C342.378 397.86 339.51 409.267 330.83 415.574" stroke="#CC2818" stroke-width="0.747157" stroke-miterlimit="10" stroke-linecap="round" stroke-linejoin="round"/>
<path d="M356.603 385.548L356.867 396.011L356.791 430.494C356.791 430.494 346.753 425.358 349.47 410.779C351.772 398.428 351.055 396.539 351.055 396.539" stroke="#CC2818" stroke-width="0.747157" stroke-miterlimit="10" stroke-linecap="round" stroke-linejoin="round"/>
<path d="M371.135 396.841C371.135 396.841 371.965 412.968 391.965 419.54" stroke="#CC2818" stroke-width="0.747157" stroke-miterlimit="10" stroke-linecap="round" stroke-linejoin="round"/>
<path d="M376.793 387.021L377.095 397.294C385.321 403.186 395.624 410.4 406.454 489.226" stroke="#CC2818" stroke-width="0.747157" stroke-miterlimit="10" stroke-linecap="round" stroke-linejoin="round"/>
<path d="M383.171 400.089V400.051C383.133 398.049 372.794 396.236 360.076 396.047C347.359 395.858 337.132 397.331 337.17 399.333" stroke="#CC2818" stroke-width="0.747157" stroke-miterlimit="10" stroke-linecap="round" stroke-linejoin="round"/>
<path fill-rule="evenodd" clip-rule="evenodd" d="M410.83 390.081C409.623 395.255 405.207 399.296 399.66 399.787C392.716 400.43 386.565 395.255 385.924 388.305C385.811 387.135 385.886 386.001 386.075 384.906C385.999 382.111 385.433 367.759 382.075 355.974C378.376 354.199 375.697 350.573 375.32 346.23C374.716 339.62 379.622 333.766 386.226 333.199C391.811 332.708 396.83 336.107 398.603 341.131C400.566 346.041 413.698 378.674 410.83 390.081Z" fill="#D3D8DC"/>
<path d="M385.699 385.397C385.699 385.397 386.756 377.617 383.926 363.68" stroke="#A8B3BC" stroke-width="0.747157" stroke-miterlimit="10" stroke-linecap="round" stroke-linejoin="round"/>
<path fill-rule="evenodd" clip-rule="evenodd" d="M401.058 399.562V399.599C401.058 399.599 369.057 404.661 367.359 395.445L361.283 395.294L362.717 376.635L368.755 376.938C368.906 376.938 369.019 376.9 369.17 376.9C369.51 376.9 369.849 377.013 370.151 377.164C373.85 372.518 380.038 372.594 385.208 373.538C388.756 374.18 391.737 374.747 394.303 375.2C395.284 374.86 396.303 374.634 397.36 374.558C400.756 374.256 403.963 375.313 406.416 377.315H406.454C409.02 379.393 410.794 382.49 411.096 386.04C411.7 392.537 407.284 398.315 401.058 399.562Z" fill="#D3D8DC"/>
<path fill-rule="evenodd" clip-rule="evenodd" d="M357.397 385.511C357.699 380.299 359.812 376.144 362.152 376.257C364.491 376.371 366.152 380.676 365.85 385.926C365.548 391.139 363.435 395.293 361.095 395.18C358.793 395.029 357.133 390.723 357.397 385.511Z" fill="#A8B3BC"/>
<path fill-rule="evenodd" clip-rule="evenodd" d="M360.756 393.744L355.096 391.629C350.869 394.613 346.529 391.402 346.529 391.402C343.737 390.231 341.095 388.305 339.133 386.983L327.435 389.098C326.302 389.287 325.208 388.57 325.019 387.437C324.944 386.946 325.019 386.492 325.246 386.077L322.831 386.908C321.736 387.285 320.566 386.719 320.189 385.624C319.925 384.83 320.151 383.999 320.717 383.433L320.491 383.508C319.397 383.886 318.227 383.32 317.849 382.224C317.51 381.204 317.963 380.109 318.944 379.656L326.265 376.257L329.925 374.557L330.604 374.255H327.623L319.585 374.217C318.453 374.217 317.51 373.273 317.51 372.14C317.51 371.044 318.34 370.176 319.397 370.062L327.435 369.345C327.435 369.345 334.906 368.967 337.095 369.156C337.095 369.156 340.378 369.345 351.246 375.917C351.246 375.917 359.624 377.05 362.077 377.201C366.907 378.447 362.983 394.764 360.756 393.744Z" fill="#EB967C"/>
<path fill-rule="evenodd" clip-rule="evenodd" d="M358.075 385.321C358.302 380.751 360.038 377.125 361.962 377.239C363.849 377.352 365.208 381.129 364.981 385.699C364.755 390.269 363.019 393.895 361.094 393.782C359.208 393.669 357.849 389.892 358.075 385.321Z" fill="#EB967C"/>
<path d="M325.283 386.078C323.924 386.569 322.83 386.946 322.83 386.946C321.735 387.324 320.565 386.758 320.188 385.662C319.848 384.642 320.301 383.547 321.282 383.094L328.603 379.695L332.264 377.995L333.207 377.58C333.66 377.391 335.924 376.749 336.415 376.635" stroke="black" stroke-width="0.747157" stroke-miterlimit="10" stroke-linecap="round" stroke-linejoin="round"/>
<path d="M334.904 387.777L327.432 389.136C326.3 389.325 325.206 388.608 325.017 387.475C324.829 386.417 325.47 385.397 326.489 385.095C326.489 385.095 337.433 380.638 338.867 381.318" stroke="black" stroke-width="0.747157" stroke-miterlimit="10" stroke-linecap="round" stroke-linejoin="round"/>
<path d="M320.49 383.546C319.395 383.924 318.226 383.358 317.848 382.262C317.509 381.243 317.961 380.147 318.943 379.694L326.264 376.295L329.924 374.595L330.867 374.18C331.32 373.991 334.641 372.933 335.132 372.82" stroke="black" stroke-width="0.747157" stroke-miterlimit="10" stroke-linecap="round" stroke-linejoin="round"/>
<path d="M369.622 376.974C371.887 377.087 373.472 381.242 373.17 386.265C372.905 391.289 370.83 395.254 368.604 395.141" stroke="#A8B3BC" stroke-width="0.747157" stroke-miterlimit="10" stroke-linecap="round" stroke-linejoin="round"/>
<path d="M363.172 376.634C363.172 376.634 366.229 376.899 370.078 377.012C373.474 373.575 376.87 373.009 381.512 373.273C388.418 373.726 391.361 374.595 395.059 375.464" stroke="#A8B3BC" stroke-width="0.747157" stroke-miterlimit="10" stroke-linecap="round" stroke-linejoin="round"/>
<path fill-rule="evenodd" clip-rule="evenodd" d="M356.715 363.603C356.715 363.603 342.111 342.414 353.772 335.313C364.791 332.33 374.451 333.387 375.659 336.333C379.848 346.229 356.715 363.603 356.715 363.603Z" fill="#ED5C18"/>
<path fill-rule="evenodd" clip-rule="evenodd" d="M375.961 336.863C376.074 339.129 372.3 341.282 367.093 342.15C365.659 342.528 364.074 342.679 362.413 342.528C356.413 342.566 351.658 340.753 351.507 338.26C351.432 336.976 352.564 335.767 354.526 334.747L355.47 316.618L370.904 319.677C370.904 319.677 371.546 328.251 372.187 333.577C374.414 334.37 375.885 335.503 375.961 336.863Z" fill="#EB967C"/>
<path fill-rule="evenodd" clip-rule="evenodd" d="M364.678 332.255C360.414 330.631 357.018 327.836 355.018 324.663L355.433 316.618L370.867 319.677C370.867 319.677 371.509 328.251 372.15 333.577C372.263 333.614 372.339 333.652 372.452 333.69C369.961 333.728 367.32 333.274 364.678 332.255Z" fill="#010000"/>
<path fill-rule="evenodd" clip-rule="evenodd" d="M372.564 284.74C372.564 284.74 376.262 273.107 367.432 269.519C361.96 267.328 357.13 270.728 357.13 270.728C353.319 263.476 338.035 259.925 329.658 269.859C318.487 283.116 327.62 302.832 339.016 308.8C339.016 308.8 334.601 318.204 342.148 322.699C348.903 326.702 360.602 321.717 367.394 307.138C369.394 302.794 372.564 284.74 372.564 284.74Z" fill="#351015"/>
<path fill-rule="evenodd" clip-rule="evenodd" d="M374.789 273.711C374.789 273.711 372.336 280.661 370.676 284.475C379.204 283.304 382.638 276.43 374.789 273.711Z" fill="#351015"/>
<path fill-rule="evenodd" clip-rule="evenodd" d="M377.959 304.306C377.959 304.306 374.487 311.709 363.581 311.822C355.091 311.897 348.109 304.834 348.034 295.996C347.958 287.158 354.751 279.944 363.242 279.869C371.733 279.793 378.714 286.856 378.789 295.694C378.487 298.867 377.959 304.306 377.959 304.306Z" fill="#351015"/>
<path fill-rule="evenodd" clip-rule="evenodd" d="M380.751 309.669C379.845 312.539 378.298 314.617 376.525 314.39C376.411 314.39 376.298 314.315 376.185 314.239C374.562 320.547 370.6 324.097 367.468 325.948C366.185 326.703 364.751 327.081 363.279 327.119C361.807 327.119 360.336 326.779 359.052 326.061C355.845 324.248 351.694 320.735 349.996 314.277C349.958 314.315 349.882 314.315 349.845 314.315C347.807 314.617 346.486 312.842 345.467 309.971C344.448 307.138 344.977 304.494 346.184 303.966C347.618 303.361 349.543 304.306 350.524 307.138C350.599 307.289 350.637 307.478 350.675 307.629H350.788C350.788 307.629 350.977 302.87 350.977 296.147C350.977 293.239 353.203 291.388 354.939 290.331C357.203 289.273 359.92 288.631 362.864 288.631C366.977 288.631 370.675 289.84 373.204 291.766C374.336 292.824 375.242 294.259 375.242 296.147C375.242 302.87 375.43 307.176 375.43 307.176C376.336 304.306 378.336 303.324 379.77 303.89C380.978 304.381 381.657 306.761 380.751 309.669Z" fill="#EB967C"/>
<path d="M359.544 299.017C359.544 299.017 355.053 297.091 351.959 299.999" stroke="black" stroke-width="0.747157" stroke-miterlimit="10" stroke-linecap="round" stroke-linejoin="round"/>
<path d="M365.357 299.017C365.357 299.017 369.848 297.091 372.943 299.999" stroke="black" stroke-width="0.747157" stroke-miterlimit="10" stroke-linecap="round" stroke-linejoin="round"/>
<path d="M360.943 301.208C361.358 302.455 361.622 304.57 360.453 307.289C358.943 310.802 362.113 312.502 364.528 310.122" stroke="black" stroke-width="0.747157" stroke-miterlimit="10" stroke-linecap="round" stroke-linejoin="round"/>
<path d="M347.92 307.63C347.203 308.196 346.26 311.067 348.864 311.822" stroke="black" stroke-width="0.747157" stroke-miterlimit="10" stroke-linecap="round" stroke-linejoin="round"/>
<path d="M347.092 305.513L349.431 310.31" stroke="black" stroke-width="0.747157" stroke-miterlimit="10" stroke-linecap="round" stroke-linejoin="round"/>
<path d="M377.959 307.63C378.676 308.196 379.619 311.067 377.016 311.822" stroke="black" stroke-width="0.747157" stroke-miterlimit="10" stroke-linecap="round" stroke-linejoin="round"/>
<path d="M378.791 305.513L376.451 310.31" stroke="black" stroke-width="0.747157" stroke-miterlimit="10" stroke-linecap="round" stroke-linejoin="round"/>
<path fill-rule="evenodd" clip-rule="evenodd" d="M356.376 302.568C356.942 302.53 357.47 303.323 357.508 304.305C357.546 305.287 357.131 306.118 356.527 306.118C355.961 306.156 355.433 305.363 355.395 304.381C355.357 303.399 355.772 302.605 356.376 302.568Z" fill="#010000"/>
<path fill-rule="evenodd" clip-rule="evenodd" d="M368.678 302.568C369.244 302.53 369.773 303.323 369.811 304.305C369.848 305.287 369.433 306.118 368.829 306.118C368.263 306.156 367.735 305.363 367.697 304.381C367.697 303.399 368.112 302.605 368.678 302.568Z" fill="#010000"/>
<path d="M354.26 302.908H356.599" stroke="black" stroke-width="0.747157" stroke-miterlimit="10" stroke-linecap="round" stroke-linejoin="round"/>
<path d="M368.865 302.908H371.016" stroke="black" stroke-width="0.747157" stroke-miterlimit="10" stroke-linecap="round" stroke-linejoin="round"/>
<path fill-rule="evenodd" clip-rule="evenodd" d="M363.055 313.671C365.319 313.671 367.508 313.558 369.433 313.407C368.452 317.033 365.961 319.639 363.055 319.639C360.15 319.639 357.659 317.07 356.678 313.407C358.602 313.558 360.753 313.671 363.055 313.671Z" fill="#010000"/>
<path fill-rule="evenodd" clip-rule="evenodd" d="M357.129 313.445C358.94 313.596 360.94 313.672 363.016 313.672C365.091 313.672 367.091 313.596 368.903 313.445C367.922 315.22 365.657 316.429 363.016 316.429C360.374 316.429 358.11 315.22 357.129 313.445Z" fill="#E0D6DB"/>
</g>
<path d="M177.428 79.1953H302.083C370.761 79.1953 426.436 134.87 426.436 203.549V210.172H177.428V79.1953Z" fill="#F9B99B"/>
<mask id="mask4_1862_325" style="mask-type:alpha" maskUnits="userSpaceOnUse" x="177" y="79" width="250" height="132">
<path d="M177.428 79.1953H302.083C370.761 79.1953 426.436 134.87 426.436 203.549V210.172H177.428V79.1953Z" fill="#906CB4"/>
</mask>
<g mask="url(#mask4_1862_325)">
<path fill-rule="evenodd" clip-rule="evenodd" d="M272.465 178.645C262.945 177.614 247.066 176.952 228.907 180.521C224.754 181.33 221.96 185.303 222.548 189.498C224.386 202.668 222.622 217.568 219.424 230.113C215.454 245.418 215.564 270.913 246.183 267.197C276.655 263.482 290.035 270.582 290.035 270.582C312.347 268.669 313.633 268.301 326.976 267.933C316.905 256.749 297.056 251.966 291.542 247.037C286.322 242.364 288.124 238.281 282.904 189.166C282.316 183.648 277.979 179.233 272.465 178.645Z" fill="#573652"/>
<path fill-rule="evenodd" clip-rule="evenodd" d="M328.079 206.311C328.079 212.271 323.264 217.091 317.309 217.091C313.266 217.091 309.7 214.847 307.899 211.499L284.154 172.759C282.463 170.699 281.434 168.05 281.434 165.144C281.434 158.522 286.8 153.114 293.453 153.114C298.93 153.114 303.525 156.756 304.958 161.759L325.616 199.358C327.123 201.271 328.079 203.663 328.079 206.311Z" fill="#D3D8DC"/>
<path fill-rule="evenodd" clip-rule="evenodd" d="M333.997 190.639H334.107L327.675 209.181C326.425 213.743 322.271 217.091 317.309 217.091C311.354 217.091 306.539 212.272 306.539 206.312C306.539 204.362 307.054 202.559 307.973 200.977L312.347 190.639C312.31 190.566 312.31 190.492 312.31 190.418C312.531 189.462 317.603 188.653 323.631 188.653C329.659 188.653 334.364 189.425 334.107 190.418C334.107 190.492 334.07 190.566 333.997 190.639Z" fill="#D3D8DC"/>
<path d="M307.861 201.161L312.346 190.602" stroke="#A8B3BC" stroke-width="0.801044" stroke-miterlimit="10" stroke-linecap="round" stroke-linejoin="round"/>
<path fill-rule="evenodd" clip-rule="evenodd" d="M323.632 188.689C329.66 188.689 334.365 189.462 334.108 190.455C333.887 191.411 328.815 192.221 322.787 192.221C316.759 192.221 312.054 191.448 312.311 190.455C312.531 189.462 317.604 188.689 323.632 188.689Z" fill="black"/>
<path fill-rule="evenodd" clip-rule="evenodd" d="M335.468 181.405L332.528 189.756H332.454C332.454 189.793 332.491 189.83 332.454 189.903C332.271 190.713 327.933 191.375 322.824 191.375C317.715 191.375 313.708 190.713 313.929 189.903C313.929 189.866 313.965 189.793 314.002 189.756L316.943 181.442H335.468V181.405Z" fill="#ECE6E8"/>
<path fill-rule="evenodd" clip-rule="evenodd" d="M326.461 179.86C331.571 179.86 335.577 180.522 335.357 181.331C335.173 182.141 330.836 182.803 325.726 182.803C320.617 182.803 316.61 182.141 316.831 181.331C317.051 180.522 321.352 179.86 326.461 179.86Z" fill="black"/>
<path fill-rule="evenodd" clip-rule="evenodd" d="M353.846 143.879C353.258 143.254 352.265 143.254 351.641 143.842C349.95 145.498 348.222 147.117 346.495 148.772L347.634 141.782C347.744 141.01 347.266 140.237 346.495 140.016C345.649 139.796 344.804 140.311 344.583 141.12L341.973 151.348L339.437 145.498C339.143 144.799 338.334 144.394 337.562 144.615C336.717 144.873 336.276 145.719 336.497 146.528L338.959 154.806L334.475 157.455C334.475 157.418 334.512 157.418 334.512 157.381C335.32 155.762 335.945 154.18 336.533 152.488C336.754 151.863 336.533 151.127 335.945 150.722C335.247 150.207 334.254 150.391 333.74 151.09L333.703 151.164C332.784 152.451 331.755 153.739 330.726 154.879C330.211 155.468 329.66 155.983 329.108 156.461C328.851 156.719 328.557 156.903 328.3 157.124C328.006 157.308 327.822 157.418 327.381 157.749C325.763 158.926 324.256 160.435 323.08 162.384C321.904 164.334 321.205 166.873 321.426 169.522L321.536 170.625V170.662L318.412 180.448C318.338 180.522 318.265 180.559 318.265 180.632C318.081 181.331 321.536 181.92 325.947 181.92C330.358 181.92 334.071 181.331 334.254 180.632C334.291 180.522 334.218 180.411 334.071 180.301L335.982 168.271C337.048 166.873 338.077 165.438 339.07 163.966C339.511 163.451 339.915 162.973 340.356 162.458C341.9 160.619 343.444 158.779 344.951 156.94C347.965 153.224 350.979 149.545 353.956 145.792C354.434 145.314 354.397 144.431 353.846 143.879Z" fill="#EB967C"/>
<path d="M324.293 166.689C324.293 166.689 324.256 162.568 329.145 160.214C332.637 158.521 338.996 155.174 338.996 155.174" stroke="black" stroke-width="0.801044" stroke-miterlimit="10" stroke-linecap="round" stroke-linejoin="round"/>
<path d="M341.938 151.605C342.967 147.595 344.621 141.157 344.621 141.157C344.841 140.311 345.687 139.832 346.532 140.053C347.304 140.237 347.819 141.01 347.672 141.819L345.393 155.652C345.356 155.836 345.282 156.02 345.209 156.204L345.135 156.351C344.217 157.749 342.636 159.515 341.129 161.023" stroke="black" stroke-width="0.801044" stroke-miterlimit="10" stroke-linecap="round" stroke-linejoin="round"/>
<path d="M339.032 155.431L336.495 146.602C336.238 145.792 336.716 144.909 337.561 144.689C338.333 144.468 339.142 144.836 339.436 145.572L343.516 154.953C343.737 155.468 343.7 156.02 343.479 156.498L343.369 156.756C343.075 157.418 342.781 157.933 342.487 158.485C342.193 159.037 341.899 159.588 341.568 160.14C340.943 161.207 340.281 162.274 339.62 163.341" stroke="black" stroke-width="0.801044" stroke-miterlimit="10" stroke-linecap="round" stroke-linejoin="round"/>
<path fill-rule="evenodd" clip-rule="evenodd" d="M293.934 177.432C292.28 188.947 284.267 202.78 255.449 203.368C249.127 203.479 250.376 188.726 252.325 177.101C246.885 176.07 242.657 171.435 242.437 165.733C242.18 159.074 247.399 153.445 254.162 153.187C254.604 153.187 255.045 153.187 255.486 153.224C255.486 153.224 280.481 153.371 292.353 153.371C299.08 153.114 304.777 158.301 305.035 164.96C305.292 171.361 300.367 176.843 293.934 177.432Z" fill="#D3D8DC"/>
<path fill-rule="evenodd" clip-rule="evenodd" d="M297.866 168.345L302.608 177.836C304.74 182.104 304.96 187.071 303.269 191.559L292.132 221.579L254.272 221.69C254.235 221.69 234.606 147.301 297.866 168.345Z" fill="#D3D8DC"/>
<path d="M297.867 168.345L302.609 177.837C304.741 182.104 304.961 187.071 303.27 191.559L292.133 221.58" stroke="#A8B3BC" stroke-width="0.801044" stroke-miterlimit="10" stroke-linecap="round" stroke-linejoin="round"/>
<path fill-rule="evenodd" clip-rule="evenodd" d="M265.775 169.116C265.297 171.029 255.262 212.05 255.262 212.05H255.188C254.747 217.458 250.263 221.726 244.749 221.726C238.942 221.726 234.273 217.016 234.273 211.24C234.273 210.468 234.347 209.732 234.494 209.033L242.728 162.053L242.838 162.089C244.235 156.976 248.866 153.223 254.417 153.223C261.033 153.223 266.436 158.594 266.436 165.253C266.436 166.541 266.179 167.865 265.775 169.116Z" fill="#D3D8DC"/>
<path d="M263.055 180.19L257.799 201.675" stroke="#A8B3BC" stroke-width="0.801044" stroke-miterlimit="10" stroke-linecap="round" stroke-linejoin="round"/>
<path fill-rule="evenodd" clip-rule="evenodd" d="M260.079 221.762H260.042L245.339 221.652C245.155 221.652 244.935 221.688 244.714 221.688C238.906 221.688 234.238 216.979 234.238 211.203C234.238 205.427 238.943 200.718 244.714 200.718C251.183 201.086 256.55 201.233 260.116 201.307C262.762 201.233 264.931 205.722 264.894 211.387C264.894 217.016 262.725 221.688 260.079 221.762Z" fill="#D3D8DC"/>
<path d="M239.973 201.822C241.406 201.087 243.024 200.682 244.714 200.682C251.184 201.05 256.55 201.197 260.116 201.271" stroke="#A8B3BC" stroke-width="0.801044" stroke-miterlimit="10" stroke-linecap="round" stroke-linejoin="round"/>
<path fill-rule="evenodd" clip-rule="evenodd" d="M260.115 201.27C262.761 201.197 264.93 205.685 264.893 211.351C264.893 217.016 262.724 221.652 260.078 221.725C257.431 221.799 255.263 217.31 255.299 211.645C255.299 206.016 257.468 201.381 260.115 201.27Z" fill="black"/>
<path fill-rule="evenodd" clip-rule="evenodd" d="M268.497 202.374L267.835 221.284H260.851V221.21C260.778 221.21 260.704 221.247 260.631 221.247C258.241 221.32 256.33 217.053 256.33 211.718C256.33 206.384 258.278 202.006 260.667 201.895C260.741 201.895 260.778 201.895 260.851 201.895V201.822L268.497 202.374Z" fill="#ECE6E8"/>
<path fill-rule="evenodd" clip-rule="evenodd" d="M268.644 202.227C270.96 202.153 272.834 206.274 272.798 211.424C272.798 216.575 270.923 220.842 268.607 220.916C266.292 220.99 264.417 216.869 264.454 211.719C264.454 206.568 266.328 202.3 268.644 202.227Z" fill="black"/>
<path fill-rule="evenodd" clip-rule="evenodd" d="M307.237 204.029L304.738 208.113L305.216 213.116C304.958 213.264 297.423 219.15 287.499 219.113C282.279 219.113 280.515 216.832 280.515 216.832C280.515 216.832 276.214 218.046 269.598 219.444C269.34 219.591 269.083 219.665 268.826 219.665C266.841 219.739 265.224 216.17 265.26 211.755C265.26 207.304 266.878 203.661 268.863 203.588C269.083 203.588 269.304 203.625 269.524 203.698C291.432 203.404 307.237 204.029 307.237 204.029Z" fill="#EB967C"/>
<path d="M303.122 205.722C307.349 203.919 309.223 202.043 312.311 202.521C315.178 202.963 316.906 206.458 323.191 215.435C324.404 217.384 321.794 219.298 319.552 217.017C318.707 217.863 317.016 218.01 316.428 217.348C315.435 216.207 309.628 211.314 308.599 210.174C307.716 209.18 306.834 208.555 305.29 208.923C304.077 209.217 305.878 210.726 304.592 211.277H304.555C302.938 211.976 301.1 211.277 300.438 209.695C299.777 208.15 298.453 208.003 300.071 207.304C300.218 207.231 302.092 208.334 303.122 205.722Z" fill="#EB967C"/>
<path d="M293.895 208.628C297.754 207.083 300.621 205.795 301.797 206.016C303.746 206.494 304.665 207.23 305.032 207.782C305.988 209.07 307.752 212.859 308.634 214.184C309.517 215.471 310.362 216.796 311.207 218.12C311.722 218.929 311.465 219.996 310.656 220.511C309.921 220.99 308.928 220.842 308.377 220.217C307.385 219.077 306.319 217.899 305.289 216.759C304.26 215.618 303.194 214.515 302.165 213.448C301.908 213.19 301.65 212.933 301.393 212.675L301.026 212.344L300.842 212.197L300.768 212.123L300.731 212.086L300.805 212.16C301.246 212.528 301.43 212.491 301.467 212.528C301.503 212.565 301.43 212.565 301.356 212.565C301.173 212.602 300.879 212.638 300.584 212.712C299.371 213.006 297.864 213.558 296.578 214.11H296.541C294.924 214.809 293.086 214.11 292.424 212.528C291.763 210.983 292.535 209.143 294.152 208.444C294.262 208.444 293.748 208.665 293.895 208.628Z" fill="#EB967C"/>
<path d="M308.01 204.287C310.032 204.471 311.024 205.096 311.502 205.611C313.56 207.708 318.89 214.662 319.111 214.919C319.736 215.618 319.625 216.722 318.89 217.347C318.192 217.936 317.236 217.936 316.574 217.384C315.545 216.501 311.208 212.491 309.37 210.909C309.149 210.688 307.973 209.474 305.988 209.217" stroke="black" stroke-width="0.801044" stroke-miterlimit="10" stroke-linecap="round" stroke-linejoin="round"/>
<path d="M301.799 206.016C303.747 206.494 304.666 207.23 305.033 207.782C305.989 209.069 307.754 212.859 308.636 214.183C309.518 215.471 310.363 216.795 311.209 218.12C311.723 218.929 311.466 219.996 310.657 220.511C309.922 220.989 308.93 220.842 308.378 220.217C307.386 219.076 306.32 217.899 305.291 216.758C304.262 215.618 303.196 214.514 302.166 213.447" stroke="black" stroke-width="0.801044" stroke-miterlimit="10" stroke-linecap="round" stroke-linejoin="round"/>
<path fill-rule="evenodd" clip-rule="evenodd" d="M291.581 110.841C325.361 140.714 297.646 136.999 297.646 136.999C299.189 135.527 301.652 131.774 297.682 122.32C302.902 143.069 284.927 137.55 284.927 137.55L285.332 133.908C287.611 133.54 275.04 129.825 275.04 129.825C276.106 131.885 275.444 136.3 276.436 138.36C276.436 138.36 265.924 140.641 254.823 137.256C236.003 131.48 257.727 117.831 257.653 115.697C257.506 111.687 257.212 106.574 259.932 102.711C250.559 99.9146 255.779 91.1587 259.344 92.7406C259.344 92.7406 259.124 88.0683 261.954 85.8977C263.351 84.5733 265.225 83.7639 267.321 83.7639C269.747 83.7639 271.879 84.8676 273.312 86.5967C275.812 89.2456 275.444 93.9915 274.672 97.4497C299.851 100.209 299.777 107.456 294.154 111.651C292.83 112.938 291.654 110.804 291.581 110.841Z" fill="#4F2827"/>
<path fill-rule="evenodd" clip-rule="evenodd" d="M277.026 117.905C282.245 117.905 281.436 120.554 281.436 128.427C281.436 129.567 281.436 130.708 281.436 131.811C278.496 130.781 275.041 129.788 275.041 129.788C276.107 131.848 275.445 136.263 276.437 138.323C276.437 138.323 271.034 139.5 263.903 138.912C263.278 138.066 262.837 137.072 262.653 135.858C261.477 128.868 271.769 117.905 277.026 117.905Z" fill="#351015"/>
<path fill-rule="evenodd" clip-rule="evenodd" d="M276.07 162.383L281.363 151.199L289.156 161.243L286.142 178.791L276.07 162.383Z" fill="#EBE6E9"/>
<path fill-rule="evenodd" clip-rule="evenodd" d="M264.895 153.407C264.675 153.443 268.093 152.855 265.924 154.437C263.903 155.872 261.918 156.902 268.35 161.574C281.546 164.48 284.303 159.845 284.303 159.845C284.303 159.845 288.493 162.53 291.802 161.206C295.073 159.882 289.412 155.614 283.862 154.731C275.334 153.333 264.895 153.407 264.895 153.407Z" fill="black"/>
<path fill-rule="evenodd" clip-rule="evenodd" d="M264.895 147.153C264.674 147.226 261.55 150.317 259.381 152.965C257.359 155.43 258.756 158.852 267.504 161.317C279.892 164.812 283.016 158.521 284.082 156.718C284.082 156.718 289.081 163.046 292.352 160.802C295.624 158.557 289.302 150.942 283.788 149.397C275.334 147.005 264.895 147.153 264.895 147.153Z" fill="#EBE6E9"/>
<path fill-rule="evenodd" clip-rule="evenodd" d="M275.811 146.896C281.875 147.926 286.544 150.06 286.286 151.642C286.029 153.223 280.883 153.665 274.818 152.598C268.753 151.568 264.085 149.434 264.342 147.852C264.636 146.27 269.782 145.829 275.811 146.896Z" fill="black"/>
<path fill-rule="evenodd" clip-rule="evenodd" d="M287.463 136.226L284.963 150.647C285 150.758 285 150.868 285 150.979C284.78 152.377 280.258 152.744 274.965 151.825C269.672 150.905 265.555 149.066 265.776 147.667C265.813 147.557 265.85 147.447 265.923 147.373L271.51 127.58L287.463 136.226Z" fill="#EB967C"/>
<path fill-rule="evenodd" clip-rule="evenodd" d="M285.884 145.313C277.393 142.039 274.195 130.009 274.195 130.009L276.842 130.487L287.465 136.263L285.884 145.313Z" fill="black"/>
<path fill-rule="evenodd" clip-rule="evenodd" d="M271.289 128.795C269.231 129.677 265.959 128.059 265.224 127.065C263.937 125.3 263.937 122.099 265.812 120.774C267.319 119.707 270.039 120.517 271.436 121.878C271.509 121.952 271.657 122.099 271.693 122.172C276.141 117.831 275.222 112.975 275.222 112.975C281.875 112.239 281.287 104.513 281.287 104.477C281.287 104.477 289.3 108.818 293.895 109.186C294.63 111.908 294.483 113.527 295.475 117.794C296.982 124.269 296.1 136.005 288.418 138.433C283.97 139.795 276.325 138.691 271.289 128.795ZM271.473 121.878C271.399 121.841 271.436 121.841 271.473 121.878V121.878Z" fill="#EB967C"/>
<path d="M268.277 124.306C267.395 124.895 267.101 126.072 267.652 126.918C268.204 127.765 269.343 127.912 270.225 127.323" stroke="black" stroke-width="0.801044" stroke-miterlimit="10" stroke-linecap="round" stroke-linejoin="round"/>
<path d="M289.375 112.092C289.375 112.092 292.536 110.878 294.558 112.276" stroke="black" stroke-width="0.801044" stroke-miterlimit="10" stroke-linecap="round" stroke-linejoin="round"/>
<path d="M291.141 116.065L292.905 114.962" stroke="black" stroke-width="0.801044" stroke-miterlimit="10" stroke-linecap="round" stroke-linejoin="round"/>
<path d="M280.186 117.021L282.17 116.065" stroke="black" stroke-width="0.801044" stroke-miterlimit="10" stroke-linecap="round" stroke-linejoin="round"/>
<path d="M275.959 114.631C275.885 115.073 278.091 111.725 284.082 112.534" stroke="black" stroke-width="0.801044" stroke-miterlimit="10" stroke-linecap="round" stroke-linejoin="round"/>
<path d="M287.611 116.359C287.611 116.359 288.567 118.456 290 120.627C291.544 122.945 291.103 125.262 287.574 124.747" stroke="black" stroke-width="0.801044" stroke-miterlimit="10" stroke-linecap="round" stroke-linejoin="round"/>
<path d="M270.813 125.483L266.623 123.35" stroke="black" stroke-width="0.801044" stroke-miterlimit="10" stroke-linecap="round" stroke-linejoin="round"/>
<path fill-rule="evenodd" clip-rule="evenodd" d="M280.037 116.912C280.589 116.801 281.14 117.5 281.214 118.42C281.287 119.34 280.919 120.186 280.331 120.296C279.743 120.407 279.229 119.708 279.155 118.788C279.082 117.831 279.486 117.022 280.037 116.912Z" fill="black"/>
<path fill-rule="evenodd" clip-rule="evenodd" d="M291.36 115.624C291.911 115.513 292.462 116.212 292.536 117.132C292.609 118.052 292.242 118.898 291.654 119.008C291.102 119.119 290.551 118.42 290.477 117.5C290.404 116.544 290.808 115.697 291.36 115.624Z" fill="black"/>
<path fill-rule="evenodd" clip-rule="evenodd" d="M286.619 126.477C288.457 126.514 290.185 126.44 291.765 126.33C290.92 129.42 288.898 131.591 286.582 131.554C284.23 131.517 282.282 129.31 281.51 126.219C283.054 126.367 284.781 126.477 286.619 126.477Z" fill="black"/>
<path fill-rule="evenodd" clip-rule="evenodd" d="M278.384 107.457C262.615 128.022 265.446 144.541 280.075 138.139C273.348 129.016 277.612 111.32 278.384 107.457Z" fill="#4F2827"/>
<path fill-rule="evenodd" clip-rule="evenodd" d="M298.858 112.975L298.931 114.263L298.049 114.41C297.865 114.925 297.718 115.514 297.718 116.102C297.351 115.55 296.763 114.631 295.219 113.932L292.389 113.122C292.315 113.122 292.241 113.085 292.168 113.085H292.241H292.205L298.858 112.975Z" fill="black"/>
<path d="M287.795 116.764C288.236 114.998 290.147 113.6 292.5 113.453C295.257 113.306 297.536 114.888 297.609 117.058C297.683 119.192 295.551 121.068 292.794 121.252C291.801 121.326 290.846 121.142 290.037 120.774C290 120.737 290 120.7 289.964 120.664" stroke="black" stroke-width="0.801044" stroke-miterlimit="10" stroke-linecap="round" stroke-linejoin="round"/>
<path fill-rule="evenodd" clip-rule="evenodd" d="M274.929 114.667L274.855 115.955L275.738 115.992C275.921 116.47 276.068 117.022 276.068 117.647C276.436 117.022 277.024 116.028 278.568 115.109L281.398 113.931C281.472 113.895 281.545 113.895 281.619 113.858H281.545H281.582L274.929 114.667Z" fill="black"/>
<path fill-rule="evenodd" clip-rule="evenodd" d="M281.289 114.226C278.532 114.447 276.253 116.396 276.18 118.53C276.106 120.701 278.238 122.283 280.995 122.025C283.752 121.805 286.031 119.855 286.104 117.721C286.178 115.587 284.009 114.005 281.289 114.226Z" stroke="black" stroke-width="0.801044" stroke-miterlimit="10" stroke-linecap="round" stroke-linejoin="round"/>
<path fill-rule="evenodd" clip-rule="evenodd" d="M285.369 128.832C284.23 128.795 283.237 128.684 282.392 128.537C282.024 127.838 281.694 127.066 281.51 126.219C283.054 126.367 284.818 126.477 286.656 126.514C287.979 126.514 289.229 126.514 290.442 126.44C289.854 127.728 287.391 128.905 285.369 128.832Z" fill="#EBE6E9"/>
</g>
<path d="M0 163.721L0 74.6118C0 33.4047 33.405 -0.000289917 74.6121 -0.000289917H137.069V163.721H0Z" fill="#5A74C7"/>
<mask id="mask5_1862_325" style="mask-type:alpha" maskUnits="userSpaceOnUse" x="0" y="-1" width="138" height="165">
<path d="M0 163.721L0 74.6118C0 33.4047 33.405 -0.000289917 74.6121 -0.000289917H137.069V163.721H0Z" fill="#2F5471"/>
</mask>
<g mask="url(#mask5_1862_325)">
<path fill-rule="evenodd" clip-rule="evenodd" d="M40.0828 125.182C32.6411 126.489 27.6704 133.582 28.9757 141.03C30.2818 148.478 37.3688 153.454 44.8104 152.147C52.252 150.841 57.2236 143.747 55.9175 136.299C54.6122 128.851 47.5252 123.875 40.0828 125.182Z" fill="#7581F1"/>
<path fill-rule="evenodd" clip-rule="evenodd" d="M55.9067 141.312C57.5335 135.197 60.3929 106.331 59.964 103.279C59.1231 97.0641 53.3527 92.7104 47.0742 93.5642C40.7957 94.4179 36.3654 100.137 37.2062 106.351C37.8152 111.043 28.5764 128.838 28.7605 138.189C29.0247 151.65 55.0207 144.561 55.9067 141.312Z" fill="#54B4A6"/>
<path fill-rule="evenodd" clip-rule="evenodd" d="M40.0828 125.182C32.6411 126.489 27.6704 133.582 28.9757 141.03C30.2818 148.478 37.3688 153.454 44.8104 152.147C52.252 150.841 57.2236 143.747 55.9175 136.299C54.6122 128.851 47.5252 123.875 40.0828 125.182Z" fill="#7581F1"/>
<path fill-rule="evenodd" clip-rule="evenodd" d="M18.5988 149.5C30.7575 170.646 51.8328 149.67 53.2657 147.108C56.701 138.543 53.5702 140.941 53.2342 135.989C53.2286 135.349 53.1486 134.689 53.0395 134.068C51.8732 127.413 45.7498 122.872 39.1256 123.573C36.0215 123.692 29.5734 124.185 25.2835 126.253C25.0202 126.371 24.7569 126.488 24.5275 126.599C16.8097 130.585 13.7419 141.04 18.5988 149.5Z" fill="#54B4A6"/>
<path fill-rule="evenodd" clip-rule="evenodd" d="M30.1458 136.773C35.001 135.707 39.5235 138.005 40.2537 141.964C40.9766 145.889 37.6076 149.964 32.7515 151.031C27.8954 152.096 23.3729 149.798 22.6436 145.839C21.9198 141.914 25.255 137.845 30.1458 136.773Z" fill="#54B4A6"/>
<path d="M40.2488 141.93C40.9725 145.855 37.6027 149.93 32.7474 150.996C27.8914 152.062 23.3689 149.763 22.6387 145.805" stroke="#39A08F" stroke-width="0.918953" stroke-miterlimit="10" stroke-linecap="round" stroke-linejoin="round"/>
<path fill-rule="evenodd" clip-rule="evenodd" d="M27.8655 130.242C32.7216 129.176 37.2441 131.474 37.9735 135.434C38.6972 139.359 35.3273 143.434 30.4721 144.499C25.616 145.566 21.0935 143.267 20.3641 139.308C19.6808 135.412 23.0159 131.343 27.8655 130.242Z" fill="#39A08F"/>
<path fill-rule="evenodd" clip-rule="evenodd" d="M21.257 139.151C21.9137 142.697 25.9685 144.757 30.348 143.811C34.7218 142.829 37.7379 139.172 37.0869 135.661C37.0328 135.35 36.9496 135.08 36.8672 134.81L34.9577 118.654L22.5461 115.715L21.2909 137.119C21.1528 137.748 21.1358 138.462 21.257 139.151Z" fill="#DE7C62"/>
<path fill-rule="evenodd" clip-rule="evenodd" d="M26.8119 124.634C29.7076 126.968 33.222 127.773 35.9174 126.944L34.9207 118.624L22.6529 115.696C22.2401 118.612 23.749 122.15 26.8119 124.634Z" fill="#C26147"/>
<path fill-rule="evenodd" clip-rule="evenodd" d="M28.7632 111.459C28.7632 111.459 39.6862 117.858 33.7074 121.432C29.4337 123.995 19.287 118.988 17.1974 111.322C15.4971 104.867 28.7632 111.459 28.7632 111.459Z" fill="#DE7C62"/>
<path fill-rule="evenodd" clip-rule="evenodd" d="M24.6673 118.079C30.3004 120.431 33.6121 119.671 35.4812 118.384C35.3002 117.349 34.6185 116.295 33.7009 115.32C27.4305 114.999 16.7378 114.78 24.6673 118.079Z" fill="#C26147"/>
<path fill-rule="evenodd" clip-rule="evenodd" d="M22.9224 87.4623L12.1085 89.1837C11.5568 89.2804 11.3193 89.7487 11.5762 90.2012L24.9982 117.132C25.2268 117.626 25.8851 117.936 26.4021 117.845L37.216 116.124C37.7668 116.027 38.0043 115.559 37.7474 115.106L24.2971 88.216C24.1033 87.7169 23.4385 87.3715 22.9224 87.4623Z" fill="#2C1C28"/>
<path fill-rule="evenodd" clip-rule="evenodd" d="M31.9319 114.351C35.9164 114.184 35.49 110.74 33.717 110.554C36.2185 109.831 36.0627 107.121 32.3939 106.45C27.3311 105.526 21.5477 106.364 21.5477 106.364L21.7489 105.085C21.7489 105.085 23.9612 105.549 25.3489 105.767C28.516 106.206 29.5725 102.716 23.6947 100.585C20.3604 99.3929 17.875 99.1899 16.8306 102.146C15.741 105.252 14.4066 111.208 21.446 117.33C23.7795 121.931 30.0927 118.441 31.188 117.396C32.7388 115.915 32.4844 115.071 31.9319 114.351Z" fill="#DE7C62"/>
<path fill-rule="evenodd" clip-rule="evenodd" d="M15.5872 98.2776C15.5872 98.2776 15.2302 100.295 15.2778 101.78C15.4087 106.377 16.5274 110.126 16.6591 110.672L18.1428 103.338L15.5872 98.2776Z" fill="#DE7C62"/>
<path d="M34.2476 110.532C34.2476 110.532 24.4337 109.447 18.9258 112.263" stroke="#2C1C28" stroke-width="0.918953" stroke-miterlimit="10" stroke-linecap="round" stroke-linejoin="round"/>
<path d="M31.9228 114.494C29.2274 114.719 24.3277 115.331 21.6348 117.189" stroke="#2C1C28" stroke-width="0.918953" stroke-miterlimit="10" stroke-linecap="round" stroke-linejoin="round"/>
<path d="M25.1849 105.832C25.2882 105.814 18.6439 106.199 16.9961 108.55" stroke="#2C1C28" stroke-width="0.918953" stroke-miterlimit="10" stroke-linecap="round" stroke-linejoin="round"/>
<path d="M24.9655 105.8L19.2969 104.663" stroke="#2C1C28" stroke-width="0.918953" stroke-miterlimit="10" stroke-linecap="round" stroke-linejoin="round"/>
<path fill-rule="evenodd" clip-rule="evenodd" d="M42.823 114.677C42.6647 114.99 42.5063 115.302 42.3424 115.579C41.1033 118.036 40.9668 120.903 42.0468 123.415C43.0491 125.692 44.8682 128.571 48.2873 131.667C47.1694 137.444 46.7623 148.285 53.7758 151.425C56.4712 152.622 84.0778 149.658 92.92 146.009C98.1864 143.839 97.8173 139.71 93.9345 134.171C91.8562 131.231 94.0371 111.867 95.0605 103.726C97.8423 101.567 99.3415 97.9622 98.6888 94.2382C97.7454 88.859 92.6429 85.2766 87.2683 86.2204C86.8547 86.293 86.4816 86.3941 86.1092 86.4952C67.7802 89.714 54.1126 92.5765 47.0708 93.5288C40.7923 94.3826 36.3612 100.101 37.202 106.316C37.7052 109.995 39.8643 112.993 42.823 114.677Z" fill="#54B4A6"/>
<path d="M56.8726 108.122C56.4566 110.612 56.2176 112.893 56.3113 114.44C56.6109 119.186 59.1464 128.586 64.2375 146.282" stroke="#39A08F" stroke-width="0.918953" stroke-miterlimit="10" stroke-linecap="round" stroke-linejoin="round"/>
<path d="M53.7786 151.46C46.7998 148.314 47.2069 137.473 48.2909 131.702C44.9 128.565 43.0463 125.692 42.0495 123.45C40.9357 120.944 41.1069 118.071 42.3452 115.614C43.5043 113.313 45.484 109.411 48.6123 103.353" stroke="#39A08F" stroke-width="0.918953" stroke-miterlimit="10" stroke-linecap="round" stroke-linejoin="round"/>
<path fill-rule="evenodd" clip-rule="evenodd" d="M81.7399 102.689C87.8165 111.218 93.414 116.811 96.3542 131.152C98.1312 139.868 93.8139 142.794 98.8525 151.684C104.511 161.674 131.187 156.847 127.358 140.884C123.262 123.796 101.743 96.2608 97.1167 90.5332C95.0085 87.4201 91.1807 85.6398 87.2535 86.3296C81.8789 87.2735 78.2998 92.3806 79.2424 97.7599C79.6091 99.6504 80.5097 101.341 81.7399 102.689Z" fill="#54B4A6"/>
<path d="M85.666 108.29C93.1254 118.425 94.904 122.698 96.4549 130.529" stroke="#39A08F" stroke-width="0.918953" stroke-miterlimit="10" stroke-linecap="round" stroke-linejoin="round"/>
<path fill-rule="evenodd" clip-rule="evenodd" d="M126.571 159.292C126.571 159.292 126.59 159.608 126.621 159.781C126.844 161.057 122.581 162.872 117.103 163.834C111.625 164.796 106.999 164.542 106.776 163.266C106.758 163.162 103.193 153.161 103.193 153.161L103.228 153.155C103.222 153.121 103.222 153.121 103.216 153.086C102.992 151.81 107.255 149.995 112.733 149.033C118.211 148.071 122.837 148.325 123.06 149.601C123.072 149.67 123.05 149.745 123.062 149.814L126.571 159.292Z" fill="#54B4A6"/>
<path d="M103.234 153.19L103.269 153.183C103.263 153.149 103.263 153.149 103.257 153.115C103.033 151.839 107.296 150.024 112.774 149.062C118.252 148.1 122.878 148.354 123.101 149.63C123.113 149.699 123.091 149.773 123.103 149.843" stroke="#39A08F" stroke-width="0.918953" stroke-miterlimit="10" stroke-linecap="round" stroke-linejoin="round"/>
<path fill-rule="evenodd" clip-rule="evenodd" d="M116.414 159.69C111.452 160.561 107.556 162.24 107.762 163.413C107.968 164.585 112.168 164.843 117.164 163.966C122.125 163.094 126.02 161.415 125.815 160.243C125.609 159.07 121.409 158.813 116.414 159.69Z" fill="#39A08F"/>
<path fill-rule="evenodd" clip-rule="evenodd" d="M109.639 163.402L118.314 183.916L130.889 181.708L124.494 160.829L124.489 160.795C124.319 159.829 120.879 159.651 116.779 160.371C112.645 161.097 109.47 162.437 109.639 163.402Z" fill="#DE7C62"/>
<path fill-rule="evenodd" clip-rule="evenodd" d="M64.0883 85.0671C57.8882 86.9735 53.1742 89.8629 53.6144 91.5628C54.0199 93.2688 59.3897 93.1078 65.6302 91.2298C71.8304 89.3234 76.5443 86.4339 76.1041 84.734C75.6929 82.9936 70.2884 83.1607 64.0883 85.0671Z" fill="black"/>
<path d="M67.684 62.4331C68.6081 62.8396 69.0427 63.9007 68.6929 64.744C68.344 65.5873 67.2713 65.9534 66.3828 65.5408" stroke="black" stroke-width="0.918953" stroke-miterlimit="10" stroke-linecap="round" stroke-linejoin="round"/>
<path fill-rule="evenodd" clip-rule="evenodd" d="M46.6091 69.4396C42.8015 61.8978 54.7664 65.7322 59.637 68.3958C64.5076 71.0592 65.1926 79.2207 61.1676 86.6454C57.1419 94.0702 43.1246 102.432 40.8847 97.3518C34.918 83.5778 51.8028 79.6173 46.6091 69.4396Z" fill="#4F2827"/>
<path fill-rule="evenodd" clip-rule="evenodd" d="M51.498 78.0721L55.1288 90.4791C55.1126 90.5886 55.1248 90.6576 55.1425 90.761C55.5004 92.1911 59.9784 92.0089 65.1915 90.347C70.3699 88.6911 74.2995 86.1882 73.9425 84.7581C73.9182 84.6202 73.8245 84.4944 73.6977 84.3746L64.9225 66.9352L51.498 78.0721Z" fill="#DE7C62"/>
<path fill-rule="evenodd" clip-rule="evenodd" d="M53.7161 86.0703C64.3935 80.534 62.7877 69.5487 62.7877 69.5487L51.4609 77.8647L53.7161 86.0703Z" fill="#C26147"/>
<path fill-rule="evenodd" clip-rule="evenodd" d="M65.8065 68.1303C91.5714 70.4653 62.5909 43.1033 54.6832 43.7811C54.6832 43.7811 43.0971 45.958 41.1957 53.543C40.9478 56.1812 41.3452 57.6398 41.1449 61.7626C40.7846 68.0105 43.5155 78.7273 51.0056 79.7222C55.3633 80.272 62.729 78.1254 65.8065 68.1303Z" fill="#DE7C62"/>
<path d="M55.1428 68.083C55.1428 68.083 52.8239 72.6843 48.2949 71.5604" stroke="#BD4040" stroke-width="0.918953" stroke-miterlimit="10" stroke-linecap="round" stroke-linejoin="round"/>
<path fill-rule="evenodd" clip-rule="evenodd" d="M54.1794 69.4612C54.1794 69.4612 53.0251 68.3487 51.1786 68.9573C50.0381 69.3354 49.8952 70.1424 49.8952 70.1424C49.8952 70.1424 47.8476 69.4002 47.9873 71.615C49.4041 72.6101 53.2109 71.2307 54.1794 69.4612Z" fill="#BD4040"/>
<path d="M46.7631 57.15C46.7631 57.15 44.3714 55.8639 41.4434 57.7999" stroke="#2C1C28" stroke-width="0.918953" stroke-miterlimit="10" stroke-linecap="round" stroke-linejoin="round"/>
<path d="M45.0032 60.267L43.168 59.5229" stroke="#2C1C28" stroke-width="0.918953" stroke-miterlimit="10" stroke-linecap="round" stroke-linejoin="round"/>
<path d="M55.1957 58.6548L53.1836 58.1195" stroke="#2C1C28" stroke-width="0.918953" stroke-miterlimit="10" stroke-linecap="round" stroke-linejoin="round"/>
<path d="M57.8219 56.4161C56.6773 55.764 53.469 54.4791 50.4336 56.6117" stroke="#2C1C28" stroke-width="0.918953" stroke-miterlimit="10" stroke-linecap="round" stroke-linejoin="round"/>
<path d="M48.1777 59.1415C48.1777 59.1415 49.1357 61.5679 47.2286 63.8577C45.3506 66.107 46.7254 68.8867 49.7189 67.9345" stroke="#2C1C28" stroke-width="0.918953" stroke-miterlimit="10" stroke-linecap="round" stroke-linejoin="round"/>
<path d="M65.4941 63.9195L69.0368 61.2358" stroke="#2C1C28" stroke-width="0.918953" stroke-miterlimit="10" stroke-linecap="round" stroke-linejoin="round"/>
<path fill-rule="evenodd" clip-rule="evenodd" d="M55.3138 58.5274C54.7791 58.5148 54.4116 59.2546 54.4592 60.1348C54.5416 61.009 55.0247 61.7416 55.5537 61.7197C56.0885 61.7324 56.456 60.9926 56.4083 60.1124C56.3259 59.2382 55.8485 58.5401 55.3138 58.5274Z" fill="#2C1C28"/>
<path fill-rule="evenodd" clip-rule="evenodd" d="M44.722 59.8897C44.1873 59.877 43.8198 60.6169 43.8674 61.4971C43.9498 62.3713 44.4329 63.1039 44.9619 63.0821C45.4967 63.0947 45.8642 62.3549 45.8165 61.4747C45.7745 60.6289 45.2568 59.9024 44.722 59.8897Z" fill="#2C1C28"/>
<path fill-rule="evenodd" clip-rule="evenodd" d="M90.1028 86.1849C90.1028 86.1849 84.5909 87.153 80.1807 87.9275C73.3392 92.8611 75.1582 103.845 80.2711 105.861L61.598 109.141C57.208 104.154 56.3591 99.7177 57.2984 95.9626C53.6322 100.978 54.1306 105.441 60.6901 109.229C32.9398 106.105 54.973 89.5822 68.8199 83.4893C70.6002 82.5013 71.8545 81.9611 71.8545 81.9611C71.8545 81.9611 62.4316 76.827 65.8265 67.6292C67.8232 68.487 70.0178 66.8221 70.5557 65.839C71.8239 63.5546 71.2052 60.4289 69.1333 59.5487C67.0607 58.6685 65.0777 60.1187 64.0268 61.6184C64.0551 61.5778 64.0551 61.5778 64.0268 61.6184C63.9703 61.6994 63.8564 61.8616 63.8338 61.9366C64.2482 55.1816 51.4053 53.634 52.0741 47.1185C52.0741 47.1185 44.7447 47.446 41.2925 53.2773C40.8587 51.0075 42.0623 45.1091 50.9239 41.7756C61.2539 37.9 72.319 42.0702 73.7649 53.1548C73.9733 53.9358 73.9014 54.9436 74.8319 56.2019C77.5095 59.926 108.593 72.9498 90.1028 86.1849ZM60.8056 109.28C60.7653 109.252 60.7652 109.252 60.7241 109.223C60.7652 109.252 60.7992 109.245 60.8396 109.274L60.8056 109.28Z" fill="#4F2827"/>
<path fill-rule="evenodd" clip-rule="evenodd" d="M72.1256 231.438C72.6853 243.446 69.9915 241.626 68.4875 257.31C67.0538 272.329 65.759 308.913 65.6193 329.429C65.8995 330.934 65.2695 333.945 65.2695 333.945C65.2695 333.945 67.473 336.781 67.578 338.286C68.3131 348.824 69.502 350.434 87.0613 348.929C84.0178 345.393 78.3168 333.56 79.681 326.243C85.9765 269.808 88.5305 261.441 88.4603 245.162C88.3908 226.047 96.9253 204.551 99.9332 188.097C103.291 169.927 88.3553 150.672 88.9853 155.329C81.6745 154.488 88.8447 172.168 83.3538 172.483C82.7237 172.552 71.006 171.783 71.006 171.783C71.006 171.783 69.9568 184.316 72.1256 231.438Z" fill="#DE7C62"/>
<path fill-rule="evenodd" clip-rule="evenodd" d="M26.9685 346.479C32.5298 337.411 35.5377 337.236 37.6362 336.711C41.3792 315.46 47.186 280.487 50.0543 266.273C53.1673 250.834 49.2498 248.558 53.3417 236.9C69.3623 191.143 70.5512 177.734 70.5512 177.734C70.5512 177.734 61.7365 169.997 61.142 169.892C55.7552 169.087 60.3722 159.145 52.8175 159.355C54.3562 155.854 42.1135 167.547 39.1055 192.508C32.7745 244.952 21.8265 330.69 21.8265 330.69C21.8265 330.69 19.0277 337.271 14.9705 341.857C12.6968 344.413 10.5635 347.529 8.70898 349.034C19.5528 351.87 25.0445 349.559 26.9685 346.479Z" fill="#DE7C62"/>
<path fill-rule="evenodd" clip-rule="evenodd" d="M22.8042 303.314C22.9092 304.294 28.8557 305.099 36.2359 305.099C43.6517 305.099 49.6677 304.294 49.6677 303.278H49.7032L69.0112 191.845L63.2392 303.383H63.4144C63.7642 304.328 69.6404 305.099 76.8115 305.099C84.2264 305.099 90.2432 304.294 90.2432 303.278C90.9427 297.292 94.0557 265.189 94.9999 257.171C98.4627 228.219 102.905 191.249 102.905 191.249C102.905 191.249 103.675 183.232 102.521 176.58C102.066 173.989 101.471 171.644 100.807 169.508C99.8616 164.608 96.2939 158.901 93.7407 155.505V145.422V145.387C93.7407 143.637 84.8564 142.831 73.8729 143.532C62.8894 144.267 54.0052 146.262 54.0052 147.978C54.0052 148.083 54.0399 148.153 54.0755 148.258L53.3405 157.045C40.4685 163.732 37.3902 182.217 37.3554 182.252L22.6992 303.278L22.8042 303.314Z" fill="#FCC670"/>
<path d="M56.1406 156.414C56.1406 156.414 51.7684 168.597 40.4004 173.324" stroke="#D8912B" stroke-width="0.918953" stroke-miterlimit="10" stroke-linecap="round" stroke-linejoin="round"/>
<path d="M69.6406 144.372V153.579L68.7311 185.578C68.7311 185.578 59.5666 181.586 62.4348 167.828C64.8839 156.17 64.2538 154.489 64.2538 154.489" stroke="#D8912B" stroke-width="0.918953" stroke-miterlimit="10" stroke-linecap="round" stroke-linejoin="round"/>
<path d="M81.3574 153.123C81.3574 153.123 81.3574 169.437 97.2382 174.584" stroke="#D8912B" stroke-width="0.918953" stroke-miterlimit="10" stroke-linecap="round" stroke-linejoin="round"/>
<path d="M88.3207 143.742V153.23C90.8739 156.625 94.4764 162.332 95.3859 167.232C96.0507 169.334 96.6451 171.714 97.0999 174.305C98.2194 180.957 97.4852 188.974 97.4852 188.974C97.4852 188.974 93.0427 225.943 89.5799 254.896C88.4951 264.068 85.2077 298.622 84.4727 304.783" stroke="#D8912B" stroke-width="0.918953" stroke-miterlimit="10" stroke-linecap="round" stroke-linejoin="round"/>
<path d="M93.9183 155.295V155.26C93.9183 153.475 84.7886 152.634 73.5256 153.369C62.2626 154.104 53.1328 156.17 53.1328 157.956" stroke="#D8912B" stroke-width="0.918953" stroke-miterlimit="10" stroke-linecap="round" stroke-linejoin="round"/>
</g>
<defs>
<filter id="filter0_d_1862_325" x="55.5115" y="108.815" width="282.672" height="348.922" filterUnits="userSpaceOnUse" color-interpolation-filters="sRGB">
<feFlood flood-opacity="0" result="BackgroundImageFix"/>
<feColorMatrix in="SourceAlpha" type="matrix" values="0 0 0 0 0 0 0 0 0 0 0 0 0 0 0 0 0 0 127 0" result="hardAlpha"/>
<feOffset/>
<feGaussianBlur stdDeviation="14.5079"/>
<feComposite in2="hardAlpha" operator="out"/>
<feColorMatrix type="matrix" values="0 0 0 0 0.0431373 0 0 0 0 0 0 0 0 0 0 0 0 0 0.08 0"/>
<feBlend mode="normal" in2="BackgroundImageFix" result="effect1_dropShadow_1862_325"/>
<feBlend mode="normal" in="SourceGraphic" in2="effect1_dropShadow_1862_325" result="shape"/>
</filter>
</defs>
</svg>
