<svg width="560" height="696" viewBox="0 0 560 696" fill="none" xmlns="http://www.w3.org/2000/svg">
<g filter="url(#filter0_d_1542_491)">
<rect x="111" y="181" width="295" height="382" rx="35" fill="#FFEAD5"/>
</g>
<circle cx="271.5" cy="402.5" r="70.5" fill="#FFB38F"/>
<mask id="mask0_1542_491" style="mask-type:alpha" maskUnits="userSpaceOnUse" x="201" y="332" width="141" height="141">
<circle cx="271.5" cy="402.5" r="70.5" fill="#ED5C18"/>
</mask>
<g mask="url(#mask0_1542_491)">
<path fill-rule="evenodd" clip-rule="evenodd" d="M272.645 511.893C265.78 511.956 259.232 512.207 253.318 512.616V437.985L309.08 440.91L318.849 514H312.565C303.483 512.616 289.014 511.736 272.645 511.893Z" fill="#F68E28"/>
<path fill-rule="evenodd" clip-rule="evenodd" d="M281.609 453.779C269.737 453.779 260.091 449.751 260.091 444.77C260.091 444.505 260.144 444.24 260.197 443.975L260.515 438.357L302.12 442.014C302.756 442.862 303.127 443.816 303.127 444.77C303.127 449.751 293.481 453.779 281.609 453.779Z" fill="#E1D6DA"/>
<path fill-rule="evenodd" clip-rule="evenodd" d="M217.265 446.602C228.991 441.25 269.09 428.03 269.09 428.03C269.09 428.03 273.596 433.965 275.711 444.403C279.114 461.306 283.667 487.694 284.035 509.631C261.64 505.445 237.774 494.689 225.588 488.648C225.542 487.429 225.542 486.211 225.45 484.992C222.553 484.939 219.748 484.144 217.265 482.872C216.897 477.044 218.828 462.021 217.265 446.602C220.53 450.788 217.265 460.711 217.265 446.602ZM304.636 506.664C304.038 503.856 303.256 500.941 302.291 497.921C288.449 453.782 293.094 427.5 293.094 427.5C300.221 432.11 319.673 438.786 323.673 440.217C332.916 442.867 325.927 447.476 325.927 458.975C325.927 464.962 324.041 470.473 320.96 474.712C321.788 478.474 322.708 482.343 323.673 486.211C319.627 492.198 313.005 501.047 304.636 506.664Z" fill="#906CB4"/>
<path fill-rule="evenodd" clip-rule="evenodd" d="M279.066 415.778C289.984 415.778 298.835 418.799 298.835 422.562C298.835 426.325 295.867 444.61 284.949 444.61C274.031 444.61 259.35 426.325 259.35 422.562C259.297 418.799 268.148 415.778 279.066 415.778Z" fill="#3E9689"/>
<path fill-rule="evenodd" clip-rule="evenodd" d="M297.404 429.029C297.245 429.188 297.033 429.294 296.821 429.4L296.397 422.457H296.344C296.185 419.224 288.5 416.627 279.066 416.627C269.526 416.627 261.788 419.277 261.788 422.563C261.788 423.04 261.947 423.464 262.265 423.888L263.06 426.485C260.728 425.372 259.35 423.994 259.35 422.51C259.35 418.747 268.201 415.726 279.119 415.726C290.037 415.726 298.888 418.747 298.888 422.51C298.835 423.517 298.517 428.181 297.404 429.029Z" fill="#75D6C7"/>
<path fill-rule="evenodd" clip-rule="evenodd" d="M298.039 440.212C298.039 444.028 290.673 447.102 281.61 447.102C272.547 447.102 265.18 444.028 265.18 440.212C265.18 440 265.18 439.788 265.233 439.576L267.194 403.695L293.693 407.988L295.866 436.767C297.244 437.774 298.039 438.94 298.039 440.212Z" fill="#CC7544"/>
<path fill-rule="evenodd" clip-rule="evenodd" d="M272.07 404.49L293.694 407.988C291.521 414.242 285.267 428.817 265.763 432.739C265.71 432.739 265.657 432.739 265.604 432.739L267.088 405.073C268.678 404.861 270.321 404.649 272.07 404.49Z" fill="#A95A2D"/>
<path fill-rule="evenodd" clip-rule="evenodd" d="M298.782 421.98C298.782 421.98 295.231 428.287 294.171 437.403C293.005 447.207 295.178 455.316 295.178 455.316C295.178 455.316 298.57 452.56 300.901 446.412C303.021 440.794 302.332 436.449 302.332 436.449L298.782 421.98Z" fill="#54B4A6"/>
<path fill-rule="evenodd" clip-rule="evenodd" d="M277.105 456.907C277.105 456.907 269.473 454.628 262.212 445.936C255.428 437.827 255.216 433.958 255.216 433.958L259.562 421.556C259.562 421.556 277.688 434.806 277.105 456.907Z" fill="#54B4A6"/>
<path fill-rule="evenodd" clip-rule="evenodd" d="M295.134 401.482C293.537 412.357 287.203 418.177 282.41 421.118C280.644 422.181 278.629 422.738 276.584 422.794C274.539 422.849 272.491 422.301 270.683 421.268C265.743 418.408 259.167 412.64 257.361 401.566C253.415 403.801 248.667 400.225 247.239 395.727C245.786 391.113 247.324 386.806 250.691 386.117C252.136 385.845 254.388 386.449 256.606 387.592C256.398 381.61 256.102 375.55 256.269 372.467C256.631 372.345 256.942 372.209 257.253 372.073C258.509 369.227 261.769 366.479 270.489 366.292C281.203 366.035 295.435 375.17 295.291 378.369C295.274 378.639 295.205 378.895 295.085 379.137C295.151 381.349 295.25 383.845 295.305 386.713C297.262 385.756 299.147 385.274 300.404 385.5C303.813 386.085 305.464 390.368 304.113 394.999C302.975 399.248 298.918 402.715 295.134 401.482Z" fill="#CC7544"/>
<path d="M297.601 390.84C300.111 390.689 302.193 396.844 296.855 398.541" stroke="#2C1C28" stroke-width="1.21317" stroke-miterlimit="10" stroke-linecap="round" stroke-linejoin="round"/>
<path fill-rule="evenodd" clip-rule="evenodd" d="M266.089 388.652C266.926 388.601 267.614 389.719 267.68 391.108C267.747 392.498 267.162 393.658 266.325 393.708C265.489 393.758 264.801 392.641 264.734 391.251C264.667 389.862 265.253 388.702 266.089 388.652Z" fill="#2C1C28"/>
<path fill-rule="evenodd" clip-rule="evenodd" d="M283.573 387.905C284.409 387.854 285.098 388.972 285.164 390.361C285.231 391.751 284.646 392.911 283.809 392.961C282.973 393.011 282.284 391.894 282.218 390.504C282.1 389.101 282.736 387.955 283.573 387.905Z" fill="#2C1C28"/>
<path d="M270.318 383.31C270.318 383.31 264.012 380.633 259.61 384.776" stroke="#2C1C28" stroke-width="1.21317" stroke-miterlimit="10" stroke-linecap="round" stroke-linejoin="round"/>
<path d="M279.178 383.215C279.178 383.215 283.62 379.741 290.328 382.965" stroke="#2C1C28" stroke-width="1.21317" stroke-miterlimit="10" stroke-linecap="round" stroke-linejoin="round"/>
<path d="M281.006 407.009C281.006 407.009 276.563 410.483 269.855 407.259" stroke="#2C1C28" stroke-width="1.21317" stroke-miterlimit="10" stroke-linecap="round" stroke-linejoin="round"/>
<path d="M272.342 383.743C272.342 383.743 275.349 387.676 272.552 394.224C270.463 399.151 274.871 401.539 278.347 398.191" stroke="#2C1C28" stroke-width="1.21317" stroke-miterlimit="10" stroke-linecap="round" stroke-linejoin="round"/>
<path d="M301.349 388.114C301.349 388.114 298.579 389.237 296.958 391.601C295.337 393.965 295.056 395.426 295.056 395.426" stroke="#2C1C28" stroke-width="1.21317" stroke-miterlimit="10" stroke-linecap="round" stroke-linejoin="round"/>
<path d="M254.549 391.376C252.043 391.308 250.114 397.485 255.513 399.042" stroke="#2C1C28" stroke-width="1.21317" stroke-miterlimit="10" stroke-linecap="round" stroke-linejoin="round"/>
<path d="M250.75 388.766C250.75 388.766 253.534 389.842 255.218 392.159C256.902 394.475 257.224 395.933 257.224 395.933" stroke="#2C1C28" stroke-width="1.21317" stroke-miterlimit="10" stroke-linecap="round" stroke-linejoin="round"/>
<path fill-rule="evenodd" clip-rule="evenodd" d="M257.084 390.519C257.084 390.519 256.672 380.587 256.482 374.335C257.223 371.571 263.289 366.338 273.59 373.762C286.736 383.265 292.869 379.422 292.869 379.422L294.563 390.301C294.563 390.301 296.166 385.956 296.515 376.667C303.177 361.224 290.914 349.652 285.478 348.031C278.482 345.882 273.044 353.479 273.044 353.479C273.044 353.479 252.911 351.212 256.359 365.578C250.308 366.865 251.163 371.045 252.482 375.952C253.923 381.222 254.651 383.831 257.084 390.519Z" fill="#814A2A"/>
<path fill-rule="evenodd" clip-rule="evenodd" d="M296.7 376.387C296.658 376.541 296.58 376.63 296.539 376.783C296.19 386.072 294.587 390.416 294.587 390.416L292.893 379.537C294.215 378.904 295.53 377.885 296.7 376.387ZM287.252 380.111C284.071 379.698 279.559 378.105 273.576 373.813C263.275 366.389 257.209 371.622 256.468 374.386C256.636 379.699 256.927 387.623 257.03 389.9C256.904 389.757 256.777 389.613 256.702 389.483C254.566 383.534 253.889 380.938 252.519 376.017C251.149 371.096 250.345 366.93 256.396 365.643C255.928 363.707 255.916 362.112 256.184 360.703C259.678 359.335 264.428 361.266 268.256 366.023C273.091 371.323 280.422 378.775 287.252 380.111Z" fill="#5F3319"/>
</g>
<rect y="245" width="180" height="260" rx="70" fill="#D6D7D2"/>
<mask id="mask1_1542_491" style="mask-type:alpha" maskUnits="userSpaceOnUse" x="0" y="245" width="180" height="260">
<rect y="245" width="180" height="260" rx="70" fill="#D6D7D2"/>
</mask>
<g mask="url(#mask1_1542_491)">
<path fill-rule="evenodd" clip-rule="evenodd" d="M168.995 673.655C168.995 673.749 168.995 673.702 168.995 673.796C168.9 675.024 161.109 676.016 151.713 676.016C142.788 676.016 135.564 675.119 134.997 673.985H134.95C134.95 673.985 121.823 657.128 120.029 624.216C116.062 550.979 86.9279 476.42 86.9279 476.42C86.9279 476.42 84.0948 457.533 133.061 468.96L168.995 673.513V673.655Z" fill="#5A74C7"/>
<path fill-rule="evenodd" clip-rule="evenodd" d="M92.6416 459.139C70.1181 459.139 51.9388 463.105 52.0804 468.016C52.2221 472.927 70.5903 476.893 93.1138 476.893C115.637 476.893 133.817 472.927 133.675 468.016C133.581 463.105 115.212 459.139 92.6416 459.139Z" fill="#5A74C7"/>
<path fill-rule="evenodd" clip-rule="evenodd" d="M132.494 439.353C132.494 439.353 120.878 431.94 102.369 431.656C65.3487 431.137 49.5303 439.164 49.5303 439.164L50.333 467.921L133.108 460.838L132.494 439.353Z" fill="#7581F1"/>
<path fill-rule="evenodd" clip-rule="evenodd" d="M91.9328 620.722C96.7963 655.334 89.9968 673.844 89.6663 674.694C89.383 675.685 82.4418 676.441 73.8007 676.441C65.3012 676.441 58.3127 675.685 57.8406 674.694H57.7933L49.9077 459.327C49.9077 459.327 60.8153 456.966 70.6841 459.327C82.1584 462.066 92.0744 474.862 92.0744 474.862C92.0744 474.862 84 564.343 91.9328 620.722Z" fill="#5A74C7"/>
<path d="M60.4379 446.861C60.4379 446.861 59.9185 461.64 50.8052 471.981" stroke="#555EC2" stroke-width="0.762574" stroke-miterlimit="10" stroke-linecap="round" stroke-linejoin="round"/>
<path d="M107.232 444.547C107.232 444.547 107.515 465.465 126.686 472.359" stroke="#3763C3" stroke-width="0.762574" stroke-miterlimit="10" stroke-linecap="round" stroke-linejoin="round"/>
<path d="M168.9 672.946L125.034 460.98C125.27 456.966 126.12 447.097 126.12 447.097" stroke="#3763C3" stroke-width="0.762574" stroke-miterlimit="10" stroke-linecap="round" stroke-linejoin="round"/>
<path d="M82.2063 478.215C82.2063 478.215 78.9009 564.201 84.3311 626.483C86.7865 654.342 82.2535 675.685 82.2535 675.685" stroke="#3763C3" stroke-width="0.762574" stroke-miterlimit="10" stroke-linecap="round" stroke-linejoin="round"/>
<path fill-rule="evenodd" clip-rule="evenodd" d="M90.7993 492.758L91.1298 487.894L87.8244 476.892L74.8864 474.484C74.8391 474.484 77.4362 489.169 90.7993 492.758Z" fill="#375BB7"/>
<path fill-rule="evenodd" clip-rule="evenodd" d="M39.5387 394.076C43.5656 430.971 35.3587 449.373 47.9207 458.47C48.4565 464.967 49.2916 474.994 49.2916 474.994C49.2916 474.994 49.3755 475.745 49.9599 476.297C50.6434 476.886 51.191 477.11 51.191 477.11C51.191 477.11 50.5584 474.425 50.8347 474.346C53.7177 473.359 62.6072 471.273 90.9567 468.581C112.392 466.519 124.965 467.205 133.376 467.215C133.956 469.003 134.112 469.556 134.112 469.556C134.112 469.556 137.647 468.449 137.683 467.067C137.683 467.067 136.502 454.798 136.057 451.236C144.526 444.541 143.223 428.627 128.65 386.639C135.363 382.088 139.431 373.841 138.445 365.019C137.066 352.677 126.47 343.74 114.597 344.639L114.034 344.702C113.987 344.707 113.94 344.713 113.847 344.723C113.8 344.728 113.706 344.739 113.659 344.744L45.6771 352.482C34.9942 355.101 27.8255 365.784 29.1152 377.328C29.8912 384.273 34.1916 390.445 39.5387 394.076Z" fill="#ED5C18"/>
<path d="M47.4663 449.374C58.8933 447.06 105.924 443.471 136.002 451.971" stroke="#CC2818" stroke-width="0.762574" stroke-miterlimit="10" stroke-linecap="round" stroke-linejoin="round"/>
<path d="M61.4001 363.507L76.7685 374.334L92.3196 359.578" stroke="#CC2818" stroke-width="0.762574" stroke-miterlimit="10" stroke-linecap="round" stroke-linejoin="round"/>
<path fill-rule="evenodd" clip-rule="evenodd" d="M68.8429 384.198C62.8951 396.028 46.5973 417.71 32.2168 428.059C29.4614 433.165 24.3638 436.871 18.1694 437.563C8.17394 438.679 -0.851458 431.468 -1.96293 421.519C-2.75459 414.433 0.646483 407.877 6.22902 404.26C6.35931 404.15 6.44795 404.093 6.57824 403.983C21.9293 394.666 28.2419 373.768 29.3189 369.799C30.9716 360.777 38.3353 353.54 47.9085 352.47C59.5933 351.165 70.1786 359.58 71.4841 371.265C72.0084 375.958 70.9837 380.396 68.8429 384.198Z" fill="#ED5C18"/>
<path d="M35.6698 420.261L42.604 375.157" stroke="#ED5C18" stroke-width="0.762574" stroke-miterlimit="10" stroke-linecap="round" stroke-linejoin="round"/>
<path fill-rule="evenodd" clip-rule="evenodd" d="M184.191 407.041C185.418 418.022 177.492 427.888 166.558 429.109C160.129 429.828 154.063 427.417 149.868 423.039L116.7 390.255C105.447 390.324 95.6857 381.627 94.3645 369.802C92.9595 357.225 101.676 345.941 113.878 344.578C120.964 343.786 127.588 346.515 132.221 351.413L132.304 351.309L178.468 394.947L178.427 394.999C181.49 398.173 183.661 402.302 184.191 407.041Z" fill="#ED5C18"/>
<path d="M109.708 382.959L143.113 418.71" stroke="#CC2818" stroke-width="0.762574" stroke-miterlimit="10" stroke-linecap="round" stroke-linejoin="round"/>
<path fill-rule="evenodd" clip-rule="evenodd" d="M184.19 407.041C185.417 418.022 177.492 427.887 166.558 429.109C164.774 429.308 163.012 429.267 161.317 428.982L128.293 427.255L128.348 397.125C128.348 397.125 135.09 397.085 139.606 397.103C144.436 382.927 165.96 388.457 168.369 389.613C176.542 391.313 183.199 398.172 184.19 407.041Z" fill="#ED5C18"/>
<path fill-rule="evenodd" clip-rule="evenodd" d="M130.215 397.677C126.386 395.729 122.463 400.586 121.503 408.58C120.538 416.528 122.889 424.817 126.718 426.765C130.546 428.713 134.444 423.622 135.409 415.674C136.416 407.675 134.043 399.625 130.215 397.677Z" fill="#CC2818"/>
<path fill-rule="evenodd" clip-rule="evenodd" d="M129.658 399.069C126.231 397.314 122.73 401.696 121.863 408.825C120.997 415.954 123.108 423.367 126.535 425.123C129.962 426.878 133.443 422.308 134.309 415.179C135.217 407.998 133.127 400.772 129.658 399.069Z" fill="#D3D8DC"/>
<path fill-rule="evenodd" clip-rule="evenodd" d="M119.703 398.852L128.104 398.769L128.402 425.675L119.057 425.817L119.703 398.852Z" fill="#D3D8DC"/>
<path fill-rule="evenodd" clip-rule="evenodd" d="M120.871 399.102C117.444 397.346 113.943 401.729 113.076 408.857C112.21 415.986 114.321 423.4 117.748 425.155C121.175 426.91 124.655 422.34 125.522 415.212C126.383 408.036 124.293 400.81 120.871 399.102Z" fill="#A8B3BC"/>
<path fill-rule="evenodd" clip-rule="evenodd" d="M119.986 400.102C117.111 398.618 114.152 402.322 113.441 408.293C112.736 414.311 114.476 420.531 117.345 421.968C120.219 423.453 123.162 419.608 123.868 413.59C124.626 407.614 122.854 401.54 119.986 400.102Z" fill="#E99670"/>
<path fill-rule="evenodd" clip-rule="evenodd" d="M91.0293 399.917L96.9848 409.419L91.0293 399.917Z" fill="#E99670"/>
<path fill-rule="evenodd" clip-rule="evenodd" d="M101.459 418.85C95.3306 416.304 92.8194 411.263 87.832 407.449L85.9437 406.282C84.8744 405.641 84.4877 404.307 85.0346 403.248C85.592 402.283 86.7911 401.959 87.7925 402.417C87.7925 402.417 93.0609 405.344 99.9133 406.289C110.393 403.123 124.642 426.048 101.459 418.85Z" fill="#E99670"/>
<path d="M78.1613 384.678L91.6527 387.209L92.7218 387.422L93.259 387.552L93.5041 387.62L93.8483 387.724C94.8236 387.948 95.7207 388.323 96.6283 388.791C97.5359 389.26 98.3601 389.833 99.1479 390.505C99.5183 390.844 99.8888 391.183 100.264 391.569C100.426 391.741 100.593 391.959 100.755 392.131L101.199 392.7L116.979 413.173C119.704 416.717 111.332 421.738 103.345 416.169L95.8087 395.915L95.5791 395.56C95.5216 395.472 95.4642 395.383 95.4068 395.295C95.292 395.117 95.1302 394.945 94.9684 394.773C94.6449 394.429 94.3267 394.132 93.9146 393.846C93.5077 393.606 93.1008 393.367 92.6522 393.179L92.4541 393.106L92.209 393.039L91.6665 392.862L90.6339 392.549L77.2775 389.1C76.0467 388.715 75.2377 387.428 75.5289 386.207C75.8776 385.076 76.9931 384.428 78.1613 384.678Z" fill="#E99670"/>
<path fill-rule="evenodd" clip-rule="evenodd" d="M101.713 408.369L96.6701 398.099L96.3571 397.849C96.2528 397.766 96.2006 397.724 96.0963 397.641C95.9397 397.516 95.7363 397.396 95.5329 397.276C95.126 397.037 94.7244 396.844 94.2863 396.75C93.843 396.61 93.4049 396.516 92.9304 396.522L92.7374 396.496L92.4506 396.48L91.9292 396.491L90.881 396.466L77.5265 396.01C76.2437 396.01 75.1846 395.036 75.0952 393.81C75.0215 392.726 75.8709 391.823 77.0441 391.692L90.2991 391.257L91.3315 391.141L91.8477 391.084L92.1292 391.052L92.4578 391.015C93.4016 390.958 94.3611 391.04 95.3311 391.217C96.3011 391.394 97.2346 391.67 98.137 392.091C98.5855 392.279 99.0393 392.513 99.4462 392.753C99.6496 392.873 99.8531 392.993 100.062 393.159L100.625 393.524L111.3 403.592C116.269 411.494 111.138 411.07 101.713 408.369Z" fill="#E99670"/>
<path d="M78.1613 384.678L91.6527 387.209L92.7218 387.422L93.259 387.552L93.5041 387.62L93.8483 387.724C94.8236 387.948 95.7207 388.323 96.6283 388.791C97.5359 389.26 98.3601 389.833 99.1479 390.505C99.5183 390.844 99.8888 391.183 100.264 391.569C100.426 391.741 100.593 391.959 100.755 392.131L101.199 392.7L116.979 413.173C119.704 416.717 111.332 421.738 103.345 416.169L95.8087 395.915L95.5791 395.56C95.5216 395.472 95.4642 395.383 95.4068 395.295C95.292 395.117 95.1302 394.945 94.9684 394.773C94.6449 394.429 94.3267 394.132 93.9146 393.846C93.5077 393.606 93.1008 393.367 92.6522 393.179L92.4541 393.106L92.209 393.039L91.6665 392.862L90.6339 392.549L77.2775 389.1C76.0467 388.715 75.2377 387.428 75.5289 386.207C75.8776 385.076 76.9931 384.428 78.1613 384.678Z" fill="#E99670"/>
<path fill-rule="evenodd" clip-rule="evenodd" d="M106.694 408.287L99.5238 399.396L99.1691 399.198C99.07 399.161 98.9657 399.078 98.8666 399.041C98.6684 398.968 98.4649 398.849 98.272 398.823C97.8287 398.682 97.3906 398.589 96.9578 398.542C96.525 398.495 96.0504 398.501 95.5864 398.6L95.3987 398.621L95.1224 398.699L94.6114 398.804L93.5895 399.013L84.0848 401.12C82.8335 401.403 81.5659 400.689 81.2471 399.537C80.9388 398.479 81.5796 397.409 82.6796 397.049L91.897 394.071L92.9032 393.721L93.4089 393.569L93.6383 393.496L93.9616 393.413C94.8844 393.167 95.8177 393.015 96.8084 392.952C97.7991 392.889 98.7586 392.972 99.7286 393.148C100.214 393.237 100.704 393.372 101.147 393.513C101.392 393.58 101.637 393.648 101.841 393.768L102.488 394.028L111.256 407.017C117.7 413.662 116.497 408.855 106.694 408.287Z" fill="#E99670"/>
<path fill-rule="evenodd" clip-rule="evenodd" d="M88.7852 396.414L101.982 394.607L103.827 411.126L99.1824 412.927L88.7852 396.414Z" fill="#E99670"/>
<path fill-rule="evenodd" clip-rule="evenodd" d="M118.667 399.775L107.29 401.711L107.181 420.301L118.518 422.265C122.463 417.168 122.206 407.219 118.667 399.775Z" fill="#E99670"/>
<path d="M104.133 416.841C104.133 416.841 101.853 415.147 101.132 411.664C98.4805 399.417 98.8712 398.661 96.436 398.553C96.6289 398.579 93.5422 399.019 93.5422 399.019L84.0374 401.126C82.7861 401.408 81.5186 400.694 81.1998 399.542C80.8915 398.484 81.5322 397.415 82.6323 397.054L91.8497 394.076C91.8497 394.076 97.3444 391.799 100.083 393.347C103.484 395.295 108.952 401.288 108.952 401.288" stroke="#2C1C28" stroke-width="0.762574" stroke-miterlimit="10" stroke-linecap="round" stroke-linejoin="round"/>
<path d="M85.4421 396.265C81.771 396.152 77.6202 395.998 77.6202 395.998C76.3374 395.999 75.2783 395.025 75.1889 393.799C75.1153 392.715 75.9647 391.812 77.1379 391.681L90.3928 391.245L91.4252 391.13L91.9414 391.072L92.223 391.041L92.5515 391.004C93.4952 390.946 94.4548 391.029 95.4248 391.206C96.3948 391.383 97.3283 391.658 98.2307 392.08C98.6792 392.268 99.1331 392.502 99.5399 392.742C99.7434 392.861 99.9468 392.981 100.155 393.148" stroke="#2C1C28" stroke-width="0.762574" stroke-miterlimit="10" stroke-linecap="round" stroke-linejoin="round"/>
<path d="M134.143 426.886C138.306 428.844 142.521 423.622 143.648 415.419C144.727 407.221 142.689 399.182 138.527 397.223" stroke="#CC2818" stroke-width="0.762574" stroke-miterlimit="10" stroke-linecap="round" stroke-linejoin="round"/>
<path d="M128.301 397.131C128.301 397.131 135.043 397.09 139.559 397.108C144.389 382.932 165.913 388.462 168.323 389.619" stroke="#CC2818" stroke-width="0.762574" stroke-miterlimit="10" stroke-linecap="round" stroke-linejoin="round"/>
<path fill-rule="evenodd" clip-rule="evenodd" d="M91.8001 337.067C95.629 339.442 89.2158 349.234 80.916 351.919C72.0166 354.766 63.8078 352.738 63.7842 348.274C63.8375 341.521 81.2838 330.545 91.8001 337.067Z" fill="black"/>
<path fill-rule="evenodd" clip-rule="evenodd" d="M92.166 347.146L88.608 318.276L66.8288 321.089L65.5129 352.69C65.5129 352.69 65.4662 353.122 65.4924 353.357C65.5923 354.676 68.3668 355.269 72.3818 355.058L75.789 367.268L77.4447 354.445C78.0026 354.335 78.6074 354.22 79.2122 354.105C86.5897 352.52 92.4855 349.581 92.307 347.558C92.2913 347.417 92.2756 347.276 92.166 347.146Z" fill="#E99670"/>
<path fill-rule="evenodd" clip-rule="evenodd" d="M90.8033 336.227C93.1924 337.623 95.1202 343.822 81.0874 351.329C79.1426 351.784 78.1582 353.604 77.3782 357.255L75.7779 366.746L73.1079 357.732C73.1079 357.732 72.5385 356.038 71.9122 355.11C71.0615 353.875 70.1434 353.312 70.1434 353.312C70.1434 353.312 65.1206 351.307 64.4626 349.67C63.2197 346.626 65.0853 344.612 66.1484 343.495C66.1586 343.162 66.1688 342.828 66.1791 342.494C64.9802 343.246 63.177 344.968 62.2248 348.353C59.5014 354.596 60.993 363.694 60.993 363.694L66.0753 360.703L75.8828 367.685L86.1704 358.126C86.1704 358.126 89.0023 358.807 93.0181 359.879C96.2385 356.383 99.291 350.958 99.5697 346.223L92.2064 336.878L90.845 336.175L90.8033 336.227Z" fill="#D3D8DC"/>
<path d="M91.0178 336.441C91.8473 337.061 92.364 337.859 92.4846 338.938C92.9198 342.833 87.9069 348.572 81.1297 351.277C79.6283 351.872 78.4766 353.046 77.9822 354.575C77.0868 357.193 76.1144 361.673 75.8884 367.304C74.4405 361.575 72.9497 353.759 68.9234 352.593C68.1881 352.39 67.4474 352.141 66.8266 351.687C65.6372 350.822 64.6979 349.644 64.5616 348.424" stroke="#2A1C28" stroke-width="0.762574" stroke-miterlimit="10" stroke-linecap="round" stroke-linejoin="round"/>
<path fill-rule="evenodd" clip-rule="evenodd" d="M60.9462 363.7L73.5989 359.151C73.5989 359.151 72.1207 354.85 70.743 353.151C69.3706 351.499 64.3774 355.287 60.9462 363.7Z" fill="#2A1C28"/>
<path fill-rule="evenodd" clip-rule="evenodd" d="M92.9249 359.89L76.8276 359.55C76.9579 359.44 76.7718 353.522 79.842 351.659C81.6664 350.552 89.5949 354.75 92.9249 359.89Z" fill="#2A1C28"/>
<path fill-rule="evenodd" clip-rule="evenodd" d="M65.7041 348.868C84.6117 339.913 82.3708 324.96 82.3708 324.96L66.4387 330.351L65.7041 348.868Z" fill="#C87149"/>
<path fill-rule="evenodd" clip-rule="evenodd" d="M66.0773 338.189C67.6896 339.069 69.5083 339.451 71.3386 339.341C73.1689 339.23 74.9323 338.698 76.4673 337.689C80.7784 334.841 86.4024 329.284 87.3729 319.078C94.7325 319.311 96.8397 307.716 91.9794 306.063C88.9671 305.077 86.006 307.848 84.7548 310.248C84.6887 310.364 84.569 310.642 84.5484 310.745C83.0699 305.177 87.7425 297.579 83.693 295.312C62.2972 283.358 54.0671 299.228 52.2247 302.328C52.2553 306.188 52.9858 310.101 53.5786 316.01C54.7524 328.32 60.8716 335.455 66.0773 338.189ZM84.7092 310.261C84.7423 310.203 84.7423 310.203 84.7092 310.261V310.261Z" fill="#E99670"/>
<path d="M65.8604 326.155C65.8604 326.155 70.7506 325.596 72.9146 321.526" stroke="#2C1C28" stroke-width="0.762574" stroke-miterlimit="10" stroke-linecap="round" stroke-linejoin="round"/>
<path d="M59.337 306.302C56.5621 306.182 53.3181 308.1 52.8518 309.256" stroke="#2C1C28" stroke-width="0.762574" stroke-miterlimit="10" stroke-linecap="round" stroke-linejoin="round"/>
<path d="M75.2193 303.512C73.1391 302.711 69.283 302.398 65.7122 304.553" stroke="#2C1C28" stroke-width="0.762574" stroke-miterlimit="10" stroke-linecap="round" stroke-linejoin="round"/>
<path d="M62.3584 310.712C62.3584 310.712 63.0536 313.068 62.0787 317.546C61.1861 321.61 63.9501 322.761 67.6906 320.511" stroke="#2C1C28" stroke-width="0.762574" stroke-miterlimit="10" stroke-linecap="round" stroke-linejoin="round"/>
<path fill-rule="evenodd" clip-rule="evenodd" d="M71.2881 307.92C70.5926 308.062 70.2174 309.193 70.4967 310.389C70.7759 311.586 71.5847 312.392 72.2802 312.25C72.9758 312.108 73.351 310.977 73.0717 309.781C72.7924 308.584 71.9837 307.778 71.2881 307.92Z" fill="#2C1C28"/>
<path fill-rule="evenodd" clip-rule="evenodd" d="M57.3731 311.101C56.6775 311.243 56.3024 312.374 56.5816 313.57C56.8609 314.767 57.6696 315.573 58.3652 315.431C59.0607 315.289 59.4359 314.158 59.1567 312.962C58.8774 311.765 58.0686 310.959 57.3731 311.101Z" fill="#2C1C28"/>
<path fill-rule="evenodd" clip-rule="evenodd" d="M49.071 303.684C53.193 315.675 52.2743 305.008 52.2743 305.008C54.8973 306.002 63.0399 300.88 69.2478 295.309C75.4102 289.75 79.7104 287.934 81.5633 297.365C82.8193 303.729 88.8924 282.673 82.3315 284.815C80.8123 271.424 66.9231 283.265 66.9231 283.265C66.9231 283.265 61.1884 278.424 54.9248 280.044C49.0712 281.552 45.8042 287.491 48.1023 292.835C43.7514 293.93 40.6315 295.765 49.071 303.684Z" fill="#951800"/>
<path fill-rule="evenodd" clip-rule="evenodd" d="M53.4953 304.82C56.2041 305.056 61.4759 302.141 69.3437 296.016C75.9293 290.929 79.6842 292.837 81.8558 302.181C82.3518 304.346 83.4116 309.637 83.9959 312.66C84.4106 310.245 86.129 307.227 90.1398 305.784C86.8354 300.521 92.1331 281.637 82.2855 284.828C82.084 283.022 81.8547 282.008 81.2853 280.647C80.6917 279.732 76.2952 275.307 70.703 288.299C66.7328 297.565 59.0229 304.087 53.4953 304.82ZM49.0706 303.683C50.5418 309.939 53.3687 314.354 53.3687 314.354L52.8122 305.007C50.6954 304.609 49.6179 304.072 49.0706 303.683Z" fill="#5F1001"/>
<path fill-rule="evenodd" clip-rule="evenodd" d="M15.0255 360.623C15.0255 360.623 14.3325 363.387 14.2938 365.486C14.0578 371.932 15.3353 377.253 15.4707 378.058L18.163 367.922L15.0255 360.623Z" fill="#EC957E"/>
<path fill-rule="evenodd" clip-rule="evenodd" d="M45.2545 413.569C44.1982 426.937 32.0311 436.629 27.8601 439.235C21.2119 444.121 11.7874 444.127 5.16791 438.674C1.45822 435.628 -0.693055 431.452 -1.2304 427.049C-2.24785 422.018 -4.24601 406.578 6.24712 396.982C11.5361 392.157 15.9787 392.389 15.9787 392.389L40.6797 401.149C40.6297 401.109 45.7304 407.233 45.2545 413.569Z" fill="#ED5C18"/>
<path fill-rule="evenodd" clip-rule="evenodd" d="M29.451 391.112C36.788 393.206 41.5787 399 40.1426 404.078C38.7015 409.111 31.597 411.544 24.2151 409.454C16.878 407.36 12.0873 401.566 13.5234 396.488C14.9645 391.455 22.069 389.022 29.451 391.112Z" fill="#CC2818"/>
<path fill-rule="evenodd" clip-rule="evenodd" d="M40.9592 391.419L38.9965 401.565C39.0068 402.064 38.9272 402.574 38.7576 403.094C37.486 407.607 31.121 409.73 24.5387 407.87C18.0014 406.005 13.6908 400.84 15.0073 396.322C15.1967 395.572 15.5811 394.938 16.0554 394.293L22.2346 382.356L40.9592 391.419Z" fill="#E99670"/>
<path fill-rule="evenodd" clip-rule="evenodd" d="M39.0415 401.559C39.0417 401.969 38.9919 402.339 38.8972 402.714C35.4892 402.776 31.6406 401.339 28.4457 398.417C23.5758 393.953 21.9529 387.578 24.304 383.354L41.0042 391.414L39.0415 401.559Z" fill="#C87149"/>
<path fill-rule="evenodd" clip-rule="evenodd" d="M32.3276 380.181C32.3276 380.181 47.0501 390.101 38.3978 394.574C32.1983 397.77 18.4315 389.883 16.2162 379.021C14.3218 369.807 32.3276 380.181 32.3276 380.181Z" fill="#EC957E"/>
<path fill-rule="evenodd" clip-rule="evenodd" d="M41.1232 390.445C38.3908 392.07 33.699 392.868 25.9912 389.085C15.1992 383.779 30.1313 384.98 38.8969 386.004C40.0621 387.467 40.9625 389.006 41.1232 390.445Z" fill="#C87149"/>
<path fill-rule="evenodd" clip-rule="evenodd" d="M26.2503 346.164L10.98 347.643C10.2155 347.728 9.82605 348.318 10.1313 349.012L26.5752 387.79C26.8804 388.484 27.7102 388.983 28.4747 388.898L43.745 387.42C44.5095 387.334 44.8989 386.744 44.5937 386.05L28.1498 347.272C27.8446 346.578 27.0148 346.079 26.2503 346.164Z" fill="#2C1C28"/>
<path fill-rule="evenodd" clip-rule="evenodd" d="M36.4973 384.496C42.0642 384.603 41.7964 379.761 39.3326 379.307C42.885 378.501 42.9177 374.718 37.8149 373.467C30.7929 371.747 22.6281 372.431 22.6281 372.431L23.0268 370.702C23.0268 370.702 26.0806 371.545 27.9947 371.968C32.3777 372.89 34.1638 368.092 26.1213 364.574C21.5727 362.578 18.0645 362.15 16.3729 366.164C14.5665 370.372 12.2079 378.604 21.473 387.768C24.3104 394.418 33.4825 390.115 35.1057 388.749C37.4781 386.754 37.2076 385.555 36.4973 384.496Z" fill="#E99670"/>
<path d="M40.0674 379.362C40.0674 379.362 26.4139 376.972 18.4706 380.454" stroke="#2C1C28" stroke-width="0.762574" stroke-miterlimit="10" stroke-linecap="round" stroke-linejoin="round"/>
<path d="M36.4731 384.681C32.7053 384.783 25.7845 385.192 21.8582 387.543" stroke="#2C1C28" stroke-width="0.762574" stroke-miterlimit="10" stroke-linecap="round" stroke-linejoin="round"/>
<path d="M27.8191 372.034C27.954 372.019 18.6144 371.97 16.1377 375.069" stroke="#2C1C28" stroke-width="0.762574" stroke-miterlimit="10" stroke-linecap="round" stroke-linejoin="round"/>
<path d="M27.4905 371.934L19.6538 369.85" stroke="#2C1C28" stroke-width="0.762574" stroke-miterlimit="10" stroke-linecap="round" stroke-linejoin="round"/>
<path d="M41.9407 401.299C44.7035 408.482 46.9138 425.28 33.6523 435.005" stroke="#CC2818" stroke-width="0.764064" stroke-linecap="round"/>
</g>
<path d="M327 696H150C67.1573 696 0 628.843 0 546V530H327V696Z" fill="#F9B99B"/>
<mask id="mask2_1542_491" style="mask-type:alpha" maskUnits="userSpaceOnUse" x="0" y="530" width="327" height="166">
<path d="M327 696H150C67.1573 696 0 628.843 0 546V530H327V696Z" fill="#FCB72B"/>
</mask>
<g mask="url(#mask2_1542_491)">
<path fill-rule="evenodd" clip-rule="evenodd" d="M166.351 549.634C166.351 549.634 168.092 584.984 164.539 599.745L154.057 599.374L166.351 549.634Z" fill="#2C1C28"/>
<path fill-rule="evenodd" clip-rule="evenodd" d="M206.594 612.106L202.073 622.156C201.985 622.218 197.561 631.6 197.548 631.671C197.238 632.338 200.597 633.553 205.021 634.349C209.445 635.144 213.272 635.228 213.586 634.561C213.643 634.455 217.554 624.167 217.426 624.03L221.514 612.323C222.836 611.116 224.126 609.861 225.386 608.566C225.92 608.129 226.411 607.722 226.95 607.289C228.828 605.725 230.711 604.16 232.554 602.591C236.249 599.414 239.934 596.271 243.598 593.05C244.164 592.656 244.287 591.764 243.832 591.114C243.355 590.38 242.361 590.204 241.627 590.676C239.634 592.029 237.61 593.341 235.577 594.685L237.981 587.888C238.233 587.132 237.893 586.275 237.159 585.912C236.35 585.537 235.409 585.903 235.042 586.672L230.578 596.448L229.089 590.128C228.921 589.377 228.183 588.825 227.37 588.904C226.477 589.01 225.881 589.779 225.956 590.628L226.932 599.365L221.956 601.208C221.965 601.173 222 601.177 222.005 601.142C223.11 599.666 224.02 598.194 224.917 596.603C225.253 596.015 225.165 595.237 224.648 594.729C224.042 594.088 223.012 594.093 222.372 594.698L222.323 594.764C221.169 595.887 219.906 596.992 218.668 597.951C218.045 598.446 217.4 598.866 216.759 599.246C216.454 599.458 216.127 599.59 215.826 599.763C215.499 599.895 215.296 599.97 214.792 600.222C212.958 601.111 211.173 602.348 209.644 604.089C208.11 605.831 206.952 608.248 206.696 610.939" fill="#CC7544"/>
<path fill-rule="evenodd" clip-rule="evenodd" d="M205.936 645.3C207.368 651.196 203.761 657.122 197.866 658.559C193.862 659.531 189.792 658.17 187.202 655.293L154.37 622.686C152.2 621.056 150.543 618.682 149.845 615.81C148.254 609.26 152.262 602.618 158.852 601.014C164.274 599.697 169.701 602.194 172.322 606.794L201.821 639.016C203.779 640.541 205.299 642.68 205.936 645.3Z" fill="#A8B3BC"/>
<path fill-rule="evenodd" clip-rule="evenodd" d="M215.486 634.375L215.597 634.398L205.799 651.814C203.722 656.159 198.953 658.762 193.977 657.865C188.006 656.791 184.046 651.09 185.12 645.119C185.474 643.166 186.314 641.451 187.52 640.032L193.774 630.464C193.751 630.385 193.765 630.31 193.778 630.234C194.171 629.315 199.404 629.421 205.45 630.508C211.495 631.596 216.074 633.222 215.636 634.172C215.623 634.247 215.574 634.314 215.486 634.375Z" fill="#A8B3BC"/>
<path d="M187.379 640.196L193.782 630.429" stroke="#1C4192" stroke-width="0.848631" stroke-miterlimit="10" stroke-linecap="round" stroke-linejoin="round"/>
<path d="M210.077 608.624C210.077 608.624 210.784 604.487 216.109 603.011C219.914 601.946 226.897 599.741 226.897 599.741" stroke="#2A1C28" stroke-width="0.848631" stroke-miterlimit="10" stroke-linecap="round" stroke-linejoin="round"/>
<path d="M230.494 596.7C232.249 592.868 235.073 586.717 235.073 586.717C235.449 585.908 236.381 585.581 237.19 585.956C237.932 586.279 238.308 587.145 238.012 587.932L233.23 601.38C233.159 601.557 233.053 601.729 232.947 601.902L232.846 602.034C231.67 603.267 229.77 604.752 227.984 605.99" stroke="#2A1C28" stroke-width="0.848631" stroke-miterlimit="10" stroke-linecap="round" stroke-linejoin="round"/>
<path d="M226.893 600.006L225.942 590.703C225.832 589.846 226.468 589.046 227.357 588.98C228.17 588.9 228.917 589.413 229.076 590.204L231.476 600.342C231.604 600.899 231.467 601.442 231.162 601.884L231.003 602.123C230.587 602.733 230.198 603.197 229.805 603.696C229.412 604.196 229.014 604.695 228.585 605.19C227.768 606.145 226.91 607.095 226.053 608.045" stroke="#2A1C28" stroke-width="0.848631" stroke-miterlimit="10" stroke-linecap="round" stroke-linejoin="round"/>
<path fill-rule="evenodd" clip-rule="evenodd" d="M156.186 662.434C156.186 662.434 134.84 688.951 130.686 707.91C127.151 723.997 143.37 771.329 145.005 786.045C146.684 800.762 145.977 803.9 145.977 803.9C146.022 803.9 150.75 806.728 169.091 806.242C192.514 805.623 195.387 803.237 195.387 803.237L183.012 705.568L185.841 679.979L156.186 662.434Z" fill="#5A74C7"/>
<path d="M166.351 806.021C166.351 806.021 153.623 740.746 149.337 718.428C145.492 698.453 159.766 676.974 159.457 677.151" stroke="#1C4192" stroke-width="1.00133" stroke-miterlimit="10" stroke-linecap="round" stroke-linejoin="round"/>
<path fill-rule="evenodd" clip-rule="evenodd" d="M115.705 613.821C115.705 606.927 120.964 601.27 127.681 600.563C127.814 600.518 127.858 600.474 127.858 600.474L157.203 600.739C157.998 600.607 158.794 600.518 159.589 600.518C166.97 600.518 172.936 606.485 172.936 613.865C172.936 614.307 172.892 614.793 172.848 615.235C177.311 620.273 181.731 625.444 184.206 628.67C186.194 634.15 181.112 642.282 181.112 642.282L185.841 679.979C184.868 679.272 175.809 679.714 164.627 679.714C152.916 679.714 143.414 680.333 143.193 681.084C143.149 681.084 143.149 681.084 143.149 681.084L143.945 672.422C143.945 672.422 132.012 645.64 121.715 625.002C118.135 622.615 115.749 618.505 115.705 613.821Z" fill="#D3D8DC"/>
<path fill-rule="evenodd" clip-rule="evenodd" d="M169.003 617.18C167.456 611.567 165.025 608.827 165.025 608.827L137.315 603.833L170.771 629.156C170.771 629.156 171.168 625.179 169.003 617.18Z" fill="#5A74C7"/>
<path fill-rule="evenodd" clip-rule="evenodd" d="M152.951 675.688C153.912 676.479 155.775 678.527 152.416 682.714C149.057 686.901 142.381 692.099 140.732 690.92C139.698 690.178 141.709 686.048 145.069 681.861C148.464 677.65 151.991 674.896 152.951 675.688Z" fill="#2A1C28"/>
<path fill-rule="evenodd" clip-rule="evenodd" d="M142.65 689.891C142.65 689.891 156.908 696.637 161.005 699.31C164.683 701.679 170.134 703.119 173.732 702.13C176.351 701.429 184.856 696.808 184.856 696.808C184.856 696.808 193.999 696.608 191.091 689.773C176.079 688.229 170.189 687.086 170.189 687.086L153.826 676.589C149.615 679.592 142.65 689.891 142.65 689.891Z" fill="#CC7544"/>
<path fill-rule="evenodd" clip-rule="evenodd" d="M153.851 676.626C154.701 677.332 152.859 680.922 149.73 684.58C146.6 688.239 143.378 690.574 142.528 689.868C141.653 689.125 143.484 685.597 146.613 681.938C149.742 678.28 152.977 675.883 153.851 676.626Z" fill="#CC7544"/>
<path fill-rule="evenodd" clip-rule="evenodd" d="M169.454 689.235L188.478 689.298L189.104 689.515C189.35 689.563 189.558 689.635 189.792 689.744C190.234 689.925 190.676 690.107 191.107 690.349C191.98 690.773 192.792 691.345 193.494 691.99C194.233 692.611 194.887 693.343 195.406 694.112L195.604 694.405L195.752 694.625L196.049 695.065L196.581 695.932L204.315 706.441C204.896 707.382 204.756 708.596 203.84 709.214C202.912 709.893 201.465 709.644 200.699 708.668L192.233 698.653L191.566 697.824L191.233 697.409L191.085 697.189L190.949 697.067C190.604 696.714 190.284 696.397 189.914 696.166C189.545 695.935 189.176 695.705 188.759 695.56C188.525 695.451 188.341 695.415 188.132 695.343C188.01 695.319 187.948 695.307 187.826 695.283L187.458 695.212L176.464 697.567C168.648 691.912 160.427 690.317 169.454 689.235Z" fill="#CC7544"/>
<path d="M209.213 705.641C208.458 706.577 206.976 706.671 205.942 705.929L195.474 697.372L194.612 696.728L194.194 696.424L193.972 696.253L193.8 696.156C193.431 695.926 192.964 695.708 192.546 695.563C192.104 695.382 191.675 695.298 191.209 695.24C190.988 695.229 190.767 695.218 190.546 695.207C190.448 695.219 190.326 695.196 190.228 695.208L189.836 695.26L169.424 701.04C160.372 697.978 159.521 688.422 163.897 688.507L189.31 689.109L190.009 689.118C190.254 689.165 190.512 689.152 190.757 689.199C191.26 689.233 191.751 689.328 192.242 689.424C193.187 689.639 194.169 689.989 195.042 690.413C195.939 690.873 196.764 691.383 197.503 692.004L197.774 692.248L197.959 692.443L198.365 692.808L199.154 693.503L209.012 702.737C209.887 703.48 210.029 704.717 209.213 705.641Z" fill="#CC7544"/>
<path fill-rule="evenodd" clip-rule="evenodd" d="M172.14 689.502L187.507 688.887L188.073 689.251C188.27 689.385 188.467 689.519 188.664 689.652C189.046 689.981 189.403 690.273 189.785 690.602C190.487 691.248 191.104 692.004 191.648 692.81C192.192 693.616 192.601 694.459 192.937 695.352L193.037 695.658L193.112 695.927L193.274 696.404L193.537 697.347L196.531 706.363C196.892 707.452 196.421 708.57 195.393 708.944C194.293 709.367 192.977 708.761 192.468 707.612L188.631 698.846L188.208 697.904L187.985 697.415L187.873 697.171L187.811 696.999C187.576 696.572 187.328 696.205 187.045 695.864C186.761 695.522 186.404 695.23 186.071 694.975C185.899 694.878 185.702 694.744 185.53 694.647C185.444 694.598 185.358 694.55 185.272 694.501L184.952 694.344L173.709 693.881C167.587 686.39 163.086 688.254 172.14 689.502Z" fill="#CC7544"/>
<path d="M177.723 688.453C177.723 688.453 185.852 688.884 189.367 690.457C192.181 691.704 193.599 697.359 193.599 697.359L196.592 706.375C196.954 707.464 196.482 708.582 195.455 708.956C194.354 709.379 193.039 708.773 192.53 707.624L188.692 698.858C188.692 698.858 188.256 697.659 188.38 697.842C186.923 695.999 186.522 696.749 175.299 701.766C172.12 703.218 169.48 702.387 169.48 702.387" stroke="#2A1C28" stroke-width="1.00133" stroke-miterlimit="10" stroke-linecap="round" stroke-linejoin="round"/>
<path d="M178.103 688.463C181.059 688.813 188.419 689.764 188.91 689.859C189.131 689.87 191.991 690.712 192.915 691.528C194.899 693.282 196.556 695.895 196.556 695.895L204.29 706.405C204.871 707.345 204.731 708.559 203.815 709.177C202.888 709.857 201.44 709.608 200.674 708.632C200.674 708.632 198.033 705.509 195.701 702.764" stroke="#2A1C28" stroke-width="1.00133" stroke-miterlimit="10" stroke-linecap="round" stroke-linejoin="round"/>
<path fill-rule="evenodd" clip-rule="evenodd" d="M108.885 669.014C105.646 664.216 106.883 657.676 111.718 654.412C116.517 651.173 123.057 652.41 126.321 657.246C126.42 657.392 126.494 657.502 126.568 657.612L152.804 675.627C151.649 675.18 148.294 677.871 145.093 681.898C141.734 686.085 139.808 690.104 140.732 690.92L111.806 671.841C110.674 671.112 109.688 670.125 108.885 669.014Z" fill="#D3D8DC"/>
<path fill-rule="evenodd" clip-rule="evenodd" d="M107.485 659.739H107.44L116.058 610.904H116.102C117.472 604.982 122.776 600.563 129.095 600.563C136.476 600.563 142.442 606.529 142.442 613.909C142.442 619.301 139.216 623.986 134.576 626.063L128.388 661.285C128.388 667.075 123.704 671.804 117.87 671.804C112.081 671.804 107.352 667.119 107.352 661.285C107.352 660.755 107.396 660.225 107.485 659.739Z" fill="#D3D8DC"/>
<path d="M128.344 661.639C128.344 661.639 132.322 638.923 134.266 627.875" stroke="#9D9797" stroke-width="1.00133" stroke-miterlimit="10" stroke-linecap="round" stroke-linejoin="round"/>
<path fill-rule="evenodd" clip-rule="evenodd" d="M135.901 601.314C136.034 601.005 136.299 600.696 136.697 600.475L149.425 574.754L164.849 583.637L159.501 604.85C163.479 606.839 165.909 608.96 165.467 610.374C164.804 612.54 157.645 612.319 149.513 609.8C141.382 607.325 135.327 603.524 135.901 601.314Z" fill="#CC7544"/>
<path fill-rule="evenodd" clip-rule="evenodd" d="M164.539 584.874L160.915 599.37C150.309 593.669 148.806 577.582 148.806 577.582C155.745 578.864 160.959 581.648 164.539 584.874Z" fill="#995128"/>
<path fill-rule="evenodd" clip-rule="evenodd" d="M142.354 567.55C145.005 561.186 150.574 563.749 152.651 564.721C149.911 556.236 160.407 540.043 174.461 549.368C177.245 554.539 177.311 564.721 177.709 568.434C179.875 569.229 181.775 569.141 182.173 569.936C182.703 571.041 182.261 573.074 179.035 574.135C178.814 574.223 178.637 574.267 178.416 574.312C178.46 575.505 178.505 576.742 178.46 577.936C177.532 580.189 176.958 581.559 175.985 583.813C174.085 596.232 165.865 599.06 149.557 581.338C143.68 579.836 140.498 572.014 142.354 567.55Z" fill="#CC7544"/>
<path fill-rule="evenodd" clip-rule="evenodd" d="M172.362 578.466L178.018 579.084C177.444 580.454 176.958 581.559 176.383 582.929C172.406 581.692 172.317 578.422 172.362 578.466Z" fill="#F8F7F8"/>
<path d="M151.811 574.134C148.806 573.295 149.469 569.848 151.546 569.45" stroke="#2C1C28" stroke-width="1.00133" stroke-miterlimit="10" stroke-linecap="round" stroke-linejoin="round"/>
<path d="M153.844 572.014C151.988 568.92 149.425 568.39 149.425 568.39" stroke="#2C1C28" stroke-width="1.00133" stroke-miterlimit="10" stroke-linecap="round" stroke-linejoin="round"/>
<path d="M168.34 561.716C171.654 559.064 175.102 559.462 175.102 559.462" stroke="#2C1C28" stroke-width="1.00133" stroke-miterlimit="10" stroke-linecap="round" stroke-linejoin="round"/>
<path d="M171.699 565.782L174.173 564.059" stroke="#2C1C28" stroke-width="1.00133" stroke-miterlimit="10" stroke-linecap="round" stroke-linejoin="round"/>
<path fill-rule="evenodd" clip-rule="evenodd" d="M173.334 567.063C173.29 568.168 172.715 569.052 172.052 569.052C171.389 569.008 170.903 568.08 170.947 566.975C170.991 565.87 171.566 564.986 172.229 564.986C172.892 564.986 173.378 565.914 173.334 567.063Z" fill="#2C1C28"/>
<path fill-rule="evenodd" clip-rule="evenodd" d="M174.461 549.368C174.461 549.368 170.806 538.293 150.693 539.036C150.693 539.036 136.025 538.581 132.852 554.075C132.852 554.075 122.902 585.903 122 601C122 601 136.317 605.853 153.159 604.182C153.159 604.182 153.849 585.166 151.639 576.778C151.639 576.778 146.504 577.918 146.813 569.782C146.866 568.403 147.639 567.103 148.895 566.529C150.375 565.853 152.669 566.03 155.709 569.866C155.709 569.866 157.517 561.442 157.517 557.831C157.512 557.831 163.227 557.08 174.461 549.368Z" fill="#2C1C28"/>
</g>
<path d="M560 316V523C560 572.706 519.706 613 470 613H363V316H560Z" fill="#5A74C7"/>
<mask id="mask3_1542_491" style="mask-type:alpha" maskUnits="userSpaceOnUse" x="363" y="316" width="197" height="297">
<path d="M560 316V523C560 572.706 519.706 613 470 613H363V316H560Z" fill="#42BBFC"/>
</mask>
<g mask="url(#mask3_1542_491)">
<path fill-rule="evenodd" clip-rule="evenodd" d="M461.45 466.526L448.515 504.073C446.979 510.967 441.181 516.423 433.748 517.068C424.629 517.911 416.552 511.116 415.709 501.99C415.362 498.369 416.254 494.897 417.989 491.971L432.757 454.077C434.491 447.976 439.843 443.313 446.533 442.718C455.206 441.925 462.887 448.373 463.63 457.052C463.927 460.475 463.085 463.748 461.45 466.526Z" fill="#D3D8DC"/>
<path fill-rule="evenodd" clip-rule="evenodd" d="M433.748 517.069C431.617 517.268 429.535 517.02 427.553 516.474C417.642 514.292 406.095 496.585 402.18 486.962C400.446 482.697 401.288 479.026 403.618 475.951L399.306 467.172L424.282 455.268L428.891 464.394C428.99 464.444 429.04 464.494 429.089 464.593C429.139 464.742 429.139 464.94 428.99 465.138C440.487 466.081 440.19 485.077 440.19 485.077C440.19 485.077 440.24 485.375 440.24 485.921C444.898 488.5 448.268 493.311 448.813 499.015C449.606 508.141 442.866 516.226 433.748 517.069Z" fill="#D3D8DC"/>
<path d="M428.792 465.138C429.337 466.229 424.381 469.254 417.443 472.578C410.506 475.901 404.41 477.736 403.915 476.595" stroke="#A8B3BC" stroke-width="0.90125" stroke-miterlimit="10" stroke-linecap="round" stroke-linejoin="round"/>
<path d="M424.332 455.515C424.332 455.515 427.405 462.509 428.941 465.435C434.243 466.278 438.059 469.998 439.298 476.942" stroke="#A8B3BC" stroke-width="0.90125" stroke-miterlimit="10" stroke-linecap="round" stroke-linejoin="round"/>
<path fill-rule="evenodd" clip-rule="evenodd" d="M410.803 459.135C417.741 455.812 423.837 453.976 424.332 455.117C424.877 456.208 419.674 459.829 412.686 463.152C405.749 466.476 399.653 468.311 399.158 467.17C398.662 466.079 403.865 462.508 410.803 459.135Z" fill="#A8B3BC"/>
<path fill-rule="evenodd" clip-rule="evenodd" d="M422.003 455.417C422.4 456.359 418.039 459.335 412.29 462.113C406.492 464.89 401.388 466.428 400.942 465.485C400.595 464.295 397.721 455.119 397.275 454.375C393.062 452.54 385.926 435.676 385.926 435.676C385.926 435.676 385.976 435.676 385.976 435.626C385.926 435.527 385.877 435.428 385.827 435.329C384.093 431.658 383.399 425.409 388.454 425.905C387.859 424.516 389.296 422.582 390.337 422.086C391.972 421.292 393.707 421.143 395.342 421.441C396.928 420.895 398.514 420.449 400.298 420.151C401.586 419.953 402.924 419.854 404.51 420.052C405.303 420.151 406.145 420.35 407.087 420.747C408.028 421.143 408.474 421.54 410.011 422.78C411.15 424.863 418.485 439.098 416.849 444.802C418.336 447.878 421.458 454.425 422.003 455.417Z" fill="#EB967C"/>
<path d="M396.778 396.541L411.942 431.608C412.983 434.039 411.793 436.915 409.266 438.056C406.739 439.147 403.815 438.106 402.774 435.626C402.675 435.427 402.625 435.229 402.576 435.031L392.12 398.228C391.773 396.938 392.516 395.599 393.854 395.202C395.043 394.904 396.282 395.45 396.778 396.541Z" fill="#EB967C"/>
<path d="M386.966 400.361L404.212 429.526C405.401 431.51 404.658 434.138 402.577 435.378C400.495 436.618 397.819 435.974 396.63 433.94C396.531 433.791 396.481 433.692 396.432 433.543L382.556 402.643C382.011 401.452 382.605 400.014 383.844 399.419C385.034 398.923 386.372 399.319 386.966 400.361Z" fill="#EB967C"/>
<path d="M388.206 425.755C388.255 424.416 388.652 423.226 389.791 422.581C395.986 418.96 401.586 432.898 398.761 434.584C397.225 435.526 396.035 435.03 395.094 434.038" stroke="black" stroke-width="0.90125" stroke-miterlimit="10" stroke-linecap="round" stroke-linejoin="round"/>
<path d="M387.611 438.452C387.611 438.452 381.962 428.78 386.075 426.399C391.972 422.977 397.275 436.22 394.598 437.807C390.832 440.089 389.048 433.194 389.048 433.194" stroke="black" stroke-width="0.90125" stroke-miterlimit="10" stroke-linecap="round" stroke-linejoin="round"/>
<path d="M406.937 445.595C403.865 445.892 401.337 443.263 400.098 440.288C397.62 434.236 402.527 428.78 402.527 428.78C402.527 428.78 401.04 427.292 394.796 426.747H394.647C393.458 426.896 392.318 425.953 392.12 424.664C391.921 423.572 392.417 422.58 393.26 422.233C395.539 421.241 397.72 420.497 400.296 420.1C401.932 419.852 406.689 419.208 410.01 422.729" fill="#EB967C"/>
<path d="M406.937 445.595C403.865 445.892 401.337 443.263 400.098 440.287C397.62 434.236 402.527 428.78 402.527 428.78C402.527 428.78 401.04 427.292 394.796 426.747H394.647C393.458 426.896 392.318 425.953 392.12 424.664C391.921 423.572 392.417 422.58 393.26 422.233C395.539 421.241 397.72 420.497 400.296 420.1C401.932 419.852 406.689 419.208 410.01 422.729" stroke="black" stroke-width="0.90125" stroke-miterlimit="10" stroke-linecap="round" stroke-linejoin="round"/>
<path fill-rule="evenodd" clip-rule="evenodd" d="M512.74 468.708C511.055 473.867 508.379 479.323 509.519 492.417C510.361 501.841 511.848 512.108 501.293 511.562C498.518 509.38 487.268 506.602 473.789 506.255C446.632 505.511 444.501 508.438 443.56 508.735C433.995 507.247 442.866 493.161 442.866 493.161L439.001 478.529C438.505 476.247 438.604 473.867 439.248 471.684C435.433 469.155 432.707 465.087 432.063 460.227C430.923 451.299 437.316 443.164 446.335 441.974C459.765 441.23 494.058 438.7 505.852 437.212C514.871 436.072 523.097 442.123 524.237 451.051C525.327 459.086 520.273 466.476 512.74 468.708Z" fill="#D3D8DC"/>
<path d="M450.25 455.068L441.329 467.567C439.05 470.742 438.257 474.71 439.05 478.529L442.915 493.161" stroke="#A8B3BC" stroke-width="0.90125" stroke-miterlimit="10" stroke-linecap="round" stroke-linejoin="round"/>
<path fill-rule="evenodd" clip-rule="evenodd" d="M475.374 654.558C474.582 671.818 478.447 669.14 480.578 691.708C482.659 713.234 484.592 765.066 484.84 794.528C483.997 799.091 482.312 800.926 480.727 804.696C474.681 819.378 474.235 822.155 453.372 821.163C455.205 815.509 464.819 796.76 463.283 788.13C454.264 707.133 451.835 697.66 451.934 674.249C452.033 646.82 439.347 607.091 435.68 578.72C432.31 552.432 446.087 533.584 445.195 540.231C455.701 539.04 451.34 569.494 459.219 569.941C460.111 570.09 476.911 568.949 476.911 568.949C476.911 568.949 478.546 586.953 475.374 654.558Z" fill="#EB967C"/>
<path fill-rule="evenodd" clip-rule="evenodd" d="M569.68 818.534C558.381 800.777 555.111 794.974 551.889 793.536C542.969 763.429 528.945 721.368 522.354 700.586C515.168 678.068 520.471 675.29 512.542 658.03C481.371 590.425 477.357 570.982 477.357 570.982C477.357 570.982 488.804 561.013 489.647 560.864C497.328 560.368 488.904 545.537 499.905 546.777C497.08 541.569 516.853 559.822 525.526 596.079C543.762 672.066 574.487 796.462 574.487 796.462C574.487 796.462 579.69 806.283 586.331 813.326C590.097 817.294 593.715 820.518 596.639 822.948C581.326 825.726 572.753 823.345 569.68 818.534Z" fill="#EB967C"/>
<path fill-rule="evenodd" clip-rule="evenodd" d="M521.66 645.581C501.194 646.424 481.569 634.818 459.17 636.058C447.524 636.702 448.515 643.15 448.515 643.15C424.084 554.714 435.68 530.41 441.974 524.111C442.222 523.714 442.519 523.318 442.816 522.921C442.816 522.921 443.163 504.767 443.163 508.537C443.163 506.057 458.228 504.916 473.789 505.908C489.35 506.95 501.937 509.777 501.937 512.207C501.937 512.356 501.887 512.455 501.838 512.604L502.829 524.31C512.641 529.022 520.174 538.148 522.949 551.738C528.648 579.613 536.23 640.571 536.23 640.571C536.23 640.571 532.662 645.085 521.66 645.581Z" fill="#ED5C18"/>
<path d="M449.606 522.473C449.606 522.473 445.839 537.452 434.441 545.736" stroke="#CC2818" stroke-width="0.90125" stroke-miterlimit="10" stroke-linecap="round" stroke-linejoin="round"/>
<path d="M468.289 506.305L468.636 520.044L468.537 565.329C468.537 565.329 455.355 558.583 458.923 539.438C461.946 523.218 461.004 520.738 461.004 520.738" stroke="#CC2818" stroke-width="0.90125" stroke-miterlimit="10" stroke-linecap="round" stroke-linejoin="round"/>
<path d="M487.368 521.134C487.368 521.134 488.458 542.313 514.723 550.943" stroke="#CC2818" stroke-width="0.90125" stroke-miterlimit="10" stroke-linecap="round" stroke-linejoin="round"/>
<path d="M494.802 508.239L495.198 521.73C506.001 529.467 519.53 538.941 533.753 642.455" stroke="#CC2818" stroke-width="0.90125" stroke-miterlimit="10" stroke-linecap="round" stroke-linejoin="round"/>
<path d="M503.176 525.4V525.35C503.127 522.721 489.548 520.34 472.848 520.092C456.147 519.844 442.718 521.779 442.767 524.408" stroke="#CC2818" stroke-width="0.90125" stroke-miterlimit="10" stroke-linecap="round" stroke-linejoin="round"/>
<path fill-rule="evenodd" clip-rule="evenodd" d="M539.501 512.257C537.915 519.052 532.117 524.359 524.832 525.004C515.714 525.847 507.636 519.052 506.794 509.926C506.645 508.388 506.744 506.9 506.992 505.462C506.893 501.792 506.149 482.944 501.739 467.469C496.882 465.137 493.364 460.376 492.868 454.672C492.075 445.992 498.518 438.304 507.19 437.56C514.524 436.915 521.115 441.379 523.444 447.976C526.021 454.424 543.267 497.278 539.501 512.257Z" fill="#D3D8DC"/>
<path d="M506.496 506.107C506.496 506.107 507.884 495.89 504.167 477.587" stroke="#A8B3BC" stroke-width="0.90125" stroke-miterlimit="10" stroke-linecap="round" stroke-linejoin="round"/>
<path fill-rule="evenodd" clip-rule="evenodd" d="M526.665 524.708V524.757C526.665 524.757 484.642 531.404 482.412 519.301L474.433 519.103L476.316 494.601L484.245 494.997C484.443 494.997 484.592 494.948 484.79 494.948C485.236 494.948 485.682 495.097 486.079 495.295C490.935 489.194 499.063 489.293 505.852 490.533C510.51 491.377 514.425 492.121 517.795 492.716C519.083 492.269 520.421 491.972 521.809 491.873C526.269 491.476 530.481 492.865 533.702 495.493H533.752C537.122 498.221 539.451 502.289 539.847 506.951C540.64 515.482 534.842 523.071 526.665 524.708Z" fill="#D3D8DC"/>
<path fill-rule="evenodd" clip-rule="evenodd" d="M469.329 506.257C469.725 499.412 472.5 493.956 475.573 494.105C478.645 494.254 480.826 499.908 480.429 506.802C480.033 513.647 477.258 519.103 474.185 518.954C471.162 518.756 468.982 513.101 469.329 506.257Z" fill="#A8B3BC"/>
<path fill-rule="evenodd" clip-rule="evenodd" d="M473.74 517.068L466.306 514.291C460.756 518.209 455.057 513.993 455.057 513.993C451.39 512.456 447.921 509.926 445.344 508.19L429.982 510.968C428.495 511.216 427.058 510.273 426.81 508.785C426.711 508.14 426.81 507.545 427.107 507L423.936 508.091C422.499 508.587 420.962 507.843 420.467 506.404C420.12 505.363 420.417 504.272 421.161 503.528L420.863 503.627C419.426 504.123 417.89 503.379 417.394 501.94C416.948 500.601 417.543 499.163 418.831 498.568L428.445 494.104L433.252 491.872L434.144 491.475H430.229L419.674 491.425C418.187 491.425 416.948 490.185 416.948 488.697C416.948 487.259 418.038 486.118 419.426 485.969L429.982 485.027C429.982 485.027 439.794 484.531 442.668 484.779C442.668 484.779 446.979 485.027 461.251 493.657C461.251 493.657 472.253 495.145 475.474 495.344C481.817 496.98 476.663 518.408 473.74 517.068Z" fill="#EB967C"/>
<path fill-rule="evenodd" clip-rule="evenodd" d="M470.221 506.007C470.518 500.006 472.798 495.244 475.325 495.393C477.803 495.542 479.587 500.502 479.29 506.503C478.992 512.505 476.713 517.266 474.185 517.118C471.708 516.969 469.924 512.009 470.221 506.007Z" fill="#EB967C"/>
<path d="M427.157 507.001C425.373 507.645 423.936 508.141 423.936 508.141C422.499 508.637 420.962 507.893 420.467 506.455C420.021 505.116 420.615 503.677 421.904 503.082L431.518 498.618L436.325 496.386L437.564 495.841C438.158 495.593 441.132 494.749 441.776 494.601" stroke="black" stroke-width="0.90125" stroke-miterlimit="10" stroke-linecap="round" stroke-linejoin="round"/>
<path d="M439.793 509.232L429.981 511.017C428.495 511.265 427.058 510.323 426.81 508.835C426.562 507.446 427.404 506.107 428.742 505.71C428.742 505.71 443.114 499.857 444.997 500.75" stroke="black" stroke-width="0.90125" stroke-miterlimit="10" stroke-linecap="round" stroke-linejoin="round"/>
<path d="M420.863 503.677C419.426 504.173 417.89 503.429 417.394 501.99C416.948 500.651 417.543 499.213 418.831 498.618L428.445 494.154L433.252 491.922L434.491 491.376C435.086 491.128 439.447 489.739 440.091 489.591" stroke="black" stroke-width="0.90125" stroke-miterlimit="10" stroke-linecap="round" stroke-linejoin="round"/>
<path d="M485.385 495.046C488.358 495.194 490.44 500.65 490.043 507.247C489.696 513.844 486.971 519.052 484.047 518.903" stroke="#A8B3BC" stroke-width="0.90125" stroke-miterlimit="10" stroke-linecap="round" stroke-linejoin="round"/>
<path d="M476.911 494.599C476.911 494.599 480.925 494.947 485.98 495.095C490.44 490.582 494.9 489.838 500.995 490.185C510.064 490.78 513.93 491.921 518.786 493.062" stroke="#A8B3BC" stroke-width="0.90125" stroke-miterlimit="10" stroke-linecap="round" stroke-linejoin="round"/>
<path fill-rule="evenodd" clip-rule="evenodd" d="M468.437 477.486C468.437 477.486 449.259 449.661 464.571 440.336C479.042 436.418 491.728 437.807 493.314 441.675C498.815 454.67 468.437 477.486 468.437 477.486Z" fill="#ED5C18"/>
<path fill-rule="evenodd" clip-rule="evenodd" d="M493.71 442.371C493.859 445.347 488.903 448.174 482.065 449.315C480.182 449.811 478.1 450.009 475.92 449.811C468.04 449.86 461.796 447.479 461.598 444.206C461.499 442.519 462.985 440.932 465.562 439.593L466.801 415.785L487.07 419.803C487.07 419.803 487.912 431.062 488.755 438.056C491.679 439.097 493.611 440.585 493.71 442.371Z" fill="#EB967C"/>
<path fill-rule="evenodd" clip-rule="evenodd" d="M478.893 436.32C473.293 434.187 468.833 430.516 466.207 426.35L466.752 415.785L487.02 419.803C487.02 419.803 487.863 431.062 488.705 438.056C488.854 438.105 488.953 438.155 489.102 438.204C485.831 438.254 482.362 437.659 478.893 436.32Z" fill="#010000"/>
<path fill-rule="evenodd" clip-rule="evenodd" d="M489.251 373.923C489.251 373.923 494.107 358.646 482.511 353.934C475.325 351.058 468.982 355.522 468.982 355.522C463.977 345.999 443.907 341.336 432.905 354.381C418.236 371.79 430.229 397.681 445.195 405.518C445.195 405.518 439.397 417.868 449.308 423.771C458.179 429.028 473.541 422.481 482.461 403.336C485.088 397.632 489.251 373.923 489.251 373.923Z" fill="#351015"/>
<path fill-rule="evenodd" clip-rule="evenodd" d="M492.175 359.44C492.175 359.44 488.953 368.566 486.773 373.575C497.973 372.038 502.482 363.011 492.175 359.44Z" fill="#351015"/>
<path fill-rule="evenodd" clip-rule="evenodd" d="M496.336 399.617C496.336 399.617 491.777 409.338 477.456 409.487C466.305 409.586 457.138 400.311 457.038 388.705C456.939 377.098 465.859 367.625 477.01 367.526C488.16 367.426 497.328 376.702 497.427 388.308C497.03 392.474 496.336 399.617 496.336 399.617Z" fill="#351015"/>
<path fill-rule="evenodd" clip-rule="evenodd" d="M500.005 406.66C498.815 410.429 496.783 413.157 494.454 412.86C494.306 412.86 494.157 412.761 494.008 412.661C491.877 420.944 486.674 425.607 482.561 428.037C480.876 429.029 478.993 429.525 477.06 429.575C475.127 429.575 473.195 429.128 471.51 428.186C467.297 425.805 461.846 421.192 459.616 412.711C459.567 412.76 459.468 412.761 459.418 412.761C456.742 413.157 455.007 410.826 453.669 407.057C452.331 403.337 453.025 399.865 454.611 399.17C456.494 398.377 459.022 399.617 460.31 403.337C460.409 403.535 460.459 403.783 460.508 403.981H460.657C460.657 403.981 460.905 397.732 460.905 388.903C460.905 385.084 463.828 382.653 466.108 381.265C469.081 379.876 472.649 379.033 476.515 379.033C481.916 379.033 486.773 380.62 490.093 383.149C491.58 384.538 492.769 386.423 492.769 388.903C492.769 397.732 493.017 403.386 493.017 403.386C494.206 399.617 496.833 398.327 498.716 399.071C500.302 399.716 501.194 402.841 500.005 406.66Z" fill="#EB967C"/>
<path d="M472.154 392.672C472.154 392.672 466.256 390.143 462.193 393.962" stroke="black" stroke-width="0.90125" stroke-miterlimit="10" stroke-linecap="round" stroke-linejoin="round"/>
<path d="M479.785 392.672C479.785 392.672 485.682 390.143 489.746 393.962" stroke="black" stroke-width="0.90125" stroke-miterlimit="10" stroke-linecap="round" stroke-linejoin="round"/>
<path d="M473.988 395.549C474.533 397.186 474.88 399.964 473.343 403.535C471.361 408.148 475.524 410.38 478.695 407.255" stroke="black" stroke-width="0.90125" stroke-miterlimit="10" stroke-linecap="round" stroke-linejoin="round"/>
<path d="M456.89 403.982C455.948 404.726 454.709 408.496 458.129 409.488" stroke="black" stroke-width="0.90125" stroke-miterlimit="10" stroke-linecap="round" stroke-linejoin="round"/>
<path d="M455.799 401.202L458.872 407.501" stroke="black" stroke-width="0.90125" stroke-miterlimit="10" stroke-linecap="round" stroke-linejoin="round"/>
<path d="M496.337 403.982C497.279 404.726 498.518 408.496 495.098 409.488" stroke="black" stroke-width="0.90125" stroke-miterlimit="10" stroke-linecap="round" stroke-linejoin="round"/>
<path d="M497.427 401.202L494.354 407.501" stroke="black" stroke-width="0.90125" stroke-miterlimit="10" stroke-linecap="round" stroke-linejoin="round"/>
<path fill-rule="evenodd" clip-rule="evenodd" d="M467.991 397.334C468.734 397.285 469.428 398.326 469.478 399.616C469.527 400.906 468.982 401.997 468.189 401.997C467.446 402.046 466.752 401.005 466.702 399.715C466.653 398.426 467.198 397.384 467.991 397.334Z" fill="#010000"/>
<path fill-rule="evenodd" clip-rule="evenodd" d="M484.146 397.334C484.889 397.285 485.583 398.326 485.633 399.616C485.682 400.906 485.137 401.997 484.344 401.997C483.601 402.046 482.907 401.005 482.857 399.715C482.857 398.426 483.403 397.384 484.146 397.334Z" fill="#010000"/>
<path d="M465.215 397.782H468.288" stroke="black" stroke-width="0.90125" stroke-miterlimit="10" stroke-linecap="round" stroke-linejoin="round"/>
<path d="M484.394 397.782H487.219" stroke="black" stroke-width="0.90125" stroke-miterlimit="10" stroke-linecap="round" stroke-linejoin="round"/>
<path fill-rule="evenodd" clip-rule="evenodd" d="M476.763 411.916C479.736 411.916 482.61 411.767 485.138 411.568C483.849 416.33 480.579 419.752 476.763 419.752C472.947 419.752 469.676 416.38 468.388 411.568C470.915 411.767 473.74 411.916 476.763 411.916Z" fill="#010000"/>
<path fill-rule="evenodd" clip-rule="evenodd" d="M468.982 411.619C471.361 411.817 473.987 411.917 476.713 411.917C479.438 411.917 482.065 411.817 484.443 411.619C483.155 413.95 480.182 415.537 476.713 415.537C473.244 415.537 470.27 413.95 468.982 411.619Z" fill="#E0D6DB"/>
</g>
<path d="M233 104H410C492.843 104 560 171.157 560 254V276H233V104Z" fill="#F9B99B"/>
<mask id="mask4_1542_491" style="mask-type:alpha" maskUnits="userSpaceOnUse" x="233" y="104" width="327" height="172">
<path d="M233 104H410C492.843 104 560 171.157 560 254V276H233V104Z" fill="#906CB4"/>
</mask>
<g mask="url(#mask4_1542_491)">
<path fill-rule="evenodd" clip-rule="evenodd" d="M357.808 234.598C345.306 233.245 324.453 232.376 300.607 237.062C295.153 238.125 291.484 243.342 292.257 248.85C294.67 266.146 292.353 285.713 288.154 302.187C282.941 322.285 283.085 355.766 323.294 350.886C363.31 346.007 380.881 355.331 380.881 355.331C410.181 352.819 411.87 352.335 429.392 351.852C416.166 337.165 390.1 330.885 382.86 324.411C376.005 318.275 378.371 312.912 371.516 248.415C370.744 241.168 365.048 235.371 357.808 234.598Z" fill="#573652"/>
<path fill-rule="evenodd" clip-rule="evenodd" d="M430.84 270.93C430.84 278.757 424.516 285.086 416.697 285.086C411.387 285.086 406.705 282.139 404.339 277.742L373.157 226.869C370.937 224.164 369.585 220.685 369.585 216.868C369.585 208.172 376.632 201.07 385.369 201.07C392.562 201.07 398.595 205.853 400.478 212.424L427.606 261.799C429.585 264.311 430.84 267.452 430.84 270.93Z" fill="#D3D8DC"/>
<path fill-rule="evenodd" clip-rule="evenodd" d="M438.612 250.349H438.756L430.309 274.699C428.668 280.69 423.213 285.086 416.697 285.086C408.877 285.086 402.554 278.757 402.554 270.93C402.554 268.37 403.23 266.003 404.436 263.925L410.18 250.349C410.132 250.253 410.132 250.156 410.132 250.059C410.422 248.803 417.083 247.74 424.999 247.74C432.916 247.74 439.094 248.755 438.756 250.059C438.756 250.156 438.708 250.253 438.612 250.349Z" fill="#D3D8DC"/>
<path d="M404.292 264.166L410.18 250.301" stroke="#A8B3BC" stroke-width="0.96625" stroke-miterlimit="10" stroke-linecap="round" stroke-linejoin="round"/>
<path fill-rule="evenodd" clip-rule="evenodd" d="M425 247.788C432.916 247.788 439.094 248.803 438.757 250.107C438.467 251.363 431.806 252.426 423.889 252.426C415.973 252.426 409.794 251.412 410.132 250.107C410.422 248.803 417.083 247.788 425 247.788Z" fill="black"/>
<path fill-rule="evenodd" clip-rule="evenodd" d="M440.542 238.223L436.681 249.19H436.584C436.584 249.238 436.632 249.286 436.584 249.383C436.343 250.446 430.647 251.315 423.937 251.315C417.228 251.315 411.966 250.446 412.256 249.383C412.256 249.335 412.304 249.238 412.353 249.19L416.214 238.271H440.542V238.223Z" fill="#ECE6E8"/>
<path fill-rule="evenodd" clip-rule="evenodd" d="M428.716 236.194C435.426 236.194 440.687 237.063 440.398 238.126C440.156 239.189 434.46 240.059 427.751 240.059C421.041 240.059 415.78 239.189 416.07 238.126C416.359 237.063 422.007 236.194 428.716 236.194Z" fill="black"/>
<path fill-rule="evenodd" clip-rule="evenodd" d="M464.677 188.944C463.905 188.123 462.601 188.123 461.781 188.896C459.56 191.07 457.292 193.195 455.023 195.369L456.519 186.19C456.664 185.175 456.037 184.161 455.023 183.871C453.913 183.581 452.803 184.258 452.513 185.32L449.086 198.751L445.755 191.07C445.369 190.152 444.307 189.62 443.293 189.91C442.183 190.248 441.604 191.359 441.894 192.422L445.128 203.293L439.239 206.771C439.239 206.723 439.287 206.723 439.287 206.675C440.349 204.549 441.17 202.471 441.942 200.249C442.231 199.428 441.942 198.461 441.17 197.93C440.252 197.254 438.949 197.495 438.273 198.413L438.225 198.51C437.018 200.201 435.667 201.892 434.315 203.389C433.639 204.162 432.915 204.839 432.191 205.467C431.853 205.805 431.467 206.046 431.129 206.336C430.743 206.578 430.502 206.723 429.923 207.158C427.799 208.704 425.82 210.684 424.275 213.245C422.73 215.806 421.813 219.139 422.103 222.618L422.248 224.067V224.115L418.145 236.966C418.048 237.063 417.952 237.111 417.952 237.208C417.71 238.126 422.248 238.899 428.04 238.899C433.832 238.899 438.708 238.126 438.949 237.208C438.997 237.063 438.901 236.918 438.708 236.773L441.218 220.975C442.618 219.139 443.969 217.255 445.272 215.322C445.852 214.646 446.383 214.018 446.962 213.342C448.989 210.926 451.017 208.51 452.996 206.095C456.954 201.215 460.912 196.384 464.822 191.456C465.449 190.828 465.401 189.669 464.677 188.944Z" fill="#EB967C"/>
<path d="M425.868 218.897C425.868 218.897 425.82 213.486 432.24 210.394C436.826 208.172 445.176 203.776 445.176 203.776" stroke="black" stroke-width="0.96625" stroke-miterlimit="10" stroke-linecap="round" stroke-linejoin="round"/>
<path d="M449.038 199.089C450.389 193.823 452.561 185.368 452.561 185.368C452.851 184.257 453.961 183.629 455.071 183.919C456.085 184.161 456.761 185.175 456.568 186.238L453.575 204.404C453.527 204.645 453.43 204.887 453.334 205.128L453.237 205.322C452.03 207.157 449.955 209.476 447.976 211.457" stroke="black" stroke-width="0.96625" stroke-miterlimit="10" stroke-linecap="round" stroke-linejoin="round"/>
<path d="M445.225 204.114L441.894 192.519C441.556 191.456 442.184 190.297 443.294 190.007C444.308 189.717 445.37 190.2 445.756 191.166L451.114 203.486C451.403 204.162 451.355 204.887 451.066 205.515L450.921 205.853C450.535 206.723 450.148 207.399 449.762 208.124C449.376 208.849 448.99 209.573 448.555 210.298C447.735 211.699 446.866 213.1 445.997 214.501" stroke="black" stroke-width="0.96625" stroke-miterlimit="10" stroke-linecap="round" stroke-linejoin="round"/>
<path fill-rule="evenodd" clip-rule="evenodd" d="M385.997 233.005C383.825 248.127 373.302 266.292 335.458 267.065C327.156 267.21 328.797 247.837 331.355 232.57C324.211 231.217 318.66 225.13 318.37 217.642C318.032 208.897 324.887 201.505 333.769 201.167C334.348 201.167 334.927 201.167 335.506 201.215C335.506 201.215 368.33 201.409 383.921 201.409C392.755 201.07 400.237 207.882 400.574 216.627C400.912 225.033 394.444 232.232 385.997 233.005Z" fill="#D3D8DC"/>
<path fill-rule="evenodd" clip-rule="evenodd" d="M391.162 221.072L397.389 233.537C400.188 239.141 400.478 245.663 398.258 251.557L383.632 290.98L333.913 291.125C333.865 291.125 308.089 193.437 391.162 221.072Z" fill="#D3D8DC"/>
<path d="M391.162 221.072L397.389 233.537C400.188 239.141 400.478 245.663 398.258 251.557L383.632 290.98" stroke="#A8B3BC" stroke-width="0.96625" stroke-miterlimit="10" stroke-linecap="round" stroke-linejoin="round"/>
<path fill-rule="evenodd" clip-rule="evenodd" d="M349.022 222.085C348.395 224.597 335.217 278.466 335.217 278.466H335.121C334.541 285.567 328.652 291.172 321.412 291.172C313.785 291.172 307.655 284.988 307.655 277.403C307.655 276.388 307.751 275.422 307.944 274.504L318.757 212.809L318.902 212.857C320.736 206.142 326.818 201.214 334.107 201.214C342.795 201.214 349.891 208.267 349.891 217.012C349.891 218.703 349.553 220.442 349.022 222.085Z" fill="#D3D8DC"/>
<path d="M345.45 236.627L338.547 264.841" stroke="#A8B3BC" stroke-width="0.96625" stroke-miterlimit="10" stroke-linecap="round" stroke-linejoin="round"/>
<path fill-rule="evenodd" clip-rule="evenodd" d="M341.54 291.22H341.492L322.184 291.075C321.943 291.075 321.653 291.123 321.363 291.123C313.737 291.123 307.606 284.939 307.606 277.354C307.606 269.769 313.785 263.585 321.363 263.585C329.859 264.068 336.906 264.261 341.589 264.358C345.064 264.261 347.912 270.156 347.864 277.596C347.864 284.988 345.016 291.123 341.54 291.22Z" fill="#D3D8DC"/>
<path d="M315.136 265.035C317.019 264.069 319.143 263.537 321.363 263.537C329.859 264.02 336.906 264.214 341.588 264.31" stroke="#A8B3BC" stroke-width="0.96625" stroke-miterlimit="10" stroke-linecap="round" stroke-linejoin="round"/>
<path fill-rule="evenodd" clip-rule="evenodd" d="M341.589 264.31C345.064 264.213 347.912 270.107 347.864 277.547C347.864 284.987 345.016 291.075 341.54 291.172C338.065 291.268 335.217 285.374 335.265 277.934C335.265 270.542 338.113 264.455 341.589 264.31Z" fill="black"/>
<path fill-rule="evenodd" clip-rule="evenodd" d="M352.594 265.759L351.725 290.591H342.554V290.495C342.457 290.495 342.361 290.543 342.264 290.543C339.127 290.64 336.617 285.036 336.617 278.03C336.617 271.025 339.175 265.276 342.313 265.131C342.409 265.131 342.457 265.131 342.554 265.131V265.034L352.594 265.759Z" fill="#ECE6E8"/>
<path fill-rule="evenodd" clip-rule="evenodd" d="M352.787 265.566C355.828 265.469 358.29 270.88 358.241 277.644C358.241 284.408 355.779 290.012 352.738 290.108C349.697 290.205 347.236 284.794 347.284 278.03C347.284 271.267 349.746 265.662 352.787 265.566Z" fill="black"/>
<path fill-rule="evenodd" clip-rule="evenodd" d="M403.471 267.933L400.188 273.296L400.816 279.866C400.478 280.06 390.582 287.79 377.549 287.741C370.695 287.741 368.378 284.746 368.378 284.746C368.378 284.746 362.731 286.34 354.042 288.176C353.704 288.369 353.366 288.466 353.028 288.466C350.422 288.563 348.298 283.876 348.346 278.079C348.346 272.233 350.47 267.45 353.076 267.354C353.366 267.354 353.656 267.402 353.945 267.498C382.714 267.112 403.471 267.933 403.471 267.933Z" fill="#EB967C"/>
<path d="M398.065 270.156C403.616 267.789 406.077 265.325 410.132 265.953C413.897 266.533 416.166 271.122 424.42 282.911C426.013 285.471 422.586 287.983 419.641 284.988C418.531 286.099 416.311 286.292 415.538 285.423C414.235 283.925 406.608 277.5 405.257 276.002C404.098 274.697 402.94 273.876 400.913 274.359C399.32 274.746 401.685 276.727 399.995 277.451H399.947C397.823 278.369 395.41 277.451 394.541 275.374C393.672 273.345 391.934 273.151 394.058 272.233C394.251 272.137 396.713 273.586 398.065 270.156Z" fill="#EB967C"/>
<path d="M385.949 273.972C391.017 271.943 394.782 270.252 396.327 270.542C398.885 271.17 400.092 272.137 400.575 272.861C401.83 274.552 404.147 279.528 405.305 281.268C406.464 282.959 407.574 284.698 408.684 286.437C409.36 287.5 409.022 288.901 407.96 289.577C406.995 290.205 405.691 290.012 404.967 289.191C403.664 287.693 402.264 286.147 400.913 284.65C399.561 283.152 398.161 281.702 396.81 280.301C396.472 279.963 396.134 279.625 395.796 279.287L395.313 278.852L395.072 278.659L394.975 278.562L394.927 278.514L395.024 278.61C395.603 279.094 395.844 279.045 395.892 279.094C395.941 279.142 395.844 279.142 395.748 279.142C395.506 279.19 395.12 279.239 394.734 279.335C393.141 279.722 391.162 280.446 389.473 281.171H389.424C387.3 282.089 384.887 281.171 384.018 279.094C383.149 277.064 384.163 274.649 386.287 273.731C386.432 273.731 385.756 274.021 385.949 273.972Z" fill="#EB967C"/>
<path d="M404.484 268.271C407.139 268.513 408.443 269.334 409.07 270.011C411.773 272.765 418.772 281.896 419.062 282.234C419.883 283.152 419.738 284.601 418.772 285.422C417.855 286.195 416.6 286.195 415.731 285.471C414.38 284.311 408.684 279.045 406.27 276.968C405.981 276.678 404.436 275.084 401.83 274.745" stroke="black" stroke-width="0.96625" stroke-miterlimit="10" stroke-linecap="round" stroke-linejoin="round"/>
<path d="M396.327 270.542C398.885 271.17 400.092 272.136 400.574 272.861C401.829 274.552 404.146 279.528 405.305 281.267C406.463 282.958 407.574 284.698 408.684 286.437C409.36 287.5 409.022 288.901 407.96 289.577C406.994 290.205 405.691 290.012 404.967 289.191C403.664 287.693 402.264 286.147 400.912 284.649C399.561 283.152 398.161 281.702 396.809 280.301" stroke="black" stroke-width="0.96625" stroke-miterlimit="10" stroke-linecap="round" stroke-linejoin="round"/>
<path fill-rule="evenodd" clip-rule="evenodd" d="M382.908 145.558C427.268 184.788 390.872 179.908 390.872 179.908C392.9 177.976 396.134 173.048 390.921 160.632C397.775 187.88 374.171 180.633 374.171 180.633L374.702 175.85C377.694 175.367 361.186 170.487 361.186 170.487C362.586 173.193 361.717 178.99 363.02 181.696C363.02 181.696 349.215 184.691 334.638 180.246C309.923 172.661 338.451 154.737 338.354 151.935C338.161 146.669 337.775 139.954 341.347 134.881C329.038 131.209 335.893 119.711 340.575 121.788C340.575 121.788 340.285 115.653 344.002 112.802C345.836 111.063 348.298 110 351.049 110C354.235 110 357.035 111.449 358.917 113.72C362.2 117.199 361.717 123.431 360.703 127.972C393.768 131.596 393.672 141.113 386.287 146.621C384.549 148.312 383.004 145.51 382.908 145.558Z" fill="#4F2827"/>
<path fill-rule="evenodd" clip-rule="evenodd" d="M363.793 154.834C370.647 154.834 369.585 158.312 369.585 168.651C369.585 170.149 369.585 171.647 369.585 173.096C365.724 171.743 361.186 170.439 361.186 170.439C362.586 173.144 361.717 178.942 363.021 181.647C363.021 181.647 355.925 183.193 346.56 182.42C345.74 181.309 345.161 180.005 344.919 178.41C343.375 169.231 356.89 154.834 363.793 154.834Z" fill="#351015"/>
<path fill-rule="evenodd" clip-rule="evenodd" d="M362.538 213.244L369.488 198.557L379.722 211.746L375.764 234.791L362.538 213.244Z" fill="#EBE6E9"/>
<path fill-rule="evenodd" clip-rule="evenodd" d="M347.864 201.455C347.574 201.504 352.063 200.731 349.215 202.808C346.56 204.692 343.954 206.045 352.401 212.181C369.73 215.997 373.35 209.91 373.35 209.91C373.35 209.91 378.853 213.437 383.198 211.698C387.494 209.958 380.06 204.354 372.771 203.195C361.572 201.359 347.864 201.455 347.864 201.455Z" fill="black"/>
<path fill-rule="evenodd" clip-rule="evenodd" d="M347.863 193.243C347.574 193.339 343.471 197.397 340.623 200.876C337.968 204.113 339.802 208.606 351.291 211.843C367.558 216.433 371.661 208.171 373.061 205.804C373.061 205.804 379.625 214.114 383.921 211.166C388.217 208.219 379.915 198.219 372.674 196.19C361.572 193.049 347.863 193.243 347.863 193.243Z" fill="#EBE6E9"/>
<path fill-rule="evenodd" clip-rule="evenodd" d="M362.2 192.905C370.165 194.258 376.295 197.06 375.957 199.137C375.619 201.215 368.861 201.794 360.897 200.393C352.932 199.04 346.802 196.238 347.14 194.161C347.526 192.083 354.284 191.504 362.2 192.905Z" fill="black"/>
<path fill-rule="evenodd" clip-rule="evenodd" d="M377.501 178.893L374.219 197.832C374.267 197.977 374.267 198.122 374.267 198.267C373.978 200.103 368.04 200.586 361.089 199.378C354.138 198.17 348.732 195.755 349.022 193.919C349.07 193.774 349.118 193.629 349.215 193.532L356.552 167.54L377.501 178.893Z" fill="#EB967C"/>
<path fill-rule="evenodd" clip-rule="evenodd" d="M375.426 190.827C364.275 186.527 360.076 170.729 360.076 170.729L363.551 171.357L377.501 178.942L375.426 190.827Z" fill="black"/>
<path fill-rule="evenodd" clip-rule="evenodd" d="M356.263 169.135C353.56 170.294 349.264 168.169 348.298 166.864C346.609 164.545 346.609 160.342 349.071 158.603C351.05 157.202 354.622 158.264 356.456 160.052C356.553 160.149 356.746 160.342 356.794 160.439C362.635 154.738 361.428 148.36 361.428 148.36C370.165 147.394 369.392 137.249 369.392 137.2C369.392 137.2 379.915 142.901 385.949 143.384C386.914 146.959 386.721 149.085 388.025 154.689C390.004 163.192 388.845 178.604 378.757 181.793C372.916 183.58 362.876 182.131 356.263 169.135ZM356.504 160.052C356.408 160.004 356.456 160.004 356.504 160.052V160.052Z" fill="#EB967C"/>
<path d="M352.304 163.24C351.146 164.013 350.759 165.559 351.484 166.671C352.208 167.782 353.704 167.975 354.862 167.202" stroke="black" stroke-width="0.96625" stroke-miterlimit="10" stroke-linecap="round" stroke-linejoin="round"/>
<path d="M380.012 147.201C380.012 147.201 384.163 145.606 386.818 147.442" stroke="black" stroke-width="0.96625" stroke-miterlimit="10" stroke-linecap="round" stroke-linejoin="round"/>
<path d="M382.328 152.418L384.645 150.969" stroke="black" stroke-width="0.96625" stroke-miterlimit="10" stroke-linecap="round" stroke-linejoin="round"/>
<path d="M367.944 153.674L370.55 152.418" stroke="black" stroke-width="0.96625" stroke-miterlimit="10" stroke-linecap="round" stroke-linejoin="round"/>
<path d="M362.393 150.535C362.296 151.114 365.193 146.718 373.061 147.781" stroke="black" stroke-width="0.96625" stroke-miterlimit="10" stroke-linecap="round" stroke-linejoin="round"/>
<path d="M377.695 152.805C377.695 152.805 378.95 155.559 380.832 158.409C382.86 161.453 382.28 164.496 377.646 163.82" stroke="black" stroke-width="0.96625" stroke-miterlimit="10" stroke-linecap="round" stroke-linejoin="round"/>
<path d="M355.635 164.787L350.132 161.984" stroke="black" stroke-width="0.96625" stroke-miterlimit="10" stroke-linecap="round" stroke-linejoin="round"/>
<path fill-rule="evenodd" clip-rule="evenodd" d="M367.751 153.53C368.475 153.385 369.199 154.303 369.296 155.511C369.392 156.718 368.909 157.83 368.137 157.974C367.365 158.119 366.689 157.201 366.592 155.994C366.496 154.738 367.027 153.675 367.751 153.53Z" fill="black"/>
<path fill-rule="evenodd" clip-rule="evenodd" d="M382.618 151.838C383.342 151.693 384.066 152.611 384.163 153.819C384.259 155.027 383.777 156.138 383.004 156.283C382.28 156.428 381.556 155.51 381.46 154.302C381.363 153.046 381.894 151.935 382.618 151.838Z" fill="black"/>
<path fill-rule="evenodd" clip-rule="evenodd" d="M376.391 166.091C378.805 166.139 381.073 166.043 383.149 165.898C382.039 169.956 379.384 172.807 376.343 172.758C373.254 172.71 370.695 169.811 369.682 165.753C371.709 165.946 373.978 166.091 376.391 166.091Z" fill="black"/>
<path fill-rule="evenodd" clip-rule="evenodd" d="M365.579 141.114C344.871 168.12 348.588 189.813 367.8 181.406C358.966 169.425 364.565 146.186 365.579 141.114Z" fill="#4F2827"/>
<path fill-rule="evenodd" clip-rule="evenodd" d="M392.465 148.36L392.562 150.051L391.403 150.245C391.162 150.921 390.969 151.694 390.969 152.467C390.486 151.742 389.714 150.534 387.687 149.616L383.97 148.554C383.873 148.554 383.777 148.505 383.68 148.505H383.777H383.728L392.465 148.36Z" fill="black"/>
<path d="M377.936 153.336C378.515 151.017 381.025 149.181 384.115 148.988C387.735 148.795 390.728 150.872 390.824 153.723C390.921 156.525 388.121 158.989 384.501 159.23C383.197 159.327 381.942 159.085 380.881 158.602C380.832 158.554 380.832 158.506 380.784 158.457" stroke="black" stroke-width="0.96625" stroke-miterlimit="10" stroke-linecap="round" stroke-linejoin="round"/>
<path fill-rule="evenodd" clip-rule="evenodd" d="M361.041 150.582L360.945 152.273L362.103 152.322C362.345 152.95 362.538 153.674 362.538 154.496C363.02 153.674 363.793 152.37 365.82 151.162L369.537 149.616C369.633 149.568 369.73 149.568 369.827 149.52H369.73H369.778L361.041 150.582Z" fill="black"/>
<path fill-rule="evenodd" clip-rule="evenodd" d="M369.392 150.003C365.772 150.293 362.779 152.853 362.683 155.655C362.586 158.506 365.386 160.583 369.006 160.245C372.626 159.955 375.619 157.395 375.716 154.593C375.812 151.79 372.964 149.713 369.392 150.003Z" stroke="black" stroke-width="0.96625" stroke-miterlimit="10" stroke-linecap="round" stroke-linejoin="round"/>
<path fill-rule="evenodd" clip-rule="evenodd" d="M374.75 169.183C373.254 169.135 371.95 168.99 370.84 168.797C370.357 167.879 369.923 166.864 369.682 165.753C371.709 165.946 374.026 166.091 376.439 166.139C378.177 166.139 379.818 166.139 381.411 166.043C380.639 167.734 377.405 169.28 374.75 169.183Z" fill="#EBE6E9"/>
</g>
<path d="M0 215L0 90C0 40.2944 40.2944 0 90 0H180V215H0Z" fill="#5A74C7"/>
<mask id="mask5_1542_491" style="mask-type:alpha" maskUnits="userSpaceOnUse" x="0" y="0" width="180" height="215">
<path d="M0 215L0 90C0 40.2944 40.2944 0 90 0H180V215H0Z" fill="#2F5471"/>
</mask>
<g mask="url(#mask5_1542_491)">
<path fill-rule="evenodd" clip-rule="evenodd" d="M52.636 164.39C42.8636 166.106 36.336 175.421 38.0501 185.202C39.7653 194.983 49.0721 201.517 58.8444 199.8C68.6168 198.085 75.1455 188.77 73.4303 178.989C71.7162 169.208 62.4095 162.674 52.636 164.39Z" fill="#7581F1"/>
<path fill-rule="evenodd" clip-rule="evenodd" d="M73.4188 185.572C75.5551 177.542 79.31 139.635 78.7468 135.626C77.6426 127.465 70.0648 121.748 61.8198 122.869C53.5749 123.99 47.7569 131.501 48.8611 139.662C49.6609 145.822 37.5283 169.191 37.7702 181.471C38.117 199.148 72.2552 189.838 73.4188 185.572Z" fill="#54B4A6"/>
<path fill-rule="evenodd" clip-rule="evenodd" d="M52.636 164.39C42.8636 166.106 36.336 175.421 38.0501 185.202C39.7653 194.983 49.0721 201.517 58.8444 199.8C68.6168 198.085 75.1455 188.77 73.4303 178.989C71.7162 169.208 62.4095 162.674 52.636 164.39Z" fill="#7581F1"/>
<path fill-rule="evenodd" clip-rule="evenodd" d="M24.4245 196.325C40.3915 224.093 68.0677 196.548 69.9494 193.183C74.4606 181.936 70.3493 185.085 69.908 178.581C69.9006 177.742 69.7956 176.874 69.6524 176.059C68.1207 167.319 60.0795 161.356 51.3805 162.278C47.3042 162.434 38.8364 163.08 33.203 165.796C32.8572 165.951 32.5114 166.105 32.2102 166.25C22.075 171.485 18.0464 185.216 24.4245 196.325Z" fill="#54B4A6"/>
<path fill-rule="evenodd" clip-rule="evenodd" d="M39.5894 179.611C45.9654 178.211 51.9043 181.229 52.8632 186.428C53.8125 191.582 49.3883 196.934 43.0113 198.334C36.6343 199.733 30.6953 196.716 29.7374 191.516C28.787 186.362 33.1668 181.019 39.5894 179.611Z" fill="#54B4A6"/>
<path d="M52.8548 186.383C53.8052 191.537 49.3799 196.889 43.0039 198.288C36.6269 199.689 30.6879 196.67 29.729 191.472" stroke="#39A08F" stroke-width="1.10848" stroke-miterlimit="10" stroke-linecap="round" stroke-linejoin="round"/>
<path fill-rule="evenodd" clip-rule="evenodd" d="M36.5929 171.035C42.9699 169.635 48.9089 172.653 49.8668 177.852C50.8172 183.007 46.3918 188.359 40.0158 189.758C33.6388 191.158 27.6999 188.14 26.742 182.941C25.8447 177.824 30.2244 172.481 36.5929 171.035Z" fill="#39A08F"/>
<path fill-rule="evenodd" clip-rule="evenodd" d="M27.9182 182.734C28.7805 187.391 34.1053 190.096 39.8565 188.853C45.6003 187.564 49.5611 182.761 48.7061 178.15C48.6351 177.743 48.5258 177.388 48.4176 177.033L45.91 155.816L29.6111 151.957L27.9627 180.065C27.7813 180.891 27.7591 181.829 27.9182 182.734Z" fill="#DE7C62"/>
<path fill-rule="evenodd" clip-rule="evenodd" d="M35.2087 163.67C39.0114 166.736 43.6266 167.792 47.1662 166.704L45.8573 155.779L29.7471 151.934C29.2051 155.762 31.1865 160.409 35.2087 163.67Z" fill="#C26147"/>
<path fill-rule="evenodd" clip-rule="evenodd" d="M37.7727 146.369C37.7727 146.369 52.1169 154.772 44.2654 159.466C38.6532 162.831 25.3284 156.256 22.5844 146.189C20.3516 137.713 37.7727 146.369 37.7727 146.369Z" fill="#DE7C62"/>
<path fill-rule="evenodd" clip-rule="evenodd" d="M32.3934 155.062C39.7909 158.151 44.1398 157.154 46.5943 155.463C46.3567 154.104 45.4615 152.72 44.2565 151.439C36.0222 151.017 21.9804 150.73 32.3934 155.062Z" fill="#C26147"/>
<path fill-rule="evenodd" clip-rule="evenodd" d="M30.1023 114.856L15.9014 117.117C15.1769 117.244 14.865 117.859 15.2023 118.453L32.8283 153.819C33.1284 154.467 33.993 154.874 34.6718 154.755L48.8727 152.495C49.5961 152.368 49.9079 151.753 49.5706 151.158L31.9076 115.846C31.653 115.19 30.7801 114.737 30.1023 114.856Z" fill="#2C1C28"/>
<path fill-rule="evenodd" clip-rule="evenodd" d="M41.9345 150.166C47.167 149.947 46.607 145.425 44.2787 145.18C47.5638 144.23 47.359 140.672 42.5413 139.79C35.8927 138.578 28.2979 139.678 28.2979 139.678L28.5621 137.998C28.5621 137.998 31.4673 138.608 33.2896 138.894C37.4487 139.471 38.8362 134.887 31.1173 132.088C26.7387 130.523 23.4749 130.257 22.1034 134.138C20.6725 138.217 18.9201 146.039 28.1643 154.078C31.2287 160.121 39.5192 155.538 40.9576 154.165C42.9941 152.22 42.66 151.112 41.9345 150.166Z" fill="#DE7C62"/>
<path fill-rule="evenodd" clip-rule="evenodd" d="M20.4667 129.059C20.4667 129.059 19.9979 131.707 20.0604 133.658C20.2323 139.695 21.7014 144.618 21.8743 145.335L23.8228 135.703L20.4667 129.059Z" fill="#DE7C62"/>
<path d="M44.9733 145.152C44.9733 145.152 32.0856 143.727 24.8525 147.425" stroke="#2C1C28" stroke-width="1.10848" stroke-miterlimit="10" stroke-linecap="round" stroke-linejoin="round"/>
<path d="M41.922 150.354C38.3824 150.649 31.9481 151.453 28.4116 153.894" stroke="#2C1C28" stroke-width="1.10848" stroke-miterlimit="10" stroke-linecap="round" stroke-linejoin="round"/>
<path d="M33.0724 138.979C33.2082 138.956 24.4827 139.461 22.3188 142.549" stroke="#2C1C28" stroke-width="1.10848" stroke-miterlimit="10" stroke-linecap="round" stroke-linejoin="round"/>
<path d="M32.7845 138.937L25.3403 137.444" stroke="#2C1C28" stroke-width="1.10848" stroke-miterlimit="10" stroke-linecap="round" stroke-linejoin="round"/>
<path fill-rule="evenodd" clip-rule="evenodd" d="M56.2337 150.594C56.0258 151.005 55.8179 151.415 55.6026 151.779C53.9754 155.006 53.7962 158.771 55.2144 162.07C56.5307 165.059 58.9195 168.841 63.4095 172.906C61.9415 180.493 61.4069 194.729 70.6171 198.853C74.1567 200.425 110.41 196.532 122.022 191.74C128.937 188.891 128.453 183.468 123.354 176.195C120.625 172.334 123.489 146.905 124.832 136.213C128.486 133.379 130.454 128.645 129.597 123.754C128.358 116.69 121.658 111.986 114.6 113.225C114.057 113.321 113.567 113.454 113.078 113.586C89.0078 117.813 71.0594 121.572 61.812 122.823C53.5671 123.944 47.748 131.454 48.8522 139.615C49.5131 144.446 52.3483 148.383 56.2337 150.594Z" fill="#54B4A6"/>
<path d="M74.6851 141.986C74.1388 145.256 73.8249 148.252 73.948 150.284C74.3415 156.516 77.6711 168.861 84.3568 192.099" stroke="#39A08F" stroke-width="1.10848" stroke-miterlimit="10" stroke-linecap="round" stroke-linejoin="round"/>
<path d="M70.6248 198.899C61.4602 194.767 61.9949 180.53 63.4184 172.952C58.9655 168.833 56.5311 165.06 55.2221 162.116C53.7594 158.825 53.9843 155.052 55.6104 151.825C57.1325 148.804 59.7323 143.679 63.8405 135.723" stroke="#39A08F" stroke-width="1.10848" stroke-miterlimit="10" stroke-linecap="round" stroke-linejoin="round"/>
<path fill-rule="evenodd" clip-rule="evenodd" d="M107.338 134.851C115.318 146.053 122.669 153.397 126.53 172.23C128.864 183.676 123.194 187.519 129.811 199.193C137.241 212.311 172.272 205.972 167.245 185.01C161.866 162.57 133.607 126.41 127.531 118.889C124.763 114.801 119.736 112.463 114.579 113.369C107.521 114.608 102.821 121.315 104.059 128.379C104.54 130.862 105.723 133.082 107.338 134.851Z" fill="#54B4A6"/>
<path d="M112.499 142.207C122.295 155.516 124.63 161.128 126.667 171.412" stroke="#39A08F" stroke-width="1.10848" stroke-miterlimit="10" stroke-linecap="round" stroke-linejoin="round"/>
<path fill-rule="evenodd" clip-rule="evenodd" d="M166.213 209.184C166.213 209.184 166.239 209.599 166.279 209.826C166.573 211.501 160.975 213.885 153.781 215.148C146.587 216.412 140.512 216.078 140.219 214.402C140.195 214.266 135.514 201.132 135.514 201.132L135.56 201.124C135.551 201.079 135.551 201.079 135.544 201.034C135.25 199.358 140.847 196.975 148.041 195.712C155.235 194.448 161.31 194.782 161.604 196.457C161.619 196.548 161.59 196.646 161.606 196.737L166.213 209.184Z" fill="#54B4A6"/>
<path d="M135.567 201.17L135.613 201.162C135.604 201.117 135.605 201.117 135.597 201.072C135.303 199.396 140.902 197.013 148.094 195.75C155.288 194.486 161.363 194.82 161.657 196.495C161.673 196.586 161.643 196.684 161.659 196.775" stroke="#39A08F" stroke-width="1.10848" stroke-miterlimit="10" stroke-linecap="round" stroke-linejoin="round"/>
<path fill-rule="evenodd" clip-rule="evenodd" d="M152.874 209.706C146.358 210.851 141.242 213.056 141.512 214.595C141.782 216.135 147.298 216.473 153.858 215.321C160.373 214.177 165.489 211.972 165.22 210.433C164.949 208.892 159.433 208.555 152.874 209.706Z" fill="#39A08F"/>
<path fill-rule="evenodd" clip-rule="evenodd" d="M143.981 214.581L155.373 241.52L171.886 238.62L163.488 211.202L163.481 211.157C163.258 209.888 158.74 209.655 153.356 210.601C147.928 211.554 143.759 213.313 143.981 214.581Z" fill="#DE7C62"/>
<path fill-rule="evenodd" clip-rule="evenodd" d="M84.1609 111.711C76.0189 114.214 69.8285 118.008 70.4066 120.241C70.939 122.481 77.9907 122.27 86.1858 119.803C94.3279 117.3 100.518 113.505 99.9401 111.273C99.4002 108.988 92.303 109.207 84.1609 111.711Z" fill="black"/>
<path d="M88.8831 81.9875C90.0966 82.5213 90.6672 83.9148 90.208 85.0223C89.7497 86.1297 88.3411 86.6104 87.1743 86.0686" stroke="black" stroke-width="1.10848" stroke-miterlimit="10" stroke-linecap="round" stroke-linejoin="round"/>
<path fill-rule="evenodd" clip-rule="evenodd" d="M61.209 91.1888C56.2088 81.2848 71.9211 86.3201 78.3173 89.818C84.7134 93.3157 85.6129 104.033 80.3273 113.783C75.0407 123.534 56.633 134.515 53.6916 127.843C45.8561 109.755 68.0294 104.554 61.209 91.1888Z" fill="#4F2827"/>
<path fill-rule="evenodd" clip-rule="evenodd" d="M67.627 102.525L72.3949 118.818C72.3737 118.962 72.3896 119.052 72.4129 119.188C72.8828 121.066 78.7634 120.827 85.6093 118.644C92.4095 116.47 97.57 113.183 97.1012 111.305C97.0693 111.124 96.9462 110.959 96.7797 110.801L85.2561 87.8997L67.627 102.525Z" fill="#DE7C62"/>
<path fill-rule="evenodd" clip-rule="evenodd" d="M70.5411 113.028C84.5627 105.758 82.454 91.332 82.454 91.332L67.5796 102.253L70.5411 113.028Z" fill="#C26147"/>
<path fill-rule="evenodd" clip-rule="evenodd" d="M86.4181 89.4691C120.253 92.5355 82.1954 56.6035 71.811 57.4936C71.811 57.4936 56.5961 60.3524 54.0991 70.3131C53.7735 73.7775 54.2954 75.693 54.0323 81.107C53.5592 89.3119 57.1455 103.385 66.9815 104.692C72.7041 105.414 82.3768 102.595 86.4181 89.4691Z" fill="#DE7C62"/>
<path d="M72.4166 89.4072C72.4166 89.4072 69.3713 95.4497 63.4238 93.9738" stroke="#BD4040" stroke-width="1.10848" stroke-miterlimit="10" stroke-linecap="round" stroke-linejoin="round"/>
<path fill-rule="evenodd" clip-rule="evenodd" d="M71.1478 91.2171C71.1478 91.2171 69.632 89.7562 67.2072 90.5555C65.7095 91.052 65.5217 92.1118 65.5217 92.1118C65.5217 92.1118 62.8328 91.1371 63.0163 94.0456C64.8768 95.3523 69.876 93.5409 71.1478 91.2171Z" fill="#BD4040"/>
<path d="M61.4117 75.0498C61.4117 75.0498 58.2709 73.3609 54.4258 75.9032" stroke="#2C1C28" stroke-width="1.10848" stroke-miterlimit="10" stroke-linecap="round" stroke-linejoin="round"/>
<path d="M59.098 79.143L56.688 78.166" stroke="#2C1C28" stroke-width="1.10848" stroke-miterlimit="10" stroke-linecap="round" stroke-linejoin="round"/>
<path d="M72.4841 77.0259L69.8418 76.323" stroke="#2C1C28" stroke-width="1.10848" stroke-miterlimit="10" stroke-linecap="round" stroke-linejoin="round"/>
<path d="M75.9328 74.0861C74.4298 73.2298 70.2166 71.5425 66.2305 74.343" stroke="#2C1C28" stroke-width="1.10848" stroke-miterlimit="10" stroke-linecap="round" stroke-linejoin="round"/>
<path d="M63.2689 77.665C63.2689 77.665 64.5269 80.8515 62.0226 83.8585C59.5564 86.8122 61.3618 90.4626 65.2928 89.212" stroke="#2C1C28" stroke-width="1.10848" stroke-miterlimit="10" stroke-linecap="round" stroke-linejoin="round"/>
<path d="M86.0073 83.9395L90.6596 80.4153" stroke="#2C1C28" stroke-width="1.10848" stroke-miterlimit="10" stroke-linecap="round" stroke-linejoin="round"/>
<path fill-rule="evenodd" clip-rule="evenodd" d="M72.6409 76.8586C71.9387 76.842 71.4561 77.8136 71.5186 78.9695C71.6268 80.1174 72.2612 81.0795 72.956 81.0508C73.6581 81.0675 74.1408 80.0959 74.0782 78.9401C73.97 77.7921 73.3431 76.8753 72.6409 76.8586Z" fill="#2C1C28"/>
<path fill-rule="evenodd" clip-rule="evenodd" d="M58.7308 78.6477C58.0286 78.631 57.5459 79.6026 57.6085 80.7585C57.7167 81.9065 58.351 82.8686 59.0458 82.8399C59.748 82.8566 60.2306 81.885 60.168 80.7291C60.1129 79.6184 59.433 78.6643 58.7308 78.6477Z" fill="#2C1C28"/>
<path fill-rule="evenodd" clip-rule="evenodd" d="M118.322 113.179C118.322 113.179 111.084 114.45 105.293 115.467C96.3084 121.946 98.6971 136.37 105.411 139.017L80.8897 143.325C75.1247 136.775 74.0099 130.95 75.2435 126.019C70.429 132.605 71.0835 138.465 79.6975 143.44C43.2555 139.338 72.1898 117.64 90.3737 109.639C92.7115 108.341 94.3587 107.632 94.3587 107.632C94.3587 107.632 81.9844 100.89 86.4426 88.8111C89.0647 89.9376 91.9467 87.7512 92.6531 86.4602C94.3184 83.4604 93.506 79.3556 90.7852 78.1998C88.0634 77.0439 85.4593 78.9482 84.0793 80.9177C84.1165 80.8644 84.1165 80.8644 84.0793 80.9177C84.0051 81.0241 83.8555 81.2371 83.8258 81.3356C84.37 72.4649 67.5046 70.4325 68.3829 61.8763C68.3829 61.8763 58.7579 62.3064 54.2244 69.9641C53.6548 66.9834 55.2353 59.2376 66.8724 54.86C80.4379 49.7705 94.9687 55.2469 96.8674 69.8032C97.141 70.8288 97.0466 72.1523 98.2686 73.8047C101.785 78.6952 142.604 95.7982 118.322 113.179ZM79.8492 143.507C79.7962 143.47 79.7962 143.47 79.7421 143.433C79.7962 143.47 79.8407 143.461 79.8938 143.5L79.8492 143.507Z" fill="#4F2827"/>
<path fill-rule="evenodd" clip-rule="evenodd" d="M94.7148 303.927C95.4499 319.695 91.9124 317.305 89.9373 337.901C88.0546 357.625 86.3542 405.667 86.1707 432.609C86.5388 434.586 85.7114 438.539 85.7114 438.539C85.7114 438.539 88.6051 442.263 88.743 444.24C89.7082 458.078 91.2696 460.193 114.329 458.216C110.332 453.573 102.845 438.034 104.637 428.425C112.904 354.314 116.258 343.326 116.166 321.948C116.074 296.846 127.282 268.618 131.232 247.011C135.641 223.15 116.028 197.864 116.855 203.979C107.255 202.875 116.671 226.092 109.46 226.506C108.632 226.597 93.2446 225.586 93.2446 225.586C93.2446 225.586 91.8668 242.045 94.7148 303.927Z" fill="#DE7C62"/>
<path fill-rule="evenodd" clip-rule="evenodd" d="M35.4141 454.998C42.7172 443.091 46.6673 442.861 49.423 442.172C54.3384 414.265 61.9639 368.337 65.7305 349.671C69.8185 329.397 64.674 326.409 70.0476 311.099C91.0859 251.01 92.6472 233.402 92.6472 233.402C92.6472 233.402 81.0716 223.242 80.2909 223.104C73.217 222.046 79.2801 208.99 69.3592 209.266C71.3798 204.668 55.3026 220.024 51.3525 252.803C43.0386 321.673 28.6616 434.265 28.6616 434.265C28.6616 434.265 24.9862 442.907 19.6582 448.93C16.6723 452.286 13.871 456.378 11.4355 458.354C25.6757 462.079 32.8875 459.044 35.4141 454.998Z" fill="#DE7C62"/>
<path fill-rule="evenodd" clip-rule="evenodd" d="M29.9474 398.314C30.0853 399.601 37.8943 400.658 47.5861 400.658C57.3245 400.658 65.2248 399.601 65.2248 398.267H65.2714L90.6268 251.932L83.047 398.405H83.2771C83.7364 399.646 91.4531 400.658 100.87 400.658C110.608 400.658 118.509 399.601 118.509 398.267C119.427 390.406 123.515 348.248 124.755 337.719C129.303 299.699 135.137 251.15 135.137 251.15C135.137 251.15 136.147 240.622 134.632 231.887C134.035 228.484 133.253 225.405 132.381 222.6C131.14 216.164 126.455 208.67 123.102 204.21V190.97V190.923C123.102 188.625 111.435 187.567 97.0113 188.487C82.5877 189.453 70.9208 192.073 70.9208 194.326C70.9208 194.464 70.9664 194.555 71.0131 194.693L70.0479 206.233C53.1443 215.014 49.1018 239.289 49.0562 239.334L29.8096 398.267L29.9474 398.314Z" fill="#FCC670"/>
<path d="M73.7234 205.405C73.7234 205.405 67.9818 221.404 53.0532 227.61" stroke="#D8912B" stroke-width="1.10848" stroke-miterlimit="10" stroke-linecap="round" stroke-linejoin="round"/>
<path d="M91.453 189.59V201.681L90.2585 243.702C90.2585 243.702 78.2237 238.46 81.9903 220.392C85.2064 205.083 84.379 202.876 84.379 202.876" stroke="#D8912B" stroke-width="1.10848" stroke-miterlimit="10" stroke-linecap="round" stroke-linejoin="round"/>
<path d="M106.841 201.082C106.841 201.082 106.841 222.506 127.696 229.265" stroke="#D8912B" stroke-width="1.10848" stroke-miterlimit="10" stroke-linecap="round" stroke-linejoin="round"/>
<path d="M115.982 188.763V201.222C119.335 205.681 124.066 213.175 125.261 219.611C126.134 222.37 126.914 225.496 127.511 228.898C128.982 237.634 128.017 248.162 128.017 248.162C128.017 248.162 122.183 296.71 117.636 334.731C116.212 346.776 111.894 392.153 110.929 400.244" stroke="#D8912B" stroke-width="1.10848" stroke-miterlimit="10" stroke-linecap="round" stroke-linejoin="round"/>
<path d="M123.332 203.935V203.888C123.332 201.544 111.343 200.44 96.5524 201.406C81.7618 202.371 69.7725 205.084 69.7725 207.429" stroke="#D8912B" stroke-width="1.10848" stroke-miterlimit="10" stroke-linecap="round" stroke-linejoin="round"/>
</g>
<defs>
<filter id="filter0_d_1542_491" x="76" y="146" width="365" height="452" filterUnits="userSpaceOnUse" color-interpolation-filters="sRGB">
<feFlood flood-opacity="0" result="BackgroundImageFix"/>
<feColorMatrix in="SourceAlpha" type="matrix" values="0 0 0 0 0 0 0 0 0 0 0 0 0 0 0 0 0 0 127 0" result="hardAlpha"/>
<feOffset/>
<feGaussianBlur stdDeviation="17.5"/>
<feComposite in2="hardAlpha" operator="out"/>
<feColorMatrix type="matrix" values="0 0 0 0 0.0431373 0 0 0 0 0 0 0 0 0 0 0 0 0 0.08 0"/>
<feBlend mode="normal" in2="BackgroundImageFix" result="effect1_dropShadow_1542_491"/>
<feBlend mode="normal" in="SourceGraphic" in2="effect1_dropShadow_1542_491" result="shape"/>
</filter>
</defs>
</svg>
