<svg width="701" height="645" viewBox="0 0 701 645" fill="none" xmlns="http://www.w3.org/2000/svg">
<g filter="url(#filter0_d_1641_527)">
<circle cx="201.5" cy="201.5" r="166.5" fill="white"/>
<circle cx="603" cy="492" r="72" fill="white"/>
<circle cx="600" cy="145" r="37" fill="white"/>
</g>
<path fill-rule="evenodd" clip-rule="evenodd" d="M142.087 123.465C142.087 123.465 144.346 169.343 139.736 188.499L126.131 188.017L142.087 123.465Z" fill="#2C1C28"/>
<path fill-rule="evenodd" clip-rule="evenodd" d="M194.313 204.541L188.446 217.583C188.332 217.663 182.59 229.84 182.574 229.931C182.171 230.797 186.531 232.374 192.272 233.407C198.013 234.439 202.98 234.548 203.387 233.682C203.461 233.545 208.537 220.193 208.371 220.015L213.676 204.822C215.392 203.256 217.066 201.627 218.701 199.947C219.394 199.379 220.031 198.851 220.731 198.289C223.168 196.259 225.612 194.229 228.004 192.192C232.799 188.069 237.581 183.991 242.336 179.81C243.071 179.299 243.23 178.141 242.64 177.298C242.021 176.346 240.731 176.116 239.778 176.73C237.192 178.485 234.565 180.188 231.927 181.932L235.047 173.111C235.374 172.13 234.932 171.017 233.98 170.547C232.93 170.06 231.709 170.536 231.232 171.534L225.439 184.22L223.507 176.019C223.289 175.044 222.331 174.327 221.276 174.43C220.117 174.568 219.344 175.566 219.441 176.667L220.708 188.006L214.25 190.397C214.261 190.351 214.307 190.357 214.313 190.311C215.747 188.396 216.928 186.486 218.092 184.421C218.529 183.658 218.414 182.649 217.743 181.989C216.957 181.158 215.62 181.163 214.79 181.949L214.726 182.035C213.228 183.492 211.589 184.926 209.983 186.17C209.174 186.813 208.337 187.358 207.505 187.851C207.109 188.126 206.685 188.298 206.294 188.522C205.87 188.694 205.607 188.791 204.952 189.118C202.572 190.271 200.256 191.877 198.272 194.137C196.281 196.397 194.778 199.534 194.446 203.027" fill="#CC7544"/>
<path fill-rule="evenodd" clip-rule="evenodd" d="M193.459 247.619C195.318 255.271 190.637 262.961 182.986 264.826C177.79 266.088 172.508 264.322 169.147 260.588L126.538 218.272C123.722 216.155 121.571 213.075 120.665 209.347C118.601 200.847 123.803 192.227 132.354 190.145C139.391 188.436 146.434 191.677 149.836 197.647L188.119 239.464C190.66 241.443 192.633 244.219 193.459 247.619Z" fill="#A8B3BC"/>
<path fill-rule="evenodd" clip-rule="evenodd" d="M205.853 233.441L205.997 233.471L193.282 256.073C190.586 261.712 184.397 265.09 177.939 263.926C170.19 262.532 165.051 255.133 166.445 247.384C166.904 244.85 167.994 242.624 169.559 240.782L177.676 228.366C177.646 228.262 177.664 228.165 177.681 228.067C178.191 226.874 184.982 227.012 192.829 228.423C200.674 229.834 206.616 231.945 206.048 233.177C206.031 233.275 205.967 233.362 205.853 233.441Z" fill="#A8B3BC"/>
<path d="M169.376 240.995L177.686 228.32" stroke="#1C4192" stroke-width="1.10133" stroke-miterlimit="10" stroke-linecap="round" stroke-linejoin="round"/>
<path d="M198.833 200.021C198.833 200.021 199.751 194.653 206.662 192.738C211.6 191.355 220.662 188.493 220.662 188.493" stroke="#2A1C28" stroke-width="1.10133" stroke-miterlimit="10" stroke-linecap="round" stroke-linejoin="round"/>
<path d="M225.33 184.547C227.607 179.574 231.272 171.591 231.272 171.591C231.76 170.541 232.97 170.117 234.02 170.604C234.983 171.023 235.471 172.147 235.086 173.168L228.88 190.621C228.788 190.85 228.651 191.074 228.513 191.298L228.382 191.47C226.856 193.07 224.39 194.997 222.072 196.603" stroke="#2A1C28" stroke-width="1.10133" stroke-miterlimit="10" stroke-linecap="round" stroke-linejoin="round"/>
<path d="M220.656 188.838L219.422 176.765C219.28 175.652 220.105 174.614 221.259 174.528C222.314 174.425 223.283 175.09 223.49 176.116L226.604 189.273C226.77 189.996 226.593 190.702 226.197 191.275L225.99 191.585C225.45 192.376 224.946 192.979 224.436 193.627C223.926 194.275 223.409 194.923 222.852 195.565C221.792 196.804 220.679 198.037 219.566 199.27" stroke="#2A1C28" stroke-width="1.10133" stroke-miterlimit="10" stroke-linecap="round" stroke-linejoin="round"/>
<path fill-rule="evenodd" clip-rule="evenodd" d="M125.741 428.153C120.12 442.033 106.814 466.121 109.682 493.249C111.517 510.284 119.145 581.288 114.327 594.995C109.739 620.69 132.107 608.646 135.434 609.391C159.006 614.496 179.309 613.751 179.309 613.751C179.309 613.751 155.163 603.771 145.758 589.317C139.334 579.396 141.284 564.082 141.456 555.65C141.743 541.197 145.471 457.747 145.471 457.747L151.493 423.851C151.493 423.851 132.394 411.578 125.741 428.153Z" fill="#CC7544"/>
<path fill-rule="evenodd" clip-rule="evenodd" d="M117.941 446.333C126.315 446.736 135.835 448.514 146.503 452.012L145.471 457.747C145.471 457.747 144.496 479.37 143.521 502.483C136.753 509.94 126.888 516.708 112.435 521.353C111.288 509.023 110.198 498.526 109.625 493.249C107.789 475.7 112.722 459.411 117.941 446.333Z" fill="black"/>
<path fill-rule="evenodd" clip-rule="evenodd" d="M121.611 603.886C121.611 603.886 116.22 603.427 126.027 606.466C160.268 617.02 167.838 610.826 167.838 610.826C167.838 610.826 174.319 615.242 184.242 616.216C195.54 617.364 192.615 622.927 192.615 622.927C192.615 622.927 179.022 624.878 166.577 625.106C146.732 625.509 137.957 621.436 126.027 621.894C116.965 622.239 111.918 619.945 111.918 619.945C109.337 609.851 121.611 603.886 121.611 603.886Z" fill="black"/>
<path fill-rule="evenodd" clip-rule="evenodd" d="M115.016 591.842C115.016 591.842 116.278 598.552 126.085 601.822C160.383 613.234 167.438 607.729 167.438 607.729C167.438 607.729 173.746 611.801 182.408 612.833C193.706 614.21 192.616 620.002 192.616 620.002C192.616 620.002 179.023 621.609 166.577 621.552C146.733 621.493 137.958 617.249 126.028 617.364C116.966 617.479 111.919 615.071 111.919 615.071C109.338 604.918 115.016 591.842 115.016 591.842Z" fill="#783140"/>
<path fill-rule="evenodd" clip-rule="evenodd" d="M62.5366 586.221C62.1352 584.213 70.1075 611.513 76.359 620.576C77.9076 622.755 75.3266 625.393 75.3266 625.393C75.3266 625.393 63.2823 620.805 49.2879 612.144C37.4156 604.861 46.3055 588.286 44.6996 569.243C44.0114 561.157 46.1334 557.084 46.1334 557.084L51.7542 554.332L62.5366 586.221Z" fill="black"/>
<path fill-rule="evenodd" clip-rule="evenodd" d="M66.4369 583.468C66.1502 581.404 71.312 608.36 76.99 617.422C78.3666 619.658 76.7607 622.641 76.7607 622.641C76.7607 622.641 65.0031 618.053 51.5249 609.392C40.1113 602.108 49.9763 585.533 49.5749 566.491C49.3454 558.404 51.7542 554.332 51.7542 554.332L73.7209 543.607L66.4369 583.468Z" fill="#783140"/>
<path fill-rule="evenodd" clip-rule="evenodd" d="M132.451 449.087C87.4855 479.198 81.406 517.453 73.5484 532.651C67.5262 544.295 64.8306 548.309 64.8306 548.252C64.8306 548.252 56.1128 560.64 55.826 576.127C55.4246 595.512 58.1202 596.716 66.3218 601.936C70.6234 604.688 71.9999 605.377 71.9999 605.377C71.9999 605.377 71.3689 603.828 71.4837 593.677C79.4559 569.129 94.9989 539.191 112.893 518.944C142.487 485.45 174.836 447.252 174.836 447.252C174.836 447.252 150.575 436.87 132.451 449.087Z" fill="#CC7544"/>
<path fill-rule="evenodd" clip-rule="evenodd" d="M116.449 461.476C121.152 457.231 126.429 453.044 132.451 449.03C145.471 440.255 161.644 443.18 169.732 445.474C170.821 446.908 171.567 448.571 171.968 450.578C170.018 452.873 167.15 456.256 163.594 460.443C150.518 463.999 126.027 469.161 116.449 461.476Z" fill="black"/>
<path fill-rule="evenodd" clip-rule="evenodd" d="M128.895 269.855C128.895 269.855 101.193 304.269 95.8017 328.873C91.2134 349.75 112.262 411.177 114.384 430.275C116.564 449.374 115.646 453.447 115.646 453.447C115.704 453.447 121.84 457.117 145.642 456.486C176.04 455.683 179.768 452.586 179.768 452.586L163.709 325.834L167.38 292.625L128.895 269.855Z" fill="#FCC670"/>
<path d="M142.087 456.199C142.087 456.199 125.569 371.487 120.006 342.523C115.016 316.6 133.541 288.725 133.14 288.955" stroke="#1C4192" stroke-width="1.2995" stroke-miterlimit="10" stroke-linecap="round" stroke-linejoin="round"/>
<path fill-rule="evenodd" clip-rule="evenodd" d="M76.3589 206.766C76.3589 197.819 83.184 190.478 91.9018 189.56C92.0739 189.502 92.1313 189.445 92.1313 189.445L130.214 189.789C131.247 189.617 132.279 189.502 133.312 189.502C142.89 189.502 150.632 197.245 150.632 206.823C150.632 207.397 150.575 208.028 150.518 208.601C156.31 215.14 162.046 221.85 165.258 226.037C167.838 233.149 161.243 243.702 161.243 243.702L167.38 292.625C166.117 291.707 154.361 292.281 139.85 292.281C124.651 292.281 112.32 293.084 112.033 294.059C111.976 294.059 111.976 294.059 111.976 294.059L113.008 282.817C113.008 282.817 97.5226 248.06 84.159 221.277C79.5134 218.179 76.4162 212.846 76.3589 206.766Z" fill="#D3D8DC"/>
<path fill-rule="evenodd" clip-rule="evenodd" d="M145.528 211.125C143.52 203.841 140.366 200.285 140.366 200.285L104.405 193.804L147.822 226.668C147.822 226.668 148.338 221.506 145.528 211.125Z" fill="#5A74C7"/>
<path fill-rule="evenodd" clip-rule="evenodd" d="M124.697 287.056C125.944 288.083 128.361 290.74 124.001 296.174C119.642 301.608 110.979 308.354 108.839 306.824C107.497 305.861 110.107 300.501 114.467 295.067C118.873 289.602 123.45 286.028 124.697 287.056Z" fill="#2A1C28"/>
<path fill-rule="evenodd" clip-rule="evenodd" d="M111.329 305.488C111.329 305.488 129.831 314.243 135.148 317.712C139.922 320.787 146.996 322.655 151.665 321.372C155.064 320.462 166.102 314.465 166.102 314.465C166.102 314.465 177.967 314.206 174.193 305.335C154.711 303.332 147.067 301.848 147.067 301.848L125.833 288.225C120.367 292.123 111.329 305.488 111.329 305.488Z" fill="#CC7544"/>
<path fill-rule="evenodd" clip-rule="evenodd" d="M125.865 288.273C126.968 289.19 124.577 293.849 120.516 298.596C116.455 303.345 112.273 306.375 111.17 305.459C110.035 304.494 112.41 299.916 116.471 295.167C120.532 290.42 124.73 287.309 125.865 288.273Z" fill="#CC7544"/>
<path fill-rule="evenodd" clip-rule="evenodd" d="M146.114 304.637L170.803 304.719L171.615 305C171.934 305.063 172.204 305.156 172.508 305.298C173.082 305.533 173.655 305.769 174.215 306.083C175.348 306.633 176.401 307.375 177.312 308.212C178.271 309.018 179.12 309.968 179.794 310.966L180.051 311.347L180.243 311.632L180.628 312.203L181.319 313.328L191.356 326.967C192.11 328.188 191.928 329.763 190.739 330.565C189.535 331.447 187.657 331.123 186.663 329.857L175.676 316.86L174.81 315.784L174.378 315.245L174.186 314.96L174.01 314.801C173.562 314.343 173.147 313.932 172.666 313.632C172.187 313.332 171.709 313.034 171.167 312.846C170.864 312.704 170.625 312.657 170.354 312.564C170.195 312.533 170.115 312.517 169.957 312.486L169.479 312.394L155.211 315.45C145.068 308.111 134.398 306.041 146.114 304.637Z" fill="#CC7544"/>
<path d="M197.712 325.928C196.732 327.143 194.809 327.265 193.467 326.302L179.882 315.197L178.763 314.361L178.221 313.967L177.933 313.745L177.709 313.619C177.231 313.32 176.624 313.037 176.082 312.849C175.508 312.614 174.952 312.505 174.347 312.43C174.06 312.416 173.773 312.401 173.486 312.387C173.359 312.403 173.201 312.373 173.074 312.388L172.565 312.456L146.075 319.957C134.328 315.983 133.223 303.582 138.902 303.692L171.882 304.473L172.79 304.485C173.108 304.546 173.442 304.529 173.76 304.59C174.413 304.634 175.05 304.758 175.687 304.882C176.914 305.161 178.188 305.615 179.321 306.166C180.485 306.763 181.556 307.424 182.515 308.23L182.867 308.547L183.107 308.8L183.634 309.274L184.658 310.176L197.451 322.159C198.587 323.124 198.771 324.729 197.712 325.928Z" fill="#CC7544"/>
<path fill-rule="evenodd" clip-rule="evenodd" d="M149.599 304.984L169.542 304.185L170.276 304.658C170.532 304.832 170.788 305.006 171.043 305.178C171.539 305.605 172.002 305.984 172.498 306.411C173.409 307.249 174.21 308.231 174.916 309.277C175.622 310.323 176.153 311.417 176.589 312.576L176.718 312.973L176.816 313.322L177.026 313.941L177.367 315.165L181.253 326.865C181.721 328.279 181.11 329.73 179.776 330.215C178.349 330.764 176.641 329.977 175.98 328.486L171 317.11L170.452 315.887L170.162 315.253L170.017 314.936L169.936 314.713C169.631 314.159 169.309 313.683 168.942 313.24C168.574 312.796 168.11 312.417 167.678 312.086C167.455 311.96 167.199 311.786 166.976 311.661C166.864 311.597 166.753 311.535 166.641 311.471L166.226 311.267L151.635 310.666C143.69 300.945 137.85 303.364 149.599 304.984Z" fill="#CC7544"/>
<path d="M156.845 303.622C156.845 303.622 167.395 304.182 171.956 306.223C175.608 307.841 177.449 315.18 177.449 315.18L181.333 326.881C181.803 328.294 181.19 329.745 179.857 330.231C178.428 330.78 176.722 329.993 176.061 328.502L171.08 317.126C171.08 317.126 170.515 315.57 170.675 315.807C168.785 313.415 168.264 314.389 153.699 320.9C149.574 322.784 146.147 321.705 146.147 321.705" stroke="#2A1C28" stroke-width="1.2995" stroke-miterlimit="10" stroke-linecap="round" stroke-linejoin="round"/>
<path d="M157.338 303.635C161.174 304.089 170.726 305.323 171.363 305.447C171.65 305.461 175.361 306.554 176.561 307.613C179.135 309.889 181.286 313.28 181.286 313.28L191.323 326.92C192.077 328.14 191.895 329.715 190.706 330.517C189.503 331.4 187.624 331.076 186.63 329.81C186.63 329.81 183.203 325.757 180.176 322.194" stroke="#2A1C28" stroke-width="1.2995" stroke-miterlimit="10" stroke-linecap="round" stroke-linejoin="round"/>
<path fill-rule="evenodd" clip-rule="evenodd" d="M67.5082 278.395C63.3047 272.168 64.9104 263.68 71.1856 259.444C77.4131 255.241 85.901 256.846 90.1365 263.122C90.2649 263.312 90.361 263.455 90.4573 263.597L124.506 286.977C123.007 286.397 118.653 289.889 114.499 295.115C110.14 300.549 107.64 305.765 108.839 306.824L71.2993 282.063C69.8303 281.117 68.5504 279.836 67.5082 278.395Z" fill="#D3D8DC"/>
<path fill-rule="evenodd" clip-rule="evenodd" d="M65.691 266.358H65.6336L76.8178 202.981H76.8751C78.6531 195.296 85.5356 189.56 93.7371 189.56C103.315 189.56 111.058 197.303 111.058 206.881C111.058 213.878 106.871 219.958 100.849 222.653L92.8195 268.364C92.8195 275.878 86.74 282.015 79.1692 282.015C71.6558 282.015 65.519 275.935 65.519 268.364C65.519 267.676 65.5763 266.989 65.691 266.358Z" fill="#D3D8DC"/>
<path d="M92.7622 268.824C92.7622 268.824 97.9241 239.343 100.448 225.005" stroke="#9D9797" stroke-width="1.2995" stroke-miterlimit="10" stroke-linecap="round" stroke-linejoin="round"/>
<path fill-rule="evenodd" clip-rule="evenodd" d="M102.57 190.535C102.742 190.134 103.086 189.733 103.602 189.446L120.12 156.066L140.137 167.594L133.197 195.124C138.359 197.705 141.513 200.458 140.94 202.293C140.08 205.103 130.788 204.817 120.235 201.547C109.682 198.336 101.824 193.403 102.57 190.535Z" fill="#CC7544"/>
<path fill-rule="evenodd" clip-rule="evenodd" d="M139.735 169.2L135.032 188.012C121.267 180.613 119.317 159.736 119.317 159.736C128.322 161.4 135.09 165.013 139.735 169.2Z" fill="#995128"/>
<path fill-rule="evenodd" clip-rule="evenodd" d="M110.943 146.717C114.384 138.458 121.611 141.784 124.307 143.046C120.751 132.034 134.372 111.02 152.611 123.121C156.224 129.832 156.31 143.046 156.826 147.864C159.637 148.896 162.103 148.781 162.62 149.814C163.308 151.248 162.734 153.886 158.547 155.263C158.261 155.377 158.031 155.435 157.744 155.492C157.801 157.041 157.86 158.646 157.801 160.195C156.597 163.12 155.852 164.898 154.589 167.823C152.123 183.94 141.456 187.61 120.292 164.611C112.664 162.661 108.534 152.51 110.943 146.717Z" fill="#CC7544"/>
<path fill-rule="evenodd" clip-rule="evenodd" d="M149.887 160.883L157.227 161.686C156.482 163.464 155.852 164.898 155.105 166.676C149.944 165.07 149.829 160.826 149.887 160.883Z" fill="#F8F7F8"/>
<path d="M123.218 155.262C119.318 154.172 120.178 149.699 122.873 149.183" stroke="#2C1C28" stroke-width="1.2995" stroke-miterlimit="10" stroke-linecap="round" stroke-linejoin="round"/>
<path d="M125.856 152.51C123.447 148.495 120.12 147.807 120.12 147.807" stroke="#2C1C28" stroke-width="1.2995" stroke-miterlimit="10" stroke-linecap="round" stroke-linejoin="round"/>
<path d="M144.667 139.146C148.968 135.705 153.443 136.221 153.443 136.221" stroke="#2C1C28" stroke-width="1.2995" stroke-miterlimit="10" stroke-linecap="round" stroke-linejoin="round"/>
<path d="M149.027 144.423L152.238 142.186" stroke="#2C1C28" stroke-width="1.2995" stroke-miterlimit="10" stroke-linecap="round" stroke-linejoin="round"/>
<path fill-rule="evenodd" clip-rule="evenodd" d="M151.149 146.085C151.092 147.519 150.346 148.667 149.485 148.667C148.625 148.609 147.994 147.405 148.051 145.971C148.109 144.537 148.855 143.39 149.715 143.39C150.576 143.39 151.206 144.594 151.149 146.085Z" fill="#2C1C28"/>
<path fill-rule="evenodd" clip-rule="evenodd" d="M152.612 123.121C152.612 123.121 147.868 108.748 121.766 109.712C121.766 109.712 102.73 109.121 98.6123 129.229C98.6123 129.229 85.6989 170.535 84.5288 190.128C84.5288 190.128 103.109 196.425 124.967 194.257C124.967 194.257 125.861 169.578 122.993 158.692C122.993 158.692 116.329 160.172 116.73 149.613C116.799 147.824 117.803 146.137 119.432 145.392C121.353 144.514 124.33 144.744 128.276 149.722C128.276 149.722 130.622 138.79 130.622 134.104C130.616 134.104 138.032 133.129 152.612 123.121Z" fill="#2C1C28"/>
<path fill-rule="evenodd" clip-rule="evenodd" d="M283.369 243.453C271.047 245.616 262.817 257.361 264.978 269.694C267.141 282.027 278.876 290.267 291.198 288.102C303.52 285.939 311.752 274.194 309.589 261.861C307.428 249.528 295.693 241.288 283.369 243.453Z" fill="#7581F1"/>
<path fill-rule="evenodd" clip-rule="evenodd" d="M309.574 270.162C312.268 260.036 317.003 212.239 316.292 207.184C314.9 196.894 305.345 189.685 294.949 191.099C284.553 192.512 277.217 201.982 278.609 212.272C279.618 220.04 264.32 249.507 264.625 264.991C265.062 287.279 308.107 275.541 309.574 270.162Z" fill="#54B4A6"/>
<path fill-rule="evenodd" clip-rule="evenodd" d="M283.369 243.453C271.047 245.616 262.817 257.361 264.978 269.694C267.141 282.027 278.876 290.267 291.198 288.102C303.52 285.939 311.752 274.194 309.589 261.861C307.428 249.528 295.693 241.288 283.369 243.453Z" fill="#7581F1"/>
<path fill-rule="evenodd" clip-rule="evenodd" d="M247.797 283.719C267.93 318.733 302.827 284 305.2 279.758C310.888 265.577 305.704 269.547 305.148 261.347C305.138 260.288 305.006 259.194 304.825 258.166C302.894 247.146 292.755 239.627 281.786 240.789C276.646 240.986 265.969 241.801 258.866 245.225C258.43 245.421 257.994 245.615 257.614 245.798C244.835 252.399 239.755 269.712 247.797 283.719Z" fill="#54B4A6"/>
<path fill-rule="evenodd" clip-rule="evenodd" d="M266.919 262.645C274.958 260.879 282.447 264.685 283.656 271.24C284.853 277.739 279.274 284.487 271.233 286.253C263.193 288.017 255.704 284.213 254.496 277.656C253.298 271.157 258.82 264.42 266.919 262.645Z" fill="#54B4A6"/>
<path d="M283.645 271.184C284.843 277.683 279.263 284.431 271.224 286.195C263.183 287.961 255.694 284.155 254.485 277.6" stroke="#39A08F" stroke-width="1.10848" stroke-miterlimit="10" stroke-linecap="round" stroke-linejoin="round"/>
<path fill-rule="evenodd" clip-rule="evenodd" d="M263.14 251.831C271.181 250.067 278.67 253.871 279.877 260.428C281.076 266.927 275.496 273.675 267.456 275.439C259.415 277.205 251.927 273.399 250.719 266.844C249.588 260.391 255.11 253.654 263.14 251.831Z" fill="#39A08F"/>
<path fill-rule="evenodd" clip-rule="evenodd" d="M252.202 266.583C253.29 272.455 260.004 275.865 267.256 274.298C274.498 272.673 279.492 266.617 278.414 260.803C278.324 260.289 278.187 259.842 278.05 259.395L274.888 232.642L254.337 227.776L252.258 263.218C252.03 264.259 252.002 265.441 252.202 266.583Z" fill="#DE7C62"/>
<path fill-rule="evenodd" clip-rule="evenodd" d="M261.395 242.545C266.19 246.411 272.009 247.743 276.472 246.371L274.822 232.595L254.508 227.746C253.825 232.573 256.323 238.433 261.395 242.545Z" fill="#C26147"/>
<path fill-rule="evenodd" clip-rule="evenodd" d="M264.628 220.73C264.628 220.73 282.715 231.325 272.815 237.244C265.738 241.487 248.937 233.197 245.477 220.503C242.661 209.815 264.628 220.73 264.628 220.73Z" fill="#DE7C62"/>
<path fill-rule="evenodd" clip-rule="evenodd" d="M257.845 231.691C267.172 235.585 272.656 234.328 275.751 232.196C275.451 230.483 274.323 228.738 272.803 227.123C262.42 226.591 244.715 226.228 257.845 231.691Z" fill="#C26147"/>
<path fill-rule="evenodd" clip-rule="evenodd" d="M254.956 180.995L237.05 183.845C236.137 184.005 235.744 184.781 236.169 185.53L258.394 230.124C258.772 230.94 259.862 231.454 260.718 231.304L278.624 228.454C279.536 228.294 279.93 227.519 279.504 226.769L257.233 182.243C256.912 181.416 255.811 180.844 254.956 180.995Z" fill="#2C1C28"/>
<path fill-rule="evenodd" clip-rule="evenodd" d="M269.875 225.517C276.473 225.242 275.767 219.539 272.831 219.231C276.973 218.033 276.715 213.546 270.64 212.435C262.257 210.906 252.681 212.293 252.681 212.293L253.014 210.175C253.014 210.175 256.677 210.944 258.975 211.305C264.219 212.032 265.969 206.252 256.236 202.723C250.715 200.75 246.599 200.414 244.87 205.308C243.066 210.451 240.856 220.314 252.512 230.45C256.376 238.07 266.83 232.291 268.644 230.56C271.212 228.108 270.79 226.71 269.875 225.517Z" fill="#DE7C62"/>
<path fill-rule="evenodd" clip-rule="evenodd" d="M242.807 198.903C242.807 198.903 242.215 202.243 242.294 204.702C242.511 212.315 244.363 218.522 244.581 219.426L247.038 207.282L242.807 198.903Z" fill="#DE7C62"/>
<path d="M273.707 219.195C273.707 219.195 257.457 217.398 248.337 222.061" stroke="#2C1C28" stroke-width="1.10848" stroke-miterlimit="10" stroke-linecap="round" stroke-linejoin="round"/>
<path d="M269.86 225.755C265.397 226.127 257.284 227.14 252.825 230.218" stroke="#2C1C28" stroke-width="1.10848" stroke-miterlimit="10" stroke-linecap="round" stroke-linejoin="round"/>
<path d="M258.701 211.412C258.873 211.383 247.871 212.02 245.142 215.913" stroke="#2C1C28" stroke-width="1.10848" stroke-miterlimit="10" stroke-linecap="round" stroke-linejoin="round"/>
<path d="M258.338 211.359L248.952 209.476" stroke="#2C1C28" stroke-width="1.10848" stroke-miterlimit="10" stroke-linecap="round" stroke-linejoin="round"/>
<path fill-rule="evenodd" clip-rule="evenodd" d="M287.906 226.058C287.644 226.576 287.381 227.092 287.11 227.552C285.058 231.62 284.832 236.368 286.62 240.527C288.28 244.297 291.292 249.065 296.954 254.191C295.103 263.756 294.428 281.708 306.042 286.907C310.505 288.889 356.217 283.981 370.858 277.938C379.578 274.346 378.967 267.509 372.538 258.338C369.097 253.469 372.708 221.406 374.402 207.924C379.009 204.35 381.491 198.381 380.41 192.215C378.848 183.308 370.399 177.376 361.5 178.939C360.815 179.059 360.197 179.226 359.581 179.394C329.231 184.724 306.599 189.463 294.939 191.04C284.543 192.454 277.206 201.923 278.598 212.213C279.431 218.306 283.007 223.269 287.906 226.058Z" fill="#54B4A6"/>
<path d="M311.171 215.204C310.482 219.327 310.086 223.104 310.242 225.666C310.738 233.524 314.936 249.09 323.366 278.392" stroke="#39A08F" stroke-width="1.10848" stroke-miterlimit="10" stroke-linecap="round" stroke-linejoin="round"/>
<path d="M306.051 286.965C294.496 281.755 295.17 263.804 296.965 254.249C291.35 249.055 288.28 244.297 286.63 240.585C284.786 236.436 285.069 231.678 287.12 227.61C289.039 223.8 292.317 217.338 297.497 207.307" stroke="#39A08F" stroke-width="1.10848" stroke-miterlimit="10" stroke-linecap="round" stroke-linejoin="round"/>
<path fill-rule="evenodd" clip-rule="evenodd" d="M352.344 206.207C362.406 220.331 371.674 229.592 376.543 253.338C379.485 267.77 372.336 272.616 380.679 287.336C390.048 303.877 434.22 295.884 427.88 269.453C421.098 241.158 385.466 195.564 377.805 186.08C374.314 180.925 367.976 177.977 361.473 179.12C352.574 180.682 346.648 189.139 348.208 198.046C348.816 201.177 350.307 203.976 352.344 206.207Z" fill="#54B4A6"/>
<path d="M358.851 215.482C371.203 232.263 374.148 239.339 376.716 252.307" stroke="#39A08F" stroke-width="1.10848" stroke-miterlimit="10" stroke-linecap="round" stroke-linejoin="round"/>
<path fill-rule="evenodd" clip-rule="evenodd" d="M426.58 299.934C426.58 299.934 426.612 300.457 426.663 300.744C427.033 302.856 419.974 305.861 410.904 307.454C401.833 309.047 394.173 308.627 393.804 306.513C393.773 306.342 387.871 289.781 387.871 289.781L387.929 289.771C387.918 289.714 387.918 289.715 387.908 289.657C387.538 287.545 394.596 284.539 403.667 282.946C412.737 281.353 420.397 281.774 420.767 283.886C420.788 284.001 420.75 284.124 420.77 284.239L426.58 299.934Z" fill="#54B4A6"/>
<path d="M387.938 289.829L387.995 289.819C387.985 289.763 387.985 289.763 387.975 289.705C387.605 287.593 394.664 284.587 403.733 282.994C412.804 281.401 420.464 281.822 420.834 283.934C420.854 284.049 420.817 284.172 420.837 284.287" stroke="#39A08F" stroke-width="1.10848" stroke-miterlimit="10" stroke-linecap="round" stroke-linejoin="round"/>
<path fill-rule="evenodd" clip-rule="evenodd" d="M409.76 300.593C401.544 302.036 395.094 304.816 395.433 306.757C395.774 308.698 402.729 309.125 411.001 307.673C419.216 306.23 425.667 303.449 425.327 301.508C424.986 299.566 418.031 299.14 409.76 300.593Z" fill="#39A08F"/>
<path fill-rule="evenodd" clip-rule="evenodd" d="M423.856 351.146C428.101 353.226 438.922 355.915 445.707 358.727L448.041 359.965C449.342 360.677 450.919 360.283 451.528 359.057C452.099 357.957 451.668 356.503 450.538 355.759C450.538 355.759 443.795 352.177 438.435 345.76L452.963 343.091L453.448 343.182C453.573 343.22 453.697 343.257 453.878 343.284C454.127 343.358 454.442 343.479 454.69 343.553C455.196 343.759 455.722 344.078 456.192 344.407C456.661 344.738 457.094 345.192 457.469 345.655L457.624 345.864L457.845 346.118L458.241 346.696L459.078 347.786L468.713 362.16C469.705 363.457 471.536 363.843 472.863 363.021C474.075 362.219 474.328 360.645 473.575 359.365L464.952 344.399L464.275 343.224L463.938 342.636L463.763 342.313L463.522 341.943C462.866 340.881 462.058 339.964 461.136 339.066C460.224 338.227 459.209 337.462 458.088 336.777C457.505 336.468 456.978 336.148 456.348 335.905C456.032 335.784 455.774 335.652 455.459 335.532L454.648 335.261L424.807 325.377C424.74 325.33 424.729 325.273 424.729 325.273C425.186 325.192 416.296 323.457 416.096 323.317C403.144 341.011 423.845 351.09 423.856 351.146Z" fill="#DE7C62"/>
<path fill-rule="evenodd" clip-rule="evenodd" d="M398.546 306.739L412.911 340.707L433.732 337.05L423.144 302.478L423.134 302.422C422.853 300.822 417.157 300.528 410.368 301.72C403.523 302.922 398.267 305.141 398.546 306.739Z" fill="#DE7C62"/>
<path fill-rule="evenodd" clip-rule="evenodd" d="M323.119 177.029C312.853 180.185 305.047 184.97 305.776 187.784C306.448 190.609 315.339 190.343 325.672 187.233C335.939 184.076 343.744 179.292 343.015 176.477C342.335 173.595 333.386 173.872 323.119 177.029Z" fill="black"/>
<path d="M329.074 139.551C330.604 140.224 331.323 141.981 330.744 143.377C330.166 144.774 328.39 145.38 326.919 144.697" stroke="black" stroke-width="1.10848" stroke-miterlimit="10" stroke-linecap="round" stroke-linejoin="round"/>
<path fill-rule="evenodd" clip-rule="evenodd" d="M294.179 151.153C287.874 138.665 307.686 145.014 315.751 149.424C323.816 153.834 324.95 167.348 318.285 179.642C311.619 191.937 288.409 205.783 284.7 197.371C274.82 174.563 302.779 168.005 294.179 151.153Z" fill="#4F2827"/>
<path fill-rule="evenodd" clip-rule="evenodd" d="M302.271 165.446L308.283 185.99C308.257 186.172 308.277 186.286 308.306 186.457C308.899 188.825 316.314 188.523 324.946 185.771C333.52 183.029 340.027 178.885 339.436 176.517C339.396 176.289 339.24 176.08 339.03 175.882L324.5 147.005L302.271 165.446Z" fill="#DE7C62"/>
<path fill-rule="evenodd" clip-rule="evenodd" d="M305.946 178.69C323.626 169.523 320.967 151.333 320.967 151.333L302.212 165.103L305.946 178.69Z" fill="#C26147"/>
<path fill-rule="evenodd" clip-rule="evenodd" d="M325.965 148.984C368.628 152.851 320.641 107.544 307.547 108.666C307.547 108.666 288.362 112.271 285.214 124.83C284.803 129.199 285.461 131.614 285.13 138.44C284.533 148.786 289.055 166.531 301.457 168.179C308.673 169.089 320.87 165.535 325.965 148.984Z" fill="#DE7C62"/>
<path d="M308.311 148.906C308.311 148.906 304.471 156.525 296.972 154.664" stroke="#BD4040" stroke-width="1.10848" stroke-miterlimit="10" stroke-linecap="round" stroke-linejoin="round"/>
<path fill-rule="evenodd" clip-rule="evenodd" d="M306.711 151.188C306.711 151.188 304.799 149.346 301.742 150.354C299.853 150.98 299.617 152.316 299.617 152.316C299.617 152.316 296.226 151.087 296.458 154.755C298.804 156.402 305.107 154.118 306.711 151.188Z" fill="#BD4040"/>
<path d="M294.435 130.803C294.435 130.803 290.474 128.673 285.626 131.879" stroke="#2C1C28" stroke-width="1.10848" stroke-miterlimit="10" stroke-linecap="round" stroke-linejoin="round"/>
<path d="M291.517 135.964L288.479 134.732" stroke="#2C1C28" stroke-width="1.10848" stroke-miterlimit="10" stroke-linecap="round" stroke-linejoin="round"/>
<path d="M308.396 133.294L305.064 132.408" stroke="#2C1C28" stroke-width="1.10848" stroke-miterlimit="10" stroke-linecap="round" stroke-linejoin="round"/>
<path d="M312.745 129.588C310.849 128.508 305.537 126.38 300.511 129.912" stroke="#2C1C28" stroke-width="1.10848" stroke-miterlimit="10" stroke-linecap="round" stroke-linejoin="round"/>
<path d="M296.777 134.1C296.777 134.1 298.363 138.118 295.205 141.91C292.095 145.634 294.372 150.237 299.328 148.66" stroke="#2C1C28" stroke-width="1.10848" stroke-miterlimit="10" stroke-linecap="round" stroke-linejoin="round"/>
<path d="M325.447 142.012L331.313 137.568" stroke="#2C1C28" stroke-width="1.10848" stroke-miterlimit="10" stroke-linecap="round" stroke-linejoin="round"/>
<path fill-rule="evenodd" clip-rule="evenodd" d="M308.593 133.084C307.708 133.063 307.099 134.288 307.178 135.745C307.315 137.193 308.115 138.406 308.991 138.37C309.876 138.391 310.485 137.165 310.406 135.708C310.269 134.261 309.479 133.105 308.593 133.084Z" fill="#2C1C28"/>
<path fill-rule="evenodd" clip-rule="evenodd" d="M291.054 135.339C290.169 135.318 289.56 136.543 289.639 138.001C289.776 139.448 290.575 140.662 291.452 140.625C292.337 140.646 292.945 139.421 292.867 137.964C292.797 136.563 291.94 135.36 291.054 135.339Z" fill="#2C1C28"/>
<path fill-rule="evenodd" clip-rule="evenodd" d="M366.194 178.88C366.194 178.88 357.067 180.483 349.764 181.765C338.436 189.934 341.448 208.122 349.914 211.46L318.994 216.891C311.725 208.633 310.32 201.288 311.875 195.07C305.804 203.375 306.63 210.764 317.491 217.037C271.541 211.864 308.025 184.505 330.953 174.416C333.901 172.78 335.978 171.886 335.978 171.886C335.978 171.886 320.375 163.385 325.996 148.154C329.302 149.575 332.936 146.818 333.827 145.19C335.927 141.408 334.902 136.232 331.472 134.775C328.04 133.317 324.756 135.718 323.016 138.202C323.063 138.134 323.063 138.134 323.016 138.202C322.923 138.336 322.734 138.604 322.697 138.729C323.383 127.543 302.117 124.981 303.224 114.192C303.224 114.192 291.088 114.735 285.372 124.39C284.654 120.632 286.647 110.865 301.32 105.345C318.425 98.9278 336.747 105.833 339.141 124.187C339.486 125.48 339.367 127.149 340.908 129.233C345.341 135.399 396.811 156.965 366.194 178.88ZM317.682 217.121C317.616 217.074 317.616 217.074 317.547 217.028C317.616 217.074 317.672 217.064 317.739 217.112L317.682 217.121Z" fill="#4F2827"/>
<path fill-rule="evenodd" clip-rule="evenodd" d="M360.81 632.434C348.647 633.884 333.763 631.16 330.403 629.362C328.377 628.319 325.365 627.217 324.786 621.942C324.612 620.493 321.657 618.175 320.325 617.247C318.066 615.681 321.657 595.741 326.638 590.697C330.519 590 340.423 607.392 346.853 611.507C362.953 615.392 365.676 620.783 365.676 620.783C367.645 623.971 367.819 631.623 360.81 632.434Z" fill="#2C1A28"/>
<path fill-rule="evenodd" clip-rule="evenodd" d="M360.81 628.841C348.647 630.291 333.763 627.566 330.403 625.769C328.377 624.725 325.365 623.623 324.786 618.349C324.612 616.899 321.657 614.581 320.325 613.653C318.066 612.088 321.657 592.146 326.638 587.104C330.519 586.408 340.423 603.798 346.853 607.914C362.953 611.798 365.676 617.19 365.676 617.19C367.645 620.377 367.819 628.03 360.81 628.841Z" fill="#54B4A6"/>
<path fill-rule="evenodd" clip-rule="evenodd" d="M243.989 633.015C258.121 633.247 262.639 631.391 268.199 628.782C274.338 625.942 270.631 619.623 276.365 618.464C282.215 617.305 282.852 615.334 282.852 615.334C284.241 609.074 280.824 609.827 277.118 605.422C244.683 626.232 242.541 610.29 240.861 615.392C240.861 615.392 224.18 617.016 217.636 625.073C216.535 626.406 217.114 628.029 217.519 629.478C215.782 629.304 224.413 632.667 243.989 633.015Z" fill="#2C1A28"/>
<path fill-rule="evenodd" clip-rule="evenodd" d="M243.989 629.129C258.121 629.362 262.639 627.507 268.199 624.898C274.338 622.057 270.631 615.739 276.365 614.579C282.215 613.42 282.852 611.45 282.852 611.45C284.242 605.189 282.447 596.202 278.682 591.856C246.248 612.666 242.483 606.463 240.861 611.565C240.861 611.565 221.516 613.42 217.462 625.594C215.782 625.477 224.413 628.782 243.989 629.129Z" fill="#54B4A6"/>
<path fill-rule="evenodd" clip-rule="evenodd" d="M336.427 419.395C337.354 439.278 332.893 436.265 330.403 462.235C328.029 487.104 325.885 547.681 325.653 581.652C326.117 584.145 325.074 589.13 325.074 589.13C325.074 589.13 328.723 593.826 328.897 596.318C330.114 613.766 332.083 616.433 361.158 613.94C356.118 608.086 346.678 588.493 348.937 576.377C359.362 482.93 363.591 469.075 363.474 442.119C363.359 410.468 377.491 374.875 382.472 347.63C388.031 317.544 363.3 285.66 364.344 293.37C352.238 291.978 364.111 321.253 355.019 321.775C353.976 321.89 334.573 320.616 334.573 320.616C334.573 320.616 332.836 341.369 336.427 419.395Z" fill="#DE7C62"/>
<path fill-rule="evenodd" clip-rule="evenodd" d="M261.654 609.883C270.862 594.869 275.843 594.579 279.318 593.71C285.515 558.523 295.131 500.612 299.88 477.076C305.035 451.512 298.548 447.743 305.323 428.439C331.851 352.673 333.819 330.47 333.819 330.47C333.819 330.47 319.224 317.66 318.239 317.485C309.32 316.152 316.965 299.69 304.455 300.038C307.003 294.24 286.731 313.602 281.751 354.934C271.267 441.772 253.139 583.74 253.139 583.74C253.139 583.74 248.505 594.638 241.787 602.232C238.022 606.463 234.49 611.622 231.419 614.115C249.374 618.811 258.468 614.985 261.654 609.883Z" fill="#DE7C62"/>
<path fill-rule="evenodd" clip-rule="evenodd" d="M326.232 551.625C337.063 552.03 346.793 548.088 352.528 545.132C353.107 540.205 353.686 535.625 354.207 531.277C345.694 528.263 329.708 530.813 329.708 530.813C329.708 530.813 328.434 532.088 326.754 534.001C326.522 539.972 326.348 545.886 326.232 551.625Z" fill="#C26147"/>
<path fill-rule="evenodd" clip-rule="evenodd" d="M254.761 538.41C254.935 540.032 264.781 541.365 277.001 541.365C289.281 541.365 299.242 540.032 299.242 538.351H299.301L331.272 353.835L321.714 538.525H322.005C322.584 540.09 332.314 541.365 344.188 541.365C356.466 541.365 366.429 540.032 366.429 538.351C367.587 528.438 372.741 475.281 374.305 462.005C380.039 414.065 387.395 352.849 387.395 352.849C387.395 352.849 388.669 339.575 386.758 328.56C386.005 324.27 385.019 320.386 383.92 316.85C382.355 308.735 376.448 299.286 372.22 293.662V276.968V276.909C372.22 274.011 357.509 272.677 339.322 273.837C321.135 275.055 306.424 278.359 306.424 281.199C306.424 281.373 306.482 281.488 306.541 281.662L305.324 296.213C284.01 307.285 278.913 337.893 278.855 337.951L254.587 538.351L254.761 538.41Z" fill="#FCC670"/>
<path d="M323.279 345.832L288.585 534.638" stroke="#D8912B" stroke-width="1.10848" stroke-miterlimit="10" stroke-linecap="round" stroke-linejoin="round"/>
<path d="M309.959 295.168C309.959 295.168 302.719 315.342 283.896 323.167" stroke="#D8912B" stroke-width="1.10848" stroke-miterlimit="10" stroke-linecap="round" stroke-linejoin="round"/>
<path d="M332.314 275.227V290.473L330.808 343.458C330.808 343.458 315.633 336.849 320.382 314.066C324.438 294.763 323.394 291.98 323.394 291.98" stroke="#D8912B" stroke-width="1.10848" stroke-miterlimit="10" stroke-linecap="round" stroke-linejoin="round"/>
<path d="M351.717 289.718C351.717 289.718 351.717 316.732 378.013 325.254" stroke="#D8912B" stroke-width="1.10848" stroke-miterlimit="10" stroke-linecap="round" stroke-linejoin="round"/>
<path d="M363.243 274.184V289.895C367.471 295.517 373.436 304.966 374.942 313.081C376.043 316.56 377.027 320.501 377.78 324.792C379.634 335.806 378.418 349.081 378.418 349.081C378.418 349.081 371.062 410.296 365.328 458.237C363.532 473.425 358.089 530.641 356.872 540.843" stroke="#D8912B" stroke-width="1.10848" stroke-miterlimit="10" stroke-linecap="round" stroke-linejoin="round"/>
<path d="M372.511 293.315V293.256C372.511 290.301 357.393 288.908 338.744 290.127C320.094 291.343 304.977 294.764 304.977 297.721" stroke="#D8912B" stroke-width="1.10848" stroke-miterlimit="10" stroke-linecap="round" stroke-linejoin="round"/>
<path fill-rule="evenodd" clip-rule="evenodd" d="M330.982 344.036L321.542 343.688C321.542 343.688 320.847 348.442 322.874 355.051C324.669 360.906 329.071 366.297 329.071 366.297L331.214 353.833L330.982 344.036Z" fill="#D8912B"/>
<path fill-rule="evenodd" clip-rule="evenodd" d="M486.68 236.216L472.343 277.838C470.64 285.481 464.212 291.529 455.972 292.243C445.864 293.178 436.91 285.645 435.976 275.529C435.592 271.515 436.58 267.666 438.503 264.422L454.873 222.416C456.796 215.653 462.729 210.484 470.145 209.825C479.759 208.945 488.273 216.093 489.097 225.715C489.427 229.508 488.493 233.137 486.68 236.216Z" fill="#D3D8DC"/>
<path fill-rule="evenodd" clip-rule="evenodd" d="M455.972 292.245C453.61 292.465 451.303 292.19 449.106 291.585C438.119 289.166 425.319 269.537 420.979 258.87C419.056 254.142 419.99 250.073 422.572 246.664L417.793 236.932L445.48 223.737L450.589 233.853C450.699 233.908 450.754 233.963 450.809 234.073C450.863 234.238 450.863 234.458 450.699 234.678C463.443 235.723 463.114 256.781 463.114 256.781C463.114 256.781 463.169 257.111 463.169 257.716C468.333 260.575 472.068 265.908 472.672 272.231C473.551 282.348 466.08 291.31 455.972 292.245Z" fill="#D3D8DC"/>
<path d="M450.478 234.677C451.083 235.887 445.589 239.241 437.898 242.925C430.208 246.608 423.451 248.643 422.901 247.378" stroke="#A8B3BC" stroke-width="0.90125" stroke-miterlimit="10" stroke-linecap="round" stroke-linejoin="round"/>
<path d="M445.535 224.011C445.535 224.011 448.941 231.763 450.644 235.007C456.522 235.942 460.751 240.065 462.125 247.763" stroke="#A8B3BC" stroke-width="0.90125" stroke-miterlimit="10" stroke-linecap="round" stroke-linejoin="round"/>
<path fill-rule="evenodd" clip-rule="evenodd" d="M430.538 228.023C438.229 224.339 444.986 222.305 445.535 223.569C446.139 224.779 440.371 228.793 432.626 232.476C424.935 236.16 418.178 238.195 417.628 236.93C417.079 235.72 422.847 231.762 430.538 228.023Z" fill="#A8B3BC"/>
<path fill-rule="evenodd" clip-rule="evenodd" d="M442.953 223.901C443.392 224.946 438.558 228.245 432.186 231.324C425.759 234.403 420.1 236.107 419.606 235.063C419.221 233.743 416.035 223.571 415.541 222.747C410.871 220.712 402.961 202.018 402.961 202.018C402.961 202.018 403.016 202.018 403.016 201.963C402.961 201.853 402.906 201.743 402.851 201.633C400.928 197.565 400.159 190.637 405.763 191.187C405.103 189.647 406.696 187.503 407.85 186.953C409.663 186.073 411.586 185.908 413.398 186.238C415.156 185.633 416.914 185.139 418.892 184.809C420.32 184.589 421.803 184.479 423.561 184.699C424.44 184.809 425.374 185.029 426.418 185.469C427.462 185.908 427.956 186.348 429.659 187.723C430.922 190.032 439.053 205.812 437.24 212.135C438.888 215.544 442.349 222.802 442.953 223.901Z" fill="#EB967C"/>
<path d="M414.99 158.636L431.8 197.509C432.954 200.203 431.635 203.392 428.834 204.657C426.032 205.866 422.791 204.712 421.637 201.963C421.528 201.743 421.473 201.523 421.418 201.303L409.827 160.506C409.442 159.076 410.266 157.592 411.749 157.152C413.068 156.822 414.441 157.427 414.99 158.636Z" fill="#EB967C"/>
<path d="M404.114 162.871L423.231 195.2C424.55 197.4 423.726 200.314 421.418 201.688C419.111 203.063 416.145 202.348 414.826 200.094C414.716 199.929 414.661 199.819 414.607 199.654L399.225 165.4C398.621 164.08 399.28 162.486 400.653 161.826C401.972 161.276 403.455 161.716 404.114 162.871Z" fill="#EB967C"/>
<path d="M405.488 191.021C405.543 189.536 405.982 188.217 407.246 187.502C414.112 183.488 420.32 198.938 417.189 200.808C415.486 201.852 414.167 201.303 413.124 200.203" stroke="black" stroke-width="0.90125" stroke-miterlimit="10" stroke-linecap="round" stroke-linejoin="round"/>
<path d="M404.829 205.095C404.829 205.095 398.566 194.374 403.126 191.735C409.663 187.941 415.541 202.621 412.575 204.381C408.399 206.91 406.422 199.267 406.422 199.267" stroke="black" stroke-width="0.90125" stroke-miterlimit="10" stroke-linecap="round" stroke-linejoin="round"/>
<path d="M426.252 213.013C422.846 213.343 420.044 210.429 418.671 207.13C415.924 200.422 421.363 194.374 421.363 194.374C421.363 194.374 419.715 192.725 412.793 192.12H412.628C411.31 192.285 410.046 191.24 409.827 189.811C409.607 188.601 410.156 187.501 411.09 187.117C413.617 186.017 416.034 185.192 418.891 184.752C420.704 184.477 425.977 183.763 429.658 187.666" fill="#EB967C"/>
<path d="M426.252 213.013C422.846 213.343 420.044 210.429 418.671 207.13C415.924 200.422 421.363 194.374 421.363 194.374C421.363 194.374 419.715 192.725 412.793 192.12H412.628C411.31 192.285 410.046 191.24 409.827 189.811C409.607 188.601 410.156 187.501 411.09 187.117C413.617 186.017 416.034 185.192 418.891 184.752C420.704 184.477 425.977 183.763 429.658 187.666" stroke="black" stroke-width="0.90125" stroke-miterlimit="10" stroke-linecap="round" stroke-linejoin="round"/>
<path fill-rule="evenodd" clip-rule="evenodd" d="M543.537 238.635C541.67 244.353 538.703 250.402 539.967 264.917C540.9 275.364 542.549 286.745 530.848 286.14C527.771 283.721 515.301 280.642 500.359 280.257C470.255 279.432 467.893 282.676 466.849 283.006C456.247 281.357 466.08 265.742 466.08 265.742L461.795 249.522C461.246 246.993 461.356 244.353 462.07 241.934C457.84 239.13 454.818 234.622 454.104 229.233C452.841 219.336 459.927 210.319 469.925 209C484.813 208.175 522.827 205.371 535.902 203.721C545.9 202.457 555.019 209.165 556.282 219.061C557.491 227.969 551.887 236.161 543.537 238.635Z" fill="#D3D8DC"/>
<path d="M474.265 223.515L464.377 237.371C461.85 240.889 460.971 245.288 461.85 249.522L466.135 265.741" stroke="#A8B3BC" stroke-width="0.90125" stroke-miterlimit="10" stroke-linecap="round" stroke-linejoin="round"/>
<path fill-rule="evenodd" clip-rule="evenodd" d="M545.955 429.095C545.955 429.095 498.272 449.604 476.024 437.618C469.651 434.154 463.499 411.391 545.955 429.095Z" fill="#010000"/>
<path fill-rule="evenodd" clip-rule="evenodd" d="M502.117 444.654C501.238 463.788 505.522 460.819 507.885 485.836C510.192 509.698 512.334 567.155 512.609 599.815C511.675 604.873 509.807 606.907 508.049 611.086C501.347 627.361 500.853 630.44 477.726 629.34C479.758 623.072 490.416 602.289 488.713 592.722C478.715 502.936 476.023 492.434 476.133 466.482C476.242 436.077 462.179 392.036 458.114 360.586C454.379 331.445 469.65 310.552 468.662 317.919C480.308 316.6 475.473 350.359 484.208 350.854C485.197 351.019 503.819 349.754 503.819 349.754C503.819 349.754 505.632 369.713 502.117 444.654Z" fill="#EB967C"/>
<path fill-rule="evenodd" clip-rule="evenodd" d="M508.105 611.086C501.403 627.361 500.909 630.44 477.781 629.341C479.814 623.073 490.471 602.289 488.768 592.722C486.296 570.564 484.263 553.245 482.615 539.279C483.824 540.764 489.647 541.918 496.679 541.918C503.765 541.918 509.698 540.764 510.797 539.279H510.962C511.841 560.777 512.445 583.43 512.555 599.815C511.731 604.818 509.808 606.853 508.105 611.086Z" fill="#F38C1E"/>
<path d="M483.769 548.844C484.978 550.329 490.251 551.209 497.283 551.209C508.05 551.209 511.291 548.624 511.291 548.624" stroke="white" stroke-width="0.90125" stroke-miterlimit="10" stroke-linecap="round" stroke-linejoin="round"/>
<path fill-rule="evenodd" clip-rule="evenodd" d="M502.667 432.887C492.119 427.609 475.09 428.984 472.178 430.688C471.409 426.619 470.585 422.496 469.706 418.317C469.926 418.207 470.2 418.152 470.475 418.097C474.98 417.657 496.624 418.757 503.216 419.087C502.996 424.145 502.886 427.224 502.667 432.887Z" fill="#010000"/>
<path fill-rule="evenodd" clip-rule="evenodd" d="M496.294 635.444C481.297 643.471 461.136 644.681 449.71 638.688C441.525 634.674 436.251 626.702 435.812 621.423C445.04 617.96 457.73 621.918 457.73 621.918C457.73 621.918 487.175 609.822 500.634 604.104C499.865 604.379 525.629 613.451 522.992 629.066C519.971 631.65 503.546 631.54 496.294 635.444Z" fill="#E0D6DB"/>
<path fill-rule="evenodd" clip-rule="evenodd" d="M483.824 589.258L457.236 616.034C457.236 616.034 444.986 617.848 435.757 621.312C438.558 623.952 448.117 637.862 463.609 637.642C478.88 637.422 488.933 630.934 495.47 626.096C504.48 619.388 516.95 616.804 518.378 616.034C521.619 606.027 512.225 592.007 512.225 592.007C512.225 592.007 503.985 592.831 500.085 596.57C497.503 581.78 498.492 582 489.098 580.57C481.297 579.361 483.44 583.649 483.824 589.258Z" fill="#7581F1"/>
<path fill-rule="evenodd" clip-rule="evenodd" d="M482.946 609.325C482.946 609.325 466.63 608.006 458.005 615.374C466.575 615.593 475.035 618.068 475.035 618.068C475.09 608.831 465.971 607.071 465.971 607.071C468.498 604.872 475.145 601.463 490.526 601.793C490.526 601.793 488.384 600.033 481.407 598.824C476.353 597.944 473.112 599.704 473.112 599.704C477.232 600.913 482.122 603.937 482.946 609.325Z" stroke="white" stroke-width="0.90125" stroke-miterlimit="10" stroke-linecap="round" stroke-linejoin="round"/>
<path fill-rule="evenodd" clip-rule="evenodd" d="M606.657 626.426C594.131 606.742 590.506 600.309 586.935 598.715C577.047 565.34 561.501 518.715 554.194 495.678C546.229 470.716 552.107 467.637 543.317 448.503C508.764 373.561 504.314 352.008 504.314 352.008C504.314 352.008 517.004 340.957 517.938 340.792C526.452 340.242 517.114 323.802 529.309 325.177C526.178 319.404 548.097 339.637 557.71 379.829C577.926 464.063 611.985 601.959 611.985 601.959C611.985 601.959 617.753 612.845 625.114 620.653C629.289 625.051 633.3 628.625 636.541 631.319C619.566 634.398 610.062 631.759 606.657 626.426Z" fill="#EB967C"/>
<path fill-rule="evenodd" clip-rule="evenodd" d="M606.657 626.426C594.132 606.742 590.506 600.309 586.935 598.715C581.662 580.955 574.85 559.457 568.478 539.774C570.235 541.038 576.004 541.973 582.706 541.973C589.792 541.973 595.56 540.928 596.604 539.499C605.558 575.842 611.986 601.904 611.986 601.904C611.986 601.904 617.754 612.79 625.115 620.598C629.29 624.996 633.3 628.57 636.541 631.264C619.566 634.398 610.063 631.759 606.657 626.426Z" fill="#F38C1E"/>
<path d="M571.554 548.954C571.554 548.954 575.07 551.044 584.848 550.824C591.934 550.659 597.702 549.779 598.746 548.349" stroke="white" stroke-width="0.90125" stroke-miterlimit="10" stroke-linecap="round" stroke-linejoin="round"/>
<path fill-rule="evenodd" clip-rule="evenodd" d="M538.868 438.881C536.78 434.317 534.803 429.918 532.99 425.795L564.467 420.352C564.467 420.352 565.84 420.901 567.818 421.836C569.191 427.389 570.565 433.053 571.938 438.771C558.26 442.015 546.558 440.695 538.868 438.881Z" fill="#010000"/>
<path fill-rule="evenodd" clip-rule="evenodd" d="M632.311 642.976L614.293 644.02C606.492 644.46 598.417 640.832 595.45 636.378C594.022 634.289 589.078 632.199 587.649 631.594C582.101 629.23 580.673 628.57 580.783 624.667C580.947 615.705 587.979 606.248 587.979 606.248L633.684 624.777C633.684 624.777 641.979 625.656 644.012 632.199C644.671 634.783 643.243 642.316 632.311 642.976Z" fill="#E0D6DB"/>
<path fill-rule="evenodd" clip-rule="evenodd" d="M643.847 632.201C643.298 628.792 637.859 624.613 633.08 625.603C626.598 626.977 621.05 637.534 617.589 639.843C609.733 641.053 603.031 638.744 597.757 634.345C595.725 629.012 592.978 620.49 590.286 618.07C588.089 616.091 584.408 615.926 583.584 613.397C582.156 599.541 584.518 592.558 584.518 592.558C584.518 592.558 590.451 596.297 593.527 595.308C594.077 590.249 589.847 585.851 603.58 584.861C613.029 584.201 612.754 586.62 614.073 593.933L631.432 621.589C631.432 621.644 643.078 625.548 643.847 632.201Z" fill="#7581F1"/>
<path fill-rule="evenodd" clip-rule="evenodd" d="M604.57 611.526C604.57 611.526 620.941 609.876 626.874 617.354C618.414 617.739 609.35 620.378 609.35 620.378C612.426 610.866 621.93 608.942 621.93 608.942C620.227 606.687 614.898 603.279 599.791 603.883C599.791 603.883 602.483 602.014 609.679 600.694C614.898 599.705 617.48 601.464 617.48 601.464C612.975 602.784 607.207 605.973 604.57 611.526Z" stroke="white" stroke-width="0.90125" stroke-miterlimit="10" stroke-linecap="round" stroke-linejoin="round"/>
<path fill-rule="evenodd" clip-rule="evenodd" d="M553.426 434.703C530.738 435.638 508.984 422.772 484.154 424.146C471.244 424.861 472.343 432.009 472.343 432.009C445.26 333.975 458.115 307.034 465.091 300.051C465.366 299.611 465.696 299.171 466.025 298.731C466.025 298.731 466.41 278.608 466.41 282.786C466.41 280.037 483.11 278.773 500.359 279.872C517.609 281.027 531.562 284.161 531.562 286.855C531.562 287.02 531.507 287.13 531.452 287.295L532.551 300.271C543.428 305.494 551.778 315.611 554.854 330.676C561.171 361.576 569.576 429.15 569.576 429.15C569.576 429.15 565.621 434.153 553.426 434.703Z" fill="#ED5C18"/>
<path d="M473.551 298.235C473.551 298.235 469.376 314.84 456.741 324.022" stroke="#CC2818" stroke-width="0.90125" stroke-miterlimit="10" stroke-linecap="round" stroke-linejoin="round"/>
<path d="M494.262 280.312L494.646 295.542L494.537 345.741C494.537 345.741 479.924 338.264 483.879 317.04C487.23 299.061 486.187 296.312 486.187 296.312" stroke="#CC2818" stroke-width="0.90125" stroke-miterlimit="10" stroke-linecap="round" stroke-linejoin="round"/>
<path d="M515.411 296.751C515.411 296.751 516.62 320.228 545.735 329.795" stroke="#CC2818" stroke-width="0.90125" stroke-miterlimit="10" stroke-linecap="round" stroke-linejoin="round"/>
<path d="M523.652 282.456L524.092 297.411C536.068 305.988 551.065 316.49 566.831 431.238" stroke="#CC2818" stroke-width="0.90125" stroke-miterlimit="10" stroke-linecap="round" stroke-linejoin="round"/>
<path d="M532.936 301.479V301.424C532.881 298.51 517.829 295.871 499.316 295.596C480.803 295.321 465.916 297.465 465.971 300.379" stroke="#CC2818" stroke-width="0.90125" stroke-miterlimit="10" stroke-linecap="round" stroke-linejoin="round"/>
<path fill-rule="evenodd" clip-rule="evenodd" d="M573.202 286.91C571.444 294.443 565.017 300.326 556.941 301.041C546.833 301.975 537.879 294.443 536.945 284.326C536.78 282.622 536.89 280.972 537.165 279.378C537.055 275.309 536.231 254.416 531.342 237.261C525.958 234.677 522.058 229.399 521.509 223.076C520.63 213.454 527.771 204.931 537.385 204.107C545.515 203.392 552.821 208.34 555.403 215.653C558.26 222.801 577.377 270.306 573.202 286.91Z" fill="#D3D8DC"/>
<path d="M536.616 280.093C536.616 280.093 538.154 268.766 534.034 248.478" stroke="#A8B3BC" stroke-width="0.90125" stroke-miterlimit="10" stroke-linecap="round" stroke-linejoin="round"/>
<path fill-rule="evenodd" clip-rule="evenodd" d="M558.974 300.712V300.767C558.974 300.767 512.39 308.135 509.918 294.719L501.073 294.499L503.161 267.338L511.95 267.777C512.17 267.777 512.335 267.722 512.555 267.722C513.049 267.722 513.543 267.887 513.983 268.107C519.366 261.344 528.376 261.454 535.902 262.829C541.065 263.764 545.405 264.588 549.141 265.248C550.569 264.753 552.052 264.423 553.59 264.314C558.535 263.874 563.204 265.413 566.775 268.327H566.83C570.565 271.351 573.147 275.86 573.587 281.028C574.465 290.485 568.038 298.898 558.974 300.712Z" fill="#D3D8DC"/>
<path fill-rule="evenodd" clip-rule="evenodd" d="M495.415 280.259C495.854 272.671 498.931 266.623 502.336 266.788C505.742 266.953 508.159 273.221 507.72 280.863C507.281 288.451 504.204 294.499 500.798 294.334C497.447 294.114 495.03 287.846 495.415 280.259Z" fill="#A8B3BC"/>
<path fill-rule="evenodd" clip-rule="evenodd" d="M500.304 292.244L492.064 289.165C485.912 293.508 479.594 288.835 479.594 288.835C475.529 287.13 471.684 284.326 468.827 282.402L451.797 285.481C450.149 285.756 448.556 284.711 448.282 283.061C448.172 282.347 448.282 281.687 448.611 281.082L445.095 282.292C443.502 282.842 441.799 282.017 441.25 280.422C440.865 279.268 441.195 278.058 442.019 277.233L441.689 277.343C440.096 277.893 438.393 277.068 437.844 275.474C437.35 273.989 438.009 272.395 439.437 271.735L450.094 266.787L455.423 264.312L456.412 263.873H452.072L440.371 263.818C438.723 263.818 437.35 262.443 437.35 260.794C437.35 259.199 438.558 257.934 440.096 257.77L451.797 256.725C451.797 256.725 462.674 256.175 465.86 256.45C465.86 256.45 470.64 256.725 486.461 266.292C486.461 266.292 498.656 267.941 502.227 268.161C509.259 269.976 503.545 293.728 500.304 292.244Z" fill="#EB967C"/>
<path fill-rule="evenodd" clip-rule="evenodd" d="M496.404 279.982C496.733 273.329 499.26 268.051 502.062 268.216C504.808 268.381 506.786 273.879 506.457 280.532C506.127 287.185 503.6 292.463 500.798 292.298C498.052 292.133 496.074 286.635 496.404 279.982Z" fill="#EB967C"/>
<path d="M448.666 281.083C446.688 281.798 445.095 282.348 445.095 282.348C443.502 282.898 441.799 282.073 441.25 280.478C440.755 278.994 441.415 277.399 442.843 276.74L453.5 271.791L458.829 269.317L460.202 268.712C460.861 268.437 464.157 267.502 464.872 267.338" stroke="black" stroke-width="0.90125" stroke-miterlimit="10" stroke-linecap="round" stroke-linejoin="round"/>
<path d="M462.674 283.557L451.797 285.536C450.149 285.811 448.556 284.766 448.281 283.117C448.007 281.577 448.94 280.093 450.424 279.653C450.424 279.653 466.355 273.165 468.442 274.155" stroke="black" stroke-width="0.90125" stroke-miterlimit="10" stroke-linecap="round" stroke-linejoin="round"/>
<path d="M441.689 277.399C440.096 277.949 438.393 277.124 437.844 275.529C437.35 274.045 438.009 272.45 439.437 271.791L450.094 266.842L455.423 264.368L456.796 263.763C457.456 263.488 462.29 261.949 463.004 261.784" stroke="black" stroke-width="0.90125" stroke-miterlimit="10" stroke-linecap="round" stroke-linejoin="round"/>
<path d="M513.213 267.831C516.509 267.996 518.816 274.044 518.377 281.356C517.992 288.669 514.971 294.442 511.73 294.277" stroke="#A8B3BC" stroke-width="0.90125" stroke-miterlimit="10" stroke-linecap="round" stroke-linejoin="round"/>
<path d="M503.82 267.336C503.82 267.336 508.269 267.721 513.873 267.886C518.817 262.883 523.761 262.058 530.518 262.443C540.571 263.103 544.856 264.367 550.239 265.632" stroke="#A8B3BC" stroke-width="0.90125" stroke-miterlimit="10" stroke-linecap="round" stroke-linejoin="round"/>
<path fill-rule="evenodd" clip-rule="evenodd" d="M494.426 248.366C494.426 248.366 473.167 217.521 490.141 207.184C506.182 202.841 520.245 204.38 522.003 208.669C528.101 223.074 494.426 248.366 494.426 248.366Z" fill="#ED5C18"/>
<path fill-rule="evenodd" clip-rule="evenodd" d="M522.442 209.439C522.607 212.738 517.114 215.872 509.533 217.137C507.445 217.687 505.138 217.907 502.721 217.687C493.986 217.742 487.065 215.103 486.845 211.474C486.735 209.604 488.383 207.845 491.24 206.36L492.613 179.969L515.081 184.422C515.081 184.422 516.015 196.903 516.949 204.656C520.19 205.811 522.333 207.46 522.442 209.439Z" fill="#EB967C"/>
<path fill-rule="evenodd" clip-rule="evenodd" d="M506.017 202.732C499.809 200.367 494.865 196.299 491.954 191.68L492.558 179.969L515.026 184.422C515.026 184.422 515.96 196.903 516.894 204.656C517.059 204.711 517.168 204.766 517.333 204.821C513.708 204.876 509.862 204.216 506.017 202.732Z" fill="#010000"/>
<path fill-rule="evenodd" clip-rule="evenodd" d="M517.499 133.564C517.499 133.564 522.882 116.629 510.028 111.406C502.062 108.217 495.031 113.165 495.031 113.165C489.482 102.609 467.234 97.4402 455.038 111.901C438.778 131.199 452.072 159.9 468.662 168.588C468.662 168.588 462.235 182.278 473.222 188.821C483.055 194.649 500.085 187.392 509.973 166.168C512.884 159.845 517.499 133.564 517.499 133.564Z" fill="#351015"/>
<path fill-rule="evenodd" clip-rule="evenodd" d="M520.74 117.508C520.74 117.508 517.169 127.625 514.752 133.178C527.167 131.474 532.166 121.467 520.74 117.508Z" fill="#351015"/>
<path fill-rule="evenodd" clip-rule="evenodd" d="M525.353 162.046C525.353 162.046 520.299 172.822 504.423 172.987C492.063 173.097 481.9 162.815 481.79 149.949C481.681 137.084 491.569 126.582 503.929 126.472C516.289 126.362 526.452 136.644 526.562 149.51C526.122 154.128 525.353 162.046 525.353 162.046Z" fill="#351015"/>
<path fill-rule="evenodd" clip-rule="evenodd" d="M529.419 169.853C528.101 174.032 525.849 177.056 523.267 176.726C523.102 176.726 522.937 176.616 522.772 176.506C520.41 185.688 514.642 190.856 510.083 193.55C508.215 194.65 506.127 195.2 503.985 195.255C501.842 195.255 499.7 194.76 497.832 193.715C493.163 191.076 487.12 185.963 484.648 176.561C484.593 176.616 484.483 176.616 484.428 176.616C481.462 177.056 479.539 174.471 478.056 170.293C476.573 166.169 477.342 162.32 479.1 161.551C481.187 160.671 483.989 162.045 485.417 166.169C485.527 166.389 485.582 166.664 485.637 166.884H485.802C485.802 166.884 486.076 159.956 486.076 150.169C486.076 145.936 489.317 143.241 491.844 141.702C495.14 140.162 499.096 139.228 503.381 139.228C509.368 139.228 514.752 140.987 518.433 143.791C520.081 145.331 521.399 147.42 521.399 150.169C521.399 159.956 521.674 166.224 521.674 166.224C522.992 162.045 525.904 160.616 527.991 161.441C529.749 162.155 530.738 165.619 529.419 169.853Z" fill="#EB967C"/>
<path d="M498.546 154.347C498.546 154.347 492.009 151.543 487.504 155.777" stroke="black" stroke-width="0.90125" stroke-miterlimit="10" stroke-linecap="round" stroke-linejoin="round"/>
<path d="M507.006 154.347C507.006 154.347 513.543 151.543 518.048 155.777" stroke="black" stroke-width="0.90125" stroke-miterlimit="10" stroke-linecap="round" stroke-linejoin="round"/>
<path d="M500.579 157.537C501.183 159.351 501.568 162.43 499.865 166.389C497.668 171.502 502.282 173.977 505.798 170.513" stroke="black" stroke-width="0.90125" stroke-miterlimit="10" stroke-linecap="round" stroke-linejoin="round"/>
<path d="M481.626 166.885C480.582 167.709 479.209 171.888 483 172.988" stroke="black" stroke-width="0.90125" stroke-miterlimit="10" stroke-linecap="round" stroke-linejoin="round"/>
<path d="M480.417 163.803L483.823 170.786" stroke="black" stroke-width="0.90125" stroke-miterlimit="10" stroke-linecap="round" stroke-linejoin="round"/>
<path d="M525.354 166.885C526.398 167.709 527.771 171.888 523.981 172.988" stroke="black" stroke-width="0.90125" stroke-miterlimit="10" stroke-linecap="round" stroke-linejoin="round"/>
<path d="M526.562 163.803L523.156 170.786" stroke="black" stroke-width="0.90125" stroke-miterlimit="10" stroke-linecap="round" stroke-linejoin="round"/>
<path fill-rule="evenodd" clip-rule="evenodd" d="M493.932 159.516C494.756 159.461 495.525 160.615 495.58 162.045C495.635 163.474 495.03 164.684 494.151 164.684C493.327 164.739 492.558 163.584 492.503 162.155C492.449 160.725 493.053 159.571 493.932 159.516Z" fill="#010000"/>
<path fill-rule="evenodd" clip-rule="evenodd" d="M511.84 159.516C512.664 159.461 513.433 160.615 513.488 162.045C513.543 163.474 512.939 164.684 512.06 164.684C511.236 164.739 510.467 163.584 510.412 162.155C510.412 160.725 511.016 159.571 511.84 159.516Z" fill="#010000"/>
<path d="M490.855 160.012H494.261" stroke="black" stroke-width="0.90125" stroke-miterlimit="10" stroke-linecap="round" stroke-linejoin="round"/>
<path d="M512.115 160.012H515.246" stroke="black" stroke-width="0.90125" stroke-miterlimit="10" stroke-linecap="round" stroke-linejoin="round"/>
<path fill-rule="evenodd" clip-rule="evenodd" d="M503.655 175.679C506.952 175.679 510.138 175.514 512.939 175.294C511.511 180.573 507.885 184.367 503.655 184.367C499.426 184.367 495.8 180.628 494.372 175.294C497.173 175.514 500.304 175.679 503.655 175.679Z" fill="#010000"/>
<path fill-rule="evenodd" clip-rule="evenodd" d="M495.03 175.35C497.667 175.57 500.579 175.68 503.6 175.68C506.621 175.68 509.533 175.57 512.17 175.35C510.741 177.935 507.445 179.694 503.6 179.694C499.755 179.694 496.459 177.935 495.03 175.35Z" fill="#E0D6DB"/>
<defs>
<filter id="filter0_d_1641_527" x="0" y="0" width="710" height="599" filterUnits="userSpaceOnUse" color-interpolation-filters="sRGB">
<feFlood flood-opacity="0" result="BackgroundImageFix"/>
<feColorMatrix in="SourceAlpha" type="matrix" values="0 0 0 0 0 0 0 0 0 0 0 0 0 0 0 0 0 0 127 0" result="hardAlpha"/>
<feOffset/>
<feGaussianBlur stdDeviation="17.5"/>
<feComposite in2="hardAlpha" operator="out"/>
<feColorMatrix type="matrix" values="0 0 0 0 0.0352941 0 0 0 0 0 0 0 0 0 0 0 0 0 0.08 0"/>
<feBlend mode="normal" in2="BackgroundImageFix" result="effect1_dropShadow_1641_527"/>
<feBlend mode="normal" in="SourceGraphic" in2="effect1_dropShadow_1641_527" result="shape"/>
</filter>
</defs>
</svg>
