<svg width="60" height="60" viewBox="0 0 60 60" fill="none" xmlns="http://www.w3.org/2000/svg">
<circle cx="30" cy="30" r="30" fill="#ED5C18"/>
<path d="M30.624 25.496C33.568 25.496 37.056 27.736 37.056 32.568C37.056 36.6 34.016 39.32 29.44 39.32C25.504 39.32 22.272 36.472 21.92 32.024C21.408 25.528 22.528 17.368 30.4 17.624C32.896 17.72 35.296 18.488 36.864 21.688L32.672 23.48C32.064 22.232 31.232 21.816 30.24 21.816C27.168 21.816 26.304 25.048 26.4 27.864C26.656 27.128 28.032 25.496 30.624 25.496ZM32.416 32.312C32.416 30.808 31.168 29.56 29.664 29.56C28.16 29.56 26.912 30.808 26.912 32.312C26.912 33.816 28.16 35.064 29.664 35.064C31.168 35.064 32.416 33.816 32.416 32.312Z" fill="white"/>
</svg>
