<svg width="38" height="38" viewBox="0 0 38 38" fill="none" xmlns="http://www.w3.org/2000/svg">
<circle cx="19" cy="19" r="19" fill="#ED5C18"/>
<path d="M18.344 20.1407H16.826V17.5007H18.344C19.84 17.5007 19.752 16.0267 19.752 15.9387C19.752 15.4987 19.378 14.5527 18.3 14.5527C17.53 14.5527 17.046 14.9047 16.782 15.3447L14.296 13.8267C15.154 12.4407 16.848 11.5827 18.784 11.6927C21.314 11.8027 23.118 13.6947 23.052 15.7407C23.052 16.9507 22.26 17.9627 21.204 18.5567C22.788 19.1507 23.778 20.9327 23.668 22.4727C23.426 24.9587 20.874 26.7407 17.992 26.5647C15.99 26.4547 14.142 25.2227 13.394 23.5507L16.1 22.2087C16.386 22.9127 17.42 23.5287 18.234 23.5947C19.378 23.6607 20.192 22.8247 20.302 22.0547C20.302 21.7687 20.522 20.0747 18.344 20.1407Z" fill="white"/>
</svg>
