<svg width="60" height="60" viewBox="0 0 60 60" fill="none" xmlns="http://www.w3.org/2000/svg">
<circle cx="30" cy="30" r="30" fill="#ED5C18"/>
<path d="M28.256 29.912H26.048V26.072H28.256C30.432 26.072 30.304 23.928 30.304 23.8C30.304 23.16 29.76 21.784 28.192 21.784C27.072 21.784 26.368 22.296 25.984 22.936L22.368 20.728C23.616 18.712 26.08 17.464 28.896 17.624C32.576 17.784 35.2 20.536 35.104 23.512C35.104 25.272 33.952 26.744 32.416 27.608C34.72 28.472 36.16 31.064 36 33.304C35.648 36.92 31.936 39.512 27.744 39.256C24.832 39.096 22.144 37.304 21.056 34.872L24.992 32.92C25.408 33.944 26.912 34.84 28.096 34.936C29.76 35.032 30.944 33.816 31.104 32.696C31.104 32.28 31.424 29.816 28.256 29.912Z" fill="white"/>
</svg>
