<svg width="201" height="450" viewBox="0 0 201 450" fill="none" xmlns="http://www.w3.org/2000/svg">
<path fill-rule="evenodd" clip-rule="evenodd" d="M178.05 399.105H153.732L157.888 421.157H182.206L178.05 399.105Z" fill="#D3D8DC"/>
<path fill-rule="evenodd" clip-rule="evenodd" d="M72.5151 386.591L96.4552 386.544L95.7941 417.426L69.6348 416.056L72.5151 386.591Z" fill="#D3D8DC"/>
<path fill-rule="evenodd" clip-rule="evenodd" d="M100.941 437.211C100.941 437.211 94.9911 438.202 89.5137 438.533C84.839 438.816 84.9334 444.53 77.095 447.504C71.287 449.676 62.1738 449.724 50.9828 448.165C40.4058 446.702 36.5337 444.577 35.8255 443.727H35.731V443.585C35.6838 443.491 35.6838 443.396 35.731 443.349L35.5894 438.249H39.0836C40.1696 437.683 41.6334 437.352 43.6166 437.399C52.3522 436.55 67.6512 419.173 69.9177 408.596C72.2315 406.943 77.095 409.729 81.5336 411.948C86.3028 418.748 91.4968 414.64 91.4968 414.64C91.4968 414.64 93.4801 412.09 95.9827 409.918C101.082 416.906 102.216 435.18 100.941 437.211Z" fill="#2C1C28"/>
<path fill-rule="evenodd" clip-rule="evenodd" d="M200.952 442.027L200.857 446.418H200.763C200.763 446.466 200.763 446.513 200.763 446.513C197.269 447.929 193.963 449.204 180.742 449.724C169.787 450.196 162.751 448.543 158.785 445.993C154.394 443.208 157.982 437.211 153.544 436.455C150.852 435.983 150.238 434.141 150.238 434.141C150.852 425.264 151.797 414.64 155.244 410.532C155.244 413.507 157.557 415.962 157.557 415.962C157.557 415.962 158.691 417.048 162.751 410.107C167.993 407.84 173.801 407.463 179.278 410.201C183.433 425.878 190.091 434.283 195.616 439.997C196.985 439.997 198.024 440.847 198.827 441.98H200.952V442.027Z" fill="#2C1C28"/>
<path fill-rule="evenodd" clip-rule="evenodd" d="M100.8 432.442C100.8 432.442 94.8504 433.433 89.373 433.764C84.6983 434.047 84.7928 439.761 76.9544 442.735C71.1464 444.908 62.0331 444.955 50.8422 443.397C37.2903 441.508 34.7404 438.58 35.7792 438.533C35.7792 438.533 35.6848 432.442 43.5232 432.631C52.2587 431.781 67.6994 414.923 69.9659 404.346C72.2797 402.694 80.1653 405.007 81.4402 407.179C86.2093 413.979 90.6951 412.09 90.6951 412.09C90.6951 412.09 95.5115 410.957 96.0309 405.196C101.178 412.185 102.075 430.411 100.8 432.442Z" fill="#814A2A"/>
<path fill-rule="evenodd" clip-rule="evenodd" d="M150.38 429.75C150.38 429.75 150.947 431.592 153.686 432.064C158.124 432.82 154.536 438.817 158.927 441.602C162.893 444.152 169.929 445.805 180.884 445.333C194.105 444.766 197.411 443.538 200.905 442.122C200.905 442.122 199.488 435.653 195.758 435.653C190.281 429.939 183.575 421.534 179.42 405.858C175.879 403.213 168.135 403.449 162.893 405.763C158.88 412.704 157.652 411.241 157.652 411.241C157.652 411.241 155.338 409.305 155.055 406.33C152.364 411.949 151.041 420.873 150.38 429.75Z" fill="#814A2A"/>
<path fill-rule="evenodd" clip-rule="evenodd" d="M178.995 401.655C178.995 401.749 178.995 401.702 178.995 401.796C178.9 403.024 171.109 404.016 161.713 404.016C152.788 404.016 145.564 403.119 144.997 401.985H144.95C144.95 401.985 131.823 385.128 130.029 352.216C126.062 278.979 96.9279 204.42 96.9279 204.42C96.9279 204.42 94.0948 185.533 143.061 196.96L178.995 401.513V401.655Z" fill="#5A74C7"/>
<path fill-rule="evenodd" clip-rule="evenodd" d="M102.642 187.139C80.1181 187.139 61.9388 191.105 62.0804 196.016C62.2221 200.927 80.5903 204.893 103.114 204.893C125.637 204.893 143.817 200.927 143.675 196.016C143.581 191.105 125.212 187.139 102.642 187.139Z" fill="#5A74C7"/>
<path fill-rule="evenodd" clip-rule="evenodd" d="M142.494 167.353C142.494 167.353 130.878 159.94 112.369 159.656C75.3487 159.137 59.5303 167.164 59.5303 167.164L60.333 195.921L143.108 188.838L142.494 167.353Z" fill="#7581F1"/>
<path fill-rule="evenodd" clip-rule="evenodd" d="M101.933 348.722C106.796 383.334 99.9968 401.844 99.6663 402.694C99.383 403.686 92.4418 404.441 83.8007 404.441C75.3012 404.441 68.3127 403.686 67.8406 402.694H67.7933L59.9077 187.327C59.9077 187.327 70.8153 184.966 80.6841 187.327C92.1584 190.066 102.074 202.863 102.074 202.863C102.074 202.863 94 292.343 101.933 348.722Z" fill="#5A74C7"/>
<path d="M70.4379 174.861C70.4379 174.861 69.9185 189.64 60.8052 199.981" stroke="#555EC2" stroke-width="0.762574" stroke-miterlimit="10" stroke-linecap="round" stroke-linejoin="round"/>
<path d="M117.232 172.547C117.232 172.547 117.515 193.465 136.686 200.359" stroke="#3763C3" stroke-width="0.762574" stroke-miterlimit="10" stroke-linecap="round" stroke-linejoin="round"/>
<path d="M178.9 400.946L135.034 188.98C135.27 184.966 136.12 175.097 136.12 175.097" stroke="#3763C3" stroke-width="0.762574" stroke-miterlimit="10" stroke-linecap="round" stroke-linejoin="round"/>
<path d="M92.2063 206.215C92.2063 206.215 88.9009 292.201 94.3311 354.483C96.7865 382.342 92.2535 403.685 92.2535 403.685" stroke="#3763C3" stroke-width="0.762574" stroke-miterlimit="10" stroke-linecap="round" stroke-linejoin="round"/>
<path fill-rule="evenodd" clip-rule="evenodd" d="M100.799 220.758L101.13 215.894L97.8244 204.892L84.8864 202.484C84.8391 202.484 87.4362 217.169 100.799 220.758Z" fill="#375BB7"/>
<path fill-rule="evenodd" clip-rule="evenodd" d="M49.5387 122.076C53.5656 158.972 45.3587 177.373 57.9207 186.47C58.4565 192.967 59.2916 202.994 59.2916 202.994C59.2916 202.994 59.3755 203.745 59.9599 204.297C60.6434 204.886 61.191 205.11 61.191 205.11C61.191 205.11 60.5584 202.425 60.8347 202.346C63.7177 201.359 72.6072 199.273 100.957 196.581C122.392 194.519 134.965 195.205 143.376 195.215C143.956 197.004 144.112 197.556 144.112 197.556C144.112 197.556 147.647 196.449 147.683 195.067C147.683 195.067 146.502 182.798 146.057 179.237C154.526 172.541 153.223 156.627 138.65 114.639C145.363 110.088 149.431 101.841 148.445 93.0189C147.066 80.677 136.47 71.7406 124.597 72.6394L124.034 72.7023C123.987 72.7076 123.94 72.7128 123.847 72.7233C123.8 72.7285 123.706 72.739 123.659 72.7442L55.6771 80.4818C44.9942 83.1007 37.8255 93.7843 39.1152 105.328C39.8912 112.274 44.1916 118.445 49.5387 122.076Z" fill="#ED5C18"/>
<path d="M57.4663 177.374C68.8933 175.06 115.924 171.471 146.002 179.971" stroke="#CC2818" stroke-width="0.762574" stroke-miterlimit="10" stroke-linecap="round" stroke-linejoin="round"/>
<path d="M71.4001 91.5071L86.7685 102.334L102.32 87.5776" stroke="#CC2818" stroke-width="0.762574" stroke-miterlimit="10" stroke-linecap="round" stroke-linejoin="round"/>
<path fill-rule="evenodd" clip-rule="evenodd" d="M78.8429 112.198C72.8951 124.028 56.5973 145.71 42.2168 156.059C39.4614 161.165 34.3638 164.871 28.1694 165.563C18.1739 166.679 9.14854 159.468 8.03707 149.519C7.24541 142.433 10.6465 135.877 16.229 132.26C16.3593 132.15 16.4479 132.093 16.5782 131.983C31.9293 122.666 38.2419 101.768 39.3189 97.799C40.9716 88.7769 48.3353 81.54 57.9085 80.4705C69.5933 79.165 80.1786 87.58 81.4841 99.2649C82.0084 103.958 80.9837 108.396 78.8429 112.198Z" fill="#ED5C18"/>
<path d="M45.6698 148.261L52.604 103.157" stroke="#ED5C18" stroke-width="0.762574" stroke-miterlimit="10" stroke-linecap="round" stroke-linejoin="round"/>
<path fill-rule="evenodd" clip-rule="evenodd" d="M194.191 135.042C195.418 146.022 187.492 155.888 176.558 157.109C170.129 157.828 164.063 155.417 159.868 151.039L126.7 118.255C115.447 118.324 105.686 109.627 104.365 97.8017C102.959 85.2252 111.676 73.941 123.878 72.5779C130.964 71.7862 137.588 74.5146 142.221 79.4134L142.304 79.3091L188.468 122.947L188.427 123C191.49 126.173 193.661 130.302 194.191 135.042Z" fill="#ED5C18"/>
<path d="M119.708 110.959L153.113 146.71" stroke="#CC2818" stroke-width="0.762574" stroke-miterlimit="10" stroke-linecap="round" stroke-linejoin="round"/>
<path fill-rule="evenodd" clip-rule="evenodd" d="M194.19 135.041C195.417 146.022 187.492 155.887 176.558 157.109C174.774 157.308 173.012 157.267 171.317 156.982L138.293 155.255L138.348 125.125C138.348 125.125 145.09 125.085 149.606 125.103C154.436 110.927 175.96 116.457 178.369 117.613C186.542 119.313 193.199 126.172 194.19 135.041Z" fill="#ED5C18"/>
<path fill-rule="evenodd" clip-rule="evenodd" d="M140.215 125.677C136.386 123.729 132.463 128.586 131.503 136.58C130.538 144.528 132.889 152.817 136.718 154.765C140.546 156.713 144.444 151.621 145.409 143.674C146.416 135.674 144.043 127.625 140.215 125.677Z" fill="#CC2818"/>
<path fill-rule="evenodd" clip-rule="evenodd" d="M139.658 127.069C136.231 125.314 132.73 129.696 131.863 136.825C130.997 143.954 133.108 151.368 136.535 153.123C139.962 154.878 143.443 150.308 144.309 143.179C145.217 135.998 143.127 128.772 139.658 127.069Z" fill="#D3D8DC"/>
<path fill-rule="evenodd" clip-rule="evenodd" d="M129.703 126.852L138.104 126.769L138.402 153.675L129.057 153.817L129.703 126.852Z" fill="#D3D8DC"/>
<path fill-rule="evenodd" clip-rule="evenodd" d="M130.871 127.102C127.444 125.346 123.943 129.729 123.076 136.857C122.21 143.986 124.321 151.4 127.748 153.155C131.175 154.91 134.655 150.34 135.522 143.212C136.383 136.036 134.293 128.81 130.871 127.102Z" fill="#A8B3BC"/>
<path fill-rule="evenodd" clip-rule="evenodd" d="M129.986 128.102C127.111 126.618 124.152 130.322 123.441 136.293C122.736 142.311 124.476 148.531 127.345 149.968C130.219 151.453 133.162 147.608 133.868 141.59C134.626 135.614 132.854 129.54 129.986 128.102Z" fill="#E99670"/>
<path fill-rule="evenodd" clip-rule="evenodd" d="M101.029 127.917L106.985 137.419L101.029 127.917Z" fill="#E99670"/>
<path fill-rule="evenodd" clip-rule="evenodd" d="M111.459 146.85C105.331 144.304 102.819 139.263 97.832 135.449L95.9437 134.282C94.8744 133.642 94.4877 132.307 95.0346 131.248C95.592 130.283 96.7911 129.959 97.7925 130.417C97.7925 130.417 103.061 133.345 109.913 134.289C120.393 131.123 134.642 154.048 111.459 146.85Z" fill="#E99670"/>
<path d="M88.1613 112.678L101.653 115.209L102.722 115.422L103.259 115.553L103.504 115.62L103.848 115.724C104.824 115.948 105.721 116.323 106.628 116.792C107.536 117.26 108.36 117.833 109.148 118.506C109.518 118.844 109.889 119.183 110.264 119.569C110.426 119.741 110.593 119.96 110.755 120.132L111.199 120.7L126.979 141.173C129.704 144.717 121.332 149.738 113.345 144.169L105.809 123.915L105.579 123.561C105.522 123.472 105.464 123.383 105.407 123.295C105.292 123.118 105.13 122.946 104.968 122.774C104.645 122.43 104.327 122.133 103.915 121.846C103.508 121.606 103.101 121.367 102.652 121.179L102.454 121.106L102.209 121.039L101.667 120.862L100.634 120.55L87.2775 117.1C86.0467 116.715 85.2377 115.428 85.5289 114.207C85.8776 113.076 86.9931 112.428 88.1613 112.678Z" fill="#E99670"/>
<path fill-rule="evenodd" clip-rule="evenodd" d="M111.713 136.369L106.67 126.099L106.357 125.849C106.253 125.766 106.201 125.724 106.096 125.641C105.94 125.516 105.736 125.396 105.533 125.276C105.126 125.037 104.724 124.844 104.286 124.75C103.843 124.61 103.405 124.516 102.93 124.522L102.737 124.496L102.451 124.48L101.929 124.491L100.881 124.466L87.5265 124.01C86.2437 124.01 85.1846 123.036 85.0952 121.81C85.0215 120.726 85.8709 119.823 87.0441 119.692L100.299 119.257L101.332 119.141L101.848 119.084L102.129 119.052L102.458 119.015C103.402 118.958 104.361 119.04 105.331 119.217C106.301 119.394 107.235 119.67 108.137 120.091C108.586 120.279 109.039 120.513 109.446 120.753C109.65 120.873 109.853 120.993 110.062 121.159L110.625 121.524L121.3 131.592C126.269 139.494 121.138 139.07 111.713 136.369Z" fill="#E99670"/>
<path d="M88.1613 112.678L101.653 115.209L102.722 115.422L103.259 115.553L103.504 115.62L103.848 115.724C104.824 115.948 105.721 116.323 106.628 116.792C107.536 117.26 108.36 117.833 109.148 118.506C109.518 118.844 109.889 119.183 110.264 119.569C110.426 119.741 110.593 119.96 110.755 120.132L111.199 120.7L126.979 141.173C129.704 144.717 121.332 149.738 113.345 144.169L105.809 123.915L105.579 123.561C105.522 123.472 105.464 123.383 105.407 123.295C105.292 123.118 105.13 122.946 104.968 122.774C104.645 122.43 104.327 122.133 103.915 121.846C103.508 121.606 103.101 121.367 102.652 121.179L102.454 121.106L102.209 121.039L101.667 120.862L100.634 120.55L87.2775 117.1C86.0467 116.715 85.2377 115.428 85.5289 114.207C85.8776 113.076 86.9931 112.428 88.1613 112.678Z" fill="#E99670"/>
<path fill-rule="evenodd" clip-rule="evenodd" d="M116.694 136.287L109.524 127.396L109.169 127.198C109.07 127.161 108.966 127.078 108.867 127.041C108.668 126.969 108.465 126.849 108.272 126.823C107.829 126.682 107.391 126.589 106.958 126.542C106.525 126.495 106.05 126.501 105.586 126.6L105.399 126.621L105.122 126.7L104.611 126.804L103.59 127.013L94.0848 129.121C92.8335 129.403 91.5659 128.689 91.2471 127.537C90.9388 126.479 91.5796 125.409 92.6796 125.049L101.897 122.071L102.903 121.721L103.409 121.57L103.638 121.496L103.962 121.413C104.884 121.167 105.818 121.015 106.808 120.952C107.799 120.889 108.759 120.972 109.729 121.149C110.214 121.237 110.704 121.372 111.147 121.513C111.392 121.58 111.637 121.648 111.841 121.768L112.488 122.028L121.256 135.017C127.7 141.662 126.497 136.855 116.694 136.287Z" fill="#E99670"/>
<path fill-rule="evenodd" clip-rule="evenodd" d="M98.7852 124.414L111.982 122.607L113.827 139.126L109.182 140.927L98.7852 124.414Z" fill="#E99670"/>
<path fill-rule="evenodd" clip-rule="evenodd" d="M128.667 127.775L117.29 129.711L117.181 148.301L128.518 150.265C132.463 145.168 132.206 135.219 128.667 127.775Z" fill="#E99670"/>
<path d="M114.133 144.841C114.133 144.841 111.853 143.147 111.132 139.664C108.481 127.417 108.871 126.661 106.436 126.553C106.629 126.579 103.542 127.019 103.542 127.019L94.0374 129.126C92.7861 129.408 91.5186 128.695 91.1998 127.542C90.8915 126.484 91.5322 125.415 92.6323 125.054L101.85 122.076C101.85 122.076 107.344 119.8 110.083 121.347C113.484 123.295 118.952 129.288 118.952 129.288" stroke="#2C1C28" stroke-width="0.762574" stroke-miterlimit="10" stroke-linecap="round" stroke-linejoin="round"/>
<path d="M95.4421 124.265C91.771 124.152 87.6202 123.998 87.6202 123.998C86.3374 123.999 85.2783 123.025 85.1889 121.799C85.1153 120.715 85.9647 119.812 87.1379 119.681L100.393 119.245L101.425 119.13L101.941 119.072L102.223 119.041L102.551 119.004C103.495 118.946 104.455 119.029 105.425 119.206C106.395 119.383 107.328 119.658 108.231 120.08C108.679 120.268 109.133 120.502 109.54 120.742C109.743 120.861 109.947 120.981 110.155 121.148" stroke="#2C1C28" stroke-width="0.762574" stroke-miterlimit="10" stroke-linecap="round" stroke-linejoin="round"/>
<path d="M144.143 154.886C148.306 156.844 152.521 151.622 153.648 143.419C154.727 135.221 152.689 127.182 148.527 125.223" stroke="#CC2818" stroke-width="0.762574" stroke-miterlimit="10" stroke-linecap="round" stroke-linejoin="round"/>
<path d="M138.301 125.131C138.301 125.131 145.043 125.09 149.559 125.108C154.389 110.932 175.913 116.462 178.323 117.619" stroke="#CC2818" stroke-width="0.762574" stroke-miterlimit="10" stroke-linecap="round" stroke-linejoin="round"/>
<path fill-rule="evenodd" clip-rule="evenodd" d="M101.8 65.0669C105.629 67.4424 99.2158 77.2338 90.916 79.9191C82.0166 82.7663 73.8078 80.7376 73.7842 76.274C73.8375 69.5213 91.2838 58.5447 101.8 65.0669Z" fill="black"/>
<path fill-rule="evenodd" clip-rule="evenodd" d="M102.166 75.1463L98.608 46.2758L76.8288 49.0891L75.5129 80.6897C75.5129 80.6897 75.4662 81.1225 75.4924 81.3572C75.5923 82.6764 78.3668 83.2692 82.3818 83.0582L85.789 95.2684L87.4447 82.445C88.0026 82.3352 88.6074 82.2201 89.2122 82.105C96.5897 80.5206 102.486 77.5813 102.307 75.5581C102.291 75.4174 102.276 75.2766 102.166 75.1463Z" fill="#E99670"/>
<path fill-rule="evenodd" clip-rule="evenodd" d="M100.803 64.2272C103.192 65.6233 105.12 71.8221 91.0874 79.329C89.1426 79.7839 88.1582 81.6043 87.3782 85.2549L85.7779 94.7462L83.1079 85.732C83.1079 85.732 82.5385 84.0377 81.9122 83.1099C81.0615 81.8745 80.1434 81.3119 80.1434 81.3119C80.1434 81.3119 75.1206 79.3074 74.4626 77.6704C73.2197 74.6259 75.0853 72.612 76.1484 71.4954C76.1586 71.1617 76.1688 70.828 76.1791 70.4942C74.9802 71.2459 73.177 72.9677 72.2248 76.3525C69.5014 82.5959 70.993 91.6943 70.993 91.6943L76.0753 88.7033L85.8828 95.6848L96.1704 86.1256C96.1704 86.1256 99.0023 86.807 103.018 87.8788C106.239 84.3832 109.291 78.9582 109.57 74.2233L102.206 64.8782L100.845 64.1751L100.803 64.2272Z" fill="#D3D8DC"/>
<path d="M101.018 64.4413C101.847 65.0613 102.364 65.8588 102.485 66.9381C102.92 70.8331 97.9069 76.572 91.1297 79.2772C89.6283 79.8726 88.4766 81.0465 87.9822 82.5747C87.0868 85.1929 86.1144 89.6727 85.8884 95.3045C84.4405 89.5747 82.9497 81.7591 78.9234 80.5934C78.1881 80.3905 77.4474 80.1407 76.8266 79.6874C75.6372 78.8225 74.6979 77.6446 74.5616 76.4245" stroke="#2A1C28" stroke-width="0.762574" stroke-miterlimit="10" stroke-linecap="round" stroke-linejoin="round"/>
<path fill-rule="evenodd" clip-rule="evenodd" d="M70.9462 91.7007L83.5989 87.1512C83.5989 87.1512 82.1207 82.8502 80.743 81.1511C79.3706 79.4989 74.3774 83.2877 70.9462 91.7007Z" fill="#2A1C28"/>
<path fill-rule="evenodd" clip-rule="evenodd" d="M102.925 87.8898L86.8276 87.5501C86.9579 87.4405 86.7718 81.5222 89.842 79.6588C91.6664 78.5522 99.5949 82.7503 102.925 87.8898Z" fill="#2A1C28"/>
<path fill-rule="evenodd" clip-rule="evenodd" d="M75.7041 76.8677C94.6117 67.9135 92.3708 52.9597 92.3708 52.9597L76.4387 58.3507L75.7041 76.8677Z" fill="#C87149"/>
<path fill-rule="evenodd" clip-rule="evenodd" d="M76.0773 66.1889C77.6896 67.0686 79.5083 67.4511 81.3386 67.3407C83.1689 67.2303 84.9323 66.6975 86.4673 65.6889C90.7784 62.8415 96.4024 57.2836 97.3729 47.0777C104.732 47.3111 106.84 35.7162 101.979 34.0628C98.9671 33.0774 96.006 35.8483 94.7548 38.248C94.6887 38.3641 94.569 38.6417 94.5484 38.7453C93.0699 33.1773 97.7425 25.5792 93.693 23.3116C72.2972 11.3583 64.0671 27.228 62.2247 30.3285C62.2553 34.1882 62.9858 38.1008 63.5786 44.0097C64.7524 56.3203 70.8716 63.4551 76.0773 66.1889ZM94.7092 38.2605C94.7423 38.2025 94.7423 38.2025 94.7092 38.2605V38.2605Z" fill="#E99670"/>
<path d="M75.8604 54.1547C75.8604 54.1547 80.7506 53.5966 82.9146 49.5265" stroke="#2C1C28" stroke-width="0.762574" stroke-miterlimit="10" stroke-linecap="round" stroke-linejoin="round"/>
<path d="M69.337 34.302C66.5621 34.1819 63.3181 36.1001 62.8518 37.2562" stroke="#2C1C28" stroke-width="0.762574" stroke-miterlimit="10" stroke-linecap="round" stroke-linejoin="round"/>
<path d="M85.2193 31.5117C83.1391 30.7114 79.283 30.3983 75.7122 32.553" stroke="#2C1C28" stroke-width="0.762574" stroke-miterlimit="10" stroke-linecap="round" stroke-linejoin="round"/>
<path d="M72.3584 38.7124C72.3584 38.7124 73.0536 41.0678 72.0787 45.5461C71.1861 49.6102 73.9501 50.7615 77.6906 48.5113" stroke="#2C1C28" stroke-width="0.762574" stroke-miterlimit="10" stroke-linecap="round" stroke-linejoin="round"/>
<path fill-rule="evenodd" clip-rule="evenodd" d="M81.2881 35.92C80.5926 36.0619 80.2174 37.193 80.4967 38.3895C80.7759 39.5859 81.5847 40.3923 82.2802 40.2504C82.9758 40.1086 83.351 38.9774 83.0717 37.781C82.7924 36.5845 81.9837 35.7782 81.2881 35.92Z" fill="#2C1C28"/>
<path fill-rule="evenodd" clip-rule="evenodd" d="M67.3731 39.1009C66.6775 39.2428 66.3024 40.3739 66.5816 41.5704C66.8609 42.7668 67.6696 43.5732 68.3652 43.4313C69.0607 43.2895 69.4359 42.1583 69.1567 40.9619C68.8774 39.7655 68.0686 38.9591 67.3731 39.1009Z" fill="#2C1C28"/>
<path fill-rule="evenodd" clip-rule="evenodd" d="M59.071 31.6837C63.193 43.6752 62.2743 33.0083 62.2743 33.0083C64.8973 34.0025 73.0399 28.8799 79.2478 23.3087C85.4102 17.7501 89.7104 15.9339 91.5633 25.3652C92.8193 31.7287 98.8924 10.673 92.3315 12.8156C90.8123 -0.575398 76.9231 11.2649 76.9231 11.2649C76.9231 11.2649 71.1884 6.42384 64.9248 8.04418C59.0712 9.55209 55.8042 15.4916 58.1023 20.8347C53.7514 21.9304 50.6315 23.7655 59.071 31.6837Z" fill="#951800"/>
<path fill-rule="evenodd" clip-rule="evenodd" d="M63.4953 32.8199C66.2041 33.056 71.4759 30.1409 79.3437 24.0165C85.9293 18.9293 89.6842 20.837 91.8558 30.1809C92.3518 32.3461 93.4116 37.6373 93.9959 40.6596C94.4106 38.2446 96.129 35.2271 100.14 33.784C96.8354 28.5211 102.133 9.6367 92.2855 12.8278C92.084 11.0225 91.8547 10.0082 91.2853 8.64651C90.6917 7.73214 86.2952 3.3074 80.703 16.299C76.7328 25.5651 69.0229 32.0869 63.4953 32.8199ZM59.0706 31.6834C60.5418 37.9389 63.3687 42.3536 63.3687 42.3536L62.8122 33.0073C60.6954 32.6087 59.6179 32.0719 59.0706 31.6834Z" fill="#5F1001"/>
<path fill-rule="evenodd" clip-rule="evenodd" d="M25.0255 88.623C25.0255 88.623 24.3325 91.3868 24.2938 93.4856C24.0578 99.9321 25.3353 105.253 25.4707 106.058L28.163 95.9219L25.0255 88.623Z" fill="#EC957E"/>
<path fill-rule="evenodd" clip-rule="evenodd" d="M55.2545 141.569C54.1982 154.937 42.0311 164.629 37.8601 167.235C31.2119 172.121 21.7874 172.127 15.1679 166.674C11.4582 163.628 9.30694 159.452 8.7696 155.05C7.75215 150.018 5.75399 134.578 16.2471 124.983C21.5361 120.157 25.9787 120.389 25.9787 120.389L50.6797 129.149C50.6297 129.109 55.7304 135.233 55.2545 141.569Z" fill="#ED5C18"/>
<path fill-rule="evenodd" clip-rule="evenodd" d="M39.451 119.112C46.788 121.206 51.5787 127 50.1426 132.078C48.7015 137.111 41.597 139.544 34.2151 137.454C26.878 135.36 22.0873 129.566 23.5234 124.488C24.9645 119.455 32.069 117.022 39.451 119.112Z" fill="#CC2818"/>
<path fill-rule="evenodd" clip-rule="evenodd" d="M50.9592 119.419L48.9965 129.565C49.0068 130.064 48.9272 130.574 48.7576 131.094C47.486 135.607 41.121 137.73 34.5387 135.87C28.0014 134.005 23.6908 128.84 25.0073 124.322C25.1967 123.572 25.5811 122.938 26.0554 122.293L32.2346 110.356L50.9592 119.419Z" fill="#E99670"/>
<path fill-rule="evenodd" clip-rule="evenodd" d="M49.0415 129.559C49.0417 129.969 48.9919 130.339 48.8972 130.714C45.4892 130.776 41.6406 129.339 38.4457 126.417C33.5758 121.953 31.9529 115.578 34.304 111.354L51.0042 119.414L49.0415 129.559Z" fill="#C87149"/>
<path fill-rule="evenodd" clip-rule="evenodd" d="M42.3276 108.181C42.3276 108.181 57.0501 118.101 48.3978 122.574C42.1983 125.77 28.4315 117.883 26.2162 107.021C24.3218 97.8074 42.3276 108.181 42.3276 108.181Z" fill="#EC957E"/>
<path fill-rule="evenodd" clip-rule="evenodd" d="M51.1232 118.445C48.3908 120.07 43.699 120.868 35.9912 117.085C25.1992 111.779 40.1313 112.98 48.8969 114.004C50.0621 115.467 50.9625 117.006 51.1232 118.445Z" fill="#C87149"/>
<path fill-rule="evenodd" clip-rule="evenodd" d="M36.2503 74.1641L20.98 75.6425C20.2155 75.7279 19.8261 76.3178 20.1313 77.0122L36.5752 115.79C36.8804 116.484 37.7102 116.983 38.4747 116.898L53.745 115.42C54.5095 115.334 54.8989 114.744 54.5937 114.05L38.1498 75.2724C37.8446 74.5779 37.0148 74.0787 36.2503 74.1641Z" fill="#2C1C28"/>
<path fill-rule="evenodd" clip-rule="evenodd" d="M46.4973 112.496C52.0642 112.603 51.7964 107.761 49.3326 107.307C52.885 106.501 52.9177 102.718 47.8149 101.467C40.7929 99.7468 32.6281 100.431 32.6281 100.431L33.0268 98.7021C33.0268 98.7021 36.0806 99.5448 37.9947 99.9684C42.3777 100.89 44.1638 96.0919 36.1213 92.5738C31.5727 90.5777 28.0645 90.15 26.3729 94.1637C24.5665 98.3724 22.2079 106.604 31.473 115.768C34.3104 122.418 43.4825 118.115 45.1057 116.749C47.4781 114.754 47.2076 113.555 46.4973 112.496Z" fill="#E99670"/>
<path d="M50.0674 107.362C50.0674 107.362 36.4139 104.972 28.4706 108.454" stroke="#2C1C28" stroke-width="0.762574" stroke-miterlimit="10" stroke-linecap="round" stroke-linejoin="round"/>
<path d="M46.4731 112.681C42.7053 112.783 35.7845 113.192 31.8582 115.543" stroke="#2C1C28" stroke-width="0.762574" stroke-miterlimit="10" stroke-linecap="round" stroke-linejoin="round"/>
<path d="M37.8191 100.034C37.954 100.019 28.6144 99.9697 26.1377 103.069" stroke="#2C1C28" stroke-width="0.762574" stroke-miterlimit="10" stroke-linecap="round" stroke-linejoin="round"/>
<path d="M37.4905 99.9342L29.6538 97.8501" stroke="#2C1C28" stroke-width="0.762574" stroke-miterlimit="10" stroke-linecap="round" stroke-linejoin="round"/>
<path d="M51.9407 129.299C54.7035 136.482 56.9138 153.28 43.6523 163.005" stroke="#CC2818" stroke-width="0.764064" stroke-linecap="round"/>
</svg>
