<svg width="406" height="500" viewBox="0 0 406 500" fill="none" xmlns="http://www.w3.org/2000/svg">
<g filter="url(#filter0_d_417_544)">
<rect x="41" y="37" width="324" height="417.356" rx="8.23729" fill="white"/>
</g>
<rect x="61.9784" y="394.799" width="283.209" height="31.4676" rx="2.30763" fill="#ED5C18"/>
<path d="M183.593 415.288L182.67 412.882H178.782L177.859 415.288H176.278L179.914 405.652H181.523L185.159 415.288H183.593ZM180.726 407.512L179.285 411.554H182.166L180.726 407.512ZM191.224 415.288V414.337C190.818 415.05 189.909 415.428 189.014 415.428C187.252 415.428 185.755 414.085 185.755 412.029C185.755 409.931 187.252 408.617 189.014 408.617C189.951 408.617 190.818 408.98 191.224 409.694V405.204H192.65V415.288H191.224ZM191.196 412.001C191.196 410.729 190.161 410.015 189.196 410.015C188.119 410.015 187.238 410.798 187.238 412.001C187.238 413.204 188.119 414.029 189.196 414.029C190.259 414.029 191.196 413.274 191.196 412.001ZM199.732 415.288V414.337C199.327 415.05 198.418 415.428 197.523 415.428C195.76 415.428 194.264 414.085 194.264 412.029C194.264 409.931 195.76 408.617 197.523 408.617C198.46 408.617 199.327 408.98 199.732 409.694V405.204H201.159V415.288H199.732ZM199.704 412.001C199.704 410.729 198.669 410.015 197.704 410.015C196.628 410.015 195.746 410.798 195.746 412.001C195.746 413.204 196.628 414.029 197.704 414.029C198.767 414.029 199.704 413.274 199.704 412.001ZM206.422 412.491H207.904C207.946 413.274 208.659 414.071 209.82 414.071C210.953 414.071 211.54 413.47 211.638 412.756C211.694 411.861 211.009 411.4 210.114 411.19L208.897 410.882C206.827 410.323 206.506 409.148 206.506 408.295C206.506 406.645 207.988 405.54 209.68 405.54C211.471 405.54 212.813 406.631 212.813 408.393H211.331C211.331 407.498 210.659 406.938 209.652 406.938C208.757 406.938 207.988 407.484 207.988 408.267C207.988 408.645 208.128 409.232 209.275 409.526L210.506 409.847C212.464 410.365 213.261 411.442 213.107 412.84C212.953 414.351 211.652 415.428 209.82 415.428C207.82 415.428 206.422 414.057 206.422 412.491ZM216.201 411.777V415.288H214.76V405.204H216.201V409.75C216.578 408.952 217.585 408.617 218.271 408.617C219.949 408.617 220.914 409.708 220.914 411.568V415.288H219.473V411.652C219.473 410.631 218.844 410.029 218.019 410.029C217.194 410.029 216.201 410.491 216.201 411.777ZM224.272 408.757V415.288H222.846V408.757H224.272ZM222.594 406.113C222.594 405.596 223.041 405.204 223.559 405.204C224.104 405.204 224.51 405.596 224.51 406.113C224.51 406.631 224.104 407.022 223.559 407.022C223.041 407.022 222.594 406.631 222.594 406.113ZM230.203 405.204V406.589H229.49C228.539 406.589 228.329 407.316 228.329 408.155V408.757H229.798V409.945H228.329V415.288H226.875V409.945H225.63V408.757H226.875V408.155C226.875 406.365 227.7 405.204 229.49 405.204H230.203ZM233.094 406.281V408.757H234.479V409.945H233.094V415.288H231.653V409.945H230.479V408.757H231.653V406.281H233.094Z" fill="white"/>
<g filter="url(#filter1_d_417_544)">
<rect x="61.9784" y="304.08" width="283.209" height="68.7626" rx="2.30763" fill="white"/>
</g>
<path d="M108.006 316.679V324.744H106.945V318.73L104.265 324.744H103.519L100.826 318.719V324.744H99.7658V316.679H100.908L103.892 323.346L106.875 316.679H108.006ZM112.59 324.849C111.992 324.849 111.448 324.713 110.958 324.441C110.476 324.169 110.096 323.785 109.816 323.287C109.544 322.782 109.408 322.2 109.408 321.539C109.408 320.886 109.548 320.311 109.828 319.814C110.115 319.309 110.504 318.925 110.993 318.66C111.483 318.388 112.03 318.252 112.636 318.252C113.242 318.252 113.79 318.388 114.28 318.66C114.769 318.925 115.154 319.305 115.434 319.803C115.721 320.3 115.865 320.879 115.865 321.539C115.865 322.2 115.717 322.782 115.422 323.287C115.134 323.785 114.742 324.169 114.245 324.441C113.748 324.713 113.196 324.849 112.59 324.849ZM112.59 323.917C112.971 323.917 113.328 323.827 113.662 323.649C113.996 323.47 114.264 323.202 114.466 322.844C114.676 322.487 114.781 322.052 114.781 321.539C114.781 321.026 114.68 320.591 114.478 320.234C114.276 319.876 114.012 319.612 113.685 319.441C113.359 319.263 113.006 319.173 112.625 319.173C112.236 319.173 111.879 319.263 111.553 319.441C111.234 319.612 110.978 319.876 110.783 320.234C110.589 320.591 110.492 321.026 110.492 321.539C110.492 322.06 110.585 322.499 110.772 322.856C110.966 323.213 111.222 323.482 111.541 323.66C111.859 323.831 112.209 323.917 112.59 323.917ZM120.371 318.241C121.148 318.241 121.777 318.478 122.259 318.952C122.741 319.418 122.982 320.094 122.982 320.98V324.744H121.933V321.131C121.933 320.494 121.773 320.008 121.455 319.674C121.136 319.332 120.701 319.162 120.15 319.162C119.59 319.162 119.143 319.336 118.809 319.686C118.483 320.036 118.32 320.545 118.32 321.213V324.744H117.259V318.357H118.32V319.266C118.53 318.94 118.813 318.688 119.171 318.509C119.536 318.33 119.936 318.241 120.371 318.241ZM124.318 321.527C124.318 320.875 124.45 320.304 124.714 319.814C124.978 319.317 125.34 318.932 125.798 318.66C126.264 318.388 126.785 318.252 127.36 318.252C127.857 318.252 128.319 318.369 128.747 318.602C129.174 318.827 129.5 319.127 129.726 319.5V316.12H130.798V324.744H129.726V323.544C129.516 323.924 129.205 324.239 128.793 324.488C128.381 324.729 127.9 324.849 127.348 324.849C126.781 324.849 126.264 324.709 125.798 324.429C125.34 324.15 124.978 323.757 124.714 323.252C124.45 322.747 124.318 322.172 124.318 321.527ZM129.726 321.539C129.726 321.057 129.629 320.638 129.434 320.28C129.24 319.923 128.976 319.651 128.642 319.465C128.315 319.27 127.954 319.173 127.558 319.173C127.162 319.173 126.8 319.266 126.474 319.453C126.148 319.639 125.887 319.911 125.693 320.269C125.499 320.626 125.402 321.046 125.402 321.527C125.402 322.017 125.499 322.444 125.693 322.809C125.887 323.167 126.148 323.443 126.474 323.637C126.8 323.823 127.162 323.917 127.558 323.917C127.954 323.917 128.315 323.823 128.642 323.637C128.976 323.443 129.24 323.167 129.434 322.809C129.629 322.444 129.726 322.021 129.726 321.539ZM132.194 321.527C132.194 320.875 132.326 320.304 132.59 319.814C132.854 319.317 133.216 318.932 133.674 318.66C134.14 318.388 134.657 318.252 135.224 318.252C135.784 318.252 136.269 318.373 136.681 318.614C137.093 318.855 137.4 319.158 137.602 319.523V318.357H138.674V324.744H137.602V323.555C137.392 323.928 137.077 324.239 136.658 324.488C136.246 324.729 135.764 324.849 135.212 324.849C134.645 324.849 134.132 324.709 133.674 324.429C133.216 324.15 132.854 323.757 132.59 323.252C132.326 322.747 132.194 322.172 132.194 321.527ZM137.602 321.539C137.602 321.057 137.505 320.638 137.31 320.28C137.116 319.923 136.852 319.651 136.518 319.465C136.191 319.27 135.83 319.173 135.434 319.173C135.038 319.173 134.676 319.266 134.35 319.453C134.024 319.639 133.763 319.911 133.569 320.269C133.375 320.626 133.278 321.046 133.278 321.527C133.278 322.017 133.375 322.444 133.569 322.809C133.763 323.167 134.024 323.443 134.35 323.637C134.676 323.823 135.038 323.917 135.434 323.917C135.83 323.917 136.191 323.823 136.518 323.637C136.852 323.443 137.116 323.167 137.31 322.809C137.505 322.444 137.602 322.021 137.602 321.539ZM145.967 318.357L142.121 327.751H141.026L142.284 324.674L139.709 318.357H140.886L142.89 323.532L144.872 318.357H145.967ZM151.434 319.231V322.996C151.434 323.307 151.5 323.528 151.632 323.66C151.764 323.785 151.994 323.847 152.32 323.847H153.101V324.744H152.145C151.555 324.744 151.112 324.608 150.816 324.336C150.521 324.064 150.374 323.618 150.374 322.996V319.231H149.546V318.357H150.374V316.749H151.434V318.357H153.101V319.231H151.434ZM157.171 324.849C156.573 324.849 156.029 324.713 155.54 324.441C155.058 324.169 154.677 323.785 154.397 323.287C154.125 322.782 153.99 322.2 153.99 321.539C153.99 320.886 154.129 320.311 154.409 319.814C154.697 319.309 155.085 318.925 155.575 318.66C156.064 318.388 156.612 318.252 157.218 318.252C157.824 318.252 158.372 318.388 158.861 318.66C159.351 318.925 159.735 319.305 160.015 319.803C160.302 320.3 160.446 320.879 160.446 321.539C160.446 322.2 160.299 322.782 160.003 323.287C159.716 323.785 159.323 324.169 158.826 324.441C158.329 324.713 157.777 324.849 157.171 324.849ZM157.171 323.917C157.552 323.917 157.909 323.827 158.243 323.649C158.578 323.47 158.846 323.202 159.048 322.844C159.257 322.487 159.362 322.052 159.362 321.539C159.362 321.026 159.261 320.591 159.059 320.234C158.857 319.876 158.593 319.612 158.267 319.441C157.94 319.263 157.587 319.173 157.206 319.173C156.818 319.173 156.46 319.263 156.134 319.441C155.815 319.612 155.559 319.876 155.365 320.234C155.171 320.591 155.073 321.026 155.073 321.539C155.073 322.06 155.167 322.499 155.353 322.856C155.547 323.213 155.804 323.482 156.122 323.66C156.441 323.831 156.791 323.917 157.171 323.917ZM169.54 316.621V317.483H166.008V320.222H168.875V321.085H166.008V324.744H164.948V316.621H169.54ZM171.881 319.395C172.068 319.029 172.332 318.746 172.674 318.544C173.023 318.342 173.447 318.241 173.944 318.241V319.336H173.664C172.476 319.336 171.881 319.981 171.881 321.271V324.744H170.821V318.357H171.881V319.395ZM175.716 317.32C175.514 317.32 175.343 317.25 175.203 317.11C175.064 316.97 174.994 316.8 174.994 316.598C174.994 316.396 175.064 316.225 175.203 316.085C175.343 315.945 175.514 315.875 175.716 315.875C175.91 315.875 176.074 315.945 176.206 316.085C176.346 316.225 176.415 316.396 176.415 316.598C176.415 316.8 176.346 316.97 176.206 317.11C176.074 317.25 175.91 317.32 175.716 317.32ZM176.229 318.357V324.744H175.168V318.357H176.229ZM177.64 321.527C177.64 320.875 177.772 320.304 178.037 319.814C178.301 319.317 178.662 318.932 179.12 318.66C179.587 318.388 180.107 318.252 180.682 318.252C181.179 318.252 181.642 318.369 182.069 318.602C182.496 318.827 182.823 319.127 183.048 319.5V316.12H184.12V324.744H183.048V323.544C182.838 323.924 182.527 324.239 182.116 324.488C181.704 324.729 181.222 324.849 180.671 324.849C180.103 324.849 179.587 324.709 179.12 324.429C178.662 324.15 178.301 323.757 178.037 323.252C177.772 322.747 177.64 322.172 177.64 321.527ZM183.048 321.539C183.048 321.057 182.951 320.638 182.757 320.28C182.562 319.923 182.298 319.651 181.964 319.465C181.638 319.27 181.277 319.173 180.88 319.173C180.484 319.173 180.123 319.266 179.796 319.453C179.47 319.639 179.21 319.911 179.016 320.269C178.821 320.626 178.724 321.046 178.724 321.527C178.724 322.017 178.821 322.444 179.016 322.809C179.21 323.167 179.47 323.443 179.796 323.637C180.123 323.823 180.484 323.917 180.88 323.917C181.277 323.917 181.638 323.823 181.964 323.637C182.298 323.443 182.562 323.167 182.757 322.809C182.951 322.444 183.048 322.021 183.048 321.539ZM185.516 321.527C185.516 320.875 185.648 320.304 185.913 319.814C186.177 319.317 186.538 318.932 186.996 318.66C187.463 318.388 187.979 318.252 188.547 318.252C189.106 318.252 189.592 318.373 190.003 318.614C190.415 318.855 190.722 319.158 190.924 319.523V318.357H191.996V324.744H190.924V323.555C190.714 323.928 190.4 324.239 189.98 324.488C189.568 324.729 189.087 324.849 188.535 324.849C187.968 324.849 187.455 324.709 186.996 324.429C186.538 324.15 186.177 323.757 185.913 323.252C185.648 322.747 185.516 322.172 185.516 321.527ZM190.924 321.539C190.924 321.057 190.827 320.638 190.633 320.28C190.438 319.923 190.174 319.651 189.84 319.465C189.514 319.27 189.153 319.173 188.756 319.173C188.36 319.173 187.999 319.266 187.672 319.453C187.346 319.639 187.086 319.911 186.892 320.269C186.697 320.626 186.6 321.046 186.6 321.527C186.6 322.017 186.697 322.444 186.892 322.809C187.086 323.167 187.346 323.443 187.672 323.637C187.999 323.823 188.36 323.917 188.756 323.917C189.153 323.917 189.514 323.823 189.84 323.637C190.174 323.443 190.438 323.167 190.633 322.809C190.827 322.444 190.924 322.021 190.924 321.539ZM199.29 318.357L195.444 327.751H194.348L195.607 324.674L193.031 318.357H194.208L196.213 323.532L198.194 318.357H199.29Z" fill="#687888"/>
<path d="M99.3696 354.455C99.3696 353.663 99.5483 352.952 99.9057 352.323C100.263 351.686 100.749 351.188 101.363 350.831C101.984 350.473 102.672 350.295 103.425 350.295C104.311 350.295 105.084 350.508 105.745 350.936C106.405 351.363 106.887 351.969 107.19 352.754H105.92C105.694 352.264 105.368 351.888 104.941 351.623C104.521 351.359 104.016 351.227 103.425 351.227C102.858 351.227 102.349 351.359 101.899 351.623C101.448 351.888 101.094 352.264 100.838 352.754C100.582 353.236 100.453 353.803 100.453 354.455C100.453 355.1 100.582 355.668 100.838 356.157C101.094 356.639 101.448 357.012 101.899 357.276C102.349 357.54 102.858 357.672 103.425 357.672C104.016 357.672 104.521 357.544 104.941 357.288C105.368 357.023 105.694 356.647 105.92 356.157H107.19C106.887 356.934 106.405 357.536 105.745 357.964C105.084 358.383 104.311 358.593 103.425 358.593C102.672 358.593 101.984 358.418 101.363 358.068C100.749 357.711 100.263 357.218 99.9057 356.588C99.5483 355.959 99.3696 355.248 99.3696 354.455ZM114.433 352.136V358.523H113.372V357.579C113.17 357.905 112.887 358.162 112.521 358.348C112.164 358.527 111.768 358.616 111.333 358.616C110.835 358.616 110.389 358.515 109.992 358.313C109.596 358.103 109.281 357.793 109.048 357.381C108.823 356.969 108.71 356.468 108.71 355.877V352.136H109.759V355.737C109.759 356.367 109.919 356.852 110.237 357.194C110.556 357.528 110.991 357.695 111.542 357.695C112.11 357.695 112.556 357.521 112.883 357.171C113.209 356.821 113.372 356.312 113.372 355.644V352.136H114.433ZM118.485 358.628C117.995 358.628 117.556 358.546 117.168 358.383C116.779 358.212 116.472 357.979 116.247 357.684C116.022 357.381 115.897 357.035 115.874 356.647H116.969C117.001 356.965 117.148 357.225 117.412 357.427C117.684 357.629 118.038 357.73 118.473 357.73C118.877 357.73 119.195 357.641 119.429 357.462C119.662 357.284 119.778 357.058 119.778 356.786C119.778 356.507 119.654 356.301 119.405 356.169C119.157 356.029 118.772 355.893 118.251 355.761C117.777 355.636 117.389 355.512 117.086 355.388C116.791 355.256 116.534 355.065 116.317 354.817C116.107 354.56 116.002 354.226 116.002 353.814C116.002 353.488 116.099 353.189 116.293 352.917C116.488 352.645 116.764 352.431 117.121 352.276C117.478 352.113 117.886 352.031 118.345 352.031C119.052 352.031 119.623 352.21 120.058 352.567C120.493 352.925 120.726 353.414 120.757 354.036H119.697C119.673 353.702 119.537 353.434 119.289 353.232C119.048 353.03 118.722 352.929 118.31 352.929C117.929 352.929 117.626 353.01 117.401 353.173C117.175 353.337 117.063 353.55 117.063 353.814C117.063 354.024 117.129 354.199 117.261 354.339C117.401 354.471 117.572 354.58 117.774 354.665C117.983 354.743 118.271 354.832 118.636 354.933C119.094 355.058 119.467 355.182 119.755 355.306C120.042 355.423 120.287 355.602 120.489 355.842C120.699 356.083 120.808 356.398 120.815 356.786C120.815 357.136 120.718 357.451 120.524 357.73C120.33 358.01 120.054 358.232 119.697 358.395C119.347 358.55 118.943 358.628 118.485 358.628ZM123.606 353.01V356.775C123.606 357.086 123.672 357.307 123.804 357.439C123.937 357.563 124.166 357.626 124.492 357.626H125.273V358.523H124.317C123.727 358.523 123.284 358.387 122.989 358.115C122.693 357.843 122.546 357.396 122.546 356.775V353.01H121.718V352.136H122.546V350.528H123.606V352.136H125.273V353.01H123.606ZM129.343 358.628C128.745 358.628 128.201 358.492 127.712 358.22C127.23 357.948 126.849 357.563 126.57 357.066C126.298 356.561 126.162 355.978 126.162 355.318C126.162 354.665 126.302 354.09 126.581 353.593C126.869 353.088 127.257 352.703 127.747 352.439C128.236 352.167 128.784 352.031 129.39 352.031C129.996 352.031 130.544 352.167 131.033 352.439C131.523 352.703 131.907 353.084 132.187 353.581C132.475 354.079 132.618 354.657 132.618 355.318C132.618 355.978 132.471 356.561 132.176 357.066C131.888 357.563 131.496 357.948 130.998 358.22C130.501 358.492 129.949 358.628 129.343 358.628ZM129.343 357.695C129.724 357.695 130.082 357.606 130.416 357.427C130.75 357.249 131.018 356.981 131.22 356.623C131.43 356.266 131.534 355.831 131.534 355.318C131.534 354.805 131.433 354.37 131.231 354.013C131.029 353.655 130.765 353.391 130.439 353.22C130.113 353.041 129.759 352.952 129.378 352.952C128.99 352.952 128.632 353.041 128.306 353.22C127.988 353.391 127.731 353.655 127.537 354.013C127.343 354.37 127.246 354.805 127.246 355.318C127.246 355.838 127.339 356.277 127.525 356.635C127.72 356.992 127.976 357.26 128.294 357.439C128.613 357.61 128.963 357.695 129.343 357.695ZM141.693 352.02C142.191 352.02 142.633 352.125 143.022 352.334C143.41 352.536 143.717 352.843 143.943 353.255C144.168 353.667 144.281 354.168 144.281 354.758V358.523H143.232V354.91C143.232 354.273 143.072 353.787 142.754 353.453C142.443 353.111 142.02 352.94 141.483 352.94C140.932 352.94 140.493 353.119 140.167 353.476C139.84 353.826 139.677 354.335 139.677 355.003V358.523H138.628V354.91C138.628 354.273 138.469 353.787 138.15 353.453C137.839 353.111 137.416 352.94 136.88 352.94C136.328 352.94 135.889 353.119 135.563 353.476C135.237 353.826 135.073 354.335 135.073 355.003V358.523H134.013V352.136H135.073V353.057C135.283 352.723 135.563 352.466 135.913 352.288C136.27 352.109 136.662 352.02 137.09 352.02C137.626 352.02 138.1 352.14 138.512 352.381C138.923 352.622 139.23 352.975 139.432 353.442C139.611 352.991 139.906 352.641 140.318 352.393C140.73 352.144 141.188 352.02 141.693 352.02Z" fill="#687888"/>
<path opacity="0.977974" d="M78.7019 315.363C77.2001 315.363 75.9824 316.58 75.9824 318.082V324.881C75.9824 326.383 77.2001 327.6 78.7019 327.6H85.5004C87.0022 327.6 88.2199 326.383 88.2199 324.881V322.161C88.2199 321.786 87.9153 321.481 87.54 321.481C87.1647 321.481 86.8601 321.786 86.8601 322.161V324.881C86.8601 325.632 86.2517 326.24 85.5004 326.24H78.7019C77.9506 326.24 77.3422 325.632 77.3422 324.881V318.082C77.3422 317.331 77.9506 316.723 78.7019 316.723H84.1407C84.516 316.723 84.8206 316.418 84.8206 316.043C84.8206 315.667 84.516 315.363 84.1407 315.363H78.7019ZM88.2199 316.043C88.0458 316.043 87.8636 316.104 87.731 316.234L81.8034 322.055C81.6286 322.227 81.4526 322.215 81.3152 322.012L80.6354 321.014C80.4273 320.707 79.9909 320.618 79.6795 320.823C79.3674 321.027 79.2797 321.451 79.4878 321.758L80.1676 322.756C80.7802 323.66 81.9788 323.779 82.7599 323.011L88.7087 317.168C88.9738 316.908 88.9738 316.495 88.7087 316.234C88.5761 316.103 88.3939 316.043 88.2199 316.043Z" fill="#ED5C18"/>
<path opacity="0.977974" d="M78.7018 348.727C77.2 348.727 75.9824 349.944 75.9824 351.446V358.245C75.9824 359.747 77.2 360.964 78.7018 360.964H85.5004C87.0022 360.964 88.2198 359.747 88.2198 358.245V355.525C88.2198 355.15 87.9153 354.846 87.54 354.846C87.1647 354.846 86.8601 355.15 86.8601 355.525V358.245C86.8601 358.996 86.2517 359.604 85.5004 359.604H78.7018C77.9506 359.604 77.3421 358.996 77.3421 358.245V351.446C77.3421 350.695 77.9506 350.087 78.7018 350.087H84.1407C84.516 350.087 84.8206 349.782 84.8206 349.407C84.8206 349.031 84.516 348.727 84.1407 348.727H78.7018ZM88.2198 349.407C88.0458 349.407 87.8636 349.468 87.731 349.598L81.8034 355.419C81.6286 355.591 81.4525 355.579 81.3152 355.376L80.6354 354.378C80.4273 354.071 79.9909 353.982 79.6795 354.187C79.3674 354.391 79.2797 354.815 79.4878 355.122L80.1676 356.12C80.7802 357.024 81.9788 357.143 82.7599 356.375L88.7087 350.533C88.9738 350.272 88.9738 349.859 88.7087 349.598C88.5761 349.467 88.3939 349.407 88.2198 349.407Z" fill="#CACACA"/>
<path d="M66.7165 293.664C66.1727 293.664 65.6832 293.571 65.2481 293.385C64.8129 293.19 64.4711 292.918 64.2224 292.569C63.9738 292.219 63.8495 291.811 63.8495 291.345H65.2714C65.3024 291.695 65.4384 291.982 65.6793 292.208C65.9279 292.433 66.2737 292.545 66.7165 292.545C67.175 292.545 67.5324 292.437 67.7888 292.219C68.0452 291.994 68.1734 291.706 68.1734 291.357C68.1734 291.085 68.0918 290.863 67.9286 290.692C67.7732 290.521 67.5751 290.389 67.3342 290.296C67.1011 290.203 66.7748 290.102 66.3552 289.993C65.8269 289.853 65.3957 289.713 65.0616 289.574C64.7352 289.426 64.4555 289.201 64.2224 288.898C63.9894 288.595 63.8728 288.191 63.8728 287.685C63.8728 287.219 63.9894 286.811 64.2224 286.462C64.4555 286.112 64.7819 285.844 65.2014 285.658C65.621 285.471 66.1066 285.378 66.6583 285.378C67.443 285.378 68.084 285.576 68.5813 285.972C69.0863 286.361 69.366 286.897 69.4204 287.581H67.9519C67.9286 287.285 67.7888 287.033 67.5324 286.823C67.276 286.613 66.938 286.508 66.5184 286.508C66.1377 286.508 65.8269 286.605 65.586 286.8C65.3452 286.994 65.2247 287.274 65.2247 287.639C65.2247 287.888 65.2986 288.093 65.4462 288.257C65.6016 288.412 65.7958 288.536 66.0289 288.63C66.262 288.723 66.5806 288.824 66.9846 288.933C67.5207 289.08 67.9558 289.228 68.2899 289.375C68.6318 289.523 68.9193 289.752 69.1524 290.063C69.3932 290.366 69.5137 290.774 69.5137 291.287C69.5137 291.699 69.401 292.087 69.1757 292.452C68.9581 292.817 68.6357 293.113 68.2083 293.338C67.7888 293.556 67.2915 293.664 66.7165 293.664ZM76.967 290.215C76.967 290.455 76.9515 290.673 76.9204 290.867H72.0138C72.0526 291.38 72.243 291.792 72.5849 292.103C72.9267 292.413 73.3463 292.569 73.8436 292.569C74.5584 292.569 75.0634 292.27 75.3587 291.671H76.7922C76.5979 292.262 76.2444 292.748 75.7316 293.128C75.2266 293.501 74.5972 293.688 73.8436 293.688C73.2297 293.688 72.6781 293.552 72.1886 293.28C71.7069 293 71.3262 292.612 71.0464 292.114C70.7745 291.609 70.6385 291.027 70.6385 290.366C70.6385 289.706 70.7706 289.127 71.0348 288.63C71.3067 288.124 71.6836 287.736 72.1653 287.464C72.6548 287.192 73.2142 287.056 73.8436 287.056C74.4496 287.056 74.9896 287.188 75.4636 287.452C75.9375 287.717 76.3066 288.09 76.5708 288.571C76.8349 289.045 76.967 289.593 76.967 290.215ZM75.5801 289.795C75.5723 289.305 75.3975 288.913 75.0556 288.618C74.7138 288.323 74.2903 288.175 73.7853 288.175C73.3269 288.175 72.9345 288.323 72.6082 288.618C72.2818 288.905 72.0876 289.298 72.0254 289.795H75.5801ZM79.6032 284.958V293.583H78.2745V284.958H79.6032ZM87.2331 290.215C87.2331 290.455 87.2176 290.673 87.1865 290.867H82.2799C82.3188 291.38 82.5091 291.792 82.851 292.103C83.1929 292.413 83.6124 292.569 84.1097 292.569C84.8245 292.569 85.3295 292.27 85.6248 291.671H87.0583C86.8641 292.262 86.5106 292.748 85.9977 293.128C85.4927 293.501 84.8634 293.688 84.1097 293.688C83.4959 293.688 82.9442 293.552 82.4547 293.28C81.973 293 81.5923 292.612 81.3126 292.114C81.0406 291.609 80.9047 291.027 80.9047 290.366C80.9047 289.706 81.0367 289.127 81.3009 288.63C81.5729 288.124 81.9497 287.736 82.4314 287.464C82.9209 287.192 83.4803 287.056 84.1097 287.056C84.7157 287.056 85.2557 287.188 85.7297 287.452C86.2036 287.717 86.5727 288.09 86.8369 288.571C87.1011 289.045 87.2331 289.593 87.2331 290.215ZM85.8462 289.795C85.8385 289.305 85.6636 288.913 85.3218 288.618C84.9799 288.323 84.5565 288.175 84.0514 288.175C83.593 288.175 83.2006 288.323 82.8743 288.618C82.548 288.905 82.3537 289.298 82.2916 289.795H85.8462ZM88.0978 290.366C88.0978 289.706 88.2299 289.127 88.494 288.63C88.766 288.124 89.1389 287.736 89.6129 287.464C90.0868 287.192 90.6307 287.056 91.2445 287.056C92.0215 287.056 92.6625 287.243 93.1676 287.616C93.6804 287.981 94.0261 288.505 94.2048 289.189H92.7713C92.6548 288.87 92.4683 288.622 92.2119 288.443C91.9555 288.264 91.633 288.175 91.2445 288.175C90.7007 288.175 90.2655 288.369 89.9392 288.758C89.6207 289.138 89.4614 289.675 89.4614 290.366C89.4614 291.058 89.6207 291.598 89.9392 291.986C90.2655 292.375 90.7007 292.569 91.2445 292.569C92.0137 292.569 92.5227 292.231 92.7713 291.555H94.2048C94.0184 292.208 93.6687 292.728 93.1559 293.117C92.6431 293.497 92.006 293.688 91.2445 293.688C90.6307 293.688 90.0868 293.552 89.6129 293.28C89.1389 293 88.766 292.612 88.494 292.114C88.2299 291.609 88.0978 291.027 88.0978 290.366ZM97.079 288.245V291.8C97.079 292.04 97.1334 292.215 97.2421 292.324C97.3587 292.425 97.5529 292.476 97.8249 292.476H98.6407V293.583H97.5918C96.9935 293.583 96.5351 293.443 96.2165 293.163C95.898 292.883 95.7387 292.429 95.7387 291.8V288.245H94.9811V287.161H95.7387V285.564H97.079V287.161H98.6407V288.245H97.079ZM113.44 285.483L111.039 293.583H109.536L107.834 287.452L106.028 293.583L104.536 293.594L102.24 285.483H103.65L105.329 292.079L107.147 285.483H108.639L110.328 292.044L112.018 285.483H113.44ZM117.322 293.688C116.715 293.688 116.168 293.552 115.678 293.28C115.189 293 114.804 292.612 114.524 292.114C114.245 291.609 114.105 291.027 114.105 290.366C114.105 289.713 114.249 289.135 114.536 288.63C114.824 288.124 115.216 287.736 115.713 287.464C116.21 287.192 116.766 287.056 117.38 287.056C117.994 287.056 118.549 287.192 119.046 287.464C119.544 287.736 119.936 288.124 120.224 288.63C120.511 289.135 120.655 289.713 120.655 290.366C120.655 291.019 120.507 291.598 120.212 292.103C119.917 292.608 119.513 293 119 293.28C118.495 293.552 117.935 293.688 117.322 293.688ZM117.322 292.534C117.663 292.534 117.982 292.452 118.277 292.289C118.58 292.126 118.825 291.881 119.011 291.555C119.198 291.229 119.291 290.832 119.291 290.366C119.291 289.9 119.202 289.508 119.023 289.189C118.844 288.863 118.607 288.618 118.312 288.455C118.017 288.292 117.698 288.21 117.356 288.21C117.015 288.21 116.696 288.292 116.401 288.455C116.113 288.618 115.884 288.863 115.713 289.189C115.542 289.508 115.457 289.9 115.457 290.366C115.457 291.058 115.632 291.594 115.981 291.974C116.339 292.347 116.785 292.534 117.322 292.534ZM123.297 288.093C123.491 287.767 123.747 287.515 124.066 287.336C124.392 287.149 124.777 287.056 125.22 287.056V288.431H124.882C124.361 288.431 123.965 288.563 123.693 288.828C123.429 289.092 123.297 289.55 123.297 290.203V293.583H121.968V287.161H123.297V288.093ZM128.982 290.378L131.942 293.583H130.147L127.77 290.821V293.583H126.441V284.958H127.77V289.97L130.101 287.161H131.942L128.982 290.378ZM133.57 286.31C133.33 286.31 133.128 286.229 132.964 286.065C132.801 285.902 132.72 285.7 132.72 285.459C132.72 285.219 132.801 285.017 132.964 284.853C133.128 284.69 133.33 284.609 133.57 284.609C133.804 284.609 134.002 284.69 134.165 284.853C134.328 285.017 134.41 285.219 134.41 285.459C134.41 285.7 134.328 285.902 134.165 286.065C134.002 286.229 133.804 286.31 133.57 286.31ZM134.223 287.161V293.583H132.894V287.161H134.223ZM139.207 287.056C139.712 287.056 140.163 287.161 140.559 287.371C140.963 287.581 141.278 287.891 141.503 288.303C141.729 288.715 141.841 289.212 141.841 289.795V293.583H140.524V289.993C140.524 289.418 140.381 288.979 140.093 288.676C139.806 288.365 139.413 288.21 138.916 288.21C138.419 288.21 138.023 288.365 137.727 288.676C137.44 288.979 137.296 289.418 137.296 289.993V293.583H135.967V287.161H137.296V287.895C137.514 287.631 137.789 287.425 138.124 287.278C138.465 287.13 138.827 287.056 139.207 287.056ZM146.123 287.056C146.621 287.056 147.06 287.157 147.44 287.359C147.829 287.553 148.132 287.798 148.35 288.093V287.161H149.69V293.688C149.69 294.278 149.566 294.803 149.317 295.261C149.068 295.727 148.707 296.092 148.233 296.357C147.767 296.621 147.207 296.753 146.555 296.753C145.685 296.753 144.962 296.547 144.387 296.135C143.812 295.731 143.486 295.179 143.408 294.48H144.725C144.826 294.814 145.04 295.082 145.366 295.284C145.7 295.494 146.096 295.599 146.555 295.599C147.091 295.599 147.522 295.436 147.848 295.11C148.182 294.783 148.35 294.309 148.35 293.688V292.615C148.124 292.918 147.817 293.175 147.429 293.385C147.048 293.587 146.613 293.688 146.123 293.688C145.564 293.688 145.051 293.548 144.585 293.268C144.127 292.981 143.761 292.584 143.49 292.079C143.225 291.567 143.093 290.988 143.093 290.343C143.093 289.698 143.225 289.127 143.49 288.63C143.761 288.132 144.127 287.748 144.585 287.476C145.051 287.196 145.564 287.056 146.123 287.056ZM148.35 290.366C148.35 289.923 148.256 289.539 148.07 289.212C147.891 288.886 147.654 288.637 147.359 288.466C147.064 288.295 146.745 288.21 146.403 288.21C146.061 288.21 145.743 288.295 145.448 288.466C145.152 288.63 144.911 288.874 144.725 289.201C144.546 289.519 144.457 289.9 144.457 290.343C144.457 290.786 144.546 291.174 144.725 291.508C144.911 291.842 145.152 292.099 145.448 292.277C145.751 292.448 146.069 292.534 146.403 292.534C146.745 292.534 147.064 292.448 147.359 292.277C147.654 292.107 147.891 291.858 148.07 291.532C148.256 291.197 148.35 290.809 148.35 290.366ZM157.108 285.483C157.97 285.483 158.724 285.65 159.369 285.984C160.022 286.31 160.523 286.784 160.872 287.406C161.23 288.02 161.409 288.738 161.409 289.562C161.409 290.385 161.23 291.1 160.872 291.706C160.523 292.312 160.022 292.779 159.369 293.105C158.724 293.423 157.97 293.583 157.108 293.583H154.462V285.483H157.108ZM157.108 292.499C158.056 292.499 158.782 292.242 159.287 291.73C159.792 291.217 160.045 290.494 160.045 289.562C160.045 288.622 159.792 287.888 159.287 287.359C158.782 286.831 158.056 286.567 157.108 286.567H155.791V292.499H157.108ZM162.283 290.343C162.283 289.698 162.415 289.127 162.679 288.63C162.951 288.132 163.316 287.748 163.774 287.476C164.241 287.196 164.753 287.056 165.313 287.056C165.818 287.056 166.257 287.157 166.63 287.359C167.01 287.553 167.313 287.798 167.539 288.093V287.161H168.879V293.583H167.539V292.627C167.313 292.93 167.007 293.183 166.618 293.385C166.23 293.587 165.787 293.688 165.289 293.688C164.738 293.688 164.233 293.548 163.774 293.268C163.316 292.981 162.951 292.584 162.679 292.079C162.415 291.567 162.283 290.988 162.283 290.343ZM167.539 290.366C167.539 289.923 167.446 289.539 167.259 289.212C167.08 288.886 166.843 288.637 166.548 288.466C166.253 288.295 165.934 288.21 165.592 288.21C165.251 288.21 164.932 288.295 164.637 288.466C164.342 288.63 164.101 288.874 163.914 289.201C163.735 289.519 163.646 289.9 163.646 290.343C163.646 290.786 163.735 291.174 163.914 291.508C164.101 291.842 164.342 292.099 164.637 292.277C164.94 292.448 165.258 292.534 165.592 292.534C165.934 292.534 166.253 292.448 166.548 292.277C166.843 292.107 167.08 291.858 167.259 291.532C167.446 291.197 167.539 290.809 167.539 290.366ZM176.405 287.161L172.466 296.601H171.09L172.396 293.478L169.867 287.161H171.347L173.153 292.056L175.03 287.161H176.405ZM179.738 293.688C179.233 293.688 178.779 293.598 178.375 293.42C177.979 293.233 177.664 292.984 177.431 292.674C177.198 292.355 177.073 292.002 177.058 291.613H178.433C178.456 291.885 178.585 292.114 178.818 292.301C179.059 292.479 179.358 292.569 179.715 292.569C180.088 292.569 180.376 292.499 180.578 292.359C180.787 292.211 180.892 292.025 180.892 291.8C180.892 291.559 180.776 291.38 180.543 291.263C180.317 291.147 179.956 291.019 179.459 290.879C178.977 290.747 178.585 290.619 178.282 290.494C177.979 290.37 177.714 290.18 177.489 289.923C177.272 289.667 177.163 289.329 177.163 288.909C177.163 288.567 177.264 288.257 177.466 287.977C177.668 287.689 177.955 287.464 178.328 287.301C178.709 287.138 179.144 287.056 179.634 287.056C180.364 287.056 180.951 287.243 181.393 287.616C181.844 287.981 182.085 288.482 182.116 289.119H180.787C180.764 288.832 180.648 288.602 180.438 288.431C180.228 288.26 179.944 288.175 179.587 288.175C179.237 288.175 178.969 288.241 178.783 288.373C178.596 288.505 178.503 288.68 178.503 288.898C178.503 289.069 178.565 289.212 178.69 289.329C178.814 289.445 178.965 289.539 179.144 289.609C179.323 289.671 179.587 289.752 179.937 289.853C180.403 289.978 180.784 290.106 181.079 290.238C181.382 290.362 181.642 290.549 181.86 290.797C182.077 291.046 182.19 291.376 182.198 291.788C182.198 292.153 182.097 292.479 181.895 292.767C181.693 293.054 181.405 293.28 181.032 293.443C180.667 293.606 180.236 293.688 179.738 293.688Z" fill="#33475B"/>
<path d="M70.1367 339.044L335.863 339.044" stroke="#ECECEC" stroke-width="1.15634"/>
<rect x="61.196" y="236.678" width="283.608" height="31.867" rx="3.4475" fill="#FAFAFA" stroke="#EAEAEA" stroke-width="0.766112"/>
<path d="M114.367 249.421H114.288V249.285C114.288 249.086 114.121 248.921 113.919 248.921C113.718 248.921 113.551 249.086 113.551 249.285V249.421H109.234V249.285C109.234 249.086 109.072 248.921 108.865 248.921C108.664 248.921 108.496 249.086 108.496 249.285V249.421H108.418C107.346 249.421 106.476 250.28 106.476 251.339V256.715C106.476 257.773 107.346 258.633 108.418 258.633H114.367C115.439 258.633 116.309 257.773 116.309 256.715V251.339C116.309 250.28 115.439 249.421 114.367 249.421ZM108.442 257.161C108.172 257.161 107.951 256.948 107.951 256.676C107.951 256.409 108.172 256.19 108.442 256.19C108.713 256.19 108.934 256.409 108.934 256.676C108.934 256.948 108.713 257.161 108.442 257.161ZM108.442 255.472C108.172 255.472 107.951 255.253 107.951 254.986C107.951 254.714 108.172 254.5 108.442 254.5C108.713 254.5 108.934 254.714 108.934 254.986C108.934 255.253 108.713 255.472 108.442 255.472ZM108.442 253.777C108.172 253.777 107.951 253.558 107.951 253.291C107.951 253.024 108.172 252.806 108.442 252.806C108.713 252.806 108.934 253.024 108.934 253.291C108.934 253.558 108.713 253.777 108.442 253.777ZM110.409 257.161C110.139 257.161 109.917 256.948 109.917 256.676C109.917 256.409 110.139 256.19 110.409 256.19C110.679 256.19 110.901 256.409 110.901 256.676C110.901 256.948 110.679 257.161 110.409 257.161ZM110.409 255.472C110.139 255.472 109.917 255.253 109.917 254.986C109.917 254.714 110.139 254.5 110.409 254.5C110.679 254.5 110.901 254.714 110.901 254.986C110.901 255.253 110.679 255.472 110.409 255.472ZM110.409 253.777C110.139 253.777 109.917 253.558 109.917 253.291C109.917 253.024 110.139 252.806 110.409 252.806C110.679 252.806 110.901 253.024 110.901 253.291C110.901 253.558 110.679 253.777 110.409 253.777ZM112.376 257.161C112.105 257.161 111.884 256.948 111.884 256.676C111.884 256.409 112.105 256.19 112.376 256.19C112.646 256.19 112.867 256.409 112.867 256.676C112.867 256.948 112.646 257.161 112.376 257.161ZM112.376 255.472C112.105 255.472 111.884 255.253 111.884 254.986C111.884 254.714 112.105 254.5 112.376 254.5C112.646 254.5 112.867 254.714 112.867 254.986C112.867 255.253 112.646 255.472 112.376 255.472ZM112.376 253.777C112.105 253.777 111.884 253.558 111.884 253.291C111.884 253.024 112.105 252.806 112.376 252.806C112.646 252.806 112.867 253.024 112.867 253.291C112.867 253.558 112.646 253.777 112.376 253.777ZM114.342 255.472C114.072 255.472 113.851 255.253 113.851 254.986C113.851 254.714 114.072 254.5 114.342 254.5C114.613 254.5 114.834 254.714 114.834 254.986C114.834 255.253 114.613 255.472 114.342 255.472ZM114.342 253.777C114.072 253.777 113.851 253.558 113.851 253.291C113.851 253.024 114.072 252.806 114.342 252.806C114.613 252.806 114.834 253.024 114.834 253.291C114.834 253.558 114.613 253.777 114.342 253.777ZM115.571 251.422H107.213V251.339C107.213 250.683 107.754 250.149 108.418 250.149H108.496V250.285C108.496 250.489 108.664 250.649 108.865 250.649C109.072 250.649 109.234 250.489 109.234 250.285V250.149H113.551V250.285C113.551 250.489 113.718 250.649 113.919 250.649C114.121 250.649 114.288 250.489 114.288 250.285V250.149H114.367C115.031 250.149 115.571 250.683 115.571 251.339V251.422Z" fill="#667085"/>
<path d="M253.299 249.421H253.221V249.285C253.221 249.086 253.054 248.921 252.852 248.921C252.65 248.921 252.483 249.086 252.483 249.285V249.421H248.166V249.285C248.166 249.086 248.004 248.921 247.798 248.921C247.596 248.921 247.429 249.086 247.429 249.285V249.421H247.35C246.278 249.421 245.408 250.28 245.408 251.339V256.715C245.408 257.773 246.278 258.633 247.35 258.633H253.299C254.371 258.633 255.241 257.773 255.241 256.715V251.339C255.241 250.28 254.371 249.421 253.299 249.421ZM247.375 257.161C247.104 257.161 246.883 256.948 246.883 256.676C246.883 256.409 247.104 256.19 247.375 256.19C247.645 256.19 247.867 256.409 247.867 256.676C247.867 256.948 247.645 257.161 247.375 257.161ZM247.375 255.472C247.104 255.472 246.883 255.253 246.883 254.986C246.883 254.714 247.104 254.5 247.375 254.5C247.645 254.5 247.867 254.714 247.867 254.986C247.867 255.253 247.645 255.472 247.375 255.472ZM247.375 253.777C247.104 253.777 246.883 253.558 246.883 253.291C246.883 253.024 247.104 252.806 247.375 252.806C247.645 252.806 247.867 253.024 247.867 253.291C247.867 253.558 247.645 253.777 247.375 253.777ZM249.342 257.161C249.071 257.161 248.85 256.948 248.85 256.676C248.85 256.409 249.071 256.19 249.342 256.19C249.612 256.19 249.833 256.409 249.833 256.676C249.833 256.948 249.612 257.161 249.342 257.161ZM249.342 255.472C249.071 255.472 248.85 255.253 248.85 254.986C248.85 254.714 249.071 254.5 249.342 254.5C249.612 254.5 249.833 254.714 249.833 254.986C249.833 255.253 249.612 255.472 249.342 255.472ZM249.342 253.777C249.071 253.777 248.85 253.558 248.85 253.291C248.85 253.024 249.071 252.806 249.342 252.806C249.612 252.806 249.833 253.024 249.833 253.291C249.833 253.558 249.612 253.777 249.342 253.777ZM251.308 257.161C251.038 257.161 250.816 256.948 250.816 256.676C250.816 256.409 251.038 256.19 251.308 256.19C251.579 256.19 251.8 256.409 251.8 256.676C251.8 256.948 251.579 257.161 251.308 257.161ZM251.308 255.472C251.038 255.472 250.816 255.253 250.816 254.986C250.816 254.714 251.038 254.5 251.308 254.5C251.579 254.5 251.8 254.714 251.8 254.986C251.8 255.253 251.579 255.472 251.308 255.472ZM251.308 253.777C251.038 253.777 250.816 253.558 250.816 253.291C250.816 253.024 251.038 252.806 251.308 252.806C251.579 252.806 251.8 253.024 251.8 253.291C251.8 253.558 251.579 253.777 251.308 253.777ZM253.275 255.472C253.004 255.472 252.783 255.253 252.783 254.986C252.783 254.714 253.004 254.5 253.275 254.5C253.545 254.5 253.766 254.714 253.766 254.986C253.766 255.253 253.545 255.472 253.275 255.472ZM253.275 253.777C253.004 253.777 252.783 253.558 252.783 253.291C252.783 253.024 253.004 252.806 253.275 252.806C253.545 252.806 253.766 253.024 253.766 253.291C253.766 253.558 253.545 253.777 253.275 253.777ZM254.504 251.422H246.146V251.339C246.146 250.683 246.687 250.149 247.35 250.149H247.429V250.285C247.429 250.489 247.596 250.649 247.798 250.649C248.004 250.649 248.166 250.489 248.166 250.285V250.149H252.483V250.285C252.483 250.489 252.65 250.649 252.852 250.649C253.054 250.649 253.221 250.489 253.221 250.285V250.149H253.299C253.963 250.149 254.504 250.683 254.504 251.339V251.422Z" fill="#667085"/>
<path d="M125.986 250.225L128.434 249.258V256.95H127.245V250.878L125.986 251.332V250.225ZM134.188 254.584C134.188 253.826 133.664 253.232 132.93 253.197C132.184 253.162 131.519 253.791 131.519 254.491C131.519 255.26 132.125 255.877 132.836 255.877C133.582 255.912 134.188 255.341 134.188 254.584ZM133.046 252.043C134.351 252.043 135.389 253.139 135.389 254.642C135.33 256.041 134.247 257.066 132.79 257.066C131.426 257.066 130.412 256.041 130.284 254.444C130.098 252.078 130.47 249.141 133.104 249.234C133.979 249.269 134.806 249.549 135.33 250.703L134.247 251.169C133.967 250.575 133.512 250.353 133.058 250.353C131.997 250.353 131.298 251.472 131.426 252.906C131.741 252.334 132.289 252.043 133.046 252.043ZM136.817 254.735V253.651H140.884V254.735H136.817ZM142.393 253.162C142.393 250.994 142.988 249.234 145.179 249.234C147.381 249.234 147.952 250.994 147.952 253.162C147.952 255.306 147.381 257.066 145.179 257.066C142.988 257.066 142.393 255.306 142.393 253.162ZM143.582 253.162C143.582 254.665 143.908 255.901 145.179 255.901C146.437 255.901 146.764 254.665 146.764 253.162C146.764 251.658 146.437 250.423 145.179 250.423C143.908 250.423 143.582 251.658 143.582 253.162ZM151.07 251.227C151.07 251.74 151.466 252.113 152.038 252.113C152.585 252.101 152.958 251.705 152.958 251.227C152.958 250.761 152.562 250.376 152.014 250.376C151.466 250.376 151.07 250.761 151.07 251.227ZM150.511 254.526C150.511 255.295 151.175 255.912 152.014 255.912C152.853 255.912 153.506 255.295 153.506 254.526C153.506 253.791 152.877 253.15 152.049 253.15H151.921C151.117 253.15 150.511 253.815 150.511 254.526ZM149.905 251.216C149.905 250.132 150.814 249.223 152.014 249.223C153.215 249.223 154.147 250.132 154.147 251.216C154.147 251.763 153.914 252.218 153.553 252.544C154.264 252.975 154.706 253.698 154.706 254.537C154.706 255.947 153.518 257.066 152.014 257.066C150.499 257.066 149.322 255.947 149.322 254.537C149.322 253.686 149.765 252.964 150.464 252.544C150.126 252.218 149.905 251.763 149.905 251.216ZM156.109 254.735V253.651H160.176V254.735H156.109ZM166.257 256.95H161.49V256.379L164.59 252.649C164.905 252.276 165.115 251.903 165.115 251.495C165.115 250.843 164.567 250.4 163.856 250.4C163.203 250.4 162.655 250.854 162.562 251.565L161.42 251.32C161.63 250.027 162.632 249.223 163.879 249.223C165.219 249.223 166.303 250.143 166.303 251.495C166.303 252.241 165.977 252.906 165.476 253.453C164.602 254.479 164.427 254.665 163.495 255.784H166.257V256.95ZM167.751 253.162C167.751 250.994 168.346 249.234 170.537 249.234C172.739 249.234 173.31 250.994 173.31 253.162C173.31 255.306 172.739 257.066 170.537 257.066C168.346 257.066 167.751 255.306 167.751 253.162ZM168.94 253.162C168.94 254.665 169.266 255.901 170.537 255.901C171.795 255.901 172.122 254.665 172.122 253.162C172.122 251.658 171.795 250.423 170.537 250.423C169.266 250.423 168.94 251.658 168.94 253.162ZM179.493 256.95H174.727V256.379L177.827 252.649C178.141 252.276 178.351 251.903 178.351 251.495C178.351 250.843 177.803 250.4 177.093 250.4C176.44 250.4 175.892 250.854 175.799 251.565L174.657 251.32C174.867 250.027 175.869 249.223 177.116 249.223C178.456 249.223 179.54 250.143 179.54 251.495C179.54 252.241 179.214 252.906 178.713 253.453C177.838 254.479 177.664 254.665 176.731 255.784H179.493V256.95ZM183.249 253.453H182.398V252.346H183.249C183.855 252.346 184.17 251.857 184.228 251.484C184.274 251.146 184.193 250.714 183.668 250.493C183.494 250.411 183.319 250.411 183.144 250.411C182.678 250.4 182.34 250.621 182.072 251.006L181.163 250.342C181.582 249.607 182.433 249.164 183.4 249.223C184.671 249.281 185.545 250.26 185.545 251.332C185.545 251.938 185.172 252.509 184.624 252.836C185.405 253.115 185.848 254.024 185.848 254.829C185.848 256.239 184.706 257.066 183.191 257.066C182.002 257.066 181.116 256.402 180.708 255.528L181.757 254.968C181.979 255.47 182.666 255.901 183.191 255.901H183.179C184.158 255.901 184.612 255.388 184.612 254.735C184.612 254.129 184.146 253.453 183.249 253.453Z" fill="#3F4450"/>
<path d="M268.415 250.225L270.863 249.258V256.95H269.674V250.878L268.415 251.332V250.225ZM274.321 251.227C274.321 251.74 274.718 252.113 275.289 252.113C275.836 252.101 276.209 251.705 276.209 251.227C276.209 250.761 275.813 250.376 275.265 250.376C274.718 250.376 274.321 250.761 274.321 251.227ZM273.762 254.526C273.762 255.295 274.426 255.912 275.265 255.912C276.104 255.912 276.757 255.295 276.757 254.526C276.757 253.791 276.128 253.15 275.3 253.15H275.172C274.368 253.15 273.762 253.815 273.762 254.526ZM273.156 251.216C273.156 250.132 274.065 249.223 275.265 249.223C276.466 249.223 277.398 250.132 277.398 251.216C277.398 251.763 277.165 252.218 276.804 252.544C277.515 252.975 277.958 253.698 277.958 254.537C277.958 255.947 276.769 257.066 275.265 257.066C273.75 257.066 272.573 255.947 272.573 254.537C272.573 253.686 273.016 252.964 273.715 252.544C273.377 252.218 273.156 251.763 273.156 251.216ZM279.36 254.735V253.651H283.427V254.735H279.36ZM284.936 253.162C284.936 250.994 285.53 249.234 287.721 249.234C289.924 249.234 290.495 250.994 290.495 253.162C290.495 255.306 289.924 257.066 287.721 257.066C285.53 257.066 284.936 255.306 284.936 253.162ZM286.125 253.162C286.125 254.665 286.451 255.901 287.721 255.901C288.98 255.901 289.306 254.665 289.306 253.162C289.306 251.658 288.98 250.423 287.721 250.423C286.451 250.423 286.125 251.658 286.125 253.162ZM293.613 251.227C293.613 251.74 294.009 252.113 294.58 252.113C295.128 252.101 295.501 251.705 295.501 251.227C295.501 250.761 295.105 250.376 294.557 250.376C294.009 250.376 293.613 250.761 293.613 251.227ZM293.054 254.526C293.054 255.295 293.718 255.912 294.557 255.912C295.396 255.912 296.049 255.295 296.049 254.526C296.049 253.791 295.419 253.15 294.592 253.15H294.464C293.66 253.15 293.054 253.815 293.054 254.526ZM292.447 251.216C292.447 250.132 293.357 249.223 294.557 249.223C295.757 249.223 296.69 250.132 296.69 251.216C296.69 251.763 296.457 252.218 296.095 252.544C296.806 252.975 297.249 253.698 297.249 254.537C297.249 255.947 296.06 257.066 294.557 257.066C293.042 257.066 291.865 255.947 291.865 254.537C291.865 253.686 292.308 252.964 293.007 252.544C292.669 252.218 292.447 251.763 292.447 251.216ZM298.651 254.735V253.651H302.719V254.735H298.651ZM308.799 256.95H304.033V256.379L307.133 252.649C307.447 252.276 307.657 251.903 307.657 251.495C307.657 250.843 307.11 250.4 306.399 250.4C305.746 250.4 305.198 250.854 305.105 251.565L303.963 251.32C304.173 250.027 305.175 249.223 306.422 249.223C307.762 249.223 308.846 250.143 308.846 251.495C308.846 252.241 308.52 252.906 308.019 253.453C307.144 254.479 306.97 254.665 306.037 255.784H308.799V256.95ZM310.294 253.162C310.294 250.994 310.888 249.234 313.079 249.234C315.282 249.234 315.853 250.994 315.853 253.162C315.853 255.306 315.282 257.066 313.079 257.066C310.888 257.066 310.294 255.306 310.294 253.162ZM311.483 253.162C311.483 254.665 311.809 255.901 313.079 255.901C314.338 255.901 314.664 254.665 314.664 253.162C314.664 251.658 314.338 250.423 313.079 250.423C311.809 250.423 311.483 251.658 311.483 253.162ZM322.036 256.95H317.269V256.379L320.37 252.649C320.684 252.276 320.894 251.903 320.894 251.495C320.894 250.843 320.346 250.4 319.635 250.4C318.983 250.4 318.435 250.854 318.342 251.565L317.199 251.32C317.409 250.027 318.412 249.223 319.659 249.223C320.999 249.223 322.083 250.143 322.083 251.495C322.083 252.241 321.756 252.906 321.255 253.453C320.381 254.479 320.206 254.665 319.274 255.784H322.036V256.95ZM325.792 253.453H324.941V252.346H325.792C326.398 252.346 326.712 251.857 326.771 251.484C326.817 251.146 326.736 250.714 326.211 250.493C326.036 250.411 325.862 250.411 325.687 250.411C325.221 250.4 324.883 250.621 324.614 251.006L323.705 250.342C324.125 249.607 324.976 249.164 325.943 249.223C327.213 249.281 328.088 250.26 328.088 251.332C328.088 251.938 327.715 252.509 327.167 252.836C327.948 253.115 328.391 254.024 328.391 254.829C328.391 256.239 327.248 257.066 325.733 257.066C324.545 257.066 323.659 256.402 323.251 255.528L324.3 254.968C324.521 255.47 325.209 255.901 325.733 255.901H325.722C326.701 255.901 327.155 255.388 327.155 254.735C327.155 254.129 326.689 253.453 325.792 253.453Z" fill="#3F4450"/>
<path d="M72.3977 248.92H77.0829V249.934H73.4816V252.498H76.337V253.512H73.4816V256.95H72.3977V248.92ZM78.962 254.968V256.95H77.9014V251.507H78.962V252.731C79.2417 251.763 79.7662 251.39 80.4771 251.39C80.8617 251.39 81.2696 251.495 81.4211 251.6L81.258 252.591C80.9666 252.451 80.6752 252.404 80.4538 252.404C79.4049 252.404 78.962 253.523 78.962 254.968ZM84.8454 257.066C83.2954 257.066 82.0017 255.936 82.0017 254.211C82.0017 252.486 83.2954 251.39 84.8454 251.39C86.3955 251.39 87.7008 252.486 87.7008 254.211C87.7008 255.936 86.3955 257.066 84.8454 257.066ZM84.8454 256.041C85.8128 256.041 86.6403 255.33 86.6403 254.211C86.6403 253.115 85.8128 252.428 84.8454 252.428C83.8548 252.428 83.0506 253.115 83.0506 254.211C83.0506 255.33 83.8548 256.041 84.8454 256.041ZM95.3708 252.428C94.4734 252.428 93.9256 253.104 93.9256 254.013V256.95H92.865V253.861C92.865 252.964 92.3988 252.428 91.6879 252.428C90.9304 252.428 90.1728 252.871 90.1728 254.013V256.95H89.1122V251.507H90.1728V252.323C90.4525 251.717 91.2334 251.449 91.6763 251.414C91.886 251.402 92.0842 251.414 92.2706 251.449C92.9583 251.554 93.4361 251.915 93.6925 252.509C94.1937 251.542 95.0561 251.39 95.5806 251.39C96.9442 251.39 97.6784 252.265 97.6784 253.803V256.95H96.6178V253.873C96.6178 252.975 96.1633 252.428 95.3708 252.428Z" fill="#667085"/>
<path d="M222.375 248.92H228.342V249.945H225.907V256.95H224.811V249.945H222.375V248.92ZM230.983 257.066C229.433 257.066 228.139 255.936 228.139 254.211C228.139 252.486 229.433 251.39 230.983 251.39C232.533 251.39 233.838 252.486 233.838 254.211C233.838 255.936 232.533 257.066 230.983 257.066ZM230.983 256.041C231.95 256.041 232.777 255.33 232.777 254.211C232.777 253.115 231.95 252.428 230.983 252.428C229.992 252.428 229.188 253.115 229.188 254.211C229.188 255.33 229.992 256.041 230.983 256.041Z" fill="#667085"/>
<line x1="203.383" y1="240.957" x2="203.383" y2="264.706" stroke="#E7E7E7" stroke-width="0.766112"/>
<rect x="61.0437" y="194.569" width="283.913" height="29.8407" rx="2.0765" fill="#FAFAFA" stroke="#EAEAEA" stroke-width="0.461445"/>
<path d="M76.7449 209.364L79.577 203.466H80.5676L81.5466 211.496H80.4744L79.7401 205.459L77.2344 210.611H76.2787L73.7496 205.459L73.0154 211.496H71.9432L72.9222 203.466H73.9128L76.7449 209.364ZM85.4828 211.613C83.9327 211.613 82.6391 210.482 82.6391 208.757C82.6391 207.033 83.9327 205.937 85.4828 205.937C87.0329 205.937 88.3382 207.033 88.3382 208.757C88.3382 210.482 87.0329 211.613 85.4828 211.613ZM85.4828 210.587C86.4501 210.587 87.2776 209.876 87.2776 208.757C87.2776 207.662 86.4501 206.974 85.4828 206.974C84.4922 206.974 83.688 207.662 83.688 208.757C83.688 209.876 84.4922 210.587 85.4828 210.587ZM90.8102 209.515V211.496H89.7496V206.054H90.8102V207.277C91.0899 206.31 91.6143 205.937 92.3253 205.937C92.7099 205.937 93.1178 206.042 93.2693 206.147L93.1061 207.137C92.8148 206.998 92.5234 206.951 92.302 206.951C91.253 206.951 90.8102 208.07 90.8102 209.515ZM95.4083 208.559V211.496H94.3477V206.054H95.4083V206.869C95.723 206.217 96.5155 205.937 97.1099 205.937C98.4735 205.937 99.2077 206.811 99.2077 208.35V211.496H98.1472V208.42C98.1472 207.499 97.6926 206.974 96.9467 206.974C96.1775 206.974 95.4083 207.406 95.4083 208.559ZM101.964 206.054V211.496H100.915V206.054H101.964ZM100.705 204.049C100.705 203.641 101.031 203.361 101.439 203.361C101.847 203.361 102.174 203.641 102.174 204.049C102.174 204.457 101.847 204.737 101.439 204.737C101.031 204.737 100.705 204.457 100.705 204.049ZM104.798 208.559V211.496H103.737V206.054H104.798V206.869C105.113 206.217 105.905 205.937 106.5 205.937C107.863 205.937 108.597 206.811 108.597 208.35V211.496H107.537V208.42C107.537 207.499 107.082 206.974 106.336 206.974C105.567 206.974 104.798 207.406 104.798 208.559ZM111.12 212.277C111.447 212.883 112.088 213.21 112.694 213.21C113.871 213.21 114.629 212.545 114.629 210.739C114.629 210.692 114.617 210.657 114.617 210.611C114.279 211.263 113.475 211.613 112.705 211.613C111.214 211.613 109.943 210.517 109.943 208.792C109.943 207.068 111.214 205.937 112.705 205.937C113.463 205.937 114.244 206.287 114.617 206.904V206.054H115.666V210.669C115.666 213.233 114.5 214.212 112.694 214.212C111.68 214.212 110.759 213.711 110.235 212.743C110.363 212.673 110.981 212.335 111.12 212.277ZM114.605 208.781C114.605 207.615 113.766 206.974 112.799 206.974C111.82 206.974 111.027 207.72 111.027 208.781C111.027 209.9 111.82 210.576 112.799 210.576C113.684 210.576 114.605 209.946 114.605 208.781ZM120.177 209.177H121.261C121.261 209.876 121.972 210.599 122.986 210.599C124.012 210.599 124.513 210.028 124.606 209.422C124.664 208.559 123.965 208.151 123.242 207.988L122.205 207.732C120.492 207.301 120.247 206.333 120.247 205.634C120.247 204.282 121.483 203.373 122.846 203.373C124.303 203.373 125.433 204.282 125.433 205.727H124.35C124.35 204.923 123.72 204.41 122.834 204.41C122.042 204.41 121.331 204.888 121.331 205.622C121.331 205.972 121.459 206.496 122.473 206.741L123.522 206.998C125.026 207.382 125.841 208.221 125.667 209.515C125.515 210.681 124.571 211.613 122.986 211.613C121.354 211.613 120.177 210.436 120.177 209.177ZM128.198 208.559V211.496H127.138V203.093H128.198V206.869C128.513 206.217 129.411 205.937 129.993 205.937C131.357 205.937 132.208 206.811 132.196 208.35V211.496H131.135V208.42C131.135 207.522 130.599 206.974 129.853 206.974C129.108 206.974 128.198 207.394 128.198 208.559ZM134.947 206.054V211.496H133.899V206.054H134.947ZM133.689 204.049C133.689 203.641 134.015 203.361 134.423 203.361C134.831 203.361 135.157 203.641 135.157 204.049C135.157 204.457 134.831 204.737 134.423 204.737C134.015 204.737 133.689 204.457 133.689 204.049ZM139.88 203.093V204.107H139.285C138.399 204.107 138.271 204.807 138.271 205.506V206.054H139.53V206.951H138.271V211.496H137.199V206.951H136.15V206.054H137.199V205.506C137.199 204.072 137.817 203.093 139.285 203.093H139.88ZM142.185 206.054H143.338V206.951H142.185V211.496H141.124V206.951H140.145V206.054H141.124V204.002H142.185V206.054Z" fill="#687888"/>
<path d="M325.374 207.158L328.288 210.072L331.201 207.158" stroke="#33475B" stroke-width="0.692167" stroke-linecap="round"/>
<path d="M62.5612 177.698H63.7966C63.8315 178.351 64.4259 179.015 65.3932 179.015C66.3373 179.015 66.8268 178.514 66.9084 177.919C66.955 177.173 66.3839 176.789 65.638 176.614L64.624 176.358C62.8991 175.891 62.6311 174.912 62.6311 174.201C62.6311 172.826 63.8665 171.905 65.2767 171.905C66.7685 171.905 67.8873 172.815 67.8873 174.283H66.6519C66.6519 173.537 66.0925 173.071 65.2534 173.071C64.5075 173.071 63.8665 173.525 63.8665 174.178C63.8665 174.493 63.983 174.982 64.9387 175.227L65.9643 175.495C67.596 175.926 68.2603 176.824 68.1321 177.989C68.0039 179.248 66.92 180.145 65.3932 180.145C63.7266 180.145 62.5612 179.003 62.5612 177.698ZM70.7103 177.103V180.029H69.5099V171.626H70.7103V175.414C71.025 174.749 71.8641 174.47 72.4352 174.47C73.8338 174.47 74.638 175.379 74.638 176.929V180.029H73.4375V176.999C73.4375 176.148 72.9131 175.647 72.2254 175.647C71.5378 175.647 70.7103 176.031 70.7103 177.103ZM77.4365 174.586V180.029H76.2478V174.586H77.4365ZM76.038 172.383C76.038 171.952 76.4109 171.626 76.8421 171.626C77.2967 171.626 77.6347 171.952 77.6347 172.383C77.6347 172.815 77.2967 173.141 76.8421 173.141C76.4109 173.141 76.038 172.815 76.038 172.383ZM82.3792 171.626V172.78H81.7848C80.9923 172.78 80.8175 173.386 80.8175 174.085V174.586H82.0412V175.577H80.8175V180.029H79.6054V175.577H78.5681V174.586H79.6054V174.085C79.6054 172.593 80.293 171.626 81.7848 171.626H82.3792ZM84.788 172.523V174.586H85.9418V175.577H84.788V180.029H83.5876V175.577H82.6086V174.586H83.5876V172.523H84.788Z" fill="#33475B"/>
<rect x="61.0437" y="129.303" width="283.913" height="29.8407" rx="2.0765" fill="#FAFAFA" stroke="#EAEAEA" stroke-width="0.461445"/>
<path d="M75.7659 143.188L77.9104 146.23H76.5934L74.5188 143.223H73.4932V146.23H72.3977V138.2H75.4862C77.1761 138.2 77.8637 139.459 77.8637 140.718C77.8637 141.906 77.2693 143.06 75.7659 143.188ZM75.4512 139.214H73.4932V142.209H75.4046C76.3836 142.209 76.7449 141.463 76.7449 140.718C76.7449 139.983 76.3836 139.214 75.4512 139.214ZM81.6358 146.347C80.0858 146.347 78.7921 145.216 78.7921 143.491C78.7921 141.766 80.0858 140.671 81.6358 140.671C83.1859 140.671 84.4912 141.766 84.4912 143.491C84.4912 145.216 83.1859 146.347 81.6358 146.347ZM81.6358 145.321C82.6032 145.321 83.4307 144.61 83.4307 143.491C83.4307 142.396 82.6032 141.708 81.6358 141.708C80.6452 141.708 79.841 142.396 79.841 143.491C79.841 144.61 80.6452 145.321 81.6358 145.321ZM86.9632 143.293V146.23H85.9026V137.827H86.9632V141.603C87.2779 140.951 88.1753 140.671 88.758 140.671C90.1216 140.671 90.9724 141.545 90.9608 143.083V146.23H89.9002V143.153C89.9002 142.256 89.3641 141.708 88.6182 141.708C87.8723 141.708 86.9632 142.128 86.9632 143.293ZM93.7122 140.787V146.23H92.6633V140.787H93.7122ZM92.4535 138.783C92.4535 138.375 92.7798 138.095 93.1877 138.095C93.5956 138.095 93.922 138.375 93.922 138.783C93.922 139.191 93.5956 139.471 93.1877 139.471C92.7798 139.471 92.4535 139.191 92.4535 138.783ZM96.9544 140.787H98.1082V141.685H96.9544V146.23H95.8938V141.685H94.9148V140.787H95.8938V138.736H96.9544V140.787ZM101.842 143.911H102.925C102.925 144.61 103.636 145.333 104.65 145.333C105.676 145.333 106.177 144.762 106.27 144.156C106.329 143.293 105.629 142.885 104.907 142.722L103.87 142.466C102.156 142.035 101.912 141.067 101.912 140.368C101.912 139.016 103.147 138.107 104.511 138.107C105.967 138.107 107.098 139.016 107.098 140.461H106.014C106.014 139.657 105.385 139.144 104.499 139.144C103.706 139.144 102.995 139.622 102.995 140.356C102.995 140.706 103.124 141.23 104.138 141.475L105.186 141.732C106.69 142.116 107.506 142.955 107.331 144.249C107.179 145.414 106.235 146.347 104.65 146.347C103.019 146.347 101.842 145.17 101.842 143.911ZM113.114 146.23V145.391C112.753 145.997 111.961 146.347 111.203 146.347C109.711 146.347 108.441 145.228 108.441 143.503C108.441 141.766 109.711 140.671 111.203 140.671C111.961 140.671 112.742 140.986 113.114 141.603V140.787H114.163V146.23H113.114ZM113.103 143.491C113.103 142.326 112.182 141.708 111.296 141.708C110.317 141.708 109.525 142.419 109.525 143.491C109.525 144.564 110.317 145.31 111.296 145.31C112.264 145.31 113.103 144.645 113.103 143.491ZM116.987 140.787V146.23H115.938V140.787H116.987ZM115.729 138.783C115.729 138.375 116.055 138.095 116.463 138.095C116.871 138.095 117.197 138.375 117.197 138.783C117.197 139.191 116.871 139.471 116.463 139.471C116.055 139.471 115.729 139.191 115.729 138.783ZM119.822 143.293V146.23H118.761V140.787H119.822V141.603C120.136 140.951 120.929 140.671 121.523 140.671C122.887 140.671 123.621 141.545 123.621 143.083V146.23H122.561V143.153C122.561 142.233 122.106 141.708 121.36 141.708C120.591 141.708 119.822 142.139 119.822 143.293ZM126.377 140.787V146.23H125.328V140.787H126.377ZM125.118 138.783C125.118 138.375 125.445 138.095 125.853 138.095C126.261 138.095 126.587 138.375 126.587 138.783C126.587 139.191 126.261 139.471 125.853 139.471C125.445 139.471 125.118 139.191 125.118 138.783Z" fill="#687888"/>
<path d="M68.8663 106.733V114.763H67.7125L64.2627 109.017V114.763H63.0273V106.733H64.2161L67.6309 112.432V106.733H68.8663ZM74.8676 114.763V113.982C74.4946 114.576 73.7371 114.879 73.0378 114.879C71.581 114.879 70.2756 113.772 70.2756 112.036C70.2756 110.299 71.581 109.203 73.0378 109.203C73.6905 109.203 74.4946 109.471 74.8676 110.089V109.32H76.0564V114.763H74.8676ZM71.511 112.024C71.511 113.026 72.2802 113.714 73.1777 113.714C74.0634 113.714 74.8559 113.096 74.8559 112.024C74.8559 110.963 73.9935 110.369 73.1777 110.369C72.2802 110.369 71.511 111.022 71.511 112.024ZM83.939 110.381C83.1465 110.381 82.622 110.952 82.622 111.837V114.763H81.4216V111.709C81.41 110.87 80.9671 110.381 80.3144 110.381C79.6151 110.381 78.9392 110.765 78.9392 111.837V114.763H77.7387V109.32H78.9392V110.136C79.3121 109.39 80.2095 109.203 80.6524 109.203C81.5265 109.203 82.051 109.588 82.3656 110.287C82.8668 109.343 83.7059 109.203 84.1954 109.203C85.5474 109.203 86.2933 110.078 86.2933 111.628V114.763H85.0928V111.732C85.0928 110.882 84.6383 110.381 83.939 110.381ZM93.0885 112.024C93.0885 112.152 93.0885 112.339 93.0768 112.467H88.7529C88.8811 113.306 89.5338 113.83 90.4196 113.83C91.0256 113.83 91.62 113.551 91.8997 113.049L92.8787 113.481C92.4125 114.448 91.3753 114.879 90.3613 114.879C88.8229 114.879 87.5642 113.749 87.5642 112.024C87.5642 110.299 88.8229 109.203 90.3613 109.203C91.8997 109.203 93.0885 110.299 93.0885 112.024ZM88.7529 111.593H91.9114C91.7832 110.742 91.1888 110.252 90.3613 110.252C89.5222 110.252 88.8811 110.753 88.7529 111.593Z" fill="#33475B"/>
<path d="M70.0248 73.9995H64.5984L63.666 76.6475H61.447L66.0902 63.6688H68.5517L73.1949 76.6475H70.9572L70.0248 73.9995ZM69.4281 72.2653L67.3209 66.2422L65.1951 72.2653H69.4281ZM74.5052 71.4635C74.5052 70.4316 74.7165 69.5179 75.1392 68.7223C75.5743 67.9267 76.1586 67.3113 76.892 66.8762C77.6379 66.4286 78.4646 66.2049 79.3722 66.2049C80.0435 66.2049 80.7023 66.3541 81.3488 66.6524C82.0077 66.9383 82.5298 67.3237 82.9152 67.8086V62.8483H85.0596V76.6475H82.9152V75.0997C82.5671 75.597 82.0823 76.0072 81.4607 76.3305C80.8515 76.6537 80.1491 76.8153 79.3535 76.8153C78.4584 76.8153 77.6379 76.5915 76.892 76.144C76.1586 75.684 75.5743 75.05 75.1392 74.2419C74.7165 73.4214 74.5052 72.4953 74.5052 71.4635ZM82.9152 71.5008C82.9152 70.7922 82.766 70.1768 82.4676 69.6547C82.1817 69.1325 81.8025 68.7347 81.3301 68.4612C80.8577 68.1877 80.348 68.051 79.801 68.051C79.2541 68.051 78.7444 68.1877 78.272 68.4612C77.7996 68.7223 77.4142 69.1139 77.1158 69.636C76.8299 70.1457 76.6869 70.7549 76.6869 71.4635C76.6869 72.1721 76.8299 72.7936 77.1158 73.3282C77.4142 73.8628 77.7996 74.273 78.272 74.5589C78.7568 74.8324 79.2665 74.9692 79.801 74.9692C80.348 74.9692 80.8577 74.8324 81.3301 74.5589C81.8025 74.2854 82.1817 73.8876 82.4676 73.3655C82.766 72.8309 82.9152 72.2094 82.9152 71.5008ZM87.1432 71.4635C87.1432 70.4316 87.3545 69.5179 87.7772 68.7223C88.2123 67.9267 88.7966 67.3113 89.5301 66.8762C90.276 66.4286 91.1027 66.2049 92.0102 66.2049C92.6815 66.2049 93.3404 66.3541 93.9868 66.6524C94.6457 66.9383 95.1678 67.3237 95.5532 67.8086V62.8483H97.6977V76.6475H95.5532V75.0997C95.2051 75.597 94.7203 76.0072 94.0987 76.3305C93.4896 76.6537 92.7872 76.8153 91.9915 76.8153C91.0965 76.8153 90.276 76.5915 89.5301 76.144C88.7966 75.684 88.2123 75.05 87.7772 74.2419C87.3545 73.4214 87.1432 72.4953 87.1432 71.4635ZM95.5532 71.5008C95.5532 70.7922 95.404 70.1768 95.1057 69.6547C94.8197 69.1325 94.4406 68.7347 93.9682 68.4612C93.4958 68.1877 92.9861 68.051 92.4391 68.051C91.8921 68.051 91.3824 68.1877 90.91 68.4612C90.4376 68.7223 90.0522 69.1139 89.7538 69.636C89.4679 70.1457 89.325 70.7549 89.325 71.4635C89.325 72.1721 89.4679 72.7936 89.7538 73.3282C90.0522 73.8628 90.4376 74.273 90.91 74.5589C91.3948 74.8324 91.9045 74.9692 92.4391 74.9692C92.9861 74.9692 93.4958 74.8324 93.9682 74.5589C94.4406 74.2854 94.8197 73.8876 95.1057 73.3655C95.404 72.8309 95.5532 72.2094 95.5532 71.5008ZM109.604 76.778C108.734 76.778 107.951 76.6288 107.255 76.3305C106.558 76.0197 106.011 75.5846 105.614 75.0251C105.216 74.4657 105.017 73.813 105.017 73.0671H107.292C107.342 73.6266 107.559 74.0865 107.944 74.4471C108.342 74.8076 108.895 74.9878 109.604 74.9878C110.338 74.9878 110.909 74.8138 111.32 74.4657C111.73 74.1052 111.935 73.6452 111.935 73.0858C111.935 72.6507 111.804 72.2964 111.543 72.0229C111.295 71.7494 110.978 71.5381 110.592 71.3889C110.219 71.2397 109.697 71.0781 109.026 70.904C108.181 70.6803 107.491 70.4565 106.956 70.2327C106.434 69.9965 105.986 69.636 105.614 69.1512C105.241 68.6663 105.054 68.0199 105.054 67.2118C105.054 66.4659 105.241 65.8133 105.614 65.2538C105.986 64.6944 106.509 64.2655 107.18 63.9672C107.851 63.6688 108.628 63.5196 109.511 63.5196C110.766 63.5196 111.792 63.8366 112.588 64.4707C113.396 65.0922 113.843 65.95 113.93 67.044H111.581C111.543 66.5716 111.32 66.1676 110.909 65.8319C110.499 65.4963 109.958 65.3284 109.287 65.3284C108.678 65.3284 108.181 65.4838 107.795 65.7946C107.41 66.1054 107.217 66.553 107.217 67.1372C107.217 67.5351 107.335 67.8645 107.572 68.1256C107.82 68.3742 108.131 68.5731 108.504 68.7223C108.877 68.8715 109.387 69.0331 110.033 69.2071C110.891 69.4433 111.587 69.6795 112.122 69.9157C112.668 70.1519 113.128 70.5187 113.501 71.0159C113.887 71.5008 114.079 72.1534 114.079 72.9739C114.079 73.6328 113.899 74.2544 113.539 74.8387C113.191 75.4229 112.675 75.8953 111.991 76.2559C111.32 76.604 110.524 76.778 109.604 76.778ZM121.902 66.2049C122.686 66.2049 123.382 66.3727 123.991 66.7084C124.612 67.044 125.097 67.5413 125.445 68.2002C125.806 68.859 125.986 69.6547 125.986 70.587V76.6475H123.879V70.904C123.879 69.9841 123.649 69.2817 123.189 68.7969C122.729 68.2996 122.101 68.051 121.306 68.051C120.51 68.051 119.876 68.2996 119.404 68.7969C118.944 69.2817 118.714 69.9841 118.714 70.904V76.6475H116.588V62.8483H118.714V67.5661C119.074 67.131 119.528 66.7954 120.075 66.5592C120.634 66.323 121.244 66.2049 121.902 66.2049ZM129.779 65.0114C129.394 65.0114 129.071 64.8809 128.81 64.6198C128.549 64.3588 128.418 64.0355 128.418 63.6502C128.418 63.2648 128.549 62.9416 128.81 62.6805C129.071 62.4194 129.394 62.2889 129.779 62.2889C130.152 62.2889 130.469 62.4194 130.73 62.6805C130.991 62.9416 131.122 63.2648 131.122 63.6502C131.122 64.0355 130.991 64.3588 130.73 64.6198C130.469 64.8809 130.152 65.0114 129.779 65.0114ZM130.824 66.3727V76.6475H128.698V66.3727H130.824ZM137.922 68.1069H136.02V76.6475H133.876V68.1069H132.664V66.3727H133.876V65.6454C133.876 64.4644 134.186 63.6067 134.808 63.0721C135.442 62.5251 136.43 62.2516 137.773 62.2516V64.0231C137.127 64.0231 136.673 64.1474 136.412 64.3961C136.151 64.6323 136.02 65.0487 136.02 65.6454V66.3727H137.922V68.1069ZM142.286 68.1069V73.7944C142.286 74.1798 142.373 74.4595 142.547 74.6335C142.734 74.7951 143.045 74.876 143.48 74.876H144.785V76.6475H143.107C142.15 76.6475 141.416 76.4237 140.906 75.9762C140.397 75.5286 140.142 74.8014 140.142 73.7944V68.1069H138.93V66.3727H140.142V63.818H142.286V66.3727H144.785V68.1069H142.286Z" fill="#3F4450"/>
<defs>
<filter id="filter0_d_417_544" x="0.208633" y="0.870504" width="405.583" height="498.939" filterUnits="userSpaceOnUse" color-interpolation-filters="sRGB">
<feFlood flood-opacity="0" result="BackgroundImageFix"/>
<feColorMatrix in="SourceAlpha" type="matrix" values="0 0 0 0 0 0 0 0 0 0 0 0 0 0 0 0 0 0 127 0" result="hardAlpha"/>
<feOffset dy="4.66187"/>
<feGaussianBlur stdDeviation="20.3957"/>
<feComposite in2="hardAlpha" operator="out"/>
<feColorMatrix type="matrix" values="0 0 0 0 0.607843 0 0 0 0 0.6 0 0 0 0 0.6 0 0 0 0.35 0"/>
<feBlend mode="normal" in2="BackgroundImageFix" result="effect1_dropShadow_417_544"/>
<feBlend mode="normal" in="SourceGraphic" in2="effect1_dropShadow_417_544" result="shape"/>
</filter>
<filter id="filter1_d_417_544" x="56.6254" y="299.977" width="293.915" height="79.4688" filterUnits="userSpaceOnUse" color-interpolation-filters="sRGB">
<feFlood flood-opacity="0" result="BackgroundImageFix"/>
<feColorMatrix in="SourceAlpha" type="matrix" values="0 0 0 0 0 0 0 0 0 0 0 0 0 0 0 0 0 0 127 0" result="hardAlpha"/>
<feMorphology radius="1.42676" operator="dilate" in="SourceAlpha" result="effect1_dropShadow_417_544"/>
<feOffset dy="1.25074"/>
<feGaussianBlur stdDeviation="1.96314"/>
<feComposite in2="hardAlpha" operator="out"/>
<feColorMatrix type="matrix" values="0 0 0 0 0 0 0 0 0 0 0 0 0 0 0 0 0 0 0.12 0"/>
<feBlend mode="normal" in2="BackgroundImageFix" result="effect1_dropShadow_417_544"/>
<feBlend mode="normal" in="SourceGraphic" in2="effect1_dropShadow_417_544" result="shape"/>
</filter>
</defs>
</svg>
