<svg width="50" height="50" viewBox="0 0 50 50" fill="none" xmlns="http://www.w3.org/2000/svg">
<path d="M23.3965 4.19629C15.0754 4.19629 8.32877 10.9429 8.32877 19.2641C8.32877 25.7941 12.5628 33.2244 18.2754 39.3946C18.46 39.5924 18.6107 39.7469 18.8047 39.9239C20.4226 41.3723 22.0988 41.8846 23.3965 41.8658C23.4135 41.8658 23.4418 41.8658 23.4549 41.8658C24.8073 41.8658 26.7133 41.2574 28.5177 39.453C33.9986 33.9721 38.4643 25.8902 38.4643 19.2641C38.4643 10.9429 31.7177 4.19629 23.3965 4.19629ZM23.3965 13.6137C26.5175 13.6137 29.047 16.1432 29.047 19.2641C29.047 22.385 26.5175 24.9145 23.3965 24.9145C20.2756 24.9145 17.7461 22.385 17.7461 19.2641C17.7461 16.1432 20.2756 13.6137 23.3965 13.6137Z" fill="#33475B"/>
</svg>
