<svg width="50" height="50" viewBox="0 0 50 50" fill="none" xmlns="http://www.w3.org/2000/svg">
<path d="M36.9327 22.5714C31.6228 22.5714 27.3269 26.8491 27.3269 32.1364C27.3269 37.4238 31.6228 41.7015 36.9327 41.7015C42.2425 41.7015 46.5385 37.4238 46.5385 32.1364C46.5385 26.8491 42.2425 22.5714 36.9327 22.5714ZM41.2019 32.5549C41.2019 32.907 40.9084 33.1992 40.5549 33.1992H36.5124C36.1589 33.1992 35.8654 32.907 35.8654 32.5549V27.4668C35.8654 27.1148 36.1589 26.8225 36.5124 26.8225H37.3529C37.7065 26.8225 38 27.1148 38 27.4668V31.0737H40.5549C40.9084 31.0737 41.2019 31.3659 41.2019 31.718V32.5549ZM25.1923 32.1364C25.1923 30.2899 25.6392 28.5429 26.4064 26.9886C25.8727 26.8889 25.3257 26.8225 24.7654 26.8225H23.6514C22.1705 27.5 20.5228 27.8853 18.7885 27.8853C17.0541 27.8853 15.4131 27.5 13.9255 26.8225H12.8115C7.8619 26.8225 3.84615 30.8212 3.84615 35.7499V38.5132C3.84615 40.2734 5.28035 41.7015 7.04808 41.7015H30.202C27.1802 39.5826 25.1923 36.0887 25.1923 32.1364ZM18.7885 24.6969C23.5046 24.6969 27.3269 20.8908 27.3269 16.1947C27.3269 11.4985 23.5046 7.69238 18.7885 7.69238C14.0723 7.69238 10.25 11.4985 10.25 16.1947C10.25 20.8908 14.0723 24.6969 18.7885 24.6969Z" fill="#33475B"/>
</svg>
