<svg width="50" height="50" viewBox="0 0 50 50" fill="none" xmlns="http://www.w3.org/2000/svg">
<path fill-rule="evenodd" clip-rule="evenodd" d="M8.33094 15.4785C8.33094 10.3014 12.5289 6.10352 17.7059 6.10352C22.883 6.10352 27.0809 10.3014 27.0809 15.4785C27.0809 20.6556 22.883 24.8535 17.7059 24.8535C12.5289 24.8535 8.33094 20.6556 8.33094 15.4785ZM4.16428 37.3535C4.16428 33.0952 6.72263 29.2306 10.5435 27.6535C11.0768 27.4327 11.6476 27.4785 12.1726 27.7181C14.0809 28.5868 15.883 29.0202 17.7059 29.0202C19.5351 29.0202 21.3309 28.6098 23.1747 27.7827C23.708 27.5452 24.3309 27.5514 24.8684 27.7827C28.6747 29.4244 31.2476 33.1952 31.2476 37.3535V41.5202C31.2476 42.6702 30.3143 43.6035 29.1643 43.6035H6.24761C5.09761 43.6035 4.16428 42.6702 4.16428 41.5202V37.3535ZM42.2297 17.3698C42.6359 16.9635 43.1922 16.7844 43.7255 16.7844C44.2589 16.7844 44.8172 16.9635 45.2234 17.3698C46.038 18.1844 46.038 19.551 45.2234 20.3656L36.8901 28.6989C36.0776 29.5114 34.7088 29.5114 33.8963 28.6989L29.7297 24.5322C28.9151 23.7177 28.9151 22.351 29.7297 21.5364C30.5422 20.7239 31.9109 20.7239 32.7234 21.5364L35.3922 24.2052L42.2297 17.3698Z" fill="#33475B"/>
</svg>
