<svg width="55" height="55" viewBox="0 0 55 55" fill="none" xmlns="http://www.w3.org/2000/svg">
<path d="M27.5324 9.16162C23.7352 9.16162 20.6574 12.2393 20.6574 16.0366C20.6574 18.9425 22.5137 21.5733 25.2499 22.5221L25.2408 25.2033H11.4908C10.2258 25.2033 9.19912 26.23 9.19912 27.495L9.21517 32.4908C6.32538 33.5747 4.61578 36.0475 4.61578 38.9533C4.61578 42.7506 7.69349 45.8283 11.4908 45.8283C15.2881 45.8283 18.3658 42.7506 18.3658 38.9533C18.3658 36.0475 16.4614 33.4739 13.7664 32.4771L13.7824 29.7866H25.2408L25.2339 32.4771C22.5389 33.4144 20.6574 36.0475 20.6574 38.9533C20.6574 42.7506 23.7352 45.8283 27.5324 45.8283C31.3297 45.8283 34.4074 42.7506 34.4074 38.9533C34.4074 36.0475 32.5879 33.5083 29.8333 32.4908L29.8241 29.7866H41.2824L41.2756 32.4862C38.6081 33.4922 36.6991 36.0475 36.6991 38.9533C36.6991 42.7506 39.7768 45.8283 43.5741 45.8283C47.3714 45.8283 50.4491 42.7506 50.4491 38.9533C50.4491 36.0475 48.5768 33.3937 45.8406 32.438L45.8658 27.495C45.8658 26.23 44.8391 25.2033 43.5741 25.2033H29.8241L29.8287 22.4923C32.4183 21.6627 34.4074 18.9425 34.4074 16.0366C34.4074 12.2393 31.3297 9.16162 27.5324 9.16162Z" fill="#ED5C18"/>
</svg>
