<svg width="34" height="54" viewBox="0 0 34 54" fill="none" xmlns="http://www.w3.org/2000/svg">
<path d="M12.5262 19.5952C11.3468 20.5089 10.2238 21.493 9.16316 22.5422C8.61443 23.2142 8.25267 24.019 8.11439 24.8755C7.73822 26.9557 7.5406 29.0672 7.24763 31.1613C7.17209 31.7005 6.88815 32.1886 6.45677 32.5208C6.02538 32.853 5.48094 33.0028 4.94032 32.9381C4.66324 32.9151 4.3939 32.8351 4.14919 32.7031C3.90448 32.5712 3.68968 32.39 3.51828 32.1711C3.34689 31.9522 3.22259 31.7002 3.15317 31.4309C3.08376 31.1617 3.07074 30.881 3.11493 30.6065C3.43563 27.8606 3.791 25.1217 4.12037 22.3775C4.2416 21.3282 4.77166 20.369 5.59559 19.7079C7.41231 18.172 9.20824 16.6084 11.0648 15.1193C12.8369 13.5922 15.1106 12.7736 17.4494 12.8207C18.2217 12.7812 18.9877 12.9774 19.6459 13.3832C20.3041 13.7891 20.8234 14.3855 21.1348 15.0933C22.0277 16.9693 22.7809 18.9086 23.3884 20.8954C23.6131 21.8262 24.0624 22.6878 24.697 23.4049C25.3316 24.122 26.1322 24.6728 27.0288 25.009C28.6115 25.6834 30.1491 26.4461 31.7093 27.1898C32.1894 27.4091 32.5644 27.8078 32.7539 28.3003C32.9435 28.7929 32.9325 29.3401 32.7234 29.8247C32.6255 30.0668 32.4786 30.2861 32.292 30.4688C32.1054 30.6515 31.8831 30.7936 31.639 30.8864C31.3948 30.9792 31.1342 31.0205 30.8734 31.0079C30.6125 30.9952 30.3571 30.9288 30.1231 30.8128C27.5766 29.6652 25.0144 28.5402 22.5494 27.2348C21.7487 26.6576 21.0632 25.9356 20.5281 25.1061C20.2821 24.6744 19.999 24.2649 19.6821 23.8822C19.3354 25.5533 19.1066 27.2574 18.6212 28.8852C18.4169 29.5516 18.3769 30.2575 18.5046 30.9427C18.6323 31.628 18.9239 32.2721 19.3545 32.8202C22.6482 37.8648 25.8431 42.9804 29.0622 48.0752C29.3036 48.3991 29.4751 48.7697 29.5657 49.1634C29.6562 49.5571 29.6639 49.9654 29.5883 50.3622C29.5127 50.7591 29.3553 51.1358 29.1263 51.4686C28.8973 51.8014 28.6016 52.083 28.2579 52.2954C27.9143 52.5078 27.5302 52.6464 27.1301 52.7025C26.73 52.7586 26.3227 52.7308 25.9339 52.621C25.5451 52.5112 25.1834 52.3218 24.8717 52.0648C24.56 51.8077 24.3052 51.4887 24.1234 51.1279C21.5336 47.0212 18.9229 42.9284 16.3226 38.8199C14.5145 35.9544 12.7048 33.0907 10.9487 30.194C10.69 29.7264 10.5954 29.1857 10.68 28.6581C11.2382 25.7336 11.8657 22.8126 12.5262 19.5952Z" fill="#ED5C18"/>
<path d="M26.6614 53.3865C26.0248 53.3722 25.4036 53.1878 24.8622 52.8525C24.3209 52.5172 23.8791 52.0432 23.5827 51.4796C22.2409 49.3532 20.8951 47.2279 19.5453 45.1038C18.2926 43.1275 17.041 41.1513 15.7905 39.1751L15.709 39.0434C13.9565 36.2697 12.1432 33.3956 10.4131 30.537C10.0743 29.9344 9.95193 29.2339 10.0664 28.5521C10.4773 26.3575 10.9332 24.1767 11.4099 21.8694L11.5382 21.2506C10.8646 21.777 10.2318 22.3535 9.6452 22.9754C9.17491 23.5584 8.86641 24.2549 8.7507 24.995C8.51321 26.3055 8.34507 27.6594 8.18212 28.9699C8.08677 29.7327 7.98969 30.4954 7.88221 31.2564C7.78045 31.9608 7.40767 32.5976 6.84328 33.0312C6.27889 33.4648 5.56752 33.6608 4.8607 33.5776C4.50061 33.5439 4.15118 33.4371 3.83379 33.2637C3.5164 33.0903 3.23771 32.854 3.01476 32.5692C2.79181 32.2845 2.62929 31.9572 2.53714 31.6075C2.445 31.2578 2.42516 30.8929 2.47884 30.5353C2.66606 28.9381 2.86079 27.3416 3.06304 25.7456C3.20518 24.5997 3.34906 23.4504 3.48601 22.3045C3.62745 21.0953 4.23585 19.9893 5.18139 19.2223C5.66793 18.8109 6.15331 18.3983 6.63754 17.9846C7.94635 16.8717 9.29677 15.7206 10.6645 14.6251C12.5497 12.9961 14.9725 12.125 17.4634 12.1808C18.3573 12.1394 19.2426 12.3712 20.0016 12.8453C20.7606 13.3194 21.3572 14.0133 21.7122 14.8348L21.9497 15.3722C22.7678 17.1033 23.4551 18.8932 24.0057 20.727C24.2062 21.5649 24.6105 22.3403 25.1826 22.9844C25.7548 23.6286 26.4771 24.1215 27.2855 24.4194C28.6081 24.9828 29.9204 25.6138 31.1859 26.224L31.992 26.6123C32.6202 26.9046 33.1097 27.4301 33.3567 28.0775C33.6037 28.7248 33.5886 29.443 33.3146 30.0794C33.1826 30.3987 32.9867 30.6876 32.739 30.9285C32.4914 31.1695 32.1971 31.3573 31.8743 31.4805C31.5514 31.6036 31.2069 31.6596 30.8617 31.6449C30.5165 31.6303 30.1779 31.5452 29.8667 31.3951L28.9202 30.9704C26.7151 29.9771 24.4338 28.9526 22.2565 27.7981C21.5311 27.3435 20.9121 26.7381 20.4415 26.0229C20.3081 25.8496 20.1746 25.6762 20.0411 25.5029L20.0307 25.4907V25.5185C19.8333 26.7124 19.5712 27.8946 19.2454 29.0601C19.0684 29.6375 19.0358 30.2495 19.1503 30.8425C19.2649 31.4354 19.5231 31.9913 19.9024 32.4612C22.6344 36.6373 25.3318 40.9312 27.9425 45.0812L29.6084 47.73C29.9664 48.2612 30.1857 48.8736 30.2462 49.5113C30.3068 50.149 30.2067 50.7917 29.9551 51.3808C29.7029 51.9112 29.3197 52.3686 28.8417 52.7098C28.3637 53.051 27.8066 53.2648 27.2231 53.331C27.0375 53.3637 26.8498 53.3822 26.6614 53.3865ZM13.5283 17.891L13.1521 19.7251C12.9788 20.5433 12.8175 21.3424 12.6546 22.1295C12.1779 24.4316 11.7254 26.6054 11.318 28.7879C11.2605 29.1609 11.3262 29.5426 11.5053 29.8748C13.2301 32.723 15.0399 35.5954 16.789 38.369L16.8722 38.5008C18.1204 40.4793 19.372 42.4549 20.627 44.4277C21.9757 46.5518 23.3221 48.6777 24.6661 50.8053C24.8733 51.244 25.2154 51.605 25.6424 51.8355C26.0693 52.066 26.5588 52.1539 27.0393 52.0864C27.4105 52.0512 27.7664 51.9211 28.0727 51.7086C28.3791 51.4961 28.6255 51.2083 28.7884 50.8729C28.9523 50.4788 29.0139 50.0497 28.9675 49.6254C28.9212 49.2011 28.7683 48.7954 28.5232 48.446L26.8556 45.7954C24.2553 41.6489 21.5545 37.3601 18.8294 33.1945C18.3509 32.5669 18.0278 31.8349 17.8865 31.0585C17.7451 30.282 17.7897 29.4832 18.0164 28.7272C18.3283 27.6062 18.5795 26.469 18.7687 25.3209C18.8623 24.8008 18.9594 24.2912 19.0634 23.7798L19.2922 22.6651L20.126 23.44C20.3944 23.7041 20.6185 24.0097 20.79 24.3449C20.859 24.4784 20.939 24.606 21.0292 24.7263C21.1748 24.8996 21.3152 25.0868 21.4574 25.2723C21.8252 25.8338 22.3 26.3174 22.8546 26.6955C24.9972 27.831 27.2577 28.8468 29.442 29.8297L30.3885 30.2562C30.5453 30.3364 30.7172 30.3829 30.8931 30.3926C31.069 30.4023 31.245 30.3752 31.4098 30.3128C31.5746 30.2504 31.7244 30.1542 31.8498 30.0304C31.9751 29.9066 32.0732 29.758 32.1376 29.594C32.2819 29.2615 32.2887 28.8853 32.1565 28.5478C32.0243 28.2103 31.7638 27.9388 31.432 27.7929L30.626 27.4045C29.3709 26.7996 28.076 26.1755 26.781 25.6225C25.7904 25.2494 24.9063 24.6391 24.2061 23.8453C23.5059 23.0514 23.0109 22.098 22.7645 21.0685C22.2291 19.2975 21.5634 17.5685 20.7726 15.8957L20.5352 15.3566C20.2721 14.7592 19.8316 14.2571 19.2733 13.9188C18.7151 13.5804 18.0662 13.4221 17.4148 13.4653C15.2291 13.4243 13.1054 14.1937 11.4533 15.6253C10.1011 16.707 8.75764 17.8529 7.46617 18.9606C6.97963 19.3755 6.49251 19.7892 6.00481 20.2018C5.30588 20.7578 4.85582 21.5682 4.75321 22.4554C4.61453 23.6053 4.47295 24.7546 4.3285 25.9033C4.13087 27.4964 3.93325 29.0895 3.74777 30.6826C3.71428 30.8739 3.72133 31.0701 3.76847 31.2584C3.8156 31.4468 3.90178 31.6232 4.02139 31.7761C4.14101 31.9291 4.29141 32.0552 4.46287 32.1463C4.63432 32.2375 4.82301 32.2916 5.01671 32.3052C5.39056 32.3482 5.76641 32.2434 6.06405 32.0131C6.36169 31.7828 6.55754 31.4453 6.60981 31.0727C6.71729 30.3203 6.81264 29.5645 6.90625 28.8087C7.0796 27.4808 7.24255 26.1079 7.48697 24.7644C7.64346 23.7901 8.05898 22.8759 8.69004 22.1173C9.39833 21.3712 10.1627 20.6804 10.9765 20.051C11.3406 19.7528 11.7185 19.4442 12.1103 19.1097L13.5283 17.891Z" fill="#ED5C18"/>
<path d="M9.75249 33.934C11.0613 35.6831 12.2678 37.2901 13.4588 38.9092C13.5106 38.9881 13.5459 39.0768 13.5623 39.1698C13.5786 39.2628 13.5759 39.3582 13.5541 39.4501C13.2554 41.212 12.6204 42.8999 11.6836 44.4218C9.85997 46.717 8.17499 49.1214 6.42068 51.472C6.23893 51.7926 5.99109 52.071 5.69361 52.2886C5.39612 52.5061 5.05579 52.658 4.69516 52.7341C4.33453 52.8101 3.96185 52.8086 3.60183 52.7297C3.24182 52.6508 2.90269 52.4963 2.60693 52.2764C2.31371 52.0545 2.07016 51.7738 1.89195 51.4522C1.71373 51.1306 1.60479 50.7753 1.57214 50.409C1.53948 50.0428 1.58384 49.6738 1.70235 49.3258C1.82085 48.9777 2.01089 48.6583 2.26023 48.3881C3.92094 46.1345 5.61285 43.8931 7.24929 41.617C7.61801 41.0883 7.89736 40.5027 8.07617 39.8835C8.64823 37.9835 9.15616 36.0645 9.75249 33.934Z" fill="#ED5C18"/>
<path d="M4.1328 53.4486C3.44366 53.4386 2.77568 53.209 2.22594 52.7934C1.89079 52.5603 1.60623 52.2618 1.38936 51.916C1.17249 51.5701 1.02779 51.184 0.963941 50.7807C0.902727 50.2903 0.93955 49.7925 1.07227 49.3164C1.205 48.8402 1.43097 48.3952 1.73709 48.0071C2.33226 47.1981 2.9309 46.3892 3.533 45.5802C4.58525 44.1622 5.67564 42.6974 6.72095 41.2464C7.04795 40.7747 7.29618 40.2531 7.45595 39.7018C7.86506 38.3514 8.2395 36.9889 8.63648 35.5414L9.13747 33.7559L9.48418 32.5043L11.0755 34.6313C12.0793 35.973 13.0327 37.2437 13.974 38.523C14.0856 38.6828 14.1605 38.8653 14.1935 39.0573C14.2264 39.2494 14.2166 39.4464 14.1647 39.6342C14.0312 40.0624 13.922 40.501 13.8076 40.9517C13.5575 42.3431 13.0029 43.6621 12.1833 44.814C10.9698 46.3429 9.78927 47.9551 8.65035 49.5118C8.08003 50.2919 7.5097 51.072 6.93244 51.8486C6.62562 52.3177 6.21186 52.7074 5.72517 52.9855C5.23849 53.2637 4.69275 53.4224 4.1328 53.4486ZM10.0268 35.3611L9.88461 35.8812C9.48417 37.3321 9.10627 38.7033 8.69543 40.0676C8.49446 40.7543 8.18297 41.4036 7.7732 41.9901C6.72095 43.4532 5.62884 44.9232 4.57312 46.3447C3.97448 47.1536 3.37699 47.9626 2.78066 48.7716C2.57595 49.0242 2.4231 49.3146 2.33088 49.6264C2.23866 49.9381 2.20889 50.265 2.24327 50.5883C2.28197 50.8241 2.36794 51.0496 2.49604 51.2513C2.62415 51.453 2.79172 51.6267 2.98869 51.7619C3.2178 51.9312 3.48077 52.0491 3.75963 52.1075C4.03848 52.1659 4.32664 52.1634 4.60444 52.1002C4.88225 52.037 5.14314 51.9146 5.3693 51.7413C5.59545 51.5681 5.78154 51.348 5.91486 51.0962C6.4927 50.3242 7.0636 49.5482 7.62757 48.7681C8.77343 47.208 9.95916 45.5802 11.1917 44.0287C11.8942 43.0167 12.3674 41.8637 12.5785 40.6501C12.6894 40.2063 12.8039 39.7486 12.946 39.2962V39.2667C12.0238 38.0169 11.0738 36.7479 10.0718 35.4097L10.0268 35.3611Z" fill="#ED5C18"/>
<path d="M24.8758 6.12025C24.8767 7.10294 24.5853 8.06371 24.0386 8.88029C23.4919 9.69687 22.7146 10.3324 21.8057 10.7059C20.8967 11.0794 19.8972 11.1741 18.9343 10.9779C17.9714 10.7817 17.0886 10.3035 16.3983 9.6041C15.708 8.90471 15.2413 8.01577 15.0577 7.05037C14.8741 6.08499 14.9818 5.08679 15.3672 4.1828C15.7525 3.27882 16.3981 2.50991 17.2217 1.9739C18.0454 1.4379 19.0099 1.15903 19.9925 1.17279C21.2912 1.19676 22.529 1.7277 23.4415 2.65217C24.354 3.57664 24.8688 4.82131 24.8758 6.12025Z" fill="#3F4450"/>
<path d="M19.9266 11.7317C18.4397 11.7153 17.0193 11.1133 15.9733 10.0563C14.9274 8.99933 14.3403 7.57262 14.3395 6.08562C14.3432 4.60244 14.9359 3.18147 15.9873 2.13531C17.0386 1.08914 18.4625 0.50348 19.9457 0.507158C21.4289 0.510836 22.8499 1.10355 23.896 2.15492C24.9422 3.20629 25.5279 4.63018 25.5242 6.11336C25.5251 7.59862 24.9375 9.02374 23.89 10.0767C22.8426 11.1297 21.4206 11.7248 19.9353 11.7317H19.9266ZM19.9422 1.8073C18.8009 1.80995 17.7064 2.26171 16.8954 3.06489C16.0844 3.86808 15.6221 4.95817 15.6085 6.09949C15.6138 7.24466 16.0682 8.34202 16.8741 9.15567C17.68 9.96931 18.7729 10.4343 19.918 10.4506C21.0632 10.4442 22.1592 9.98478 22.9668 9.17273C23.7743 8.36068 24.2275 7.26202 24.2275 6.11682C24.2245 4.98558 23.7776 3.90071 22.9831 3.09547C22.1886 2.29022 21.1097 1.82893 19.9786 1.81077L19.9422 1.8073Z" fill="#3F4450"/>
</svg>
