<svg width="53" height="53" viewBox="0 0 53 53" fill="none" xmlns="http://www.w3.org/2000/svg">
<path d="M11.0986 0.714111H6.74937C5.01797 0.715817 3.35797 1.40436 2.13368 2.62865C0.909398 3.85293 0.220846 5.51294 0.21914 7.24435V11.5935C0.207875 11.8861 0.255782 12.178 0.35999 12.4517C0.464199 12.7253 0.622566 12.9751 0.825607 13.1862C1.02865 13.3972 1.27219 13.565 1.54164 13.6797C1.81109 13.7944 2.10091 13.8535 2.39374 13.8535C2.68657 13.8535 2.97639 13.7944 3.24584 13.6797C3.51529 13.565 3.75882 13.3972 3.96187 13.1862C4.16491 12.9751 4.32327 12.7253 4.42748 12.4517C4.53169 12.178 4.5796 11.8861 4.56833 11.5935V7.24435C4.56876 6.66688 4.79834 6.11319 5.20667 5.70486C5.615 5.29653 6.16869 5.06695 6.74615 5.06652H11.0986C11.3912 5.07778 11.6831 5.02987 11.9567 4.92566C12.2304 4.82145 12.4802 4.6631 12.6912 4.46006C12.9022 4.25701 13.0701 4.01347 13.1847 3.74402C13.2994 3.47457 13.3585 3.18474 13.3585 2.89191C13.3585 2.59908 13.2994 2.30928 13.1847 2.03983C13.0701 1.77038 12.9022 1.52684 12.6912 1.32379C12.4802 1.12075 12.2304 0.962378 11.9567 0.858169C11.6831 0.753961 11.3912 0.706066 11.0986 0.717331V0.714111Z" fill="#3F4450"/>
<path d="M11.0985 48.6101H6.74926C6.1718 48.6097 5.61811 48.38 5.20979 47.9717C4.80146 47.5634 4.57187 47.0097 4.57145 46.4323V42.083C4.58271 41.7904 4.53481 41.4985 4.4306 41.2249C4.32639 40.9512 4.16802 40.7014 3.96498 40.4904C3.76194 40.2794 3.5184 40.1116 3.24895 39.9969C2.9795 39.8822 2.68968 39.8231 2.39685 39.8231C2.10402 39.8231 1.8142 39.8822 1.54475 39.9969C1.2753 40.1116 1.03176 40.2794 0.828723 40.4904C0.625681 40.7014 0.467312 40.9512 0.363103 41.2249C0.258895 41.4985 0.210988 41.7904 0.222253 42.083V46.4323C0.223532 48.1639 0.911897 49.8243 2.13623 51.049C3.36056 52.2736 5.02081 52.9624 6.75249 52.9641H11.0985C11.3911 52.9754 11.683 52.9274 11.9566 52.8232C12.2303 52.719 12.4801 52.5606 12.6911 52.3576C12.9021 52.1546 13.07 51.9111 13.1846 51.6416C13.2993 51.3722 13.3584 51.0823 13.3584 50.7895C13.3584 50.4967 13.2993 50.2068 13.1846 49.9374C13.07 49.6679 12.9021 49.4244 12.6911 49.2214C12.4801 49.0183 12.2303 48.8599 11.9566 48.7557C11.683 48.6515 11.3911 48.6036 11.0985 48.6149V48.6101Z" fill="#3F4450"/>
<path d="M45.9294 0.713916H41.5802C41.2847 0.697823 40.989 0.742121 40.7112 0.844136C40.4333 0.94615 40.1792 1.10374 39.9643 1.30725C39.7494 1.51077 39.5783 1.75594 39.4613 2.02781C39.3443 2.29969 39.284 2.59253 39.284 2.8885C39.284 3.18446 39.3443 3.47733 39.4613 3.74921C39.5783 4.02108 39.7494 4.26626 39.9643 4.46977C40.1792 4.67328 40.4333 4.83085 40.7112 4.93286C40.989 5.03487 41.2847 5.0792 41.5802 5.0631H45.9294C46.5069 5.06353 47.0606 5.29312 47.4689 5.70145C47.8772 6.10977 48.1068 6.66347 48.1072 7.24093V11.5901C48.096 11.8827 48.1439 12.1746 48.2481 12.4483C48.3523 12.7219 48.5107 12.9717 48.7137 13.1827C48.9168 13.3938 49.1603 13.5616 49.4297 13.6763C49.6992 13.7909 49.989 13.85 50.2818 13.85C50.5747 13.85 50.8645 13.7909 51.1339 13.6763C51.4034 13.5616 51.6469 13.3938 51.85 13.1827C52.053 12.9717 52.2114 12.7219 52.3156 12.4483C52.4198 12.1746 52.4677 11.8827 52.4564 11.5901V7.24093C52.4547 5.50925 51.766 3.849 50.5413 2.62467C49.3167 1.40033 47.6563 0.711975 45.9246 0.710696L45.9294 0.713916Z" fill="#3F4450"/>
<path d="M50.2846 39.9003C49.707 39.9003 49.153 40.1297 48.7446 40.5381C48.3362 40.9466 48.1068 41.5005 48.1068 42.0781V46.4273C48.1059 47.0046 47.8762 47.558 47.468 47.9663C47.0597 48.3745 46.5063 48.6042 45.9289 48.6051H41.5797C41.2871 48.5938 40.9953 48.6418 40.7216 48.746C40.4479 48.8502 40.1981 49.0085 39.9871 49.2115C39.7761 49.4146 39.6082 49.6581 39.4936 49.9276C39.3789 50.197 39.3198 50.4869 39.3198 50.7797C39.3198 51.0725 39.3789 51.3623 39.4936 51.6318C39.6082 51.9012 39.7761 52.1448 39.9871 52.3478C40.1981 52.5509 40.4479 52.7093 40.7216 52.8135C40.9953 52.9177 41.2871 52.9656 41.5797 52.9543H45.9289C47.6608 52.9526 49.3212 52.2639 50.5458 51.0393C51.7704 49.8147 52.4591 48.1543 52.4608 46.4224V42.0733C52.4606 41.7877 52.4041 41.505 52.2946 41.2412C52.1852 40.9775 52.0248 40.7378 51.8227 40.5361C51.6206 40.3343 51.3808 40.1743 51.1169 40.0652C50.853 39.9561 50.5701 39.9001 50.2846 39.9003Z" fill="#3F4450"/>
<path d="M22.4727 7.18864C22.3414 7.32809 21.6687 9.15739 20.184 13.4066L18.084 19.4277L18.0594 27.7211L18.043 36.0062L16.148 37.1054C15.1062 37.7043 14.1875 38.2703 14.0973 38.3605C13.9578 38.5164 13.9414 38.664 13.9414 39.9437C13.9414 41.2972 13.9496 41.3711 14.1219 41.5679C14.3023 41.7648 26.3691 48.7703 26.8367 48.9508C27.009 49.0164 27.1238 49 27.3535 48.8933C28.059 48.557 37.7879 42.8969 37.9109 42.7492C38.0422 42.6015 38.0586 42.3965 38.0586 41.1578C38.0586 39.8043 38.0504 39.7304 37.8781 39.5418C37.7715 39.4269 35.9094 38.3195 33.7355 37.0644L29.7734 34.7922V29.6652V24.5383L31.6273 19.3129C32.6527 16.4418 33.4895 13.9972 33.4895 13.866C33.4895 13.6035 33.3418 13.4312 32.341 12.5699C31.7094 12.0203 30.9465 11.5445 27.3945 9.49372C25.0812 8.1566 23.0797 7.04918 22.932 7.02457C22.727 6.99176 22.6285 7.02457 22.4727 7.18864ZM26.8039 10.6996C28.6824 11.7824 30.2492 12.7011 30.2902 12.734C30.323 12.7668 29.4535 15.359 28.3625 18.4925L26.3691 24.1855L26.3281 33.2664L26.2871 42.339L22.8664 40.3703L19.4375 38.3933V29.0418V19.6902L21.3406 14.2023C22.3824 11.1918 23.2684 8.72262 23.3094 8.72262C23.3504 8.72262 24.9172 9.60856 26.8039 10.6996ZM31.8242 14.7355C31.7012 15.1047 30.8973 17.3441 30.0523 19.7148L28.502 24.0215L28.4609 32.9875L28.4199 41.9617L28.0754 42.1668L27.7227 42.3719V33.4304V24.4808L29.5191 19.2882C30.5117 16.4336 31.3566 13.989 31.4059 13.866L31.4961 13.6363L31.775 13.8496L32.0539 14.0629L31.8242 14.7355ZM32.9562 38.1719C35.2777 39.509 35.9832 39.9519 35.9012 40.0258C35.852 40.075 33.834 41.248 31.4223 42.6426C28.0836 44.5621 27.009 45.1445 26.9105 45.0871C26.8367 45.0461 24.3512 43.6105 21.3898 41.9043C17.3047 39.55 16.0168 38.7707 16.0988 38.6968C16.2137 38.5984 17.9363 37.5976 18.002 37.5976C18.0266 37.5976 18.043 37.8437 18.0512 38.1472C18.0594 39.2136 17.723 38.9511 22.5137 41.7156C25.4504 43.4136 26.8531 44.1847 27.0254 44.1847C27.3125 44.1929 29.5684 42.9215 29.6914 42.6754C29.7406 42.5933 29.7734 41.2808 29.7734 39.4433C29.7734 37.7453 29.8062 36.3672 29.8391 36.3836C29.8801 36.3918 31.2828 37.2039 32.9562 38.1719ZM20.832 43.1265L26.2871 46.2765L26.3117 46.7031C26.3281 46.941 26.3035 47.1133 26.2625 47.1051C26.2215 47.0886 23.7277 45.6531 20.7172 43.914L15.2539 40.7558V40.3703C15.2539 40.1488 15.2785 39.9765 15.3195 39.9765C15.3523 39.9765 17.8297 41.3957 20.832 43.1265ZM36.6477 41.9863C36.5328 42.0929 27.8293 47.1133 27.7637 47.1133C27.7391 47.1133 27.7227 46.9328 27.7227 46.7113V46.3094L32.218 43.7172L36.7051 41.1332L36.7297 41.5105C36.7461 41.7484 36.7133 41.9207 36.6477 41.9863Z" fill="#ED5C18"/>
<path d="M23.457 9.81367C23.3012 9.96953 22.8254 11.2492 21.5949 14.8176C20.6762 17.4508 19.9051 19.723 19.8805 19.8543C19.8477 20.043 19.8805 20.1496 20.0281 20.3137C20.2824 20.6008 25.4422 23.5703 25.6883 23.5703C26.1477 23.5621 26.1805 23.4965 27.9687 18.3203C28.9203 15.5887 29.6914 13.2918 29.6914 13.218C29.6914 13.1359 29.593 12.9637 29.4699 12.8324C29.1746 12.5289 24.2527 9.70703 23.9164 9.64961C23.7195 9.61679 23.6129 9.65781 23.457 9.81367ZM26.3281 12.4797C27.4273 13.1195 28.1656 13.5953 28.1574 13.6609C28.141 13.7184 27.5094 15.5723 26.7383 17.7871C25.9754 19.9937 25.3437 21.8148 25.3437 21.823C25.3437 21.9133 24.9746 21.7164 23.2684 20.732L21.3324 19.6246L21.4555 19.2801C21.5867 18.9191 23.6539 12.9719 24.0066 11.9383C24.1707 11.4707 24.2445 11.3395 24.3512 11.3723C24.425 11.3969 25.3109 11.8891 26.3281 12.4797Z" fill="#ED5C18"/>
<path d="M20.348 22.7992C20.1758 23.0207 20.1348 23.275 20.225 23.5211C20.2824 23.6688 20.8484 24.0133 23.2027 25.3668C24.0805 25.8672 24.8762 26.2773 24.9746 26.2773C25.073 26.2773 25.2535 26.2035 25.3766 26.1051C25.6637 25.8836 25.6719 25.3996 25.4094 25.1535C25.3027 25.0551 24.2855 24.4398 23.1453 23.7836C20.873 22.4711 20.6598 22.3973 20.348 22.7992Z" fill="#ED5C18"/>
</svg>
