<svg width="52" height="52" viewBox="0 0 52 52" fill="none" xmlns="http://www.w3.org/2000/svg">
<path d="M23.1055 3.65625C18.6469 4.35703 15.0211 7.59688 13.843 11.9336C13.5891 12.8578 13.5688 13.1117 13.5688 14.7773C13.5688 16.443 13.5891 16.6969 13.843 17.6211C13.9953 18.1797 14.3406 19.0938 14.625 19.6625C18.0477 26.6703 27.3406 28.1633 32.7234 22.5672C33.7391 21.5008 34.4399 20.4852 34.9477 19.2867C36.5625 15.5391 36.1055 11.3547 33.7188 8.125C32.0938 5.93125 29.6867 4.3875 26.975 3.79844C26.1016 3.60547 23.9383 3.53437 23.1055 3.65625Z" fill="#ED5C18"/>
<path d="M34.8766 27.493C34.5312 28.6508 34.0641 29.5242 33.7086 29.7172C33.1094 30.0219 32.7234 29.8594 31.1695 28.6813C30.6211 28.2648 30.1336 27.9297 30.0828 27.9297C30.0117 27.9297 26.9648 31.9922 26.6906 32.4492C26.65 32.5102 26.9648 32.9672 27.3914 33.4648C27.8078 33.9727 28.2242 34.5312 28.3055 34.7141C28.4273 35.0188 28.4273 35.0898 28.2852 35.3031C28.082 35.6078 27.9094 35.6891 26.8125 35.9531C26.3352 36.075 25.7969 36.2172 25.6141 36.268L25.2789 36.3797L25.3094 38.675L25.3398 40.9602L25.5937 41.0414C27.5844 41.6406 27.9602 41.7727 28.2242 42.0063C28.8133 42.5039 28.5898 43.0523 27.3711 44.0781C26.9547 44.4438 26.6094 44.7688 26.6094 44.8195C26.6094 44.8602 27.3914 45.9164 28.3562 47.1555C29.3109 48.3945 30.1031 49.4203 30.1133 49.4406C30.1336 49.4609 30.7227 49.1258 31.4336 48.6992C32.1547 48.2727 32.8656 47.8563 33.018 47.775C33.5969 47.4805 34.1758 47.6633 34.4703 48.2219C34.5516 48.3742 34.7242 48.9836 34.8461 49.593L35.0898 50.6797H37.3953H39.7109L39.7516 50.4461C39.782 50.3242 39.8531 49.857 39.9242 49.4102C40.0664 48.425 40.3102 47.907 40.7164 47.7344C41.1836 47.5414 41.6609 47.7648 42.6055 48.5977L43.4281 49.3289L45.7641 47.0945C47.0437 45.8656 48.1 44.8297 48.1102 44.7992C48.1203 44.7688 47.9375 44.5961 47.7039 44.4133C47.4602 44.2305 47.0539 43.875 46.8 43.6211C45.7031 42.5445 46.15 41.8844 48.425 41.275L49.4609 41.0008L49.4406 38.6648L49.4102 36.3289L48.1914 36.0141C46.7391 35.6383 46.2719 35.3945 46.2312 35.0086C46.1805 34.6125 46.7695 33.8711 47.643 33.2109C48.1 32.8656 48.3133 32.632 48.2625 32.5508C48.0289 32.1648 44.8398 27.9297 44.7789 27.9297C44.7383 27.9297 44.1594 28.3359 43.4789 28.8336C42.7984 29.3313 42.0875 29.7984 41.8945 29.8594C41.2648 30.0727 40.9297 29.7273 40.3609 28.2547C40.1172 27.625 39.8633 27.1477 39.65 26.9344L39.325 26.6094H37.2328H35.1508L34.8766 27.493ZM39.0102 32.7641C40.8891 33.3125 42.443 34.8055 43.0828 36.6438C43.2758 37.2227 43.3164 37.5273 43.3164 38.6445C43.3164 39.7617 43.2758 40.0664 43.0828 40.6453C42.2805 42.9508 40.2086 44.525 37.7609 44.6672C36.0344 44.7688 34.4906 44.2102 33.2516 43.0422C31.9312 41.793 31.3422 40.4117 31.3422 38.5938C31.3422 37.6695 31.3828 37.4156 31.6469 36.6641C31.8195 36.1867 32.1242 35.5266 32.3375 35.2117C33.2516 33.8406 34.8766 32.8352 36.6133 32.5609C37.1312 32.4898 38.4312 32.5914 39.0102 32.7641Z" fill="#3F4450"/>
<path d="M15.8945 28.4376C11.5273 28.7422 9.2625 29.6157 7.56641 31.6571C6.29688 33.1907 5.72812 34.3587 4.225 38.5735C3.38203 40.9501 3.35156 41.0618 3.35156 41.9251C3.35156 43.3774 3.80859 44.0883 5.12891 44.6977C5.6875 44.9516 6.21562 45.0227 11.7305 45.6626C17.0117 46.2719 17.9969 46.3532 20.0484 46.3938C22.6484 46.4344 23.0648 46.3633 23.3898 45.8149C23.6234 45.4188 23.6133 45.0329 23.3086 43.611C22.9227 41.7321 22.8109 40.2594 22.943 38.7766C23.1766 36.2376 23.7758 34.4399 25.2687 31.7993C26.1625 30.2149 26.3047 29.6258 25.8883 29.1891C25.5633 28.8438 25.218 28.7727 23.0039 28.6001C20.4445 28.3969 17.5195 28.336 15.8945 28.4376Z" fill="#ED5C18"/>
</svg>
