<svg width="833" height="381" viewBox="0 0 833 381" fill="none" xmlns="http://www.w3.org/2000/svg">
<path d="M778.108 380.377C778.108 380.377 861.453 205.961 693.182 205.961C604.277 205.961 638.363 124.063 577.917 64.5164C517.472 4.97009 296.385 -28.366 251.394 86.6215C206.402 201.608 331.55 293.272 224.106 278.297C94.9904 260.3 44.264 380.377 44.264 380.377H778.108Z" fill="#FBECDB"/>
<path d="M416.383 142.82C417.546 141.633 426.05 139.432 426.05 139.432V139.431C426.05 139.431 439.639 111.822 448.239 97.5446C451.184 92.6467 453.207 73.666 455.273 63.3325C455.273 63.3325 456.502 54.1988 460.819 49.1363C463.701 45.7601 479.145 44.1396 479.145 44.1396C479.145 44.1469 479.145 44.1579 479.145 44.1652C479.635 44.0628 480.114 43.9604 480.582 43.8689C482.082 43.569 483.494 42.6948 483.658 41.1804C483.666 41.1036 483.673 41.0268 483.684 40.95C483.874 39.0844 483.914 37.1787 483.892 35.5253C483.896 35.5034 483.896 35.4814 483.892 35.4558C483.852 32.7563 483.647 30.7518 483.647 30.7518L483.695 30.7482L499.877 28.1474C500.097 33.1953 500.389 36.9592 500.7 39.7612C500.938 41.912 502.683 43.58 504.837 43.708C505.152 43.7263 505.489 43.7519 505.81 43.7738C505.81 43.7702 505.81 43.7665 505.81 43.7665C505.81 43.7665 516.239 43.3605 520.233 44.5786C524.725 45.9503 534.693 56.8178 534.693 56.8178C534.693 56.8178 534.671 56.8361 534.638 56.8617C546.603 68.6108 559.376 85.3054 558.67 88.4877C557.672 92.9759 540.707 118.457 534.561 123.153H528.401C528.401 123.153 542.045 92.0359 542.225 89.5119C542.375 87.3465 530.534 79.3321 520.724 72.3199C520.559 72.8137 520.676 73.4026 520.932 74.1086C520.932 74.1123 520.932 74.1123 520.932 74.1123C521.792 76.5009 524.188 80.2355 522.348 86.2491C517.849 100.946 518.137 102.94 518.137 102.94C518.042 103.009 517.94 103.079 517.838 103.148C517.607 105.096 517.322 107.128 516.945 109.284C516.945 109.284 527.827 122.025 535.403 129.781L510.35 154.795L467.794 129.78C467.794 129.78 469.451 125.155 471.167 120.425C472.74 116.083 474.367 111.654 474.81 110.641C475.015 110.168 475.059 108.622 474.986 106.319C474.638 106.259 470.958 95.284 468.592 87.8403C468.207 86.6368 467.984 85.715 467.875 84.8554L467.871 84.8335C465.815 94.7354 463.244 104.597 460.431 109.599C455.017 119.231 431.095 143.906 431.095 143.906V143.905C430.107 146.023 425.553 146.981 422.367 150.491C422.367 150.491 419.152 153.76 413.058 153.317C411.884 153.232 415.219 144.008 416.383 142.82Z" fill="#919191"/>
<path d="M497.829 322.432C497.829 322.432 492.991 270.894 499.305 242.356C499.305 242.356 501.566 235.072 497.151 220.874C489.812 197.294 491.855 158.689 494.614 153.28C495.65 151.245 498.689 148.847 502.659 146.393C514.553 139.048 533.832 131.611 533.832 131.611C533.832 131.611 547.248 153.208 547.18 166.673C547.116 179.584 524.855 239.842 524.002 249.113C523.153 258.383 522.701 283.075 507.737 322.432C507.737 322.432 508.299 328.893 509.131 330.226C509.962 331.553 513.452 336.043 517.441 337.538C521.433 339.034 532.846 338.26 533.731 342.406H493.507C493.507 342.406 492.951 336.19 494.507 332.099C496.055 328.009 497.829 322.432 497.829 322.432Z" fill="#444444"/>
<path d="M483.681 40.9487C490.412 40.0432 499.875 28.1462 499.875 28.1462L483.645 30.2997C483.645 30.2997 483.665 30.4578 483.694 30.7475C483.776 31.5543 483.928 33.3653 483.892 35.4596C483.895 35.4826 483.895 35.5057 483.892 35.5287C483.915 37.1817 483.872 39.085 483.681 40.9487Z" fill="#5F5F5F"/>
<path d="M478.812 31.1234C478.812 31.1234 497.72 37.4328 501.466 25.596C505.218 13.7625 510.181 6.60401 498.267 2.07668C486.35 -2.45401 482.568 1.31485 480.353 4.96289C478.141 8.60758 473.99 29.1769 478.812 31.1234Z" fill="#919191"/>
<path d="M434.885 329.56C435.994 327.121 440.495 320.973 440.495 320.973C451.798 252.34 466.427 251.303 466.686 243.325C466.774 240.693 465.467 232.266 463.775 221.731C460.352 200.339 455.336 170.255 457.118 162.293C457.923 158.683 459.227 154.269 460.642 149.871C463.907 139.784 467.795 129.783 467.795 129.783L512.304 143.638C512.304 143.638 498.369 222.358 496.503 242.301C495.01 258.25 451.623 320.973 451.623 320.973C452.176 324.576 449.295 330.887 449.514 334.212C449.736 337.537 447.742 342.405 447.742 342.405C447.742 342.405 428.235 342.492 427.352 342.405C426.47 342.318 433.777 331.995 434.885 329.56Z" fill="#BDD8FF"/>
<path d="M534.555 123.156C534.555 123.156 540.713 130.934 540.713 132.347C540.713 133.76 539.756 140.84 538.261 140.924C536.766 141.007 535.976 134.923 534.813 134.01C533.651 133.095 529.495 131.376 528.91 129.784C528.329 128.191 528.4 123.156 528.4 123.156H534.555Z" fill="#5F5F5F"/>
<path d="M562.605 342.443L592.137 256.461L571.712 233.049V157.822L527.69 134.382L490.024 114.325L445.192 162.04L454.33 215.473L423.393 267.502L395.474 297.483L416.362 342.443H562.605Z" fill="#919191"/>
<path d="M395.471 297.484L423.392 267.503L493.441 293.518L562.603 342.443H416.36L395.471 297.484Z" fill="#5F5F5F"/>
<path d="M493.443 293.518L592.137 256.461L562.606 342.443L493.443 293.518Z" fill="#919191"/>
<path d="M592.137 256.461L519.641 173.967L493.443 293.518L592.137 256.461Z" fill="#444444"/>
<path d="M454.326 215.475L519.638 173.969L493.438 293.519L454.326 215.475Z" fill="#919191"/>
<path d="M571.708 157.823L519.64 173.969L571.708 233.051V157.823Z" fill="#919191"/>
<path d="M519.638 173.969L445.187 162.042L454.326 215.475L519.638 173.969Z" fill="#5F5F5F"/>
<path d="M571.708 157.823L519.64 173.969L538.95 140.379L571.708 157.823Z" fill="#444444"/>
<path d="M475.02 107.884L462.882 143.211L538.952 140.378L475.02 107.884Z" fill="#5F5F5F"/>
<path d="M328.7 341.937H658.909C662.22 341.937 664.932 344.647 664.932 347.96V373.495C664.932 376.808 662.22 379.521 658.909 379.521H328.7C325.387 379.521 322.674 376.808 322.674 373.495V347.96C322.674 344.647 325.387 341.937 328.7 341.937Z" fill="#444444"/>
<path d="M311.273 244.659C311.273 244.659 328.396 257.396 331.734 256.621C335.075 255.85 319.22 242.876 319.22 242.876C325.187 240.01 343.73 241.805 343.73 241.805C343.73 241.805 349.906 261.726 352.954 260.156C355.998 258.585 346.584 242.798 346.584 242.798C353.229 242.396 361.378 247.329 361.378 247.329C372.534 256.14 360.644 270.01 360.644 270.01C360.644 270.01 362.933 276.867 369.98 283.111C369.98 283.111 380.041 290.552 380.74 303.85L378.913 304.013C378.913 304.013 375.988 291.504 370.673 285.684C370.474 285.481 370.208 285.207 369.89 284.885C369.034 284.095 368.441 283.505 368.035 283.062C365.418 280.545 361.793 277.332 360.048 277.023C360.048 277.023 360.135 276.701 360.123 276.149C360.098 276.426 360.073 276.714 360.048 277.023C359.452 284.033 345.85 290.156 337.482 291.414C329.114 292.672 331.703 289.234 334.585 284.132C337.467 279.034 346.59 276.751 348.673 274.403C350.756 272.055 346.45 272.049 341.41 274.353C336.368 276.654 335.678 282.793 327.591 286.668C319.504 290.54 307.336 277.12 307.336 277.12C313.78 276.792 322.985 269.795 322.651 267.653C322.32 265.511 307.03 271.346 304.413 271.627C301.8 271.905 295.855 268.655 294.934 258.126C294.013 247.597 311.273 244.659 311.273 244.659Z" fill="#0C7F3A"/>
<path d="M402.213 252.568C402.213 252.568 383.302 241.977 392.128 227.601C392.128 227.601 399.187 218.774 406.753 216.504C406.753 216.504 402.721 237.939 406.753 238.445C410.789 238.951 409.526 214.237 409.526 214.237C409.526 214.237 429.449 204.655 437.266 205.41C437.266 205.41 424.909 226.339 428.945 225.837C432.98 225.331 446.847 204.149 446.847 204.149C446.847 204.149 467.275 200.368 470.555 212.47C473.832 224.575 468.537 230.627 465.511 231.386C462.481 232.141 443.069 231.888 443.57 234.411C444.074 236.931 457.186 240.968 464.499 238.698C464.499 238.698 456.431 258.619 445.841 257.61C435.249 256.602 431.971 250.045 425.414 249.539C418.856 249.036 414.066 250.8 417.346 252.568C420.623 254.332 431.718 253.145 437.012 257.648C442.307 262.15 446.596 264.923 436.762 266.94C426.927 268.957 409.272 267.696 405.744 260.133C405.588 259.799 405.447 259.49 405.306 259.187C405.519 259.811 405.744 260.133 405.744 260.133C403.927 261.192 401.202 266.25 399.312 270.125C399.046 270.784 398.623 271.686 397.996 272.913C397.774 273.403 397.586 273.816 397.448 274.128C393.908 282.78 395.759 297.908 395.759 297.908L393.66 298.473C389.004 283.376 397.172 270.974 397.172 270.974C402.467 261.142 402.213 252.568 402.213 252.568Z" fill="#0C7F3A"/>
<path d="M282.041 185.106C286.363 169.151 313.287 174.137 313.287 174.137C313.287 174.137 331.572 202.061 336.889 202.726C342.207 203.391 325.92 175.801 325.92 175.801C336.224 174.802 362.483 187.435 362.483 187.435C362.483 187.435 360.822 220.011 366.14 219.346C371.46 218.681 366.14 190.427 366.14 190.427C376.113 193.418 385.42 205.052 385.42 205.052C397.054 223.998 372.125 237.962 372.125 237.962C372.125 237.962 371.791 249.262 378.773 262.226C378.773 262.226 389.539 278.575 383.4 298.474L380.631 297.73C380.631 297.73 383.051 277.988 378.482 266.55C378.295 266.132 378.023 265.523 377.683 264.783C376.853 263.156 376.294 261.954 375.938 261.089C373.449 255.984 369.862 249.327 367.47 247.932C367.47 247.932 367.773 247.51 368.054 246.686C367.866 247.085 367.676 247.498 367.47 247.932C362.817 257.904 339.549 259.569 326.585 256.908C313.621 254.248 319.273 250.592 326.251 244.656C333.233 238.724 347.858 240.288 352.179 237.962C356.501 235.632 350.184 233.306 341.542 233.971C332.902 234.636 328.58 243.279 314.617 244.609C300.657 245.939 290.019 219.677 290.019 219.677C299.658 222.668 316.943 217.351 317.608 214.026C318.274 210.703 292.679 211.034 288.689 210.038C284.702 209.042 277.72 201.061 282.041 185.106Z" fill="#0A7A37"/>
<path d="M324.131 293.103C324.131 316.986 341.279 336.87 363.935 341.1C365.915 341.475 367.938 341.725 369.99 341.847C370.973 341.906 371.966 341.937 372.962 341.937C399.936 341.937 421.799 320.071 421.799 293.103H324.131Z" fill="#5B2C00"/>
<path d="M373.658 337.631C371.969 337.953 370.246 338.165 368.494 338.268C346.662 336.957 329.367 318.841 329.367 296.681H339.721C339.721 317.052 354.34 334.006 373.658 337.631Z" fill="#8A4200"/>
<path d="M423.404 292.791V294.29H323.02V292.791H423.404Z" fill="#8A4200"/>
<path d="M211.576 226.543C212.92 227.149 214.588 227.901 216.088 228.585C216.744 227.339 217.749 225.944 217.749 225.944C217.749 225.944 237.239 193.065 238.859 185.375C239.387 182.87 240.679 177.862 242.191 172.248C245.32 160.63 249.357 146.407 249.357 146.407L250.685 140.65L255.217 121.016C255.217 121.016 246.536 121.903 241.46 124.023C239.78 124.728 238.495 125.562 238.047 126.549C234.319 134.748 230.594 155.446 227.978 170.212C226.518 178.443 225.406 184.831 224.826 186.186C223.205 189.961 218.257 210.741 214.028 220.995C214.028 220.995 212.892 224.589 211.576 226.543Z" fill="#D9935C"/>
<path d="M216.108 228.738C216.108 228.738 216.337 230.762 215.65 231.982C214.963 233.203 212.334 234.977 211.887 234.087C211.287 232.897 216.108 228.738 216.108 228.738Z" fill="#D9935C"/>
<path d="M231.199 368.446C231.199 368.446 237.921 373.676 240.655 374.675C243.389 375.675 247.102 376.618 247.101 378.457H234.108C234.108 378.457 230.575 376.817 229.094 377.526C226.704 378.669 224.702 378.491 223.053 378.494C221.404 378.5 221.294 372.961 222.687 371.035C224.079 369.105 225.104 366.133 225.104 366.133L231.199 368.446Z" fill="#163560"/>
<path d="M284.19 128.606C284.783 126.777 285.232 125.447 285.457 124.788C285.56 124.482 285.617 124.323 285.617 124.323C285.617 124.323 285.798 124.494 286.094 124.869C287.936 127.176 294.262 137.102 289.51 160.08C288.811 163.462 287.871 167.127 286.644 171.09C286.644 171.09 304.157 167.998 309.103 164.704C309.309 164.189 311.885 156.564 313.84 155.534C315.798 154.504 319.404 153.373 320.228 153.785C321.052 154.194 322.598 159.965 320.228 162.953C317.858 165.941 311.782 168.823 311.782 168.823C311.782 168.823 292.208 184.482 278.61 184.069C267.246 183.726 279.768 142.233 284.19 128.606Z" fill="#D9935C"/>
<path d="M222.428 113.828C230.064 109.135 218.974 98.694 222.428 83.5598C225.882 68.4256 238.392 71.2826 247.612 66.4273C254.324 62.8927 259.085 66.4678 261.181 68.6785C269.495 68.0665 279.2 79.7255 279.2 79.7255L263.107 101.058L263.718 126.964C263.718 126.964 249.857 147.594 236.465 147.022C223.07 146.451 208.838 122.181 222.428 113.828Z" fill="#181818"/>
<path d="M266.244 342.996C272.448 360.484 276.368 366.467 276.368 366.467L284.686 368.462C284.686 368.462 282.197 359.11 280.596 340.485C279.478 327.462 279.628 311.934 283.375 296.763C296.254 244.634 289.913 208.187 289.913 208.187L257.061 215.225L255.531 215.552C256.841 230.824 258.412 251.575 259.605 267.806C260.683 282.403 261.451 293.34 261.451 293.34C256.37 307.703 260.532 326.897 266.244 342.996Z" fill="#163560"/>
<path d="M228.726 327.702C224.323 348.26 225.104 366.133 225.104 366.133C225.104 366.133 226.481 367.987 227.714 368.256C229.041 368.543 231.199 368.446 231.199 368.446C231.199 368.446 234.782 351.685 243.103 336.554C251.67 320.977 259.146 307.344 261.949 302.074C273.078 281.179 273.544 204.368 273.544 204.368L239.711 202.691C236.308 208.411 234.825 217.794 234.472 228.46C233.582 255.385 239.911 290.493 240.857 295.57C240.857 295.573 240.857 295.576 240.861 295.582C240.935 295.976 240.82 296.36 240.638 296.716C233.907 310.042 231.57 314.417 228.726 327.702Z" fill="#1C468A"/>
<path d="M288.317 212.024C279.812 211.927 256.664 211.484 251.1 209.629C244.247 207.344 242.675 200.634 242.675 199.922C242.675 199.766 243.236 196.618 244.127 191.744C245.905 188.01 246.791 185.759 246.847 183.382C246.877 182.221 246.705 181.031 246.346 179.626C245.609 176.76 244.084 172.997 241.827 166.756C241.03 164.564 240.486 162.306 240.148 160.027C237.88 144.771 243.645 126.318 250.592 122.024C251.405 121.522 253.343 121.553 254.313 121.353C256.107 120.879 259.148 114.393 259.11 103.952L259.919 104.108L273.501 106.8C273.501 106.8 273.192 111.074 273.184 115.099C273.176 118.452 273.377 121.637 274.139 122.04C275.116 122.124 275.694 122.184 275.694 122.184C275.694 122.184 275.706 122.202 275.731 122.237C278.319 122.402 285.186 123.014 286.094 124.869L283.584 132.494L282.856 134.714C284.78 138.842 286.569 143.622 287.456 148.449C287.705 149.814 287.88 151.181 287.971 152.543C288.046 153.704 288.052 154.81 287.999 155.881C287.456 168.323 279.625 175.845 288.046 202.76C289.254 206.619 289.245 209.664 288.317 212.024Z" fill="#D9935C"/>
<path d="M288.317 212.024C284.08 217.766 259.09 217.766 253.526 215.911C246.672 213.623 242.675 200.634 242.675 199.922C242.675 199.766 243.236 196.618 244.127 191.744C244.735 188.385 245.502 184.207 246.346 179.626C250.051 159.509 255.221 131.676 255.221 131.676C255.221 131.676 266.463 141.411 273.968 139.385C281.473 137.359 283.506 132.244 283.506 132.244C283.506 132.244 283.531 132.331 283.584 132.494C284.08 134.086 286.809 142.966 287.362 147.525C287.387 147.737 287.418 148.046 287.456 148.449C287.584 149.898 287.774 152.511 287.999 155.88C287.456 168.323 279.625 175.845 288.046 202.76C289.254 206.619 289.245 209.664 288.317 212.024Z" fill="#F9B06E"/>
<path d="M273.502 106.797C273.502 106.797 273.193 111.071 273.184 115.099C265.583 114.887 261.565 107.952 259.919 104.108L273.502 106.797Z" fill="#CB7D45"/>
<path d="M258.516 102.628C258.516 102.628 254.533 96.3366 253.576 90.9536C252.894 87.1131 254.851 72.8688 269.163 74.9202C269.163 74.9202 273.32 75.3292 277.227 77.9707C280.333 80.069 284.817 84.5996 279.806 97.0267L278.501 101.226L258.516 102.628Z" fill="#070707"/>
<path d="M276.04 110.612C276.04 110.612 258.057 110.909 258.044 99.7057C258.032 88.5026 255.703 80.9963 267.185 80.3344C278.666 79.6724 280.902 83.9439 281.817 87.6814C282.728 91.4188 280.717 110.247 276.04 110.612Z" fill="#D9935C"/>
<path d="M262.895 95.1439C255.338 97.0891 252.06 95.0627 252.06 95.0627C252.06 95.0627 254.014 88.3027 255.217 80.2657C255.217 80.2657 266.785 76.2128 275.222 79.8348C276.399 78.8232 278.501 78.0831 281.279 81.4522C285.451 86.5042 281.738 95.4405 281.738 95.4405C280.027 95.6372 279.625 89.7671 278.728 86.9133C278.067 84.8119 275.903 82.6731 274.806 81.6864C274.455 82.9822 270.834 95.5623 261.795 99.74C261.795 99.74 265.957 96.0463 269.016 90.9224C267.264 92.9114 265.203 94.5506 262.895 95.1439Z" fill="#0E0E0E"/>
<path d="M265.831 252.603C264.316 265.807 263.552 298.346 267.819 310.613C254.245 309.218 229.689 300.463 222.429 292.981C226.301 278.347 230.156 260.949 231.111 246.808C231.338 243.432 231.694 239.292 232.143 234.593C233.964 215.493 237.361 187.22 240.277 163.877C243.147 140.912 245.558 122.711 245.558 122.711L252.15 121.522C252.15 121.522 261.603 129.247 263.132 155.515C264.662 181.79 268.086 232.941 265.831 252.603Z" fill="#ED5C18"/>
<path d="M275.694 122.184C275.637 122.149 283.012 122.324 285.616 124.323C288.146 126.265 294.959 139.176 293.963 158.488C294.706 161.669 295.402 164.935 296.027 168.22C297.853 168.667 300.463 167.995 300.463 167.995C300.463 167.995 301.859 181.175 299.012 190.489C299.105 191.897 299.174 193.284 299.214 194.639C300.07 223.193 289.544 263.353 289.544 263.353C289.544 263.353 285.96 231.146 284.436 195.638C283.393 171.324 287.006 156.23 282.831 143.488C280.874 137.521 275.694 122.184 275.694 122.184Z" fill="#ED5C18"/>
<path d="M284.221 366.966C284.221 366.966 291.674 373.676 294.409 374.675C297.144 375.675 300.857 376.618 300.854 378.457H287.862C287.862 378.457 284.33 376.817 282.847 377.526C280.458 378.669 278.457 378.491 276.805 378.494C275.158 378.5 275.049 372.961 276.44 371.035C277.832 369.105 276.368 366.467 276.368 366.467L284.221 366.966Z" fill="#163560"/>
<path d="M306.683 161.376L312.419 144.153C312.513 143.872 312.816 143.719 313.097 143.812L320.703 146.348C320.984 146.442 321.137 146.744 321.043 147.022L315.307 164.245C315.214 164.526 314.911 164.679 314.633 164.586L307.024 162.05C306.743 161.957 306.59 161.654 306.683 161.376Z" fill="#111111"/>
<path d="M307.814 161.31L313.287 144.874C313.453 144.374 313.993 144.106 314.489 144.271L321.312 146.545C321.808 146.71 322.08 147.247 321.911 147.744L316.441 164.183C316.275 164.679 315.738 164.948 315.239 164.782L308.416 162.512C307.92 162.344 307.648 161.807 307.814 161.31Z" fill="#202020"/>
<path d="M320.69 154.557C320.69 154.557 319.148 151.362 316.313 152.649C313.481 153.938 314.717 158.781 316.366 160.48C318.014 162.178 318.476 162.953 318.476 162.953L320.69 154.557Z" fill="#D9935C"/>
<path d="M232.143 234.593C233.964 215.493 237.361 187.22 240.277 163.877C242.693 161.985 245.198 161.26 245.198 161.26C245.198 161.26 261.269 207.818 232.143 234.593Z" fill="#D04708"/>
<path d="M245.556 122.708C245.556 122.708 239.049 124.123 235.822 128.819C231.579 134.995 224.685 181.287 221.045 189.212C217.404 197.137 215.691 200.562 215.691 200.562C215.691 200.562 213.763 212.861 225.971 220.095C225.971 220.095 240.748 193.28 242.675 189.427C244.602 185.571 250.793 130.948 245.556 122.708Z" fill="#ED5C18"/>
<path d="M211.576 226.543C211.576 226.543 206.047 230.399 205.611 231.739C205.175 233.075 207.211 236.672 208.945 236.604C210.678 236.538 210.222 233.772 211.208 232.879C212.195 231.986 216.698 231.033 216.088 228.585C215.479 226.137 211.576 226.543 211.576 226.543Z" fill="#D9935C"/>
<path d="M153.355 106.028C153.355 106.028 173.822 105.857 178.747 112.763C183.672 119.673 194.472 156.833 188.837 169.201C183.201 181.565 172.656 164.083 166.803 156.508C160.951 148.936 153.355 106.028 153.355 106.028Z" fill="#FCC670"/>
<path d="M153.564 102.906L153.553 105.023C153.553 105.023 154.129 111.639 145.982 112.604C137.834 113.572 131.662 110.025 131.883 104.917C132.616 100.964 133.422 98.2506 133.477 94.9784C133.497 93.7638 133.414 92.4742 133.187 91.0161L148.975 90.7007L153.625 91.4626L153.564 102.906Z" fill="#FFB27D"/>
<path d="M153.625 91.4626L153.564 102.906C151.887 103.687 149.995 104.161 147.874 104.161C140.618 104.161 135.928 98.8408 133.477 94.9784C133.497 93.7638 133.414 92.4742 133.187 91.0161L148.975 90.7007L153.625 91.4626Z" fill="#E2915A"/>
<path d="M131.977 88.4776C133.809 98.3349 146.529 98.0102 152.027 97.392C153.574 97.2202 154.547 97.0235 154.547 97.0235C156.291 96.5552 157.265 93.8075 157.717 90.2105C158.614 83.0883 157.48 72.6315 156.278 69.9587C154.467 65.934 151.056 61.5845 138.246 64.7225C125.434 67.8667 129.627 75.8475 131.977 88.4776Z" fill="#FFB27D"/>
<path d="M139.639 379.05C139.639 379.05 138.884 373.164 137.134 369.664C135.383 366.164 124.248 368.39 124.248 368.39C124.248 368.39 122.021 370.301 121.544 379.209L139.639 379.05Z" fill="#233862"/>
<path d="M177.579 378.969C174.963 377.373 176.451 365.458 176.451 365.458C176.451 365.458 188.644 355.704 190.32 363.173C191.997 370.641 201.903 373.992 207.542 374.906C211.435 375.537 212.64 377.695 213.014 378.969H177.579Z" fill="#233862"/>
<path d="M174.284 133.724C174.284 133.724 184.606 155.2 184.376 160.439C184.376 160.439 180.726 156.98 174.284 157.432C167.843 157.888 174.284 133.724 174.284 133.724Z" fill="#F0B75C"/>
<path d="M152.027 97.3919C153.574 97.2202 154.547 97.0235 154.547 97.0235C156.291 96.5551 157.265 93.8074 157.717 90.2104C154.446 91.016 152.947 93.542 152.323 94.6193C152.041 95.1032 151.983 96.1898 152.027 97.3919Z" fill="#E2915A"/>
<path d="M160.336 102.969C160.336 102.969 167.46 91.2128 161.92 90.7007C156.381 90.1918 154.155 93.9386 153.355 95.3156C152.555 96.6926 153.564 102.906 153.564 102.906L160.336 102.969Z" fill="#FFB27D"/>
<path d="M152.325 292.313C152.821 295.048 153.136 297.29 153.219 298.898C154.353 321.008 171.829 371.556 174.955 372.736C179.792 374.563 187.409 370.682 191.394 369.411C193.045 368.883 194.16 367.219 193.792 365.53C185.137 325.741 181.957 268.449 180.799 234.527C180.215 217.441 177.282 205.642 177.282 205.642C177.282 205.642 134.657 194.267 134.404 208.655C134.18 221.385 148.523 271.312 152.325 292.313Z" fill="#2B478B"/>
<path d="M152.325 292.313L180.799 234.527C180.215 217.441 177.282 205.642 177.282 205.642C177.282 205.642 134.657 194.267 134.404 208.655C134.18 221.385 148.523 271.312 152.325 292.313Z" fill="#233862"/>
<path d="M161.808 208.705L139.275 372.021C139.275 372.021 129.379 374.407 121.683 372.496C121.683 372.496 115.086 285.637 115.636 264.639C116.186 243.641 110.901 208.452 116.842 204.571C122.783 200.69 161.808 208.705 161.808 208.705Z" fill="#2B478B"/>
<path d="M113.574 199.931C115.276 180.6 114.905 163.699 116.22 150.651C106.16 138.77 100.985 123.27 104.966 117.581C111.393 108.398 131.883 104.917 131.883 104.917C131.883 108.314 139.256 112.573 145.155 112.186C146.134 112.123 147.045 111.924 147.878 111.63C149.799 106.906 151.118 103.771 151.118 103.771C151.118 103.771 153.464 98.9688 161.809 101.732C161.809 101.732 162.062 105.979 161.809 112.311C161.805 112.426 161.8 112.545 161.795 112.66C168.152 118.437 175.779 127.18 175.79 135.548C175.803 147.366 175.951 157.332 176.168 165.719C176.409 175.039 176.745 182.415 177.091 188.232C178.115 205.408 179.251 209.02 178.507 209.008C178.507 209.008 171.973 214.956 154.712 214.847C143.86 214.781 135.028 213.573 128.463 212.208C119.633 210.379 114.914 208.265 114.914 208.265C113.021 208.237 113.418 201.723 113.574 199.931Z" fill="#FCC670"/>
<path d="M160.209 60.5759C160.209 60.5759 154.57 60.1419 147.92 57.2506C142.522 54.9025 135.712 57.4879 133.501 58.6525C133.561 58.2966 133.703 57.8095 134.04 57.3224C134.04 57.3224 133.047 58.0249 132.901 59.0085C132.799 59.0834 132.753 59.1365 132.78 59.1552C132.78 59.1552 131.655 58.9491 130.932 59.2739C130.932 59.2739 131.438 59.2021 131.619 59.5268C131.638 59.5611 131.666 59.5892 131.699 59.6173C123.279 63.6858 122.501 76.9934 125.211 80.0721C128.471 83.7752 132.38 92.1183 132.38 92.1183C132.38 92.1183 133.806 90.148 133.213 86.8883C132.62 83.6285 135.436 83.6285 138.992 82.1453C142.549 80.6622 139.585 76.5157 142.697 73.9959C145.809 71.4762 157.219 72.9593 157.07 71.0328C161.306 69.4903 160.209 61.0099 160.209 60.5759Z" fill="#233862"/>
<path d="M129.397 166.472C132.739 179.889 168.876 186.823 177.091 188.232C176.745 182.415 176.409 175.039 176.168 165.719L129.397 166.472Z" fill="#F0B75C"/>
<path d="M137.33 170.83C136.986 170.83 129.296 169.685 127.919 168.995C126.542 168.308 120.243 159.356 124.368 157.061C128.493 154.766 139.567 163.946 139.567 163.946L137.33 170.83Z" fill="#FFB27D"/>
<path d="M184.097 173.491C184.097 173.491 154.359 175.105 134.401 170.83C134.401 170.83 133.898 165.067 140.17 162.506C140.17 162.506 171.275 155.912 178.747 157.748C186.22 159.584 184.097 173.491 184.097 173.491Z" fill="#FCC670"/>
<path d="M115.802 150.154C121.975 157.595 130.042 163.671 138.937 165.095L138.939 165.092C157.439 156.742 161.182 128.066 161.809 112.311C161.809 112.311 153.055 144.062 141.14 155.159C138.987 157.167 136.729 158.5 134.401 158.847C134.401 158.847 119.376 154.6 116.225 150.601C116 150.313 115.862 150.173 115.802 150.154Z" fill="#F0B75C"/>
<path d="M121.939 132.132C121.939 132.132 131.219 143.775 136.761 133.402C136.761 133.402 130.961 139.041 121.939 132.132Z" fill="#F0B75C"/>
<path d="M861.703 380.814H1.29502C0.582865 380.814 0 380.233 0 379.522C0 378.807 0.582865 378.226 1.29502 378.226H861.703C862.415 378.226 863 378.807 863 379.522C863 380.233 862.415 380.814 861.703 380.814Z" fill="#2E3552"/>
<path d="M708.997 344.579L704.421 363.847L697.571 363.809L697.32 344.579H708.997Z" fill="#E49963"/>
<path d="M651.359 345.4L638.342 363.847L633.271 357.333L641.103 342.864L651.359 345.4Z" fill="#E49963"/>
<path d="M685.201 91.3944C687.563 90.0501 690.402 89.9034 692.384 90.0203C691.869 89.494 690.864 89.3015 690.864 89.3015C692.095 89.1187 694.843 90.3383 694.843 90.3383C711.947 83.7478 714.632 108.931 714.276 114.782C713.915 120.632 720.02 122.542 728.916 127.152C745.896 135.947 747.387 147.724 747.387 147.724C747.257 147.802 747.118 147.891 746.968 147.993C746.126 146.565 744.394 143.885 742.932 143.481C742.99 143.611 744.659 147.171 745.285 149.211C740.276 153.021 730.903 161.463 724.375 167.449C724.403 166.278 724.355 164.616 723.927 163.742L723.124 168.601C719.631 171.811 717.22 174.071 717.22 174.071C717.648 169.344 695.839 144.394 684.455 136.921C681.684 132.843 680.697 125.637 680.625 125.07C681.106 130.784 682.083 133.989 682.959 135.793C673.317 126.923 678.927 94.9572 685.201 91.3944Z" fill="#163560"/>
<path d="M685.129 137.295C685.066 137.321 690.623 140.203 694.798 139.061C698.724 137.99 701.292 132.896 701.237 132.885C699.575 132.554 699.095 130.269 699.132 120.445L698.38 120.593L685.732 123.097C685.732 123.097 686.022 127.076 686.031 130.825C686.04 133.973 685.849 136.959 685.129 137.295Z" fill="#E49963"/>
<path d="M685.733 123.096C685.733 123.096 686.021 127.076 686.03 130.824C693.108 130.625 696.847 124.17 698.38 120.592L685.733 123.096Z" fill="#D68D5D"/>
<path d="M699.687 119.214C699.687 119.214 703.396 113.355 704.288 108.345C704.921 104.768 703.1 91.5093 689.776 93.4188C689.776 93.4188 685.907 93.8002 682.271 96.2567C679.377 98.2103 675.204 102.428 679.868 113.998L681.079 117.907L699.687 119.214Z" fill="#163560"/>
<path d="M635.332 352.278L642.037 352.481L649.294 352.706C649.294 352.706 666.049 334.047 675.452 304.134C675.671 303.438 675.904 302.735 676.145 302.024C681.294 287.021 691.956 268.193 697.579 251.148C698.469 248.434 699.277 245.877 699.998 243.46C700.226 242.686 700.455 241.924 700.665 241.175C704.809 226.784 706.009 217.335 707.114 207.237L666.524 207.562C666.524 207.562 659.974 276.501 635.332 352.278Z" fill="#2B478B"/>
<path d="M672.206 184.242C672.308 203.557 669.375 211.841 669.375 211.841C669.375 211.841 686.752 220.671 707.404 214.17C707.646 214.095 723.345 210.514 723.345 210.514C722.999 209.73 717.673 196.766 717.333 196.048C712.972 186.684 713.075 182.263 712.562 179.384C711.601 174.01 711.578 168.449 712.058 163.204C713.317 149.319 717.067 137.794 717.067 137.794C711.438 136.513 706.168 134.264 700.31 132.067C698.967 133.745 694.849 135.5 691.271 135.42C687.158 135.329 685.824 133.568 686.039 131.645C681.655 134.085 678.152 136.39 678.152 136.39C674.43 142.862 666.875 149.147 666.325 159.076C666.19 161.518 672.201 183.702 672.206 184.242Z" fill="#E7F1FD"/>
<path d="M648.646 155.551C654.602 148.591 670.038 133.497 685.967 131.645L672.225 158.423C672.225 158.423 671.449 163.013 667.378 165.688C657.409 172.239 644.735 175.137 644.735 175.137C644.735 175.137 636.146 171.39 624.407 162.791C620.727 160.093 614.257 149.797 614.257 149.797L616 143.955C616 143.955 626.988 150.099 630.917 151.871C633.152 152.881 638.305 155.293 641.933 156.999C644.239 158.082 646.983 157.489 648.646 155.551Z" fill="#C65447"/>
<path d="M683.372 126.646C683.372 126.646 700.114 126.922 700.123 116.494C700.137 106.065 702.304 99.0771 691.616 98.4594C680.928 97.8418 678.846 101.819 677.994 105.3C677.146 108.779 679.014 126.305 683.372 126.646Z" fill="#E49963"/>
<path d="M683.991 98.2048C683.991 98.2048 688.574 110.44 695.608 112.249C702.642 114.058 705.694 112.173 705.694 112.173C705.694 112.173 704.696 101.514 703.576 94.031C703.576 94.031 687.445 92.381 683.991 98.2048Z" fill="#163560"/>
<path d="M685.127 99.1975C685.127 99.1975 681.704 101.929 680.866 104.585C680.034 107.241 679.657 112.707 678.063 112.521C678.063 112.521 674.612 104.205 678.492 99.5013C682.607 94.5125 685.127 99.1975 685.127 99.1975Z" fill="#163560"/>
<path d="M616.002 143.955C616.002 143.955 613.643 135.448 604.291 136.65C603.217 136.987 600.081 138.237 602.084 141.594C603.562 144.069 604.202 142.792 606.526 146.118C608.853 149.444 611.372 150.194 614.256 149.797L616.002 143.955Z" fill="#E49963"/>
<path d="M704.653 362.77C704.653 362.77 704.101 366.585 705.524 370.669C705.524 370.669 706.646 375.781 701.615 375.874C696.579 375.968 695.347 375.494 695.913 372.362C696.488 369.227 697.569 363.81 697.569 363.81L704.653 362.77Z" fill="#E49963"/>
<path d="M695.435 378.057C695.435 378.057 695.545 378.123 695.754 378.226H705.604C705.796 378.123 705.882 378.057 705.882 378.057C706.452 375.494 705.522 370.67 705.522 370.67C699.822 375.89 696.256 370.539 696.256 370.539C695.33 372.771 695.435 378.057 695.435 378.057Z" fill="#9E322A"/>
<path d="M621.144 372.874C621.144 372.874 630.419 362.573 633.268 357.334L640.167 360.868L624.745 375.353L621.135 374.878L621.144 372.874Z" fill="#E49963"/>
<path d="M615.383 378.226H628.077C629.302 377.311 630.445 375.197 631.863 372.356C632.618 370.841 634.319 370.008 636.066 369.549V378.126H638.697L641.191 369.009C642.834 365.989 641.324 363.251 640.165 360.869C638.822 360.866 635.203 361.787 628.348 369.508C626.096 372.044 623.606 372.952 621.138 372.871C621.105 372.896 621.067 372.915 621.038 372.927C616.901 374.785 615.717 377.096 615.383 378.226Z" fill="#9E322A"/>
<path d="M686.038 131.645C686.038 131.645 676.352 155.575 676.064 160.418C675.78 165.261 674.929 239.611 674.929 239.611C674.929 239.611 675.497 243.03 668.942 241.606C662.391 240.182 660.684 238.756 660.684 238.756C660.684 238.756 666.95 192.894 665.239 176.942C663.531 160.987 678.344 134.97 678.344 134.97L686.038 131.645Z" fill="#C65447"/>
<path d="M642.035 352.481L649.292 352.706C649.292 352.706 666.052 334.047 675.454 304.134C675.671 303.438 675.902 302.736 676.146 302.024C681.291 287.021 691.956 268.193 697.58 251.148C698.471 248.434 699.277 245.877 699.996 243.46C700.227 242.686 700.453 241.924 700.666 241.175L694.689 236.641C694.689 236.641 676.744 265.695 671.192 293.041C666.364 316.793 647.039 345.375 642.035 352.481Z" fill="#233862"/>
<path d="M694.063 295.589C693.96 308.887 694.633 339.458 696.368 352.116H702.791C706.344 352.116 708.121 352.063 708.121 352.063C712.464 330.057 715.554 311.847 717.802 296.157C719.649 283.28 721.29 272.243 722.552 262.741C723.819 253.177 724.707 245.168 725.02 238.402C725.072 237.338 725.109 236.301 725.128 235.296C725.147 234.284 725.151 233.3 725.147 232.348L690.075 228.929C690.52 252.228 694.119 287.861 694.063 295.589Z" fill="#2B478B"/>
<path d="M702.789 352.116C706.346 352.116 708.117 352.063 708.117 352.063C712.46 330.057 715.554 311.847 717.802 296.157C719.648 283.281 721.289 272.243 722.551 262.741C723.818 253.178 724.706 245.169 725.019 238.402L712.151 245.971C712.151 245.971 720.368 248.869 717.232 270.804C714.1 292.738 707.154 349.01 702.789 352.116Z" fill="#233862"/>
<path d="M701.138 238.187C701.138 238.187 703.607 247.113 712.154 245.974C720.701 244.834 732.852 239.704 732.852 239.704C732.852 239.704 729.201 228.164 724.659 213.005C719.162 194.651 712.357 170.99 709.151 156.064C708.249 151.882 707.631 148.39 707.404 145.888L700.311 132.132C700.311 132.132 689.743 155.859 689.172 161.841C688.605 167.824 701.138 238.187 701.138 238.187Z" fill="#C65447"/>
<path d="M709.668 160.952L700.311 132.133C700.334 132.144 712.131 135.642 718.06 138.639C718.06 138.639 721.774 143.419 724.068 154.449C724.068 154.449 726.49 180.929 721.081 190.614C721.081 190.614 703.983 194.034 676.638 184.632V178.365C676.638 178.365 706.549 179.933 712.674 180.645L709.668 160.952Z" fill="#E49963"/>
<path d="M701.513 174.374C701.901 184.06 704.176 202.863 724.494 212.927C724.55 212.952 724.606 212.983 724.657 213.005C719.163 194.651 712.356 170.99 709.147 156.064C705.414 161.642 701.307 169.045 701.513 174.374Z" fill="#9E322A"/>
<path d="M700.312 132.133C700.312 132.133 717.659 133.355 721.836 142.661C726.013 151.966 727.345 182.921 722.028 192.039C722.028 192.039 714.705 194.124 701.756 191.701C701.596 191.673 701.437 191.642 701.278 191.611C701.278 191.611 697.147 181.497 700.851 179.505C700.851 179.505 711.77 180.073 710.631 176.464C709.492 172.858 700.312 132.133 700.312 132.133Z" fill="#C65447"/>
<path d="M679.708 180.031C679.708 180.031 677.325 177.143 676.815 174.192C676.309 171.245 674.731 169.059 670.619 168.519C666.508 167.979 664.735 167.919 664.749 169.078C664.757 170.236 668.108 178.333 674.009 183.166C679.911 188 679.708 180.031 679.708 180.031Z" fill="#E49963"/>
<path d="M610.193 145.351C610.054 145.351 609.911 145.314 609.78 145.236L545.239 106.039C544.865 105.812 544.746 105.326 544.973 104.953C545.199 104.58 545.688 104.462 546.058 104.689L610.603 143.885C610.976 144.112 611.096 144.598 610.869 144.971C610.718 145.216 610.46 145.351 610.193 145.351Z" fill="#9E322A"/>
<path d="M603.097 141.598C603.097 141.598 601.389 139.23 603.787 139.342C606.186 139.455 611.649 141.023 611.649 141.023C611.649 141.023 613.661 147.26 608.006 146.572C608.006 146.572 606.31 143.002 603.097 141.598Z" fill="#E49963"/>
<path d="M516.945 109.284L521.933 87.6075L505.587 101.67L516.945 109.284Z" fill="#5F5F5F"/>
</svg>
