<svg width="52" height="52" viewBox="0 0 52 52" fill="none" xmlns="http://www.w3.org/2000/svg">
<path d="M25.9952 4.36395C16.4229 4.36395 8.66193 12.1249 8.66193 21.6973C8.66193 29.2091 13.5326 37.7566 20.1041 44.8546C20.3164 45.0821 20.4898 45.2598 20.7129 45.4634C22.5741 47.1296 24.5024 47.7189 25.9952 47.6973C26.0147 47.6973 26.0472 47.6973 26.0624 47.6973C27.6181 47.6973 29.8107 46.9974 31.8864 44.9218C38.1914 38.6168 43.3285 29.3196 43.3285 21.6973C43.3285 12.1249 35.5675 4.36395 25.9952 4.36395ZM25.9952 15.1973C29.5854 15.1973 32.4952 18.1071 32.4952 21.6973C32.4952 25.2874 29.5854 28.1973 25.9952 28.1973C22.4051 28.1973 19.4952 25.2874 19.4952 21.6973C19.4952 18.1071 22.4051 15.1973 25.9952 15.1973Z" fill="#ED5C18"/>
</svg>
