<svg width="41" height="41" viewBox="0 0 41 41" fill="none" xmlns="http://www.w3.org/2000/svg">
<path d="M13.6774 3.4408C12.7344 3.4408 11.9691 4.20613 11.9691 5.14913C8.19537 5.14913 5.13574 8.20875 5.13574 11.9825V29.0659C5.13574 32.8396 8.19537 35.8992 11.9691 35.8992H29.0524C32.8278 35.8992 35.8857 32.8396 35.8857 29.0659V11.9825C35.8857 8.20875 32.8278 5.14913 29.0524 5.14913C29.0524 4.20613 28.2888 3.4408 27.3441 3.4408C26.4011 3.4408 25.6357 4.20613 25.6357 5.14913H15.3857C15.3857 4.20613 14.6221 3.4408 13.6774 3.4408ZM22.2191 15.3991C23.1638 15.3991 23.9274 16.1645 23.9274 17.1075C23.9274 18.0505 23.1638 18.8159 22.2191 18.8159C21.2761 18.8159 20.5107 18.0505 20.5107 17.1075C20.5107 16.1645 21.2761 15.3991 22.2191 15.3991ZM27.3441 15.3991C28.2888 15.3991 29.0524 16.1645 29.0524 17.1075C29.0524 18.0505 28.2888 18.8159 27.3441 18.8159C26.4011 18.8159 25.6357 18.0505 25.6357 17.1075C25.6357 16.1645 26.4011 15.3991 27.3441 15.3991ZM13.6774 22.2325C14.6221 22.2325 15.3857 22.9979 15.3857 23.9409C15.3857 24.8839 14.6221 25.6492 13.6774 25.6492C12.7344 25.6492 11.9691 24.8839 11.9691 23.9409C11.9691 22.9979 12.7344 22.2325 13.6774 22.2325ZM18.8024 22.2325C19.7471 22.2325 20.5107 22.9979 20.5107 23.9409C20.5107 24.8839 19.7471 25.6492 18.8024 25.6492C17.8594 25.6492 17.0941 24.8839 17.0941 23.9409C17.0941 22.9979 17.8594 22.2325 18.8024 22.2325Z" fill="#ED5C18"/>
</svg>
