<svg width="41" height="41" viewBox="0 0 41 41" fill="none" xmlns="http://www.w3.org/2000/svg">
<path d="M31.0408 3.41663H9.95989C6.3553 3.41663 3.41699 6.35496 3.41699 9.95954V31.0233C3.41699 34.645 6.3553 37.5833 9.95989 37.5833H31.0408C34.6453 37.5833 37.5837 34.645 37.5837 31.0233V9.95954C37.5837 6.35496 34.6453 3.41663 31.0408 3.41663ZM28.1024 15.5116C27.9658 15.5116 27.8462 15.4945 27.7266 15.4775L23.5753 20.1583C23.6949 20.4487 23.7632 20.7562 23.7632 21.0808C23.7632 22.5329 22.5845 23.7116 21.1153 23.7116C20.7736 23.7116 20.4491 23.6433 20.1586 23.5237L15.4607 27.6066C15.4949 27.7775 15.512 27.9483 15.512 28.1362C15.512 29.5883 14.3333 30.767 12.8812 30.767C11.4291 30.767 10.2503 29.5883 10.2503 28.1362C10.2503 26.6841 11.4291 25.5054 12.8812 25.5054C13.1887 25.5054 13.4962 25.5737 13.7695 25.6762L18.5358 21.5591C18.5016 21.4054 18.4845 21.2345 18.4845 21.0808C18.4845 19.6287 19.6632 18.45 21.1153 18.45C21.3032 18.45 21.4741 18.467 21.6278 18.5012L25.6937 13.9229C25.5399 13.5983 25.4716 13.2566 25.4716 12.8808C25.4716 11.4287 26.6503 10.25 28.1024 10.25C29.5545 10.25 30.7332 11.4287 30.7332 12.8808C30.7332 14.3329 29.5545 15.5116 28.1024 15.5116Z" fill="#ED5C18"/>
</svg>
