<svg width="41" height="41" viewBox="0 0 41 41" fill="none" xmlns="http://www.w3.org/2000/svg">
<path d="M18.4502 4.09998C17.318 4.09998 16.4002 5.01779 16.4002 6.14998C16.4002 7.28216 17.318 8.19998 18.4502 8.19998H22.5502C23.6824 8.19998 24.6002 7.28216 24.6002 6.14998C24.6002 5.01779 23.6824 4.09998 22.5502 4.09998H18.4502Z" fill="#ED5C18"/>
<path fill-rule="evenodd" clip-rule="evenodd" d="M8.2002 10.25C8.2002 7.98561 10.0358 6.14998 12.3002 6.14998C12.3002 9.54653 15.0536 12.3 18.4502 12.3H22.5502C25.9467 12.3 28.7002 9.54653 28.7002 6.14998C30.9646 6.14998 32.8002 7.98561 32.8002 10.25V32.8C32.8002 35.0643 30.9646 36.9 28.7002 36.9H12.3002C10.0358 36.9 8.2002 35.0643 8.2002 32.8V10.25ZM28.0998 21.9495C28.9003 21.149 28.9003 19.851 28.0998 19.0504C27.2992 18.2498 26.0012 18.2498 25.2006 19.0504L18.4502 25.8008L15.7998 23.1504C14.9992 22.3498 13.7012 22.3498 12.9006 23.1504C12.1001 23.951 12.1001 25.249 12.9006 26.0495L17.0006 30.1495C17.8012 30.9501 19.0992 30.9501 19.8998 30.1495L28.0998 21.9495Z" fill="#ED5C18"/>
</svg>
