<svg width="41" height="41" viewBox="0 0 41 41" fill="none" xmlns="http://www.w3.org/2000/svg">
<path d="M27.7941 3.41675H13.222C10.8816 3.41675 8.98535 5.36425 8.98535 7.73883V33.2613C8.98535 35.6359 10.8816 37.5834 13.222 37.5834H27.7941C30.1345 37.5834 32.0479 35.6359 32.0479 33.2613V7.73883C32.0479 5.36425 30.1345 3.41675 27.7941 3.41675ZM19.6624 8.67841H21.3708C22.0712 8.67841 22.652 9.25925 22.652 9.95966C22.652 10.6772 22.0712 11.2409 21.3708 11.2409H19.6624C18.9449 11.2409 18.3812 10.6772 18.3812 9.95966C18.3812 9.25925 18.9449 8.67841 19.6624 8.67841ZM20.4995 33.6201C18.9278 33.6201 17.6466 32.3388 17.6466 30.7672C17.6466 29.1955 18.9278 27.9142 20.4995 27.9142C22.0712 27.9142 23.3524 29.1955 23.3524 30.7672C23.3524 32.3388 22.0712 33.6201 20.4995 33.6201Z" fill="#ED5C18"/>
</svg>
