<svg width="53" height="53" viewBox="0 0 53 53" fill="none" xmlns="http://www.w3.org/2000/svg">
<path d="M50.2849 26.8369H2.38582C1.82955 26.8066 1.30604 26.5643 0.922974 26.1598C0.539908 25.7553 0.326416 25.2194 0.326416 24.6623C0.326416 24.1052 0.539908 23.5693 0.922974 23.1648C1.30604 22.7603 1.82955 22.5179 2.38582 22.4877H50.2849C50.5805 22.4716 50.8762 22.5159 51.154 22.6179C51.4318 22.7199 51.686 22.8775 51.9008 23.081C52.1157 23.2845 52.2869 23.5297 52.4039 23.8016C52.5208 24.0734 52.5812 24.3663 52.5812 24.6623C52.5812 24.9582 52.5208 25.2511 52.4039 25.523C52.2869 25.7948 52.1157 26.04 51.9008 26.2435C51.686 26.447 51.4318 26.6046 51.154 26.7066C50.8762 26.8086 50.5805 26.853 50.2849 26.8369Z" fill="#ED5C18"/>
<path d="M11.0986 0.714111H6.74937C5.01797 0.715817 3.35797 1.40436 2.13368 2.62865C0.909398 3.85293 0.220846 5.51294 0.21914 7.24435V11.5935C0.207875 11.8861 0.255782 12.178 0.35999 12.4517C0.464199 12.7253 0.622566 12.9751 0.825607 13.1862C1.02865 13.3972 1.27219 13.565 1.54164 13.6797C1.81109 13.7944 2.10091 13.8535 2.39374 13.8535C2.68657 13.8535 2.97639 13.7944 3.24584 13.6797C3.51529 13.565 3.75882 13.3972 3.96187 13.1862C4.16491 12.9751 4.32327 12.7253 4.42748 12.4517C4.53169 12.178 4.5796 11.8861 4.56833 11.5935V7.24435C4.56876 6.66688 4.79834 6.11319 5.20667 5.70486C5.615 5.29653 6.16869 5.06695 6.74615 5.06652H11.0986C11.3912 5.07778 11.6831 5.02987 11.9567 4.92566C12.2304 4.82145 12.4802 4.6631 12.6912 4.46006C12.9022 4.25701 13.0701 4.01347 13.1847 3.74402C13.2994 3.47457 13.3585 3.18474 13.3585 2.89191C13.3585 2.59908 13.2994 2.30928 13.1847 2.03983C13.0701 1.77038 12.9022 1.52684 12.6912 1.32379C12.4802 1.12075 12.2304 0.962378 11.9567 0.858169C11.6831 0.753961 11.3912 0.706066 11.0986 0.717331V0.714111Z" fill="#3F4450"/>
<path d="M11.0985 48.6102H6.74933C6.17186 48.6098 5.61818 48.3802 5.20985 47.9718C4.80152 47.5635 4.57194 47.0098 4.57151 46.4324V42.0832C4.58277 41.7905 4.53487 41.4987 4.43066 41.225C4.32645 40.9513 4.16808 40.7015 3.96504 40.4905C3.762 40.2795 3.51846 40.1117 3.24901 39.997C2.97956 39.8824 2.68974 39.8232 2.39691 39.8232C2.10408 39.8232 1.81426 39.8824 1.54481 39.997C1.27536 40.1117 1.03182 40.2795 0.828784 40.4905C0.625743 40.7015 0.467373 40.9513 0.363164 41.225C0.258956 41.4987 0.211049 41.7905 0.222314 42.0832V46.4324C0.223593 48.1641 0.911958 49.8244 2.13629 51.0491C3.36062 52.2737 5.02087 52.9625 6.75255 52.9642H11.0985C11.3911 52.9755 11.683 52.9276 11.9567 52.8233C12.2303 52.7191 12.4802 52.5608 12.6912 52.3577C12.9022 52.1547 13.07 51.9112 13.1847 51.6417C13.2993 51.3723 13.3584 51.0825 13.3584 50.7896C13.3584 50.4968 13.2993 50.207 13.1847 49.9375C13.07 49.6681 12.9022 49.4245 12.6912 49.2215C12.4802 49.0184 12.2303 48.8601 11.9567 48.7559C11.683 48.6516 11.3911 48.6038 11.0985 48.615V48.6102Z" fill="#3F4450"/>
<path d="M45.9294 0.713916H41.5802C41.2846 0.697823 40.9889 0.742121 40.7111 0.844136C40.4333 0.94615 40.1792 1.10374 39.9643 1.30725C39.7494 1.51077 39.5782 1.75594 39.4612 2.02781C39.3443 2.29969 39.2839 2.59253 39.2839 2.8885C39.2839 3.18446 39.3443 3.47733 39.4612 3.74921C39.5782 4.02108 39.7494 4.26626 39.9643 4.46977C40.1792 4.67328 40.4333 4.83085 40.7111 4.93286C40.9889 5.03487 41.2846 5.0792 41.5802 5.0631H45.9294C46.5068 5.06353 47.0605 5.29312 47.4688 5.70145C47.8772 6.10977 48.1068 6.66347 48.1072 7.24093V11.5901C48.0959 11.8827 48.1438 12.1746 48.248 12.4483C48.3522 12.7219 48.5106 12.9717 48.7136 13.1827C48.9167 13.3938 49.1602 13.5616 49.4297 13.6763C49.6991 13.7909 49.9889 13.85 50.2818 13.85C50.5746 13.85 50.8644 13.7909 51.1339 13.6763C51.4033 13.5616 51.6469 13.3938 51.8499 13.1827C52.053 12.9717 52.2113 12.7219 52.3155 12.4483C52.4197 12.1746 52.4676 11.8827 52.4564 11.5901V7.24093C52.4547 5.50925 51.7659 3.849 50.5413 2.62467C49.3166 1.40033 47.6562 0.711975 45.9245 0.710696L45.9294 0.713916Z" fill="#3F4450"/>
<path d="M50.2846 39.9003C49.707 39.9003 49.153 40.1298 48.7446 40.5382C48.3362 40.9466 48.1068 41.5006 48.1068 42.0782V46.4273C48.1059 47.0047 47.8762 47.5581 47.468 47.9663C47.0597 48.3746 46.5063 48.6043 45.9289 48.6051H41.5797C41.2871 48.5939 40.9953 48.6418 40.7216 48.746C40.4479 48.8502 40.1981 49.0086 39.9871 49.2116C39.7761 49.4146 39.6082 49.6582 39.4936 49.9276C39.3789 50.1971 39.3198 50.4869 39.3198 50.7798C39.3198 51.0726 39.3789 51.3624 39.4936 51.6319C39.6082 51.9013 39.7761 52.1449 39.9871 52.3479C40.1981 52.5509 40.4479 52.7093 40.7216 52.8135C40.9953 52.9177 41.2871 52.9656 41.5797 52.9544H45.9289C47.6608 52.9527 49.3212 52.2639 50.5458 51.0394C51.7704 49.8148 52.4591 48.1543 52.4608 46.4225V42.0733C52.4606 41.7877 52.4041 41.505 52.2946 41.2413C52.1852 40.9775 52.0248 40.7379 51.8227 40.5361C51.6206 40.3343 51.3808 40.1743 51.1169 40.0653C50.853 39.9562 50.5701 39.9001 50.2846 39.9003Z" fill="#3F4450"/>
<path d="M43.6421 23.5714C43.6872 23.0978 43.7533 22.6307 43.7533 22.1507C43.7122 18.186 42.1085 14.3976 39.2904 11.6085C36.4723 8.81943 32.6676 7.25494 28.7026 7.25494C24.7377 7.25494 20.9329 8.81943 18.1149 11.6085C15.2968 14.3976 13.693 18.186 13.652 22.1507C13.6429 22.6344 13.5502 23.1128 13.3782 23.565L43.6421 23.5714Z" fill="#ED5C18"/>
<path d="M9.37635 30.1035L9.2942 30.234C9.06358 30.5998 8.93535 31.0207 8.92288 31.453C8.91041 31.8852 9.01416 32.3129 9.2233 32.6913C9.43244 33.0698 9.73932 33.3852 10.1119 33.6046C10.4845 33.824 10.9091 33.9395 11.3415 33.9389H13.6531V37.7726C13.6582 38.8294 14.082 39.8411 14.8317 40.586C15.5814 41.3309 16.5959 41.7482 17.6527 41.7465C18.0478 41.7522 18.4409 41.6912 18.8157 41.5661L21.5428 40.7462V44.7925C21.5432 45.2252 21.7153 45.6399 22.0212 45.9459C22.3271 46.2518 22.7419 46.4238 23.1746 46.4243H37.3803C37.8132 46.4243 38.2284 46.2524 38.5347 45.9465C38.841 45.6405 39.0133 45.2254 39.0137 44.7925V36.943C39.0117 34.7106 39.7097 32.5338 41.0095 30.7188C41.1496 30.5191 41.2511 30.3 41.3816 30.0987H9.37635V30.1035Z" fill="#ED5C18"/>
</svg>
