<svg width="622" height="373" viewBox="0 0 622 373" fill="none" xmlns="http://www.w3.org/2000/svg">
<g filter="url(#filter0_d_291_48)">
<rect x="32" y="28" width="558" height="310" rx="19.1779" fill="white"/>
</g>
<path d="M43.8516 288.821C44.6936 288.145 45.3532 287.592 45.8305 287.161C46.3078 286.723 46.7089 286.269 47.0337 285.798C47.3652 285.321 47.5309 284.854 47.5309 284.396C47.5309 283.965 47.4249 283.627 47.2127 283.382C47.0072 283.13 46.6724 283.004 46.2084 283.004C45.7576 283.004 45.4062 283.147 45.1543 283.432C44.909 283.71 44.7764 284.085 44.7565 284.555H43.8815C43.908 283.813 44.1334 283.239 44.5577 282.835C44.9819 282.431 45.5289 282.229 46.1984 282.229C46.8813 282.229 47.4216 282.417 47.8193 282.795C48.2237 283.173 48.4259 283.694 48.4259 284.357C48.4259 284.907 48.2602 285.444 47.9287 285.967C47.6039 286.485 47.2326 286.942 46.815 287.34C46.3973 287.731 45.8637 288.188 45.214 288.712H48.6347V289.468H43.8516V288.821ZM49.6808 285.878C49.6808 284.738 49.8664 283.849 50.2377 283.213C50.6089 282.57 51.2586 282.248 52.1867 282.248C53.1082 282.248 53.7546 282.57 54.1258 283.213C54.4971 283.849 54.6827 284.738 54.6827 285.878C54.6827 287.038 54.4971 287.94 54.1258 288.583C53.7546 289.226 53.1082 289.547 52.1867 289.547C51.2586 289.547 50.6089 289.226 50.2377 288.583C49.8664 287.94 49.6808 287.038 49.6808 285.878ZM53.7877 285.878C53.7877 285.301 53.7479 284.814 53.6684 284.416C53.5955 284.012 53.4397 283.687 53.201 283.442C52.969 283.196 52.6309 283.074 52.1867 283.074C51.7359 283.074 51.3912 283.196 51.1525 283.442C50.9205 283.687 50.7647 284.012 50.6852 284.416C50.6122 284.814 50.5758 285.301 50.5758 285.878C50.5758 286.475 50.6122 286.975 50.6852 287.38C50.7647 287.784 50.9205 288.109 51.1525 288.354C51.3912 288.599 51.7359 288.722 52.1867 288.722C52.6309 288.722 52.969 288.599 53.201 288.354C53.4397 288.109 53.5955 287.784 53.6684 287.38C53.7479 286.975 53.7877 286.475 53.7877 285.878Z" fill="#687888"/>
<line x1="73.8324" y1="285.271" x2="578.656" y2="285.271" stroke="#E5E8EC" stroke-width="0.710292" stroke-dasharray="2.84 2.84"/>
<path d="M43.7422 256.098V255.412L47.2326 250.579H48.3165V255.312H49.3109V256.098H48.3165V257.699H47.4216V256.098H43.7422ZM47.4613 251.523L44.7864 255.312H47.4613V251.523ZM50.2149 254.029C50.2149 252.889 50.4005 252.001 50.7718 251.364C51.143 250.721 51.7927 250.4 52.7208 250.4C53.6423 250.4 54.2887 250.721 54.6599 251.364C55.0312 252.001 55.2168 252.889 55.2168 254.029C55.2168 255.19 55.0312 256.091 54.6599 256.734C54.2887 257.377 53.6423 257.699 52.7208 257.699C51.7927 257.699 51.143 257.377 50.7718 256.734C50.4005 256.091 50.2149 255.19 50.2149 254.029ZM54.3218 254.029C54.3218 253.453 54.2821 252.965 54.2025 252.568C54.1296 252.163 53.9738 251.838 53.7351 251.593C53.5031 251.348 53.165 251.225 52.7208 251.225C52.27 251.225 51.9253 251.348 51.6866 251.593C51.4546 251.838 51.2988 252.163 51.2193 252.568C51.1463 252.965 51.1099 253.453 51.1099 254.029C51.1099 254.626 51.1463 255.127 51.2193 255.531C51.2988 255.935 51.4546 256.26 51.6866 256.505C51.9253 256.751 52.27 256.873 52.7208 256.873C53.165 256.873 53.5031 256.751 53.7351 256.505C53.9738 256.26 54.1296 255.935 54.2025 255.531C54.2821 255.127 54.3218 254.626 54.3218 254.029Z" fill="#687888"/>
<line x1="73.8324" y1="253.422" x2="578.656" y2="253.422" stroke="#E5E8EC" stroke-width="0.710292" stroke-dasharray="2.84 2.84"/>
<path d="M47.9685 220.37C47.8226 219.634 47.3685 219.266 46.6061 219.266C46.0161 219.266 45.5753 219.495 45.2836 219.952C44.9919 220.403 44.8494 221.149 44.856 222.19C45.0085 221.845 45.2604 221.576 45.6117 221.384C45.9697 221.185 46.3675 221.086 46.805 221.086C47.4879 221.086 48.0315 221.298 48.4359 221.722C48.8469 222.147 49.0524 222.733 49.0524 223.482C49.0524 223.933 48.9629 224.338 48.7839 224.696C48.6115 225.054 48.3464 225.339 47.9884 225.551C47.637 225.763 47.2094 225.869 46.7056 225.869C46.0228 225.869 45.4891 225.717 45.1046 225.412C44.7201 225.107 44.4516 224.686 44.2991 224.149C44.1466 223.612 44.0704 222.949 44.0704 222.16C44.0704 219.727 44.919 218.51 46.6161 218.51C47.2658 218.51 47.7762 218.686 48.1475 219.037C48.5187 219.389 48.7375 219.833 48.8038 220.37H47.9685ZM46.6161 221.852C46.331 221.852 46.0625 221.911 45.8106 222.031C45.5587 222.143 45.3532 222.319 45.1941 222.558C45.0416 222.79 44.9654 223.075 44.9654 223.413C44.9654 223.917 45.1112 224.328 45.4029 224.646C45.6946 224.957 46.1123 225.113 46.6559 225.113C47.1199 225.113 47.4879 224.971 47.7597 224.686C48.0381 224.394 48.1773 224.003 48.1773 223.512C48.1773 222.995 48.0447 222.591 47.7795 222.299C47.5144 222.001 47.1266 221.852 46.6161 221.852ZM50.2732 222.18C50.2732 221.039 50.4588 220.151 50.8301 219.515C51.2013 218.872 51.851 218.55 52.7791 218.55C53.7006 218.55 54.3469 218.872 54.7182 219.515C55.0894 220.151 55.2751 221.039 55.2751 222.18C55.2751 223.34 55.0894 224.241 54.7182 224.885C54.3469 225.528 53.7006 225.849 52.7791 225.849C51.851 225.849 51.2013 225.528 50.8301 224.885C50.4588 224.241 50.2732 223.34 50.2732 222.18ZM54.3801 222.18C54.3801 221.603 54.3403 221.116 54.2608 220.718C54.1878 220.314 54.0321 219.989 53.7934 219.743C53.5614 219.498 53.2233 219.376 52.7791 219.376C52.3283 219.376 51.9836 219.498 51.7449 219.743C51.5129 219.989 51.3571 220.314 51.2775 220.718C51.2046 221.116 51.1682 221.603 51.1682 222.18C51.1682 222.776 51.2046 223.277 51.2775 223.681C51.3571 224.086 51.5129 224.411 51.7449 224.656C51.9836 224.901 52.3283 225.024 52.7791 225.024C53.2233 225.024 53.5614 224.901 53.7934 224.656C54.0321 224.411 54.1878 224.086 54.2608 223.681C54.3403 223.277 54.3801 222.776 54.3801 222.18Z" fill="#687888"/>
<line x1="73.8324" y1="221.572" x2="578.656" y2="221.572" stroke="#E5E8EC" stroke-width="0.710292" stroke-dasharray="2.84 2.84"/>
<path d="M45.2736 190.261C44.9024 190.115 44.6173 189.903 44.4184 189.625C44.2196 189.346 44.1201 189.008 44.1201 188.61C44.1201 188.252 44.2096 187.931 44.3886 187.646C44.5676 187.354 44.8328 187.125 45.1841 186.96C45.5421 186.787 45.973 186.701 46.4769 186.701C46.9807 186.701 47.4083 186.787 47.7597 186.96C48.1176 187.125 48.3861 187.354 48.5651 187.646C48.7508 187.931 48.8436 188.252 48.8436 188.61C48.8436 188.995 48.7408 189.333 48.5353 189.625C48.3298 189.91 48.048 190.122 47.6901 190.261C48.1011 190.387 48.4259 190.609 48.6646 190.927C48.9099 191.239 49.0325 191.617 49.0325 192.061C49.0325 192.492 48.9264 192.87 48.7143 193.195C48.5022 193.513 48.2005 193.761 47.8094 193.94C47.4249 194.113 46.9807 194.199 46.4769 194.199C45.973 194.199 45.5289 194.113 45.1444 193.94C44.7665 193.761 44.4715 193.513 44.2593 193.195C44.0472 192.87 43.9411 192.492 43.9411 192.061C43.9411 191.617 44.0605 191.236 44.2991 190.917C44.5378 190.599 44.8626 190.38 45.2736 190.261ZM47.9685 188.72C47.9685 188.315 47.8359 188.004 47.5707 187.785C47.3055 187.566 46.9409 187.457 46.4769 187.457C46.0194 187.457 45.6581 187.566 45.393 187.785C45.1278 188.004 44.9952 188.319 44.9952 188.73C44.9952 189.101 45.1311 189.399 45.4029 189.625C45.6813 189.85 46.0393 189.963 46.4769 189.963C46.921 189.963 47.279 189.85 47.5508 189.625C47.8293 189.393 47.9685 189.091 47.9685 188.72ZM46.4769 190.659C45.9863 190.659 45.5852 190.775 45.2736 191.007C44.9621 191.232 44.8063 191.574 44.8063 192.031C44.8063 192.455 44.9554 192.797 45.2537 193.055C45.5587 193.314 45.9664 193.443 46.4769 193.443C46.9873 193.443 47.3917 193.314 47.6901 193.055C47.9884 192.797 48.1375 192.455 48.1375 192.031C48.1375 191.587 47.9851 191.249 47.6801 191.017C47.3752 190.778 46.9741 190.659 46.4769 190.659ZM50.2343 190.331C50.2343 189.19 50.42 188.302 50.7912 187.666C51.1625 187.023 51.8121 186.701 52.7403 186.701C53.6617 186.701 54.3081 187.023 54.6793 187.666C55.0506 188.302 55.2362 189.19 55.2362 190.331C55.2362 191.491 55.0506 192.392 54.6793 193.035C54.3081 193.678 53.6617 194 52.7403 194C51.8121 194 51.1625 193.678 50.7912 193.035C50.42 192.392 50.2343 191.491 50.2343 190.331ZM54.3413 190.331C54.3413 189.754 54.3015 189.267 54.2219 188.869C54.149 188.464 53.9932 188.14 53.7545 187.894C53.5225 187.649 53.1844 187.526 52.7403 187.526C52.2895 187.526 51.9447 187.649 51.7061 187.894C51.474 188.14 51.3182 188.464 51.2387 188.869C51.1658 189.267 51.1293 189.754 51.1293 190.331C51.1293 190.927 51.1658 191.428 51.2387 191.832C51.3182 192.237 51.474 192.561 51.7061 192.807C51.9447 193.052 52.2895 193.175 52.7403 193.175C53.1844 193.175 53.5225 193.052 53.7545 192.807C53.9932 192.561 54.149 192.237 54.2219 191.832C54.3015 191.428 54.3413 190.927 54.3413 190.331Z" fill="#687888"/>
<path d="M43.7224 155.787V154.962H45.5918V162.151H44.677V155.787H43.7224ZM47.1462 158.482C47.1462 157.341 47.3319 156.453 47.7031 155.817C48.0743 155.174 48.724 154.852 49.6521 154.852C50.5736 154.852 51.22 155.174 51.5912 155.817C51.9625 156.453 52.1481 157.341 52.1481 158.482C52.1481 159.642 51.9625 160.543 51.5912 161.187C51.22 161.83 50.5736 162.151 49.6521 162.151C48.724 162.151 48.0743 161.83 47.7031 161.187C47.3319 160.543 47.1462 159.642 47.1462 158.482ZM51.2531 158.482C51.2531 157.905 51.2134 157.418 51.1338 157.02C51.0609 156.616 50.9051 156.291 50.6664 156.045C50.4344 155.8 50.0963 155.678 49.6521 155.678C49.2013 155.678 48.8566 155.8 48.618 156.045C48.3859 156.291 48.2301 156.616 48.1506 157.02C48.0777 157.418 48.0412 157.905 48.0412 158.482C48.0412 159.078 48.0777 159.579 48.1506 159.983C48.2301 160.388 48.3859 160.713 48.618 160.958C48.8566 161.203 49.2013 161.326 49.6521 161.326C50.0963 161.326 50.4344 161.203 50.6664 160.958C50.9051 160.713 51.0609 160.388 51.1338 159.983C51.2134 159.579 51.2531 159.078 51.2531 158.482ZM53.3904 158.482C53.3904 157.341 53.576 156.453 53.9473 155.817C54.3185 155.174 54.9682 154.852 55.8963 154.852C56.8178 154.852 57.4642 155.174 57.8354 155.817C58.2067 156.453 58.3923 157.341 58.3923 158.482C58.3923 159.642 58.2067 160.543 57.8354 161.187C57.4642 161.83 56.8178 162.151 55.8963 162.151C54.9682 162.151 54.3185 161.83 53.9473 161.187C53.576 160.543 53.3904 159.642 53.3904 158.482ZM57.4973 158.482C57.4973 157.905 57.4576 157.418 57.378 157.02C57.3051 156.616 57.1493 156.291 56.9106 156.045C56.6786 155.8 56.3405 155.678 55.8963 155.678C55.4455 155.678 55.1008 155.8 54.8622 156.045C54.6301 156.291 54.4743 156.616 54.3948 157.02C54.3219 157.418 54.2854 157.905 54.2854 158.482C54.2854 159.078 54.3219 159.579 54.3948 159.983C54.4743 160.388 54.6301 160.713 54.8622 160.958C55.1008 161.203 55.4455 161.326 55.8963 161.326C56.3405 161.326 56.6786 161.203 56.9106 160.958C57.1493 160.713 57.3051 160.388 57.378 159.983C57.4576 159.579 57.4973 159.078 57.4973 158.482Z" fill="#687888"/>
<path d="M43.7224 123.938V123.112H45.5918V130.302H44.677V123.938H43.7224ZM47.0368 129.576C47.8788 128.9 48.5384 128.346 49.0157 127.915C49.493 127.478 49.8941 127.024 50.219 126.553C50.5504 126.076 50.7162 125.608 50.7162 125.151C50.7162 124.72 50.6101 124.382 50.398 124.136C50.1924 123.885 49.8577 123.759 49.3936 123.759C48.9428 123.759 48.5914 123.901 48.3395 124.186C48.0942 124.465 47.9616 124.839 47.9418 125.31H47.0667C47.0932 124.567 47.3186 123.994 47.7429 123.589C48.1672 123.185 48.7141 122.983 49.3837 122.983C50.0665 122.983 50.6068 123.172 51.0045 123.55C51.4089 123.928 51.6111 124.448 51.6111 125.111C51.6111 125.661 51.4454 126.198 51.1139 126.722C50.7891 127.239 50.4178 127.696 50.0002 128.094C49.5825 128.485 49.0489 128.943 48.3992 129.466H51.82V130.222H47.0368V129.576ZM52.866 126.632C52.866 125.492 53.0517 124.604 53.4229 123.967C53.7941 123.324 54.4438 123.003 55.3719 123.003C56.2934 123.003 56.9398 123.324 57.311 123.967C57.6823 124.604 57.8679 125.492 57.8679 126.632C57.8679 127.793 57.6823 128.694 57.311 129.337C56.9398 129.98 56.2934 130.302 55.3719 130.302C54.4438 130.302 53.7941 129.98 53.4229 129.337C53.0517 128.694 52.866 127.793 52.866 126.632ZM56.9729 126.632C56.9729 126.056 56.9332 125.568 56.8536 125.171C56.7807 124.766 56.6249 124.441 56.3862 124.196C56.1542 123.951 55.8161 123.828 55.3719 123.828C54.9211 123.828 54.5764 123.951 54.3378 124.196C54.1057 124.441 53.9499 124.766 53.8704 125.171C53.7975 125.568 53.761 126.056 53.761 126.632C53.761 127.229 53.7975 127.73 53.8704 128.134C53.9499 128.538 54.1057 128.863 54.3378 129.108C54.5764 129.354 54.9211 129.476 55.3719 129.476C55.8161 129.476 56.1542 129.354 56.3862 129.108C56.6249 128.863 56.7807 128.538 56.8536 128.134C56.9332 127.73 56.9729 127.229 56.9729 126.632Z" fill="#687888"/>
<line x1="73.8324" y1="189.723" x2="578.656" y2="189.723" stroke="#E5E8EC" stroke-width="0.710292" stroke-dasharray="2.84 2.84"/>
<line x1="73.8324" y1="157.873" x2="578.656" y2="157.873" stroke="#E5E8EC" stroke-width="0.710292" stroke-dasharray="2.84 2.84"/>
<line x1="73.8324" y1="126.024" x2="578.656" y2="126.024" stroke="#E5E8EC" stroke-width="0.710292" stroke-dasharray="2.84 2.84"/>
<path d="M55.3325 56.4631H51.612L50.9727 58.2786H49.4513L52.6348 49.38H54.3225L57.506 58.2786H55.9718L55.3325 56.4631ZM54.9234 55.274L53.4787 51.1444L52.0211 55.274H54.9234ZM60.5907 52.4229V56.3224C60.5907 56.5866 60.6503 56.7784 60.7697 56.8978C60.8975 57.0086 61.1106 57.064 61.4089 57.064H62.3039V58.2786H61.1532C60.4969 58.2786 59.994 58.1251 59.6446 57.8183C59.2951 57.5114 59.1204 57.0128 59.1204 56.3224V52.4229H58.2893V51.2339H59.1204V49.4823H60.5907V51.2339H62.3039V52.4229H60.5907ZM65.3477 52.4229V56.3224C65.3477 56.5866 65.4073 56.7784 65.5267 56.8978C65.6545 57.0086 65.8676 57.064 66.1659 57.064H67.0609V58.2786H65.9102C65.2539 58.2786 64.751 58.1251 64.4016 57.8183C64.0521 57.5114 63.8774 57.0128 63.8774 56.3224V52.4229H63.0463V51.2339H63.8774V49.4823H65.3477V51.2339H67.0609V52.4229H65.3477ZM74.8608 54.5836C74.8608 54.8479 74.8438 55.0865 74.8097 55.2996H69.4271C69.4697 55.8621 69.6785 56.3139 70.0536 56.6548C70.4286 56.9958 70.8889 57.1662 71.4344 57.1662C72.2185 57.1662 72.7726 56.8381 73.0964 56.1818H74.669C74.4559 56.8296 74.0681 57.3623 73.5056 57.7799C72.9515 58.1891 72.2611 58.3936 71.4344 58.3936C70.761 58.3936 70.1558 58.2445 69.6189 57.9461C69.0904 57.6393 68.6727 57.2131 68.3659 56.6676C68.0676 56.1136 67.9184 55.4743 67.9184 54.7498C67.9184 54.0253 68.0633 53.3903 68.3531 52.8448C68.6514 52.2908 69.0648 51.8646 69.5933 51.5663C70.1303 51.268 70.744 51.1188 71.4344 51.1188C72.0992 51.1188 72.6916 51.2637 73.2115 51.5535C73.7315 51.8433 74.1363 52.2524 74.4261 52.7809C74.7159 53.3008 74.8608 53.9017 74.8608 54.5836ZM73.3394 54.1234C73.3308 53.5864 73.1391 53.1559 72.764 52.832C72.389 52.5081 71.9245 52.3462 71.3704 52.3462C70.8676 52.3462 70.4371 52.5081 70.0791 52.832C69.7211 53.1474 69.5081 53.5778 69.4399 54.1234H73.3394ZM79.8495 51.1188C80.4035 51.1188 80.8979 51.2339 81.3326 51.464C81.7758 51.6942 82.121 52.0351 82.3682 52.4868C82.6153 52.9386 82.7389 53.4841 82.7389 54.1234V58.2786H81.2942V54.3407C81.2942 53.71 81.1365 53.2284 80.8211 52.896C80.5058 52.555 80.0753 52.3846 79.5298 52.3846C78.9843 52.3846 78.5496 52.555 78.2257 52.896C77.9104 53.2284 77.7527 53.71 77.7527 54.3407V58.2786H76.2952V51.2339H77.7527V52.0394C77.9913 51.7496 78.2939 51.5237 78.6604 51.3617C79.0355 51.1998 79.4318 51.1188 79.8495 51.1188ZM84.1122 54.7243C84.1122 54.0168 84.2571 53.3903 84.5469 52.8448C84.8453 52.2993 85.2459 51.8774 85.7488 51.5791C86.2602 51.2722 86.827 51.1188 87.4492 51.1188C87.9095 51.1188 88.3612 51.2211 88.8044 51.4257C89.2562 51.6217 89.6142 51.8859 89.8784 52.2183V48.8175H91.3487V58.2786H89.8784V57.2174C89.6397 57.5583 89.3073 57.8396 88.8812 58.0612C88.4635 58.2828 87.9819 58.3936 87.4364 58.3936C86.8227 58.3936 86.2602 58.2402 85.7488 57.9334C85.2459 57.618 84.8453 57.1833 84.5469 56.6293C84.2571 56.0667 84.1122 55.4317 84.1122 54.7243ZM89.8784 54.7498C89.8784 54.264 89.7761 53.8421 89.5716 53.4841C89.3755 53.1261 89.1155 52.8534 88.7917 52.6658C88.4678 52.4783 88.1183 52.3846 87.7433 52.3846C87.3682 52.3846 87.0188 52.4783 86.6949 52.6658C86.371 52.8448 86.1068 53.1133 85.9022 53.4713C85.7061 53.8208 85.6081 54.2384 85.6081 54.7243C85.6081 55.2101 85.7061 55.6363 85.9022 56.0028C86.1068 56.3693 86.371 56.6506 86.6949 56.8466C87.0273 57.0341 87.3768 57.1279 87.7433 57.1279C88.1183 57.1279 88.4678 57.0341 88.7917 56.8466C89.1155 56.6591 89.3755 56.3863 89.5716 56.0284C89.7761 55.6618 89.8784 55.2357 89.8784 54.7498ZM92.7773 54.7243C92.7773 54.0168 92.9222 53.3903 93.212 52.8448C93.5103 52.2993 93.9109 51.8774 94.4138 51.5791C94.9252 51.2722 95.4877 51.1188 96.1014 51.1188C96.6555 51.1188 97.137 51.2296 97.5462 51.4512C97.9638 51.6643 98.2962 51.9328 98.5434 52.2567V51.2339H100.014V58.2786H98.5434V57.2302C98.2962 57.5626 97.9596 57.8396 97.5334 58.0612C97.1072 58.2828 96.6214 58.3936 96.0759 58.3936C95.4707 58.3936 94.9167 58.2402 94.4138 57.9334C93.9109 57.618 93.5103 57.1833 93.212 56.6293C92.9222 56.0667 92.7773 55.4317 92.7773 54.7243ZM98.5434 54.7498C98.5434 54.264 98.4411 53.8421 98.2366 53.4841C98.0405 53.1261 97.7806 52.8534 97.4567 52.6658C97.1328 52.4783 96.7833 52.3846 96.4083 52.3846C96.0332 52.3846 95.6838 52.4783 95.3599 52.6658C95.036 52.8448 94.7718 53.1133 94.5672 53.4713C94.3712 53.8208 94.2731 54.2384 94.2731 54.7243C94.2731 55.2101 94.3712 55.6363 94.5672 56.0028C94.7718 56.3693 95.036 56.6506 95.3599 56.8466C95.6923 57.0341 96.0418 57.1279 96.4083 57.1279C96.7833 57.1279 97.1328 57.0341 97.4567 56.8466C97.7806 56.6591 98.0405 56.3863 98.2366 56.0284C98.4411 55.6618 98.5434 55.2357 98.5434 54.7498ZM105.482 51.1188C106.036 51.1188 106.531 51.2339 106.966 51.464C107.409 51.6942 107.754 52.0351 108.001 52.4868C108.248 52.9386 108.372 53.4841 108.372 54.1234V58.2786H106.927V54.3407C106.927 53.71 106.769 53.2284 106.454 52.896C106.139 52.555 105.708 52.3846 105.163 52.3846C104.617 52.3846 104.183 52.555 103.859 52.896C103.543 53.2284 103.386 53.71 103.386 54.3407V58.2786H101.928V51.2339H103.386V52.0394C103.624 51.7496 103.927 51.5237 104.293 51.3617C104.668 51.1998 105.065 51.1188 105.482 51.1188ZM109.745 54.7498C109.745 54.0253 109.89 53.3903 110.18 52.8448C110.478 52.2908 110.887 51.8646 111.407 51.5663C111.927 51.268 112.524 51.1188 113.197 51.1188C114.05 51.1188 114.753 51.3234 115.307 51.7325C115.869 52.1331 116.249 52.7085 116.445 53.4585H114.872C114.744 53.1091 114.54 52.8363 114.258 52.6403C113.977 52.4442 113.623 52.3462 113.197 52.3462C112.601 52.3462 112.123 52.5593 111.765 52.9855C111.416 53.4031 111.241 53.9912 111.241 54.7498C111.241 55.5084 111.416 56.1008 111.765 56.527C112.123 56.9532 112.601 57.1662 113.197 57.1662C114.041 57.1662 114.599 56.7955 114.872 56.0539H116.445C116.24 56.7699 115.857 57.341 115.294 57.7672C114.731 58.1848 114.033 58.3936 113.197 58.3936C112.524 58.3936 111.927 58.2445 111.407 57.9461C110.887 57.6393 110.478 57.2131 110.18 56.6676C109.89 56.1136 109.745 55.4743 109.745 54.7498ZM124.354 54.5836C124.354 54.8479 124.337 55.0865 124.303 55.2996H118.92C118.963 55.8621 119.171 56.3139 119.547 56.6548C119.922 56.9958 120.382 57.1662 120.927 57.1662C121.711 57.1662 122.266 56.8381 122.589 56.1818H124.162C123.949 56.8296 123.561 57.3623 122.999 57.7799C122.445 58.1891 121.754 58.3936 120.927 58.3936C120.254 58.3936 119.649 58.2445 119.112 57.9461C118.583 57.6393 118.166 57.2131 117.859 56.6676C117.561 56.1136 117.411 55.4743 117.411 54.7498C117.411 54.0253 117.556 53.3903 117.846 52.8448C118.144 52.2908 118.558 51.8646 119.086 51.5663C119.623 51.268 120.237 51.1188 120.927 51.1188C121.592 51.1188 122.185 51.2637 122.704 51.5535C123.224 51.8433 123.629 52.2524 123.919 52.7809C124.209 53.3008 124.354 53.9017 124.354 54.5836ZM122.832 54.1234C122.824 53.5864 122.632 53.1559 122.257 52.832C121.882 52.5081 121.417 52.3462 120.863 52.3462C120.361 52.3462 119.93 52.5081 119.572 52.832C119.214 53.1474 119.001 53.5778 118.933 54.1234H122.832ZM133.162 58.3681C132.335 58.3681 131.573 58.1763 130.874 57.7927C130.183 57.4006 129.633 56.8594 129.224 56.169C128.824 55.4701 128.623 54.6859 128.623 53.8165C128.623 52.9471 128.824 52.1672 129.224 51.4768C129.633 50.7864 130.183 50.2494 130.874 49.8659C131.573 49.4738 132.335 49.2777 133.162 49.2777C133.998 49.2777 134.76 49.4738 135.451 49.8659C136.15 50.2494 136.699 50.7864 137.1 51.4768C137.501 52.1672 137.701 52.9471 137.701 53.8165C137.701 54.6859 137.501 55.4701 137.1 56.169C136.699 56.8594 136.15 57.4006 135.451 57.7927C134.76 58.1763 133.998 58.3681 133.162 58.3681ZM133.162 57.1023C133.75 57.1023 134.275 56.9702 134.735 56.706C135.195 56.4332 135.553 56.0497 135.809 55.5553C136.073 55.0524 136.205 54.4728 136.205 53.8165C136.205 53.1602 136.073 52.5849 135.809 52.0905C135.553 51.5961 135.195 51.2168 134.735 50.9526C134.275 50.6884 133.75 50.5563 133.162 50.5563C132.574 50.5563 132.05 50.6884 131.59 50.9526C131.129 51.2168 130.767 51.5961 130.503 52.0905C130.247 52.5849 130.119 53.1602 130.119 53.8165C130.119 54.4728 130.247 55.0524 130.503 55.5553C130.767 56.0497 131.129 56.4332 131.59 56.706C132.05 56.9702 132.574 57.1023 133.162 57.1023ZM141.858 56.9745L143.853 51.2339H145.4L142.715 58.2786H140.976L138.304 51.2339H139.864L141.858 56.9745ZM152.958 54.5836C152.958 54.8479 152.941 55.0865 152.907 55.2996H147.525C147.567 55.8621 147.776 56.3139 148.151 56.6548C148.526 56.9958 148.986 57.1662 149.532 57.1662C150.316 57.1662 150.87 56.8381 151.194 56.1818H152.767C152.553 56.8296 152.166 57.3623 151.603 57.7799C151.049 58.1891 150.359 58.3936 149.532 58.3936C148.858 58.3936 148.253 58.2445 147.716 57.9461C147.188 57.6393 146.77 57.2131 146.463 56.6676C146.165 56.1136 146.016 55.4743 146.016 54.7498C146.016 54.0253 146.161 53.3903 146.451 52.8448C146.749 52.2908 147.162 51.8646 147.691 51.5663C148.228 51.268 148.841 51.1188 149.532 51.1188C150.197 51.1188 150.789 51.2637 151.309 51.5535C151.829 51.8433 152.234 52.2524 152.524 52.7809C152.813 53.3008 152.958 53.9017 152.958 54.5836ZM151.437 54.1234C151.428 53.5864 151.237 53.1559 150.862 52.832C150.486 52.5081 150.022 52.3462 149.468 52.3462C148.965 52.3462 148.535 52.5081 148.177 52.832C147.819 53.1474 147.606 53.5778 147.537 54.1234H151.437ZM155.85 52.2567C156.063 51.8987 156.345 51.6217 156.694 51.4257C157.052 51.2211 157.474 51.1188 157.96 51.1188V52.6275H157.589C157.018 52.6275 156.583 52.7724 156.285 53.0622C155.995 53.352 155.85 53.8549 155.85 54.5708V58.2786H154.393V51.2339H155.85V52.2567ZM162.023 56.9745L164.017 51.2339H165.564L162.879 58.2786H161.141L158.468 51.2339H160.028L162.023 56.9745ZM167.408 50.3006C167.143 50.3006 166.922 50.2111 166.743 50.0321C166.564 49.8531 166.474 49.6315 166.474 49.3672C166.474 49.103 166.564 48.8814 166.743 48.7024C166.922 48.5234 167.143 48.4339 167.408 48.4339C167.663 48.4339 167.881 48.5234 168.06 48.7024C168.239 48.8814 168.328 49.103 168.328 49.3672C168.328 49.6315 168.239 49.8531 168.06 50.0321C167.881 50.2111 167.663 50.3006 167.408 50.3006ZM168.124 51.2339V58.2786H166.666V51.2339H168.124ZM176.494 54.5836C176.494 54.8479 176.477 55.0865 176.443 55.2996H171.06C171.103 55.8621 171.311 56.3139 171.686 56.6548C172.061 56.9958 172.522 57.1662 173.067 57.1662C173.851 57.1662 174.405 56.8381 174.729 56.1818H176.302C176.089 56.8296 175.701 57.3623 175.138 57.7799C174.584 58.1891 173.894 58.3936 173.067 58.3936C172.394 58.3936 171.789 58.2445 171.252 57.9461C170.723 57.6393 170.306 57.2131 169.999 56.6676C169.7 56.1136 169.551 55.4743 169.551 54.7498C169.551 54.0253 169.696 53.3903 169.986 52.8448C170.284 52.2908 170.698 51.8646 171.226 51.5663C171.763 51.268 172.377 51.1188 173.067 51.1188C173.732 51.1188 174.324 51.2637 174.844 51.5535C175.364 51.8433 175.769 52.2524 176.059 52.7809C176.349 53.3008 176.494 53.9017 176.494 54.5836ZM174.972 54.1234C174.964 53.5864 174.772 53.1559 174.397 52.832C174.022 52.5081 173.557 52.3462 173.003 52.3462C172.5 52.3462 172.07 52.5081 171.712 52.832C171.354 53.1474 171.141 53.5778 171.073 54.1234H174.972ZM187.389 51.2339L185.203 58.2786H183.669L182.249 53.075L180.83 58.2786H179.296L177.097 51.2339H178.58L180.05 56.8978L181.546 51.2339H183.068L184.5 56.8722L185.957 51.2339H187.389Z" fill="#33475B"/>
<path d="M378.714 305.973V311.094C378.714 311.665 378.538 312.122 378.187 312.467C377.835 312.805 377.371 312.974 376.794 312.974C376.211 312.974 375.744 312.802 375.392 312.457C375.041 312.105 374.865 311.628 374.865 311.025H375.77C375.777 311.363 375.863 311.638 376.029 311.85C376.201 312.062 376.456 312.168 376.794 312.168C377.133 312.168 377.384 312.069 377.55 311.87C377.716 311.665 377.799 311.406 377.799 311.094V305.973H378.714ZM385.329 307.455V312.904H384.424V312.099C384.252 312.377 384.01 312.596 383.698 312.755C383.393 312.908 383.055 312.984 382.684 312.984C382.26 312.984 381.879 312.898 381.54 312.725C381.202 312.546 380.934 312.281 380.735 311.93C380.543 311.578 380.447 311.151 380.447 310.647V307.455H381.342V310.528C381.342 311.065 381.477 311.479 381.749 311.771C382.021 312.056 382.392 312.198 382.863 312.198C383.347 312.198 383.728 312.049 384.007 311.751C384.285 311.452 384.424 311.018 384.424 310.448V307.455H385.329ZM387.762 305.546V312.904H386.857V305.546H387.762ZM393.119 309.165C392.748 309.019 392.462 308.807 392.264 308.529C392.065 308.25 391.965 307.912 391.965 307.515C391.965 307.157 392.055 306.835 392.234 306.55C392.413 306.258 392.678 306.03 393.029 305.864C393.387 305.692 393.818 305.605 394.322 305.605C394.826 305.605 395.253 305.692 395.605 305.864C395.963 306.03 396.231 306.258 396.41 306.55C396.596 306.835 396.689 307.157 396.689 307.515C396.689 307.899 396.586 308.237 396.38 308.529C396.175 308.814 395.893 309.026 395.535 309.165C395.946 309.291 396.271 309.513 396.51 309.832C396.755 310.143 396.878 310.521 396.878 310.965C396.878 311.396 396.772 311.774 396.559 312.099C396.347 312.417 396.046 312.666 395.655 312.845C395.27 313.017 394.826 313.103 394.322 313.103C393.818 313.103 393.374 313.017 392.99 312.845C392.612 312.666 392.317 312.417 392.105 312.099C391.892 311.774 391.786 311.396 391.786 310.965C391.786 310.521 391.906 310.14 392.144 309.822C392.383 309.503 392.708 309.285 393.119 309.165ZM395.814 307.624C395.814 307.22 395.681 306.908 395.416 306.689C395.151 306.47 394.786 306.361 394.322 306.361C393.865 306.361 393.503 306.47 393.238 306.689C392.973 306.908 392.84 307.223 392.84 307.634C392.84 308.005 392.976 308.303 393.248 308.529C393.527 308.754 393.885 308.867 394.322 308.867C394.766 308.867 395.124 308.754 395.396 308.529C395.674 308.297 395.814 307.995 395.814 307.624ZM394.322 309.563C393.831 309.563 393.43 309.679 393.119 309.911C392.807 310.137 392.651 310.478 392.651 310.935C392.651 311.36 392.801 311.701 393.099 311.96C393.404 312.218 393.812 312.347 394.322 312.347C394.833 312.347 395.237 312.218 395.535 311.96C395.834 311.701 395.983 311.36 395.983 310.935C395.983 310.491 395.83 310.153 395.525 309.921C395.22 309.682 394.819 309.563 394.322 309.563Z" fill="#687888"/>
<path d="M444.911 305.993V310.975C444.911 311.592 444.722 312.079 444.344 312.437C443.973 312.795 443.483 312.974 442.873 312.974C442.263 312.974 441.769 312.795 441.391 312.437C441.02 312.079 440.834 311.592 440.834 310.975H441.978C441.984 311.28 442.061 311.522 442.206 311.701C442.359 311.88 442.581 311.97 442.873 311.97C443.164 311.97 443.386 311.88 443.539 311.701C443.691 311.515 443.768 311.273 443.768 310.975V305.993H444.911ZM451.717 307.425V312.904H450.584V312.258C450.405 312.483 450.17 312.662 449.878 312.795C449.593 312.921 449.288 312.984 448.963 312.984C448.532 312.984 448.144 312.894 447.8 312.715C447.461 312.536 447.193 312.271 446.994 311.92C446.802 311.568 446.706 311.144 446.706 310.647V307.425H447.829V310.478C447.829 310.969 447.952 311.346 448.197 311.612C448.443 311.87 448.777 311.999 449.202 311.999C449.626 311.999 449.961 311.87 450.206 311.612C450.458 311.346 450.584 310.969 450.584 310.478V307.425H451.717ZM454.347 305.546V312.904H453.213V305.546H454.347ZM460.767 307.425L457.406 315.48H456.233L457.347 312.815L455.189 307.425H456.452L457.993 311.602L459.594 307.425H460.767ZM465.469 310.935C465.535 311.267 465.678 311.519 465.897 311.691C466.115 311.863 466.41 311.95 466.782 311.95C467.252 311.95 467.597 311.764 467.816 311.393C468.035 311.022 468.144 310.388 468.144 309.493C467.985 309.719 467.759 309.895 467.468 310.021C467.183 310.14 466.871 310.2 466.533 310.2C466.102 310.2 465.711 310.113 465.36 309.941C465.008 309.762 464.73 309.5 464.524 309.155C464.325 308.804 464.226 308.38 464.226 307.883C464.226 307.153 464.438 306.573 464.862 306.142C465.293 305.705 465.883 305.486 466.632 305.486C467.534 305.486 468.174 305.788 468.552 306.391C468.936 306.988 469.128 307.906 469.128 309.145C469.128 310.001 469.056 310.7 468.91 311.244C468.77 311.787 468.525 312.198 468.174 312.477C467.822 312.755 467.335 312.894 466.712 312.894C466.003 312.894 465.456 312.709 465.071 312.337C464.687 311.966 464.471 311.499 464.425 310.935H465.469ZM466.732 309.245C467.13 309.245 467.441 309.122 467.667 308.877C467.899 308.625 468.015 308.294 468.015 307.883C468.015 307.425 467.892 307.07 467.647 306.819C467.408 306.56 467.08 306.431 466.662 306.431C466.245 306.431 465.913 306.563 465.668 306.828C465.429 307.087 465.31 307.428 465.31 307.853C465.31 308.257 465.426 308.592 465.658 308.857C465.897 309.116 466.255 309.245 466.732 309.245Z" fill="#33475B"/>
<path d="M512.01 305.973V311.094C512.01 311.665 511.834 312.122 511.483 312.467C511.131 312.805 510.667 312.974 510.091 312.974C509.507 312.974 509.04 312.802 508.688 312.457C508.337 312.105 508.161 311.628 508.161 311.025H509.066C509.073 311.363 509.159 311.638 509.325 311.85C509.497 312.062 509.752 312.168 510.091 312.168C510.429 312.168 510.681 312.069 510.846 311.87C511.012 311.665 511.095 311.406 511.095 311.094V305.973H512.01ZM518.625 307.455V312.904H517.72V312.099C517.548 312.377 517.306 312.596 516.994 312.755C516.689 312.908 516.351 312.984 515.98 312.984C515.556 312.984 515.175 312.898 514.837 312.725C514.498 312.546 514.23 312.281 514.031 311.93C513.839 311.578 513.743 311.151 513.743 310.647V307.455H514.638V310.528C514.638 311.065 514.774 311.479 515.045 311.771C515.317 312.056 515.688 312.198 516.159 312.198C516.643 312.198 517.024 312.049 517.303 311.751C517.581 311.452 517.72 311.018 517.72 310.448V307.455H518.625ZM521.058 305.546V312.904H520.153V305.546H521.058ZM527.294 307.455L524.012 315.47H523.078L524.152 312.845L521.954 307.455H522.958L524.669 311.87L526.359 307.455H527.294ZM530.467 306.54V305.715H532.336V312.904H531.422V306.54H530.467ZM533.891 309.235C533.891 308.095 534.076 307.206 534.448 306.57C534.819 305.927 535.469 305.605 536.397 305.605C537.318 305.605 537.965 305.927 538.336 306.57C538.707 307.206 538.893 308.095 538.893 309.235C538.893 310.395 538.707 311.297 538.336 311.94C537.965 312.583 537.318 312.904 536.397 312.904C535.469 312.904 534.819 312.583 534.448 311.94C534.076 311.297 533.891 310.395 533.891 309.235ZM537.998 309.235C537.998 308.658 537.958 308.171 537.878 307.773C537.805 307.369 537.65 307.044 537.411 306.799C537.179 306.553 536.841 306.431 536.397 306.431C535.946 306.431 535.601 306.553 535.363 306.799C535.13 307.044 534.975 307.369 534.895 307.773C534.822 308.171 534.786 308.658 534.786 309.235C534.786 309.832 534.822 310.332 534.895 310.736C534.975 311.141 535.13 311.466 535.363 311.711C535.601 311.956 535.946 312.079 536.397 312.079C536.841 312.079 537.179 311.956 537.411 311.711C537.65 311.466 537.805 311.141 537.878 310.736C537.958 310.332 537.998 309.832 537.998 309.235Z" fill="#687888"/>
<path d="M306.393 305.973V311.094C306.393 311.665 306.218 312.122 305.866 312.467C305.515 312.805 305.051 312.974 304.474 312.974C303.891 312.974 303.423 312.802 303.072 312.457C302.721 312.105 302.545 311.628 302.545 311.025H303.45C303.457 311.363 303.543 311.638 303.708 311.85C303.881 312.062 304.136 312.168 304.474 312.168C304.812 312.168 305.064 312.069 305.23 311.87C305.396 311.665 305.479 311.406 305.479 311.094V305.973H306.393ZM313.009 307.455V312.904H312.104V312.099C311.932 312.377 311.69 312.596 311.378 312.755C311.073 312.908 310.735 312.984 310.364 312.984C309.94 312.984 309.558 312.898 309.22 312.725C308.882 312.546 308.614 312.281 308.415 311.93C308.223 311.578 308.126 311.151 308.126 310.647V307.455H309.021V310.528C309.021 311.065 309.157 311.479 309.429 311.771C309.701 312.056 310.072 312.198 310.543 312.198C311.027 312.198 311.408 312.049 311.686 311.751C311.965 311.452 312.104 311.018 312.104 310.448V307.455H313.009ZM315.442 305.546V312.904H314.537V305.546H315.442ZM321.678 307.455L318.396 315.47H317.461L318.535 312.845L316.338 307.455H317.342L319.052 311.87L320.743 307.455H321.678ZM329.514 306.421L326.75 312.904H325.835L328.639 306.51H324.801V305.735H329.514V306.421Z" fill="#687888"/>
<path d="M100.777 305.973V311.094C100.777 311.665 100.601 312.122 100.25 312.467C99.8987 312.805 99.4346 312.974 98.8579 312.974C98.2745 312.974 97.8071 312.802 97.4557 312.457C97.1044 312.105 96.9287 311.628 96.9287 311.025H97.8336C97.8402 311.363 97.9264 311.638 98.0922 311.85C98.2645 312.062 98.5198 312.168 98.8579 312.168C99.196 312.168 99.4479 312.069 99.6136 311.87C99.7793 311.665 99.8622 311.406 99.8622 311.094V305.973H100.777ZM107.393 307.455V312.904H106.488V312.099C106.315 312.377 106.073 312.596 105.762 312.755C105.457 312.908 105.119 312.984 104.747 312.984C104.323 312.984 103.942 312.898 103.604 312.725C103.266 312.546 102.997 312.281 102.798 311.93C102.606 311.578 102.51 311.151 102.51 310.647V307.455H103.405V310.528C103.405 311.065 103.541 311.479 103.813 311.771C104.085 312.056 104.456 312.198 104.926 312.198C105.41 312.198 105.792 312.049 106.07 311.751C106.348 311.452 106.488 311.018 106.488 310.448V307.455H107.393ZM109.825 305.546V312.904H108.921V305.546H109.825ZM116.061 307.455L112.78 315.47H111.845L112.919 312.845L110.721 307.455H111.726L113.436 311.87L115.127 307.455H116.061ZM119.254 311.303V310.617L122.745 305.784H123.828V310.518H124.823V311.303H123.828V312.904H122.933V311.303H119.254ZM122.973 306.729L120.298 310.518H122.973V306.729Z" fill="#687888"/>
<path d="M170.261 305.973V311.094C170.261 311.665 170.086 312.122 169.734 312.467C169.383 312.805 168.919 312.974 168.342 312.974C167.759 312.974 167.291 312.802 166.94 312.457C166.589 312.105 166.413 311.628 166.413 311.025H167.318C167.324 311.363 167.411 311.638 167.576 311.85C167.749 312.062 168.004 312.168 168.342 312.168C168.68 312.168 168.932 312.069 169.098 311.87C169.264 311.665 169.346 311.406 169.346 311.094V305.973H170.261ZM176.877 307.455V312.904H175.972V312.099C175.8 312.377 175.558 312.596 175.246 312.755C174.941 312.908 174.603 312.984 174.232 312.984C173.807 312.984 173.426 312.898 173.088 312.725C172.75 312.546 172.482 312.281 172.283 311.93C172.09 311.578 171.994 311.151 171.994 310.647V307.455H172.889V310.528C172.889 311.065 173.025 311.479 173.297 311.771C173.569 312.056 173.94 312.198 174.411 312.198C174.895 312.198 175.276 312.049 175.554 311.751C175.833 311.452 175.972 311.018 175.972 310.448V307.455H176.877ZM179.31 305.546V312.904H178.405V305.546H179.31ZM185.545 307.455L182.264 315.47H181.329L182.403 312.845L180.206 307.455H181.21L182.92 311.87L184.611 307.455H185.545ZM193.541 306.5H190.051V308.768C190.203 308.555 190.429 308.383 190.727 308.25C191.025 308.111 191.347 308.042 191.692 308.042C192.242 308.042 192.689 308.158 193.034 308.39C193.379 308.615 193.624 308.91 193.77 309.275C193.923 309.633 193.999 310.014 193.999 310.418C193.999 310.896 193.909 311.323 193.73 311.701C193.551 312.079 193.276 312.377 192.905 312.596C192.54 312.815 192.086 312.924 191.543 312.924C190.846 312.924 190.283 312.745 189.852 312.387C189.421 312.029 189.159 311.552 189.066 310.955H189.951C190.038 311.333 190.22 311.628 190.498 311.84C190.777 312.052 191.128 312.158 191.552 312.158C192.076 312.158 192.471 312.003 192.736 311.691C193.001 311.373 193.134 310.955 193.134 310.438C193.134 309.921 193.001 309.523 192.736 309.245C192.471 308.96 192.08 308.817 191.562 308.817C191.211 308.817 190.903 308.903 190.638 309.076C190.379 309.242 190.19 309.47 190.071 309.762H189.216V305.705H193.541V306.5Z" fill="#687888"/>
<path d="M238.327 305.973V311.094C238.327 311.665 238.152 312.122 237.8 312.467C237.449 312.805 236.985 312.974 236.408 312.974C235.825 312.974 235.357 312.802 235.006 312.457C234.655 312.105 234.479 311.628 234.479 311.025H235.384C235.391 311.363 235.477 311.638 235.642 311.85C235.815 312.062 236.07 312.168 236.408 312.168C236.746 312.168 236.998 312.069 237.164 311.87C237.33 311.665 237.413 311.406 237.413 311.094V305.973H238.327ZM244.943 307.455V312.904H244.038V312.099C243.866 312.377 243.624 312.596 243.312 312.755C243.007 312.908 242.669 312.984 242.298 312.984C241.873 312.984 241.492 312.898 241.154 312.725C240.816 312.546 240.548 312.281 240.349 311.93C240.156 311.578 240.06 311.151 240.06 310.647V307.455H240.955V310.528C240.955 311.065 241.091 311.479 241.363 311.771C241.635 312.056 242.006 312.198 242.477 312.198C242.961 312.198 243.342 312.049 243.62 311.751C243.899 311.452 244.038 311.018 244.038 310.448V307.455H244.943ZM247.376 305.546V312.904H246.471V305.546H247.376ZM253.612 307.455L250.33 315.47H249.395L250.469 312.845L248.272 307.455H249.276L250.986 311.87L252.677 307.455H253.612ZM261.031 307.425C260.885 306.689 260.431 306.321 259.668 306.321C259.078 306.321 258.637 306.55 258.346 307.007C258.054 307.458 257.912 308.204 257.918 309.245C258.071 308.9 258.323 308.632 258.674 308.439C259.032 308.241 259.43 308.141 259.867 308.141C260.55 308.141 261.094 308.353 261.498 308.777C261.909 309.202 262.115 309.788 262.115 310.538C262.115 310.988 262.025 311.393 261.846 311.751C261.674 312.109 261.409 312.394 261.051 312.606C260.699 312.818 260.272 312.924 259.768 312.924C259.085 312.924 258.551 312.772 258.167 312.467C257.782 312.162 257.514 311.741 257.361 311.204C257.209 310.667 257.133 310.004 257.133 309.215C257.133 306.782 257.981 305.566 259.678 305.566C260.328 305.566 260.838 305.741 261.21 306.093C261.581 306.444 261.8 306.888 261.866 307.425H261.031ZM259.678 308.907C259.393 308.907 259.125 308.966 258.873 309.086C258.621 309.198 258.415 309.374 258.256 309.613C258.104 309.845 258.028 310.13 258.028 310.468C258.028 310.972 258.173 311.383 258.465 311.701C258.757 312.013 259.174 312.168 259.718 312.168C260.182 312.168 260.55 312.026 260.822 311.741C261.1 311.449 261.239 311.058 261.239 310.567C261.239 310.05 261.107 309.646 260.842 309.354C260.577 309.056 260.189 308.907 259.678 308.907Z" fill="#687888"/>
<rect x="365.24" y="43.5713" width="195.69" height="29.0183" rx="14.5091" stroke="#FEF3F1" stroke-width="0.982571"/>
<rect x="500.663" y="48.4668" width="55.9064" height="19.5814" rx="9.79071" fill="#F37A37"/>
<path d="M456.539 53.3683V61.2327H455.504V55.3685L452.891 61.2327H452.163L449.538 55.3571V61.2327H448.504V53.3683H449.618L452.527 59.8689L455.436 53.3683H456.539ZM461.009 61.3349C460.425 61.3349 459.895 61.2024 459.418 60.9372C458.948 60.672 458.577 60.297 458.304 59.8121C458.039 59.3196 457.906 58.7514 457.906 58.1074C457.906 57.471 458.042 56.9103 458.315 56.4254C458.596 55.9329 458.974 55.5579 459.452 55.3003C459.929 55.0351 460.463 54.9025 461.054 54.9025C461.645 54.9025 462.179 55.0351 462.657 55.3003C463.134 55.5579 463.509 55.9291 463.782 56.414C464.062 56.8989 464.202 57.4634 464.202 58.1074C464.202 58.7514 464.058 59.3196 463.77 59.8121C463.49 60.297 463.107 60.672 462.622 60.9372C462.138 61.2024 461.6 61.3349 461.009 61.3349ZM461.009 60.4258C461.38 60.4258 461.728 60.3386 462.054 60.1644C462.38 59.9901 462.641 59.7287 462.838 59.3802C463.043 59.0317 463.145 58.6074 463.145 58.1074C463.145 57.6073 463.047 57.1831 462.85 56.8345C462.653 56.486 462.395 56.2284 462.077 56.0617C461.759 55.8875 461.414 55.8004 461.043 55.8004C460.664 55.8004 460.315 55.8875 459.997 56.0617C459.687 56.2284 459.437 56.486 459.247 56.8345C459.058 57.1831 458.963 57.6073 458.963 58.1074C458.963 58.615 459.054 59.0431 459.236 59.3916C459.425 59.7401 459.675 60.0015 459.986 60.1758C460.296 60.3424 460.637 60.4258 461.009 60.4258ZM468.596 54.8912C469.354 54.8912 469.968 55.1223 470.437 55.5844C470.907 56.039 471.142 56.6982 471.142 57.5619V61.2327H470.119V57.7096C470.119 57.0883 469.964 56.6148 469.653 56.289C469.343 55.9557 468.918 55.789 468.38 55.789C467.835 55.789 467.399 55.9595 467.073 56.3004C466.755 56.6413 466.596 57.1376 466.596 57.7892V61.2327H465.562V55.0048H466.596V55.8913C466.801 55.5731 467.077 55.3268 467.426 55.1526C467.782 54.9783 468.172 54.8912 468.596 54.8912ZM474.093 55.8572V59.528C474.093 59.831 474.157 60.047 474.286 60.1758C474.415 60.297 474.638 60.3576 474.956 60.3576H475.718V61.2327H474.786C474.21 61.2327 473.778 61.1001 473.49 60.8349C473.203 60.5697 473.059 60.1341 473.059 59.528V55.8572H472.252V55.0048H473.059V53.4365H474.093V55.0048H475.718V55.8572H474.093ZM480.062 54.8912C480.532 54.8912 480.956 54.9935 481.335 55.198C481.714 55.395 482.009 55.6943 482.221 56.0958C482.441 56.4974 482.551 56.9861 482.551 57.5619V61.2327H481.528V57.7096C481.528 57.0883 481.373 56.6148 481.062 56.289C480.752 55.9557 480.327 55.789 479.789 55.789C479.244 55.789 478.808 55.9595 478.482 56.3004C478.164 56.6413 478.005 57.1376 478.005 57.7892V61.2327H476.971V52.8228H478.005V55.8913C478.21 55.5731 478.49 55.3268 478.846 55.1526C479.21 54.9783 479.615 54.8912 480.062 54.8912Z" fill="#687888"/>
<path d="M520.25 53.3115L517.955 61.2327H516.796L514.955 54.8571L513.045 61.2327L511.897 61.244L509.681 53.3115H510.784L512.511 60.028L514.42 53.3115H515.58L517.398 60.0053L519.137 53.3115H520.25ZM527.065 57.8801C527.065 58.0771 527.053 58.2854 527.03 58.5051H522.053C522.091 59.1188 522.299 59.5999 522.678 59.9485C523.064 60.2894 523.53 60.4599 524.076 60.4599C524.523 60.4599 524.894 60.3576 525.189 60.153C525.492 59.9409 525.705 59.6606 525.826 59.312H526.94C526.773 59.9106 526.44 60.3993 525.939 60.7781C525.439 61.1493 524.818 61.3349 524.076 61.3349C523.485 61.3349 522.954 61.2024 522.485 60.9372C522.022 60.672 521.659 60.297 521.394 59.8121C521.128 59.3196 520.996 58.7514 520.996 58.1074C520.996 57.4634 521.125 56.8989 521.382 56.414C521.64 55.9291 522 55.5579 522.462 55.3003C522.932 55.0351 523.47 54.9025 524.076 54.9025C524.667 54.9025 525.189 55.0313 525.644 55.2889C526.099 55.5465 526.447 55.9026 526.69 56.3572C526.94 56.8042 527.065 57.3119 527.065 57.8801ZM525.996 57.6642C525.996 57.2702 525.909 56.933 525.735 56.6527C525.561 56.3648 525.322 56.1489 525.019 56.0049C524.723 55.8534 524.394 55.7776 524.03 55.7776C523.507 55.7776 523.06 55.9443 522.689 56.2777C522.326 56.611 522.117 57.0732 522.064 57.6642H525.996ZM534.112 57.8801C534.112 58.0771 534.101 58.2854 534.078 58.5051H529.1C529.138 59.1188 529.346 59.5999 529.725 59.9485C530.112 60.2894 530.578 60.4599 531.123 60.4599C531.57 60.4599 531.941 60.3576 532.237 60.153C532.54 59.9409 532.752 59.6606 532.873 59.312H533.987C533.82 59.9106 533.487 60.3993 532.987 60.7781C532.487 61.1493 531.866 61.3349 531.123 61.3349C530.532 61.3349 530.002 61.2024 529.532 60.9372C529.07 60.672 528.706 60.297 528.441 59.8121C528.176 59.3196 528.043 58.7514 528.043 58.1074C528.043 57.4634 528.172 56.8989 528.43 56.414C528.687 55.9291 529.047 55.5579 529.509 55.3003C529.979 55.0351 530.517 54.9025 531.123 54.9025C531.714 54.9025 532.237 55.0313 532.691 55.2889C533.146 55.5465 533.495 55.9026 533.737 56.3572C533.987 56.8042 534.112 57.3119 534.112 57.8801ZM533.044 57.6642C533.044 57.2702 532.957 56.933 532.782 56.6527C532.608 56.3648 532.369 56.1489 532.066 56.0049C531.771 55.8534 531.441 55.7776 531.078 55.7776C530.555 55.7776 530.108 55.9443 529.737 56.2777C529.373 56.611 529.165 57.0732 529.112 57.6642H533.044ZM538.955 61.2327L536.511 58.4824V61.2327H535.477V52.8228H536.511V57.7664L538.909 55.0048H540.353L537.42 58.1074L540.364 61.2327H538.955ZM542.36 52.8228V61.2327H541.326V52.8228H542.36ZM549.487 55.0048L545.736 64.1648H544.668L545.896 61.1645L543.384 55.0048H544.532L546.487 60.0507L548.419 55.0048H549.487Z" fill="white"/>
<path d="M381.78 53.3115V54.1525H379.621V61.2327H378.586V54.1525H376.416V53.3115H381.78ZM385.769 61.3349C385.186 61.3349 384.655 61.2024 384.178 60.9372C383.708 60.672 383.337 60.297 383.064 59.8121C382.799 59.3196 382.667 58.7514 382.667 58.1074C382.667 57.471 382.803 56.9103 383.076 56.4254C383.356 55.9329 383.735 55.5579 384.212 55.3003C384.689 55.0351 385.224 54.9025 385.815 54.9025C386.406 54.9025 386.94 55.0351 387.417 55.3003C387.894 55.5579 388.269 55.9291 388.542 56.414C388.822 56.8989 388.963 57.4634 388.963 58.1074C388.963 58.7514 388.819 59.3196 388.531 59.8121C388.25 60.297 387.868 60.672 387.383 60.9372C386.898 61.2024 386.36 61.3349 385.769 61.3349ZM385.769 60.4258C386.14 60.4258 386.489 60.3386 386.815 60.1644C387.14 59.9901 387.402 59.7287 387.599 59.3802C387.803 59.0317 387.906 58.6074 387.906 58.1074C387.906 57.6073 387.807 57.1831 387.61 56.8345C387.413 56.486 387.156 56.2284 386.837 56.0617C386.519 55.8875 386.174 55.8004 385.803 55.8004C385.424 55.8004 385.076 55.8875 384.758 56.0617C384.447 56.2284 384.197 56.486 384.008 56.8345C383.818 57.1831 383.723 57.6073 383.723 58.1074C383.723 58.615 383.814 59.0431 383.996 59.3916C384.186 59.7401 384.436 60.0015 384.746 60.1758C385.057 60.3424 385.398 60.4258 385.769 60.4258ZM389.936 58.096C389.936 57.4596 390.065 56.9027 390.322 56.4254C390.58 55.9405 390.932 55.5655 391.379 55.3003C391.834 55.0351 392.341 54.9025 392.902 54.9025C393.387 54.9025 393.838 55.0162 394.255 55.2435C394.671 55.4632 394.989 55.7549 395.209 56.1186V52.8228H396.255V61.2327H395.209V60.0621C395.005 60.4334 394.702 60.7402 394.3 60.9826C393.898 61.2175 393.429 61.3349 392.891 61.3349C392.338 61.3349 391.834 61.1986 391.379 60.9258C390.932 60.6531 390.58 60.2705 390.322 59.778C390.065 59.2855 389.936 58.7249 389.936 58.096ZM395.209 58.1074C395.209 57.6376 395.114 57.2285 394.925 56.88C394.736 56.5315 394.478 56.2663 394.152 56.0845C393.834 55.8951 393.482 55.8004 393.095 55.8004C392.709 55.8004 392.357 55.8913 392.038 56.0731C391.72 56.2549 391.466 56.5201 391.277 56.8686C391.088 57.2171 390.993 57.6263 390.993 58.096C390.993 58.5733 391.088 58.99 391.277 59.3461C391.466 59.6946 391.72 59.9636 392.038 60.153C392.357 60.3349 392.709 60.4258 393.095 60.4258C393.482 60.4258 393.834 60.3349 394.152 60.153C394.478 59.9636 394.736 59.6946 394.925 59.3461C395.114 58.99 395.209 58.5771 395.209 58.1074ZM397.616 58.096C397.616 57.4596 397.745 56.9027 398.002 56.4254C398.26 55.9405 398.612 55.5655 399.059 55.3003C399.514 55.0351 400.018 54.9025 400.571 54.9025C401.116 54.9025 401.59 55.02 401.991 55.2548C402.393 55.4897 402.692 55.7852 402.889 56.1413V55.0048H403.935V61.2327H402.889V60.0735C402.685 60.4371 402.378 60.7402 401.969 60.9826C401.567 61.2175 401.097 61.3349 400.559 61.3349C400.006 61.3349 399.506 61.1986 399.059 60.9258C398.612 60.6531 398.26 60.2705 398.002 59.778C397.745 59.2855 397.616 58.7249 397.616 58.096ZM402.889 58.1074C402.889 57.6376 402.795 57.2285 402.605 56.88C402.416 56.5315 402.158 56.2663 401.832 56.0845C401.514 55.8951 401.162 55.8004 400.775 55.8004C400.389 55.8004 400.037 55.8913 399.718 56.0731C399.4 56.2549 399.146 56.5201 398.957 56.8686C398.768 57.2171 398.673 57.6263 398.673 58.096C398.673 58.5733 398.768 58.99 398.957 59.3461C399.146 59.6946 399.4 59.9636 399.718 60.153C400.037 60.3349 400.389 60.4258 400.775 60.4258C401.162 60.4258 401.514 60.3349 401.832 60.153C402.158 59.9636 402.416 59.6946 402.605 59.3461C402.795 58.99 402.889 58.5771 402.889 58.1074ZM411.047 55.0048L407.296 64.1648H406.228L407.455 61.1645L404.944 55.0048H406.092L408.046 60.0507L409.978 55.0048H411.047Z" fill="#687888"/>
<rect x="92.2668" y="162.856" width="10.0899" height="122.878" rx="5.04496" fill="#F37A37"/>
<rect x="106.393" y="139.691" width="10.0899" height="146.044" rx="5.04496" fill="#54B4A6"/>
<rect x="120.519" y="219.26" width="10.0899" height="66.4752" rx="5.04496" fill="#FCC670"/>
<rect x="160.878" y="181.993" width="10.0899" height="103.742" rx="5.04496" fill="#F37A37"/>
<rect x="175.004" y="119.547" width="10.0899" height="166.188" rx="5.04496" fill="#54B4A6"/>
<rect x="189.13" y="172.928" width="10.0899" height="112.806" rx="5.04496" fill="#FCC670"/>
<rect x="229.49" y="240.411" width="10.0899" height="45.324" rx="5.04496" fill="#F37A37"/>
<rect x="243.616" y="175.95" width="10.0899" height="109.785" rx="5.04496" fill="#54B4A6"/>
<rect x="257.742" y="153.792" width="10.0899" height="131.943" rx="5.04496" fill="#FCC670"/>
<rect x="297.092" y="133.648" width="10.0899" height="152.087" rx="5.04496" fill="#F37A37"/>
<rect x="311.218" y="104.438" width="10.0899" height="181.296" rx="5.04496" fill="#54B4A6"/>
<rect x="325.344" y="210.194" width="10.0899" height="75.5401" rx="5.04496" fill="#FCC670"/>
<rect x="366.713" y="133.648" width="10.0899" height="152.087" rx="5.04496" fill="#F37A37"/>
<rect x="380.839" y="167.892" width="10.0899" height="117.842" rx="5.04496" fill="#54B4A6"/>
<rect x="394.965" y="158.828" width="10.0899" height="126.907" rx="5.04496" fill="#FCC670"/>
<rect x="435.324" y="162.856" width="10.0899" height="122.878" rx="5.04496" fill="#F37A37"/>
<rect x="449.45" y="240.41" width="10.0899" height="45.324" rx="5.04496" fill="#54B4A6"/>
<rect x="463.576" y="195.086" width="10.0899" height="90.648" rx="5.04496" fill="#FCC670"/>
<rect x="503.936" y="104.438" width="10.0899" height="181.296" rx="5.04496" fill="#F37A37"/>
<rect x="518.062" y="126.597" width="10.0899" height="159.138" rx="5.04496" fill="#54B4A6"/>
<rect x="532.188" y="175.95" width="10.0899" height="109.785" rx="5.04496" fill="#FCC670"/>
<g filter="url(#filter1_d_291_48)">
<path fill-rule="evenodd" clip-rule="evenodd" d="M436.367 212.019C433.502 212.019 431.179 214.341 431.179 217.206V231.603C431.179 234.468 433.502 236.79 436.367 236.79H447.302C449.929 236.79 452.374 238.133 453.785 240.35C453.989 240.67 454.456 240.67 454.66 240.35C456.071 238.133 458.516 236.79 461.143 236.79H472.787C475.652 236.79 477.975 234.468 477.975 231.603V217.206C477.975 214.341 475.652 212.019 472.787 212.019H436.367Z" fill="#33475B"/>
</g>
<path opacity="0.8" d="M439.933 220.994H441.32V221.414H439.416V217.454H439.933V220.994ZM441.676 219.846C441.676 219.528 441.74 219.249 441.869 219.011C441.998 218.768 442.174 218.581 442.397 218.448C442.625 218.316 442.877 218.249 443.153 218.249C443.426 218.249 443.663 218.308 443.863 218.425C444.064 218.543 444.214 218.691 444.312 218.869V218.3H444.835V221.414H444.312V220.835C444.21 221.017 444.057 221.168 443.852 221.289C443.651 221.407 443.416 221.465 443.147 221.465C442.871 221.465 442.621 221.397 442.397 221.261C442.174 221.125 441.998 220.933 441.869 220.687C441.74 220.441 441.676 220.16 441.676 219.846ZM444.312 219.852C444.312 219.617 444.265 219.412 444.17 219.238C444.076 219.064 443.947 218.931 443.784 218.84C443.625 218.746 443.449 218.698 443.255 218.698C443.062 218.698 442.886 218.744 442.727 218.835C442.568 218.925 442.441 219.058 442.346 219.232C442.251 219.407 442.204 219.611 442.204 219.846C442.204 220.085 442.251 220.293 442.346 220.471C442.441 220.645 442.568 220.78 442.727 220.874C442.886 220.965 443.062 221.011 443.255 221.011C443.449 221.011 443.625 220.965 443.784 220.874C443.947 220.78 444.076 220.645 444.17 220.471C444.265 220.293 444.312 220.087 444.312 219.852ZM446.34 218.727V220.562C446.34 220.713 446.372 220.821 446.436 220.886C446.501 220.946 446.612 220.977 446.771 220.977H447.152V221.414H446.686C446.398 221.414 446.182 221.348 446.038 221.215C445.895 221.083 445.823 220.865 445.823 220.562V218.727H445.419V218.3H445.823V217.516H446.34V218.3H447.152V218.727H446.34ZM450.62 219.738C450.62 219.837 450.614 219.941 450.603 220.051H448.114C448.133 220.357 448.237 220.598 448.427 220.772C448.62 220.943 448.853 221.028 449.125 221.028C449.349 221.028 449.535 220.977 449.682 220.874C449.834 220.768 449.94 220.628 450.001 220.454H450.557C450.474 220.753 450.307 220.998 450.057 221.187C449.807 221.373 449.497 221.465 449.125 221.465C448.83 221.465 448.565 221.399 448.33 221.267C448.099 221.134 447.917 220.946 447.784 220.704C447.652 220.458 447.586 220.174 447.586 219.852C447.586 219.53 447.65 219.247 447.779 219.005C447.908 218.763 448.087 218.577 448.319 218.448C448.553 218.316 448.822 218.249 449.125 218.249C449.421 218.249 449.682 218.314 449.91 218.442C450.137 218.571 450.311 218.749 450.432 218.977C450.557 219.2 450.62 219.454 450.62 219.738ZM450.086 219.63C450.086 219.433 450.042 219.264 449.955 219.124C449.868 218.98 449.749 218.872 449.597 218.8C449.449 218.725 449.285 218.687 449.103 218.687C448.841 218.687 448.618 218.77 448.432 218.937C448.25 219.103 448.146 219.335 448.12 219.63H450.086ZM455.158 220.534H453.431L453.113 221.414H452.567L453.999 217.476H454.596L456.022 221.414H455.477L455.158 220.534ZM455.011 220.113L454.295 218.113L453.579 220.113H455.011ZM457.163 218.806C457.254 218.628 457.383 218.49 457.55 218.391C457.72 218.293 457.927 218.244 458.169 218.244V218.778H458.033C457.453 218.778 457.163 219.092 457.163 219.721V221.414H456.646V218.3H457.163V218.806ZM459.283 218.806C459.374 218.628 459.503 218.49 459.67 218.391C459.84 218.293 460.046 218.244 460.289 218.244V218.778H460.153C459.573 218.778 459.283 219.092 459.283 219.721V221.414H458.766V218.3H459.283V218.806ZM461.153 217.795C461.054 217.795 460.971 217.761 460.903 217.692C460.835 217.624 460.801 217.541 460.801 217.442C460.801 217.344 460.835 217.261 460.903 217.192C460.971 217.124 461.054 217.09 461.153 217.09C461.248 217.09 461.327 217.124 461.392 217.192C461.46 217.261 461.494 217.344 461.494 217.442C461.494 217.541 461.46 217.624 461.392 217.692C461.327 217.761 461.248 217.795 461.153 217.795ZM461.403 218.3V221.414H460.886V218.3H461.403ZM463.443 220.937L464.409 218.3H464.961L463.739 221.414H463.137L461.915 218.3H462.472L463.443 220.937ZM465.276 219.846C465.276 219.528 465.341 219.249 465.469 219.011C465.598 218.768 465.774 218.581 465.998 218.448C466.225 218.316 466.477 218.249 466.754 218.249C467.026 218.249 467.263 218.308 467.464 218.425C467.665 218.543 467.814 218.691 467.913 218.869V218.3H468.436V221.414H467.913V220.835C467.811 221.017 467.657 221.168 467.453 221.289C467.252 221.407 467.017 221.465 466.748 221.465C466.471 221.465 466.221 221.397 465.998 221.261C465.774 221.125 465.598 220.933 465.469 220.687C465.341 220.441 465.276 220.16 465.276 219.846ZM467.913 219.852C467.913 219.617 467.866 219.412 467.771 219.238C467.676 219.064 467.547 218.931 467.384 218.84C467.225 218.746 467.049 218.698 466.856 218.698C466.663 218.698 466.487 218.744 466.327 218.835C466.168 218.925 466.041 219.058 465.947 219.232C465.852 219.407 465.805 219.611 465.805 219.846C465.805 220.085 465.852 220.293 465.947 220.471C466.041 220.645 466.168 220.78 466.327 220.874C466.487 220.965 466.663 221.011 466.856 221.011C467.049 221.011 467.225 220.965 467.384 220.874C467.547 220.78 467.676 220.645 467.771 220.471C467.866 220.293 467.913 220.087 467.913 219.852ZM469.827 217.209V221.414H469.309V217.209H469.827Z" fill="white"/>
<path d="M449.305 230.631V229.694L452.093 225.705H453.482V229.592H454.232V230.631H453.482V231.842H452.289V230.631H449.305ZM452.365 226.983L450.618 229.592H452.365V226.983ZM458.947 226.532L456.679 231.842H455.469L457.753 226.668H454.838V225.645H458.947V226.532Z" fill="white"/>
<ellipse cx="46.5351" cy="83.559" rx="3.1906" ry="3.18493" fill="#F37A37"/>
<path d="M60.7974 82.225C60.7974 82.8018 60.5985 83.2824 60.2008 83.6669C59.8096 84.0448 59.2097 84.2337 58.4009 84.2337H57.0684V87.1274H56.1635V80.1964H58.4009C59.1832 80.1964 59.7765 80.3853 60.1809 80.7632C60.5919 81.1411 60.7974 81.6284 60.7974 82.225ZM58.4009 83.4879C58.9047 83.4879 59.276 83.3785 59.5146 83.1597C59.7533 82.941 59.8726 82.6294 59.8726 82.225C59.8726 81.3698 59.382 80.9422 58.4009 80.9422H57.0684V83.4879H58.4009ZM62.827 82.5631C62.9861 82.2515 63.2115 82.0095 63.5032 81.8372C63.8015 81.6648 64.1628 81.5786 64.5871 81.5786V82.5134H64.3485C63.3342 82.5134 62.827 83.0636 62.827 84.1641V87.1274H61.9221V81.6781H62.827V82.5631ZM70.6038 84.1939C70.6038 84.3663 70.5938 84.5486 70.5739 84.7409H66.2184C66.2516 85.2778 66.4339 85.6988 66.7653 86.0038C67.1034 86.3021 67.5111 86.4512 67.9885 86.4512C68.3796 86.4512 68.7044 86.3617 68.963 86.1828C69.2282 85.9971 69.4138 85.7518 69.5199 85.4469H70.4944C70.3485 85.9706 70.0568 86.3982 69.6193 86.7297C69.1818 87.0545 68.6381 87.2169 67.9885 87.2169C67.4714 87.2169 67.0073 87.1009 66.5963 86.8689C66.1919 86.6369 65.8737 86.3087 65.6417 85.8844C65.4096 85.4535 65.2936 84.9563 65.2936 84.3928C65.2936 83.8293 65.4063 83.3354 65.6317 82.9111C65.8571 82.4869 66.172 82.162 66.5764 81.9366C66.9874 81.7046 67.4581 81.5886 67.9885 81.5886C68.5056 81.5886 68.963 81.7013 69.3607 81.9267C69.7585 82.1521 70.0635 82.4637 70.2756 82.8614C70.4944 83.2526 70.6038 83.6967 70.6038 84.1939ZM69.669 84.005C69.669 83.6603 69.5928 83.3653 69.4403 83.12C69.2878 82.8681 69.079 82.6791 68.8138 82.5532C68.5553 82.4206 68.2669 82.3543 67.9487 82.3543C67.4913 82.3543 67.1001 82.5001 66.7753 82.7918C66.4571 83.0835 66.2748 83.4879 66.2284 84.005H69.669ZM73.7274 87.2169C73.3097 87.2169 72.9352 87.1473 72.6037 87.0081C72.2722 86.8623 72.0104 86.6634 71.8181 86.4115C71.6259 86.1529 71.5198 85.8579 71.4999 85.5264H72.4346C72.4612 85.7982 72.5871 86.0203 72.8125 86.1927C73.0445 86.3651 73.3462 86.4512 73.7174 86.4512C74.0622 86.4512 74.334 86.375 74.5328 86.2225C74.7317 86.0701 74.8312 85.8778 74.8312 85.6458C74.8312 85.4071 74.7251 85.2314 74.513 85.1187C74.3008 84.9994 73.9727 84.8834 73.5285 84.7707C73.1241 84.6646 72.7926 84.5586 72.5341 84.4525C72.2822 84.3398 72.0634 84.1774 71.8778 83.9652C71.6988 83.7464 71.6093 83.4614 71.6093 83.11C71.6093 82.8316 71.6921 82.5764 71.8579 82.3443C72.0236 82.1123 72.259 81.93 72.5639 81.7974C72.8689 81.6582 73.2169 81.5886 73.608 81.5886C74.2113 81.5886 74.6986 81.7411 75.0698 82.046C75.4411 82.351 75.64 82.7686 75.6665 83.299H74.7616C74.7417 83.0139 74.6257 82.7852 74.4135 82.6128C74.208 82.4405 73.9296 82.3543 73.5782 82.3543C73.2534 82.3543 72.9948 82.4239 72.8026 82.5631C72.6103 82.7023 72.5142 82.8846 72.5142 83.11C72.5142 83.289 72.5705 83.4382 72.6832 83.5575C72.8026 83.6702 72.9484 83.763 73.1208 83.8359C73.2998 83.9022 73.5451 83.9785 73.8566 84.0647C74.2478 84.1707 74.566 84.2768 74.8113 84.3829C75.0566 84.4823 75.2654 84.6348 75.4378 84.8403C75.6167 85.0458 75.7096 85.3143 75.7162 85.6458C75.7162 85.9441 75.6333 86.2126 75.4676 86.4512C75.3019 86.6899 75.0665 86.8788 74.7616 87.0181C74.4632 87.1506 74.1185 87.2169 73.7274 87.2169ZM61.1355 99.1939C61.1355 99.3663 61.1256 99.5486 61.1057 99.7409H56.7502C56.7833 100.278 56.9656 100.699 57.2971 101.004C57.6352 101.302 58.0429 101.451 58.5202 101.451C58.9113 101.451 59.2362 101.362 59.4947 101.183C59.7599 100.997 59.9455 100.752 60.0516 100.447H61.0261C60.8803 100.971 60.5886 101.398 60.151 101.73C59.7135 102.055 59.1699 102.217 58.5202 102.217C58.0031 102.217 57.5391 102.101 57.128 101.869C56.7236 101.637 56.4054 101.309 56.1734 100.884C55.9414 100.454 55.8254 99.9563 55.8254 99.3928C55.8254 98.8293 55.9381 98.3354 56.1635 97.9111C56.3889 97.4869 56.7038 97.162 57.1082 96.9366C57.5192 96.7046 57.9899 96.5886 58.5202 96.5886C59.0373 96.5886 59.4947 96.7013 59.8925 96.9267C60.2903 97.1521 60.5952 97.4637 60.8074 97.8614C61.0261 98.2526 61.1355 98.6967 61.1355 99.1939ZM60.2008 99.005C60.2008 98.6603 60.1245 98.3653 59.972 98.12C59.8196 97.8681 59.6107 97.6791 59.3456 97.5532C59.087 97.4206 58.7986 97.3543 58.4804 97.3543C58.023 97.3543 57.6319 97.5001 57.307 97.7918C56.9888 98.0835 56.8065 98.4879 56.7601 99.005H60.2008ZM64.985 96.5786C65.648 96.5786 66.185 96.7808 66.596 97.1852C67.007 97.583 67.2125 98.1597 67.2125 98.9155V102.127H66.3175V99.0448C66.3175 98.5012 66.1816 98.0868 65.9098 97.8018C65.638 97.5101 65.2668 97.3642 64.7961 97.3642C64.3188 97.3642 63.9376 97.5134 63.6525 97.8117C63.3741 98.11 63.2349 98.5443 63.2349 99.1144V102.127H62.33V96.6781H63.2349V97.4537C63.4139 97.1753 63.6558 96.9598 63.9608 96.8074C64.2724 96.6549 64.6138 96.5786 64.985 96.5786ZM69.7945 97.4239V100.636C69.7945 100.901 69.8508 101.09 69.9635 101.203C70.0762 101.309 70.2718 101.362 70.5502 101.362H71.2165V102.127H70.4011C69.8972 102.127 69.5194 102.011 69.2674 101.779C69.0155 101.547 68.8896 101.166 68.8896 100.636V97.4239H68.1835V96.6781H68.8896V95.3058H69.7945V96.6781H71.2165V97.4239H69.7945Z" fill="#33475B"/>
<ellipse cx="184.085" cy="83.559" rx="3.1906" ry="3.18493" fill="#54B4A6"/>
<path d="M194.619 86.3916H197.045V87.1274H193.714V80.1964H194.619V86.3916ZM202.978 84.1939C202.978 84.3663 202.968 84.5486 202.948 84.7409H198.593C198.626 85.2778 198.808 85.6988 199.14 86.0038C199.478 86.3021 199.885 86.4512 200.363 86.4512C200.754 86.4512 201.079 86.3617 201.337 86.1828C201.602 85.9971 201.788 85.7518 201.894 85.4469H202.869C202.723 85.9706 202.431 86.3982 201.994 86.7297C201.556 87.0545 201.012 87.2169 200.363 87.2169C199.846 87.2169 199.382 87.1009 198.971 86.8689C198.566 86.6369 198.248 86.3087 198.016 85.8844C197.784 85.4535 197.668 84.9563 197.668 84.3928C197.668 83.8293 197.781 83.3354 198.006 82.9111C198.231 82.4869 198.546 82.162 198.951 81.9366C199.362 81.7046 199.832 81.5886 200.363 81.5886C200.88 81.5886 201.337 81.7013 201.735 81.9267C202.133 82.1521 202.438 82.4637 202.65 82.8614C202.869 83.2526 202.978 83.6967 202.978 84.1939ZM202.043 84.005C202.043 83.6603 201.967 83.3653 201.815 83.12C201.662 82.8681 201.453 82.6791 201.188 82.5532C200.93 82.4206 200.641 82.3543 200.323 82.3543C199.865 82.3543 199.474 82.5001 199.15 82.7918C198.831 83.0835 198.649 83.4879 198.603 84.005H202.043ZM203.834 84.3829C203.834 83.826 203.947 83.3387 204.172 82.9211C204.398 82.4968 204.706 82.1687 205.097 81.9366C205.495 81.7046 205.936 81.5886 206.42 81.5886C206.897 81.5886 207.311 81.6913 207.663 81.8968C208.014 82.1024 208.276 82.3609 208.448 82.6725V81.6781H209.363V87.1274H208.448V86.1131C208.269 86.4314 208.001 86.6965 207.643 86.9087C207.292 87.1142 206.881 87.2169 206.41 87.2169C205.926 87.2169 205.488 87.0976 205.097 86.859C204.706 86.6203 204.398 86.2855 204.172 85.8546C203.947 85.4237 203.834 84.9331 203.834 84.3829ZM208.448 84.3928C208.448 83.9818 208.366 83.6238 208.2 83.3189C208.034 83.0139 207.809 82.7819 207.524 82.6228C207.245 82.457 206.937 82.3742 206.599 82.3742C206.261 82.3742 205.952 82.4537 205.674 82.6128C205.396 82.7719 205.173 83.004 205.008 83.3089C204.842 83.6139 204.759 83.9718 204.759 84.3829C204.759 84.8005 204.842 85.1651 205.008 85.4767C205.173 85.7817 205.396 86.017 205.674 86.1828C205.952 86.3419 206.261 86.4214 206.599 86.4214C206.937 86.4214 207.245 86.3419 207.524 86.1828C207.809 86.017 208.034 85.7817 208.2 85.4767C208.366 85.1651 208.448 84.8038 208.448 84.3928ZM212.921 86.2921L214.612 81.6781H215.576L213.438 87.1274H212.384L210.246 81.6781H211.221L212.921 86.2921ZM221.439 84.1939C221.439 84.3663 221.429 84.5486 221.409 84.7409H217.053C217.086 85.2778 217.269 85.6988 217.6 86.0038C217.938 86.3021 218.346 86.4512 218.823 86.4512C219.214 86.4512 219.539 86.3617 219.798 86.1828C220.063 85.9971 220.249 85.7518 220.355 85.4469H221.329C221.183 85.9706 220.892 86.3982 220.454 86.7297C220.017 87.0545 219.473 87.2169 218.823 87.2169C218.306 87.2169 217.842 87.1009 217.431 86.8689C217.027 86.6369 216.709 86.3087 216.477 85.8844C216.245 85.4535 216.129 84.9563 216.129 84.3928C216.129 83.8293 216.241 83.3354 216.467 82.9111C216.692 82.4869 217.007 82.162 217.411 81.9366C217.822 81.7046 218.293 81.5886 218.823 81.5886C219.34 81.5886 219.798 81.7013 220.196 81.9267C220.593 82.1521 220.898 82.4637 221.11 82.8614C221.329 83.2526 221.439 83.6967 221.439 84.1939ZM220.504 84.005C220.504 83.6603 220.428 83.3653 220.275 83.12C220.123 82.8681 219.914 82.6791 219.649 82.5532C219.39 82.4206 219.102 82.3543 218.784 82.3543C218.326 82.3543 217.935 82.5001 217.61 82.7918C217.292 83.0835 217.11 83.4879 217.063 84.005H220.504Z" fill="#33475B"/>
<ellipse cx="113.892" cy="83.559" rx="3.1906" ry="3.18493" fill="#FCC670"/>
<path d="M127.618 85.5861H124.595L124.038 87.1274H123.083L125.589 80.2362H126.633L129.129 87.1274H128.174L127.618 85.5861ZM127.359 84.8502L126.106 81.3499L124.853 84.8502H127.359ZM131.126 82.6924C131.312 82.3675 131.584 82.1024 131.942 81.8968C132.3 81.6913 132.707 81.5886 133.165 81.5886C133.655 81.5886 134.096 81.7046 134.487 81.9366C134.878 82.1687 135.187 82.4968 135.412 82.9211C135.637 83.3387 135.75 83.826 135.75 84.3829C135.75 84.9331 135.637 85.4237 135.412 85.8546C135.187 86.2855 134.875 86.6203 134.477 86.859C134.086 87.0976 133.649 87.2169 133.165 87.2169C132.694 87.2169 132.28 87.1142 131.922 86.9087C131.57 86.7032 131.305 86.4413 131.126 86.1231V87.1274H130.221V79.7688H131.126V82.6924ZM134.825 84.3829C134.825 83.9718 134.742 83.6139 134.577 83.3089C134.411 83.004 134.186 82.7719 133.901 82.6128C133.622 82.4537 133.314 82.3742 132.976 82.3742C132.644 82.3742 132.336 82.457 132.051 82.6228C131.772 82.7819 131.547 83.0172 131.375 83.3288C131.209 83.6337 131.126 83.9884 131.126 84.3928C131.126 84.8038 131.209 85.1651 131.375 85.4767C131.547 85.7817 131.772 86.017 132.051 86.1828C132.336 86.3419 132.644 86.4214 132.976 86.4214C133.314 86.4214 133.622 86.3419 133.901 86.1828C134.186 86.017 134.411 85.7817 134.577 85.4767C134.742 85.1651 134.825 84.8005 134.825 84.3829ZM138.87 87.2169C138.453 87.2169 138.078 87.1473 137.747 87.0081C137.415 86.8623 137.153 86.6634 136.961 86.4115C136.769 86.1529 136.663 85.8579 136.643 85.5264H137.578C137.604 85.7982 137.73 86.0203 137.956 86.1927C138.188 86.3651 138.489 86.4512 138.86 86.4512C139.205 86.4512 139.477 86.375 139.676 86.2225C139.875 86.0701 139.974 85.8778 139.974 85.6458C139.974 85.4071 139.868 85.2314 139.656 85.1187C139.444 84.9994 139.116 84.8834 138.672 84.7707C138.267 84.6646 137.936 84.5586 137.677 84.4525C137.425 84.3398 137.206 84.1774 137.021 83.9652C136.842 83.7464 136.752 83.4614 136.752 83.11C136.752 82.8316 136.835 82.5764 137.001 82.3443C137.167 82.1123 137.402 81.93 137.707 81.7974C138.012 81.6582 138.36 81.5886 138.751 81.5886C139.354 81.5886 139.842 81.7411 140.213 82.046C140.584 82.351 140.783 82.7686 140.81 83.299H139.905C139.885 83.0139 139.769 82.7852 139.557 82.6128C139.351 82.4405 139.073 82.3543 138.721 82.3543C138.396 82.3543 138.138 82.4239 137.946 82.5631C137.753 82.7023 137.657 82.8846 137.657 83.11C137.657 83.289 137.714 83.4382 137.826 83.5575C137.946 83.6702 138.091 83.763 138.264 83.8359C138.443 83.9022 138.688 83.9785 139 84.0647C139.391 84.1707 139.709 84.2768 139.954 84.3829C140.2 84.4823 140.408 84.6348 140.581 84.8403C140.76 85.0458 140.853 85.3143 140.859 85.6458C140.859 85.9441 140.776 86.2126 140.611 86.4512C140.445 86.6899 140.21 86.8788 139.905 87.0181C139.606 87.1506 139.262 87.2169 138.87 87.2169ZM147.109 84.1939C147.109 84.3663 147.099 84.5486 147.079 84.7409H142.723C142.756 85.2778 142.939 85.6988 143.27 86.0038C143.608 86.3021 144.016 86.4512 144.493 86.4512C144.885 86.4512 145.209 86.3617 145.468 86.1828C145.733 85.9971 145.919 85.7518 146.025 85.4469H146.999C146.853 85.9706 146.562 86.3982 146.124 86.7297C145.687 87.0545 145.143 87.2169 144.493 87.2169C143.976 87.2169 143.512 87.1009 143.101 86.8689C142.697 86.6369 142.379 86.3087 142.147 85.8844C141.915 85.4535 141.799 84.9563 141.799 84.3928C141.799 83.8293 141.911 83.3354 142.137 82.9111C142.362 82.4869 142.677 82.162 143.081 81.9366C143.492 81.7046 143.963 81.5886 144.493 81.5886C145.01 81.5886 145.468 81.7013 145.866 81.9267C146.263 82.1521 146.568 82.4637 146.781 82.8614C146.999 83.2526 147.109 83.6967 147.109 84.1939ZM146.174 84.005C146.174 83.6603 146.098 83.3653 145.945 83.12C145.793 82.8681 145.584 82.6791 145.319 82.5532C145.06 82.4206 144.772 82.3543 144.454 82.3543C143.996 82.3543 143.605 82.5001 143.28 82.7918C142.962 83.0835 142.78 83.4879 142.733 84.005H146.174ZM126.176 96.5786C126.839 96.5786 127.376 96.7808 127.787 97.1852C128.198 97.583 128.403 98.1597 128.403 98.9155V102.127H127.508V99.0448C127.508 98.5012 127.372 98.0868 127.1 97.8018C126.829 97.5101 126.457 97.3642 125.987 97.3642C125.509 97.3642 125.128 97.5134 124.843 97.8117C124.565 98.11 124.426 98.5443 124.426 99.1144V102.127H123.521V96.6781H124.426V97.4537C124.605 97.1753 124.846 96.9598 125.151 96.8074C125.463 96.6549 125.804 96.5786 126.176 96.5786ZM130.985 97.4239V100.636C130.985 100.901 131.041 101.09 131.154 101.203C131.267 101.309 131.462 101.362 131.741 101.362H132.407V102.127H131.592C131.088 102.127 130.71 102.011 130.458 101.779C130.206 101.547 130.08 101.166 130.08 100.636V97.4239H129.374V96.6781H130.08V95.3058H130.985V96.6781H132.407V97.4239H130.985ZM135.433 102.217C135.015 102.217 134.64 102.147 134.309 102.008C133.978 101.862 133.716 101.663 133.523 101.411C133.331 101.153 133.225 100.858 133.205 100.526H134.14C134.166 100.798 134.292 101.02 134.518 101.193C134.75 101.365 135.052 101.451 135.423 101.451C135.767 101.451 136.039 101.375 136.238 101.223C136.437 101.07 136.536 100.878 136.536 100.646C136.536 100.407 136.43 100.231 136.218 100.119C136.006 99.9994 135.678 99.8834 135.234 99.7707C134.829 99.6646 134.498 99.5586 134.239 99.4525C133.987 99.3398 133.769 99.1774 133.583 98.9652C133.404 98.7464 133.315 98.4614 133.315 98.11C133.315 97.8316 133.397 97.5764 133.563 97.3443C133.729 97.1123 133.964 96.93 134.269 96.7974C134.574 96.6582 134.922 96.5886 135.313 96.5886C135.917 96.5886 136.404 96.7411 136.775 97.046C137.146 97.351 137.345 97.7686 137.372 98.299H136.467C136.447 98.0139 136.331 97.7852 136.119 97.6128C135.913 97.4405 135.635 97.3543 135.284 97.3543C134.959 97.3543 134.7 97.4239 134.508 97.5631C134.316 97.7023 134.22 97.8846 134.22 98.11C134.22 98.289 134.276 98.4382 134.389 98.5575C134.508 98.6702 134.654 98.763 134.826 98.8359C135.005 98.9022 135.25 98.9785 135.562 99.0647C135.953 99.1707 136.271 99.2768 136.517 99.3829C136.762 99.4823 136.971 99.6348 137.143 99.8403C137.322 100.046 137.415 100.314 137.422 100.646C137.422 100.944 137.339 101.213 137.173 101.451C137.007 101.69 136.772 101.879 136.467 102.018C136.169 102.151 135.824 102.217 135.433 102.217Z" fill="#33475B"/>
<defs>
<filter id="filter0_d_291_48" x="0.895073" y="0.449922" width="620.21" height="372.21" filterUnits="userSpaceOnUse" color-interpolation-filters="sRGB">
<feFlood flood-opacity="0" result="BackgroundImageFix"/>
<feColorMatrix in="SourceAlpha" type="matrix" values="0 0 0 0 0 0 0 0 0 0 0 0 0 0 0 0 0 0 127 0" result="hardAlpha"/>
<feOffset dy="3.55485"/>
<feGaussianBlur stdDeviation="15.5525"/>
<feComposite in2="hardAlpha" operator="out"/>
<feColorMatrix type="matrix" values="0 0 0 0 0.607843 0 0 0 0 0.6 0 0 0 0 0.6 0 0 0 0.35 0"/>
<feBlend mode="normal" in2="BackgroundImageFix" result="effect1_dropShadow_291_48"/>
<feBlend mode="normal" in="SourceGraphic" in2="effect1_dropShadow_291_48" result="shape"/>
</filter>
<filter id="filter1_d_291_48" x="427.548" y="210.462" width="54.058" height="35.8338" filterUnits="userSpaceOnUse" color-interpolation-filters="sRGB">
<feFlood flood-opacity="0" result="BackgroundImageFix"/>
<feColorMatrix in="SourceAlpha" type="matrix" values="0 0 0 0 0 0 0 0 0 0 0 0 0 0 0 0 0 0 127 0" result="hardAlpha"/>
<feOffset dy="2.07501"/>
<feGaussianBlur stdDeviation="1.81563"/>
<feColorMatrix type="matrix" values="0 0 0 0 0.0117647 0 0 0 0 0.00784314 0 0 0 0 0.160784 0 0 0 0.07 0"/>
<feBlend mode="normal" in2="BackgroundImageFix" result="effect1_dropShadow_291_48"/>
<feBlend mode="normal" in="SourceGraphic" in2="effect1_dropShadow_291_48" result="shape"/>
</filter>
</defs>
</svg>
