<svg width="464" height="439" viewBox="0 0 464 439" fill="none" xmlns="http://www.w3.org/2000/svg">
<g filter="url(#filter0_d_426_49)">
<rect x="22" y="19" width="420" height="395" rx="5.8155" fill="white"/>
</g>
<g opacity="0.05">
<line x1="22" y1="165.956" x2="442" y2="165.956" stroke="#030229" stroke-width="0.482392"/>
<line x1="22.2412" y1="104.262" x2="22.2411" y2="413.939" stroke="#030229" stroke-width="0.482392"/>
<line x1="22" y1="227.892" x2="442" y2="227.892" stroke="#030229" stroke-width="0.482392"/>
<line x1="22" y1="289.827" x2="442" y2="289.827" stroke="#030229" stroke-width="0.482392"/>
<line x1="22" y1="351.763" x2="442" y2="351.763" stroke="#030229" stroke-width="0.482392"/>
<line x1="22" y1="413.698" x2="442" y2="413.698" stroke="#030229" stroke-width="0.482392"/>
<line x1="22" y1="104.021" x2="442" y2="104.021" stroke="#030229" stroke-width="0.482392"/>
<line x1="22.2412" y1="104.262" x2="22.2411" y2="413.456" stroke="#030229" stroke-width="0.482392"/>
<line x1="442.241" y1="103.778" x2="442.241" y2="413.974" stroke="#030229" stroke-width="0.482392"/>
</g>
<path d="M46.5269 91.5812C46.1198 91.5812 45.7534 91.5114 45.4277 91.3718C45.1021 91.2265 44.8462 91.0229 44.6601 90.7612C44.474 90.4995 44.3809 90.1942 44.3809 89.8453H45.4452C45.4684 90.107 45.5702 90.3221 45.7505 90.4908C45.9366 90.6594 46.1954 90.7438 46.5269 90.7438C46.87 90.7438 47.1375 90.6624 47.3294 90.4995C47.5213 90.3309 47.6173 90.1157 47.6173 89.854C47.6173 89.6505 47.5562 89.4847 47.4341 89.3568C47.3178 89.2288 47.1695 89.13 46.9892 89.0602C46.8147 88.9904 46.5705 88.9148 46.2564 88.8334C45.861 88.7287 45.5382 88.624 45.2882 88.5193C45.0439 88.4088 44.8346 88.2402 44.6601 88.0134C44.4856 87.7866 44.3984 87.4842 44.3984 87.1062C44.3984 86.7572 44.4856 86.4519 44.6601 86.1902C44.8346 85.9285 45.0788 85.7279 45.3928 85.5883C45.7069 85.4488 46.0704 85.379 46.4833 85.379C47.0706 85.379 47.5504 85.5273 47.9226 85.8239C48.3006 86.1146 48.51 86.5159 48.5507 87.0277H47.4515C47.4341 86.8067 47.3294 86.6177 47.1375 86.4607C46.9456 86.3036 46.6926 86.2251 46.3786 86.2251C46.0936 86.2251 45.861 86.2978 45.6807 86.4432C45.5004 86.5886 45.4103 86.798 45.4103 87.0713C45.4103 87.2574 45.4655 87.4115 45.576 87.5336C45.6923 87.6499 45.8377 87.743 46.0122 87.8128C46.1867 87.8825 46.4251 87.9581 46.7275 88.0396C47.1288 88.1501 47.4544 88.2606 47.7045 88.371C47.9604 88.4815 48.1756 88.6531 48.35 88.8857C48.5303 89.1125 48.6204 89.4178 48.6204 89.8017C48.6204 90.1099 48.5361 90.4007 48.3675 90.674C48.2046 90.9473 47.9633 91.1683 47.6434 91.337C47.3294 91.4998 46.9572 91.5812 46.5269 91.5812ZM54.1468 86.7136V91.5201H53.1523V90.9531C52.9953 91.1509 52.7888 91.3079 52.533 91.4242C52.2829 91.5347 52.0154 91.5899 51.7304 91.5899C51.3524 91.5899 51.0122 91.5114 50.7098 91.3544C50.4132 91.1974 50.1777 90.9648 50.0032 90.6565C49.8346 90.3483 49.7502 89.9761 49.7502 89.54V86.7136H50.736V89.3917C50.736 89.822 50.8436 90.1535 51.0587 90.3861C51.2739 90.6129 51.5676 90.7263 51.9398 90.7263C52.312 90.7263 52.6057 90.6129 52.8208 90.3861C53.0418 90.1535 53.1523 89.822 53.1523 89.3917V86.7136H54.1468ZM57.8839 86.6351C58.2619 86.6351 58.5992 86.7136 58.8958 86.8707C59.1982 87.0277 59.4338 87.2603 59.6024 87.5685C59.7711 87.8767 59.8554 88.2489 59.8554 88.6851V91.5201H58.8696V88.8334C58.8696 88.403 58.7621 88.0745 58.5469 87.8477C58.3317 87.615 58.038 87.4987 57.6658 87.4987C57.2936 87.4987 56.9971 87.615 56.7761 87.8477C56.5609 88.0745 56.4533 88.403 56.4533 88.8334V91.5201H55.4589V86.7136H56.4533V87.2632C56.6161 87.0655 56.8226 86.9114 57.0727 86.8009C57.3285 86.6904 57.599 86.6351 57.8839 86.6351Z" fill="#33475B"/>
<path d="M110.706 85.4575V91.5201H109.712V87.3679L107.863 91.5201H107.173L105.315 87.3679V91.5201H104.321V85.4575H105.394L107.522 90.2117L109.642 85.4575H110.706ZM114.098 91.5987C113.645 91.5987 113.235 91.4969 112.868 91.2933C112.502 91.084 112.214 90.7932 112.005 90.421C111.795 90.043 111.691 89.6068 111.691 89.1125C111.691 88.624 111.798 88.1908 112.013 87.8128C112.229 87.4348 112.522 87.144 112.894 86.9404C113.267 86.7369 113.682 86.6351 114.142 86.6351C114.601 86.6351 115.017 86.7369 115.389 86.9404C115.761 87.144 116.055 87.4348 116.27 87.8128C116.485 88.1908 116.593 88.624 116.593 89.1125C116.593 89.601 116.483 90.0343 116.262 90.4123C116.041 90.7903 115.738 91.084 115.354 91.2933C114.976 91.4969 114.558 91.5987 114.098 91.5987ZM114.098 90.735C114.354 90.735 114.593 90.674 114.814 90.5519C115.04 90.4297 115.224 90.2465 115.363 90.0023C115.503 89.758 115.572 89.4615 115.572 89.1125C115.572 88.7636 115.506 88.4699 115.372 88.2315C115.238 87.9872 115.061 87.804 114.84 87.6819C114.619 87.5598 114.38 87.4987 114.124 87.4987C113.869 87.4987 113.63 87.5598 113.409 87.6819C113.194 87.804 113.022 87.9872 112.894 88.2315C112.766 88.4699 112.703 88.7636 112.703 89.1125C112.703 89.6301 112.833 90.0314 113.095 90.3163C113.363 90.5955 113.697 90.735 114.098 90.735ZM120.001 86.6351C120.379 86.6351 120.717 86.7136 121.013 86.8707C121.316 87.0277 121.551 87.2603 121.72 87.5685C121.888 87.8767 121.973 88.2489 121.973 88.6851V91.5201H120.987V88.8334C120.987 88.403 120.879 88.0745 120.664 87.8477C120.449 87.615 120.155 87.4987 119.783 87.4987C119.411 87.4987 119.114 87.615 118.893 87.8477C118.678 88.0745 118.571 88.403 118.571 88.8334V91.5201H117.576V86.7136H118.571V87.2632C118.733 87.0655 118.94 86.9114 119.19 86.8009C119.446 86.6904 119.716 86.6351 120.001 86.6351Z" fill="#33475B"/>
<path d="M168.029 85.4575V86.2687H166.416V91.5201H165.421V86.2687H163.799V85.4575H168.029ZM173.389 86.7136V91.5201H172.395V90.9531C172.238 91.1509 172.031 91.3079 171.776 91.4242C171.525 91.5347 171.258 91.5899 170.973 91.5899C170.595 91.5899 170.255 91.5114 169.952 91.3544C169.656 91.1974 169.42 90.9648 169.246 90.6565C169.077 90.3483 168.993 89.9761 168.993 89.54V86.7136H169.979V89.3917C169.979 89.822 170.086 90.1535 170.301 90.3861C170.516 90.6129 170.81 90.7263 171.182 90.7263C171.555 90.7263 171.848 90.6129 172.063 90.3861C172.284 90.1535 172.395 89.822 172.395 89.3917V86.7136H173.389ZM179.107 88.9991C179.107 89.1794 179.095 89.3422 179.072 89.4876H175.399C175.428 89.8714 175.571 90.1797 175.827 90.4123C176.083 90.6449 176.397 90.7612 176.769 90.7612C177.304 90.7612 177.682 90.5373 177.903 90.0895H178.976C178.83 90.5315 178.566 90.895 178.182 91.1799C177.804 91.4591 177.333 91.5987 176.769 91.5987C176.309 91.5987 175.897 91.4969 175.53 91.2933C175.17 91.084 174.885 90.7932 174.675 90.421C174.472 90.043 174.37 89.6068 174.37 89.1125C174.37 88.6182 174.469 88.185 174.667 87.8128C174.87 87.4348 175.152 87.144 175.513 86.9404C175.879 86.7369 176.298 86.6351 176.769 86.6351C177.222 86.6351 177.627 86.734 177.981 86.9317C178.336 87.1294 178.612 87.4086 178.81 87.7691C179.008 88.1239 179.107 88.5339 179.107 88.9991ZM178.069 88.6851C178.063 88.3187 177.932 88.025 177.676 87.804C177.42 87.583 177.103 87.4726 176.725 87.4726C176.382 87.4726 176.088 87.583 175.844 87.804C175.6 88.0192 175.455 88.3129 175.408 88.6851H178.069Z" fill="#33475B"/>
<path d="M231.799 85.4575L230.002 91.5201H228.876L227.603 86.9317L226.251 91.5201L225.134 91.5289L223.416 85.4575H224.471L225.727 90.3948L227.088 85.4575H228.205L229.47 90.3687L230.735 85.4575H231.799ZM237.024 88.9991C237.024 89.1794 237.013 89.3422 236.989 89.4876H233.317C233.346 89.8714 233.488 90.1797 233.744 90.4123C234 90.6449 234.314 90.7612 234.686 90.7612C235.221 90.7612 235.599 90.5373 235.82 90.0895H236.893C236.748 90.5315 236.483 90.895 236.1 91.1799C235.722 91.4591 235.25 91.5987 234.686 91.5987C234.227 91.5987 233.814 91.4969 233.448 91.2933C233.087 91.084 232.802 90.7932 232.593 90.421C232.389 90.043 232.287 89.6068 232.287 89.1125C232.287 88.6182 232.386 88.185 232.584 87.8128C232.788 87.4348 233.07 87.144 233.43 86.9404C233.797 86.7369 234.215 86.6351 234.686 86.6351C235.14 86.6351 235.544 86.734 235.899 86.9317C236.254 87.1294 236.53 87.4086 236.728 87.7691C236.925 88.1239 237.024 88.5339 237.024 88.9991ZM235.986 88.6851C235.98 88.3187 235.849 88.025 235.594 87.804C235.338 87.583 235.021 87.4726 234.643 87.4726C234.3 87.4726 234.006 87.583 233.762 87.804C233.517 88.0192 233.372 88.3129 233.326 88.6851H235.986ZM237.671 89.0951C237.671 88.6124 237.77 88.185 237.968 87.8128C238.171 87.4406 238.445 87.1527 238.788 86.9492C239.137 86.7398 239.524 86.6351 239.948 86.6351C240.262 86.6351 240.57 86.7049 240.873 86.8445C241.181 86.9782 241.425 87.1585 241.606 87.3853V85.0649H242.609V91.5201H241.606V90.7961C241.443 91.0287 241.216 91.2206 240.925 91.3718C240.64 91.523 240.312 91.5987 239.939 91.5987C239.521 91.5987 239.137 91.494 238.788 91.2846C238.445 91.0694 238.171 90.7729 237.968 90.3948C237.77 90.011 237.671 89.5778 237.671 89.0951ZM241.606 89.1125C241.606 88.781 241.536 88.4932 241.396 88.2489C241.262 88.0047 241.085 87.8186 240.864 87.6906C240.643 87.5627 240.405 87.4987 240.149 87.4987C239.893 87.4987 239.654 87.5627 239.433 87.6906C239.212 87.8128 239.032 87.9959 238.893 88.2402C238.759 88.4786 238.692 88.7636 238.692 89.0951C238.692 89.4266 238.759 89.7173 238.893 89.9674C239.032 90.2175 239.212 90.4094 239.433 90.5431C239.66 90.6711 239.899 90.735 240.149 90.735C240.405 90.735 240.643 90.6711 240.864 90.5431C241.085 90.4152 241.262 90.2291 241.396 89.9848C241.536 89.7348 241.606 89.444 241.606 89.1125Z" fill="#33475B"/>
<path d="M287.613 85.4575V86.2687H285.999V91.5201H285.004V86.2687H283.382V85.4575H287.613ZM291.106 86.6351C291.472 86.6351 291.798 86.7136 292.083 86.8707C292.374 87.0277 292.6 87.2603 292.763 87.5685C292.932 87.8767 293.016 88.2489 293.016 88.6851V91.5201H292.031V88.8334C292.031 88.403 291.923 88.0745 291.708 87.8477C291.493 87.615 291.199 87.4987 290.827 87.4987C290.455 87.4987 290.158 87.615 289.937 87.8477C289.722 88.0745 289.614 88.403 289.614 88.8334V91.5201H288.62V85.0649H289.614V87.2719C289.783 87.0684 289.995 86.9114 290.251 86.8009C290.513 86.6904 290.798 86.6351 291.106 86.6351ZM298.638 86.7136V91.5201H297.643V90.9531C297.486 91.1509 297.28 91.3079 297.024 91.4242C296.774 91.5347 296.506 91.5899 296.221 91.5899C295.843 91.5899 295.503 91.5114 295.201 91.3544C294.904 91.1974 294.669 90.9648 294.494 90.6565C294.325 90.3483 294.241 89.9761 294.241 89.54V86.7136H295.227V89.3917C295.227 89.822 295.334 90.1535 295.55 90.3861C295.765 90.6129 296.058 90.7263 296.431 90.7263C296.803 90.7263 297.097 90.6129 297.312 90.3861C297.533 90.1535 297.643 89.822 297.643 89.3917V86.7136H298.638Z" fill="#33475B"/>
<path d="M348.514 85.4575V86.2687H345.94V88.057H347.947V88.8683H345.94V91.5201H344.946V85.4575H348.514ZM350.43 87.4115C350.575 87.1672 350.767 86.9782 351.005 86.8445C351.25 86.7049 351.538 86.6351 351.869 86.6351V87.6645H351.616C351.226 87.6645 350.93 87.7633 350.726 87.9611C350.529 88.1588 350.43 88.5019 350.43 88.9904V91.5201H349.435V86.7136H350.43V87.4115ZM353.289 86.0768C353.109 86.0768 352.958 86.0158 352.836 85.8936C352.713 85.7715 352.652 85.6203 352.652 85.44C352.652 85.2598 352.713 85.1086 352.836 84.9864C352.958 84.8643 353.109 84.8032 353.289 84.8032C353.464 84.8032 353.612 84.8643 353.734 84.9864C353.856 85.1086 353.917 85.2598 353.917 85.44C353.917 85.6203 353.856 85.7715 353.734 85.8936C353.612 86.0158 353.464 86.0768 353.289 86.0768ZM353.778 86.7136V91.5201H352.783V86.7136H353.778Z" fill="#33475B"/>
<path d="M406.735 91.5812C406.328 91.5812 405.962 91.5114 405.636 91.3718C405.31 91.2265 405.054 91.0229 404.868 90.7612C404.682 90.4995 404.589 90.1942 404.589 89.8453H405.653C405.677 90.107 405.779 90.3221 405.959 90.4908C406.145 90.6594 406.404 90.7438 406.735 90.7438C407.078 90.7438 407.346 90.6624 407.538 90.4995C407.73 90.3309 407.826 90.1157 407.826 89.854C407.826 89.6505 407.764 89.4847 407.642 89.3568C407.526 89.2288 407.378 89.13 407.197 89.0602C407.023 88.9904 406.779 88.9148 406.465 88.8334C406.069 88.7287 405.747 88.624 405.496 88.5193C405.252 88.4088 405.043 88.2402 404.868 88.0134C404.694 87.7866 404.607 87.4842 404.607 87.1062C404.607 86.7572 404.694 86.4519 404.868 86.1902C405.043 85.9285 405.287 85.7279 405.601 85.5883C405.915 85.4488 406.279 85.379 406.692 85.379C407.279 85.379 407.759 85.5273 408.131 85.8239C408.509 86.1146 408.718 86.5159 408.759 87.0277H407.66C407.642 86.8067 407.538 86.6177 407.346 86.4607C407.154 86.3036 406.901 86.2251 406.587 86.2251C406.302 86.2251 406.069 86.2978 405.889 86.4432C405.709 86.5886 405.619 86.798 405.619 87.0713C405.619 87.2574 405.674 87.4115 405.784 87.5336C405.901 87.6499 406.046 87.743 406.22 87.8128C406.395 87.8825 406.633 87.9581 406.936 88.0396C407.337 88.1501 407.663 88.2606 407.913 88.371C408.169 88.4815 408.384 88.6531 408.558 88.8857C408.739 89.1125 408.829 89.4178 408.829 89.8017C408.829 90.1099 408.744 90.4007 408.576 90.674C408.413 90.9473 408.172 91.1683 407.852 91.337C407.538 91.4998 407.165 91.5812 406.735 91.5812ZM409.671 89.0951C409.671 88.6124 409.77 88.185 409.967 87.8128C410.171 87.4406 410.444 87.1527 410.787 86.9492C411.136 86.7398 411.52 86.6351 411.939 86.6351C412.317 86.6351 412.645 86.7107 412.924 86.8619C413.209 87.0073 413.436 87.1905 413.605 87.4115V86.7136H414.608V91.5201H413.605V90.8048C413.436 91.0316 413.206 91.2206 412.916 91.3718C412.625 91.523 412.293 91.5987 411.921 91.5987C411.508 91.5987 411.13 91.494 410.787 91.2846C410.444 91.0694 410.171 90.7729 409.967 90.3948C409.77 90.011 409.671 89.5778 409.671 89.0951ZM413.605 89.1125C413.605 88.781 413.535 88.4932 413.395 88.2489C413.262 88.0047 413.084 87.8186 412.863 87.6906C412.642 87.5627 412.404 87.4987 412.148 87.4987C411.892 87.4987 411.654 87.5627 411.433 87.6906C411.212 87.8128 411.031 87.9959 410.892 88.2402C410.758 88.4786 410.691 88.7636 410.691 89.0951C410.691 89.4266 410.758 89.7173 410.892 89.9674C411.031 90.2175 411.212 90.4094 411.433 90.5431C411.66 90.6711 411.898 90.735 412.148 90.735C412.404 90.735 412.642 90.6711 412.863 90.5431C413.084 90.4152 413.262 90.2291 413.395 89.9848C413.535 89.7348 413.605 89.444 413.605 89.1125ZM417.074 87.5249V90.1855C417.074 90.3658 417.115 90.4966 417.197 90.578C417.284 90.6536 417.429 90.6914 417.633 90.6914H418.243V91.5201H417.458C417.01 91.5201 416.667 91.4155 416.429 91.2061C416.19 90.9967 416.071 90.6565 416.071 90.1855V87.5249H415.504V86.7136H416.071V85.5185H417.074V86.7136H418.243V87.5249H417.074Z" fill="#33475B"/>
<path opacity="0.3" d="M44.6597 120.768C45.6445 119.977 46.416 119.33 46.9743 118.826C47.5326 118.314 48.0017 117.783 48.3816 117.232C48.7693 116.674 48.9632 116.127 48.9632 115.592C48.9632 115.088 48.8391 114.693 48.591 114.406C48.3506 114.111 47.9591 113.964 47.4163 113.964C46.889 113.964 46.478 114.13 46.1834 114.464C45.8965 114.79 45.7414 115.228 45.7181 115.778H44.6946C44.7256 114.91 44.9893 114.239 45.4855 113.766C45.9818 113.293 46.6215 113.057 47.4046 113.057C48.2033 113.057 48.8353 113.278 49.3005 113.719C49.7735 114.161 50.01 114.77 50.01 115.546C50.01 116.189 49.8161 116.817 49.4284 117.43C49.0485 118.035 48.6143 118.57 48.1258 119.035C47.6373 119.492 47.0131 120.027 46.2532 120.64H50.2542V121.524H44.6597V120.768ZM52.8386 119.361C52.9161 119.803 53.0945 120.144 53.3736 120.384C53.6605 120.624 54.0443 120.745 54.5251 120.745C55.1687 120.745 55.6417 120.493 55.9441 119.989C56.2542 119.485 56.4015 118.636 56.386 117.441C56.2232 117.79 55.9518 118.066 55.5719 118.267C55.1919 118.461 54.7693 118.558 54.3041 118.558C53.7846 118.558 53.3193 118.453 52.9084 118.244C52.5052 118.027 52.1873 117.713 51.9546 117.302C51.722 116.891 51.6057 116.395 51.6057 115.813C51.6057 114.983 51.8461 114.317 52.3268 113.813C52.8076 113.301 53.4899 113.045 54.3739 113.045C55.4594 113.045 56.2193 113.398 56.6536 114.103C57.0955 114.809 57.3165 115.86 57.3165 117.255C57.3165 118.232 57.2273 119.039 57.049 119.675C56.8784 120.31 56.5838 120.795 56.1651 121.128C55.7541 121.462 55.188 121.629 54.4669 121.629C53.676 121.629 53.0596 121.415 52.6176 120.989C52.1756 120.562 51.9236 120.02 51.8616 119.361H52.8386ZM54.4786 117.662C54.9981 117.662 55.4245 117.503 55.758 117.186C56.0914 116.86 56.2581 116.422 56.2581 115.871C56.2581 115.29 56.0953 114.821 55.7696 114.464C55.4439 114.107 54.9864 113.929 54.3971 113.929C53.8544 113.929 53.4201 114.099 53.0945 114.441C52.7766 114.782 52.6176 115.232 52.6176 115.79C52.6176 116.356 52.7766 116.809 53.0945 117.151C53.4124 117.492 53.8737 117.662 54.4786 117.662Z" fill="#030229"/>
<path d="M44.7877 179.261C44.7877 177.927 45.0048 176.888 45.439 176.143C45.8732 175.391 46.6331 175.015 47.7187 175.015C48.7965 175.015 49.5525 175.391 49.9867 176.143C50.4209 176.888 50.6381 177.927 50.6381 179.261C50.6381 180.617 50.4209 181.672 49.9867 182.424C49.5525 183.176 48.7965 183.552 47.7187 183.552C46.6331 183.552 45.8732 183.176 45.439 182.424C45.0048 181.672 44.7877 180.617 44.7877 179.261ZM49.5913 179.261C49.5913 178.586 49.5447 178.016 49.4517 177.551C49.3664 177.078 49.1842 176.698 48.905 176.411C48.6336 176.124 48.2382 175.981 47.7187 175.981C47.1914 175.981 46.7882 176.124 46.5091 176.411C46.2377 176.698 46.0554 177.078 45.9624 177.551C45.8771 178.016 45.8345 178.586 45.8345 179.261C45.8345 179.958 45.8771 180.544 45.9624 181.017C46.0554 181.49 46.2377 181.87 46.5091 182.157C46.7882 182.444 47.1914 182.587 47.7187 182.587C48.2382 182.587 48.6336 182.444 48.905 182.157C49.1842 181.87 49.3664 181.49 49.4517 181.017C49.5447 180.544 49.5913 179.958 49.5913 179.261ZM56.7784 177.144C56.6078 176.283 56.0767 175.853 55.185 175.853C54.4949 175.853 53.9792 176.12 53.638 176.655C53.2969 177.182 53.1301 178.055 53.1379 179.272C53.3162 178.869 53.6109 178.555 54.0219 178.33C54.4406 178.097 54.9058 177.981 55.4176 177.981C56.2162 177.981 56.8521 178.229 57.3251 178.726C57.8058 179.222 58.0462 179.908 58.0462 180.784C58.0462 181.311 57.9415 181.784 57.7321 182.203C57.5305 182.622 57.2204 182.955 56.8017 183.203C56.3907 183.452 55.8906 183.576 55.3013 183.576C54.5026 183.576 53.8784 183.397 53.4287 183.041C52.9789 182.684 52.6649 182.192 52.4866 181.563C52.3082 180.935 52.2191 180.16 52.2191 179.237C52.2191 176.392 53.2116 174.969 55.1966 174.969C55.9565 174.969 56.5535 175.174 56.9878 175.585C57.422 175.996 57.6779 176.516 57.7554 177.144H56.7784ZM55.1966 178.877C54.8632 178.877 54.5491 178.946 54.2545 179.086C53.9598 179.218 53.7195 179.423 53.5334 179.703C53.355 179.974 53.2658 180.307 53.2658 180.703C53.2658 181.292 53.4364 181.773 53.7776 182.145C54.1188 182.509 54.6073 182.692 55.2431 182.692C55.7859 182.692 56.2162 182.525 56.5342 182.192C56.8598 181.85 57.0227 181.393 57.0227 180.819C57.0227 180.214 56.8676 179.741 56.5574 179.4C56.2473 179.051 55.7936 178.877 55.1966 178.877Z" fill="#C18CE1"/>
<path d="M44.5085 238.044V237.079H46.6951V245.488H45.6251V238.044H44.5085ZM48.49 239.196C48.5442 238.482 48.8195 237.924 49.3158 237.521C49.812 237.118 50.4556 236.916 51.2465 236.916C51.7738 236.916 52.2274 237.013 52.6073 237.207C52.995 237.393 53.2858 237.649 53.4797 237.974C53.6813 238.3 53.7821 238.668 53.7821 239.079C53.7821 239.56 53.6425 239.975 53.3633 240.324C53.092 240.673 52.7353 240.898 52.2933 240.998V241.057C52.7973 241.181 53.1966 241.425 53.4913 241.789C53.7859 242.154 53.9333 242.631 53.9333 243.22C53.9333 243.662 53.8325 244.061 53.6309 244.418C53.4293 244.767 53.1268 245.042 52.7236 245.244C52.3204 245.445 51.8358 245.546 51.2698 245.546C50.4478 245.546 49.7732 245.333 49.246 244.906C48.7187 244.472 48.424 243.86 48.362 243.069H49.3855C49.4398 243.534 49.6298 243.914 49.9555 244.209C50.2811 244.503 50.7154 244.651 51.2581 244.651C51.8009 244.651 52.2119 244.511 52.491 244.232C52.7779 243.945 52.9214 243.577 52.9214 243.127C52.9214 242.545 52.7275 242.127 52.3398 241.871C51.9521 241.615 51.3667 241.487 50.5835 241.487H50.316V240.603H50.5952C51.3085 240.595 51.8474 240.479 52.2119 240.254C52.5763 240.021 52.7585 239.665 52.7585 239.184C52.7585 238.773 52.6228 238.444 52.3514 238.195C52.0878 237.947 51.7079 237.823 51.2116 237.823C50.7309 237.823 50.3432 237.947 50.0485 238.195C49.7539 238.444 49.5794 238.777 49.5251 239.196H48.49Z" fill="#C18CE1"/>
<path d="M44.6597 306.575C45.6445 305.784 46.416 305.136 46.9743 304.632C47.5326 304.12 48.0017 303.589 48.3816 303.039C48.7693 302.48 48.9632 301.934 48.9632 301.399C48.9632 300.895 48.8391 300.499 48.591 300.212C48.3506 299.918 47.9591 299.77 47.4163 299.77C46.889 299.77 46.478 299.937 46.1834 300.271C45.8965 300.596 45.7414 301.034 45.7181 301.585H44.6946C44.7256 300.716 44.9893 300.046 45.4855 299.573C45.9818 299.1 46.6215 298.863 47.4046 298.863C48.2033 298.863 48.8353 299.084 49.3005 299.526C49.7735 299.968 50.01 300.577 50.01 301.352C50.01 301.996 49.8161 302.624 49.4284 303.236C49.0485 303.841 48.6143 304.376 48.1258 304.842C47.6373 305.299 47.0131 305.834 46.2532 306.447H50.2542V307.331H44.6597V306.575ZM51.4778 303.132C51.4778 301.798 51.6949 300.759 52.1291 300.015C52.5633 299.263 53.3232 298.886 54.4088 298.886C55.4866 298.886 56.2426 299.263 56.6768 300.015C57.111 300.759 57.3282 301.798 57.3282 303.132C57.3282 304.489 57.111 305.543 56.6768 306.295C56.2426 307.048 55.4866 307.424 54.4088 307.424C53.3232 307.424 52.5633 307.048 52.1291 306.295C51.6949 305.543 51.4778 304.489 51.4778 303.132ZM56.2814 303.132C56.2814 302.457 56.2348 301.887 56.1418 301.422C56.0565 300.949 55.8743 300.569 55.5951 300.282C55.3237 299.995 54.9283 299.852 54.4088 299.852C53.8815 299.852 53.4783 299.995 53.1991 300.282C52.9278 300.569 52.7455 300.949 52.6525 301.422C52.5672 301.887 52.5246 302.457 52.5246 303.132C52.5246 303.83 52.5672 304.415 52.6525 304.888C52.7455 305.361 52.9278 305.741 53.1991 306.028C53.4783 306.315 53.8815 306.458 54.4088 306.458C54.9283 306.458 55.3237 306.315 55.5951 306.028C55.8743 305.741 56.0565 305.361 56.1418 304.888C56.2348 304.415 56.2814 303.83 56.2814 303.132Z" fill="#C18CE1"/>
<path d="M44.6597 368.51C45.6445 367.719 46.416 367.071 46.9743 366.567C47.5326 366.056 48.0017 365.525 48.3816 364.974C48.7693 364.416 48.9632 363.869 48.9632 363.334C48.9632 362.83 48.8391 362.435 48.591 362.148C48.3506 361.853 47.9591 361.706 47.4163 361.706C46.889 361.706 46.478 361.872 46.1834 362.206C45.8965 362.531 45.7414 362.97 45.7181 363.52H44.6946C44.7256 362.652 44.9893 361.981 45.4855 361.508C45.9818 361.035 46.6215 360.798 47.4046 360.798C48.2033 360.798 48.8353 361.019 49.3005 361.461C49.7735 361.903 50.01 362.512 50.01 363.288C50.01 363.931 49.8161 364.559 49.4284 365.172C49.0485 365.777 48.6143 366.312 48.1258 366.777C47.6373 367.234 47.0131 367.769 46.2532 368.382H50.2542V369.266H44.6597V368.51ZM56.6536 361.775L53.4201 369.359H52.3501L55.63 361.88H51.1405V360.973H56.6536V361.775Z" fill="#C18CE1"/>
<path opacity="0.3" d="M104.765 115.325C104.819 114.611 105.094 114.053 105.591 113.65C106.087 113.247 106.73 113.045 107.521 113.045C108.049 113.045 108.502 113.142 108.882 113.336C109.27 113.522 109.561 113.778 109.754 114.103C109.956 114.429 110.057 114.797 110.057 115.208C110.057 115.689 109.917 116.104 109.638 116.453C109.367 116.802 109.01 117.027 108.568 117.127V117.186C109.072 117.31 109.471 117.554 109.766 117.918C110.061 118.283 110.208 118.76 110.208 119.349C110.208 119.791 110.107 120.19 109.906 120.547C109.704 120.896 109.402 121.171 108.998 121.373C108.595 121.574 108.111 121.675 107.545 121.675C106.723 121.675 106.048 121.462 105.521 121.035C104.993 120.601 104.699 119.989 104.637 119.198H105.66C105.715 119.663 105.905 120.043 106.23 120.338C106.556 120.632 106.99 120.78 107.533 120.78C108.076 120.78 108.487 120.64 108.766 120.361C109.053 120.074 109.196 119.706 109.196 119.256C109.196 118.674 109.002 118.256 108.615 118C108.227 117.744 107.641 117.616 106.858 117.616H106.591V116.732H106.87C107.583 116.724 108.122 116.608 108.487 116.383C108.851 116.15 109.033 115.794 109.033 115.313C109.033 114.902 108.898 114.572 108.626 114.324C108.363 114.076 107.983 113.952 107.486 113.952C107.006 113.952 106.618 114.076 106.323 114.324C106.029 114.572 105.854 114.906 105.8 115.325H104.765ZM111.637 117.325C111.637 115.991 111.854 114.952 112.288 114.208C112.723 113.456 113.483 113.08 114.568 113.08C115.646 113.08 116.402 113.456 116.836 114.208C117.27 114.952 117.487 115.991 117.487 117.325C117.487 118.682 117.27 119.737 116.836 120.489C116.402 121.241 115.646 121.617 114.568 121.617C113.483 121.617 112.723 121.241 112.288 120.489C111.854 119.737 111.637 118.682 111.637 117.325ZM116.441 117.325C116.441 116.651 116.394 116.081 116.301 115.615C116.216 115.142 116.034 114.762 115.754 114.476C115.483 114.189 115.088 114.045 114.568 114.045C114.041 114.045 113.638 114.189 113.358 114.476C113.087 114.762 112.905 115.142 112.812 115.615C112.727 116.081 112.684 116.651 112.684 117.325C112.684 118.023 112.727 118.608 112.812 119.081C112.905 119.554 113.087 119.934 113.358 120.221C113.638 120.508 114.041 120.652 114.568 120.652C115.088 120.652 115.483 120.508 115.754 120.221C116.034 119.934 116.216 119.554 116.301 119.081C116.394 118.608 116.441 118.023 116.441 117.325Z" fill="#030229"/>
<path d="M104.788 179.261C104.788 177.927 105.005 176.888 105.439 176.143C105.874 175.391 106.633 175.015 107.719 175.015C108.797 175.015 109.553 175.391 109.987 176.143C110.421 176.888 110.638 177.927 110.638 179.261C110.638 180.617 110.421 181.672 109.987 182.424C109.553 183.176 108.797 183.552 107.719 183.552C106.633 183.552 105.874 183.176 105.439 182.424C105.005 181.672 104.788 180.617 104.788 179.261ZM109.592 179.261C109.592 178.586 109.545 178.016 109.452 177.551C109.367 177.078 109.184 176.698 108.905 176.411C108.634 176.124 108.238 175.981 107.719 175.981C107.192 175.981 106.789 176.124 106.509 176.411C106.238 176.698 106.056 177.078 105.963 177.551C105.877 178.016 105.835 178.586 105.835 179.261C105.835 179.958 105.877 180.544 105.963 181.017C106.056 181.49 106.238 181.87 106.509 182.157C106.789 182.444 107.192 182.587 107.719 182.587C108.238 182.587 108.634 182.444 108.905 182.157C109.184 181.87 109.367 181.49 109.452 181.017C109.545 180.544 109.592 179.958 109.592 179.261ZM117.267 175.969L114.034 183.552H112.964L116.244 176.074H111.754V175.166H117.267V175.969Z" fill="#33475B"/>
<path d="M104.509 238.044V237.079H106.695V245.488H105.625V238.044H104.509ZM108.258 243.615V242.813L112.34 237.16H113.608V242.697H114.771V243.615H113.608V245.488H112.561V243.615H108.258ZM112.608 238.265L109.479 242.697H112.608V238.265Z" fill="#33475B"/>
<path d="M104.176 306.575C105.161 305.784 105.932 305.136 106.49 304.632C107.049 304.12 107.518 303.589 107.898 303.039C108.285 302.48 108.479 301.934 108.479 301.399C108.479 300.895 108.355 300.499 108.107 300.212C107.867 299.918 107.475 299.77 106.932 299.77C106.405 299.77 105.994 299.937 105.699 300.271C105.413 300.596 105.258 301.034 105.234 301.585H104.211C104.242 300.716 104.505 300.046 105.002 299.573C105.498 299.1 106.138 298.863 106.921 298.863C107.719 298.863 108.351 299.084 108.817 299.526C109.29 299.968 109.526 300.577 109.526 301.352C109.526 301.996 109.332 302.624 108.945 303.236C108.565 303.841 108.13 304.376 107.642 304.842C107.153 305.299 106.529 305.834 105.769 306.447H109.77V307.331H104.176V306.575ZM110.715 299.98V299.014H112.901V307.424H111.831V299.98H110.715Z" fill="#33475B"/>
<path d="M104.66 368.51C105.645 367.719 106.416 367.071 106.975 366.567C107.533 366.056 108.002 365.525 108.382 364.974C108.77 364.416 108.963 363.869 108.963 363.334C108.963 362.83 108.839 362.435 108.591 362.148C108.351 361.853 107.959 361.706 107.417 361.706C106.889 361.706 106.478 361.872 106.184 362.206C105.897 362.531 105.742 362.97 105.718 363.52H104.695C104.726 362.652 104.99 361.981 105.486 361.508C105.982 361.035 106.622 360.798 107.405 360.798C108.204 360.798 108.836 361.019 109.301 361.461C109.774 361.903 110.01 362.512 110.01 363.288C110.01 363.931 109.816 364.559 109.429 365.172C109.049 365.777 108.615 366.312 108.126 366.777C107.638 367.234 107.013 367.769 106.253 368.382H110.255V369.266H104.66V368.51ZM113.013 364.986C112.579 364.815 112.246 364.567 112.013 364.241C111.78 363.916 111.664 363.52 111.664 363.055C111.664 362.636 111.769 362.26 111.978 361.927C112.188 361.586 112.498 361.318 112.909 361.124C113.327 360.923 113.831 360.822 114.421 360.822C115.01 360.822 115.51 360.923 115.921 361.124C116.34 361.318 116.654 361.586 116.863 361.927C117.08 362.26 117.189 362.636 117.189 363.055C117.189 363.505 117.069 363.9 116.828 364.241C116.588 364.575 116.258 364.823 115.84 364.986C116.32 365.133 116.7 365.393 116.98 365.765C117.266 366.129 117.41 366.571 117.41 367.091C117.41 367.595 117.286 368.037 117.038 368.417C116.79 368.789 116.437 369.08 115.979 369.289C115.53 369.491 115.01 369.592 114.421 369.592C113.831 369.592 113.312 369.491 112.862 369.289C112.42 369.08 112.075 368.789 111.827 368.417C111.579 368.037 111.455 367.595 111.455 367.091C111.455 366.571 111.594 366.125 111.874 365.753C112.153 365.381 112.533 365.125 113.013 364.986ZM116.165 363.183C116.165 362.71 116.01 362.345 115.7 362.09C115.39 361.834 114.963 361.706 114.421 361.706C113.886 361.706 113.463 361.834 113.153 362.09C112.843 362.345 112.688 362.714 112.688 363.194C112.688 363.629 112.847 363.978 113.165 364.241C113.49 364.505 113.909 364.637 114.421 364.637C114.94 364.637 115.359 364.505 115.677 364.241C116.003 363.97 116.165 363.617 116.165 363.183ZM114.421 365.451C113.847 365.451 113.378 365.587 113.013 365.858C112.649 366.122 112.467 366.521 112.467 367.056C112.467 367.552 112.641 367.952 112.99 368.254C113.347 368.556 113.824 368.708 114.421 368.708C115.018 368.708 115.491 368.556 115.84 368.254C116.189 367.952 116.363 367.552 116.363 367.056C116.363 366.536 116.185 366.141 115.828 365.87C115.471 365.59 115.002 365.451 114.421 365.451Z" fill="#33475B"/>
<path d="M164.788 117.325C164.788 115.991 165.005 114.952 165.439 114.208C165.873 113.456 166.633 113.08 167.719 113.08C168.796 113.08 169.552 113.456 169.987 114.208C170.421 114.952 170.638 115.991 170.638 117.325C170.638 118.682 170.421 119.737 169.987 120.489C169.552 121.241 168.796 121.617 167.719 121.617C166.633 121.617 165.873 121.241 165.439 120.489C165.005 119.737 164.788 118.682 164.788 117.325ZM169.591 117.325C169.591 116.651 169.545 116.081 169.452 115.615C169.366 115.142 169.184 114.762 168.905 114.476C168.634 114.189 168.238 114.045 167.719 114.045C167.191 114.045 166.788 114.189 166.509 114.476C166.238 114.762 166.055 115.142 165.962 115.615C165.877 116.081 165.834 116.651 165.834 117.325C165.834 118.023 165.877 118.608 165.962 119.081C166.055 119.554 166.238 119.934 166.509 120.221C166.788 120.508 167.191 120.652 167.719 120.652C168.238 120.652 168.634 120.508 168.905 120.221C169.184 119.934 169.366 119.554 169.452 119.081C169.545 118.608 169.591 118.023 169.591 117.325ZM171.812 114.173V113.208H173.998V121.617H172.928V114.173H171.812Z" fill="#33475B"/>
<path d="M164.788 179.261C164.788 177.927 165.005 176.888 165.439 176.143C165.873 175.391 166.633 175.015 167.719 175.015C168.796 175.015 169.552 175.391 169.987 176.143C170.421 176.888 170.638 177.927 170.638 179.261C170.638 180.617 170.421 181.672 169.987 182.424C169.552 183.176 168.796 183.552 167.719 183.552C166.633 183.552 165.873 183.176 165.439 182.424C165.005 181.672 164.788 180.617 164.788 179.261ZM169.591 179.261C169.591 178.586 169.545 178.016 169.452 177.551C169.366 177.078 169.184 176.698 168.905 176.411C168.634 176.124 168.238 175.981 167.719 175.981C167.191 175.981 166.788 176.124 166.509 176.411C166.238 176.698 166.055 177.078 165.962 177.551C165.877 178.016 165.834 178.586 165.834 179.261C165.834 179.958 165.877 180.544 165.962 181.017C166.055 181.49 166.238 181.87 166.509 182.157C166.788 182.444 167.191 182.587 167.719 182.587C168.238 182.587 168.634 182.444 168.905 182.157C169.184 181.87 169.366 181.49 169.452 181.017C169.545 180.544 169.591 179.958 169.591 179.261ZM173.626 179.179C173.192 179.009 172.859 178.76 172.626 178.435C172.393 178.109 172.277 177.714 172.277 177.248C172.277 176.83 172.382 176.454 172.591 176.12C172.8 175.779 173.111 175.511 173.522 175.318C173.94 175.116 174.444 175.015 175.034 175.015C175.623 175.015 176.123 175.116 176.534 175.318C176.953 175.511 177.267 175.779 177.476 176.12C177.693 176.454 177.802 176.83 177.802 177.248C177.802 177.698 177.682 178.094 177.441 178.435C177.201 178.768 176.871 179.016 176.453 179.179C176.933 179.326 177.313 179.586 177.592 179.958C177.879 180.323 178.023 180.765 178.023 181.284C178.023 181.788 177.899 182.23 177.651 182.61C177.402 182.982 177.05 183.273 176.592 183.483C176.142 183.684 175.623 183.785 175.034 183.785C174.444 183.785 173.925 183.684 173.475 183.483C173.033 183.273 172.688 182.982 172.44 182.61C172.192 182.23 172.068 181.788 172.068 181.284C172.068 180.765 172.207 180.319 172.486 179.947C172.766 179.575 173.146 179.319 173.626 179.179ZM176.778 177.376C176.778 176.903 176.623 176.539 176.313 176.283C176.003 176.027 175.576 175.899 175.034 175.899C174.499 175.899 174.076 176.027 173.766 176.283C173.456 176.539 173.301 176.907 173.301 177.388C173.301 177.822 173.46 178.171 173.777 178.435C174.103 178.698 174.522 178.83 175.034 178.83C175.553 178.83 175.972 178.698 176.29 178.435C176.615 178.163 176.778 177.811 176.778 177.376ZM175.034 179.644C174.46 179.644 173.991 179.78 173.626 180.051C173.262 180.315 173.08 180.714 173.08 181.249C173.08 181.746 173.254 182.145 173.603 182.447C173.96 182.75 174.437 182.901 175.034 182.901C175.631 182.901 176.104 182.75 176.453 182.447C176.802 182.145 176.976 181.746 176.976 181.249C176.976 180.73 176.798 180.334 176.441 180.063C176.084 179.784 175.615 179.644 175.034 179.644Z" fill="#33475B"/>
<path d="M164.508 238.044V237.079H166.695V245.488H165.625V238.044H164.508ZM173.875 237.998H169.793V240.65C169.971 240.401 170.234 240.2 170.583 240.045C170.932 239.882 171.308 239.8 171.712 239.8C172.355 239.8 172.879 239.936 173.282 240.208C173.685 240.471 173.972 240.816 174.142 241.243C174.321 241.661 174.41 242.107 174.41 242.58C174.41 243.139 174.305 243.639 174.096 244.081C173.887 244.523 173.565 244.872 173.131 245.127C172.704 245.383 172.173 245.511 171.537 245.511C170.723 245.511 170.064 245.302 169.56 244.883C169.056 244.465 168.75 243.906 168.641 243.208H169.676C169.777 243.65 169.99 243.995 170.316 244.244C170.642 244.492 171.053 244.616 171.549 244.616C172.161 244.616 172.623 244.433 172.933 244.069C173.243 243.697 173.398 243.208 173.398 242.604C173.398 241.999 173.243 241.533 172.933 241.208C172.623 240.874 172.165 240.708 171.56 240.708C171.149 240.708 170.789 240.808 170.479 241.01C170.176 241.204 169.955 241.471 169.816 241.813H168.816V237.067H173.875V237.998Z" fill="#33475B"/>
<path d="M164.66 306.575C165.644 305.784 166.416 305.136 166.974 304.632C167.532 304.12 168.002 303.589 168.382 303.039C168.769 302.48 168.963 301.934 168.963 301.399C168.963 300.895 168.839 300.499 168.591 300.212C168.351 299.918 167.959 299.77 167.416 299.77C166.889 299.77 166.478 299.937 166.183 300.271C165.896 300.596 165.741 301.034 165.718 301.585H164.694C164.726 300.716 164.989 300.046 165.485 299.573C165.982 299.1 166.621 298.863 167.405 298.863C168.203 298.863 168.835 299.084 169.3 299.526C169.773 299.968 170.01 300.577 170.01 301.352C170.01 301.996 169.816 302.624 169.428 303.236C169.048 303.841 168.614 304.376 168.126 304.842C167.637 305.299 167.013 305.834 166.253 306.447H170.254V307.331H164.66V306.575ZM171.35 306.575C172.334 305.784 173.106 305.136 173.664 304.632C174.223 304.12 174.692 303.589 175.072 303.039C175.459 302.48 175.653 301.934 175.653 301.399C175.653 300.895 175.529 300.499 175.281 300.212C175.041 299.918 174.649 299.77 174.106 299.77C173.579 299.77 173.168 299.937 172.873 300.271C172.586 300.596 172.431 301.034 172.408 301.585H171.385C171.416 300.716 171.679 300.046 172.175 299.573C172.672 299.1 173.311 298.863 174.095 298.863C174.893 298.863 175.525 299.084 175.99 299.526C176.463 299.968 176.7 300.577 176.7 301.352C176.7 301.996 176.506 302.624 176.118 303.236C175.738 303.841 175.304 304.376 174.816 304.842C174.327 305.299 173.703 305.834 172.943 306.447H176.944V307.331H171.35V306.575Z" fill="#33475B"/>
<path d="M164.66 368.51C165.644 367.719 166.416 367.071 166.974 366.567C167.532 366.056 168.002 365.525 168.382 364.974C168.769 364.416 168.963 363.869 168.963 363.334C168.963 362.83 168.839 362.435 168.591 362.148C168.351 361.853 167.959 361.706 167.416 361.706C166.889 361.706 166.478 361.872 166.183 362.206C165.896 362.531 165.741 362.97 165.718 363.52H164.694C164.726 362.652 164.989 361.981 165.485 361.508C165.982 361.035 166.621 360.798 167.405 360.798C168.203 360.798 168.835 361.019 169.3 361.461C169.773 361.903 170.01 362.512 170.01 363.288C170.01 363.931 169.816 364.559 169.428 365.172C169.048 365.777 168.614 366.312 168.126 366.777C167.637 367.234 167.013 367.769 166.253 368.382H170.254V369.266H164.66V368.51ZM172.838 367.102C172.916 367.544 173.094 367.886 173.373 368.126C173.66 368.366 174.044 368.487 174.525 368.487C175.169 368.487 175.642 368.235 175.944 367.731C176.254 367.227 176.401 366.377 176.386 365.183C176.223 365.532 175.952 365.808 175.572 366.009C175.192 366.203 174.769 366.3 174.304 366.3C173.784 366.3 173.319 366.195 172.908 365.986C172.505 365.769 172.187 365.455 171.955 365.044C171.722 364.633 171.606 364.137 171.606 363.555C171.606 362.725 171.846 362.058 172.327 361.554C172.807 361.043 173.49 360.787 174.374 360.787C175.459 360.787 176.219 361.14 176.653 361.845C177.095 362.551 177.316 363.602 177.316 364.997C177.316 365.974 177.227 366.781 177.049 367.417C176.878 368.052 176.584 368.537 176.165 368.87C175.754 369.204 175.188 369.371 174.467 369.371C173.676 369.371 173.059 369.157 172.617 368.731C172.175 368.304 171.923 367.762 171.861 367.102H172.838ZM174.478 365.404C174.998 365.404 175.424 365.245 175.758 364.927C176.091 364.602 176.258 364.164 176.258 363.613C176.258 363.032 176.095 362.563 175.769 362.206C175.444 361.849 174.986 361.671 174.397 361.671C173.854 361.671 173.42 361.841 173.094 362.183C172.776 362.524 172.617 362.973 172.617 363.532C172.617 364.098 172.776 364.551 173.094 364.893C173.412 365.234 173.874 365.404 174.478 365.404Z" fill="#33475B"/>
<path d="M224.788 179.261C224.788 177.927 225.005 176.888 225.439 176.143C225.873 175.391 226.633 175.015 227.719 175.015C228.797 175.015 229.553 175.391 229.987 176.143C230.421 176.888 230.638 177.927 230.638 179.261C230.638 180.617 230.421 181.672 229.987 182.424C229.553 183.176 228.797 183.552 227.719 183.552C226.633 183.552 225.873 183.176 225.439 182.424C225.005 181.672 224.788 180.617 224.788 179.261ZM229.591 179.261C229.591 178.586 229.545 178.016 229.452 177.551C229.367 177.078 229.184 176.698 228.905 176.411C228.634 176.124 228.238 175.981 227.719 175.981C227.192 175.981 226.788 176.124 226.509 176.411C226.238 176.698 226.056 177.078 225.963 177.551C225.877 178.016 225.835 178.586 225.835 179.261C225.835 179.958 225.877 180.544 225.963 181.017C226.056 181.49 226.238 181.87 226.509 182.157C226.788 182.444 227.192 182.587 227.719 182.587C228.238 182.587 228.634 182.444 228.905 182.157C229.184 181.87 229.367 181.49 229.452 181.017C229.545 180.544 229.591 179.958 229.591 179.261ZM233.452 181.296C233.53 181.738 233.708 182.079 233.987 182.319C234.274 182.56 234.658 182.68 235.139 182.68C235.782 182.68 236.255 182.428 236.558 181.924C236.868 181.42 237.015 180.571 237 179.377C236.837 179.726 236.565 180.001 236.185 180.203C235.805 180.396 235.383 180.493 234.918 180.493C234.398 180.493 233.933 180.389 233.522 180.179C233.119 179.962 232.801 179.648 232.568 179.237C232.336 178.826 232.219 178.33 232.219 177.749C232.219 176.919 232.46 176.252 232.94 175.748C233.421 175.236 234.103 174.98 234.987 174.98C236.073 174.98 236.833 175.333 237.267 176.039C237.709 176.744 237.93 177.795 237.93 179.191C237.93 180.168 237.841 180.974 237.663 181.61C237.492 182.246 237.197 182.73 236.779 183.064C236.368 183.397 235.802 183.564 235.08 183.564C234.29 183.564 233.673 183.351 233.231 182.924C232.789 182.498 232.537 181.955 232.475 181.296H233.452ZM235.092 179.598C235.612 179.598 236.038 179.439 236.371 179.121C236.705 178.795 236.872 178.357 236.872 177.807C236.872 177.225 236.709 176.756 236.383 176.399C236.057 176.043 235.6 175.864 235.011 175.864C234.468 175.864 234.034 176.035 233.708 176.376C233.39 176.717 233.231 177.167 233.231 177.725C233.231 178.291 233.39 178.745 233.708 179.086C234.026 179.427 234.487 179.598 235.092 179.598Z" fill="#33475B"/>
<path d="M224.024 238.044V237.079H226.211V245.488H225.141V238.044H224.024ZM232.716 239.079C232.546 238.219 232.015 237.788 231.123 237.788C230.433 237.788 229.917 238.056 229.576 238.591C229.235 239.118 229.068 239.99 229.076 241.208C229.254 240.805 229.549 240.491 229.96 240.266C230.379 240.033 230.844 239.917 231.356 239.917C232.154 239.917 232.79 240.165 233.263 240.661C233.744 241.157 233.984 241.844 233.984 242.72C233.984 243.247 233.88 243.72 233.67 244.139C233.469 244.558 233.158 244.891 232.74 245.139C232.329 245.387 231.829 245.511 231.239 245.511C230.441 245.511 229.816 245.333 229.367 244.976C228.917 244.62 228.603 244.127 228.425 243.499C228.246 242.871 228.157 242.096 228.157 241.173C228.157 238.327 229.15 236.904 231.135 236.904C231.895 236.904 232.492 237.11 232.926 237.521C233.36 237.932 233.616 238.451 233.693 239.079H232.716ZM231.135 240.812C230.801 240.812 230.487 240.882 230.193 241.022C229.898 241.154 229.658 241.359 229.471 241.638C229.293 241.91 229.204 242.243 229.204 242.638C229.204 243.228 229.375 243.708 229.716 244.081C230.057 244.445 230.545 244.627 231.181 244.627C231.724 244.627 232.154 244.461 232.472 244.127C232.798 243.786 232.961 243.329 232.961 242.755C232.961 242.15 232.806 241.677 232.495 241.336C232.185 240.987 231.732 240.812 231.135 240.812Z" fill="#33475B"/>
<path d="M224.66 306.575C225.645 305.784 226.416 305.136 226.974 304.632C227.533 304.12 228.002 303.589 228.382 303.039C228.77 302.48 228.963 301.934 228.963 301.399C228.963 300.895 228.839 300.499 228.591 300.212C228.351 299.918 227.959 299.77 227.416 299.77C226.889 299.77 226.478 299.937 226.184 300.271C225.897 300.596 225.742 301.034 225.718 301.585H224.695C224.726 300.716 224.989 300.046 225.486 299.573C225.982 299.1 226.622 298.863 227.405 298.863C228.203 298.863 228.835 299.084 229.301 299.526C229.774 299.968 230.01 300.577 230.01 301.352C230.01 301.996 229.816 302.624 229.429 303.236C229.049 303.841 228.614 304.376 228.126 304.842C227.637 305.299 227.013 305.834 226.253 306.447H230.254V307.331H224.66V306.575ZM231.455 301.131C231.509 300.418 231.784 299.86 232.28 299.456C232.777 299.053 233.42 298.852 234.211 298.852C234.738 298.852 235.192 298.948 235.572 299.142C235.96 299.328 236.251 299.584 236.444 299.91C236.646 300.236 236.747 300.604 236.747 301.015C236.747 301.496 236.607 301.91 236.328 302.259C236.057 302.608 235.7 302.833 235.258 302.934V302.992C235.762 303.116 236.161 303.36 236.456 303.725C236.751 304.089 236.898 304.566 236.898 305.156C236.898 305.598 236.797 305.997 236.596 306.354C236.394 306.702 236.092 306.978 235.688 307.179C235.285 307.381 234.801 307.482 234.234 307.482C233.413 307.482 232.738 307.269 232.211 306.842C231.683 306.408 231.389 305.795 231.327 305.004H232.35C232.405 305.47 232.595 305.85 232.92 306.144C233.246 306.439 233.68 306.586 234.223 306.586C234.766 306.586 235.177 306.447 235.456 306.167C235.743 305.881 235.886 305.512 235.886 305.062C235.886 304.481 235.692 304.062 235.305 303.806C234.917 303.55 234.331 303.423 233.548 303.423H233.281V302.539H233.56C234.273 302.531 234.812 302.415 235.177 302.19C235.541 301.957 235.723 301.6 235.723 301.12C235.723 300.709 235.588 300.379 235.316 300.131C235.053 299.883 234.673 299.759 234.176 299.759C233.696 299.759 233.308 299.883 233.013 300.131C232.719 300.379 232.544 300.712 232.49 301.131H231.455Z" fill="#33475B"/>
<path d="M224.765 363.067C224.819 362.353 225.094 361.795 225.59 361.392C226.087 360.988 226.73 360.787 227.521 360.787C228.048 360.787 228.502 360.884 228.882 361.078C229.27 361.264 229.56 361.52 229.754 361.845C229.956 362.171 230.057 362.539 230.057 362.95C230.057 363.431 229.917 363.846 229.638 364.195C229.367 364.544 229.01 364.769 228.568 364.869V364.927C229.072 365.052 229.471 365.296 229.766 365.66C230.061 366.025 230.208 366.502 230.208 367.091C230.208 367.533 230.107 367.932 229.905 368.289C229.704 368.638 229.401 368.913 228.998 369.115C228.595 369.316 228.11 369.417 227.544 369.417C226.722 369.417 226.048 369.204 225.521 368.777C224.993 368.343 224.699 367.731 224.637 366.94H225.66C225.714 367.405 225.904 367.785 226.23 368.079C226.556 368.374 226.99 368.521 227.533 368.521C228.076 368.521 228.486 368.382 228.766 368.103C229.053 367.816 229.196 367.448 229.196 366.998C229.196 366.416 229.002 365.998 228.614 365.742C228.227 365.486 227.641 365.358 226.858 365.358H226.591V364.474H226.87C227.583 364.466 228.122 364.35 228.486 364.125C228.851 363.892 229.033 363.536 229.033 363.055C229.033 362.644 228.897 362.314 228.626 362.066C228.362 361.818 227.982 361.694 227.486 361.694C227.005 361.694 226.618 361.818 226.323 362.066C226.028 362.314 225.854 362.648 225.8 363.067H224.765ZM231.637 365.067C231.637 363.733 231.854 362.694 232.288 361.95C232.723 361.198 233.482 360.822 234.568 360.822C235.646 360.822 236.402 361.198 236.836 361.95C237.27 362.694 237.487 363.733 237.487 365.067C237.487 366.424 237.27 367.479 236.836 368.231C236.402 368.983 235.646 369.359 234.568 369.359C233.482 369.359 232.723 368.983 232.288 368.231C231.854 367.479 231.637 366.424 231.637 365.067ZM236.441 365.067C236.441 364.392 236.394 363.823 236.301 363.357C236.216 362.884 236.033 362.504 235.754 362.217C235.483 361.931 235.087 361.787 234.568 361.787C234.041 361.787 233.637 361.931 233.358 362.217C233.087 362.504 232.905 362.884 232.812 363.357C232.726 363.823 232.684 364.392 232.684 365.067C232.684 365.765 232.726 366.35 232.812 366.823C232.905 367.296 233.087 367.676 233.358 367.963C233.637 368.25 234.041 368.394 234.568 368.394C235.087 368.394 235.483 368.25 235.754 367.963C236.033 367.676 236.216 367.296 236.301 366.823C236.394 366.35 236.441 365.765 236.441 365.067Z" fill="#33475B"/>
<path d="M284.787 117.325C284.787 115.991 285.005 114.952 285.439 114.208C285.873 113.456 286.633 113.08 287.718 113.08C288.796 113.08 289.552 113.456 289.986 114.208C290.421 114.952 290.638 115.991 290.638 117.325C290.638 118.682 290.421 119.737 289.986 120.489C289.552 121.241 288.796 121.617 287.718 121.617C286.633 121.617 285.873 121.241 285.439 120.489C285.005 119.737 284.787 118.682 284.787 117.325ZM289.591 117.325C289.591 116.651 289.545 116.081 289.451 115.615C289.366 115.142 289.184 114.762 288.905 114.476C288.633 114.189 288.238 114.045 287.718 114.045C287.191 114.045 286.788 114.189 286.509 114.476C286.237 114.762 286.055 115.142 285.962 115.615C285.877 116.081 285.834 116.651 285.834 117.325C285.834 118.023 285.877 118.608 285.962 119.081C286.055 119.554 286.237 119.934 286.509 120.221C286.788 120.508 287.191 120.652 287.718 120.652C288.238 120.652 288.633 120.508 288.905 120.221C289.184 119.934 289.366 119.554 289.451 119.081C289.545 118.608 289.591 118.023 289.591 117.325ZM292.068 115.325C292.122 114.611 292.397 114.053 292.893 113.65C293.39 113.247 294.033 113.045 294.824 113.045C295.351 113.045 295.805 113.142 296.185 113.336C296.573 113.522 296.863 113.778 297.057 114.103C297.259 114.429 297.36 114.797 297.36 115.208C297.36 115.689 297.22 116.104 296.941 116.453C296.67 116.802 296.313 117.027 295.871 117.127V117.186C296.375 117.31 296.774 117.554 297.069 117.918C297.364 118.283 297.511 118.76 297.511 119.349C297.511 119.791 297.41 120.19 297.209 120.547C297.007 120.896 296.705 121.171 296.301 121.373C295.898 121.574 295.413 121.675 294.847 121.675C294.026 121.675 293.351 121.462 292.824 121.035C292.296 120.601 292.002 119.989 291.94 119.198H292.963C293.017 119.663 293.207 120.043 293.533 120.338C293.859 120.632 294.293 120.78 294.836 120.78C295.379 120.78 295.79 120.64 296.069 120.361C296.356 120.074 296.499 119.706 296.499 119.256C296.499 118.674 296.305 118.256 295.917 118C295.53 117.744 294.944 117.616 294.161 117.616H293.894V116.732H294.173C294.886 116.724 295.425 116.608 295.79 116.383C296.154 116.15 296.336 115.794 296.336 115.313C296.336 114.902 296.201 114.572 295.929 114.324C295.665 114.076 295.286 113.952 294.789 113.952C294.309 113.952 293.921 114.076 293.626 114.324C293.332 114.572 293.157 114.906 293.103 115.325H292.068Z" fill="#33475B"/>
<path d="M284.508 176.109V175.143H286.695V183.552H285.625V176.109H284.508ZM288.513 179.261C288.513 177.927 288.73 176.888 289.164 176.143C289.599 175.391 290.358 175.015 291.444 175.015C292.522 175.015 293.278 175.391 293.712 176.143C294.146 176.888 294.363 177.927 294.363 179.261C294.363 180.617 294.146 181.672 293.712 182.424C293.278 183.176 292.522 183.552 291.444 183.552C290.358 183.552 289.599 183.176 289.164 182.424C288.73 181.672 288.513 180.617 288.513 179.261ZM293.317 179.261C293.317 178.586 293.27 178.016 293.177 177.551C293.092 177.078 292.91 176.698 292.63 176.411C292.359 176.124 291.964 175.981 291.444 175.981C290.917 175.981 290.514 176.124 290.234 176.411C289.963 176.698 289.781 177.078 289.688 177.551C289.602 178.016 289.56 178.586 289.56 179.261C289.56 179.958 289.602 180.544 289.688 181.017C289.781 181.49 289.963 181.87 290.234 182.157C290.514 182.444 290.917 182.587 291.444 182.587C291.964 182.587 292.359 182.444 292.63 182.157C292.91 181.87 293.092 181.49 293.177 181.017C293.27 180.544 293.317 179.958 293.317 179.261Z" fill="#33475B"/>
<path d="M284.508 238.044V237.079H286.695V245.488H285.625V238.044H284.508ZM293.689 237.905L290.455 245.488H289.385L292.665 238.009H288.176V237.102H293.689V237.905Z" fill="#33475B"/>
<path d="M284.659 306.575C285.644 305.784 286.416 305.136 286.974 304.632C287.532 304.12 288.001 303.589 288.381 303.039C288.769 302.48 288.963 301.934 288.963 301.399C288.963 300.895 288.839 300.499 288.591 300.212C288.35 299.918 287.959 299.77 287.416 299.77C286.889 299.77 286.478 299.937 286.183 300.271C285.896 300.596 285.741 301.034 285.718 301.585H284.694C284.725 300.716 284.989 300.046 285.485 299.573C285.982 299.1 286.621 298.863 287.404 298.863C288.203 298.863 288.835 299.084 289.3 299.526C289.773 299.968 290.01 300.577 290.01 301.352C290.01 301.996 289.816 302.624 289.428 303.236C289.048 303.841 288.614 304.376 288.126 304.842C287.637 305.299 287.013 305.834 286.253 306.447H290.254V307.331H284.659V306.575ZM291.222 305.551V304.748L295.304 299.096H296.572V304.632H297.735V305.551H296.572V307.424H295.525V305.551H291.222ZM295.572 300.201L292.443 304.632H295.572V300.201Z" fill="#33475B"/>
<path d="M284.764 363.067C284.818 362.353 285.094 361.795 285.59 361.392C286.086 360.988 286.73 360.787 287.521 360.787C288.048 360.787 288.502 360.884 288.882 361.078C289.269 361.264 289.56 361.52 289.754 361.845C289.955 362.171 290.056 362.539 290.056 362.95C290.056 363.431 289.917 363.846 289.638 364.195C289.366 364.544 289.009 364.769 288.568 364.869V364.927C289.072 365.052 289.471 365.296 289.766 365.66C290.06 366.025 290.207 366.502 290.207 367.091C290.207 367.533 290.107 367.932 289.905 368.289C289.703 368.638 289.401 368.913 288.998 369.115C288.595 369.316 288.11 369.417 287.544 369.417C286.722 369.417 286.047 369.204 285.52 368.777C284.993 368.343 284.698 367.731 284.636 366.94H285.66C285.714 367.405 285.904 367.785 286.23 368.079C286.555 368.374 286.99 368.521 287.532 368.521C288.075 368.521 288.486 368.382 288.765 368.103C289.052 367.816 289.196 367.448 289.196 366.998C289.196 366.416 289.002 365.998 288.614 365.742C288.226 365.486 287.641 365.358 286.858 365.358H286.59V364.474H286.869C287.583 364.466 288.122 364.35 288.486 364.125C288.851 363.892 289.033 363.536 289.033 363.055C289.033 362.644 288.897 362.314 288.626 362.066C288.362 361.818 287.982 361.694 287.486 361.694C287.005 361.694 286.617 361.818 286.323 362.066C286.028 362.314 285.854 362.648 285.799 363.067H284.764ZM291.357 361.915V360.95H293.544V369.359H292.474V361.915H291.357Z" fill="#33475B"/>
<path d="M344.787 117.325C344.787 115.991 345.005 114.952 345.439 114.208C345.873 113.456 346.633 113.08 347.718 113.08C348.796 113.08 349.552 113.456 349.986 114.208C350.421 114.952 350.638 115.991 350.638 117.325C350.638 118.682 350.421 119.737 349.986 120.489C349.552 121.241 348.796 121.617 347.718 121.617C346.633 121.617 345.873 121.241 345.439 120.489C345.005 119.737 344.787 118.682 344.787 117.325ZM349.591 117.325C349.591 116.651 349.544 116.081 349.451 115.615C349.366 115.142 349.184 114.762 348.905 114.476C348.633 114.189 348.238 114.045 347.718 114.045C347.191 114.045 346.788 114.189 346.509 114.476C346.237 114.762 346.055 115.142 345.962 115.615C345.877 116.081 345.834 116.651 345.834 117.325C345.834 118.023 345.877 118.608 345.962 119.081C346.055 119.554 346.237 119.934 346.509 120.221C346.788 120.508 347.191 120.652 347.718 120.652C348.238 120.652 348.633 120.508 348.905 120.221C349.184 119.934 349.366 119.554 349.451 119.081C349.544 118.608 349.591 118.023 349.591 117.325ZM351.835 119.744V118.942L355.917 113.289H357.185V118.826H358.348V119.744H357.185V121.617H356.138V119.744H351.835ZM356.185 114.394L353.056 118.826H356.185V114.394Z" fill="#33475B"/>
<path d="M344.508 176.109V175.143H346.695V183.552H345.625V176.109H344.508ZM348.234 176.109V175.143H350.42V183.552H349.35V176.109H348.234Z" fill="#33475B"/>
<path d="M344.508 238.044V237.079H346.695V245.488H345.625V238.044H344.508ZM350.048 241.115C349.614 240.944 349.281 240.696 349.048 240.37C348.815 240.045 348.699 239.649 348.699 239.184C348.699 238.765 348.804 238.389 349.013 238.056C349.222 237.715 349.533 237.447 349.944 237.253C350.362 237.052 350.866 236.951 351.456 236.951C352.045 236.951 352.545 237.052 352.956 237.253C353.375 237.447 353.689 237.715 353.898 238.056C354.115 238.389 354.224 238.765 354.224 239.184C354.224 239.634 354.104 240.029 353.863 240.37C353.623 240.704 353.293 240.952 352.875 241.115C353.355 241.262 353.735 241.522 354.014 241.894C354.301 242.258 354.445 242.7 354.445 243.22C354.445 243.724 354.321 244.166 354.073 244.546C353.824 244.918 353.472 245.209 353.014 245.418C352.564 245.62 352.045 245.721 351.456 245.721C350.866 245.721 350.347 245.62 349.897 245.418C349.455 245.209 349.11 244.918 348.862 244.546C348.614 244.166 348.49 243.724 348.49 243.22C348.49 242.7 348.629 242.255 348.908 241.882C349.188 241.51 349.568 241.254 350.048 241.115ZM353.2 239.312C353.2 238.839 353.045 238.475 352.735 238.219C352.425 237.963 351.998 237.835 351.456 237.835C350.921 237.835 350.498 237.963 350.188 238.219C349.878 238.475 349.723 238.843 349.723 239.324C349.723 239.758 349.882 240.107 350.199 240.37C350.525 240.634 350.944 240.766 351.456 240.766C351.975 240.766 352.394 240.634 352.712 240.37C353.037 240.099 353.2 239.746 353.2 239.312ZM351.456 241.58C350.882 241.58 350.413 241.716 350.048 241.987C349.684 242.251 349.502 242.65 349.502 243.185C349.502 243.681 349.676 244.081 350.025 244.383C350.382 244.685 350.859 244.837 351.456 244.837C352.053 244.837 352.526 244.685 352.875 244.383C353.224 244.081 353.398 243.681 353.398 243.185C353.398 242.666 353.22 242.27 352.863 241.999C352.506 241.72 352.037 241.58 351.456 241.58Z" fill="#33475B"/>
<path d="M344.659 306.575C345.644 305.784 346.416 305.136 346.974 304.632C347.532 304.12 348.001 303.589 348.381 303.039C348.769 302.48 348.963 301.934 348.963 301.399C348.963 300.895 348.839 300.499 348.591 300.212C348.35 299.918 347.959 299.77 347.416 299.77C346.889 299.77 346.478 299.937 346.183 300.271C345.896 300.596 345.741 301.034 345.718 301.585H344.694C344.725 300.716 344.989 300.046 345.485 299.573C345.982 299.1 346.621 298.863 347.404 298.863C348.203 298.863 348.835 299.084 349.3 299.526C349.773 299.968 350.01 300.577 350.01 301.352C350.01 301.996 349.816 302.624 349.428 303.236C349.048 303.841 348.614 304.376 348.126 304.842C347.637 305.299 347.013 305.834 346.253 306.447H350.254V307.331H344.659V306.575ZM356.839 299.933H352.757V302.585C352.935 302.337 353.199 302.135 353.548 301.98C353.897 301.817 354.273 301.736 354.676 301.736C355.32 301.736 355.843 301.872 356.246 302.143C356.649 302.407 356.936 302.752 357.107 303.178C357.285 303.597 357.374 304.043 357.374 304.516C357.374 305.074 357.27 305.574 357.06 306.016C356.851 306.458 356.529 306.807 356.095 307.063C355.669 307.319 355.137 307.447 354.502 307.447C353.687 307.447 353.028 307.237 352.524 306.819C352.02 306.4 351.714 305.842 351.605 305.144H352.641C352.741 305.586 352.955 305.931 353.28 306.179C353.606 306.427 354.017 306.551 354.513 306.551C355.126 306.551 355.587 306.369 355.897 306.005C356.207 305.632 356.363 305.144 356.363 304.539C356.363 303.934 356.207 303.469 355.897 303.143C355.587 302.81 355.13 302.643 354.525 302.643C354.114 302.643 353.753 302.744 353.443 302.946C353.141 303.14 352.92 303.407 352.78 303.748H351.78V299.003H356.839V299.933Z" fill="#4B93FF"/>
<path opacity="0.3" d="M344.787 365.067C344.787 363.733 345.005 362.694 345.439 361.95C345.873 361.198 346.633 360.822 347.718 360.822C348.796 360.822 349.552 361.198 349.986 361.95C350.421 362.694 350.638 363.733 350.638 365.067C350.638 366.424 350.421 367.479 349.986 368.231C349.552 368.983 348.796 369.359 347.718 369.359C346.633 369.359 345.873 368.983 345.439 368.231C345.005 367.479 344.787 366.424 344.787 365.067ZM349.591 365.067C349.591 364.392 349.544 363.823 349.451 363.357C349.366 362.884 349.184 362.504 348.905 362.217C348.633 361.931 348.238 361.787 347.718 361.787C347.191 361.787 346.788 361.931 346.509 362.217C346.237 362.504 346.055 362.884 345.962 363.357C345.877 363.823 345.834 364.392 345.834 365.067C345.834 365.765 345.877 366.35 345.962 366.823C346.055 367.296 346.237 367.676 346.509 367.963C346.788 368.25 347.191 368.394 347.718 368.394C348.238 368.394 348.633 368.25 348.905 367.963C349.184 367.676 349.366 367.296 349.451 366.823C349.544 366.35 349.591 365.765 349.591 365.067ZM351.812 361.915V360.95H353.998V369.359H352.928V361.915H351.812Z" fill="#030229"/>
<path d="M404.788 117.325C404.788 115.991 405.005 114.952 405.439 114.208C405.873 113.456 406.633 113.08 407.719 113.08C408.796 113.08 409.553 113.456 409.987 114.208C410.421 114.952 410.638 115.991 410.638 117.325C410.638 118.682 410.421 119.737 409.987 120.489C409.553 121.241 408.796 121.617 407.719 121.617C406.633 121.617 405.873 121.241 405.439 120.489C405.005 119.737 404.788 118.682 404.788 117.325ZM409.591 117.325C409.591 116.651 409.545 116.081 409.452 115.615C409.366 115.142 409.184 114.762 408.905 114.476C408.634 114.189 408.238 114.045 407.719 114.045C407.191 114.045 406.788 114.189 406.509 114.476C406.238 114.762 406.055 115.142 405.962 115.615C405.877 116.081 405.834 116.651 405.834 117.325C405.834 118.023 405.877 118.608 405.962 119.081C406.055 119.554 406.238 119.934 406.509 120.221C406.788 120.508 407.191 120.652 407.719 120.652C408.238 120.652 408.634 120.508 408.905 120.221C409.184 119.934 409.366 119.554 409.452 119.081C409.545 118.608 409.591 118.023 409.591 117.325ZM417.453 114.127H413.371V116.778C413.549 116.53 413.813 116.329 414.161 116.174C414.51 116.011 414.886 115.929 415.29 115.929C415.933 115.929 416.457 116.065 416.86 116.336C417.263 116.6 417.55 116.945 417.721 117.372C417.899 117.79 417.988 118.236 417.988 118.709C417.988 119.267 417.883 119.768 417.674 120.21C417.465 120.652 417.143 121.001 416.709 121.256C416.282 121.512 415.751 121.64 415.115 121.64C414.301 121.64 413.642 121.431 413.138 121.012C412.634 120.593 412.328 120.035 412.219 119.337H413.254C413.355 119.779 413.568 120.124 413.894 120.372C414.22 120.621 414.631 120.745 415.127 120.745C415.739 120.745 416.201 120.562 416.511 120.198C416.821 119.826 416.976 119.337 416.976 118.732C416.976 118.128 416.821 117.662 416.511 117.337C416.201 117.003 415.743 116.837 415.138 116.837C414.727 116.837 414.367 116.937 414.057 117.139C413.754 117.333 413.533 117.6 413.394 117.942H412.394V113.196H417.453V114.127Z" fill="#C18CE1"/>
<path d="M404.509 176.109V175.143H406.695V183.552H405.625V176.109H404.509ZM408.385 182.703C409.37 181.912 410.142 181.265 410.7 180.761C411.258 180.249 411.727 179.718 412.107 179.167C412.495 178.609 412.689 178.063 412.689 177.528C412.689 177.024 412.565 176.628 412.317 176.341C412.076 176.046 411.685 175.899 411.142 175.899C410.615 175.899 410.204 176.066 409.909 176.399C409.622 176.725 409.467 177.163 409.444 177.714H408.42C408.451 176.845 408.715 176.174 409.211 175.701C409.707 175.228 410.347 174.992 411.13 174.992C411.929 174.992 412.561 175.213 413.026 175.655C413.499 176.097 413.736 176.706 413.736 177.481C413.736 178.125 413.542 178.753 413.154 179.365C412.774 179.97 412.34 180.505 411.851 180.97C411.363 181.428 410.739 181.963 409.979 182.575H413.98V183.459H408.385V182.703Z" fill="#C18CE1"/>
<path d="M404.509 238.044V237.079H406.695V245.488H405.625V238.044H404.509ZM409.874 243.232C409.952 243.674 410.13 244.015 410.409 244.255C410.696 244.496 411.08 244.616 411.561 244.616C412.204 244.616 412.677 244.364 412.98 243.86C413.29 243.356 413.437 242.507 413.422 241.313C413.259 241.661 412.987 241.937 412.607 242.138C412.227 242.332 411.805 242.429 411.34 242.429C410.82 242.429 410.355 242.324 409.944 242.115C409.541 241.898 409.223 241.584 408.99 241.173C408.757 240.762 408.641 240.266 408.641 239.684C408.641 238.854 408.882 238.188 409.362 237.684C409.843 237.172 410.525 236.916 411.409 236.916C412.495 236.916 413.255 237.269 413.689 237.974C414.131 238.68 414.352 239.731 414.352 241.126C414.352 242.103 414.263 242.91 414.084 243.546C413.914 244.181 413.619 244.666 413.201 245C412.79 245.333 412.224 245.5 411.502 245.5C410.711 245.5 410.095 245.286 409.653 244.86C409.211 244.433 408.959 243.891 408.897 243.232H409.874ZM411.514 241.533C412.034 241.533 412.46 241.375 412.793 241.057C413.127 240.731 413.294 240.293 413.294 239.742C413.294 239.161 413.131 238.692 412.805 238.335C412.479 237.978 412.022 237.8 411.433 237.8C410.89 237.8 410.456 237.971 410.13 238.312C409.812 238.653 409.653 239.103 409.653 239.661C409.653 240.227 409.812 240.681 410.13 241.022C410.448 241.363 410.909 241.533 411.514 241.533Z" fill="#C18CE1"/>
<path d="M404.66 306.575C405.644 305.784 406.416 305.136 406.974 304.632C407.533 304.12 408.002 303.589 408.382 303.039C408.769 302.48 408.963 301.934 408.963 301.399C408.963 300.895 408.839 300.499 408.591 300.212C408.351 299.918 407.959 299.77 407.416 299.77C406.889 299.77 406.478 299.937 406.183 300.271C405.897 300.596 405.741 301.034 405.718 301.585H404.695C404.726 300.716 404.989 300.046 405.486 299.573C405.982 299.1 406.622 298.863 407.405 298.863C408.203 298.863 408.835 299.084 409.301 299.526C409.774 299.968 410.01 300.577 410.01 301.352C410.01 301.996 409.816 302.624 409.428 303.236C409.049 303.841 408.614 304.376 408.126 304.842C407.637 305.299 407.013 305.834 406.253 306.447H410.254V307.331H404.66V306.575ZM416.165 301.015C415.994 300.154 415.463 299.724 414.572 299.724C413.882 299.724 413.366 299.991 413.025 300.526C412.684 301.054 412.517 301.926 412.525 303.143C412.703 302.74 412.998 302.426 413.409 302.201C413.827 301.969 414.292 301.852 414.804 301.852C415.603 301.852 416.239 302.1 416.712 302.597C417.192 303.093 417.433 303.779 417.433 304.655C417.433 305.183 417.328 305.656 417.119 306.074C416.917 306.493 416.607 306.827 416.188 307.075C415.777 307.323 415.277 307.447 414.688 307.447C413.889 307.447 413.265 307.269 412.815 306.912C412.366 306.555 412.052 306.063 411.873 305.435C411.695 304.807 411.606 304.031 411.606 303.108C411.606 300.263 412.598 298.84 414.583 298.84C415.343 298.84 415.94 299.045 416.374 299.456C416.809 299.867 417.065 300.387 417.142 301.015H416.165ZM414.583 302.748C414.25 302.748 413.936 302.818 413.641 302.957C413.346 303.089 413.106 303.295 412.92 303.574C412.742 303.845 412.653 304.179 412.653 304.574C412.653 305.163 412.823 305.644 413.164 306.016C413.505 306.381 413.994 306.563 414.63 306.563C415.173 306.563 415.603 306.396 415.921 306.063C416.246 305.722 416.409 305.264 416.409 304.69C416.409 304.085 416.254 303.612 415.944 303.271C415.634 302.922 415.18 302.748 414.583 302.748Z" fill="#C18CE1"/>
<path opacity="0.3" d="M404.788 365.067C404.788 363.733 405.005 362.694 405.439 361.95C405.873 361.198 406.633 360.822 407.719 360.822C408.796 360.822 409.553 361.198 409.987 361.95C410.421 362.694 410.638 363.733 410.638 365.067C410.638 366.424 410.421 367.479 409.987 368.231C409.553 368.983 408.796 369.359 407.719 369.359C406.633 369.359 405.873 368.983 405.439 368.231C405.005 367.479 404.788 366.424 404.788 365.067ZM409.591 365.067C409.591 364.392 409.545 363.823 409.452 363.357C409.366 362.884 409.184 362.504 408.905 362.217C408.634 361.931 408.238 361.787 407.719 361.787C407.191 361.787 406.788 361.931 406.509 362.217C406.238 362.504 406.055 362.884 405.962 363.357C405.877 363.823 405.834 364.392 405.834 365.067C405.834 365.765 405.877 366.35 405.962 366.823C406.055 367.296 406.238 367.676 406.509 367.963C406.788 368.25 407.191 368.394 407.719 368.394C408.238 368.394 408.634 368.25 408.905 367.963C409.184 367.676 409.366 367.296 409.452 366.823C409.545 366.35 409.591 365.765 409.591 365.067ZM411.963 368.51C412.948 367.719 413.719 367.071 414.278 366.567C414.836 366.056 415.305 365.525 415.685 364.974C416.073 364.416 416.267 363.869 416.267 363.334C416.267 362.83 416.143 362.435 415.894 362.148C415.654 361.853 415.263 361.706 414.72 361.706C414.192 361.706 413.782 361.872 413.487 362.206C413.2 362.531 413.045 362.97 413.022 363.52H411.998C412.029 362.652 412.293 361.981 412.789 361.508C413.285 361.035 413.925 360.798 414.708 360.798C415.507 360.798 416.139 361.019 416.604 361.461C417.077 361.903 417.313 362.512 417.313 363.288C417.313 363.931 417.12 364.559 416.732 365.172C416.352 365.777 415.918 366.312 415.429 366.777C414.941 367.234 414.317 367.769 413.557 368.382H417.558V369.266H411.963V368.51Z" fill="#030229"/>
<rect x="215.958" y="126.188" width="50.3125" height="14.5833" rx="1.44717" fill="#4B93FF"/>
<path d="M225.714 130.88V136.917H224.92V132.415L222.914 136.917H222.356L220.34 132.407V136.917H219.547V130.88H220.402L222.635 135.87L224.868 130.88H225.714ZM231.3 132.136V136.917H230.506V136.21C230.355 136.454 230.142 136.646 229.869 136.786C229.602 136.92 229.305 136.986 228.979 136.986C228.607 136.986 228.273 136.911 227.976 136.76C227.68 136.603 227.444 136.37 227.27 136.062C227.101 135.754 227.017 135.378 227.017 134.936V132.136H227.802V134.832C227.802 135.303 227.921 135.666 228.159 135.922C228.398 136.172 228.723 136.297 229.136 136.297C229.561 136.297 229.895 136.166 230.14 135.905C230.384 135.643 230.506 135.262 230.506 134.762V132.136H231.3ZM235.013 132.049C235.373 132.049 235.699 132.128 235.99 132.285C236.281 132.436 236.507 132.665 236.67 132.974C236.839 133.282 236.923 133.657 236.923 134.099V136.917H236.138V134.212C236.138 133.736 236.019 133.372 235.78 133.122C235.542 132.866 235.216 132.738 234.803 132.738C234.385 132.738 234.05 132.869 233.8 133.131C233.556 133.392 233.434 133.773 233.434 134.273V136.917H232.64V130.461H233.434V132.817C233.591 132.572 233.806 132.383 234.079 132.25C234.359 132.116 234.67 132.049 235.013 132.049ZM237.923 134.509C237.923 134.021 238.022 133.593 238.22 133.227C238.418 132.855 238.688 132.567 239.031 132.363C239.38 132.16 239.767 132.058 240.191 132.058C240.61 132.058 240.974 132.148 241.282 132.328C241.59 132.508 241.82 132.735 241.971 133.009V132.136H242.773V136.917H241.971V136.027C241.814 136.306 241.578 136.539 241.264 136.725C240.956 136.905 240.595 136.995 240.183 136.995C239.758 136.995 239.374 136.89 239.031 136.681C238.688 136.472 238.418 136.178 238.22 135.8C238.022 135.422 237.923 134.992 237.923 134.509ZM241.971 134.518C241.971 134.157 241.898 133.843 241.753 133.576C241.607 133.308 241.41 133.105 241.16 132.965C240.915 132.82 240.645 132.747 240.348 132.747C240.052 132.747 239.781 132.817 239.537 132.956C239.293 133.096 239.098 133.299 238.953 133.567C238.807 133.834 238.735 134.148 238.735 134.509C238.735 134.875 238.807 135.195 238.953 135.469C239.098 135.736 239.293 135.943 239.537 136.088C239.781 136.227 240.052 136.297 240.348 136.297C240.645 136.297 240.915 136.227 241.16 136.088C241.41 135.943 241.607 135.736 241.753 135.469C241.898 135.195 241.971 134.878 241.971 134.518ZM244.909 132.913C245.048 132.639 245.246 132.427 245.502 132.276C245.764 132.125 246.081 132.049 246.453 132.049V132.869H246.243C245.354 132.869 244.909 133.352 244.909 134.317V136.917H244.115V132.136H244.909V132.913ZM248.163 132.913C248.302 132.639 248.5 132.427 248.756 132.276C249.018 132.125 249.335 132.049 249.707 132.049V132.869H249.498C248.608 132.869 248.163 133.352 248.163 134.317V136.917H247.369V132.136H248.163V132.913ZM250.327 134.509C250.327 134.021 250.426 133.593 250.623 133.227C250.821 132.855 251.091 132.567 251.434 132.363C251.783 132.16 252.17 132.058 252.595 132.058C253.013 132.058 253.377 132.148 253.685 132.328C253.993 132.508 254.223 132.735 254.374 133.009V132.136H255.177V136.917H254.374V136.027C254.217 136.306 253.982 136.539 253.668 136.725C253.359 136.905 252.999 136.995 252.586 136.995C252.161 136.995 251.778 136.89 251.434 136.681C251.091 136.472 250.821 136.178 250.623 135.8C250.426 135.422 250.327 134.992 250.327 134.509ZM254.374 134.518C254.374 134.157 254.302 133.843 254.156 133.576C254.011 133.308 253.813 133.105 253.563 132.965C253.319 132.82 253.048 132.747 252.752 132.747C252.455 132.747 252.185 132.817 251.94 132.956C251.696 133.096 251.501 133.299 251.356 133.567C251.211 133.834 251.138 134.148 251.138 134.509C251.138 134.875 251.211 135.195 251.356 135.469C251.501 135.736 251.696 135.943 251.94 136.088C252.185 136.227 252.455 136.297 252.752 136.297C253.048 136.297 253.319 136.227 253.563 136.088C253.813 135.943 254.011 135.736 254.156 135.469C254.302 135.195 254.374 134.878 254.374 134.518ZM262.267 132.049C262.639 132.049 262.971 132.128 263.261 132.285C263.552 132.436 263.782 132.665 263.95 132.974C264.119 133.282 264.203 133.657 264.203 134.099V136.917H263.418V134.212C263.418 133.736 263.299 133.372 263.061 133.122C262.828 132.866 262.511 132.738 262.11 132.738C261.697 132.738 261.368 132.872 261.124 133.139C260.88 133.401 260.758 133.782 260.758 134.282V136.917H259.973V134.212C259.973 133.736 259.853 133.372 259.615 133.122C259.382 132.866 259.065 132.738 258.664 132.738C258.251 132.738 257.923 132.872 257.678 133.139C257.434 133.401 257.312 133.782 257.312 134.282V136.917H256.518V132.136H257.312V132.825C257.469 132.575 257.678 132.383 257.94 132.25C258.208 132.116 258.501 132.049 258.821 132.049C259.222 132.049 259.577 132.139 259.885 132.319C260.194 132.5 260.423 132.764 260.575 133.113C260.708 132.776 260.929 132.514 261.238 132.328C261.546 132.142 261.889 132.049 262.267 132.049Z" fill="white"/>
<rect x="215.958" y="253.062" width="169.167" height="14.5833" rx="1.44717" fill="#FCC670"/>
<path d="M227.231 263.146H229.359V263.792H226.437V257.712H227.231V263.146ZM234.564 261.218C234.564 261.37 234.555 261.53 234.538 261.698H230.717C230.746 262.169 230.906 262.539 231.197 262.806C231.493 263.068 231.851 263.199 232.27 263.199C232.613 263.199 232.898 263.12 233.124 262.963C233.357 262.8 233.52 262.585 233.613 262.318H234.468C234.34 262.777 234.084 263.152 233.7 263.443C233.316 263.728 232.839 263.87 232.27 263.87C231.816 263.87 231.409 263.768 231.048 263.565C230.694 263.361 230.414 263.074 230.211 262.701C230.007 262.323 229.906 261.887 229.906 261.393C229.906 260.899 230.004 260.465 230.202 260.093C230.4 259.721 230.676 259.436 231.031 259.238C231.391 259.035 231.804 258.933 232.27 258.933C232.723 258.933 233.124 259.032 233.473 259.229C233.822 259.427 234.09 259.701 234.276 260.049C234.468 260.393 234.564 260.782 234.564 261.218ZM233.744 261.053C233.744 260.75 233.677 260.491 233.543 260.276C233.409 260.055 233.226 259.89 232.994 259.779C232.767 259.663 232.514 259.605 232.235 259.605C231.833 259.605 231.49 259.733 231.205 259.988C230.926 260.244 230.766 260.599 230.725 261.053H233.744ZM235.315 261.384C235.315 260.896 235.414 260.468 235.612 260.102C235.809 259.73 236.08 259.442 236.423 259.238C236.772 259.035 237.158 258.933 237.583 258.933C238.002 258.933 238.365 259.023 238.673 259.203C238.982 259.384 239.211 259.61 239.363 259.884V259.011H240.165V263.792H239.363V262.902C239.206 263.181 238.97 263.414 238.656 263.6C238.348 263.78 237.987 263.87 237.574 263.87C237.15 263.87 236.766 263.766 236.423 263.556C236.08 263.347 235.809 263.053 235.612 262.675C235.414 262.297 235.315 261.867 235.315 261.384ZM239.363 261.393C239.363 261.032 239.29 260.718 239.144 260.451C238.999 260.183 238.801 259.98 238.551 259.84C238.307 259.695 238.037 259.622 237.74 259.622C237.443 259.622 237.173 259.692 236.929 259.831C236.684 259.971 236.49 260.175 236.344 260.442C236.199 260.71 236.126 261.024 236.126 261.384C236.126 261.751 236.199 262.07 236.344 262.344C236.49 262.611 236.684 262.818 236.929 262.963C237.173 263.103 237.443 263.172 237.74 263.172C238.037 263.172 238.307 263.103 238.551 262.963C238.801 262.818 238.999 262.611 239.144 262.344C239.29 262.07 239.363 261.753 239.363 261.393ZM243.286 263.059L244.769 259.011H245.615L243.74 263.792H242.815L240.94 259.011H241.794L243.286 263.059ZM250.758 261.218C250.758 261.37 250.749 261.53 250.732 261.698H246.911C246.94 262.169 247.1 262.539 247.391 262.806C247.687 263.068 248.045 263.199 248.464 263.199C248.807 263.199 249.092 263.12 249.319 262.963C249.551 262.8 249.714 262.585 249.807 262.318H250.662C250.534 262.777 250.278 263.152 249.894 263.443C249.511 263.728 249.034 263.87 248.464 263.87C248.01 263.87 247.603 263.768 247.242 263.565C246.888 263.361 246.609 263.074 246.405 262.701C246.202 262.323 246.1 261.887 246.1 261.393C246.1 260.899 246.199 260.465 246.396 260.093C246.594 259.721 246.87 259.436 247.225 259.238C247.586 259.035 247.999 258.933 248.464 258.933C248.917 258.933 249.319 259.032 249.668 259.229C250.016 259.427 250.284 259.701 250.47 260.049C250.662 260.393 250.758 260.782 250.758 261.218ZM249.938 261.053C249.938 260.75 249.871 260.491 249.737 260.276C249.604 260.055 249.42 259.89 249.188 259.779C248.961 259.663 248.708 259.605 248.429 259.605C248.028 259.605 247.684 259.733 247.4 259.988C247.12 260.244 246.96 260.599 246.92 261.053H249.938Z" fill="white"/>
<rect x="334.083" y="314.312" width="53.2292" height="28.4375" rx="1.44717" fill="#4B93FF"/>
<path d="M345.383 320.741C345.383 321.247 345.208 321.669 344.859 322.006C344.516 322.337 343.99 322.503 343.28 322.503H342.111V325.042H341.318V318.961H343.28C343.966 318.961 344.487 319.127 344.842 319.459C345.202 319.79 345.383 320.218 345.383 320.741ZM343.28 321.849C343.722 321.849 344.048 321.753 344.257 321.561C344.467 321.369 344.571 321.096 344.571 320.741C344.571 319.991 344.141 319.616 343.28 319.616H342.111V321.849H343.28ZM346.073 322.634C346.073 322.145 346.171 321.718 346.369 321.352C346.567 320.979 346.837 320.692 347.18 320.488C347.529 320.284 347.916 320.183 348.341 320.183C348.759 320.183 349.123 320.273 349.431 320.453C349.739 320.633 349.969 320.86 350.12 321.133V320.261H350.923V325.042H350.12V324.152C349.963 324.431 349.728 324.663 349.414 324.85C349.105 325.03 348.745 325.12 348.332 325.12C347.907 325.12 347.524 325.015 347.18 324.806C346.837 324.597 346.567 324.303 346.369 323.925C346.171 323.547 346.073 323.117 346.073 322.634ZM350.12 322.643C350.12 322.282 350.047 321.968 349.902 321.7C349.757 321.433 349.559 321.229 349.309 321.09C349.065 320.944 348.794 320.872 348.498 320.872C348.201 320.872 347.931 320.942 347.686 321.081C347.442 321.221 347.247 321.424 347.102 321.692C346.957 321.959 346.884 322.273 346.884 322.634C346.884 323 346.957 323.32 347.102 323.593C347.247 323.861 347.442 324.067 347.686 324.213C347.931 324.352 348.201 324.422 348.498 324.422C348.794 324.422 349.065 324.352 349.309 324.213C349.559 324.067 349.757 323.861 349.902 323.593C350.047 323.32 350.12 323.003 350.12 322.643ZM353.058 321.038C353.198 320.764 353.395 320.552 353.651 320.401C353.913 320.25 354.23 320.174 354.602 320.174V320.994H354.393C353.503 320.994 353.058 321.477 353.058 322.442V325.042H352.264V320.261H353.058V321.038ZM357.211 325.12C356.844 325.12 356.516 325.059 356.225 324.937C355.934 324.809 355.704 324.634 355.536 324.413C355.367 324.187 355.274 323.928 355.257 323.637H356.077C356.1 323.875 356.21 324.07 356.408 324.222C356.612 324.373 356.876 324.448 357.202 324.448C357.504 324.448 357.743 324.381 357.917 324.248C358.092 324.114 358.179 323.945 358.179 323.742C358.179 323.532 358.086 323.378 357.9 323.279C357.714 323.175 357.426 323.073 357.036 322.974C356.681 322.881 356.391 322.788 356.164 322.695C355.943 322.596 355.751 322.454 355.588 322.268C355.431 322.076 355.353 321.826 355.353 321.517C355.353 321.273 355.425 321.049 355.571 320.846C355.716 320.642 355.923 320.482 356.19 320.366C356.458 320.244 356.763 320.183 357.106 320.183C357.635 320.183 358.063 320.316 358.388 320.584C358.714 320.851 358.888 321.218 358.912 321.683H358.118C358.1 321.433 357.999 321.232 357.813 321.081C357.632 320.93 357.388 320.854 357.08 320.854C356.795 320.854 356.568 320.915 356.399 321.038C356.231 321.16 356.146 321.32 356.146 321.517C356.146 321.674 356.196 321.805 356.295 321.91C356.399 322.009 356.527 322.09 356.679 322.154C356.836 322.212 357.051 322.279 357.324 322.355C357.667 322.448 357.946 322.541 358.161 322.634C358.377 322.721 358.56 322.855 358.711 323.035C358.868 323.215 358.949 323.451 358.955 323.742C358.955 324.003 358.883 324.239 358.737 324.448C358.592 324.658 358.385 324.823 358.118 324.946C357.856 325.062 357.554 325.12 357.211 325.12ZM360.486 319.485C360.335 319.485 360.207 319.432 360.102 319.328C359.997 319.223 359.945 319.095 359.945 318.944C359.945 318.793 359.997 318.665 360.102 318.56C360.207 318.455 360.335 318.403 360.486 318.403C360.631 318.403 360.753 318.455 360.852 318.56C360.957 318.665 361.009 318.793 361.009 318.944C361.009 319.095 360.957 319.223 360.852 319.328C360.753 319.432 360.631 319.485 360.486 319.485ZM360.87 320.261V325.042H360.076V320.261H360.87ZM366.877 320.174C367.459 320.174 367.93 320.351 368.291 320.706C368.651 321.055 368.831 321.561 368.831 322.224V325.042H368.046V322.337C368.046 321.86 367.927 321.497 367.689 321.247C367.45 320.991 367.125 320.863 366.712 320.863C366.293 320.863 365.959 320.994 365.708 321.256C365.464 321.517 365.342 321.898 365.342 322.398V325.042H364.548V320.261H365.342V320.942C365.499 320.697 365.711 320.508 365.979 320.375C366.252 320.241 366.552 320.174 366.877 320.174ZM374.49 322.468C374.49 322.619 374.481 322.779 374.464 322.948H370.643C370.672 323.419 370.832 323.788 371.123 324.056C371.419 324.317 371.777 324.448 372.195 324.448C372.539 324.448 372.824 324.37 373.05 324.213C373.283 324.05 373.446 323.835 373.539 323.567H374.394C374.266 324.027 374.01 324.402 373.626 324.693C373.242 324.978 372.765 325.12 372.195 325.12C371.742 325.12 371.335 325.018 370.974 324.815C370.619 324.611 370.34 324.323 370.137 323.951C369.933 323.573 369.831 323.137 369.831 322.643C369.831 322.148 369.93 321.715 370.128 321.343C370.326 320.971 370.602 320.686 370.957 320.488C371.317 320.284 371.73 320.183 372.195 320.183C372.649 320.183 373.05 320.282 373.399 320.479C373.748 320.677 374.016 320.95 374.202 321.299C374.394 321.642 374.49 322.032 374.49 322.468ZM373.67 322.302C373.67 322 373.603 321.741 373.469 321.526C373.335 321.305 373.152 321.139 372.92 321.029C372.693 320.912 372.44 320.854 372.161 320.854C371.759 320.854 371.416 320.982 371.131 321.238C370.852 321.494 370.692 321.849 370.651 322.302H373.67ZM381.905 320.261L380.414 325.042H379.594L378.442 321.247L377.291 325.042H376.471L374.97 320.261H375.782L376.881 324.274L378.067 320.261H378.879L380.039 324.283L381.12 320.261H381.905ZM345.435 333.261L342.556 340.292H341.736L342.678 337.989L340.75 333.261H341.632L343.132 337.134L344.615 333.261H345.435ZM350.594 335.468C350.594 335.619 350.586 335.779 350.568 335.948H346.748C346.777 336.419 346.937 336.788 347.227 337.056C347.524 337.317 347.882 337.448 348.3 337.448C348.643 337.448 348.928 337.37 349.155 337.213C349.388 337.05 349.551 336.835 349.644 336.567H350.499C350.371 337.027 350.115 337.402 349.731 337.693C349.347 337.978 348.87 338.12 348.3 338.12C347.847 338.12 347.44 338.018 347.079 337.815C346.724 337.611 346.445 337.323 346.242 336.951C346.038 336.573 345.936 336.137 345.936 335.643C345.936 335.148 346.035 334.715 346.233 334.343C346.431 333.971 346.707 333.686 347.062 333.488C347.422 333.284 347.835 333.183 348.3 333.183C348.754 333.183 349.155 333.282 349.504 333.479C349.853 333.677 350.121 333.95 350.307 334.299C350.499 334.642 350.594 335.032 350.594 335.468ZM349.774 335.302C349.774 335 349.708 334.741 349.574 334.526C349.44 334.305 349.257 334.139 349.024 334.029C348.797 333.912 348.545 333.854 348.265 333.854C347.864 333.854 347.521 333.982 347.236 334.238C346.957 334.494 346.797 334.849 346.756 335.302H349.774ZM351.346 335.634C351.346 335.145 351.445 334.718 351.642 334.352C351.84 333.979 352.11 333.692 352.454 333.488C352.802 333.284 353.189 333.183 353.614 333.183C354.032 333.183 354.396 333.273 354.704 333.453C355.012 333.633 355.242 333.86 355.393 334.133V333.261H356.196V338.042H355.393V337.152C355.236 337.431 355.001 337.663 354.687 337.85C354.378 338.03 354.018 338.12 353.605 338.12C353.18 338.12 352.797 338.015 352.454 337.806C352.11 337.597 351.84 337.303 351.642 336.925C351.445 336.547 351.346 336.117 351.346 335.634ZM355.393 335.643C355.393 335.282 355.321 334.968 355.175 334.7C355.03 334.433 354.832 334.229 354.582 334.09C354.338 333.944 354.067 333.872 353.771 333.872C353.474 333.872 353.204 333.942 352.959 334.081C352.715 334.221 352.52 334.424 352.375 334.692C352.23 334.959 352.157 335.273 352.157 335.634C352.157 336 352.23 336.32 352.375 336.593C352.52 336.861 352.715 337.067 352.959 337.213C353.204 337.352 353.474 337.422 353.771 337.422C354.067 337.422 354.338 337.352 354.582 337.213C354.832 337.067 355.03 336.861 355.175 336.593C355.321 336.32 355.393 336.003 355.393 335.643ZM358.331 334.038C358.471 333.764 358.668 333.552 358.924 333.401C359.186 333.25 359.503 333.174 359.875 333.174V333.994H359.666C358.776 333.994 358.331 334.477 358.331 335.442V338.042H357.537V333.261H358.331V334.038Z" fill="white"/>
<path d="M224.788 117.325C224.788 115.991 225.005 114.952 225.439 114.208C225.873 113.456 226.633 113.08 227.719 113.08C228.797 113.08 229.553 113.456 229.987 114.208C230.421 114.952 230.638 115.991 230.638 117.325C230.638 118.682 230.421 119.737 229.987 120.489C229.553 121.241 228.797 121.617 227.719 121.617C226.633 121.617 225.873 121.241 225.439 120.489C225.005 119.737 224.788 118.682 224.788 117.325ZM229.591 117.325C229.591 116.651 229.545 116.081 229.452 115.615C229.367 115.142 229.184 114.762 228.905 114.476C228.634 114.189 228.238 114.045 227.719 114.045C227.192 114.045 226.788 114.189 226.509 114.476C226.238 114.762 226.056 115.142 225.963 115.615C225.877 116.081 225.835 116.651 225.835 117.325C225.835 118.023 225.877 118.608 225.963 119.081C226.056 119.554 226.238 119.934 226.509 120.221C226.788 120.508 227.192 120.652 227.719 120.652C228.238 120.652 228.634 120.508 228.905 120.221C229.184 119.934 229.367 119.554 229.452 119.081C229.545 118.608 229.591 118.023 229.591 117.325ZM231.963 120.768C232.948 119.977 233.72 119.33 234.278 118.826C234.836 118.314 235.305 117.783 235.685 117.232C236.073 116.674 236.267 116.127 236.267 115.592C236.267 115.088 236.143 114.693 235.895 114.406C235.654 114.111 235.263 113.964 234.72 113.964C234.193 113.964 233.782 114.13 233.487 114.464C233.2 114.79 233.045 115.228 233.022 115.778H231.998C232.029 114.91 232.293 114.239 232.789 113.766C233.285 113.293 233.925 113.057 234.708 113.057C235.507 113.057 236.139 113.278 236.604 113.719C237.077 114.161 237.314 114.77 237.314 115.546C237.314 116.189 237.12 116.817 236.732 117.43C236.352 118.035 235.918 118.57 235.429 119.035C234.941 119.492 234.317 120.027 233.557 120.64H237.558V121.524H231.963V120.768Z" fill="#4B93FF"/>
<line x1="92.8619" y1="351.018" x2="151.413" y2="351.018" stroke="#F37A37" stroke-width="0.964783" stroke-linecap="round"/>
<ellipse cx="186.567" cy="116.601" rx="3.62903" ry="3.62903" fill="#54B4A6"/>
<ellipse cx="126.567" cy="178.536" rx="3.62903" ry="3.62903" fill="#FF8F6B"/>
<ellipse cx="126.254" cy="178.671" rx="3.62903" ry="3.62903" fill="#FF8F6B"/>
<ellipse cx="126.254" cy="242.108" rx="3.62903" ry="3.62903" fill="#54B4A6"/>
<ellipse cx="126.254" cy="304.087" rx="3.62903" ry="3.62903" fill="#54B4A6"/>
<ellipse cx="186.567" cy="178.536" rx="3.62903" ry="3.62903" fill="#54B4A6"/>
<ellipse cx="186.567" cy="242.108" rx="3.62903" ry="3.62903" fill="#54B4A6"/>
<ellipse cx="186.567" cy="304.087" rx="3.62903" ry="3.62903" fill="#FF8F6B"/>
<ellipse cx="246.567" cy="178.536" rx="3.62903" ry="3.62903" fill="#54B4A6"/>
<ellipse cx="246.567" cy="241.379" rx="3.62903" ry="3.62903" fill="#FCC670"/>
<ellipse cx="246.567" cy="304.087" rx="3.62903" ry="3.62903" fill="#54B4A6"/>
<ellipse cx="306.566" cy="178.536" rx="3.62903" ry="3.62903" fill="#54B4A6"/>
<ellipse cx="306.566" cy="241.379" rx="3.62903" ry="3.62903" fill="#FCC670"/>
<ellipse cx="366.566" cy="178.536" rx="3.62903" ry="3.62903" fill="#54B4A6"/>
<ellipse cx="366.566" cy="241.379" rx="3.62903" ry="3.62903" fill="#FCC670"/>
<ellipse cx="306.566" cy="116.601" rx="3.62903" ry="3.62903" fill="#54B4A6"/>
<ellipse cx="366.566" cy="116.601" rx="3.62903" ry="3.62903" fill="#54B4A6"/>
<path d="M62.2806 42.9165V48.7436C62.2806 49.4647 62.0596 50.0346 61.6176 50.4533C61.1834 50.8721 60.6096 51.0814 59.8962 51.0814C59.1829 51.0814 58.6052 50.8721 58.1632 50.4533C57.729 50.0346 57.5119 49.4647 57.5119 48.7436H58.8495C58.8572 49.1003 58.9464 49.3833 59.117 49.5926C59.2953 49.802 59.5551 49.9067 59.8962 49.9067C60.2374 49.9067 60.4972 49.802 60.6755 49.5926C60.8539 49.3755 60.943 49.0925 60.943 48.7436V42.9165H62.2806ZM70.2415 44.5913V51H68.9155V50.244C68.7062 50.5076 68.4309 50.717 68.0897 50.8721C67.7563 51.0194 67.3996 51.093 67.0197 51.093C66.5157 51.093 66.0621 50.9884 65.6589 50.779C65.2634 50.5697 64.9494 50.2595 64.7167 49.8485C64.4919 49.4376 64.3794 48.9413 64.3794 48.3598V44.5913H65.6937V48.162C65.6937 48.7358 65.8372 49.1778 66.1241 49.488C66.411 49.7904 66.8026 49.9416 67.2988 49.9416C67.7951 49.9416 68.1867 49.7904 68.4736 49.488C68.7682 49.1778 68.9155 48.7358 68.9155 48.162V44.5913H70.2415ZM73.3169 42.3931V51H71.9909V42.3931H73.3169ZM77.8813 44.6146C77.9278 43.8935 78.2031 43.3313 78.7071 42.9281C79.2189 42.5249 79.8702 42.3233 80.6611 42.3233C81.2039 42.3233 81.673 42.4202 82.0685 42.6141C82.4639 42.8079 82.7624 43.0715 82.9641 43.405C83.1657 43.7384 83.2665 44.1144 83.2665 44.5332C83.2665 45.0139 83.1385 45.4249 82.8826 45.7661C82.6268 46.1072 82.3205 46.336 81.9638 46.4523V46.4988C82.4213 46.6384 82.778 46.8943 83.0338 47.2664C83.2897 47.6309 83.4177 48.1 83.4177 48.6738C83.4177 49.1313 83.313 49.5384 83.1036 49.8951C82.8943 50.2517 82.5841 50.5348 82.1731 50.7441C81.7622 50.9457 81.2698 51.0465 80.696 51.0465C79.8586 51.0465 79.1685 50.8333 78.6257 50.4068C78.0907 49.9726 77.8038 49.3523 77.765 48.5459H79.0444C79.0754 48.9568 79.2344 49.2941 79.5213 49.5578C79.8082 49.8136 80.1959 49.9416 80.6844 49.9416C81.1574 49.9416 81.5218 49.8136 81.7777 49.5578C82.0336 49.2941 82.1615 48.9568 82.1615 48.5459C82.1615 48.0031 81.987 47.6193 81.6381 47.3944C81.2969 47.1618 80.7697 47.0455 80.0563 47.0455H79.7539V45.9521H80.0679C80.696 45.9444 81.1729 45.8397 81.4985 45.6381C81.832 45.4365 81.9987 45.1186 81.9987 44.6844C81.9987 44.3122 81.8785 44.0175 81.6381 43.8004C81.3977 43.5755 81.0566 43.4631 80.6146 43.4631C80.1804 43.4631 79.8431 43.5755 79.6027 43.8004C79.3623 44.0175 79.2189 44.2889 79.1723 44.6146H77.8813ZM84.636 43.7306V42.521H87.0553V51H85.7177V43.7306H84.636ZM90.5051 49.4066L89.0978 52.6167H88.2371L89.0629 49.4066H90.5051ZM95.2433 49.1972C95.9877 48.5536 96.5731 48.0263 96.9996 47.6154C97.4338 47.1967 97.7944 46.7624 98.0813 46.3127C98.3682 45.863 98.5116 45.4132 98.5116 44.9635C98.5116 44.4983 98.3992 44.1338 98.1743 43.8702C97.9572 43.6066 97.6121 43.4747 97.1391 43.4747C96.6817 43.4747 96.325 43.6221 96.0691 43.9167C95.821 44.2036 95.6892 44.5913 95.6736 45.0798H94.3942C94.4175 44.1959 94.6811 43.5213 95.1851 43.056C95.6969 42.583 96.3444 42.3465 97.1275 42.3465C97.9727 42.3465 98.6318 42.5792 99.1048 43.0444C99.5855 43.5096 99.8259 44.13 99.8259 44.9054C99.8259 45.4636 99.6825 46.0025 99.3956 46.5221C99.1164 47.0338 98.7791 47.4952 98.3837 47.9062C97.996 48.3094 97.4997 48.7785 96.8949 49.3135L96.3715 49.7787H100.059V50.8837H94.4059V49.9183L95.2433 49.1972ZM101.223 46.65C101.223 45.3086 101.448 44.2618 101.898 43.5096C102.355 42.7497 103.139 42.3698 104.247 42.3698C105.356 42.3698 106.136 42.7497 106.585 43.5096C107.043 44.2618 107.271 45.3086 107.271 46.65C107.271 48.007 107.043 49.0693 106.585 49.8369C106.136 50.5968 105.356 50.9767 104.247 50.9767C103.139 50.9767 102.355 50.5968 101.898 49.8369C101.448 49.0693 101.223 48.007 101.223 46.65ZM105.969 46.65C105.969 46.0219 105.926 45.4908 105.841 45.0566C105.763 44.6223 105.6 44.2695 105.352 43.9981C105.104 43.719 104.736 43.5794 104.247 43.5794C103.759 43.5794 103.391 43.719 103.142 43.9981C102.894 44.2695 102.728 44.6223 102.642 45.0566C102.565 45.4908 102.526 46.0219 102.526 46.65C102.526 47.3013 102.565 47.848 102.642 48.29C102.72 48.732 102.883 49.0886 103.131 49.36C103.387 49.6314 103.759 49.7671 104.247 49.7671C104.736 49.7671 105.104 49.6314 105.352 49.36C105.608 49.0886 105.775 48.732 105.852 48.29C105.93 47.848 105.969 47.3013 105.969 46.65ZM109.407 49.1972C110.152 48.5536 110.737 48.0263 111.163 47.6154C111.598 47.1967 111.958 46.7624 112.245 46.3127C112.532 45.863 112.676 45.4132 112.676 44.9635C112.676 44.4983 112.563 44.1338 112.338 43.8702C112.121 43.6066 111.776 43.4747 111.303 43.4747C110.846 43.4747 110.489 43.6221 110.233 43.9167C109.985 44.2036 109.853 44.5913 109.838 45.0798H108.558C108.581 44.1959 108.845 43.5213 109.349 43.056C109.861 42.583 110.508 42.3465 111.291 42.3465C112.137 42.3465 112.796 42.5792 113.269 43.0444C113.749 43.5096 113.99 44.13 113.99 44.9054C113.99 45.4636 113.846 46.0025 113.559 46.5221C113.28 47.0338 112.943 47.4952 112.548 47.9062C112.16 48.3094 111.664 48.7785 111.059 49.3135L110.535 49.7787H114.222V50.8837H108.57V49.9183L109.407 49.1972ZM115.364 44.6146C115.411 43.8935 115.686 43.3313 116.19 42.9281C116.702 42.5249 117.353 42.3233 118.144 42.3233C118.687 42.3233 119.156 42.4202 119.551 42.6141C119.947 42.8079 120.245 43.0715 120.447 43.405C120.648 43.7384 120.749 44.1144 120.749 44.5332C120.749 45.0139 120.621 45.4249 120.365 45.7661C120.109 46.1072 119.803 46.336 119.446 46.4523V46.4988C119.904 46.6384 120.261 46.8943 120.517 47.2664C120.772 47.6309 120.9 48.1 120.9 48.6738C120.9 49.1313 120.796 49.5384 120.586 49.8951C120.377 50.2517 120.067 50.5348 119.656 50.7441C119.245 50.9457 118.753 51.0465 118.179 51.0465C117.341 51.0465 116.651 50.8333 116.108 50.4068C115.573 49.9726 115.286 49.3523 115.248 48.5459H116.527C116.558 48.9568 116.717 49.2941 117.004 49.5578C117.291 49.8136 117.679 49.9416 118.167 49.9416C118.64 49.9416 119.005 49.8136 119.26 49.5578C119.516 49.2941 119.644 48.9568 119.644 48.5459C119.644 48.0031 119.47 47.6193 119.121 47.3944C118.78 47.1618 118.252 47.0455 117.539 47.0455H117.237V45.9521H117.551C118.179 45.9444 118.656 45.8397 118.981 45.6381C119.315 45.4365 119.481 45.1186 119.481 44.6844C119.481 44.3122 119.361 44.0175 119.121 43.8004C118.88 43.5755 118.539 43.4631 118.097 43.4631C117.663 43.4631 117.326 43.5755 117.085 43.8004C116.845 44.0175 116.702 44.2889 116.655 44.6146H115.364Z" fill="#33475B"/>
<path d="M47.2404 50.354L43.875 46.9886L47.2404 43.6232" stroke="#33475B" stroke-width="1.11837" stroke-linecap="round"/>
<path d="M132.104 50.3542L135.47 46.9888L132.104 43.6234" stroke="#33475B" stroke-width="1.11837" stroke-linecap="round"/>
<line x1="22" y1="71.8657" x2="441.271" y2="71.8657" stroke="#F2F2F4" stroke-width="0.726937"/>
<path d="M409.316 41.8619C409.16 41.8619 408.996 41.9144 408.877 42.0333C408.639 42.2717 408.639 42.6716 408.877 42.91L412.707 46.7395L408.877 50.5689C408.639 50.8073 408.639 51.2073 408.877 51.4457C409.116 51.6835 409.516 51.6835 409.754 51.4457L413.584 47.6162L417.413 51.4457C417.651 51.6835 418.051 51.6835 418.29 51.4457C418.528 51.2073 418.528 50.8073 418.29 50.5689L414.46 46.7395L418.29 42.91C418.528 42.6716 418.528 42.2717 418.29 42.0333C418.171 41.9144 418.007 41.8619 417.851 41.8619C417.695 41.8619 417.532 41.9144 417.413 42.0333L413.584 45.8627L409.754 42.0333C409.635 41.9144 409.472 41.8619 409.316 41.8619Z" fill="#33475B"/>
<defs>
<filter id="filter0_d_426_49" x="0.191881" y="0.0996304" width="463.616" height="438.616" filterUnits="userSpaceOnUse" color-interpolation-filters="sRGB">
<feFlood flood-opacity="0" result="BackgroundImageFix"/>
<feColorMatrix in="SourceAlpha" type="matrix" values="0 0 0 0 0 0 0 0 0 0 0 0 0 0 0 0 0 0 127 0" result="hardAlpha"/>
<feOffset dy="2.90775"/>
<feGaussianBlur stdDeviation="10.9041"/>
<feComposite in2="hardAlpha" operator="out"/>
<feColorMatrix type="matrix" values="0 0 0 0 0.1347 0 0 0 0 0.1347 0 0 0 0 0.1347 0 0 0 0.25 0"/>
<feBlend mode="normal" in2="BackgroundImageFix" result="effect1_dropShadow_426_49"/>
<feBlend mode="normal" in="SourceGraphic" in2="effect1_dropShadow_426_49" result="shape"/>
</filter>
</defs>
</svg>
