<svg width="55" height="55" viewBox="0 0 55 55" fill="none" xmlns="http://www.w3.org/2000/svg">
<path d="M41.2662 9.16162C38.7339 9.16162 36.6829 11.2127 36.6829 13.745V41.245H34.3912V22.9116C34.3912 20.3793 32.3402 18.3283 29.8079 18.3283H25.2246C22.6923 18.3283 20.6412 20.3793 20.6412 22.9116V41.245H18.3496V32.0783C18.3496 29.546 16.2985 27.495 13.7662 27.495H9.18286C6.65057 27.495 4.59953 29.546 4.59953 32.0783V41.245C3.33453 41.245 2.30786 42.2716 2.30786 43.5366C2.30786 44.8016 3.33453 45.8283 4.59953 45.8283H6.89119H48.1412H50.4329C51.6979 45.8283 52.7246 44.8016 52.7246 43.5366C52.7246 42.2716 51.6979 41.245 50.4329 41.245V13.745C50.4329 11.2127 48.3819 9.16162 45.8496 9.16162H41.2662Z" fill="#F37A37"/>
</svg>
