<svg width="55" height="55" viewBox="0 0 55 55" fill="none" xmlns="http://www.w3.org/2000/svg">
<path fill-rule="evenodd" clip-rule="evenodd" d="M25.5555 9.16675H29.4444C31.5922 9.16675 33.3334 10.8084 33.3334 12.8334C33.3334 15.1508 35.8128 16.6241 37.8482 15.5162L38.0549 15.4036C39.9148 14.3911 42.2934 14.992 43.3672 16.7457L45.3117 19.9212C46.3856 21.6749 45.7483 23.9173 43.8881 24.93C41.852 26.0385 41.852 28.9617 43.8881 30.0702C45.7483 31.0829 46.3856 33.3253 45.3117 35.0791L43.3672 38.2544C42.2934 40.0082 39.9148 40.6091 38.0549 39.5966L37.8482 39.4841C35.8128 38.3761 33.3334 39.8494 33.3334 42.1667C33.3334 44.1919 31.5922 45.8334 29.4444 45.8334H25.5555C23.4077 45.8334 21.6666 44.1919 21.6666 42.1667C21.6666 39.8494 19.1871 38.3761 17.1518 39.4841L16.9451 39.5966C15.085 40.6091 12.7066 40.0082 11.6327 38.2544L9.68828 35.0791C8.6144 33.3253 9.25169 31.0829 11.1117 30.0702C13.148 28.9617 13.148 26.0385 11.1117 24.93C9.25169 23.9173 8.6144 21.6748 9.6883 19.9211L11.6327 16.7457C12.7066 14.992 15.0851 14.3911 16.9451 15.4036L17.1518 15.5161C19.1871 16.6241 21.6666 15.1508 21.6666 12.8334C21.6666 10.8084 23.4077 9.16675 25.5555 9.16675ZM27.5 34.3751C31.297 34.3751 34.375 31.2971 34.375 27.5001C34.375 23.703 31.297 20.6251 27.5 20.6251C23.7031 20.6251 20.625 23.703 20.625 27.5001C20.625 31.2971 23.7031 34.3751 27.5 34.3751Z" fill="#ED5C18"/>
</svg>
