<svg width="55" height="55" viewBox="0 0 55 55" fill="none" xmlns="http://www.w3.org/2000/svg">
<path d="M27.4792 4.58105C19.3391 4.58105 13.7291 10.1911 13.7291 18.3311C13.7291 19.4426 13.7291 20.6228 13.7291 22.9145C13.7291 25.2061 13.3578 26.4436 12.0814 27.4977C11.937 27.6169 11.332 28.1371 11.151 28.2861C8.25201 30.6831 6.82888 32.929 6.85409 36.6644C6.87242 39.1348 8.90055 41.2732 11.4374 41.248H21.0418C21.0418 41.248 20.6041 42.6482 20.6041 43.5396C20.6041 47.3369 23.6819 50.4146 27.4792 50.4146C31.2764 50.4146 34.3542 47.3369 34.3542 43.5396C34.3542 42.6482 33.9348 41.248 33.9348 41.248H43.5208C46.0508 41.2548 48.1019 39.1486 48.1042 36.6644C48.1087 32.9565 46.6696 30.6717 43.8073 28.2861C43.6194 28.1279 42.9548 27.6215 42.8058 27.4977C41.5569 26.4573 41.2292 25.2061 41.2292 22.9145C41.2292 20.0499 41.2292 18.3311 41.2292 18.3311C41.2292 10.1911 35.6192 4.58105 27.4792 4.58105ZM27.4792 41.248C28.7442 41.248 29.7708 42.2746 29.7708 43.5396C29.7708 44.8046 28.7442 45.8313 27.4792 45.8313C26.2142 45.8313 25.1875 44.8046 25.1875 43.5396C25.1875 42.2746 26.2142 41.248 27.4792 41.248Z" fill="#ED5C18"/>
</svg>
