<svg width="55" height="55" viewBox="0 0 55 55" fill="none" xmlns="http://www.w3.org/2000/svg">
<path d="M20.5514 5.62721C17.3019 6.65617 14.4991 8.34057 12.0287 10.6391C11.2656 11.3518 11.0319 12.5137 11.5269 13.4326C13.3625 16.8266 11.442 20.4566 7.30329 20.6651C6.28808 20.7179 5.39206 21.4672 5.15373 22.4549C4.74352 24.1621 4.58081 25.5921 4.58081 27.469C4.58081 29.0434 4.75039 30.824 5.08269 32.4098C5.28894 33.3999 6.1506 34.1126 7.15894 34.2019C11.3252 34.5617 13.3877 37.738 11.5269 41.7919C11.1144 42.6926 11.3023 43.7696 12.0287 44.4411C14.4625 46.6938 17.2583 48.2796 20.5514 49.3109C21.491 49.6065 22.5521 49.2513 23.1296 48.4515C25.6779 44.9269 29.3743 44.9132 31.7943 48.4515C32.365 49.2857 33.41 49.6867 34.3725 49.3819C37.551 48.3828 40.5118 46.6801 42.9662 44.4411C43.7225 43.7536 43.9218 42.6376 43.4681 41.7209C41.5614 37.8732 43.7546 34.3394 47.6916 34.273C48.7366 34.2546 49.6671 33.5671 49.9123 32.5542C50.3087 30.9111 50.4141 29.4788 50.4141 27.469C50.4141 25.7411 50.2102 24.0384 49.8412 22.3839C49.6075 21.3389 48.6931 20.5964 47.6206 20.5941C43.7454 20.5872 41.5729 16.7785 43.4681 13.4326C43.9952 12.4999 43.8302 11.3587 43.0373 10.6391C40.5393 8.37036 37.4937 6.59888 34.3014 5.62721C33.3206 5.32929 32.2779 5.69598 31.7233 6.55765C29.5096 9.99515 25.3754 10.057 23.2006 6.62869C22.6437 5.75098 21.5414 5.31096 20.5514 5.62721ZM27.4975 18.3024C32.5598 18.3024 36.6641 22.4068 36.6641 27.469C36.6641 32.5313 32.5598 36.6357 27.4975 36.6357C22.4352 36.6357 18.3308 32.5313 18.3308 27.469C18.3308 22.4068 22.4352 18.3024 27.4975 18.3024Z" fill="#ED5C18"/>
</svg>
