<svg width="55" height="55" viewBox="0 0 55 55" fill="none" xmlns="http://www.w3.org/2000/svg">
<path d="M41.3646 6.94379H40.998V6.30212C40.998 5.36254 40.2188 4.58337 39.2792 4.58337C38.3396 4.58337 37.5605 5.36254 37.5605 6.30212V6.94379H17.4396V6.30212C17.4396 5.36254 16.6834 4.58337 15.7209 4.58337C14.7813 4.58337 14.0021 5.36254 14.0021 6.30212V6.94379H13.6355C8.63962 6.94379 4.58337 11 4.58337 15.9959V41.3646C4.58337 46.3605 8.63962 50.4167 13.6355 50.4167H41.3646C46.3605 50.4167 50.4167 46.3605 50.4167 41.3646V15.9959C50.4167 11 46.3605 6.94379 41.3646 6.94379ZM13.75 43.473C12.4896 43.473 11.4584 42.4646 11.4584 41.1813C11.4584 39.9209 12.4896 38.8896 13.75 38.8896C15.0105 38.8896 16.0417 39.9209 16.0417 41.1813C16.0417 42.4646 15.0105 43.473 13.75 43.473ZM13.75 35.498C12.4896 35.498 11.4584 34.4667 11.4584 33.2063C11.4584 31.923 12.4896 30.9146 13.75 30.9146C15.0105 30.9146 16.0417 31.923 16.0417 33.2063C16.0417 34.4667 15.0105 35.498 13.75 35.498ZM13.75 27.5C12.4896 27.5 11.4584 26.4688 11.4584 25.2084C11.4584 23.948 12.4896 22.9167 13.75 22.9167C15.0105 22.9167 16.0417 23.948 16.0417 25.2084C16.0417 26.4688 15.0105 27.5 13.75 27.5ZM22.9167 43.473C21.6563 43.473 20.625 42.4646 20.625 41.1813C20.625 39.9209 21.6563 38.8896 22.9167 38.8896C24.1771 38.8896 25.2084 39.9209 25.2084 41.1813C25.2084 42.4646 24.1771 43.473 22.9167 43.473ZM22.9167 35.498C21.6563 35.498 20.625 34.4667 20.625 33.2063C20.625 31.923 21.6563 30.9146 22.9167 30.9146C24.1771 30.9146 25.2084 31.923 25.2084 33.2063C25.2084 34.4667 24.1771 35.498 22.9167 35.498ZM22.9167 27.5C21.6563 27.5 20.625 26.4688 20.625 25.2084C20.625 23.948 21.6563 22.9167 22.9167 22.9167C24.1771 22.9167 25.2084 23.948 25.2084 25.2084C25.2084 26.4688 24.1771 27.5 22.9167 27.5ZM32.0834 43.473C30.823 43.473 29.7917 42.4646 29.7917 41.1813C29.7917 39.9209 30.823 38.8896 32.0834 38.8896C33.3438 38.8896 34.375 39.9209 34.375 41.1813C34.375 42.4646 33.3438 43.473 32.0834 43.473ZM32.0834 35.498C30.823 35.498 29.7917 34.4667 29.7917 33.2063C29.7917 31.923 30.823 30.9146 32.0834 30.9146C33.3438 30.9146 34.375 31.923 34.375 33.2063C34.375 34.4667 33.3438 35.498 32.0834 35.498ZM32.0834 27.5C30.823 27.5 29.7917 26.4688 29.7917 25.2084C29.7917 23.948 30.823 22.9167 32.0834 22.9167C33.3438 22.9167 34.375 23.948 34.375 25.2084C34.375 26.4688 33.3438 27.5 32.0834 27.5ZM41.25 35.498C39.9896 35.498 38.9584 34.4667 38.9584 33.2063C38.9584 31.923 39.9896 30.9146 41.25 30.9146C42.5105 30.9146 43.5417 31.923 43.5417 33.2063C43.5417 34.4667 42.5105 35.498 41.25 35.498ZM41.25 27.5C39.9896 27.5 38.9584 26.4688 38.9584 25.2084C38.9584 23.948 39.9896 22.9167 41.25 22.9167C42.5105 22.9167 43.5417 23.948 43.5417 25.2084C43.5417 26.4688 42.5105 27.5 41.25 27.5ZM46.9792 16.3854H8.02087V15.9959C8.02087 12.9021 10.5417 10.3813 13.6355 10.3813H14.0021V11.023C14.0021 11.9855 14.7813 12.7417 15.7209 12.7417C16.6834 12.7417 17.4396 11.9855 17.4396 11.023V10.3813H37.5605V11.023C37.5605 11.9855 38.3396 12.7417 39.2792 12.7417C40.2188 12.7417 40.998 11.9855 40.998 11.023V10.3813H41.3646C44.4584 10.3813 46.9792 12.9021 46.9792 15.9959V16.3854Z" fill="#ED5C18"/>
</svg>
