<svg width="55" height="55" viewBox="0 0 55 55" fill="none" xmlns="http://www.w3.org/2000/svg">
<path d="M21.1749 46.7729H33.8479C32.5875 48.9729 30.227 50.4167 27.5229 50.4167C24.7729 50.4167 22.4353 48.9729 21.1749 46.7729Z" fill="#ED5C18"/>
<path d="M48.8584 39.3937C48.8584 40.5395 48.4917 41.5937 47.9188 42.4645C46.9334 43.9082 45.3063 44.8708 43.4271 44.8708H11.596C11.023 44.8708 10.4731 44.7791 9.9689 44.6187C8.75431 44.252 7.74593 43.4958 7.05843 42.4645C6.48552 41.5937 6.1189 40.5395 6.1189 39.3937C6.1189 36.9416 7.74596 34.8791 9.94596 34.1687C10.2897 34.077 10.6334 34.0082 11.0001 33.9624V23.4895C11.0001 15.0103 17.4626 8.04367 25.6896 7.127V6.37075C25.6896 5.38534 26.4917 4.58325 27.4771 4.58325C28.4626 4.58325 29.2646 5.38534 29.2646 6.37075V7.127C32.9771 7.5395 36.4376 9.16656 39.1188 11.8707C42.2355 14.9416 43.9542 19.0895 43.9542 23.4895V33.9624C46.7042 34.2603 48.8584 36.5749 48.8584 39.3937Z" fill="#ED5C18"/>
</svg>
