<svg width="55" height="55" viewBox="0 0 55 55" fill="none" xmlns="http://www.w3.org/2000/svg">
<path d="M45.5583 11.9397L28.1417 4.72087C27.7062 4.53754 27.2479 4.53754 26.8125 4.72087L9.39586 11.9397C8.7542 12.2147 8.34167 12.8334 8.34167 13.5209V21.9772C8.34167 34.2146 15.5833 45.3292 26.7667 50.2563C26.9958 50.348 27.225 50.3938 27.4542 50.3938C27.6833 50.3938 27.9354 50.348 28.1417 50.2563C39.3479 45.3292 46.5667 34.2146 46.5667 21.9772V13.5209C46.6354 12.8334 46.2 12.2147 45.5583 11.9397Z" fill="#ED5C18"/>
<path d="M33.9 24.3099V21.9199C33.9 18.6699 31.25 16.0199 28 16.0199C24.75 16.0199 22.1 18.6699 22.1 21.9199V24.3099C20.34 24.6799 19.01 26.2499 19.01 28.1199V32.1099C19.01 34.2699 20.76 36.0199 22.92 36.0199H33.09C35.24 36.0199 36.99 34.2699 36.99 32.1099V28.1199C36.99 26.2499 35.66 24.6799 33.9 24.3099ZM28.75 30.6999V32.1799C28.75 32.5899 28.41 32.9299 28 32.9299C27.59 32.9299 27.25 32.5899 27.25 32.1799V30.6999C26.64 30.4099 26.22 29.7999 26.22 29.0899C26.22 28.1099 27.02 27.3099 28 27.3099C28.98 27.3099 29.78 28.1099 29.78 29.0899C29.78 29.7999 29.36 30.4099 28.75 30.6999ZM23.6 24.2199V21.9199C23.6 19.4899 25.57 17.5199 28 17.5199C30.43 17.5199 32.4 19.4899 32.4 21.9199V24.2199H23.6Z" fill="white"/>
</svg>
