<svg width="721" height="541" viewBox="0 0 721 541" fill="none" xmlns="http://www.w3.org/2000/svg">
<path fill-rule="evenodd" clip-rule="evenodd" d="M484.827 441.297L490.64 480.366H490.731C491.767 481.898 503.573 483.385 517.993 483.791C533.134 484.196 545.391 483.25 545.436 481.628C545.436 481.538 545.391 481.448 545.301 481.357H545.527L550.979 443.415C551.114 443.28 551.204 443.144 551.25 443.009C551.295 441.072 536.424 439.089 518.083 438.593C499.743 438.097 484.827 439.269 484.827 441.207C484.827 441.252 484.827 441.252 484.827 441.297Z" fill="#78313D"/>
<path fill-rule="evenodd" clip-rule="evenodd" d="M518.624 433.816C502.086 433.366 486.81 439.584 486.765 441.342C486.72 443.099 500.104 444.857 516.641 445.307C533.179 445.758 546.563 444.721 546.608 442.964C546.653 441.206 535.162 434.222 518.624 433.816Z" fill="#045F2F"/>
<path fill-rule="evenodd" clip-rule="evenodd" d="M531.422 427.778C531.287 427.282 531.017 426.471 530.746 425.3C529.575 427.282 530.611 428.003 531.197 428.229C531.287 428.094 531.377 427.958 531.422 427.778ZM559 367.8C559 367.8 550.168 366.538 556.207 358.202C578.287 327.739 570.581 314.131 565.444 316.699C564.318 317.24 562.02 319.763 562.02 319.763C531.918 355.633 527.952 413.674 530.746 425.39C531.377 424.263 538.497 432.375 540.93 430.347C609.065 383.301 559 367.8 559 367.8Z" fill="#045F2F"/>
<path fill-rule="evenodd" clip-rule="evenodd" d="M598.745 394.927C598.745 394.927 620.691 420.388 575.268 416.918C538.587 414.079 543.634 391.908 598.745 394.927Z" fill="#045F2F"/>
<path d="M602.441 307.507C602.441 307.507 614.472 379.472 531.107 414.17" stroke="#00A850" stroke-width="0.90125" stroke-miterlimit="10" stroke-linecap="round" stroke-linejoin="round"/>
<path fill-rule="evenodd" clip-rule="evenodd" d="M525.429 434.899C539.984 426.292 534.892 381.139 530.611 369.243C524.888 353.426 512.316 364.466 512.316 364.466C512.316 364.466 495.868 327.335 484.512 339.457C476.896 347.568 493.75 382.852 493.75 382.852C484.377 377.264 447.155 391.053 525.429 434.899Z" fill="#00A850"/>
<path fill-rule="evenodd" clip-rule="evenodd" d="M519.075 431.789C519.075 431.789 531.783 407.816 577.791 391.729C604.739 382.311 618.663 381.68 627.901 382.04C642.591 382.581 641.284 393.126 613.751 401.327C594.465 407.095 580.991 401.192 580.991 401.192C580.991 401.192 596.763 430.257 576.169 440.802C550.799 453.87 519.075 431.789 519.075 431.789Z" fill="#00A850"/>
<path fill-rule="evenodd" clip-rule="evenodd" d="M551.971 357.48C551.971 357.48 571.212 349.144 569.5 369.151C568.283 383.166 542.417 409.527 542.417 409.527C542.417 409.527 562.38 406.508 550.393 422.46C537.776 439.314 525.023 430.707 524.572 433.816C524.572 433.816 509.747 400.109 539.713 345.539C544.896 336.076 558.55 318.997 565.579 316.563C548.861 329.767 551.971 357.48 551.971 357.48Z" fill="#00A850"/>
<path fill-rule="evenodd" clip-rule="evenodd" d="M449.003 366.853C424.038 362.932 410.88 405.066 465.766 412.726C445.172 426.02 455.176 457.113 493.164 442.558C520.021 432.284 533.54 434.942 537.911 436.024C508.891 384.202 472.165 351.126 437.106 335.579C419.397 327.739 410.655 345.673 449.003 366.853Z" fill="#00A850"/>
<path fill-rule="evenodd" clip-rule="evenodd" d="M588.246 303.496C583.334 303.902 580.405 312.148 586.173 316.519C590.274 319.628 601.72 323.819 601.81 332.336C603.522 325.802 602.035 317.601 599.241 311.472C596.447 305.299 592.211 303.181 588.246 303.496Z" fill="#00A850"/>
<path fill-rule="evenodd" clip-rule="evenodd" d="M588.832 303C590.814 306.651 603.252 324.54 601.855 332.336C606.316 318.998 603.252 304.578 601.584 300.297C596.447 287.364 583.649 293.357 588.832 303Z" fill="#00A850"/>
<path fill-rule="evenodd" clip-rule="evenodd" d="M377.804 305.298H391.233L440.261 495.101H432.149L377.804 305.298Z" fill="#CABEC3"/>
<path fill-rule="evenodd" clip-rule="evenodd" d="M257.442 297.458H439.585V307.417H257.442V297.458Z" fill="#77313E"/>
<path fill-rule="evenodd" clip-rule="evenodd" d="M294.934 263.119C294.619 263.119 294.348 263.074 294.078 263.074L234.776 268.256L234.595 229.142L295.114 234.459C295.25 234.459 295.385 234.459 295.52 234.459C303.451 234.594 309.76 241.173 309.579 249.059C309.399 256.99 302.865 263.254 294.934 263.119Z" fill="#ED5C18"/>
<path d="M342.295 163.08L334.274 169.569L331.164 172.182L330.804 172.453L330.624 172.588L330.398 172.768C329.767 173.309 329.227 173.94 328.776 174.616C328.325 175.292 327.92 176.058 327.649 176.824C327.514 177.229 327.379 177.635 327.334 178.04C327.289 178.266 327.244 178.446 327.244 178.671L327.154 179.257L324.63 200.482C324.63 200.482 330.578 210.801 331.254 210.666C343.602 208.322 341.529 198.995 341.529 198.949L335.986 179.032L337.428 173.129L344.908 166.054C345.674 165.288 345.674 164.026 344.908 163.26C344.187 162.494 343.061 162.449 342.295 163.08Z" fill="#E5926F"/>
<path fill-rule="evenodd" clip-rule="evenodd" d="M347.883 217.019H392.314C393.125 217.019 393.666 216.478 393.711 215.757C393.576 215.532 393.441 215.307 393.351 215.081L389.971 205.348C388.889 202.284 386.096 199.4 382.851 198.318C381.274 197.777 379.607 197.687 378.165 198.589C377.128 199.58 375.596 200.121 373.613 199.94C370.143 199.625 366.403 196.876 364.871 193.496C362.888 189.125 365.006 185.43 369.287 185.43C370.864 185.43 372.442 185.926 373.929 186.782C376.002 187.728 377.624 187.638 378.886 187.098C381.409 186.016 382.22 183.132 381.139 180.068L377.083 168.397C376.993 168.171 376.948 167.946 376.993 167.721C376.452 167 375.551 166.459 374.74 166.459H330.308C329.227 166.459 328.686 167.315 329.046 168.397L345.314 215.126C345.674 216.118 346.846 217.019 347.883 217.019Z" fill="#C9BFC4"/>
<path fill-rule="evenodd" clip-rule="evenodd" d="M307.371 256.449C304.758 260.55 300.161 263.209 294.934 263.119C287.003 262.984 280.694 256.404 280.875 248.518C280.92 245.364 282.001 242.48 283.759 240.182L283.668 240.137L302.369 217.561L323.143 231.124L307.371 256.449Z" fill="#ED5C18"/>
<path d="M317.375 239.236C316.699 240.272 311.427 238.109 305.614 234.369C299.801 230.629 295.61 226.753 296.286 225.717" stroke="#CC2818" stroke-width="0.90125" stroke-miterlimit="10" stroke-linecap="round" stroke-linejoin="round"/>
<path fill-rule="evenodd" clip-rule="evenodd" d="M313.95 222.427C319.764 226.167 323.954 230.042 323.278 231.079C322.602 232.115 317.33 229.952 311.517 226.212C305.704 222.472 301.513 218.596 302.189 217.56C302.865 216.524 308.137 218.687 313.95 222.427Z" fill="black"/>
<path fill-rule="evenodd" clip-rule="evenodd" d="M314.131 221.886C319.358 225.22 323.098 228.69 322.467 229.636C321.881 230.583 317.15 228.645 311.923 225.265C306.695 221.931 302.955 218.461 303.586 217.515C304.217 216.613 308.903 218.551 314.131 221.886Z" fill="#DFD6DB"/>
<path fill-rule="evenodd" clip-rule="evenodd" d="M309.94 209.043L327.965 220.489L322.422 229.637L303.631 217.47L309.94 209.043Z" fill="#DFD6DB"/>
<path fill-rule="evenodd" clip-rule="evenodd" d="M319.944 213.143C324.946 216.343 328.506 219.678 327.92 220.579C327.334 221.48 322.828 219.632 317.826 216.433C312.824 213.234 309.264 209.899 309.85 208.998C310.481 208.096 314.987 209.944 319.944 213.143Z" fill="#010000"/>
<path fill-rule="evenodd" clip-rule="evenodd" d="M341.078 181.465C339.952 185.115 336.437 189.937 336.797 193.001C337.068 195.3 337.969 198.724 336.121 201.834C336.121 201.834 335.896 207.827 331.57 210.981L327.019 219.498C326.523 220.264 322.693 218.687 318.502 215.983C314.266 213.279 311.247 210.441 311.742 209.674C311.742 209.629 311.788 209.629 311.788 209.629L326.162 191.74L334.724 183.583C336.166 181.465 337.383 179.753 337.744 179.302C338.96 177.815 341.979 178.491 341.078 181.465Z" fill="#E5926F"/>
<path d="M328.506 192.821C328.506 192.821 336.752 180.564 337.834 179.257C339.095 177.77 342.024 178.491 341.078 181.465C339.952 185.115 336.437 189.937 336.797 193.001C337.158 196.066 338.645 201.158 333.237 204.763" stroke="black" stroke-width="0.90125" stroke-miterlimit="10" stroke-linecap="round" stroke-linejoin="round"/>
<path fill-rule="evenodd" clip-rule="evenodd" d="M262.444 207.197L242.481 198.86L228.557 225.898L254.873 235.992L262.444 207.197Z" fill="#E5926F"/>
<path fill-rule="evenodd" clip-rule="evenodd" d="M258.118 223.15L262.444 207.153L250.457 201.159C247.754 219.86 260.416 224.502 258.118 223.15Z" fill="#010000"/>
<path fill-rule="evenodd" clip-rule="evenodd" d="M270.42 172.59L275.647 188.227L280.92 188.272C280.92 188.272 283.939 193.274 278.171 195.707C278.621 202.466 278.261 214.047 270.375 216.526C261.588 219.275 250.052 207.198 249.06 203.773C240.003 198.14 242.752 182.639 247.483 187.01C247.438 187.01 250.457 165.019 270.42 172.59Z" fill="#E5926F"/>
<path fill-rule="evenodd" clip-rule="evenodd" d="M231.261 190.839C233.874 197.013 239.868 203.908 239.868 203.908L247.889 202.42C247.889 202.42 242.301 197.689 245.681 193.814C249.917 188.992 255.865 196.202 255.865 196.202C255.865 196.202 255.594 189.172 255.865 183.224C255.865 183.224 252.891 189.668 245.41 185.837C233.739 179.844 231.216 181.557 231.216 181.557C231.216 181.557 229.008 185.657 231.261 190.839Z" fill="#5F1001"/>
<path fill-rule="evenodd" clip-rule="evenodd" d="M278.486 166.101C278.486 166.101 276.323 173.446 272.087 178.403C279.928 177.997 286.282 173.536 278.486 166.101Z" fill="#951800"/>
<path fill-rule="evenodd" clip-rule="evenodd" d="M231.351 181.962C231.351 181.962 222.969 166.235 239.642 166.911C249.241 167.317 255.549 166.776 268.167 166.821C277.044 166.866 271.141 175.563 271.141 175.563C271.141 175.563 258.659 175.022 257.397 176.555C255.504 178.898 255.685 184.486 255.685 184.486C255.685 184.486 253.702 190.614 249.331 190.163C242.211 189.442 231.351 181.962 231.351 181.962Z" fill="#951800"/>
<path fill-rule="evenodd" clip-rule="evenodd" d="M264.156 159.386C273.034 158.485 276.864 163.802 276.819 169.841C276.774 173.266 274.881 176.42 272.358 178.763C271.321 176.059 270.285 171.733 267.446 171.778C261.182 171.914 242.211 173.401 243.833 167.182C255.009 167.002 255.955 160.242 264.156 159.386Z" fill="#951800"/>
<path d="M249.241 195.707C248.024 196.698 247.844 198.546 248.835 199.763C249.421 200.439 250.232 200.799 251.088 200.799" stroke="black" stroke-width="0.90125" stroke-miterlimit="10" stroke-linecap="round" stroke-linejoin="round"/>
<path d="M247.799 193.994L253.341 198.185" stroke="black" stroke-width="0.90125" stroke-miterlimit="10" stroke-linecap="round" stroke-linejoin="round"/>
<path d="M271.592 198.77C271.592 198.77 273.214 201.834 277.54 201.248" stroke="black" stroke-width="0.90125" stroke-miterlimit="10" stroke-linecap="round" stroke-linejoin="round"/>
<path d="M272.132 182.052C272.132 182.052 267.581 179.484 264.066 183.9" stroke="black" stroke-width="0.90125" stroke-miterlimit="10" stroke-linecap="round" stroke-linejoin="round"/>
<path fill-rule="evenodd" clip-rule="evenodd" d="M270.735 186.107C271.366 186.153 271.817 187.054 271.727 188.045C271.637 189.037 271.006 189.803 270.375 189.758C269.744 189.712 269.293 188.811 269.384 187.82C269.474 186.783 270.06 186.062 270.735 186.107Z" fill="#010000"/>
<path fill-rule="evenodd" clip-rule="evenodd" d="M198.14 382.445H184.711L150.013 496.544H158.124L198.14 382.445Z" fill="#78313D"/>
<path fill-rule="evenodd" clip-rule="evenodd" d="M233.153 382.445H246.582L281.28 496.544H273.169L233.153 382.445Z" fill="#78313D"/>
<path fill-rule="evenodd" clip-rule="evenodd" d="M194.084 343.511L193.949 369.107C193.949 369.107 223.916 377.173 254.738 378.209C276.233 378.93 294.619 378.074 294.619 378.074C294.619 378.074 265.688 400.38 268.933 417.819C264.246 425.074 258.974 432.735 258.974 432.735L282.992 450.985C282.992 450.985 287.589 444.001 292.906 435.754C305.389 437.512 308.002 421.605 317.06 407.5C327.649 390.917 341.664 375.776 341.664 375.776C347.026 368.386 350.857 360.815 347.387 353.11C343.872 345.404 336.211 340.447 327.379 340.177L263.616 337.833C261.903 330.759 256.045 328.505 223.465 329.001C199.807 329.362 184.125 334.949 184.17 339.14C184.215 340.808 188.992 342.34 194.084 343.511Z" fill="#5A74C7"/>
<path fill-rule="evenodd" clip-rule="evenodd" d="M276.954 434.402C270.465 429.085 262.669 427.868 259.56 431.699C256.451 435.529 259.199 442.919 265.688 448.192C272.177 453.509 279.973 454.726 283.083 450.895C286.237 447.065 283.488 439.675 276.954 434.402Z" fill="black"/>
<path fill-rule="evenodd" clip-rule="evenodd" d="M251.133 449.588L270.826 473.066L282.632 448.327L282.452 448.191C283.759 444.541 280.875 438.999 275.467 435.168C269.519 430.978 262.804 430.437 260.281 433.862L260.191 433.817L251.133 449.588Z" fill="#DFD6DA"/>
<path fill-rule="evenodd" clip-rule="evenodd" d="M311.157 419.126C309.219 396.46 300.792 383.166 293.312 380.012L294.619 378.074C294.619 378.074 326.883 361.942 330.353 386.141L311.157 419.126Z" fill="black"/>
<path fill-rule="evenodd" clip-rule="evenodd" d="M268.888 456.167C263.571 448.236 256.225 444.271 249.241 447.651C247.393 448.552 236.758 454.545 236.263 457.204C235.497 461.124 246.176 462.521 252.395 467.839C258.704 473.246 262.399 483.205 268.978 488.072C272.808 490.865 276.233 496.318 280.829 496.408C288.22 496.543 305.343 495.642 303.045 495.552C301.243 495.507 306.425 488.928 290.833 488.928C282.497 482.935 272.268 461.214 268.888 456.167Z" fill="#814A2A"/>
<path fill-rule="evenodd" clip-rule="evenodd" d="M256.406 463.738C251.088 455.807 243.383 452.562 238.336 455.04C233.739 457.249 235.271 464.504 245.095 472.48C251.539 477.707 250.953 482.799 256.27 489.063C260.912 494.515 273.079 497.354 278.937 497.354C281.325 497.354 283.668 493.569 281.415 493.569C271.276 493.569 260.551 469.911 256.406 463.738Z" fill="black"/>
<path fill-rule="evenodd" clip-rule="evenodd" d="M305.073 493.479H270.781L278.937 497.354H305.073V493.479Z" fill="black"/>
<path fill-rule="evenodd" clip-rule="evenodd" d="M331.254 449.317L332.651 468.424C332.651 468.424 339.997 473.831 346.441 472.885C353.29 471.894 359.238 464.594 359.238 464.594L357.346 449.272H357.165C356.535 448.101 351.127 447.109 344.413 447.064C337.248 446.974 331.345 447.966 331.209 449.272C331.254 449.227 331.254 449.272 331.254 449.317Z" fill="#DFD6DA"/>
<path fill-rule="evenodd" clip-rule="evenodd" d="M331.254 449.182C331.254 449.227 331.254 449.272 331.254 449.272L331.75 456.122C342.791 456.663 352.975 453.238 357.616 451.39L357.346 449.182H357.165C356.535 448.011 351.127 447.019 344.413 446.974C337.248 446.929 331.345 447.92 331.254 449.182Z" fill="black"/>
<path fill-rule="evenodd" clip-rule="evenodd" d="M356.174 429.67L359.238 449.543H359.193C359.013 450.714 352.479 451.616 344.458 451.616C336.301 451.616 329.677 450.669 329.677 449.498C329.677 449.453 329.677 449.453 329.677 449.408L325.847 431.293C320.575 429.625 322.062 424.758 318.997 410.248C314.581 389.429 308.182 359.193 308.182 359.193L349.099 358.517C349.099 358.517 353.29 382.445 359.869 402.453C364.285 415.881 365.277 425.434 356.174 429.67Z" fill="#5A74C7"/>
<path d="M344.413 377.578C349.775 370.188 350.902 360.815 347.432 353.109C343.917 345.403 336.256 340.446 327.424 340.176L194.129 335.76L193.949 369.106C193.949 369.106 223.916 377.172 254.738 378.209C276.233 378.93 319.493 378.073 319.493 378.073L344.413 377.578Z" fill="#5A74C7"/>
<path d="M341.754 449.949L324.044 359.689L258.163 358.427C252.666 358.337 247.664 355.137 245.185 350.225L234.641 329.001" stroke="#3763C3" stroke-width="0.90125" stroke-miterlimit="10" stroke-linecap="round" stroke-linejoin="round"/>
<path d="M253.477 328.866C253.477 328.866 265.418 349.865 245.275 350.947" stroke="#5A74C7" stroke-width="0.90125" stroke-miterlimit="10" stroke-linecap="round" stroke-linejoin="round"/>
<path fill-rule="evenodd" clip-rule="evenodd" d="M357.571 439.404C357.571 439.404 341.394 441.522 326.343 431.473C329.137 432.194 333.553 432.149 340.988 432.149C347.747 432.149 352.659 431.293 356.129 429.671L357.571 439.404Z" fill="black"/>
<path fill-rule="evenodd" clip-rule="evenodd" d="M328.28 491.407C328.28 491.407 334.679 491.902 339.591 492.263C343.782 492.533 348.513 493.975 355.994 495.327C363.339 496.679 377.669 497.084 392.765 496.949C397.857 496.904 401.777 496.634 401.777 496.634C401.777 496.634 403.715 488.748 393.26 488.928C382.761 489.108 378.705 485.639 378.705 485.639C378.705 485.639 366.989 476.085 359.644 465.856C356.219 461.125 355.002 470.227 350.136 473.201C346.17 475.635 336.301 473.697 336.301 473.697C336.301 473.697 326.478 480.051 328.28 491.407Z" fill="black"/>
<path fill-rule="evenodd" clip-rule="evenodd" d="M328.19 485.368C328.19 485.368 334.634 485.684 339.591 486.269C343.782 486.765 347.342 488.252 354.687 490.505C357.436 491.361 363.564 491.992 368.296 492.353L401.732 493.389C401.732 493.389 403.67 485.999 393.215 485.684C382.716 485.323 378.66 481.673 378.66 481.673C378.66 481.673 368.431 471.083 361.356 460.944C357.931 456.032 354.912 465.045 350.045 467.794C346.08 470.047 330.578 466.126 330.578 466.126C330.578 466.126 327.109 475.725 328.19 485.368Z" fill="#814A2A"/>
<path fill-rule="evenodd" clip-rule="evenodd" d="M227.566 224.724L235.947 207.916C235.947 207.916 254.243 213.594 259.515 223.057C264.742 232.52 227.566 224.724 227.566 224.724Z" fill="#DFD6DB"/>
<path fill-rule="evenodd" clip-rule="evenodd" d="M264.292 258.836C263.616 267.894 263.435 278.078 264.382 287.586C265.914 302.457 274.25 311.83 268.167 320.617C266.5 323.005 264.607 324.628 262.444 325.799L263.526 337.561C261.317 333.685 242.571 330.891 220.13 331.252C198.906 331.567 187.009 335.308 183.99 338.958L183.179 326.205C171.508 317.147 181.962 293.354 196.112 267.263C207.783 245.813 215.534 233.782 222.654 228.014L229.458 214.54C229.458 214.54 248.339 217.154 258.298 223.147C261.408 224.589 263.751 226.391 265.328 227.833C269.248 231.393 271.952 236.35 272.448 241.803C273.169 249.058 269.834 255.412 264.292 258.836Z" fill="#ED5C18"/>
<path d="M262.444 325.71C261.948 321.835 243.788 319.266 221.843 319.942C199.897 320.618 182.503 324.358 182.999 328.233" stroke="#E85E19" stroke-width="0.90125" stroke-miterlimit="10" stroke-linecap="round" stroke-linejoin="round"/>
<path fill-rule="evenodd" clip-rule="evenodd" d="M265.553 294.705C231.802 277.266 244.689 239.008 244.689 239.008C258.524 236.845 265.148 244.776 266.5 253.699C261.453 270.236 264.021 284.296 265.553 294.705Z" fill="#010000"/>
<path fill-rule="evenodd" clip-rule="evenodd" d="M225.538 381.724H212.109L177.411 497.579H185.522L225.538 381.724Z" fill="#78313D"/>
<path fill-rule="evenodd" clip-rule="evenodd" d="M263.21 381.724H276.684L311.382 497.579H303.271L263.21 381.724Z" fill="#78313D"/>
<path fill-rule="evenodd" clip-rule="evenodd" d="M175.654 322.556C174.167 338.824 156.682 368.295 179.935 381.273C181.016 381.858 182.413 382.489 184.08 382.76C191.696 383.075 211.163 382.895 233.919 382.895C263.345 382.895 287.228 382.489 287.228 382.039C287.273 378.208 285.786 369.376 269.294 372.44C259.109 374.333 242.662 382.67 234.776 371.584C226.845 360.499 220.536 297.186 186.333 286.191C169.976 280.964 157.944 281.82 157.944 281.82C157.944 281.82 177.456 302.954 175.654 322.556Z" fill="#DFD7DB"/>
<path fill-rule="evenodd" clip-rule="evenodd" d="M423.452 237.706H334.724L303.676 297.639H392.404L423.452 237.706Z" fill="#010000"/>
<path d="M357.931 251.271C357.931 251.271 338.825 251.271 335.13 251.271" stroke="white" stroke-width="0.90125" stroke-miterlimit="10" stroke-linecap="round" stroke-linejoin="round"/>
<path d="M383.437 245.909C377.443 245.909 366.088 245.909 359.779 245.909" stroke="white" stroke-width="0.90125" stroke-miterlimit="10" stroke-linecap="round" stroke-linejoin="round"/>
<path d="M397.046 245.909C394.567 245.909 390.421 245.909 387.177 245.909M356.489 245.909C353.155 245.909 340.627 245.909 337.788 245.909" stroke="#565EC1" stroke-width="0.90125" stroke-miterlimit="10" stroke-linecap="round" stroke-linejoin="round"/>
<path fill-rule="evenodd" clip-rule="evenodd" d="M354.101 275.917L350.721 281.415L358.968 283.623C358.652 283.803 352.524 293.987 336.977 294.257C330.533 294.348 324.36 293.356 324.36 293.356C324.36 293.356 313.725 294.573 301.603 296.375C297.953 291.238 297.863 280.558 301.603 275.917C327.154 275.917 354.101 275.917 354.101 275.917Z" fill="#E5926F"/>
<path d="M346.711 277.585C355.498 274.431 357.165 273.484 359.959 274.205C363.339 275.061 365.502 279.838 372.802 290.923C374.199 293.357 370.954 295.565 368.341 292.726C367.259 293.717 365.231 293.807 364.556 293.041C363.384 291.599 356.534 285.471 355.318 284.074C357.571 286.642 342.835 286.733 346.711 277.585Z" fill="#E5926F"/>
<path d="M374.424 271.592L366.178 270.015L365.322 269.88L364.916 269.79L364.691 269.745L364.42 269.7C363.654 269.61 362.888 269.564 362.122 269.655C361.356 269.745 360.59 269.925 359.869 270.24C359.509 270.376 359.148 270.556 358.788 270.736C358.607 270.826 358.427 270.916 358.292 271.052L357.841 271.367L341.258 282.542C340.718 282.903 349.82 284.976 350.361 284.615C350.451 284.525 350.586 284.48 350.676 284.39L361.041 275.558L361.266 275.332C361.311 275.287 361.401 275.242 361.491 275.152C361.627 275.062 361.762 274.972 361.942 274.882C362.257 274.702 362.573 274.566 362.933 274.476C363.294 274.386 363.654 274.341 364.015 274.341H364.15H364.375L364.781 274.386L365.637 274.431L373.974 275.242C375.01 275.332 375.866 274.521 375.956 273.53C376.001 272.584 375.326 271.773 374.424 271.592Z" fill="#E5926F"/>
<path d="M354.822 276.909C357.255 277.225 358.427 277.991 359.013 278.622C361.446 281.235 367.62 289.842 367.89 290.203C368.611 291.104 368.476 292.411 367.53 293.132C366.673 293.808 365.502 293.763 364.736 293.087C363.519 291.96 358.427 286.958 356.264 284.975C355.994 284.705 354.597 283.173 352.253 282.812" stroke="black" stroke-width="0.90125" stroke-miterlimit="10" stroke-linecap="round" stroke-linejoin="round"/>
<path fill-rule="evenodd" clip-rule="evenodd" d="M301.243 296.06C301.243 296.06 321.701 296.195 326.478 296.06C328.055 296.06 329.362 291.419 329.362 285.651C329.362 280.018 328.1 275.421 326.568 275.241C326.568 275.241 300.792 275.376 297.863 275.376C290.608 275.376 288.445 275.467 288.445 282.722C288.49 289.887 294.168 295.88 301.243 296.06Z" fill="#DFD6DB"/>
<path fill-rule="evenodd" clip-rule="evenodd" d="M285.606 297.637C285.606 297.637 310.841 297.683 314.852 297.683C316.699 297.683 318.186 292.275 318.186 285.606C318.186 279.072 316.744 273.754 314.942 273.574H298.494C295.745 269.654 291.194 267.04 286.012 267.04C277.63 267.04 270.826 273.844 270.826 282.226C270.78 290.473 277.405 297.412 285.606 297.637Z" fill="#ED5C18"/>
<path d="M304.037 297.368C305.839 297.368 307.281 292.096 307.281 285.652C307.281 279.163 305.839 273.936 304.037 273.936" stroke="#CC2818" stroke-width="0.90125" stroke-miterlimit="10" stroke-linecap="round" stroke-linejoin="round"/>
<path fill-rule="evenodd" clip-rule="evenodd" d="M236.984 255.729C246.627 266.318 269.429 289.165 276.639 294.212C276.684 294.257 276.729 294.257 276.774 294.302C279.342 296.24 282.497 297.411 285.967 297.411C294.348 297.411 301.153 290.607 301.153 282.225C301.153 277.269 298.809 272.897 295.159 270.149C292.771 267.445 276.323 248.564 269.203 234.594C269.113 234.414 268.978 234.234 268.888 234.054C265.869 227.069 258.929 222.202 250.863 222.202C240.003 222.202 231.216 230.989 231.216 241.849C231.216 247.257 233.424 252.169 236.984 255.729Z" fill="#ED5C18"/>
<path d="M295.204 270.105C292.816 267.401 276.368 248.52 269.248 234.55C269.158 234.37 269.023 234.19 268.933 234.01C265.914 227.025 258.974 222.158 250.908 222.158C247.078 222.158 243.473 223.24 240.453 225.177" stroke="#CC2818" stroke-width="0.90125" stroke-miterlimit="10" stroke-linecap="round" stroke-linejoin="round"/>
<path fill-rule="evenodd" clip-rule="evenodd" d="M420.884 258.567L418.09 297.682L396.099 297.637L393.396 258.567H420.884Z" fill="#F38C1E"/>
<path fill-rule="evenodd" clip-rule="evenodd" d="M401.822 284.345C403.399 284.48 405.202 284.615 407.095 284.615C413.674 284.751 419.171 284.075 419.171 283.128C419.577 277.09 419.937 272.043 419.937 272.043C418.811 272.764 413.448 273.215 407.14 273.079C405.247 273.034 403.444 272.944 401.867 272.809V284.345H401.822Z" fill="#E0D6DA"/>
<path fill-rule="evenodd" clip-rule="evenodd" d="M422.506 259.109C422.506 259.155 422.461 259.2 422.461 259.2C423.587 259.83 424.038 260.371 424.038 260.642C424.038 261.498 416.468 262.174 407.14 262.174C397.812 262.174 390.241 261.498 390.241 260.642C390.241 260.326 390.602 259.695 391.773 259.064C391.773 259.019 391.818 259.019 391.818 258.974V256.225C391.773 256.18 391.773 256.135 391.773 256.09C391.773 255.324 398.668 254.693 407.14 254.693C415.611 254.693 422.506 255.324 422.506 256.09C422.506 256.135 422.506 256.135 422.461 256.18V258.974C422.506 259.064 422.506 259.064 422.506 259.109Z" fill="#E0D6DA"/>
<path fill-rule="evenodd" clip-rule="evenodd" d="M453.644 164.388L441.883 198.501C440.486 204.764 435.214 209.721 428.454 210.307C420.163 211.073 412.818 204.899 412.051 196.608C411.736 193.318 412.547 190.164 414.124 187.505L427.553 153.078C429.13 147.535 433.997 143.299 440.08 142.758C447.966 142.037 454.951 147.895 455.627 155.781C455.897 158.891 455.131 161.865 453.644 164.388Z" fill="#D3D8DC"/>
<path fill-rule="evenodd" clip-rule="evenodd" d="M428.454 210.308C426.517 210.488 424.624 210.263 422.821 209.767C413.809 207.785 403.309 191.697 399.749 182.955C398.172 179.08 398.938 175.745 401.056 172.951L397.136 164.975L419.847 154.16L424.038 162.452C424.128 162.497 424.173 162.542 424.218 162.632C424.264 162.767 424.264 162.947 424.128 163.128C434.583 163.984 434.312 181.243 434.312 181.243C434.312 181.243 434.358 181.513 434.358 182.009C438.593 184.352 441.658 188.723 442.153 193.905C442.874 202.197 436.746 209.542 428.454 210.308Z" fill="#D3D8DC"/>
<path d="M423.948 163.127C424.444 164.118 419.938 166.867 413.629 169.886C407.32 172.906 401.777 174.573 401.327 173.536" stroke="#A8B3BC" stroke-width="0.90125" stroke-miterlimit="10" stroke-linecap="round" stroke-linejoin="round"/>
<path d="M419.892 154.385C419.892 154.385 422.686 160.739 424.083 163.397C428.905 164.163 432.375 167.543 433.501 173.852" stroke="#A8B3BC" stroke-width="0.90125" stroke-miterlimit="10" stroke-linecap="round" stroke-linejoin="round"/>
<path fill-rule="evenodd" clip-rule="evenodd" d="M407.59 157.673C413.899 154.654 419.442 152.987 419.892 154.023C420.388 155.014 415.657 158.304 409.303 161.323C402.994 164.342 397.451 166.01 397.001 164.973C396.55 163.982 401.282 160.737 407.59 157.673Z" fill="#A8B3BC"/>
<path fill-rule="evenodd" clip-rule="evenodd" d="M417.775 154.295C418.135 155.151 414.17 157.855 408.942 160.379C403.67 162.902 399.029 164.299 398.623 163.443C398.308 162.361 395.694 154.025 395.288 153.349C391.458 151.682 384.969 136.36 384.969 136.36C384.969 136.36 385.014 136.36 385.014 136.315C384.969 136.225 384.924 136.135 384.879 136.045C383.302 132.71 382.671 127.032 387.267 127.483C386.726 126.221 388.033 124.464 388.98 124.013C390.467 123.292 392.044 123.157 393.531 123.427C394.973 122.932 396.415 122.526 398.037 122.256C399.209 122.076 400.425 121.985 401.867 122.166C402.588 122.256 403.355 122.436 404.211 122.797C405.067 123.157 405.472 123.518 406.869 124.644C407.906 126.537 414.575 139.47 413.088 144.652C414.44 147.446 417.279 153.394 417.775 154.295Z" fill="#EB967C"/>
<path d="M394.838 100.805L408.627 132.665C409.573 134.873 408.492 137.486 406.193 138.523C403.895 139.514 401.236 138.568 400.29 136.315C400.2 136.134 400.155 135.954 400.11 135.774L390.602 102.338C390.286 101.166 390.962 99.9493 392.179 99.5888C393.26 99.3184 394.387 99.8141 394.838 100.805Z" fill="#EB967C"/>
<path d="M385.915 104.276L401.597 130.772C402.679 132.575 402.003 134.963 400.11 136.09C398.217 137.216 395.784 136.631 394.703 134.783C394.612 134.648 394.567 134.558 394.522 134.422L381.905 106.349C381.409 105.267 381.95 103.96 383.076 103.419C384.158 102.969 385.375 103.329 385.915 104.276Z" fill="#EB967C"/>
<path d="M387.042 127.347C387.087 126.13 387.447 125.049 388.484 124.463C394.117 121.174 399.209 133.836 396.64 135.368C395.243 136.224 394.162 135.774 393.306 134.873" stroke="black" stroke-width="0.90125" stroke-miterlimit="10" stroke-linecap="round" stroke-linejoin="round"/>
<path d="M386.501 138.882C386.501 138.882 381.364 130.095 385.104 127.932C390.467 124.823 395.288 136.854 392.855 138.296C389.43 140.369 387.808 134.106 387.808 134.106" stroke="black" stroke-width="0.90125" stroke-miterlimit="10" stroke-linecap="round" stroke-linejoin="round"/>
<path d="M404.076 145.372C401.282 145.642 398.983 143.254 397.857 140.55C395.604 135.052 400.065 130.095 400.065 130.095C400.065 130.095 398.713 128.744 393.035 128.248H392.9C391.819 128.383 390.782 127.527 390.602 126.355C390.422 125.364 390.872 124.463 391.638 124.147C393.711 123.246 395.694 122.57 398.037 122.21C399.524 121.984 403.85 121.398 406.869 124.598" fill="#EB967C"/>
<path d="M404.076 145.372C401.282 145.642 398.983 143.254 397.857 140.55C395.604 135.052 400.065 130.095 400.065 130.095C400.065 130.095 398.713 128.744 393.035 128.248H392.9C391.819 128.383 390.782 127.527 390.602 126.355C390.422 125.364 390.872 124.463 391.638 124.147C393.711 123.246 395.694 122.57 398.037 122.21C399.524 121.984 403.85 121.398 406.869 124.598" stroke="black" stroke-width="0.90125" stroke-miterlimit="10" stroke-linecap="round" stroke-linejoin="round"/>
<path fill-rule="evenodd" clip-rule="evenodd" d="M500.284 166.371C498.752 171.057 496.318 176.014 497.355 187.911C498.121 196.473 499.473 205.801 489.874 205.305C487.351 203.322 477.122 200.799 464.865 200.483C440.171 199.807 438.233 202.466 437.377 202.736C428.68 201.384 436.746 188.587 436.746 188.587L433.231 175.293C432.78 173.22 432.87 171.057 433.456 169.075C429.986 166.776 427.508 163.081 426.922 158.665C425.886 150.554 431.699 143.164 439.9 142.082C452.112 141.406 483.295 139.108 494.02 137.756C502.222 136.72 509.702 142.217 510.738 150.329C511.73 157.629 507.133 164.343 500.284 166.371Z" fill="#D3D8DC"/>
<path d="M443.46 153.979L435.349 165.334C433.276 168.218 432.555 171.823 433.276 175.293L436.791 188.587" stroke="#A8B3BC" stroke-width="0.90125" stroke-miterlimit="10" stroke-linecap="round" stroke-linejoin="round"/>
<path fill-rule="evenodd" clip-rule="evenodd" d="M502.267 322.468C502.267 322.468 463.152 339.276 444.902 329.453C439.675 326.614 434.628 307.958 502.267 322.468Z" fill="#010000"/>
<path fill-rule="evenodd" clip-rule="evenodd" d="M466.307 335.22C465.586 350.901 469.101 348.468 471.038 368.971C472.931 388.529 474.688 435.619 474.914 462.386C474.148 466.532 472.615 468.199 471.173 471.624C465.676 484.962 465.27 487.486 446.299 486.585C447.966 481.448 456.708 464.414 455.312 456.573C447.11 382.986 444.902 374.379 444.992 353.109C445.082 328.19 433.546 292.095 430.212 266.319C427.147 242.436 439.675 225.312 438.864 231.351C448.417 230.269 444.451 257.937 451.616 258.343C452.427 258.478 467.704 257.442 467.704 257.442C467.704 257.442 469.191 273.799 466.307 335.22Z" fill="#EB967C"/>
<path fill-rule="evenodd" clip-rule="evenodd" d="M471.219 471.624C465.721 484.963 465.315 487.486 446.344 486.585C448.011 481.448 456.753 464.414 455.357 456.573C453.329 438.413 451.661 424.218 450.31 412.772C451.301 413.989 456.078 414.935 461.846 414.935C467.659 414.935 472.525 413.989 473.427 412.772H473.562C474.283 430.392 474.778 448.958 474.869 462.386C474.193 466.487 472.615 468.154 471.219 471.624Z" fill="#F38C1E"/>
<path d="M451.256 420.612C452.247 421.829 456.573 422.55 462.341 422.55C471.174 422.55 473.832 420.432 473.832 420.432" stroke="white" stroke-width="0.90125" stroke-miterlimit="10" stroke-linecap="round" stroke-linejoin="round"/>
<path fill-rule="evenodd" clip-rule="evenodd" d="M466.757 325.576C458.105 321.25 444.136 322.376 441.748 323.773C441.117 320.439 440.441 317.059 439.72 313.634C439.9 313.544 440.126 313.499 440.351 313.454C444.046 313.094 461.801 313.995 467.208 314.265C467.028 318.411 466.938 320.934 466.757 325.576Z" fill="#010000"/>
<path fill-rule="evenodd" clip-rule="evenodd" d="M461.53 491.587C449.228 498.166 432.69 499.158 423.317 494.246C416.603 490.956 412.277 484.422 411.916 480.096C419.487 477.257 429.896 480.502 429.896 480.502C429.896 480.502 454.05 470.588 465.09 465.901C464.459 466.127 485.594 473.562 483.431 486.36C480.952 488.478 467.478 488.388 461.53 491.587Z" fill="#E0D6DB"/>
<path fill-rule="evenodd" clip-rule="evenodd" d="M451.301 453.734L429.491 475.679C429.491 475.679 419.442 477.166 411.871 480.005C414.169 482.168 422.01 493.569 434.718 493.389C447.245 493.208 455.492 487.891 460.854 483.926C468.244 478.428 478.474 476.31 479.645 475.679C482.304 467.478 474.598 455.987 474.598 455.987C474.598 455.987 467.839 456.663 464.639 459.727C462.521 447.605 463.333 447.785 455.627 446.614C449.228 445.622 450.985 449.137 451.301 453.734Z" fill="#7581F1"/>
<path fill-rule="evenodd" clip-rule="evenodd" d="M450.58 470.181C450.58 470.181 437.196 469.099 430.122 475.138C437.151 475.318 444.091 477.346 444.091 477.346C444.136 469.775 436.656 468.333 436.656 468.333C438.729 466.531 444.181 463.737 456.799 464.007C456.799 464.007 455.041 462.565 449.318 461.574C445.172 460.853 442.514 462.295 442.514 462.295C445.893 463.286 449.904 465.765 450.58 470.181Z" stroke="white" stroke-width="0.90125" stroke-miterlimit="10" stroke-linecap="round" stroke-linejoin="round"/>
<path fill-rule="evenodd" clip-rule="evenodd" d="M552.061 484.196C541.786 468.064 538.812 462.791 535.883 461.485C527.772 434.132 515.019 395.919 509.026 377.037C502.492 356.579 507.314 354.056 500.104 338.374C471.759 276.954 468.109 259.289 468.109 259.289C468.109 259.289 478.519 250.232 479.285 250.096C486.269 249.646 478.609 236.172 488.613 237.299C486.044 232.567 504.024 249.15 511.91 282.091C528.493 351.126 556.432 464.143 556.432 464.143C556.432 464.143 561.163 473.066 567.202 479.464C570.626 483.069 573.916 485.999 576.575 488.207C562.65 490.73 554.855 488.567 552.061 484.196Z" fill="#EB967C"/>
<path fill-rule="evenodd" clip-rule="evenodd" d="M552.061 484.196C541.786 468.064 538.812 462.791 535.883 461.484C531.557 446.929 525.969 429.31 520.742 413.177C522.184 414.214 526.916 414.98 532.413 414.98C538.226 414.98 542.958 414.124 543.814 412.952C551.159 442.738 556.432 464.098 556.432 464.098C556.432 464.098 561.163 473.02 567.202 479.419C570.626 483.024 573.916 485.953 576.575 488.161C562.65 490.73 554.855 488.567 552.061 484.196Z" fill="#F38C1E"/>
<path d="M523.266 420.702C523.266 420.702 526.15 422.414 534.171 422.234C539.984 422.099 544.715 421.378 545.572 420.206" stroke="white" stroke-width="0.90125" stroke-miterlimit="10" stroke-linecap="round" stroke-linejoin="round"/>
<path fill-rule="evenodd" clip-rule="evenodd" d="M496.453 330.488C494.741 326.748 493.119 323.143 491.632 319.763L517.453 315.302C517.453 315.302 518.579 315.752 520.201 316.518C521.328 321.07 522.455 325.711 523.581 330.398C512.361 333.056 502.762 331.975 496.453 330.488Z" fill="#010000"/>
<path fill-rule="evenodd" clip-rule="evenodd" d="M573.105 497.76L558.325 498.616C551.926 498.977 545.301 496.002 542.868 492.352C541.696 490.64 537.641 488.928 536.469 488.432C531.918 486.494 530.746 485.954 530.836 482.754C530.972 475.409 536.74 467.658 536.74 467.658L574.232 482.844C574.232 482.844 581.036 483.565 582.703 488.928C583.244 491.046 582.072 497.219 573.105 497.76Z" fill="#E0D6DB"/>
<path fill-rule="evenodd" clip-rule="evenodd" d="M582.568 488.929C582.117 486.135 577.656 482.71 573.736 483.521C568.418 484.648 563.867 493.3 561.028 495.193C554.584 496.184 549.087 494.291 544.761 490.686C543.093 486.315 540.84 479.331 538.632 477.348C536.83 475.726 533.81 475.59 533.135 473.518C531.963 462.162 533.901 456.439 533.901 456.439C533.901 456.439 538.767 459.503 541.291 458.692C541.741 454.546 538.272 450.941 549.537 450.13C557.288 449.589 557.063 451.572 558.144 457.565L572.384 480.232C572.384 480.277 581.937 483.476 582.568 488.929Z" fill="#7581F1"/>
<path fill-rule="evenodd" clip-rule="evenodd" d="M550.348 471.984C550.348 471.984 563.777 470.632 568.644 476.761C561.704 477.076 554.269 479.239 554.269 479.239C556.792 471.443 564.588 469.866 564.588 469.866C563.191 468.019 558.82 465.225 546.428 465.721C546.428 465.721 548.636 464.188 554.539 463.107C558.82 462.296 560.938 463.738 560.938 463.738C557.243 464.819 552.511 467.433 550.348 471.984Z" stroke="white" stroke-width="0.90125" stroke-miterlimit="10" stroke-linecap="round" stroke-linejoin="round"/>
<path fill-rule="evenodd" clip-rule="evenodd" d="M508.395 327.064C489.784 327.83 471.94 317.285 451.571 318.412C440.982 318.998 441.883 324.856 441.883 324.856C419.667 244.509 430.212 222.429 435.935 216.706C436.16 216.345 436.43 215.985 436.701 215.624C436.701 215.624 437.016 199.131 437.016 202.556C437.016 200.303 450.715 199.267 464.865 200.168C479.014 201.114 490.46 203.683 490.46 205.891C490.46 206.026 490.415 206.116 490.37 206.251L491.271 216.886C500.194 221.167 507.043 229.458 509.567 241.806C514.749 267.131 521.643 322.513 521.643 322.513C521.643 322.513 518.399 326.613 508.395 327.064Z" fill="#ED5C18"/>
<path d="M442.874 215.218C442.874 215.218 439.449 228.827 429.085 236.352" stroke="#CC2818" stroke-width="0.90125" stroke-miterlimit="10" stroke-linecap="round" stroke-linejoin="round"/>
<path d="M459.863 200.528L460.178 213.011L460.088 254.153C460.088 254.153 448.101 248.024 451.346 230.63C454.095 215.895 453.239 213.642 453.239 213.642" stroke="#CC2818" stroke-width="0.90125" stroke-miterlimit="10" stroke-linecap="round" stroke-linejoin="round"/>
<path d="M477.212 214.001C477.212 214.001 478.203 233.243 502.086 241.084" stroke="#CC2818" stroke-width="0.90125" stroke-miterlimit="10" stroke-linecap="round" stroke-linejoin="round"/>
<path d="M483.971 202.285L484.332 214.542C494.156 221.572 506.458 230.179 519.39 324.224" stroke="#CC2818" stroke-width="0.90125" stroke-miterlimit="10" stroke-linecap="round" stroke-linejoin="round"/>
<path d="M491.587 217.876V217.831C491.542 215.443 479.194 213.28 464.008 213.055C448.822 212.829 436.61 214.587 436.656 216.975" stroke="#CC2818" stroke-width="0.90125" stroke-miterlimit="10" stroke-linecap="round" stroke-linejoin="round"/>
<path fill-rule="evenodd" clip-rule="evenodd" d="M373.568 199.944C375.506 200.124 377.083 199.583 378.119 198.592C379.561 197.69 381.229 197.78 382.806 198.321C386.05 199.403 388.844 202.287 389.926 205.351L393.306 215.084C393.666 216.166 394.838 217.022 395.919 217.022H440.351C441.432 217.022 441.973 216.166 441.613 215.084L425.39 168.355C425.03 167.273 423.858 166.417 422.776 166.417H378.345C377.263 166.417 376.723 167.273 377.083 168.355L381.139 180.026C382.22 183.135 381.409 186.019 378.886 187.056C377.669 187.596 376.047 187.641 373.929 186.74C372.442 185.884 370.819 185.388 369.287 185.388C365.006 185.388 362.888 189.083 364.871 193.454C366.403 196.879 370.098 199.583 373.568 199.944Z" fill="#9E9E9E"/>
<path fill-rule="evenodd" clip-rule="evenodd" d="M524.618 205.936C523.176 212.109 517.903 216.931 511.279 217.517C502.988 218.283 495.642 212.109 494.876 203.818C494.741 202.421 494.831 201.069 495.057 199.762C494.967 196.428 494.291 179.304 490.28 165.244C485.864 163.127 482.664 158.801 482.214 153.618C481.493 145.732 487.351 138.748 495.237 138.072C501.906 137.486 507.899 141.542 510.017 147.535C512.361 153.393 528.042 192.327 524.618 205.936Z" fill="#D3D8DC"/>
<path d="M494.606 200.348C494.606 200.348 495.868 191.066 492.488 174.438" stroke="#A8B3BC" stroke-width="0.90125" stroke-miterlimit="10" stroke-linecap="round" stroke-linejoin="round"/>
<path fill-rule="evenodd" clip-rule="evenodd" d="M512.947 217.247V217.293C512.947 217.293 474.733 223.331 472.706 212.336L465.451 212.155L467.163 189.895L474.373 190.255C474.553 190.255 474.688 190.21 474.869 190.21C475.274 190.21 475.68 190.345 476.04 190.525C480.456 184.983 487.847 185.073 494.02 186.199C498.256 186.965 501.816 187.641 504.88 188.182C506.052 187.777 507.269 187.506 508.53 187.416C512.586 187.056 516.416 188.317 519.345 190.706H519.39C522.455 193.184 524.573 196.879 524.933 201.115C525.654 208.866 520.382 215.76 512.947 217.247Z" fill="#D3D8DC"/>
<path fill-rule="evenodd" clip-rule="evenodd" d="M460.809 200.484C461.17 194.266 463.693 189.309 466.487 189.444C469.281 189.579 471.264 194.716 470.903 200.98C470.543 207.199 468.019 212.156 465.225 212.02C462.477 211.84 460.494 206.703 460.809 200.484Z" fill="#A8B3BC"/>
<path fill-rule="evenodd" clip-rule="evenodd" d="M464.82 210.307L458.06 207.783C453.013 211.343 447.831 207.513 447.831 207.513C444.496 206.116 441.342 203.818 438.999 202.241L425.03 204.764C423.678 204.99 422.371 204.133 422.145 202.782C422.055 202.196 422.146 201.655 422.416 201.159L419.532 202.151C418.225 202.601 416.828 201.925 416.377 200.619C416.062 199.672 416.332 198.681 417.008 198.005L416.738 198.095C415.431 198.546 414.034 197.87 413.584 196.563C413.178 195.346 413.719 194.039 414.89 193.499L423.633 189.443L428.004 187.415L428.815 187.055H425.255L415.657 187.01C414.305 187.01 413.178 185.883 413.178 184.531C413.178 183.224 414.169 182.188 415.431 182.053L425.03 181.197C425.03 181.197 433.952 180.746 436.565 180.971C436.565 180.971 440.486 181.197 453.464 189.037C453.464 189.037 463.468 190.389 466.397 190.57C472.165 192.057 467.478 211.524 464.82 210.307Z" fill="#EB967C"/>
<path fill-rule="evenodd" clip-rule="evenodd" d="M461.62 200.258C461.891 194.805 463.964 190.479 466.262 190.614C468.515 190.75 470.137 195.256 469.867 200.708C469.596 206.161 467.524 210.487 465.225 210.352C462.972 210.217 461.35 205.71 461.62 200.258Z" fill="#EB967C"/>
<path d="M422.461 201.16C420.839 201.746 419.532 202.197 419.532 202.197C418.225 202.647 416.828 201.971 416.378 200.664C415.972 199.448 416.513 198.141 417.684 197.6L426.426 193.545L430.798 191.517L431.924 191.021C432.465 190.796 435.169 190.03 435.754 189.895" stroke="black" stroke-width="0.90125" stroke-miterlimit="10" stroke-linecap="round" stroke-linejoin="round"/>
<path d="M433.952 203.187L425.03 204.81C423.678 205.035 422.371 204.179 422.146 202.827C421.92 201.565 422.686 200.348 423.903 199.988C423.903 199.988 436.971 194.671 438.683 195.482" stroke="black" stroke-width="0.90125" stroke-miterlimit="10" stroke-linecap="round" stroke-linejoin="round"/>
<path d="M416.738 198.141C415.431 198.591 414.034 197.915 413.584 196.608C413.178 195.392 413.719 194.085 414.891 193.544L423.633 189.489L428.004 187.461L429.13 186.965C429.671 186.74 433.637 185.478 434.222 185.343" stroke="black" stroke-width="0.90125" stroke-miterlimit="10" stroke-linecap="round" stroke-linejoin="round"/>
<path d="M475.409 190.299C478.113 190.434 480.006 195.391 479.645 201.384C479.33 207.378 476.851 212.109 474.193 211.974" stroke="#A8B3BC" stroke-width="0.90125" stroke-miterlimit="10" stroke-linecap="round" stroke-linejoin="round"/>
<path d="M467.704 189.894C467.704 189.894 471.354 190.209 475.95 190.344C480.006 186.243 484.061 185.568 489.604 185.883C497.85 186.424 501.365 187.46 505.781 188.497" stroke="#A8B3BC" stroke-width="0.90125" stroke-miterlimit="10" stroke-linecap="round" stroke-linejoin="round"/>
<path fill-rule="evenodd" clip-rule="evenodd" d="M459.998 174.346C459.998 174.346 442.559 149.066 456.483 140.594C469.641 137.034 481.177 138.296 482.619 141.811C487.621 153.617 459.998 174.346 459.998 174.346Z" fill="#ED5C18"/>
<path fill-rule="evenodd" clip-rule="evenodd" d="M482.98 142.443C483.115 145.146 478.609 147.715 472.39 148.751C470.678 149.202 468.785 149.382 466.802 149.202C459.637 149.247 453.96 147.084 453.779 144.11C453.689 142.578 455.041 141.136 457.384 139.919L458.511 118.289L476.941 121.939C476.941 121.939 477.708 132.168 478.474 138.522C481.132 139.468 482.89 140.82 482.98 142.443Z" fill="#EB967C"/>
<path fill-rule="evenodd" clip-rule="evenodd" d="M469.506 136.945C464.414 135.007 460.358 131.673 457.97 127.887L458.466 118.289L476.896 121.939C476.896 121.939 477.662 132.168 478.429 138.522C478.564 138.567 478.654 138.612 478.789 138.657C475.815 138.702 472.661 138.162 469.506 136.945Z" fill="#010000"/>
<path fill-rule="evenodd" clip-rule="evenodd" d="M478.924 80.2564C478.924 80.2564 483.34 66.3771 472.796 62.0962C466.262 59.4826 460.494 63.5382 460.494 63.5382C455.942 54.8862 437.692 50.6503 427.688 62.5018C414.35 78.3187 425.255 101.841 438.864 108.961C438.864 108.961 433.591 120.182 442.604 125.544C450.67 130.321 464.639 124.373 472.751 106.978C475.139 101.796 478.924 80.2564 478.924 80.2564Z" fill="#351015"/>
<path fill-rule="evenodd" clip-rule="evenodd" d="M481.583 67.0977C481.583 67.0977 478.654 75.3892 476.671 79.9405C486.855 78.5435 490.956 70.3422 481.583 67.0977Z" fill="#351015"/>
<path fill-rule="evenodd" clip-rule="evenodd" d="M485.368 103.6C485.368 103.6 481.222 112.432 468.199 112.567C458.06 112.657 449.724 104.23 449.634 93.6858C449.544 83.1411 457.655 74.5342 467.794 74.4441C477.933 74.354 486.27 82.7806 486.36 93.3253C485.999 97.1105 485.368 103.6 485.368 103.6Z" fill="#351015"/>
<path fill-rule="evenodd" clip-rule="evenodd" d="M488.703 109.998C487.621 113.423 485.774 115.901 483.656 115.631C483.521 115.631 483.385 115.541 483.25 115.451C481.313 122.976 476.581 127.212 472.841 129.42C471.309 130.321 469.596 130.772 467.839 130.817C466.081 130.817 464.324 130.412 462.792 129.555C458.962 127.392 454.005 123.202 451.977 115.496C451.932 115.541 451.842 115.541 451.797 115.541C449.363 115.901 447.786 113.784 446.569 110.359C445.353 106.979 445.984 103.825 447.426 103.194C449.138 102.473 451.436 103.599 452.608 106.979C452.698 107.159 452.743 107.385 452.788 107.565H452.923C452.923 107.565 453.148 101.887 453.148 93.8659C453.148 90.3961 455.807 88.188 457.88 86.9262C460.584 85.6645 463.828 84.8984 467.343 84.8984C472.255 84.8984 476.671 86.3404 479.69 88.6386C481.042 89.9004 482.124 91.6128 482.124 93.8659C482.124 101.887 482.349 107.024 482.349 107.024C483.431 103.599 485.819 102.428 487.531 103.104C488.973 103.69 489.784 106.528 488.703 109.998Z" fill="#EB967C"/>
<path d="M463.378 97.2902C463.378 97.2902 458.015 94.992 454.32 98.4618" stroke="black" stroke-width="0.90125" stroke-miterlimit="10" stroke-linecap="round" stroke-linejoin="round"/>
<path d="M470.317 97.2902C470.317 97.2902 475.68 94.992 479.375 98.4618" stroke="black" stroke-width="0.90125" stroke-miterlimit="10" stroke-linecap="round" stroke-linejoin="round"/>
<path d="M465.045 99.9043C465.541 101.391 465.856 103.915 464.459 107.159C462.657 111.35 466.442 113.378 469.326 110.539" stroke="black" stroke-width="0.90125" stroke-miterlimit="10" stroke-linecap="round" stroke-linejoin="round"/>
<path d="M449.498 107.565C448.642 108.241 447.516 111.666 450.625 112.567" stroke="black" stroke-width="0.90125" stroke-miterlimit="10" stroke-linecap="round" stroke-linejoin="round"/>
<path d="M448.507 105.04L451.301 110.763" stroke="black" stroke-width="0.90125" stroke-miterlimit="10" stroke-linecap="round" stroke-linejoin="round"/>
<path d="M485.368 107.565C486.224 108.241 487.351 111.666 484.242 112.567" stroke="black" stroke-width="0.90125" stroke-miterlimit="10" stroke-linecap="round" stroke-linejoin="round"/>
<path d="M486.36 105.04L483.566 110.763" stroke="black" stroke-width="0.90125" stroke-miterlimit="10" stroke-linecap="round" stroke-linejoin="round"/>
<path fill-rule="evenodd" clip-rule="evenodd" d="M459.592 101.526C460.268 101.481 460.899 102.427 460.944 103.599C460.989 104.77 460.494 105.762 459.773 105.762C459.097 105.807 458.466 104.861 458.421 103.689C458.376 102.517 458.871 101.571 459.592 101.526Z" fill="#010000"/>
<path fill-rule="evenodd" clip-rule="evenodd" d="M474.283 101.526C474.959 101.481 475.59 102.427 475.635 103.599C475.68 104.77 475.184 105.762 474.463 105.762C473.787 105.807 473.156 104.861 473.111 103.689C473.111 102.517 473.607 101.571 474.283 101.526Z" fill="#010000"/>
<path d="M457.069 101.933H459.863" stroke="black" stroke-width="0.90125" stroke-miterlimit="10" stroke-linecap="round" stroke-linejoin="round"/>
<path d="M474.508 101.933H477.077" stroke="black" stroke-width="0.90125" stroke-miterlimit="10" stroke-linecap="round" stroke-linejoin="round"/>
<path fill-rule="evenodd" clip-rule="evenodd" d="M467.568 114.773C470.272 114.773 472.886 114.638 475.184 114.458C474.012 118.784 471.038 121.893 467.568 121.893C464.099 121.893 461.125 118.829 459.953 114.458C462.251 114.638 464.82 114.773 467.568 114.773Z" fill="#010000"/>
<path fill-rule="evenodd" clip-rule="evenodd" d="M460.494 114.504C462.657 114.684 465.045 114.774 467.523 114.774C470.002 114.774 472.39 114.684 474.553 114.504C473.382 116.622 470.678 118.064 467.523 118.064C464.369 118.064 461.665 116.622 460.494 114.504Z" fill="#E0D6DB"/>
</svg>
