<svg width="86" height="180" viewBox="0 0 86 180" fill="none" xmlns="http://www.w3.org/2000/svg">
<circle cx="43" cy="137" r="43" fill="#ED5C18"/>
<path d="M22.1962 136.981C22.1962 135.831 23.1289 134.897 24.2795 134.897H43.0295V128.647L51.3628 136.981L43.0295 145.314V139.064H24.2795C23.1289 139.064 22.196 138.131 22.1962 136.981ZM28.4462 126.564C28.4462 121.962 32.1772 118.231 36.7795 118.231H53.4462C58.0485 118.231 61.7795 121.962 61.7795 126.564V147.397C61.7795 151.999 58.0485 155.731 53.4462 155.731H36.7795C32.1772 155.731 28.4462 151.999 28.4462 147.397C28.4462 146.247 29.3789 145.314 30.5295 145.314C31.6801 145.314 32.6128 146.247 32.6128 147.397C32.6128 149.699 34.4783 151.564 36.7795 151.564H53.4462C55.7474 151.564 57.6128 149.699 57.6128 147.397V126.564C57.6128 124.262 55.7474 122.397 53.4462 122.397H36.7795C34.4783 122.397 32.6128 124.262 32.6128 126.564C32.6128 127.714 31.6801 128.647 30.5295 128.647C29.3789 128.647 28.4462 127.714 28.4462 126.564Z" fill="white"/>
<path d="M44 9.99731L48.7735 -0.00268555H37.2265L42 9.99731H44ZM44 89.0029V85.2944H42V89.0029H44ZM44 77.8772V70.4601H42V77.8772H44ZM44 63.043V55.6258H42V63.043H44ZM44 48.2087V40.7916H42V48.2087H44ZM44 33.3744V25.9573H42V33.3744H44ZM44 18.5402V11.123H42V18.5402H44Z" fill="#33475B"/>
</svg>
