<svg width="50" height="50" viewBox="0 0 50 50" fill="none" xmlns="http://www.w3.org/2000/svg">
<path fill-rule="evenodd" clip-rule="evenodd" d="M7.5 10C7.5 8.61929 8.61929 7.5 10 7.5H17.5C18.8807 7.5 20 8.61929 20 10V17.5C20 18.8807 18.8807 20 17.5 20H10C8.61929 20 7.5 18.8807 7.5 17.5V10ZM12.5 15V12.5H15V15H12.5Z" fill="#ED5C18"/>
<path fill-rule="evenodd" clip-rule="evenodd" d="M7.5 32.5C7.5 31.1193 8.61929 30 10 30H17.5C18.8807 30 20 31.1193 20 32.5V40C20 41.3807 18.8807 42.5 17.5 42.5H10C8.61929 42.5 7.5 41.3807 7.5 40V32.5ZM12.5 37.5V35H15V37.5H12.5Z" fill="#ED5C18"/>
<path fill-rule="evenodd" clip-rule="evenodd" d="M32.5 7.5C31.1193 7.5 30 8.61929 30 10V17.5C30 18.8807 31.1193 20 32.5 20H40C41.3807 20 42.5 18.8807 42.5 17.5V10C42.5 8.61929 41.3807 7.5 40 7.5H32.5ZM35 12.5V15H37.5V12.5H35Z" fill="#ED5C18"/>
<path d="M27.5 10C27.5 8.61929 26.3807 7.5 25 7.5C23.6193 7.5 22.5 8.61929 22.5 10V12.5C22.5 13.8807 23.6193 15 25 15C26.3807 15 27.5 13.8807 27.5 12.5V10Z" fill="#ED5C18"/>
<path d="M25 17.5C26.3807 17.5 27.5 18.6193 27.5 20V22.5H32.5C33.8807 22.5 35 23.6193 35 25C35 26.3807 33.8807 27.5 32.5 27.5H25C23.6193 27.5 22.5 26.3807 22.5 25V20C22.5 18.6193 23.6193 17.5 25 17.5Z" fill="#ED5C18"/>
<path d="M40 22.5C38.6193 22.5 37.5 23.6193 37.5 25C37.5 26.3807 38.6193 27.5 40 27.5C41.3807 27.5 42.5 26.3807 42.5 25C42.5 23.6193 41.3807 22.5 40 22.5Z" fill="#ED5C18"/>
<path d="M22.5 32.5C22.5 31.1193 23.6193 30 25 30H27.5C28.8807 30 30 31.1193 30 32.5C30 33.8807 28.8807 35 27.5 35V40C27.5 41.3807 26.3807 42.5 25 42.5C23.6193 42.5 22.5 41.3807 22.5 40V32.5Z" fill="#ED5C18"/>
<path d="M17.5 27.5C18.8807 27.5 20 26.3807 20 25C20 23.6193 18.8807 22.5 17.5 22.5H10C8.61929 22.5 7.5 23.6193 7.5 25C7.5 26.3807 8.61929 27.5 10 27.5H17.5Z" fill="#ED5C18"/>
<path d="M42.5 32.5C42.5 33.8807 41.3807 35 40 35H35C33.6193 35 32.5 33.8807 32.5 32.5C32.5 31.1193 33.6193 30 35 30H40C41.3807 30 42.5 31.1193 42.5 32.5Z" fill="#ED5C18"/>
<path d="M40 42.5C41.3807 42.5 42.5 41.3807 42.5 40C42.5 38.6193 41.3807 37.5 40 37.5H32.5C31.1193 37.5 30 38.6193 30 40C30 41.3807 31.1193 42.5 32.5 42.5H40Z" fill="#ED5C18"/>
</svg>
