<svg width="50" height="50" viewBox="0 0 50 50" fill="none" xmlns="http://www.w3.org/2000/svg">
<path d="M43.5355 6.46447C41.5829 4.51184 38.4171 4.51184 36.4645 6.46447L17.5 25.4289V32.5H24.5711L43.5355 13.5355C45.4882 11.5829 45.4882 8.41709 43.5355 6.46447Z" fill="#ED5C18"/>
<path fill-rule="evenodd" clip-rule="evenodd" d="M5 15C5 12.2386 7.23858 10 10 10H20C21.3807 10 22.5 11.1193 22.5 12.5C22.5 13.8807 21.3807 15 20 15H10V40H35V30C35 28.6193 36.1193 27.5 37.5 27.5C38.8807 27.5 40 28.6193 40 30V40C40 42.7614 37.7614 45 35 45H10C7.23858 45 5 42.7614 5 40V15Z" fill="#ED5C18"/>
</svg>
