<svg width="137" height="148" viewBox="0 0 137 148" fill="none" xmlns="http://www.w3.org/2000/svg">
<path d="M21.5065 97.6646L0.94751 147.64H57.8753L21.5065 97.6646Z" fill="#2A1C28"/>
<path d="M121.758 147.522H35.8356C33.505 147.457 31.272 146.571 29.5309 145.02C27.7898 143.47 26.6526 141.354 26.3198 139.046L10.2743 9.17361C10.1109 8.11162 10.1821 7.0267 10.4828 5.99516C10.7835 4.96361 11.3066 4.01046 12.0151 3.20265C12.7236 2.39485 13.6004 1.75199 14.5839 1.3193C15.5675 0.886601 16.6338 0.674554 17.708 0.698049H103.63C105.961 0.762597 108.194 1.64843 109.935 3.19918C111.676 4.74993 112.813 6.86591 113.146 9.17361L129.192 139.046C129.355 140.108 129.283 141.193 128.982 142.224C128.682 143.256 128.159 144.209 127.45 145.016C126.742 145.824 125.865 146.467 124.882 146.9C123.898 147.333 122.832 147.545 121.758 147.522Z" fill="#573652"/>
<path d="M128.89 147.631H42.9679C40.6374 147.567 38.4047 146.681 36.6636 145.131C34.9226 143.58 33.7852 141.465 33.4521 139.157L17.4066 8.47728C17.2435 7.41533 17.3149 6.33054 17.6157 5.29912C17.9166 4.2677 18.4396 3.31465 19.148 2.50691C19.8565 1.69917 20.7331 1.05634 21.7165 0.623552C22.6999 0.190766 23.7662 -0.0214958 24.8403 0.00171818H110.763C113.093 0.0669537 115.325 0.953067 117.066 2.50373C118.807 4.05439 119.944 6.16998 120.277 8.47728L136.322 139.157C136.485 140.219 136.414 141.304 136.113 142.335C135.813 143.366 135.29 144.319 134.581 145.127C133.873 145.934 132.997 146.577 132.013 147.01C131.03 147.442 129.964 147.655 128.89 147.631Z" fill="#F2DAC0"/>
<path d="M124.872 138.195H44.672C42.5319 138.135 40.4815 137.322 38.8827 135.898C37.284 134.474 36.2395 132.531 35.9336 130.412L21.4236 12.2348C21.2738 11.2596 21.3393 10.2634 21.6157 9.31621C21.8921 8.36903 22.3726 7.49387 23.0233 6.75222C23.6741 6.01057 24.4793 5.42045 25.3825 5.02329C26.2857 4.62612 27.2649 4.43157 28.2514 4.4533H108.452C110.592 4.51255 112.642 5.3258 114.241 6.74953C115.84 8.17327 116.884 10.116 117.19 12.2348L131.7 130.412C131.85 131.387 131.785 132.383 131.509 133.331C131.232 134.278 130.752 135.154 130.101 135.895C129.45 136.637 128.645 137.227 127.742 137.625C126.838 138.022 125.859 138.217 124.872 138.195Z" fill="white"/>
<path d="M87.5216 145.346C88.7034 144.09 88.5106 141.989 87.0909 140.654C85.6712 139.318 83.5623 139.253 82.3806 140.509C81.1988 141.765 81.3916 143.866 82.8113 145.202C84.2309 146.538 86.3398 146.602 87.5216 145.346Z" fill="white"/>
<path d="M66.9571 77.5811H57.1721L58.722 87.3581H68.4991L66.9571 77.5811ZM66.6782 85.7874H60.0571L59.0072 79.1598H65.6348L66.6782 85.7874Z" fill="#2A1C28"/>
<path d="M64.452 80.4526H60.4114L61.0525 84.4933H65.0932L64.452 80.4526Z" fill="#2A1C28"/>
<path d="M70.2188 77.582L70.7348 80.8437H73.9965L73.4804 77.582H70.2188Z" fill="#2A1C28"/>
<path d="M63.0161 93.8906H59.7544L60.2705 97.1523L60.7867 100.414H64.0483L63.5323 97.1523L63.0161 93.8906Z" fill="#2A1C28"/>
<path d="M70.0566 97.1567L69.5404 93.895H66.2788L66.7948 97.1567H70.0566Z" fill="#2A1C28"/>
<path d="M65.7616 90.6279H62.5L63.016 93.8896H66.2778L65.7616 90.6279Z" fill="#2A1C28"/>
<path d="M95.6342 93.8889L95.1181 90.6272H88.5947L89.1109 93.8889H92.3725L92.8886 97.1506H96.1503L96.6664 100.412H90.143L89.6269 97.1506L89.1109 93.8889H85.8443L85.3283 90.6272H88.5899L88.0738 87.3656L87.5578 84.1039H84.296L83.78 80.8422H87.0416L86.5255 77.5806H76.7485L77.2647 80.8422H80.5263L81.0424 84.1039L81.5585 87.3656H78.2968L78.813 90.6272H82.0746L82.5907 93.8889L83.1068 97.1506H79.8451L80.3613 100.412H83.6229L84.139 103.674L84.6551 106.936H81.3934L81.9095 110.197H85.1712L85.6873 113.459L86.2034 116.721H82.9417L83.4578 119.982H93.2348L92.7187 116.721H89.4571L88.9409 113.459H92.2027L91.6865 110.197L91.1704 106.936H87.9088L87.3926 103.674H93.916L94.4321 106.936H97.705L97.1889 103.674H100.451L100.967 106.936H104.228L103.712 103.674L103.196 100.412H99.9345L99.4184 97.1506H102.674L102.158 93.8889H95.6342V93.8889Z" fill="#2A1C28"/>
<path d="M89.7839 77.582L91.3322 87.3591H101.119L99.5689 77.582H89.7839ZM99.29 85.7884H92.6689L91.6191 79.1608H98.2483L99.29 85.7884Z" fill="#2A1C28"/>
<path d="M97.0703 80.4526H93.0281L93.6691 84.4933H97.7114L97.0703 80.4526Z" fill="#2A1C28"/>
<path d="M63.8879 119.983H73.6729L72.123 110.206H62.3459L63.8879 119.983ZM64.1668 111.777H70.7959L71.8457 118.406H65.2166L64.1668 111.777Z" fill="#2A1C28"/>
<path d="M66.2165 117.11H70.2571L69.6159 113.069H65.5737L66.2165 117.11Z" fill="#2A1C28"/>
<path d="M81.9077 110.203H78.646L78.1298 106.942H81.3916L80.8754 103.68L80.3594 100.418H77.0961L76.58 97.1566H79.8417L79.3256 93.8949H76.0639L75.5478 90.6332L75.0317 87.3715H78.2982L77.7821 84.1098L77.266 80.8481H74.0043L74.5204 84.1098H71.2459L71.762 87.3715L72.278 90.6332H69.0164L69.5325 93.8949H72.7942L73.3103 97.1566H70.0486L70.5647 100.418H73.8263L74.3425 103.68H71.0856L70.5695 100.418H64.0461L64.5623 103.68H67.8239L68.34 106.942H74.8634L75.3795 110.203L75.8956 113.465H79.1573L79.6733 116.727H82.9462L82.4302 113.465L81.9077 110.203Z" fill="#2A1C28"/>
<path d="M76.9345 119.982H80.1962L79.6801 116.721H76.4185L76.9345 119.982Z" fill="#2A1C28"/>
<path d="M61.8267 106.936H65.0883L64.5723 103.674H61.3105L61.8267 106.936Z" fill="#2A1C28"/>
<path d="M96.5046 119.983H106.29L104.74 110.206H94.9531L96.5046 119.983ZM96.7835 111.777H103.413L104.462 118.406H97.8333L96.7835 111.777Z" fill="#2A1C28"/>
<path d="M98.833 117.11H102.875L102.234 113.069H98.1919L98.833 117.11Z" fill="#2A1C28"/>
<path d="M85.5795 19.4083L85.7702 20.6073C85.7989 20.7174 85.8047 20.8322 85.7873 20.9447C85.77 21.0571 85.7298 21.1648 85.6692 21.2612C85.6118 21.3328 85.5384 21.3898 85.4548 21.4277C85.3713 21.4656 85.28 21.4832 85.1884 21.4792C84.9846 21.4804 84.7887 21.4008 84.6435 21.258C84.4726 21.081 84.366 20.8519 84.3405 20.6073L83.7074 16.6099C83.6005 15.9688 83.7827 15.6482 84.2539 15.6482C84.3569 15.6419 84.46 15.6589 84.5555 15.6981C84.651 15.7372 84.7363 15.7974 84.8053 15.8742C84.9536 16.0697 85.0496 16.2997 85.0842 16.5426C85.1799 16.2941 85.3237 16.067 85.5074 15.8742C85.6984 15.7122 85.945 15.6312 86.1949 15.6482C86.5128 15.6521 86.8255 15.7294 87.1085 15.8742C87.2385 15.9227 87.3543 16.0029 87.4453 16.1076C87.5363 16.2123 87.5996 16.3382 87.6294 16.4736C87.646 16.5498 87.6444 16.6287 87.6249 16.7042C87.6054 16.7796 87.5686 16.8494 87.5172 16.908C87.4724 16.9609 87.4167 17.0035 87.3539 17.0328C87.2911 17.0621 87.2227 17.0775 87.1534 17.0779C87.0179 17.0589 86.8848 17.0262 86.7559 16.9801C86.5789 16.9211 86.3942 16.8882 86.2077 16.8824C86.03 16.8697 85.8545 16.9272 85.7189 17.0427C85.591 17.1777 85.5096 17.3501 85.4865 17.5347C85.4461 17.7912 85.4364 18.0516 85.4577 18.3104C85.4705 18.6107 85.5111 18.9767 85.5795 19.4083Z" fill="#ED4B46"/>
<path d="M52.982 14.5328L55.5465 19.7018L56.4729 14.496C56.521 14.2219 56.5594 14.0328 56.5883 13.9254C56.6204 13.8141 56.6832 13.7141 56.7694 13.6369C56.885 13.5436 57.0316 13.4978 57.1797 13.5087C57.3148 13.5091 57.4476 13.5432 57.566 13.608C57.6884 13.6722 57.7947 13.7631 57.8769 13.8741C57.9539 13.9711 58.0056 14.0856 58.0276 14.2075C58.04 14.2902 58.0427 14.3741 58.0356 14.4575C58.0285 14.5459 58.0157 14.6337 57.9972 14.7204C57.9795 14.8069 57.9619 14.8951 57.9442 14.9864L56.8752 20.024C56.8383 20.2163 56.8014 20.4007 56.763 20.5722C56.7287 20.7305 56.6749 20.8839 56.6027 21.029C56.5344 21.1609 56.4312 21.2717 56.3046 21.3495C56.1486 21.4399 55.9702 21.4838 55.7901 21.4761C55.5985 21.4802 55.4088 21.4379 55.2372 21.3527C55.0822 21.2743 54.9448 21.1652 54.8333 21.0321C54.7171 20.8887 54.6145 20.7347 54.5271 20.5722C54.4341 20.4007 54.338 20.2179 54.2402 20.0256L51.6149 15.0297C51.5684 14.9383 51.5219 14.8486 51.4738 14.7604C51.4247 14.6686 51.3813 14.5739 51.344 14.4767C51.3104 14.3934 51.2852 14.307 51.2687 14.2187C51.2544 14.1321 51.2594 14.0434 51.2832 13.9589C51.3071 13.8745 51.3491 13.7963 51.4065 13.7298C51.4679 13.6561 51.5456 13.5978 51.6335 13.5594C51.7215 13.521 51.8171 13.5036 51.9129 13.5087C52.0255 13.5008 52.1385 13.5186 52.2432 13.5608C52.3479 13.603 52.4416 13.6685 52.5172 13.7523C52.7019 13.9935 52.8579 14.2555 52.982 14.5328V14.5328Z" fill="#EF7A39"/>
<path d="M68.8739 17.2879L66.7101 20.2274H69.5245C69.7177 20.2167 69.9086 20.2734 70.0647 20.3877C70.1943 20.4892 70.2798 20.6367 70.3035 20.7996C70.3189 20.8691 70.3173 20.9413 70.2985 21.01C70.2798 21.0787 70.2446 21.1417 70.1961 21.1938C70.1287 21.2521 70.0503 21.2963 69.9655 21.3239C69.8808 21.3514 69.7913 21.3617 69.7025 21.3541H65.8109C65.5832 21.3674 65.3575 21.3042 65.1698 21.1746C65.0158 21.055 64.9156 20.8792 64.8909 20.6858C64.8731 20.5564 64.9027 20.4248 64.9742 20.3155C65.049 20.1905 65.2093 19.9619 65.4551 19.6296C65.7147 19.2791 65.9509 18.9622 66.1635 18.6791C66.3762 18.3959 66.5733 18.1288 66.755 17.8777C66.9366 17.6308 67.0868 17.4214 67.2054 17.2494C67.3224 17.0779 67.417 16.9288 67.4843 16.807H65.3493C65.1201 16.8154 64.891 16.7889 64.6697 16.7285C64.5859 16.6954 64.5136 16.6384 64.4617 16.5646C64.4099 16.4908 64.3808 16.4035 64.378 16.3134C64.3617 16.2439 64.3631 16.1715 64.3818 16.1027C64.4006 16.0338 64.4362 15.9707 64.4854 15.9191C64.6145 15.811 64.7808 15.7581 64.9486 15.7716H68.2456C68.4935 15.7603 68.7407 15.8058 68.9684 15.9047C69.0576 15.9519 69.1335 16.0206 69.1895 16.1045C69.2455 16.1885 69.2797 16.285 69.289 16.3855C69.301 16.465 69.2978 16.5461 69.2794 16.6243C69.265 16.6949 69.2402 16.763 69.2056 16.8263C69.1752 16.8792 69.1335 16.9433 69.079 17.0186C69.0245 17.0939 68.954 17.1821 68.8739 17.2879Z" fill="#F28046"/>
<path d="M70.9412 14.973C70.745 14.9742 70.5541 14.9093 70.3994 14.7886C70.3182 14.7257 70.2502 14.6473 70.1996 14.5578C70.1489 14.4684 70.1166 14.3698 70.1045 14.2677C70.0851 14.179 70.0875 14.0868 70.1115 13.9992C70.1355 13.9115 70.1804 13.831 70.2423 13.7645C70.3038 13.6992 70.3785 13.6479 70.4615 13.6138C70.5444 13.5798 70.6337 13.564 70.7232 13.5673C70.9124 13.5685 71.0959 13.6315 71.2457 13.7468C71.3281 13.8089 71.397 13.8871 71.4482 13.9767C71.4995 14.0662 71.532 14.1652 71.5438 14.2677C71.5658 14.358 71.5657 14.4522 71.5433 14.5423C71.521 14.6325 71.4772 14.7159 71.4157 14.7854C71.3543 14.8484 71.2803 14.8976 71.1985 14.93C71.1167 14.9623 71.029 14.9769 70.9412 14.973V14.973ZM71.8852 16.4555L72.5423 20.6052C72.571 20.715 72.5769 20.8296 72.5595 20.9418C72.5422 21.054 72.5019 21.1614 72.4414 21.2575C72.3846 21.33 72.3113 21.3878 72.2277 21.4263C72.1441 21.4648 72.0525 21.4827 71.9606 21.4787C71.8587 21.4796 71.7577 21.4601 71.6636 21.4213C71.5694 21.3824 71.484 21.3251 71.4124 21.2527C71.2454 21.0773 71.1401 20.8522 71.1127 20.6116L70.462 16.5052C70.4343 16.3974 70.4286 16.2851 70.4451 16.175C70.4616 16.0649 70.5001 15.9591 70.5581 15.8641C70.6146 15.7916 70.6879 15.734 70.7717 15.6963C70.8555 15.6586 70.9472 15.6419 71.0389 15.6477C71.2447 15.646 71.4433 15.7235 71.5935 15.8641C71.7565 16.0216 71.86 16.2305 71.8868 16.4555H71.8852Z" fill="#EE7A4F"/>
<path d="M73.3393 15.7682H73.4996L73.3634 14.9059C73.3271 14.6751 73.3045 14.494 73.296 14.3625C73.2856 14.2469 73.3026 14.1305 73.3457 14.0227C73.3873 13.924 73.4584 13.8406 73.5493 13.7839C73.6508 13.7213 73.7683 13.6896 73.8875 13.6926C74.0813 13.6972 74.2674 13.7698 74.4132 13.8977C74.5226 13.9845 74.6058 14.0999 74.6536 14.2311C74.7124 14.4141 74.7552 14.6017 74.7818 14.7921L74.9421 15.7714H75.4678C75.6397 15.7645 75.809 15.8152 75.9487 15.9156C76.0674 16.0056 76.1462 16.1386 76.1683 16.2859C76.1912 16.3617 76.1878 16.4429 76.1587 16.5165C76.1296 16.5901 76.0765 16.6518 76.0079 16.6914C75.8067 16.781 75.5868 16.8206 75.3669 16.8068H75.1024L75.5207 19.4466C75.5459 19.621 75.5813 19.7939 75.6265 19.9643C75.6556 20.0768 75.7155 20.1789 75.7996 20.2592C75.8979 20.3414 76.0244 20.3823 76.1522 20.373C76.2651 20.3695 76.3774 20.3545 76.4872 20.3281C76.5955 20.3023 76.7061 20.2873 76.8174 20.2832C76.9424 20.2868 77.0617 20.3364 77.1523 20.4227C77.2568 20.5101 77.3258 20.6326 77.3463 20.7673C77.3656 20.8761 77.3468 20.9883 77.2931 21.085C77.2394 21.1816 77.154 21.2568 77.0514 21.2978C76.7172 21.4403 76.3546 21.5034 75.9919 21.4821C75.6261 21.5009 75.2618 21.423 74.9357 21.2561C74.6875 21.1139 74.4927 20.8944 74.3811 20.6311C74.2469 20.2875 74.1543 19.9291 74.1054 19.5636L73.6679 16.8084H73.4787C73.3011 16.8174 73.1258 16.7653 72.9819 16.6609C72.8615 16.5705 72.7815 16.4364 72.7591 16.2875C72.7452 16.2213 72.7481 16.1527 72.7677 16.088C72.7873 16.0233 72.823 15.9646 72.8713 15.9172C73.0025 15.8094 73.17 15.756 73.3393 15.7682V15.7682Z" fill="#E9674C"/>
<path d="M82.89 18.5606C82.9579 18.9524 82.9536 19.3533 82.8772 19.7435C82.8109 20.0842 82.6629 20.4037 82.446 20.6747C82.23 20.9381 81.9518 21.1436 81.6366 21.2726C81.2712 21.418 80.8805 21.4888 80.4874 21.4809C80.0762 21.4851 79.6676 21.414 79.2821 21.271C78.9159 21.1331 78.5781 20.9294 78.2852 20.6699C77.989 20.4084 77.7429 20.095 77.5592 19.7451C77.3672 19.3752 77.2378 18.976 77.1761 18.5639C77.1063 18.1685 77.1102 17.7637 77.1873 17.3698C77.2524 17.0311 77.3987 16.7132 77.6136 16.4434C77.8301 16.1813 78.109 15.9779 78.4246 15.8519C78.7868 15.7073 79.1743 15.6365 79.5642 15.6435C79.979 15.64 80.3911 15.7111 80.7807 15.8535C81.1498 15.9896 81.4905 16.1929 81.7857 16.453C82.0813 16.7149 82.3263 17.0289 82.5085 17.3794C82.6993 17.7497 82.8282 18.1487 82.89 18.5606V18.5606ZM81.4475 18.5606C81.3905 18.0542 81.1803 17.5772 80.8449 17.1935C80.7034 17.0368 80.5301 16.9122 80.3366 16.8279C80.1432 16.7436 79.9339 16.7016 79.7229 16.7046C79.4693 16.6965 79.2204 16.7738 79.0161 16.9242C78.8154 17.0864 78.6767 17.3128 78.6234 17.5653C78.5518 17.8922 78.5463 18.23 78.6074 18.559C78.6546 18.9036 78.7632 19.2369 78.9279 19.5432C79.0678 19.8028 79.2706 20.0233 79.5177 20.1843C79.7526 20.3326 80.0253 20.41 80.3031 20.4071C80.4929 20.4195 80.6825 20.3804 80.8518 20.2937C81.0211 20.2071 81.1638 20.0762 81.2647 19.915C81.487 19.5004 81.5519 19.0194 81.4475 18.5606V18.5606Z" fill="#EC5449"/>
<path d="M60.291 16.2881C60.1312 16.4295 59.9817 16.5821 59.8438 16.7449C59.7739 16.852 59.7376 16.9776 59.7396 17.1056C59.7396 17.4261 59.7524 17.7467 59.7588 18.0768C59.7603 18.1166 59.753 18.1563 59.7373 18.1928C59.7215 18.2294 59.6978 18.2621 59.6678 18.2883C59.6379 18.3146 59.6024 18.3338 59.5641 18.3446C59.5258 18.3555 59.4855 18.3576 59.4462 18.3509C59.3556 18.3421 59.2712 18.3006 59.2087 18.2343C59.1462 18.168 59.1099 18.0813 59.1065 17.9903C59.0888 17.5672 59.076 17.1424 59.06 16.7193C59.0549 16.6431 59.0666 16.5666 59.0943 16.4955C59.1219 16.4243 59.165 16.36 59.2203 16.3073C59.4639 16.0701 59.7011 15.8265 59.9528 15.5989C60.0757 15.48 60.2215 15.3873 60.3813 15.3264C60.5411 15.2655 60.7116 15.2377 60.8824 15.2447C61.0084 15.2423 61.1327 15.2736 61.2426 15.3353C61.3525 15.397 61.4439 15.4869 61.5074 15.5957C61.6906 15.8834 61.855 16.1827 61.9995 16.4917C62.0583 16.6395 62.148 16.7731 62.2624 16.8836C62.3768 16.9941 62.5133 17.0791 62.6631 17.1328C62.9243 17.237 63.1808 17.354 63.4388 17.4694C63.5176 17.5004 63.583 17.5583 63.6234 17.6327C63.6639 17.7071 63.6768 17.7934 63.66 17.8765C63.6501 17.9148 63.6315 17.9503 63.6057 17.9803C63.5799 18.0103 63.5476 18.0339 63.5112 18.0494C63.4748 18.0649 63.4353 18.0719 63.3958 18.0697C63.3563 18.0675 63.3178 18.0562 63.2834 18.0368C62.8618 17.8589 62.4387 17.6858 62.0268 17.4838C61.8879 17.3949 61.7645 17.2839 61.6613 17.1553C61.6127 17.0883 61.5591 17.0251 61.5011 16.9661C61.4883 17.2242 61.5011 17.487 61.4594 17.7386C61.4465 17.849 61.4586 17.9609 61.4946 18.066C61.5307 18.1711 61.5899 18.2668 61.6678 18.3461C62.3089 19.125 62.9195 19.9152 63.5398 20.7038C63.785 21.0148 63.6921 21.3689 63.3539 21.4186C63.2557 21.4287 63.1566 21.4113 63.0677 21.3682C62.9788 21.3252 62.9036 21.2583 62.8506 21.175C62.3505 20.5339 61.8473 19.9088 61.3472 19.2741C60.9978 18.8318 60.6483 18.3894 60.3053 17.9422C60.2556 17.873 60.2283 17.7902 60.2269 17.705C60.2429 17.237 60.2685 16.7866 60.291 16.2881Z" fill="#444444"/>
<path d="M63.3026 21.5063C63.1988 21.5014 63.0975 21.4722 63.007 21.4209C62.9165 21.3697 62.8393 21.2979 62.7817 21.2114L62.0011 20.2273L61.2767 19.3121L61.2607 19.2913C60.9209 18.8617 60.5715 18.4194 60.2349 17.977C60.169 17.8885 60.1332 17.7812 60.1324 17.6709C60.142 17.3327 60.158 16.9961 60.1756 16.6386V16.5441C60.0845 16.6251 60.0008 16.7141 59.9256 16.8101C59.8658 16.9033 59.8346 17.012 59.8358 17.1227C59.8358 17.3246 59.8358 17.5346 59.8454 17.7366C59.8454 17.8536 59.8534 17.9722 59.855 18.0892C59.857 18.1412 59.8473 18.193 59.8266 18.2408C59.806 18.2885 59.775 18.3311 59.7359 18.3653C59.6967 18.3996 59.6504 18.4246 59.6003 18.4387C59.5502 18.4528 59.4976 18.4555 59.4463 18.4466C59.3287 18.4338 59.2196 18.3795 59.1385 18.2934C59.0575 18.2073 59.0097 18.0951 59.0039 17.977C58.9943 17.7302 58.9847 17.4834 58.9767 17.2381C58.9714 17.0608 58.9649 16.8834 58.9575 16.706C58.9514 16.6171 58.965 16.528 58.9971 16.4449C59.0292 16.3618 59.0792 16.2868 59.1434 16.2251L59.339 16.0344C59.5137 15.8629 59.6932 15.685 59.8775 15.5151C60.0084 15.3884 60.1637 15.2896 60.334 15.2248C60.5043 15.1601 60.686 15.1307 60.868 15.1384C61.0139 15.1366 61.1575 15.1736 61.2843 15.2457C61.411 15.3179 61.5164 15.4224 61.5893 15.5488L61.639 15.6321C61.807 15.8974 61.9569 16.1737 62.0877 16.4591C62.1415 16.591 62.2226 16.7101 62.3256 16.8084C62.4287 16.9068 62.5513 16.9822 62.6855 17.0298C62.9035 17.1163 63.1215 17.214 63.3267 17.3086L63.4597 17.3679C63.5621 17.4103 63.6467 17.4866 63.6993 17.5842C63.7519 17.6817 63.7692 17.7944 63.7482 17.9032C63.736 17.9512 63.7129 17.9957 63.6806 18.0333C63.6484 18.0708 63.6078 18.1004 63.5623 18.1196C63.5107 18.1391 63.4558 18.1481 63.4007 18.1459C63.3457 18.1437 63.2916 18.1304 63.2418 18.1068L63.0814 18.0411C62.716 17.8808 62.3394 17.7301 61.9739 17.5506C61.8512 17.4797 61.7426 17.3868 61.6534 17.2766L61.578 17.198C61.5763 17.3807 61.5646 17.5632 61.5428 17.7446C61.532 17.8404 61.5429 17.9375 61.5748 18.0285C61.6067 18.1195 61.6588 18.2022 61.7271 18.2703C62.2512 18.9114 62.7721 19.5782 63.2786 20.2193L63.5991 20.628C63.6657 20.7041 63.7134 20.7949 63.7381 20.893C63.7629 20.991 63.7642 21.0935 63.7418 21.1922C63.716 21.2735 63.6669 21.3455 63.6005 21.3991C63.5341 21.4527 63.4533 21.4855 63.3684 21.4935C63.3467 21.4989 63.3247 21.5032 63.3026 21.5063ZM60.4064 16.0248L60.392 16.3085C60.392 16.4346 60.3861 16.5585 60.3744 16.6803C60.3567 17.0345 60.3407 17.3711 60.331 17.7093C60.3334 17.7669 60.3523 17.8225 60.3855 17.8696C60.7221 18.3088 61.0716 18.7527 61.4098 19.1807L61.4257 19.2015L62.1502 20.1167L62.9308 21.1024C62.9717 21.1694 63.0308 21.2234 63.1011 21.2583C63.1714 21.2932 63.2502 21.3075 63.3283 21.2996C63.3826 21.2955 63.4345 21.2754 63.4773 21.2417C63.5202 21.208 63.552 21.1623 63.5687 21.1104C63.5832 21.0444 63.5816 20.9759 63.564 20.9106C63.5464 20.8453 63.5134 20.7852 63.4678 20.7354L63.1472 20.3251C62.6439 19.684 62.1214 19.022 61.5989 18.3793C61.5119 18.2881 61.446 18.179 61.4056 18.0597C61.3652 17.9404 61.3513 17.8137 61.3649 17.6885C61.386 17.514 61.3972 17.3385 61.3985 17.1628C61.3985 17.0842 61.3985 17.0025 61.3985 16.9256L61.4065 16.7541L61.554 16.8726C61.6019 16.9131 61.644 16.9601 61.679 17.0121C61.6929 17.0331 61.7084 17.0529 61.7255 17.0714L61.8056 17.1563C61.876 17.2431 61.9605 17.3174 62.0556 17.376C62.413 17.5507 62.7882 17.7077 63.1504 17.8568L63.3106 17.9225C63.3354 17.9347 63.3623 17.9419 63.3898 17.9435C63.4173 17.9452 63.4449 17.9413 63.4709 17.9321C63.494 17.9222 63.5144 17.9071 63.5306 17.8879C63.5467 17.8687 63.5582 17.8459 63.5639 17.8215C63.5749 17.7638 63.5647 17.704 63.5353 17.6531C63.5058 17.6022 63.4591 17.5636 63.4036 17.5442L63.269 17.4833C63.0606 17.3904 62.8442 17.2942 62.6278 17.2093C62.4639 17.1499 62.3142 17.057 62.1884 16.9363C62.0625 16.8157 61.9632 16.6701 61.897 16.5088C61.77 16.2324 61.6249 15.9647 61.4626 15.7074L61.4113 15.6241C61.3577 15.5327 61.2804 15.4574 61.1876 15.406C61.0948 15.3547 60.99 15.3293 60.8841 15.3324C60.7242 15.3264 60.5649 15.3529 60.4156 15.4102C60.2663 15.4675 60.1302 15.5544 60.0154 15.6658C59.8326 15.826 59.6531 16.0104 59.48 16.1803L59.2844 16.3726C59.2371 16.4171 59.2002 16.4715 59.1764 16.5319C59.1526 16.5923 59.1424 16.6572 59.1466 16.722C59.153 16.8994 59.1594 17.0767 59.1658 17.2541C59.1738 17.501 59.1819 17.7462 59.1931 17.993C59.1952 18.0562 59.2203 18.1165 59.2637 18.1626C59.307 18.2086 59.3657 18.2372 59.4287 18.243C59.4559 18.2476 59.4838 18.246 59.5104 18.2384C59.5369 18.2308 59.5616 18.2174 59.5823 18.1991C59.603 18.1809 59.6193 18.1582 59.6302 18.1328C59.6411 18.1074 59.6462 18.0799 59.6451 18.0523C59.6451 17.9353 59.6451 17.8183 59.6355 17.7013C59.6355 17.4961 59.621 17.2846 59.6258 17.0762C59.6247 16.9309 59.6671 16.7885 59.7476 16.6675C59.8385 16.5516 59.94 16.4443 60.0506 16.347C60.1003 16.3005 60.1499 16.254 60.2028 16.2011L60.4064 16.0248Z" fill="#444444"/>
<path d="M60.2138 18.5044C60.459 18.7737 60.6851 19.0221 60.9079 19.2721C60.9269 19.2956 60.9365 19.3253 60.9351 19.3555C60.9356 19.6198 60.8811 19.8812 60.7748 20.1232C60.5488 20.4774 60.3469 20.8493 60.1337 21.2131C60.1087 21.2631 60.0728 21.3068 60.0287 21.3411C59.9846 21.3754 59.9333 21.3994 59.8787 21.4112C59.8241 21.4231 59.7676 21.4225 59.7132 21.4095C59.6589 21.3966 59.6082 21.3717 59.5647 21.3365C59.5152 21.3073 59.4719 21.2686 59.4376 21.2225C59.4032 21.1764 59.3783 21.1239 59.3644 21.0681C59.3505 21.0123 59.3478 20.9543 59.3566 20.8974C59.3655 20.8406 59.3855 20.7861 59.4156 20.7371C59.6176 20.3877 59.8228 20.0431 60.0199 19.6921C60.0646 19.6088 60.0939 19.5181 60.1065 19.4244C60.1417 19.1327 60.1769 18.833 60.2138 18.5044Z" fill="#444444"/>
<path d="M59.8229 21.516C59.7003 21.5098 59.5823 21.4673 59.4838 21.394C59.3854 21.3207 59.311 21.2198 59.2699 21.1041C59.2478 21.0332 59.241 20.9584 59.2498 20.8847C59.2587 20.8109 59.283 20.7399 59.3212 20.6762C59.3933 20.5512 59.4655 20.4261 59.5392 20.3011C59.6674 20.0815 59.7988 19.8555 59.9254 19.6312C59.9649 19.5568 59.9904 19.4759 60.0008 19.3924C60.0312 19.184 60.0552 18.974 60.0809 18.7512C60.0921 18.6614 60.1017 18.5701 60.113 18.4771L60.137 18.2832L60.4351 18.6038C60.6226 18.8121 60.8022 19.0077 60.9785 19.2048C60.9991 19.2281 61.0146 19.2553 61.0242 19.2848C61.0339 19.3142 61.0374 19.3454 61.0346 19.3763C61.0234 19.442 61.0185 19.5093 61.0105 19.5798C61.0065 19.7887 60.9515 19.9934 60.8503 20.1761C60.6996 20.4117 60.5586 20.6569 60.4207 20.9022C60.3523 21.0229 60.2829 21.1431 60.2124 21.2628C60.1764 21.3363 60.1212 21.3987 60.0526 21.4433C59.984 21.4879 59.9047 21.513 59.8229 21.516ZM60.2893 18.7224L60.2797 18.8025C60.254 19.0269 60.2284 19.2385 60.198 19.4436C60.1847 19.5474 60.1526 19.6478 60.1034 19.7401C59.9768 19.9661 59.8437 20.1937 59.7155 20.4133C59.6434 20.5383 59.5697 20.6618 59.4975 20.7868C59.472 20.8283 59.4553 20.8747 59.4487 20.923C59.4421 20.9712 59.4456 21.0204 59.459 21.0672C59.4843 21.1427 59.5354 21.2069 59.6033 21.2484C59.6369 21.2758 59.6764 21.295 59.7186 21.3047C59.7609 21.3143 59.8048 21.3141 59.847 21.304C59.8891 21.294 59.9285 21.2743 59.9618 21.2466C59.9952 21.2188 60.0216 21.1838 60.0392 21.1442C60.1097 21.0256 60.1787 20.9054 60.2476 20.7852C60.387 20.5431 60.5297 20.2915 60.6819 20.0527C60.7662 19.8919 60.8109 19.7133 60.8118 19.5318C60.8118 19.4628 60.8246 19.3923 60.8358 19.3218C60.6627 19.1279 60.4848 18.9323 60.2973 18.7256L60.2893 18.7224Z" fill="#444444"/>
<path d="M61.8692 14.2074C61.8881 14.3015 61.8857 14.3986 61.8621 14.4917C61.8385 14.5848 61.7943 14.6714 61.7328 14.745C61.6713 14.8187 61.594 14.8777 61.5066 14.9175C61.4193 14.9573 61.324 14.977 61.228 14.9751C61.0146 14.9658 60.8107 14.8844 60.6497 14.744C60.4886 14.6036 60.38 14.4127 60.3417 14.2026C60.3238 14.1079 60.3275 14.0105 60.3525 13.9175C60.3774 13.8244 60.423 13.7382 60.4858 13.6652C60.5486 13.5923 60.627 13.5344 60.7153 13.4959C60.8036 13.4573 60.8994 13.4392 60.9957 13.4428C61.2062 13.4531 61.4069 13.5342 61.5655 13.673C61.7241 13.8118 61.8311 14.0001 61.8692 14.2074V14.2074Z" fill="#444444"/>
<path d="M61.2429 15.0745C61.0018 15.0645 60.7711 14.9727 60.5891 14.8142C60.407 14.6558 60.2843 14.44 60.2412 14.2025C60.2203 14.0955 60.2239 13.9851 60.2518 13.8796C60.2797 13.7742 60.3311 13.6764 60.4022 13.5937C60.4734 13.511 60.5622 13.4455 60.6623 13.4022C60.7624 13.3588 60.8711 13.3387 60.9801 13.3434C61.2181 13.3543 61.4454 13.4455 61.625 13.6021C61.8045 13.7587 61.9258 13.9714 61.969 14.2057C61.9886 14.3136 61.9843 14.4243 61.9566 14.5304C61.9289 14.6364 61.8784 14.7351 61.8087 14.8196C61.7391 14.9012 61.6523 14.9664 61.5544 15.0105C61.4566 15.0546 61.3502 15.0764 61.2429 15.0745V15.0745ZM61.0025 13.5422C60.919 13.5399 60.8361 13.5565 60.7599 13.5905C60.6837 13.6246 60.6161 13.6754 60.5621 13.7391C60.5081 13.8027 60.4691 13.8777 60.4479 13.9585C60.4268 14.0393 60.424 14.1238 60.4399 14.2057C60.4708 14.3898 60.5663 14.5569 60.7092 14.677C60.8474 14.8022 61.0261 14.8733 61.2125 14.8773V14.8773C61.2954 14.8792 61.3776 14.8626 61.4533 14.8288C61.5289 14.7949 61.5961 14.7447 61.65 14.6818C61.7045 14.6155 61.7437 14.5381 61.7648 14.455C61.7858 14.3718 61.7883 14.2851 61.7719 14.2009C61.7388 14.0204 61.6454 13.8563 61.5072 13.7355C61.3689 13.6147 61.1939 13.5443 61.0105 13.5358L61.0025 13.5422Z" fill="#444444"/>
<path d="M102.105 55.2878H47.5103C46.8317 55.2673 46.1815 55.0468 45.6675 54.6628C45.1534 54.2788 44.8063 53.7544 44.6835 53.1763L42.2877 40.0814C42.227 39.8214 42.2348 39.5528 42.3107 39.2957C42.3865 39.0387 42.5285 38.7997 42.7259 38.5967C42.9233 38.3938 43.1711 38.232 43.4508 38.1234C43.7305 38.0149 44.0348 37.9625 44.3412 37.9699H98.934C99.6127 37.9902 100.263 38.2106 100.777 38.5946C101.291 38.9786 101.638 39.5032 101.761 40.0814L104.157 53.1763C104.217 53.4362 104.209 53.7046 104.134 53.9616C104.058 54.2185 103.916 54.4574 103.719 54.6603C103.522 54.8633 103.274 55.0251 102.995 55.1337C102.715 55.2424 102.411 55.2951 102.105 55.2878Z" fill="#ED5C18"/>
<path d="M54.1467 43.9527C54.751 44.3749 55.2145 44.9689 55.4773 45.6577H54.1037C53.9164 45.3177 53.6444 45.0319 53.3139 44.8283C52.9763 44.6235 52.5876 44.5182 52.1927 44.5245C51.8763 44.517 51.5653 44.6069 51.3016 44.782C51.0475 44.9611 50.8611 45.2206 50.7727 45.5186C50.6671 45.8841 50.6488 46.2694 50.7195 46.6432C50.7763 47.0397 50.9156 47.4198 51.1282 47.7593C51.3164 48.0648 51.5778 48.3186 51.8888 48.4976C52.1845 48.6674 52.5196 48.7562 52.8606 48.7552C53.2283 48.7718 53.5911 48.6648 53.8908 48.4512C54.1587 48.2452 54.3459 47.9517 54.4197 47.6219H55.7846C55.7718 47.9441 55.6954 48.2606 55.5599 48.5532C55.4243 48.8458 55.2323 49.1087 54.9949 49.3269C54.4564 49.7695 53.7712 49.9938 53.0752 49.9553C52.4811 49.9613 51.8949 49.8184 51.37 49.5398C50.8452 49.2612 50.3985 48.8557 50.0705 48.3602C49.7247 47.8441 49.4978 47.2577 49.406 46.6432C49.3003 46.07 49.341 45.4795 49.5245 44.9262C49.6895 44.4429 50.0118 44.0289 50.4397 43.7501C50.9155 43.4583 51.4665 43.3127 52.0244 43.3311C52.7794 43.3116 53.5215 43.529 54.1467 43.9527V43.9527Z" fill="white"/>
<path d="M61.4868 43.3916L62.5171 49.9007H61.207L60.7588 47.0694H57.9756L58.4237 49.9007H57.1239L56.0938 43.3916H57.3936L57.8124 46.0289H60.5957L60.1785 43.3916H61.4868Z" fill="white"/>
<path d="M64.1311 44.4252L64.3973 46.1113H66.7015L66.8594 47.1089H64.5552L64.8317 48.8585H67.4072L67.5788 49.9007H63.6985L62.6682 43.3916H66.5487L66.7203 44.4218L64.1311 44.4252Z" fill="white"/>
<path d="M72.5563 43.9527C73.1605 44.375 73.624 44.9689 73.887 45.6576H72.522C72.3342 45.3174 72.0615 45.0317 71.7304 44.8283C71.3927 44.6235 71.0041 44.5182 70.6092 44.5244C70.2927 44.5161 69.9814 44.6061 69.7181 44.782C69.4635 44.9606 69.2771 45.2202 69.1893 45.5186C69.0845 45.8842 69.0663 46.2693 69.1361 46.6432C69.1935 47.0392 69.332 47.4192 69.543 47.7592C69.7322 48.0645 69.9941 48.3182 70.3053 48.4976C70.6016 48.6674 70.9374 48.7562 71.2789 48.7551C71.6465 48.7716 72.0092 48.6646 72.3091 48.4512C72.5768 48.2453 72.7633 47.9517 72.8361 47.6219H74.2098C74.1965 47.9442 74.1197 48.2607 73.9839 48.5532C73.8481 48.8458 73.6559 49.1087 73.4183 49.3269C72.8798 49.7695 72.1946 49.9938 71.4986 49.9553C70.9045 49.9609 70.3184 49.8179 69.7937 49.5393C69.2689 49.2607 68.8221 48.8554 68.4939 48.3602C68.1487 47.8439 67.9224 47.2575 67.8311 46.6432C67.725 46.07 67.7658 45.4793 67.9496 44.9262C68.1144 44.4427 68.4366 44.0285 68.8647 43.75C69.3407 43.4585 69.8917 43.3129 70.4496 43.3311C71.1994 43.3142 71.9358 43.5314 72.5563 43.9527V43.9527Z" fill="white"/>
<path d="M77.5377 46.5904L80.8188 49.9007H79.2426L76.3649 46.9235L76.8371 49.9007H75.5356L74.5054 43.3916H75.8052L76.2688 46.3105L78.221 43.3916H79.7886L77.5377 46.5904Z" fill="white"/>
<path d="M84.2405 46.0728L84.4122 47.1511H80.494L80.3223 46.0728H84.2405Z" fill="white"/>
<path d="M88.6377 43.3916L89.6679 49.9007H88.3682L87.3379 43.3916H88.6377Z" fill="white"/>
<path d="M96.3606 49.9007H95.0575L91.4432 45.4743L92.1437 49.9007H90.844L89.8137 43.3916H91.1135L94.7329 47.8558L94.0255 43.3916H95.3253L96.3606 49.9007Z" fill="white"/>
</svg>
