<svg width="47" height="55" viewBox="0 0 47 55" fill="none" xmlns="http://www.w3.org/2000/svg">
<path d="M37.1702 10.8564C36.6253 11.437 35.7232 11.4549 35.1515 10.919C34.5709 10.3741 34.553 9.47194 35.089 8.90028L39.0281 4.70656C39.573 4.12596 40.4796 4.1081 41.0468 4.64404C41.6274 5.18891 41.6453 6.09107 41.1093 6.66273L37.1702 10.8564ZM19.6316 10.5617C20.2122 11.1066 20.2301 12.0132 19.6942 12.5804C19.1493 13.161 18.2427 13.1788 17.6755 12.6429L13.4773 8.70376C12.9012 8.15443 12.8833 7.25227 13.4148 6.68507C13.9596 6.10447 14.8663 6.0866 15.4335 6.62254L19.6316 10.5617ZM28.4433 7.12721C28.4657 7.91326 27.8449 8.57425 27.0633 8.60104C26.2817 8.62784 25.6163 8.00258 25.5895 7.221L25.4153 1.47307C25.3885 0.691494 26.0138 0.0260382 26.7953 -0.000758695C27.5814 -0.0230894 28.2424 0.597705 28.2647 1.37928L28.4433 7.12721ZM34.3342 28.2744C33.7536 27.7296 33.7357 26.8229 34.2717 26.2557C34.8165 25.6751 35.7187 25.6573 36.2904 26.1932L40.4841 30.1323C41.0647 30.6772 41.0825 31.5794 40.5466 32.151C40.0017 32.7316 39.0996 32.7495 38.5279 32.2136L34.3342 28.2744ZM39.4613 19.8066C38.6798 19.8334 38.0143 19.2081 37.9875 18.4266C37.9652 17.645 38.586 16.9795 39.3675 16.9527L45.111 16.7607C45.8926 16.7339 46.558 17.3592 46.5848 18.1407C46.6116 18.9223 45.9864 19.5878 45.2048 19.6146L39.4613 19.8066ZM27.1884 26.3361C27.2643 26.3808 27.3402 26.4344 27.4117 26.5058L28.4344 27.5286C28.488 27.5822 28.5416 27.6536 28.5863 27.7162C29.7341 29.2882 29.5554 30.6906 28.7738 31.9679C28.9123 32.0215 29.0507 32.0975 29.1579 32.2091L30.1807 33.2319C30.2343 33.2854 30.2879 33.3569 30.3325 33.4194C31.5652 35.1166 31.257 36.5993 30.3325 37.9481C30.3772 37.9704 30.4085 38.0106 30.4576 38.0553L31.4803 39.078C31.5339 39.1316 31.5875 39.2031 31.6322 39.2656C34.0037 42.508 31.1766 45.2592 28.9078 47.4789L28.3228 48.0639L25.7905 50.7213L25.7101 50.7972C23.3921 52.9008 21.0965 53.4635 18.4392 54.1111C17.9926 54.2183 17.5459 54.3344 16.9207 54.4952C16.9028 54.4952 16.8939 54.5041 16.876 54.5041C15.4379 54.8971 14.1338 54.9909 12.9637 54.781C11.7757 54.5666 10.744 54.0352 9.88204 53.1911L1.03013 44.3436C0.136901 43.4817 -0.171263 42.4187 0.0833078 41.1548C0.275352 40.1455 0.864884 39.0244 1.78491 37.8186L4.15197 24.4469V24.3933C4.25916 23.6296 4.50033 22.4997 4.91568 21.41C5.23278 20.5927 5.66153 19.7932 6.2198 19.1456C6.89418 18.3819 7.55964 17.913 8.21616 17.6629C9.02454 17.3547 9.79718 17.3949 10.4805 17.6897C11.1192 17.9576 11.6596 18.4444 12.0704 19.0652C12.5707 19.8111 12.8967 20.7624 12.986 21.7539C13.0575 22.5712 13.2004 23.9199 13.3344 25.2419L13.4416 26.3451L23.669 16.1086C25.6341 14.1435 27.76 13.755 29.4616 14.3132C30.1449 14.5366 30.7479 14.9072 31.2481 15.4075C31.7483 15.9077 32.119 16.5106 32.3423 17.1939C32.905 18.8911 32.5209 21.0482 30.5916 22.9776L27.2018 26.3674L27.1884 26.3361Z" fill="#ED5C18"/>
</svg>
