<svg width="55" height="55" viewBox="0 0 55 55" fill="none" xmlns="http://www.w3.org/2000/svg">
<path d="M39.9161 12.2968C39.4482 12.794 38.6737 12.8093 38.1828 12.3504C37.6843 11.8838 37.669 11.1114 38.1292 10.6219L41.5112 7.03108C41.979 6.53395 42.7575 6.51865 43.2444 6.97754C43.7429 7.44408 43.7583 8.21655 43.2981 8.70603L39.9161 12.2968ZM24.8578 12.0445C25.3563 12.511 25.3716 13.2873 24.9115 13.7729C24.4436 14.2701 23.6652 14.2854 23.1782 13.8265L19.5738 10.4536C19.0791 9.98327 19.0638 9.21081 19.5201 8.72515C19.9879 8.22802 20.7663 8.21272 21.2533 8.67161L24.8578 12.0445ZM32.4233 9.10373C32.4425 9.77677 31.9095 10.3427 31.2385 10.3657C30.5674 10.3886 29.9961 9.85325 29.9731 9.18404L29.8235 4.26245C29.8005 3.59323 30.3373 3.02344 31.0084 3.0005C31.6833 2.98138 32.2508 3.51293 32.27 4.18214L32.4233 9.10373ZM37.4811 27.2108C36.9826 26.7442 36.9673 25.9679 37.4274 25.4823C37.8952 24.9851 38.6698 24.9698 39.1606 25.4287L42.7613 28.8016C43.2598 29.2681 43.2751 30.0406 42.815 30.5301C42.3472 31.0272 41.5726 31.0425 41.0818 30.5836L37.4811 27.2108ZM41.8832 19.9603C41.2121 19.9832 40.6408 19.4479 40.6178 18.7787C40.5986 18.1094 41.1316 17.5397 41.8027 17.5167L46.7339 17.3523C47.4049 17.3293 47.9763 17.8647 47.9993 18.5339C48.0223 19.2031 47.4855 19.7729 46.8144 19.7959L41.8832 19.9603ZM31.3458 25.5511C31.411 25.5893 31.4762 25.6352 31.5376 25.6964L32.4157 26.5721C32.4617 26.618 32.5077 26.6792 32.546 26.7327C33.5315 28.0788 33.3781 29.2796 32.7071 30.3733C32.826 30.4192 32.9448 30.4842 33.0369 30.5798L33.915 31.4555C33.961 31.5014 34.007 31.5626 34.0454 31.6161C35.1037 33.0692 34.8391 34.3388 34.0454 35.4937C34.0837 35.5128 34.1105 35.5472 34.1527 35.5855L35.0308 36.4612C35.0768 36.5071 35.1229 36.5683 35.1612 36.6218C37.1974 39.3981 34.7701 41.7537 32.8221 43.6543L32.3198 44.1553L30.1456 46.4306L30.0766 46.4956C28.0865 48.2967 26.1155 48.7786 23.8339 49.3331C23.4505 49.4248 23.067 49.5243 22.5302 49.6619C22.5149 49.6619 22.5072 49.6696 22.4919 49.6696C21.2571 50.0061 20.1374 50.0864 19.1328 49.9067C18.1128 49.7231 17.227 49.2681 16.4869 48.5453L8.88686 40.9698C8.11995 40.2318 7.85537 39.3216 8.07394 38.2394C8.23882 37.3752 8.74498 36.4153 9.5349 35.3828L11.5672 23.9335V23.8876C11.6592 23.2337 11.8663 22.2662 12.2229 21.3331C12.4952 20.6333 12.8633 19.9488 13.3426 19.3943C13.9216 18.7404 14.493 18.3389 15.0567 18.1247C15.7507 17.8609 16.4141 17.8953 17.0008 18.1477C17.5491 18.3771 18.0131 18.794 18.3659 19.3255C18.7953 19.9641 19.0753 20.7787 19.152 21.6276C19.2133 22.3274 19.336 23.4823 19.4511 24.6142L19.5431 25.5588L28.3242 16.794C30.0114 15.1114 31.8367 14.7787 33.2976 15.2567C33.8843 15.4479 34.402 15.7653 34.8314 16.1936C35.2609 16.6219 35.5792 17.1381 35.7709 17.7232C36.2541 19.1764 35.9243 21.0234 34.2678 22.6754L31.3573 25.5779L31.3458 25.5511Z" fill="#ED5C18"/>
</svg>
