<svg width="55" height="55" viewBox="0 0 55 55" fill="none" xmlns="http://www.w3.org/2000/svg">
<path d="M13.6403 9.16113C8.97903 9.16113 5.33075 10.339 4.68679 14.8192C4.48054 16.2538 4.93424 17.6655 5.97697 18.6853C6.49489 19.1918 7.0426 19.7945 7.76676 20.404C9.58406 21.9372 11.901 23.6605 14.0689 25.2028C20.0341 29.4424 24.7435 32.0778 27.5325 32.0778C30.3214 32.0778 35.0308 29.4424 40.996 25.2028C43.1662 23.6605 45.4831 21.9349 47.2981 20.404C48.0223 19.7945 48.57 19.194 49.0879 18.6853C50.1306 17.6655 50.5844 16.2538 50.3781 14.8192C49.7341 10.339 46.0858 9.16113 41.4246 9.16113H13.6403ZM4.61572 23.2686V36.6611C4.61572 41.7234 8.7201 45.8278 13.7824 45.8278H41.2825C46.3448 45.8278 50.4491 41.7234 50.4491 36.6611V23.2686C48.57 25.0538 46.4708 26.8963 43.5031 28.9978C37.0039 33.5995 31.1671 36.6611 27.5325 36.6611C23.8979 36.6611 18.061 33.5995 11.5618 28.9978C8.59179 26.8963 6.49489 25.0538 4.61572 23.2686Z" fill="#ED5C18"/>
</svg>
