<svg width="55" height="55" viewBox="0 0 55 55" fill="none" xmlns="http://www.w3.org/2000/svg">
<path fill-rule="evenodd" clip-rule="evenodd" d="M22.7064 8.52231C24.8091 4.78423 30.1911 4.78423 32.2938 8.52231L47.6396 35.8038C49.7019 39.4701 47.0525 44.0002 42.8459 44.0002H12.1542C7.9477 44.0002 5.29828 39.4701 7.36058 35.8038L22.7064 8.52231ZM30.2499 35.7505C30.2499 37.2693 29.0186 38.5005 27.4999 38.5005C25.9811 38.5005 24.7498 37.2693 24.7498 35.7505C24.7498 34.2318 25.9811 33.0005 27.4999 33.0005C29.0186 33.0005 30.2499 34.2318 30.2499 35.7505ZM27.4998 13.7505C25.9811 13.7505 24.7498 14.9818 24.7498 16.5005V24.7505C24.7498 26.2693 25.9811 27.5005 27.4998 27.5005C29.0186 27.5005 30.2498 26.2693 30.2498 24.7505V16.5005C30.2498 14.9818 29.0186 13.7505 27.4998 13.7505Z" fill="#ED5C18"/>
</svg>
