<svg width="55" height="55" viewBox="0 0 55 55" fill="none" xmlns="http://www.w3.org/2000/svg">
<path fill-rule="evenodd" clip-rule="evenodd" d="M8.58334 4.58337C6.3742 4.58337 4.58334 6.37423 4.58334 8.58337V46.4167C4.58334 48.6258 6.3742 50.4167 8.58334 50.4167H46.4167C48.6258 50.4167 50.4167 48.6259 50.4167 46.4167V8.58337C50.4167 6.37423 48.6258 4.58337 46.4167 4.58337H8.58334ZM33.2292 18.9063C32.28 18.9063 31.5105 19.6758 31.5105 20.625C31.5105 21.5743 32.28 22.3438 33.2292 22.3438H35.3818L30.1061 30.3913C29.875 30.7439 29.3551 30.7345 29.1369 30.3739L24.7639 23.1497C23.1608 20.5013 19.2887 20.5909 17.8099 23.3107L12.2401 33.554C11.7866 34.3879 12.0951 35.4316 12.929 35.885C13.7629 36.3385 14.8066 36.03 15.26 35.1961L20.8298 24.9528C21.0411 24.5643 21.5942 24.5515 21.8232 24.9298L26.1961 32.154C27.7242 34.6783 31.3632 34.7437 32.9809 32.276L38.5867 23.7249L39.7128 25.977C40.1373 26.826 41.1697 27.1702 42.0187 26.7457C42.8677 26.3212 43.2119 25.2888 42.7874 24.4397L41.1291 21.1232C40.4498 19.7645 39.0611 18.9063 37.5421 18.9063H33.2292Z" fill="#ED5C18"/>
</svg>
