<svg width="55" height="55" viewBox="0 0 55 55" fill="none" xmlns="http://www.w3.org/2000/svg">
<g clip-path="url(#clip0_85_85)">
<path d="M31.0597 2.05818C29.2163 2.64337 27.6264 3.60131 26.225 4.90853C25.7921 5.31386 25.6595 5.97464 25.9403 6.49726C26.9816 8.42746 25.8922 10.4919 23.5444 10.6105C22.9685 10.6405 22.4602 11.0666 22.325 11.6284C22.0923 12.5993 22 13.4126 22 14.48C22 15.3753 22.0962 16.388 22.2847 17.2899C22.4017 17.8529 22.8905 18.2583 23.4625 18.3091C25.8259 18.5137 26.9959 20.3201 25.9403 22.6256C25.7063 23.1378 25.8129 23.7504 26.225 24.1323C27.6056 25.4134 29.1916 26.3153 31.0597 26.9018C31.5927 27.0699 32.1946 26.8679 32.5222 26.4131C33.9678 24.4086 36.0647 24.4007 37.4375 26.4131C37.7612 26.8875 38.354 27.1155 38.9 26.9422C40.7031 26.374 42.3827 25.4056 43.775 24.1323C44.204 23.7413 44.3171 23.1066 44.0597 22.5852C42.9781 20.397 44.2222 18.3873 46.4556 18.3495C47.0484 18.3391 47.5762 17.9481 47.7153 17.372C47.9402 16.4375 48 15.623 48 14.48C48 13.4973 47.8843 12.5289 47.675 11.588C47.5424 10.9937 47.0237 10.5714 46.4153 10.5701C44.217 10.5662 42.9846 8.40009 44.0597 6.49726C44.3587 5.96682 44.2651 5.31777 43.8153 4.90853C42.3983 3.61826 40.6706 2.61079 38.8597 2.05818C38.3033 1.88875 37.7118 2.0973 37.3972 2.58734C36.1414 4.5423 33.7962 4.57749 32.5625 2.62774C32.2466 2.12858 31.6213 1.87833 31.0597 2.05818ZM35 9.26679C37.8717 9.26679 40.2 11.601 40.2 14.48C40.2 17.359 37.8717 19.6932 35 19.6932C32.1283 19.6932 29.8 17.359 29.8 14.48C29.8 11.601 32.1283 9.26679 35 9.26679Z" fill="#ED5C18"/>
<path d="M8.42715 27.49L3.99999 28.6763L6.5 45.7491L19.5833 50.5994C19.9665 50.7415 20.3595 50.8573 20.7623 50.9258C23.3616 51.3676 26.0281 51.244 28.5794 50.5603L46.5348 45.7492C48.9798 45.0941 50.4309 42.5809 49.7757 40.1358C49.1206 37.6907 46.6073 36.2397 44.1623 36.8949L40.6569 37.8342C38.595 38.3866 36.4328 38.4515 34.3415 38.0235L27.3132 35.8248C27.445 35.5011 27.5398 35.1564 27.5919 34.7949C27.935 32.4136 26.2929 30.2013 23.9142 29.8403L8.42715 27.49Z" fill="#ED5C18"/>
</g>
<defs>
<clipPath id="clip0_85_85">
<rect width="55" height="55" fill="white"/>
</clipPath>
</defs>
</svg>
