<svg width="86" height="86" viewBox="0 0 86 86" fill="none" xmlns="http://www.w3.org/2000/svg">
<circle cx="43" cy="43" r="43" fill="#ED5C18"/>
<path d="M52.2289 22.0718C49.5456 22.1406 46.956 23.3801 44.6873 25.6509L41.5018 28.8384C40.6893 29.6509 40.6893 30.953 41.5018 31.7655C42.3143 32.578 43.681 32.578 44.4935 31.7655L47.6123 28.578C50.631 25.5572 53.9789 25.2551 57.2977 28.578C60.6185 31.8989 60.3164 35.2489 57.2977 38.2697L50.9935 44.5801C47.9748 47.6009 44.6268 47.9009 41.3081 44.5801L40.3977 43.6697C38.4373 41.7072 35.5102 44.6343 37.4727 46.5968L38.3831 47.5072C43.4581 52.5864 49.381 52.0468 53.9185 47.5072L60.2227 41.1968C64.7602 36.6572 65.2998 30.7301 60.2227 25.6509C57.6852 23.1114 54.9102 22.0051 52.2289 22.0718ZM39.2269 34.6926C36.7248 34.8551 34.2893 36.0551 32.0768 38.2697L25.7727 44.5801C20.6956 49.6593 21.2352 55.5864 25.7727 60.126C30.3081 64.6655 36.2331 65.2051 41.3081 60.126L44.4935 56.9385C45.306 56.126 45.306 54.8239 44.4935 54.0114C43.681 53.1989 42.3143 53.1989 41.5018 54.0114L38.3831 57.1989C35.0623 60.5218 31.7164 60.2197 28.6977 57.1989C25.6789 54.178 25.3769 50.8301 28.6977 47.5072L35.0019 41.1968C36.5331 39.6655 38.0456 38.9489 39.4873 38.8551C41.231 38.7406 43.0602 39.5676 44.6873 41.1968L45.5977 42.1072C46.4102 42.9197 47.7102 42.9197 48.5227 42.1072C49.3352 41.2947 49.3352 39.9927 48.5227 39.1802L47.6123 38.2697C45.2018 35.8572 42.2977 34.4905 39.2269 34.6926Z" fill="white"/>
</svg>
