<svg width="86" height="86" viewBox="0 0 86 86" fill="none" xmlns="http://www.w3.org/2000/svg">
<circle cx="43" cy="43" r="43" fill="#ED5C18"/>
<path d="M22.1962 42.9807C22.1962 41.8307 23.1289 40.8974 24.2795 40.8974H43.0295V34.6474L51.3628 42.9807L43.0295 51.314V45.064H24.2795C23.1289 45.064 22.196 44.1307 22.1962 42.9807ZM28.4462 32.564C28.4462 27.962 32.1772 24.2307 36.7795 24.2307H53.4462C58.0485 24.2307 61.7795 27.962 61.7795 32.564V53.3974C61.7795 57.9995 58.0485 61.7307 53.4462 61.7307H36.7795C32.1772 61.7307 28.4462 57.9995 28.4462 53.3974C28.4462 52.2474 29.3789 51.314 30.5295 51.314C31.6801 51.314 32.6128 52.2474 32.6128 53.3974C32.6128 55.6995 34.4783 57.564 36.7795 57.564H53.4462C55.7474 57.564 57.6128 55.6995 57.6128 53.3974V32.564C57.6128 30.262 55.7474 28.3974 53.4462 28.3974H36.7795C34.4783 28.3974 32.6128 30.262 32.6128 32.564C32.6128 33.714 31.6801 34.6474 30.5295 34.6474C29.3789 34.6474 28.4462 33.714 28.4462 32.564Z" fill="white"/>
</svg>
