<svg width="86" height="86" viewBox="0 0 86 86" fill="none" xmlns="http://www.w3.org/2000/svg">
<circle cx="43" cy="43" r="43" fill="#ED5C18"/>
<path d="M38.8299 22.0692C35.378 22.0692 32.5799 24.8671 32.5799 28.3192V30.4025H30.4966C27.0447 30.4025 24.2466 33.2005 24.2466 36.6525V57.4859C24.2466 60.9379 27.0447 63.7359 30.4966 63.7359H55.4966C58.993 63.7442 61.7907 60.9109 61.7466 57.4859V34.5692V28.3192C61.7466 24.8671 58.9482 22.0692 55.4966 22.0692H38.8299ZM38.8299 26.2359H55.4966C56.647 26.2359 57.5799 27.1692 57.5799 28.3192V34.5692V57.4859C57.5799 58.6359 56.647 59.5692 55.4966 59.5692C54.3459 59.5692 53.413 58.6359 53.4132 57.4859V42.9025V36.6525C53.4132 33.2005 50.6149 30.4025 47.1632 30.4025H36.7466V28.3192C36.7466 27.1692 37.6793 26.2359 38.8299 26.2359ZM30.4966 34.5692H47.1632C48.3137 34.5692 49.2466 35.5025 49.2466 36.6525V42.9025V57.4859C49.2466 58.2963 49.3172 58.8546 49.598 59.565L30.4966 59.5692C29.346 59.5692 28.413 58.6359 28.4132 57.4859V36.6525C28.4132 35.5025 29.346 34.5692 30.4966 34.5692ZM32.5799 36.6525C31.4293 36.6525 30.4966 37.5859 30.4966 38.7359V42.9025C30.4964 44.0525 31.4293 44.9859 32.5799 44.9859H34.6632C35.8137 44.9859 36.7466 44.0525 36.7466 42.9025V38.7359C36.7466 37.5859 35.8137 36.6525 34.6632 36.6525H32.5799ZM40.9132 40.8192C39.7626 40.8192 38.8297 41.7525 38.8299 42.9025C38.8299 44.0525 39.7626 44.9859 40.9132 44.9859H45.0799C46.2303 44.9859 47.1632 44.0525 47.1632 42.9025C47.1632 41.7525 46.2303 40.8192 45.0799 40.8192H40.9132ZM32.5799 47.0692C31.4293 47.0692 30.4964 48.0025 30.4966 49.1525C30.4966 50.3025 31.4293 51.2359 32.5799 51.2359H45.0799C46.2303 51.2359 47.1632 50.3025 47.1632 49.1525C47.1632 48.0025 46.2303 47.0692 45.0799 47.0692H32.5799ZM32.5799 53.3192C31.4293 53.3192 30.4964 54.2525 30.4966 55.4025C30.4966 56.5525 31.4293 57.4859 32.5799 57.4859H45.0799C46.2303 57.4859 47.1632 56.5525 47.1632 55.4025C47.1632 54.2525 46.2303 53.3192 45.0799 53.3192H32.5799Z" fill="white"/>
</svg>
