<svg width="50" height="50" viewBox="0 0 50 50" fill="none" xmlns="http://www.w3.org/2000/svg">
<path d="M13.4221 9.99707C9.5024 9.99707 6.43452 10.9876 5.89301 14.755C5.71957 15.9614 6.1011 17.1485 6.97794 18.006C7.41346 18.4319 7.87403 18.9387 8.48299 19.4513C10.0112 20.7406 11.9595 22.1897 13.7825 23.4867C18.7987 27.0518 22.7589 29.2679 25.1042 29.2679C27.4494 29.2679 31.4096 27.0518 36.4258 23.4867C38.2507 22.1897 40.199 20.7386 41.7252 19.4513C42.3342 18.9387 42.7948 18.4338 43.2303 18.006C44.1071 17.1485 44.4887 15.9614 44.3152 14.755C43.7737 10.9876 40.7058 9.99707 36.7861 9.99707H13.4221ZM5.83325 21.8602V33.1221C5.83325 37.379 9.28466 40.8304 13.5416 40.8304H36.6666C40.9236 40.8304 44.375 37.379 44.375 33.1221V21.8602C42.7948 23.3614 41.0296 24.9108 38.534 26.6779C33.0688 30.5475 28.1605 33.1221 25.1042 33.1221C22.0478 33.1221 17.1395 30.5475 11.6743 26.6779C9.17676 24.9108 7.41346 23.3614 5.83325 21.8602Z" fill="#00A850"/>
</svg>
