<svg width="55" height="55" viewBox="0 0 55 55" fill="none" xmlns="http://www.w3.org/2000/svg">
<path d="M27.5135 4.61572C21.6491 4.61572 15.8031 6.87279 11.3274 11.3475C2.37848 20.2972 2.37848 34.7672 11.3274 43.7162C20.2787 52.6674 34.7483 52.6674 43.6972 43.7162C52.6485 34.7672 52.6485 20.2969 43.6972 11.3475C39.2239 6.87279 33.3778 4.61572 27.5135 4.61572ZM34.3885 18.3657C34.9751 18.3657 35.587 18.5628 36.0362 19.0101C36.9299 19.9053 36.9299 21.4095 36.0362 22.3047L26.8695 31.4718L32.0968 36.6991H18.3468V22.9491L23.5741 28.1764L32.7408 19.0101C33.1877 18.5628 33.8018 18.3657 34.3885 18.3657Z" fill="#ED5C18"/>
</svg>
