<svg width="55" height="55" viewBox="0 0 55 55" fill="none" xmlns="http://www.w3.org/2000/svg">
<path fill-rule="evenodd" clip-rule="evenodd" d="M4.58337 8.58325C4.58337 6.37411 6.37423 4.58325 8.58337 4.58325H46.4167C48.6259 4.58325 50.4167 6.37411 50.4167 8.58325V46.4166C50.4167 48.6257 48.6258 50.4166 46.4167 50.4166H8.58337C6.37423 50.4166 4.58337 48.6257 4.58337 46.4166V8.58325ZM27.4981 25.9999C25.7961 25.9989 24.4167 24.6188 24.4167 22.9166C24.4167 21.2137 25.7972 19.8333 27.5 19.8333C29.2029 19.8333 30.5834 21.2137 30.5834 22.9166C30.5834 23.745 31.2549 24.4166 32.0834 24.4166C32.9118 24.4166 33.5834 23.745 33.5834 22.9166C33.5834 20.0745 31.6344 17.6876 29 17.0196V14.8958C29 14.0673 28.3285 13.3958 27.5 13.3958C26.6716 13.3958 26 14.0673 26 14.8958V17.0196C23.3657 17.6876 21.4167 20.0745 21.4167 22.9166C21.4167 26.2763 24.1403 28.9999 27.5 28.9999C29.2029 28.9999 30.5834 30.3804 30.5834 32.0833C30.5834 33.7861 29.2029 35.1666 27.5 35.1666C25.7972 35.1666 24.4167 33.7861 24.4167 32.0833C24.4167 31.2548 23.7451 30.5833 22.9167 30.5833C22.0883 30.5833 21.4167 31.2548 21.4167 32.0833C21.4167 34.9253 23.3657 37.3122 26 37.9803V40.1041C26 40.9325 26.6716 41.6041 27.5 41.6041C28.3285 41.6041 29 40.9325 29 40.1041V37.9803C31.6344 37.3122 33.5834 34.9253 33.5834 32.0833C33.5834 28.7235 30.8598 25.9999 27.5 25.9999H27.4981Z" fill="#ED5C18"/>
</svg>
