<svg width="809" height="628" viewBox="0 0 809 628" fill="none" xmlns="http://www.w3.org/2000/svg">
<path d="M1092.3 399.657C1091.39 407.682 1090.15 415.551 1088.53 423.174C1087.18 429.574 1085.57 435.797 1083.68 441.799C1083.29 443.064 1082.89 444.323 1082.46 445.567C1076.22 464.05 1067.36 480.199 1055.56 492.374C1055.44 492.502 1055.32 492.63 1055.19 492.758L1044.67 492.9L992.925 493.589L883.586 495.051L794.217 495.669L789.71 495.652L618.256 495.012L105.001 493.589L86.6705 493.54C86.6705 493.54 74.2853 474.478 62.2978 445.4C61.7904 444.166 61.283 442.919 60.7791 441.652C55.7828 429.123 50.9503 414.904 47.2269 399.657C38.3972 363.535 35.7664 321.643 51.829 282.809C83.4617 206.329 124.287 181.507 173.083 168.318L174.255 168.005C217.129 156.604 266.113 153.891 320.381 132.919C348.06 122.223 367.221 110.314 386.194 98.7917C386.585 98.5528 386.977 98.3147 387.367 98.0772C401.387 89.5755 415.393 81.3072 432.748 73.9188C435.34 72.8103 437.95 71.7524 440.57 70.7377L440.574 70.7336C444.638 69.1569 448.741 67.6847 452.866 66.3192C454.957 65.6242 457.058 64.957 459.167 64.3201C459.231 64.3005 459.298 64.2809 459.366 64.258L459.369 64.2539C461.46 63.6218 463.561 63.0166 465.666 62.4431L465.67 62.4391C490.659 55.5573 516.522 52.4234 542.329 53.0158C595.39 54.2343 648.205 71.2288 692.643 103.896C693.035 104.182 693.426 104.47 693.817 104.763C695.403 105.942 696.988 107.144 698.554 108.366C699.397 109.026 700.24 109.693 701.084 110.365C702.339 111.372 703.594 112.351 704.855 113.312C704.923 113.366 704.99 113.421 705.058 113.472C705.732 113.99 706.414 114.502 707.088 115.01C707.48 115.303 707.871 115.591 708.262 115.88C709.106 116.505 709.956 117.117 710.799 117.722C710.981 117.856 711.17 117.988 711.359 118.117C713.336 119.533 715.32 120.892 717.303 122.204C718.558 123.039 719.82 123.851 721.081 124.647C721.351 124.815 721.621 124.986 721.891 125.151C723.126 125.927 724.367 126.684 725.608 127.422C726.384 127.891 727.174 128.348 727.956 128.8C728.118 128.89 728.28 128.988 728.435 129.078C731.053 130.577 733.664 131.993 736.262 133.328C744.21 137.415 752.11 140.783 759.977 143.551C760.368 143.692 760.753 143.828 761.144 143.961C765.583 145.491 770.009 146.834 774.422 148.008L775.589 148.317C795.762 153.559 815.652 155.355 835.312 155.804C835.703 155.812 836.095 155.819 836.479 155.827C838.436 155.867 840.392 155.893 842.336 155.909L843.509 155.921C853.353 155.978 863.129 155.769 872.858 155.56C902.497 154.921 931.596 154.284 960.216 161.182C960.607 161.277 960.999 161.37 961.39 161.468C963.347 161.952 965.297 162.475 967.246 163.033C967.638 163.142 968.029 163.256 968.42 163.372C978.008 166.199 987.548 169.957 997.034 174.938C1000.38 176.687 1003.71 178.592 1007.03 180.66C1022.03 189.974 1036.91 202.613 1051.66 219.718C1083.29 256.37 1099.73 333.331 1092.3 399.657Z" fill="#F8C1A8"/>
<path d="M967.305 493.59H648.228V399.657H978.07V492.373H978.1V493.433L967.305 493.59ZM887.455 408.72C887.455 414.406 882.84 419.018 877.158 419.018V470.097C882.84 470.097 887.455 474.709 887.455 480.399H951.511C951.511 474.709 956.12 470.097 961.809 470.097V419.018C956.12 419.018 951.511 414.406 951.511 408.72H887.455ZM793.839 408.72C793.839 414.406 789.231 419.018 783.542 419.018V470.097C789.231 470.097 793.839 474.709 793.839 480.399H857.896C857.896 474.709 862.504 470.097 868.193 470.097V419.018C862.504 419.018 857.896 414.406 857.896 408.72H793.839ZM698.988 408.72C698.988 414.406 694.373 419.018 688.691 419.018V470.097C694.373 470.097 698.988 474.709 698.988 480.399H763.044C763.044 474.709 767.659 470.097 773.341 470.097V419.018C767.659 419.018 763.044 414.406 763.044 408.72H698.988Z" fill="#F8C1A8"/>
<path d="M86.6699 493.54C86.5995 493.43 75.6431 476.544 64.3867 450.36C75.6446 476.544 86.5991 493.43 86.6699 493.54ZM61.9526 444.558C60.1915 440.252 58.4403 435.729 56.7425 431.025C58.0631 434.684 59.4149 438.232 60.7792 441.653C61.1686 442.631 61.5604 443.598 61.9526 444.558ZM56.7336 431C56.7244 430.975 56.7137 430.943 56.7045 430.918C56.7141 430.947 56.724 430.972 56.7336 431Z" fill="#ECF2FC"/>
<path d="M482.762 493.59H105.001L86.6702 493.54H86.6698C86.5991 493.43 75.6446 476.544 64.3867 450.36C63.575 448.472 62.7632 446.538 61.9526 444.558C61.5604 443.598 61.1685 442.631 60.7792 441.653C59.4149 438.232 58.0631 434.684 56.7425 431.025C56.7393 431.014 56.7364 431.007 56.7336 431C56.724 430.972 56.7141 430.947 56.7044 430.918C53.2032 421.204 49.9256 410.701 47.2269 399.657H482.762V493.59ZM381.807 408.721C381.807 414.406 377.195 419.018 371.506 419.018V470.098C377.195 470.098 381.807 474.709 381.807 480.398H445.861C445.861 474.709 450.473 470.098 456.162 470.098V419.018C450.473 419.018 445.861 414.406 445.861 408.721H381.807ZM286.955 408.721C286.955 414.406 282.344 419.018 276.656 419.018V470.098C282.344 470.098 286.955 474.709 286.955 480.398H351.012C351.012 474.709 355.623 470.098 361.312 470.098V419.018C355.623 419.018 351.012 414.406 351.012 408.721H286.955ZM193.34 408.721C193.34 414.406 188.729 419.018 183.041 419.018V470.098C188.729 470.098 193.34 474.709 193.34 480.398H257.397C257.397 474.709 262.008 470.098 267.696 470.098V419.018C262.008 419.018 257.397 414.406 257.397 408.721H193.34ZM98.4891 408.721C98.4891 414.406 93.8778 419.018 88.1895 419.018V470.098C93.8778 470.098 98.4891 474.709 98.4891 480.398H162.546C162.546 474.709 167.157 470.098 172.845 470.098V419.018C167.157 419.018 162.546 414.406 162.546 408.721H98.4891Z" fill="#F8C1A8"/>
<path d="M162.546 480.398H98.4891C98.4891 474.709 93.8778 470.098 88.1895 470.098V419.018C93.8778 419.018 98.4891 414.406 98.4891 408.721H162.546C162.546 414.406 167.157 419.018 172.845 419.018V470.098C167.157 470.098 162.546 474.709 162.546 480.398Z" fill="#B7D0F5"/>
<path d="M257.397 480.398H193.34C193.34 474.709 188.729 470.098 183.041 470.098V419.018C188.729 419.018 193.34 414.406 193.34 408.721H257.397C257.397 414.406 262.008 419.018 267.696 419.018V470.098C262.008 470.098 257.397 474.709 257.397 480.398Z" fill="#B7D0F5"/>
<path d="M351.012 480.398H286.955C286.955 474.709 282.344 470.098 276.656 470.098V419.018C282.344 419.018 286.955 414.406 286.955 408.721H351.012C351.012 414.406 355.623 419.018 361.312 419.018V470.098C355.623 470.098 351.012 474.709 351.012 480.398Z" fill="#B7D0F5"/>
<path d="M445.861 480.398H381.807C381.807 474.709 377.195 470.098 371.506 470.098V419.018C377.195 419.018 381.807 414.406 381.807 408.721H445.861C445.861 414.406 450.473 419.018 456.162 419.018V470.098C450.473 470.098 445.861 474.709 445.861 480.398Z" fill="#B7D0F5"/>
<path d="M763.044 480.399H698.985C698.985 474.71 694.373 470.098 688.689 470.098V419.018C694.373 419.018 698.985 414.406 698.985 408.721H763.044C763.044 414.406 767.655 419.018 773.339 419.018V470.098C767.655 470.098 763.044 474.71 763.044 480.399Z" fill="#B7D0F5"/>
<path d="M857.896 480.398H793.841C793.841 474.709 789.228 470.097 783.54 470.097V419.017C789.228 419.017 793.841 414.406 793.841 408.72H857.896C857.896 414.406 862.509 419.017 868.197 419.017V470.097C862.509 470.097 857.896 474.709 857.896 480.398Z" fill="#B7D0F5"/>
<path d="M296.429 445.589C311.965 445.589 328.617 445.141 346.372 444.099C391.919 441.425 423.514 436.038 423.831 435.985L423.365 432.262C423.052 432.316 391.574 437.681 346.171 440.344C304.289 442.798 241.655 443.391 181.102 432.262L180.606 435.982C206.358 440.714 245.315 445.589 296.429 445.589Z" fill="#F99746"/>
<path d="M425.64 492.342H428.364V428.045H425.64V492.342Z" fill="#1C468A"/>
<path d="M429.523 425.805C429.523 424.17 428.396 422.847 427.002 422.847C425.608 422.847 424.481 424.17 424.481 425.805C424.481 427.441 425.608 428.764 427.002 428.764C428.396 428.764 429.523 427.441 429.523 425.805Z" fill="#1C468A"/>
<path d="M424.616 492.982H429.523V491.464H424.616V492.982Z" fill="#1C468A"/>
<path d="M424.926 428.764H429.047V427.533H424.926V428.764Z" fill="#1C468A"/>
<path d="M417.839 432.803L418.486 437.24L424.254 436.134L423.535 431.814L417.839 432.803Z" fill="#1C468A"/>
<path d="M425.64 434.737L425.637 434.741C425.473 434.94 425.249 435.071 425 435.121L424.111 435.278L423.749 435.345H423.745L422.319 435.605C421.687 435.718 421.093 435.206 420.997 434.463C420.95 434.104 421.025 433.745 421.21 433.45C421.391 433.155 421.662 432.959 421.967 432.91L423.411 432.65L423.667 432.6H423.671L424.648 432.426C424.954 432.369 425.26 432.454 425.512 432.675C425.555 432.714 425.598 432.757 425.637 432.803L425.64 432.806C425.818 433.005 425.935 433.272 425.975 433.564C426.031 434.019 425.896 434.442 425.64 434.737ZM426.327 433.503C426.263 433.034 426.049 432.621 425.726 432.341L425.64 432.273L425.637 432.269C425.324 432.035 424.958 431.946 424.591 432.01L423.599 432.191L421.914 432.49L421.818 432.515H421.815H421.807L421.768 432.525C421.427 432.632 421.135 432.867 420.922 433.201C420.68 433.585 420.584 434.062 420.645 434.524C420.755 435.406 421.406 436.042 422.145 436.042C422.223 436.042 422.302 436.031 422.376 436.017L423.802 435.761L424.179 435.697L425.054 435.541C425.271 435.502 425.47 435.406 425.637 435.278L425.64 435.274C426.131 434.908 426.419 434.225 426.327 433.503Z" fill="#1C468A"/>
<path d="M172.068 435.985C171.993 435.999 170.111 436.319 166.667 436.831H166.664C155.761 438.47 129.211 442.069 94.6085 444.099C83.3449 444.76 72.523 445.18 62.1531 445.4C61.694 444.167 61.235 442.919 60.7792 441.653C72.9856 441.418 84.2986 440.935 94.4072 440.341C128.801 438.328 155.206 434.755 166.123 433.119C167.787 432.874 169.09 432.668 170.005 432.525L170.055 432.515C171.036 432.358 171.559 432.269 171.602 432.262L171.651 432.65L171.983 435.345L172.036 435.761L172.068 435.985Z" fill="#F99746"/>
<path d="M166.077 432.803L166.724 437.24L172.491 436.134L171.774 431.814L166.077 432.803Z" fill="#1C468A"/>
<path d="M173.886 434.73C173.717 434.936 173.495 435.071 173.24 435.121L172.35 435.278H172.347L171.983 435.345L170.556 435.605C169.924 435.718 169.33 435.206 169.231 434.463C169.189 434.104 169.263 433.745 169.447 433.45C169.631 433.155 169.899 432.959 170.206 432.91L171.651 432.65L171.905 432.6L172.887 432.426C173.191 432.369 173.498 432.454 173.749 432.675C173.798 432.717 173.844 432.76 173.886 432.81C174.056 433.013 174.173 433.279 174.211 433.564C174.268 434.015 174.137 434.438 173.886 434.73ZM174.565 433.503C174.501 433.034 174.289 432.621 173.957 432.341L173.886 432.28C173.576 432.038 173.202 431.946 172.831 432.01L171.838 432.191L170.153 432.49L170.055 432.515L170.005 432.525C169.666 432.632 169.373 432.867 169.161 433.201C168.917 433.585 168.822 434.062 168.882 434.524C168.995 435.406 169.645 436.042 170.383 436.042C170.461 436.042 170.538 436.031 170.616 436.017L172.036 435.761L172.417 435.697L173.293 435.541C173.509 435.502 173.71 435.406 173.886 435.274C174.371 434.904 174.657 434.218 174.565 433.503Z" fill="#1C468A"/>
<path d="M183.807 436.902L184.307 432.437L178.519 431.491L178.115 435.868L183.807 436.902Z" fill="#1C468A"/>
<path d="M181.212 434.218C181.162 434.581 181.004 434.897 180.749 435.11L180.721 435.135L180.718 435.139C180.477 435.338 180.181 435.423 179.887 435.374L178.189 435.071H178.185L177.203 434.901C176.984 434.862 176.776 434.748 176.613 434.57C176.55 434.51 176.493 434.438 176.444 434.36C176.26 434.065 176.182 433.706 176.228 433.35C176.267 433.02 176.412 432.728 176.613 432.529C176.857 432.269 177.196 432.134 177.549 432.198L178.439 432.351L180.23 432.668C180.541 432.721 180.802 432.913 180.979 433.183C181.166 433.464 181.262 433.834 181.212 434.218ZM181.049 432.664C180.894 432.508 180.714 432.387 180.513 432.312C180.438 432.287 180.361 432.266 180.283 432.248L178.475 431.942L177.602 431.786C177.245 431.722 176.903 431.807 176.613 432.01C176.228 432.269 175.946 432.728 175.875 433.286C175.815 433.756 175.917 434.229 176.158 434.609C176.281 434.808 176.437 434.968 176.613 435.089C176.779 435.206 176.963 435.278 177.157 435.313L178.15 435.484L179.838 435.782C180.117 435.832 180.393 435.786 180.647 435.662C180.756 435.608 180.862 435.541 180.961 435.448C181.29 435.164 181.505 434.751 181.562 434.278C181.643 433.649 181.431 433.048 181.049 432.664Z" fill="#1C468A"/>
<path d="M565.948 145.326C520.605 145.326 483.853 182.081 483.853 227.424V492.374H648.043V227.424C648.043 182.081 611.287 145.326 565.948 145.326Z" fill="#E6F1FF"/>
<path d="M640.091 492.9H491.806V492.374H640.091V492.9Z" fill="#D2E3FC"/>
<path d="M640.091 492.374H491.806V232.373C491.806 191.427 525.004 158.229 565.95 158.229C606.897 158.229 640.091 191.427 640.091 232.373V492.374Z" fill="#E0EDFE"/>
<path d="M811.111 445.589C793.942 445.589 775.534 445.141 755.911 444.099C705.579 441.425 670.659 436.039 670.313 435.985L670.826 432.263C671.172 432.316 705.959 437.682 756.135 440.345C802.423 442.798 871.646 443.392 938.565 432.263L939.113 435.982C910.651 440.714 867.596 445.589 811.111 445.589Z" fill="#F99746"/>
<path d="M668.31 492.342H665.297V428.046H668.31V492.342Z" fill="#1C468A"/>
<path d="M664.021 425.806C664.021 424.17 665.27 422.847 666.806 422.847C668.346 422.847 669.591 424.17 669.591 425.806C669.591 427.441 668.346 428.764 666.806 428.764C665.27 428.764 664.021 427.441 664.021 425.806Z" fill="#1C468A"/>
<path d="M669.44 492.982H664.019V491.464H669.44V492.982Z" fill="#1C468A"/>
<path d="M669.104 428.764H664.548V427.533H669.104V428.764Z" fill="#1C468A"/>
<path d="M676.934 432.803L676.22 437.24L669.845 436.134L670.638 431.814L676.934 432.803Z" fill="#1C468A"/>
<path d="M673.448 434.463C673.337 435.206 672.688 435.718 671.985 435.604L670.41 435.345L670.004 435.277L669.02 435.121C668.743 435.071 668.504 434.939 668.313 434.74C668.028 434.445 667.879 434.018 667.945 433.563C667.991 433.272 668.115 433.001 668.313 432.802C668.359 432.756 668.404 432.713 668.454 432.674C668.735 432.454 669.074 432.368 669.409 432.425L670.492 432.599H670.496L670.777 432.649L672.373 432.909C672.712 432.959 673.01 433.154 673.213 433.449C673.415 433.745 673.498 434.104 673.448 434.463ZM673.531 433.201C673.295 432.866 672.969 432.632 672.597 432.525L672.547 432.514H672.543H672.539C672.497 432.507 672.468 432.493 672.431 432.489L670.571 432.191L669.471 432.009C669.066 431.945 668.661 432.034 668.313 432.269L668.222 432.34C667.859 432.621 667.623 433.034 667.557 433.503C667.453 434.225 667.768 434.911 668.313 435.277C668.504 435.405 668.719 435.501 668.962 435.54L669.93 435.697L670.347 435.761L671.923 436.017C672.009 436.031 672.092 436.041 672.179 436.041C672.989 436.041 673.709 435.405 673.841 434.523C673.903 434.061 673.796 433.585 673.531 433.201Z" fill="#1C468A"/>
<path d="M255.736 373.413H294.301V361.708H255.736V373.413Z" fill="#B8D1F5"/>
<path d="M253.238 375.561H296.798V359.557H253.238V375.561ZM297.799 376.56H252.239V358.558H297.799V376.56Z" fill="#9EBFEF"/>
<path d="M746.946 348.822H708.38V337.117H746.946V348.822Z" fill="#B8D1F5"/>
<path d="M705.879 350.971H749.442V334.971H705.879V350.971ZM750.441 351.973H704.88V333.968H750.441V351.973Z" fill="#9EBFEF"/>
<path d="M775.072 190.085V325.103H676.705V190.085H775.072Z" fill="#AFCDFB"/>
<path d="M722.137 205.228C722.137 205.228 730.728 203.667 740.291 210.498C746.324 214.81 749.237 212.735 751.678 219.241C754.114 225.747 760.947 229.65 758.992 235.83C757.042 242.01 762.247 240.385 760.783 246.402C759.319 252.42 761.76 255.347 761.11 259.739C760.46 264.13 745.496 269.172 738.5 268.033C731.509 266.895 722.886 263.154 725.327 253.396C727.768 243.637 722.137 205.228 722.137 205.228Z" fill="#8AB7F9"/>
<path d="M707.61 212.789C707.61 212.789 715.276 201.423 731.396 206.059C731.396 206.059 737.537 208.608 739.758 219.062C742.025 229.729 734.933 237.837 731.264 235.833C728.91 234.548 727.13 238.665 727.13 238.665L707.61 212.789Z" fill="#8AB7F9"/>
<path d="M745.432 290.561C745.107 292.773 744.576 294.959 743.806 297.082C740.541 306.099 738.86 309.776 738.942 313.186C739.011 316.201 740.463 319.003 743.422 325.104H700.93C705.859 304.368 699.501 297.398 699.075 286.38C699.034 285.395 699.039 284.374 699.112 283.315C700.037 269.149 711.007 253.914 711.007 253.914C711.007 253.914 711.044 253.91 711.108 253.902C711.131 253.902 711.158 253.898 711.195 253.894C711.263 253.887 711.341 253.879 711.424 253.871C711.525 253.86 711.634 253.848 711.731 253.84C711.79 253.836 711.845 253.832 711.891 253.828C712.074 253.809 712.28 253.789 712.514 253.769C713.247 253.383 713.439 250.303 713.435 247.052C713.435 246.86 713.435 246.669 713.43 246.474C713.425 246.177 713.425 245.881 713.421 245.588C713.416 245.323 713.407 245.061 713.402 244.803C713.398 244.675 713.393 244.546 713.393 244.417C713.38 244.031 713.366 243.648 713.352 243.281C713.348 243.113 713.343 242.953 713.329 242.793C713.329 242.723 713.329 242.653 713.325 242.582C713.315 242.352 713.306 242.13 713.293 241.911C713.288 241.802 713.283 241.696 713.279 241.591C713.274 241.49 713.265 241.388 713.265 241.286C713.256 241.135 713.247 240.986 713.238 240.841L713.233 240.764C713.228 240.6 713.219 240.443 713.206 240.299C713.192 239.999 713.169 239.741 713.16 239.537C713.155 239.495 713.155 239.456 713.155 239.417C713.146 239.304 713.141 239.214 713.132 239.148C713.132 239.109 713.128 239.081 713.128 239.057L713.123 239.011L725.536 236.556L725.577 236.548L726.282 236.407L727.065 236.251V236.255C727.061 237.079 727.079 237.875 727.111 238.648C727.505 247.356 730.121 252.688 731.714 253.106C731.797 253.122 731.884 253.145 731.971 253.168H731.976C733.469 253.586 735.159 254.952 736.831 257.029C739.002 259.71 741.141 263.583 742.794 268.103C745.213 274.742 746.587 282.795 745.432 290.561Z" fill="#DCECFF"/>
<path d="M713.126 239.011C713.126 239.011 713.425 243.152 713.434 247.052C720.799 246.844 724.689 240.128 726.284 236.406L713.126 239.011Z" fill="#C6DFF7"/>
<path d="M727.646 234.972C727.646 234.972 731.501 228.877 732.427 223.664C733.088 219.943 731.195 206.149 717.334 208.136C717.334 208.136 713.304 208.532 709.522 211.088C706.513 213.121 702.168 217.509 707.026 229.546L708.289 233.612L727.646 234.972Z" fill="#8AB7F9"/>
<path d="M710.673 242.702C710.673 242.702 728.09 242.99 728.103 232.14C728.116 221.29 730.37 214.02 719.249 213.377C708.128 212.735 705.963 216.873 705.081 220.493C704.193 224.114 706.143 242.348 710.673 242.702Z" fill="#DCECFF"/>
<path d="M711.314 213.114C711.314 213.114 716.082 225.843 723.403 227.725C730.72 229.607 733.894 227.646 733.894 227.646C733.894 227.646 728.279 223.186 727.118 215.401C727.118 215.401 714.912 207.055 711.314 213.114Z" fill="#8AB7F9"/>
<path d="M712.497 214.147C712.497 214.147 708.934 216.989 708.064 219.752C707.199 222.514 706.81 228.202 705.149 228.009C705.149 228.009 701.556 219.357 705.594 214.463C709.878 209.273 712.497 214.147 712.497 214.147Z" fill="#8AB7F9"/>
<path d="M743.522 302.998C744.662 310.468 746.455 318.188 748.117 325.103H692.669C693.767 312.762 696.305 298.92 696.863 289.334C696.91 288.545 696.942 287.784 696.956 287.058C696.128 282.048 695.844 277.7 695.932 273.967C696.17 263.898 699.126 258.254 701.398 255.982C702.036 255.49 702.683 255.182 705.267 254.737C706.584 254.514 708.414 254.253 711.007 253.913C711.007 253.913 711.044 253.909 711.109 253.902C711.133 253.902 711.161 253.898 711.193 253.894C711.263 253.886 711.342 253.878 711.426 253.87C711.524 253.859 711.635 253.847 711.733 253.839C711.794 253.835 711.845 253.831 711.891 253.827C711.989 253.823 712.045 253.823 712.04 253.831C711.882 254.116 711.78 255.006 711.766 256.146C711.733 258.402 712.036 261.646 712.799 263.157C715.732 268.937 723.898 268.395 727.483 263.11C727.581 262.965 727.674 262.821 727.762 262.668C729.862 259.171 731.673 253.096 731.673 253.096L731.976 253.117C732.66 253.183 735.919 253.03 739.108 253.706C741.999 254.318 744.779 255.748 746.52 257.017L746.478 257.067C746.953 257.407 747.311 257.77 747.516 258.156C748.596 260.213 749.676 263.082 750.738 266.447C753.792 276.167 756.669 290.055 758.862 300.754C751.711 304.691 745.463 303.521 743.522 302.998Z" fill="#9EBFEF"/>
<path d="M767.068 325.103H690.291C690.004 316.054 690.479 299.446 696.86 289.334C697.533 288.271 698.272 287.278 699.077 286.379C700.959 284.271 703.232 282.638 705.966 281.696C708.357 280.875 710.653 279.844 712.842 278.667C719.75 274.955 725.604 269.796 730.014 265.127C732.964 262.013 735.275 259.12 736.833 257.028C737.774 255.759 738.447 254.788 738.809 254.233C739.03 253.901 739.148 253.722 739.148 253.722C739.148 253.722 747.929 255.674 752.809 260.553C753.412 261.154 754.099 262.684 754.833 264.905C758.946 277.255 764.734 310.977 767.068 325.103Z" fill="#F8C1A8"/>
<path d="M717.881 286.781V325.103H685.668C687.919 307.478 694.155 260.845 697.516 256.895C701.66 252.016 712.516 253.768 712.516 253.768C712.516 253.768 712.19 254.678 711.768 256.146C710.777 259.6 709.257 266.15 710.2 271.287C710.653 273.767 711.68 276.341 712.842 278.667C715.106 283.203 717.881 286.781 717.881 286.781Z" fill="#F8C1A8"/>
<path d="M707.606 212.792C707.606 212.792 711.183 210.404 719.243 213.381C727.309 216.356 728.185 228.749 728.185 228.749C728.185 228.749 731.402 225.822 731.896 223.187C732.381 220.552 729.924 211.828 727.012 209.818C722.914 206.988 717.154 206.598 713.546 207.574C709.934 208.549 707.606 212.792 707.606 212.792Z" fill="#BDD8FF"/>
<path d="M742.86 282.353C742.86 282.353 729.848 306.034 718.655 308.896C707.467 311.758 715.793 317.223 724.12 312.281C732.451 307.335 742.86 282.353 742.86 282.353Z" fill="#ABCDF4"/>
<path d="M745.265 294.13C745.265 294.13 738.429 306.426 733.551 311.304C728.672 316.182 735.942 316.822 738.942 313.185C741.945 309.548 745.265 294.13 745.265 294.13Z" fill="#ABCDF4"/>
<path d="M701.544 270.905C701.544 270.905 700.195 277.768 699.113 283.315C698.031 288.861 698.225 300.374 700.376 299.596C702.522 298.814 701.544 270.905 701.544 270.905Z" fill="#ABCDF4"/>
<path d="M771.761 321.781H680.02V194.712H771.761V321.781ZM673.382 188.076V328.42H778.399V188.076H673.382Z" fill="#8EB9ED"/>
<path d="M692.646 103.894V188.076V189.357H693.817V188.076V104.763L692.646 103.894Z" fill="#9EBFEF"/>
<path d="M759.973 143.553V188.077V189.357H761.145V188.077V143.959L759.973 143.553Z" fill="#9EBFEF"/>
<path d="M407.859 338.266L152.666 337.974L153.178 197.751H407.859V338.266Z" fill="#BDD8FF"/>
<path d="M152.146 211.376C152.146 211.376 166.979 204.741 183.373 209.815C199.767 214.889 205.622 219.572 205.622 219.572C205.622 219.572 218.503 210.594 236.068 215.671C253.633 220.745 252.853 233.236 252.853 233.236C252.853 233.236 259.749 231.025 266.254 233.364C272.76 235.707 273.02 239.611 273.02 239.611C273.02 239.611 283.689 225.037 305.288 228.162C326.887 231.284 328.188 250.541 328.188 250.541C328.188 250.541 333.262 244.166 341.264 246.31C341.264 246.31 343.606 233.432 359.417 234.21C359.417 234.21 365.856 222.111 380.69 224.649C395.521 227.185 396.303 235.771 396.303 235.771C396.303 235.771 401.96 229.332 408.989 231.871V260.17H151.755C151.755 260.17 151.755 210.985 152.146 211.376Z" fill="#DCECFF"/>
<path d="M334.173 258.609C334.173 258.609 334.397 258.41 334.833 258.09C336.92 256.554 343.88 252.209 354.536 253.336C367.417 254.705 371.712 246.506 384.008 246.115C396.303 245.727 399.229 237.528 408.989 237.919V260.17L334.173 258.609Z" fill="#9EBFEF"/>
<path d="M151.911 219.611L151.755 219.184C151.755 219.184 151.81 219.177 151.916 219.166C151.914 219.312 151.913 219.462 151.911 219.611Z" fill="#B8D1F5"/>
<path d="M322.201 256.604C312.079 255.928 301.924 254.943 292.277 253.532C273.372 250.769 249.051 249.901 225.971 249.901C190.398 249.901 157.777 251.964 152.499 252.312L152.276 220.614L151.911 219.611C151.913 219.462 151.914 219.312 151.916 219.167C152.509 219.11 154.705 218.921 157.857 218.921C165.287 218.921 178.038 219.963 187.667 226.21C202.109 235.576 220.064 228.55 233.726 235.576C247.388 242.602 261.831 236.749 272.24 242.214C282.185 247.434 289.756 252.657 300.853 252.657C301.37 252.657 301.893 252.646 302.425 252.622C304.93 252.515 307.242 252.44 309.335 252.44C316.44 252.44 321.038 253.297 322.201 256.604Z" fill="#BDD5F7"/>
<path d="M151.755 252.362C151.755 252.362 241.533 246.115 292.277 253.532C343.021 260.949 407.816 256.654 407.816 256.654V338.266H153.178C153.178 338.266 151.17 251.775 151.755 252.362Z" fill="#D2E3FC"/>
<path d="M408.598 338.266H153.178H407.816H407.859V298.347C408.346 298.397 408.598 298.421 408.598 298.421V338.266Z" fill="#B8D1F5"/>
<path d="M407.859 338.266H407.816V298.34C407.83 298.343 407.844 298.343 407.859 298.347V338.266Z" fill="#ADCBF7"/>
<path d="M407.816 338.266H153.178C153.175 338.152 151.771 266.407 152.524 266.407C152.527 266.407 152.532 266.41 152.536 266.414C152.536 266.414 251.682 266.414 306.329 280.074C356.892 292.718 401.444 297.671 407.816 298.34V338.266Z" fill="#B8D1F5"/>
<path d="M152.146 282.027C152.146 282.027 221.626 278.514 234.117 292.178C246.607 305.839 221.626 314.034 246.607 317.938C271.589 321.842 328.578 318.721 328.578 338.237H153.178C153.178 338.237 151.755 281.639 152.146 282.027Z" fill="#9EBFEF"/>
<path d="M408.708 337.981H152.618V197.836H408.708V337.981ZM140.518 185.737V350.085H420.808V185.737H140.518Z" fill="#E6F1FF"/>
<path d="M386.198 98.791V186.042H387.368V98.0763L386.198 98.791Z" fill="#9EBFEF"/>
<path d="M174.254 168.005V186.042H173.083V168.318L174.254 168.005Z" fill="#9EBFEF"/>
<path d="M570.283 245.919C571.372 248.926 572.425 251.85 572.425 251.85L550.421 251.135L536.899 245.5L535.91 245.091C536.401 244.589 536.846 244.127 537.244 243.696C540.816 239.914 541.243 238.854 541.243 238.854C541.005 237.481 540.823 236.197 540.681 234.955C540.62 234.913 540.549 234.877 540.485 234.824C540.485 234.824 540.628 233.884 538.835 227.659C538.55 226.663 538.208 225.528 537.817 224.236C537.504 223.226 537.39 222.319 537.39 221.504C537.39 219.231 538.319 217.652 538.717 216.538C538.881 216.083 539.112 215.592 538.735 215.745C537.049 216.947 529.553 210.248 528.66 206.958C529.116 206.495 529.571 206.04 530.023 205.592L529.987 205.567C529.987 205.567 536.312 198.672 539.155 197.808C540.674 197.342 543.669 197.246 545.818 197.246C547.248 197.246 548.308 197.288 548.308 197.288C548.515 197.281 548.728 197.263 548.934 197.253C550.297 197.164 551.403 196.111 551.553 194.748C551.659 193.784 551.759 192.632 551.859 191.269C551.876 190.984 551.894 190.678 551.912 190.376C552.912 189.156 562.054 192.482 562.054 192.482C562.054 192.482 562.151 192.571 562.215 192.767C562.215 193.016 562.222 193.265 562.232 193.524C562.239 194.168 562.279 194.837 562.35 195.495C562.357 195.549 562.357 195.595 562.368 195.648C562.474 196.602 563.364 197.164 564.31 197.352C564.612 197.413 564.915 197.477 565.228 197.537V197.52C565.228 197.52 575.022 198.548 576.85 200.696C578.223 202.301 579.099 204.549 579.643 206.396C579.714 206.645 579.785 206.894 579.846 207.128C579.874 211.212 577.046 217.161 572.371 223.351C572.275 223.486 572.311 223.674 572.3 223.834C572.222 224.244 572.097 224.706 571.916 225.25C570.418 229.971 568.092 236.937 567.867 236.972C567.814 238.434 567.85 239.416 567.978 239.712C568.262 240.352 569.298 243.162 570.283 245.919Z" fill="#BDD8FF"/>
<path d="M553.803 309.643C551.001 318.653 552.438 323.272 552.438 323.272C556.445 341.377 553.373 374.075 553.373 374.075H547.086C537.593 349.107 537.308 333.441 536.768 327.56C536.227 321.679 522.104 283.449 522.065 275.257C522.023 266.716 530.531 253.013 530.531 253.013C530.531 253.013 542.763 257.731 550.308 262.392C552.829 263.946 554.756 265.468 555.414 266.759C557.163 270.19 558.461 294.685 553.803 309.643Z" fill="#BDD8FF"/>
<path d="M589.75 373.15H582.691C582.691 373.15 555.164 333.356 554.22 323.24C553.033 310.586 544.191 260.645 544.191 260.645L572.43 251.853C572.43 251.853 574.898 258.2 576.967 264.6C577.868 267.39 578.693 270.191 579.203 272.48C580.336 277.529 577.152 296.619 574.981 310.187C573.906 316.872 573.078 322.219 573.136 323.887C573.298 328.95 582.579 329.608 589.75 373.15Z" fill="#BDD8FF"/>
<path d="M579.204 272.48C579.204 272.48 570.756 272.757 562.333 275.065C556.722 276.601 551.122 279.036 548.036 282.883C548.036 282.883 540.007 274.201 530.435 272.042H530.432C527.818 271.452 525.091 271.349 522.378 272.042C522.378 272.042 522.617 263.171 533.977 247.651C534.731 246.62 535.534 245.56 536.387 244.472C536.387 244.472 547.296 250.762 565.184 246.861C566.817 246.506 568.513 246.065 570.258 245.524C570.258 245.524 574.358 255.416 575.677 259.388C576.598 262.154 579.204 272.48 579.204 272.48Z" fill="#BDD8FF"/>
<path d="M547.086 374.075C547.086 374.075 546.731 378.174 546.205 379.017C545.675 379.86 543.46 382.708 540.932 383.657C538.4 384.606 531.157 384.116 530.595 386.747H556.118C556.118 386.747 556.466 382.804 555.485 380.208C554.5 377.612 553.373 374.075 553.373 374.075H547.086Z" fill="#BDD8FF"/>
<path d="M589.753 373.149C589.753 373.149 592.603 377.05 593.308 378.596C594.013 380.143 598.652 386.689 598.09 386.746C597.528 386.799 585.155 386.746 585.155 386.746C585.155 386.746 583.888 383.656 584.027 381.548C584.171 379.439 582.342 375.436 582.694 373.149C583.043 370.863 589.753 373.149 589.753 373.149Z" fill="#BDD8FF"/>
<path d="M537.248 243.697C537.123 244.337 537.01 244.945 536.903 245.5L535.911 245.087C536.402 244.589 536.85 244.124 537.248 243.697Z" fill="#BDD8FF"/>
<path d="M562.233 193.523C562.233 193.559 562.215 193.605 562.205 193.648C561.974 194.487 558.532 194.636 556.427 194.192C554.695 193.819 552.295 192.542 551.861 191.266C551.751 190.999 551.744 190.732 551.851 190.473C551.869 190.437 551.886 190.402 551.915 190.377C552.914 189.154 562.055 192.478 562.055 192.478C562.055 192.478 562.151 192.571 562.215 192.766C562.279 192.933 562.304 193.186 562.233 193.523Z" fill="#9EBFEF"/>
<path d="M553.746 224.144C553.746 224.144 556.534 227.042 560.992 226.932C565.455 226.822 568.242 222.584 567.794 221.247C567.35 219.906 562.777 222.808 559.99 222.36C557.202 221.915 552.519 221.801 553.746 224.144Z" fill="#AFCDFB"/>
<path d="M537.486 222.1C537.486 222.1 538.617 224.937 541.717 225.979C544.814 227.025 547.876 224.61 547.929 223.512C547.986 222.413 544.057 223.394 542.261 222.363C540.466 221.328 537.273 220.066 537.486 222.1Z" fill="#AFCDFB"/>
<path d="M579.278 284.353C580.193 303.564 571.701 326.669 563.221 344.614L563.214 344.631C560.448 350.473 557.682 355.771 555.248 360.212C550.566 368.724 547.085 374.076 547.085 374.076L538.026 348.351C535.796 345.674 532.894 326.722 532.894 326.722C530.221 322.708 525.16 294.163 525.16 294.163C521.297 290.149 522.083 282.124 522.083 282.124C520.407 279.671 521.522 276.101 521.522 276.101C520.854 273.096 522.38 272.044 522.38 272.044C541.289 270.438 572.423 251.851 572.423 251.851C582.523 263.051 579.278 284.353 579.278 284.353Z" fill="#AFCDFB"/>
<path d="M563.446 343.667C563.446 343.667 563.368 344.015 563.222 344.613L563.215 344.63C560.448 350.472 557.686 355.77 555.25 360.211C555.232 360.062 555.214 359.891 555.197 359.72C553.856 346.565 550.29 326.721 552.441 323.268C554.582 319.826 563.446 343.667 563.446 343.667Z" fill="#9EBFEF"/>
<path d="M574.966 254.321C574.966 254.321 549.696 273.052 539.588 278.702C529.479 284.352 544.046 284.352 553.262 275.73C562.479 267.107 574.966 254.321 574.966 254.321Z" fill="#9EBFEF"/>
<path d="M575.563 257.891C575.563 257.891 562.109 283.459 546.944 291.932C531.783 300.406 529.998 303.751 534.905 303.083C539.808 302.414 558.539 290.148 562.777 283.459C567.016 276.771 575.563 257.891 575.563 257.891Z" fill="#9EBFEF"/>
<path d="M574.966 272.16C574.966 272.16 571.101 296.839 566.941 305.462C562.777 314.084 565.75 323.3 567.535 322.706C567.535 322.706 570.358 320.698 570.358 317.8C570.358 314.902 577.124 288.292 574.966 272.16Z" fill="#9EBFEF"/>
<path d="M532.896 326.721C532.896 326.721 540.331 332.964 541.074 329.693C541.817 326.422 533.938 328.207 532.896 326.721Z" fill="#9EBFEF"/>
<path d="M525.166 294.162C525.166 294.162 528.881 294.83 531.335 293.717C533.788 292.601 534.57 289.813 532.896 290.372C531.225 290.93 528.921 294.052 525.166 294.162Z" fill="#9EBFEF"/>
<path d="M522.083 282.122C522.083 282.122 526.208 285.131 527.993 284.462C529.774 283.794 522.083 282.122 522.083 282.122Z" fill="#9EBFEF"/>
<path d="M607.456 397.182H524.059V386.927H607.456V397.182Z" fill="#9EBFEF"/>
<path d="M618.606 492.846H512.908V397.111H618.606V492.846Z" fill="#BDD8FF"/>
<path d="M585.038 425.002H546.472V413.297H585.038V425.002Z" fill="#9EBFEF"/>
<path d="M543.974 427.15H587.533V411.146H543.974V427.15ZM588.533 428.149H542.974V410.147H588.533V428.149Z" fill="#9EBFEF"/>
<path d="M671.722 361.206C671.722 361.103 673.242 357.959 672.759 357.714C672.276 357.472 671.408 357.511 671.309 358.063C671.21 358.61 671.722 361.206 671.722 361.206Z" fill="#FFB27D"/>
<path d="M694.419 322.128C694.419 322.128 703.331 311.411 708.054 318.27C708.054 318.27 711.572 319.732 712.851 325.722C714.148 331.842 710.082 336.489 707.979 335.341C706.63 334.605 705.609 336.962 705.609 336.962L694.419 322.128Z" fill="#233862"/>
<path d="M683.362 379.144C676.275 376.531 669.443 364.399 669.443 364.399L671.68 362.834C673.545 365.558 681.923 370.788 681.923 370.788C682.114 368.495 682.39 366.411 682.734 364.523C685.057 351.705 690.382 347.908 691.804 347.101C692.038 346.969 692.165 346.919 692.165 346.919C692.165 346.919 692.161 347.012 692.152 347.189C692.131 347.577 692.089 348.356 692.012 349.419C691.456 357.359 689.286 381.327 683.362 379.144Z" fill="#FFB27D"/>
<path d="M707.083 317.18C707.083 317.18 708.28 312.384 715.326 313.884C715.326 313.884 711.955 313.457 711.031 314.759C711.031 314.759 713.702 313.532 715.375 314.556C717.051 315.58 717.324 319.029 717.073 320.078C716.827 321.127 714.978 324.249 713.755 324.249C712.527 324.249 711.079 323.175 711.079 323.175L707.083 317.18Z" fill="#233862"/>
<path d="M717.622 392.237C714.117 384.382 712.444 382.16 712.386 379.689C712.342 377.733 713.305 375.625 715.176 370.455C715.618 369.239 715.918 367.984 716.108 366.718C717.587 356.751 711.821 345.978 708.241 345.242C707.248 344.979 705.553 341.381 705.575 335.578L705.125 335.667L697.585 337.16C697.585 337.16 697.757 339.535 697.761 341.772C697.766 343.635 697.651 345.402 697.232 345.623C696.689 345.672 696.371 345.704 696.371 345.704C696.371 345.704 690.08 354.44 689.551 362.561C689.021 370.686 694.583 374.217 689.506 390.452C684.324 407.032 719.556 396.575 717.622 392.237Z" fill="#FFB27D"/>
<path d="M697.584 337.161C697.584 337.161 697.753 339.536 697.757 341.773C701.979 341.652 704.212 337.801 705.124 335.668L697.584 337.161Z" fill="#E8945B"/>
<path d="M705.902 334.846C705.902 334.846 708.116 331.351 708.646 328.361C709.025 326.228 707.942 318.32 699.99 319.458C699.99 319.458 697.68 319.685 695.514 321.15C693.787 322.316 691.295 324.834 694.079 331.735L694.805 334.068L705.902 334.846Z" fill="#233862"/>
<path d="M696.174 339.278C696.174 339.278 706.165 339.442 706.17 333.22C706.178 327.001 707.472 322.83 701.091 322.464C694.72 322.094 693.479 324.466 692.966 326.542C692.463 328.618 693.578 339.072 696.174 339.278Z" fill="#FFB27D"/>
<path d="M696.545 322.311C696.545 322.311 699.279 329.611 703.475 330.688C707.675 331.766 709.494 330.642 709.494 330.642C709.494 330.642 706.273 328.086 705.603 323.624C705.603 323.624 698.608 318.837 696.545 322.311Z" fill="#233862"/>
<path d="M697.225 322.905C697.225 322.905 695.18 324.533 694.684 326.115C694.184 327.701 693.961 330.962 693.012 330.851C693.012 330.851 690.954 325.891 693.268 323.082C695.719 320.11 697.225 322.905 697.225 322.905Z" fill="#233862"/>
<path d="M705.19 467.601C702.681 477.596 698.897 485.258 698.897 485.258L695.145 485.667C695.145 485.667 697.219 477.347 697.128 466.965C697.058 459.708 696.162 451.131 693.292 442.939C683.439 414.796 704.724 416.649 704.916 425.683C705.085 433.812 705.237 439.899 705.237 439.899C708.799 447.572 707.503 458.403 705.19 467.601Z" fill="#FFB27D"/>
<path d="M730.608 400.579L727.609 401.479C727.609 401.479 717.717 385.065 716.82 380.799C716.529 379.409 715.807 376.624 714.969 373.51C713.23 367.053 710.993 359.156 710.993 359.156L710.254 355.959L707.735 345.055C707.735 345.055 712.558 345.548 715.377 346.729C716.309 347.116 717.022 347.582 717.269 348.126C719.344 352.685 721.41 364.176 722.862 372.379C723.674 376.948 724.292 380.497 724.615 381.247C725.511 383.345 728.259 394.883 730.608 400.579Z" fill="#FFB27D"/>
<path d="M719.409 466.006C718.345 477.377 713.653 484.73 713.653 484.73L712.08 485.874C712.08 485.874 710.591 477.864 709.536 468.331C708.533 459.271 707.154 449.685 705.599 446.759C699.419 435.154 697.559 391.345 697.559 391.345L716.348 390.413C718.239 393.589 719.06 398.801 719.255 404.725C719.75 419.676 716.237 439.171 715.712 441.991V441.998C715.668 442.215 715.729 442.432 715.835 442.627C719.573 450.027 720.112 458.492 719.409 466.006Z" fill="#FFB27D"/>
<path d="M696.843 323.15C696.843 323.15 698.791 330.791 704.087 333.241C704.087 333.241 698.791 328.544 698.342 323.498C697.893 318.453 696.843 323.15 696.843 323.15Z" fill="#233862"/>
<path d="M719.977 397.905C720.009 398.538 724.888 453.536 724.772 453.899C724.371 455.157 687.045 460.896 685.984 453.18C684.817 444.693 688.118 372.813 688.31 364.71C687.833 361.836 687.673 359.344 687.726 357.2C687.86 351.429 689.553 348.194 690.859 346.892C691.229 346.608 691.594 346.434 693.078 346.177C693.831 346.05 694.882 345.9 696.366 345.705L696.959 345.658C696.682 346.149 694.294 350.448 694.423 351.902C694.722 355.255 701.49 354.956 705.318 352.62C708.33 350.786 709.854 345.338 709.854 345.338C709.854 345.338 714.47 345.843 716.729 347.486L716.707 347.515C716.979 347.71 717.184 347.916 717.299 348.137C719.706 352.727 724.607 368.365 726.296 376.624C725.4 382.459 719.599 385.005 718.489 384.706C718.904 391.618 719.759 393.574 719.977 397.905Z" fill="#163560"/>
<path d="M671.679 362.835C671.679 362.529 671.938 358.067 671.143 357.128C670.347 356.193 668.727 354.86 668.22 354.903C667.709 354.942 665.714 357.591 666.311 359.621C666.913 361.655 669.44 364.4 669.44 364.4L671.679 362.835Z" fill="#FFB27D"/>
<path d="M675.327 357.794L669.532 357.922C669.337 357.929 669.179 357.776 669.175 357.584L668.922 346.53C668.918 346.338 669.072 346.178 669.262 346.174L675.057 346.042C675.256 346.039 675.41 346.188 675.418 346.384L675.667 357.435C675.671 357.627 675.517 357.787 675.327 357.794Z" fill="#F1A34F"/>
<path d="M673.824 357.825L668.565 357.945C668.226 357.952 667.94 357.682 667.932 357.341L667.696 346.827C667.688 346.486 667.957 346.202 668.3 346.194L673.559 346.073C673.898 346.066 674.18 346.336 674.188 346.678L674.424 357.192C674.436 357.533 674.167 357.818 673.824 357.825Z" fill="#D86713"/>
<path d="M691.64 379.945C691.423 379.934 689.538 380.094 687.636 380.244C685.67 380.396 683.678 380.546 683.469 380.486C682.987 380.343 682.526 379.92 682.091 379.305C679.963 376.283 678.53 368.724 678.53 368.724C679.034 365.651 682.509 364.474 683.17 361.658C686.343 348.19 691.414 346.629 691.414 346.629C691.414 346.629 695.167 380.133 691.64 379.945Z" fill="#163560"/>
<path d="M667.742 355.245C667.742 355.245 669.665 352.283 670.135 352.446C670.806 352.681 668.389 356.439 668.389 356.439C668.389 356.439 670.18 353.634 670.46 353.844C671.098 354.324 668.899 358.846 668.899 358.846L667.578 357.296L667.742 355.245Z" fill="#FFB27D"/>
<path d="M666.298 357.992C666.393 357.63 667.602 350.564 667.802 351.237C668.003 351.908 667.88 355.539 667.88 355.539L666.298 357.992Z" fill="#FFB27D"/>
<path d="M698.893 485.259L695.724 482.895C695.724 482.895 695.333 484.747 694.827 485.33C693.995 486.294 692.353 487.375 691.731 487.844C690.749 488.591 687.438 489.963 687.438 489.992C687.438 491.201 693.888 491.25 695.441 491.428C696.997 491.609 698.421 491.581 698.781 490.383C699.021 489.576 698.648 487.958 698.635 486.61C698.627 485.96 698.893 485.259 698.893 485.259Z" fill="#FFB27D"/>
<path d="M694.426 492.491C691.934 492.366 692.638 492.416 689.181 492.711C685.728 493.006 684.45 491.95 684.249 491.467C684.068 491.04 685.69 490.553 687.44 489.991L687.504 490.023C687.504 490.023 689.794 491.058 692.621 490.567C694.928 490.169 697.227 489.028 698.814 488.74C698.955 489.259 699.097 489.785 699.093 490.333C699.088 491.883 698.87 492.715 694.426 492.491Z" fill="#1C468A"/>
<path d="M716.426 478.89L711.081 479.516C711.081 479.516 711.367 483.768 711.068 484.814C710.391 487.178 708.941 487.957 707.807 488.437C706.673 488.913 703.482 489.963 703.482 489.991C703.482 491.2 709.93 491.25 711.486 491.428C713.046 491.609 714.461 491.58 714.822 490.382C715.063 489.575 714.694 487.957 714.677 486.61C714.668 485.959 716.426 478.89 716.426 478.89Z" fill="#FFB27D"/>
<path d="M710.965 492.566C708.899 492.417 708.675 492.417 705.222 492.712C701.765 493.007 700.493 491.951 700.287 491.468C700.107 491.041 701.726 490.554 703.476 489.992L703.542 490.024C703.542 490.024 705.837 491.059 708.662 490.568C710.965 490.17 713.264 489.028 714.853 488.74C714.993 489.259 715.133 489.786 715.133 490.333C715.129 491.883 714.335 492.804 710.965 492.566Z" fill="#1C468A"/>
<path d="M718.486 384.706C718.543 384.706 713.877 368.664 713.276 369.741C712.68 370.818 720.222 401.464 720.222 401.464L718.486 384.706Z" fill="#0F2949"/>
<path d="M687.692 380.215L687.637 380.243C685.67 380.396 683.677 380.546 683.47 380.485C682.987 380.343 682.526 379.92 682.091 379.305C682.717 378.487 685.132 377.641 685.983 377.072C687.061 376.353 688.855 368.542 689.215 369.978C689.574 371.415 687.692 380.215 687.692 380.215Z" fill="#0F2949"/>
<path d="M698.367 335.943C698.367 335.943 698.195 336.676 696.37 336.562C696.37 336.562 694.841 336.469 694.888 335.662C694.888 335.662 696.37 335.09 698.367 335.943Z" fill="white"/>
<path d="M730.34 400.219C730.34 400.219 733.958 402.622 734.509 403.635C735.065 404.649 736.357 408.382 736.357 408.382C736.357 408.382 735.431 408.521 734.509 406.907C733.592 405.296 730.552 405.431 729.535 404.557C728.524 403.682 727.344 401.118 727.344 401.118L730.34 400.219Z" fill="#FFB27D"/>
<path d="M727.738 401.911C727.738 401.911 728.34 404.741 729.076 405.57C729.816 406.402 730.826 407.781 731.239 407.415C731.657 407.045 730.781 403.959 730.781 403.959L727.738 401.911Z" fill="#FFB27D"/>
<path d="M734.008 403.959C734.099 404.097 737.279 407.475 737.279 407.475C737.279 407.475 736.125 407.998 735.804 407.475C735.478 406.953 734.008 403.959 734.008 403.959Z" fill="#FFB27D"/>
<path d="M358.375 345.036C358.375 345.036 370.923 357.715 371.545 362.842C372.164 367.966 365.255 375.966 365.255 375.966L358.375 345.036Z" fill="#AA3E39"/>
<path d="M351.857 485.22C351.857 485.22 351.36 492.637 349.962 492.74C349.776 492.751 342.896 492.719 342.896 492.719L333.562 492.63C333.562 492.63 334.158 490.347 336.735 489.906C339.312 489.462 343.626 487.663 345.194 484.26C346.843 480.683 351.857 485.22 351.857 485.22Z" fill="#163560"/>
<path d="M371.481 485.262C371.481 485.262 371.019 492.484 369.622 492.587C369.437 492.598 362.532 492.584 362.532 492.584L353.629 492.74C353.629 492.74 353.784 490.39 356.359 489.949C358.937 489.504 363.253 487.705 364.818 484.302C366.468 480.726 371.481 485.262 371.481 485.262Z" fill="#163560"/>
<path d="M342.267 407.565C342.267 407.565 344.54 422.307 353.08 448.49C361.621 474.674 362.766 486.006 362.766 486.006L371.99 485.767C371.99 485.767 372.132 457.173 368.196 444.007C364.263 430.84 367.446 396.575 367.446 396.575L342.267 407.565Z" fill="#163560"/>
<path d="M337.801 397.318C337.801 397.318 337.427 419.526 341.211 446.805C344.994 474.084 343.666 485.657 343.666 485.657L352.869 485.984C352.869 485.984 358.428 458.716 356.882 445.063C355.334 431.409 364.516 398.239 364.516 398.239L337.801 397.318Z" fill="#1C468A"/>
<path d="M355.733 345.381L350.821 348.584L343.737 347.247C343.836 346.675 344.309 344.307 344.74 342.159C344.766 342.031 344.792 341.907 344.816 341.782C345.185 339.955 345.504 338.387 345.504 338.387L352.129 335.482L354.6 334.397C354.593 334.436 354.404 336.424 354.377 336.716C353.903 341.871 355.733 345.381 355.733 345.381Z" fill="#FFB27D"/>
<path d="M368.046 400.123C366.61 406.616 342.922 407.334 336.829 401.424C336.135 400.752 336.108 397.627 336.379 393.414C336.909 385.179 338.582 372.798 338.659 366.473C338.697 363.415 339.124 360.289 339.689 357.456C340.892 351.407 342.717 346.664 342.717 346.664C342.717 346.664 354.295 342.949 356.459 343.592C366.88 346.678 369.486 393.634 368.046 400.123Z" fill="#B64C41"/>
<path d="M336.379 393.414C336.909 385.179 338.582 372.798 338.659 366.473C338.697 363.415 339.124 360.289 339.689 357.456L346.652 356.24C346.652 356.24 353.396 384.048 336.379 393.414Z" fill="#AA3E39"/>
<path d="M340.173 381.943C340.173 381.943 340.645 383.081 339.647 383.838C338.649 384.599 338 385.829 338.226 386.733C338.453 387.632 340.635 389.108 341.393 388.873C342.151 388.638 343.695 387.454 343.53 386.978C343.365 386.501 344.576 382.807 342.733 381.381C340.889 379.952 340.173 381.943 340.173 381.943Z" fill="#FFB27D"/>
<path d="M348.036 345.011C348.036 345.011 341.245 346.266 335.819 354.223C330.394 362.185 326.822 368.101 327.813 370.978C328.803 373.851 337.863 383.835 339.428 383.838C340.994 383.842 343.523 382.708 343.67 380.144C343.67 380.144 337.298 370.547 338.56 369.114C339.1 368.503 346.876 362.22 347.978 365.068C349.801 369.783 348.036 345.011 348.036 345.011Z" fill="#B64C41"/>
<path d="M353.881 336.804C352.422 339.265 347.001 341.381 344.74 342.159C344.766 342.031 344.792 341.907 344.816 341.782C345.185 339.955 345.504 338.387 345.504 338.387L352.129 335.482C353.592 335.464 354.482 335.791 353.881 336.804Z" fill="#FCA56B"/>
<path d="M343.009 337.978C343.009 337.978 353.665 341.327 355.648 334.66C357.632 327.994 360.341 323.933 353.624 321.515C346.905 319.094 344.82 321.241 343.616 323.307C342.413 325.373 340.289 336.936 343.009 337.978Z" fill="#FFB27D"/>
<path d="M344.037 322.664C344.037 322.664 344.7 330.429 346.306 330.099C347.912 329.764 349.369 329.515 349.129 331.855C348.889 334.195 346.656 336.893 351.604 337.32C356.551 337.743 363.691 324.996 362.34 322.578C358.432 315.599 338.386 314.148 344.037 322.664Z" fill="#163560"/>
<path d="M345.559 343.734C345.697 343.677 354.099 341.217 355.011 341.523C355.922 341.825 356.459 343.589 356.459 343.589L342.717 346.664C342.717 346.664 343.803 344.47 345.559 343.734Z" fill="#AA3E39"/>
<path d="M211.607 482.468L208.661 481.515C208.661 481.515 208.05 473.518 209.36 463.939C210.19 457.866 211.712 451.292 214.468 446.012C215.716 443.623 217.216 441.5 219.019 439.804C219.019 439.804 221.279 434.559 224.273 427.544C227.601 419.743 248.43 417.457 236.545 433.795C234.107 437.148 231.488 443.05 228.349 446.634C222.987 452.761 219.203 459.914 216.604 466.208C212.891 475.214 211.607 482.468 211.607 482.468Z" fill="#FFB27D"/>
<path d="M204.9 482.916C204.008 484.363 205.936 485.782 208.321 487.115C210.706 488.452 209.718 488.587 212.768 490.856C215.818 493.128 217.616 492.879 218.084 492.544C218.5 492.249 217.253 490.848 215.945 489.312C215.78 489.12 215.617 488.925 215.453 488.733C213.992 486.98 213.775 484.786 213.09 482.507C212.44 480.349 213.47 474.987 213.47 474.987L209.398 471.755C209.398 471.755 208.571 476.629 208.116 478.66C207.849 479.854 206.872 480.854 206.08 481.593C205.651 481.991 205.214 482.407 204.9 482.916Z" fill="#FFB27D"/>
<path d="M208.321 487.115C210.706 488.452 209.718 488.587 212.768 490.856C215.818 493.128 217.616 492.879 218.084 492.544C218.5 492.249 217.253 490.848 215.945 489.312L215.905 489.33C215.905 489.33 213.152 488.96 210.799 486.87C208.881 485.167 207.395 482.777 206.08 481.593C205.651 481.991 205.214 482.407 204.9 482.916C204.008 484.363 205.936 485.782 208.321 487.115Z" fill="#1C468A"/>
<path d="M232.001 329.139C232.001 329.139 224.816 328.267 221.204 334.952C217.592 341.637 217.884 351.322 214.382 355.891C210.88 360.46 214.965 364.791 214.965 364.791L242.251 365.712C242.251 365.712 244.148 360.606 242.251 354.476C240.354 348.35 249.619 330.067 232.001 329.139Z" fill="#B64C41"/>
<path d="M254.473 410.331C254.527 411.43 254.837 413.755 254.127 413.755C253.548 413.755 252.41 410.808 251.666 410.182C250.586 409.272 249.706 407.366 249.565 406.907C249.276 405.954 249.004 405.755 249.004 405.755H249.006H249.003C249.003 405.755 240.375 389.982 239.701 385.943C239.479 384.631 238.915 381.993 238.251 379.038C237.53 375.827 236.694 372.24 236.063 369.552C238.817 369.015 241.863 368.826 244.347 368.78C244.853 372.048 245.306 375.387 245.696 378.288C246.276 382.604 246.716 385.954 246.988 386.672C247.738 388.642 249.806 399.259 251.755 404.77C251.979 405.311 252.243 406.427 252.805 407.057C253.483 407.814 254.399 408.827 254.473 410.331Z" fill="#E8945B"/>
<path d="M239.464 394.711C234.698 379.479 244.291 379.678 243.794 372.055C243.298 364.432 237.396 356.236 237.396 356.236C237.396 356.236 237.185 356.215 236.816 356.179C236.614 356.161 236.44 356.03 236.37 355.841C236.15 355.237 236.085 353.918 236.089 352.545C236.094 350.447 236.255 348.218 236.255 348.218L229.177 346.817L228.756 346.735C228.769 350.295 228.095 352.972 227.365 354.465C227.019 355.176 226.341 355.663 225.558 355.774C224.037 355.987 221.362 356.442 219.558 357.196C218.682 357.562 218.014 357.996 217.78 358.508C215.837 362.782 213.896 373.57 212.532 381.264C211.772 385.552 211.192 388.88 210.89 389.588C210.046 391.554 207.468 402.381 205.265 407.725L208.078 408.568C208.078 408.568 217.359 393.172 218.202 389.165C218.478 387.86 219.152 385.25 219.94 382.324C220.059 381.883 220.181 381.431 220.304 380.98C221.694 384.749 222.404 386.494 222.366 388.123C222.311 390.445 220.739 392.528 217.452 399.895C215.637 403.97 244.329 410.271 239.464 394.711Z" fill="#FFB27D"/>
<path d="M236.255 348.218C236.255 348.218 236.094 350.447 236.089 352.545C232.128 352.431 230.035 348.819 229.177 346.817L236.255 348.218Z" fill="#E8945B"/>
<path d="M237.578 350.206C237.578 350.206 228.206 350.359 228.2 344.524C228.194 338.685 226.98 334.774 232.963 334.429C238.945 334.084 240.111 336.31 240.587 338.259C241.063 340.204 240.015 350.014 237.578 350.206Z" fill="#FFB27D"/>
<path d="M250.654 486.247L247.647 486.987C247.647 486.987 242.918 480.512 238.987 471.676C236.496 466.08 234.329 459.687 233.892 453.749C233.694 451.057 233.85 448.462 234.492 446.072C234.492 446.072 233.65 440.422 232.501 432.881C231.225 424.5 229.57 413.784 228.273 405.901L229.056 405.67L241.85 398.189C241.85 398.189 247.729 411.59 246.227 431.736C245.919 435.871 246.801 442.268 246.019 446.965C244.686 454.997 245.235 463.072 246.341 469.792C247.926 479.403 250.654 486.247 250.654 486.247Z" fill="#FFB27D"/>
<path d="M219.749 379.461C221.505 384.311 222.409 386.292 222.366 388.123C227.964 379.458 238.075 378.149 238.075 378.149L218.874 375.955C219.05 377.143 219.335 378.316 219.749 379.461Z" fill="#CB7D45"/>
<path d="M240.308 335.012C238.862 333.26 237.768 333.64 237.154 334.166C232.13 331.379 228.729 335.517 228.729 335.517C228.102 339.706 225.082 342.106 225.082 342.106C225.082 342.106 226.75 342.991 230.727 342.145C235.448 341.146 236.746 335.827 236.935 335.133C237.507 335.649 238.634 336.762 238.978 337.857C239.445 339.343 239.656 342.405 240.547 342.298C240.547 342.298 242.48 337.644 240.308 335.012Z" fill="#B64C41"/>
<path d="M205.464 407.256C205.464 407.256 204.609 409.272 203.718 409.833C202.828 410.399 201.562 411.757 201.797 412.834C202.031 413.912 202.265 415.601 203.39 415.601C204.515 415.601 207.14 410.63 207.468 409.695C207.796 408.756 208.077 408.568 208.077 408.568L205.464 407.256Z" fill="#FFB27D"/>
<path d="M249.619 451.559C238.304 458.023 208.516 447.726 208.547 447.132C208.704 443.967 211.567 424.916 214.929 406.737C216.995 395.558 222.498 391.383 221.618 390.676L221.604 390.665C218.212 388.254 219.678 384.123 219.902 382.644C218.86 382.924 215.498 383.561 211.65 381.435C213.235 373.687 215.494 362.825 217.757 358.522C217.866 358.309 218.054 358.117 218.313 357.936L218.291 357.907C220.409 356.364 224.739 355.891 224.739 355.891C224.739 355.891 227.072 361.601 227.785 362.494C232.403 368.265 240.698 365.658 239.569 362.067C239.162 360.759 237.065 356.638 236.811 356.179L237.398 356.236C238.79 356.421 239.775 356.56 240.484 356.68C241.876 356.919 242.222 357.086 242.568 357.352C243.789 358.572 245.378 361.605 245.505 367.02C245.553 369.036 247.65 391.266 240.865 390.882C240.712 390.875 240.843 391.238 241.136 391.924C242.095 394.125 244.813 399.65 245.601 406.737C248.166 429.791 249.619 451.559 249.619 451.559Z" fill="white"/>
<path d="M234.885 346.76C234.885 346.76 235.064 347.478 236.855 347.347C236.855 347.347 238.359 347.233 238.303 346.444C238.303 346.444 236.837 345.896 234.885 346.76Z" fill="white"/>
<path d="M207.468 409.695C207.468 409.695 207.16 411.963 206.563 412.486C205.965 413.009 205.878 413.951 205.265 413.442C204.652 412.938 207.468 409.695 207.468 409.695Z" fill="#FFB27D"/>
<path d="M245.188 490.159C245.191 491.858 247.576 492.05 250.307 491.929C253.038 491.808 252.269 492.441 256.058 492.768C259.847 493.092 261.244 491.933 261.466 491.403C261.664 490.934 259.866 490.4 257.946 489.782C257.705 489.707 257.463 489.625 257.221 489.547C255.057 488.829 253.717 487.076 251.935 485.501C250.247 484.007 248.299 478.905 248.299 478.905L243.134 478.301C243.134 478.301 244.999 482.88 245.681 484.846C246.083 486.006 245.779 487.367 245.494 488.413C245.34 488.978 245.186 489.561 245.188 490.159Z" fill="#FFB27D"/>
<path d="M250.307 491.929C253.038 491.808 252.269 492.441 256.058 492.768C259.847 493.092 261.244 491.933 261.466 491.403C261.664 490.934 259.866 490.4 257.946 489.782L257.921 489.817C257.921 489.817 255.385 490.951 252.284 490.415C249.757 489.977 247.236 488.729 245.494 488.413C245.34 488.978 245.186 489.561 245.188 490.159C245.191 491.858 247.576 492.05 250.307 491.929Z" fill="#1C468A"/>
<path d="M249.619 451.559C238.304 458.023 208.516 447.726 208.547 447.132C208.704 443.967 211.567 424.916 214.929 406.737C216.995 395.558 222.498 391.383 221.618 390.676C221.828 390.846 225.019 393.421 230.871 393.072C236.111 392.756 240.147 392.098 241.136 391.924C242.095 394.125 244.813 399.65 245.601 406.737C248.166 429.791 249.619 451.559 249.619 451.559Z" fill="#35488B"/>
<path d="M221.604 390.665C221.604 390.665 230.87 394.53 240.865 390.882L241.372 392.45C241.372 392.45 231.09 396.02 221.204 391.956L221.604 390.665Z" fill="#22356B"/>
<path d="M190.088 409.403C190.088 409.403 198.762 427.085 197.708 428.426C196.654 429.763 189.245 423.594 187.598 419.441C185.952 415.284 190.088 409.403 190.088 409.403Z" fill="#FFB27D"/>
<path d="M202.13 413.339C202.13 413.339 196.891 420.884 194.558 424.287C193.277 426.157 196.59 428.575 197.708 428.426C198.825 428.273 203.075 416.386 203.075 416.386L202.13 413.339Z" fill="#FFB27D"/>
<path d="M174.266 413.681C174.266 413.681 167.379 410.651 162.167 413.3C156.956 415.953 160.142 437.827 167.594 439.95C167.594 439.95 181.555 444.263 174.266 413.681Z" fill="#35488B"/>
<path d="M197.693 486.116C197.693 486.116 198.777 487.364 200.519 487.346C201.594 487.332 202.594 487.648 203.323 488.239C203.968 488.761 203.704 489.775 202.883 489.959L194.661 491.78C193.87 491.954 193.094 491.432 192.992 490.653C192.915 490.07 192.821 489.415 192.73 488.911C192.513 487.723 193.506 486.507 193.506 486.507L197.693 486.116Z" fill="#2C3A64"/>
<path d="M193.508 486.507C193.508 486.507 193.485 486.4 193.441 486.205C192.902 483.83 189.294 468.057 188.44 466.915C188.219 466.627 186.608 463.168 186.033 462.169C186.006 462.115 182.059 445.052 182.56 443.768C183.139 442.3 190.988 442.41 191.027 442.57C191.192 443.214 191.421 444.103 191.693 445.159C191.724 445.29 191.76 445.425 191.795 445.56C193.331 451.601 196.06 462.35 196.474 464.181C196.958 466.332 197.486 480.231 197.648 484.722C197.679 485.6 197.695 486.119 197.695 486.119L197.702 486.13C197.738 486.198 197.777 486.61 193.508 486.507Z" fill="#FFB27D"/>
<path d="M198.766 483.911C198.766 483.911 197.338 484.886 195.172 485.266C192.12 485.803 190.815 484.957 190.815 484.957C190.815 484.957 188.558 472.124 187.116 467.737C186.762 466.667 186.096 465.145 185.285 463.449L185.246 463.36C184.765 462.368 184.241 461.315 183.702 460.263C182.666 458.233 181.571 456.192 180.661 454.517C180.409 454.055 180.173 453.621 179.952 453.223C179.11 451.687 178.543 450.688 178.543 450.688L180.598 448.526L181.189 447.9L185.368 443.505L187.148 441.639L188.416 440.302L188.546 440.167L190.31 438.307C190.31 438.307 190.72 439.679 191.338 441.809C193.036 447.658 196.332 459.253 197.159 464.057C198.002 468.971 198.766 483.911 198.766 483.911Z" fill="#B64C41"/>
<path d="M187.376 445.347L187.305 445.966L185.246 463.36C184.765 462.368 184.241 461.315 183.702 460.263L183.391 461.486L183.08 462.723C182.17 460.682 181.268 458.435 180.65 456.803V456.8C180.248 455.754 179.964 454.965 179.87 454.641C179.858 454.602 179.85 454.574 179.842 454.549C179.799 454.378 179.838 453.902 179.952 453.223C180.082 452.405 180.315 451.288 180.626 450.044V450.04C180.791 449.354 180.981 448.636 181.189 447.9C181.591 446.499 182.059 445.052 182.56 443.768C183.139 442.3 183.757 441.041 184.387 440.284C184.828 439.743 185.277 439.455 185.706 439.53C186.14 439.601 186.455 439.854 186.679 440.216C186.92 440.597 187.061 441.095 187.148 441.639C187.231 442.147 187.262 442.698 187.278 443.221C187.301 444.135 187.278 444.963 187.376 445.347Z" fill="#91322D"/>
<path d="M185.238 408.806L178.163 412.301L176.745 407.558C176.745 407.558 177.646 405.915 178.054 403.227C178.224 402.096 178.309 400.781 178.2 399.323L183.965 402.175C183.965 402.175 183.828 402.69 183.736 403.451C183.638 404.272 183.594 405.382 183.835 406.431C184.044 407.334 184.462 408.198 185.238 408.806Z" fill="#FFB27D"/>
<path d="M173.329 442.872C173.329 442.872 170.497 460.025 170.796 487.485L174.803 487.986C174.803 487.986 177.993 477.362 180.003 466.777C181.192 460.519 180.411 442.232 180.411 442.232L173.329 442.872Z" fill="#FFB27D"/>
<path d="M188.767 440.156L188.7 440.415L188.03 443.075L187.305 445.966L183.702 460.263L183.391 461.486L183.079 462.723L177.335 486.322C177.335 486.322 176.238 486.496 175.234 486.478C171.756 486.418 169.524 485.305 169.524 485.305C169.524 485.305 169.268 452.6 169.37 443.263C169.386 441.923 169.394 441.016 169.39 440.71L184.387 440.284L186.679 440.216L188.089 440.177L188.546 440.166L188.767 440.156Z" fill="#B64C41"/>
<path d="M189.725 442.687C181.855 444.753 171.816 443.594 169.343 443.26C168.973 443.21 168.773 443.178 168.773 443.178C167.903 442.975 167.311 442.222 167.311 441.386C167.311 441.279 167.322 441.169 167.342 441.059L169.674 428.54L168.891 422.257L168.446 418.673L167.428 410.491C170.798 408.834 173.864 407.949 176.673 407.558C177.748 408.625 179.871 410.189 182.246 409.89C184.032 409.663 184.437 408.767 184.405 407.785C188.138 408.379 190.088 409.403 190.088 409.403L192.515 438.822C192.662 440.59 191.495 442.222 189.725 442.687Z" fill="white"/>
<path d="M176.673 407.558L175.61 409.602L174.577 411.59L169.584 422.09C168.782 421.087 162.956 419.103 162.956 419.103C162.956 419.103 165.602 412.657 167.429 410.491C167.954 409.869 168.94 409.361 170.082 408.955C171.022 408.617 172.069 408.351 173.046 408.145C174.998 407.732 176.673 407.558 176.673 407.558Z" fill="white"/>
<path d="M167.508 439.253L168.2 435.935C178.46 421.592 180.036 418.655 175.422 412.216C174.101 410.37 171.347 409.119 170.367 408.856C171.308 408.521 172.609 408.241 173.586 408.034C174.56 408.479 175.551 409.023 176.245 409.602C190.327 421.382 167.508 439.253 167.508 439.253Z" fill="#35488B"/>
<path d="M174.44 425.215C174.695 425.197 175.802 424.66 175.802 424.66C175.802 424.66 176.848 421.019 180.375 420.415C180.375 420.415 182.048 420.426 181.705 421.528C181.361 422.634 181.326 422.154 180.878 423.722C180.43 425.29 179.263 426.481 178.02 426.552L176.747 426.886C176.747 426.886 173.771 425.261 174.44 425.215Z" fill="#FFB27D"/>
<path d="M175.802 424.66C175.802 424.66 169.06 425.251 168.064 425.681C168.064 425.681 168.611 424.251 169.584 422.09C168.704 421.254 165.816 420.01 163.903 419.441C162.444 423.035 161.883 426.598 162.702 430.029C162.788 430.392 163.118 430.652 163.502 430.669C165.66 430.765 172.818 430.73 178.016 426.509L175.802 424.66Z" fill="#FFB27D"/>
<path d="M183.836 406.431C180.558 406.349 178.054 403.227 178.054 403.227L183.736 403.451C183.638 404.272 183.594 405.382 183.836 406.431Z" fill="#E8945B"/>
<path d="M185.231 404.994C185.231 404.994 176.607 406.011 176.423 400.137C176.239 394.267 179.833 390.466 182.233 390.509C187.017 390.594 187.806 392.464 188.361 394.409C188.915 396.354 189.201 404.582 185.231 404.994Z" fill="#FFB27D"/>
<path d="M182.924 401.609C182.924 401.609 183.112 402.342 185.001 402.207C185.001 402.207 186.586 402.096 186.528 401.289C186.528 401.289 184.982 400.731 182.924 401.609Z" fill="white"/>
<path d="M174.818 487.94C174.818 487.94 175.556 489.334 177.191 489.675C178.22 489.892 179.102 490.411 179.65 491.136C180.114 491.752 179.665 492.612 178.879 492.612H170.583C169.877 492.612 169.325 492.025 169.396 491.346C169.458 490.752 169.522 490.059 169.551 489.529C169.612 488.37 170.812 487.439 170.812 487.439L174.818 487.94Z" fill="#2C3A64"/>
<path d="M178.012 403.487C178.012 403.487 172.342 399.465 172.342 394.672C172.342 388.727 176.13 387.106 181.417 386.814C186.705 386.526 190.464 390.846 189.047 393.079C187.63 395.312 185.886 394.783 182.548 394.42C179.21 394.057 179.35 397.026 177.93 396.884C176.511 396.738 176.099 396.269 175.987 397.207C175.874 398.15 177.46 398.455 177.186 399.38C176.673 401.115 178.012 403.487 178.012 403.487Z" fill="#35488B"/>
<path d="M177.975 397.318C177.975 397.318 176.821 395.849 176.033 396.23C175.247 396.61 176.005 398.783 176.596 399.081C177.186 399.38 177.837 399.6 177.975 399.462C178.113 399.327 177.975 397.318 177.975 397.318Z" fill="#FFB27D"/>
<path d="M190.088 409.403C190.088 409.403 192.93 411.818 194.823 417.72C194.823 417.72 195.42 423.498 190.088 424.045C184.756 424.593 190.088 409.403 190.088 409.403Z" fill="white"/>
<path d="M175.802 424.66C175.802 424.66 176.016 423.597 176.373 422.548C176.73 421.496 176.943 420.472 177.202 420.952C177.462 421.428 177.556 422.744 177.556 422.744L175.802 424.66Z" fill="#FFB27D"/>
<path d="M202.13 414.264C202.13 414.264 203.2 410.018 205.844 410.189C208.488 410.36 208.047 412.941 206.788 414.264C205.529 415.586 202.982 416.45 202.982 416.45L202.13 414.264Z" fill="#FFB27D"/>
<path d="M249.784 407.448C249.784 407.448 250.806 411.921 251.089 411.59C251.373 411.259 251.373 409.528 251.373 409.528L249.784 407.448Z" fill="#E8945B"/>
<path d="M464.123 362.327C464.123 362.327 467.319 362.885 467.949 365.417C469.385 371.166 468.895 386.907 470.313 391.789C471.736 396.671 475.8 408.824 476.408 411.352C476.408 411.352 474.744 412.408 473.769 412.027C473.19 411.803 463.611 395.27 462.594 392.823C461.581 390.374 464.123 362.327 464.123 362.327Z" fill="#FFB27D"/>
<path d="M454.334 469.707C453.516 480.95 456.884 488.871 456.884 488.871L458.228 490.24C458.228 490.24 460.983 482.688 463.565 473.582C466.022 464.928 468.923 455.822 470.918 453.23C478.825 442.94 487.782 400.607 487.782 400.607L469.648 396.635C467.291 399.419 465.638 404.354 464.482 410.089C461.559 424.561 461.801 444.11 461.851 446.94L461.854 446.944C461.858 447.164 461.762 447.363 461.63 447.537C456.784 454.129 454.878 462.282 454.334 469.707Z" fill="#163560"/>
<path d="M454.334 469.707C453.516 480.95 456.884 488.871 456.884 488.871L458.206 490.553C458.206 490.553 460.983 482.688 463.565 473.582C462.469 473.479 457.677 472.853 454.334 469.707Z" fill="#163560"/>
<path d="M468.187 396.155C473.2 380.133 467.707 376.649 468.23 368.634C468.752 360.617 474.96 351.998 474.96 351.998C474.96 351.998 475.277 351.966 475.81 351.916C476.226 351.695 476.34 349.953 476.333 348.115C476.329 345.907 476.159 343.564 476.159 343.564L478.185 343.162L483.604 342.092L484.045 342.003C484.041 343.233 484.113 344.36 484.244 345.381C484.475 347.222 484.884 348.702 485.332 349.751C485.787 350.817 486.289 351.436 486.676 351.539C490.21 352.264 495.899 362.899 494.438 372.734C494.253 373.986 493.955 375.219 493.517 376.421C491.672 381.527 490.722 383.604 490.765 385.534C490.826 387.973 492.479 390.164 495.931 397.915C497.841 402.2 463.07 412.518 468.187 396.155Z" fill="#FFB27D"/>
<path d="M476.628 472.292C479.11 482.155 482.843 489.718 482.843 489.718L486.093 489.49C486.093 489.49 484.497 481.91 484.589 471.666C484.653 464.501 485.538 456.039 488.369 447.957C498.093 420.18 496.522 399.967 496.522 399.967L478.235 402.107L477.382 402.207C477.307 410.605 477.09 422.008 476.902 430.925C476.731 438.943 476.585 444.952 476.585 444.952C473.069 452.526 474.345 463.214 476.628 472.292Z" fill="#1C468A"/>
<path d="M498.257 403.512C498.289 404.137 498.257 404.635 498.143 404.994C497.748 406.235 496.394 406.801 493.119 406.463C491.117 406.253 490.225 402.896 489.827 400.034C488.621 404.13 486.939 406.431 484.763 406.911C481.588 407.618 465.57 409.567 464.521 401.951C463.366 393.577 466.822 378.747 467.01 370.75C466.541 367.916 466.377 365.456 466.43 363.34C466.562 357.648 468.233 354.455 469.52 353.167C469.883 352.89 470.249 352.716 471.711 352.463C472.457 352.335 473.492 352.19 474.957 351.998L475.544 351.951C475.273 352.435 471.643 357.928 471.928 359.34C472.223 360.819 485.09 359.489 485.976 358.675C486.865 357.864 488.269 351.635 488.269 351.635C488.269 351.635 492.824 352.133 495.053 353.751L495.028 353.783C495.299 353.975 495.501 354.181 495.615 354.398C497.994 358.924 500.369 370.348 502.037 378.501C497.99 380.731 494.452 380.066 493.357 379.771C494.79 389.158 498.044 399.234 498.257 403.512Z" fill="#F9DDBF"/>
<path d="M455.799 492.708H457.876C458.569 492.598 459.085 492.395 459.796 492.303C460.88 492.16 461.378 492.605 461.478 492.708L461.495 492.726H470.31C470.53 492.409 470.317 491.677 470.111 491.136C469.968 490.77 469.663 490.493 469.286 490.383C468.351 490.112 466.509 489.871 464.82 488.345C463.871 487.485 460.237 485.188 460.237 485.188L460.215 485.184C460.137 485.188 459.757 485.302 458.103 486.699C457.246 487.421 455.792 485.682 455.792 485.682C455.792 485.682 455.518 485.91 455.312 486.329C455.149 486.663 455.031 487.118 455.124 487.684C455.255 488.477 454.832 489.952 454.494 490.951C454.288 491.556 454.114 491.986 454.114 491.986C454.114 491.986 454.014 492.484 455.799 492.708Z" fill="#233862"/>
<path d="M455.312 486.329C455.81 486.678 456.855 487.367 457.548 487.456C458.484 487.581 460.237 485.188 460.237 485.188L460.215 485.184C460.137 485.188 459.757 485.302 458.103 486.699C457.246 487.421 455.792 485.682 455.792 485.682C455.792 485.682 455.518 485.91 455.312 486.329Z" fill="#466AA5"/>
<path d="M462.022 492.153C461.616 491.855 460.397 491.339 458.694 491.744C457.214 492.1 455.031 491.193 454.494 490.951C454.288 491.556 454.114 491.986 454.114 491.986C454.114 491.986 454.014 492.484 455.799 492.708H457.876C458.569 492.598 459.085 492.395 459.796 492.303C460.88 492.16 461.378 492.605 461.478 492.708L461.495 492.726H470.31C470.53 492.409 470.317 491.677 470.111 491.136C469.844 490.898 469.766 492.171 469.62 492.374L462.022 492.153Z" fill="#466AA5"/>
<path d="M481.083 492.708H483.16C483.853 492.598 484.369 492.395 485.08 492.303C486.164 492.16 486.662 492.605 486.762 492.708L486.779 492.726H495.594C495.818 492.409 495.604 491.677 495.395 491.136C495.252 490.77 494.947 490.493 494.57 490.383C493.635 490.112 491.793 489.871 490.104 488.345C489.155 487.485 485.521 485.188 485.521 485.188L485.499 485.184C485.421 485.188 485.041 485.302 483.387 486.699C482.534 487.421 481.076 485.682 481.076 485.682C481.076 485.682 480.802 485.91 480.6 486.329C480.433 486.663 480.315 487.118 480.408 487.684C480.539 488.477 480.116 489.952 479.778 490.951C479.572 491.556 479.398 491.986 479.398 491.986C479.398 491.986 479.298 492.484 481.083 492.708Z" fill="#233862"/>
<path d="M480.6 486.329C481.094 486.678 482.139 487.367 482.833 487.456C483.768 487.581 485.521 485.188 485.521 485.188L485.499 485.184C485.421 485.188 485.041 485.302 483.387 486.699C482.534 487.421 481.076 485.682 481.076 485.682C481.076 485.682 480.802 485.91 480.6 486.329Z" fill="#466AA5"/>
<path d="M487.306 492.153C486.9 491.855 485.681 491.339 483.977 491.744C482.498 492.1 480.319 491.193 479.778 490.951C479.572 491.556 479.398 491.986 479.398 491.986C479.398 491.986 479.298 492.484 481.083 492.708H483.16C483.853 492.598 484.369 492.395 485.08 492.303C486.164 492.16 486.662 492.605 486.762 492.708L486.779 492.726H495.594C495.818 492.409 495.604 491.677 495.395 491.136C495.128 490.898 495.05 492.171 494.904 492.374L487.306 492.153Z" fill="#466AA5"/>
<path d="M474.957 351.998C474.957 351.998 468.674 352.488 466.79 354.135C463.966 356.602 462.267 376.019 462.395 376.553C462.523 377.086 463.81 379.006 467.22 378.58C470.63 378.153 470.096 358.949 470.63 357.882C471.163 356.816 474.957 351.998 474.957 351.998Z" fill="#F9DDBF"/>
<path d="M500.415 413.282L497.343 413.585C497.343 413.585 490.89 395.81 490.833 391.504C490.811 390.103 490.644 387.273 490.427 384.094C489.972 377.513 489.307 369.438 489.307 369.438L489.201 366.202L488.838 355.166C488.838 355.166 493.414 356.56 495.917 358.238C496.749 358.792 497.35 359.379 497.485 359.955C498.627 364.759 498.438 376.286 498.285 384.503C498.2 389.083 498.122 392.635 498.292 393.424C498.765 395.625 499.228 407.323 500.415 413.282Z" fill="#FFB27D"/>
<path d="M499.711 412.056C499.711 412.056 502.335 415.729 502.513 417.009C502.691 418.289 501.834 421.194 501.621 421.546C501.407 421.901 499.868 419.999 499.487 419.014C499.11 418.029 498.492 416.109 498.321 416.977C498.15 417.844 498.232 418.833 497.596 418.424C496.963 418.011 497.443 412.863 497.443 412.863L499.711 412.056Z" fill="#FFB27D"/>
<path d="M502.036 378.501C502.036 378.501 494.303 382.647 487.782 379.65C481.261 376.649 488.838 355.166 488.838 355.166H494.626C494.626 355.166 499.828 360.147 502.036 378.501Z" fill="#F9DDBF"/>
<path d="M480.088 323.901C480.088 323.901 471.707 322.81 469.055 331.563C467.028 338.248 462.619 341.782 462.747 348.847C462.871 355.912 464.254 355.912 462.743 359.696C461.232 363.482 464.891 367.266 468.678 367.266C472.461 367.266 491.306 361.264 491.974 357.704C492.646 354.145 489.425 347.596 490.559 344.94C491.697 342.284 488.955 338.241 489.617 332.573C490.015 329.185 487.099 323.172 480.088 323.901Z" fill="#2C3A64"/>
<path d="M806.044 369.143C806.044 369.143 814.391 369.307 814.988 371.707C816.348 377.151 810.564 392.426 811.913 397.051C813.257 401.677 817.105 413.183 817.682 415.58C817.682 415.58 816.107 416.579 815.184 416.22C814.637 416.007 805.562 400.347 804.599 398.029C803.636 395.711 806.044 369.143 806.044 369.143Z" fill="#FFB27D"/>
<path d="M810.312 473.308C811.789 483.879 816.639 489.501 816.639 489.501L817.999 491.545C817.999 491.545 819.05 484.004 819.629 475.058C820.183 466.556 821.056 457.546 822.386 454.748C827.662 443.651 827.53 402.665 827.53 402.665L809.946 402.597C808.321 405.641 807.773 410.541 807.844 416.08C808.017 430.065 812.13 448.116 812.744 450.726V450.734C812.79 450.936 812.739 451.139 812.653 451.327C809.479 458.396 809.337 466.321 810.312 473.308Z" fill="#163560"/>
<path d="M817.854 447.402C817.854 447.402 808.445 450.993 804.641 480.611L807.453 481.835L829.013 450.247L817.854 447.402Z" fill="#1C468A"/>
<path d="M800.277 483.04L801.681 484.424C802.218 484.811 802.701 485.017 803.238 485.43C804.064 486.055 804.104 486.685 804.104 486.82V486.845L810.041 492.715C810.399 492.648 810.747 492.011 810.966 491.51C811.116 491.168 811.096 490.777 810.912 490.45C810.464 489.647 809.379 488.26 809.259 486.105C809.19 484.896 808.269 480.928 808.269 480.928L808.259 480.914C808.209 480.861 807.871 480.686 805.826 480.527C804.776 480.445 804.95 478.301 804.95 478.301C804.95 478.301 804.617 478.273 804.199 478.422C803.865 478.535 803.477 478.763 803.169 479.208C802.726 479.83 801.457 480.541 800.566 480.988C800.024 481.259 799.626 481.433 799.626 481.433C799.626 481.433 799.227 481.704 800.277 483.04Z" fill="#233862"/>
<path d="M804.194 478.422C804.298 478.987 804.546 480.146 804.948 480.669C805.498 481.373 808.27 480.929 808.27 480.929L808.26 480.914C808.206 480.861 807.873 480.687 805.825 480.526C804.774 480.445 804.948 478.301 804.948 478.301C804.948 478.301 804.615 478.273 804.194 478.422Z" fill="#466AA5"/>
<path d="M809.811 492.015L804.84 486.809C804.766 486.34 804.283 485.178 802.87 484.32C801.636 483.574 800.771 481.512 800.567 480.989C800.024 481.259 799.621 481.433 799.621 481.433C799.621 481.433 799.223 481.704 800.278 483.041L801.676 484.424C802.218 484.811 802.696 485.017 803.238 485.43C804.064 486.056 804.104 486.685 804.104 486.82V486.845L810.039 492.716C810.398 492.648 810.746 492.012 810.965 491.51C810.945 491.172 810.044 491.979 809.811 492.015Z" fill="#466AA5"/>
<path d="M807.836 407.842C809.851 391.347 808.329 381.619 808.823 374.024C809.321 366.433 816.311 359.361 816.311 359.361C816.311 359.361 816.614 359.332 817.117 359.286C817.513 359.076 817.616 357.426 817.616 355.684C817.606 353.594 817.446 351.375 817.446 351.375L819.368 350.994L824.497 349.981L824.919 349.896C824.914 351.062 824.981 352.132 825.104 353.096C825.325 354.841 825.71 356.242 826.137 357.234C826.569 358.244 827.041 358.831 827.411 358.927C830.762 359.617 836.143 369.686 834.761 379.002C834.586 380.186 834.303 381.359 833.892 382.494C832.145 387.329 831.24 389.299 831.281 391.127C831.338 393.434 832.617 401.651 835.891 408.994C837.7 413.047 807.065 414.178 807.836 407.842Z" fill="white"/>
<path d="M816.309 359.362C816.309 359.362 810.354 359.828 808.571 361.389C805.897 363.725 804.289 382.115 804.41 382.619C804.53 383.124 805.747 384.945 808.977 384.539C812.207 384.138 811.706 365.947 812.207 364.938C812.713 363.927 816.309 359.362 816.309 359.362Z" fill="white"/>
<path d="M821.171 332.754C821.171 332.754 813.234 331.719 810.719 340.007C808.803 346.34 804.627 349.686 804.745 356.378C804.862 363.069 806.176 363.069 804.745 366.653C803.309 370.238 805.062 377.153 808.394 378.469C830.789 387.318 831.796 368.136 832.425 364.769C833.064 361.394 830.013 355.193 831.086 352.68C832.164 350.162 829.568 346.333 830.197 340.964C830.57 337.757 827.81 332.064 821.171 332.754Z" fill="#2C3A64"/>
<path d="M1092.58 495.595H54.6715C53.9936 495.595 53.4398 495.04 53.4398 494.364V493.813C53.4398 493.138 53.9936 492.583 54.6715 492.583H1092.58C1093.25 492.583 1093.81 493.138 1093.81 493.813V494.364C1093.81 495.04 1093.25 495.595 1092.58 495.595Z" fill="#2E3552"/>
</svg>
