<svg width="55" height="55" viewBox="0 0 55 55" fill="none" xmlns="http://www.w3.org/2000/svg">
<path d="M27.5918 3.6665C17.5679 3.6665 9.44184 11.7925 9.44184 21.8165V32.6635L7.30284 34.8025C6.43769 35.6676 6.17889 36.9688 6.6471 38.0991C7.11531 39.2295 8.21834 39.9665 9.44184 39.9665H45.7418C46.9653 39.9665 48.0684 39.2295 48.5366 38.0991C49.0048 36.9688 48.746 35.6676 47.8808 34.8025L45.7418 32.6635V21.8165C45.7418 11.7925 37.6158 3.6665 27.5918 3.6665Z" fill="#00A850"/>
<path d="M27.5917 52.0665C22.5798 52.0665 18.5167 48.0035 18.5167 42.9915H36.6667C36.6667 48.0035 32.6037 52.0665 27.5917 52.0665Z" fill="#00A850"/>
</svg>
