<svg width="770" height="580" viewBox="0 0 770 580" fill="none" xmlns="http://www.w3.org/2000/svg">
<path fill-rule="evenodd" clip-rule="evenodd" d="M425.053 77.0098L469.066 327.317H271.275L227.262 77.0098H425.053Z" fill="#ECECEC"/>
<path fill-rule="evenodd" clip-rule="evenodd" d="M403 232H258H403Z" fill="#ECECEC"/>
<path d="M403 232H258" stroke="#F9F9F9" stroke-width="0.96625" stroke-miterlimit="10" stroke-linecap="round" stroke-linejoin="round"/>
<path fill-rule="evenodd" clip-rule="evenodd" d="M408 243H263H408Z" fill="#ECECEC"/>
<path d="M408 243H263" stroke="#F9F9F9" stroke-width="0.96625" stroke-miterlimit="10" stroke-linecap="round" stroke-linejoin="round"/>
<path fill-rule="evenodd" clip-rule="evenodd" d="M413 253H268H413Z" fill="#ECECEC"/>
<path d="M413 253H268" stroke="#F9F9F9" stroke-width="0.96625" stroke-miterlimit="10" stroke-linecap="round" stroke-linejoin="round"/>
<path fill-rule="evenodd" clip-rule="evenodd" d="M417 262H272H417Z" fill="#ECECEC"/>
<path d="M417 262H272" stroke="#F9F9F9" stroke-width="0.96625" stroke-miterlimit="10" stroke-linecap="round" stroke-linejoin="round"/>
<path fill-rule="evenodd" clip-rule="evenodd" d="M422 273H277H422Z" fill="#ECECEC"/>
<path d="M422 273H277" stroke="#F9F9F9" stroke-width="0.96625" stroke-miterlimit="10" stroke-linecap="round" stroke-linejoin="round"/>
<path fill-rule="evenodd" clip-rule="evenodd" d="M427 283H282H427Z" fill="#ECECEC"/>
<path d="M427 283H282" stroke="#F9F9F9" stroke-width="0.96625" stroke-miterlimit="10" stroke-linecap="round" stroke-linejoin="round"/>
<path fill-rule="evenodd" clip-rule="evenodd" d="M403 168H258H403Z" fill="#ECECEC"/>
<path d="M403 168H258" stroke="#F9F9F9" stroke-width="0.96625" stroke-miterlimit="10" stroke-linecap="round" stroke-linejoin="round"/>
<path fill-rule="evenodd" clip-rule="evenodd" d="M408 179H263H408Z" fill="#ECECEC"/>
<path d="M408 179H263" stroke="#F9F9F9" stroke-width="0.96625" stroke-miterlimit="10" stroke-linecap="round" stroke-linejoin="round"/>
<path fill-rule="evenodd" clip-rule="evenodd" d="M413 189H268H413Z" fill="#ECECEC"/>
<path d="M413 189H268" stroke="#F9F9F9" stroke-width="0.96625" stroke-miterlimit="10" stroke-linecap="round" stroke-linejoin="round"/>
<path fill-rule="evenodd" clip-rule="evenodd" d="M417 198H272H417Z" fill="#ECECEC"/>
<path d="M417 198H272" stroke="#F9F9F9" stroke-width="0.96625" stroke-miterlimit="10" stroke-linecap="round" stroke-linejoin="round"/>
<path fill-rule="evenodd" clip-rule="evenodd" d="M422 209H277H422Z" fill="#ECECEC"/>
<path d="M422 209H277" stroke="#F9F9F9" stroke-width="0.96625" stroke-miterlimit="10" stroke-linecap="round" stroke-linejoin="round"/>
<path fill-rule="evenodd" clip-rule="evenodd" d="M427 219H282H427Z" fill="#ECECEC"/>
<path d="M427 219H282" stroke="#F9F9F9" stroke-width="0.96625" stroke-miterlimit="10" stroke-linecap="round" stroke-linejoin="round"/>
<path fill-rule="evenodd" clip-rule="evenodd" d="M399 106H254H399Z" fill="#ECECEC"/>
<path d="M399 106H254" stroke="#F9F9F9" stroke-width="0.96625" stroke-miterlimit="10" stroke-linecap="round" stroke-linejoin="round"/>
<path fill-rule="evenodd" clip-rule="evenodd" d="M404 117H259H404Z" fill="#ECECEC"/>
<path d="M404 117H259" stroke="#F9F9F9" stroke-width="0.96625" stroke-miterlimit="10" stroke-linecap="round" stroke-linejoin="round"/>
<path fill-rule="evenodd" clip-rule="evenodd" d="M409 127H264H409Z" fill="#ECECEC"/>
<path d="M409 127H264" stroke="#F9F9F9" stroke-width="0.96625" stroke-miterlimit="10" stroke-linecap="round" stroke-linejoin="round"/>
<path fill-rule="evenodd" clip-rule="evenodd" d="M413 136H268H413Z" fill="#ECECEC"/>
<path d="M413 136H268" stroke="#F9F9F9" stroke-width="0.96625" stroke-miterlimit="10" stroke-linecap="round" stroke-linejoin="round"/>
<path fill-rule="evenodd" clip-rule="evenodd" d="M418 147H273H418Z" fill="#ECECEC"/>
<path d="M418 147H273" stroke="#F9F9F9" stroke-width="0.96625" stroke-miterlimit="10" stroke-linecap="round" stroke-linejoin="round"/>
<path fill-rule="evenodd" clip-rule="evenodd" d="M423 157H278H423Z" fill="#ECECEC"/>
<path d="M423 157H278" stroke="#F9F9F9" stroke-width="0.96625" stroke-miterlimit="10" stroke-linecap="round" stroke-linejoin="round"/>
<path fill-rule="evenodd" clip-rule="evenodd" d="M312.05 533.176C305.673 533.176 300.455 528.007 300.455 521.581C300.455 519.504 300.987 517.572 301.953 515.881L299.634 513.562C298.909 513.803 298.088 513.996 297.267 513.996C293.354 513.996 290.165 510.856 290.117 506.943V480.274H294.32V478.438C294.32 477.376 293.74 476.409 292.822 475.878L270.743 463.462H262.144H258.472H250.549V480.274H254.414V506.943C254.365 509.262 253.206 511.291 251.467 512.547H254.945V533.273H251.418H242.867H239.437V512.595H242.819C241.079 511.339 239.92 509.262 239.872 506.991V480.323H243.93V463.51H224.025L201.946 475.926C201.028 476.458 200.449 477.424 200.449 478.487V480.323H204.652V506.991C204.555 510.904 201.415 514.045 197.502 514.045C196.68 514.045 195.859 513.9 195.134 513.61L192.815 515.929C193.781 517.62 194.313 519.552 194.313 521.63C194.313 528.007 189.143 533.225 182.718 533.225C176.341 533.225 171.123 528.055 171.123 521.63C171.123 515.253 176.292 510.035 182.718 510.035C184.94 510.035 187.066 510.663 188.805 511.774L190.883 509.697C190.545 508.875 190.303 507.957 190.303 506.991H190.255V480.323H194.265V478.487C194.265 475.202 196.052 472.206 198.903 470.563L221.658 457.712C222.141 457.471 222.624 457.326 223.155 457.326H234.606V441.721H243.882V387.418H231.32L229.581 382.49H223.155L213.59 376.306H227.407L225.04 369.639H269.246L266.878 376.306H280.647L271.081 382.49H264.753L263.013 387.418H250.5V441.721H259.776V457.326H262.144H271.565C272.096 457.326 272.627 457.471 273.062 457.712L295.817 470.563C298.668 472.158 300.455 475.202 300.455 478.487V480.323H304.465V506.991H304.417C304.417 507.957 304.176 508.875 303.837 509.697L305.915 511.774C307.702 510.663 309.78 510.035 312.002 510.035C318.379 510.035 323.597 515.204 323.597 521.63C323.645 527.959 318.476 533.176 312.05 533.176Z" fill="black"/>
<path fill-rule="evenodd" clip-rule="evenodd" d="M256.588 263.882C244.075 262.53 223.204 261.66 199.337 266.346C193.878 267.409 190.206 272.627 190.979 278.135C193.395 295.43 191.076 314.997 186.873 331.471C181.655 351.569 181.8 385.05 222.044 380.171C262.095 375.291 279.681 384.615 279.681 384.615C309.007 382.103 310.698 381.62 328.235 381.137C314.998 366.45 288.909 360.169 281.662 353.695C274.802 347.56 277.169 342.197 270.308 277.7C269.535 270.453 263.835 264.655 256.588 263.882Z" fill="#573652"/>
<path fill-rule="evenodd" clip-rule="evenodd" d="M329.685 300.214C329.685 308.041 323.356 314.37 315.529 314.37C310.215 314.37 305.528 311.423 303.161 307.026L271.951 256.153C269.729 253.448 268.376 249.969 268.376 246.153C268.376 237.456 275.43 230.354 284.174 230.354C291.373 230.354 297.412 235.137 299.296 241.708L326.448 291.083C328.428 293.596 329.685 296.736 329.685 300.214Z" fill="#D3D8DC"/>
<path fill-rule="evenodd" clip-rule="evenodd" d="M337.463 279.633H337.608L329.153 303.983C327.51 309.974 322.051 314.37 315.529 314.37C307.702 314.37 301.373 308.041 301.373 300.214C301.373 297.654 302.05 295.287 303.258 293.209L309.007 279.633C308.958 279.537 308.958 279.44 308.958 279.343C309.248 278.087 315.915 277.024 323.839 277.024C331.762 277.024 337.946 278.039 337.608 279.343C337.608 279.44 337.559 279.537 337.463 279.633Z" fill="#D3D8DC"/>
<path d="M303.113 293.451L309.007 279.585" stroke="#A8B3BC" stroke-width="0.96625" stroke-miterlimit="10" stroke-linecap="round" stroke-linejoin="round"/>
<path fill-rule="evenodd" clip-rule="evenodd" d="M323.839 277.072C331.762 277.072 337.946 278.087 337.608 279.391C337.318 280.647 330.651 281.71 322.728 281.71C314.804 281.71 308.62 280.696 308.958 279.391C309.248 278.087 315.915 277.072 323.839 277.072Z" fill="black"/>
<path fill-rule="evenodd" clip-rule="evenodd" d="M339.395 267.507L335.53 278.474H335.434C335.434 278.522 335.482 278.57 335.434 278.667C335.192 279.73 329.491 280.6 322.776 280.6C316.06 280.6 310.794 279.73 311.084 278.667C311.084 278.619 311.133 278.522 311.181 278.474L315.046 267.555H339.395V267.507Z" fill="#ECE6E8"/>
<path fill-rule="evenodd" clip-rule="evenodd" d="M327.559 265.478C334.274 265.478 339.54 266.347 339.25 267.41C339.009 268.473 333.308 269.343 326.593 269.343C319.877 269.343 314.611 268.473 314.901 267.41C315.191 266.347 320.843 265.478 327.559 265.478Z" fill="black"/>
<path fill-rule="evenodd" clip-rule="evenodd" d="M363.552 218.228C362.779 217.407 361.474 217.407 360.653 218.18C358.43 220.354 356.16 222.48 353.889 224.654L355.387 215.474C355.532 214.46 354.904 213.445 353.889 213.155C352.778 212.865 351.667 213.542 351.377 214.605L347.947 228.035L344.613 220.354C344.227 219.436 343.164 218.904 342.149 219.194C341.038 219.532 340.458 220.644 340.748 221.707L343.985 232.577L338.091 236.055C338.091 236.007 338.139 236.007 338.139 235.959C339.202 233.833 340.023 231.756 340.796 229.533C341.086 228.712 340.796 227.746 340.023 227.214C339.105 226.538 337.801 226.779 337.125 227.697L337.076 227.794C335.869 229.485 334.516 231.176 333.163 232.673C332.487 233.446 331.762 234.123 331.037 234.751C330.699 235.089 330.313 235.331 329.974 235.621C329.588 235.862 329.346 236.007 328.767 236.442C326.641 237.988 324.66 239.969 323.114 242.529C321.568 245.09 320.65 248.423 320.94 251.902L321.085 253.351V253.4L316.978 266.251C316.882 266.347 316.785 266.396 316.785 266.492C316.544 267.41 321.085 268.183 326.882 268.183C332.68 268.183 337.559 267.41 337.801 266.492C337.849 266.347 337.753 266.202 337.559 266.057L340.072 250.259C341.473 248.423 342.826 246.539 344.13 244.607C344.71 243.93 345.241 243.302 345.821 242.626C347.85 240.21 349.879 237.795 351.86 235.379C355.822 230.499 359.783 225.668 363.697 220.74C364.325 220.112 364.276 218.953 363.552 218.228Z" fill="#EB967C"/>
<path d="M324.708 248.181C324.708 248.181 324.66 242.77 331.086 239.678C335.675 237.456 344.033 233.06 344.033 233.06" stroke="black" stroke-width="0.96625" stroke-miterlimit="10" stroke-linecap="round" stroke-linejoin="round"/>
<path d="M347.898 228.373C349.251 223.107 351.425 214.653 351.425 214.653C351.715 213.541 352.826 212.913 353.937 213.203C354.952 213.445 355.628 214.459 355.435 215.522L352.44 233.688C352.391 233.929 352.295 234.171 352.198 234.412L352.102 234.606C350.894 236.442 348.816 238.761 346.836 240.741" stroke="black" stroke-width="0.96625" stroke-miterlimit="10" stroke-linecap="round" stroke-linejoin="round"/>
<path d="M344.082 233.398L340.748 221.803C340.41 220.74 341.038 219.58 342.149 219.291C343.164 219.001 344.227 219.484 344.613 220.45L349.976 232.77C350.266 233.446 350.217 234.171 349.927 234.799L349.783 235.137C349.396 236.007 349.01 236.683 348.623 237.408C348.237 238.132 347.85 238.857 347.415 239.582C346.594 240.983 345.724 242.384 344.855 243.785" stroke="black" stroke-width="0.96625" stroke-miterlimit="10" stroke-linecap="round" stroke-linejoin="round"/>
<path fill-rule="evenodd" clip-rule="evenodd" d="M284.802 262.289C282.628 277.411 272.096 295.576 234.219 296.349C225.909 296.494 227.552 277.121 230.112 261.854C222.962 260.502 217.406 254.414 217.116 246.926C216.778 238.181 223.639 230.789 232.528 230.451C233.108 230.451 233.688 230.451 234.267 230.499C234.267 230.499 267.12 230.693 282.725 230.693C291.566 230.355 299.054 237.167 299.393 245.911C299.731 254.318 293.257 261.516 284.802 262.289Z" fill="#D3D8DC"/>
<path fill-rule="evenodd" clip-rule="evenodd" d="M289.972 250.356L296.204 262.821C299.006 268.425 299.296 274.947 297.074 280.841L282.435 320.264L232.673 320.409C232.625 320.409 206.826 222.721 289.972 250.356Z" fill="#D3D8DC"/>
<path d="M289.972 250.356L296.204 262.821C299.006 268.425 299.296 274.947 297.074 280.842L282.435 320.265" stroke="#A8B3BC" stroke-width="0.96625" stroke-miterlimit="10" stroke-linecap="round" stroke-linejoin="round"/>
<path fill-rule="evenodd" clip-rule="evenodd" d="M325.24 369.3C312.968 391.282 289.15 405.1 279.343 394.616V394.712L265.429 380.364L228.422 373.455C211.271 371.571 203.396 354.806 212.623 339.733L232.673 308.716C232.528 308.62 232.431 308.523 232.431 308.426C232.431 307.074 245.621 306.011 261.902 306.011C278.183 306.011 291.373 307.074 291.373 308.426V308.475H291.518L287.411 329.491L289.247 329.636C293.547 326.688 298.668 325.432 303.741 326.495C306.35 327.027 308.669 328.186 310.746 329.732C317.365 329.249 323.452 331.81 325.771 335.24C332.825 345.434 332.293 356.691 325.24 369.3Z" fill="#ED5C18"/>
<path fill-rule="evenodd" clip-rule="evenodd" d="M327.51 336.399C327.027 335.723 326.399 335.046 325.626 334.418C323.162 331.858 320.07 329.974 316.495 329.249C305.77 326.978 294.851 335.336 292.194 347.994C291.904 349.347 291.373 353.502 291.276 354.323C288.909 371.957 273.932 379.687 280.116 392.103C287.025 405.921 314.031 392.973 326.931 369.831C333.839 357.512 334.371 346.448 327.51 336.399Z" fill="#CC2818"/>
<path fill-rule="evenodd" clip-rule="evenodd" d="M204.217 375.049C204.217 375.049 234.219 360.749 246.829 364.179C264.559 369.058 265.67 380.46 265.67 380.46C265.67 380.46 228.808 374.856 204.217 375.049Z" fill="#573652"/>
<path fill-rule="evenodd" clip-rule="evenodd" d="M247.795 251.369C247.167 253.881 233.977 307.75 233.977 307.75H233.881C233.301 314.852 227.407 320.456 220.16 320.456C212.527 320.456 206.391 314.272 206.391 306.687C206.391 305.672 206.488 304.706 206.681 303.788L217.503 242.093L217.648 242.141C219.484 235.426 225.571 230.498 232.866 230.498C241.563 230.498 248.664 237.552 248.664 246.296C248.664 247.987 248.326 249.726 247.795 251.369Z" fill="#D3D8DC"/>
<path d="M244.22 265.911L237.311 294.126" stroke="#A8B3BC" stroke-width="0.96625" stroke-miterlimit="10" stroke-linecap="round" stroke-linejoin="round"/>
<path fill-rule="evenodd" clip-rule="evenodd" d="M240.306 320.504H240.258L220.933 320.359C220.692 320.359 220.402 320.407 220.112 320.407C212.478 320.407 206.343 314.223 206.343 306.638C206.343 299.053 212.527 292.869 220.112 292.869C228.615 293.352 235.668 293.546 240.355 293.642C243.833 293.546 246.684 299.44 246.635 306.88C246.635 314.272 243.785 320.407 240.306 320.504Z" fill="#D3D8DC"/>
<path d="M213.879 294.319C215.764 293.353 217.889 292.821 220.112 292.821C228.615 293.304 235.668 293.498 240.355 293.594" stroke="#A8B3BC" stroke-width="0.96625" stroke-miterlimit="10" stroke-linecap="round" stroke-linejoin="round"/>
<path fill-rule="evenodd" clip-rule="evenodd" d="M240.355 293.594C243.833 293.497 246.684 299.391 246.635 306.832C246.635 314.272 243.785 320.359 240.306 320.456C236.828 320.552 233.978 314.658 234.026 307.218C234.026 299.826 236.876 293.739 240.355 293.594Z" fill="black"/>
<path fill-rule="evenodd" clip-rule="evenodd" d="M251.37 295.043L250.5 319.876H241.321V319.779C241.224 319.779 241.128 319.827 241.031 319.827C237.891 319.924 235.379 314.32 235.379 307.314C235.379 300.309 237.939 294.56 241.079 294.415C241.176 294.415 241.224 294.415 241.321 294.415V294.318L251.37 295.043Z" fill="#ECE6E8"/>
<path fill-rule="evenodd" clip-rule="evenodd" d="M251.563 294.85C254.607 294.753 257.071 300.164 257.023 306.928C257.023 313.692 254.559 319.296 251.515 319.393C248.471 319.489 246.007 314.078 246.056 307.315C246.056 300.551 248.52 294.947 251.563 294.85Z" fill="black"/>
<path fill-rule="evenodd" clip-rule="evenodd" d="M302.291 297.217L299.006 302.58L299.634 309.151C299.296 309.344 289.392 317.074 276.348 317.026C269.487 317.026 267.168 314.03 267.168 314.03C267.168 314.03 261.516 315.624 252.819 317.46C252.481 317.654 252.143 317.75 251.805 317.75C249.196 317.847 247.07 313.161 247.118 307.363C247.118 301.517 249.244 296.734 251.853 296.638C252.143 296.638 252.433 296.686 252.723 296.783C281.517 296.396 302.291 297.217 302.291 297.217Z" fill="#EB967C"/>
<path d="M296.88 299.44C302.436 297.073 304.9 294.609 308.958 295.237C312.727 295.817 314.998 300.406 323.259 312.195C324.853 314.755 321.423 317.268 318.476 314.272C317.365 315.383 315.142 315.577 314.369 314.707C313.065 313.209 305.432 306.784 304.079 305.286C302.919 303.982 301.76 303.16 299.731 303.643C298.136 304.03 300.504 306.011 298.813 306.735H298.765C296.639 307.653 294.223 306.735 293.354 304.658C292.484 302.629 290.745 302.436 292.87 301.518C293.064 301.421 295.528 302.87 296.88 299.44Z" fill="#EB967C"/>
<path d="M284.754 303.257C289.827 301.228 293.595 299.537 295.141 299.826C297.702 300.454 298.909 301.421 299.393 302.145C300.649 303.836 302.968 308.813 304.127 310.552C305.287 312.243 306.398 313.982 307.509 315.721C308.185 316.784 307.847 318.185 306.784 318.862C305.818 319.49 304.514 319.296 303.789 318.475C302.485 316.977 301.084 315.431 299.731 313.934C298.378 312.436 296.977 310.987 295.624 309.586C295.286 309.247 294.948 308.909 294.61 308.571L294.127 308.136L293.885 307.943L293.788 307.846L293.74 307.798L293.837 307.895C294.416 308.378 294.658 308.329 294.706 308.378C294.755 308.426 294.658 308.426 294.561 308.426C294.32 308.474 293.933 308.523 293.547 308.619C291.952 309.006 289.972 309.73 288.281 310.455H288.232C286.107 311.373 283.691 310.455 282.821 308.378C281.952 306.349 282.966 303.933 285.092 303.015C285.237 303.015 284.561 303.305 284.754 303.257Z" fill="#EB967C"/>
<path d="M303.306 297.556C305.963 297.797 307.268 298.619 307.896 299.295C310.601 302.049 317.606 311.18 317.896 311.518C318.718 312.436 318.573 313.885 317.606 314.707C316.689 315.48 315.432 315.48 314.563 314.755C313.21 313.595 307.509 308.329 305.093 306.252C304.804 305.962 303.258 304.368 300.649 304.03" stroke="black" stroke-width="0.96625" stroke-miterlimit="10" stroke-linecap="round" stroke-linejoin="round"/>
<path d="M295.141 299.826C297.702 300.454 298.909 301.421 299.393 302.145C300.649 303.836 302.968 308.812 304.127 310.552C305.287 312.242 306.398 313.982 307.509 315.721C308.185 316.784 307.847 318.185 306.784 318.861C305.818 319.489 304.514 319.296 303.789 318.475C302.485 316.977 301.084 315.431 299.731 313.933C298.378 312.436 296.977 310.986 295.624 309.585" stroke="black" stroke-width="0.96625" stroke-miterlimit="10" stroke-linecap="round" stroke-linejoin="round"/>
<path fill-rule="evenodd" clip-rule="evenodd" d="M281.71 174.842C326.109 214.072 289.682 209.192 289.682 209.192C291.711 207.26 294.948 202.332 289.73 189.916C296.591 217.164 272.966 209.917 272.966 209.917L273.497 205.134C276.492 204.651 259.97 199.771 259.97 199.771C261.371 202.477 260.501 208.274 261.806 210.98C261.806 210.98 247.988 213.975 233.398 209.531C208.662 201.945 237.214 184.022 237.118 181.219C236.925 175.953 236.538 169.238 240.113 164.165C227.794 160.493 234.654 148.995 239.34 151.072C239.34 151.072 239.05 144.937 242.77 142.086C244.606 140.347 247.07 139.284 249.824 139.284C253.013 139.284 255.815 140.734 257.699 143.004C260.984 146.483 260.501 152.715 259.486 157.256C292.581 160.88 292.484 170.397 285.092 175.905C283.353 177.596 281.807 174.794 281.71 174.842Z" fill="#4F2827"/>
<path fill-rule="evenodd" clip-rule="evenodd" d="M262.578 184.118C269.439 184.118 268.376 187.597 268.376 197.936C268.376 199.433 268.376 200.931 268.376 202.38C264.511 201.028 259.97 199.723 259.97 199.723C261.371 202.429 260.501 208.226 261.806 210.932C261.806 210.932 254.704 212.478 245.331 211.705C244.51 210.593 243.93 209.289 243.688 207.695C242.142 198.515 255.67 184.118 262.578 184.118Z" fill="#351015"/>
<path fill-rule="evenodd" clip-rule="evenodd" d="M261.322 242.528L268.279 227.841L278.522 241.03L274.56 264.075L261.322 242.528Z" fill="#EBE6E9"/>
<path fill-rule="evenodd" clip-rule="evenodd" d="M246.635 230.739C246.345 230.788 250.839 230.015 247.988 232.092C245.331 233.976 242.722 235.329 251.177 241.465C268.521 245.282 272.144 239.194 272.144 239.194C272.144 239.194 277.652 242.721 282 240.982C286.3 239.242 278.86 233.638 271.565 232.479C260.356 230.643 246.635 230.739 246.635 230.739Z" fill="black"/>
<path fill-rule="evenodd" clip-rule="evenodd" d="M246.635 222.527C246.346 222.623 242.239 226.682 239.389 230.16C236.731 233.397 238.567 237.89 250.066 241.127C266.347 245.717 270.453 237.455 271.855 235.088C271.855 235.088 278.425 243.398 282.725 240.451C287.025 237.504 278.715 227.503 271.468 225.474C260.356 222.333 246.635 222.527 246.635 222.527Z" fill="#EBE6E9"/>
<path fill-rule="evenodd" clip-rule="evenodd" d="M260.984 222.189C268.956 223.542 275.091 226.344 274.753 228.421C274.415 230.499 267.651 231.078 259.68 229.677C251.708 228.325 245.572 225.523 245.911 223.445C246.297 221.368 253.061 220.788 260.984 222.189Z" fill="black"/>
<path fill-rule="evenodd" clip-rule="evenodd" d="M276.299 208.178L273.014 227.116C273.062 227.261 273.062 227.406 273.062 227.551C272.772 229.387 266.83 229.87 259.873 228.662C252.916 227.454 247.505 225.039 247.795 223.203C247.843 223.058 247.892 222.913 247.988 222.816L255.332 196.824L276.299 208.178Z" fill="#EB967C"/>
<path fill-rule="evenodd" clip-rule="evenodd" d="M274.222 220.111C263.062 215.811 258.858 200.013 258.858 200.013L262.337 200.641L276.299 208.226L274.222 220.111Z" fill="black"/>
<path fill-rule="evenodd" clip-rule="evenodd" d="M255.042 198.419C252.336 199.578 248.036 197.453 247.07 196.148C245.379 193.829 245.379 189.626 247.843 187.887C249.824 186.486 253.399 187.549 255.235 189.336C255.332 189.433 255.525 189.626 255.573 189.723C261.419 184.022 260.211 177.645 260.211 177.645C268.956 176.678 268.183 166.533 268.183 166.484C268.183 166.484 278.715 172.185 284.754 172.668C285.72 176.243 285.527 178.369 286.831 183.973C288.812 192.476 287.653 207.888 277.555 211.077C271.71 212.864 261.661 211.415 255.042 198.419ZM255.283 189.336C255.187 189.288 255.235 189.288 255.283 189.336V189.336Z" fill="#EB967C"/>
<path d="M251.08 192.524C249.921 193.297 249.534 194.843 250.259 195.955C250.984 197.066 252.481 197.259 253.641 196.486" stroke="black" stroke-width="0.96625" stroke-miterlimit="10" stroke-linecap="round" stroke-linejoin="round"/>
<path d="M278.811 176.485C278.811 176.485 282.966 174.891 285.624 176.726" stroke="black" stroke-width="0.96625" stroke-miterlimit="10" stroke-linecap="round" stroke-linejoin="round"/>
<path d="M281.13 181.702L283.449 180.253" stroke="black" stroke-width="0.96625" stroke-miterlimit="10" stroke-linecap="round" stroke-linejoin="round"/>
<path d="M266.733 182.958L269.342 181.702" stroke="black" stroke-width="0.96625" stroke-miterlimit="10" stroke-linecap="round" stroke-linejoin="round"/>
<path d="M261.177 179.819C261.081 180.398 263.98 176.002 271.855 177.065" stroke="black" stroke-width="0.96625" stroke-miterlimit="10" stroke-linecap="round" stroke-linejoin="round"/>
<path d="M276.493 182.089C276.493 182.089 277.749 184.843 279.633 187.693C281.662 190.737 281.082 193.781 276.444 193.104" stroke="black" stroke-width="0.96625" stroke-miterlimit="10" stroke-linecap="round" stroke-linejoin="round"/>
<path d="M254.414 194.071L248.906 191.269" stroke="black" stroke-width="0.96625" stroke-miterlimit="10" stroke-linecap="round" stroke-linejoin="round"/>
<path fill-rule="evenodd" clip-rule="evenodd" d="M266.54 182.814C267.265 182.669 267.99 183.587 268.086 184.795C268.183 186.003 267.7 187.114 266.927 187.259C266.154 187.404 265.477 186.486 265.381 185.278C265.284 184.022 265.815 182.959 266.54 182.814Z" fill="black"/>
<path fill-rule="evenodd" clip-rule="evenodd" d="M281.42 181.122C282.145 180.978 282.87 181.896 282.966 183.103C283.063 184.311 282.58 185.422 281.807 185.567C281.082 185.712 280.357 184.794 280.261 183.586C280.164 182.33 280.696 181.219 281.42 181.122Z" fill="black"/>
<path fill-rule="evenodd" clip-rule="evenodd" d="M275.188 195.375C277.604 195.424 279.874 195.327 281.952 195.182C280.841 199.24 278.183 202.091 275.14 202.042C272.048 201.994 269.487 199.095 268.473 195.037C270.502 195.23 272.772 195.375 275.188 195.375Z" fill="black"/>
<path fill-rule="evenodd" clip-rule="evenodd" d="M264.366 170.397C243.64 197.404 247.36 219.096 266.588 210.69C257.747 198.709 263.352 175.47 264.366 170.397Z" fill="#4F2827"/>
<path fill-rule="evenodd" clip-rule="evenodd" d="M291.276 177.645L291.373 179.335L290.213 179.529C289.972 180.205 289.778 180.978 289.778 181.751C289.295 181.026 288.522 179.819 286.493 178.901L282.773 177.838C282.677 177.838 282.58 177.789 282.483 177.789H282.58H282.532L291.276 177.645Z" fill="black"/>
<path d="M276.734 182.62C277.314 180.301 279.826 178.465 282.918 178.272C286.542 178.079 289.537 180.156 289.634 183.007C289.73 185.809 286.928 188.273 283.305 188.514C282 188.611 280.744 188.37 279.681 187.886C279.633 187.838 279.633 187.79 279.585 187.741" stroke="black" stroke-width="0.96625" stroke-miterlimit="10" stroke-linecap="round" stroke-linejoin="round"/>
<path fill-rule="evenodd" clip-rule="evenodd" d="M259.825 179.867L259.728 181.558L260.888 181.606C261.129 182.234 261.322 182.959 261.322 183.78C261.805 182.959 262.578 181.654 264.608 180.446L268.328 178.9C268.424 178.852 268.521 178.852 268.618 178.804H268.521H268.569L259.825 179.867Z" fill="black"/>
<path fill-rule="evenodd" clip-rule="evenodd" d="M268.183 179.287C264.559 179.577 261.564 182.137 261.467 184.939C261.371 187.79 264.173 189.867 267.796 189.529C271.42 189.239 274.415 186.679 274.512 183.876C274.608 181.074 271.758 178.997 268.183 179.287Z" stroke="black" stroke-width="0.96625" stroke-miterlimit="10" stroke-linecap="round" stroke-linejoin="round"/>
<path fill-rule="evenodd" clip-rule="evenodd" d="M273.545 198.467C272.048 198.419 270.743 198.274 269.632 198.081C269.149 197.163 268.714 196.148 268.473 195.037C270.502 195.23 272.821 195.375 275.236 195.424C276.976 195.424 278.618 195.424 280.213 195.327C279.44 197.018 276.203 198.564 273.545 198.467Z" fill="#EBE6E9"/>
<path fill-rule="evenodd" clip-rule="evenodd" d="M210.594 330.649H196.149L143.681 533.997H152.378L210.594 330.649Z" fill="#F78E28"/>
<path fill-rule="evenodd" clip-rule="evenodd" d="M164.697 319.731H438.822V330.409H164.697V319.731Z" fill="#555FC1"/>
<path fill-rule="evenodd" clip-rule="evenodd" d="M290.455 534.48C282.242 534.094 275.961 528.731 273.304 525.204C271.758 523.127 271.323 519.938 272.289 516.315C273.4 512.208 274.898 508.971 274.27 508.102C273.4 506.845 278.618 500.661 281.372 494.236C287.314 480.322 282.821 495.927 292.725 498.487C305.432 521.533 304.176 521.726 304.176 521.726C304.562 526.799 297.702 534.818 290.455 534.48Z" fill="black"/>
<path fill-rule="evenodd" clip-rule="evenodd" d="M289.875 531.099C281.662 530.712 275.381 525.35 272.724 521.823C271.178 519.745 271.275 517.813 272.338 512.402C273.159 508.199 274.318 505.638 273.69 504.769C272.821 503.513 276.009 497.328 279.246 488.97C284.706 474.863 281.372 489.357 291.228 491.869C298.571 505.01 303.644 518.731 303.644 518.731C303.547 523.61 297.074 531.437 289.875 531.099Z" fill="#ED5C18"/>
<path fill-rule="evenodd" clip-rule="evenodd" d="M323.839 382.102C317.316 416.356 302.726 466.988 298.958 487.665C298.716 494.477 298.185 499.937 297.991 504.236C297.847 507.135 298.958 513.947 288.281 513.802C271.081 513.609 278.618 498.246 280.116 482.882C283.111 451.334 284.512 434.473 286.348 415.197C287.411 404.036 292.242 399.93 295.769 390.557C292.194 387.417 289.972 382.779 289.972 377.658C289.972 368.14 297.702 360.41 307.219 360.41C316.737 360.41 324.467 368.14 324.467 377.658C324.418 379.204 324.225 380.653 323.839 382.102Z" fill="#EB967C"/>
<path fill-rule="evenodd" clip-rule="evenodd" d="M324.418 377.658C324.418 379.204 324.225 380.654 323.839 382.055C321.713 393.263 318.718 406.211 315.481 419.304C291.663 407.225 318.476 369.3 299.489 362.15C301.808 361.039 304.369 360.362 307.123 360.362C308.717 360.362 310.263 360.604 311.761 360.99C316.399 365.049 320.698 370.556 324.37 376.644C324.419 377.03 324.418 377.32 324.418 377.658Z" fill="black"/>
<path fill-rule="evenodd" clip-rule="evenodd" d="M343.84 471.432C342.632 469.693 342.632 453.895 340.845 449.499C329.588 421.332 321.616 412.588 313.596 394.954C308.185 383.069 312.002 376.933 308.379 363.696C301.277 361.715 296.011 355.193 296.011 347.414C296.011 338.09 303.596 330.505 312.968 330.505C319.587 330.505 325.336 334.322 328.139 339.878C328.235 339.829 328.283 339.781 328.38 339.684C339.927 372.585 356.111 423.99 363.262 444.184C371.282 452.88 385.196 463.702 385.196 463.702C385.196 463.702 367.417 479.597 343.84 471.432Z" fill="#EB967C"/>
<path fill-rule="evenodd" clip-rule="evenodd" d="M308.379 363.695C305.625 362.922 303.161 361.473 301.132 359.541C302.146 357.511 303.741 355.531 306.108 353.646C306.108 353.646 309.925 362.439 309.925 372.44C309.731 369.879 309.297 366.981 308.379 363.695Z" fill="black"/>
<path fill-rule="evenodd" clip-rule="evenodd" d="M343.405 473.606L342.729 462.156C342.729 462.156 346.207 459.982 353.889 461.383C363.02 463.025 368.479 464.426 368.479 464.426C368.479 464.426 375.485 460.465 380.026 460.465L400.607 466.069C400.607 466.069 384.616 481.432 376.065 479.258C367.513 477.133 362.779 474.041 355.483 474.862C348.237 475.635 343.405 473.606 343.405 473.606Z" fill="#ED5C18"/>
<path fill-rule="evenodd" clip-rule="evenodd" d="M362.827 474.765C362.827 474.765 352.246 472.108 346.401 471.722C342.777 471.48 342.584 473.896 344.372 475.393C351.232 481.046 359.493 475.538 364.228 477.422C368.963 479.307 381.524 483.655 390.123 481.577C398.723 479.5 404.376 473.751 405.728 466.987C406.501 463.025 403.603 459.837 398.192 461.914C383.843 467.325 374.567 477.181 362.827 474.765Z" fill="black"/>
<path fill-rule="evenodd" clip-rule="evenodd" d="M427.682 231.39C417.901 233.106 411.368 242.421 413.084 252.201C414.8 261.982 424.115 268.517 433.896 266.8C443.677 265.085 450.212 255.77 448.495 245.989C446.779 236.208 437.464 229.673 427.682 231.39Z" fill="#7581F1"/>
<path fill-rule="evenodd" clip-rule="evenodd" d="M448.483 252.572C450.621 244.542 454.38 206.635 453.816 202.626C452.711 194.465 445.126 188.748 436.874 189.869C428.622 190.99 422.799 198.5 423.904 206.661C424.705 212.822 412.561 236.191 412.803 248.471C413.151 266.148 447.319 256.838 448.483 252.572Z" fill="#54B4A6"/>
<path fill-rule="evenodd" clip-rule="evenodd" d="M427.682 231.39C417.901 233.106 411.368 242.421 413.084 252.201C414.8 261.982 424.115 268.517 433.896 266.8C443.677 265.085 450.212 255.77 448.495 245.989C446.779 236.208 437.464 229.673 427.682 231.39Z" fill="#7581F1"/>
<path fill-rule="evenodd" clip-rule="evenodd" d="M399.446 263.324C415.427 291.093 443.127 263.547 445.011 260.183C449.526 248.936 445.411 252.085 444.969 245.581C444.962 244.741 444.857 243.874 444.713 243.059C443.18 234.319 435.132 228.356 426.425 229.277C422.345 229.433 413.87 230.08 408.232 232.796C407.886 232.951 407.54 233.105 407.238 233.25C397.094 238.485 393.062 252.215 399.446 263.324Z" fill="#54B4A6"/>
<path fill-rule="evenodd" clip-rule="evenodd" d="M414.624 246.611C421.006 245.211 426.95 248.229 427.91 253.428C428.86 258.582 424.432 263.934 418.049 265.334C411.666 266.733 405.722 263.716 404.764 258.516C403.812 253.362 408.196 248.019 414.624 246.611Z" fill="#54B4A6"/>
<path d="M427.901 253.383C428.852 258.537 424.423 263.889 418.042 265.288C411.659 266.688 405.715 263.67 404.755 258.471" stroke="#39A08F" stroke-width="1.10848" stroke-miterlimit="10" stroke-linecap="round" stroke-linejoin="round"/>
<path fill-rule="evenodd" clip-rule="evenodd" d="M411.625 238.034C418.008 236.635 423.952 239.652 424.91 244.852C425.862 250.007 421.432 255.358 415.051 256.758C408.668 258.158 402.724 255.14 401.765 249.941C400.867 244.824 405.251 239.48 411.625 238.034Z" fill="#39A08F"/>
<path fill-rule="evenodd" clip-rule="evenodd" d="M402.943 249.734C403.806 254.391 409.135 257.096 414.892 255.852C420.64 254.564 424.605 249.761 423.749 245.15C423.678 244.742 423.568 244.388 423.46 244.033L420.95 222.816L404.637 218.957L402.987 247.065C402.806 247.891 402.784 248.829 402.943 249.734Z" fill="#DE7C62"/>
<path fill-rule="evenodd" clip-rule="evenodd" d="M410.24 230.67C414.046 233.736 418.665 234.792 422.208 233.704L420.897 222.779L404.773 218.934C404.231 222.762 406.214 227.409 410.24 230.67Z" fill="#C26147"/>
<path fill-rule="evenodd" clip-rule="evenodd" d="M412.806 213.369C412.806 213.369 427.162 221.772 419.304 226.466C413.687 229.831 400.35 223.256 397.604 213.189C395.369 204.713 412.806 213.369 412.806 213.369Z" fill="#DE7C62"/>
<path fill-rule="evenodd" clip-rule="evenodd" d="M407.422 222.062C414.826 225.151 419.178 224.154 421.635 222.463C421.397 221.104 420.501 219.72 419.295 218.439C411.054 218.017 397 217.73 407.422 222.062Z" fill="#C26147"/>
<path fill-rule="evenodd" clip-rule="evenodd" d="M405.129 181.856L390.915 184.117C390.19 184.244 389.878 184.859 390.216 185.453L407.857 220.819C408.158 221.467 409.023 221.874 409.702 221.755L423.916 219.495C424.64 219.368 424.952 218.753 424.614 218.158L406.936 182.846C406.681 182.19 405.807 181.737 405.129 181.856Z" fill="#2C1C28"/>
<path fill-rule="evenodd" clip-rule="evenodd" d="M416.971 217.166C422.209 216.947 421.648 212.425 419.318 212.181C422.606 211.23 422.401 207.672 417.579 206.791C410.924 205.578 403.323 206.678 403.323 206.678L403.587 204.999C403.587 204.999 406.495 205.608 408.319 205.895C412.482 206.471 413.87 201.887 406.145 199.088C401.762 197.524 398.496 197.257 397.123 201.138C395.691 205.217 393.937 213.04 403.189 221.078C406.256 227.121 414.554 222.538 415.994 221.165C418.032 219.22 417.698 218.112 416.971 217.166Z" fill="#DE7C62"/>
<path fill-rule="evenodd" clip-rule="evenodd" d="M395.485 196.059C395.485 196.059 395.015 198.707 395.078 200.658C395.25 206.695 396.72 211.618 396.893 212.335L398.844 202.703L395.485 196.059Z" fill="#DE7C62"/>
<path d="M420.013 212.152C420.013 212.152 407.114 210.727 399.875 214.425" stroke="#2C1C28" stroke-width="1.10848" stroke-miterlimit="10" stroke-linecap="round" stroke-linejoin="round"/>
<path d="M416.959 217.354C413.416 217.65 406.976 218.453 403.436 220.894" stroke="#2C1C28" stroke-width="1.10848" stroke-miterlimit="10" stroke-linecap="round" stroke-linejoin="round"/>
<path d="M408.101 205.979C408.237 205.956 399.504 206.461 397.338 209.549" stroke="#2C1C28" stroke-width="1.10848" stroke-miterlimit="10" stroke-linecap="round" stroke-linejoin="round"/>
<path d="M407.814 205.937L400.363 204.443" stroke="#2C1C28" stroke-width="1.10848" stroke-miterlimit="10" stroke-linecap="round" stroke-linejoin="round"/>
<path fill-rule="evenodd" clip-rule="evenodd" d="M431.283 217.594C431.075 218.005 430.867 218.415 430.652 218.779C429.023 222.006 428.844 225.771 430.263 229.07C431.581 232.059 433.972 235.841 438.465 239.906C436.996 247.493 436.461 261.729 445.679 265.853C449.222 267.425 485.507 263.532 497.129 258.74C504.051 255.891 503.566 250.468 498.462 243.195C495.731 239.334 498.597 213.905 499.942 203.213C503.599 200.379 505.569 195.645 504.711 190.754C503.471 183.69 496.765 178.986 489.701 180.225C489.157 180.321 488.667 180.454 488.177 180.586C464.086 184.813 446.122 188.572 436.867 189.823C428.614 190.944 422.79 198.454 423.895 206.615C424.557 211.446 427.395 215.383 431.283 217.594Z" fill="#54B4A6"/>
<path d="M449.751 208.986C449.204 212.256 448.89 215.252 449.013 217.284C449.407 223.516 452.739 235.861 459.431 259.099" stroke="#39A08F" stroke-width="1.10848" stroke-miterlimit="10" stroke-linecap="round" stroke-linejoin="round"/>
<path d="M445.687 265.899C436.514 261.767 437.049 247.53 438.474 239.952C434.017 235.833 431.581 232.06 430.271 229.116C428.807 225.825 429.032 222.052 430.659 218.826C432.183 215.804 434.785 210.68 438.896 202.724" stroke="#39A08F" stroke-width="1.10848" stroke-miterlimit="10" stroke-linecap="round" stroke-linejoin="round"/>
<path fill-rule="evenodd" clip-rule="evenodd" d="M482.433 201.851C490.419 213.053 497.777 220.397 501.641 239.23C503.977 250.676 498.302 254.519 504.925 266.193C512.362 279.311 547.424 272.972 542.391 252.01C537.008 229.57 508.724 193.41 502.643 185.889C499.872 181.801 494.841 179.463 489.679 180.369C482.615 181.608 477.911 188.315 479.15 195.379C479.632 197.862 480.816 200.082 482.433 201.851Z" fill="#54B4A6"/>
<path d="M487.598 209.207C497.402 222.516 499.74 228.128 501.778 238.412" stroke="#39A08F" stroke-width="1.10848" stroke-miterlimit="10" stroke-linecap="round" stroke-linejoin="round"/>
<path fill-rule="evenodd" clip-rule="evenodd" d="M541.359 276.184C541.359 276.184 541.385 276.599 541.425 276.826C541.719 278.501 536.116 280.885 528.916 282.148C521.716 283.412 515.636 283.078 515.343 281.402C515.318 281.266 510.633 268.132 510.633 268.132L510.679 268.124C510.67 268.079 510.67 268.079 510.663 268.034C510.369 266.358 515.971 263.975 523.171 262.712C530.371 261.448 536.452 261.782 536.746 263.457C536.762 263.548 536.732 263.646 536.748 263.737L541.359 276.184Z" fill="#54B4A6"/>
<path d="M510.686 268.17L510.732 268.162C510.723 268.117 510.723 268.117 510.716 268.072C510.422 266.396 516.025 264.013 523.224 262.75C530.424 261.486 536.504 261.82 536.799 263.495C536.814 263.586 536.785 263.684 536.801 263.775" stroke="#39A08F" stroke-width="1.10848" stroke-miterlimit="10" stroke-linecap="round" stroke-linejoin="round"/>
<path fill-rule="evenodd" clip-rule="evenodd" d="M528.008 276.706C521.486 277.851 516.366 280.056 516.636 281.595C516.906 283.134 522.427 283.473 528.993 282.321C535.514 281.177 540.634 278.972 540.365 277.432C540.094 275.892 534.573 275.554 528.008 276.706Z" fill="#39A08F"/>
<path fill-rule="evenodd" clip-rule="evenodd" d="M539.197 316.799C542.566 318.449 551.156 320.582 556.542 322.811L558.395 323.793C559.427 324.358 560.679 324.046 561.162 323.073C561.616 322.201 561.274 321.048 560.377 320.458C560.377 320.458 555.024 317.617 550.77 312.528L562.301 310.411L562.687 310.483C562.786 310.513 562.884 310.543 563.028 310.564C563.225 310.622 563.476 310.719 563.672 310.777C564.074 310.941 564.492 311.194 564.864 311.455C565.237 311.717 565.581 312.077 565.878 312.444L566.001 312.61L566.176 312.812L566.491 313.27L567.155 314.134L574.803 325.534C575.591 326.563 577.044 326.869 578.098 326.217C579.06 325.581 579.26 324.333 578.662 323.318L571.818 311.448L571.281 310.516L571.013 310.05L570.874 309.794L570.683 309.5C570.162 308.658 569.521 307.931 568.789 307.219C568.065 306.553 567.259 305.947 566.37 305.403C565.907 305.158 565.488 304.904 564.988 304.712C564.738 304.616 564.533 304.512 564.282 304.416L563.639 304.202L539.952 296.362C539.898 296.325 539.89 296.28 539.89 296.28C540.253 296.216 533.196 294.84 533.037 294.729C522.756 308.761 539.188 316.755 539.197 316.799Z" fill="#DE7C62"/>
<path fill-rule="evenodd" clip-rule="evenodd" d="M519.107 281.581L530.509 308.521L547.037 305.62L538.632 278.202L538.625 278.157C538.402 276.889 533.88 276.655 528.491 277.601C523.058 278.554 518.885 280.314 519.107 281.581Z" fill="#DE7C62"/>
<path fill-rule="evenodd" clip-rule="evenodd" d="M459.235 178.711C451.085 181.214 444.89 185.008 445.468 187.241C446.001 189.481 453.059 189.27 461.261 186.803C469.41 184.3 475.606 180.505 475.028 178.273C474.487 175.988 467.384 176.207 459.235 178.711Z" fill="black"/>
<path d="M463.961 148.987C465.176 149.521 465.747 150.915 465.287 152.022C464.828 153.129 463.419 153.61 462.251 153.068" stroke="black" stroke-width="1.10848" stroke-miterlimit="10" stroke-linecap="round" stroke-linejoin="round"/>
<path fill-rule="evenodd" clip-rule="evenodd" d="M436.263 158.189C431.258 148.285 446.984 153.32 453.386 156.818C459.788 160.316 460.688 171.034 455.398 180.784C450.106 190.534 431.683 201.515 428.739 194.844C420.896 176.755 443.089 171.554 436.263 158.189Z" fill="#4F2827"/>
<path fill-rule="evenodd" clip-rule="evenodd" d="M442.687 169.525L447.459 185.817C447.438 185.961 447.453 186.052 447.477 186.188C447.947 188.066 453.833 187.826 460.685 185.644C467.491 183.469 472.656 180.183 472.187 178.305C472.155 178.123 472.032 177.958 471.865 177.801L460.331 154.899L442.687 169.525Z" fill="#DE7C62"/>
<path fill-rule="evenodd" clip-rule="evenodd" d="M445.603 180.028C459.637 172.758 457.526 158.332 457.526 158.332L442.639 169.253L445.603 180.028Z" fill="#C26147"/>
<path fill-rule="evenodd" clip-rule="evenodd" d="M461.494 156.469C495.358 159.535 457.267 123.603 446.874 124.493C446.874 124.493 431.645 127.352 429.146 137.313C428.82 140.777 429.343 142.693 429.079 148.107C428.606 156.312 432.195 170.385 442.04 171.692C447.768 172.414 457.449 169.595 461.494 156.469Z" fill="#DE7C62"/>
<path d="M447.48 156.407C447.48 156.407 444.432 162.45 438.479 160.974" stroke="#BD4040" stroke-width="1.10848" stroke-miterlimit="10" stroke-linecap="round" stroke-linejoin="round"/>
<path fill-rule="evenodd" clip-rule="evenodd" d="M446.21 158.217C446.21 158.217 444.693 156.756 442.266 157.556C440.767 158.052 440.579 159.112 440.579 159.112C440.579 159.112 437.888 158.137 438.072 161.046C439.934 162.352 444.937 160.541 446.21 158.217Z" fill="#BD4040"/>
<path d="M436.466 142.05C436.466 142.05 433.322 140.361 429.474 142.903" stroke="#2C1C28" stroke-width="1.10848" stroke-miterlimit="10" stroke-linecap="round" stroke-linejoin="round"/>
<path d="M434.15 146.143L431.738 145.166" stroke="#2C1C28" stroke-width="1.10848" stroke-miterlimit="10" stroke-linecap="round" stroke-linejoin="round"/>
<path d="M447.548 144.026L444.903 143.323" stroke="#2C1C28" stroke-width="1.10848" stroke-miterlimit="10" stroke-linecap="round" stroke-linejoin="round"/>
<path d="M450.999 141.086C449.495 140.23 445.278 138.542 441.288 141.343" stroke="#2C1C28" stroke-width="1.10848" stroke-miterlimit="10" stroke-linecap="round" stroke-linejoin="round"/>
<path d="M438.324 144.665C438.324 144.665 439.583 147.851 437.077 150.858C434.609 153.812 436.416 157.463 440.35 156.212" stroke="#2C1C28" stroke-width="1.10848" stroke-miterlimit="10" stroke-linecap="round" stroke-linejoin="round"/>
<path d="M461.083 150.939L465.739 147.415" stroke="#2C1C28" stroke-width="1.10848" stroke-miterlimit="10" stroke-linecap="round" stroke-linejoin="round"/>
<path fill-rule="evenodd" clip-rule="evenodd" d="M447.705 143.859C447.002 143.842 446.519 144.814 446.582 145.969C446.69 147.117 447.325 148.08 448.02 148.051C448.723 148.068 449.206 147.096 449.144 145.94C449.035 144.792 448.408 143.875 447.705 143.859Z" fill="#2C1C28"/>
<path fill-rule="evenodd" clip-rule="evenodd" d="M433.783 145.648C433.08 145.631 432.597 146.603 432.66 147.759C432.768 148.907 433.403 149.869 434.098 149.84C434.801 149.857 435.284 148.885 435.221 147.729C435.166 146.618 434.486 145.664 433.783 145.648Z" fill="#2C1C28"/>
<path fill-rule="evenodd" clip-rule="evenodd" d="M493.426 180.179C493.426 180.179 486.181 181.45 480.385 182.467C471.393 188.946 473.783 203.37 480.504 206.017L455.96 210.325C450.19 203.775 449.075 197.95 450.309 193.019C445.49 199.605 446.146 205.465 454.767 210.44C418.293 206.338 447.253 184.64 465.453 176.639C467.793 175.341 469.441 174.632 469.441 174.632C469.441 174.632 457.056 167.89 461.518 155.811C464.143 156.938 467.027 154.751 467.734 153.46C469.401 150.46 468.588 146.356 465.865 145.2C463.14 144.044 460.534 145.948 459.153 147.918C459.19 147.864 459.19 147.864 459.153 147.918C459.079 148.024 458.929 148.237 458.899 148.336C459.444 139.465 442.564 137.432 443.443 128.876C443.443 128.876 433.809 129.306 429.272 136.964C428.702 133.983 430.283 126.238 441.931 121.86C455.508 116.77 470.052 122.247 471.952 136.803C472.226 137.829 472.132 139.152 473.355 140.805C476.874 145.695 517.729 162.798 493.426 180.179ZM454.919 210.507C454.866 210.47 454.866 210.47 454.812 210.433C454.866 210.47 454.911 210.461 454.964 210.5L454.919 210.507Z" fill="#4F2827"/>
<path fill-rule="evenodd" clip-rule="evenodd" d="M489.153 539.883C479.498 541.033 467.683 538.872 465.016 537.446C463.408 536.619 461.017 535.746 460.557 531.562C460.419 530.413 458.074 528.574 457.017 527.838C455.224 526.596 458.074 510.782 462.028 506.782C465.109 506.23 472.97 520.023 478.074 523.286C490.854 526.367 493.015 530.642 493.015 530.642C494.578 533.171 494.716 539.24 489.153 539.883Z" fill="#2C1A28"/>
<path fill-rule="evenodd" clip-rule="evenodd" d="M489.153 537.033C479.498 538.183 467.683 536.021 465.016 534.597C463.408 533.769 461.017 532.895 460.557 528.712C460.419 527.562 458.074 525.724 457.017 524.988C455.224 523.747 458.074 507.931 462.028 503.932C465.109 503.38 472.97 517.172 478.074 520.436C490.854 523.516 493.015 527.793 493.015 527.793C494.578 530.32 494.716 536.39 489.153 537.033Z" fill="#54B4A6"/>
<path fill-rule="evenodd" clip-rule="evenodd" d="M396.423 540.344C407.641 540.527 411.227 539.056 415.64 536.987C420.513 534.734 417.571 529.723 422.122 528.804C426.766 527.884 427.271 526.321 427.271 526.321C428.375 521.356 425.662 521.954 422.72 518.46C396.974 534.964 395.273 522.321 393.94 526.367C393.94 526.367 380.699 527.655 375.504 534.045C374.631 535.102 375.09 536.389 375.412 537.539C374.033 537.401 380.884 540.068 396.423 540.344Z" fill="#2C1A28"/>
<path fill-rule="evenodd" clip-rule="evenodd" d="M396.423 537.262C407.641 537.446 411.227 535.975 415.64 533.906C420.513 531.653 417.571 526.642 422.123 525.723C426.766 524.803 427.272 523.24 427.272 523.24C428.375 518.275 426.95 511.148 423.961 507.701C398.216 524.206 395.228 519.286 393.94 523.332C393.94 523.332 378.584 524.803 375.367 534.458C374.033 534.366 380.884 536.987 396.423 537.262Z" fill="#54B4A6"/>
<path fill-rule="evenodd" clip-rule="evenodd" d="M469.798 370.927C470.534 386.695 466.993 384.305 465.016 404.901C463.132 424.625 461.43 472.667 461.246 499.609C461.615 501.586 460.787 505.539 460.787 505.539C460.787 505.539 463.683 509.263 463.821 511.24C464.787 525.078 466.35 527.193 489.429 525.216C485.429 520.573 477.935 505.034 479.729 495.425C488.003 421.314 491.36 410.326 491.268 388.948C491.176 363.846 502.394 335.618 506.347 314.011C510.76 290.15 491.13 264.864 491.958 270.979C482.349 269.875 491.773 293.092 484.556 293.506C483.728 293.597 468.326 292.586 468.326 292.586C468.326 292.586 466.947 309.045 469.798 370.927Z" fill="#DE7C62"/>
<path fill-rule="evenodd" clip-rule="evenodd" d="M410.446 521.998C417.755 510.091 421.709 509.861 424.467 509.172C429.386 481.265 437.019 435.337 440.788 416.671C444.88 396.397 439.731 393.409 445.109 378.099C466.166 318.01 467.729 300.402 467.729 300.402C467.729 300.402 456.143 290.242 455.362 290.104C448.282 289.046 454.35 275.99 444.42 276.266C446.443 271.668 430.351 287.024 426.398 319.803C418.077 388.673 403.687 501.265 403.687 501.265C403.687 501.265 400.008 509.907 394.676 515.93C391.687 519.286 388.883 523.378 386.446 525.354C400.699 529.079 407.917 526.044 410.446 521.998Z" fill="#DE7C62"/>
<path fill-rule="evenodd" clip-rule="evenodd" d="M461.706 475.795C470.303 476.116 478.027 472.99 482.579 470.646C483.039 466.738 483.498 463.106 483.911 459.658C477.154 457.267 464.465 459.289 464.465 459.289C464.465 459.289 463.454 460.301 462.12 461.818C461.936 466.553 461.798 471.243 461.706 475.795Z" fill="#C26147"/>
<path fill-rule="evenodd" clip-rule="evenodd" d="M404.974 465.314C405.112 466.601 412.928 467.658 422.628 467.658C432.375 467.658 440.282 466.601 440.282 465.267H440.329L465.706 318.932L458.12 465.405H458.35C458.81 466.646 466.533 467.658 475.959 467.658C485.705 467.658 493.613 466.601 493.613 465.267C494.532 457.406 498.624 415.248 499.865 404.719C504.416 366.699 510.255 318.15 510.255 318.15C510.255 318.15 511.267 307.622 509.75 298.887C509.152 295.484 508.37 292.405 507.497 289.6C506.255 283.164 501.566 275.67 498.21 271.21V257.97V257.923C498.21 255.625 486.533 254.567 472.096 255.487C457.66 256.453 445.983 259.073 445.983 261.326C445.983 261.464 446.029 261.555 446.075 261.693L445.109 273.233C428.191 282.014 424.145 306.289 424.099 306.334L404.836 465.267L404.974 465.314Z" fill="#FCC670"/>
<path d="M459.362 312.585L431.823 462.323" stroke="#D8912B" stroke-width="1.10848" stroke-miterlimit="10" stroke-linecap="round" stroke-linejoin="round"/>
<path d="M448.788 272.404C448.788 272.404 443.041 288.403 428.1 294.61" stroke="#D8912B" stroke-width="1.10848" stroke-miterlimit="10" stroke-linecap="round" stroke-linejoin="round"/>
<path d="M466.533 256.59V268.681L465.338 310.702C465.338 310.702 453.293 305.461 457.062 287.392C460.281 272.084 459.453 269.876 459.453 269.876" stroke="#D8912B" stroke-width="1.10848" stroke-miterlimit="10" stroke-linecap="round" stroke-linejoin="round"/>
<path d="M481.935 268.082C481.935 268.082 481.935 289.506 502.808 296.265" stroke="#D8912B" stroke-width="1.10848" stroke-miterlimit="10" stroke-linecap="round" stroke-linejoin="round"/>
<path d="M491.084 255.763V268.222C494.44 272.681 499.175 280.175 500.37 286.611C501.244 289.37 502.025 292.496 502.623 295.898C504.094 304.634 503.129 315.162 503.129 315.162C503.129 315.162 497.29 363.71 492.739 401.731C491.313 413.776 486.992 459.153 486.026 467.244" stroke="#D8912B" stroke-width="1.10848" stroke-miterlimit="10" stroke-linecap="round" stroke-linejoin="round"/>
<path d="M498.44 270.935V270.888C498.44 268.544 486.44 267.44 471.637 268.406C456.833 269.371 444.833 272.084 444.833 274.429" stroke="#D8912B" stroke-width="1.10848" stroke-miterlimit="10" stroke-linecap="round" stroke-linejoin="round"/>
<path fill-rule="evenodd" clip-rule="evenodd" d="M465.476 311.161L457.983 310.885C457.983 310.885 457.431 314.655 459.04 319.896C460.465 324.54 463.959 328.815 463.959 328.815L465.66 318.93L465.476 311.161Z" fill="#D8912B"/>
</svg>
