<svg width="55" height="55" viewBox="0 0 55 55" fill="none" xmlns="http://www.w3.org/2000/svg">
<path d="M38.2816 6C37.4822 6 37.0126 6.40631 36.6967 6.72451L32.9927 10.4075L31.1565 8.7929C30.1442 7.78024 28.8096 7.27499 27.4828 7.27499C26.156 7.27499 24.7571 7.86186 23.7446 8.87451L13.0849 19.5235C12.2463 20.362 12.2822 21.7381 13.121 22.5766C13.9596 23.4171 15.3608 23.3806 16.1996 22.54L26.8272 11.8974C27.1745 11.5491 27.7161 11.3944 28.1377 11.833L29.9247 13.454L17.3019 26.0745C15.169 28.2095 13.2077 31.0862 11.3291 34.4724C9.8913 37.0632 8.56102 39.8388 7.43672 42.6016C7.04367 43.5669 6 46.3619 6 46.8758C6 47.3875 6.16879 47.8669 6.49732 48.2453C6.52979 48.2819 7.16365 48.9806 8.15314 49L38.1732 48.9828C39.3592 48.9828 40.3208 48.0217 40.3208 46.8328C40.3208 45.646 39.3592 44.6828 38.1732 44.6828L18.7221 44.6871C19.3824 44.3517 20.0532 43.9969 20.694 43.64C24.0753 41.7609 26.8382 39.8195 28.9679 37.6867L42.9381 23.7891L48.307 18.3474C48.6119 18.0378 48.9989 17.7132 49 16.7393C49.0052 12.4887 47.2704 9.8894 46.2124 8.80365C45.1543 7.72004 42.5769 6.00432 38.2816 6ZM39.0696 10.3882C39.9699 10.3602 42.1873 10.8804 43.1486 11.792C44.11 12.7058 44.6632 15.0773 44.6324 15.9738L41.9381 18.6657L36.1646 13.3358L39.0696 10.3882Z" fill="#ED5C18"/>
</svg>
