<svg width="50" height="50" viewBox="0 0 50 50" fill="none" xmlns="http://www.w3.org/2000/svg">
<path d="M12.4003 8.3291C8.16281 8.3291 4.84619 9.39994 4.26077 13.4728C4.07327 14.777 4.48573 16.0604 5.43367 16.9874C5.9045 17.4479 6.40242 17.9958 7.06075 18.5499C8.71283 19.9437 10.8191 21.5104 12.7899 22.9124C18.2129 26.7666 22.4942 29.1624 25.0296 29.1624C27.565 29.1624 31.8462 26.7666 37.2692 22.9124C39.2421 21.5104 41.3483 19.9416 42.9983 18.5499C43.6567 17.9958 44.1546 17.4499 44.6254 16.9874C45.5733 16.0604 45.9858 14.777 45.7983 13.4728C45.2129 9.39994 41.8962 8.3291 37.6587 8.3291H12.4003ZM4.19617 21.1541V33.3291C4.19617 37.9312 7.92742 41.6624 12.5295 41.6624H37.5296C42.1317 41.6624 45.8629 37.9312 45.8629 33.3291V21.1541C44.1546 22.777 42.2463 24.452 39.5483 26.3624C33.64 30.5458 28.3337 33.3291 25.0296 33.3291C21.7254 33.3291 16.4191 30.5458 10.5108 26.3624C7.81077 24.452 5.9045 22.777 4.19617 21.1541Z" fill="#ED5C18"/>
</svg>
