<svg width="55" height="55" viewBox="0 0 55 55" fill="none" xmlns="http://www.w3.org/2000/svg">
<path fill-rule="evenodd" clip-rule="evenodd" d="M6.41675 9.4415C6.41675 7.77084 7.77109 6.4165 9.44175 6.4165H18.5167C20.1874 6.4165 21.5417 7.77084 21.5417 9.4415V18.5165C21.5417 20.1872 20.1874 21.5415 18.5167 21.5415H9.44175C7.77109 21.5415 6.41675 20.1872 6.41675 18.5165V9.4415ZM12.4667 15.4915V12.4665H15.4917V15.4915H12.4667Z" fill="#00A850"/>
<path fill-rule="evenodd" clip-rule="evenodd" d="M6.41675 36.6665C6.41675 34.9958 7.77109 33.6415 9.44175 33.6415H18.5167C20.1874 33.6415 21.5417 34.9958 21.5417 36.6665V45.7415C21.5417 47.4122 20.1874 48.7665 18.5167 48.7665H9.44175C7.77109 48.7665 6.41675 47.4122 6.41675 45.7415V36.6665ZM12.4667 42.7165V39.6915H15.4917V42.7165H12.4667Z" fill="#00A850"/>
<path fill-rule="evenodd" clip-rule="evenodd" d="M36.6667 6.4165C34.9961 6.4165 33.6417 7.77084 33.6417 9.4415V18.5165C33.6417 20.1872 34.9961 21.5415 36.6667 21.5415H45.7417C47.4124 21.5415 48.7668 20.1872 48.7668 18.5165V9.4415C48.7668 7.77084 47.4124 6.4165 45.7417 6.4165H36.6667ZM39.6917 12.4665V15.4915H42.7168V12.4665H39.6917Z" fill="#00A850"/>
<path d="M30.6167 9.4415C30.6167 7.77084 29.2624 6.4165 27.5917 6.4165C25.9211 6.4165 24.5667 7.77084 24.5667 9.4415V12.4665C24.5667 14.1372 25.9211 15.4915 27.5917 15.4915C29.2624 15.4915 30.6167 14.1372 30.6167 12.4665V9.4415Z" fill="#00A850"/>
<path d="M27.5917 18.5165C29.2624 18.5165 30.6167 19.8708 30.6167 21.5415V24.5665H36.6667C38.3374 24.5665 39.6917 25.9208 39.6917 27.5915C39.6917 29.2622 38.3374 30.6165 36.6667 30.6165H27.5917C25.9211 30.6165 24.5667 29.2622 24.5667 27.5915V21.5415C24.5667 19.8708 25.9211 18.5165 27.5917 18.5165Z" fill="#00A850"/>
<path d="M45.7417 24.5665C44.0711 24.5665 42.7168 25.9208 42.7168 27.5915C42.7168 29.2622 44.0711 30.6165 45.7417 30.6165C47.4124 30.6165 48.7668 29.2622 48.7668 27.5915C48.7668 25.9208 47.4124 24.5665 45.7417 24.5665Z" fill="#00A850"/>
<path d="M24.5667 36.6665C24.5667 34.9958 25.9211 33.6415 27.5917 33.6415H30.6167C32.2874 33.6415 33.6417 34.9958 33.6417 36.6665C33.6417 38.3372 32.2874 39.6915 30.6167 39.6915V45.7415C30.6167 47.4122 29.2624 48.7665 27.5917 48.7665C25.9211 48.7665 24.5667 47.4122 24.5667 45.7415V36.6665Z" fill="#00A850"/>
<path d="M18.5167 30.6165C20.1874 30.6165 21.5417 29.2622 21.5417 27.5915C21.5417 25.9208 20.1874 24.5665 18.5167 24.5665H9.44175C7.77109 24.5665 6.41675 25.9208 6.41675 27.5915C6.41675 29.2622 7.77109 30.6165 9.44175 30.6165H18.5167Z" fill="#00A850"/>
<path d="M48.7668 36.6665C48.7668 38.3372 47.4124 39.6915 45.7417 39.6915H39.6917C38.0211 39.6915 36.6667 38.3372 36.6667 36.6665C36.6667 34.9958 38.0211 33.6415 39.6917 33.6415H45.7417C47.4124 33.6415 48.7668 34.9958 48.7668 36.6665Z" fill="#00A850"/>
<path d="M45.7417 48.7665C47.4124 48.7665 48.7668 47.4122 48.7668 45.7415C48.7668 44.0708 47.4124 42.7165 45.7417 42.7165H36.6667C34.9961 42.7165 33.6417 44.0708 33.6417 45.7415C33.6417 47.4122 34.9961 48.7665 36.6667 48.7665H45.7417Z" fill="#00A850"/>
</svg>
