<svg width="60" height="60" viewBox="0 0 60 60" fill="none" xmlns="http://www.w3.org/2000/svg">
<path fill-rule="evenodd" clip-rule="evenodd" d="M9 12C9 10.3431 10.3431 9 12 9H21C22.6569 9 24 10.3431 24 12V21C24 22.6569 22.6569 24 21 24H12C10.3431 24 9 22.6569 9 21V12ZM15 18V15H18V18H15Z" fill="#ED5C18"/>
<path fill-rule="evenodd" clip-rule="evenodd" d="M9 39C9 37.3431 10.3431 36 12 36H21C22.6569 36 24 37.3431 24 39V48C24 49.6569 22.6569 51 21 51H12C10.3431 51 9 49.6569 9 48V39ZM15 45V42H18V45H15Z" fill="#ED5C18"/>
<path fill-rule="evenodd" clip-rule="evenodd" d="M39 9C37.3431 9 36 10.3431 36 12V21C36 22.6569 37.3431 24 39 24H48C49.6569 24 51 22.6569 51 21V12C51 10.3431 49.6569 9 48 9H39ZM42 15V18H45V15H42Z" fill="#ED5C18"/>
<path d="M33 12C33 10.3431 31.6569 9 30 9C28.3431 9 27 10.3431 27 12V15C27 16.6569 28.3431 18 30 18C31.6569 18 33 16.6569 33 15V12Z" fill="#ED5C18"/>
<path d="M30 21C31.6569 21 33 22.3431 33 24V27H39C40.6569 27 42 28.3431 42 30C42 31.6569 40.6569 33 39 33H30C28.3431 33 27 31.6569 27 30V24C27 22.3431 28.3431 21 30 21Z" fill="#ED5C18"/>
<path d="M48 27C46.3431 27 45 28.3431 45 30C45 31.6569 46.3431 33 48 33C49.6569 33 51 31.6569 51 30C51 28.3431 49.6569 27 48 27Z" fill="#ED5C18"/>
<path d="M27 39C27 37.3431 28.3431 36 30 36H33C34.6569 36 36 37.3431 36 39C36 40.6569 34.6569 42 33 42V48C33 49.6569 31.6569 51 30 51C28.3431 51 27 49.6569 27 48V39Z" fill="#ED5C18"/>
<path d="M21 33C22.6569 33 24 31.6569 24 30C24 28.3431 22.6569 27 21 27H12C10.3431 27 9 28.3431 9 30C9 31.6569 10.3431 33 12 33H21Z" fill="#ED5C18"/>
<path d="M51 39C51 40.6569 49.6569 42 48 42H42C40.3431 42 39 40.6569 39 39C39 37.3431 40.3431 36 42 36H48C49.6569 36 51 37.3431 51 39Z" fill="#ED5C18"/>
<path d="M48 51C49.6569 51 51 49.6569 51 48C51 46.3431 49.6569 45 48 45H39C37.3431 45 36 46.3431 36 48C36 49.6569 37.3431 51 39 51H48Z" fill="#ED5C18"/>
</svg>
