<svg width="55" height="55" viewBox="0 0 55 55" fill="none" xmlns="http://www.w3.org/2000/svg">
<path fill-rule="evenodd" clip-rule="evenodd" d="M27.5001 48.1252C17.3749 48.1252 9.16675 39.9171 9.16675 29.7918C9.16675 19.6666 17.3749 11.4585 27.5001 11.4585C37.6253 11.4585 45.8334 19.6666 45.8334 29.7918C45.8334 39.9171 37.6253 48.1252 27.5001 48.1252Z" fill="#ED5C18"/>
<path fill-rule="evenodd" clip-rule="evenodd" d="M29.7917 11.6003C29.0409 11.5067 28.2761 11.4585 27.5 11.4585C26.7239 11.4585 25.9591 11.5067 25.2083 11.6003V9.16683H22.9167C21.651 9.16683 20.625 8.14082 20.625 6.87516C20.625 5.60951 21.651 4.5835 22.9167 4.5835H32.0833C33.349 4.5835 34.375 5.60951 34.375 6.87516C34.375 8.14082 33.349 9.16683 32.0833 9.16683H29.7917V11.6003Z" fill="#ED5C18"/>
<path fill-rule="evenodd" clip-rule="evenodd" d="M38.2937 14.9715L40.1857 13.0794C41.0807 12.1845 42.5317 12.1845 43.4267 13.0794C44.3216 13.9744 44.3216 15.4254 43.4267 16.3203L41.6332 18.1138C40.6561 16.9327 39.5338 15.8762 38.2937 14.9715Z" fill="#ED5C18"/>
<path fill-rule="evenodd" clip-rule="evenodd" d="M27.4152 17.1875H27.5847C28.1834 17.1875 28.6812 17.6485 28.7272 18.2455L29.6967 30.8496C29.7452 31.4806 29.2731 32.0314 28.6421 32.08C28.6129 32.0822 28.5836 32.0833 28.5543 32.0833H26.4456C25.8128 32.0833 25.2998 31.5703 25.2998 30.9375C25.2998 30.9082 25.3009 30.8789 25.3032 30.8496L26.2727 18.2455C26.3187 17.6485 26.8164 17.1875 27.4152 17.1875Z" fill="white"/>
</svg>
