<svg width="55" height="55" viewBox="0 0 55 55" fill="none" xmlns="http://www.w3.org/2000/svg">
<path d="M16.0511 6.71411C13.7067 6.71411 11.3417 7.58497 9.55192 9.37476C5.97005 12.9543 5.94717 18.7729 9.52674 22.3525C11.8207 24.6441 14.9878 25.4852 18.1022 24.832L22.4563 29.1816L16.0442 35.5822L15.2902 34.8535C14.7792 34.3424 14.1353 34.1958 13.4822 34.2599C12.8268 34.3241 12.2997 34.6151 11.8986 35.2178C11.3257 36.0772 7.88821 41.2312 7.3153 42.0928C6.70801 43.0003 6.82947 44.2562 7.60176 45.0285L9.89342 47.3201C10.6657 48.0924 11.8482 48.2116 12.758 47.6066L19.633 43.0233C20.8361 42.2212 20.9049 40.4085 19.9699 39.5125L19.2595 38.8387L25.7013 32.4037L29.9798 36.7395C29.659 38.142 29.6636 39.7691 30.0646 41.2541C31.3411 45.991 36.4561 48.9839 41.2044 47.6708L34.3615 41.0914L35.5302 35.431L41.2594 34.2141L47.8113 41.1121C48.2031 39.6225 48.2192 38.0343 47.7906 36.4393C46.8098 32.7727 43.7963 30.1945 40.258 29.7018C39.1923 29.5552 37.9846 29.5964 36.8777 29.8439L33.7107 26.7089L45.9137 19.0318L46.0582 18.8875C48.8334 16.1146 48.8334 11.6366 46.0582 8.86367L45.9871 8.79038C44.5984 7.40392 42.7925 6.71411 40.9729 6.71411C39.1556 6.71411 37.3475 7.40392 35.9611 8.79038L35.8167 8.93472L28.1832 21.0875L24.9634 17.9043C25.6073 14.9549 24.7754 11.6733 22.4815 9.37931C20.6917 7.58952 18.3977 6.71411 16.0511 6.71411ZM14.5478 10.367L20.0592 11.836L21.535 17.3612L17.4628 21.4289L11.9719 19.9462L10.4778 14.4668L14.5478 10.367Z" fill="#ED5C18"/>
</svg>
