<svg width="47" height="47" viewBox="0 0 47 47" fill="none" xmlns="http://www.w3.org/2000/svg">
<path d="M23.5135 0.615723C17.6491 0.615723 11.8031 2.87279 7.32744 7.3475C-1.62152 16.2972 -1.62152 30.7672 7.32744 39.7162C16.2787 48.6674 30.7483 48.6674 39.6972 39.7162C48.6485 30.7672 48.6485 16.2969 39.6972 7.3475C35.2239 2.87279 29.3778 0.615723 23.5135 0.615723ZM30.3885 14.3657C30.9751 14.3657 31.587 14.5628 32.0362 15.0101C32.9299 15.9053 32.9299 17.4095 32.0362 18.3047L22.8695 27.4718L28.0968 32.6991H14.3468V18.9491L19.5741 24.1764L28.7408 15.0101C29.1877 14.5628 29.8018 14.3657 30.3885 14.3657Z" fill="#ED5C18"/>
</svg>
