<svg width="589" height="663" viewBox="0 0 589 663" fill="none" xmlns="http://www.w3.org/2000/svg">
<g filter="url(#filter0_d_490_2488)">
<rect x="26" y="18" width="404" height="611" rx="20" fill="white"/>
</g>
<path d="M308.535 530.091H306.261C306.196 529.718 306.077 529.387 305.902 529.1C305.728 528.808 305.511 528.561 305.252 528.358C304.992 528.155 304.696 528.003 304.364 527.902C304.036 527.797 303.681 527.744 303.3 527.744C302.623 527.744 302.023 527.914 301.501 528.255C300.978 528.591 300.568 529.085 300.272 529.738C299.977 530.387 299.829 531.179 299.829 532.115C299.829 533.068 299.977 533.87 300.272 534.523C300.572 535.171 300.982 535.662 301.501 535.994C302.023 536.322 302.621 536.487 303.294 536.487C303.667 536.487 304.015 536.438 304.34 536.341C304.668 536.239 304.962 536.091 305.221 535.897C305.485 535.702 305.706 535.463 305.884 535.179C306.066 534.896 306.192 534.571 306.261 534.207L308.535 534.219C308.45 534.811 308.265 535.366 307.981 535.885C307.702 536.403 307.335 536.861 306.881 537.259C306.427 537.652 305.896 537.96 305.288 538.183C304.68 538.402 304.005 538.511 303.264 538.511C302.169 538.511 301.192 538.258 300.333 537.751C299.474 537.244 298.797 536.513 298.303 535.556C297.808 534.6 297.561 533.453 297.561 532.115C297.561 530.774 297.81 529.627 298.309 528.674C298.807 527.718 299.486 526.986 300.345 526.479C301.205 525.973 302.177 525.719 303.264 525.719C303.957 525.719 304.601 525.817 305.197 526.011C305.793 526.206 306.324 526.491 306.79 526.868C307.256 527.241 307.639 527.699 307.939 528.242C308.243 528.782 308.442 529.398 308.535 530.091ZM312.704 532.869V538.341H310.503V525.89H312.655V530.589H312.765C312.984 530.062 313.322 529.647 313.78 529.343C314.242 529.035 314.83 528.881 315.543 528.881C316.192 528.881 316.757 529.017 317.239 529.288C317.722 529.56 318.095 529.957 318.358 530.48C318.626 531.003 318.759 531.641 318.759 532.395V538.341H316.558V532.735C316.558 532.107 316.396 531.619 316.072 531.27C315.752 530.918 315.302 530.741 314.722 530.741C314.333 530.741 313.985 530.826 313.677 530.997C313.373 531.163 313.134 531.404 312.959 531.72C312.789 532.036 312.704 532.419 312.704 532.869ZM325.137 538.523C324.201 538.523 323.392 538.329 322.711 537.94C322.034 537.546 321.513 536.991 321.149 536.274C320.784 535.552 320.601 534.703 320.601 533.726C320.601 532.766 320.784 531.923 321.149 531.197C321.517 530.468 322.032 529.9 322.693 529.495C323.354 529.085 324.13 528.881 325.021 528.881C325.597 528.881 326.14 528.974 326.651 529.16C327.165 529.343 327.619 529.627 328.013 530.012C328.41 530.397 328.722 530.887 328.949 531.483C329.176 532.075 329.289 532.78 329.289 533.599V534.273H321.635V532.79H327.18C327.176 532.369 327.084 531.994 326.906 531.665C326.728 531.333 326.478 531.072 326.158 530.881C325.842 530.691 325.473 530.595 325.052 530.595C324.602 530.595 324.207 530.705 323.866 530.924C323.526 531.138 323.26 531.422 323.07 531.775C322.883 532.123 322.788 532.506 322.784 532.924V534.219C322.784 534.762 322.883 535.228 323.082 535.617C323.281 536.002 323.558 536.298 323.915 536.505C324.272 536.707 324.689 536.809 325.167 536.809C325.487 536.809 325.777 536.764 326.037 536.675C326.296 536.582 326.521 536.446 326.712 536.268C326.902 536.089 327.046 535.868 327.143 535.605L329.198 535.836C329.068 536.379 328.821 536.853 328.456 537.259C328.096 537.66 327.634 537.972 327.07 538.195C326.507 538.414 325.862 538.523 325.137 538.523ZM335.225 538.523C334.292 538.523 333.492 538.319 332.823 537.909C332.158 537.5 331.646 536.934 331.285 536.213C330.928 535.487 330.75 534.652 330.75 533.708C330.75 532.76 330.932 531.923 331.297 531.197C331.662 530.468 332.177 529.9 332.841 529.495C333.51 529.085 334.301 528.881 335.212 528.881C335.97 528.881 336.641 529.021 337.225 529.3C337.813 529.576 338.281 529.967 338.629 530.474C338.978 530.976 339.176 531.564 339.225 532.237H337.122C337.036 531.787 336.834 531.412 336.514 531.112C336.197 530.808 335.774 530.656 335.243 530.656C334.793 530.656 334.398 530.778 334.057 531.021C333.717 531.26 333.451 531.605 333.261 532.054C333.074 532.504 332.981 533.043 332.981 533.672C332.981 534.308 333.074 534.855 333.261 535.313C333.447 535.767 333.709 536.118 334.045 536.365C334.386 536.608 334.785 536.73 335.243 536.73C335.567 536.73 335.857 536.669 336.112 536.547C336.372 536.422 336.589 536.241 336.763 536.006C336.937 535.771 337.057 535.485 337.122 535.149H339.225C339.172 535.81 338.978 536.395 338.641 536.906C338.305 537.413 337.847 537.81 337.267 538.098C336.688 538.381 336.007 538.523 335.225 538.523ZM343.039 535.41L343.032 532.754H343.385L346.741 529.002H349.313L345.185 533.599H344.729L343.039 535.41ZM341.032 538.341V525.89H343.233V538.341H341.032ZM346.893 538.341L343.853 534.091L345.337 532.541L349.526 538.341H346.893ZM354.468 538.523C353.556 538.523 352.766 538.323 352.097 537.921C351.429 537.52 350.91 536.959 350.541 536.237C350.176 535.516 349.994 534.673 349.994 533.708C349.994 532.743 350.176 531.898 350.541 531.173C350.91 530.447 351.429 529.884 352.097 529.483C352.766 529.081 353.556 528.881 354.468 528.881C355.38 528.881 356.171 529.081 356.839 529.483C357.508 529.884 358.025 530.447 358.39 531.173C358.759 531.898 358.943 532.743 358.943 533.708C358.943 534.673 358.759 535.516 358.39 536.237C358.025 536.959 357.508 537.52 356.839 537.921C356.171 538.323 355.38 538.523 354.468 538.523ZM354.481 536.76C354.975 536.76 355.388 536.624 355.721 536.353C356.053 536.077 356.3 535.708 356.463 535.246C356.629 534.784 356.712 534.269 356.712 533.702C356.712 533.131 356.629 532.614 356.463 532.152C356.3 531.686 356.053 531.315 355.721 531.039C355.388 530.763 354.975 530.626 354.481 530.626C353.974 530.626 353.552 530.763 353.216 531.039C352.884 531.315 352.634 531.686 352.468 532.152C352.306 532.614 352.225 533.131 352.225 533.702C352.225 534.269 352.306 534.784 352.468 535.246C352.634 535.708 352.884 536.077 353.216 536.353C353.552 536.624 353.974 536.76 354.481 536.76ZM366.763 534.413V529.002H368.964V538.341H366.83V536.681H366.733C366.522 537.204 366.175 537.632 365.693 537.964C365.215 538.296 364.625 538.462 363.924 538.462C363.312 538.462 362.771 538.327 362.301 538.055C361.834 537.779 361.47 537.38 361.206 536.857C360.943 536.33 360.811 535.694 360.811 534.948V529.002H363.012V534.608C363.012 535.2 363.174 535.67 363.498 536.018C363.823 536.367 364.248 536.541 364.775 536.541C365.099 536.541 365.413 536.462 365.717 536.304C366.021 536.146 366.271 535.911 366.465 535.599C366.664 535.283 366.763 534.888 366.763 534.413ZM375.89 529.002V530.705H370.522V529.002H375.89ZM371.847 526.765H374.048V535.532C374.048 535.828 374.093 536.055 374.182 536.213C374.275 536.367 374.397 536.472 374.547 536.529C374.697 536.586 374.863 536.614 375.045 536.614C375.183 536.614 375.309 536.604 375.422 536.584C375.54 536.564 375.629 536.545 375.69 536.529L376.06 538.25C375.943 538.29 375.775 538.335 375.556 538.383C375.341 538.432 375.078 538.46 374.765 538.468C374.214 538.485 373.718 538.402 373.276 538.219C372.834 538.033 372.484 537.745 372.224 537.356C371.969 536.967 371.843 536.48 371.847 535.897V526.765Z" fill="#3F4450"/>
<path d="M264.12 518.416H272.852C273.983 518.366 275.087 518.765 275.924 519.527C276.761 520.29 277.262 521.352 277.317 522.482V540.744C277.262 541.875 276.761 542.937 275.924 543.699C275.087 544.461 273.983 544.861 272.852 544.81H264.12" stroke="#ED5C18" stroke-width="2.56807" stroke-linecap="round" stroke-linejoin="round"/>
<path d="M268.401 531.613H250.966" stroke="#ED5C18" stroke-width="2.56807" stroke-linecap="round" stroke-linejoin="round"/>
<path d="M250.923 531.613L256.63 537.32" stroke="#ED5C18" stroke-width="2.56807" stroke-linecap="round" stroke-linejoin="round"/>
<path d="M250.923 531.613L256.63 525.906" stroke="#ED5C18" stroke-width="2.56807" stroke-linecap="round" stroke-linejoin="round"/>
<path d="M138.744 525.89V538.341H136.865V525.89H138.744ZM143.152 532.796V538.341H141.334V529.002H143.079V530.522H143.194C143.409 530.028 143.746 529.631 144.204 529.331C144.666 529.031 145.247 528.881 145.949 528.881C146.585 528.881 147.142 529.015 147.62 529.282C148.099 529.546 148.47 529.939 148.733 530.462C148.997 530.984 149.128 531.631 149.128 532.401V538.341H147.31V532.62C147.31 531.943 147.134 531.414 146.781 531.033C146.429 530.648 145.945 530.455 145.328 530.455C144.907 530.455 144.532 530.547 144.204 530.729C143.879 530.911 143.622 531.179 143.432 531.532C143.245 531.88 143.152 532.302 143.152 532.796ZM159.221 529.002L155.834 538.341H153.889L150.496 529.002H152.448L154.813 536.189H154.91L157.269 529.002H159.221ZM160.929 538.341V529.002H162.747V538.341H160.929ZM161.847 527.562C161.531 527.562 161.259 527.456 161.032 527.245C160.809 527.031 160.698 526.775 160.698 526.479C160.698 526.179 160.809 525.924 161.032 525.713C161.259 525.498 161.531 525.391 161.847 525.391C162.163 525.391 162.433 525.498 162.656 525.713C162.883 525.924 162.996 526.179 162.996 526.479C162.996 526.775 162.883 527.031 162.656 527.245C162.433 527.456 162.163 527.562 161.847 527.562ZM169.551 529.002V530.462H164.451V529.002H169.551ZM165.819 526.765H167.636V535.599C167.636 535.951 167.689 536.217 167.794 536.395C167.9 536.57 168.036 536.689 168.202 536.754C168.372 536.815 168.556 536.845 168.755 536.845C168.901 536.845 169.029 536.835 169.138 536.815C169.248 536.795 169.333 536.778 169.393 536.766L169.722 538.268C169.616 538.308 169.466 538.349 169.272 538.389C169.077 538.434 168.834 538.458 168.542 538.462C168.064 538.471 167.618 538.385 167.205 538.207C166.791 538.029 166.457 537.753 166.202 537.38C165.946 537.007 165.819 536.539 165.819 535.976V526.765ZM175.487 538.529C174.567 538.529 173.774 538.333 173.11 537.94C172.449 537.542 171.938 536.985 171.578 536.268C171.221 535.546 171.043 534.701 171.043 533.732C171.043 532.776 171.221 531.933 171.578 531.203C171.938 530.474 172.441 529.904 173.085 529.495C173.734 529.085 174.492 528.881 175.359 528.881C175.886 528.881 176.397 528.968 176.891 529.142C177.386 529.317 177.83 529.59 178.223 529.963C178.616 530.336 178.926 530.82 179.153 531.416C179.38 532.008 179.493 532.727 179.493 533.574V534.219H172.07V532.857H177.712C177.712 532.379 177.615 531.955 177.42 531.586C177.226 531.213 176.952 530.92 176.599 530.705C176.251 530.49 175.841 530.382 175.371 530.382C174.861 530.382 174.415 530.508 174.034 530.759C173.657 531.007 173.365 531.331 173.158 531.732C172.956 532.129 172.854 532.561 172.854 533.027V534.091C172.854 534.715 172.964 535.246 173.183 535.684C173.406 536.122 173.716 536.456 174.113 536.687C174.51 536.914 174.974 537.028 175.505 537.028C175.85 537.028 176.164 536.979 176.447 536.882C176.731 536.78 176.976 536.63 177.183 536.432C177.39 536.233 177.548 535.988 177.657 535.696L179.378 536.006C179.24 536.513 178.993 536.957 178.636 537.338C178.283 537.715 177.84 538.008 177.305 538.219C176.774 538.426 176.168 538.529 175.487 538.529ZM185.535 538.529C184.615 538.529 183.823 538.333 183.158 537.94C182.497 537.542 181.987 536.985 181.626 536.268C181.269 535.546 181.091 534.701 181.091 533.732C181.091 532.776 181.269 531.933 181.626 531.203C181.987 530.474 182.489 529.904 183.134 529.495C183.782 529.085 184.54 528.881 185.407 528.881C185.934 528.881 186.445 528.968 186.939 529.142C187.434 529.317 187.878 529.59 188.271 529.963C188.664 530.336 188.974 530.82 189.201 531.416C189.428 532.008 189.542 532.727 189.542 533.574V534.219H182.118V532.857H187.76C187.76 532.379 187.663 531.955 187.468 531.586C187.274 531.213 187 530.92 186.648 530.705C186.299 530.49 185.89 530.382 185.42 530.382C184.909 530.382 184.463 530.508 184.082 530.759C183.705 531.007 183.413 531.331 183.206 531.732C183.004 532.129 182.903 532.561 182.903 533.027V534.091C182.903 534.715 183.012 535.246 183.231 535.684C183.454 536.122 183.764 536.456 184.161 536.687C184.558 536.914 185.022 537.028 185.553 537.028C185.898 537.028 186.212 536.979 186.496 536.882C186.779 536.78 187.025 536.63 187.231 536.432C187.438 536.233 187.596 535.988 187.705 535.696L189.426 536.006C189.288 536.513 189.041 536.957 188.684 537.338C188.332 537.715 187.888 538.008 187.353 538.219C186.822 538.426 186.216 538.529 185.535 538.529Z" fill="#3F4450"/>
<path d="M95.276 532.051C95.9893 532.749 96.9647 532.749 97.6781 532.051L106.879 522.908L108.582 521.205C107.942 520.87 107.228 520.681 106.457 520.681H86.4974C85.7258 520.681 85.0124 520.87 84.3719 521.205L86.0752 522.908L95.276 532.051Z" fill="#ED5C18"/>
<path d="M92.0005 531.876L84.3429 524.248L82.7415 522.661C82.2174 523.404 81.9262 524.292 81.9262 525.267V538.661C81.9262 539.476 82.1446 540.247 82.5085 540.903C82.5231 540.888 82.5231 540.888 82.5377 540.873L84.1973 539.287L92.0005 531.876Z" fill="#ED5C18"/>
<path d="M99.5125 533.303L99.2213 533.594C98.4352 534.365 97.4598 534.759 96.4698 534.759C95.4944 534.759 94.519 534.365 93.7329 533.594L93.5436 533.405L85.6822 540.917L84.0517 542.46C84.0371 542.474 84.0226 542.489 84.008 542.489C84.7213 542.969 85.5657 543.246 86.4975 543.246H106.457C107.374 543.246 108.233 542.969 108.946 542.489L107.316 540.902L99.5125 533.303Z" fill="#ED5C18"/>
<path d="M110.227 522.661L108.626 524.248L101.056 531.76L108.772 539.287L110.446 540.917C110.824 540.262 111.043 539.476 111.043 538.661V525.267C111.043 524.292 110.751 523.404 110.227 522.661Z" fill="#ED5C18"/>
<rect x="79" y="439.163" width="297.896" height="53.0734" rx="6.84818" fill="#ED5C18"/>
<path d="M131.508 462.543C131.451 462.012 131.212 461.599 130.791 461.303C130.373 461.007 129.83 460.859 129.161 460.859C128.691 460.859 128.288 460.93 127.951 461.072C127.615 461.214 127.358 461.406 127.179 461.649C127.001 461.892 126.91 462.17 126.906 462.482C126.906 462.742 126.964 462.966 127.082 463.157C127.204 463.347 127.368 463.51 127.574 463.643C127.781 463.773 128.01 463.882 128.261 463.972C128.513 464.061 128.766 464.136 129.021 464.197L130.189 464.488C130.659 464.598 131.111 464.746 131.544 464.932C131.982 465.119 132.373 465.354 132.718 465.638C133.066 465.921 133.342 466.264 133.545 466.665C133.747 467.066 133.849 467.536 133.849 468.075C133.849 468.805 133.662 469.447 133.289 470.003C132.916 470.554 132.377 470.986 131.672 471.298C130.971 471.606 130.122 471.76 129.125 471.76C128.156 471.76 127.315 471.61 126.602 471.31C125.892 471.01 125.337 470.572 124.936 469.997C124.539 469.421 124.324 468.72 124.291 467.893H126.51C126.543 468.327 126.677 468.687 126.912 468.975C127.147 469.263 127.453 469.478 127.83 469.62C128.211 469.762 128.636 469.832 129.107 469.832C129.597 469.832 130.027 469.76 130.395 469.614C130.768 469.464 131.06 469.257 131.271 468.993C131.482 468.726 131.589 468.414 131.593 468.057C131.589 467.733 131.494 467.465 131.307 467.255C131.121 467.04 130.859 466.862 130.523 466.72C130.191 466.574 129.802 466.444 129.356 466.331L127.939 465.966C126.914 465.702 126.103 465.303 125.507 464.768C124.916 464.229 124.62 463.514 124.62 462.622C124.62 461.888 124.818 461.246 125.216 460.695C125.617 460.143 126.162 459.716 126.851 459.412C127.54 459.104 128.32 458.95 129.192 458.95C130.075 458.95 130.849 459.104 131.514 459.412C132.183 459.716 132.708 460.139 133.089 460.683C133.47 461.222 133.666 461.842 133.678 462.543H131.508ZM139.836 471.754C138.903 471.754 138.103 471.549 137.434 471.14C136.769 470.73 136.257 470.165 135.896 469.443C135.539 468.718 135.361 467.883 135.361 466.939C135.361 465.99 135.543 465.153 135.908 464.428C136.273 463.698 136.788 463.131 137.452 462.725C138.121 462.316 138.912 462.111 139.824 462.111C140.581 462.111 141.252 462.251 141.836 462.531C142.424 462.806 142.892 463.198 143.24 463.704C143.589 464.207 143.787 464.794 143.836 465.467H141.733C141.647 465.017 141.445 464.642 141.125 464.343C140.808 464.039 140.385 463.887 139.854 463.887C139.404 463.887 139.009 464.008 138.668 464.251C138.328 464.49 138.062 464.835 137.872 465.285C137.685 465.735 137.592 466.274 137.592 466.902C137.592 467.538 137.685 468.086 137.872 468.544C138.058 468.998 138.32 469.348 138.656 469.595C138.997 469.839 139.396 469.96 139.854 469.96C140.178 469.96 140.468 469.899 140.723 469.778C140.983 469.652 141.2 469.472 141.374 469.237C141.548 469.002 141.668 468.716 141.733 468.379H143.836C143.783 469.04 143.589 469.626 143.252 470.136C142.916 470.643 142.458 471.04 141.878 471.328C141.299 471.612 140.618 471.754 139.836 471.754ZM148.331 471.76C147.739 471.76 147.206 471.654 146.732 471.444C146.261 471.229 145.889 470.913 145.613 470.495C145.341 470.078 145.206 469.563 145.206 468.951C145.206 468.424 145.303 467.988 145.497 467.644C145.692 467.299 145.957 467.024 146.294 466.817C146.63 466.61 147.009 466.454 147.431 466.349C147.856 466.239 148.296 466.16 148.75 466.112C149.297 466.055 149.741 466.004 150.081 465.96C150.422 465.911 150.669 465.838 150.823 465.741C150.981 465.64 151.06 465.483 151.06 465.273V465.236C151.06 464.778 150.925 464.424 150.653 464.172C150.381 463.921 149.99 463.795 149.48 463.795C148.941 463.795 148.513 463.913 148.197 464.148C147.885 464.383 147.674 464.661 147.564 464.981L145.51 464.689C145.672 464.122 145.939 463.647 146.312 463.266C146.685 462.881 147.141 462.594 147.68 462.403C148.219 462.209 148.815 462.111 149.467 462.111C149.917 462.111 150.365 462.164 150.811 462.269C151.257 462.375 151.664 462.549 152.033 462.792C152.402 463.031 152.698 463.358 152.921 463.771C153.148 464.184 153.261 464.701 153.261 465.321V471.571H151.145V470.288H151.072C150.939 470.548 150.75 470.791 150.507 471.018C150.268 471.241 149.966 471.421 149.601 471.559C149.24 471.693 148.817 471.76 148.331 471.76ZM148.902 470.143C149.344 470.143 149.727 470.055 150.051 469.881C150.375 469.703 150.625 469.468 150.799 469.176C150.977 468.884 151.066 468.566 151.066 468.221V467.121C150.997 467.178 150.88 467.23 150.714 467.279C150.552 467.328 150.369 467.37 150.167 467.407C149.964 467.443 149.763 467.476 149.565 467.504C149.366 467.532 149.194 467.557 149.048 467.577C148.72 467.622 148.426 467.694 148.166 467.796C147.907 467.897 147.702 468.039 147.552 468.221C147.402 468.4 147.327 468.631 147.327 468.914C147.327 469.32 147.475 469.626 147.771 469.832C148.067 470.039 148.444 470.143 148.902 470.143ZM157.675 466.1V471.571H155.474V462.233H157.578V463.82H157.687C157.902 463.297 158.244 462.881 158.715 462.573C159.189 462.265 159.775 462.111 160.472 462.111C161.116 462.111 161.677 462.249 162.156 462.525C162.638 462.8 163.011 463.2 163.274 463.722C163.542 464.245 163.674 464.88 163.67 465.625V471.571H161.469V465.966C161.469 465.342 161.307 464.853 160.982 464.501C160.662 464.148 160.218 463.972 159.651 463.972C159.266 463.972 158.923 464.057 158.623 464.227C158.328 464.393 158.095 464.634 157.924 464.95C157.758 465.267 157.675 465.65 157.675 466.1ZM181.377 465.346C181.377 466.687 181.125 467.836 180.623 468.793C180.124 469.745 179.443 470.475 178.58 470.982C177.721 471.488 176.746 471.742 175.656 471.742C174.565 471.742 173.589 471.488 172.725 470.982C171.866 470.471 171.185 469.739 170.683 468.787C170.184 467.83 169.935 466.683 169.935 465.346C169.935 464.004 170.184 462.857 170.683 461.905C171.185 460.948 171.866 460.216 172.725 459.71C173.589 459.203 174.565 458.95 175.656 458.95C176.746 458.95 177.721 459.203 178.58 459.71C179.443 460.216 180.124 460.948 180.623 461.905C181.125 462.857 181.377 464.004 181.377 465.346ZM179.109 465.346C179.109 464.401 178.961 463.605 178.665 462.956C178.373 462.304 177.968 461.811 177.449 461.479C176.93 461.143 176.333 460.974 175.656 460.974C174.979 460.974 174.381 461.143 173.862 461.479C173.343 461.811 172.936 462.304 172.64 462.956C172.348 463.605 172.202 464.401 172.202 465.346C172.202 466.29 172.348 467.089 172.64 467.741C172.936 468.39 173.343 468.882 173.862 469.218C174.381 469.551 174.979 469.717 175.656 469.717C176.333 469.717 176.93 469.551 177.449 469.218C177.968 468.882 178.373 468.39 178.665 467.741C178.961 467.089 179.109 466.29 179.109 465.346ZM183.509 471.571V459.12H188.178C189.135 459.12 189.937 459.286 190.586 459.619C191.239 459.951 191.731 460.417 192.063 461.017C192.4 461.613 192.568 462.308 192.568 463.102C192.568 463.901 192.398 464.594 192.057 465.182C191.721 465.765 191.224 466.217 190.568 466.537C189.911 466.853 189.105 467.012 188.148 467.012H184.822V465.139H187.844C188.403 465.139 188.861 465.062 189.218 464.908C189.575 464.75 189.838 464.521 190.008 464.221C190.183 463.917 190.27 463.544 190.27 463.102C190.27 462.66 190.183 462.284 190.008 461.971C189.834 461.655 189.569 461.416 189.212 461.254C188.855 461.088 188.395 461.005 187.832 461.005H185.765V471.571H183.509ZM189.942 465.929L193.024 471.571H190.507L187.479 465.929H189.942ZM198.344 461.011V459.12H208.278V461.011H204.429V471.571H202.192V461.011H198.344ZM211.512 471.76C210.921 471.76 210.388 471.654 209.913 471.444C209.443 471.229 209.07 470.913 208.795 470.495C208.523 470.078 208.387 469.563 208.387 468.951C208.387 468.424 208.485 467.988 208.679 467.644C208.874 467.299 209.139 467.024 209.476 466.817C209.812 466.61 210.191 466.454 210.613 466.349C211.038 466.239 211.478 466.16 211.932 466.112C212.479 466.055 212.923 466.004 213.263 465.96C213.604 465.911 213.851 465.838 214.005 465.741C214.163 465.64 214.242 465.483 214.242 465.273V465.236C214.242 464.778 214.106 464.424 213.835 464.172C213.563 463.921 213.172 463.795 212.661 463.795C212.122 463.795 211.695 463.913 211.379 464.148C211.066 464.383 210.856 464.661 210.746 464.981L208.691 464.689C208.853 464.122 209.121 463.647 209.494 463.266C209.867 462.881 210.323 462.594 210.862 462.403C211.401 462.209 211.997 462.111 212.649 462.111C213.099 462.111 213.547 462.164 213.993 462.269C214.439 462.375 214.846 462.549 215.215 462.792C215.584 463.031 215.88 463.358 216.102 463.771C216.329 464.184 216.443 464.701 216.443 465.321V471.571H214.327V470.288H214.254C214.12 470.548 213.932 470.791 213.689 471.018C213.45 471.241 213.148 471.421 212.783 471.559C212.422 471.693 211.999 471.76 211.512 471.76ZM212.084 470.143C212.526 470.143 212.909 470.055 213.233 469.881C213.557 469.703 213.806 469.468 213.981 469.176C214.159 468.884 214.248 468.566 214.248 468.221V467.121C214.179 467.178 214.062 467.23 213.896 467.279C213.733 467.328 213.551 467.37 213.348 467.407C213.146 467.443 212.945 467.476 212.746 467.504C212.548 467.532 212.376 467.557 212.23 467.577C211.901 467.622 211.608 467.694 211.348 467.796C211.089 467.897 210.884 468.039 210.734 468.221C210.584 468.4 210.509 468.631 210.509 468.914C210.509 469.32 210.657 469.626 210.953 469.832C211.249 470.039 211.626 470.143 212.084 470.143ZM218.656 475.073V462.233H220.82V463.777H220.948C221.061 463.55 221.222 463.309 221.428 463.054C221.635 462.794 221.915 462.573 222.267 462.391C222.62 462.204 223.07 462.111 223.617 462.111C224.338 462.111 224.989 462.296 225.569 462.665C226.152 463.029 226.614 463.57 226.955 464.288C227.299 465.001 227.472 465.877 227.472 466.914C227.472 467.94 227.303 468.811 226.967 469.529C226.63 470.246 226.172 470.793 225.593 471.17C225.013 471.547 224.357 471.735 223.623 471.735C223.088 471.735 222.644 471.646 222.292 471.468C221.939 471.29 221.655 471.075 221.44 470.823C221.23 470.568 221.066 470.327 220.948 470.1H220.857V475.073H218.656ZM220.814 466.902C220.814 467.506 220.899 468.035 221.07 468.489C221.244 468.943 221.493 469.297 221.817 469.553C222.146 469.804 222.543 469.93 223.009 469.93C223.495 469.93 223.903 469.8 224.231 469.541C224.559 469.277 224.807 468.919 224.973 468.465C225.143 468.007 225.228 467.486 225.228 466.902C225.228 466.322 225.145 465.808 224.979 465.358C224.813 464.908 224.565 464.555 224.237 464.3C223.909 464.045 223.499 463.917 223.009 463.917C222.539 463.917 222.14 464.041 221.811 464.288C221.483 464.535 221.234 464.882 221.064 465.327C220.897 465.773 220.814 466.298 220.814 466.902ZM238.266 462.233V463.935H232.898V462.233H238.266ZM234.223 459.996H236.424V468.762C236.424 469.058 236.468 469.285 236.558 469.443C236.651 469.597 236.772 469.703 236.922 469.76C237.072 469.816 237.239 469.845 237.421 469.845C237.559 469.845 237.684 469.835 237.798 469.814C237.915 469.794 238.005 469.776 238.065 469.76L238.436 471.48C238.319 471.521 238.151 471.565 237.932 471.614C237.717 471.662 237.453 471.691 237.141 471.699C236.59 471.715 236.094 471.632 235.652 471.45C235.21 471.263 234.859 470.975 234.6 470.586C234.345 470.197 234.219 469.711 234.223 469.127V459.996ZM244.08 471.754C243.168 471.754 242.377 471.553 241.709 471.152C241.04 470.751 240.521 470.189 240.152 469.468C239.787 468.746 239.605 467.903 239.605 466.939C239.605 465.974 239.787 465.129 240.152 464.403C240.521 463.678 241.04 463.114 241.709 462.713C242.377 462.312 243.168 462.111 244.08 462.111C244.992 462.111 245.782 462.312 246.451 462.713C247.12 463.114 247.636 463.678 248.001 464.403C248.37 465.129 248.554 465.974 248.554 466.939C248.554 467.903 248.37 468.746 248.001 469.468C247.636 470.189 247.12 470.751 246.451 471.152C245.782 471.553 244.992 471.754 244.08 471.754ZM244.092 469.991C244.586 469.991 245 469.855 245.332 469.583C245.665 469.308 245.912 468.939 246.074 468.477C246.24 468.015 246.323 467.5 246.323 466.932C246.323 466.361 246.24 465.844 246.074 465.382C245.912 464.916 245.665 464.545 245.332 464.27C245 463.994 244.586 463.856 244.092 463.856C243.585 463.856 243.164 463.994 242.827 464.27C242.495 464.545 242.246 464.916 242.08 465.382C241.917 465.844 241.836 466.361 241.836 466.932C241.836 467.5 241.917 468.015 242.08 468.477C242.246 468.939 242.495 469.308 242.827 469.583C243.164 469.855 243.585 469.991 244.092 469.991ZM265.424 463.321H263.15C263.085 462.948 262.966 462.618 262.792 462.33C262.617 462.038 262.4 461.791 262.141 461.588C261.882 461.386 261.586 461.234 261.253 461.132C260.925 461.027 260.57 460.974 260.189 460.974C259.513 460.974 258.913 461.145 258.39 461.485C257.867 461.821 257.458 462.316 257.162 462.969C256.866 463.617 256.718 464.409 256.718 465.346C256.718 466.298 256.866 467.101 257.162 467.753C257.462 468.402 257.871 468.892 258.39 469.225C258.913 469.553 259.511 469.717 260.183 469.717C260.556 469.717 260.905 469.668 261.229 469.571C261.557 469.47 261.851 469.322 262.111 469.127C262.374 468.933 262.595 468.694 262.773 468.41C262.956 468.126 263.081 467.802 263.15 467.437L265.424 467.449C265.339 468.041 265.155 468.596 264.871 469.115C264.591 469.634 264.224 470.092 263.77 470.489C263.316 470.882 262.785 471.19 262.177 471.413C261.57 471.632 260.895 471.742 260.153 471.742C259.059 471.742 258.082 471.488 257.223 470.982C256.363 470.475 255.686 469.743 255.192 468.787C254.697 467.83 254.45 466.683 254.45 465.346C254.45 464.004 254.699 462.857 255.198 461.905C255.697 460.948 256.375 460.216 257.235 459.71C258.094 459.203 259.067 458.95 260.153 458.95C260.846 458.95 261.49 459.047 262.086 459.242C262.682 459.436 263.213 459.722 263.679 460.099C264.145 460.472 264.528 460.93 264.828 461.473C265.132 462.012 265.331 462.628 265.424 463.321ZM269.593 466.1V471.571H267.392V459.12H269.545V463.82H269.654C269.873 463.293 270.211 462.877 270.669 462.573C271.131 462.265 271.719 462.111 272.432 462.111C273.081 462.111 273.646 462.247 274.129 462.519C274.611 462.79 274.984 463.187 275.247 463.71C275.515 464.233 275.649 464.871 275.649 465.625V471.571H273.448V465.966C273.448 465.338 273.286 464.849 272.961 464.501C272.641 464.148 272.191 463.972 271.612 463.972C271.223 463.972 270.874 464.057 270.566 464.227C270.262 464.393 270.023 464.634 269.849 464.95C269.678 465.267 269.593 465.65 269.593 466.1ZM282.026 471.754C281.09 471.754 280.281 471.559 279.6 471.17C278.924 470.777 278.403 470.222 278.038 469.504C277.673 468.783 277.491 467.934 277.491 466.957C277.491 465.996 277.673 465.153 278.038 464.428C278.407 463.698 278.922 463.131 279.582 462.725C280.243 462.316 281.019 462.111 281.911 462.111C282.486 462.111 283.029 462.204 283.54 462.391C284.055 462.573 284.509 462.857 284.902 463.242C285.299 463.627 285.611 464.118 285.838 464.713C286.065 465.305 286.179 466.01 286.179 466.829V467.504H278.524V466.021H284.069C284.065 465.599 283.974 465.224 283.795 464.896C283.617 464.563 283.368 464.302 283.048 464.111C282.731 463.921 282.363 463.826 281.941 463.826C281.491 463.826 281.096 463.935 280.756 464.154C280.415 464.369 280.15 464.653 279.959 465.005C279.773 465.354 279.677 465.737 279.673 466.154V467.449C279.673 467.992 279.773 468.458 279.971 468.848C280.17 469.233 280.448 469.529 280.804 469.735C281.161 469.938 281.578 470.039 282.057 470.039C282.377 470.039 282.667 469.995 282.926 469.905C283.185 469.812 283.41 469.676 283.601 469.498C283.791 469.32 283.935 469.099 284.033 468.835L286.087 469.066C285.958 469.61 285.711 470.084 285.346 470.489C284.985 470.89 284.523 471.202 283.96 471.425C283.396 471.644 282.752 471.754 282.026 471.754ZM292.114 471.754C291.182 471.754 290.381 471.549 289.712 471.14C289.048 470.73 288.535 470.165 288.174 469.443C287.818 468.718 287.639 467.883 287.639 466.939C287.639 465.99 287.822 465.153 288.186 464.428C288.551 463.698 289.066 463.131 289.731 462.725C290.399 462.316 291.19 462.111 292.102 462.111C292.86 462.111 293.531 462.251 294.114 462.531C294.702 462.806 295.17 463.198 295.519 463.704C295.867 464.207 296.066 464.794 296.114 465.467H294.011C293.926 465.017 293.723 464.642 293.403 464.343C293.087 464.039 292.663 463.887 292.132 463.887C291.682 463.887 291.287 464.008 290.947 464.251C290.606 464.49 290.341 464.835 290.15 465.285C289.964 465.735 289.871 466.274 289.871 466.902C289.871 467.538 289.964 468.086 290.15 468.544C290.337 468.998 290.598 469.348 290.934 469.595C291.275 469.839 291.674 469.96 292.132 469.96C292.456 469.96 292.746 469.899 293.002 469.778C293.261 469.652 293.478 469.472 293.652 469.237C293.826 469.002 293.946 468.716 294.011 468.379H296.114C296.062 469.04 295.867 469.626 295.531 470.136C295.194 470.643 294.736 471.04 294.157 471.328C293.577 471.612 292.896 471.754 292.114 471.754ZM299.928 468.641L299.922 465.984H300.274L303.63 462.233H306.202L302.074 466.829H301.618L299.928 468.641ZM297.922 471.571V459.12H300.122V471.571H297.922ZM303.782 471.571L300.743 467.322L302.226 465.771L306.415 471.571H303.782ZM311.916 471.571V462.233H314.116V471.571H311.916ZM313.022 460.907C312.673 460.907 312.374 460.792 312.122 460.561C311.871 460.326 311.745 460.044 311.745 459.716C311.745 459.384 311.871 459.102 312.122 458.871C312.374 458.636 312.673 458.518 313.022 458.518C313.375 458.518 313.675 458.636 313.922 458.871C314.173 459.102 314.299 459.384 314.299 459.716C314.299 460.044 314.173 460.326 313.922 460.561C313.675 460.792 313.375 460.907 313.022 460.907ZM318.58 466.1V471.571H316.38V462.233H318.483V463.82H318.593C318.807 463.297 319.15 462.881 319.62 462.573C320.094 462.265 320.68 462.111 321.377 462.111C322.022 462.111 322.583 462.249 323.061 462.525C323.543 462.8 323.916 463.2 324.18 463.722C324.447 464.245 324.579 464.88 324.575 465.625V471.571H322.374V465.966C322.374 465.342 322.212 464.853 321.888 464.501C321.568 464.148 321.124 463.972 320.556 463.972C320.171 463.972 319.829 464.057 319.529 464.227C319.233 464.393 319 464.634 318.83 464.95C318.663 465.267 318.58 465.65 318.58 466.1Z" fill="white"/>
<rect x="379.673" y="59.9449" width="32.4065" height="29.1047" rx="3.25288" stroke="#33475B" stroke-width="1.71204"/>
<path d="M387.035 67.3064H399.362M393.198 65.252V67.3064M394.275 77.0651C392.706 75.4398 391.432 73.5278 390.54 71.4153M396.794 80.6603H403.984M395.253 83.742L400.389 73.4698L405.525 83.742M397.052 67.3064C396.057 73.2337 392.243 78.2048 387.035 80.7928" stroke="#33475B" stroke-width="2.05445" stroke-linecap="round" stroke-linejoin="round"/>
<path fill-rule="evenodd" clip-rule="evenodd" d="M566.843 581.227H543.919L547.836 602.014H570.76L566.843 581.227Z" fill="#D3D8DC"/>
<path fill-rule="evenodd" clip-rule="evenodd" d="M467.358 569.43L489.926 569.386L489.303 598.497L464.643 597.206L467.358 569.43Z" fill="#D3D8DC"/>
<path fill-rule="evenodd" clip-rule="evenodd" d="M494.155 617.147C494.155 617.147 488.546 618.082 483.383 618.394C478.976 618.661 479.065 624.047 471.676 626.851C466.201 628.899 457.61 628.943 447.061 627.474C437.09 626.094 433.44 624.091 432.772 623.29H432.683V623.156C432.639 623.067 432.639 622.978 432.683 622.934L432.55 618.126H435.843C436.867 617.592 438.247 617.281 440.117 617.325C448.351 616.524 462.773 600.144 464.91 590.173C467.091 588.615 471.676 591.241 475.86 593.333C480.356 599.743 485.252 595.87 485.252 595.87C485.252 595.87 487.122 593.467 489.481 591.419C494.288 598.007 495.356 615.233 494.155 617.147Z" fill="#2C1C28"/>
<path fill-rule="evenodd" clip-rule="evenodd" d="M588.432 621.688L588.343 625.827H588.254C588.254 625.872 588.254 625.916 588.254 625.916C584.96 627.252 581.844 628.454 569.38 628.943C559.053 629.388 552.421 627.83 548.682 625.427C544.542 622.8 547.925 617.147 543.741 616.435C541.204 615.99 540.625 614.254 540.625 614.254C541.204 605.886 542.094 595.871 545.344 591.998C545.344 594.802 547.525 597.117 547.525 597.117C547.525 597.117 548.593 598.141 552.421 591.597C557.362 589.461 562.837 589.105 568 591.686C571.917 606.464 578.194 614.388 583.402 619.774C584.693 619.774 585.672 620.575 586.429 621.643H588.432V621.688Z" fill="#2C1C28"/>
<path fill-rule="evenodd" clip-rule="evenodd" d="M494.021 612.652C494.021 612.652 488.413 613.586 483.249 613.898C478.842 614.165 478.931 619.551 471.542 622.355C466.067 624.403 457.477 624.447 446.927 622.979C434.152 621.198 431.748 618.438 432.728 618.394C432.728 618.394 432.639 612.652 440.028 612.83C448.262 612.029 462.818 596.138 464.955 586.167C467.136 584.609 474.569 586.79 475.771 588.838C480.267 595.247 484.496 593.467 484.496 593.467C484.496 593.467 489.036 592.399 489.525 586.968C494.377 593.556 495.223 610.738 494.021 612.652Z" fill="#814A2A"/>
<path fill-rule="evenodd" clip-rule="evenodd" d="M540.759 610.115C540.759 610.115 541.293 611.851 543.875 612.296C548.059 613.008 544.676 618.661 548.816 621.287C552.555 623.691 559.187 625.249 569.514 624.804C581.977 624.27 585.093 623.112 588.387 621.777C588.387 621.777 587.052 615.679 583.535 615.679C578.372 610.293 572.051 602.37 568.134 587.591C564.796 585.099 557.496 585.321 552.555 587.502C548.771 594.046 547.614 592.666 547.614 592.666C547.614 592.666 545.433 590.841 545.166 588.037C542.629 593.334 541.382 601.746 540.759 610.115Z" fill="#814A2A"/>
<path fill-rule="evenodd" clip-rule="evenodd" d="M567.733 583.63C567.733 583.719 567.733 583.674 567.733 583.763C567.644 584.921 560.3 585.855 551.442 585.855C543.029 585.855 536.219 585.01 535.685 583.941H535.64C535.64 583.941 523.266 568.051 521.574 537.025C517.835 467.987 490.371 397.702 490.371 397.702C490.371 397.702 487.7 379.897 533.86 390.669L567.733 583.496V583.63Z" fill="#5A74C7"/>
<path fill-rule="evenodd" clip-rule="evenodd" d="M495.757 381.411C474.525 381.411 457.388 385.15 457.521 389.779C457.655 394.409 474.97 398.148 496.202 398.148C517.435 398.148 534.572 394.409 534.438 389.779C534.349 385.15 517.034 381.411 495.757 381.411Z" fill="#5A74C7"/>
<path fill-rule="evenodd" clip-rule="evenodd" d="M533.325 362.76C533.325 362.76 522.375 355.771 504.927 355.504C470.029 355.015 455.117 362.582 455.117 362.582L455.874 389.69L533.904 383.013L533.325 362.76Z" fill="#7581F1"/>
<path fill-rule="evenodd" clip-rule="evenodd" d="M495.089 533.732C499.674 566.359 493.264 583.808 492.953 584.609C492.686 585.544 486.143 586.256 477.997 586.256C469.985 586.256 463.397 585.544 462.952 584.609H462.907L455.474 381.589C455.474 381.589 465.756 379.363 475.059 381.589C485.875 384.17 495.223 396.233 495.223 396.233C495.223 396.233 487.611 480.584 495.089 533.732Z" fill="#5A74C7"/>
<path d="M465.4 369.837C465.4 369.837 464.91 383.769 456.319 393.517" stroke="#555EC2" stroke-width="1.00854" stroke-miterlimit="10" stroke-linecap="round" stroke-linejoin="round"/>
<path d="M509.511 367.656C509.511 367.656 509.778 387.375 527.85 393.874" stroke="#3763C3" stroke-width="1.00854" stroke-miterlimit="10" stroke-linecap="round" stroke-linejoin="round"/>
<path d="M567.644 582.962L526.292 383.146C526.515 379.363 527.316 370.06 527.316 370.06" stroke="#3763C3" stroke-width="1.00854" stroke-miterlimit="10" stroke-linecap="round" stroke-linejoin="round"/>
<path d="M485.92 399.394C485.92 399.394 482.804 480.45 487.923 539.162C490.237 565.424 485.964 585.544 485.964 585.544" stroke="#3763C3" stroke-width="1.00854" stroke-miterlimit="10" stroke-linecap="round" stroke-linejoin="round"/>
<path fill-rule="evenodd" clip-rule="evenodd" d="M494.021 413.103L494.333 408.518L491.217 398.147L479.02 395.877C478.976 395.877 481.424 409.72 494.021 413.103Z" fill="#375BB7"/>
<path fill-rule="evenodd" clip-rule="evenodd" d="M445.698 320.078C449.494 354.858 441.758 372.205 453.6 380.781C454.105 386.905 454.892 396.357 454.892 396.357C454.892 396.357 454.971 397.065 455.522 397.586C456.166 398.141 456.683 398.352 456.683 398.352C456.683 398.352 456.086 395.821 456.347 395.747C459.065 394.816 467.444 392.85 494.169 390.312C514.375 388.368 526.227 389.015 534.156 389.025C534.703 390.71 534.851 391.231 534.851 391.231C534.851 391.231 538.183 390.187 538.216 388.885C538.216 388.885 537.103 377.319 536.683 373.962C544.667 367.65 543.439 352.649 529.701 313.067C536.03 308.777 539.864 301.003 538.935 292.687C537.635 281.052 527.647 272.628 516.454 273.475L515.923 273.535C515.879 273.54 515.835 273.545 515.746 273.555C515.702 273.559 515.614 273.569 515.57 273.574L451.485 280.868C441.414 283.337 434.657 293.408 435.872 304.291C436.604 310.838 440.658 316.655 445.698 320.078Z" fill="#ED5C18"/>
<path d="M453.172 372.206C463.944 370.025 508.278 366.642 536.632 374.654" stroke="#CC2818" stroke-width="1.00854" stroke-miterlimit="10" stroke-linecap="round" stroke-linejoin="round"/>
<path d="M466.307 291.262L480.794 301.468L495.454 287.557" stroke="#CC2818" stroke-width="1.00854" stroke-miterlimit="10" stroke-linecap="round" stroke-linejoin="round"/>
<path fill-rule="evenodd" clip-rule="evenodd" d="M473.323 310.767C467.716 321.919 452.353 342.357 438.797 352.113C436.199 356.927 431.394 360.42 425.555 361.072C416.132 362.125 407.624 355.327 406.576 345.948C405.83 339.269 409.036 333.088 414.299 329.678C414.421 329.575 414.505 329.521 414.628 329.417C429.099 320.634 435.05 300.934 436.065 297.193C437.623 288.688 444.564 281.866 453.589 280.858C464.604 279.627 474.582 287.56 475.813 298.575C476.307 302.998 475.341 307.182 473.323 310.767Z" fill="#ED5C18"/>
<path d="M442.051 344.762L448.588 302.244" stroke="#ED5C18" stroke-width="1.00854" stroke-miterlimit="10" stroke-linecap="round" stroke-linejoin="round"/>
<path fill-rule="evenodd" clip-rule="evenodd" d="M582.058 332.3C583.215 342.652 575.744 351.952 565.437 353.103C559.376 353.78 553.658 351.508 549.703 347.381L518.436 316.476C507.829 316.541 498.627 308.343 497.381 297.195C496.057 285.34 504.274 274.702 515.776 273.417C522.456 272.671 528.7 275.243 533.068 279.861L533.146 279.763L576.664 320.899L576.625 320.949C579.512 323.94 581.559 327.832 582.058 332.3Z" fill="#ED5C18"/>
<path d="M511.846 309.599L543.335 343.3" stroke="#CC2818" stroke-width="1.00854" stroke-miterlimit="10" stroke-linecap="round" stroke-linejoin="round"/>
<path fill-rule="evenodd" clip-rule="evenodd" d="M582.058 332.3C583.215 342.651 575.744 351.951 565.437 353.103C563.756 353.29 562.094 353.252 560.497 352.983L529.365 351.355L529.417 322.953C529.417 322.953 535.773 322.914 540.03 322.931C544.583 309.568 564.873 314.781 567.145 315.871C574.848 317.474 581.124 323.939 582.058 332.3Z" fill="#ED5C18"/>
<path fill-rule="evenodd" clip-rule="evenodd" d="M531.177 323.473C527.568 321.636 523.869 326.215 522.964 333.751C522.055 341.243 524.271 349.057 527.88 350.894C531.49 352.73 535.163 347.93 536.073 340.438C537.022 332.897 534.786 325.309 531.177 323.473Z" fill="#CC2818"/>
<path fill-rule="evenodd" clip-rule="evenodd" d="M530.652 324.785C527.421 323.131 524.12 327.262 523.304 333.982C522.487 340.702 524.477 347.691 527.707 349.345C530.938 351 534.219 346.692 535.036 339.972C535.892 333.202 533.922 326.391 530.652 324.785Z" fill="#D3D8DC"/>
<path fill-rule="evenodd" clip-rule="evenodd" d="M521.268 324.58L529.187 324.502L529.468 349.866L520.659 349.999L521.268 324.58Z" fill="#D3D8DC"/>
<path fill-rule="evenodd" clip-rule="evenodd" d="M522.369 324.816C519.139 323.161 515.838 327.292 515.021 334.012C514.204 340.732 516.194 347.721 519.425 349.375C522.655 351.03 525.936 346.722 526.753 340.002C527.565 333.238 525.595 326.426 522.369 324.816Z" fill="#A8B3BC"/>
<path fill-rule="evenodd" clip-rule="evenodd" d="M521.534 325.759C518.825 324.36 516.035 327.852 515.365 333.48C514.7 339.153 516.34 345.017 519.044 346.372C521.754 347.771 524.529 344.146 525.194 338.473C525.908 332.84 524.238 327.114 521.534 325.759Z" fill="#E99670"/>
<path fill-rule="evenodd" clip-rule="evenodd" d="M494.238 325.584L499.852 334.542L494.238 325.584Z" fill="#E99670"/>
<path fill-rule="evenodd" clip-rule="evenodd" d="M504.07 343.432C498.293 341.032 495.925 336.28 491.224 332.685L489.444 331.585C488.436 330.98 488.071 329.722 488.587 328.724C489.112 327.814 490.243 327.509 491.187 327.941C491.187 327.941 496.153 330.701 502.613 331.591C512.491 328.607 525.924 350.217 504.07 343.432Z" fill="#E99670"/>
<path d="M482.107 311.219L494.825 313.605L495.833 313.806L496.34 313.929L496.571 313.992L496.895 314.09C497.814 314.301 498.66 314.655 499.516 315.097C500.371 315.538 501.148 316.079 501.891 316.712C502.24 317.032 502.589 317.351 502.943 317.715C503.096 317.877 503.253 318.083 503.406 318.245L503.824 318.781L518.7 338.08C521.268 341.421 513.377 346.155 505.848 340.904L498.743 321.812L498.527 321.478C498.472 321.394 498.418 321.311 498.364 321.227C498.256 321.06 498.103 320.898 497.951 320.736C497.646 320.411 497.346 320.131 496.958 319.861C496.574 319.635 496.19 319.41 495.768 319.233L495.581 319.164L495.35 319.1L494.838 318.934L493.865 318.639L481.274 315.388C480.114 315.025 479.351 313.811 479.626 312.661C479.955 311.594 481.006 310.984 482.107 311.219Z" fill="#E99670"/>
<path fill-rule="evenodd" clip-rule="evenodd" d="M504.31 333.552L499.555 323.871L499.26 323.635C499.162 323.557 499.113 323.517 499.014 323.439C498.867 323.321 498.675 323.208 498.483 323.095C498.1 322.869 497.721 322.687 497.308 322.599C496.89 322.467 496.477 322.378 496.03 322.384L495.848 322.359L495.578 322.345L495.086 322.355L494.098 322.331L481.509 321.901C480.3 321.902 479.302 320.983 479.217 319.828C479.148 318.806 479.949 317.955 481.055 317.831L493.55 317.42L494.523 317.312L495.009 317.257L495.275 317.228L495.585 317.193C496.474 317.139 497.379 317.217 498.293 317.383C499.208 317.55 500.088 317.81 500.938 318.207C501.361 318.384 501.789 318.605 502.172 318.831C502.364 318.944 502.556 319.057 502.753 319.214L503.284 319.558L513.347 329.049C518.031 336.498 513.194 336.098 504.31 333.552Z" fill="#E99670"/>
<path d="M482.107 311.219L494.825 313.605L495.833 313.806L496.34 313.929L496.571 313.992L496.895 314.09C497.814 314.301 498.66 314.655 499.516 315.097C500.371 315.538 501.148 316.079 501.891 316.712C502.24 317.032 502.589 317.351 502.943 317.715C503.096 317.877 503.253 318.083 503.406 318.245L503.824 318.781L518.7 338.08C521.268 341.421 513.377 346.155 505.848 340.904L498.743 321.812L498.527 321.478C498.472 321.394 498.418 321.311 498.364 321.227C498.256 321.06 498.103 320.898 497.951 320.736C497.646 320.411 497.346 320.131 496.958 319.861C496.574 319.635 496.19 319.41 495.768 319.233L495.581 319.164L495.35 319.1L494.838 318.934L493.865 318.639L481.274 315.388C480.114 315.025 479.351 313.811 479.626 312.661C479.955 311.594 481.006 310.984 482.107 311.219Z" fill="#E99670"/>
<path fill-rule="evenodd" clip-rule="evenodd" d="M509.004 333.475L502.245 325.093L501.911 324.906C501.817 324.872 501.719 324.793 501.625 324.759C501.439 324.69 501.247 324.577 501.065 324.553C500.647 324.42 500.234 324.332 499.826 324.288C499.418 324.244 498.971 324.249 498.533 324.343L498.356 324.363L498.096 324.436L497.614 324.535L496.651 324.732L487.691 326.719C486.511 326.985 485.316 326.312 485.016 325.226C484.725 324.228 485.329 323.22 486.366 322.88L495.055 320.073L496.004 319.743L496.481 319.601L496.697 319.532L497.002 319.453C497.871 319.221 498.751 319.078 499.685 319.019C500.619 318.959 501.524 319.037 502.438 319.204C502.895 319.287 503.357 319.415 503.775 319.547C504.006 319.611 504.237 319.675 504.429 319.787L505.039 320.033L513.304 332.277C519.379 338.541 518.246 334.01 509.004 333.475Z" fill="#E99670"/>
<path fill-rule="evenodd" clip-rule="evenodd" d="M492.122 322.282L504.562 320.579L506.302 336.15L501.923 337.849L492.122 322.282Z" fill="#E99670"/>
<path fill-rule="evenodd" clip-rule="evenodd" d="M520.29 325.451L509.566 327.276L509.463 344.8L520.151 346.651C523.869 341.847 523.627 332.468 520.29 325.451Z" fill="#E99670"/>
<path d="M506.59 341.538C506.59 341.538 504.441 339.941 503.761 336.658C501.262 325.113 501.63 324.4 499.334 324.298C499.516 324.323 496.607 324.737 496.607 324.737L487.647 326.724C486.467 326.99 485.272 326.317 484.972 325.231C484.681 324.233 485.285 323.225 486.322 322.886L495.011 320.078C495.011 320.078 500.191 317.932 502.772 319.391C505.978 321.227 511.133 326.877 511.133 326.877" stroke="#2C1C28" stroke-width="1.00854" stroke-miterlimit="10" stroke-linecap="round" stroke-linejoin="round"/>
<path d="M488.971 322.141C485.511 322.035 481.598 321.89 481.598 321.89C480.389 321.891 479.39 320.972 479.306 319.817C479.236 318.795 480.037 317.944 481.143 317.82L493.638 317.41L494.611 317.301L495.098 317.247L495.363 317.217L495.673 317.182C496.563 317.128 497.467 317.206 498.382 317.372C499.296 317.539 500.176 317.799 501.027 318.197C501.45 318.373 501.877 318.594 502.261 318.82C502.453 318.933 502.644 319.046 502.841 319.203" stroke="#2C1C28" stroke-width="1.00854" stroke-miterlimit="10" stroke-linecap="round" stroke-linejoin="round"/>
<path d="M534.88 351.007C538.804 352.853 542.778 347.93 543.84 340.197C544.858 332.47 542.936 324.891 539.012 323.045" stroke="#CC2818" stroke-width="1.00854" stroke-miterlimit="10" stroke-linecap="round" stroke-linejoin="round"/>
<path d="M529.373 322.958C529.373 322.958 535.729 322.92 539.985 322.937C544.539 309.573 564.829 314.786 567.1 315.876" stroke="#CC2818" stroke-width="1.00854" stroke-miterlimit="10" stroke-linecap="round" stroke-linejoin="round"/>
<path fill-rule="evenodd" clip-rule="evenodd" d="M494.964 266.337C498.573 268.576 492.528 277.806 484.704 280.338C476.315 283.022 468.576 281.109 468.554 276.902C468.604 270.536 485.051 260.189 494.964 266.337Z" fill="black"/>
<path fill-rule="evenodd" clip-rule="evenodd" d="M495.309 275.839L491.955 248.623L471.424 251.275L470.184 281.064C470.184 281.064 470.14 281.472 470.165 281.694C470.259 282.937 472.874 283.496 476.659 283.297L479.871 294.807L481.432 282.719C481.958 282.616 482.528 282.507 483.098 282.399C490.052 280.905 495.61 278.134 495.442 276.227C495.427 276.094 495.412 275.962 495.309 275.839Z" fill="#E99670"/>
<path fill-rule="evenodd" clip-rule="evenodd" d="M494.025 265.546C496.277 266.862 498.094 272.705 484.866 279.782C483.033 280.211 482.105 281.927 481.369 285.368L479.861 294.315L477.344 285.818C477.344 285.818 476.807 284.22 476.217 283.346C475.415 282.181 474.549 281.651 474.549 281.651C474.549 281.651 469.814 279.761 469.194 278.218C468.022 275.348 469.781 273.45 470.783 272.397C470.793 272.083 470.802 271.768 470.812 271.453C469.682 272.162 467.982 273.785 467.085 276.976C464.517 282.861 465.923 291.438 465.923 291.438L470.714 288.619L479.96 295.2L489.657 286.189C489.657 286.189 492.327 286.831 496.113 287.841C499.148 284.546 502.026 279.432 502.289 274.969L495.347 266.159L494.064 265.497L494.025 265.546Z" fill="#D3D8DC"/>
<path d="M494.226 265.747C495.008 266.332 495.495 267.084 495.609 268.101C496.019 271.773 491.294 277.183 484.905 279.733C483.49 280.294 482.404 281.401 481.938 282.841C481.094 285.309 480.177 289.532 479.964 294.841C478.599 289.44 477.194 282.072 473.399 280.974C472.705 280.782 472.007 280.547 471.422 280.12C470.301 279.304 469.415 278.194 469.287 277.044" stroke="#2A1C28" stroke-width="1.00854" stroke-miterlimit="10" stroke-linecap="round" stroke-linejoin="round"/>
<path fill-rule="evenodd" clip-rule="evenodd" d="M465.879 291.444L477.807 287.155C477.807 287.155 476.413 283.101 475.114 281.499C473.821 279.942 469.114 283.513 465.879 291.444Z" fill="#2A1C28"/>
<path fill-rule="evenodd" clip-rule="evenodd" d="M496.024 287.852L480.85 287.531C480.972 287.428 480.797 281.849 483.691 280.093C485.411 279.049 492.885 283.007 496.024 287.852Z" fill="#2A1C28"/>
<path fill-rule="evenodd" clip-rule="evenodd" d="M470.364 277.462C488.187 269.021 486.075 254.924 486.075 254.924L471.056 260.006L470.364 277.462Z" fill="#C87149"/>
<path fill-rule="evenodd" clip-rule="evenodd" d="M470.716 267.395C472.236 268.224 473.95 268.585 475.676 268.481C477.401 268.377 479.063 267.874 480.51 266.924C484.574 264.239 489.876 259 490.791 249.379C497.729 249.599 499.715 238.669 495.133 237.11C492.294 236.182 489.502 238.794 488.323 241.056C488.261 241.165 488.148 241.427 488.128 241.525C486.735 236.276 491.139 229.113 487.322 226.976C467.153 215.708 459.394 230.667 457.658 233.59C457.686 237.229 458.375 240.917 458.934 246.487C460.04 258.092 465.809 264.818 470.716 267.395ZM488.28 241.068C488.311 241.013 488.311 241.013 488.28 241.068V241.068Z" fill="#E99670"/>
<path d="M470.512 256.05C470.512 256.05 475.122 255.524 477.162 251.688" stroke="#2C1C28" stroke-width="1.00854" stroke-miterlimit="10" stroke-linecap="round" stroke-linejoin="round"/>
<path d="M464.362 237.336C461.747 237.223 458.689 239.031 458.249 240.121" stroke="#2C1C28" stroke-width="1.00854" stroke-miterlimit="10" stroke-linecap="round" stroke-linejoin="round"/>
<path d="M479.334 234.706C477.373 233.951 473.738 233.656 470.372 235.687" stroke="#2C1C28" stroke-width="1.00854" stroke-miterlimit="10" stroke-linecap="round" stroke-linejoin="round"/>
<path d="M467.211 241.494C467.211 241.494 467.866 243.714 466.947 247.936C466.106 251.767 468.711 252.852 472.237 250.731" stroke="#2C1C28" stroke-width="1.00854" stroke-miterlimit="10" stroke-linecap="round" stroke-linejoin="round"/>
<path fill-rule="evenodd" clip-rule="evenodd" d="M475.628 238.861C474.972 238.995 474.618 240.061 474.882 241.189C475.145 242.317 475.907 243.077 476.563 242.944C477.219 242.81 477.572 241.744 477.309 240.616C477.046 239.488 476.283 238.728 475.628 238.861Z" fill="#2C1C28"/>
<path fill-rule="evenodd" clip-rule="evenodd" d="M462.511 241.859C461.855 241.993 461.501 243.059 461.765 244.187C462.028 245.315 462.79 246.075 463.446 245.942C464.102 245.808 464.455 244.742 464.192 243.614C463.929 242.486 463.166 241.726 462.511 241.859Z" fill="#2C1C28"/>
<path fill-rule="evenodd" clip-rule="evenodd" d="M454.685 234.868C458.57 246.172 457.704 236.116 457.704 236.116C460.177 237.054 467.853 232.225 473.705 226.973C479.514 221.733 483.568 220.021 485.314 228.911C486.498 234.91 492.223 215.061 486.038 217.081C484.606 204.458 471.513 215.619 471.513 215.619C471.513 215.619 466.107 211.056 460.203 212.583C454.685 214.005 451.605 219.604 453.772 224.641C449.67 225.673 446.729 227.403 454.685 234.868Z" fill="#951800"/>
<path fill-rule="evenodd" clip-rule="evenodd" d="M458.856 235.939C461.409 236.161 466.379 233.413 473.796 227.64C480.004 222.844 483.543 224.643 485.59 233.451C486.058 235.492 487.057 240.48 487.608 243.329C487.999 241.052 489.619 238.208 493.4 236.848C490.285 231.886 495.279 214.085 485.995 217.093C485.806 215.391 485.589 214.435 485.053 213.151C484.493 212.289 480.349 208.118 475.077 220.365C471.334 229.1 464.066 235.248 458.856 235.939ZM454.685 234.867C456.072 240.764 458.736 244.926 458.736 244.926L458.212 236.115C456.216 235.74 455.201 235.234 454.685 234.867Z" fill="#5F1001"/>
<path fill-rule="evenodd" clip-rule="evenodd" d="M422.591 288.542C422.591 288.542 421.938 291.148 421.901 293.126C421.679 299.203 422.883 304.219 423.01 304.977L425.548 295.423L422.591 288.542Z" fill="#EC957E"/>
<path fill-rule="evenodd" clip-rule="evenodd" d="M451.087 338.453C450.091 351.055 438.622 360.191 434.69 362.647C428.423 367.254 419.539 367.259 413.299 362.119C409.802 359.247 407.774 355.31 407.267 351.161C406.308 346.418 404.424 331.863 414.316 322.817C419.302 318.268 423.49 318.487 423.49 318.487L446.775 326.745C446.727 326.707 451.536 332.48 451.087 338.453Z" fill="#ED5C18"/>
<path fill-rule="evenodd" clip-rule="evenodd" d="M436.189 317.283C443.105 319.257 447.621 324.719 446.267 329.506C444.909 334.25 438.212 336.544 431.253 334.574C424.337 332.6 419.82 327.138 421.174 322.351C422.533 317.607 429.23 315.313 436.189 317.283Z" fill="#CC2818"/>
<path fill-rule="evenodd" clip-rule="evenodd" d="M447.037 317.573L445.187 327.137C445.197 327.608 445.122 328.088 444.962 328.578C443.763 332.833 437.763 334.834 431.558 333.08C425.396 331.322 421.332 326.454 422.573 322.195C422.752 321.488 423.114 320.89 423.561 320.282L429.386 309.029L447.037 317.573Z" fill="#E99670"/>
<path fill-rule="evenodd" clip-rule="evenodd" d="M445.23 327.132C445.23 327.518 445.183 327.866 445.094 328.22C441.881 328.278 438.253 326.924 435.241 324.17C430.651 319.961 429.121 313.951 431.337 309.97L447.08 317.568L445.23 327.132Z" fill="#C87149"/>
<path fill-rule="evenodd" clip-rule="evenodd" d="M438.901 306.978C438.901 306.978 452.779 316.33 444.623 320.546C438.779 323.56 425.801 316.125 423.713 305.885C421.927 297.2 438.901 306.978 438.901 306.978Z" fill="#EC957E"/>
<path fill-rule="evenodd" clip-rule="evenodd" d="M447.192 316.654C444.617 318.187 440.194 318.938 432.928 315.372C422.755 310.371 436.831 311.502 445.094 312.468C446.192 313.847 447.041 315.298 447.192 316.654Z" fill="#C87149"/>
<path fill-rule="evenodd" clip-rule="evenodd" d="M433.172 274.912L418.777 276.306C418.056 276.386 417.689 276.942 417.977 277.597L433.478 314.152C433.766 314.806 434.548 315.277 435.269 315.196L449.664 313.803C450.385 313.722 450.752 313.166 450.464 312.511L434.963 275.957C434.675 275.302 433.893 274.832 433.172 274.912Z" fill="#2C1C28"/>
<path fill-rule="evenodd" clip-rule="evenodd" d="M442.832 311.047C448.079 311.147 447.827 306.583 445.504 306.155C448.853 305.395 448.884 301.829 444.074 300.649C437.454 299.028 429.758 299.674 429.758 299.674L430.133 298.043C430.133 298.043 433.012 298.838 434.817 299.237C438.948 300.106 440.632 295.583 433.051 292.266C428.763 290.385 425.456 289.982 423.861 293.765C422.158 297.733 419.935 305.492 428.669 314.131C431.343 320.399 439.99 316.343 441.52 315.056C443.756 313.175 443.501 312.045 442.832 311.047Z" fill="#E99670"/>
<path d="M446.197 306.207C446.197 306.207 433.326 303.953 425.838 307.237" stroke="#2C1C28" stroke-width="1.00854" stroke-miterlimit="10" stroke-linecap="round" stroke-linejoin="round"/>
<path d="M442.808 311.221C439.257 311.317 432.733 311.703 429.031 313.919" stroke="#2C1C28" stroke-width="1.00854" stroke-miterlimit="10" stroke-linecap="round" stroke-linejoin="round"/>
<path d="M434.651 299.299C434.779 299.285 425.974 299.238 423.64 302.16" stroke="#2C1C28" stroke-width="1.00854" stroke-miterlimit="10" stroke-linecap="round" stroke-linejoin="round"/>
<path d="M434.341 299.205L426.953 297.24" stroke="#2C1C28" stroke-width="1.00854" stroke-miterlimit="10" stroke-linecap="round" stroke-linejoin="round"/>
<path d="M447.963 326.887C450.567 333.658 452.651 349.493 440.15 358.661" stroke="#CC2818" stroke-width="1.01051" stroke-linecap="round"/>
<path d="M207.625 312.389H193.389V326.625H207.625V312.389Z" fill="#4D6175"/>
<path d="M207.625 367.708H193.389V381.944H207.625V367.708Z" fill="#4D6175"/>
<path d="M182 350.014V356.318V360.386V393.333H219.015V373.402H227.556V382.554V383.164V392.926H237.929V384.384H246.064V392.926H256.436V383.164H263.961V392.926H274.333V382.554H264.571V372.792H254.199V382.554H247.385V362.42H237.929V353.878H247.691V363.64H258.063V357.132H263.961V361.403V366.894V371.775H274.333V366.894V361.403V356.522H267.825V347.37H274.333V338.015V336.998V301H237.318V301.068H227.556V312.389H219.015V301H182V333.744V338.015V344.116H188.508V350.014H182ZM212.506 386.825H188.508V362.827H212.506V386.825ZM228.166 363.64H237.014V372.792H228.166V363.64ZM228.166 344.116H236.402V353.268H228.166V344.116ZM263.961 346.76H258.367V343.506H237.928V338.015H263.961V346.76H263.961ZM243.826 307.508H267.825V331.506H243.826V307.508ZM237.318 333.744H228.166V313.474H237.318V333.744ZM227.556 343.506H219.041V334.354H227.556V343.506ZM188.508 307.508H212.506V331.506H188.508V307.508ZM208.668 338.015V344.116H217.794V353.878H227.556V363.03H219.015V356.318H192.372V353.878H198.27H198.88H208.642V343.506H198.88H198.27H192.372V338.014H208.668V338.015Z" fill="#4D6175"/>
<path d="M262.944 312.389H248.708V326.625H262.944V312.389Z" fill="#4D6175"/>
<path d="M137.323 189C121.108 189 108 202.426 108 219C108 235.574 121.147 249 137.323 249C153.538 249 166.685 235.574 166.685 219C166.645 202.426 153.538 189 137.323 189ZM137.482 236.171C141.108 232.068 144.693 226.41 143.777 221.829C143.02 217.167 139.594 215.614 137.323 215.653C135.052 215.614 131.665 217.127 130.869 221.829C129.912 226.45 133.538 232.068 137.163 236.171C125.769 236.052 116.526 226.53 116.526 214.857C116.526 203.064 125.849 193.542 137.363 193.542C148.876 193.542 158.239 203.104 158.239 214.857C158.279 226.61 148.956 236.131 137.482 236.171ZM257.402 236.968C252.98 236.968 248.757 235.853 246.127 233.9C242.781 231.47 240.908 226.928 240.908 221.151C240.908 210.235 246.127 204.976 256.924 204.976C267.721 204.976 272.94 210.275 272.94 221.351C272.9 231.629 267.602 236.968 257.402 236.968ZM256.964 210.275C251.068 210.275 248.558 213.502 248.558 220.873C248.518 228.283 251.187 231.629 257.004 231.629C262.741 231.629 265.331 228.283 265.331 220.833C265.331 213.622 262.701 210.275 256.964 210.275ZM293.418 230.793C289.155 230.793 287.801 230.514 286.645 229.558C285.53 228.562 285.251 227.884 285.092 224.817V209.08C285.092 207.486 283.777 206.171 282.143 206.171H278.239V223.024C278.239 228.283 278.757 230.633 280.51 232.705C282.502 235.096 285.45 236.171 290.112 236.171H299.355V230.833L293.418 230.793ZM334.295 206.131H329.633C327.92 206.171 326.367 207.167 325.649 208.761L314.016 236.131H318.717C320.47 236.131 322.064 235.096 322.781 233.502L324.614 229.159H336.367L338.199 233.542C338.876 235.056 340.43 236.131 342.263 236.171H347.004L334.295 206.131ZM326.088 223.861L330.47 213.343L334.853 223.861H326.088ZM306.606 206.131C304.972 206.171 303.697 207.446 303.657 209.04V236.171H307.482C309.116 236.131 310.43 234.857 310.47 233.303V206.171H306.606V206.131ZM203.697 206.171C201.984 206.211 200.39 207.207 199.673 208.801L192.462 227.287L184.773 208.841C184.056 207.247 182.462 206.211 180.709 206.171H176.008L188.996 236.171H192.741C194.454 236.131 195.968 235.175 196.685 233.622L208.837 206.171H203.697ZM219.235 214.817C220.39 212.426 222.701 211.55 227.004 211.47H235.968V206.131H224.335C222.462 206.131 221.028 206.251 219.833 206.57H219.793C218.916 206.769 218.159 207.088 217.482 207.486C215.769 208.363 214.813 209.438 214.813 209.438C213.737 210.514 212.861 211.829 212.183 213.422C211.147 215.574 210.669 218.004 210.669 220.952V221.43C210.669 224.378 211.147 226.769 212.183 228.96C212.9 230.594 213.817 231.988 214.972 233.104C214.972 233.104 215.61 233.701 215.928 233.94C216.765 234.578 217.641 235.016 218.319 235.295C218.598 235.414 218.916 235.534 219.235 235.614L219.713 235.733C220.948 236.052 222.462 236.211 224.374 236.211H236.008V230.833H227.044C222.781 230.793 220.43 229.876 219.275 227.486C218.837 226.57 218.558 225.414 218.438 224.02V223.741H235.251V218.562H218.438V218.323C218.518 216.888 218.797 215.733 219.235 214.817Z" fill="#4A4A4A"/>
<path d="M280.338 66.34V70.362C280.4 71.1565 280.154 71.9443 279.65 72.562C279.428 72.8009 279.157 72.9898 278.856 73.116C278.555 73.2422 278.23 73.3029 277.904 73.294C277.582 73.3033 277.262 73.2418 276.966 73.1137C276.67 72.9857 276.407 72.7943 276.193 72.553C275.704 71.933 275.465 71.1524 275.523 70.365V56.951C275.523 54.7877 276.305 53.7057 277.869 53.705C278.198 53.6757 278.528 53.7299 278.831 53.8624C279.133 53.9949 279.397 54.2014 279.598 54.463C279.998 55.1402 280.2 55.9165 280.18 56.703C280.639 55.8609 281.239 55.1034 281.953 54.463C282.645 53.9292 283.505 53.6603 284.378 53.705C285.408 53.7098 286.42 53.9703 287.324 54.463C287.731 54.6244 288.083 54.9003 288.336 55.2574C288.59 55.6145 288.735 56.0374 288.753 56.475C288.761 56.747 288.711 57.0176 288.606 57.2687C288.501 57.5198 288.343 57.7455 288.144 57.931C287.798 58.2874 287.326 58.4933 286.83 58.504C286.393 58.4424 285.964 58.333 285.551 58.178C284.974 57.9779 284.37 57.868 283.76 57.852C283.136 57.8252 282.523 58.0224 282.031 58.408C281.538 58.8503 281.177 59.4213 280.99 60.057C280.72 60.9011 280.549 61.7735 280.479 62.657C280.384 63.6657 280.337 64.8933 280.338 66.34Z" fill="#EF4B46"/>
<path d="M173.577 49.9873L179.433 67.3253L185.308 49.8613C185.613 48.944 185.843 48.306 185.996 47.9473C186.166 47.567 186.426 47.234 186.754 46.9773C187.171 46.6683 187.683 46.5152 188.201 46.5443C188.638 46.5421 189.067 46.6578 189.444 46.8793C189.816 47.0929 190.127 47.4 190.344 47.7703C190.552 48.1075 190.665 48.4949 190.671 48.8913C190.668 49.1734 190.632 49.4543 190.565 49.7283C190.495 50.0273 190.407 50.3219 190.301 50.6103C190.195 50.8983 190.089 51.1953 189.983 51.5013L183.721 68.4013C183.497 69.048 183.273 69.6623 183.05 70.2443C182.849 70.7831 182.589 71.2979 182.274 71.7793C181.973 72.2284 181.571 72.601 181.1 72.8673C180.551 73.1645 179.933 73.3105 179.309 73.2903C178.686 73.3101 178.069 73.1674 177.518 72.8763C177.042 72.6113 176.637 72.2361 176.336 71.7823C176.019 71.2978 175.756 70.7804 175.551 70.2393C175.328 69.6633 175.104 69.0516 174.88 68.4043L168.725 51.6463C168.62 51.3403 168.51 51.0403 168.399 50.7463C168.283 50.436 168.188 50.1179 168.117 49.7943C168.047 49.5097 168.007 49.2183 168 48.9253C168.005 48.6172 168.071 48.3132 168.195 48.0313C168.32 47.7494 168.5 47.4954 168.724 47.2843C168.959 47.0414 169.242 46.8501 169.555 46.7226C169.867 46.595 170.203 46.5339 170.541 46.5433C170.901 46.5063 171.265 46.5623 171.598 46.7058C171.93 46.8494 172.221 47.0757 172.441 47.3633C172.933 48.1844 173.315 49.0666 173.577 49.9873Z" fill="#F17A39"/>
<path d="M225.422 59.2284L216.602 69.0894H226.039C226.662 69.0442 227.279 69.2368 227.766 69.6284C227.957 69.8037 228.108 70.0182 228.208 70.2573C228.309 70.4963 228.356 70.7542 228.348 71.0134C228.356 71.2625 228.309 71.5103 228.21 71.7391C228.111 71.9678 227.962 72.1718 227.775 72.3364C227.278 72.7145 226.66 72.8967 226.037 72.8484H212.985C212.25 72.9052 211.519 72.6919 210.93 72.2484C210.534 71.8848 210.292 71.3829 210.255 70.8463C210.218 70.3097 210.388 69.7793 210.73 69.3644C211.048 68.9471 211.707 68.1804 212.706 67.0644C213.765 65.8891 214.726 64.8247 215.591 63.8714C216.456 62.9181 217.258 62.0271 217.999 61.1984C218.74 60.3697 219.354 59.6671 219.842 59.0904C220.33 58.5137 220.721 58.0197 221.015 57.6084H213.853C213.097 57.6386 212.341 57.5492 211.613 57.3434C211.106 57.1674 210.854 56.7027 210.855 55.9494C210.845 55.7 210.891 55.4515 210.99 55.2224C211.089 54.9933 211.239 54.7896 211.428 54.6264C211.893 54.2693 212.471 54.0924 213.056 54.1284H224.117C224.927 54.0845 225.735 54.239 226.472 54.5784C226.749 54.7411 226.973 54.9797 227.118 55.2659C227.264 55.5521 227.324 55.874 227.292 56.1934C227.288 56.4675 227.234 56.7387 227.133 56.9934C227.046 57.2342 226.927 57.4625 226.78 57.6724C226.651 57.8484 226.474 58.0631 226.25 58.3164C226.026 58.5697 225.75 58.8737 225.422 59.2284Z" fill="#F48046"/>
<path d="M233.59 51.4689C232.96 51.4836 232.347 51.2637 231.87 50.8519C231.643 50.6272 231.463 50.3594 231.34 50.0641C231.218 49.7689 231.156 49.4522 231.157 49.1326C231.159 48.813 231.225 48.497 231.35 48.203C231.475 47.9091 231.658 47.6432 231.888 47.4209C232.349 46.991 232.958 46.7544 233.588 46.7599C234.195 46.7539 234.784 46.9669 235.247 47.3599C235.493 47.5761 235.686 47.846 235.812 48.1487C235.937 48.4514 235.991 48.7789 235.97 49.1059C235.988 49.4295 235.933 49.7531 235.811 50.0534C235.689 50.3536 235.502 50.6232 235.264 50.8429C234.805 51.2559 234.207 51.4796 233.59 51.4689ZM235.971 56.4439V70.3639C236.029 71.1543 235.783 71.937 235.283 72.5519C235.062 72.7935 234.792 72.9847 234.491 73.1126C234.189 73.2404 233.864 73.3019 233.537 73.2929C233.212 73.3032 232.889 73.2405 232.591 73.1093C232.293 72.9781 232.029 72.7818 231.817 72.5349C231.339 71.9165 231.104 71.1447 231.156 70.3649V56.5849C231.098 55.81 231.334 55.0416 231.817 54.4329C232.034 54.1949 232.3 54.007 232.597 53.8822C232.894 53.7574 233.215 53.6986 233.537 53.7099C233.863 53.7003 234.186 53.7597 234.487 53.8843C234.788 54.0089 235.06 54.1959 235.283 54.4329C235.768 54.9866 236.016 55.709 235.972 56.4439H235.971Z" fill="#F07A4F"/>
<path d="M241.21 54.1322H241.74V51.2402C241.74 50.4642 241.761 49.8555 241.802 49.4142C241.83 49.0139 241.948 48.6251 242.146 48.2762C242.341 47.9419 242.621 47.6657 242.958 47.4762C243.317 47.2685 243.725 47.1618 244.14 47.1672C244.761 47.171 245.356 47.4175 245.798 47.8542C246.122 48.1508 246.342 48.5439 246.425 48.9752C246.527 49.5961 246.571 50.2251 246.557 50.8542V54.1352H248.321C248.884 54.0961 249.441 54.2692 249.882 54.6202C250.057 54.7755 250.196 54.9675 250.289 55.1824C250.382 55.3974 250.427 55.6301 250.42 55.8642C250.443 56.1413 250.381 56.4187 250.245 56.6608C250.108 56.9029 249.902 57.0984 249.653 57.2222C248.959 57.5169 248.206 57.6499 247.453 57.6112H246.553V66.4672C246.545 67.0473 246.571 67.6273 246.633 68.2042C246.668 68.5695 246.816 68.9148 247.056 69.1922C247.206 69.3306 247.383 69.4359 247.576 69.5012C247.769 69.5665 247.973 69.5904 248.176 69.5712C248.562 69.5584 248.946 69.5081 249.323 69.4212C249.694 69.3352 250.072 69.2849 250.452 69.2712C250.649 69.2737 250.844 69.3164 251.025 69.3967C251.205 69.477 251.367 69.5932 251.501 69.7382C251.654 69.8886 251.774 70.0686 251.855 70.2673C251.935 70.4659 251.974 70.6789 251.969 70.8932C251.962 71.2838 251.837 71.6631 251.61 71.9812C251.384 72.2993 251.066 72.5413 250.699 72.6752C249.541 73.1443 248.295 73.3549 247.047 73.2922C245.858 73.3678 244.671 73.105 243.625 72.5342C242.867 72.0542 242.322 71.303 242.099 70.4342C241.828 69.2606 241.706 68.0573 241.738 66.8532V57.6082H241.103C240.531 57.6478 239.965 57.4715 239.516 57.1142C239.339 56.9582 239.198 56.7653 239.103 56.549C239.009 56.3326 238.963 56.0982 238.969 55.8622C238.963 55.6248 239.012 55.3892 239.112 55.1736C239.211 54.958 239.359 54.768 239.543 54.6182C240.023 54.2634 240.614 54.0911 241.21 54.1322Z" fill="#EB674C"/>
<path d="M271.764 63.5001C271.778 64.8525 271.551 66.1965 271.093 67.4691C270.675 68.6357 270.013 69.7002 269.153 70.5921C268.296 71.468 267.262 72.15 266.119 72.5921C264.852 73.0742 263.505 73.3117 262.15 73.2921C260.805 73.313 259.469 73.0732 258.216 72.5861C257.072 72.1329 256.038 71.4417 255.182 70.5582C254.326 69.6748 253.667 68.6194 253.25 67.4621C252.796 66.1919 252.572 64.8509 252.589 63.5021C252.573 62.1395 252.801 60.785 253.26 59.5021C253.675 58.3446 254.33 57.2881 255.182 56.4021C256.038 55.5297 257.073 54.8529 258.216 54.4181C260.768 53.4865 263.567 53.4897 266.116 54.4271C267.267 54.8695 268.308 55.5559 269.169 56.439C270.029 57.3221 270.688 58.3811 271.1 59.5431C271.553 60.8126 271.778 62.1522 271.764 63.5001ZM266.931 63.5001C267.029 61.8681 266.571 60.2511 265.631 58.9131C265.223 58.3823 264.693 57.9566 264.087 57.6712C263.482 57.3858 262.816 57.249 262.147 57.2721C261.262 57.2553 260.393 57.5112 259.659 58.0051C258.903 58.5431 258.325 59.2955 258.001 60.1651C257.228 62.3079 257.225 64.6531 257.992 66.7981C258.316 67.6631 258.887 68.4143 259.633 68.9591C260.372 69.4666 261.251 69.7287 262.147 69.7081C262.817 69.7313 263.483 69.5937 264.089 69.3069C264.695 69.02 265.224 68.5921 265.631 68.0591C266.567 66.7297 267.025 65.1229 266.931 63.5001Z" fill="#EE5449"/>
<path d="M197.17 55.8778C196.559 56.3516 195.977 56.8618 195.428 57.4058C195.143 57.7539 194.956 58.171 194.884 58.6148C194.689 59.6918 194.584 60.7858 194.433 61.8708C194.394 62.15 194.247 62.4026 194.023 62.5746C193.8 62.7465 193.518 62.8242 193.238 62.7908C193.094 62.779 192.955 62.7376 192.828 62.6693C192.701 62.6009 192.59 62.5071 192.501 62.3936C192.412 62.2802 192.348 62.1496 192.312 62.0101C192.276 61.8705 192.269 61.7251 192.292 61.5828C192.458 60.1608 192.643 58.7418 192.813 57.3198C192.875 56.7784 193.147 56.2828 193.57 55.9398C194.511 55.1398 195.442 54.3338 196.404 53.5628C197.322 52.7717 198.5 52.3476 199.711 52.3718C200.111 52.351 200.508 52.4525 200.849 52.6627C201.19 52.8729 201.459 53.182 201.62 53.5488C202.084 54.5206 202.476 55.5253 202.792 56.5548C202.909 57.0374 203.142 57.4839 203.471 57.8554C203.801 58.2269 204.216 58.5121 204.681 58.6858C205.501 59.0348 206.301 59.4298 207.105 59.8158C207.354 59.9294 207.548 60.136 207.646 60.3912C207.744 60.6463 207.738 60.9298 207.63 61.1808C207.579 61.306 207.503 61.4194 207.407 61.5139C207.31 61.6084 207.195 61.682 207.069 61.73C206.943 61.7781 206.808 61.7996 206.673 61.7932C206.538 61.7868 206.406 61.7526 206.285 61.6928C204.97 61.0958 203.641 60.5128 202.364 59.8398C201.95 59.5415 201.594 59.1685 201.317 58.7398C201.19 58.5162 201.043 58.3041 200.879 58.1058C200.701 58.9708 200.579 59.8548 200.329 60.6978C200.223 61.0431 200.202 61.4089 200.269 61.764C200.335 62.1191 200.486 62.4528 200.709 62.7368C202.419 65.3398 204.07 67.9938 205.734 70.6398C205.86 70.8075 205.95 70.9997 205.997 71.204C206.045 71.4083 206.049 71.6203 206.011 71.8265C205.972 72.0326 205.89 72.2284 205.772 72.4014C205.653 72.5743 205.499 72.7206 205.321 72.831C205.142 72.9413 204.943 73.0133 204.735 73.0423C204.527 73.0712 204.316 73.0566 204.114 72.9993C203.912 72.942 203.725 72.8432 203.563 72.7094C203.402 72.5755 203.27 72.4095 203.176 72.2218C201.834 70.0938 200.481 67.9738 199.139 65.8468C198.202 64.3628 197.265 62.8788 196.355 61.3778C196.22 61.1345 196.17 60.8526 196.215 60.5778C196.5 59.0578 196.825 57.5398 197.17 55.8778Z" fill="#444444"/>
<path d="M204.49 73.3826C204.159 73.3761 203.836 73.281 203.555 73.1072C203.274 72.9334 203.044 72.6873 202.89 72.3946C202.195 71.2926 201.498 70.1926 200.799 69.0946C200.15 68.0713 199.501 67.0473 198.853 66.0226L198.81 65.9546C197.902 64.5166 196.963 63.0286 196.066 61.5476C195.89 61.2358 195.825 60.873 195.884 60.5196C196.097 59.3826 196.331 58.2526 196.584 57.0576L196.651 56.7376C196.302 57.0101 195.974 57.3086 195.67 57.6306C195.426 57.9325 195.266 58.2932 195.206 58.6766C195.083 59.3556 194.996 60.0566 194.911 60.7366C194.861 61.1316 194.811 61.5266 194.756 61.9216C194.703 62.286 194.509 62.6153 194.217 62.8394C193.925 63.0636 193.557 63.1648 193.191 63.1216C193.004 63.1042 192.823 63.0489 192.659 62.9592C192.494 62.8694 192.35 62.747 192.234 62.5994C192.119 62.4519 192.035 62.2823 191.987 62.1011C191.939 61.9199 191.929 61.7309 191.957 61.5456C192.054 60.7183 192.154 59.8913 192.257 59.0646C192.331 58.4706 192.405 57.8756 192.476 57.2816C192.549 56.6539 192.864 56.0796 193.355 55.6816L194.11 55.0406C194.788 54.4636 195.488 53.8676 196.196 53.3006C197.174 52.4554 198.432 52.0045 199.725 52.0356C200.188 52.0144 200.646 52.1346 201.039 52.3802C201.432 52.6258 201.741 52.9852 201.925 53.4106L202.048 53.6886C202.472 54.5854 202.828 55.5126 203.113 56.4626C203.217 56.8968 203.426 57.2986 203.723 57.6323C204.02 57.966 204.394 58.2214 204.813 58.3756C205.498 58.6676 206.178 58.9946 206.834 59.3106L207.251 59.5106C207.578 59.6618 207.832 59.9346 207.96 60.271C208.089 60.6073 208.08 60.9804 207.937 61.3106C207.869 61.476 207.767 61.6257 207.639 61.7505C207.511 61.8753 207.358 61.9726 207.191 62.0364C207.024 62.1003 206.845 62.1293 206.666 62.1218C206.488 62.1142 206.312 62.0703 206.151 61.9926L205.661 61.7726C204.519 61.2586 203.337 60.7276 202.209 60.1296C201.833 59.894 201.513 59.5802 201.269 59.2096C201.2 59.1196 201.131 59.0296 201.061 58.9446L201.056 58.9356V58.9496C200.954 59.5682 200.818 60.1808 200.649 60.7846C200.557 61.0837 200.54 61.4007 200.599 61.708C200.659 62.0152 200.792 62.3031 200.989 62.5466C202.404 64.7106 203.802 66.9346 205.154 69.0846L206.017 70.4576C206.202 70.7329 206.315 71.0501 206.347 71.3804C206.378 71.7107 206.326 72.0436 206.195 72.3486C206.064 72.6232 205.866 72.8601 205.618 73.0368C205.371 73.2135 205.082 73.3242 204.78 73.3586C204.684 73.3739 204.587 73.3819 204.49 73.3826ZM197.69 54.9946L197.495 55.9446C197.408 56.3686 197.322 56.7826 197.238 57.1896C196.991 58.3826 196.756 59.5086 196.546 60.6386C196.517 60.8321 196.552 61.0299 196.646 61.2016C197.539 62.6776 198.477 64.1626 199.383 65.6016L199.426 65.6696C200.068 66.6923 200.715 67.7143 201.366 68.7356C202.065 69.8363 202.762 70.9363 203.458 72.0356C203.565 72.2629 203.742 72.4499 203.963 72.5694C204.185 72.6889 204.438 72.7345 204.687 72.6996C204.88 72.6811 205.065 72.6132 205.224 72.5023C205.383 72.3913 205.51 72.2413 205.594 72.0666C205.679 71.8622 205.711 71.6396 205.687 71.4195C205.663 71.1993 205.584 70.9888 205.457 70.8076L204.59 69.4356C203.24 67.2876 201.843 65.0656 200.432 62.9076C200.184 62.5824 200.017 62.203 199.943 61.8007C199.87 61.3983 199.893 60.9843 200.011 60.5926C200.173 60.0117 200.303 59.4225 200.401 58.8276C200.45 58.5606 200.501 58.2936 200.554 58.0276L200.673 57.4496L201.105 57.8496C201.244 57.9862 201.36 58.1442 201.449 58.3176C201.485 58.3876 201.526 58.4545 201.573 58.5176C201.648 58.6096 201.721 58.7046 201.795 58.8006C201.986 59.0914 202.232 59.3418 202.519 59.5376C203.629 60.1256 204.8 60.6516 205.933 61.1616L206.423 61.3826C206.504 61.4243 206.593 61.4484 206.685 61.4535C206.776 61.4586 206.867 61.4446 206.953 61.4123C207.038 61.38 207.116 61.3301 207.181 61.2659C207.246 61.2017 207.297 61.1246 207.33 61.0396C207.405 60.8674 207.409 60.6726 207.34 60.4977C207.272 60.3229 207.137 60.1822 206.965 60.1066L206.547 59.9066C205.897 59.5936 205.226 59.2696 204.555 58.9836C204.043 58.7911 203.587 58.4766 203.224 58.0674C202.862 57.6582 202.605 57.1667 202.476 56.6356C202.199 55.718 201.854 54.8222 201.444 53.9556L201.321 53.6766C201.185 53.3668 200.956 53.1065 200.667 52.9311C200.377 52.7558 200.041 52.6739 199.703 52.6966C198.57 52.6752 197.47 53.0738 196.614 53.8156C195.914 54.3766 195.214 54.9696 194.544 55.5436C194.292 55.7583 194.04 55.9726 193.787 56.1866C193.425 56.4751 193.192 56.8955 193.139 57.3556C193.067 57.9509 192.994 58.5463 192.919 59.1416C192.819 59.9666 192.719 60.7916 192.619 61.6176C192.601 61.7168 192.605 61.8185 192.629 61.9162C192.654 62.0139 192.699 62.1054 192.761 62.1847C192.823 62.264 192.901 62.3294 192.99 62.3766C193.079 62.4238 193.177 62.4517 193.277 62.4586C193.471 62.4808 193.665 62.4266 193.819 62.3074C193.973 62.1882 194.075 62.0135 194.102 61.8206C194.158 61.4306 194.202 61.0386 194.256 60.6476C194.342 59.9596 194.43 59.2476 194.556 58.5476C194.637 58.0427 194.852 57.5688 195.179 57.1756C195.547 56.7915 195.944 56.4362 196.366 56.1126C196.554 55.9586 196.751 55.7986 196.953 55.6246L197.69 54.9946Z" fill="#444444"/>
<path d="M195.73 63.3057C196.408 64.2127 197.03 65.0447 197.65 65.8837C197.677 65.9245 197.695 65.9704 197.704 66.0185C197.712 66.0667 197.711 66.116 197.7 66.1637C197.545 67.0762 197.216 67.9504 196.731 68.7387C195.786 69.9277 194.913 71.1737 194.004 72.3907C193.91 72.5569 193.781 72.7012 193.627 72.814C193.473 72.9267 193.297 73.0054 193.11 73.0448C192.923 73.0841 192.73 73.0832 192.543 73.0422C192.357 73.0011 192.181 72.9208 192.028 72.8067C191.876 72.6919 191.749 72.5465 191.657 72.3799C191.564 72.2132 191.508 72.0291 191.491 71.8393C191.474 71.6495 191.497 71.4582 191.558 71.2778C191.619 71.0973 191.718 70.9317 191.847 70.7917C192.708 69.6217 193.584 68.4627 194.432 67.2837C194.623 67.0092 194.768 66.7052 194.861 66.3837C195.158 65.4037 195.421 64.4087 195.73 63.3057Z" fill="#444444"/>
<path d="M192.819 73.4153C192.463 73.4094 192.118 73.2903 191.834 73.0753C191.66 72.9546 191.513 72.7999 191.4 72.6207C191.288 72.4414 191.213 72.2413 191.18 72.0323C191.148 71.7783 191.167 71.5204 191.236 71.2737C191.305 71.027 191.422 70.7964 191.58 70.5953C191.889 70.176 192.199 69.757 192.511 69.3383C193.056 68.6043 193.621 67.8443 194.163 67.0913C194.332 66.847 194.461 66.5769 194.544 66.2913C194.756 65.5913 194.95 64.8853 195.156 64.1373L195.411 63.2173L195.592 62.5693L196.416 63.6693C196.936 64.3643 197.43 65.0223 197.916 65.6853C197.974 65.7679 198.013 65.8623 198.03 65.9617C198.047 66.0611 198.043 66.163 198.016 66.2603C197.947 66.4823 197.89 66.7063 197.831 66.9423C197.701 67.6628 197.414 68.3458 196.99 68.9423C196.36 69.7353 195.75 70.5693 195.16 71.3763C194.86 71.7763 194.569 72.1853 194.27 72.5863C194.111 72.8295 193.897 73.0314 193.644 73.1755C193.392 73.3196 193.109 73.4018 192.819 73.4153ZM195.869 64.0443L195.795 64.3133C195.587 65.0643 195.395 65.7753 195.179 66.4823C195.075 66.8395 194.914 67.1773 194.701 67.4823C194.156 68.2403 193.591 69.0013 193.043 69.7383C192.733 70.1557 192.423 70.574 192.114 70.9933C192.008 71.1242 191.929 71.2747 191.881 71.4361C191.834 71.5976 191.818 71.7669 191.836 71.9343C191.856 72.0565 191.901 72.1733 191.967 72.2778C192.033 72.3822 192.12 72.4722 192.222 72.5423C192.341 72.63 192.477 72.691 192.621 72.7212C192.766 72.7514 192.915 72.7501 193.059 72.7174C193.203 72.6846 193.338 72.6212 193.455 72.5314C193.572 72.4417 193.669 72.3277 193.738 72.1973C194.037 71.7973 194.332 71.3953 194.625 70.9913C195.219 70.1793 195.833 69.3393 196.471 68.5363C196.834 68.012 197.079 67.4148 197.188 66.7863C197.245 66.5563 197.305 66.3193 197.378 66.0863V66.0703C196.9 65.4223 196.408 64.7653 195.889 64.0703L195.869 64.0443Z" fill="#444444"/>
<path d="M203.565 48.8943C203.566 49.4035 203.415 49.9013 203.131 50.3244C202.848 50.7475 202.445 51.0768 201.975 51.2704C201.504 51.4639 200.986 51.513 200.487 51.4114C199.988 51.3098 199.531 51.062 199.173 50.6997C198.815 50.3373 198.573 49.8768 198.478 49.3766C198.383 48.8764 198.439 48.3592 198.639 47.8908C198.838 47.4225 199.173 47.0241 199.599 46.7464C200.026 46.4686 200.526 46.3242 201.035 46.3313C201.708 46.3436 202.349 46.6186 202.822 47.0975C203.295 47.5765 203.561 48.2213 203.565 48.8943Z" fill="#444444"/>
<path d="M201.001 51.803C200.231 51.7946 199.495 51.4828 198.953 50.9352C198.411 50.3876 198.106 49.6485 198.106 48.878C198.142 48.1326 198.464 47.4296 199.005 46.9154C199.545 46.4011 200.264 46.1153 201.01 46.1172C201.756 46.1191 202.473 46.4087 203.012 46.9257C203.55 47.4428 203.868 48.1474 203.9 48.893C203.9 49.6632 203.595 50.4022 203.052 50.9478C202.508 51.4933 201.77 51.8009 201 51.803H201.001ZM201.009 46.662C200.418 46.6638 199.852 46.8978 199.432 47.3135C199.012 47.7292 198.773 48.2933 198.765 48.884C198.768 49.4773 199.003 50.0458 199.421 50.4673C199.838 50.8888 200.405 51.1296 200.998 51.138C201.591 51.1343 202.159 50.896 202.578 50.475C202.996 50.054 203.231 49.4846 203.231 48.891C203.229 48.3051 202.998 47.7432 202.587 47.326C202.175 46.9088 201.617 46.6697 201.031 46.66L201.009 46.662Z" fill="#444444"/>
<defs>
<filter id="filter0_d_490_2488" x="0.628899" y="0.630058" width="454.742" height="661.742" filterUnits="userSpaceOnUse" color-interpolation-filters="sRGB">
<feFlood flood-opacity="0" result="BackgroundImageFix"/>
<feColorMatrix in="SourceAlpha" type="matrix" values="0 0 0 0 0 0 0 0 0 0 0 0 0 0 0 0 0 0 127 0" result="hardAlpha"/>
<feOffset dy="8.00116"/>
<feGaussianBlur stdDeviation="12.6856"/>
<feComposite in2="hardAlpha" operator="out"/>
<feColorMatrix type="matrix" values="0 0 0 0 0 0 0 0 0 0 0 0 0 0 0 0 0 0 0.1 0"/>
<feBlend mode="normal" in2="BackgroundImageFix" result="effect1_dropShadow_490_2488"/>
<feBlend mode="normal" in="SourceGraphic" in2="effect1_dropShadow_490_2488" result="shape"/>
</filter>
</defs>
</svg>
