<svg width="55" height="55" viewBox="0 0 55 55" fill="none" xmlns="http://www.w3.org/2000/svg">
<path d="M7.18564 29.5415H18.3678C18.7172 36.0072 20.7781 42.264 24.3397 47.6715C19.8782 46.9712 15.7745 44.8121 12.6704 41.5318C9.56628 38.2515 7.63882 34.0349 7.18564 29.5415ZM7.18359 25.4582C7.63625 20.9648 9.56527 16.748 12.669 13.4673C15.7727 10.1866 19.8762 8.02701 24.3377 7.32617C20.7761 12.7338 18.7152 18.9905 18.3658 25.4562L7.18359 25.4582ZM47.8128 25.4582H36.6306C36.2815 18.9919 34.2206 12.7343 30.6587 7.32617C35.1202 8.02651 39.2239 10.1856 42.328 13.466C45.4321 16.7463 47.3616 20.9628 47.8148 25.4562M47.8148 29.5395C47.3617 34.0326 45.4325 38.2489 42.3288 41.5292C39.2251 44.8094 35.1219 46.9688 30.6607 47.6695C34.222 42.2625 36.2829 36.0065 36.6326 29.5415L47.8148 29.5395ZM22.4573 29.5415H32.5431C32.2078 35.0531 30.4721 40.3881 27.5002 45.0419C24.5283 40.3881 22.7926 35.0531 22.4573 29.5415ZM22.4573 25.4582C22.7926 19.9466 24.5283 14.6117 27.5002 9.95788C30.4721 14.6117 32.2078 19.9466 32.5431 25.4582H22.4573Z" fill="#ED5C18"/>
</svg>
