<svg width="55" height="55" viewBox="0 0 55 55" fill="none" xmlns="http://www.w3.org/2000/svg">
<path d="M37.2656 34.2188H31.8906C31.5196 34.2188 31.2188 34.5196 31.2188 34.8906V40.2656C31.2188 40.6367 31.5196 40.9375 31.8906 40.9375H37.2656C37.6367 40.9375 37.9375 40.6367 37.9375 40.2656V34.8906C37.9375 34.5196 37.6367 34.2188 37.2656 34.2188Z" fill="#ED5C18"/>
<path d="M30.5469 28.8438H26.5156C26.1446 28.8438 25.8438 29.1446 25.8438 29.5156V33.5469C25.8438 33.9179 26.1446 34.2188 26.5156 34.2188H30.5469C30.9179 34.2188 31.2188 33.9179 31.2188 33.5469V29.5156C31.2188 29.1446 30.9179 28.8438 30.5469 28.8438Z" fill="#ED5C18"/>
<path d="M42.6406 40.9375H38.6094C38.2383 40.9375 37.9375 41.2383 37.9375 41.6094V45.6406C37.9375 46.0117 38.2383 46.3125 38.6094 46.3125H42.6406C43.0117 46.3125 43.3125 46.0117 43.3125 45.6406V41.6094C43.3125 41.2383 43.0117 40.9375 42.6406 40.9375Z" fill="#ED5C18"/>
<path d="M42.6406 28.8438H39.9531C39.5821 28.8438 39.2812 29.1446 39.2812 29.5156V32.2031C39.2812 32.5742 39.5821 32.875 39.9531 32.875H42.6406C43.0117 32.875 43.3125 32.5742 43.3125 32.2031V29.5156C43.3125 29.1446 43.0117 28.8438 42.6406 28.8438Z" fill="#ED5C18"/>
<path d="M29.2031 42.2812H26.5156C26.1446 42.2812 25.8438 42.5821 25.8438 42.9531V45.6406C25.8438 46.0117 26.1446 46.3125 26.5156 46.3125H29.2031C29.5742 46.3125 29.875 46.0117 29.875 45.6406V42.9531C29.875 42.5821 29.5742 42.2812 29.2031 42.2812Z" fill="#ED5C18"/>
<path d="M40.625 8.6875H28.5312C27.8185 8.6875 27.1349 8.97065 26.6309 9.47465C26.1269 9.97865 25.8438 10.6622 25.8438 11.375V23.4688C25.8438 24.1815 26.1269 24.8651 26.6309 25.3691C27.1349 25.8731 27.8185 26.1562 28.5312 26.1562H40.625C41.3378 26.1562 42.0213 25.8731 42.5253 25.3691C43.0294 24.8651 43.3125 24.1815 43.3125 23.4688V11.375C43.3125 10.6622 43.0294 9.97865 42.5253 9.47465C42.0213 8.97065 41.3378 8.6875 40.625 8.6875ZM37.9375 20.1094C37.9375 20.2876 37.8667 20.4585 37.7407 20.5845C37.6147 20.7105 37.4438 20.7812 37.2656 20.7812H31.8906C31.7124 20.7812 31.5415 20.7105 31.4155 20.5845C31.2895 20.4585 31.2188 20.2876 31.2188 20.1094V14.7344C31.2188 14.5562 31.2895 14.3853 31.4155 14.2593C31.5415 14.1333 31.7124 14.0625 31.8906 14.0625H37.2656C37.4438 14.0625 37.6147 14.1333 37.7407 14.2593C37.8667 14.3853 37.9375 14.5562 37.9375 14.7344V20.1094ZM20.4688 8.6875H8.375C7.66223 8.6875 6.97865 8.97065 6.47465 9.47465C5.97065 9.97865 5.6875 10.6622 5.6875 11.375V23.4688C5.6875 24.1815 5.97065 24.8651 6.47465 25.3691C6.97865 25.8731 7.66223 26.1562 8.375 26.1562H20.4688C21.1815 26.1562 21.8651 25.8731 22.3691 25.3691C22.8731 24.8651 23.1562 24.1815 23.1562 23.4688V11.375C23.1562 10.6622 22.8731 9.97865 22.3691 9.47465C21.8651 8.97065 21.1815 8.6875 20.4688 8.6875ZM17.7812 20.1094C17.7812 20.2876 17.7105 20.4585 17.5845 20.5845C17.4585 20.7105 17.2876 20.7812 17.1094 20.7812H11.7344C11.5562 20.7812 11.3853 20.7105 11.2593 20.5845C11.1333 20.4585 11.0625 20.2876 11.0625 20.1094V14.7344C11.0625 14.5562 11.1333 14.3853 11.2593 14.2593C11.3853 14.1333 11.5562 14.0625 11.7344 14.0625H17.1094C17.2876 14.0625 17.4585 14.1333 17.5845 14.2593C17.7105 14.3853 17.7812 14.5562 17.7812 14.7344V20.1094ZM20.4688 28.8438H8.375C7.66223 28.8438 6.97865 29.1269 6.47465 29.6309C5.97065 30.1349 5.6875 30.8185 5.6875 31.5312V43.625C5.6875 44.3378 5.97065 45.0213 6.47465 45.5253C6.97865 46.0294 7.66223 46.3125 8.375 46.3125H20.4688C21.1815 46.3125 21.8651 46.0294 22.3691 45.5253C22.8731 45.0213 23.1562 44.3378 23.1562 43.625V31.5312C23.1562 30.8185 22.8731 30.1349 22.3691 29.6309C21.8651 29.1269 21.1815 28.8438 20.4688 28.8438ZM17.7812 40.2656C17.7812 40.4438 17.7105 40.6147 17.5845 40.7407C17.4585 40.8667 17.2876 40.9375 17.1094 40.9375H11.7344C11.5562 40.9375 11.3853 40.8667 11.2593 40.7407C11.1333 40.6147 11.0625 40.4438 11.0625 40.2656V34.8906C11.0625 34.7124 11.1333 34.5415 11.2593 34.4155C11.3853 34.2895 11.5562 34.2188 11.7344 34.2188H17.1094C17.2876 34.2188 17.4585 34.2895 17.5845 34.4155C17.7105 34.5415 17.7812 34.7124 17.7812 34.8906V40.2656Z" fill="#ED5C18"/>
</svg>
