<svg width="55" height="55" viewBox="0 0 55 55" fill="none" xmlns="http://www.w3.org/2000/svg">
<path d="M27.5 5.04175L9.125 13.2084V25.4584C9.125 36.7897 16.965 47.3859 27.5 49.9584C38.035 47.3859 45.875 36.7897 45.875 25.4584V13.2084L27.5 5.04175ZM27.5 17.2917C30.3583 17.2917 33.2167 19.5376 33.2167 22.3959V25.4584C34.4417 25.4584 35.6667 26.6834 35.6667 28.1126V35.2584C35.6667 36.4834 34.4417 37.7084 33.0125 37.7084H21.7833C20.5583 37.7084 19.3333 36.4834 19.3333 35.0542V27.9084C19.3333 26.6834 20.5583 25.4584 21.7833 25.4584V22.3959C21.7833 19.5376 24.6417 17.2917 27.5 17.2917ZM27.5 19.7417C25.8667 19.7417 24.4375 20.7626 24.4375 22.3959V25.4584H30.5625V22.3959C30.5625 20.7626 29.1333 19.7417 27.5 19.7417Z" fill="#ED5C18"/>
</svg>
