<svg width="735" height="414" viewBox="0 0 735 414" xmlns="http://www.w3.org/2000/svg" xmlns:xlink="http://www.w3.org/1999/xlink"><defs><path id="a" d="M0 0h735v414H0z"/></defs><g fill="none" fill-rule="evenodd"><use fill="#F3F9FE" xlink:href="#a"/><path d="M574.52 179c9.526 0 14.49 2.955 16.875 4.373a.595.595 0 01.215.785l-5.087 9.497c-.01.016-.018.031-.028.044a.58.58 0 01-.806.166c-1.073-.723-5.001-3.074-10.356-3.074-1.874 0-6.232.383-6.232 3.911 0 2.711 2.245 3.72 7.331 5.739.837.331 1.735.687 2.684 1.078 7.373 3.188 14.192 7.441 14.192 16.89 0 10.725-7.897 17.13-21.129 17.13-10.18 0-15.938-3.51-17.943-5.021a.592.592 0 01-.158-.754l5.188-9.319c.012-.02.023-.041.036-.06.24-.35.72-.44 1.068-.199 1.714 1.187 5.278 3.663 11.097 3.663 4.8 0 7.66-1.615 7.66-4.324 0-2.815-2.736-3.94-7.265-5.81-1.406-.581-3.004-1.237-4.707-2.033-5.946-2.685-12.031-6.734-12.031-16.366 0-8.12 5.997-16.316 19.396-16.316zm-217.735 1.59c.328 0 .59.268.59.595v29.91c0 9.202 2.747 12.463 10.5 12.463 7.006 0 9.994-3.577 9.994-11.957v-30.416c0-.327.263-.594.591-.594h12.351c.326 0 .591.267.591.594v29.504c0 16.02-8.464 24.844-23.83 24.844-16.248 0-24.834-8.103-24.834-23.429v-30.92c0-.326.263-.593.591-.593zm141.91 0c.325 0 .588.268.588.595v29.91c0 9.202 2.749 12.463 10.499 12.463 7.006 0 9.995-3.577 9.995-11.957v-30.416c0-.327.266-.594.593-.594h12.35c.324 0 .59.267.59.594v29.504c0 16.02-8.465 24.844-23.83 24.844-16.246 0-24.834-8.103-24.834-23.429v-30.92c0-.326.265-.593.59-.593zm-343.741-.002c.188 0 .369.091.477.247l17.614 24.463a109.303 109.303 0 015.058 7.744c-.116-1.754-.26-4.36-.26-6.801v-25.06c0-.326.265-.593.59-.593h11.949c.325 0 .59.267.59.594v52.847a.594.594 0 01-.59.594h-12.158a.59.59 0 01-.477-.244l-19.123-26.484c-2.142-2.932-3.727-5.386-4.671-6.936.116 2.078.175 4.017.175 5.787v27.283a.594.594 0 01-.59.594h-11.95a.592.592 0 01-.588-.594v-52.847c0-.327.263-.594.588-.594zm277.201 0c27.916 0 32.084 16.453 32.084 26.261 0 17.392-12.181 27.773-32.59 27.773h-17.5a.592.592 0 01-.588-.593V181.18c0-.326.264-.593.589-.593zm-180.51 0c.325 0 .59.267.59.594v10.484a.594.594 0 01-.59.594h-21.353v9.258h21.353c.325 0 .59.267.59.594v9.673c0 .33-.265.596-.59.596h-21.353v10.573h21.353c.325 0 .59.264.59.59v10.485a.594.594 0 01-.59.594h-35.103a.592.592 0 01-.589-.594v-52.847c0-.327.264-.594.589-.594zm37.55 0a.59.59 0 01.503.283l9.053 14.836 8.473-14.82a.59.59 0 01.51-.299h13.253c.464 0 .746.513.5.91l-15.796 25.344 17.402 26.863a.595.595 0 01-.496.918h-14.66a.587.587 0 01-.499-.278l-10.467-16.687-9.884 16.674a.593.593 0 01-.509.29h-13.352a.591.591 0 01-.493-.914l17.296-26.858-16.39-25.344a.593.593 0 01.492-.918zm143.061 11.772H428.2v30.492h4.56c10.925 0 16.236-5.07 16.236-15.497 0-10.51-5.004-14.995-16.739-14.995z" fill="#161616"/></g></svg>