<svg width="571" height="704" viewBox="0 0 571 704" fill="none" xmlns="http://www.w3.org/2000/svg">
<g filter="url(#filter0_d_1922_2450)">
<circle cx="112" cy="270" r="77" fill="white"/>
<circle cx="464" cy="435" r="52" fill="white"/>
<circle cx="506.5" cy="119.5" r="29.5" fill="white"/>
<circle cx="90" cy="53" r="18" fill="white"/>
</g>
<path fill-rule="evenodd" clip-rule="evenodd" d="M245.55 512.123C237.992 512.123 231.808 505.991 231.808 498.369C231.808 495.905 232.438 493.612 233.583 491.607L230.834 488.856C229.975 489.142 229.002 489.371 228.029 489.371C223.39 489.371 219.611 485.646 219.554 481.004V449.369H224.536V447.191C224.536 445.931 223.849 444.784 222.761 444.154L196.593 429.425H186.401H182.049H172.658V449.369H177.239V481.004C177.182 483.755 175.808 486.162 173.746 487.652H177.869V512.238H173.689H163.554H159.489V487.709H163.497C161.435 486.219 160.061 483.755 160.004 481.062V449.426H164.814V429.483H141.223L115.055 444.211C113.967 444.842 113.28 445.988 113.28 447.249V449.426H118.262V481.062C118.147 485.704 114.425 489.429 109.787 489.429C108.814 489.429 107.84 489.257 106.981 488.913L104.233 491.664C105.378 493.67 106.008 495.962 106.008 498.426C106.008 505.991 99.8813 512.181 92.2658 512.181C84.7075 512.181 78.5234 506.049 78.5234 498.426C78.5234 490.861 84.6502 484.672 92.2658 484.672C94.8997 484.672 97.4191 485.417 99.4805 486.735L101.943 484.271C101.542 483.297 101.256 482.208 101.256 481.062H101.198V449.426H105.951V447.249C105.951 443.352 108.069 439.798 111.448 437.85L138.417 422.605C138.99 422.319 139.562 422.147 140.192 422.147H153.763V403.636H164.757V339.219H149.869L147.808 333.374H140.192L128.855 326.038H145.231L142.425 318.129H194.818L192.012 326.038H208.331L196.994 333.374H189.493L187.431 339.219H172.601V403.636H183.595V422.147H186.401H197.566C198.196 422.147 198.826 422.319 199.341 422.605L226.311 437.85C229.689 439.741 231.808 443.352 231.808 447.249V449.426H236.56V481.062H236.503C236.503 482.208 236.217 483.297 235.816 484.271L238.278 486.735C240.397 485.417 242.859 484.672 245.493 484.672C253.051 484.672 259.235 490.804 259.235 498.426C259.292 505.934 253.166 512.123 245.55 512.123Z" fill="black"/>
<path fill-rule="evenodd" clip-rule="evenodd" d="M179.814 192.678C164.984 191.073 140.248 190.041 111.961 195.601C105.491 196.861 101.139 203.051 102.055 209.584C104.918 230.101 102.17 253.312 97.1884 272.854C91.0043 296.695 91.1761 336.411 138.873 330.623C186.342 324.834 207.184 335.895 207.184 335.895C241.941 332.915 243.945 332.342 264.73 331.769C249.041 314.347 218.121 306.896 209.532 299.217C201.401 291.939 204.207 285.577 196.076 209.068C195.16 200.472 188.403 193.595 179.814 192.678Z" fill="#573652"/>
<path fill-rule="evenodd" clip-rule="evenodd" d="M266.452 235.776C266.452 245.061 258.951 252.568 249.675 252.568C243.376 252.568 237.822 249.072 235.016 243.857L198.026 183.51C195.392 180.3 193.789 176.174 193.789 171.647C193.789 161.331 202.149 152.906 212.513 152.906C221.045 152.906 228.202 158.58 230.435 166.374L262.615 224.945C264.963 227.925 266.452 231.65 266.452 235.776Z" fill="#D3D8DC"/>
<path fill-rule="evenodd" clip-rule="evenodd" d="M275.669 211.363H275.841L265.821 240.247C263.874 247.353 257.404 252.568 249.674 252.568C240.397 252.568 232.896 245.061 232.896 235.777C232.896 232.739 233.698 229.931 235.13 227.467L241.944 211.363C241.886 211.248 241.886 211.133 241.886 211.019C242.23 209.529 250.132 208.268 259.522 208.268C268.913 208.268 276.242 209.471 275.841 211.019C275.841 211.133 275.784 211.248 275.669 211.363Z" fill="#D3D8DC"/>
<path d="M234.959 227.753L241.945 211.305" stroke="#A8B3BC" stroke-width="1.1462" stroke-miterlimit="10" stroke-linecap="round" stroke-linejoin="round"/>
<path fill-rule="evenodd" clip-rule="evenodd" d="M259.525 208.324C268.915 208.324 276.245 209.528 275.844 211.075C275.5 212.565 267.598 213.826 258.208 213.826C248.817 213.826 241.488 212.623 241.889 211.075C242.232 209.528 250.134 208.324 259.525 208.324Z" fill="black"/>
<path fill-rule="evenodd" clip-rule="evenodd" d="M277.96 196.978L273.38 209.987H273.265C273.265 210.044 273.322 210.101 273.265 210.216C272.979 211.477 266.222 212.509 258.263 212.509C250.304 212.509 244.063 211.477 244.406 210.216C244.406 210.159 244.463 210.044 244.521 209.987L249.101 197.035H277.96V196.978Z" fill="#ECE6E8"/>
<path fill-rule="evenodd" clip-rule="evenodd" d="M263.932 194.571C271.891 194.571 278.132 195.602 277.788 196.863C277.502 198.124 270.746 199.155 262.786 199.155C254.827 199.155 248.586 198.124 248.93 196.863C249.273 195.602 255.972 194.571 263.932 194.571Z" fill="black"/>
<path fill-rule="evenodd" clip-rule="evenodd" d="M306.591 138.521C305.674 137.547 304.128 137.547 303.155 138.464C300.521 141.043 297.83 143.565 295.139 146.144L296.914 135.255C297.086 134.051 296.341 132.848 295.139 132.504C293.822 132.16 292.505 132.962 292.161 134.223L288.096 150.155L284.145 141.043C283.687 139.954 282.427 139.324 281.225 139.668C279.908 140.069 279.22 141.387 279.564 142.648L283.4 155.543L276.415 159.669C276.415 159.612 276.472 159.612 276.472 159.554C277.732 157.033 278.705 154.568 279.621 151.932C279.965 150.958 279.621 149.812 278.705 149.181C277.617 148.379 276.071 148.665 275.27 149.754L275.212 149.869C273.781 151.875 272.178 153.881 270.574 155.657C269.773 156.574 268.914 157.376 268.055 158.121C267.654 158.523 267.196 158.809 266.795 159.153C266.337 159.44 266.051 159.612 265.364 160.127C262.844 161.961 260.497 164.311 258.664 167.348C256.832 170.386 255.744 174.34 256.088 178.467L256.259 180.186V180.243L251.392 195.488C251.278 195.602 251.163 195.659 251.163 195.774C250.877 196.863 256.259 197.78 263.131 197.78C270.002 197.78 275.785 196.863 276.071 195.774C276.128 195.602 276.014 195.43 275.785 195.258L278.762 176.518C280.423 174.34 282.026 172.105 283.572 169.813C284.259 169.01 284.889 168.265 285.576 167.463C287.981 164.597 290.386 161.732 292.734 158.867C297.429 153.078 302.124 147.347 306.762 141.502C307.507 140.757 307.45 139.381 306.591 138.521Z" fill="#EB967C"/>
<path d="M260.555 174.053C260.555 174.053 260.497 167.635 268.113 163.967C273.553 161.331 283.459 156.115 283.459 156.115" stroke="black" stroke-width="1.1462" stroke-miterlimit="10" stroke-linecap="round" stroke-linejoin="round"/>
<path d="M288.037 150.556C289.64 144.309 292.217 134.28 292.217 134.28C292.561 132.962 293.878 132.217 295.194 132.561C296.397 132.847 297.199 134.051 296.97 135.312L293.419 156.86C293.362 157.147 293.248 157.433 293.133 157.72L293.019 157.949C291.587 160.127 289.125 162.878 286.777 165.228" stroke="black" stroke-width="1.1462" stroke-miterlimit="10" stroke-linecap="round" stroke-linejoin="round"/>
<path d="M283.515 156.517L279.564 142.762C279.163 141.502 279.907 140.126 281.224 139.782C282.427 139.438 283.686 140.011 284.144 141.158L290.5 155.772C290.844 156.574 290.786 157.434 290.443 158.179L290.271 158.58C289.813 159.611 289.355 160.414 288.897 161.273C288.439 162.133 287.981 162.993 287.465 163.852C286.492 165.514 285.461 167.176 284.431 168.838" stroke="black" stroke-width="1.1462" stroke-miterlimit="10" stroke-linecap="round" stroke-linejoin="round"/>
<path fill-rule="evenodd" clip-rule="evenodd" d="M213.258 190.788C210.682 208.726 198.199 230.275 153.308 231.192C143.459 231.364 145.406 208.382 148.44 190.272C139.966 188.668 133.381 181.447 133.038 172.564C132.637 162.191 140.768 153.422 151.303 153.021C151.991 153.021 152.678 153.021 153.365 153.078C153.365 153.078 192.301 153.308 210.796 153.308C221.275 152.906 230.15 160.987 230.551 171.36C230.952 181.332 223.279 189.871 213.258 190.788Z" fill="#D3D8DC"/>
<path fill-rule="evenodd" clip-rule="evenodd" d="M219.385 176.633L226.771 191.419C230.092 198.067 230.436 205.804 227.802 212.795L210.452 259.56L151.475 259.732C151.418 259.732 120.841 143.852 219.385 176.633Z" fill="#D3D8DC"/>
<path d="M219.386 176.633L226.772 191.419C230.093 198.067 230.437 205.804 227.803 212.796L210.453 259.561" stroke="#A8B3BC" stroke-width="1.1462" stroke-miterlimit="10" stroke-linecap="round" stroke-linejoin="round"/>
<path fill-rule="evenodd" clip-rule="evenodd" d="M261.181 317.728C246.637 343.804 218.408 360.195 206.785 347.758V347.873L190.294 330.852L146.433 322.657C126.106 320.422 116.772 300.535 127.709 282.654L151.472 245.861C151.3 245.747 151.186 245.632 151.186 245.518C151.186 243.913 166.817 242.652 186.114 242.652C205.41 242.652 221.042 243.913 221.042 245.518V245.575H221.214L216.347 270.505L218.523 270.677C223.619 267.181 229.689 265.691 235.701 266.951C238.793 267.582 241.541 268.957 244.004 270.791C251.848 270.218 259.063 273.256 261.811 277.325C270.171 289.417 269.541 302.77 261.181 317.728Z" fill="#ED5C18"/>
<path fill-rule="evenodd" clip-rule="evenodd" d="M263.871 278.7C263.299 277.898 262.554 277.095 261.638 276.35C258.718 273.313 255.053 271.078 250.816 270.218C238.105 267.524 225.164 277.439 222.015 292.454C221.671 294.059 221.041 298.988 220.927 299.962C218.121 320.88 200.37 330.05 207.7 344.778C215.888 361.169 247.896 345.81 263.184 318.358C271.372 303.744 272.002 290.62 263.871 278.7Z" fill="#CC2818"/>
<path fill-rule="evenodd" clip-rule="evenodd" d="M117.746 324.548C117.746 324.548 153.304 307.584 168.249 311.653C189.263 317.441 190.58 330.966 190.58 330.966C190.58 330.966 146.891 324.318 117.746 324.548Z" fill="#573652"/>
<path fill-rule="evenodd" clip-rule="evenodd" d="M169.392 177.834C168.648 180.814 153.016 244.715 153.016 244.715H152.901C152.214 253.139 145.228 259.787 136.639 259.787C127.592 259.787 120.32 252.452 120.32 243.454C120.32 242.25 120.435 241.104 120.664 240.015L133.49 166.831L133.662 166.888C135.838 158.922 143.052 153.076 151.699 153.076C162.005 153.076 170.423 161.443 170.423 171.817C170.423 173.822 170.022 175.886 169.392 177.834Z" fill="#D3D8DC"/>
<path d="M165.157 195.084L156.969 228.553" stroke="#A8B3BC" stroke-width="1.1462" stroke-miterlimit="10" stroke-linecap="round" stroke-linejoin="round"/>
<path fill-rule="evenodd" clip-rule="evenodd" d="M160.517 259.844H160.46L137.556 259.672C137.27 259.672 136.926 259.73 136.583 259.73C127.536 259.73 120.264 252.394 120.264 243.396C120.264 234.399 127.593 227.063 136.583 227.063C146.66 227.636 155.02 227.865 160.575 227.98C164.697 227.865 168.076 234.857 168.018 243.683C168.018 252.451 164.64 259.73 160.517 259.844Z" fill="#D3D8DC"/>
<path d="M129.195 228.783C131.428 227.637 133.948 227.006 136.582 227.006C146.66 227.579 155.019 227.808 160.574 227.923" stroke="#A8B3BC" stroke-width="1.1462" stroke-miterlimit="10" stroke-linecap="round" stroke-linejoin="round"/>
<path fill-rule="evenodd" clip-rule="evenodd" d="M160.576 227.923C164.699 227.808 168.077 234.8 168.02 243.625C168.02 252.451 164.641 259.672 160.519 259.787C156.396 259.901 153.018 252.91 153.075 244.084C153.075 235.316 156.453 228.094 160.576 227.923Z" fill="black"/>
<path fill-rule="evenodd" clip-rule="evenodd" d="M173.629 229.642L172.598 259.099H161.719V258.985C161.604 258.985 161.49 259.042 161.375 259.042C157.653 259.156 154.676 252.509 154.676 244.199C154.676 235.889 157.711 229.069 161.432 228.897C161.547 228.897 161.604 228.897 161.719 228.897V228.782L173.629 229.642Z" fill="#ECE6E8"/>
<path fill-rule="evenodd" clip-rule="evenodd" d="M173.86 229.412C177.468 229.298 180.388 235.716 180.331 243.74C180.331 251.763 177.411 258.411 173.803 258.526C170.196 258.64 167.276 252.222 167.333 244.198C167.333 236.175 170.253 229.527 173.86 229.412Z" fill="black"/>
<path fill-rule="evenodd" clip-rule="evenodd" d="M233.979 232.221L230.086 238.582L230.83 246.376C230.429 246.606 218.691 255.775 203.231 255.718C195.1 255.718 192.352 252.165 192.352 252.165C192.352 252.165 185.652 254.056 175.345 256.234C174.945 256.463 174.544 256.578 174.143 256.578C171.051 256.692 168.532 251.133 168.589 244.256C168.589 237.322 171.108 231.648 174.2 231.533C174.544 231.533 174.887 231.591 175.231 231.705C209.358 231.247 233.979 232.221 233.979 232.221Z" fill="#EB967C"/>
<path d="M227.566 234.858C234.151 232.05 237.072 229.127 241.881 229.872C246.348 230.559 249.039 236.004 258.83 249.988C260.72 253.025 256.654 256.005 253.162 252.452C251.845 253.77 249.211 253.999 248.294 252.968C246.748 251.191 237.701 243.569 236.098 241.792C234.724 240.245 233.35 239.271 230.945 239.844C229.055 240.302 231.861 242.652 229.857 243.512H229.8C227.28 244.6 224.417 243.511 223.386 241.047C222.356 238.64 220.294 238.411 222.814 237.322C223.043 237.207 225.963 238.927 227.566 234.858Z" fill="#EB967C"/>
<path d="M213.196 239.385C219.209 236.978 223.675 234.972 225.507 235.316C228.542 236.061 229.974 237.207 230.546 238.067C232.035 240.073 234.783 245.976 236.158 248.039C237.532 250.045 238.849 252.108 240.166 254.171C240.967 255.432 240.567 257.094 239.307 257.896C238.162 258.641 236.616 258.412 235.757 257.438C234.211 255.661 232.55 253.827 230.947 252.05C229.344 250.274 227.683 248.554 226.08 246.892C225.679 246.491 225.278 246.09 224.877 245.689L224.305 245.173L224.018 244.944L223.904 244.829L223.847 244.772L223.961 244.887C224.648 245.46 224.935 245.402 224.992 245.46C225.049 245.517 224.935 245.517 224.82 245.517C224.534 245.574 224.076 245.632 223.618 245.746C221.728 246.205 219.38 247.064 217.376 247.924H217.319C214.8 249.013 211.937 247.924 210.906 245.46C209.875 243.053 211.078 240.187 213.597 239.098C213.769 239.098 212.967 239.442 213.196 239.385Z" fill="#EB967C"/>
<path d="M235.182 232.622C238.332 232.909 239.878 233.883 240.622 234.685C243.829 237.952 252.131 248.783 252.475 249.185C253.448 250.274 253.277 251.993 252.131 252.967C251.043 253.884 249.555 253.884 248.524 253.024C246.921 251.649 240.164 245.402 237.301 242.938C236.958 242.594 235.125 240.703 232.033 240.302" stroke="black" stroke-width="1.1462" stroke-miterlimit="10" stroke-linecap="round" stroke-linejoin="round"/>
<path d="M225.506 235.316C228.541 236.061 229.972 237.207 230.545 238.067C232.033 240.072 234.782 245.975 236.156 248.038C237.53 250.044 238.847 252.107 240.164 254.171C240.966 255.431 240.565 257.093 239.305 257.896C238.16 258.641 236.614 258.412 235.755 257.437C234.209 255.661 232.549 253.827 230.946 252.05C229.342 250.274 227.682 248.554 226.078 246.892" stroke="black" stroke-width="1.1462" stroke-miterlimit="10" stroke-linecap="round" stroke-linejoin="round"/>
<path fill-rule="evenodd" clip-rule="evenodd" d="M209.588 87.0554C262.21 133.591 219.036 127.803 219.036 127.803C221.441 125.51 225.277 119.665 219.093 104.936C227.224 137.259 199.224 128.662 199.224 128.662L199.854 122.989C203.404 122.416 183.821 116.627 183.821 116.627C185.482 119.837 184.451 126.714 185.997 129.923C185.997 129.923 169.621 133.476 152.328 128.204C123.011 119.206 156.852 97.9442 156.737 94.6203C156.508 88.3735 156.05 80.4074 160.288 74.3899C145.686 70.0343 153.817 56.3946 159.371 58.8589C159.371 58.8589 159.028 51.5805 163.437 48.1992C165.613 46.1361 168.533 44.8752 171.797 44.8752C175.576 44.8752 178.897 46.5945 181.13 49.2881C185.024 53.4144 184.451 60.8074 183.249 66.1945C222.472 70.4928 222.357 81.7828 213.596 88.3162C211.535 90.322 209.703 86.998 209.588 87.0554Z" fill="#4F2827"/>
<path fill-rule="evenodd" clip-rule="evenodd" d="M186.912 98.0588C195.043 98.0588 193.783 102.185 193.783 114.449C193.783 116.226 193.783 118.003 193.783 119.722C189.202 118.117 183.82 116.57 183.82 116.57C185.481 119.779 184.45 126.656 185.996 129.866C185.996 129.866 177.579 131.7 166.47 130.783C165.497 129.465 164.81 127.917 164.524 126.026C162.691 115.137 178.724 98.0588 186.912 98.0588Z" fill="#351015"/>
<path fill-rule="evenodd" clip-rule="evenodd" d="M185.424 167.347L193.669 149.924L205.808 165.57L201.113 192.907L185.424 167.347Z" fill="#EBE6E9"/>
<path fill-rule="evenodd" clip-rule="evenodd" d="M168.018 153.362C167.674 153.42 172.999 152.503 169.621 154.967C166.472 157.202 163.38 158.807 173.4 166.085C193.956 170.613 198.251 163.392 198.251 163.392C198.251 163.392 204.778 167.575 209.932 165.512C215.028 163.449 206.21 156.801 197.564 155.426C184.279 153.248 168.018 153.362 168.018 153.362Z" fill="black"/>
<path fill-rule="evenodd" clip-rule="evenodd" d="M168.018 143.62C167.674 143.735 162.807 148.549 159.429 152.675C156.28 156.515 158.456 161.845 172.083 165.685C191.38 171.129 196.247 161.329 197.908 158.521C197.908 158.521 205.695 168.378 210.791 164.882C215.887 161.387 206.039 149.523 197.45 147.116C184.28 143.391 168.018 143.62 168.018 143.62Z" fill="#EBE6E9"/>
<path fill-rule="evenodd" clip-rule="evenodd" d="M185.023 143.22C194.471 144.825 201.743 148.148 201.342 150.613C200.942 153.077 192.925 153.765 183.477 152.103C174.03 150.498 166.758 147.174 167.158 144.71C167.616 142.246 175.633 141.558 185.023 143.22Z" fill="black"/>
<path fill-rule="evenodd" clip-rule="evenodd" d="M203.173 126.599L199.28 149.064C199.337 149.236 199.337 149.408 199.337 149.58C198.993 151.758 191.95 152.331 183.705 150.898C175.46 149.466 169.047 146.6 169.39 144.422C169.447 144.25 169.505 144.078 169.619 143.964L178.323 113.131L203.173 126.599Z" fill="#EB967C"/>
<path fill-rule="evenodd" clip-rule="evenodd" d="M200.714 140.754C187.487 135.654 182.506 116.913 182.506 116.913L186.629 117.658L203.177 126.656L200.714 140.754Z" fill="black"/>
<path fill-rule="evenodd" clip-rule="evenodd" d="M177.981 115.023C174.775 116.398 169.679 113.877 168.534 112.329C166.529 109.579 166.529 104.593 169.45 102.529C171.797 100.867 176.035 102.128 178.21 104.249C178.325 104.363 178.554 104.593 178.611 104.707C185.54 97.9446 184.108 90.3797 184.108 90.3797C194.472 89.2335 193.556 77.1984 193.556 77.1411C193.556 77.1411 206.039 83.9037 213.196 84.4768C214.341 88.7177 214.112 91.2393 215.658 97.8873C218.006 107.974 216.632 126.256 204.664 130.038C197.736 132.159 185.826 130.439 177.981 115.023ZM178.268 104.249C178.153 104.191 178.21 104.191 178.268 104.249V104.249Z" fill="#EB967C"/>
<path d="M173.286 108.031C171.911 108.948 171.453 110.782 172.312 112.1C173.171 113.418 174.946 113.647 176.32 112.73" stroke="black" stroke-width="1.1462" stroke-miterlimit="10" stroke-linecap="round" stroke-linejoin="round"/>
<path d="M206.154 89.0039C206.154 89.0039 211.079 87.1126 214.228 89.2904" stroke="black" stroke-width="1.1462" stroke-miterlimit="10" stroke-linecap="round" stroke-linejoin="round"/>
<path d="M208.9 95.1934L211.649 93.4741" stroke="black" stroke-width="1.1462" stroke-miterlimit="10" stroke-linecap="round" stroke-linejoin="round"/>
<path d="M191.838 96.6829L194.93 95.1929" stroke="black" stroke-width="1.1462" stroke-miterlimit="10" stroke-linecap="round" stroke-linejoin="round"/>
<path d="M185.253 92.9588C185.138 93.6465 188.574 88.4313 197.907 89.6921" stroke="black" stroke-width="1.1462" stroke-miterlimit="10" stroke-linecap="round" stroke-linejoin="round"/>
<path d="M203.405 95.6516C203.405 95.6516 204.894 98.9183 207.127 102.3C209.532 105.91 208.845 109.521 203.348 108.718" stroke="black" stroke-width="1.1462" stroke-miterlimit="10" stroke-linecap="round" stroke-linejoin="round"/>
<path d="M177.239 109.865L170.711 106.541" stroke="black" stroke-width="1.1462" stroke-miterlimit="10" stroke-linecap="round" stroke-linejoin="round"/>
<path fill-rule="evenodd" clip-rule="evenodd" d="M191.608 96.5115C192.467 96.3396 193.326 97.4285 193.441 98.8612C193.555 100.294 192.983 101.612 192.066 101.784C191.15 101.956 190.349 100.867 190.234 99.4343C190.12 97.9443 190.75 96.6835 191.608 96.5115Z" fill="black"/>
<path fill-rule="evenodd" clip-rule="evenodd" d="M209.245 94.5052C210.104 94.3333 210.963 95.4222 211.077 96.8549C211.192 98.2876 210.619 99.6058 209.703 99.7777C208.844 99.9496 207.985 98.8607 207.871 97.428C207.756 95.9379 208.386 94.6198 209.245 94.5052Z" fill="black"/>
<path fill-rule="evenodd" clip-rule="evenodd" d="M201.859 111.412C204.722 111.47 207.414 111.355 209.876 111.183C208.559 115.997 205.41 119.378 201.802 119.321C198.138 119.264 195.103 115.825 193.9 111.011C196.305 111.24 198.996 111.412 201.859 111.412Z" fill="black"/>
<path fill-rule="evenodd" clip-rule="evenodd" d="M189.031 81.7832C164.466 113.819 168.875 139.552 191.664 129.58C181.186 115.367 187.828 87.8007 189.031 81.7832Z" fill="#4F2827"/>
<path fill-rule="evenodd" clip-rule="evenodd" d="M220.925 90.3796L221.04 92.3855L219.665 92.6147C219.379 93.4171 219.15 94.334 219.15 95.251C218.578 94.3913 217.661 92.9586 215.256 91.8697L210.847 90.6089C210.733 90.6089 210.618 90.5516 210.504 90.5516H210.618H210.561L220.925 90.3796Z" fill="black"/>
<path d="M203.689 96.282C204.377 93.5312 207.354 91.3534 211.019 91.1241C215.313 90.8949 218.863 93.3592 218.978 96.7405C219.092 100.064 215.771 102.987 211.477 103.274C209.931 103.388 208.442 103.102 207.182 102.529C207.125 102.472 207.125 102.414 207.068 102.357" stroke="black" stroke-width="1.1462" stroke-miterlimit="10" stroke-linecap="round" stroke-linejoin="round"/>
<path fill-rule="evenodd" clip-rule="evenodd" d="M183.648 93.0154L183.533 95.0213L184.907 95.0786C185.194 95.8236 185.423 96.6833 185.423 97.6576C185.995 96.6833 186.912 95.1359 189.316 93.7032L193.725 91.8692C193.84 91.8119 193.954 91.8119 194.069 91.7546H193.954H194.012L183.648 93.0154Z" fill="black"/>
<path fill-rule="evenodd" clip-rule="evenodd" d="M193.556 92.3279C189.261 92.6718 185.711 95.7092 185.597 99.0332C185.482 102.414 188.803 104.879 193.098 104.478C197.392 104.134 200.942 101.096 201.057 97.7724C201.171 94.4484 197.793 91.9841 193.556 92.3279Z" stroke="black" stroke-width="1.1462" stroke-miterlimit="10" stroke-linecap="round" stroke-linejoin="round"/>
<path fill-rule="evenodd" clip-rule="evenodd" d="M199.913 115.08C198.138 115.023 196.592 114.851 195.275 114.622C194.702 113.533 194.187 112.329 193.9 111.011C196.305 111.24 199.054 111.412 201.917 111.47C203.978 111.47 205.925 111.47 207.814 111.355C206.898 113.361 203.062 115.195 199.913 115.08Z" fill="#EBE6E9"/>
<path fill-rule="evenodd" clip-rule="evenodd" d="M125.305 271.879H108.184L46 513.096H56.3067L125.305 271.879Z" fill="#F78E28"/>
<path fill-rule="evenodd" clip-rule="evenodd" d="M70.9082 258.928H395.8V271.593H70.9082V258.928Z" fill="#555FC1"/>
<path fill-rule="evenodd" clip-rule="evenodd" d="M219.951 513.671C210.217 513.212 202.773 506.851 199.624 502.667C197.792 500.203 197.276 496.42 198.422 492.122C199.739 487.251 201.514 483.411 200.769 482.379C199.739 480.889 205.923 473.554 209.187 465.931C216.229 449.426 210.904 467.937 222.643 470.975C237.702 498.311 236.213 498.541 236.213 498.541C236.671 504.558 228.54 514.072 219.951 513.671Z" fill="black"/>
<path fill-rule="evenodd" clip-rule="evenodd" d="M219.266 509.659C209.532 509.201 202.088 502.839 198.939 498.656C197.107 496.191 197.221 493.899 198.481 487.48C199.454 482.494 200.829 479.457 200.084 478.425C199.054 476.935 202.833 469.599 206.669 459.685C213.139 442.95 209.188 460.143 220.869 463.123C229.573 478.712 235.585 494.988 235.585 494.988C235.471 500.776 227.798 510.06 219.266 509.659Z" fill="#ED5C18"/>
<path fill-rule="evenodd" clip-rule="evenodd" d="M259.518 332.915C251.788 373.547 234.496 433.608 230.03 458.137C229.743 466.217 229.113 472.693 228.884 477.794C228.713 481.233 230.03 489.313 217.375 489.141C196.991 488.912 205.923 470.688 207.698 452.463C211.248 415.04 212.909 395.039 215.085 372.172C216.345 358.933 222.071 354.062 226.25 342.944C222.013 339.219 219.379 333.717 219.379 327.642C219.379 316.352 228.541 307.182 239.821 307.182C251.101 307.182 260.263 316.352 260.263 327.642C260.205 329.476 259.976 331.195 259.518 332.915Z" fill="#EB967C"/>
<path fill-rule="evenodd" clip-rule="evenodd" d="M260.208 327.643C260.208 329.477 259.979 331.196 259.521 332.858C257.002 346.154 253.451 361.513 249.615 377.044C221.386 362.716 253.165 317.728 230.662 309.246C233.411 307.928 236.445 307.126 239.709 307.126C241.599 307.126 243.431 307.412 245.206 307.871C250.703 312.685 255.799 319.218 260.151 326.439C260.208 326.898 260.208 327.242 260.208 327.643Z" fill="black"/>
<path fill-rule="evenodd" clip-rule="evenodd" d="M283.226 438.881C281.795 436.818 281.795 418.078 279.676 412.862C266.335 379.451 256.887 369.078 247.382 348.159C240.968 334.061 245.492 326.783 241.198 311.08C232.78 308.73 226.539 300.993 226.539 291.766C226.539 280.706 235.529 271.708 246.637 271.708C254.482 271.708 261.296 276.236 264.617 282.826C264.731 282.769 264.789 282.712 264.903 282.597C278.588 321.625 297.77 382.603 306.245 406.558C315.75 416.874 332.24 429.711 332.24 429.711C332.24 429.711 311.169 448.566 283.226 438.881Z" fill="#EB967C"/>
<path fill-rule="evenodd" clip-rule="evenodd" d="M241.198 311.08C237.935 310.163 235.014 308.443 232.609 306.151C233.812 303.744 235.701 301.394 238.507 299.159C238.507 299.159 243.031 309.59 243.031 321.453C242.802 318.415 242.286 314.977 241.198 311.08Z" fill="black"/>
<path fill-rule="evenodd" clip-rule="evenodd" d="M282.712 441.459L281.91 427.877C281.91 427.877 286.033 425.298 295.137 426.96C305.959 428.909 312.43 430.571 312.43 430.571C312.43 430.571 320.732 425.871 326.115 425.871L350.507 432.519C350.507 432.519 331.554 450.744 321.419 448.165C311.284 445.643 305.673 441.975 297.027 442.949C288.438 443.866 282.712 441.459 282.712 441.459Z" fill="#ED5C18"/>
<path fill-rule="evenodd" clip-rule="evenodd" d="M305.728 442.834C305.728 442.834 293.188 439.682 286.26 439.224C281.965 438.937 281.736 441.803 283.855 443.579C291.986 450.285 301.777 443.751 307.388 445.987C313 448.222 327.887 453.379 338.08 450.915C348.272 448.451 354.971 441.631 356.574 433.608C357.491 428.908 354.055 425.126 347.642 427.59C330.636 434.009 319.642 445.7 305.728 442.834Z" fill="black"/>
<path fill-rule="evenodd" clip-rule="evenodd" d="M382.595 154.135C371.003 156.17 363.26 167.22 365.293 178.822C367.328 190.425 378.367 198.176 389.96 196.14C401.552 194.105 409.297 183.055 407.262 171.453C405.229 159.85 394.189 152.099 382.595 154.135Z" fill="#7581F1"/>
<path fill-rule="evenodd" clip-rule="evenodd" d="M407.249 179.262C409.783 169.736 414.237 124.769 413.569 120.014C412.259 110.333 403.27 103.551 393.49 104.881C383.709 106.211 376.808 115.12 378.118 124.801C379.066 132.109 364.674 159.83 364.961 174.397C365.373 195.365 405.869 184.322 407.249 179.262Z" fill="#54B4A6"/>
<path fill-rule="evenodd" clip-rule="evenodd" d="M382.595 154.135C371.003 156.17 363.26 167.22 365.293 178.822C367.328 190.425 378.367 198.176 389.96 196.14C401.552 194.105 409.297 183.055 407.262 171.453C405.229 159.85 394.189 152.099 382.595 154.135Z" fill="#7581F1"/>
<path fill-rule="evenodd" clip-rule="evenodd" d="M349.129 192.017C368.069 224.956 400.9 192.281 403.132 188.29C408.483 174.948 403.606 178.684 403.083 170.969C403.074 169.973 402.95 168.944 402.78 167.977C400.963 157.61 391.424 150.536 381.105 151.629C376.27 151.814 366.225 152.581 359.542 155.802C359.132 155.986 358.722 156.169 358.364 156.341C346.342 162.551 341.563 178.839 349.129 192.017Z" fill="#54B4A6"/>
<path fill-rule="evenodd" clip-rule="evenodd" d="M367.118 172.19C374.681 170.529 381.726 174.11 382.864 180.277C383.99 186.391 378.742 192.739 371.177 194.4C363.612 196.06 356.567 192.481 355.431 186.313C354.304 180.199 359.499 173.86 367.118 172.19Z" fill="#54B4A6"/>
<path d="M382.854 180.224C383.982 186.338 378.732 192.686 371.169 194.346C363.604 196.007 356.559 192.427 355.422 186.26" stroke="#39A08F" stroke-width="1.31491" stroke-miterlimit="10" stroke-linecap="round" stroke-linejoin="round"/>
<path fill-rule="evenodd" clip-rule="evenodd" d="M363.564 162.017C371.129 160.357 378.174 163.936 379.31 170.104C380.437 176.219 375.188 182.567 367.624 184.227C360.06 185.888 353.015 182.308 351.878 176.14C350.814 170.07 356.009 163.732 363.564 162.017Z" fill="#39A08F"/>
<path fill-rule="evenodd" clip-rule="evenodd" d="M353.273 175.896C354.296 181.419 360.612 184.628 367.435 183.153C374.248 181.624 378.947 175.927 377.932 170.458C377.848 169.974 377.718 169.553 377.59 169.133L374.616 143.965L355.281 139.387L353.326 172.73C353.111 173.709 353.084 174.821 353.273 175.896Z" fill="#DE7C62"/>
<path fill-rule="evenodd" clip-rule="evenodd" d="M361.921 153.281C366.432 156.918 371.907 158.171 376.105 156.88L374.553 143.92L355.442 139.358C354.799 143.9 357.15 149.412 361.921 153.281Z" fill="#C26147"/>
<path fill-rule="evenodd" clip-rule="evenodd" d="M364.962 132.758C364.962 132.758 381.978 142.726 372.664 148.293C366.007 152.286 350.201 144.486 346.945 132.544C344.297 122.489 364.962 132.758 364.962 132.758Z" fill="#DE7C62"/>
<path fill-rule="evenodd" clip-rule="evenodd" d="M358.582 143.07C367.357 146.733 372.516 145.551 375.427 143.545C375.145 141.933 374.083 140.292 372.654 138.772C362.886 138.272 346.229 137.93 358.582 143.07Z" fill="#C26147"/>
<path fill-rule="evenodd" clip-rule="evenodd" d="M355.865 95.3759L339.02 98.0574C338.16 98.2082 337.79 98.9376 338.191 99.6425L359.099 141.595C359.455 142.363 360.481 142.847 361.286 142.706L378.131 140.025C378.99 139.874 379.359 139.144 378.959 138.439L358.007 96.55C357.705 95.7726 356.669 95.2344 355.865 95.3759Z" fill="#2C1C28"/>
<path fill-rule="evenodd" clip-rule="evenodd" d="M369.9 137.262C376.107 137.002 375.443 131.637 372.681 131.348C376.578 130.221 376.335 125.999 370.62 124.954C362.733 123.516 353.724 124.82 353.724 124.82L354.037 122.828C354.037 122.828 357.483 123.551 359.645 123.891C364.579 124.575 366.225 119.137 357.068 115.817C351.874 113.961 348.003 113.645 346.376 118.249C344.678 123.087 342.6 132.366 353.565 141.902C357.2 149.071 367.035 143.634 368.741 142.006C371.157 139.698 370.761 138.384 369.9 137.262Z" fill="#DE7C62"/>
<path fill-rule="evenodd" clip-rule="evenodd" d="M344.434 112.223C344.434 112.223 343.878 115.365 343.952 117.679C344.156 124.841 345.899 130.681 346.104 131.531L348.415 120.106L344.434 112.223Z" fill="#DE7C62"/>
<path d="M373.507 131.314C373.507 131.314 358.219 129.623 349.639 134.01" stroke="#2C1C28" stroke-width="1.31491" stroke-miterlimit="10" stroke-linecap="round" stroke-linejoin="round"/>
<path d="M369.888 137.485C365.689 137.835 358.056 138.788 353.861 141.684" stroke="#2C1C28" stroke-width="1.31491" stroke-miterlimit="10" stroke-linecap="round" stroke-linejoin="round"/>
<path d="M359.387 123.992C359.548 123.964 349.198 124.563 346.631 128.226" stroke="#2C1C28" stroke-width="1.31491" stroke-miterlimit="10" stroke-linecap="round" stroke-linejoin="round"/>
<path d="M359.045 123.942L350.215 122.17" stroke="#2C1C28" stroke-width="1.31491" stroke-miterlimit="10" stroke-linecap="round" stroke-linejoin="round"/>
<path fill-rule="evenodd" clip-rule="evenodd" d="M386.865 137.77C386.618 138.257 386.372 138.743 386.116 139.175C384.186 143.003 383.973 147.469 385.656 151.382C387.217 154.929 390.051 159.415 395.377 164.237C393.636 173.236 393.001 190.124 403.927 195.015C408.126 196.881 451.13 192.262 464.905 186.578C473.108 183.199 472.533 176.766 466.485 168.138C463.248 163.558 466.645 133.394 468.239 120.711C472.572 117.348 474.908 111.733 473.891 105.931C472.421 97.5519 464.473 91.9712 456.101 93.4416C455.456 93.5546 454.875 93.7121 454.295 93.8695C425.743 98.8838 404.452 103.343 393.482 104.826C383.702 106.156 376.799 115.065 378.109 124.746C378.893 130.477 382.256 135.147 386.865 137.77Z" fill="#54B4A6"/>
<path d="M408.75 127.559C408.102 131.437 407.729 134.991 407.875 137.402C408.342 144.794 412.292 159.438 420.223 187.004" stroke="#39A08F" stroke-width="1.31491" stroke-miterlimit="10" stroke-linecap="round" stroke-linejoin="round"/>
<path d="M403.932 195.07C393.061 190.169 393.695 173.281 395.384 164.291C390.102 159.405 387.214 154.929 385.661 151.437C383.926 147.533 384.193 143.057 386.122 139.23C387.927 135.646 391.011 129.567 395.884 120.129" stroke="#39A08F" stroke-width="1.31491" stroke-miterlimit="10" stroke-linecap="round" stroke-linejoin="round"/>
<path fill-rule="evenodd" clip-rule="evenodd" d="M447.485 119.095C456.95 132.382 465.67 141.095 470.25 163.435C473.018 177.012 466.293 181.571 474.142 195.419C482.956 210.981 524.511 203.461 518.547 178.595C512.167 151.976 478.645 109.082 471.438 100.16C468.154 95.3102 462.191 92.537 456.073 93.6115C447.701 95.0818 442.126 103.038 443.594 111.417C444.165 114.362 445.568 116.996 447.485 119.095Z" fill="#54B4A6"/>
<path d="M453.605 127.821C465.225 143.608 467.996 150.265 470.412 162.464" stroke="#39A08F" stroke-width="1.31491" stroke-miterlimit="10" stroke-linecap="round" stroke-linejoin="round"/>
<path fill-rule="evenodd" clip-rule="evenodd" d="M517.325 207.271C517.325 207.271 517.355 207.763 517.403 208.033C517.751 210.02 511.11 212.847 502.577 214.346C494.043 215.844 486.837 215.449 486.49 213.46C486.461 213.299 480.908 197.72 480.908 197.72L480.962 197.71C480.952 197.657 480.952 197.657 480.943 197.603C480.595 195.615 487.235 192.788 495.768 191.289C504.302 189.791 511.508 190.186 511.856 192.173C511.875 192.282 511.84 192.398 511.859 192.506L517.325 207.271Z" fill="#54B4A6"/>
<path d="M480.971 197.765L481.025 197.755C481.015 197.702 481.015 197.702 481.006 197.648C480.657 195.661 487.298 192.833 495.831 191.335C504.364 189.836 511.57 190.232 511.919 192.219C511.938 192.327 511.903 192.443 511.921 192.551" stroke="#39A08F" stroke-width="1.31491" stroke-miterlimit="10" stroke-linecap="round" stroke-linejoin="round"/>
<path fill-rule="evenodd" clip-rule="evenodd" d="M501.5 207.891C493.771 209.248 487.702 211.864 488.022 213.69C488.343 215.516 494.886 215.918 502.668 214.551C510.396 213.194 516.465 210.578 516.145 208.752C515.824 206.925 509.281 206.524 501.5 207.891Z" fill="#39A08F"/>
<path fill-rule="evenodd" clip-rule="evenodd" d="M514.763 255.45C518.756 257.407 528.937 259.937 535.32 262.582L537.516 263.747C538.74 264.417 540.224 264.046 540.796 262.893C541.333 261.858 540.928 260.49 539.865 259.79C539.865 259.79 533.521 256.42 528.479 250.384L542.146 247.872L542.603 247.958C542.72 247.993 542.837 248.029 543.007 248.054C543.241 248.123 543.538 248.238 543.771 248.307C544.248 248.501 544.742 248.801 545.184 249.11C545.625 249.421 546.033 249.848 546.385 250.284L546.531 250.48L546.739 250.72L547.111 251.264L547.899 252.289L556.964 265.812C557.897 267.032 559.62 267.395 560.868 266.622C562.008 265.867 562.246 264.386 561.537 263.182L553.425 249.103L552.789 247.997L552.472 247.444L552.307 247.141L552.08 246.792C551.462 245.793 550.702 244.93 549.835 244.085C548.977 243.296 548.022 242.577 546.968 241.932C546.419 241.641 545.924 241.34 545.331 241.112C545.034 240.997 544.791 240.874 544.494 240.761L543.732 240.506L515.657 231.207C515.594 231.163 515.584 231.109 515.584 231.109C516.015 231.033 507.651 229.401 507.462 229.269C495.277 245.915 514.753 255.397 514.763 255.45Z" fill="#DE7C62"/>
<path fill-rule="evenodd" clip-rule="evenodd" d="M490.951 213.673L504.465 245.629L524.054 242.189L514.092 209.664L514.083 209.611C513.819 208.106 508.46 207.829 502.073 208.952C495.633 210.082 490.688 212.169 490.951 213.673Z" fill="#DE7C62"/>
<path fill-rule="evenodd" clip-rule="evenodd" d="M419.989 91.6444C410.331 94.6141 402.988 99.1152 403.673 101.763C404.305 104.421 412.67 104.17 422.391 101.244C432.05 98.2747 439.393 93.7736 438.707 91.1255C438.067 88.4144 429.648 88.6747 419.989 91.6444Z" fill="black"/>
<path d="M425.591 56.386C427.031 57.0192 427.708 58.6721 427.163 59.9859C426.619 61.2995 424.949 61.8698 423.564 61.2271" stroke="black" stroke-width="1.31491" stroke-miterlimit="10" stroke-linecap="round" stroke-linejoin="round"/>
<path fill-rule="evenodd" clip-rule="evenodd" d="M392.765 67.301C386.833 55.5525 405.472 61.5256 413.059 65.6749C420.646 69.824 421.713 82.5376 415.443 94.1036C409.172 105.67 387.336 118.696 383.847 110.782C374.552 89.3249 400.855 83.1554 392.765 67.301Z" fill="#4F2827"/>
<path fill-rule="evenodd" clip-rule="evenodd" d="M400.377 80.748L406.033 100.075C406.008 100.246 406.027 100.353 406.054 100.514C406.612 102.742 413.587 102.458 421.708 99.8694C429.775 97.2899 435.896 93.391 435.34 91.1632C435.303 90.9484 435.156 90.7524 434.959 90.5658L421.289 63.3992L400.377 80.748Z" fill="#DE7C62"/>
<path fill-rule="evenodd" clip-rule="evenodd" d="M403.835 93.2075C420.468 84.5833 417.967 67.4707 417.967 67.4707L400.322 80.4251L403.835 93.2075Z" fill="#C26147"/>
<path fill-rule="evenodd" clip-rule="evenodd" d="M422.669 65.2608C462.805 68.8982 417.659 26.2745 405.341 27.3303C405.341 27.3303 387.293 30.7215 384.331 42.5373C383.944 46.6469 384.564 48.9191 384.251 55.3414C383.69 65.0743 387.944 81.7685 399.612 83.3184C406.401 84.1749 417.875 80.8309 422.669 65.2608Z" fill="#DE7C62"/>
<path d="M406.058 65.1877C406.058 65.1877 402.446 72.3555 395.391 70.6048" stroke="#BD4040" stroke-width="1.31491" stroke-miterlimit="10" stroke-linecap="round" stroke-linejoin="round"/>
<path fill-rule="evenodd" clip-rule="evenodd" d="M404.555 67.3346C404.555 67.3346 402.757 65.6016 399.88 66.5497C398.104 67.1387 397.881 68.3958 397.881 68.3958C397.881 68.3958 394.691 67.2396 394.909 70.6898C397.116 72.2399 403.046 70.0911 404.555 67.3346Z" fill="#BD4040"/>
<path d="M393.004 48.1563C393.004 48.1563 389.278 46.1529 384.717 49.1687" stroke="#2C1C28" stroke-width="1.31491" stroke-miterlimit="10" stroke-linecap="round" stroke-linejoin="round"/>
<path d="M390.259 53.012L387.4 51.853" stroke="#2C1C28" stroke-width="1.31491" stroke-miterlimit="10" stroke-linecap="round" stroke-linejoin="round"/>
<path d="M406.14 50.5006L403.006 49.6667" stroke="#2C1C28" stroke-width="1.31491" stroke-miterlimit="10" stroke-linecap="round" stroke-linejoin="round"/>
<path d="M410.23 47.0133C408.447 45.9975 403.449 43.996 398.721 47.3181" stroke="#2C1C28" stroke-width="1.31491" stroke-miterlimit="10" stroke-linecap="round" stroke-linejoin="round"/>
<path d="M395.207 51.2585C395.207 51.2585 396.699 55.0384 393.728 58.6054C390.803 62.1092 392.945 66.4394 397.608 64.956" stroke="#2C1C28" stroke-width="1.31491" stroke-miterlimit="10" stroke-linecap="round" stroke-linejoin="round"/>
<path d="M422.182 58.7018L427.7 54.5212" stroke="#2C1C28" stroke-width="1.31491" stroke-miterlimit="10" stroke-linecap="round" stroke-linejoin="round"/>
<path fill-rule="evenodd" clip-rule="evenodd" d="M406.326 50.302C405.493 50.2824 404.921 51.4348 404.995 52.806C405.123 54.1677 405.876 55.309 406.7 55.275C407.533 55.2947 408.105 54.1422 408.031 52.7711C407.903 51.4094 407.159 50.3218 406.326 50.302Z" fill="#2C1C28"/>
<path fill-rule="evenodd" clip-rule="evenodd" d="M389.826 52.4243C388.993 52.4046 388.421 53.5571 388.495 54.9283C388.623 56.2901 389.376 57.4313 390.2 57.3973C391.033 57.4171 391.605 56.2645 391.531 54.8934C391.466 53.5759 390.659 52.4441 389.826 52.4243Z" fill="#2C1C28"/>
<path fill-rule="evenodd" clip-rule="evenodd" d="M460.515 93.3859C460.515 93.3859 451.928 94.894 445.058 96.1005C434.401 103.786 437.234 120.896 445.199 124.037L416.111 129.146C409.272 121.377 407.95 114.467 409.413 108.617C403.702 116.43 404.478 123.382 414.696 129.283C371.468 124.417 405.79 98.678 427.361 89.1867C430.134 87.6477 432.088 86.8062 432.088 86.8062C432.088 86.8062 417.409 78.8084 422.698 64.4803C425.808 65.8166 429.227 63.2231 430.065 61.6916C432.04 58.1331 431.076 53.2639 427.849 51.8929C424.62 50.5217 421.531 52.7807 419.894 55.1169C419.938 55.0537 419.938 55.0537 419.894 55.1169C419.806 55.2431 419.629 55.4958 419.593 55.6126C420.239 45.0899 400.233 42.679 401.275 32.5294C401.275 32.5294 389.857 33.0396 384.479 42.1233C383.804 38.5876 385.678 29.3993 399.483 24.2064C415.575 18.169 432.812 24.6653 435.064 41.9326C435.388 43.1491 435.276 44.7191 436.726 46.6792C440.897 52.4805 489.319 72.7687 460.515 93.3859ZM414.876 129.363C414.813 129.319 414.813 129.319 414.749 129.275C414.813 129.319 414.866 129.309 414.929 129.354L414.876 129.363Z" fill="#4F2827"/>
<path fill-rule="evenodd" clip-rule="evenodd" d="M455.448 520.079C444.005 521.443 430.002 518.881 426.841 517.189C424.935 516.208 422.102 515.172 421.557 510.209C421.393 508.846 418.614 506.665 417.361 505.792C415.235 504.319 418.614 485.559 423.299 480.814C426.951 480.159 436.268 496.521 442.317 500.392C457.464 504.047 460.026 509.118 460.026 509.118C461.878 512.118 462.041 519.316 455.448 520.079Z" fill="#2C1A28"/>
<path fill-rule="evenodd" clip-rule="evenodd" d="M455.448 516.699C444.005 518.063 430.002 515.499 426.841 513.809C424.935 512.827 422.102 511.79 421.557 506.828C421.393 505.465 418.614 503.283 417.361 502.411C415.235 500.938 418.614 482.178 423.299 477.434C426.951 476.779 436.268 493.139 442.317 497.012C457.464 500.665 460.026 505.738 460.026 505.738C461.878 508.736 462.041 515.936 455.448 516.699Z" fill="#54B4A6"/>
<path fill-rule="evenodd" clip-rule="evenodd" d="M345.547 520.626C358.842 520.844 363.092 519.099 368.323 516.644C374.098 513.972 370.611 508.028 376.006 506.937C381.509 505.846 382.108 503.993 382.108 503.993C383.415 498.103 380.201 498.812 376.714 494.667C346.2 514.245 344.184 499.247 342.604 504.047C342.604 504.047 326.911 505.574 320.754 513.154C319.719 514.409 320.263 515.935 320.645 517.299C319.01 517.135 327.13 520.299 345.547 520.626Z" fill="#2C1A28"/>
<path fill-rule="evenodd" clip-rule="evenodd" d="M345.548 516.97C358.842 517.189 363.093 515.444 368.323 512.989C374.099 510.317 370.612 504.373 376.006 503.282C381.51 502.192 382.109 500.338 382.109 500.338C383.416 494.448 381.728 485.994 378.186 481.905C347.673 501.483 344.131 495.647 342.605 500.446C342.605 500.446 324.405 502.192 320.591 513.644C319.011 513.535 327.13 516.644 345.548 516.97Z" fill="#54B4A6"/>
<path fill-rule="evenodd" clip-rule="evenodd" d="M432.51 319.657C433.382 338.363 429.186 335.528 426.843 359.96C424.61 383.356 422.593 440.346 422.375 472.305C422.811 474.65 421.83 479.34 421.83 479.34C421.83 479.34 425.263 483.757 425.426 486.102C426.571 502.517 428.423 505.026 455.777 502.681C451.036 497.173 442.155 478.74 444.28 467.342C454.087 379.429 458.065 366.395 457.956 341.035C457.848 311.259 471.142 277.774 475.828 252.142C481.059 223.838 457.792 193.842 458.774 201.096C447.385 199.786 458.555 227.327 450.001 227.818C449.02 227.927 430.766 226.728 430.766 226.728C430.766 226.728 429.132 246.252 432.51 319.657Z" fill="#DE7C62"/>
<path fill-rule="evenodd" clip-rule="evenodd" d="M362.167 498.864C370.83 484.739 375.516 484.466 378.785 483.649C384.615 450.545 393.661 396.064 398.129 373.922C402.978 349.872 396.876 346.326 403.25 328.165C428.207 256.887 430.059 235.999 430.059 235.999C430.059 235.999 416.327 223.947 415.401 223.783C407.01 222.529 414.202 207.041 402.434 207.368C404.831 201.914 385.759 220.13 381.073 259.014C371.211 340.708 354.157 474.269 354.157 474.269C354.157 474.269 349.797 484.521 343.477 491.666C339.935 495.647 336.612 500.5 333.723 502.845C350.615 507.263 359.17 503.664 362.167 498.864Z" fill="#DE7C62"/>
<path fill-rule="evenodd" clip-rule="evenodd" d="M422.921 444.056C433.11 444.437 442.264 440.729 447.659 437.948C448.204 433.312 448.749 429.004 449.238 424.913C441.229 422.077 426.191 424.477 426.191 424.477C426.191 424.477 424.992 425.677 423.411 427.476C423.194 433.093 423.03 438.657 422.921 444.056Z" fill="#C26147"/>
<path fill-rule="evenodd" clip-rule="evenodd" d="M355.681 431.623C355.845 433.15 365.108 434.404 376.605 434.404C388.157 434.404 397.528 433.15 397.528 431.568H397.584L427.661 257.98L418.67 431.732H418.943C419.487 433.204 428.641 434.404 439.812 434.404C451.363 434.404 460.736 433.15 460.736 431.568C461.825 422.242 466.675 372.233 468.146 359.744C473.54 314.643 480.46 257.052 480.46 257.052C480.46 257.052 481.659 244.564 479.861 234.202C479.153 230.166 478.225 226.512 477.191 223.185C475.719 215.551 470.161 206.661 466.184 201.37V185.665V185.61C466.184 182.883 452.344 181.629 435.235 182.719C418.125 183.865 404.285 186.973 404.285 189.646C404.285 189.81 404.339 189.918 404.395 190.082L403.25 203.771C383.198 214.187 378.403 242.982 378.349 243.036L355.518 431.568L355.681 431.623Z" fill="#FCC670"/>
<path d="M420.143 250.451L387.504 428.075" stroke="#D8912B" stroke-width="1.31491" stroke-miterlimit="10" stroke-linecap="round" stroke-linejoin="round"/>
<path d="M407.608 202.787C407.608 202.787 400.797 221.766 383.088 229.128" stroke="#D8912B" stroke-width="1.31491" stroke-miterlimit="10" stroke-linecap="round" stroke-linejoin="round"/>
<path d="M428.64 184.027V198.37L427.223 248.217C427.223 248.217 412.947 242 417.415 220.566C421.23 202.406 420.248 199.788 420.248 199.788" stroke="#D8912B" stroke-width="1.31491" stroke-miterlimit="10" stroke-linecap="round" stroke-linejoin="round"/>
<path d="M446.896 197.66C446.896 197.66 446.896 223.074 471.635 231.091" stroke="#D8912B" stroke-width="1.31491" stroke-miterlimit="10" stroke-linecap="round" stroke-linejoin="round"/>
<path d="M457.74 183.046V197.826C461.718 203.116 467.33 212.005 468.746 219.64C469.782 222.913 470.708 226.62 471.416 230.657C473.16 241.019 472.017 253.508 472.017 253.508C472.017 253.508 465.096 311.097 459.702 356.199C458.012 370.487 452.891 424.315 451.746 433.913" stroke="#D8912B" stroke-width="1.31491" stroke-miterlimit="10" stroke-linecap="round" stroke-linejoin="round"/>
<path d="M466.456 201.044V200.989C466.456 198.208 452.234 196.898 434.689 198.044C417.144 199.189 402.922 202.407 402.922 205.189" stroke="#D8912B" stroke-width="1.31491" stroke-miterlimit="10" stroke-linecap="round" stroke-linejoin="round"/>
<path fill-rule="evenodd" clip-rule="evenodd" d="M427.386 248.762L418.505 248.434C418.505 248.434 417.85 252.906 419.758 259.124C421.447 264.632 425.588 269.703 425.588 269.703L427.603 257.978L427.386 248.762Z" fill="#D8912B"/>
<path fill-rule="evenodd" clip-rule="evenodd" d="M220.897 295.194C211.984 291.306 204.1 289.533 203.3 291.248C202.443 292.964 208.956 297.538 217.869 301.427C226.782 305.315 234.609 307.259 235.466 305.544C236.323 303.828 229.81 299.082 220.897 295.194Z" fill="#D8912B"/>
<path fill-rule="evenodd" clip-rule="evenodd" d="M232.611 305.373C232.554 305.487 232.44 305.544 232.326 305.659L219.871 332.82C218.214 338.824 212.501 343.113 205.931 342.656C199.418 342.198 194.104 336.937 193.533 330.419C193.305 328.074 193.762 325.844 194.619 323.843C195.076 322.813 195.533 321.727 195.99 320.64L206.216 293.993C206.216 293.879 206.216 293.765 206.274 293.708C206.959 292.278 213.415 293.765 220.728 296.967C227.927 300.112 233.297 304 232.611 305.373Z" fill="#DE7C62"/>
<path fill-rule="evenodd" clip-rule="evenodd" d="M237.011 366.1L219.643 383.14L196.048 337.108C194.448 334.878 193.477 332.133 193.477 329.217C193.477 321.783 199.533 315.722 206.96 315.722C212.787 315.722 217.701 319.382 219.586 324.585L219.7 324.528L237.011 366.1Z" fill="#DE7C62"/>
<path fill-rule="evenodd" clip-rule="evenodd" d="M249.867 275.924L250.667 276.438L235.584 305.43C235.184 303.428 229.071 299.197 220.958 295.594C212.96 292.106 205.361 290.276 203.361 291.191L219.987 256.482C222.901 250.478 229.071 246.303 236.155 246.303C246.096 246.303 254.095 254.366 254.095 264.258C254.095 268.776 252.495 272.779 249.867 275.924Z" fill="#FCC670"/>
<path fill-rule="evenodd" clip-rule="evenodd" d="M254.322 208.906L274.661 209.421L283.745 256.882L249.809 253.966L254.322 208.906Z" fill="#DE7C62"/>
<path fill-rule="evenodd" clip-rule="evenodd" d="M299.741 204.846C299.741 204.674 299.569 206.447 299.455 207.533C297.855 223.887 294.142 227.661 289.514 227.433C279.516 226.861 264.719 218.569 260.719 206.961C256.32 194.267 256.72 185.347 263.062 191.351C263.062 191.351 268.375 164.875 292.713 174.882C292.713 174.882 296.484 179.228 297.798 183.402C299.969 190.264 299.112 195.353 299.112 195.353C299.112 195.353 310.024 200.957 299.741 204.846Z" fill="#DE7C62"/>
<path d="M272.201 197.012C269.859 196.726 267.116 202.959 273.058 203.931" stroke="black" stroke-width="1.14364" stroke-miterlimit="10" stroke-linecap="round" stroke-linejoin="round"/>
<path d="M268.375 195.239C268.375 195.239 273.06 196.326 275.174 200.386" stroke="black" stroke-width="1.14364" stroke-miterlimit="10" stroke-linecap="round" stroke-linejoin="round"/>
<path d="M293.916 192.323L297.058 190.608" stroke="black" stroke-width="1.14364" stroke-miterlimit="10" stroke-linecap="round" stroke-linejoin="round"/>
<path d="M297.456 185.29C297.456 185.29 291.914 184.375 288.715 191.065" stroke="black" stroke-width="1.14364" stroke-miterlimit="10" stroke-linecap="round" stroke-linejoin="round"/>
<path fill-rule="evenodd" clip-rule="evenodd" d="M294.542 191.351C293.685 191.179 292.885 192.266 292.714 193.695C292.599 195.125 293.171 196.44 294.028 196.554C294.885 196.726 295.685 195.64 295.856 194.21C296.027 192.78 295.399 191.522 294.542 191.351Z" fill="black"/>
<path d="M294.541 208.448C294.541 208.448 296.255 210.965 298.883 211.136" stroke="black" stroke-width="1.14364" stroke-miterlimit="10" stroke-linecap="round" stroke-linejoin="round"/>
<path fill-rule="evenodd" clip-rule="evenodd" d="M297.97 183.974L292.942 175.912C293.228 177.513 288.715 192.323 275.917 195.926C275.86 195.811 275.631 195.582 275.517 195.468C275.46 195.411 275.46 195.411 275.517 195.468C273.403 193.352 269.404 191.008 266.49 193.295C261.12 197.527 263.234 205.361 269.69 206.79C270.604 206.905 271.175 206.905 271.175 206.905C311.567 233.266 267.119 233.037 265.119 233.094C269.061 229.148 272.089 218.055 266.776 208.163C268.604 216.625 263.405 227.376 258.377 232.122C248.436 234.581 232.611 231.093 223.527 227.49C211.015 206.104 232.954 204.903 234.896 190.608C233.354 185.461 233.639 179.743 237.696 174.082C233.925 173.396 230.154 172.081 226.898 169.793C218.214 163.732 224.612 150.18 236.896 154.583L232.439 145.491C244.266 141.717 243.866 146.92 241.752 151.609C245.066 148.293 247.979 146.406 251.064 147.149C256.778 148.521 258.663 154.812 259.12 160.93C271.232 158.871 282.773 163.732 287.8 168.478C296.77 168.249 299.341 170.765 300.027 172.652C301.284 174.539 300.998 177.97 297.97 183.974Z" fill="#4F2827"/>
<path fill-rule="evenodd" clip-rule="evenodd" d="M260.376 164.418C255.52 178.085 239.638 176.426 239.638 176.426L233.867 173.11C233.867 173.11 252.664 171.852 259.519 159.615C259.577 159.557 260.091 161.673 260.376 164.418Z" fill="#7581F0"/>
<path fill-rule="evenodd" clip-rule="evenodd" d="M327.223 267.747C327.223 272.092 325.68 276.038 323.166 279.126C324.766 285.073 324.138 290.448 324.138 290.448C324.138 290.448 318.996 312.12 314.197 331.448C312.254 339.224 305.741 340.254 305.741 340.254L241.81 332.248C241.81 332.248 234.497 329.103 235.126 321.498C236.326 306.402 231.584 285.302 230.67 281.47C223.414 279.126 218.215 272.378 218.215 264.373C218.215 256.31 223.471 249.563 230.727 247.218C250.323 239.041 286.202 236.811 317.053 251.564C317.11 251.564 317.11 251.621 317.168 251.621C323.109 254.538 327.223 260.656 327.223 267.747Z" fill="#FCC670"/>
<path fill-rule="evenodd" clip-rule="evenodd" d="M294.199 242.586C286.086 241.614 270.832 263.686 262.262 284.1C252.035 308.46 243.637 330.59 243.637 330.59L256.434 332.305C256.434 332.305 265.69 310.176 275.916 285.816C283.172 268.433 293.684 251.564 301.683 247.275C303.111 246.532 309.11 248.647 310.31 248.876C309.739 246.703 308.025 244.244 294.199 242.586Z" fill="#2C7A6E"/>
<path fill-rule="evenodd" clip-rule="evenodd" d="M232.67 244.416C232.67 244.416 220.957 253.794 238.383 280.555C254.551 305.429 277.061 332.991 277.061 332.991L294.943 335.85C294.943 335.85 266.663 302.227 250.438 277.353C237.926 258.14 240.439 247.961 242.896 243.73C245.638 243.215 247.467 242.815 247.467 242.815C247.467 242.815 246.781 240.299 241.239 241.785C236.44 242.986 232.67 244.416 232.67 244.416Z" fill="#2C7A6E"/>
<path d="M241.811 332.191C241.811 332.191 234.498 329.046 235.127 321.44C236.041 309.775 233.413 294.508 231.756 286.388" stroke="#D8912B" stroke-width="1.14364" stroke-miterlimit="10" stroke-linecap="round" stroke-linejoin="round"/>
<path fill-rule="evenodd" clip-rule="evenodd" d="M305.857 353.062C309.513 357.008 320.026 370.96 316.883 388.515C273.977 429.057 221.93 391.26 220.787 371.932C221.987 354.549 236.841 345.685 240.041 344.313L241.469 331.218V331.161C241.812 328.302 256.552 327.787 274.434 330.075C292.316 332.362 306.542 336.536 306.257 339.395C306.257 339.567 306.142 339.681 306.085 339.853L305.857 353.062Z" fill="#54B4A6"/>
<path fill-rule="evenodd" clip-rule="evenodd" d="M295.745 433.517C313.227 434.375 327.281 437.291 327.11 440.036C326.996 442.781 312.713 444.325 295.23 443.467C277.748 442.609 263.693 439.693 263.865 436.948C264.036 434.204 278.262 432.66 295.745 433.517Z" fill="#2C7A6E"/>
<path fill-rule="evenodd" clip-rule="evenodd" d="M355.219 685.805C354.076 687.235 355.276 688.035 349.791 690.78C340.936 697.299 319.226 703.475 301.458 700.387C293.802 699.071 288.146 702.731 276.262 703.76C268.949 704.389 264.436 701.588 263.35 700.101C260.894 689.236 268.835 672.367 268.835 672.367C268.835 672.367 275.063 670.08 281.861 677.171C287.86 679.973 293.059 677.685 292.945 672.253L327.453 683.06L354.705 681.173L355.219 685.805Z" fill="black"/>
<path fill-rule="evenodd" clip-rule="evenodd" d="M269.865 613.928C270.608 591.626 271.179 570.355 271.637 556.86C272.608 530.327 277.521 527.754 275.522 506.825C267.637 424.769 268.38 398.98 268.38 398.98C268.38 398.98 289.805 395.377 290.776 395.434C299.574 396.864 296.032 378.508 307.858 382.625C306.773 376.221 319.342 409.444 319.342 409.444C319.342 409.444 307.744 535.474 302.088 614.213C292.261 621.533 286.548 626.965 269.865 613.928Z" fill="#DE7C62"/>
<path fill-rule="evenodd" clip-rule="evenodd" d="M315.91 447.069L314.082 467.083C309.797 465.425 301.342 462.509 289.858 459.821C283.402 458.334 275.975 457.305 271.176 456.79C270.89 453.302 270.662 450.043 270.49 446.955L315.91 447.069Z" fill="#C2644C"/>
<path fill-rule="evenodd" clip-rule="evenodd" d="M297.629 676.142C297.629 676.142 296.715 677.571 295.172 679.458H270.091C264.207 672.367 269.92 668.022 267.635 666.192C268.549 650.467 269.292 631.825 269.863 613.87C271.748 615.128 278.433 616.1 286.317 616.1C293.458 616.1 299.514 615.357 302.085 614.27L297.629 676.142Z" fill="#DFD7DA"/>
<path d="M269.576 623.134C271.119 624.392 277.746 625.364 285.916 625.364C293.686 625.364 299.571 624.564 301.456 623.42" stroke="#54B4A6" stroke-width="1.14364" stroke-miterlimit="10" stroke-linecap="round" stroke-linejoin="round"/>
<path fill-rule="evenodd" clip-rule="evenodd" d="M355.048 680.945C353.906 682.375 355.106 683.175 349.621 685.92C340.765 692.439 319.055 698.615 301.287 695.527C293.631 694.212 287.975 697.871 276.092 698.9C268.779 699.529 264.266 696.728 263.18 695.241C260.723 684.376 267.579 665.906 267.579 665.906C267.579 665.906 274.835 665.22 281.691 672.311C287.69 675.113 297.231 670.824 298.431 664.763L327.282 678.201C327.282 678.201 332.481 679.001 343.336 677.629C352.078 676.428 355.048 680.945 355.048 680.945Z" fill="#54B4A6"/>
<path d="M310.428 670.366C311.685 671.624 312.256 672.996 312.37 675.055" stroke="black" stroke-width="1.14364" stroke-miterlimit="10" stroke-linecap="round" stroke-linejoin="round"/>
<path d="M300.771 666.42C300.771 666.42 305.513 667.792 305.913 675.112" stroke="black" stroke-width="1.14364" stroke-miterlimit="10" stroke-linecap="round" stroke-linejoin="round"/>
<path fill-rule="evenodd" clip-rule="evenodd" d="M266.949 446.155L266.607 448.099C266.549 448.213 266.607 448.385 266.492 448.385C278.033 448.671 292.487 453.989 314.369 450.043L322.596 448.499L317.511 380.624C317.511 380.624 295.116 373.076 282.489 379.252C271.12 384.856 263.293 398.751 263.293 398.751L266.949 446.155Z" fill="#54B4A6"/>
<path fill-rule="evenodd" clip-rule="evenodd" d="M260.951 450.043H261.18C261.065 450.214 261.008 450.386 261.008 450.557C261.18 453.188 276.434 455.761 295.116 456.276C313.798 456.79 328.31 455.304 328.139 452.616C327.967 449.871 328.081 445.468 327.91 440.093C328.024 439.293 326.767 438.435 324.482 437.634C325.51 438.092 326.025 438.606 325.967 439.064C325.682 441.122 315.112 442.438 301.172 442.323C299.572 442.323 297.916 442.266 296.202 442.209C295.745 442.209 295.23 442.152 294.716 442.152C277.805 441.58 264.322 439.178 264.665 436.834C264.722 436.319 264.836 435.69 266.093 435.29V435.004C263.694 435.576 263.294 435.919 262.722 437.291C261.922 441.237 260.951 450.043 260.951 450.043Z" fill="#8ED3C9"/>
<path d="M300.431 335.564L300.26 349.574C303.345 352.891 311.229 365.757 311.743 379.48C311.8 379.48 311.8 379.48 311.8 379.48L316.2 455.59" stroke="#39A08F" stroke-width="1.14364" stroke-miterlimit="10" stroke-linecap="round" stroke-linejoin="round"/>
<path d="M324.482 438.035C325.51 438.492 326.024 439.007 325.967 439.464C325.682 441.523 315.112 442.838 301.172 442.724C299.572 442.724 297.915 442.667 296.202 442.609C295.744 442.609 295.23 442.552 294.716 442.552C277.805 441.98 264.322 439.579 264.665 437.234C264.722 436.72 264.893 436.205 266.036 435.748" stroke="#4EB0A1" stroke-width="1.14364" stroke-miterlimit="10" stroke-linecap="round" stroke-linejoin="round"/>
<path fill-rule="evenodd" clip-rule="evenodd" d="M231.983 426.77C249.58 429.858 263.463 434.489 262.949 437.234C262.492 439.922 247.866 439.636 230.269 436.605C212.672 433.517 200.675 429.4 201.132 426.713C201.646 423.911 214.386 423.682 231.983 426.77Z" fill="#2C7A6E"/>
<path fill-rule="evenodd" clip-rule="evenodd" d="M226.157 684.204C225.242 685.863 223.357 689.637 217.701 692.21C210.788 695.412 204.732 697.242 196.905 695.412C189.078 693.582 186.85 700.616 175.709 700.959C164.911 701.302 159.998 699.129 158.741 697.299C158.684 695.526 158.684 693.811 158.798 692.153C172.852 683.404 226.214 680.316 226.214 680.316C226.214 680.316 226.157 681.974 226.157 684.204Z" fill="black"/>
<path fill-rule="evenodd" clip-rule="evenodd" d="M178.338 611.812C182.737 588.253 186.908 565.494 189.536 551.885C194.563 525.924 201.762 525.467 202.962 504.538C207.704 422.482 214.274 401.038 214.274 401.038C214.274 401.038 232.099 395.949 233.07 396.235C241.526 399.151 240.84 380.453 251.924 386.457C251.81 379.938 252.267 444.954 252.267 444.954C252.267 444.954 225.758 551.142 209.246 617.587C201.476 629.767 183.366 626.965 178.338 611.812Z" fill="#DE7C62"/>
<path fill-rule="evenodd" clip-rule="evenodd" d="M251.582 447.585L248.039 461.88C243.983 459.822 238.27 457.191 230.271 453.989C220.673 450.215 208.675 447.184 207.361 446.898C207.418 446.441 207.476 445.983 207.533 445.526L209.075 437.749L252.781 442.438C252.724 444.554 251.582 447.585 251.582 447.585Z" fill="#C2644C"/>
<path fill-rule="evenodd" clip-rule="evenodd" d="M168.511 661.846C171.596 647.493 175.252 627.708 178.395 611.239C179.652 612.726 185.993 614.785 193.706 616.157C201.076 617.472 207.418 617.758 209.36 617.015L195.649 672.081C195.649 672.081 192.449 676.598 188.336 679.743L172.853 676.942C162.112 665.62 167.254 668.25 168.511 661.846Z" fill="#DFD7DA"/>
<path d="M176.738 619.932C177.995 621.418 183.994 623.42 191.707 624.792C199.077 626.107 205.247 626.45 207.247 625.707" stroke="#54B4A6" stroke-width="1.14364" stroke-miterlimit="10" stroke-linecap="round" stroke-linejoin="round"/>
<path fill-rule="evenodd" clip-rule="evenodd" d="M226.557 680.202C225.643 681.86 223.358 685.634 217.702 688.207C210.789 691.409 204.733 693.239 196.906 691.409C189.079 689.58 186.851 696.613 175.71 696.956C164.912 697.299 159.998 695.126 158.742 693.297C157.885 674.712 168.74 660.817 168.74 660.817C168.74 660.817 176.167 658.473 182.051 668.365C187.308 673.454 196.62 668.136 198.848 659.673L207.932 669.451C207.932 669.451 210.446 669.223 213.931 669.337C222.672 669.68 225.472 677.4 226.557 680.202Z" fill="#54B4A6"/>
<path fill-rule="evenodd" clip-rule="evenodd" d="M205.762 435.977C205.648 436.091 205.59 436.205 205.533 436.377C205.248 438.493 216.845 442.896 231.414 446.212C246.04 449.529 258.095 450.501 258.38 448.442C258.38 448.385 258.38 448.271 258.38 448.214L266.95 403.611C266.95 403.611 268.836 384.913 264.379 378.337C245.697 350.889 221.759 365.928 221.759 365.928L204.162 435.233L205.762 435.977Z" fill="#54B4A6"/>
<path fill-rule="evenodd" clip-rule="evenodd" d="M196.734 439.293L196.962 439.35C196.848 439.522 196.734 439.693 196.734 439.865C196.562 442.495 211.36 447.012 229.813 449.872C248.267 452.731 262.836 453.131 263.007 450.443C263.179 447.699 263.864 443.296 264.378 437.978C264.607 437.177 263.464 436.205 261.293 435.119C262.264 435.69 262.721 436.262 262.55 436.72C262.036 438.721 251.352 438.664 237.583 436.834C235.984 436.605 234.327 436.377 232.67 436.091C232.213 436.033 231.699 435.919 231.242 435.862C214.559 433.117 201.476 429.057 202.104 426.77C202.219 426.255 203.018 425.455 204.275 425.226L204.332 425.054C201.876 425.283 200.905 425.34 200.219 426.598C198.905 430.372 196.734 439.293 196.734 439.293Z" fill="#8ED3C9"/>
<path d="M258.436 399.208L248.609 451.758" stroke="#39A08F" stroke-width="1.14364" stroke-miterlimit="10" stroke-linecap="round" stroke-linejoin="round"/>
<path fill-rule="evenodd" clip-rule="evenodd" d="M246.668 393.719L263.75 396.578L264.55 414.247C264.55 414.247 249.296 409.844 246.668 393.719Z" fill="#2C7A6E"/>
<path d="M261.464 435.29C262.435 435.862 262.664 436.262 262.55 436.777C262.035 438.778 251.352 438.721 237.583 436.891C235.983 436.663 234.326 436.434 232.669 436.148C232.212 436.091 231.698 435.977 231.241 435.919C214.559 433.175 201.475 429.115 202.104 426.827C202.218 426.313 203.018 425.512 204.275 425.283" stroke="#4EB0A1" stroke-width="1.14364" stroke-miterlimit="10" stroke-linecap="round" stroke-linejoin="round"/>
<path d="M239.639 345.057C239.981 342.14 255.007 341.626 273.232 343.97C291.457 346.315 305.969 350.546 305.626 353.52" stroke="#39A08F" stroke-width="1.14364" stroke-miterlimit="10" stroke-linecap="round" stroke-linejoin="round"/>
<path d="M225.584 359.352C228.155 357.637 235.011 356.836 244.381 356.95C241.81 367.987 238.953 383.14 238.953 383.14L224.442 390.745L217.357 384.512M302.313 365.413C294.257 363.012 283.574 360.782 271.804 359.181C270.662 368.387 269.576 384.455 269.576 384.455L285.63 396.864L301.799 390.402C301.799 390.402 302.827 375.935 302.313 365.413Z" stroke="#39A08F" stroke-width="1.14364" stroke-miterlimit="10" stroke-linecap="round" stroke-linejoin="round"/>
<path d="M378.865 231.721L361.725 274.78C360.754 277.238 362.982 277.296 360.411 276.724C356.697 275.923 358.183 272.778 359.04 270.377C359.097 270.205 356.754 262.6 356.812 262.485L374.922 229.892C375.494 228.805 376.808 228.405 377.893 228.977C378.865 229.491 379.264 230.692 378.865 231.721Z" fill="#DE7C62"/>
<path fill-rule="evenodd" clip-rule="evenodd" d="M387.892 264.716C387.32 266.031 386.635 266.946 385.949 267.804C385.264 268.661 384.578 269.405 383.721 270.205C383.207 270.72 382.521 270.892 381.836 270.777C381.607 271.749 381.436 272.664 381.264 273.579C381.264 273.636 381.207 273.751 381.207 273.808C381.436 274.951 381.607 276.152 381.55 277.353C380.979 289.19 374.18 291.363 368.638 289.819C360.068 287.417 360.297 285.702 356.412 283.529C355.955 280.269 355.669 272.15 355.041 264.659C354.698 260.77 356.983 256.768 357.44 254.595C357.669 253.565 357.84 253.851 357.84 252.822C357.84 252.307 357.84 251.793 357.84 251.221C357.84 250.706 357.783 250.134 357.726 249.734L357.669 249.391C357.555 248.133 358.469 246.989 359.726 246.875C360.754 246.761 361.725 247.39 362.068 248.305C362.411 249.105 362.582 249.677 362.754 250.306C362.925 250.935 363.096 251.621 363.211 252.25C363.496 253.565 363.611 254.938 363.668 256.31C363.725 257.682 363.668 259.055 363.439 260.484C363.382 260.77 363.382 261.056 363.325 261.285C363.953 259.741 364.639 258.311 365.439 256.825C365.953 255.853 366.524 254.88 367.153 253.908C367.838 252.936 368.581 251.964 369.781 250.878C370.409 250.363 371.152 249.791 372.409 249.505C372.98 249.334 373.723 249.277 374.409 249.391C375.094 249.505 375.723 249.734 376.18 250.02L376.522 250.249C376.694 250.363 376.808 250.477 376.922 250.592C377.208 250.821 377.494 251.106 377.665 251.45C378.065 252.021 378.294 252.65 378.408 253.222C378.636 253.222 378.865 253.222 379.036 253.279C379.722 253.394 380.35 253.622 380.807 253.908L381.15 254.137C381.322 254.251 381.436 254.366 381.55 254.48C381.836 254.709 382.121 254.995 382.293 255.338C382.75 255.967 382.978 256.768 383.035 257.397C383.035 257.568 383.035 257.74 383.035 257.911C383.378 257.911 383.721 257.911 384.007 257.968C384.692 258.083 385.321 258.311 385.778 258.597L386.121 258.826C386.292 258.94 386.406 259.055 386.521 259.169C386.806 259.398 387.092 259.684 387.263 260.027C387.72 260.656 387.949 261.456 388.006 262.085C388.463 263.229 388.177 264.03 387.892 264.716ZM382.578 262.829C382.578 262.886 382.578 263 382.636 263.058C382.636 263 382.636 263 382.636 262.943C382.693 262.714 382.578 262.543 382.578 262.829Z" fill="#DE7C62"/>
<path d="M383.778 264.601C383.206 266.088 381.778 270.548 381.264 275.237M376.465 263.401C376.979 262.543 378.007 260.942 378.522 260.313C385.549 251.507 393.719 263.229 382.292 270.72" stroke="black" stroke-width="1.14364" stroke-miterlimit="10" stroke-linecap="round" stroke-linejoin="round"/>
<path d="M371.152 260.084C371.495 259.513 372.638 257.854 372.923 257.397C377.437 251.05 382.579 253.451 382.922 258.083" stroke="black" stroke-width="1.14364" stroke-miterlimit="10" stroke-linecap="round" stroke-linejoin="round"/>
<path d="M368.183 242.586L358.299 259.855" stroke="black" stroke-width="1.14364" stroke-miterlimit="10" stroke-linecap="round" stroke-linejoin="round"/>
<path d="M366.012 256.767C366.583 255.852 367.84 253.965 368.24 253.451C372.296 247.961 376.867 249.562 377.838 253.336" stroke="black" stroke-width="1.14364" stroke-miterlimit="10" stroke-linecap="round" stroke-linejoin="round"/>
<path fill-rule="evenodd" clip-rule="evenodd" d="M357.727 335.221L357.669 335.164C355.727 340.196 350.871 343.799 345.1 343.799C337.673 343.799 331.617 337.737 331.617 330.304C331.617 327.502 332.474 324.929 333.902 322.813L359.84 274.951L378.523 280.784L357.727 335.221Z" fill="#DE7C62"/>
<path fill-rule="evenodd" clip-rule="evenodd" d="M358.53 330.361C358.53 337.794 352.474 343.856 345.047 343.856C339.391 343.856 334.592 340.368 332.592 335.45L301.684 279.64L324.365 257.796L355.273 321.669C357.33 323.956 358.53 326.987 358.53 330.361Z" fill="#DE7C62"/>
<path fill-rule="evenodd" clip-rule="evenodd" d="M312.365 298.796C315.85 290.105 334.875 282.957 334.875 282.957C334.875 282.957 335.675 283.128 336.875 283.471L343.274 296.738C334.818 304 321.906 306.058 316.65 306.573L312.365 298.796Z" fill="#C2644C"/>
<path fill-rule="evenodd" clip-rule="evenodd" d="M330.248 298.796C322.021 303.714 314.594 306.63 313.337 305.143V305.086L294.826 278.496C292.598 275.523 291.227 271.749 291.227 267.746C291.227 257.797 299.282 249.791 309.166 249.791C315.279 249.791 320.707 252.879 323.906 257.511L323.963 257.453L343.331 286.674L343.217 286.731C343.274 286.788 343.331 286.788 343.331 286.845C344.474 288.503 338.589 293.821 330.248 298.796Z" fill="#FCC670"/>
<path d="M313.28 305.2C313.28 305.2 308.081 297.595 303.168 290.505" stroke="#D8912B" stroke-width="1.14364" stroke-miterlimit="10" stroke-linecap="round" stroke-linejoin="round"/>
<path d="M341.275 294.279L353.045 317.838" stroke="black" stroke-width="1.14364" stroke-miterlimit="10" stroke-linecap="round" stroke-linejoin="round"/>
<defs>
<filter id="filter0_d_1922_2450" x="0" y="0" width="571" height="522" filterUnits="userSpaceOnUse" color-interpolation-filters="sRGB">
<feFlood flood-opacity="0" result="BackgroundImageFix"/>
<feColorMatrix in="SourceAlpha" type="matrix" values="0 0 0 0 0 0 0 0 0 0 0 0 0 0 0 0 0 0 127 0" result="hardAlpha"/>
<feOffset/>
<feGaussianBlur stdDeviation="17.5"/>
<feComposite in2="hardAlpha" operator="out"/>
<feColorMatrix type="matrix" values="0 0 0 0 0.0352941 0 0 0 0 0 0 0 0 0 0 0 0 0 0.25 0"/>
<feBlend mode="normal" in2="BackgroundImageFix" result="effect1_dropShadow_1922_2450"/>
<feBlend mode="normal" in="SourceGraphic" in2="effect1_dropShadow_1922_2450" result="shape"/>
</filter>
</defs>
</svg>
