<svg width="204" height="421" viewBox="0 0 204 421" fill="none" xmlns="http://www.w3.org/2000/svg">
<path fill-rule="evenodd" clip-rule="evenodd" d="M52.636 111.39C42.8636 113.106 36.336 122.421 38.0501 132.202C39.7653 141.983 49.0721 148.517 58.8444 146.8C68.6168 145.085 75.1455 135.77 73.4303 125.989C71.7162 116.208 62.4095 109.674 52.636 111.39Z" fill="#7581F1"/>
<path fill-rule="evenodd" clip-rule="evenodd" d="M73.4188 132.572C75.5551 124.542 79.31 86.635 78.7468 82.6262C77.6426 74.4652 70.0648 68.7479 61.8198 69.8692C53.5749 70.9903 47.7569 78.5007 48.8611 86.6615C49.6609 92.8223 37.5283 116.191 37.7702 128.471C38.117 146.148 72.2552 136.838 73.4188 132.572Z" fill="#54B4A6"/>
<path fill-rule="evenodd" clip-rule="evenodd" d="M52.636 111.39C42.8636 113.106 36.336 122.421 38.0501 132.202C39.7653 141.983 49.0721 148.517 58.8444 146.8C68.6168 145.085 75.1455 135.77 73.4303 125.989C71.7162 116.208 62.4095 109.674 52.636 111.39Z" fill="#7581F1"/>
<path fill-rule="evenodd" clip-rule="evenodd" d="M24.4245 143.325C40.3915 171.093 68.0677 143.548 69.9494 140.183C74.4606 128.936 70.3493 132.085 69.908 125.581C69.9006 124.742 69.7956 123.874 69.6524 123.059C68.1207 114.319 60.0795 108.356 51.3805 109.278C47.3042 109.434 38.8364 110.08 33.203 112.796C32.8572 112.951 32.5114 113.105 32.2102 113.25C22.075 118.485 18.0464 132.216 24.4245 143.325Z" fill="#54B4A6"/>
<path fill-rule="evenodd" clip-rule="evenodd" d="M39.5894 126.611C45.9654 125.211 51.9043 128.229 52.8632 133.428C53.8125 138.582 49.3883 143.934 43.0113 145.334C36.6343 146.733 30.6953 143.716 29.7374 138.516C28.787 133.362 33.1668 128.019 39.5894 126.611Z" fill="#54B4A6"/>
<path d="M52.8548 133.383C53.8052 138.537 49.3799 143.889 43.0039 145.288C36.6269 146.689 30.6879 143.67 29.729 138.472" stroke="#39A08F" stroke-width="1.10848" stroke-miterlimit="10" stroke-linecap="round" stroke-linejoin="round"/>
<path fill-rule="evenodd" clip-rule="evenodd" d="M36.5929 118.035C42.9699 116.635 48.9089 119.653 49.8668 124.852C50.8172 130.007 46.3918 135.359 40.0158 136.758C33.6388 138.158 27.6999 135.14 26.742 129.941C25.8447 124.824 30.2244 119.481 36.5929 118.035Z" fill="#39A08F"/>
<path fill-rule="evenodd" clip-rule="evenodd" d="M27.9182 129.734C28.7805 134.391 34.1053 137.096 39.8565 135.853C45.6003 134.564 49.5611 129.761 48.7061 125.15C48.6351 124.743 48.5258 124.388 48.4176 124.033L45.91 102.816L29.6111 98.9573L27.9627 127.065C27.7813 127.891 27.7591 128.829 27.9182 129.734Z" fill="#DE7C62"/>
<path fill-rule="evenodd" clip-rule="evenodd" d="M35.2087 110.67C39.0114 113.736 43.6266 114.792 47.1662 113.704L45.8573 102.779L29.7471 98.9336C29.2051 102.762 31.1865 107.409 35.2087 110.67Z" fill="#C26147"/>
<path fill-rule="evenodd" clip-rule="evenodd" d="M37.7727 93.3692C37.7727 93.3692 52.1169 101.772 44.2654 106.466C38.6532 109.831 25.3284 103.256 22.5844 93.1887C20.3516 84.7125 37.7727 93.3692 37.7727 93.3692Z" fill="#DE7C62"/>
<path fill-rule="evenodd" clip-rule="evenodd" d="M32.3934 102.062C39.7909 105.151 44.1398 104.154 46.5943 102.463C46.3567 101.104 45.4615 99.7204 44.2565 98.4389C36.0222 98.0175 21.9804 97.7298 32.3934 102.062Z" fill="#C26147"/>
<path fill-rule="evenodd" clip-rule="evenodd" d="M30.1023 61.856L15.9014 64.1165C15.1769 64.2436 14.865 64.8585 15.2023 65.4527L32.8283 100.819C33.1284 101.467 33.993 101.874 34.6718 101.755L48.8727 99.4951C49.5961 99.3677 49.9079 98.753 49.5706 98.1585L31.9076 62.8457C31.653 62.1904 30.7801 61.7367 30.1023 61.856Z" fill="#2C1C28"/>
<path fill-rule="evenodd" clip-rule="evenodd" d="M41.9345 97.1659C47.167 96.9472 46.607 92.4246 44.2787 92.1804C47.5638 91.2302 47.359 87.6716 42.5413 86.7904C35.8927 85.578 28.2979 86.6779 28.2979 86.6779L28.5621 84.9983C28.5621 84.9983 31.4673 85.6077 33.2896 85.8944C37.4487 86.4709 38.8362 81.8867 31.1173 79.0882C26.7387 77.5233 23.4749 77.2568 22.1034 81.1382C20.6725 85.2171 18.9201 93.0393 28.1643 101.078C31.2287 107.121 39.5192 102.538 40.9576 101.165C42.9941 99.2202 42.66 98.1118 41.9345 97.1659Z" fill="#DE7C62"/>
<path fill-rule="evenodd" clip-rule="evenodd" d="M20.4667 76.0586C20.4667 76.0586 19.9979 78.7074 20.0604 80.6577C20.2323 86.6952 21.7014 91.6181 21.8743 92.3347L23.8228 82.7034L20.4667 76.0586Z" fill="#DE7C62"/>
<path d="M44.9733 92.1517C44.9733 92.1517 32.0856 90.727 24.8525 94.4247" stroke="#2C1C28" stroke-width="1.10848" stroke-miterlimit="10" stroke-linecap="round" stroke-linejoin="round"/>
<path d="M41.922 97.3542C38.3824 97.6494 31.9481 98.4531 28.4116 100.894" stroke="#2C1C28" stroke-width="1.10848" stroke-miterlimit="10" stroke-linecap="round" stroke-linejoin="round"/>
<path d="M33.0724 85.9793C33.2082 85.9559 24.4827 86.4613 22.3188 89.5485" stroke="#2C1C28" stroke-width="1.10848" stroke-miterlimit="10" stroke-linecap="round" stroke-linejoin="round"/>
<path d="M32.7845 85.9373L25.3403 84.4436" stroke="#2C1C28" stroke-width="1.10848" stroke-miterlimit="10" stroke-linecap="round" stroke-linejoin="round"/>
<path fill-rule="evenodd" clip-rule="evenodd" d="M56.2337 97.5944C56.0258 98.0053 55.8179 98.415 55.6026 98.7792C53.9754 102.006 53.7962 105.771 55.2144 109.07C56.5307 112.059 58.9195 115.841 63.4095 119.906C61.9415 127.493 61.4069 141.729 70.6171 145.853C74.1567 147.425 110.41 143.532 122.022 138.74C128.937 135.891 128.453 130.468 123.354 123.195C120.625 119.334 123.489 93.9052 124.832 83.2133C128.486 80.3787 130.454 75.6448 129.597 70.7545C128.358 63.6905 121.658 58.986 114.6 60.2255C114.057 60.3208 113.567 60.4535 113.078 60.5862C89.0078 64.8133 71.0594 68.5722 61.812 69.8229C53.5671 70.9441 47.748 78.4539 48.8522 86.6148C49.5131 91.4464 52.3483 95.383 56.2337 97.5944Z" fill="#54B4A6"/>
<path d="M74.6851 88.9863C74.1388 92.2562 73.8249 95.2522 73.948 97.2842C74.3415 103.516 77.6711 115.861 84.3568 139.099" stroke="#39A08F" stroke-width="1.10848" stroke-miterlimit="10" stroke-linecap="round" stroke-linejoin="round"/>
<path d="M70.6248 145.899C61.4602 141.767 61.9949 127.53 63.4184 119.952C58.9655 115.833 56.5311 112.06 55.2221 109.116C53.7594 105.825 53.9843 102.052 55.6104 98.8254C57.1325 95.8039 59.7323 90.6794 63.8405 82.7234" stroke="#39A08F" stroke-width="1.10848" stroke-miterlimit="10" stroke-linecap="round" stroke-linejoin="round"/>
<path fill-rule="evenodd" clip-rule="evenodd" d="M107.338 81.8514C115.318 93.0529 122.669 100.397 126.53 119.23C128.864 130.676 123.194 134.519 129.811 146.193C137.241 159.311 172.272 152.972 167.245 132.01C161.866 109.57 133.607 73.4105 127.531 65.8889C124.763 61.8008 119.736 59.463 114.579 60.3688C107.521 61.6083 102.821 68.315 104.059 75.3791C104.54 77.8618 105.723 80.0817 107.338 81.8514Z" fill="#54B4A6"/>
<path d="M112.499 89.207C122.295 102.516 124.63 108.128 126.667 118.412" stroke="#39A08F" stroke-width="1.10848" stroke-miterlimit="10" stroke-linecap="round" stroke-linejoin="round"/>
<path fill-rule="evenodd" clip-rule="evenodd" d="M166.213 156.184C166.213 156.184 166.239 156.599 166.279 156.826C166.573 158.501 160.975 160.885 153.781 162.148C146.587 163.412 140.512 163.078 140.219 161.402C140.195 161.266 135.514 148.132 135.514 148.132L135.56 148.124C135.551 148.079 135.551 148.079 135.544 148.034C135.25 146.358 140.847 143.975 148.041 142.712C155.235 141.448 161.31 141.782 161.604 143.457C161.619 143.548 161.59 143.646 161.606 143.737L166.213 156.184Z" fill="#54B4A6"/>
<path d="M135.567 148.17L135.613 148.162C135.604 148.117 135.605 148.117 135.597 148.072C135.303 146.396 140.902 144.013 148.094 142.75C155.288 141.486 161.363 141.82 161.657 143.495C161.673 143.586 161.643 143.684 161.659 143.775" stroke="#39A08F" stroke-width="1.10848" stroke-miterlimit="10" stroke-linecap="round" stroke-linejoin="round"/>
<path fill-rule="evenodd" clip-rule="evenodd" d="M152.874 156.706C146.358 157.851 141.242 160.056 141.512 161.595C141.782 163.135 147.298 163.473 153.858 162.321C160.373 161.177 165.489 158.972 165.22 157.433C164.949 155.892 159.433 155.555 152.874 156.706Z" fill="#39A08F"/>
<path fill-rule="evenodd" clip-rule="evenodd" d="M164.053 196.799C167.419 198.449 176.002 200.582 181.383 202.811L183.234 203.793C184.266 204.358 185.516 204.046 185.999 203.073C186.452 202.201 186.11 201.048 185.214 200.458C185.214 200.458 179.866 197.617 175.616 192.528L187.137 190.411L187.522 190.483C187.621 190.513 187.719 190.543 187.863 190.564C188.06 190.622 188.31 190.719 188.506 190.777C188.908 190.941 189.325 191.194 189.698 191.455C190.07 191.717 190.414 192.077 190.711 192.444L190.834 192.61L191.009 192.812L191.323 193.27L191.987 194.134L199.628 205.534C200.415 206.563 201.867 206.869 202.919 206.217C203.88 205.581 204.081 204.333 203.484 203.318L196.645 191.448L196.109 190.516L195.841 190.05L195.702 189.794L195.511 189.5C194.991 188.658 194.35 187.931 193.619 187.219C192.896 186.553 192.091 185.947 191.202 185.403C190.739 185.158 190.321 184.904 189.822 184.712C189.571 184.616 189.367 184.512 189.116 184.416L188.474 184.202L164.807 176.362C164.754 176.325 164.745 176.28 164.745 176.28C165.108 176.216 158.057 174.84 157.898 174.729C147.626 188.761 164.044 196.755 164.053 196.799Z" fill="#DE7C62"/>
<path fill-rule="evenodd" clip-rule="evenodd" d="M143.981 161.581L155.373 188.52L171.886 185.62L163.488 158.202L163.481 158.157C163.258 156.888 158.74 156.655 153.356 157.601C147.928 158.554 143.759 160.313 143.981 161.581Z" fill="#DE7C62"/>
<path fill-rule="evenodd" clip-rule="evenodd" d="M84.1609 58.7105C76.0189 61.214 69.8285 65.0084 70.4066 67.2407C70.939 69.481 77.9907 69.2696 86.1858 66.8033C94.3279 64.2999 100.518 60.5054 99.9401 58.2731C99.4002 55.9876 92.303 56.207 84.1609 58.7105Z" fill="black"/>
<path d="M88.8831 28.9875C90.0966 29.5213 90.6672 30.9148 90.208 32.0223C89.7497 33.1297 88.3411 33.6104 87.1743 33.0686" stroke="black" stroke-width="1.10848" stroke-miterlimit="10" stroke-linecap="round" stroke-linejoin="round"/>
<path fill-rule="evenodd" clip-rule="evenodd" d="M61.209 38.1888C56.2088 28.2848 71.9211 33.3201 78.3173 36.818C84.7134 40.3157 85.6129 51.0333 80.3273 60.7835C75.0407 70.5338 56.633 81.5152 53.6916 74.8433C45.8561 56.7551 68.0294 51.5542 61.209 38.1888Z" fill="#4F2827"/>
<path fill-rule="evenodd" clip-rule="evenodd" d="M67.627 49.5248L72.3949 65.8177C72.3737 65.9616 72.3896 66.0521 72.4129 66.1879C72.8828 68.066 78.7634 67.8267 85.6093 65.6442C92.4095 63.4697 97.57 60.1829 97.1012 58.3048C97.0693 58.1237 96.9462 57.9585 96.7797 57.8012L85.2561 34.8997L67.627 49.5248Z" fill="#DE7C62"/>
<path fill-rule="evenodd" clip-rule="evenodd" d="M70.5411 60.0283C84.5627 52.758 82.454 38.332 82.454 38.332L67.5796 49.2527L70.5411 60.0283Z" fill="#C26147"/>
<path fill-rule="evenodd" clip-rule="evenodd" d="M86.4181 36.4691C120.253 39.5355 82.1954 3.60348 71.811 4.49357C71.811 4.49357 56.5961 7.35237 54.0991 17.3131C53.7735 20.7775 54.2954 22.693 54.0323 28.107C53.5592 36.3119 57.1455 50.3852 66.9815 51.6918C72.7041 52.4138 82.3768 49.5948 86.4181 36.4691Z" fill="#DE7C62"/>
<path d="M72.4166 36.4072C72.4166 36.4072 69.3713 42.4497 63.4238 40.9738" stroke="#BD4040" stroke-width="1.10848" stroke-miterlimit="10" stroke-linecap="round" stroke-linejoin="round"/>
<path fill-rule="evenodd" clip-rule="evenodd" d="M71.1478 38.2171C71.1478 38.2171 69.632 36.7562 67.2072 37.5555C65.7095 38.052 65.5217 39.1118 65.5217 39.1118C65.5217 39.1118 62.8328 38.1371 63.0163 41.0456C64.8768 42.3523 69.876 40.5409 71.1478 38.2171Z" fill="#BD4040"/>
<path d="M61.4117 22.0498C61.4117 22.0498 58.2709 20.3609 54.4258 22.9032" stroke="#2C1C28" stroke-width="1.10848" stroke-miterlimit="10" stroke-linecap="round" stroke-linejoin="round"/>
<path d="M59.098 26.143L56.688 25.166" stroke="#2C1C28" stroke-width="1.10848" stroke-miterlimit="10" stroke-linecap="round" stroke-linejoin="round"/>
<path d="M72.4841 24.0259L69.8418 23.323" stroke="#2C1C28" stroke-width="1.10848" stroke-miterlimit="10" stroke-linecap="round" stroke-linejoin="round"/>
<path d="M75.9328 21.0861C74.4298 20.2298 70.2166 18.5425 66.2305 21.343" stroke="#2C1C28" stroke-width="1.10848" stroke-miterlimit="10" stroke-linecap="round" stroke-linejoin="round"/>
<path d="M63.2689 24.665C63.2689 24.665 64.5269 27.8515 62.0226 30.8585C59.5564 33.8122 61.3618 37.4626 65.2928 36.212" stroke="#2C1C28" stroke-width="1.10848" stroke-miterlimit="10" stroke-linecap="round" stroke-linejoin="round"/>
<path d="M86.0073 30.9395L90.6596 27.4153" stroke="#2C1C28" stroke-width="1.10848" stroke-miterlimit="10" stroke-linecap="round" stroke-linejoin="round"/>
<path fill-rule="evenodd" clip-rule="evenodd" d="M72.6409 23.8586C71.9387 23.842 71.4561 24.8136 71.5186 25.9695C71.6268 27.1174 72.2612 28.0795 72.956 28.0508C73.6581 28.0675 74.1408 27.0959 74.0782 25.9401C73.97 24.7921 73.3431 23.8753 72.6409 23.8586Z" fill="#2C1C28"/>
<path fill-rule="evenodd" clip-rule="evenodd" d="M58.7308 25.6477C58.0286 25.631 57.5459 26.6026 57.6085 27.7585C57.7167 28.9065 58.351 29.8686 59.0458 29.8399C59.748 29.8566 60.2306 28.885 60.168 27.7291C60.1129 26.6184 59.433 25.6643 58.7308 25.6477Z" fill="#2C1C28"/>
<path fill-rule="evenodd" clip-rule="evenodd" d="M118.322 60.1786C118.322 60.1786 111.084 61.45 105.293 62.467C96.3084 68.9458 98.6971 83.3697 105.411 86.0174L80.8897 90.3245C75.1247 83.7752 74.0099 77.95 75.2435 73.0187C70.429 79.6051 71.0835 85.4654 79.6975 90.4403C43.2555 86.3381 72.1898 64.6399 90.3737 56.6387C92.7115 55.3412 94.3587 54.6318 94.3587 54.6318C94.3587 54.6318 81.9844 47.8897 86.4426 35.8111C89.0647 36.9376 91.9467 34.7512 92.6531 33.4602C94.3184 30.4604 93.506 26.3556 90.7852 25.1998C88.0634 24.0439 85.4593 25.9482 84.0793 27.9177C84.1165 27.8644 84.1165 27.8644 84.0793 27.9177C84.0051 28.0241 83.8555 28.2371 83.8258 28.3356C84.37 19.4649 67.5046 17.4325 68.3829 8.87632C68.3829 8.87632 58.7579 9.3064 54.2244 16.9641C53.6548 13.9834 55.2353 6.2376 66.8724 1.86C80.4379 -3.22954 94.9687 2.24687 96.8674 16.8032C97.141 17.8288 97.0466 19.1523 98.2686 20.8047C101.785 25.6952 142.604 42.7982 118.322 60.1786ZM79.8492 90.5071C79.7962 90.47 79.7962 90.47 79.7421 90.4328C79.7962 90.47 79.8407 90.4615 79.8938 90.4997L79.8492 90.5071Z" fill="#4F2827"/>
<path fill-rule="evenodd" clip-rule="evenodd" d="M114.053 419.883C104.407 421.033 92.6021 418.872 89.9376 417.446C88.3306 416.619 85.9418 415.746 85.4825 411.562C85.3446 410.413 83.0016 408.574 81.9451 407.838C80.1535 406.596 83.0015 390.782 86.9516 386.782C90.0298 386.23 97.8845 400.023 102.983 403.286C115.752 406.367 117.912 410.642 117.912 410.642C119.473 413.171 119.611 419.24 114.053 419.883Z" fill="#2C1A28"/>
<path fill-rule="evenodd" clip-rule="evenodd" d="M114.053 417.033C104.407 418.183 92.6021 416.022 89.9376 414.597C88.3306 413.769 85.9418 412.895 85.4825 408.712C85.3446 407.563 83.0016 405.724 81.9451 404.988C80.1535 403.747 83.0015 387.932 86.9516 383.932C90.0298 383.38 97.8845 397.172 102.983 400.437C115.752 403.517 117.912 407.793 117.912 407.793C119.473 410.321 119.611 416.39 114.053 417.033Z" fill="#54B4A6"/>
<path fill-rule="evenodd" clip-rule="evenodd" d="M21.4044 420.344C32.612 420.527 36.1951 419.056 40.6045 416.987C45.4732 414.734 42.5339 409.723 47.0812 408.804C51.7207 407.884 52.2257 406.321 52.2257 406.321C53.3278 401.356 50.6176 401.954 47.6783 398.46C21.9549 414.964 20.2557 402.321 18.9234 406.367C18.9234 406.367 5.69409 407.655 0.504005 414.045C-0.368966 415.102 0.0903513 416.389 0.411749 417.539C-0.966123 417.401 5.8787 420.068 21.4044 420.344Z" fill="#2C1A28"/>
<path fill-rule="evenodd" clip-rule="evenodd" d="M21.4044 417.262C32.612 417.446 36.1951 415.975 40.6045 413.906C45.4732 411.653 42.5339 406.642 47.0812 405.723C51.7208 404.803 52.2257 403.24 52.2257 403.24C53.3278 398.275 51.9043 391.148 48.9184 387.701C23.196 404.206 20.2101 399.286 18.9234 403.332C18.9234 403.332 3.58117 404.803 0.366136 414.458C-0.966124 414.366 5.87873 416.987 21.4044 417.262Z" fill="#54B4A6"/>
<path fill-rule="evenodd" clip-rule="evenodd" d="M94.7148 250.927C95.4499 266.695 91.9124 264.305 89.9373 284.901C88.0546 304.625 86.3542 352.667 86.1707 379.609C86.5388 381.586 85.7114 385.539 85.7114 385.539C85.7114 385.539 88.6051 389.263 88.743 391.24C89.7082 405.078 91.2696 407.193 114.329 405.216C110.332 400.573 102.845 385.034 104.637 375.425C112.904 301.314 116.258 290.326 116.166 268.948C116.074 243.846 127.282 215.618 131.232 194.011C135.641 170.15 116.028 144.864 116.855 150.979C107.255 149.875 116.671 173.092 109.46 173.506C108.632 173.597 93.2446 172.586 93.2446 172.586C93.2446 172.586 91.8668 189.045 94.7148 250.927Z" fill="#DE7C62"/>
<path fill-rule="evenodd" clip-rule="evenodd" d="M35.4141 401.998C42.7172 390.091 46.6673 389.861 49.423 389.172C54.3384 361.265 61.9639 315.337 65.7305 296.671C69.8185 276.397 64.674 273.409 70.0476 258.099C91.0859 198.01 92.6472 180.402 92.6472 180.402C92.6472 180.402 81.0716 170.242 80.2909 170.104C73.217 169.046 79.2801 155.99 69.3592 156.266C71.3798 151.668 55.3026 167.024 51.3525 199.803C43.0386 268.673 28.6616 381.265 28.6616 381.265C28.6616 381.265 24.9862 389.907 19.6582 395.93C16.6723 399.286 13.871 403.378 11.4355 405.354C25.6757 409.079 32.8875 406.044 35.4141 401.998Z" fill="#DE7C62"/>
<path fill-rule="evenodd" clip-rule="evenodd" d="M86.6296 355.795C95.2193 356.116 102.936 352.99 107.484 350.646C107.944 346.738 108.403 343.106 108.816 339.658C102.064 337.267 89.3864 339.289 89.3864 339.289C89.3864 339.289 88.3755 340.301 87.0433 341.818C86.8598 346.553 86.7219 351.243 86.6296 355.795Z" fill="#C26147"/>
<path fill-rule="evenodd" clip-rule="evenodd" d="M29.9474 345.314C30.0853 346.601 37.8943 347.658 47.5861 347.658C57.3245 347.658 65.2248 346.601 65.2248 345.267H65.2714L90.6268 198.932L83.047 345.405H83.2771C83.7364 346.646 91.4531 347.658 100.87 347.658C110.608 347.658 118.509 346.601 118.509 345.267C119.427 337.406 123.515 295.248 124.755 284.719C129.303 246.699 135.137 198.15 135.137 198.15C135.137 198.15 136.147 187.622 134.632 178.887C134.035 175.484 133.253 172.405 132.381 169.6C131.14 163.164 126.455 155.67 123.102 151.21V137.97V137.923C123.102 135.625 111.435 134.567 97.0113 135.487C82.5877 136.453 70.9208 139.073 70.9208 141.326C70.9208 141.464 70.9664 141.555 71.0131 141.693L70.0479 153.233C53.1443 162.014 49.1018 186.289 49.0562 186.334L29.8096 345.267L29.9474 345.314Z" fill="#FCC670"/>
<path d="M84.288 192.585L56.7729 342.323" stroke="#D8912B" stroke-width="1.10848" stroke-miterlimit="10" stroke-linecap="round" stroke-linejoin="round"/>
<path d="M73.7234 152.405C73.7234 152.405 67.9818 168.404 53.0532 174.61" stroke="#D8912B" stroke-width="1.10848" stroke-miterlimit="10" stroke-linecap="round" stroke-linejoin="round"/>
<path d="M91.453 136.59V148.681L90.2585 190.702C90.2585 190.702 78.2237 185.46 81.9903 167.392C85.2064 152.083 84.379 149.876 84.379 149.876" stroke="#D8912B" stroke-width="1.10848" stroke-miterlimit="10" stroke-linecap="round" stroke-linejoin="round"/>
<path d="M106.841 148.082C106.841 148.082 106.841 169.506 127.696 176.265" stroke="#D8912B" stroke-width="1.10848" stroke-miterlimit="10" stroke-linecap="round" stroke-linejoin="round"/>
<path d="M115.982 135.763V148.222C119.335 152.681 124.066 160.175 125.261 166.611C126.134 169.37 126.914 172.496 127.511 175.898C128.982 184.634 128.017 195.162 128.017 195.162C128.017 195.162 122.183 243.71 117.636 281.731C116.212 293.776 111.894 339.153 110.929 347.244" stroke="#D8912B" stroke-width="1.10848" stroke-miterlimit="10" stroke-linecap="round" stroke-linejoin="round"/>
<path d="M123.332 150.935V150.888C123.332 148.544 111.343 147.44 96.5524 148.406C81.7618 149.371 69.7725 152.084 69.7725 154.429" stroke="#D8912B" stroke-width="1.10848" stroke-miterlimit="10" stroke-linecap="round" stroke-linejoin="round"/>
<path fill-rule="evenodd" clip-rule="evenodd" d="M90.3967 191.161L82.9102 190.885C82.9102 190.885 82.3586 194.655 83.9666 199.896C85.3901 204.54 88.881 208.815 88.881 208.815L90.5802 198.93L90.3967 191.161Z" fill="#D8912B"/>
</svg>
