<svg width="602" height="545" viewBox="0 0 602 545" fill="none" xmlns="http://www.w3.org/2000/svg">
<g filter="url(#filter0_d_1862_752)">
<ellipse cx="170.787" cy="170.787" rx="140.787" ry="140.787" fill="white"/>
<ellipse cx="510.285" cy="416.425" rx="60.881" ry="60.8811" fill="white"/>
<ellipse cx="507.751" cy="123.013" rx="31.2861" ry="31.2861" fill="white"/>
</g>
<path fill-rule="evenodd" clip-rule="evenodd" d="M120.535 104.804C120.535 104.804 122.445 143.596 118.546 159.794L107.043 159.387L120.535 104.804Z" fill="#2C1C28"/>
<path fill-rule="evenodd" clip-rule="evenodd" d="M164.687 173.359L159.726 184.387C159.629 184.455 154.774 194.751 154.76 194.828C154.42 195.56 158.106 196.894 162.961 197.767C167.815 198.64 172.015 198.732 172.36 198C172.422 197.883 176.714 186.593 176.573 186.443L181.059 173.596C182.51 172.272 183.926 170.895 185.308 169.474C185.894 168.994 186.433 168.548 187.025 168.072C189.086 166.356 191.152 164.639 193.174 162.917C197.229 159.43 201.273 155.982 205.294 152.447C205.915 152.015 206.05 151.036 205.55 150.323C205.027 149.518 203.936 149.324 203.131 149.843C200.944 151.326 198.723 152.767 196.492 154.241L199.13 146.782C199.406 145.953 199.033 145.012 198.228 144.615C197.34 144.202 196.307 144.605 195.905 145.449L191.006 156.176L189.372 149.241C189.188 148.417 188.378 147.811 187.486 147.898C186.506 148.014 185.852 148.858 185.934 149.789L187.005 159.377L181.544 161.399C181.554 161.361 181.593 161.365 181.598 161.326C182.811 159.707 183.809 158.092 184.794 156.346C185.162 155.701 185.066 154.847 184.499 154.29C183.834 153.586 182.703 153.591 182.001 154.256L181.947 154.328C180.681 155.56 179.295 156.773 177.936 157.825C177.253 158.368 176.545 158.829 175.841 159.246C175.507 159.479 175.148 159.624 174.818 159.813C174.459 159.959 174.236 160.041 173.683 160.318C171.67 161.293 169.712 162.65 168.034 164.561C166.35 166.472 165.08 169.125 164.799 172.078" fill="#CC7544"/>
<path fill-rule="evenodd" clip-rule="evenodd" d="M163.976 209.784C165.547 216.254 161.589 222.757 155.12 224.334C150.726 225.401 146.26 223.907 143.418 220.75L107.389 184.969C105.008 183.179 103.189 180.575 102.423 177.423C100.677 170.236 105.076 162.947 112.307 161.186C118.257 159.741 124.213 162.481 127.089 167.529L159.46 202.888C161.609 204.562 163.277 206.909 163.976 209.784Z" fill="#A8B3BC"/>
<path fill-rule="evenodd" clip-rule="evenodd" d="M174.461 197.796L174.582 197.821L163.83 216.933C161.551 221.701 156.318 224.557 150.857 223.573C144.305 222.394 139.96 216.138 141.138 209.586C141.527 207.443 142.448 205.561 143.772 204.004L150.635 193.504C150.609 193.417 150.625 193.335 150.639 193.252C151.07 192.243 156.813 192.36 163.447 193.553C170.081 194.746 175.106 196.531 174.625 197.573C174.611 197.655 174.557 197.729 174.461 197.796Z" fill="#A8B3BC"/>
<path d="M143.602 204.183L150.628 193.466" stroke="#1C4192" stroke-width="0.940296" stroke-miterlimit="10" stroke-linecap="round" stroke-linejoin="round"/>
<path d="M168.518 169.537C168.518 169.537 169.293 164.998 175.137 163.378C179.312 162.209 186.975 159.789 186.975 159.789" stroke="#2A1C28" stroke-width="0.940296" stroke-miterlimit="10" stroke-linecap="round" stroke-linejoin="round"/>
<path d="M190.932 156.453C192.858 152.248 195.957 145.497 195.957 145.497C196.37 144.61 197.392 144.251 198.28 144.663C199.094 145.017 199.507 145.968 199.182 146.831L193.934 161.588C193.857 161.782 193.74 161.972 193.624 162.161L193.513 162.306C192.223 163.659 190.138 165.289 188.178 166.647" stroke="#2A1C28" stroke-width="0.940296" stroke-miterlimit="10" stroke-linecap="round" stroke-linejoin="round"/>
<path d="M186.961 160.08L185.918 149.872C185.797 148.931 186.495 148.053 187.471 147.98C188.363 147.893 189.183 148.456 189.357 149.324L191.991 160.449C192.131 161.06 191.981 161.657 191.646 162.142L191.472 162.403C191.015 163.073 190.588 163.582 190.157 164.13C189.726 164.678 189.289 165.226 188.818 165.769C187.922 166.817 186.98 167.859 186.04 168.902" stroke="#2A1C28" stroke-width="0.940296" stroke-miterlimit="10" stroke-linecap="round" stroke-linejoin="round"/>
<path fill-rule="evenodd" clip-rule="evenodd" d="M106.718 362.438C101.965 374.175 90.714 394.543 93.1389 417.482C94.6908 431.886 101.141 491.925 97.0671 503.515C93.1874 525.242 112.101 515.058 114.914 515.688C134.846 520.004 152.014 519.374 152.014 519.374C152.014 519.374 131.596 510.935 123.644 498.714C118.212 490.325 119.861 477.376 120.006 470.246C120.249 458.025 123.401 387.462 123.401 387.462L128.493 358.801C128.493 358.801 112.344 348.423 106.718 362.438Z" fill="#CC7544"/>
<path fill-rule="evenodd" clip-rule="evenodd" d="M100.123 377.811C107.203 378.151 115.254 379.655 124.274 382.613L123.402 387.462C123.402 387.462 122.576 405.746 121.752 425.29C116.03 431.595 107.688 437.318 95.4669 441.245C94.497 430.819 93.5755 421.944 93.0906 417.482C91.5387 402.642 95.7094 388.869 100.123 377.811Z" fill="black"/>
<path fill-rule="evenodd" clip-rule="evenodd" d="M103.228 511.033C103.228 511.033 98.6692 510.644 106.962 513.214C135.915 522.138 142.316 516.9 142.316 516.9C142.316 516.9 147.796 520.635 156.187 521.459C165.74 522.429 163.267 527.133 163.267 527.133C163.267 527.133 151.773 528.783 141.249 528.976C124.47 529.316 117.05 525.872 106.962 526.26C99.2997 526.552 95.032 524.612 95.032 524.612C92.8496 516.076 103.228 511.033 103.228 511.033Z" fill="black"/>
<path fill-rule="evenodd" clip-rule="evenodd" d="M97.6349 500.849C97.6349 500.849 98.7019 506.523 106.995 509.288C135.996 518.938 141.961 514.283 141.961 514.283C141.961 514.283 147.295 517.726 154.619 518.599C164.173 519.763 163.251 524.661 163.251 524.661C163.251 524.661 151.757 526.019 141.234 525.971C124.454 525.921 117.034 522.333 106.946 522.43C99.2838 522.527 95.016 520.491 95.016 520.491C92.8337 511.906 97.6349 500.849 97.6349 500.849Z" fill="#783140"/>
<path fill-rule="evenodd" clip-rule="evenodd" d="M53.2676 496.096C52.9282 494.398 59.6693 517.482 64.9554 525.145C66.2649 526.988 64.0824 529.218 64.0824 529.218C64.0824 529.218 53.8982 525.339 42.0649 518.015C32.026 511.857 39.543 497.842 38.1852 481.74C37.6032 474.902 39.3975 471.459 39.3975 471.459L44.1503 469.131L53.2676 496.096Z" fill="black"/>
<path fill-rule="evenodd" clip-rule="evenodd" d="M56.5802 493.769C56.3378 492.023 60.7024 514.816 65.5036 522.479C66.6675 524.37 65.3097 526.891 65.3097 526.891C65.3097 526.891 55.3678 523.012 43.971 515.688C34.3201 509.53 42.6616 495.515 42.3221 479.413C42.1281 472.575 44.1649 469.132 44.1649 469.132L62.7393 460.063L56.5802 493.769Z" fill="#783140"/>
<path fill-rule="evenodd" clip-rule="evenodd" d="M112.393 380.14C74.3712 405.601 69.2305 437.948 62.5864 450.799C57.4942 460.644 55.2149 464.039 55.2149 463.99C55.2149 463.99 47.8433 474.466 47.6008 487.56C47.2614 503.952 49.5407 504.97 56.4757 509.384C60.113 511.711 61.277 512.294 61.277 512.294C61.277 512.294 60.7435 510.984 60.8405 502.4C67.5816 481.643 80.7242 456.328 95.8552 439.209C120.879 410.887 148.232 378.588 148.232 378.588C148.232 378.588 127.718 369.809 112.393 380.14Z" fill="#CC7544"/>
<path fill-rule="evenodd" clip-rule="evenodd" d="M98.8594 390.615C102.836 387.026 107.298 383.486 112.39 380.091C123.399 372.671 137.075 375.145 143.913 377.085C144.834 378.297 145.465 379.703 145.804 381.401C144.156 383.341 141.731 386.202 138.724 389.742C127.667 392.748 106.958 397.114 98.8594 390.615Z" fill="black"/>
<path fill-rule="evenodd" clip-rule="evenodd" d="M109.382 228.587C109.382 228.587 85.9579 257.686 81.3992 278.49C77.5195 296.144 95.3178 348.084 97.1122 364.233C98.9551 380.383 98.1791 383.826 98.1791 383.826C98.2276 383.826 103.417 386.93 123.543 386.396C149.246 385.717 152.399 383.099 152.399 383.099L138.819 275.92L141.924 247.84L109.382 228.587Z" fill="#FCC670"/>
<path d="M120.534 386.153C120.534 386.153 106.567 314.523 101.863 290.032C97.6434 268.112 113.308 244.542 112.968 244.736" stroke="#1C4192" stroke-width="1.10949" stroke-miterlimit="10" stroke-linecap="round" stroke-linejoin="round"/>
<path fill-rule="evenodd" clip-rule="evenodd" d="M64.9551 175.24C64.9551 167.675 70.7262 161.467 78.0977 160.691C78.2432 160.643 78.2917 160.594 78.2917 160.594L110.494 160.885C111.367 160.74 112.24 160.643 113.113 160.643C121.212 160.643 127.758 167.19 127.758 175.289C127.758 175.774 127.71 176.307 127.662 176.792C132.559 182.321 137.41 187.995 140.126 191.535C142.307 197.549 136.731 206.472 136.731 206.472L141.92 247.84C140.852 247.064 130.911 247.549 118.641 247.549C105.789 247.549 95.3626 248.228 95.1202 249.052C95.0717 249.052 95.0717 249.052 95.0717 249.052L95.9447 239.547C95.9447 239.547 82.8505 210.157 71.5507 187.51C67.6224 184.891 65.0036 180.381 64.9551 175.24Z" fill="#D3D8DC"/>
<path fill-rule="evenodd" clip-rule="evenodd" d="M123.452 178.926C121.755 172.767 119.087 169.76 119.087 169.76L88.6797 164.28L125.392 192.069C125.392 192.069 125.828 187.704 123.452 178.926Z" fill="#5A74C7"/>
<path fill-rule="evenodd" clip-rule="evenodd" d="M105.827 243.131C106.881 243.999 108.925 246.246 105.239 250.841C101.553 255.436 94.2277 261.14 92.4179 259.846C91.2833 259.032 93.4902 254.5 97.1764 249.905C100.903 245.284 104.773 242.262 105.827 243.131Z" fill="#2A1C28"/>
<path fill-rule="evenodd" clip-rule="evenodd" d="M94.5137 258.717C94.5137 258.717 110.159 266.12 114.655 269.053C118.692 271.653 124.673 273.233 128.621 272.148C131.495 271.378 140.828 266.307 140.828 266.307C140.828 266.307 150.861 266.088 147.67 258.588C131.197 256.893 124.733 255.639 124.733 255.639L106.778 244.12C102.156 247.415 94.5137 258.717 94.5137 258.717Z" fill="#CC7544"/>
<path fill-rule="evenodd" clip-rule="evenodd" d="M106.816 244.16C107.749 244.935 105.727 248.875 102.293 252.889C98.859 256.904 95.3226 259.466 94.3901 258.692C93.4303 257.876 95.4393 254.005 98.8731 249.99C102.307 245.975 105.856 243.345 106.816 244.16Z" fill="#CC7544"/>
<path fill-rule="evenodd" clip-rule="evenodd" d="M123.929 257.997L144.805 258.066L145.492 258.304C145.762 258.357 145.99 258.436 146.247 258.556C146.732 258.754 147.217 258.954 147.69 259.22C148.648 259.685 149.539 260.313 150.309 261.02C151.12 261.702 151.838 262.505 152.408 263.349L152.625 263.67L152.787 263.912L153.113 264.395L153.697 265.346L162.184 276.878C162.822 277.911 162.668 279.243 161.663 279.921C160.644 280.666 159.057 280.393 158.216 279.322L148.926 268.332L148.194 267.422L147.828 266.967L147.666 266.726L147.517 266.592C147.138 266.204 146.787 265.856 146.381 265.603C145.976 265.349 145.571 265.097 145.113 264.938C144.857 264.818 144.655 264.779 144.425 264.7C144.292 264.673 144.223 264.66 144.09 264.634L143.686 264.556L131.621 267.14C123.044 260.935 114.022 259.184 123.929 257.997Z" fill="#CC7544"/>
<path d="M167.572 276C166.743 277.027 165.117 277.13 163.982 276.316L152.495 266.926L151.549 266.219L151.091 265.886L150.847 265.698L150.658 265.592C150.253 265.339 149.741 265.1 149.282 264.941C148.797 264.742 148.326 264.65 147.815 264.587C147.572 264.574 147.33 264.562 147.087 264.55C146.98 264.563 146.846 264.538 146.738 264.551L146.308 264.608L123.909 270.951C113.976 267.591 113.041 257.105 117.844 257.198L145.731 257.859L146.498 257.868C146.767 257.92 147.05 257.906 147.319 257.957C147.871 257.995 148.41 258.099 148.948 258.204C149.985 258.44 151.063 258.824 152.021 259.29C153.005 259.794 153.911 260.354 154.722 261.035L155.019 261.303L155.222 261.517L155.668 261.918L156.533 262.68L167.351 272.813C168.311 273.629 168.467 274.986 167.572 276Z" fill="#CC7544"/>
<path fill-rule="evenodd" clip-rule="evenodd" d="M126.886 258.29L143.749 257.615L144.37 258.015C144.586 258.162 144.802 258.309 145.018 258.455C145.438 258.816 145.829 259.136 146.249 259.497C147.019 260.206 147.696 261.036 148.293 261.92C148.89 262.804 149.339 263.73 149.707 264.71L149.817 265.045L149.899 265.34L150.077 265.864L150.366 266.899L153.651 276.793C154.047 277.988 153.531 279.214 152.403 279.625C151.195 280.089 149.751 279.424 149.193 278.163L144.982 268.544L144.518 267.51L144.273 266.973L144.15 266.706L144.082 266.517C143.824 266.048 143.552 265.646 143.242 265.271C142.93 264.896 142.538 264.576 142.173 264.296C141.984 264.189 141.768 264.042 141.579 263.936C141.485 263.882 141.39 263.829 141.296 263.776L140.945 263.603L128.607 263.095C121.889 254.875 116.951 256.92 126.886 258.29Z" fill="#CC7544"/>
<path d="M133.018 257.139C133.018 257.139 141.939 257.612 145.796 259.338C148.884 260.706 150.44 266.912 150.44 266.912L153.724 276.806C154.122 278.001 153.604 279.228 152.477 279.638C151.268 280.102 149.825 279.437 149.267 278.176L145.055 268.557C145.055 268.557 144.577 267.241 144.713 267.442C143.114 265.42 142.674 266.243 130.358 271.748C126.87 273.341 123.973 272.43 123.973 272.43" stroke="#2A1C28" stroke-width="1.10949" stroke-miterlimit="10" stroke-linecap="round" stroke-linejoin="round"/>
<path d="M133.426 257.15C136.67 257.534 144.746 258.577 145.285 258.682C145.527 258.694 148.666 259.618 149.68 260.513C151.857 262.438 153.675 265.305 153.675 265.305L162.162 276.838C162.8 277.87 162.646 279.202 161.641 279.88C160.624 280.627 159.035 280.353 158.194 279.282C158.194 279.282 155.296 275.855 152.737 272.843" stroke="#2A1C28" stroke-width="1.10949" stroke-miterlimit="10" stroke-linecap="round" stroke-linejoin="round"/>
<path fill-rule="evenodd" clip-rule="evenodd" d="M57.4791 235.807C53.9248 230.542 55.2825 223.365 60.5886 219.784C65.8544 216.229 73.0315 217.587 76.6129 222.894C76.7215 223.054 76.8028 223.174 76.8842 223.295L105.675 243.064C104.407 242.574 100.725 245.527 97.2131 249.946C93.527 254.54 91.4136 258.951 92.4276 259.846L60.6847 238.909C59.4426 238.11 58.3604 237.026 57.4791 235.807Z" fill="#D3D8DC"/>
<path fill-rule="evenodd" clip-rule="evenodd" d="M55.9364 225.629H55.8879L65.3449 172.04H65.3934C66.8967 165.541 72.7164 160.692 79.6514 160.692C87.7503 160.692 94.2974 167.239 94.2974 175.338C94.2974 181.254 90.7572 186.395 85.665 188.674L78.8754 227.326C78.8754 233.68 73.7348 238.869 67.3332 238.869C60.9801 238.869 55.791 233.728 55.791 227.326C55.791 226.744 55.8394 226.163 55.9364 225.629Z" fill="#D3D8DC"/>
<path d="M78.8301 227.714C78.8301 227.714 83.1948 202.786 85.3286 190.662" stroke="#9D9797" stroke-width="1.10949" stroke-miterlimit="10" stroke-linecap="round" stroke-linejoin="round"/>
<path fill-rule="evenodd" clip-rule="evenodd" d="M87.1176 161.516C87.2631 161.177 87.5541 160.837 87.9905 160.595L101.958 132.37L118.883 142.117L113.015 165.396C117.38 167.578 120.047 169.906 119.562 171.458C118.835 173.834 110.978 173.592 102.055 170.828C93.1312 168.112 86.4871 163.941 87.1176 161.516Z" fill="#CC7544"/>
<path fill-rule="evenodd" clip-rule="evenodd" d="M118.54 143.475L114.564 159.382C102.924 153.126 101.275 135.473 101.275 135.473C108.889 136.88 114.612 139.935 118.54 143.475Z" fill="#995128"/>
<path fill-rule="evenodd" clip-rule="evenodd" d="M94.2109 124.464C97.1207 117.481 103.231 120.294 105.511 121.361C102.504 112.049 114.022 94.2799 129.444 104.513C132.499 110.187 132.572 121.361 133.008 125.434C135.385 126.307 137.47 126.21 137.907 127.083C138.489 128.296 138.004 130.526 134.463 131.69C134.221 131.787 134.027 131.836 133.784 131.884C133.832 133.194 133.882 134.552 133.832 135.861C132.814 138.334 132.184 139.838 131.116 142.311C129.031 155.939 120.011 159.043 102.116 139.595C95.6658 137.946 92.174 129.363 94.2109 124.464Z" fill="#CC7544"/>
<path fill-rule="evenodd" clip-rule="evenodd" d="M127.134 136.443L133.341 137.122C132.711 138.625 132.177 139.838 131.546 141.341C127.182 139.983 127.084 136.395 127.134 136.443Z" fill="#F8F7F8"/>
<path d="M104.572 131.69C101.274 130.769 102.002 126.986 104.281 126.549" stroke="#2C1C28" stroke-width="1.10949" stroke-miterlimit="10" stroke-linecap="round" stroke-linejoin="round"/>
<path d="M106.813 129.363C104.776 125.968 101.963 125.386 101.963 125.386" stroke="#2C1C28" stroke-width="1.10949" stroke-miterlimit="10" stroke-linecap="round" stroke-linejoin="round"/>
<path d="M122.705 118.062C126.342 115.153 130.125 115.589 130.125 115.589" stroke="#2C1C28" stroke-width="1.10949" stroke-miterlimit="10" stroke-linecap="round" stroke-linejoin="round"/>
<path d="M126.396 122.525L129.111 120.633" stroke="#2C1C28" stroke-width="1.10949" stroke-miterlimit="10" stroke-linecap="round" stroke-linejoin="round"/>
<path fill-rule="evenodd" clip-rule="evenodd" d="M128.189 123.931C128.141 125.143 127.51 126.113 126.782 126.113C126.054 126.064 125.521 125.046 125.569 123.834C125.618 122.621 126.249 121.651 126.976 121.651C127.704 121.651 128.237 122.67 128.189 123.931Z" fill="#2C1C28"/>
<path fill-rule="evenodd" clip-rule="evenodd" d="M129.436 104.513C129.436 104.513 125.425 92.3593 103.354 93.174C103.354 93.174 87.2579 92.6745 83.7757 109.678C83.7757 109.678 72.8566 144.605 71.8672 161.171C71.8672 161.171 87.578 166.496 106.06 164.663C106.06 164.663 106.817 143.795 104.392 134.59C104.392 134.59 98.7565 135.842 99.0959 126.913C99.1542 125.4 100.003 123.974 101.38 123.344C103.005 122.602 105.522 122.796 108.858 127.005C108.858 127.005 110.842 117.762 110.842 113.8C110.837 113.8 117.108 112.975 129.436 104.513Z" fill="#2C1C28"/>
<path fill-rule="evenodd" clip-rule="evenodd" d="M240.011 206.261C229.591 208.091 222.632 218.022 224.459 228.45C226.288 238.879 236.211 245.846 246.63 244.015C257.049 242.186 264.01 232.255 262.181 221.826C260.354 211.398 250.431 204.431 240.011 206.261Z" fill="#7581F1"/>
<path fill-rule="evenodd" clip-rule="evenodd" d="M262.17 228.846C264.448 220.284 268.451 179.868 267.851 175.594C266.673 166.893 258.594 160.797 249.803 161.992C241.013 163.188 234.81 171.195 235.987 179.896C236.84 186.465 223.904 211.38 224.162 224.473C224.532 243.32 260.929 233.394 262.17 228.846Z" fill="#54B4A6"/>
<path fill-rule="evenodd" clip-rule="evenodd" d="M240.011 206.261C229.591 208.091 222.632 218.022 224.459 228.45C226.288 238.879 236.211 245.846 246.63 244.015C257.049 242.186 264.01 232.255 262.181 221.826C260.354 211.398 250.431 204.431 240.011 206.261Z" fill="#7581F1"/>
<path fill-rule="evenodd" clip-rule="evenodd" d="M209.942 240.31C226.966 269.916 256.474 240.547 258.48 236.96C263.29 224.969 258.906 228.326 258.436 221.392C258.428 220.497 258.316 219.572 258.163 218.702C256.53 209.385 247.957 203.027 238.682 204.009C234.336 204.175 225.308 204.865 219.302 207.76C218.933 207.926 218.564 208.09 218.243 208.245C207.437 213.826 203.142 228.465 209.942 240.31Z" fill="#54B4A6"/>
<path fill-rule="evenodd" clip-rule="evenodd" d="M226.091 222.49C232.889 220.997 239.221 224.215 240.244 229.758C241.256 235.253 236.539 240.959 229.74 242.452C222.941 243.944 216.609 240.727 215.587 235.183C214.574 229.687 219.244 223.991 226.091 222.49Z" fill="#54B4A6"/>
<path d="M240.258 229.71C241.271 235.205 236.553 240.911 229.755 242.403C222.956 243.896 216.624 240.678 215.602 235.135" stroke="#39A08F" stroke-width="0.946394" stroke-miterlimit="10" stroke-linecap="round" stroke-linejoin="round"/>
<path fill-rule="evenodd" clip-rule="evenodd" d="M222.903 213.346C229.702 211.854 236.034 215.071 237.055 220.615C238.068 226.11 233.35 231.816 226.552 233.308C219.753 234.801 213.421 231.583 212.4 226.04C211.443 220.584 216.112 214.887 222.903 213.346Z" fill="#39A08F"/>
<path fill-rule="evenodd" clip-rule="evenodd" d="M213.645 225.82C214.564 230.785 220.242 233.669 226.373 232.343C232.497 230.969 236.72 225.848 235.809 220.932C235.733 220.498 235.616 220.12 235.501 219.742L232.828 197.12L215.45 193.006L213.692 222.974C213.499 223.855 213.475 224.854 213.645 225.82Z" fill="#DE7C62"/>
<path fill-rule="evenodd" clip-rule="evenodd" d="M221.421 205.494C225.475 208.763 230.396 209.889 234.17 208.729L232.774 197.08L215.598 192.98C215.02 197.062 217.132 202.016 221.421 205.494Z" fill="#C26147"/>
<path fill-rule="evenodd" clip-rule="evenodd" d="M224.17 187.048C224.17 187.048 239.463 196.007 231.092 201.011C225.109 204.599 210.902 197.589 207.976 186.855C205.596 177.818 224.17 187.048 224.17 187.048Z" fill="#DE7C62"/>
<path fill-rule="evenodd" clip-rule="evenodd" d="M218.421 196.316C226.308 199.609 230.945 198.546 233.562 196.743C233.308 195.294 232.354 193.819 231.069 192.453C222.29 192.004 207.319 191.697 218.421 196.316Z" fill="#C26147"/>
<path fill-rule="evenodd" clip-rule="evenodd" d="M215.99 153.449L200.849 155.859C200.077 155.994 199.744 156.65 200.104 157.284L218.896 194.991C219.216 195.681 220.138 196.116 220.862 195.989L236.003 193.579C236.774 193.443 237.107 192.788 236.747 192.154L217.915 154.504C217.643 153.805 216.713 153.322 215.99 153.449Z" fill="#2C1C28"/>
<path fill-rule="evenodd" clip-rule="evenodd" d="M228.596 191.096C234.175 190.863 233.578 186.041 231.095 185.78C234.598 184.767 234.38 180.973 229.243 180.034C222.154 178.741 214.057 179.914 214.057 179.914L214.339 178.123C214.339 178.123 217.436 178.773 219.379 179.078C223.813 179.693 225.293 174.805 217.063 171.822C212.395 170.153 208.915 169.869 207.452 174.007C205.927 178.356 204.058 186.696 213.914 195.267C217.182 201.71 226.021 196.823 227.555 195.36C229.726 193.286 229.37 192.104 228.596 191.096Z" fill="#DE7C62"/>
<path fill-rule="evenodd" clip-rule="evenodd" d="M205.709 168.591C205.709 168.591 205.209 171.416 205.276 173.495C205.459 179.932 207.025 185.181 207.21 185.945L209.287 175.676L205.709 168.591Z" fill="#DE7C62"/>
<path d="M231.833 185.75C231.833 185.75 218.093 184.231 210.381 188.173" stroke="#2C1C28" stroke-width="0.946394" stroke-miterlimit="10" stroke-linecap="round" stroke-linejoin="round"/>
<path d="M228.586 191.297C224.812 191.611 217.952 192.468 214.182 195.07" stroke="#2C1C28" stroke-width="0.946394" stroke-miterlimit="10" stroke-linecap="round" stroke-linejoin="round"/>
<path d="M219.163 179.169C219.307 179.144 210.004 179.683 207.697 182.974" stroke="#2C1C28" stroke-width="0.946394" stroke-miterlimit="10" stroke-linecap="round" stroke-linejoin="round"/>
<path d="M218.851 179.124L210.914 177.531" stroke="#2C1C28" stroke-width="0.946394" stroke-miterlimit="10" stroke-linecap="round" stroke-linejoin="round"/>
<path fill-rule="evenodd" clip-rule="evenodd" d="M243.855 191.553C243.634 191.991 243.412 192.428 243.182 192.816C241.447 196.256 241.256 200.271 242.768 203.787C244.172 206.975 246.719 211.007 251.506 215.341C249.941 223.43 249.371 238.609 259.191 243.005C262.964 244.681 301.617 240.531 313.997 235.421C321.371 232.384 320.854 226.602 315.418 218.848C312.508 214.731 315.561 187.619 316.994 176.22C320.889 173.197 322.988 168.15 322.074 162.936C320.753 155.405 313.609 150.389 306.084 151.71C305.505 151.812 304.983 151.953 304.461 152.095C278.798 156.602 259.662 160.61 249.803 161.943C241.012 163.138 234.808 171.145 235.985 179.846C236.69 184.998 239.713 189.195 243.855 191.553Z" fill="#54B4A6"/>
<path d="M263.513 182.375C262.931 185.861 262.596 189.055 262.728 191.222C263.147 197.866 266.697 211.028 273.825 235.805" stroke="#39A08F" stroke-width="0.946394" stroke-miterlimit="10" stroke-linecap="round" stroke-linejoin="round"/>
<path d="M259.181 243.054C249.41 238.649 249.98 223.47 251.498 215.39C246.75 210.998 244.154 206.975 242.759 203.837C241.199 200.328 241.439 196.305 243.173 192.865C244.796 189.644 247.568 184.18 251.948 175.697" stroke="#39A08F" stroke-width="0.946394" stroke-miterlimit="10" stroke-linecap="round" stroke-linejoin="round"/>
<path fill-rule="evenodd" clip-rule="evenodd" d="M298.333 174.768C306.841 186.71 314.678 194.541 318.794 214.62C321.282 226.823 315.238 230.921 322.292 243.367C330.215 257.354 367.564 250.596 362.204 228.246C356.469 204.321 326.34 165.768 319.862 157.749C316.91 153.39 311.551 150.897 306.052 151.863C298.527 153.185 293.516 160.335 294.836 167.867C295.349 170.514 296.61 172.881 298.333 174.768Z" fill="#54B4A6"/>
<path d="M303.83 182.61C314.274 196.8 316.764 202.783 318.936 213.748" stroke="#39A08F" stroke-width="0.946394" stroke-miterlimit="10" stroke-linecap="round" stroke-linejoin="round"/>
<path fill-rule="evenodd" clip-rule="evenodd" d="M361.116 254.02C361.116 254.02 361.143 254.463 361.186 254.705C361.499 256.491 355.53 259.032 347.86 260.379C340.19 261.726 333.714 261.371 333.402 259.583C333.375 259.439 328.385 245.436 328.385 245.436L328.433 245.427C328.424 245.379 328.424 245.379 328.416 245.33C328.103 243.544 334.071 241.003 341.741 239.656C349.411 238.309 355.888 238.664 356.201 240.451C356.218 240.548 356.186 240.652 356.203 240.749L361.116 254.02Z" fill="#54B4A6"/>
<path d="M328.439 245.476L328.488 245.467C328.479 245.419 328.479 245.419 328.471 245.371C328.158 243.585 334.127 241.043 341.796 239.696C349.466 238.349 355.942 238.705 356.256 240.491C356.273 240.588 356.241 240.693 356.258 240.79" stroke="#39A08F" stroke-width="0.946394" stroke-miterlimit="10" stroke-linecap="round" stroke-linejoin="round"/>
<path fill-rule="evenodd" clip-rule="evenodd" d="M346.885 254.577C339.938 255.797 334.483 258.148 334.771 259.789C335.059 261.431 340.94 261.792 347.935 260.564C354.881 259.343 360.335 256.992 360.048 255.351C359.759 253.709 353.879 253.349 346.885 254.577Z" fill="#39A08F"/>
<path fill-rule="evenodd" clip-rule="evenodd" d="M358.81 297.323C362.399 299.082 371.549 301.356 377.287 303.734L379.26 304.781C380.36 305.383 381.694 305.05 382.208 304.013C382.691 303.083 382.327 301.853 381.372 301.224C381.372 301.224 375.669 298.195 371.138 292.77L383.422 290.513L383.832 290.59C383.938 290.621 384.043 290.653 384.195 290.676C384.406 290.738 384.673 290.841 384.882 290.903C385.311 291.078 385.755 291.347 386.152 291.625C386.549 291.905 386.915 292.289 387.232 292.68L387.363 292.857L387.55 293.072L387.884 293.561L388.592 294.482L396.74 306.637C397.579 307.734 399.127 308.06 400.249 307.365C401.274 306.687 401.487 305.356 400.851 304.273L393.559 291.619L392.987 290.625L392.702 290.128L392.554 289.855L392.351 289.542C391.795 288.644 391.112 287.869 390.333 287.109C389.562 286.399 388.703 285.753 387.756 285.174C387.263 284.912 386.817 284.642 386.284 284.437C386.017 284.334 385.799 284.223 385.532 284.121L384.847 283.892L359.614 275.534C359.557 275.495 359.548 275.446 359.548 275.446C359.935 275.378 352.418 273.911 352.248 273.792C341.296 288.754 358.801 297.276 358.81 297.323Z" fill="#DE7C62"/>
<path fill-rule="evenodd" clip-rule="evenodd" d="M337.411 259.774L349.557 288.496L367.164 285.404L358.21 256.171L358.202 256.124C357.965 254.771 353.148 254.522 347.408 255.531C341.619 256.547 337.175 258.423 337.411 259.774Z" fill="#DE7C62"/>
<path fill-rule="evenodd" clip-rule="evenodd" d="M273.632 150.095C264.951 152.764 258.351 156.81 258.968 159.19C259.535 161.578 267.054 161.353 275.791 158.724C284.472 156.054 291.072 152.009 290.456 149.629C289.88 147.192 282.313 147.426 273.632 150.095Z" fill="black"/>
<path d="M278.648 118.405C279.942 118.974 280.55 120.46 280.061 121.64C279.572 122.821 278.07 123.334 276.826 122.756" stroke="black" stroke-width="0.946394" stroke-miterlimit="10" stroke-linecap="round" stroke-linejoin="round"/>
<path fill-rule="evenodd" clip-rule="evenodd" d="M249.15 128.215C243.819 117.656 260.571 123.024 267.391 126.754C274.21 130.483 275.169 141.91 269.534 152.305C263.897 162.701 244.271 174.409 241.135 167.296C232.781 148.01 256.422 142.465 249.15 128.215Z" fill="#4F2827"/>
<path fill-rule="evenodd" clip-rule="evenodd" d="M256.002 140.301L261.085 157.673C261.063 157.826 261.08 157.923 261.105 158.067C261.606 160.07 267.876 159.815 275.174 157.488C282.425 155.169 287.927 151.665 287.427 149.663C287.393 149.47 287.262 149.293 287.084 149.126L274.798 124.708L256.002 140.301Z" fill="#DE7C62"/>
<path fill-rule="evenodd" clip-rule="evenodd" d="M259.111 151.5C274.06 143.749 271.812 128.368 271.812 128.368L255.953 140.011L259.111 151.5Z" fill="#C26147"/>
<path fill-rule="evenodd" clip-rule="evenodd" d="M276.025 126.382C312.1 129.651 271.523 91.3407 260.452 92.2897C260.452 92.2897 244.23 95.3377 241.567 105.958C241.22 109.651 241.777 111.694 241.496 117.466C240.992 126.214 244.815 141.219 255.302 142.612C261.404 143.382 271.717 140.376 276.025 126.382Z" fill="#DE7C62"/>
<path d="M261.096 126.316C261.096 126.316 257.849 132.758 251.508 131.184" stroke="#BD4040" stroke-width="0.946394" stroke-miterlimit="10" stroke-linecap="round" stroke-linejoin="round"/>
<path fill-rule="evenodd" clip-rule="evenodd" d="M259.755 128.245C259.755 128.245 258.139 126.688 255.554 127.54C253.957 128.069 253.757 129.199 253.757 129.199C253.757 129.199 250.89 128.16 251.086 131.261C253.069 132.654 258.399 130.723 259.755 128.245Z" fill="#BD4040"/>
<path d="M249.374 111.008C249.374 111.008 246.025 109.207 241.926 111.918" stroke="#2C1C28" stroke-width="0.946394" stroke-miterlimit="10" stroke-linecap="round" stroke-linejoin="round"/>
<path d="M246.9 115.372L244.33 114.33" stroke="#2C1C28" stroke-width="0.946394" stroke-miterlimit="10" stroke-linecap="round" stroke-linejoin="round"/>
<path d="M261.171 113.115L258.354 112.365" stroke="#2C1C28" stroke-width="0.946394" stroke-miterlimit="10" stroke-linecap="round" stroke-linejoin="round"/>
<path d="M264.845 109.981C263.242 109.068 258.75 107.269 254.5 110.254" stroke="#2C1C28" stroke-width="0.946394" stroke-miterlimit="10" stroke-linecap="round" stroke-linejoin="round"/>
<path d="M251.36 113.796C251.36 113.796 252.701 117.194 250.031 120.4C247.401 123.549 249.326 127.441 253.517 126.108" stroke="#2C1C28" stroke-width="0.946394" stroke-miterlimit="10" stroke-linecap="round" stroke-linejoin="round"/>
<path d="M275.588 120.486L280.548 116.729" stroke="#2C1C28" stroke-width="0.946394" stroke-miterlimit="10" stroke-linecap="round" stroke-linejoin="round"/>
<path fill-rule="evenodd" clip-rule="evenodd" d="M261.347 112.936C260.598 112.919 260.084 113.955 260.15 115.187C260.266 116.411 260.942 117.437 261.683 117.406C262.431 117.424 262.946 116.388 262.879 115.156C262.764 113.932 262.096 112.954 261.347 112.936Z" fill="#2C1C28"/>
<path fill-rule="evenodd" clip-rule="evenodd" d="M246.509 114.844C245.76 114.826 245.246 115.862 245.312 117.095C245.428 118.318 246.104 119.344 246.845 119.314C247.594 119.331 248.108 118.296 248.041 117.063C247.983 115.879 247.258 114.862 246.509 114.844Z" fill="#2C1C28"/>
<path fill-rule="evenodd" clip-rule="evenodd" d="M310.038 151.66C310.038 151.66 302.321 153.016 296.146 154.1C286.567 161.008 289.114 176.386 296.273 179.209L270.128 183.802C263.981 176.819 262.793 170.608 264.108 165.35C258.975 172.373 259.673 178.621 268.857 183.925C230.003 179.551 260.852 156.417 280.24 147.886C282.732 146.503 284.488 145.747 284.488 145.747C284.488 145.747 271.295 138.558 276.048 125.68C278.844 126.881 281.917 124.55 282.67 123.174C284.445 119.975 283.579 115.599 280.678 114.366C277.776 113.134 275 115.164 273.529 117.264C273.568 117.207 273.568 117.207 273.529 117.264C273.45 117.378 273.29 117.605 273.258 117.71C273.839 108.252 255.857 106.085 256.793 96.9626C256.793 96.9626 246.531 97.4211 241.698 105.586C241.09 102.408 242.776 94.1492 255.183 89.4819C269.646 84.0555 285.139 89.8944 287.163 105.414C287.455 106.508 287.354 107.919 288.657 109.68C292.406 114.895 335.927 133.13 310.038 151.66ZM269.019 183.996C268.962 183.957 268.962 183.957 268.904 183.917C268.962 183.957 269.01 183.948 269.066 183.988L269.019 183.996Z" fill="#4F2827"/>
<path fill-rule="evenodd" clip-rule="evenodd" d="M305.487 535.172C295.202 536.398 282.616 534.095 279.775 532.575C278.062 531.693 275.515 530.761 275.025 526.3C274.878 525.076 272.38 523.115 271.254 522.331C269.344 521.006 272.38 504.145 276.592 499.88C279.874 499.292 288.248 513.998 293.684 517.477C307.299 520.762 309.601 525.32 309.601 525.32C311.266 528.016 311.413 534.486 305.487 535.172Z" fill="#2C1A28"/>
<path fill-rule="evenodd" clip-rule="evenodd" d="M305.487 532.134C295.202 533.36 282.616 531.056 279.775 529.536C278.062 528.654 275.515 527.722 275.025 523.262C274.878 522.036 272.38 520.076 271.254 519.292C269.344 517.968 272.38 501.106 276.592 496.842C279.874 496.254 288.248 510.958 293.684 514.439C307.299 517.723 309.601 522.282 309.601 522.282C311.266 524.977 311.413 531.448 305.487 532.134Z" fill="#54B4A6"/>
<path fill-rule="evenodd" clip-rule="evenodd" d="M206.714 535.664C218.663 535.86 222.483 534.291 227.185 532.085C232.375 529.683 229.242 524.34 234.09 523.36C239.037 522.38 239.575 520.713 239.575 520.713C240.75 515.419 237.86 516.057 234.727 512.332C207.301 529.928 205.489 516.448 204.068 520.762C204.068 520.762 189.964 522.135 184.43 528.948C183.499 530.075 183.989 531.447 184.332 532.673C182.863 532.526 190.16 535.369 206.714 535.664Z" fill="#2C1A28"/>
<path fill-rule="evenodd" clip-rule="evenodd" d="M206.708 532.378C218.657 532.575 222.477 531.006 227.178 528.8C232.369 526.398 229.235 521.055 234.084 520.075C239.03 519.095 239.569 517.429 239.569 517.429C240.744 512.135 239.226 504.536 236.042 500.861C208.618 518.458 205.434 513.212 204.062 517.526C204.062 517.526 187.705 519.095 184.277 529.388C182.856 529.29 190.154 532.085 206.708 532.378Z" fill="#54B4A6"/>
<path fill-rule="evenodd" clip-rule="evenodd" d="M284.881 355.033C285.664 371.846 281.893 369.298 279.787 391.257C277.779 412.286 275.967 463.508 275.771 492.233C276.163 494.34 275.281 498.556 275.281 498.556C275.281 498.556 278.366 502.526 278.513 504.634C279.543 519.387 281.207 521.642 305.792 519.535C301.531 514.585 293.549 498.017 295.459 487.772C304.274 408.756 307.85 397.041 307.751 374.248C307.654 347.485 319.603 317.388 323.815 294.35C328.516 268.911 307.604 241.951 308.486 248.47C298.25 247.293 308.289 272.047 300.601 272.488C299.719 272.586 283.313 271.508 283.313 271.508C283.313 271.508 281.844 289.056 284.881 355.033Z" fill="#DE7C62"/>
<path fill-rule="evenodd" clip-rule="evenodd" d="M221.648 516.104C229.434 503.408 233.646 503.163 236.584 502.428C241.824 472.675 249.955 423.707 253.971 403.806C258.329 382.189 252.844 379.003 258.573 362.68C281.004 298.615 282.669 279.841 282.669 279.841C282.669 279.841 270.327 269.008 269.495 268.861C261.953 267.734 268.417 253.813 257.839 254.108C259.994 249.205 242.852 265.577 238.641 300.526C229.777 373.954 214.448 493.998 214.448 493.998C214.448 493.998 210.53 503.213 204.849 509.634C201.665 513.212 198.679 517.574 196.082 519.682C211.265 523.653 218.954 520.418 221.648 516.104Z" fill="#DE7C62"/>
<path fill-rule="evenodd" clip-rule="evenodd" d="M276.262 466.843C285.42 467.186 293.647 463.852 298.497 461.353C298.987 457.186 299.476 453.314 299.916 449.637C292.718 447.088 279.201 449.245 279.201 449.245C279.201 449.245 278.123 450.323 276.703 451.941C276.507 456.989 276.36 461.99 276.262 466.843Z" fill="#C26147"/>
<path fill-rule="evenodd" clip-rule="evenodd" d="M215.833 455.668C215.98 457.04 224.305 458.168 234.639 458.168C245.022 458.168 253.445 457.04 253.445 455.618H253.494L280.528 299.598L272.447 455.766H272.692C273.182 457.089 281.409 458.168 291.449 458.168C301.831 458.168 310.255 457.04 310.255 455.618C311.235 447.237 315.593 402.288 316.915 391.063C321.764 350.526 327.984 298.763 327.984 298.763C327.984 298.763 329.062 287.539 327.445 278.226C326.809 274.598 325.975 271.314 325.046 268.324C323.722 261.462 318.727 253.472 315.152 248.717V234.601V234.551C315.152 232.1 302.713 230.973 287.335 231.953C271.957 232.983 259.518 235.777 259.518 238.179C259.518 238.326 259.566 238.423 259.616 238.57L258.587 250.874C240.565 260.236 236.255 286.118 236.206 286.166L215.686 455.618L215.833 455.668Z" fill="#FCC670"/>
<path d="M273.754 292.83L244.418 452.479" stroke="#D8912B" stroke-width="0.946394" stroke-miterlimit="10" stroke-linecap="round" stroke-linejoin="round"/>
<path d="M262.487 249.991C262.487 249.991 256.366 267.049 240.449 273.666" stroke="#D8912B" stroke-width="0.946394" stroke-miterlimit="10" stroke-linecap="round" stroke-linejoin="round"/>
<path d="M281.393 233.129V246.02L280.119 290.822C280.119 290.822 267.288 285.234 271.304 265.97C274.733 249.648 273.851 247.295 273.851 247.295" stroke="#D8912B" stroke-width="0.946394" stroke-miterlimit="10" stroke-linecap="round" stroke-linejoin="round"/>
<path d="M297.797 245.382C297.797 245.382 297.797 268.224 320.032 275.43" stroke="#D8912B" stroke-width="0.946394" stroke-miterlimit="10" stroke-linecap="round" stroke-linejoin="round"/>
<path d="M307.562 232.247V245.531C311.136 250.285 316.18 258.275 317.454 265.137C318.385 268.079 319.217 271.411 319.854 275.039C321.421 284.352 320.393 295.578 320.393 295.578C320.393 295.578 314.173 347.339 309.325 387.876C307.806 400.719 303.203 449.099 302.174 457.725" stroke="#D8912B" stroke-width="0.946394" stroke-miterlimit="10" stroke-linecap="round" stroke-linejoin="round"/>
<path d="M315.39 248.424V248.374C315.39 245.875 302.607 244.697 286.838 245.727C271.068 246.756 258.285 249.648 258.285 252.149" stroke="#D8912B" stroke-width="0.946394" stroke-miterlimit="10" stroke-linecap="round" stroke-linejoin="round"/>
<path fill-rule="evenodd" clip-rule="evenodd" d="M280.279 291.312L272.297 291.018C272.297 291.018 271.708 295.037 273.423 300.625C274.941 305.576 278.663 310.135 278.663 310.135L280.474 299.595L280.279 291.312Z" fill="#D8912B"/>
<path fill-rule="evenodd" clip-rule="evenodd" d="M411.928 200.142L399.804 235.336C398.364 241.799 392.929 246.913 385.962 247.517C377.415 248.308 369.843 241.938 369.054 233.384C368.729 229.99 369.565 226.736 371.19 223.993L385.033 188.473C386.659 182.755 391.675 178.384 397.946 177.826C406.075 177.083 413.275 183.126 413.972 191.262C414.25 194.47 413.461 197.539 411.928 200.142Z" fill="#D3D8DC"/>
<path fill-rule="evenodd" clip-rule="evenodd" d="M385.967 247.518C383.969 247.704 382.019 247.472 380.161 246.96C370.87 244.915 360.047 228.317 356.378 219.298C354.752 215.3 355.542 211.859 357.725 208.977L353.684 200.748L377.095 189.59L381.415 198.144C381.508 198.191 381.554 198.237 381.601 198.33C381.647 198.47 381.647 198.656 381.508 198.842C392.284 199.725 392.005 217.531 392.005 217.531C392.005 217.531 392.052 217.81 392.052 218.322C396.418 220.739 399.577 225.249 400.088 230.595C400.831 239.15 394.514 246.728 385.967 247.518Z" fill="#D3D8DC"/>
<path d="M381.314 198.841C381.825 199.864 377.18 202.7 370.677 205.815C364.174 208.93 358.461 210.65 357.996 209.581" stroke="#A8B3BC" stroke-width="0.769469" stroke-miterlimit="10" stroke-linecap="round" stroke-linejoin="round"/>
<path d="M377.133 189.822C377.133 189.822 380.013 196.377 381.453 199.12C386.423 199.91 390 203.397 391.161 209.906" stroke="#A8B3BC" stroke-width="0.769469" stroke-miterlimit="10" stroke-linecap="round" stroke-linejoin="round"/>
<path fill-rule="evenodd" clip-rule="evenodd" d="M364.466 193.214C370.969 190.099 376.683 188.379 377.147 189.448C377.658 190.471 372.781 193.865 366.231 196.98C359.728 200.095 354.015 201.815 353.55 200.746C353.086 199.723 357.963 196.376 364.466 193.214Z" fill="#A8B3BC"/>
<path fill-rule="evenodd" clip-rule="evenodd" d="M374.952 189.729C375.324 190.613 371.236 193.402 365.848 196.006C360.413 198.609 355.629 200.05 355.211 199.167C354.886 198.051 352.192 189.45 351.774 188.753C347.825 187.033 341.136 171.226 341.136 171.226C341.136 171.226 341.183 171.226 341.183 171.179C341.136 171.086 341.09 170.993 341.043 170.9C339.418 167.46 338.767 161.602 343.505 162.067C342.948 160.765 344.295 158.952 345.27 158.487C346.803 157.743 348.429 157.604 349.962 157.883C351.448 157.371 352.935 156.953 354.607 156.674C355.815 156.488 357.069 156.395 358.555 156.581C359.299 156.674 360.088 156.86 360.971 157.232C361.853 157.604 362.271 157.976 363.711 159.138C364.78 161.09 371.654 174.434 370.122 179.78C371.515 182.663 374.441 188.799 374.952 189.729Z" fill="#EB967C"/>
<path d="M351.311 134.543L365.525 167.413C366.501 169.691 365.386 172.387 363.017 173.457C360.648 174.479 357.907 173.503 356.932 171.178C356.839 170.992 356.792 170.806 356.746 170.621L346.945 136.124C346.62 134.915 347.316 133.66 348.571 133.288C349.685 133.009 350.847 133.52 351.311 134.543Z" fill="#EB967C"/>
<path d="M342.111 138.123L358.276 165.461C359.391 167.32 358.694 169.784 356.743 170.946C354.792 172.109 352.284 171.504 351.169 169.598C351.076 169.459 351.03 169.366 350.984 169.226L337.977 140.262C337.466 139.146 338.024 137.798 339.185 137.24C340.3 136.775 341.554 137.147 342.111 138.123Z" fill="#EB967C"/>
<path d="M343.262 161.927C343.308 160.671 343.68 159.556 344.748 158.951C350.554 155.557 355.803 168.621 353.156 170.202C351.716 171.085 350.601 170.62 349.718 169.691" stroke="black" stroke-width="0.769469" stroke-miterlimit="10" stroke-linecap="round" stroke-linejoin="round"/>
<path d="M342.715 173.827C342.715 173.827 337.42 164.762 341.275 162.53C346.803 159.322 351.773 171.735 349.265 173.223C345.735 175.362 344.062 168.899 344.062 168.899" stroke="black" stroke-width="0.769469" stroke-miterlimit="10" stroke-linecap="round" stroke-linejoin="round"/>
<path d="M360.83 180.523C357.95 180.802 355.581 178.338 354.42 175.548C352.097 169.876 356.696 164.762 356.696 164.762C356.696 164.762 355.302 163.367 349.45 162.856H349.31C348.195 162.995 347.127 162.112 346.941 160.903C346.755 159.88 347.22 158.951 348.01 158.625C350.146 157.695 352.19 156.998 354.606 156.626C356.138 156.394 360.598 155.789 363.71 159.09" fill="#EB967C"/>
<path d="M360.83 180.523C357.95 180.802 355.581 178.338 354.42 175.548C352.097 169.876 356.696 164.762 356.696 164.762C356.696 164.762 355.302 163.367 349.45 162.856H349.31C348.195 162.995 347.127 162.112 346.941 160.903C346.755 159.88 347.22 158.951 348.01 158.625C350.146 157.695 352.19 156.998 354.606 156.626C356.138 156.394 360.598 155.789 363.71 159.09" stroke="black" stroke-width="0.769469" stroke-miterlimit="10" stroke-linecap="round" stroke-linejoin="round"/>
<path fill-rule="evenodd" clip-rule="evenodd" d="M459.999 202.188C458.42 207.023 455.911 212.137 456.98 224.411C457.769 233.244 459.163 242.868 449.269 242.357C446.668 240.311 436.123 237.708 423.489 237.382C398.034 236.685 396.036 239.428 395.154 239.707C386.189 238.312 394.503 225.108 394.503 225.108L390.88 211.393C390.416 209.255 390.509 207.023 391.113 204.977C387.536 202.606 384.981 198.794 384.377 194.238C383.309 185.869 389.301 178.245 397.755 177.129C410.343 176.432 442.487 174.061 453.542 172.666C461.996 171.597 469.707 177.269 470.776 185.637C471.798 193.169 467.06 200.096 459.999 202.188Z" fill="#D3D8DC"/>
<path d="M401.417 189.403L393.056 201.119C390.919 204.094 390.176 207.813 390.919 211.393L394.542 225.108" stroke="#A8B3BC" stroke-width="0.769469" stroke-miterlimit="10" stroke-linecap="round" stroke-linejoin="round"/>
<path fill-rule="evenodd" clip-rule="evenodd" d="M462.05 363.235C462.05 363.235 421.731 380.577 402.918 370.441C397.53 367.512 392.327 348.265 462.05 363.235Z" fill="#010000"/>
<path fill-rule="evenodd" clip-rule="evenodd" d="M424.975 376.391C424.232 392.57 427.855 390.059 429.853 411.213C431.804 431.39 433.615 479.974 433.847 507.59C433.058 511.867 431.478 513.587 429.992 517.121C424.325 530.882 423.907 533.486 404.351 532.556C406.07 527.256 415.081 509.682 413.641 501.592C405.187 425.672 402.911 416.792 403.004 394.848C403.097 369.138 391.206 331.898 387.768 305.305C384.61 280.664 397.523 262.998 396.687 269.228C406.534 268.112 402.447 296.658 409.832 297.076C410.668 297.215 426.415 296.146 426.415 296.146C426.415 296.146 427.948 313.023 424.975 376.391Z" fill="#EB967C"/>
<path fill-rule="evenodd" clip-rule="evenodd" d="M430.041 517.121C424.374 530.883 423.956 533.486 404.4 532.557C406.119 527.257 415.131 509.683 413.691 501.593C411.6 482.857 409.882 468.212 408.488 456.403C409.51 457.659 414.434 458.635 420.379 458.635C426.372 458.635 431.388 457.659 432.317 456.403H432.457C433.2 474.582 433.711 493.736 433.804 507.591C433.107 511.821 431.481 513.542 430.041 517.121Z" fill="#F38C1E"/>
<path d="M409.461 464.492C410.483 465.747 414.942 466.491 420.888 466.491C429.992 466.491 432.733 464.306 432.733 464.306" stroke="white" stroke-width="0.769469" stroke-miterlimit="10" stroke-linecap="round" stroke-linejoin="round"/>
<path fill-rule="evenodd" clip-rule="evenodd" d="M425.437 366.442C416.518 361.978 402.119 363.141 399.657 364.582C399.006 361.142 398.31 357.655 397.566 354.121C397.752 354.028 397.984 353.982 398.217 353.935C402.026 353.563 420.327 354.493 425.901 354.772C425.716 359.049 425.623 361.653 425.437 366.442Z" fill="#010000"/>
<path fill-rule="evenodd" clip-rule="evenodd" d="M420.058 537.717C407.377 544.505 390.33 545.528 380.668 540.46C373.747 537.066 369.288 530.325 368.916 525.862C376.72 522.933 387.45 526.28 387.45 526.28C387.45 526.28 412.347 516.052 423.728 511.217C423.078 511.45 444.863 519.121 442.633 532.324C440.079 534.509 426.19 534.416 420.058 537.717Z" fill="#E0D6DB"/>
<path fill-rule="evenodd" clip-rule="evenodd" d="M409.515 498.664L387.033 521.305C387.033 521.305 376.675 522.839 368.871 525.768C371.24 528 379.323 539.762 392.422 539.576C405.335 539.39 413.835 533.904 419.363 529.813C426.981 524.141 437.525 521.956 438.733 521.305C441.474 512.844 433.53 500.988 433.53 500.988C433.53 500.988 426.563 501.686 423.265 504.847C421.082 492.341 421.918 492.527 413.975 491.318C407.379 490.295 409.19 493.922 409.515 498.664Z" fill="#7581F1"/>
<path fill-rule="evenodd" clip-rule="evenodd" d="M408.778 515.632C408.778 515.632 394.982 514.516 387.689 520.746C394.936 520.932 402.089 523.024 402.089 523.024C402.136 515.214 394.425 513.726 394.425 513.726C396.562 511.866 402.182 508.984 415.188 509.263C415.188 509.263 413.377 507.775 407.477 506.752C403.204 506.008 400.463 507.496 400.463 507.496C403.947 508.519 408.081 511.076 408.778 515.632Z" stroke="white" stroke-width="0.769469" stroke-miterlimit="10" stroke-linecap="round" stroke-linejoin="round"/>
<path fill-rule="evenodd" clip-rule="evenodd" d="M513.366 530.092C502.775 513.448 499.709 508.008 496.69 506.66C488.329 478.44 475.183 439.015 469.005 419.535C462.27 398.428 467.24 395.824 459.808 379.645C430.591 316.277 426.828 298.053 426.828 298.053C426.828 298.053 437.558 288.708 438.348 288.568C445.548 288.104 437.651 274.203 447.963 275.365C445.316 270.483 463.849 287.592 471.978 321.577C489.072 392.802 517.872 509.403 517.872 509.403C517.872 509.403 522.749 518.608 528.973 525.21C532.504 528.93 535.894 531.952 538.635 534.23C524.282 536.833 516.246 534.602 513.366 530.092Z" fill="#EB967C"/>
<path fill-rule="evenodd" clip-rule="evenodd" d="M513.367 530.092C502.777 513.448 499.711 508.009 496.691 506.66C492.232 491.644 486.472 473.465 481.084 456.821C482.57 457.891 487.448 458.681 493.115 458.681C499.107 458.681 503.984 457.798 504.867 456.589C512.438 487.32 517.873 509.357 517.873 509.357C517.873 509.357 522.75 518.562 528.975 525.164C532.505 528.883 535.896 531.905 538.637 534.183C524.283 536.833 516.247 534.602 513.367 530.092Z" fill="#F38C1E"/>
<path d="M483.697 464.584C483.697 464.584 486.67 466.351 494.938 466.165C500.931 466.026 505.808 465.282 506.69 464.073" stroke="white" stroke-width="0.769469" stroke-miterlimit="10" stroke-linecap="round" stroke-linejoin="round"/>
<path fill-rule="evenodd" clip-rule="evenodd" d="M456.042 371.509C454.277 367.651 452.605 363.931 451.072 360.444L477.689 355.842C477.689 355.842 478.85 356.307 480.522 357.097C481.683 361.793 482.845 366.581 484.006 371.416C472.44 374.159 462.546 373.044 456.042 371.509Z" fill="#010000"/>
<path fill-rule="evenodd" clip-rule="evenodd" d="M535.052 544.086L519.816 544.97C513.22 545.342 506.392 542.273 503.884 538.507C502.676 536.741 498.496 534.974 497.288 534.462C492.596 532.463 491.389 531.905 491.481 528.605C491.621 521.026 497.566 513.03 497.566 513.03L536.214 528.698C536.214 528.698 543.228 529.441 544.946 534.974C545.504 537.159 544.296 543.528 535.052 544.086Z" fill="#E0D6DB"/>
<path fill-rule="evenodd" clip-rule="evenodd" d="M544.809 534.975C544.345 532.093 539.746 528.559 535.705 529.396C530.224 530.559 525.532 539.485 522.606 541.438C515.963 542.46 510.296 540.508 505.837 536.788C504.118 532.279 501.796 525.073 499.52 523.027C497.662 521.353 494.55 521.214 493.853 519.075C492.645 507.359 494.643 501.455 494.643 501.455C494.643 501.455 499.659 504.616 502.26 503.779C502.725 499.502 499.148 495.783 510.761 494.946C518.75 494.388 518.518 496.434 519.633 502.617L534.311 526.002C534.311 526.049 544.159 529.35 544.809 534.975Z" fill="#7581F1"/>
<path fill-rule="evenodd" clip-rule="evenodd" d="M511.596 517.493C511.596 517.493 525.438 516.098 530.455 522.421C523.302 522.747 515.637 524.978 515.637 524.978C518.238 516.935 526.274 515.308 526.274 515.308C524.834 513.402 520.329 510.519 507.555 511.031C507.555 511.031 509.831 509.45 515.916 508.334C520.329 507.498 522.512 508.985 522.512 508.985C518.703 510.101 513.826 512.798 511.596 517.493Z" stroke="white" stroke-width="0.769469" stroke-miterlimit="10" stroke-linecap="round" stroke-linejoin="round"/>
<path fill-rule="evenodd" clip-rule="evenodd" d="M468.369 367.977C449.184 368.767 430.79 357.888 409.794 359.05C398.878 359.655 399.807 365.699 399.807 365.699C376.907 282.804 387.776 260.023 393.676 254.119C393.908 253.747 394.187 253.375 394.465 253.003C394.465 253.003 394.791 235.987 394.791 239.521C394.791 237.196 408.912 236.127 423.497 237.057C438.083 238.033 449.881 240.683 449.881 242.961C449.881 243.101 449.835 243.194 449.788 243.333L450.717 254.305C459.914 258.722 466.975 267.276 469.576 280.015C474.918 306.143 482.025 363.281 482.025 363.281C482.025 363.281 478.681 367.512 468.369 367.977Z" fill="#ED5C18"/>
<path d="M400.835 252.584C400.835 252.584 397.305 266.624 386.621 274.388" stroke="#CC2818" stroke-width="0.769469" stroke-miterlimit="10" stroke-linecap="round" stroke-linejoin="round"/>
<path d="M418.342 237.429L418.667 250.307L418.574 292.754C418.574 292.754 406.218 286.431 409.563 268.485C412.396 253.282 411.513 250.958 411.513 250.958" stroke="#CC2818" stroke-width="0.769469" stroke-miterlimit="10" stroke-linecap="round" stroke-linejoin="round"/>
<path d="M436.225 251.328C436.225 251.328 437.247 271.18 461.865 279.27" stroke="#CC2818" stroke-width="0.769469" stroke-miterlimit="10" stroke-linecap="round" stroke-linejoin="round"/>
<path d="M443.193 239.241L443.565 251.887C453.691 259.139 466.372 268.019 479.704 365.047" stroke="#CC2818" stroke-width="0.769469" stroke-miterlimit="10" stroke-linecap="round" stroke-linejoin="round"/>
<path d="M451.03 255.327V255.28C450.983 252.816 438.256 250.585 422.602 250.352C406.948 250.12 394.36 251.933 394.406 254.397" stroke="#CC2818" stroke-width="0.769469" stroke-miterlimit="10" stroke-linecap="round" stroke-linejoin="round"/>
<path fill-rule="evenodd" clip-rule="evenodd" d="M485.094 243.008C483.608 249.377 478.173 254.352 471.345 254.956C462.798 255.746 455.226 249.377 454.437 240.823C454.297 239.381 454.39 237.987 454.623 236.638C454.53 233.198 453.833 215.531 449.699 201.026C445.147 198.841 441.849 194.378 441.384 189.031C440.641 180.895 446.68 173.689 454.808 172.991C461.683 172.387 467.861 176.571 470.044 182.755C472.46 188.799 488.625 228.967 485.094 243.008Z" fill="#D3D8DC"/>
<path d="M454.144 237.243C454.144 237.243 455.445 227.666 451.961 210.51" stroke="#A8B3BC" stroke-width="0.769469" stroke-miterlimit="10" stroke-linecap="round" stroke-linejoin="round"/>
<path fill-rule="evenodd" clip-rule="evenodd" d="M473.067 254.678V254.725C473.067 254.725 433.676 260.954 431.586 249.611L424.107 249.425L425.873 226.458L433.305 226.83C433.49 226.83 433.63 226.783 433.816 226.783C434.234 226.783 434.652 226.923 435.023 227.109C439.576 221.39 447.193 221.483 453.557 222.645C457.924 223.436 461.593 224.133 464.752 224.691C465.96 224.273 467.214 223.994 468.514 223.901C472.695 223.529 476.643 224.831 479.663 227.295H479.709C482.868 229.852 485.051 233.664 485.422 238.034C486.166 246.031 480.731 253.144 473.067 254.678Z" fill="#D3D8DC"/>
<path fill-rule="evenodd" clip-rule="evenodd" d="M419.319 237.383C419.691 230.968 422.292 225.854 425.172 225.993C428.052 226.132 430.096 231.433 429.724 237.895C429.353 244.311 426.751 249.425 423.871 249.285C421.038 249.099 418.994 243.799 419.319 237.383Z" fill="#A8B3BC"/>
<path fill-rule="evenodd" clip-rule="evenodd" d="M423.447 247.518L416.48 244.914C411.277 248.587 405.935 244.635 405.935 244.635C402.498 243.194 399.247 240.823 396.831 239.196L382.431 241.799C381.038 242.032 379.691 241.148 379.459 239.753C379.366 239.149 379.459 238.591 379.737 238.08L376.764 239.103C375.417 239.567 373.977 238.87 373.513 237.522C373.188 236.546 373.466 235.523 374.163 234.825L373.884 234.918C372.537 235.383 371.097 234.686 370.633 233.338C370.215 232.082 370.772 230.734 371.98 230.176L380.991 225.992L385.497 223.9L386.333 223.528H382.664L372.77 223.481C371.376 223.481 370.215 222.319 370.215 220.924C370.215 219.576 371.237 218.507 372.537 218.367L382.431 217.484C382.431 217.484 391.629 217.019 394.323 217.252C394.323 217.252 398.364 217.484 411.742 225.574C411.742 225.574 422.054 226.968 425.073 227.154C431.019 228.688 426.188 248.773 423.447 247.518Z" fill="#EB967C"/>
<path fill-rule="evenodd" clip-rule="evenodd" d="M420.159 237.15C420.438 231.524 422.575 227.061 424.944 227.2C427.266 227.34 428.938 231.989 428.66 237.615C428.381 243.24 426.244 247.703 423.875 247.564C421.553 247.424 419.881 242.775 420.159 237.15Z" fill="#EB967C"/>
<path d="M379.78 238.08C378.107 238.685 376.76 239.15 376.76 239.15C375.413 239.615 373.973 238.917 373.509 237.569C373.091 236.314 373.648 234.966 374.856 234.408L383.867 230.223L388.373 228.131L389.534 227.62C390.092 227.387 392.879 226.597 393.483 226.458" stroke="black" stroke-width="0.769469" stroke-miterlimit="10" stroke-linecap="round" stroke-linejoin="round"/>
<path d="M391.625 240.172L382.427 241.846C381.034 242.078 379.687 241.195 379.455 239.8C379.222 238.498 380.012 237.243 381.266 236.871C381.266 236.871 394.737 231.385 396.502 232.222" stroke="black" stroke-width="0.769469" stroke-miterlimit="10" stroke-linecap="round" stroke-linejoin="round"/>
<path d="M373.878 234.965C372.531 235.43 371.091 234.733 370.626 233.385C370.208 232.129 370.765 230.781 371.973 230.223L380.985 226.039L385.49 223.947L386.652 223.435C387.209 223.203 391.297 221.901 391.9 221.762" stroke="black" stroke-width="0.769469" stroke-miterlimit="10" stroke-linecap="round" stroke-linejoin="round"/>
<path d="M434.375 226.875C437.162 227.014 439.113 232.128 438.742 238.312C438.416 244.495 435.862 249.377 433.121 249.237" stroke="#A8B3BC" stroke-width="0.769469" stroke-miterlimit="10" stroke-linecap="round" stroke-linejoin="round"/>
<path d="M426.424 226.457C426.424 226.457 430.186 226.782 434.924 226.922C439.105 222.691 443.285 221.994 448.999 222.319C457.499 222.877 461.123 223.946 465.675 225.015" stroke="#A8B3BC" stroke-width="0.769469" stroke-miterlimit="10" stroke-linecap="round" stroke-linejoin="round"/>
<path fill-rule="evenodd" clip-rule="evenodd" d="M418.473 210.416C418.473 210.416 400.496 184.334 414.85 175.594C428.413 171.921 440.305 173.223 441.791 176.849C446.947 189.03 418.473 210.416 418.473 210.416Z" fill="#ED5C18"/>
<path fill-rule="evenodd" clip-rule="evenodd" d="M442.171 177.501C442.31 180.29 437.665 182.94 431.255 184.01C429.49 184.474 427.539 184.66 425.495 184.474C418.109 184.521 412.257 182.289 412.071 179.221C411.978 177.64 413.371 176.152 415.787 174.897L416.948 152.581L435.946 156.347C435.946 156.347 436.736 166.901 437.526 173.456C440.266 174.432 442.078 175.827 442.171 177.501Z" fill="#EB967C"/>
<path fill-rule="evenodd" clip-rule="evenodd" d="M428.272 171.829C423.023 169.83 418.843 166.389 416.381 162.484L416.892 152.581L435.89 156.347C435.89 156.347 436.68 166.901 437.469 173.456C437.609 173.502 437.702 173.549 437.841 173.595C434.775 173.642 431.524 173.084 428.272 171.829Z" fill="#010000"/>
<path fill-rule="evenodd" clip-rule="evenodd" d="M437.988 113.342C437.988 113.342 442.54 99.0231 431.671 94.6064C424.936 91.9098 418.99 96.0941 418.99 96.0941C414.298 87.1677 395.486 82.7975 385.174 95.0248C371.424 111.343 382.665 135.612 396.694 142.958C396.694 142.958 391.259 154.534 400.549 160.066C408.864 164.995 423.263 158.858 431.625 140.912C434.086 135.565 437.988 113.342 437.988 113.342Z" fill="#351015"/>
<path fill-rule="evenodd" clip-rule="evenodd" d="M440.719 99.7664C440.719 99.7664 437.7 108.321 435.656 113.017C446.154 111.575 450.381 103.114 440.719 99.7664Z" fill="#351015"/>
<path fill-rule="evenodd" clip-rule="evenodd" d="M444.637 137.426C444.637 137.426 440.364 146.538 426.939 146.678C416.488 146.771 407.894 138.077 407.802 127.198C407.709 116.319 416.07 107.439 426.521 107.346C436.973 107.253 445.566 115.947 445.659 126.826C445.287 130.731 444.637 137.426 444.637 137.426Z" fill="#351015"/>
<path fill-rule="evenodd" clip-rule="evenodd" d="M448.07 144.028C446.955 147.561 445.051 150.118 442.868 149.839C442.728 149.839 442.589 149.746 442.45 149.653C440.452 157.417 435.575 161.787 431.72 164.065C430.14 164.995 428.375 165.46 426.563 165.507C424.752 165.507 422.94 165.088 421.361 164.205C417.413 161.973 412.303 157.65 410.213 149.699C410.166 149.746 410.073 149.746 410.027 149.746C407.519 150.118 405.893 147.933 404.639 144.399C403.385 140.913 404.035 137.658 405.521 137.007C407.286 136.263 409.655 137.426 410.863 140.913C410.956 141.099 411.002 141.331 411.049 141.517H411.188C411.188 141.517 411.421 135.659 411.421 127.384C411.421 123.804 414.161 121.526 416.298 120.224C419.085 118.922 422.429 118.132 426.053 118.132C431.116 118.132 435.668 119.619 438.78 121.991C440.174 123.292 441.288 125.059 441.288 127.384C441.288 135.659 441.521 140.959 441.521 140.959C442.635 137.426 445.097 136.217 446.862 136.914C448.349 137.519 449.185 140.448 448.07 144.028Z" fill="#EB967C"/>
<path d="M421.952 130.916C421.952 130.916 416.424 128.545 412.615 132.125" stroke="black" stroke-width="0.769469" stroke-miterlimit="10" stroke-linecap="round" stroke-linejoin="round"/>
<path d="M429.119 130.916C429.119 130.916 434.647 128.545 438.456 132.125" stroke="black" stroke-width="0.769469" stroke-miterlimit="10" stroke-linecap="round" stroke-linejoin="round"/>
<path d="M423.672 133.613C424.183 135.148 424.508 137.751 423.068 141.099C421.21 145.422 425.112 147.514 428.085 144.585" stroke="black" stroke-width="0.769469" stroke-miterlimit="10" stroke-linecap="round" stroke-linejoin="round"/>
<path d="M407.648 141.518C406.765 142.215 405.604 145.748 408.809 146.678" stroke="black" stroke-width="0.769469" stroke-miterlimit="10" stroke-linecap="round" stroke-linejoin="round"/>
<path d="M406.623 138.912L409.503 144.817" stroke="black" stroke-width="0.769469" stroke-miterlimit="10" stroke-linecap="round" stroke-linejoin="round"/>
<path d="M444.626 141.518C445.509 142.215 446.67 145.748 443.465 146.678" stroke="black" stroke-width="0.769469" stroke-miterlimit="10" stroke-linecap="round" stroke-linejoin="round"/>
<path d="M445.64 138.912L442.76 144.817" stroke="black" stroke-width="0.769469" stroke-miterlimit="10" stroke-linecap="round" stroke-linejoin="round"/>
<path fill-rule="evenodd" clip-rule="evenodd" d="M418.068 135.287C418.765 135.24 419.415 136.216 419.462 137.425C419.508 138.634 418.997 139.657 418.254 139.657C417.557 139.703 416.907 138.727 416.86 137.518C416.814 136.309 417.325 135.333 418.068 135.287Z" fill="#010000"/>
<path fill-rule="evenodd" clip-rule="evenodd" d="M433.212 135.287C433.908 135.24 434.559 136.216 434.605 137.425C434.652 138.634 434.141 139.657 433.397 139.657C432.701 139.703 432.05 138.727 432.004 137.518C432.004 136.309 432.515 135.333 433.212 135.287Z" fill="#010000"/>
<path d="M415.451 135.706H418.331" stroke="black" stroke-width="0.769469" stroke-miterlimit="10" stroke-linecap="round" stroke-linejoin="round"/>
<path d="M433.432 135.706H436.079" stroke="black" stroke-width="0.769469" stroke-miterlimit="10" stroke-linecap="round" stroke-linejoin="round"/>
<path fill-rule="evenodd" clip-rule="evenodd" d="M426.276 148.954C429.063 148.954 431.757 148.815 434.126 148.629C432.918 153.092 429.853 156.3 426.276 156.3C422.699 156.3 419.634 153.138 418.426 148.629C420.795 148.815 423.442 148.954 426.276 148.954Z" fill="#010000"/>
<path fill-rule="evenodd" clip-rule="evenodd" d="M418.994 148.676C421.224 148.862 423.686 148.955 426.24 148.955C428.795 148.955 431.257 148.862 433.487 148.676C432.279 150.861 429.492 152.349 426.24 152.349C422.989 152.349 420.202 150.861 418.994 148.676Z" fill="#E0D6DB"/>
<defs>
<filter id="filter0_d_1862_752" x="0.117727" y="0.117727" width="600.931" height="507.071" filterUnits="userSpaceOnUse" color-interpolation-filters="sRGB">
<feFlood flood-opacity="0" result="BackgroundImageFix"/>
<feColorMatrix in="SourceAlpha" type="matrix" values="0 0 0 0 0 0 0 0 0 0 0 0 0 0 0 0 0 0 127 0" result="hardAlpha"/>
<feOffset/>
<feGaussianBlur stdDeviation="14.9411"/>
<feComposite in2="hardAlpha" operator="out"/>
<feColorMatrix type="matrix" values="0 0 0 0 0.0352941 0 0 0 0 0 0 0 0 0 0 0 0 0 0.08 0"/>
<feBlend mode="normal" in2="BackgroundImageFix" result="effect1_dropShadow_1862_752"/>
<feBlend mode="normal" in="SourceGraphic" in2="effect1_dropShadow_1862_752" result="shape"/>
</filter>
</defs>
</svg>
