<svg width="38" height="38" viewBox="0 0 38 38" fill="none" xmlns="http://www.w3.org/2000/svg">
<circle cx="19" cy="19" r="19" fill="#ED5C18"/>
<path d="M19.9681 17.1047C21.9921 17.1047 24.3901 18.6447 24.3901 21.9667C24.3901 24.7387 22.3001 26.6087 19.1541 26.6087C16.4481 26.6087 14.2261 24.6507 13.9841 21.5927C13.6321 17.1267 14.4021 11.5167 19.8141 11.6927C21.5301 11.7587 23.1801 12.2867 24.2581 14.4867L21.3761 15.7187C20.9581 14.8607 20.3861 14.5747 19.7041 14.5747C17.5921 14.5747 16.9981 16.7967 17.0641 18.7327C17.2401 18.2267 18.1861 17.1047 19.9681 17.1047ZM21.2001 21.7907C21.2001 20.7567 20.3421 19.8987 19.3081 19.8987C18.2741 19.8987 17.4161 20.7567 17.4161 21.7907C17.4161 22.8247 18.2741 23.6827 19.3081 23.6827C20.3421 23.6827 21.2001 22.8247 21.2001 21.7907Z" fill="white"/>
</svg>
