<svg width="121" height="28" viewBox="0 0 121 28" fill="none" xmlns="http://www.w3.org/2000/svg">
<path d="M112.338 20.34V24.362C112.4 25.1565 112.154 25.9444 111.65 26.562C111.428 26.8009 111.157 26.9898 110.856 27.116C110.555 27.2422 110.23 27.3029 109.904 27.294C109.582 27.3033 109.262 27.2418 108.966 27.1138C108.671 26.9857 108.407 26.7943 108.193 26.553C107.704 25.9331 107.465 25.1525 107.523 24.365V10.951C107.523 8.78769 108.305 7.70569 109.869 7.70503C110.198 7.67578 110.529 7.72991 110.831 7.8624C111.133 7.99489 111.397 8.20148 111.598 8.46303C111.999 9.14029 112.2 9.91654 112.18 10.703C112.64 9.86098 113.239 9.10346 113.953 8.46303C114.645 7.92922 115.505 7.66038 116.378 7.70503C117.408 7.70988 118.42 7.97035 119.324 8.46303C119.731 8.62442 120.083 8.90035 120.337 9.25743C120.59 9.61451 120.735 10.0374 120.753 10.475C120.761 10.7471 120.711 11.0176 120.606 11.2687C120.501 11.5198 120.343 11.7456 120.144 11.931C119.799 12.2874 119.327 12.4933 118.83 12.504C118.393 12.4424 117.964 12.3331 117.551 12.178C116.974 11.9779 116.37 11.868 115.76 11.852C115.136 11.8253 114.523 12.0225 114.031 12.408C113.538 12.8504 113.177 13.4214 112.99 14.057C112.72 14.9011 112.549 15.7736 112.479 16.657C112.385 17.6657 112.338 18.8934 112.338 20.34Z" fill="white"/>
<path d="M5.577 3.98703L11.433 21.325L17.308 3.86103C17.6133 2.94369 17.8427 2.3057 17.996 1.94703C18.1658 1.56671 18.426 1.23369 18.754 0.977028C19.1709 0.668085 19.6829 0.514889 20.201 0.544029C20.6379 0.541819 21.0674 0.657553 21.444 0.879029C21.8165 1.09262 22.1267 1.39974 22.344 1.77003C22.5523 2.10727 22.6653 2.49468 22.671 2.89103C22.668 3.17318 22.6325 3.45404 22.565 3.72803C22.4948 4.02706 22.4066 4.32159 22.301 4.61003C22.195 4.89803 22.089 5.19503 21.983 5.50103L15.721 22.401C15.497 23.0477 15.2733 23.662 15.05 24.244C14.8489 24.7828 14.5887 25.2976 14.274 25.779C13.9727 26.2282 13.5707 26.6007 13.1 26.867C12.551 27.1642 11.9329 27.3102 11.309 27.29C10.6862 27.3098 10.0689 27.1672 9.518 26.876C9.04228 26.611 8.63696 26.2359 8.336 25.782C8.01948 25.2975 7.75629 24.7802 7.551 24.239C7.32767 23.663 7.104 23.0514 6.88 22.404L0.724998 5.64603C0.619998 5.34003 0.509998 5.04003 0.398998 4.74603C0.282631 4.43576 0.188397 4.11763 0.117001 3.79403C0.0466428 3.50946 0.00741206 3.21808 0 2.92503C0.00461111 2.61695 0.0710755 2.31294 0.195446 2.03104C0.319817 1.74915 0.499557 1.49512 0.723999 1.28403C0.958855 1.04118 1.24169 0.849883 1.55452 0.722309C1.86734 0.594736 2.20329 0.533678 2.541 0.543026C2.90137 0.506076 3.26519 0.562042 3.59779 0.705586C3.93039 0.84913 4.22069 1.07547 4.441 1.36303C4.93309 2.1841 5.31503 3.06633 5.577 3.98703Z" fill="white"/>
<path d="M57.4218 13.228L48.6018 23.089H58.0388C58.6619 23.0438 59.279 23.2364 59.7658 23.628C59.9568 23.8033 60.1077 24.0179 60.2082 24.2569C60.3086 24.4959 60.3563 24.7539 60.3478 25.013C60.3558 25.2622 60.3085 25.51 60.2095 25.7387C60.1104 25.9674 59.962 26.1714 59.7748 26.336C59.2779 26.7141 58.6593 26.8963 58.0368 26.848H44.9848C44.2496 26.9048 43.5189 26.6915 42.9298 26.248C42.5335 25.8844 42.2918 25.3825 42.2545 24.8459C42.2173 24.3093 42.3874 23.7789 42.7298 23.364C43.0478 22.9467 43.7065 22.18 44.7058 21.064C45.7645 19.8887 46.7261 18.8244 47.5908 17.871C48.4555 16.9177 49.2581 16.0267 49.9988 15.198C50.7395 14.3694 51.3538 13.6667 51.8418 13.09C52.3298 12.5134 52.7208 12.0194 53.0148 11.608H45.8528C45.0968 11.6383 44.3408 11.5488 43.6128 11.343C43.1061 11.167 42.8535 10.7024 42.8548 9.94903C42.8446 9.69961 42.8909 9.4511 42.9901 9.22203C43.0893 8.99296 43.2389 8.78923 43.4278 8.62603C43.8925 8.2689 44.4708 8.09201 45.0558 8.12803H56.1168C56.9267 8.08413 57.7351 8.2386 58.4718 8.57803C58.7485 8.74076 58.9728 8.97935 59.1181 9.26556C59.2634 9.55177 59.3237 9.87362 59.2918 10.193C59.2881 10.4672 59.2342 10.7383 59.1328 10.993C59.0454 11.2339 58.9267 11.4622 58.7798 11.672C58.6505 11.848 58.4738 12.0627 58.2498 12.316C58.0258 12.5694 57.7498 12.8734 57.4218 13.228Z" fill="white"/>
<path d="M65.5901 5.46903C64.9601 5.48376 64.3471 5.26387 63.8701 4.85203C63.6428 4.62734 63.4627 4.35951 63.3404 4.06427C63.218 3.76903 63.1558 3.45233 63.1575 3.13274C63.1592 2.81315 63.2247 2.49712 63.3501 2.20318C63.4756 1.90925 63.6585 1.64333 63.8881 1.42103C64.3492 0.991173 64.9577 0.754584 65.5881 0.760027C66.1953 0.754053 66.7842 0.967066 67.2471 1.36003C67.4933 1.57624 67.6865 1.84613 67.8119 2.14886C67.9372 2.45158 67.9914 2.77906 67.9701 3.10603C67.9876 3.42969 67.9335 3.75323 67.8114 4.05351C67.6894 4.35379 67.5025 4.62339 67.2641 4.84303C66.8055 5.25607 66.2072 5.47979 65.5901 5.46903ZM67.9711 10.444V24.364C68.0293 25.1544 67.7832 25.9372 67.2831 26.552C67.0623 26.7936 66.7921 26.9848 66.4908 27.1127C66.1895 27.2406 65.8643 27.3021 65.5371 27.293C65.212 27.3033 64.8887 27.2406 64.591 27.1094C64.2933 26.9782 64.0289 26.782 63.8171 26.535C63.3392 25.9167 63.104 25.1448 63.1561 24.365V10.585C63.0981 9.81011 63.3341 9.04177 63.8171 8.43303C64.0343 8.19508 64.3006 8.00718 64.5976 7.88235C64.8946 7.75751 65.2151 7.69871 65.5371 7.71003C65.8627 7.70039 66.1866 7.75984 66.4876 7.88446C66.7885 8.00908 67.0596 8.19604 67.2831 8.43303C67.7682 8.98673 68.0157 9.70919 67.9721 10.444H67.9711Z" fill="white"/>
<path d="M73.2098 8.13203H73.7398V5.24003C73.7398 4.46403 73.7605 3.85536 73.8018 3.41403C73.8301 3.01378 73.9476 2.62493 74.1458 2.27603C74.3403 1.94174 74.6206 1.66553 74.9578 1.47603C75.3167 1.26836 75.7251 1.16159 76.1398 1.16703C76.761 1.17079 77.356 1.41735 77.7978 1.85403C78.1218 2.15066 78.3416 2.54372 78.4248 2.97503C78.5268 3.59593 78.571 4.22496 78.5568 4.85403V8.13503H80.3208C80.8834 8.09597 81.4403 8.269 81.8818 8.62003C82.057 8.77537 82.1961 8.9673 82.289 9.18225C82.382 9.3972 82.4266 9.62994 82.4198 9.86403C82.4423 10.1411 82.3812 10.4186 82.2445 10.6606C82.1078 10.9027 81.9017 11.0982 81.6528 11.222C80.9584 11.5167 80.2061 11.6497 79.4528 11.611H78.5528V20.467C78.5444 21.0471 78.5711 21.6272 78.6328 22.204C78.6678 22.5693 78.8156 22.9146 79.0558 23.192C79.2053 23.3304 79.3823 23.4357 79.5753 23.5011C79.7683 23.5664 79.9729 23.5902 80.1758 23.571C80.5621 23.5582 80.9462 23.508 81.3228 23.421C81.6934 23.335 82.0715 23.2848 82.4518 23.271C82.6492 23.2735 82.844 23.3162 83.0244 23.3965C83.2047 23.4768 83.3668 23.593 83.5008 23.738C83.6535 23.8884 83.7738 24.0685 83.8543 24.2671C83.9348 24.4657 83.9737 24.6788 83.9688 24.893C83.9619 25.2836 83.8369 25.6629 83.6102 25.981C83.3835 26.2992 83.0657 26.5411 82.6988 26.675C81.5409 27.1441 80.2945 27.3547 79.0468 27.292C77.8574 27.3676 76.671 27.1048 75.6248 26.534C74.8672 26.054 74.3213 25.3029 74.0988 24.434C73.8275 23.2604 73.7062 22.0572 73.7378 20.853V11.608H73.1028C72.5306 11.6476 71.9644 11.4714 71.5158 11.114C71.3385 10.9581 71.1977 10.7651 71.1032 10.5488C71.0087 10.3325 70.9628 10.098 70.9688 9.86203C70.9632 9.62462 71.012 9.38908 71.1115 9.17345C71.211 8.95783 71.3585 8.76783 71.5428 8.61803C72.0231 8.26326 72.614 8.09099 73.2098 8.13203Z" fill="white"/>
<path d="M103.764 17.5C103.778 18.8524 103.551 20.1965 103.093 21.469C102.674 22.6356 102.013 23.7001 101.153 24.592C100.296 25.468 99.2615 26.15 98.1188 26.592C96.8519 27.0741 95.5051 27.3116 94.1498 27.292C92.8052 27.3129 91.4692 27.0732 90.2158 26.586C89.0721 26.1328 88.0378 25.4416 87.1816 24.5582C86.3254 23.6748 85.6669 22.6194 85.2498 21.462C84.7958 20.1918 84.572 18.8508 84.5888 17.502C84.5732 16.1394 84.8004 14.7849 85.2598 13.502C85.6744 12.3446 86.3295 11.2881 87.1818 10.402C88.0382 9.52966 89.0732 8.85285 90.2158 8.41802C92.7673 7.48641 95.5664 7.4896 98.1158 8.42702C99.2666 8.86946 100.308 9.55583 101.168 10.439C102.029 11.3221 102.688 12.381 103.1 13.543C103.553 14.8125 103.778 16.1522 103.764 17.5ZM98.9308 17.5C99.0285 15.868 98.5703 14.2511 97.6308 12.913C97.2223 12.3823 96.6932 11.9565 96.0872 11.6711C95.4813 11.3857 94.8161 11.2489 94.1468 11.272C93.2619 11.2552 92.3932 11.5111 91.6588 12.005C90.9025 12.543 90.325 13.2954 90.0008 14.165C89.2276 16.3079 89.2244 18.6531 89.9918 20.798C90.3161 21.6631 90.8866 22.4143 91.6328 22.959C92.3713 23.4666 93.2509 23.7287 94.1468 23.708C94.817 23.7313 95.483 23.5937 96.0891 23.3068C96.6952 23.0199 97.2239 22.5921 97.6308 22.059C98.5663 20.7297 99.0245 19.1229 98.9308 17.5Z" fill="white"/>
<path d="M29.1697 9.87803C28.5587 10.3518 27.977 10.862 27.4277 11.406C27.1431 11.7541 26.9555 12.1712 26.8837 12.615C26.6887 13.692 26.5837 14.786 26.4327 15.871C26.3933 16.1502 26.2462 16.4028 26.0228 16.5748C25.7995 16.7468 25.5176 16.8244 25.2377 16.791C25.0941 16.7792 24.9545 16.7378 24.8276 16.6695C24.7008 16.6011 24.5894 16.5073 24.5006 16.3938C24.4117 16.2804 24.3473 16.1498 24.3114 16.0103C24.2754 15.8707 24.2687 15.7253 24.2917 15.583C24.4577 14.161 24.6427 12.742 24.8127 11.32C24.8744 10.7786 25.1462 10.283 25.5697 9.94003C26.5107 9.14003 27.4417 8.33403 28.4037 7.56303C29.3215 6.77196 30.4992 6.34781 31.7107 6.37202C32.1107 6.35121 32.5077 6.45267 32.8487 6.66291C33.1897 6.87316 33.4586 7.18223 33.6197 7.54903C34.0838 8.52082 34.4755 9.52555 34.7917 10.555C34.9084 11.0376 35.1416 11.4841 35.4709 11.8557C35.8002 12.2272 36.2156 12.5123 36.6807 12.686C37.5007 13.035 38.3007 13.43 39.1047 13.816C39.3534 13.9296 39.5476 14.1362 39.6457 14.3914C39.7439 14.6466 39.7381 14.93 39.6297 15.181C39.579 15.3062 39.503 15.4196 39.4065 15.5141C39.31 15.6086 39.195 15.6822 39.0688 15.7303C38.9426 15.7783 38.8078 15.7998 38.6729 15.7934C38.5379 15.787 38.4058 15.7528 38.2847 15.693C36.9697 15.096 35.6407 14.513 34.3637 13.84C33.9492 13.5418 33.5941 13.1687 33.3167 12.74C33.1893 12.5164 33.0427 12.3043 32.8787 12.106C32.7007 12.971 32.5787 13.855 32.3287 14.698C32.2228 15.0433 32.202 15.4091 32.2682 15.7642C32.3344 16.1193 32.4855 16.453 32.7087 16.737C34.4187 19.34 36.0697 21.994 37.7337 24.64C37.8597 24.8078 37.9493 24.9999 37.997 25.2042C38.0446 25.4085 38.0491 25.6205 38.0102 25.8267C37.9714 26.0328 37.89 26.2286 37.7712 26.4016C37.6525 26.5745 37.499 26.7208 37.3206 26.8312C37.1422 26.9415 36.9427 27.0135 36.735 27.0425C36.5272 27.0715 36.3156 27.0568 36.1138 26.9995C35.912 26.9422 35.7244 26.8435 35.5629 26.7096C35.4013 26.5757 35.2695 26.4097 35.1757 26.222C33.8337 24.094 32.4807 21.974 31.1387 19.847C30.2017 18.363 29.2647 16.879 28.3547 15.378C28.2194 15.1347 28.1701 14.8529 28.2147 14.578C28.4997 13.058 28.8247 11.54 29.1697 9.87803Z" fill="white"/>
<path d="M36.4897 27.383C36.1591 27.3765 35.8362 27.2814 35.5548 27.1076C35.2733 26.9338 35.0437 26.6878 34.8897 26.395C34.1951 25.293 33.4981 24.193 32.7987 23.095C32.1494 22.0717 31.5007 21.0477 30.8527 20.023L30.8097 19.955C29.9017 18.517 28.9627 17.029 28.0657 15.548C27.8894 15.2362 27.8252 14.8734 27.8837 14.52C28.0967 13.383 28.3307 12.253 28.5837 11.058L28.6507 10.738C28.3017 11.0105 27.9738 11.3091 27.6697 11.631C27.426 11.9329 27.2659 12.2937 27.2057 12.677C27.0827 13.356 26.9957 14.057 26.9107 14.737C26.8607 15.132 26.8107 15.527 26.7557 15.922C26.7025 16.2865 26.5092 16.6158 26.217 16.8399C25.9247 17.064 25.5565 17.1652 25.1907 17.122C25.0042 17.1047 24.8231 17.0494 24.6586 16.9596C24.4942 16.8698 24.3497 16.7474 24.2342 16.5999C24.1187 16.4523 24.0345 16.2828 23.9868 16.1016C23.9391 15.9204 23.9289 15.7313 23.9567 15.546C24.0534 14.7187 24.1534 13.8917 24.2567 13.065C24.3307 12.471 24.4047 11.876 24.4757 11.282C24.5484 10.6543 24.8639 10.08 25.3547 9.68203L26.1097 9.04103C26.7877 8.46403 27.4877 7.86803 28.1957 7.30103C29.1742 6.45584 30.4321 6.00492 31.7247 6.03603C32.1877 6.01486 32.6461 6.13506 33.039 6.38066C33.432 6.62627 33.7409 6.98564 33.9247 7.41103L34.0477 7.68903C34.4715 8.58579 34.8275 9.51306 35.1127 10.463C35.2167 10.8972 35.4262 11.299 35.7228 11.6328C36.0194 11.9665 36.3938 12.2218 36.8127 12.376C37.4977 12.668 38.1777 12.995 38.8337 13.311L39.2507 13.511C39.5774 13.6622 39.832 13.9351 39.9601 14.2714C40.0883 14.6077 40.0799 14.9808 39.9367 15.311C39.8683 15.4764 39.7669 15.6261 39.6386 15.7509C39.5103 15.8757 39.3579 15.973 39.1907 16.0369C39.0235 16.1007 38.845 16.1298 38.6662 16.1222C38.4874 16.1147 38.312 16.0707 38.1507 15.993L37.6607 15.773C36.5187 15.259 35.3367 14.728 34.2087 14.13C33.833 13.8944 33.5124 13.5806 33.2687 13.21C33.1997 13.12 33.1307 13.03 33.0607 12.945L33.0557 12.936V12.95C32.9534 13.5686 32.8176 14.1812 32.6487 14.785C32.5569 15.0841 32.5399 15.4012 32.5992 15.7084C32.6585 16.0156 32.7922 16.3036 32.9887 16.547C34.4037 18.711 35.8017 20.935 37.1537 23.085L38.0167 24.458C38.2019 24.7333 38.3152 25.0506 38.3463 25.3809C38.3774 25.7112 38.3253 26.044 38.1947 26.349C38.0641 26.6237 37.8656 26.8605 37.618 27.0372C37.3704 27.2139 37.082 27.3247 36.7797 27.359C36.6838 27.3743 36.5869 27.3823 36.4897 27.383ZM29.6897 8.99503L29.4947 9.94503C29.4077 10.369 29.3217 10.783 29.2377 11.19C28.9907 12.383 28.7557 13.509 28.5457 14.639C28.5165 14.8326 28.5517 15.0304 28.6457 15.202C29.5387 16.678 30.4767 18.163 31.3827 19.602L31.4257 19.67C32.0677 20.6927 32.7144 21.7147 33.3657 22.736C34.0644 23.8367 34.7617 24.9367 35.4577 26.036C35.565 26.2633 35.7421 26.4504 35.9632 26.5699C36.1843 26.6893 36.4379 26.7349 36.6867 26.7C36.8796 26.6816 37.0645 26.6136 37.2234 26.5027C37.3823 26.3918 37.5099 26.2417 37.5937 26.067C37.679 25.8627 37.7112 25.64 37.6872 25.4199C37.6633 25.1998 37.584 24.9893 37.4567 24.808L36.5897 23.436C35.2397 21.288 33.8427 19.066 32.4317 16.908C32.1838 16.5828 32.0164 16.2035 31.9432 15.8011C31.87 15.3987 31.8932 14.9847 32.0107 14.593C32.1725 14.0122 32.3027 13.423 32.4007 12.828C32.4497 12.561 32.5007 12.294 32.5537 12.028L32.6727 11.45L33.1047 11.85C33.2437 11.9866 33.3598 12.1446 33.4487 12.318C33.4844 12.3881 33.5259 12.455 33.5727 12.518C33.6477 12.61 33.7207 12.705 33.7947 12.801C33.9854 13.0918 34.2314 13.3422 34.5187 13.538C35.6287 14.126 36.7997 14.652 37.9327 15.162L38.4227 15.383C38.504 15.4247 38.5932 15.4489 38.6844 15.454C38.7756 15.4591 38.8669 15.445 38.9523 15.4127C39.0378 15.3804 39.1155 15.3305 39.1805 15.2663C39.2455 15.2022 39.2964 15.1251 39.3297 15.04C39.4046 14.8679 39.4083 14.673 39.3399 14.4982C39.2715 14.3233 39.1366 14.1827 38.9647 14.107L38.5467 13.907C37.8967 13.594 37.2257 13.27 36.5547 12.984C36.0432 12.7915 35.5864 12.477 35.2241 12.0678C34.8618 11.6586 34.6049 11.1671 34.4757 10.636C34.1984 9.71844 33.8534 8.82265 33.4437 7.95603L33.3207 7.67703C33.1844 7.36722 32.956 7.10692 32.6665 6.93157C32.377 6.75622 32.0405 6.67432 31.7027 6.69703C30.5702 6.67564 29.4698 7.07426 28.6137 7.81603C27.9137 8.37703 27.2137 8.97003 26.5437 9.54403C26.2917 9.75869 26.0394 9.97303 25.7867 10.187C25.4245 10.4755 25.1915 10.8959 25.1387 11.356C25.0667 11.9514 24.9934 12.5467 24.9187 13.142C24.8187 13.967 24.7187 14.792 24.6187 15.618C24.6013 15.7172 24.6048 15.8189 24.6292 15.9166C24.6536 16.0143 24.6983 16.1058 24.7603 16.1851C24.8224 16.2645 24.9004 16.3298 24.9894 16.377C25.0784 16.4242 25.1763 16.4521 25.2767 16.459C25.4703 16.4813 25.6649 16.427 25.819 16.3078C25.9731 16.1886 26.0746 16.014 26.1017 15.821C26.1577 15.431 26.2017 15.039 26.2557 14.648C26.3417 13.96 26.4297 13.248 26.5557 12.548C26.6366 12.0431 26.8518 11.5692 27.1787 11.176C27.5467 10.792 27.9436 10.4366 28.3657 10.113C28.5537 9.95903 28.7507 9.79903 28.9527 9.62503L29.6897 8.99503Z" fill="white"/>
<path d="M27.73 17.305C28.408 18.212 29.03 19.044 29.65 19.883C29.6769 19.9239 29.6952 19.9698 29.7038 20.0179C29.7124 20.066 29.7111 20.1154 29.7 20.163C29.5452 21.0756 29.2162 21.9498 28.731 22.738C27.786 23.927 26.913 25.173 26.004 26.39C25.9099 26.5563 25.7816 26.7005 25.6274 26.8133C25.4732 26.9261 25.2969 27.0048 25.1099 27.0441C24.923 27.0835 24.7299 27.0826 24.5434 27.0415C24.3568 27.0005 24.1811 26.9202 24.028 26.806C23.8759 26.6912 23.7495 26.5458 23.657 26.3792C23.5645 26.2126 23.5079 26.0285 23.4908 25.8386C23.4738 25.6488 23.4967 25.4576 23.558 25.2771C23.6194 25.0967 23.7178 24.9311 23.847 24.791C24.708 23.621 25.584 22.462 26.432 21.283C26.6235 21.0086 26.7684 20.7045 26.861 20.383C27.158 19.403 27.421 18.408 27.73 17.305Z" fill="white"/>
<path d="M24.819 27.415C24.4629 27.4091 24.1179 27.29 23.834 27.075C23.6603 26.9542 23.5128 26.7996 23.4004 26.6203C23.288 26.4411 23.213 26.241 23.18 26.032C23.1482 25.778 23.1672 25.5201 23.2359 25.2734C23.3045 25.0267 23.4215 24.7961 23.58 24.595C23.8887 24.1757 24.199 23.7567 24.511 23.338C25.056 22.604 25.621 21.844 26.163 21.091C26.3325 20.8467 26.4611 20.5766 26.544 20.291C26.756 19.591 26.95 18.885 27.156 18.137L27.411 17.217L27.592 16.569L28.416 17.669C28.936 18.364 29.43 19.022 29.916 19.685C29.9739 19.7676 30.0129 19.862 30.0302 19.9614C30.0475 20.0608 30.0426 20.1627 30.016 20.26C29.947 20.482 29.89 20.706 29.831 20.942C29.7015 21.6625 29.4143 22.3455 28.99 22.942C28.36 23.735 27.75 24.569 27.16 25.376C26.86 25.776 26.569 26.185 26.27 26.586C26.111 26.8292 25.8965 27.0311 25.6443 27.1752C25.392 27.3193 25.1092 27.4015 24.819 27.415ZM27.869 18.044L27.795 18.313C27.587 19.064 27.395 19.775 27.179 20.482C27.0753 20.8392 26.9138 21.177 26.701 21.482C26.156 22.24 25.591 23.001 25.043 23.738C24.733 24.1554 24.4233 24.5737 24.114 24.993C24.008 25.1239 23.9289 25.2744 23.8812 25.4358C23.8335 25.5973 23.8182 25.7666 23.836 25.934C23.856 26.0562 23.9005 26.173 23.9669 26.2775C24.0332 26.3819 24.12 26.4719 24.222 26.542C24.3407 26.6297 24.477 26.6907 24.6214 26.7209C24.7659 26.7511 24.9152 26.7498 25.0591 26.717C25.203 26.6843 25.3381 26.6209 25.4553 26.5311C25.5725 26.4414 25.6689 26.3274 25.738 26.197C26.0367 25.797 26.3323 25.395 26.625 24.991C27.219 24.179 27.833 23.339 28.471 22.536C28.8343 22.0117 29.079 21.4145 29.188 20.786C29.245 20.556 29.305 20.319 29.378 20.086V20.07C28.9 19.422 28.408 18.765 27.889 18.07L27.869 18.044Z" fill="white"/>
<path d="M35.5651 2.89403C35.5656 3.40319 35.4147 3.901 35.1315 4.32411C34.8483 4.74723 34.4456 5.07652 33.9747 5.2701C33.5037 5.46367 32.9859 5.51277 32.487 5.41115C31.988 5.30952 31.5306 5.06177 31.173 4.69942C30.8153 4.33706 30.5735 3.87649 30.4783 3.3763C30.3832 2.87611 30.439 2.35893 30.6386 1.89055C30.8383 1.42218 31.1728 1.02378 31.5995 0.746072C32.0263 0.46836 32.526 0.323886 33.0351 0.331029C33.708 0.343293 34.3493 0.618288 34.8221 1.09723C35.2949 1.57617 35.5616 2.22106 35.5651 2.89403Z" fill="white"/>
<path d="M33.001 5.80303C32.2306 5.7946 31.4946 5.48278 30.9526 4.93521C30.4107 4.38763 30.1064 3.64846 30.106 2.87803C30.1418 2.13255 30.4636 1.42959 31.0045 0.915365C31.5454 0.401145 32.2638 0.115265 33.0101 0.117197C33.7565 0.119129 34.4733 0.408724 35.0116 0.925738C35.5498 1.44275 35.868 2.14738 35.9 2.89303C35.9005 3.66324 35.5954 4.4022 35.0518 4.94776C34.5081 5.49332 33.7702 5.80091 33 5.80303H33.001ZM33.009 0.662028C32.4182 0.663816 31.8518 0.897801 31.4319 1.3135C31.0121 1.72919 30.7726 2.29328 30.765 2.88403C30.7678 3.47733 31.0033 4.04584 31.4209 4.46734C31.8384 4.88883 32.4047 5.12965 32.998 5.13803C33.5915 5.13433 34.1594 4.89596 34.5778 4.47497C34.9962 4.05397 35.231 3.48455 35.231 2.89103C35.2295 2.30513 34.9982 1.74321 34.5868 1.32603C34.1754 0.908849 33.6168 0.669714 33.031 0.660025L33.009 0.662028Z" fill="white"/>
</svg>
